<?xml version="1.0" encoding="UTF-8" standalone="no"?>
<!DOCTYPE svg PUBLIC "-//W3C//DTD SVG 1.1//EN" "http://www.w3.org/Graphics/SVG/1.1/DTD/svg11.dtd">
<svg xmlns="http://www.w3.org/2000/svg" xmlns:xlink="http://www.w3.org/1999/xlink" version="1.1" width="1105.9417pt" height="242.14165pt" viewBox="0 0 1105.9417 242.14165">
<g enable-background="new">
<path transform="matrix(2.7777777,0,0,-2.7777777,316.62223,80.577777)" stroke-width=".3985" stroke-linecap="butt" stroke-miterlimit="10" stroke-linejoin="miter" fill="none" stroke="#000000" d="M -113.38724 14.17339 L 113.38724 14.17339 "/>
<symbol id="font_0_5">
<path d="M .34600003 .06600001 L .34600003 0 L .493 .011000001 L .493 .042000005 C .423 .042000005 .41500003 .049000004 .41500003 .098000008 L .41500003 .705 L .271 .694 L .271 .663 C .34100003 .663 .349 .656 .349 .607 L .349 .39100004 C .32 .42700003 .277 .45300005 .22299999 .45300005 C .10500001 .45300005 0 .35500003 0 .22600001 C 0 .09900001 .098 0 .21200001 0 C .276 0 .321 .034 .34600003 .06600001 M .34600003 .33400003 L .34600003 .12900001 C .34600003 .111 .34600003 .109000008 .335 .092 C .305 .044 .26 .022000002 .21700001 .022000002 C .17200002 .022000002 .136 .048 .11200001 .086 C .086 .127 .083000008 .18400002 .083000008 .22500003 C .083000008 .26200003 .085 .32200004 .114 .367 C .13500002 .39800004 .17300001 .43100003 .227 .43100003 C .262 .43100003 .30400003 .41600005 .335 .37100003 C .34600003 .35400004 .34600003 .35200004 .34600003 .33400003 Z "/>
</symbol>
<symbol id="font_0_8">
<path d="M .144 .44200004 L .0040000008 .43100003 L .0040000008 .4 C .069000009 .4 .07800001 .39400003 .07800001 .34500004 L .07800001 .076000008 C .07800001 .031000002 .067 .031000002 0 .031000002 L 0 0 C .032000007 .001 .086 .003 .11000001 .003 C .14500001 .003 .18 .001 .21400002 0 L .21400002 .031000002 C .148 .031000002 .144 .036000004 .144 .075 L .144 .44200004 M .148 .61600008 C .148 .648 .123 .669 .095000009 .669 C .064 .669 .042000005 .642 .042000005 .61600008 C .042000005 .58900007 .064 .563 .095000009 .563 C .123 .563 .148 .58400008 .148 .61600008 Z "/>
</symbol>
<symbol id="font_0_f">
<path d="M .397 .344 C .40600003 .367 .42300005 .41000004 .48900003 .411 L .48900003 .44200004 C .46600003 .44000004 .43700005 .43900005 .41400004 .43900005 C .39000003 .43900005 .344 .441 .32700003 .44200004 L .32700003 .411 C .36400003 .41000004 .37500004 .38700003 .37500004 .36800004 C .37500004 .35900004 .37300004 .35500003 .36900003 .344 L .26700003 .089 L .155 .36800004 C .14900002 .381 .14900002 .38300003 .14900002 .38500003 C .14900002 .411 .18800003 .411 .206 .411 L .206 .44200004 C .176 .441 .12000001 .43900005 .097 .43900005 C .07 .43900005 .030000002 .44000004 0 .44200004 L 0 .411 C .063 .411 .067 .40500004 .080000009 .374 L .224 .019000002 C .23000002 .005000001 .23200003 0 .245 0 C .25800003 0 .26200003 .009000001 .26600004 .019000002 L .397 .344 Z "/>
</symbol>
<symbol id="font_0_6">
<path d="M .08400001 .263 C .09 .41200004 .17400001 .43700005 .20800002 .43700005 C .31100003 .43700005 .321 .30200003 .321 .263 L .08400001 .263 M .083000008 .24200002 L .36200003 .24200002 C .38400004 .24200002 .38700003 .24200002 .38700003 .263 C .38700003 .36200003 .33300004 .45900003 .20800002 .45900003 C .09200001 .45900003 0 .35600005 0 .23100002 C 0 .097 .105000007 0 .22000002 0 C .342 0 .38700003 .111 .38700003 .13000001 C .38700003 .14000002 .379 .14200002 .374 .14200002 C .365 .14200002 .36300005 .136 .36100004 .128 C .326 .025000003 .236 .025000003 .22600001 .025000003 C .17600002 .025000003 .136 .055000005 .113000009 .092 C .083000008 .14000002 .083000008 .20600002 .083000008 .24200002 Z "/>
</symbol>
<symbol id="font_0_d">
<path d="M .13900002 .33200003 L .13900002 .44200004 L 0 .43100003 L 0 .4 C .07000001 .4 .07800001 .393 .07800001 .344 L .07800001 .076000008 C .07800001 .031000002 .067 .031000002 0 .031000002 L 0 0 C .039 .001 .08600001 .003 .11400001 .003 C .15400002 .003 .20100002 .003 .24100003 0 L .24100003 .031000002 L .22000002 .031000002 C .14600002 .031000002 .14400001 .042000005 .14400001 .078 L .14400001 .23200001 C .14400001 .33100004 .18600002 .42000003 .26200003 .42000003 C .26900003 .42000003 .27100004 .42000003 .27300004 .41900004 C .27 .418 .25000004 .40600003 .25000004 .38000003 C .25000004 .35200004 .27100004 .337 .293 .337 C .31100003 .337 .33600004 .349 .33600004 .381 C .33600004 .41300003 .305 .44200004 .26200003 .44200004 C .18900001 .44200004 .15300001 .37500004 .13900002 .33200003 Z "/>
</symbol>
<symbol id="font_0_7">
<path d="M .19400002 .37800003 C .10700001 .37800003 .10700001 .47800005 .10700001 .50100007 C .10700001 .52800008 .10800001 .56 .12300001 .58500006 C .13100001 .59700009 .15400002 .62500008 .19400002 .62500008 C .28100003 .62500008 .28100003 .52500006 .28100003 .50200006 C .28100003 .47500003 .28000004 .44300003 .26500003 .41800005 C .25700004 .40600003 .23400003 .37800003 .19400002 .37800003 M .07800001 .33900003 C .07800001 .34300003 .07800001 .36600004 .095 .38600005 C .134 .35800005 .17500001 .35500003 .19400002 .35500003 C .28700004 .35500003 .356 .42400003 .356 .50100007 C .356 .53800007 .34000004 .57500007 .31500004 .59800007 C .351 .632 .38700003 .637 .40500004 .637 C .40700004 .637 .41200004 .637 .41500003 .63600006 C .404 .632 .39900003 .62100008 .39900003 .609 C .39900003 .592 .41200004 .58000007 .42800004 .58000007 C .43800003 .58000007 .45700003 .587 .45700003 .61 C .45700003 .62700006 .44500003 .65900006 .40600003 .65900006 C .38600005 .65900006 .342 .65300008 .3 .61200007 C .25800003 .64500007 .21600002 .64800009 .19400002 .64800009 C .10100001 .64800009 .032 .57900008 .032 .50200006 C .032 .458 .054 .42000003 .07900001 .39900003 C .066 .384 .048000006 .351 .048000006 .316 C .048000006 .28500004 .061 .24700001 .09200001 .22700002 C .032 .21000001 0 .16700001 0 .127 C 0 .055000009 .09900001 0 .22100002 0 C .33900003 0 .44300003 .051000015 .44300003 .12900001 C .44300003 .164 .42900003 .21500002 .37800003 .24300002 C .32500003 .27100004 .26700003 .27100004 .20600002 .27100004 C .18100001 .27100004 .13800001 .27100004 .13100001 .272 C .09900001 .27600003 .07800001 .307 .07800001 .33900003 M .222 .023000002 C .12100001 .023000002 .052000006 .074000019 .052000006 .127 C .052000006 .17300001 .09 .21000001 .134 .21300002 L .19300002 .21300002 C .279 .21300002 .39100004 .21300002 .39100004 .127 C .39100004 .073000017 .32000003 .023000002 .222 .023000002 Z "/>
</symbol>
<symbol id="font_0_b">
<path d="M .07800001 .344 L .07800001 .076000008 C .07800001 .031000002 .067 .031000002 0 .031000002 L 0 0 C .035 .001 .08600001 .003 .113000009 .003 C .139 .003 .191 .001 .225 0 L .225 .031000002 C .158 .031000002 .147 .031000002 .147 .076000008 L .147 .26000003 C .147 .36400003 .218 .42000003 .282 .42000003 C .345 .42000003 .356 .36600004 .356 .30900003 L .356 .076000008 C .356 .031000002 .345 .031000002 .278 .031000002 L .278 0 C .31300003 .001 .36400003 .003 .391 .003 C .41700004 .003 .46900005 .001 .503 0 L .503 .031000002 C .451 .031000002 .42600004 .031000002 .425 .061000006 L .425 .252 C .425 .33800004 .425 .36900003 .39400003 .40500004 C .38000003 .42200003 .347 .44200004 .289 .44200004 C .216 .44200004 .169 .39900003 .141 .337 L .141 .44200004 L 0 .43100003 L 0 .4 C .07000001 .4 .07800001 .393 .07800001 .344 Z "/>
</symbol>
<use xlink:href="#font_0_5" transform="matrix(27.673888,0,0,-27.673888,30.565913,28.746064)"/>
<use xlink:href="#font_0_8" transform="matrix(27.673888,0,0,-27.673888,45.924928,28.44165)"/>
<use xlink:href="#font_0_f" transform="matrix(27.673888,0,0,-27.673888,53.23083,28.746064)"/>
<use xlink:href="#font_0_6" transform="matrix(27.673888,0,0,-27.673888,67.31684,28.746064)"/>
<use xlink:href="#font_0_d" transform="matrix(27.673888,0,0,-27.673888,79.60405,28.44165)"/>
<use xlink:href="#font_0_7" transform="matrix(27.673888,0,0,-27.673888,90.45221,34.14247)"/>
<use xlink:href="#font_0_6" transform="matrix(27.673888,0,0,-27.673888,104.289157,28.746064)"/>
<use xlink:href="#font_0_b" transform="matrix(27.673888,0,0,-27.673888,116.68706,28.44165)"/>
<use xlink:href="#font_0_5" transform="matrix(27.673888,0,0,-27.673888,503.00758,28.746064)"/>
<use xlink:href="#font_0_8" transform="matrix(27.673888,0,0,-27.673888,518.3665,28.44165)"/>
<use xlink:href="#font_0_f" transform="matrix(27.673888,0,0,-27.673888,525.6725,28.746064)"/>
<use xlink:href="#font_0_6" transform="matrix(27.673888,0,0,-27.673888,539.7585,28.746064)"/>
<use xlink:href="#font_0_d" transform="matrix(27.673888,0,0,-27.673888,552.0457,28.44165)"/>
<use xlink:href="#font_0_7" transform="matrix(27.673888,0,0,-27.673888,562.89389,34.14247)"/>
<use xlink:href="#font_0_6" transform="matrix(27.673888,0,0,-27.673888,576.7308,28.746064)"/>
<use xlink:href="#font_0_b" transform="matrix(27.673888,0,0,-27.673888,589.1287,28.44165)"/>
<path transform="matrix(2.7777777,0,0,-2.7777777,316.62223,80.577777)" d="M 1.99255 14.17339 C 1.99255 15.27386 1.10046 16.16594 0 16.16594 C -1.10046 16.16594 -1.99255 15.27386 -1.99255 14.17339 C -1.99255 13.07292 -1.10046 12.18083 0 12.18083 C 1.10046 12.18083 1.99255 13.07292 1.99255 14.17339 Z M 0 14.17339 "/>
<path transform="matrix(2.7777777,0,0,-2.7777777,316.62223,80.577777)" stroke-width=".3985" stroke-linecap="butt" stroke-miterlimit="10" stroke-linejoin="miter" fill="none" stroke="#000000" d="M 1.99255 14.17339 C 1.99255 15.27386 1.10046 16.16594 0 16.16594 C -1.10046 16.16594 -1.99255 15.27386 -1.99255 14.17339 C -1.99255 13.07292 -1.10046 12.18083 0 12.18083 C 1.10046 12.18083 1.99255 13.07292 1.99255 14.17339 Z M 0 14.17339 "/>
<path transform="matrix(2.7777777,0,0,-2.7777777,316.62223,80.577777)" stroke-width="1.19553" stroke-linecap="butt" stroke-miterlimit="10" stroke-linejoin="miter" fill="none" stroke="#000000" d="M -113.38724 -14.17339 L 113.38724 -14.17339 "/>
<symbol id="font_0_a">
<path d="M .07800001 .076000008 C .07800001 .031000002 .067 .031000002 0 .031000002 L 0 0 C .033000005 .001 .08 .003 .10900001 .003 C .13900002 .003 .17900002 .002 .21900001 0 L .21900001 .031000002 C .15200001 .031000002 .14100002 .031000002 .14100002 .076000008 L .14100002 .179 L .20500002 .23400001 C .282 .128 .32400004 .072000008 .32400004 .054 C .32400004 .035 .307 .031000002 .28800003 .031000002 L .28800003 0 C .316 .001 .37500004 .003 .39600004 .003 C .425 .003 .45400004 .002 .48300005 0 L .48300005 .031000002 C .44600005 .031000002 .42400003 .031000002 .38600005 .08400001 L .259 .263 C .25800003 .26500003 .25300003 .27100004 .25300003 .27400003 C .25300003 .27800004 .32400004 .33800004 .33400003 .34600003 C .397 .397 .439 .39900003 .46000005 .4 L .46000005 .43100003 C .43100003 .42800004 .418 .42800004 .39000003 .42800004 C .35400004 .42800004 .29200004 .43 .27800004 .43100003 L .27800004 .4 C .29700003 .39900003 .307 .388 .307 .37500004 C .307 .35500003 .293 .34300003 .28500004 .33600004 L .14400001 .21400002 L .14400001 .694 L 0 .683 L 0 .652 C .07000001 .652 .07800001 .64500007 .07800001 .596 L .07800001 .076000008 Z "/>
</symbol>
<symbol id="font_0_c">
<path d="M .44300003 .22500003 C .44300003 .35300002 .34300003 .45900003 .222 .45900003 C .097 .45900003 0 .35000003 0 .22500003 C 0 .096 .104 0 .22100002 0 C .342 0 .44300003 .098000008 .44300003 .22500003 M .222 .025000003 C .17900002 .025000003 .135 .046 .10800001 .092 C .083000008 .136 .083000008 .19700001 .083000008 .23300003 C .083000008 .272 .083000008 .32600004 .10700001 .37000004 C .134 .41600005 .18100001 .43700005 .22100002 .43700005 C .26500003 .43700005 .30800004 .41500003 .33400003 .37200005 C .36 .32900004 .36 .27100004 .36 .23300003 C .36 .19700001 .36 .143 .33800004 .09900001 C .316 .054 .272 .025000003 .222 .025000003 Z "/>
</symbol>
<use xlink:href="#font_0_a" transform="matrix(27.673888,0,0,-27.673888,257.01377,107.18054)"/>
<use xlink:href="#font_0_c" transform="matrix(27.673888,0,0,-27.673888,270.8507,107.484958)"/>
<use xlink:href="#font_0_b" transform="matrix(27.673888,0,0,-27.673888,284.79835,107.18054)"/>
<use xlink:href="#font_0_f" transform="matrix(27.673888,0,0,-27.673888,299.0504,107.484958)"/>
<use xlink:href="#font_0_6" transform="matrix(27.673888,0,0,-27.673888,313.1641,107.484958)"/>
<use xlink:href="#font_0_d" transform="matrix(27.673888,0,0,-27.673888,325.4513,107.18054)"/>
<use xlink:href="#font_0_7" transform="matrix(27.673888,0,0,-27.673888,336.29948,112.88136)"/>
<use xlink:href="#font_0_6" transform="matrix(27.673888,0,0,-27.673888,350.1364,107.484958)"/>
<use xlink:href="#font_0_b" transform="matrix(27.673888,0,0,-27.673888,362.5343,107.18054)"/>
<symbol id="font_1_2">
<path d="M .35500003 .39100004 C .33900003 .39100004 .32500003 .39100004 .31100003 .37700004 C .29500003 .36200003 .293 .34500004 .293 .33800004 C .293 .314 .31100003 .30300004 .33 .30300004 C .359 .30300004 .386 .32700003 .386 .367 C .386 .41600005 .33900003 .45300005 .268 .45300005 C .13300002 .45300005 0 .31000004 0 .16900002 C 0 .079 .058000007 0 .162 0 C .305 0 .389 .106000009 .389 .11800001 C .389 .124000009 .38300003 .13100001 .377 .13100001 C .372 .13100001 .37 .12900001 .36400003 .12100001 C .285 .022000002 .176 .022000002 .164 .022000002 C .101 .022000002 .074 .071 .074 .13100001 C .074 .17200002 .094000007 .26900003 .12800002 .33100004 C .15900001 .388 .21400002 .43100003 .269 .43100003 C .303 .43100003 .34100003 .418 .35500003 .39100004 Z "/>
</symbol>
<use xlink:href="#font_1_2" transform="matrix(27.673888,0,0,-27.673888,311.76799,63.218309)"/>
<path transform="matrix(2.7777777,0,0,-2.7777777,316.62223,80.577777)" stroke-width=".3985" stroke-linecap="butt" stroke-miterlimit="10" stroke-linejoin="miter" fill="none" stroke="#000000" d="M 0 -11.33855 L 0 -17.00824 L 0 -11.33855 Z M 0 -17.00824 "/>
<path transform="matrix(2.7777777,0,0,-2.7777777,316.62223,80.577777)" stroke-width=".3985" stroke-linecap="butt" stroke-miterlimit="10" stroke-linejoin="miter" fill="none" stroke="#000000" d="M -113.38724 -42.5202 L 113.38724 -42.5202 "/>
<path transform="matrix(2.7777777,0,0,-2.7777777,316.62223,80.577777)" stroke-width="1.19553" stroke-linecap="butt" stroke-miterlimit="10" stroke-linejoin="miter" fill="none" stroke="#000000" d="M -85.04042 -42.5202 L 85.04042 -42.5202 "/>
<use xlink:href="#font_1_2" transform="matrix(27.673888,0,0,-27.673888,311.76799,145.89328)"/>
<path transform="matrix(2.7777777,0,0,-2.7777777,316.62223,80.577777)" stroke-width=".3985" stroke-linecap="butt" stroke-miterlimit="10" stroke-linejoin="miter" fill="none" stroke="#000000" d="M 0 -39.68535 L 0 -45.35506 L 0 -39.68535 Z M 0 -45.35506 "/>
<path transform="matrix(2.7777777,0,0,-2.7777777,316.62223,80.577777)" d="M -83.04787 -42.5202 C -83.04787 -41.41972 -83.93996 -40.52765 -85.04042 -40.52765 C -86.1409 -40.52765 -87.03297 -41.41972 -87.03297 -42.5202 C -87.03297 -43.62067 -86.1409 -44.51276 -85.04042 -44.51276 C -83.93996 -44.51276 -83.04787 -43.62067 -83.04787 -42.5202 Z M -85.04042 -42.5202 " fill="#ffffff"/>
<path transform="matrix(2.7777777,0,0,-2.7777777,316.62223,80.577777)" stroke-width=".3985" stroke-linecap="butt" stroke-miterlimit="10" stroke-linejoin="miter" fill="none" stroke="#000000" d="M -83.04787 -42.5202 C -83.04787 -41.41972 -83.93996 -40.52765 -85.04042 -40.52765 C -86.1409 -40.52765 -87.03297 -41.41972 -87.03297 -42.5202 C -87.03297 -43.62067 -86.1409 -44.51276 -85.04042 -44.51276 C -83.93996 -44.51276 -83.04787 -43.62067 -83.04787 -42.5202 Z M -85.04042 -42.5202 "/>
<path transform="matrix(2.7777777,0,0,-2.7777777,316.62223,80.577777)" d="M 87.03297 -42.5202 C 87.03297 -41.41972 86.1409 -40.52765 85.04042 -40.52765 C 83.93996 -40.52765 83.04787 -41.41972 83.04787 -42.5202 C 83.04787 -43.62067 83.93996 -44.51276 85.04042 -44.51276 C 86.1409 -44.51276 87.03297 -43.62067 87.03297 -42.5202 Z M 85.04042 -42.5202 " fill="#ffffff"/>
<path transform="matrix(2.7777777,0,0,-2.7777777,316.62223,80.577777)" stroke-width=".3985" stroke-linecap="butt" stroke-miterlimit="10" stroke-linejoin="miter" fill="none" stroke="#000000" d="M 87.03297 -42.5202 C 87.03297 -41.41972 86.1409 -40.52765 85.04042 -40.52765 C 83.93996 -40.52765 83.04787 -41.41972 83.04787 -42.5202 C 83.04787 -43.62067 83.93996 -44.51276 85.04042 -44.51276 C 86.1409 -44.51276 87.03297 -43.62067 87.03297 -42.5202 Z M 85.04042 -42.5202 "/>
<use xlink:href="#font_1_2" transform="matrix(27.673888,0,0,-27.673888,48.02353,230.91555)"/>
<symbol id="font_2_1">
<path d="M .57600006 0 C .59300008 0 .611 0 .611 .019999996 C .611 .040000008 .59300008 .040000008 .57600006 .040000008 L .035000005 .040000008 C .018 .040000008 0 .040000008 0 .019999996 C 0 0 .018 0 .035000005 0 L .57600006 0 Z "/>
</symbol>
<use xlink:href="#font_2_1" transform="matrix(27.673888,0,0,-27.673888,67.31084,224.24614)"/>
<symbol id="font_1_1">
<path d="M .33400003 .63600006 C .34 .66 .343 .67 .36200003 .67300006 C .37100003 .674 .40300004 .674 .423 .674 C .49400003 .674 .605 .674 .605 .57500007 C .605 .54100009 .58900007 .47200004 .55 .43300004 C .524 .40700004 .47100003 .37500004 .381 .37500004 L .269 .37500004 L .33400003 .63600006 M .47800005 .36200003 C .579 .38400004 .698 .45400004 .698 .55500009 C .698 .64100006 .60800006 .70500007 .477 .70500007 L .192 .70500007 C .17200002 .70500007 .16300002 .70500007 .16300002 .68500009 C .16300002 .674 .17200002 .674 .19100002 .674 C .19300002 .674 .21200001 .674 .229 .67200008 C .24700001 .67 .256 .669 .256 .656 C .256 .65200009 .255 .64900007 .252 .637 L .11800001 .1 C .108 .061000006 .106 .053000004 .027000003 .053000004 C .009 .053000004 0 .053000004 0 .033000005 C 0 .022000002 .012000002 .022000002 .014000002 .022000002 C .042000005 .022000002 .11200001 .025000003 .14000002 .025000003 C .16800002 .025000003 .239 .022000002 .26700003 .022000002 C .275 .022000002 .287 .022000002 .287 .042000005 C .287 .053000004 .278 .053000004 .259 .053000004 C .222 .053000004 .194 .053000004 .194 .071 C .194 .07700001 .19600001 .082 .197 .088 L .263 .35300005 L .382 .35300005 C .473 .35300005 .491 .29700003 .491 .26200003 C .491 .24700001 .48300005 .216 .477 .193 C .47000004 .165 .46100004 .128 .46100004 .108 C .46100004 0 .58100005 0 .59400007 0 C .679 0 .71400007 .101 .71400007 .115 C .71400007 .127 .703 .127 .702 .127 C .693 .127 .69100007 .120000008 .689 .113000009 C .66400006 .039000006 .62100008 .022000002 .59800007 .022000002 C .565 .022000002 .558 .044000005 .558 .083000008 C .558 .11400001 .564 .165 .568 .19700001 C .57 .21100001 .572 .23 .572 .24400002 C .572 .32100005 .505 .35200004 .47800005 .36200003 Z "/>
</symbol>
<use xlink:href="#font_1_1" transform="matrix(27.673888,0,0,-27.673888,93.82074,231.21996)"/>
<use xlink:href="#font_1_2" transform="matrix(27.673888,0,0,-27.673888,520.46249,230.91555)"/>
<symbol id="font_0_1">
<path d="M .35300002 .31300003 L .632 .31300003 C .646 .31300003 .665 .31300003 .665 .333 C .665 .35300002 .646 .35300002 .632 .35300002 L .35300002 .35300002 L .35300002 .633 C .35300002 .647 .35300002 .666 .33300004 .666 C .31300003 .666 .31300003 .647 .31300003 .633 L .31300003 .35300002 L .033 .35300002 C .019000002 .35300002 0 .35300002 0 .333 C 0 .31300003 .019000002 .31300003 .033 .31300003 L .31300003 .31300003 L .31300003 .033000005 C .31300003 .019000002 .31300003 0 .33300004 0 C .35300002 0 .35300002 .019000002 .35300002 .033000005 L .35300002 .31300003 Z "/>
</symbol>
<use xlink:href="#font_0_1" transform="matrix(27.673888,0,0,-27.673888,539.0025,232.90807)"/>
<use xlink:href="#font_1_1" transform="matrix(27.673888,0,0,-27.673888,566.2624,231.21996)"/>
<use xlink:href="#font_1_2" transform="matrix(27.673888,0,0,-27.673888,311.76799,228.57106)"/>
<use xlink:href="#font_0_5" transform="matrix(27.673888,0,0,-27.673888,69.93814,190.16272)"/>
<use xlink:href="#font_0_8" transform="matrix(27.673888,0,0,-27.673888,85.29715,189.8583)"/>
<use xlink:href="#font_0_f" transform="matrix(27.673888,0,0,-27.673888,92.60305,190.16272)"/>
<use xlink:href="#font_0_6" transform="matrix(27.673888,0,0,-27.673888,106.689067,190.16272)"/>
<use xlink:href="#font_0_d" transform="matrix(27.673888,0,0,-27.673888,118.976268,189.8583)"/>
<use xlink:href="#font_0_7" transform="matrix(27.673888,0,0,-27.673888,129.82444,195.55913)"/>
<use xlink:href="#font_0_6" transform="matrix(27.673888,0,0,-27.673888,143.66138,190.16272)"/>
<use xlink:href="#font_0_b" transform="matrix(27.673888,0,0,-27.673888,156.05928,189.8583)"/>
<use xlink:href="#font_0_5" transform="matrix(27.673888,0,0,-27.673888,463.63813,190.16272)"/>
<use xlink:href="#font_0_8" transform="matrix(27.673888,0,0,-27.673888,478.9971,189.8583)"/>
<use xlink:href="#font_0_f" transform="matrix(27.673888,0,0,-27.673888,486.30305,190.16272)"/>
<use xlink:href="#font_0_6" transform="matrix(27.673888,0,0,-27.673888,500.38908,190.16272)"/>
<use xlink:href="#font_0_d" transform="matrix(27.673888,0,0,-27.673888,512.6763,189.8583)"/>
<use xlink:href="#font_0_7" transform="matrix(27.673888,0,0,-27.673888,523.5244,195.55913)"/>
<use xlink:href="#font_0_6" transform="matrix(27.673888,0,0,-27.673888,537.3613,190.16272)"/>
<use xlink:href="#font_0_b" transform="matrix(27.673888,0,0,-27.673888,549.7593,189.8583)"/>
<use xlink:href="#font_0_a" transform="matrix(27.673888,0,0,-27.673888,257.01377,189.8583)"/>
<use xlink:href="#font_0_c" transform="matrix(27.673888,0,0,-27.673888,270.8507,190.16272)"/>
<use xlink:href="#font_0_b" transform="matrix(27.673888,0,0,-27.673888,284.79835,189.8583)"/>
<use xlink:href="#font_0_f" transform="matrix(27.673888,0,0,-27.673888,299.0504,190.16272)"/>
<use xlink:href="#font_0_6" transform="matrix(27.673888,0,0,-27.673888,313.1641,190.16272)"/>
<use xlink:href="#font_0_d" transform="matrix(27.673888,0,0,-27.673888,325.4513,189.8583)"/>
<use xlink:href="#font_0_7" transform="matrix(27.673888,0,0,-27.673888,336.29948,195.55913)"/>
<use xlink:href="#font_0_6" transform="matrix(27.673888,0,0,-27.673888,350.1364,190.16272)"/>
<use xlink:href="#font_0_b" transform="matrix(27.673888,0,0,-27.673888,362.5343,189.8583)"/>
<symbol id="font_0_9">
<path d="M .25 .6470001 L .098000008 .63600006 L .098000008 .605 C .17500001 .605 .18400002 .59800007 .18400002 .549 L .18400002 .15300001 C .18400002 .10800001 .17500001 .022 .111 .022 C .106000009 .022 .083000008 .022 .057000005 .03500001 C .072000008 .039000006 .09200001 .053000004 .09200001 .08000001 C .09200001 .106000009 .074 .12600002 .046000005 .12600002 C .018000002 .12600002 0 .106000009 0 .08000001 C 0 .028000012 .056 0 .113000009 0 C .18800001 0 .25 .06400001 .25 .15500002 L .25 .6470001 M .25 .8210001 C .25 .85 .22600001 .8740001 .19700001 .8740001 C .16800002 .8740001 .14400001 .85 .14400001 .8210001 C .14400001 .79200008 .16800002 .768 .19700001 .768 C .22600001 .768 .25 .79200008 .25 .8210001 Z "/>
</symbol>
<symbol id="font_0_4">
<path d="M .291 .087000008 C .29500003 .047000003 .32200004 .005000001 .36900003 .005000001 C .39000003 .005000001 .45100004 .019000002 .45100004 .1 L .45100004 .15600002 L .42600004 .15600002 L .42600004 .1 C .42600004 .042000005 .40100003 .036000004 .39000003 .036000004 C .35700003 .036000004 .35300002 .081 .35300002 .086 L .35300002 .286 C .35300002 .328 .35300002 .367 .31700004 .404 C .27800004 .44300003 .22800002 .45900003 .18 .45900003 C .098 .45900003 .029 .41200004 .029 .34600003 C .029 .316 .049000004 .29900003 .075 .29900003 C .10300001 .29900003 .121 .31900005 .121 .34500004 C .121 .35700003 .116000007 .39000003 .07 .39100004 C .09700001 .42600004 .146 .43700005 .178 .43700005 C .22700003 .43700005 .284 .39800004 .284 .30900003 L .284 .272 C .23300001 .26900003 .16300002 .26600004 .1 .23600002 C .024999999 .20200002 0 .15000002 0 .106000009 C 0 .025000003 .09700001 0 .16 0 C .22600001 0 .272 .040000004 .291 .087000008 M .284 .25100003 L .284 .15100001 C .284 .056 .21200001 .022000002 .167 .022000002 C .11800001 .022000002 .077 .057000005 .077 .107 C .077 .16200002 .11900001 .24500002 .284 .25100003 Z "/>
</symbol>
<symbol id="font_0_2">
<path d="M .26500003 0 L .26500003 .058 L 0 .058 L 0 0 L .26500003 0 Z "/>
</symbol>
<symbol id="font_0_e">
<path d="M .17500001 .20500002 C .197 .20100002 .279 .18500002 .279 .113000009 C .279 .062000004 .24400002 .022000002 .16600001 .022000002 C .082 .022000002 .046000005 .079 .027000003 .16400002 C .024000004 .17700002 .023000002 .18100001 .013000004 .18100001 C 0 .18100001 0 .17400001 0 .15600002 L 0 .024 C 0 .0070000009 0 0 .011000004 0 C .016000003 0 .017 .0010000002 .036000007 .020000002 C .038000004 .022000002 .038000004 .024 .056 .043 C .1 .0010000002 .14500001 0 .16600001 0 C .28100003 0 .32700003 .067 .32700003 .13900002 C .32700003 .19200002 .29700003 .22200002 .28500004 .23400001 C .25200004 .26600004 .213 .27400003 .171 .28200004 C .115 .293 .048 .30600003 .048 .36400003 C .048 .39900003 .07400001 .44000004 .16 .44000004 C .27 .44000004 .27500005 .35000003 .277 .31900005 C .27800004 .31000004 .28700004 .31000004 .28900004 .31000004 C .30200003 .31000004 .30200003 .31500004 .30200003 .33400003 L .30200003 .43500004 C .30200003 .45200003 .30200003 .45900003 .291 .45900003 C .286 .45900003 .284 .45900003 .27100004 .44700004 C .26800005 .44300003 .25800003 .43400003 .254 .43100003 C .21600002 .45900003 .17500001 .45900003 .16 .45900003 C .038000004 .45900003 0 .39200003 0 .33600004 C 0 .30100004 .016000003 .27300004 .043000007 .25100003 C .075 .22500003 .10300001 .21900001 .17500001 .20500002 Z "/>
</symbol>
<symbol id="font_0_3">
<path d="M .421 .34200005 C .421 .42200003 .416 .50200006 .381 .57600006 C .335 .67200008 .25300003 .688 .211 .688 C .15100001 .688 .07800001 .66200008 .037000006 .56900009 C .0050000029 .5 0 .42200003 0 .34200005 C 0 .26700003 .0040000008 .177 .045000007 .101 C .088 .020000002 .161 0 .21000001 0 C .264 0 .34 .021000002 .384 .116000007 C .416 .185 .421 .263 .421 .34200005 M .21000001 .022000002 C .171 .022000002 .112 .047000003 .094 .143 C .083000008 .20300001 .083000008 .29500003 .083000008 .35400004 C .083000008 .41800005 .083000008 .48400004 .091000009 .53800007 C .11 .65700009 .185 .66600009 .21000001 .66600009 C .243 .66600009 .30900003 .64800009 .328 .549 C .338 .49300004 .338 .41700004 .338 .35400004 C .338 .279 .338 .21100001 .32700003 .147 C .312 .052 .255 .022000002 .21000001 .022000002 Z "/>
</symbol>
<use xlink:href="#font_0_9" transform="matrix(27.673888,0,0,-27.673888,797.73196,53.798166)"/>
<use xlink:href="#font_0_4" transform="matrix(27.673888,0,0,-27.673888,808.46939,48.42943)"/>
<use xlink:href="#font_0_d" transform="matrix(27.673888,0,0,-27.673888,821.9188,48.125017)"/>
<use xlink:href="#font_0_8" transform="matrix(27.673888,0,0,-27.673888,832.90536,48.125017)"/>
<use xlink:href="#font_0_2" transform="matrix(27.673888,0,0,-27.673888,839.9898,42.949998)"/>
<use xlink:href="#font_0_9" transform="matrix(27.673888,0,0,-27.673888,847.7939,53.798166)"/>
<use xlink:href="#font_0_4" transform="matrix(27.673888,0,0,-27.673888,858.5313,48.42943)"/>
<use xlink:href="#font_0_d" transform="matrix(27.673888,0,0,-27.673888,871.9808,48.125017)"/>
<use xlink:href="#font_0_8" transform="matrix(27.673888,0,0,-27.673888,882.9673,48.125017)"/>
<use xlink:href="#font_0_a" transform="matrix(27.673888,0,0,-27.673888,899.7376,48.125017)"/>
<use xlink:href="#font_0_c" transform="matrix(27.673888,0,0,-27.673888,913.5746,48.42943)"/>
<use xlink:href="#font_0_b" transform="matrix(27.673888,0,0,-27.673888,927.5222,48.125017)"/>
<use xlink:href="#font_0_f" transform="matrix(27.673888,0,0,-27.673888,941.802,48.42943)"/>
<use xlink:href="#font_0_6" transform="matrix(27.673888,0,0,-27.673888,955.88796,48.42943)"/>
<use xlink:href="#font_0_d" transform="matrix(27.673888,0,0,-27.673888,968.1752,48.125017)"/>
<use xlink:href="#font_0_7" transform="matrix(27.673888,0,0,-27.673888,979.0233,53.825838)"/>
<use xlink:href="#font_0_6" transform="matrix(27.673888,0,0,-27.673888,992.8602,48.42943)"/>
<use xlink:href="#font_0_b" transform="matrix(27.673888,0,0,-27.673888,1005.2582,48.125017)"/>
<use xlink:href="#font_0_e" transform="matrix(27.673888,0,0,-27.673888,1020.67257,48.42943)"/>
<use xlink:href="#font_0_8" transform="matrix(27.673888,0,0,-27.673888,1031.576,48.125017)"/>
<use xlink:href="#font_0_3" transform="matrix(27.673888,0,0,-27.673888,1048.6508,48.73384)"/>
<use xlink:href="#font_0_9" transform="matrix(27.673888,0,0,-27.673888,797.73196,132.5398)"/>
<use xlink:href="#font_0_4" transform="matrix(27.673888,0,0,-27.673888,808.46939,127.17107)"/>
<use xlink:href="#font_0_d" transform="matrix(27.673888,0,0,-27.673888,821.9188,126.86665)"/>
<use xlink:href="#font_0_8" transform="matrix(27.673888,0,0,-27.673888,832.90536,126.86665)"/>
<use xlink:href="#font_0_2" transform="matrix(27.673888,0,0,-27.673888,839.9898,121.691638)"/>
<use xlink:href="#font_0_9" transform="matrix(27.673888,0,0,-27.673888,847.7939,132.5398)"/>
<use xlink:href="#font_0_4" transform="matrix(27.673888,0,0,-27.673888,858.5313,127.17107)"/>
<use xlink:href="#font_0_d" transform="matrix(27.673888,0,0,-27.673888,871.9808,126.86665)"/>
<use xlink:href="#font_0_8" transform="matrix(27.673888,0,0,-27.673888,882.9673,126.86665)"/>
<use xlink:href="#font_0_a" transform="matrix(27.673888,0,0,-27.673888,899.7376,126.86665)"/>
<use xlink:href="#font_0_c" transform="matrix(27.673888,0,0,-27.673888,913.5746,127.17107)"/>
<use xlink:href="#font_0_b" transform="matrix(27.673888,0,0,-27.673888,927.5222,126.86665)"/>
<use xlink:href="#font_0_f" transform="matrix(27.673888,0,0,-27.673888,941.802,127.17107)"/>
<use xlink:href="#font_0_6" transform="matrix(27.673888,0,0,-27.673888,955.88796,127.17107)"/>
<use xlink:href="#font_0_d" transform="matrix(27.673888,0,0,-27.673888,968.1752,126.86665)"/>
<use xlink:href="#font_0_7" transform="matrix(27.673888,0,0,-27.673888,979.0233,132.56748)"/>
<use xlink:href="#font_0_6" transform="matrix(27.673888,0,0,-27.673888,992.8602,127.17107)"/>
<use xlink:href="#font_0_b" transform="matrix(27.673888,0,0,-27.673888,1005.2582,126.86665)"/>
<use xlink:href="#font_0_e" transform="matrix(27.673888,0,0,-27.673888,1020.67257,127.17107)"/>
<use xlink:href="#font_0_8" transform="matrix(27.673888,0,0,-27.673888,1031.576,126.86665)"/>
<use xlink:href="#font_0_1" transform="matrix(27.673888,0,0,-27.673888,1049.1212,129.16359)"/>
<symbol id="font_2_2">
<path d="M .453 .28200004 C .39900003 .35000003 .38700003 .365 .356 .39000003 C .3 .43500004 .24400002 .45300005 .193 .45300005 C .076000008 .45300005 0 .34300003 0 .22600001 C 0 .111 .074 0 .18900001 0 C .30400003 0 .38700003 .091000009 .43600003 .17100002 C .49 .10300001 .50200006 .08800001 .533 .063 C .58900007 .018000002 .64500007 0 .69600006 0 C .813 0 .88900008 .11000001 .88900008 .22700002 C .88900008 .34200005 .81500008 .45300005 .70000007 .45300005 C .58500006 .45300005 .50200006 .36200003 .453 .28200004 M .47900004 .24800003 C .52000007 .32000003 .59400007 .42100004 .707 .42100004 C .813 .42100004 .86700007 .31700004 .86700007 .22700002 C .86700007 .12900001 .8 .048 .712 .048 C .65400007 .048 .609 .09 .588 .111 C .563 .13800001 .54 .16900002 .47900004 .24800003 M .41000004 .20500002 C .36900003 .13300002 .29500003 .032 .18200001 .032 C .076000008 .032 .022000004 .136 .022000004 .22600001 C .022000004 .32400004 .089 .40500004 .177 .40500004 C .23500002 .40500004 .28 .36300005 .301 .34200005 C .326 .31500004 .349 .284 .41000004 .20500002 Z "/>
</symbol>
<use xlink:href="#font_2_2" transform="matrix(27.673888,0,0,-27.673888,1070.5665,127.17107)"/>
<use xlink:href="#font_0_9" transform="matrix(27.673888,0,0,-27.673888,797.73196,211.27867)"/>
<use xlink:href="#font_0_4" transform="matrix(27.673888,0,0,-27.673888,808.46939,205.90995)"/>
<use xlink:href="#font_0_d" transform="matrix(27.673888,0,0,-27.673888,821.9188,205.60553)"/>
<use xlink:href="#font_0_8" transform="matrix(27.673888,0,0,-27.673888,832.90536,205.60553)"/>
<use xlink:href="#font_0_2" transform="matrix(27.673888,0,0,-27.673888,839.9898,200.43051)"/>
<use xlink:href="#font_0_9" transform="matrix(27.673888,0,0,-27.673888,847.7939,211.27867)"/>
<use xlink:href="#font_0_4" transform="matrix(27.673888,0,0,-27.673888,858.5313,205.90995)"/>
<use xlink:href="#font_0_d" transform="matrix(27.673888,0,0,-27.673888,871.9808,205.60553)"/>
<use xlink:href="#font_0_8" transform="matrix(27.673888,0,0,-27.673888,882.9673,205.60553)"/>
<use xlink:href="#font_0_a" transform="matrix(27.673888,0,0,-27.673888,899.7376,205.60553)"/>
<use xlink:href="#font_0_c" transform="matrix(27.673888,0,0,-27.673888,913.5746,205.90995)"/>
<use xlink:href="#font_0_b" transform="matrix(27.673888,0,0,-27.673888,927.5222,205.60553)"/>
<use xlink:href="#font_0_f" transform="matrix(27.673888,0,0,-27.673888,941.802,205.90995)"/>
<use xlink:href="#font_0_6" transform="matrix(27.673888,0,0,-27.673888,955.88796,205.90995)"/>
<use xlink:href="#font_0_d" transform="matrix(27.673888,0,0,-27.673888,968.1752,205.60553)"/>
<use xlink:href="#font_0_7" transform="matrix(27.673888,0,0,-27.673888,979.0233,211.30635)"/>
<use xlink:href="#font_0_6" transform="matrix(27.673888,0,0,-27.673888,992.8602,205.90995)"/>
<use xlink:href="#font_0_b" transform="matrix(27.673888,0,0,-27.673888,1005.2582,205.60553)"/>
<use xlink:href="#font_0_e" transform="matrix(27.673888,0,0,-27.673888,1020.67257,205.90995)"/>
<use xlink:href="#font_0_8" transform="matrix(27.673888,0,0,-27.673888,1031.576,205.60553)"/>
<use xlink:href="#font_1_1" transform="matrix(27.673888,0,0,-27.673888,1048.6569,206.21436)"/>
</g>
</svg>
