<?xml version="1.0" encoding="UTF-8" standalone="no"?>
<!DOCTYPE svg PUBLIC "-//W3C//DTD SVG 1.1//EN" "http://www.w3.org/Graphics/SVG/1.1/DTD/svg11.dtd">
<svg xmlns="http://www.w3.org/2000/svg" xmlns:xlink="http://www.w3.org/1999/xlink" version="1.1" width="965.9472pt" height="414.80555pt" viewBox="0 0 965.9472 414.80555">
<g enable-background="new">
<path transform="matrix(2.7777777,0,0,-2.7777777,211.93332,272.51945)" d="M 34.0165 34.0165 C 34.0165 34.0165 34.00853 34.59521 34.00275 34.81818 C 33.99695 35.04114 33.98497 35.40002 33.97472 35.62349 C 33.96445 35.84694 33.94475 36.20622 33.92877 36.42879 C 33.9128 36.65135 33.88084 37.00536 33.8595 37.2276 C 33.83815 37.44984 33.80087 37.80812 33.77489 38.03058 C 33.74889 38.25304 33.70377 38.60985 33.67212 38.83095 C 33.64047 39.05203 33.58409 39.40399 33.54675 39.62407 C 33.50943 39.84415 33.44481 40.19717 33.40298 40.41718 C 33.36115 40.63718 33.29218 40.9912 33.24518 41.20976 C 33.19821 41.42833 33.117 41.7757 33.0643 41.9925 C 33.0116 42.2093 32.92259 42.5561 32.86523 42.77237 C 32.80788 42.98863 32.71346 43.33641 32.65088 43.5512 C 32.58829 43.76599 32.48216 44.1077 32.41418 44.32043 C 32.3462 44.53317 32.23361 44.87323 32.16089 45.08449 C 32.08817 45.29575 31.9676 45.63332 31.88994 45.84308 C 31.81227 46.05283 31.6838 46.38881 31.60109 46.59622 C 31.51839 46.80363 31.38138 47.1325 31.29381 47.33794 C 31.20625 47.54338 31.06215 47.87294 30.96994 48.07681 C 30.87772 48.28069 30.72649 48.60634 30.62917 48.80737 C 30.53185 49.0084 30.37054 49.32716 30.26843 49.52573 C 30.1663 49.7243 29.99937 50.04163 29.89316 50.23865 C 29.78693 50.43568 29.61406 50.75197 29.50282 50.94586 C 29.3916 51.13977 29.20764 51.44547 29.09149 51.6362 C 28.97533 51.82692 28.78569 52.13185 28.6656 52.32057 C 28.54552 52.50928 28.35077 52.81107 28.22597 52.99637 C 28.10117 53.18167 27.89548 53.47395 27.76608 53.65608 C 27.63672 53.83821 27.42657 54.12941 27.29349 54.30905 C 27.1604 54.48871 26.94426 54.77481 26.80687 54.95085 C 26.66951 55.12689 26.4452 55.40524 26.30339 55.57787 C 26.1616 55.75049 25.93056 56.02513 25.78487 56.19502 C 25.63918 56.3649 25.40308 56.6365 25.25337 56.8023 C 25.10364 56.96812 24.85962 57.2285 24.70576 57.39014 C 24.5519 57.55177 24.3017 57.80835 24.14441 57.96733 C 23.98714 58.1263 23.73329 58.38097 23.57214 58.53593 C 23.41103 58.69092 23.14787 58.93344 22.98305 59.08432 C 22.81819 59.23518 22.55203 59.47586 22.38405 59.62335 C 22.21608 59.77084 21.94392 60.00435 21.77235 60.14734 C 21.60077 60.29033 21.32257 60.51524 21.1474 60.65393 C 20.97223 60.79263 20.68811 61.01212 20.50975 61.14703 C 20.3314 61.28195 20.0434 61.49588 19.86198 61.62636 C 19.68057 61.75687 19.38687 61.9618 19.20227 62.08755 C 19.01765 62.21329 18.71896 62.41084 18.5314 62.53264 C 18.34384 62.65442 18.04056 62.84747 17.8504 62.96527 C 17.66023 63.08305 17.35367 63.26865 17.16084 63.38155 C 16.96802 63.49443 16.65631 63.67096 16.46063 63.77887 C 16.26497 63.8868 15.94862 64.05585 15.75058 64.15933 C 15.55254 64.26283 15.23367 64.42603 15.03325 64.52475 C 14.83282 64.62347 14.50879 64.77702 14.30606 64.87096 C 14.10333 64.9649 13.77696 65.11246 13.57213 65.20186 C 13.36728 65.29126 13.03659 65.4311 12.82962 65.51535 C 12.62265 65.59961 12.2894 65.72981 12.08037 65.80914 C 11.87135 65.88847 11.53387 66.01245 11.32307 66.0871 C 11.11229 66.16174 10.77348 66.27803 10.56111 66.34712 C 10.34872 66.41623 10.00642 66.52129 9.79239 66.58513 C 9.57837 66.64896 9.23381 66.74733 9.0185 66.80728 C 8.80316 66.86722 8.45734 66.96266 8.24043 67.01723 C 8.02351 67.07181 7.67328 67.15233 7.45511 67.20071 C 7.23694 67.2491 6.88708 67.32217 6.66797 67.36604 C 6.44885 67.4099 6.0959 67.47836 5.87589 67.51682 C 5.65588 67.55527 5.30318 67.61015 5.08228 67.6432 C 4.86136 67.67627 4.50558 67.72635 4.28369 67.75507 C 4.06183 67.7838 3.70543 67.82732 3.48306 67.85031 C 3.26073 67.87332 2.90384 67.90392 2.68114 67.9209 C 2.45844 67.9379 2.10101 67.96013 1.87791 67.9728 C 1.6548 67.98547 1.29655 68.00476 1.07312 68.01224 C .84969 68.01974 .49086 68.02536 .26755 68.0268 C .04424 68.02823 -.31328 68.0261 -.5364 68.02263 C -.75955 68.01918 -1.11743 68.01051 -1.34068 68.00188 C -1.56393 67.99323 -1.92244 67.97476 -2.14548 67.96034 C -2.3685 67.94595 -2.72559 67.91765 -2.94818 67.89806 C -3.17079 67.87848 -3.52766 67.8439 -3.74986 67.81917 C -3.97208 67.79443 -4.32816 67.74994 -4.54973 67.71977 C -4.77129 67.6896 -5.12599 67.63672 -5.34673 67.60168 C -5.56744 67.56665 -5.92085 67.50711 -6.14063 67.46725 C -6.36038 67.4274 -6.71194 67.35992 -6.9306 67.31439 C -7.14929 67.26886 -7.49896 67.1896 -7.7167 67.13895 C -7.93445 67.0883 -8.28345 67.00468 -8.49997 66.94923 C -8.71649 66.89378 -9.06241 66.8006 -9.27724 66.73929 C -9.49207 66.67796 -9.83487 66.5736 -10.0483 66.50726 C -10.2617 66.44095 -10.60344 66.33145 -10.81544 66.26123 C -11.02747 66.19102 -11.3662 66.07753 -11.57637 66.00119 C -11.78656 65.92487 -12.12196 65.79285 -12.3303 65.71104 C -12.53864 65.62923 -12.87155 65.49686 -13.07799 65.41154 C -13.28442 65.32623 -13.61412 65.18724 -13.81815 65.09622 C -14.02217 65.0052 -14.34666 64.85158 -14.54845 64.75546 C -14.75024 64.65938 -15.07272 64.50304 -15.27254 64.40355 C -15.47235 64.30408 -15.79121 64.14319 -15.98857 64.0384 C -16.18591 63.93361 -16.50037 63.75865 -16.69499 63.64833 C -16.88962 63.53801 -17.19923 63.35707 -17.3913 63.24321 C -17.58336 63.12936 -17.8899 62.94643 -18.0793 62.82771 C -18.2687 62.709 -18.56998 62.51172 -18.75641 62.38756 C -18.94281 62.2634 -19.2393 62.06012 -19.42287 61.93286 C -19.60643 61.80563 -19.89899 61.60178 -20.07947 61.4704 C -20.25993 61.339 -20.54643 61.12222 -20.7236 60.98586 C -20.90077 60.8495 -21.18231 60.628 -21.35632 60.48756 C -21.53035 60.34714 -21.8074 60.11842 -21.97789 59.97371 C -22.14839 59.82901 -22.41837 59.59317 -22.58519 59.44455 C -22.75201 59.2959 -23.01672 59.0546 -23.18027 58.9024 C -23.34381 58.75018 -23.60394 58.50354 -23.76395 58.34752 C -23.92397 58.19151 -24.17766 57.93796 -24.3336 57.77786 C -24.48956 57.61777 -24.73573 57.35715 -24.88795 57.19368 C -25.04016 57.0302 -25.28188 56.7662 -25.43062 56.59962 C -25.57936 56.43304 -25.81563 56.16374 -25.96005 55.99312 C -26.10448 55.82248 -26.33136 55.54408 -26.47157 55.36974 C -26.61179 55.19537 -26.8341 54.91322 -26.97064 54.7365 C -27.10718 54.55977 -27.32388 54.27628 -27.45569 54.09598 C -27.58751 53.9157 -27.79347 53.62111 -27.92076 53.43704 C -28.04805 53.25298 -28.24966 52.95547 -28.37312 52.76929 C -28.49658 52.58308 -28.6919 52.28433 -28.81067 52.09505 C -28.92946 51.90575 -29.11519 51.59729 -29.2293 51.40497 C -29.3434 51.21265 -29.52301 50.90315 -29.63312 50.70891 C -29.74323 50.5147 -29.91782 50.20236 -30.02293 50.0051 C -30.12804 49.8078 -30.29057 49.48679 -30.39066 49.28699 C -30.49077 49.08716 -30.6486 48.76672 -30.7444 48.56497 C -30.84018 48.36322 -30.99031 48.03717 -31.08101 47.83286 C -31.1717 47.62856 -31.31256 47.29901 -31.39815 47.09244 C -31.48373 46.88586 -31.61662 46.552 -31.69789 46.34395 C -31.77916 46.1359 -31.90775 45.80301 -31.9839 45.5929 C -32.06006 45.38278 -32.176 45.04167 -32.2468 44.82962 C -32.3176 44.61757 -32.42789 44.27782 -32.49413 44.06454 C -32.56036 43.85127 -32.66325 43.50752 -32.72432 43.29245 C -32.78539 43.07738 -32.8787 42.73091 -32.9343 42.51439 C -32.98988 42.29788 -33.07436 41.94965 -33.12503 41.73193 C -33.17567 41.51422 -33.25385 41.1643 -33.29944 40.94531 C -33.34502 40.7263 -33.41344 40.3737 -33.45358 40.15349 C -33.49371 39.9333 -33.55338 39.5787 -33.58879 39.3583 C -33.62424 39.1379 -33.6789 38.78613 -33.70897 38.56493 C -33.73901 38.34375 -33.7811 37.98639 -33.8055 37.76405 C -33.82991 37.54169 -33.86543 37.18486 -33.88492 36.96237 C -33.90439 36.73987 -33.93164 36.38326 -33.9459 36.16043 C -33.96016 35.93762 -33.97913 35.57986 -33.9877 35.35643 C -33.99625 35.133 -34.00435 34.7738 -34.00768 34.55008 C -34.01099 34.32637 -34.01303 33.96735 -34.01157 33.74399 C -34.0101 33.52065 -34.00412 33.16353 -33.99704 32.94025 C -33.98994 32.71696 -33.97282 32.35779 -33.96043 32.13467 C -33.94806 31.91158 -33.92522 31.55487 -33.90776 31.33223 C -33.89029 31.10959 -33.8576 30.75253 -33.83456 30.53003 C -33.81154 30.30754 -33.76974 29.95027 -33.74167 29.72862 C -33.71358 29.50696 -33.66525 29.15312 -33.63214 28.9324 C -33.59903 28.71167 -33.54161 28.35794 -33.5029 28.13773 C -33.4642 27.9175 -33.39726 27.5646 -33.35315 27.34512 C -33.30904 27.12567 -33.23376 26.77386 -33.18498 26.55592 C -33.13618 26.33797 -33.05547 25.99089 -33.0015 25.77423 C -32.94753 25.55757 -32.85542 25.20996 -32.79594 24.99435 C -32.73647 24.77873 -32.63686 24.434 -32.57275 24.2202 C -32.50867 24.00638 -32.40343 23.66588 -32.334 23.45331 C -32.26457 23.2407 -32.14714 22.89903 -32.0724 22.68796 C -31.99765 22.47688 -31.87436 22.14063 -31.79521 21.93196 C -31.71608 21.72328 -31.58618 21.39087 -31.50195 21.18399 C -31.41774 20.97714 -31.27763 20.64609 -31.18819 20.44098 C -31.09875 20.23587 -30.95123 19.90851 -30.85728 19.70573 C -30.76335 19.50299 -30.60974 19.17998 -30.5111 18.9796 C -30.41243 18.7792 -30.24983 18.45953 -30.1462 18.26149 C -30.04257 18.06346 -29.8723 17.7478 -29.76418 17.5522 C -29.65604 17.35661 -29.47943 17.04457 -29.36684 16.85173 C -29.25424 16.65892 -29.07007 16.35268 -28.95265 16.16245 C -28.83522 15.97223 -28.64238 15.66823 -28.52052 15.48067 C -28.39868 15.29312 -28.20042 14.99498 -28.0744 14.81058 C -27.94838 14.62617 -27.74294 14.33319 -27.61218 14.15164 C -27.48145 13.9701 -27.26695 13.68044 -27.13208 13.50206 C -26.9972 13.32365 -26.77863 13.04082 -26.64 12.86595 C -26.50137 12.69109 -26.27606 12.41357 -26.13289 12.24179 C -25.98973 12.06999 -25.75542 11.79616 -25.60814 11.62776 C -25.46086 11.45935 -25.2222 11.19255 -25.07143 11.028 C -24.92067 10.86343 -24.67644 10.60286 -24.5215 10.44173 C -24.36656 10.2806 -24.11353 10.02414 -23.95471 9.86662 C -23.79588 9.70909 -23.53874 9.4597 -23.37672 9.30629 C -23.21472 9.15291 -22.95294 8.91068 -22.7871 8.76105 C -22.62123 8.61139 -22.35089 8.37347 -22.18137 8.2277 C -22.01184 8.08195 -21.7378 7.85207 -21.56525 7.71048 C -21.3927 7.56891 -21.11389 7.3449 -20.93771 7.20726 C -20.76152 7.06964 -20.47511 6.85208 -20.2954 6.71857 C -20.11568 6.58507 -19.82484 6.37402 -19.64243 6.24493 C -19.46002 6.11586 -19.16605 5.91283 -18.98064 5.78818 C -18.79521 5.66351 -18.4946 5.46677 -18.30612 5.34645 C -18.11766 5.22617 -17.81345 5.03693 -17.62228 4.9211 C -17.4311 4.80527 -17.12221 4.62283 -16.92831 4.51158 C -16.7344 4.40031 -16.42116 4.22575 -16.22473 4.11917 C -16.0283 4.01259 -15.71136 3.84528 -15.51259 3.74338 C -15.31383 3.64148 -14.99333 3.48186 -14.79216 3.38472 C -14.59097 3.28755 -14.26625 3.1356 -14.06262 3.04317 C -13.859 2.95074 -13.53018 2.80608 -13.32452 2.71852 C -13.1189 2.63094 -12.78802 2.49466 -12.58047 2.41202 C -12.37292 2.32936 -12.0383 2.20068 -11.82864 2.12291 C -11.61896 2.04512 -11.28056 1.92412 -11.06927 1.85143 C -10.85796 1.77873 -10.51846 1.66653 -10.30574 1.59892 C -10.093 1.5313 -9.75047 1.4267 -9.53598 1.36404 C -9.32149 1.30139 -8.97571 1.20491 -8.75974 1.14734 C -8.54376 1.08977 -8.19658 1.00148 -7.97935 .94907 C -7.76212 .89665 -7.41263 .81677 -7.19403 .76947 C -6.97543 .72217 -6.62328 .65013 -6.40376 .60805 C -6.18427 .56596 -5.83215 .50291 -5.61195 .46608 C -5.39177 .42926 -5.03801 .3742 -4.81677 .34256 C -4.59554 .3109 -4.23949 .26436 -4.01744 .23796 C -3.79538 .21158 -3.4389 .17345 -3.21628 .15231 C -2.99364 .13118 -2.63576 .1015 -2.4128 .08563 C -2.18983 .06975 -1.83234 .04846 -1.6093 .03787 C -1.38626 .0273 -1.02858 .01459 -.80528 .00932 C -.582 .00407 0 0 0 0 Z " fill="#ffcccc"/>
<path transform="matrix(2.7777777,0,0,-2.7777777,211.93332,272.51945)" stroke-width=".79701" stroke-linecap="butt" stroke-miterlimit="10" stroke-linejoin="miter" fill="none" stroke="#ff0000" d="M 0 0 C 0 0 1.55113 .03017 2.14548 .06772 C 2.73982 .10527 3.69289 .19571 4.28369 .27066 C 4.87453 .34564 5.81892 .49591 6.40376 .60805 C 6.98862 .72017 7.92209 .92998 8.49892 1.07883 C 9.07574 1.22769 9.99481 1.49596 10.56111 1.68092 C 11.12741 1.8659 12.02724 2.19176 12.58047 2.41202 C 13.13371 2.63226 14.0102 3.01372 14.54845 3.26843 C 15.08672 3.52316 15.9385 3.95958 16.45985 4.2479 C 16.98123 4.53621 17.80392 5.02582 18.30612 5.34645 C 18.80833 5.66711 19.59854 6.20728 20.07947 6.55896 C 20.5604 6.91066 21.31487 7.50008 21.77235 7.88124 C 22.22984 8.26242 22.94423 8.89703 23.37672 9.30629 C 23.80922 9.71558 24.48354 10.39514 24.88951 10.83101 C 25.29546 11.26689 25.92479 11.98714 26.30263 12.44786 C 26.68045 12.90858 27.26459 13.66786 27.61272 14.15164 C 27.96083 14.6354 28.49533 15.43018 28.81172 15.93459 C 29.12813 16.439 29.60934 17.26384 29.89316 17.78706 C 30.17697 18.3103 30.6069 19.16556 30.85728 19.70573 C 31.1077 20.24594 31.48189 21.12541 31.69789 21.68048 C 31.91391 22.23555 32.23343 23.13852 32.41418 23.70633 C 32.59496 24.27414 32.85632 25.19485 33.0007 25.77293 C 33.1451 26.35101 33.34769 27.28708 33.45488 27.87276 C 33.56209 28.45844 33.70306 29.40277 33.77332 29.99411 C 33.84358 30.58545 33.92805 31.53986 33.96121 32.13467 C 33.99437 32.7295 34.01672 33.68542 34.01233 34.28122 C 34.00797 34.87701 33.97174 35.83443 33.92957 36.42879 C 33.88736 37.02313 33.78822 37.97513 33.70819 38.56493 C 33.62816 39.15475 33.46957 40.09605 33.35263 40.67982 C 33.23569 41.2636 33.01857 42.1966 32.86523 42.77237 C 32.71193 43.34814 32.4369 44.26474 32.24757 44.82962 C 32.05824 45.39453 31.72522 46.2919 31.50067 46.84381 C 31.27612 47.3957 30.88826 48.27135 30.62917 48.80737 C 30.3701 49.3434 29.92593 50.18858 29.63338 50.70709 C 29.34082 51.22562 28.84492 52.04477 28.52052 52.54454 C 28.19614 53.0443 27.65045 53.83058 27.29532 54.30905 C 26.94017 54.78752 26.34567 55.53836 25.96082 55.99312 C 25.57597 56.44786 24.93448 57.15746 24.5215 57.58661 C 24.10852 58.01575 23.42357 58.68393 22.98433 59.08615 C 22.5451 59.48836 21.8195 60.11166 21.3558 60.4855 C 20.89214 60.85933 20.12865 61.43648 19.64243 61.78053 C 19.1562 62.12457 18.35825 62.652 17.85143 62.96527 C 17.34462 63.27853 16.51529 63.75851 15.9896 64.0384 C 15.46391 64.31828 14.60503 64.73688 14.06262 64.98256 C 13.52023 65.22823 12.6372 65.5976 12.08037 65.80914 C 11.52353 66.02069 10.61833 66.33107 10.04932 66.50726 C 9.48033 66.68346 8.5584 66.93863 7.97935 67.079 C 7.4003 67.21936 6.46259 67.4162 5.87589 67.51889 C 5.2892 67.62158 4.34288 67.75418 3.7509 67.81917 C 3.15892 67.88416 2.20403 67.95912 1.6093 67.98735 C 1.01459 68.01558 .05974 68.03185 -.53539 68.02263 C -1.13054 68.01341 -2.08621 67.96753 -2.6801 67.9209 C -3.27399 67.87427 -4.22614 67.77069 -4.81573 67.68654 C -5.40535 67.6024 -6.34656 67.4361 -6.92957 67.31439 C -7.51259 67.19269 -8.44345 66.96742 -9.01772 66.80936 C -9.59198 66.65129 -10.5053 66.369 -11.0685 66.17506 C -11.63168 65.98114 -12.52695 65.64023 -13.07695 65.41154 C -13.62694 65.18285 -14.49808 64.78958 -15.03247 64.52682 C -15.56688 64.26407 -16.41203 63.81462 -16.92856 63.51779 C -17.44511 63.22098 -18.25859 62.71648 -18.75536 62.38756 C -19.25212 62.05864 -20.03378 61.50624 -20.50899 61.14703 C -20.98418 60.78781 -21.72878 60.18669 -22.18031 59.79852 C -22.63187 59.41035 -23.33705 58.76505 -23.76343 58.34933 C -24.1898 57.93362 -24.85434 57.24481 -25.25337 56.8023 C -25.65237 56.3598 -26.26913 55.62697 -26.63922 55.16003 C -27.00934 54.69313 -27.58052 53.92596 -27.92076 53.43704 C -28.261 52.94814 -28.78275 52.14542 -29.09149 51.6362 C -29.40022 51.12697 -29.86989 50.29454 -30.14592 49.76683 C -30.42197 49.23914 -30.83904 48.37726 -31.08101 47.83286 C -31.32298 47.28844 -31.68301 46.40155 -31.88994 45.84308 C -32.0969 45.28459 -32.40125 44.37828 -32.5725 43.8076 C -32.74374 43.23694 -32.9891 42.31035 -33.12425 41.7301 C -33.2594 41.14987 -33.44795 40.21274 -33.54651 39.62563 C -33.64505 39.03851 -33.77336 38.09068 -33.83456 37.49855 C -33.89578 36.90643 -33.96431 35.95328 -33.9877 35.35799 C -34.01106 34.7627 -34.01747 33.80391 -34.003 33.20807 C -33.98853 32.61224 -33.93492 31.65685 -33.88336 31.06361 C -33.8318 30.47038 -33.72002 29.5212 -33.63136 28.9324 C -33.54271 28.34358 -33.37015 27.40196 -33.24442 26.81985 C -33.11867 26.23775 -32.88768 25.31001 -32.72511 24.73691 C -32.56253 24.16379 -32.2713 23.25108 -32.07266 22.68925 C -31.874 22.12741 -31.52655 21.23547 -31.29329 20.68753 C -31.06004 20.13959 -30.65863 19.27213 -30.39145 18.74005 C -30.12427 18.208 -29.66808 17.3671 -29.36763 16.85278 C -29.06717 16.33847 -28.55843 15.52754 -28.22597 15.03325 C -27.89351 14.53896 -27.33449 13.76263 -26.97142 13.29028 C -26.60835 12.81792 -26.00127 12.07736 -25.60918 11.62878 C -25.21709 11.18024 -24.56487 10.48015 -24.14545 10.05737 C -23.72603 9.6346 -23.03128 8.97716 -22.58621 8.58171 C -22.14116 8.18626 -21.40723 7.57397 -20.93771 7.20726 C -20.4682 6.84056 -19.69417 6.27507 -19.20227 5.9387 C -18.71036 5.60234 -17.90428 5.08763 -17.39235 4.78304 C -16.8804 4.47844 -16.04263 4.01505 -15.51259 3.74338 C -14.98254 3.4717 -14.11812 3.06253 -13.57213 2.82492 C -13.02612 2.5873 -12.1374 2.23344 -11.57741 2.03076 C -11.0174 1.82808 -10.10779 1.53105 -9.53598 1.36404 C -8.96417 1.19704 -8.03725 .95764 -7.45615 .82709 C -6.87506 .69652 -5.93588 .51662 -5.34776 .423 C -4.75964 .32939 -3.81026 .20866 -3.21732 .15231 C -2.62437 .09596 -1.6693 .03564 -1.07414 .01685 C -.479 -.0019 .47694 -.00188 1.07208 .01685 C 1.66722 .03561 2.62244 .09578 3.21524 .15205 C 3.80806 .20833 4.75653 .32887 5.34465 .42249 C 5.93275 .51611 6.87279 .6963 7.45407 .82683 C 8.03535 .95735 8.96236 1.19633 9.53416 1.36328 C 10.10597 1.5302 11.01523 1.82724 11.57535 2.02998 C 12.13544 2.23276 13.02495 2.587 13.57109 2.82466 C 14.11722 3.06232 14.98166 3.47131 15.51157 3.74286 C 16.04146 4.01439 16.87833 4.47714 17.39026 4.78172 C 17.90219 5.08633 18.7093 5.60184 19.20123 5.93819 C 19.69313 6.27454 20.46619 6.83939 20.93564 7.20596 C 21.40508 7.57253 22.13953 8.18475 22.58466 8.58015 C 23.0298 8.97556 23.7244 9.63297 24.14389 10.05582 C 24.5634 10.47865 25.216 11.17924 25.60814 11.62776 C 26.00027 12.07628 26.60709 12.81622 26.97012 13.28845 C 27.33316 13.7607 27.89227 14.53717 28.22467 15.03143 C 28.55707 15.52568 29.06534 16.33646 29.3658 16.85072 C 29.66626 17.36499 30.12285 18.20595 30.39015 18.73798 C 30.65744 19.27 31.0589 20.1373 31.29227 20.6852 C 31.52562 21.2331 31.87329 22.12491 32.07214 22.6869 C 32.27097 23.24893 32.5628 24.1628 32.72536 24.73586 C 32.88791 25.30893 33.11797 26.23537 33.24364 26.81726 C 33.3693 27.39915 33.54224 28.34084 33.6311 28.9298 C 33.71997 29.51875 33.83247 30.46866 33.88414 31.06206 C 33.9358 31.65544 33.98915 32.61087 34.00352 33.20651 C 34.01788 33.80217 34.01102 34.75984 33.9877 35.35513 C 33.96436 35.95042 33.89653 36.9049 33.83534 37.497 C 33.77417 38.08908 33.64526 39.03539 33.54675 39.6225 C 33.44826 40.20963 33.26033 41.14813 33.12529 41.72856 C 32.99026 42.30899 32.7449 43.23514 32.57353 43.8058 C 32.40218 44.37646 32.09726 45.28302 31.8902 45.8415 C 31.68317 46.40001 31.32321 47.28688 31.08125 47.83104 C 30.83932 48.3752 30.42253 49.23601 30.14645 49.76346 C 29.87038 50.29091 29.40007 51.12312 29.09149 51.63257 C 28.7829 52.14201 28.26239 52.94606 27.92232 53.43524 C 27.58226 53.92441 27.01076 54.6913 26.64053 55.15822 C 26.2703 55.62514 25.65271 56.35799 25.25389 56.80049 C 24.85506 57.243 24.19221 57.93155 23.76602 58.34752 C 23.33983 58.7635 22.63377 59.41011 22.18214 59.79852 C 21.73048 60.18695 20.98601 60.7881 20.51079 61.14703 C 20.0356 61.50597 19.2541 62.05682 18.75719 62.38548 C 18.26027 62.71413 17.44589 63.21889 16.92934 63.51572 C 16.41281 63.81253 15.56853 64.2617 15.03429 64.52475 C 14.50006 64.78778 13.62888 65.18285 13.07903 65.41154 C 12.52917 65.64023 11.63445 65.97934 11.07133 66.173 C 10.50824 66.36667 9.59494 66.64891 9.02057 66.80728 C 8.4462 66.96564 7.51477 67.19238 6.93166 67.31439 C 6.34853 67.4364 5.40741 67.6024 4.81781 67.68654 C 4.22821 67.77069 3.27606 67.87427 2.68219 67.9209 C 2.08829 67.96753 1.1326 68.01341 .53746 68.02263 C -.05765 68.03185 -1.01263 68.01558 -1.60722 67.98735 C -2.20178 67.95912 -3.15567 67.88445 -3.7478 67.81917 C -4.33992 67.75389 -5.28802 67.6195 -5.87486 67.51682 C -6.46169 67.41414 -7.39838 67.21907 -7.97728 67.079 C -8.55618 66.93892 -9.4784 66.68346 -10.04726 66.50726 C -10.6161 66.33107 -11.52039 66.0204 -12.07726 65.80914 C -12.63412 65.59789 -13.51825 65.23004 -14.06082 64.98463 C -14.60338 64.73923 -15.46196 64.32037 -15.98778 64.04047 C -16.51361 63.76057 -17.34389 63.2809 -17.85066 62.96733 C -18.35744 62.65378 -19.15424 62.12457 -19.64034 61.78053 C -20.12645 61.43648 -20.89056 60.8614 -21.35426 60.48756 C -21.81793 60.11374 -22.54298 59.48839 -22.98225 59.08615 C -23.42151 58.68388 -24.10732 58.01756 -24.5202 57.58841 C -24.93307 57.15927 -25.57329 56.44812 -25.95796 55.99312 C -26.34265 55.53812 -26.93745 54.78728 -27.29271 54.30905 C -27.64796 53.83083 -28.1938 53.04561 -28.51845 52.54636 C -28.8431 52.0471 -29.33997 51.2295 -29.6326 50.71074 C -29.92523 50.19196 -30.36847 49.34366 -30.62761 48.80737 C -30.88678 48.27109 -31.27579 47.39726 -31.5004 46.84561 C -31.72502 46.29398 -32.0571 45.39612 -32.24654 44.83144 C -32.43599 44.26675 -32.71245 43.3513 -32.86575 42.77574 C -33.01909 42.20018 -33.23476 41.26721 -33.3516 40.6832 C -33.46844 40.09918 -33.62785 39.15659 -33.70792 38.5665 C -33.788 37.97643 -33.88654 37.02452 -33.92877 36.43033 C -33.97101 35.83617 -34.00797 34.87985 -34.01233 34.28407 C -34.01672 33.68828 -33.99345 32.73105 -33.96043 32.13623 C -33.92741 31.54141 -33.84459 30.58833 -33.77437 29.99696 C -33.70415 29.4056 -33.56157 28.45976 -33.45436 27.87405 C -33.34717 27.28833 -33.14592 26.35342 -33.00175 25.77553 C -32.85757 25.19763 -32.59598 24.27678 -32.41524 23.70892 C -32.23447 23.14107 -31.91492 22.23795 -31.69894 21.6828 C -31.48297 21.12767 -31.10896 20.24806 -30.8586 19.70782 C -30.60823 19.16759 -30.17842 18.31255 -29.89445 17.78915 C -29.6105 17.26578 -29.12846 16.44006 -28.81197 15.93562 C -28.4955 15.43117 -27.96146 14.63713 -27.6135 14.15346 C -27.2655 13.6698 -26.68172 12.91045 -26.30392 12.44966 C -25.92613 11.9889 -25.29662 11.2686 -24.89055 10.83257 C -24.48447 10.39655 -23.8096 9.7164 -23.37724 9.30708 C -22.9449 8.89777 -22.23169 8.26367 -21.77443 7.88255 C -21.31715 7.50143 -20.56264 6.91206 -20.08154 6.56027 C -19.60043 6.20847 -18.80904 5.66759 -18.3069 5.34698 C -17.80476 5.02635 -16.98349 4.53761 -16.46246 4.24945 C -15.9414 3.96127 -15.08994 3.52483 -14.55157 3.27 C -14.0132 3.01517 -13.13567 2.63316 -12.58229 2.4128 C -12.0289 2.19243 -11.12935 1.86667 -10.56317 1.6817 C -9.99702 1.49673 -9.0786 1.2285 -8.50177 1.0796 C -7.92496 .93073 -6.99098 .72076 -6.40585 .60857 C -5.82071 .49637 -4.8753 .34596 -4.28448 .27092 C -3.69366 .19589 -2.74178 .10532 -2.14757 .06772 C -1.55334 .03014 -.0018 0 -.0018 0 "/>
<path transform="matrix(2.7777777,0,0,-2.7777777,211.93332,272.51945)" stroke-width=".79701" stroke-linecap="butt" stroke-miterlimit="10" stroke-linejoin="miter" fill="none" stroke="#0000ff" d="M 68.03302 0 C 68.03302 0 67.99892 1.55113 67.96034 2.14548 C 67.9218 2.73982 67.83064 3.69289 67.75507 4.28369 C 67.67949 4.87453 67.52739 5.81892 67.4156 6.40376 C 67.3038 6.98862 67.0972 7.92209 66.94923 8.49892 C 66.80128 9.07574 66.53429 9.99481 66.34921 10.56111 C 66.16414 11.12741 65.8364 12.02724 65.61528 12.58047 C 65.39415 13.13371 65.01027 14.0102 64.75546 14.54845 C 64.50069 15.08672 64.06683 15.9385 63.77887 16.45985 C 63.49092 16.98123 63.00034 17.80392 62.68004 18.30612 C 62.35976 18.80833 61.82181 19.59854 61.4704 20.07947 C 61.11899 20.5604 60.52905 21.31487 60.14734 21.77235 C 59.76561 22.22984 59.12868 22.94423 58.71916 23.37672 C 58.30965 23.80922 57.63159 24.48354 57.19576 24.88951 C 56.7599 25.29546 56.03824 25.92479 55.57787 26.30263 C 55.11751 26.68045 54.36095 27.26459 53.87772 27.61272 C 53.3945 27.96083 52.59995 28.49533 52.09505 28.81172 C 51.59013 29.12813 50.76247 29.60934 50.23865 29.89316 C 49.71484 30.17697 48.8601 30.6069 48.31972 30.85728 C 47.77934 31.1077 46.89885 31.48189 46.34395 31.69789 C 45.78906 31.91391 44.88773 32.23343 44.32043 32.41418 C 43.75316 32.59496 42.83333 32.85632 42.2554 33.0007 C 41.67746 33.1451 40.74144 33.34769 40.15504 33.45488 C 39.56866 33.56209 38.6206 33.70306 38.02902 33.77332 C 37.43744 33.84358 36.48567 33.92805 35.89131 33.96121 C 35.29697 33.99437 34.34044 34.01672 33.74529 34.01233 C 33.15015 34.00797 32.19603 33.97174 31.60187 33.92957 C 31.00769 33.88736 30.05348 33.78822 29.46288 33.70819 C 28.87225 33.62816 27.92921 33.46957 27.34512 33.35263 C 26.76103 33.23569 25.82867 33.01857 25.25311 32.86523 C 24.67755 32.71193 23.76164 32.4369 23.19688 32.24757 C 22.63214 32.05824 21.7343 31.72522 21.18271 31.50067 C 20.63113 31.27612 19.75772 30.88826 19.22147 30.62917 C 18.68523 30.3701 17.83687 29.92593 17.31786 29.63338 C 16.79883 29.34082 15.98007 28.84492 15.48067 28.52052 C 14.98128 28.19614 14.19637 27.65045 13.7185 27.29532 C 13.24065 26.94017 12.49115 26.34567 12.03651 25.96082 C 11.58186 25.57597 10.87126 24.93448 10.44173 24.5215 C 10.01218 24.10852 9.3432 23.42357 8.94064 22.98433 C 8.53806 22.5451 7.91425 21.8195 7.54024 21.3558 C 7.16621 20.89214 6.58894 20.12865 6.24493 19.64243 C 5.90094 19.1562 5.37352 18.35825 5.06097 17.85143 C 4.74844 17.34462 4.27222 16.51529 3.99226 15.9896 C 3.7123 15.46391 3.28943 14.60503 3.04317 14.06262 C 2.79692 13.52023 2.42892 12.6372 2.21736 12.08037 C 2.00581 11.52353 1.69444 10.61833 1.51848 10.04932 C 1.3425 9.48033 1.0888 8.5584 .94907 7.97935 C .80931 7.4003 .61415 6.46259 .51123 5.87589 C .40833 5.2892 .27301 4.34288 .20734 3.7509 C .14166 3.15892 .06607 2.20403 .03787 1.6093 C .00967 1.01459 -.00523 .05974 .00414 -.53539 C .01353 -1.13054 .05865 -2.08621 .10562 -2.6801 C .15256 -3.27399 .25826 -4.22614 .34256 -4.81573 C .42685 -5.40535 .59181 -6.34656 .71317 -6.92957 C .8345 -7.51259 1.05927 -8.44345 1.21715 -9.01772 C 1.37505 -9.59198 1.65735 -10.5053 1.85118 -11.0685 C 2.04501 -11.63168 2.38513 -12.52695 2.61418 -13.07695 C 2.84322 -13.62694 3.23875 -14.49808 3.50201 -15.03247 C 3.76527 -15.56688 4.21515 -16.41203 4.51158 -16.92856 C 4.808 -17.44511 5.31 -18.25859 5.63844 -18.75536 C 5.96686 -19.25212 6.51956 -20.03378 6.87871 -20.50899 C 7.23784 -20.98418 7.83855 -21.72878 8.22694 -22.18031 C 8.61533 -22.63187 9.26169 -23.33705 9.67795 -23.76343 C 10.0942 -24.1898 10.78484 -24.85434 11.22705 -25.25337 C 11.66928 -25.65237 12.39876 -26.26913 12.86519 -26.63922 C 13.33159 -27.00934 14.09962 -27.58052 14.5887 -27.92076 C 15.07776 -28.261 15.8806 -28.78275 16.39005 -29.09149 C 16.89949 -29.40022 17.73239 -29.86989 18.26045 -30.14592 C 18.78851 -30.42197 19.65166 -30.83904 20.19598 -31.08101 C 20.74034 -31.32298 21.62552 -31.68301 22.18369 -31.88994 C 22.74187 -32.0969 23.64876 -32.40125 24.2189 -32.5725 C 24.78905 -32.74374 25.71289 -32.9891 26.29301 -33.12425 C 26.87315 -33.2594 27.81245 -33.44795 28.40012 -33.54651 C 28.98776 -33.64505 29.93596 -33.77336 30.52849 -33.83456 C 31.121 -33.89578 32.0756 -33.96431 32.67061 -33.9877 C 33.2656 -34.01106 34.22183 -34.01747 34.81686 -34.003 C 35.41191 -33.98853 36.3659 -33.93492 36.95926 -33.88336 C 37.5526 -33.8318 38.5038 -33.72002 39.09334 -33.63136 C 39.68286 -33.54271 40.6256 -33.37015 41.2082 -33.24442 C 41.7908 -33.11867 42.71962 -32.88768 43.29245 -32.72511 C 43.86526 -32.56253 44.77568 -32.2713 45.33675 -32.07266 C 45.8978 -31.874 46.78806 -31.52655 47.33612 -31.29329 C 47.8842 -31.06004 48.7542 -30.65863 49.28699 -30.39145 C 49.81976 -30.12427 50.66139 -29.66808 51.17606 -29.36763 C 51.69072 -29.06717 52.50237 -28.55843 52.99637 -28.22597 C 53.49037 -27.89351 54.26466 -27.33449 54.7365 -26.97142 C 55.2083 -26.60835 55.94867 -26.00127 56.39693 -25.60918 C 56.84518 -25.21709 57.54448 -24.56487 57.96733 -24.14545 C 58.39017 -23.72603 59.0481 -23.03128 59.44455 -22.58621 C 59.84099 -22.14116 60.458 -21.40723 60.8247 -20.93771 C 61.1914 -20.4682 61.752 -19.69417 62.08755 -19.20227 C 62.42311 -18.71036 62.93869 -17.90428 63.24321 -17.39235 C 63.54774 -16.8804 64.0106 -16.04263 64.28235 -15.51259 C 64.5541 -14.98254 64.96336 -14.11812 65.20186 -13.57213 C 65.44034 -13.02612 65.79845 -12.1374 66.00119 -11.57741 C 66.20395 -11.0174 66.49712 -10.10779 66.66324 -9.53598 C 66.82938 -8.96417 67.06844 -8.03725 67.19864 -7.45615 C 67.32886 -6.87506 67.5081 -5.93588 67.60168 -5.34776 C 67.69527 -4.75964 67.8162 -3.81026 67.87315 -3.21732 C 67.93011 -2.62437 67.99295 -1.6693 68.01224 -1.07414 C 68.03154 -.479 68.03154 .47694 68.01224 1.07208 C 67.99295 1.66722 67.93011 2.62244 67.87315 3.21524 C 67.8162 3.80806 67.69527 4.75653 67.60168 5.34465 C 67.5081 5.93275 67.32855 6.87279 67.19864 7.45407 C 67.06874 8.03535 66.83176 8.96236 66.66531 9.53416 C 66.49889 10.10597 66.20216 11.01523 65.99911 11.57535 C 65.79607 12.13544 65.44005 13.02495 65.20186 13.57109 C 64.96367 14.11722 64.5541 14.98166 64.28235 15.51157 C 64.0106 16.04146 63.54774 16.87833 63.24321 17.39026 C 62.93869 17.90219 62.42311 18.7093 62.08755 19.20123 C 61.752 19.69313 61.19112 20.46619 60.8247 20.93564 C 60.45828 21.40508 59.84277 22.13953 59.44661 22.58466 C 59.05045 23.0298 58.39252 23.7244 57.96939 24.14389 C 57.54626 24.5634 56.84523 25.216 56.39693 25.60814 C 55.94862 26.00027 55.20987 26.60709 54.7383 26.97012 C 54.26675 27.33316 53.49245 27.89227 52.9982 28.22467 C 52.50394 28.55707 51.69077 29.06534 51.17606 29.3658 C 50.66135 29.66626 49.82106 30.12285 49.28853 30.39015 C 48.75601 30.65744 47.88577 31.0589 47.33794 31.29227 C 46.7901 31.52562 45.90096 31.87329 45.34012 32.07214 C 44.7793 32.27097 43.8689 32.5628 43.29582 32.72536 C 42.72275 32.88791 41.79237 33.11797 41.20976 33.24364 C 40.62714 33.3693 39.68602 33.54224 39.09671 33.6311 C 38.5074 33.71997 37.5558 33.83247 36.96237 33.88414 C 36.36894 33.9358 35.41481 33.98915 34.81973 34.00352 C 34.22466 34.01788 33.26846 34.01102 32.67345 33.9877 C 32.07846 33.96436 31.12386 33.89653 30.53134 33.83534 C 29.93881 33.77417 28.99065 33.64526 28.40297 33.54675 C 27.81528 33.44826 26.87578 33.26033 26.29561 33.12529 C 25.71544 32.99026 24.79182 32.7449 24.22148 32.57353 C 23.65115 32.40218 22.74338 32.09726 22.18498 31.8902 C 21.6266 31.68317 20.74126 31.32321 20.19702 31.08125 C 19.65279 30.83932 18.79062 30.42253 18.26253 30.14645 C 17.73444 29.87038 16.9003 29.40007 16.39082 29.09149 C 15.88135 28.7829 15.07942 28.26239 14.5905 27.92232 C 14.1016 27.58226 13.33351 27.01076 12.86699 26.64053 C 12.40045 26.2703 11.67023 25.65271 11.22809 25.25389 C 10.78595 24.85506 10.09647 24.19221 9.68028 23.76602 C 9.2641 23.33983 8.61702 22.63377 8.22849 22.18214 C 7.83995 21.73048 7.23923 20.98601 6.88 20.51079 C 6.52078 20.0356 5.96802 19.2541 5.63947 18.75719 C 5.31093 18.26027 4.80855 17.44589 4.51208 16.92934 C 4.21564 16.41281 3.766 15.56853 3.50279 15.03429 C 3.23956 14.50006 2.84396 13.62888 2.61496 13.07903 C 2.38594 12.52917 2.04604 11.63445 1.85222 11.07133 C 1.65839 10.50824 1.3759 9.59494 1.21793 9.02057 C 1.05997 8.4462 .8351 7.51477 .71368 6.93166 C .59225 6.34853 .42714 5.40741 .34282 4.81781 C .25848 4.22821 .15285 3.27606 .10587 2.68219 C .05888 2.08829 .01357 1.1326 .00414 .53746 C -.00526 -.05765 .00972 -1.01263 .03787 -1.60722 C .06602 -2.20178 .14145 -3.15567 .20709 -3.7478 C .27272 -4.33992 .40813 -5.28802 .51099 -5.87486 C .61386 -6.46169 .80887 -7.39838 .94855 -7.97728 C 1.08821 -8.55618 1.3418 -9.4784 1.51768 -10.04726 C 1.69359 -10.6161 2.00479 -11.52039 2.21634 -12.07726 C 2.42789 -12.63412 2.79614 -13.51825 3.04239 -14.06082 C 3.28865 -14.60338 3.71123 -15.46196 3.99123 -15.98778 C 4.27121 -16.51361 4.74796 -17.34389 5.06047 -17.85066 C 5.37299 -18.35744 5.89981 -19.15424 6.24364 -19.64034 C 6.5875 -20.12645 7.16466 -20.89056 7.53868 -21.35426 C 7.9127 -21.81793 8.53677 -22.54298 8.93933 -22.98225 C 9.3419 -23.42151 10.0108 -24.10732 10.44017 -24.5202 C 10.86952 -24.93307 11.57947 -25.57329 12.03392 -25.95796 C 12.48837 -26.34265 13.23785 -26.93745 13.71564 -27.29271 C 14.19344 -27.64796 14.97804 -28.1938 15.47755 -28.51845 C 15.97707 -28.8431 16.79662 -29.33997 17.31578 -29.6326 C 17.83495 -29.92523 18.68303 -30.36847 19.21939 -30.62761 C 19.75577 -30.88678 20.63017 -31.27579 21.18167 -31.5004 C 21.73317 -31.72502 22.62956 -32.0571 23.19429 -32.24654 C 23.759 -32.43599 24.67645 -32.71245 25.2518 -32.86575 C 25.82715 -33.01909 26.75688 -33.23476 27.34097 -33.3516 C 27.92506 -33.46844 28.87079 -33.62785 29.46156 -33.70792 C 30.05234 -33.788 31.00505 -33.88654 31.59903 -33.92877 C 32.19298 -33.97101 33.14728 -34.00797 33.74245 -34.01233 C 34.33759 -34.01672 35.29393 -33.99345 35.88846 -33.96043 C 36.48299 -33.92741 37.43593 -33.84459 38.02747 -33.77437 C 38.619 -33.70415 39.56554 -33.56157 40.15195 -33.45436 C 40.73834 -33.34717 41.67569 -33.14592 42.25385 -33.00175 C 42.83199 -32.85757 43.75163 -32.59598 44.31888 -32.41524 C 44.88612 -32.23447 45.7873 -31.91492 46.34215 -31.69894 C 46.897 -31.48297 47.77751 -31.10896 48.3179 -30.8586 C 48.85829 -30.60823 49.71301 -30.17842 50.23685 -29.89445 C 50.76067 -29.6105 51.58856 -29.12846 52.09322 -28.81197 C 52.59787 -28.4955 53.39088 -27.96146 53.87408 -27.6135 C 54.35728 -27.2655 55.11546 -26.68172 55.57579 -26.30392 C 56.03613 -25.92613 56.75601 -25.29662 57.19186 -24.89055 C 57.6277 -24.48447 58.30702 -23.8096 58.71709 -23.37724 C 59.12717 -22.9449 59.76532 -22.23169 60.14734 -21.77443 C 60.52934 -21.31715 61.1193 -20.56264 61.4704 -20.08154 C 61.82152 -19.60043 62.35797 -18.80904 62.67798 -18.3069 C 62.99799 -17.80476 63.48856 -16.98349 63.77681 -16.46246 C 64.06505 -15.9414 64.5004 -15.08994 64.75546 -14.55157 C 65.01056 -14.0132 65.39445 -13.13567 65.61528 -12.58229 C 65.8361 -12.0289 66.16206 -11.12935 66.34712 -10.56317 C 66.53221 -9.99702 66.8007 -9.0786 66.94923 -8.50177 C 67.09776 -7.92496 67.30615 -6.99098 67.41768 -6.40585 C 67.5292 -5.82071 67.67769 -4.8753 67.75299 -4.28448 C 67.82828 -3.69366 67.9218 -2.74178 67.96034 -2.14757 C 67.99892 -1.55334 68.03094 -.0018 68.03094 -.0018 "/>
<symbol id="font_0_5">
<path d="M .18800001 .21200001 C .18900001 .21800001 .212 .308 .214 .313 C .216 .321 .24500002 .37100003 .277 .395 C .28800003 .403 .31500004 .423 .35800005 .423 C .36800004 .423 .39300005 .42200003 .41300003 .409 C .38100005 .4 .36900003 .372 .36900003 .354 C .36900003 .33200003 .38600005 .317 .40900005 .317 C .43200005 .317 .46500004 .336 .46500004 .37800003 C .46500004 .43 .41000004 .451 .35900004 .451 C .307 .451 .26200003 .43 .21800001 .38 C .2 .441 .139 .451 .114999998 .451 C .077999997 .451 .053 .428 .037000006 .4 C .014000002 .361 0 .303 0 .298 C 0 .285 .014000002 .285 .017 .285 C .031 .285 .032 .28800003 .039 .315 C .054 .37600003 .073 .423 .112 .423 C .138 .423 .145 .40100003 .145 .374 C .145 .35500003 .136 .31800003 .12900001 .291 C .12200001 .264 .112 .22300002 .10700001 .20100002 L .075 .073 C .07100001 .060000004 .065 .035 .065 .032 C .065 .010000001 .083000008 0 .09900001 0 C .11400001 0 .134 .009000001 .142 .029000003 C .14400001 .035 .155 .079 .161 .104 L .18800001 .21200001 Z "/>
</symbol>
<use xlink:href="#font_0_5" transform="matrix(19.371666,0,0,-19.371666,347.04936,385.73817)"/>
<symbol id="font_1_2">
<path d="M .698 .22000003 C .71300008 .22000003 .73600009 .22000003 .73600009 .24500004 C .73600009 .26900003 .7120001 .26900003 .69900009 .26900003 L .037000009 .26900003 C .024000004 .26900003 0 .26900003 0 .24500004 C 0 .22000003 .023000002 .22000003 .038000004 .22000003 L .698 .22000003 M .69900009 0 C .7120001 0 .73600009 0 .73600009 .023999997 C .73600009 .049000004 .71300008 .049000004 .698 .049000004 L .038000004 .049000004 C .023000002 .049000004 0 .049000004 0 .023999997 C 0 0 .024000004 0 .037000009 0 L .69900009 0 Z "/>
</symbol>
<symbol id="font_1_1">
<path d="M .49000005 .164 L .49000005 .2 L .379 .2 L .379 .646 C .379 .66700008 .379 .674 .35700003 .674 C .345 .674 .34100003 .674 .331 .66 L 0 .2 L 0 .164 L .294 .164 L .294 .082 C .294 .048 .294 .036000004 .213 .036000004 L .186 .036000004 L .186 0 C .236 .002 .3 .004 .33600004 .004 C .37300004 .004 .437 .002 .48700003 0 L .48700003 .036000004 L .46 .036000004 C .379 .036000004 .379 .048 .379 .082 L .379 .164 L .49000005 .164 M .301 .56600007 L .301 .2 L .037000006 .2 L .301 .56600007 Z "/>
</symbol>
<symbol id="font_1_3">
<path d="M .34300003 .409 C .32500003 .40100003 .31500004 .38500003 .31500004 .365 C .31500004 .338 .33400003 .31800003 .36200003 .31800003 C .38900004 .31800003 .41000004 .335 .41000004 .367 C .41000004 .456 .271 .456 .243 .456 C .09300001 .456 0 .34100003 0 .22600001 C 0 .1 .10700001 0 .238 0 C .38700003 0 .42200003 .118 .42200003 .13000001 C .42200003 .142 .409 .142 .40500004 .142 C .39200003 .142 .391 .13900002 .386 .125 C .36400003 .063 .31100003 .032 .25 .032 C .18100001 .032 .091000009 .083000008 .091000009 .22700002 C .091000009 .354 .15300001 .42400003 .24600002 .42400003 C .259 .42400003 .307 .42400003 .34300003 .409 Z "/>
</symbol>
<symbol id="font_1_6">
<path d="M .49000005 .22300002 C .49000005 .34800003 .38300003 .456 .245 .456 C .10700001 .456 0 .34800003 0 .22300002 C 0 .099 .11 0 .245 0 C .38000003 0 .49000005 .099 .49000005 .22300002 M .245 .032 C .208 .032 .154 .044000005 .12100001 .093 C .094 .134 .091000009 .18600002 .091000009 .23200003 C .091000009 .275 .09200001 .334 .127 .377 C .15200001 .40600003 .194 .428 .245 .428 C .30400003 .428 .34600003 .4 .368 .36900003 C .39600004 .33 .39900003 .28 .39900003 .23200003 C .39900003 .18400002 .39600004 .13100001 .367 .09 C .34 .052000006 .294 .032 .245 .032 Z "/>
</symbol>
<symbol id="font_1_7">
<path d="M .334 .43 C .334 .447 .334 .456 .32 .456 C .315 .456 .31300003 .456 .3 .444 C .29800005 .44300003 .288 .43400003 .282 .42900003 C .25200004 .45000003 .214 .456 .17700002 .456 C .034 .456 0 .381 0 .331 C 0 .299 .014000002 .273 .038000004 .25300003 C .076000008 .22000002 .11400001 .21300002 .17600002 .20300001 C .22600003 .19400002 .30700005 .18 .30700005 .113000009 C .30700005 .074 .28000004 .028 .18400002 .028 C .088 .028 .053000004 .091 .035000005 .15900001 C .032000007 .172 .031000004 .17600002 .017 .17600002 C 0 .17600002 0 .16900002 0 .14900002 L 0 .026 C 0 .009000001 0 0 .014000002 0 C .023000002 0 .042000005 .021000002 .062000008 .043 C .106000009 .0020000004 .16000001 0 .18400002 0 C .314 0 .362 .07 .362 .14100002 C .362 .17900002 .34500004 .20900002 .319 .23300001 C .28100003 .268 .235 .276 .2 .282 C .120000008 .296 .055 .308 .055 .361 C .055 .393 .082 .432 .17700002 .432 C .29300005 .432 .29800005 .351 .3 .322 C .301 .31100003 .31300003 .31100003 .31700004 .31100003 C .334 .31100003 .334 .31800003 .334 .337 L .334 .43 Z "/>
</symbol>
<use xlink:href="#font_1_2" transform="matrix(19.371666,0,0,-19.371666,364.66435,383.29734)"/>
<use xlink:href="#font_1_1" transform="matrix(19.371666,0,0,-19.371666,387.34855,385.54444)"/>
<use xlink:href="#font_1_3" transform="matrix(19.371666,0,0,-19.371666,402.30348,385.73817)"/>
<use xlink:href="#font_1_6" transform="matrix(19.371666,0,0,-19.371666,412.0087,385.73817)"/>
<use xlink:href="#font_1_7" transform="matrix(19.371666,0,0,-19.371666,423.1668,385.73817)"/>
<symbol id="font_0_1">
<path d="M .44800005 .497 C .44800005 .602 .40800003 .71400007 .31000004 .71400007 C .16 .71400007 0 .446 0 .21700002 C 0 .098000008 .046000005 0 .13800001 0 C .29000003 0 .44800005 .273 .44800005 .497 M .11300001 .375 C .164 .591 .25000004 .68600007 .30900003 .68600007 C .37300004 .68600007 .37300004 .575 .37300004 .556 C .37300004 .517 .36500005 .45900003 .344 .375 L .11300001 .375 M .33500005 .33900003 C .307 .23000002 .284 .17600002 .254 .127 C .22300002 .075 .183 .028 .139 .028 C .084 .028 .07500001 .104 .07500001 .158 C .07500001 .22400002 .094000007 .30200003 .10400001 .33900003 L .33500005 .33900003 Z "/>
</symbol>
<use xlink:href="#font_0_1" transform="matrix(19.371666,0,0,-19.371666,436.0454,385.73817)"/>
<use xlink:href="#font_0_5" transform="matrix(19.371666,0,0,-19.371666,19.357689,157.96593)"/>
<symbol id="font_1_4">
<path d="M .155 .61700007 C .155 .646 .13100001 .674 .09700001 .674 C .067 .674 .04 .65000006 .04 .61700007 C .04 .58100005 .069 .559 .09700001 .559 C .12900001 .559 .155 .58400008 .155 .61700007 M .0030000024 .43 L .0030000024 .39400003 C .06600001 .39400003 .07500001 .388 .07500001 .33900003 L .07500001 .079 C .07500001 .036000004 .065000008 .036000004 0 .036000004 L 0 0 C .0020000004 0 .072000008 .004 .11200001 .004 C .14700002 .004 .183 .003 .21800003 0 L .21800003 .036000004 C .16 .036000004 .15 .036000004 .15 .078 L .15 .441 L .0030000024 .43 Z "/>
</symbol>
<symbol id="font_1_5">
<path d="M .46100006 .303 C .46100006 .39000003 .41800005 .441 .31100003 .441 C .22900002 .441 .176 .39600004 .148 .344 L .147 .344 L .147 .441 L 0 .43 L 0 .39400003 C .067 .39400003 .075 .38700003 .075 .33800004 L .075 .079 C .075 .036000004 .065 .036000004 0 .036000004 L 0 0 C .0020000004 0 .072 .004 .11400001 .004 C .15100001 .004 .22000002 .001 .22900002 0 L .22900002 .036000004 C .164 .036000004 .154 .036000004 .154 .079 L .154 .259 C .154 .36400003 .237 .41300003 .30300004 .41300003 C .37300004 .41300003 .38200004 .358 .38200004 .307 L .38200004 .079 C .38200004 .036000004 .37200005 .036000004 .30700005 .036000004 L .30700005 0 C .30900003 0 .37900005 .004 .42100004 .004 C .45800004 .004 .527 .001 .536 0 L .536 .036000004 C .47100006 .036000004 .46100006 .036000004 .46100006 .079 L .46100006 .303 Z "/>
</symbol>
<use xlink:href="#font_1_2" transform="matrix(19.371666,0,0,-19.371666,36.975458,155.5251)"/>
<use xlink:href="#font_1_1" transform="matrix(19.371666,0,0,-19.371666,59.659677,157.77222)"/>
<use xlink:href="#font_1_7" transform="matrix(19.371666,0,0,-19.371666,74.595249,157.96593)"/>
<use xlink:href="#font_1_4" transform="matrix(19.371666,0,0,-19.371666,83.583698,157.77222)"/>
<use xlink:href="#font_1_5" transform="matrix(19.371666,0,0,-19.371666,89.801998,157.77222)"/>
<use xlink:href="#font_0_1" transform="matrix(19.371666,0,0,-19.371666,105.97318,157.96593)"/>
<path transform="matrix(2.7777777,0,0,-2.7777777,211.93332,272.51945)" stroke-width=".3985" stroke-linecap="butt" stroke-miterlimit="10" stroke-linejoin="miter" fill="none" stroke="#000000" d="M 0 0 L 48.10666 48.10666 "/>
<use xlink:href="#font_0_1" transform="matrix(19.371666,0,0,-19.371666,308.41487,124.46316)"/>
<use xlink:href="#font_1_2" transform="matrix(19.371666,0,0,-19.371666,325.98655,122.02232)"/>
<symbol id="font_0_2">
<path d="M .26600004 .373 L .385 .373 C .37 .313 .348 .22200002 .348 .143 C .348 .103 .35300005 .076 .35900004 .054000006 C .375 .0040000008 .388 0 .40400005 0 C .42700006 0 .45100004 .021000002 .45100004 .045 C .45100004 .053000004 .449 .057000005 .44300003 .067 C .42400003 .104 .40600003 .16100002 .40600003 .24300002 C .40600003 .262 .40600003 .30200003 .42000003 .373 L .545 .373 C .563 .373 .57100006 .373 .582 .381 C .596 .391 .59900006 .407 .59900006 .412 C .59900006 .441 .573 .441 .556 .441 L .179 .441 C .13800001 .441 .11 .432 .065000008 .39000003 C .039000006 .367 0 .313 0 .304 C 0 .292 .013 .292 .017 .292 C .028000005 .292 .029 .294 .035000005 .303 C .08600001 .373 .148 .373 .17 .373 L .23100002 .373 C .2 .263 .14600002 .14500001 .11600001 .085 C .11 .072000008 .10000001 .051000004 .097 .047000003 C .096 .043 .09400001 .039 .09400001 .032 C .09400001 .016 .106000009 0 .12900001 0 C .16900002 0 .18 .045 .20400001 .135 L .26600004 .373 Z "/>
</symbol>
<symbol id="font_0_3">
<path d="M .42400003 .95600005 C .43 .96900007 .43 .971 .43 .975 C .43 .99100008 .417 1 .40600003 1 C .389 1 .384 .98800006 .379 .975 L .0059999974 .043999986 C 0 .030999989 0 .028999985 0 .024999991 C 0 .008999988 .012999997 0 .023999997 0 C .041 0 .045999998 .0119999949 .051 .024999991 L .42400003 .95600005 Z "/>
</symbol>
<use xlink:href="#font_0_2" transform="matrix(19.371666,0,0,-19.371666,348.79118,124.46316)"/>
<use xlink:href="#font_0_3" transform="matrix(19.371666,0,0,-19.371666,363.04869,129.11235)"/>
<use xlink:href="#font_1_1" transform="matrix(19.371666,0,0,-19.371666,373.64994,124.26944)"/>
<symbol id="font_0_4">
<path d="M .14900002 .120000008 C .114 .066 .08200001 .040000004 .023000002 .036000004 C .012999997 .035 0 .035 0 .015000001 C 0 .004 .008999996 0 .013999999 0 C .04 0 .07300001 .004 .1 .004 C .132 .004 .17300001 0 .20300001 0 C .208 0 .22299999 0 .22299999 .022000002 C .22299999 .035 .21000001 .036000004 .206 .036000004 C .19800002 .037 .162 .039 .162 .066 C .162 .078 .17200002 .095000009 .17700002 .104 L .257 .22800002 L .54300007 .22800002 L .56700006 .062000004 C .563 .052 .55700007 .036000004 .498 .036000004 C .48600004 .036000004 .47200004 .036000004 .47200004 .014 C .47200004 .010000001 .475 0 .488 0 C .517 0 .58800008 .004 .61700007 .004 C .63500007 .004 .65800008 .003 .67600008 .003 C .69400009 .002 .71500006 0 .73300006 0 C .74600008 0 .7530001 .008 .7530001 .021000002 C .7530001 .036000004 .74100008 .036000004 .7250001 .036000004 C .66700008 .036000004 .6650001 .044000005 .66200008 .068 L .57400009 .68500009 C .57100006 .70600005 .56900009 .71300008 .5500001 .71300008 C .531 .71300008 .52500006 .70400008 .51600006 .69000008 L .14900002 .120000008 M .28100003 .264 L .49100004 .591 L .53800007 .264 L .28100003 .264 Z "/>
</symbol>
<use xlink:href="#font_0_4" transform="matrix(19.371666,0,0,-19.371666,138.57917,205.37224)"/>
<symbol id="font_2_1">
<path d="M .25500003 .63600006 C .25500003 .666 .252 .666 .21900001 .666 C .148 .60200008 .037 .60200008 .017000005 .60200008 L 0 .60200008 L 0 .558 L .017000005 .558 C .040000008 .558 .105000007 .56100007 .16300002 .586 L .16300002 .086 C .16300002 .055000005 .16300002 .044000005 .056999998 .044000005 L .0069999995 .044000005 L .0069999995 0 C .062000008 .004 .151 .004 .20900002 .004 C .26700003 .004 .356 .004 .411 0 L .411 .044000005 L .361 .044000005 C .25500003 .044000005 .25500003 .055000005 .25500003 .086 L .25500003 .63600006 Z "/>
</symbol>
<use xlink:href="#font_2_1" transform="matrix(13.836944,0,0,-13.836944,156.09534,208.13892)"/>
<path transform="matrix(2.7777777,0,0,-2.7777777,211.93332,272.51945)" stroke-width=".3985" stroke-linecap="butt" stroke-miterlimit="10" stroke-linejoin="miter" fill="none" stroke="#000000" d="M -51.02477 0 L 84.583 0 "/>
<path transform="matrix(2.7777777,0,0,-2.7777777,446.88609,272.51945)" stroke-width=".31879" stroke-linecap="round" stroke-linejoin="round" fill="none" stroke="#000000" d="M -1.19551 1.59401 C -1.09587 .99626 0 .09961 .29886 0 C 0 -.09961 -1.09587 -.99626 -1.19551 -1.59401 "/>
<symbol id="font_3_1">
<path d="M .305 .31300003 C .311 .33900003 .334 .43100003 .404 .43100003 C .409 .43100003 .433 .43100003 .454 .418 C .426 .41300003 .40600003 .388 .40600003 .36400003 C .40600003 .34800003 .417 .32900004 .444 .32900004 C .46600003 .32900004 .498 .34700004 .498 .38700003 C .498 .43900005 .439 .45300005 .405 .45300005 C .347 .45300005 .312 .40000005 .3 .37700004 C .275 .44300003 .221 .45300005 .19200002 .45300005 C .08800001 .45300005 .031000002 .32400004 .031000002 .29900003 C .031000002 .28900004 .041 .28900004 .043000007 .28900004 C .051000008 .28900004 .054000006 .291 .056 .3 C .09 .40600003 .156 .43100003 .19000001 .43100003 C .209 .43100003 .244 .42200003 .244 .36400003 C .244 .33300004 .22700002 .26600004 .19000001 .126 C .17400001 .064 .13900002 .022000002 .095000009 .022000002 C .08900001 .022000002 .06600001 .022000002 .045 .035 C .07000001 .040000004 .09200001 .061 .09200001 .089 C .09200001 .116000007 .07000001 .124000009 .055000009 .124000009 C .025 .124000009 0 .098000008 0 .06600001 C 0 .020000002 .050000006 0 .094000007 0 C .16000001 0 .19600001 .07000001 .19900002 .076000008 C .21100001 .039 .24700003 0 .307 0 C .41 0 .467 .12900001 .467 .15400002 C .467 .16400002 .458 .16400002 .455 .16400002 C .446 .16400002 .444 .16000001 .442 .15300001 C .409 .046 .341 .022000002 .30900003 .022000002 C .27 .022000002 .254 .054 .254 .08800001 C .254 .11000001 .26 .13200002 .271 .17600002 L .305 .31300003 Z "/>
</symbol>
<use xlink:href="#font_3_1" transform="matrix(27.673888,0,0,-27.673888,458.73585,278.7794)"/>
<path transform="matrix(2.7777777,0,0,-2.7777777,211.93332,272.51945)" stroke-width=".3985" stroke-linecap="butt" stroke-miterlimit="10" stroke-linejoin="miter" fill="none" stroke="#000000" d="M 0 -51.02477 L 0 84.583 "/>
<path transform="matrix(0,-2.7777777,-2.7777777,-0,211.93332,37.56667)" stroke-width=".31879" stroke-linecap="round" stroke-linejoin="round" fill="none" stroke="#000000" d="M -1.19551 1.59401 C -1.09587 .99626 0 .09961 .29886 0 C 0 -.09961 -1.09587 -.99626 -1.19551 -1.59401 "/>
<symbol id="font_3_2">
<path d="M .45700003 .586 C .461 .6 .461 .602 .461 .609 C .461 .62700006 .447 .63600006 .432 .63600006 C .42200003 .63600006 .40600003 .63 .397 .615 C .395 .61 .387 .579 .38300003 .561 C .37600003 .535 .36900003 .508 .363 .48100005 L .318 .301 C .314 .286 .271 .21600002 .20500002 .21600002 C .15400002 .21600002 .143 .26000003 .143 .29700003 C .143 .34300003 .16000001 .40500004 .194 .49300004 C .21000001 .53400006 .21400002 .545 .21400002 .56500008 C .21400002 .61 .18200001 .6470001 .13200002 .6470001 C .037 .6470001 0 .50200006 0 .49300004 C 0 .48300005 .01 .48300005 .012 .48300005 C .022000002 .48300005 .023 .485 .028000003 .50100007 C .055000009 .595 .095000009 .625 .12900001 .625 C .13700001 .625 .15400002 .625 .15400002 .59300008 C .15400002 .568 .14400001 .54200008 .13700001 .523 C .097 .41700004 .079 .36 .079 .31300003 C .079 .224 .142 .194 .201 .194 C .24000003 .194 .274 .21100001 .30200003 .23900002 C .289 .187 .277 .13800001 .237 .08500001 C .21100001 .051 .17300001 .022 .127 .022 C .113000009 .022 .068 .025000006 .051000008 .06400001 C .067 .06400001 .080000009 .06400001 .094000007 .076000008 C .104 .08500001 .11400001 .098000008 .11400001 .117000009 C .11400001 .148 .087000008 .15200001 .07700001 .15200001 C .054000006 .15200001 .021 .136 .021 .087000008 C .021 .037 .065000008 0 .127 0 C .23 0 .333 .091000009 .361 .20400001 L .45700003 .586 Z "/>
</symbol>
<use xlink:href="#font_3_2" transform="matrix(27.673888,0,0,-27.673888,205.45529,26.809287)"/>
<path transform="matrix(2.7777777,0,0,-2.7777777,694.9055,272.51945)" d="M 34.0165 34.0165 C 34.0165 34.0165 33.82036 34.01357 33.74529 34.01233 C 33.67021 34.01112 33.54993 34.0089 33.47539 34.00768 C 33.40086 34.00645 33.28232 34.00499 33.20807 34.00352 C 33.13383 34.00206 33.01465 33.99924 32.94025 33.99704 C 32.86584 33.99486 32.74657 33.99078 32.6719 33.9877 C 32.59723 33.98459 32.47653 33.9784 32.402 33.97472 C 32.32745 33.97105 32.20871 33.9651 32.13467 33.96121 C 32.06065 33.95734 31.94232 33.95107 31.86841 33.9467 C 31.7945 33.9423 31.67627 33.93506 31.60187 33.92957 C 31.52748 33.92404 31.40714 33.91338 31.33223 33.90697 C 31.25732 33.90057 31.13641 33.88994 31.06206 33.88336 C 30.9877 33.87679 30.87012 33.86626 30.79631 33.8595 C 30.72249 33.85272 30.60413 33.84206 30.53003 33.83456 C 30.45592 33.82709 30.33656 33.814 30.2622 33.8055 C 30.18785 33.79701 30.06813 33.78218 29.99411 33.77332 C 29.92009 33.76447 29.80211 33.7506 29.72862 33.74167 C 29.65514 33.73273 29.53798 33.7186 29.46442 33.70897 C 29.39085 33.69931 29.2722 33.68275 29.1984 33.67212 C 29.1246 33.66145 29.00638 33.64359 28.9324 33.63214 C 28.8584 33.62068 28.73875 33.60143 28.66508 33.58958 C 28.59142 33.57774 28.47458 33.55879 28.40141 33.54675 C 28.32825 33.53473 28.21126 33.51582 28.13773 33.5029 C 28.0642 33.48997 27.945 33.46733 27.87144 33.45358 C 27.79788 33.43983 27.68071 33.41788 27.60751 33.40376 C 27.53432 33.38965 27.41669 33.36623 27.34384 33.35185 C 27.27101 33.3375 27.1552 33.31511 27.0825 33.30022 C 27.0098 33.28531 26.89291 33.2604 26.81985 33.24442 C 26.7468 33.22842 26.62883 33.20161 26.55592 33.18498 C 26.48299 33.16835 26.36687 33.14136 26.29433 33.12451 C 26.22176 33.10765 26.10513 33.0806 26.03297 33.06352 C 25.96082 33.04645 25.84639 33.0195 25.77423 33.0015 C 25.70207 32.98349 25.58519 32.95267 25.5129 32.93376 C 25.44058 32.91486 25.32504 32.88437 25.25311 32.86523 C 25.18117 32.84612 25.06612 32.8155 24.99435 32.79594 C 24.9226 32.7764 24.80745 32.74455 24.73586 32.72432 C 24.66428 32.70409 24.54997 32.67113 24.47841 32.6501 C 24.40688 32.62907 24.29185 32.59447 24.2202 32.57275 C 24.14853 32.55104 24.03308 32.51549 23.96196 32.49359 C 23.89084 32.47171 23.7782 32.4371 23.70763 32.41498 C 23.63707 32.39284 23.52434 32.35733 23.45331 32.334 C 23.38225 32.31065 23.26654 32.2709 23.19559 32.2468 C 23.12462 32.22267 23.01202 32.1842 22.94177 32.16011 C 22.87152 32.13602 22.75928 32.09761 22.68925 32.07317 C 22.61922 32.04872 22.50713 32.00938 22.43698 31.9839 C 22.36685 31.95842 22.25375 31.91571 22.18369 31.88942 C 22.11363 31.86316 22.00145 31.82086 21.93196 31.79445 C 21.86246 31.76802 21.75208 31.72572 21.6828 31.69894 C 21.61353 31.67215 21.50183 31.62875 21.43262 31.60135 C 21.36342 31.57396 21.25294 31.52957 21.18399 31.50143 C 21.11505 31.47331 21.00452 31.42755 20.93564 31.39868 C 20.86676 31.3698 20.75616 31.3225 20.68753 31.29329 C 20.61891 31.26411 20.50905 31.21754 20.44098 31.18819 C 20.37292 31.15884 20.26497 31.11197 20.19702 31.08179 C 20.12909 31.05162 20.01929 31.00171 19.95126 30.9707 C 19.88324 30.9397 19.77454 30.88988 19.70679 30.85834 C 19.63902 30.8268 19.53017 30.7752 19.46284 30.74336 C 19.3955 30.7115 19.28838 30.66083 19.22147 30.62865 C 19.15456 30.59647 19.04756 30.54437 18.98064 30.51135 C 18.9137 30.47833 18.80571 30.42426 18.73901 30.39066 C 18.67232 30.35707 18.56624 30.30319 18.5 30.26921 C 18.43375 30.23523 18.32732 30.17992 18.26149 30.14568 C 18.19566 30.11143 18.09125 30.0574 18.02557 30.02242 C 17.9599 29.9874 17.85379 29.92924 17.78812 29.89342 C 17.72244 29.85759 17.61745 29.80017 17.5522 29.76418 C 17.48695 29.72818 17.38252 29.67018 17.31786 29.6339 C 17.25319 29.59761 17.15062 29.53952 17.08609 29.50258 C 17.02158 29.46564 16.9173 29.4054 16.85278 29.36763 C 16.78825 29.32985 16.68512 29.2685 16.62103 29.23033 C 16.55695 29.19217 16.45445 29.13098 16.39082 29.09251 C 16.32721 29.05408 16.22575 28.99219 16.16245 28.95316 C 16.09915 28.91412 15.99774 28.85085 15.93459 28.81119 C 15.87143 28.77156 15.7702 28.70775 15.70724 28.66742 C 15.64427 28.62709 15.54318 28.56119 15.48067 28.52052 C 15.41817 28.47987 15.31879 28.41528 15.2567 28.3744 C 15.19463 28.33354 15.09515 28.26758 15.03325 28.22597 C 14.97136 28.18436 14.87212 28.11667 14.81058 28.0744 C 14.74904 28.03214 14.65082 27.9638 14.5897 27.92128 C 14.52861 27.87877 14.43079 27.81064 14.37016 27.76791 C 14.30952 27.72517 14.21297 27.65646 14.15268 27.61324 C 14.0924 27.56998 13.99596 27.50035 13.9357 27.4562 C 13.87547 27.41208 13.77852 27.33992 13.7185 27.29506 C 13.65848 27.2502 13.56265 27.17784 13.50308 27.13284 C 13.44354 27.08783 13.34818 27.01572 13.28925 26.97064 C 13.2303 26.92557 13.13696 26.85384 13.07825 26.80792 C 13.01953 26.76201 12.92447 26.68634 12.86595 26.63976 C 12.80743 26.59317 12.71443 26.51875 12.65652 26.47209 C 12.59862 26.42543 12.50607 26.35036 12.44864 26.30339 C 12.3912 26.25645 12.29976 26.18123 12.24257 26.13367 C 12.1854 26.08612 12.09358 26.009 12.03651 25.96056 C 11.97945 25.91214 11.88768 25.83322 11.83122 25.78462 C 11.77477 25.736 11.68553 25.6591 11.62956 25.61021 C 11.57362 25.56131 11.48363 25.48158 11.42793 25.43217 C 11.37222 25.38277 11.28343 25.30412 11.22809 25.25414 C 11.17274 25.20418 11.08401 25.12254 11.02902 25.07196 C 10.97406 25.02136 10.88626 24.94023 10.8318 24.88951 C 10.77733 24.83878 10.69049 24.75734 10.63638 24.70628 C 10.58226 24.65523 10.49535 24.5729 10.44173 24.5215 C 10.3881 24.47008 10.30327 24.38786 10.24994 24.33568 C 10.19661 24.28351 10.11044 24.1982 10.05737 24.14545 C 10.00429 24.0927 9.91983 24.00827 9.8674 23.95549 C 9.81497 23.90268 9.73152 23.81816 9.6795 23.76498 C 9.62747 23.7118 9.54404 23.62592 9.49239 23.57214 C 9.44072 23.5184 9.35822 23.43167 9.30708 23.37752 C 9.25597 23.32336 9.17459 23.2363 9.12386 23.18182 C 9.07312 23.12735 8.99174 23.03963 8.94142 22.98485 C 8.89108 22.9301 8.81087 22.84225 8.76105 22.7871 C 8.71121 22.73193 8.63173 22.6431 8.58223 22.58727 C 8.53271 22.53142 8.45326 22.44081 8.40419 22.38457 C 8.35512 22.32832 8.27698 22.23811 8.22849 22.18188 C 8.18 22.12564 8.10268 22.03586 8.05461 21.97919 C 8.00655 21.92252 7.92976 21.83073 7.88203 21.77338 C 7.83429 21.71603 7.75784 21.6236 7.71048 21.56577 C 7.66315 21.50793 7.58745 21.41449 7.54076 21.35658 C 7.49405 21.29868 7.42014 21.2066 7.37389 21.14845 C 7.3276 21.0903 7.25313 20.99617 7.20726 20.93745 C 7.16139 20.87872 7.08864 20.78436 7.04326 20.72517 C 6.99785 20.66597 6.92496 20.57028 6.88 20.51079 C 6.83504 20.45132 6.76344 20.35599 6.7191 20.29643 C 6.67474 20.23688 6.60416 20.1415 6.56027 20.08154 C 6.51637 20.02159 6.44637 19.9251 6.40273 19.8643 C 6.3591 19.80354 6.28885 19.70457 6.24571 19.64346 C 6.20258 19.58237 6.13431 19.48497 6.09183 19.4239 C 6.04933 19.36284 5.98143 19.26451 5.93948 19.20331 C 5.89752 19.14209 5.83109 19.0446 5.78947 18.9827 C 5.74785 18.92082 5.6807 18.81966 5.63947 18.75719 C 5.59824 18.69472 5.5329 18.5949 5.49231 18.53244 C 5.45174 18.46996 5.38701 18.36957 5.34698 18.3069 C 5.30695 18.24425 5.24332 18.1439 5.20372 18.08086 C 5.16412 18.01782 5.10063 17.91599 5.06151 17.85246 C 5.02235 17.78897 4.96019 17.68678 4.92162 17.62305 C 4.88306 17.55933 4.82161 17.45699 4.78355 17.39313 C 4.74548 17.32924 4.68489 17.2268 4.6473 17.16266 C 4.60973 17.0985 4.5497 16.99527 4.5126 16.93063 C 4.47551 16.86601 4.41656 16.76187 4.37999 16.69681 C 4.34341 16.63174 4.28497 16.52693 4.24893 16.46169 C 4.2129 16.39644 4.15575 16.29193 4.1202 16.22655 C 4.08467 16.16115 4.0279 16.05623 3.99278 15.99037 C 3.95767 15.92451 3.90163 15.81792 3.86716 15.75188 C 3.83272 15.68584 3.77832 15.58063 3.74442 15.51442 C 3.71051 15.4482 3.65622 15.34122 3.6227 15.27461 C 3.58917 15.208 3.53575 15.10112 3.50279 15.03429 C 3.46985 14.96747 3.41759 14.86 3.38522 14.79294 C 3.35286 14.72586 3.30138 14.61823 3.26949 14.5508 C 3.2376 14.48334 3.18657 14.37428 3.15529 14.30684 C 3.124 14.2394 3.07466 14.1322 3.04396 14.0647 C 3.01326 13.99718 2.96423 13.88843 2.93391 13.82024 C 2.9036 13.75203 2.85516 13.64163 2.82544 13.57315 C 2.7957 13.50468 2.74875 13.3952 2.71954 13.32661 C 2.69035 13.25801 2.64362 13.14748 2.61496 13.07877 C 2.58629 13.01007 2.541 12.90031 2.51295 12.83144 C 2.48491 12.76256 2.44034 12.65154 2.4128 12.58229 C 2.38525 12.51305 2.34146 12.4019 2.31444 12.33237 C 2.28738 12.26283 2.24443 12.1509 2.21788 12.08115 C 2.19136 12.01141 2.14908 11.89944 2.12317 11.82967 C 2.09723 11.75989 2.05634 11.6482 2.03102 11.57819 C 2.0057 11.5082 1.96552 11.39548 1.9407 11.32515 C 1.9159 11.25484 1.87648 11.14177 1.85222 11.07133 C 1.82796 11.00092 1.7895 10.88817 1.7658 10.81752 C 1.74207 10.74687 1.7043 10.633 1.68118 10.56215 C 1.65807 10.49129 1.6217 10.37779 1.59918 10.30678 C 1.57663 10.23578 1.54071 10.12148 1.51874 10.05035 C 1.49673 9.97925 1.46202 9.86543 1.44061 9.79422 C 1.41919 9.72299 1.38518 9.60846 1.3643 9.53702 C 1.34343 9.46558 1.3104 9.35097 1.29008 9.27931 C 1.26979 9.20764 1.23769 9.09251 1.21793 9.02057 C 1.19817 8.94862 1.1668 8.83275 1.1476 8.76079 C 1.12842 8.68881 1.09819 8.57368 1.0796 8.50177 C 1.06104 8.42987 1.03175 8.31485 1.01369 8.24251 C .99562 8.17018 .96686 8.05304 .94933 7.98038 C .9318 7.90773 .90422 7.79137 .88728 7.71878 C .87036 7.6462 .84369 7.52985 .82735 7.45718 C .811 7.38452 .7852 7.26784 .76947 7.19505 C .75374 7.12228 .72913 7.00572 .71394 6.9327 C .69875 6.85965 .67456 6.74182 .65996 6.66875 C .64534 6.59566 .62257 6.47888 .60857 6.40585 C .59456 6.33284 .57242 6.21552 .559 6.14243 C .54558 6.06934 .52461 5.95232 .51176 5.87901 C .4989 5.80571 .47865 5.6876 .46634 5.61404 C .45403 5.54048 .43471 5.42244 .423 5.34882 C .4113 5.27518 .39311 5.15697 .382 5.08331 C .3709 5.00963 .3534 4.89156 .34282 4.81781 C .33223 4.74408 .31567 4.62564 .30571 4.5518 C .29573 4.47795 .28029 4.3594 .27092 4.28552 C .26155 4.21164 .24701 4.09312 .23822 4.01924 C .22943 3.94536 .21585 3.82707 .20761 3.75298 C .19936 3.67888 .18642 3.55933 .17879 3.48514 C .17117 3.41096 .15959 3.29257 .15259 3.21835 C .14557 3.14413 .13467 3.02452 .12819 2.95026 C .12172 2.876 .11177 2.75749 .10587 2.6832 C .09996 2.60893 .09091 2.48918 .08563 2.41486 C .08034 2.34053 .0724 2.22191 .06772 2.14757 C .06303 2.0732 .056 1.95334 .0519 1.87894 C .04779 1.80455 .04164 1.68562 .03813 1.61137 C .0346 1.53712 .0294 1.41805 .02646 1.3438 C .02351 1.26956 .01923 1.15067 .01685 1.07623 C .01448 1.0018 .0111 .88196 .00932 .80737 C .00757 .73276 .00528 .61295 .00414 .5385 C .00299 .46404 .00159 .34512 .001 .27066 C .00044 .1962 0 .0018 0 .0018 Z " fill="#ccccff"/>
<path transform="matrix(2.7777777,0,0,-2.7777777,694.9055,272.51945)" stroke-width=".79701" stroke-linecap="butt" stroke-miterlimit="10" stroke-linejoin="miter" fill="none" stroke="#ff0000" d="M 0 0 C 0 0 1.55113 .03017 2.14548 .06772 C 2.73982 .10527 3.69289 .19571 4.28369 .27066 C 4.87453 .34564 5.81892 .49591 6.40376 .60805 C 6.98862 .72017 7.92209 .92998 8.49892 1.07883 C 9.07574 1.22769 9.99481 1.49596 10.56111 1.68092 C 11.12741 1.8659 12.02724 2.19176 12.58047 2.41202 C 13.13371 2.63226 14.0102 3.01372 14.54845 3.26843 C 15.08672 3.52316 15.9385 3.95958 16.45985 4.2479 C 16.98123 4.53621 17.80392 5.02582 18.30612 5.34645 C 18.80833 5.66711 19.59854 6.20728 20.07947 6.55896 C 20.5604 6.91066 21.31487 7.50008 21.77235 7.88124 C 22.22984 8.26242 22.94423 8.89703 23.37672 9.30629 C 23.80922 9.71558 24.48354 10.39514 24.88951 10.83101 C 25.29546 11.26689 25.92479 11.98714 26.30263 12.44786 C 26.68045 12.90858 27.26459 13.66786 27.61272 14.15164 C 27.96083 14.6354 28.49533 15.43018 28.81172 15.93459 C 29.12813 16.439 29.60934 17.26384 29.89316 17.78706 C 30.17697 18.3103 30.6069 19.16556 30.85728 19.70573 C 31.1077 20.24594 31.48189 21.12541 31.69789 21.68048 C 31.91391 22.23555 32.23343 23.13852 32.41418 23.70633 C 32.59496 24.27414 32.85632 25.19485 33.0007 25.77293 C 33.1451 26.35101 33.34769 27.28708 33.45488 27.87276 C 33.56209 28.45844 33.70306 29.40277 33.77332 29.99411 C 33.84358 30.58545 33.92805 31.53986 33.96121 32.13467 C 33.99437 32.7295 34.01672 33.68542 34.01233 34.28122 C 34.00797 34.87701 33.97174 35.83443 33.92957 36.42879 C 33.88736 37.02313 33.78822 37.97513 33.70819 38.56493 C 33.62816 39.15475 33.46957 40.09605 33.35263 40.67982 C 33.23569 41.2636 33.01857 42.1966 32.86523 42.77237 C 32.71193 43.34814 32.4369 44.26474 32.24757 44.82962 C 32.05824 45.39453 31.72522 46.2919 31.50067 46.84381 C 31.27612 47.3957 30.88826 48.27135 30.62917 48.80737 C 30.3701 49.3434 29.92593 50.18858 29.63338 50.70709 C 29.34082 51.22562 28.84492 52.04477 28.52052 52.54454 C 28.19614 53.0443 27.65045 53.83058 27.29532 54.30905 C 26.94017 54.78752 26.34567 55.53836 25.96082 55.99312 C 25.57597 56.44786 24.93448 57.15746 24.5215 57.58661 C 24.10852 58.01575 23.42357 58.68393 22.98433 59.08615 C 22.5451 59.48836 21.8195 60.11166 21.3558 60.4855 C 20.89214 60.85933 20.12865 61.43648 19.64243 61.78053 C 19.1562 62.12457 18.35825 62.652 17.85143 62.96527 C 17.34462 63.27853 16.51529 63.75851 15.9896 64.0384 C 15.46391 64.31828 14.60503 64.73688 14.06262 64.98256 C 13.52023 65.22823 12.6372 65.5976 12.08037 65.80914 C 11.52353 66.02069 10.61833 66.33107 10.04932 66.50726 C 9.48033 66.68346 8.5584 66.93863 7.97935 67.079 C 7.4003 67.21936 6.46259 67.4162 5.87589 67.51889 C 5.2892 67.62158 4.34288 67.75418 3.7509 67.81917 C 3.15892 67.88416 2.20403 67.95912 1.6093 67.98735 C 1.01459 68.01558 .05974 68.03185 -.53539 68.02263 C -1.13054 68.01341 -2.08621 67.96753 -2.6801 67.9209 C -3.27399 67.87427 -4.22614 67.77069 -4.81573 67.68654 C -5.40535 67.6024 -6.34656 67.4361 -6.92957 67.31439 C -7.51259 67.19269 -8.44345 66.96742 -9.01772 66.80936 C -9.59198 66.65129 -10.5053 66.369 -11.0685 66.17506 C -11.63168 65.98114 -12.52695 65.64023 -13.07695 65.41154 C -13.62694 65.18285 -14.49808 64.78958 -15.03247 64.52682 C -15.56688 64.26407 -16.41203 63.81462 -16.92856 63.51779 C -17.44511 63.22098 -18.25859 62.71648 -18.75536 62.38756 C -19.25212 62.05864 -20.03378 61.50624 -20.50899 61.14703 C -20.98418 60.78781 -21.72878 60.18669 -22.18031 59.79852 C -22.63187 59.41035 -23.33705 58.76505 -23.76343 58.34933 C -24.1898 57.93362 -24.85434 57.24481 -25.25337 56.8023 C -25.65237 56.3598 -26.26913 55.62697 -26.63922 55.16003 C -27.00934 54.69313 -27.58052 53.92596 -27.92076 53.43704 C -28.261 52.94814 -28.78275 52.14542 -29.09149 51.6362 C -29.40022 51.12697 -29.86989 50.29454 -30.14592 49.76683 C -30.42197 49.23914 -30.83904 48.37726 -31.08101 47.83286 C -31.32298 47.28844 -31.68301 46.40155 -31.88994 45.84308 C -32.0969 45.28459 -32.40125 44.37828 -32.5725 43.8076 C -32.74374 43.23694 -32.9891 42.31035 -33.12425 41.7301 C -33.2594 41.14987 -33.44795 40.21274 -33.54651 39.62563 C -33.64505 39.03851 -33.77336 38.09068 -33.83456 37.49855 C -33.89578 36.90643 -33.96431 35.95328 -33.9877 35.35799 C -34.01106 34.7627 -34.01747 33.80391 -34.003 33.20807 C -33.98853 32.61224 -33.93492 31.65685 -33.88336 31.06361 C -33.8318 30.47038 -33.72002 29.5212 -33.63136 28.9324 C -33.54271 28.34358 -33.37015 27.40196 -33.24442 26.81985 C -33.11867 26.23775 -32.88768 25.31001 -32.72511 24.73691 C -32.56253 24.16379 -32.2713 23.25108 -32.07266 22.68925 C -31.874 22.12741 -31.52655 21.23547 -31.29329 20.68753 C -31.06004 20.13959 -30.65863 19.27213 -30.39145 18.74005 C -30.12427 18.208 -29.66808 17.3671 -29.36763 16.85278 C -29.06717 16.33847 -28.55843 15.52754 -28.22597 15.03325 C -27.89351 14.53896 -27.33449 13.76263 -26.97142 13.29028 C -26.60835 12.81792 -26.00127 12.07736 -25.60918 11.62878 C -25.21709 11.18024 -24.56487 10.48015 -24.14545 10.05737 C -23.72603 9.6346 -23.03128 8.97716 -22.58621 8.58171 C -22.14116 8.18626 -21.40723 7.57397 -20.93771 7.20726 C -20.4682 6.84056 -19.69417 6.27507 -19.20227 5.9387 C -18.71036 5.60234 -17.90428 5.08763 -17.39235 4.78304 C -16.8804 4.47844 -16.04263 4.01505 -15.51259 3.74338 C -14.98254 3.4717 -14.11812 3.06253 -13.57213 2.82492 C -13.02612 2.5873 -12.1374 2.23344 -11.57741 2.03076 C -11.0174 1.82808 -10.10779 1.53105 -9.53598 1.36404 C -8.96417 1.19704 -8.03725 .95764 -7.45615 .82709 C -6.87506 .69652 -5.93588 .51662 -5.34776 .423 C -4.75964 .32939 -3.81026 .20866 -3.21732 .15231 C -2.62437 .09596 -1.6693 .03564 -1.07414 .01685 C -.479 -.0019 .47694 -.00188 1.07208 .01685 C 1.66722 .03561 2.62244 .09578 3.21524 .15205 C 3.80806 .20833 4.75653 .32887 5.34465 .42249 C 5.93275 .51611 6.87279 .6963 7.45407 .82683 C 8.03535 .95735 8.96236 1.19633 9.53416 1.36328 C 10.10597 1.5302 11.01523 1.82724 11.57535 2.02998 C 12.13544 2.23276 13.02495 2.587 13.57109 2.82466 C 14.11722 3.06232 14.98166 3.47131 15.51157 3.74286 C 16.04146 4.01439 16.87833 4.47714 17.39026 4.78172 C 17.90219 5.08633 18.7093 5.60184 19.20123 5.93819 C 19.69313 6.27454 20.46619 6.83939 20.93564 7.20596 C 21.40508 7.57253 22.13953 8.18475 22.58466 8.58015 C 23.0298 8.97556 23.7244 9.63297 24.14389 10.05582 C 24.5634 10.47865 25.216 11.17924 25.60814 11.62776 C 26.00027 12.07628 26.60709 12.81622 26.97012 13.28845 C 27.33316 13.7607 27.89227 14.53717 28.22467 15.03143 C 28.55707 15.52568 29.06534 16.33646 29.3658 16.85072 C 29.66626 17.36499 30.12285 18.20595 30.39015 18.73798 C 30.65744 19.27 31.0589 20.1373 31.29227 20.6852 C 31.52562 21.2331 31.87329 22.12491 32.07214 22.6869 C 32.27097 23.24893 32.5628 24.1628 32.72536 24.73586 C 32.88791 25.30893 33.11797 26.23537 33.24364 26.81726 C 33.3693 27.39915 33.54224 28.34084 33.6311 28.9298 C 33.71997 29.51875 33.83247 30.46866 33.88414 31.06206 C 33.9358 31.65544 33.98915 32.61087 34.00352 33.20651 C 34.01788 33.80217 34.01102 34.75984 33.9877 35.35513 C 33.96436 35.95042 33.89653 36.9049 33.83534 37.497 C 33.77417 38.08908 33.64526 39.03539 33.54675 39.6225 C 33.44826 40.20963 33.26033 41.14813 33.12529 41.72856 C 32.99026 42.30899 32.7449 43.23514 32.57353 43.8058 C 32.40218 44.37646 32.09726 45.28302 31.8902 45.8415 C 31.68317 46.40001 31.32321 47.28688 31.08125 47.83104 C 30.83932 48.3752 30.42253 49.23601 30.14645 49.76346 C 29.87038 50.29091 29.40007 51.12312 29.09149 51.63257 C 28.7829 52.14201 28.26239 52.94606 27.92232 53.43524 C 27.58226 53.92441 27.01076 54.6913 26.64053 55.15822 C 26.2703 55.62514 25.65271 56.35799 25.25389 56.80049 C 24.85506 57.243 24.19221 57.93155 23.76602 58.34752 C 23.33983 58.7635 22.63377 59.41011 22.18214 59.79852 C 21.73048 60.18695 20.98601 60.7881 20.51079 61.14703 C 20.0356 61.50597 19.2541 62.05682 18.75719 62.38548 C 18.26027 62.71413 17.44589 63.21889 16.92934 63.51572 C 16.41281 63.81253 15.56853 64.2617 15.03429 64.52475 C 14.50006 64.78778 13.62888 65.18285 13.07903 65.41154 C 12.52917 65.64023 11.63445 65.97934 11.07133 66.173 C 10.50824 66.36667 9.59494 66.64891 9.02057 66.80728 C 8.4462 66.96564 7.51477 67.19238 6.93166 67.31439 C 6.34853 67.4364 5.40741 67.6024 4.81781 67.68654 C 4.22821 67.77069 3.27606 67.87427 2.68219 67.9209 C 2.08829 67.96753 1.1326 68.01341 .53746 68.02263 C -.05765 68.03185 -1.01263 68.01558 -1.60722 67.98735 C -2.20178 67.95912 -3.15567 67.88445 -3.7478 67.81917 C -4.33992 67.75389 -5.28802 67.6195 -5.87486 67.51682 C -6.46169 67.41414 -7.39838 67.21907 -7.97728 67.079 C -8.55618 66.93892 -9.4784 66.68346 -10.04726 66.50726 C -10.6161 66.33107 -11.52039 66.0204 -12.07726 65.80914 C -12.63412 65.59789 -13.51825 65.23004 -14.06082 64.98463 C -14.60338 64.73923 -15.46196 64.32037 -15.98778 64.04047 C -16.51361 63.76057 -17.34389 63.2809 -17.85066 62.96733 C -18.35744 62.65378 -19.15424 62.12457 -19.64034 61.78053 C -20.12645 61.43648 -20.89056 60.8614 -21.35426 60.48756 C -21.81793 60.11374 -22.54298 59.48839 -22.98225 59.08615 C -23.42151 58.68388 -24.10732 58.01756 -24.5202 57.58841 C -24.93307 57.15927 -25.57329 56.44812 -25.95796 55.99312 C -26.34265 55.53812 -26.93745 54.78728 -27.29271 54.30905 C -27.64796 53.83083 -28.1938 53.04561 -28.51845 52.54636 C -28.8431 52.0471 -29.33997 51.2295 -29.6326 50.71074 C -29.92523 50.19196 -30.36847 49.34366 -30.62761 48.80737 C -30.88678 48.27109 -31.27579 47.39726 -31.5004 46.84561 C -31.72502 46.29398 -32.0571 45.39612 -32.24654 44.83144 C -32.43599 44.26675 -32.71245 43.3513 -32.86575 42.77574 C -33.01909 42.20018 -33.23476 41.26721 -33.3516 40.6832 C -33.46844 40.09918 -33.62785 39.15659 -33.70792 38.5665 C -33.788 37.97643 -33.88654 37.02452 -33.92877 36.43033 C -33.97101 35.83617 -34.00797 34.87985 -34.01233 34.28407 C -34.01672 33.68828 -33.99345 32.73105 -33.96043 32.13623 C -33.92741 31.54141 -33.84459 30.58833 -33.77437 29.99696 C -33.70415 29.4056 -33.56157 28.45976 -33.45436 27.87405 C -33.34717 27.28833 -33.14592 26.35342 -33.00175 25.77553 C -32.85757 25.19763 -32.59598 24.27678 -32.41524 23.70892 C -32.23447 23.14107 -31.91492 22.23795 -31.69894 21.6828 C -31.48297 21.12767 -31.10896 20.24806 -30.8586 19.70782 C -30.60823 19.16759 -30.17842 18.31255 -29.89445 17.78915 C -29.6105 17.26578 -29.12846 16.44006 -28.81197 15.93562 C -28.4955 15.43117 -27.96146 14.63713 -27.6135 14.15346 C -27.2655 13.6698 -26.68172 12.91045 -26.30392 12.44966 C -25.92613 11.9889 -25.29662 11.2686 -24.89055 10.83257 C -24.48447 10.39655 -23.8096 9.7164 -23.37724 9.30708 C -22.9449 8.89777 -22.23169 8.26367 -21.77443 7.88255 C -21.31715 7.50143 -20.56264 6.91206 -20.08154 6.56027 C -19.60043 6.20847 -18.80904 5.66759 -18.3069 5.34698 C -17.80476 5.02635 -16.98349 4.53761 -16.46246 4.24945 C -15.9414 3.96127 -15.08994 3.52483 -14.55157 3.27 C -14.0132 3.01517 -13.13567 2.63316 -12.58229 2.4128 C -12.0289 2.19243 -11.12935 1.86667 -10.56317 1.6817 C -9.99702 1.49673 -9.0786 1.2285 -8.50177 1.0796 C -7.92496 .93073 -6.99098 .72076 -6.40585 .60857 C -5.82071 .49637 -4.8753 .34596 -4.28448 .27092 C -3.69366 .19589 -2.74178 .10532 -2.14757 .06772 C -1.55334 .03014 -.0018 0 -.0018 0 "/>
<path transform="matrix(2.7777777,0,0,-2.7777777,694.9055,272.51945)" stroke-width=".79701" stroke-linecap="butt" stroke-miterlimit="10" stroke-linejoin="miter" fill="none" stroke="#0000ff" d="M 68.03302 0 C 68.03302 0 67.99892 1.55113 67.96034 2.14548 C 67.9218 2.73982 67.83064 3.69289 67.75507 4.28369 C 67.67949 4.87453 67.52739 5.81892 67.4156 6.40376 C 67.3038 6.98862 67.0972 7.92209 66.94923 8.49892 C 66.80128 9.07574 66.53429 9.99481 66.34921 10.56111 C 66.16414 11.12741 65.8364 12.02724 65.61528 12.58047 C 65.39415 13.13371 65.01027 14.0102 64.75546 14.54845 C 64.50069 15.08672 64.06683 15.9385 63.77887 16.45985 C 63.49092 16.98123 63.00034 17.80392 62.68004 18.30612 C 62.35976 18.80833 61.82181 19.59854 61.4704 20.07947 C 61.11899 20.5604 60.52905 21.31487 60.14734 21.77235 C 59.76561 22.22984 59.12868 22.94423 58.71916 23.37672 C 58.30965 23.80922 57.63159 24.48354 57.19576 24.88951 C 56.7599 25.29546 56.03824 25.92479 55.57787 26.30263 C 55.11751 26.68045 54.36095 27.26459 53.87772 27.61272 C 53.3945 27.96083 52.59995 28.49533 52.09505 28.81172 C 51.59013 29.12813 50.76247 29.60934 50.23865 29.89316 C 49.71484 30.17697 48.8601 30.6069 48.31972 30.85728 C 47.77934 31.1077 46.89885 31.48189 46.34395 31.69789 C 45.78906 31.91391 44.88773 32.23343 44.32043 32.41418 C 43.75316 32.59496 42.83333 32.85632 42.2554 33.0007 C 41.67746 33.1451 40.74144 33.34769 40.15504 33.45488 C 39.56866 33.56209 38.6206 33.70306 38.02902 33.77332 C 37.43744 33.84358 36.48567 33.92805 35.89131 33.96121 C 35.29697 33.99437 34.34044 34.01672 33.74529 34.01233 C 33.15015 34.00797 32.19603 33.97174 31.60187 33.92957 C 31.00769 33.88736 30.05348 33.78822 29.46288 33.70819 C 28.87225 33.62816 27.92921 33.46957 27.34512 33.35263 C 26.76103 33.23569 25.82867 33.01857 25.25311 32.86523 C 24.67755 32.71193 23.76164 32.4369 23.19688 32.24757 C 22.63214 32.05824 21.7343 31.72522 21.18271 31.50067 C 20.63113 31.27612 19.75772 30.88826 19.22147 30.62917 C 18.68523 30.3701 17.83687 29.92593 17.31786 29.63338 C 16.79883 29.34082 15.98007 28.84492 15.48067 28.52052 C 14.98128 28.19614 14.19637 27.65045 13.7185 27.29532 C 13.24065 26.94017 12.49115 26.34567 12.03651 25.96082 C 11.58186 25.57597 10.87126 24.93448 10.44173 24.5215 C 10.01218 24.10852 9.3432 23.42357 8.94064 22.98433 C 8.53806 22.5451 7.91425 21.8195 7.54024 21.3558 C 7.16621 20.89214 6.58894 20.12865 6.24493 19.64243 C 5.90094 19.1562 5.37352 18.35825 5.06097 17.85143 C 4.74844 17.34462 4.27222 16.51529 3.99226 15.9896 C 3.7123 15.46391 3.28943 14.60503 3.04317 14.06262 C 2.79692 13.52023 2.42892 12.6372 2.21736 12.08037 C 2.00581 11.52353 1.69444 10.61833 1.51848 10.04932 C 1.3425 9.48033 1.0888 8.5584 .94907 7.97935 C .80931 7.4003 .61415 6.46259 .51123 5.87589 C .40833 5.2892 .27301 4.34288 .20734 3.7509 C .14166 3.15892 .06607 2.20403 .03787 1.6093 C .00967 1.01459 -.00523 .05974 .00414 -.53539 C .01353 -1.13054 .05865 -2.08621 .10562 -2.6801 C .15256 -3.27399 .25826 -4.22614 .34256 -4.81573 C .42685 -5.40535 .59181 -6.34656 .71317 -6.92957 C .8345 -7.51259 1.05927 -8.44345 1.21715 -9.01772 C 1.37505 -9.59198 1.65735 -10.5053 1.85118 -11.0685 C 2.04501 -11.63168 2.38513 -12.52695 2.61418 -13.07695 C 2.84322 -13.62694 3.23875 -14.49808 3.50201 -15.03247 C 3.76527 -15.56688 4.21515 -16.41203 4.51158 -16.92856 C 4.808 -17.44511 5.31 -18.25859 5.63844 -18.75536 C 5.96686 -19.25212 6.51956 -20.03378 6.87871 -20.50899 C 7.23784 -20.98418 7.83855 -21.72878 8.22694 -22.18031 C 8.61533 -22.63187 9.26169 -23.33705 9.67795 -23.76343 C 10.0942 -24.1898 10.78484 -24.85434 11.22705 -25.25337 C 11.66928 -25.65237 12.39876 -26.26913 12.86519 -26.63922 C 13.33159 -27.00934 14.09962 -27.58052 14.5887 -27.92076 C 15.07776 -28.261 15.8806 -28.78275 16.39005 -29.09149 C 16.89949 -29.40022 17.73239 -29.86989 18.26045 -30.14592 C 18.78851 -30.42197 19.65166 -30.83904 20.19598 -31.08101 C 20.74034 -31.32298 21.62552 -31.68301 22.18369 -31.88994 C 22.74187 -32.0969 23.64876 -32.40125 24.2189 -32.5725 C 24.78905 -32.74374 25.71289 -32.9891 26.29301 -33.12425 C 26.87315 -33.2594 27.81245 -33.44795 28.40012 -33.54651 C 28.98776 -33.64505 29.93596 -33.77336 30.52849 -33.83456 C 31.121 -33.89578 32.0756 -33.96431 32.67061 -33.9877 C 33.2656 -34.01106 34.22183 -34.01747 34.81686 -34.003 C 35.41191 -33.98853 36.3659 -33.93492 36.95926 -33.88336 C 37.5526 -33.8318 38.5038 -33.72002 39.09334 -33.63136 C 39.68286 -33.54271 40.6256 -33.37015 41.2082 -33.24442 C 41.7908 -33.11867 42.71962 -32.88768 43.29245 -32.72511 C 43.86526 -32.56253 44.77568 -32.2713 45.33675 -32.07266 C 45.8978 -31.874 46.78806 -31.52655 47.33612 -31.29329 C 47.8842 -31.06004 48.7542 -30.65863 49.28699 -30.39145 C 49.81976 -30.12427 50.66139 -29.66808 51.17606 -29.36763 C 51.69072 -29.06717 52.50237 -28.55843 52.99637 -28.22597 C 53.49037 -27.89351 54.26466 -27.33449 54.7365 -26.97142 C 55.2083 -26.60835 55.94867 -26.00127 56.39693 -25.60918 C 56.84518 -25.21709 57.54448 -24.56487 57.96733 -24.14545 C 58.39017 -23.72603 59.0481 -23.03128 59.44455 -22.58621 C 59.84099 -22.14116 60.458 -21.40723 60.8247 -20.93771 C 61.1914 -20.4682 61.752 -19.69417 62.08755 -19.20227 C 62.42311 -18.71036 62.93869 -17.90428 63.24321 -17.39235 C 63.54774 -16.8804 64.0106 -16.04263 64.28235 -15.51259 C 64.5541 -14.98254 64.96336 -14.11812 65.20186 -13.57213 C 65.44034 -13.02612 65.79845 -12.1374 66.00119 -11.57741 C 66.20395 -11.0174 66.49712 -10.10779 66.66324 -9.53598 C 66.82938 -8.96417 67.06844 -8.03725 67.19864 -7.45615 C 67.32886 -6.87506 67.5081 -5.93588 67.60168 -5.34776 C 67.69527 -4.75964 67.8162 -3.81026 67.87315 -3.21732 C 67.93011 -2.62437 67.99295 -1.6693 68.01224 -1.07414 C 68.03154 -.479 68.03154 .47694 68.01224 1.07208 C 67.99295 1.66722 67.93011 2.62244 67.87315 3.21524 C 67.8162 3.80806 67.69527 4.75653 67.60168 5.34465 C 67.5081 5.93275 67.32855 6.87279 67.19864 7.45407 C 67.06874 8.03535 66.83176 8.96236 66.66531 9.53416 C 66.49889 10.10597 66.20216 11.01523 65.99911 11.57535 C 65.79607 12.13544 65.44005 13.02495 65.20186 13.57109 C 64.96367 14.11722 64.5541 14.98166 64.28235 15.51157 C 64.0106 16.04146 63.54774 16.87833 63.24321 17.39026 C 62.93869 17.90219 62.42311 18.7093 62.08755 19.20123 C 61.752 19.69313 61.19112 20.46619 60.8247 20.93564 C 60.45828 21.40508 59.84277 22.13953 59.44661 22.58466 C 59.05045 23.0298 58.39252 23.7244 57.96939 24.14389 C 57.54626 24.5634 56.84523 25.216 56.39693 25.60814 C 55.94862 26.00027 55.20987 26.60709 54.7383 26.97012 C 54.26675 27.33316 53.49245 27.89227 52.9982 28.22467 C 52.50394 28.55707 51.69077 29.06534 51.17606 29.3658 C 50.66135 29.66626 49.82106 30.12285 49.28853 30.39015 C 48.75601 30.65744 47.88577 31.0589 47.33794 31.29227 C 46.7901 31.52562 45.90096 31.87329 45.34012 32.07214 C 44.7793 32.27097 43.8689 32.5628 43.29582 32.72536 C 42.72275 32.88791 41.79237 33.11797 41.20976 33.24364 C 40.62714 33.3693 39.68602 33.54224 39.09671 33.6311 C 38.5074 33.71997 37.5558 33.83247 36.96237 33.88414 C 36.36894 33.9358 35.41481 33.98915 34.81973 34.00352 C 34.22466 34.01788 33.26846 34.01102 32.67345 33.9877 C 32.07846 33.96436 31.12386 33.89653 30.53134 33.83534 C 29.93881 33.77417 28.99065 33.64526 28.40297 33.54675 C 27.81528 33.44826 26.87578 33.26033 26.29561 33.12529 C 25.71544 32.99026 24.79182 32.7449 24.22148 32.57353 C 23.65115 32.40218 22.74338 32.09726 22.18498 31.8902 C 21.6266 31.68317 20.74126 31.32321 20.19702 31.08125 C 19.65279 30.83932 18.79062 30.42253 18.26253 30.14645 C 17.73444 29.87038 16.9003 29.40007 16.39082 29.09149 C 15.88135 28.7829 15.07942 28.26239 14.5905 27.92232 C 14.1016 27.58226 13.33351 27.01076 12.86699 26.64053 C 12.40045 26.2703 11.67023 25.65271 11.22809 25.25389 C 10.78595 24.85506 10.09647 24.19221 9.68028 23.76602 C 9.2641 23.33983 8.61702 22.63377 8.22849 22.18214 C 7.83995 21.73048 7.23923 20.98601 6.88 20.51079 C 6.52078 20.0356 5.96802 19.2541 5.63947 18.75719 C 5.31093 18.26027 4.80855 17.44589 4.51208 16.92934 C 4.21564 16.41281 3.766 15.56853 3.50279 15.03429 C 3.23956 14.50006 2.84396 13.62888 2.61496 13.07903 C 2.38594 12.52917 2.04604 11.63445 1.85222 11.07133 C 1.65839 10.50824 1.3759 9.59494 1.21793 9.02057 C 1.05997 8.4462 .8351 7.51477 .71368 6.93166 C .59225 6.34853 .42714 5.40741 .34282 4.81781 C .25848 4.22821 .15285 3.27606 .10587 2.68219 C .05888 2.08829 .01357 1.1326 .00414 .53746 C -.00526 -.05765 .00972 -1.01263 .03787 -1.60722 C .06602 -2.20178 .14145 -3.15567 .20709 -3.7478 C .27272 -4.33992 .40813 -5.28802 .51099 -5.87486 C .61386 -6.46169 .80887 -7.39838 .94855 -7.97728 C 1.08821 -8.55618 1.3418 -9.4784 1.51768 -10.04726 C 1.69359 -10.6161 2.00479 -11.52039 2.21634 -12.07726 C 2.42789 -12.63412 2.79614 -13.51825 3.04239 -14.06082 C 3.28865 -14.60338 3.71123 -15.46196 3.99123 -15.98778 C 4.27121 -16.51361 4.74796 -17.34389 5.06047 -17.85066 C 5.37299 -18.35744 5.89981 -19.15424 6.24364 -19.64034 C 6.5875 -20.12645 7.16466 -20.89056 7.53868 -21.35426 C 7.9127 -21.81793 8.53677 -22.54298 8.93933 -22.98225 C 9.3419 -23.42151 10.0108 -24.10732 10.44017 -24.5202 C 10.86952 -24.93307 11.57947 -25.57329 12.03392 -25.95796 C 12.48837 -26.34265 13.23785 -26.93745 13.71564 -27.29271 C 14.19344 -27.64796 14.97804 -28.1938 15.47755 -28.51845 C 15.97707 -28.8431 16.79662 -29.33997 17.31578 -29.6326 C 17.83495 -29.92523 18.68303 -30.36847 19.21939 -30.62761 C 19.75577 -30.88678 20.63017 -31.27579 21.18167 -31.5004 C 21.73317 -31.72502 22.62956 -32.0571 23.19429 -32.24654 C 23.759 -32.43599 24.67645 -32.71245 25.2518 -32.86575 C 25.82715 -33.01909 26.75688 -33.23476 27.34097 -33.3516 C 27.92506 -33.46844 28.87079 -33.62785 29.46156 -33.70792 C 30.05234 -33.788 31.00505 -33.88654 31.59903 -33.92877 C 32.19298 -33.97101 33.14728 -34.00797 33.74245 -34.01233 C 34.33759 -34.01672 35.29393 -33.99345 35.88846 -33.96043 C 36.48299 -33.92741 37.43593 -33.84459 38.02747 -33.77437 C 38.619 -33.70415 39.56554 -33.56157 40.15195 -33.45436 C 40.73834 -33.34717 41.67569 -33.14592 42.25385 -33.00175 C 42.83199 -32.85757 43.75163 -32.59598 44.31888 -32.41524 C 44.88612 -32.23447 45.7873 -31.91492 46.34215 -31.69894 C 46.897 -31.48297 47.77751 -31.10896 48.3179 -30.8586 C 48.85829 -30.60823 49.71301 -30.17842 50.23685 -29.89445 C 50.76067 -29.6105 51.58856 -29.12846 52.09322 -28.81197 C 52.59787 -28.4955 53.39088 -27.96146 53.87408 -27.6135 C 54.35728 -27.2655 55.11546 -26.68172 55.57579 -26.30392 C 56.03613 -25.92613 56.75601 -25.29662 57.19186 -24.89055 C 57.6277 -24.48447 58.30702 -23.8096 58.71709 -23.37724 C 59.12717 -22.9449 59.76532 -22.23169 60.14734 -21.77443 C 60.52934 -21.31715 61.1193 -20.56264 61.4704 -20.08154 C 61.82152 -19.60043 62.35797 -18.80904 62.67798 -18.3069 C 62.99799 -17.80476 63.48856 -16.98349 63.77681 -16.46246 C 64.06505 -15.9414 64.5004 -15.08994 64.75546 -14.55157 C 65.01056 -14.0132 65.39445 -13.13567 65.61528 -12.58229 C 65.8361 -12.0289 66.16206 -11.12935 66.34712 -10.56317 C 66.53221 -9.99702 66.8007 -9.0786 66.94923 -8.50177 C 67.09776 -7.92496 67.30615 -6.99098 67.41768 -6.40585 C 67.5292 -5.82071 67.67769 -4.8753 67.75299 -4.28448 C 67.82828 -3.69366 67.9218 -2.74178 67.96034 -2.14757 C 67.99892 -1.55334 68.03094 -.0018 68.03094 -.0018 "/>
<use xlink:href="#font_0_5" transform="matrix(19.371666,0,0,-19.371666,830.0215,385.73817)"/>
<use xlink:href="#font_1_2" transform="matrix(19.371666,0,0,-19.371666,847.6393,383.29734)"/>
<use xlink:href="#font_1_1" transform="matrix(19.371666,0,0,-19.371666,870.32357,385.54444)"/>
<use xlink:href="#font_1_3" transform="matrix(19.371666,0,0,-19.371666,885.2785,385.73817)"/>
<use xlink:href="#font_1_6" transform="matrix(19.371666,0,0,-19.371666,894.9837,385.73817)"/>
<use xlink:href="#font_1_7" transform="matrix(19.371666,0,0,-19.371666,906.1417,385.73817)"/>
<use xlink:href="#font_0_1" transform="matrix(19.371666,0,0,-19.371666,919.0204,385.73817)"/>
<use xlink:href="#font_0_5" transform="matrix(19.371666,0,0,-19.371666,502.33265,157.96593)"/>
<use xlink:href="#font_1_2" transform="matrix(19.371666,0,0,-19.371666,519.94766,155.5251)"/>
<use xlink:href="#font_1_1" transform="matrix(19.371666,0,0,-19.371666,542.63186,157.77222)"/>
<use xlink:href="#font_1_7" transform="matrix(19.371666,0,0,-19.371666,557.5674,157.96593)"/>
<use xlink:href="#font_1_4" transform="matrix(19.371666,0,0,-19.371666,566.5559,157.77222)"/>
<use xlink:href="#font_1_5" transform="matrix(19.371666,0,0,-19.371666,572.7742,157.77222)"/>
<use xlink:href="#font_0_1" transform="matrix(19.371666,0,0,-19.371666,588.9454,157.96593)"/>
<path transform="matrix(2.7777777,0,0,-2.7777777,694.9055,272.51945)" stroke-width=".3985" stroke-linecap="butt" stroke-miterlimit="10" stroke-linejoin="miter" fill="none" stroke="#000000" d="M 0 0 L 48.10666 48.10666 "/>
<use xlink:href="#font_0_1" transform="matrix(19.371666,0,0,-19.371666,791.38986,124.46316)"/>
<use xlink:href="#font_1_2" transform="matrix(19.371666,0,0,-19.371666,808.96157,122.02232)"/>
<use xlink:href="#font_0_2" transform="matrix(19.371666,0,0,-19.371666,831.76339,124.46316)"/>
<use xlink:href="#font_0_3" transform="matrix(19.371666,0,0,-19.371666,846.021,129.11235)"/>
<use xlink:href="#font_1_1" transform="matrix(19.371666,0,0,-19.371666,856.62216,124.26944)"/>
<use xlink:href="#font_0_4" transform="matrix(19.371666,0,0,-19.371666,709.3874,239.05277)"/>
<symbol id="font_2_2">
<path d="M .49800004 .193 L .45600004 .193 C .453 .17400001 .44300003 .112 .427 .102000009 C .41900004 .096 .33500005 .096 .32 .096 L .124 .096 C .19000001 .14500001 .264 .201 .324 .24100001 C .41399998 .303 .49800004 .36100004 .49800004 .467 C .49800004 .595 .37700004 .666 .23400001 .666 C .09900001 .666 0 .588 0 .49 C 0 .43800003 .044 .42900003 .058 .42900003 C .08500001 .42900003 .117 .44700004 .117 .48800005 C .117 .52400007 .091000009 .544 .060000004 .54700008 C .088 .592 .14600002 .62200006 .21300002 .62200006 C .31 .62200006 .39100004 .564 .39100004 .46600003 C .39100004 .38200004 .333 .31800003 .25599999 .25300003 L .012000002 .046000005 C .0019999967 .037 .001000002 .037 0 .030000002 L 0 0 L .46500004 0 L .49800004 .193 Z "/>
</symbol>
<use xlink:href="#font_2_2" transform="matrix(13.836944,0,0,-13.836944,726.184,241.81943)"/>
<path transform="matrix(2.7777777,0,0,-2.7777777,694.9055,272.51945)" stroke-width=".3985" stroke-linecap="butt" stroke-miterlimit="10" stroke-linejoin="miter" fill="none" stroke="#000000" d="M -51.02477 0 L 84.583 0 "/>
<path transform="matrix(2.7777777,0,0,-2.7777777,929.8583,272.51945)" stroke-width=".31879" stroke-linecap="round" stroke-linejoin="round" fill="none" stroke="#000000" d="M -1.19551 1.59401 C -1.09587 .99626 0 .09961 .29886 0 C 0 -.09961 -1.09587 -.99626 -1.19551 -1.59401 "/>
<use xlink:href="#font_3_1" transform="matrix(27.673888,0,0,-27.673888,941.70809,278.7794)"/>
<path transform="matrix(2.7777777,0,0,-2.7777777,694.9055,272.51945)" stroke-width=".3985" stroke-linecap="butt" stroke-miterlimit="10" stroke-linejoin="miter" fill="none" stroke="#000000" d="M 0 -51.02477 L 0 84.583 "/>
<path transform="matrix(0,-2.7777777,-2.7777777,-0,694.9055,37.56667)" stroke-width=".31879" stroke-linecap="round" stroke-linejoin="round" fill="none" stroke="#000000" d="M -1.19551 1.59401 C -1.09587 .99626 0 .09961 .29886 0 C 0 -.09961 -1.09587 -.99626 -1.19551 -1.59401 "/>
<use xlink:href="#font_3_2" transform="matrix(27.673888,0,0,-27.673888,688.4274,26.809256)"/>
</g>
</svg>
