<?xml version="1.0" encoding="UTF-8" standalone="no"?>
<!DOCTYPE svg PUBLIC "-//W3C//DTD SVG 1.1//EN" "http://www.w3.org/Graphics/SVG/1.1/DTD/svg11.dtd">
<svg xmlns="http://www.w3.org/2000/svg" xmlns:xlink="http://www.w3.org/1999/xlink" version="1.1" width="558.4889pt" height="627.39999pt" viewBox="0 0 558.4889 627.39999">
<g enable-background="new">
<path transform="matrix(2.7777777,0,0,-2.7777777,245.99721,508.73606)" d="M 0 0 C 0 0 2.90823 .0561 4.02258 .12651 C 5.13695 .19688 6.92377 .36676 8.03156 .50735 C 9.13934 .64796 10.91017 .92973 12.0068 1.13992 C 13.10341 1.35013 14.85373 1.74316 15.93532 2.02231 C 17.0169 2.30147 18.74045 2.80505 19.80223 3.15189 C 20.864 3.49872 22.55069 4.10915 23.588 4.52216 C 24.62529 4.93517 26.26921 5.65099 27.27843 6.12862 C 28.28764 6.60625 29.88425 7.42424 30.86177 7.96472 C 31.8393 8.50519 33.38222 9.42279 34.3238 10.02403 C 35.26543 10.62527 36.74658 11.63863 37.6483 12.29811 C 38.55002 12.9576 39.96512 14.06253 40.8229 14.77719 C 41.68071 15.49187 43.01988 16.68169 43.83078 17.449 C 44.64168 18.21632 45.90625 19.49034 46.66736 20.30763 C 47.42848 21.12491 48.60799 22.4756 49.31644 23.33951 C 50.02492 24.20343 51.12074 25.6272 51.7735 26.53423 C 52.42622 27.44127 53.42772 28.93114 54.02095 29.87689 C 54.61417 30.82265 55.51692 32.36958 56.0491 33.35062 C 56.58131 34.33163 57.38724 35.93478 57.85669 36.9476 C 58.32613 37.96042 59.02763 39.60953 59.43265 40.65034 C 59.83765 41.69116 60.43675 43.38443 60.77567 44.4491 C 61.1146 45.51378 61.60464 47.23991 61.8754 48.32376 C 62.14616 49.40761 62.52628 51.1626 62.72728 52.26074 C 62.9283 53.35889 63.1925 55.12979 63.3242 56.23856 C 63.45587 57.34732 63.61432 59.13684 63.6765 60.25209 C 63.73868 61.36734 63.78072 63.15958 63.77252 64.27663 C 63.76434 65.39368 63.69656 67.18877 63.61745 68.30313 C 63.53831 69.41748 63.35236 71.20232 63.20222 72.30821 C 63.05208 73.41412 62.7545 75.17918 62.53523 76.27373 C 62.31596 77.36827 61.90915 79.11746 61.62173 80.19707 C 61.33429 81.27667 60.81865 82.9956 60.46361 84.05487 C 60.10857 85.11414 59.48383 86.7968 59.06282 87.83157 C 58.6418 88.86635 57.91487 90.50793 57.42912 91.51291 C 56.94337 92.51788 56.11043 94.10266 55.56186 95.07487 C 55.01329 96.04706 54.08348 97.58301 53.4753 98.52003 C 52.86713 99.45705 51.84438 100.93114 51.17851 101.8283 C 50.51263 102.72542 49.39766 104.13336 48.67607 104.98604 C 47.95447 105.8387 46.75201 107.16919 45.97768 107.97379 C 45.20334 108.7784 43.91864 110.03098 43.09505 110.78506 C 42.27145 111.53915 40.91116 112.70786 40.04175 113.40883 C 39.17235 114.10983 37.7405 115.19217 36.82886 115.83734 C 35.91722 116.4825 34.42152 117.47145 33.47128 118.05884 C 32.52104 118.64622 30.9657 119.54597 29.98006 120.0708 C 28.99442 120.5956 27.38445 121.38078 26.3675 121.8414 C 25.35056 122.30202 23.69461 122.99423 22.65047 123.39075 C 21.60632 123.78728 19.9089 124.36902 18.842 124.69939 C 17.77509 125.02975 16.04646 125.50864 14.9608 125.77185 C 13.87515 126.03506 12.11742 126.40396 11.01738 126.59651 C 9.91734 126.78905 8.14235 127.03778 7.0324 127.15967 C 5.92244 127.28156 4.13254 127.42206 3.01756 127.47498 C 1.9026 127.52791 .11218 127.55843 -1.0037 127.54115 C -2.11957 127.5239 -3.91145 127.4378 -5.025 127.35042 C -6.13852 127.263 -7.92389 127.06895 -9.02942 126.91115 C -10.13495 126.75336 -11.89987 126.44124 -12.99298 126.21304 C -14.08609 125.98485 -15.83115 125.56277 -16.9079 125.26645 C -17.98462 124.97012 -19.69733 124.44084 -20.75336 124.0772 C -21.80939 123.71353 -23.48787 123.07404 -24.51903 122.64526 C -25.55022 122.2165 -27.18346 121.47958 -28.18547 120.9869 C -29.18747 120.49422 -30.77238 119.65092 -31.74092 119.09435 C -32.70946 118.53777 -34.23463 117.59207 -35.16597 116.97534 C -36.09732 116.35861 -37.56256 115.3229 -38.45348 114.64937 C -39.34439 113.97583 -40.74048 112.84877 -41.58719 112.12097 C -42.43391 111.39317 -43.75667 110.18321 -44.55614 109.40375 C -45.3556 108.62427 -46.60118 107.33264 -47.34926 106.50294 C -48.09734 105.67323 -49.25378 104.29916 -49.94775 103.42372 C -50.64171 102.54826 -51.71294 101.10995 -52.3509 100.19328 C -52.98886 99.2766 -53.967 97.77164 -54.54584 96.8169 C -55.12466 95.86217 -56.00514 94.30154 -56.52275 93.31206 C -57.04036 92.32257 -57.82268 90.70596 -58.27646 89.68523 C -58.73024 88.6645 -59.40541 87.00235 -59.79338 85.95523 C -60.18135 84.90811 -60.75185 83.20827 -61.07283 82.13829 C -61.39383 81.0683 -61.85364 79.33139 -62.10703 78.24352 C -62.36041 77.15562 -62.71442 75.39842 -62.89922 74.29745 C -63.084 73.19652 -63.32426 71.41881 -63.43904 70.30861 C -63.55379 69.1984 -63.68262 67.41188 -63.72644 66.29572 C -63.77026 65.17955 -63.78217 63.38127 -63.75499 62.26404 C -63.72781 61.1468 -63.62717 59.35558 -63.53052 58.24338 C -63.43385 57.13118 -63.22433 55.35202 -63.05818 54.24803 C -62.89201 53.14401 -62.56857 51.3779 -62.33281 50.28642 C -62.09705 49.19493 -61.66383 47.45581 -61.35895 46.38124 C -61.05405 45.30667 -60.50777 43.595 -60.1353 42.5416 C -59.7628 41.48819 -59.1115 39.81621 -58.67418 38.78891 C -58.23688 37.76161 -57.48436 36.13504 -56.9834 35.13742 C -56.48244 34.13982 -55.62692 32.5631 -55.06357 31.59882 C -54.50023 30.63452 -53.54646 29.11424 -52.92317 28.1874 C -52.29988 27.26054 -51.25198 25.80443 -50.57124 24.91872 C -49.89052 24.033 -48.75208 22.64476 -48.01689 21.80377 C -47.2817 20.9628 -46.05893 19.65024 -45.27243 18.85754 C -44.48593 18.06483 -43.18275 16.83188 -42.34827 16.09041 C -41.5138 15.3489 -40.13829 14.20091 -39.258 13.51332 C -38.37767 12.82574 -36.9259 11.76547 -36.00357 11.13478 C -35.08124 10.5041 -33.57018 9.53885 -32.6103 8.96777 C -31.65044 8.3967 -30.07918 7.52809 -29.08536 7.01877 C -28.09154 6.50943 -26.47119 5.74234 -25.44748 5.29684 C -24.42377 4.85133 -22.7571 4.1879 -21.7071 3.80783 C -20.65712 3.42778 -18.95192 2.87074 -17.8798 2.55757 C -16.80766 2.2444 -15.06943 1.79547 -13.97983 1.55064 C -12.89024 1.3058 -11.1293 .96835 -10.02664 .79282 C -8.92398 .61728 -7.14432 .39104 -6.03258 .28546 C -4.92084 .17987 -3.12976 .06705 -2.01387 .03178 C -.898 -.00348 .8941 -.00406 2.00998 .03111 C 3.12587 .0663 4.91719 .17987 6.02869 .28546 C 7.14017 .39104 8.91814 .61671 10.0208 .79216 C 11.12346 .96762 12.88606 1.30524 13.97594 1.54997 C 15.0658 1.79472 16.80377 2.24327 17.87589 2.55626 C 18.94803 2.86926 20.65295 3.42572 21.70322 3.80586 C 22.75348 4.18602 24.42157 4.8506 25.44556 5.29617 C 26.46951 5.74178 28.08984 6.50833 29.0834 7.01747 C 30.07693 7.52661 31.64655 8.39478 32.60643 8.96585 C 33.56633 9.53693 35.0793 10.50291 36.00163 11.13351 C 36.92397 11.7641 38.37387 12.82333 39.25409 13.51073 C 40.13431 14.19812 41.51111 15.3464 42.34567 16.0878 C 43.18024 16.8292 44.4826 18.06151 45.2692 18.85431 C 46.05579 19.6471 47.27966 20.96086 48.01494 21.80183 C 48.75023 22.6428 49.888 24.03003 50.56865 24.91547 C 51.2493 25.80092 52.29736 27.25674 52.92058 28.1835 C 53.54378 29.11026 54.497 30.63065 55.06033 31.59494 C 55.62369 32.55922 56.47966 34.136 56.98079 35.13353 C 57.48193 36.13104 58.23466 37.75716 58.67226 38.78438 C 59.10985 39.81157 59.7618 41.48329 60.13466 42.53706 C 60.50749 43.59084 61.05489 45.30472 61.3596 46.37929 C 61.66432 47.45384 62.0953 49.19083 62.33087 50.28188 C 62.56645 51.37294 62.89091 53.13857 63.05754 54.24284 C 63.22415 55.34712 63.43489 57.12822 63.53181 58.24078 C 63.62875 59.35333 63.72928 61.14464 63.75629 62.26144 C 63.78328 63.37823 63.77026 65.17372 63.72644 66.28987 C 63.68262 67.40604 63.55501 69.1958 63.44032 70.30602 C 63.32565 71.41621 63.08458 73.19077 62.89989 74.29163 C 62.71518 75.39249 62.3622 77.15201 62.10898 78.24026 C 61.85574 79.3285 61.39604 81.06506 61.07478 82.13506 C 60.7535 83.20503 60.18163 84.90488 59.79338 85.952 C 59.40514 86.9991 58.73006 88.66168 58.27646 89.68196 C 57.82286 90.70222 57.04166 92.3165 56.52405 93.30556 C 56.00645 94.29462 55.12448 95.85522 54.54584 96.81041 C 53.96718 97.76563 52.99112 99.27293 52.35352 100.19005 C 51.7159 101.10716 50.64447 102.545 49.95032 103.42046 C 49.25618 104.2959 48.09836 105.67 47.35056 106.4997 C 46.60275 107.3294 45.35979 108.62057 44.56068 109.40051 C 43.76158 110.18044 42.43791 111.39272 41.5911 112.12097 C 40.7443 112.84923 39.34836 113.97638 38.45735 114.64937 C 37.56635 115.32236 36.10092 116.35516 35.1692 116.97144 C 34.2375 117.5877 32.71075 118.53448 31.74222 119.0911 C 30.7737 119.64767 29.19034 120.48991 28.1887 120.98302 C 27.18706 121.47615 25.55383 122.2165 24.52295 122.64526 C 23.49203 123.07404 21.8144 123.71014 20.75854 124.07327 C 19.70271 124.43643 17.99 124.96568 16.91309 125.26254 C 15.83617 125.55943 14.09018 125.9843 12.99687 126.21304 C 11.9036 126.44177 10.13884 126.75336 9.03331 126.91115 C 7.92778 127.06895 6.14243 127.263 5.02888 127.35042 C 3.91536 127.4378 2.12346 127.5239 1.00758 127.54115 C -.10828 127.55843 -1.89894 127.52791 -3.01367 127.47498 C -4.12839 127.42206 -5.91637 127.28207 -7.02657 127.15967 C -8.13678 127.03726 -9.9151 126.78514 -11.01543 126.59259 C -12.11572 126.40005 -13.87155 126.03452 -14.95692 125.77185 C -16.04231 125.50919 -17.77144 125.02975 -18.83809 124.69939 C -19.90475 124.36902 -21.60048 123.78683 -22.64464 123.39075 C -23.68878 122.99466 -25.34628 122.30473 -26.3636 121.84464 C -27.3809 121.38454 -28.99083 120.59941 -29.97682 120.07469 C -30.96278 119.54997 -32.51973 118.65065 -33.46997 118.06274 C -34.42023 117.47484 -35.91417 116.4825 -36.8256 115.83734 C -37.73708 115.19217 -39.16983 114.11372 -40.03914 113.41273 C -40.90848 112.71175 -42.26764 111.53925 -43.09114 110.78506 C -43.91464 110.03088 -45.20027 108.78165 -45.97444 107.97704 C -46.7486 107.17244 -47.94957 105.83916 -48.67088 104.98604 C -49.39223 104.1329 -50.5073 102.72496 -51.17334 101.8283 C -51.83939 100.9316 -52.8627 99.45938 -53.4714 98.52327 C -54.08011 97.58716 -55.01189 96.054 -55.56056 95.08134 C -56.10922 94.10867 -56.94005 92.51834 -57.42589 91.51291 C -57.91173 90.50748 -58.64099 88.86913 -59.06218 87.83481 C -59.48337 86.80049 -60.10645 85.11691 -60.46165 84.05812 C -60.81685 82.9993 -61.33493 81.28268 -61.62236 80.20355 C -61.90979 79.12439 -62.31421 77.37521 -62.5333 76.28023 C -62.7524 75.18523 -63.05142 73.41791 -63.20157 72.31146 C -63.3517 71.20502 -63.53629 69.41982 -63.6155 68.30574 C -63.69472 67.19164 -63.76425 65.39888 -63.77252 64.28183 C -63.7808 63.16478 -63.73714 61.36993 -63.6752 60.25468 C -63.61327 59.13945 -63.45782 57.35252 -63.32613 56.24376 C -63.19444 55.13498 -62.92699 53.36156 -62.72598 52.26332 C -62.52496 51.16508 -62.14767 49.41188 -61.87735 48.3283 C -61.60701 47.24474 -61.11655 45.51833 -60.77762 44.45364 C -60.4387 43.38898 -59.83951 41.6957 -59.4346 40.65488 C -59.02968 39.61406 -58.32872 37.96503 -57.85928 36.95212 C -57.38983 35.93922 -56.58344 34.33589 -56.05106 33.3545 C -55.51866 32.37311 -54.61557 30.82468 -54.02225 29.87883 C -53.42894 28.93298 -52.42722 27.44434 -51.77477 26.53749 C -51.1223 25.63063 -50.02803 24.20667 -49.31969 23.34276 C -48.61133 22.47884 -47.43071 21.12836 -46.66933 20.31088 C -45.90793 19.49342 -44.6427 18.21835 -43.83209 17.45094 C -43.02145 16.68353 -41.68425 15.49448 -40.82681 14.7798 C -39.96938 14.06514 -38.55429 12.95975 -37.6522 12.30006 C -36.75012 11.64041 -35.26653 10.6265 -34.32512 10.02533 C -33.38368 9.42418 -31.84398 8.50761 -30.86697 7.96732 C -29.88998 7.42703 -28.293 6.60902 -27.2836 6.13121 C -26.27422 5.6534 -24.62944 4.93665 -23.5919 4.52347 C -22.55434 4.11028 -20.86705 3.49992 -19.80547 3.15318 C -18.74387 2.80644 -17.02202 2.3034 -15.9405 2.02426 C -14.85901 1.7451 -13.10777 1.35158 -12.0107 1.14124 C -10.91364 .93088 -9.1413 .6487 -8.0335 .508 C -6.9257 .36731 -5.14064 .19762 -4.02646 .12714 C -2.9123 .05666 -.00323 0 -.00323 0 Z " fill="#cbcbcb"/>
<path transform="matrix(2.7777777,0,0,-2.7777777,245.99721,508.73606)" d="M 42.5202 0 C 42.5202 0 43.47856 .98824 43.83792 1.38388 C 44.19727 1.77951 44.76465 2.43298 45.11023 2.85147 C 45.45581 3.26999 45.99823 3.95937 46.32869 4.40019 C 46.65915 4.84102 47.17812 5.56607 47.492 6.02869 C 47.80588 6.49129 48.29582 7.25093 48.59108 7.7344 C 48.88634 8.21791 49.34471 9.01006 49.62009 9.51344 C 49.89546 10.0168 50.32103 10.83998 50.57579 11.36253 C 50.83054 11.88509 51.22334 12.73883 51.4562 13.27975 C 51.68907 13.8207 52.04468 14.70319 52.25424 15.26122 C 52.46379 15.81924 52.78166 16.72777 52.96663 17.30171 C 53.15161 17.87567 53.42857 18.80966 53.58752 19.39803 C 53.74649 19.98639 53.97992 20.94064 54.11244 21.54233 C 54.24493 22.144 54.43747 23.12062 54.54259 23.73465 C 54.64772 24.34865 54.79335 25.3431 54.87022 25.96783 C 54.94708 26.59256 55.04886 27.60344 55.09666 28.23737 C 55.14445 28.87129 55.19737 29.89561 55.21475 30.53673 C 55.23212 31.17783 55.23512 32.2112 55.2219 32.85815 C 55.20866 33.50513 55.16338 34.54831 55.11937 35.1997 C 55.07536 35.85109 54.97977 36.89857 54.90462 37.55292 C 54.82945 38.20728 54.68436 39.26018 54.57762 39.91588 C 54.47087 40.57158 54.27412 41.62393 54.13515 42.27884 C 53.99615 42.93375 53.74751 43.98386 53.57585 44.63596 C 53.40419 45.28806 53.10136 46.33076 52.89786 46.9788 C 52.69434 47.62683 52.34395 48.66432 52.10892 49.30672 C 51.87389 49.94908 51.47073 50.97397 51.20383 51.60869 C 50.9369 52.24341 50.48413 53.25606 50.1852 53.88144 C 49.88625 54.5068 49.37978 55.50238 49.04913 56.11595 C 48.71849 56.7295 48.16328 57.70282 47.80212 58.30371 C 47.44098 58.90459 46.83725 59.8598 46.44612 60.44673 C 46.05498 61.03366 45.40381 61.96332 44.98306 62.53394 C 44.56233 63.10455 43.86298 64.00662 43.4136 64.55952 C 42.96422 65.11243 42.2216 65.98601 41.74422 66.5189 C 41.26685 67.05182 40.47754 67.88863 39.97298 68.40045 C 39.46841 68.9123 38.63768 69.71797 38.10764 70.20802 C 37.5776 70.69809 36.7074 71.4661 36.15279 71.93256 C 35.59818 72.39905 34.68883 73.12912 34.11035 73.57013 C 33.53189 74.01114 32.58453 74.69708 31.98357 75.11107 C 31.3826 75.52507 30.4006 76.16776 29.77893 76.55403 C 29.15726 76.94028 28.14394 77.53745 27.5029 77.89508 C 26.86186 78.25272 25.81761 78.80379 25.15878 79.13171 C 24.49992 79.45964 23.42935 79.9611 22.7543 80.2587 C 22.07924 80.5563 20.98325 81.01157 20.29335 81.27667 C 19.60344 81.54178 18.4848 81.93736 17.78185 82.16943 C 17.07887 82.40149 15.94122 82.74982 15.22682 82.9493 C 14.51244 83.14877 13.35683 83.4413 12.6329 83.60718 C 11.90898 83.77307 10.74089 84.0132 10.00912 84.14505 C 9.27734 84.27693 8.09647 84.46129 7.35875 84.5577 C 6.62106 84.65411 5.434 84.77892 4.69215 84.83994 C 3.9503 84.90096 2.75575 84.97115 2.01192 84.9976 C 1.26808 85.02405 .0752 85.03932 -.6689 85.03067 C -1.413 85.02205 -2.6076 84.97903 -3.35107 84.9353 C -4.09454 84.89157 -5.28734 84.79439 -6.02737 84.71536 C -6.76743 84.63632 -7.95016 84.47997 -8.6849 84.36565 C -9.41965 84.25134 -10.59499 84.03998 -11.32295 83.89139 C -12.05095 83.74277 -13.21237 83.47719 -13.9318 83.29446 C -14.65123 83.11174 -15.79922 82.79015 -16.50821 82.5743 C -17.21721 82.35844 -18.34508 81.98715 -19.04181 81.73862 C -19.73856 81.4901 -20.8472 81.06451 -21.52998 80.78294 C -22.21277 80.50137 -23.29588 80.02214 -23.96301 79.70915 C -24.63013 79.39615 -25.68819 78.86998 -26.3383 78.52702 C -26.98842 78.18407 -28.01732 77.60925 -28.6487 77.2372 C -29.28009 76.86514 -30.27751 76.24564 -30.88902 75.8455 C -31.50053 75.44539 -32.46632 74.7812 -33.05605 74.35327 C -33.64574 73.92531 -34.57268 73.21504 -35.13936 72.76108 C -35.70604 72.30713 -36.59744 71.55933 -37.14027 71.08133 C -37.68309 70.60333 -38.53424 69.8169 -39.05167 69.31592 C -39.56909 68.81497 -40.37839 67.99344 -40.86963 67.4707 C -41.36089 66.94797 -42.12863 66.09157 -42.59221 65.54831 C -43.0558 65.00505 -43.776 64.11697 -44.21098 63.55516 C -44.64594 62.99335 -45.32144 62.07811 -45.72723 61.4991 C -46.13304 60.92007 -46.75963 59.97627 -47.13579 59.38203 C -47.51198 58.78783 -48.09265 57.82378 -48.4386 57.21634 C -48.78455 56.60887 -49.31438 55.62332 -49.62917 55.00389 C -49.94397 54.38448 -50.4244 53.38211 -50.7075 52.75188 C -50.99059 52.12164 -51.41869 51.10063 -51.66966 50.4616 C -51.92064 49.82253 -52.2969 48.79124 -52.51637 48.146 C -52.73582 47.50073 -53.0637 46.46124 -53.25146 45.81094 C -53.43922 45.16064 -53.71431 44.11266 -53.86977 43.45903 C -54.0252 42.8054 -54.24908 41.75528 -54.37195 41.09995 C -54.49481 40.44461 -54.66473 39.39104 -54.75539 38.73572 C -54.84602 38.08037 -54.96564 37.02972 -55.0253 36.37662 C -55.08499 35.72353 -55.15686 34.6781 -55.18556 34.0286 C -55.21428 33.37912 -55.2345 32.34004 -55.23225 31.6955 C -55.23003 31.05095 -55.2021 30.02083 -55.16933 29.38313 C -55.13657 28.74545 -55.05855 27.72867 -54.9961 27.09937 C -54.93364 26.47005 -54.81017 25.46684 -54.71906 24.84734 C -54.62796 24.22783 -54.4584 23.24234 -54.33951 22.63426 C -54.22061 22.02617 -54.00754 21.05995 -53.86198 20.46465 C -53.71645 19.86935 -53.4626 18.92514 -53.29039 18.3437 C -53.11818 17.76227 -52.81842 16.84013 -52.62082 16.27402 C -52.42323 15.70787 -52.08742 14.81285 -51.86626 14.26335 C -51.64508 13.71388 -51.27055 12.8455 -51.02669 12.31369 C -50.78284 11.78185 -50.37375 10.94331 -50.10864 10.4302 C -49.84354 9.9171 -49.40158 9.10896 -49.11595 8.61546 C -48.83032 8.122 -48.35487 7.34657 -48.04996 6.87344 C -47.74507 6.4003 -47.24074 5.65715 -46.91847 5.20537 C -46.59619 4.75356 -46.06543 4.04683 -45.72723 3.6171 C -45.38904 3.18735 -44.83368 2.51518 -44.4809 2.10794 C -44.12811 1.7007 -43.55048 1.06577 -43.18457 .68187 C -42.81865 .29796 -42.22147 -.29863 -41.84349 -.65915 C -41.4655 -1.01967 -40.84856 -1.5798 -40.46022 -1.91655 C -40.07188 -2.25331 -39.44142 -2.77362 -39.04453 -3.08635 C -38.64764 -3.39906 -38.00383 -3.88184 -37.59964 -4.17052 C -37.19547 -4.4592 -36.54134 -4.9027 -36.13138 -5.16707 C -35.72144 -5.43144 -35.05951 -5.83588 -34.64497 -6.07603 C -34.23044 -6.31621 -33.56104 -6.68196 -33.14362 -6.89809 C -32.72621 -7.11421 -32.05505 -7.44156 -31.63646 -7.63383 C -31.21786 -7.82611 -30.54536 -8.11516 -30.12668 -8.28395 C -29.708 -8.45273 -29.03607 -8.70462 -28.61885 -8.85034 C -28.20163 -8.99608 -27.534 -9.21132 -27.11948 -9.33435 C -26.70493 -9.4574 -26.04176 -9.63626 -25.63109 -9.73727 C -25.22044 -9.83826 -24.56512 -9.98277 -24.1596 -10.06232 C -23.75407 -10.14189 -23.10728 -10.25198 -22.70824 -10.31082 C -22.30919 -10.36969 -21.67467 -10.44768 -21.28343 -10.48663 C -20.89221 -10.52562 -20.27135 -10.57196 -19.88852 -10.59175 C -19.50566 -10.61156 -18.89737 -10.62778 -18.52408 -10.62938 C -18.15076 -10.63101 -17.56049 -10.61902 -17.1979 -10.60344 C -16.8353 -10.58786 -16.26193 -10.54889 -15.91068 -10.51714 C -15.55942 -10.48537 -15.00537 -10.42137 -14.66628 -10.3744 C -14.32716 -10.32742 -13.79274 -10.23949 -13.46661 -10.17847 C -13.14049 -10.11745 -12.62816 -10.0084 -12.31561 -9.93451 C -12.00308 -9.86061 -11.51254 -9.73148 -11.21396 -9.64578 C -10.91537 -9.56009 -10.44756 -9.41307 -10.16354 -9.31685 C -9.87953 -9.22061 -9.43602 -9.05788 -9.16696 -8.95221 C -8.8979 -8.84654 -8.47809 -8.66899 -8.22424 -8.55513 C -7.9704 -8.44128 -7.5756 -8.25217 -7.33734 -8.13148 C -7.09908 -8.01079 -6.72964 -7.81155 -6.50687 -7.68509 C -6.28407 -7.55862 -5.93893 -7.35095 -5.73154 -7.21991 C -5.52415 -7.08885 -5.20374 -6.87474 -5.01201 -6.74043 C -4.82028 -6.60612 -4.52583 -6.38815 -4.34958 -6.25188 C -4.17334 -6.11562 -3.90277 -5.89534 -3.74164 -5.75815 C -3.58052 -5.62097 -3.3343 -5.39992 -3.18822 -5.2631 C -3.0421 -5.12628 -2.82024 -4.90752 -2.68864 -4.77194 C -2.55704 -4.63638 -2.3572 -4.41911 -2.23965 -4.286 C -2.1221 -4.15286 -1.94533 -3.94199 -1.8413 -3.81238 C -1.73723 -3.68277 -1.58064 -3.47691 -1.48964 -3.35172 C -1.39864 -3.22649 -1.26393 -3.02942 -1.18535 -2.90988 C -1.10677 -2.79034 -.9903 -2.60324 -.92323 -2.4901 C -.85617 -2.37694 -.75806 -2.20027 -.70198 -2.09433 C -.6459 -1.98839 -.5652 -1.82457 -.51903 -1.72646 C -.47285 -1.62833 -.40622 -1.4766 -.36914 -1.38712 C -.33206 -1.29764 -.28052 -1.16145 -.25171 -1.08154 C -.22292 -1.0016 -.18312 -.88101 -.16153 -.81097 C -.13992 -.74095 -.11131 -.63644 -.09601 -.57677 C -.08072 -.51709 -.06139 -.42978 -.05122 -.38081 C -.04105 -.33186 -.02878 -.26169 -.02267 -.22383 C -.01656 -.18594 -.01007 -.13396 -.00711 -.10768 C -.00414 -.08142 -.00224 -.04893 -.00127 -.03435 C -.00027 -.01979 -.00014 -.00543 0 -.00256 C .00014 .00027 -.00041 -.00479 0 -.0136 C .00041 -.0224 .00136 -.04573 .00323 -.06616 C .0051 -.0866 .0092 -.12894 .0136 -.16089 C .018 -.19283 .02701 -.25311 .03502 -.29648 C .04301 -.33984 .05875 -.41916 .07133 -.47362 C .08392 -.52806 .10748 -.62411 .12584 -.68901 C .1442 -.7539 .1787 -.8666 .20372 -.94139 C .22871 -1.01619 .27347 -1.14348 .30621 -1.22818 C .33894 -1.31287 .39828 -1.45784 .43987 -1.55191 C .48143 -1.64597 .55493 -1.80403 .60596 -1.90619 C .657 -2.00835 .74626 -2.17859 .80774 -2.28831 C .86922 -2.39804 .97647 -2.5806 1.04912 -2.69708 C 1.12173 -2.81355 1.24673 -3.00555 1.33133 -3.12787 C 1.41594 -3.25018 1.56158 -3.45123 1.65897 -3.5788 C 1.75636 -3.70636 1.92262 -3.91565 2.03334 -4.04724 C 2.14403 -4.17883 2.33252 -4.39296 2.45702 -4.52736 C 2.58148 -4.66176 2.79185 -4.87964 2.93065 -5.01591 C 3.06946 -5.15219 3.30391 -5.37247 3.45747 -5.50964 C 3.61102 -5.64684 3.8689 -5.86778 4.0375 -6.0047 C 4.2061 -6.1416 4.48868 -6.36102 4.67268 -6.49648 C 4.85667 -6.63196 5.16418 -6.84837 5.36366 -6.98114 C 5.56314 -7.11389 5.89539 -7.32468 6.11043 -7.45348 C 6.32549 -7.5823 6.68304 -7.78581 6.91367 -7.90958 C 7.1443 -8.03336 7.52666 -8.22803 7.77267 -8.34558 C 8.0187 -8.46313 8.42543 -8.64693 8.68684 -8.75693 C 8.94826 -8.86693 9.38019 -9.03732 9.65681 -9.13841 C 9.93344 -9.2395 10.38936 -9.39445 10.68065 -9.48553 C 10.97192 -9.57664 11.45074 -9.71501 11.75635 -9.79503 C 12.06195 -9.87505 12.56387 -9.99464 12.88335 -10.06232 C 13.20282 -10.13 13.72629 -10.22882 14.05898 -10.28291 C 14.39168 -10.337 14.9362 -10.41273 15.28133 -10.45226 C 15.62645 -10.49178 16.18959 -10.5439 16.54651 -10.56775 C 16.90343 -10.5916 17.48576 -10.6171 17.85385 -10.62419 C 18.22194 -10.63129 18.8214 -10.62961 19.19946 -10.61902 C 19.57755 -10.6084 20.19157 -10.57689 20.57884 -10.54764 C 20.96611 -10.51837 21.59529 -10.4569 21.99065 -10.40813 C 22.386 -10.35934 23.02602 -10.26508 23.4284 -10.19597 C 23.83078 -10.12685 24.48257 -9.99995 24.89081 -9.90985 C 25.29906 -9.81978 25.9579 -9.65842 26.37073 -9.54651 C 26.78355 -9.43463 27.45009 -9.23767 27.86624 -9.1034 C 28.2824 -8.9691 28.95212 -8.73567 29.37016 -8.57852 C 29.78821 -8.42136 30.46053 -8.15105 30.87929 -7.97055 C 31.29803 -7.79008 31.97018 -7.4818 32.38841 -7.27765 C 32.80664 -7.07349 33.4775 -6.72719 33.89366 -6.49908 C 34.30981 -6.271 34.97539 -5.8858 35.38785 -5.63358 C 35.80031 -5.38136 36.45915 -4.95755 36.86647 -4.68112 C 37.27382 -4.40468 37.92303 -3.94182 38.32372 -3.64108 C 38.72437 -3.34032 39.36147 -2.83823 39.75432 -2.51344 C 40.14717 -2.18866 40.77162 -1.64883 41.1551 -1.30019 C 41.53857 -.95155 42.51823 -.00063 42.51823 -.00063 Z " fill="#ffffff"/>
<path transform="matrix(2.7777777,0,0,-2.7777777,245.99721,508.73606)" stroke-width=".79701" stroke-linecap="butt" stroke-miterlimit="10" stroke-linejoin="miter" fill="none" stroke="#ff0000" d="M 0 0 C 0 0 2.90823 .0561 4.02258 .12651 C 5.13695 .19688 6.92377 .36676 8.03156 .50735 C 9.13934 .64796 10.91017 .92973 12.0068 1.13992 C 13.10341 1.35013 14.85373 1.74316 15.93532 2.02231 C 17.0169 2.30147 18.74045 2.80505 19.80223 3.15189 C 20.864 3.49872 22.55069 4.10915 23.588 4.52216 C 24.62529 4.93517 26.26921 5.65099 27.27843 6.12862 C 28.28764 6.60625 29.88425 7.42424 30.86177 7.96472 C 31.8393 8.50519 33.38222 9.42279 34.3238 10.02403 C 35.26543 10.62527 36.74658 11.63863 37.6483 12.29811 C 38.55002 12.9576 39.96512 14.06253 40.8229 14.77719 C 41.68071 15.49187 43.01988 16.68169 43.83078 17.449 C 44.64168 18.21632 45.90625 19.49034 46.66736 20.30763 C 47.42848 21.12491 48.60799 22.4756 49.31644 23.33951 C 50.02492 24.20343 51.12074 25.6272 51.7735 26.53423 C 52.42622 27.44127 53.42772 28.93114 54.02095 29.87689 C 54.61417 30.82265 55.51692 32.36958 56.0491 33.35062 C 56.58131 34.33163 57.38724 35.93478 57.85669 36.9476 C 58.32613 37.96042 59.02763 39.60953 59.43265 40.65034 C 59.83765 41.69116 60.43675 43.38443 60.77567 44.4491 C 61.1146 45.51378 61.60464 47.23991 61.8754 48.32376 C 62.14616 49.40761 62.52628 51.1626 62.72728 52.26074 C 62.9283 53.35889 63.1925 55.12979 63.3242 56.23856 C 63.45587 57.34732 63.61432 59.13684 63.6765 60.25209 C 63.73868 61.36734 63.78072 63.15958 63.77252 64.27663 C 63.76434 65.39368 63.69656 67.18877 63.61745 68.30313 C 63.53831 69.41748 63.35236 71.20232 63.20222 72.30821 C 63.05208 73.41412 62.7545 75.17918 62.53523 76.27373 C 62.31596 77.36827 61.90915 79.11746 61.62173 80.19707 C 61.33429 81.27667 60.81865 82.9956 60.46361 84.05487 C 60.10857 85.11414 59.48383 86.7968 59.06282 87.83157 C 58.6418 88.86635 57.91487 90.50793 57.42912 91.51291 C 56.94337 92.51788 56.11043 94.10266 55.56186 95.07487 C 55.01329 96.04706 54.08348 97.58301 53.4753 98.52003 C 52.86713 99.45705 51.84438 100.93114 51.17851 101.8283 C 50.51263 102.72542 49.39766 104.13336 48.67607 104.98604 C 47.95447 105.8387 46.75201 107.16919 45.97768 107.97379 C 45.20334 108.7784 43.91864 110.03098 43.09505 110.78506 C 42.27145 111.53915 40.91116 112.70786 40.04175 113.40883 C 39.17235 114.10983 37.7405 115.19217 36.82886 115.83734 C 35.91722 116.4825 34.42152 117.47145 33.47128 118.05884 C 32.52104 118.64622 30.9657 119.54597 29.98006 120.0708 C 28.99442 120.5956 27.38445 121.38078 26.3675 121.8414 C 25.35056 122.30202 23.69461 122.99423 22.65047 123.39075 C 21.60632 123.78728 19.9089 124.36902 18.842 124.69939 C 17.77509 125.02975 16.04646 125.50864 14.9608 125.77185 C 13.87515 126.03506 12.11742 126.40396 11.01738 126.59651 C 9.91734 126.78905 8.14235 127.03778 7.0324 127.15967 C 5.92244 127.28156 4.13254 127.42206 3.01756 127.47498 C 1.9026 127.52791 .11218 127.55843 -1.0037 127.54115 C -2.11957 127.5239 -3.91145 127.4378 -5.025 127.35042 C -6.13852 127.263 -7.92389 127.06895 -9.02942 126.91115 C -10.13495 126.75336 -11.89987 126.44124 -12.99298 126.21304 C -14.08609 125.98485 -15.83115 125.56277 -16.9079 125.26645 C -17.98462 124.97012 -19.69733 124.44084 -20.75336 124.0772 C -21.80939 123.71353 -23.48787 123.07404 -24.51903 122.64526 C -25.55022 122.2165 -27.18346 121.47958 -28.18547 120.9869 C -29.18747 120.49422 -30.77238 119.65092 -31.74092 119.09435 C -32.70946 118.53777 -34.23463 117.59207 -35.16597 116.97534 C -36.09732 116.35861 -37.56256 115.3229 -38.45348 114.64937 C -39.34439 113.97583 -40.74048 112.84877 -41.58719 112.12097 C -42.43391 111.39317 -43.75667 110.18321 -44.55614 109.40375 C -45.3556 108.62427 -46.60118 107.33264 -47.34926 106.50294 C -48.09734 105.67323 -49.25378 104.29916 -49.94775 103.42372 C -50.64171 102.54826 -51.71294 101.10995 -52.3509 100.19328 C -52.98886 99.2766 -53.967 97.77164 -54.54584 96.8169 C -55.12466 95.86217 -56.00514 94.30154 -56.52275 93.31206 C -57.04036 92.32257 -57.82268 90.70596 -58.27646 89.68523 C -58.73024 88.6645 -59.40541 87.00235 -59.79338 85.95523 C -60.18135 84.90811 -60.75185 83.20827 -61.07283 82.13829 C -61.39383 81.0683 -61.85364 79.33139 -62.10703 78.24352 C -62.36041 77.15562 -62.71442 75.39842 -62.89922 74.29745 C -63.084 73.19652 -63.32426 71.41881 -63.43904 70.30861 C -63.55379 69.1984 -63.68262 67.41188 -63.72644 66.29572 C -63.77026 65.17955 -63.78217 63.38127 -63.75499 62.26404 C -63.72781 61.1468 -63.62717 59.35558 -63.53052 58.24338 C -63.43385 57.13118 -63.22433 55.35202 -63.05818 54.24803 C -62.89201 53.14401 -62.56857 51.3779 -62.33281 50.28642 C -62.09705 49.19493 -61.66383 47.45581 -61.35895 46.38124 C -61.05405 45.30667 -60.50777 43.595 -60.1353 42.5416 C -59.7628 41.48819 -59.1115 39.81621 -58.67418 38.78891 C -58.23688 37.76161 -57.48436 36.13504 -56.9834 35.13742 C -56.48244 34.13982 -55.62692 32.5631 -55.06357 31.59882 C -54.50023 30.63452 -53.54646 29.11424 -52.92317 28.1874 C -52.29988 27.26054 -51.25198 25.80443 -50.57124 24.91872 C -49.89052 24.033 -48.75208 22.64476 -48.01689 21.80377 C -47.2817 20.9628 -46.05893 19.65024 -45.27243 18.85754 C -44.48593 18.06483 -43.18275 16.83188 -42.34827 16.09041 C -41.5138 15.3489 -40.13829 14.20091 -39.258 13.51332 C -38.37767 12.82574 -36.9259 11.76547 -36.00357 11.13478 C -35.08124 10.5041 -33.57018 9.53885 -32.6103 8.96777 C -31.65044 8.3967 -30.07918 7.52809 -29.08536 7.01877 C -28.09154 6.50943 -26.47119 5.74234 -25.44748 5.29684 C -24.42377 4.85133 -22.7571 4.1879 -21.7071 3.80783 C -20.65712 3.42778 -18.95192 2.87074 -17.8798 2.55757 C -16.80766 2.2444 -15.06943 1.79547 -13.97983 1.55064 C -12.89024 1.3058 -11.1293 .96835 -10.02664 .79282 C -8.92398 .61728 -7.14432 .39104 -6.03258 .28546 C -4.92084 .17987 -3.12976 .06705 -2.01387 .03178 C -.898 -.00348 .8941 -.00406 2.00998 .03111 C 3.12587 .0663 4.91719 .17987 6.02869 .28546 C 7.14017 .39104 8.91814 .61671 10.0208 .79216 C 11.12346 .96762 12.88606 1.30524 13.97594 1.54997 C 15.0658 1.79472 16.80377 2.24327 17.87589 2.55626 C 18.94803 2.86926 20.65295 3.42572 21.70322 3.80586 C 22.75348 4.18602 24.42157 4.8506 25.44556 5.29617 C 26.46951 5.74178 28.08984 6.50833 29.0834 7.01747 C 30.07693 7.52661 31.64655 8.39478 32.60643 8.96585 C 33.56633 9.53693 35.0793 10.50291 36.00163 11.13351 C 36.92397 11.7641 38.37387 12.82333 39.25409 13.51073 C 40.13431 14.19812 41.51111 15.3464 42.34567 16.0878 C 43.18024 16.8292 44.4826 18.06151 45.2692 18.85431 C 46.05579 19.6471 47.27966 20.96086 48.01494 21.80183 C 48.75023 22.6428 49.888 24.03003 50.56865 24.91547 C 51.2493 25.80092 52.29736 27.25674 52.92058 28.1835 C 53.54378 29.11026 54.497 30.63065 55.06033 31.59494 C 55.62369 32.55922 56.47966 34.136 56.98079 35.13353 C 57.48193 36.13104 58.23466 37.75716 58.67226 38.78438 C 59.10985 39.81157 59.7618 41.48329 60.13466 42.53706 C 60.50749 43.59084 61.05489 45.30472 61.3596 46.37929 C 61.66432 47.45384 62.0953 49.19083 62.33087 50.28188 C 62.56645 51.37294 62.89091 53.13857 63.05754 54.24284 C 63.22415 55.34712 63.43489 57.12822 63.53181 58.24078 C 63.62875 59.35333 63.72928 61.14464 63.75629 62.26144 C 63.78328 63.37823 63.77026 65.17372 63.72644 66.28987 C 63.68262 67.40604 63.55501 69.1958 63.44032 70.30602 C 63.32565 71.41621 63.08458 73.19077 62.89989 74.29163 C 62.71518 75.39249 62.3622 77.15201 62.10898 78.24026 C 61.85574 79.3285 61.39604 81.06506 61.07478 82.13506 C 60.7535 83.20503 60.18163 84.90488 59.79338 85.952 C 59.40514 86.9991 58.73006 88.66168 58.27646 89.68196 C 57.82286 90.70222 57.04166 92.3165 56.52405 93.30556 C 56.00645 94.29462 55.12448 95.85522 54.54584 96.81041 C 53.96718 97.76563 52.99112 99.27293 52.35352 100.19005 C 51.7159 101.10716 50.64447 102.545 49.95032 103.42046 C 49.25618 104.2959 48.09836 105.67 47.35056 106.4997 C 46.60275 107.3294 45.35979 108.62057 44.56068 109.40051 C 43.76158 110.18044 42.43791 111.39272 41.5911 112.12097 C 40.7443 112.84923 39.34836 113.97638 38.45735 114.64937 C 37.56635 115.32236 36.10092 116.35516 35.1692 116.97144 C 34.2375 117.5877 32.71075 118.53448 31.74222 119.0911 C 30.7737 119.64767 29.19034 120.48991 28.1887 120.98302 C 27.18706 121.47615 25.55383 122.2165 24.52295 122.64526 C 23.49203 123.07404 21.8144 123.71014 20.75854 124.07327 C 19.70271 124.43643 17.99 124.96568 16.91309 125.26254 C 15.83617 125.55943 14.09018 125.9843 12.99687 126.21304 C 11.9036 126.44177 10.13884 126.75336 9.03331 126.91115 C 7.92778 127.06895 6.14243 127.263 5.02888 127.35042 C 3.91536 127.4378 2.12346 127.5239 1.00758 127.54115 C -.10828 127.55843 -1.89894 127.52791 -3.01367 127.47498 C -4.12839 127.42206 -5.91637 127.28207 -7.02657 127.15967 C -8.13678 127.03726 -9.9151 126.78514 -11.01543 126.59259 C -12.11572 126.40005 -13.87155 126.03452 -14.95692 125.77185 C -16.04231 125.50919 -17.77144 125.02975 -18.83809 124.69939 C -19.90475 124.36902 -21.60048 123.78683 -22.64464 123.39075 C -23.68878 122.99466 -25.34628 122.30473 -26.3636 121.84464 C -27.3809 121.38454 -28.99083 120.59941 -29.97682 120.07469 C -30.96278 119.54997 -32.51973 118.65065 -33.46997 118.06274 C -34.42023 117.47484 -35.91417 116.4825 -36.8256 115.83734 C -37.73708 115.19217 -39.16983 114.11372 -40.03914 113.41273 C -40.90848 112.71175 -42.26764 111.53925 -43.09114 110.78506 C -43.91464 110.03088 -45.20027 108.78165 -45.97444 107.97704 C -46.7486 107.17244 -47.94957 105.83916 -48.67088 104.98604 C -49.39223 104.1329 -50.5073 102.72496 -51.17334 101.8283 C -51.83939 100.9316 -52.8627 99.45938 -53.4714 98.52327 C -54.08011 97.58716 -55.01189 96.054 -55.56056 95.08134 C -56.10922 94.10867 -56.94005 92.51834 -57.42589 91.51291 C -57.91173 90.50748 -58.64099 88.86913 -59.06218 87.83481 C -59.48337 86.80049 -60.10645 85.11691 -60.46165 84.05812 C -60.81685 82.9993 -61.33493 81.28268 -61.62236 80.20355 C -61.90979 79.12439 -62.31421 77.37521 -62.5333 76.28023 C -62.7524 75.18523 -63.05142 73.41791 -63.20157 72.31146 C -63.3517 71.20502 -63.53629 69.41982 -63.6155 68.30574 C -63.69472 67.19164 -63.76425 65.39888 -63.77252 64.28183 C -63.7808 63.16478 -63.73714 61.36993 -63.6752 60.25468 C -63.61327 59.13945 -63.45782 57.35252 -63.32613 56.24376 C -63.19444 55.13498 -62.92699 53.36156 -62.72598 52.26332 C -62.52496 51.16508 -62.14767 49.41188 -61.87735 48.3283 C -61.60701 47.24474 -61.11655 45.51833 -60.77762 44.45364 C -60.4387 43.38898 -59.83951 41.6957 -59.4346 40.65488 C -59.02968 39.61406 -58.32872 37.96503 -57.85928 36.95212 C -57.38983 35.93922 -56.58344 34.33589 -56.05106 33.3545 C -55.51866 32.37311 -54.61557 30.82468 -54.02225 29.87883 C -53.42894 28.93298 -52.42722 27.44434 -51.77477 26.53749 C -51.1223 25.63063 -50.02803 24.20667 -49.31969 23.34276 C -48.61133 22.47884 -47.43071 21.12836 -46.66933 20.31088 C -45.90793 19.49342 -44.6427 18.21835 -43.83209 17.45094 C -43.02145 16.68353 -41.68425 15.49448 -40.82681 14.7798 C -39.96938 14.06514 -38.55429 12.95975 -37.6522 12.30006 C -36.75012 11.64041 -35.26653 10.6265 -34.32512 10.02533 C -33.38368 9.42418 -31.84398 8.50761 -30.86697 7.96732 C -29.88998 7.42703 -28.293 6.60902 -27.2836 6.13121 C -26.27422 5.6534 -24.62944 4.93665 -23.5919 4.52347 C -22.55434 4.11028 -20.86705 3.49992 -19.80547 3.15318 C -18.74387 2.80644 -17.02202 2.3034 -15.9405 2.02426 C -14.85901 1.7451 -13.10777 1.35158 -12.0107 1.14124 C -10.91364 .93088 -9.1413 .6487 -8.0335 .508 C -6.9257 .36731 -5.14064 .19762 -4.02646 .12714 C -2.9123 .05666 -.00323 0 -.00323 0 "/>
<path transform="matrix(2.7777777,0,0,-2.7777777,245.99721,508.73606)" stroke-width=".79701" stroke-linecap="butt" stroke-miterlimit="10" stroke-linejoin="miter" fill="none" stroke="#0000ff" d="M 42.5202 0 C 42.5202 0 43.47856 .98824 43.83792 1.38388 C 44.19727 1.77951 44.76465 2.43298 45.11023 2.85147 C 45.45581 3.26999 45.99823 3.95937 46.32869 4.40019 C 46.65915 4.84102 47.17812 5.56607 47.492 6.02869 C 47.80588 6.49129 48.29582 7.25093 48.59108 7.7344 C 48.88634 8.21791 49.34471 9.01006 49.62009 9.51344 C 49.89546 10.0168 50.32103 10.83998 50.57579 11.36253 C 50.83054 11.88509 51.22334 12.73883 51.4562 13.27975 C 51.68907 13.8207 52.04468 14.70319 52.25424 15.26122 C 52.46379 15.81924 52.78166 16.72777 52.96663 17.30171 C 53.15161 17.87567 53.42857 18.80966 53.58752 19.39803 C 53.74649 19.98639 53.97992 20.94064 54.11244 21.54233 C 54.24493 22.144 54.43747 23.12062 54.54259 23.73465 C 54.64772 24.34865 54.79335 25.3431 54.87022 25.96783 C 54.94708 26.59256 55.04886 27.60344 55.09666 28.23737 C 55.14445 28.87129 55.19737 29.89561 55.21475 30.53673 C 55.23212 31.17783 55.23512 32.2112 55.2219 32.85815 C 55.20866 33.50513 55.16338 34.54831 55.11937 35.1997 C 55.07536 35.85109 54.97977 36.89857 54.90462 37.55292 C 54.82945 38.20728 54.68436 39.26018 54.57762 39.91588 C 54.47087 40.57158 54.27412 41.62393 54.13515 42.27884 C 53.99615 42.93375 53.74751 43.98386 53.57585 44.63596 C 53.40419 45.28806 53.10136 46.33076 52.89786 46.9788 C 52.69434 47.62683 52.34395 48.66432 52.10892 49.30672 C 51.87389 49.94908 51.47073 50.97397 51.20383 51.60869 C 50.9369 52.24341 50.48413 53.25606 50.1852 53.88144 C 49.88625 54.5068 49.37978 55.50238 49.04913 56.11595 C 48.71849 56.7295 48.16328 57.70282 47.80212 58.30371 C 47.44098 58.90459 46.83725 59.8598 46.44612 60.44673 C 46.05498 61.03366 45.40381 61.96332 44.98306 62.53394 C 44.56233 63.10455 43.86298 64.00662 43.4136 64.55952 C 42.96422 65.11243 42.2216 65.98601 41.74422 66.5189 C 41.26685 67.05182 40.47754 67.88863 39.97298 68.40045 C 39.46841 68.9123 38.63768 69.71797 38.10764 70.20802 C 37.5776 70.69809 36.7074 71.4661 36.15279 71.93256 C 35.59818 72.39905 34.68883 73.12912 34.11035 73.57013 C 33.53189 74.01114 32.58453 74.69708 31.98357 75.11107 C 31.3826 75.52507 30.4006 76.16776 29.77893 76.55403 C 29.15726 76.94028 28.14394 77.53745 27.5029 77.89508 C 26.86186 78.25272 25.81761 78.80379 25.15878 79.13171 C 24.49992 79.45964 23.42935 79.9611 22.7543 80.2587 C 22.07924 80.5563 20.98325 81.01157 20.29335 81.27667 C 19.60344 81.54178 18.4848 81.93736 17.78185 82.16943 C 17.07887 82.40149 15.94122 82.74982 15.22682 82.9493 C 14.51244 83.14877 13.35683 83.4413 12.6329 83.60718 C 11.90898 83.77307 10.74089 84.0132 10.00912 84.14505 C 9.27734 84.27693 8.09647 84.46129 7.35875 84.5577 C 6.62106 84.65411 5.434 84.77892 4.69215 84.83994 C 3.9503 84.90096 2.75575 84.97115 2.01192 84.9976 C 1.26808 85.02405 .0752 85.03932 -.6689 85.03067 C -1.413 85.02205 -2.6076 84.97903 -3.35107 84.9353 C -4.09454 84.89157 -5.28734 84.79439 -6.02737 84.71536 C -6.76743 84.63632 -7.95016 84.47997 -8.6849 84.36565 C -9.41965 84.25134 -10.59499 84.03998 -11.32295 83.89139 C -12.05095 83.74277 -13.21237 83.47719 -13.9318 83.29446 C -14.65123 83.11174 -15.79922 82.79015 -16.50821 82.5743 C -17.21721 82.35844 -18.34508 81.98715 -19.04181 81.73862 C -19.73856 81.4901 -20.8472 81.06451 -21.52998 80.78294 C -22.21277 80.50137 -23.29588 80.02214 -23.96301 79.70915 C -24.63013 79.39615 -25.68819 78.86998 -26.3383 78.52702 C -26.98842 78.18407 -28.01732 77.60925 -28.6487 77.2372 C -29.28009 76.86514 -30.27751 76.24564 -30.88902 75.8455 C -31.50053 75.44539 -32.46632 74.7812 -33.05605 74.35327 C -33.64574 73.92531 -34.57268 73.21504 -35.13936 72.76108 C -35.70604 72.30713 -36.59744 71.55933 -37.14027 71.08133 C -37.68309 70.60333 -38.53424 69.8169 -39.05167 69.31592 C -39.56909 68.81497 -40.37839 67.99344 -40.86963 67.4707 C -41.36089 66.94797 -42.12863 66.09157 -42.59221 65.54831 C -43.0558 65.00505 -43.776 64.11697 -44.21098 63.55516 C -44.64594 62.99335 -45.32144 62.07811 -45.72723 61.4991 C -46.13304 60.92007 -46.75963 59.97627 -47.13579 59.38203 C -47.51198 58.78783 -48.09265 57.82378 -48.4386 57.21634 C -48.78455 56.60887 -49.31438 55.62332 -49.62917 55.00389 C -49.94397 54.38448 -50.4244 53.38211 -50.7075 52.75188 C -50.99059 52.12164 -51.41869 51.10063 -51.66966 50.4616 C -51.92064 49.82253 -52.2969 48.79124 -52.51637 48.146 C -52.73582 47.50073 -53.0637 46.46124 -53.25146 45.81094 C -53.43922 45.16064 -53.71431 44.11266 -53.86977 43.45903 C -54.0252 42.8054 -54.24908 41.75528 -54.37195 41.09995 C -54.49481 40.44461 -54.66473 39.39104 -54.75539 38.73572 C -54.84602 38.08037 -54.96564 37.02972 -55.0253 36.37662 C -55.08499 35.72353 -55.15686 34.6781 -55.18556 34.0286 C -55.21428 33.37912 -55.2345 32.34004 -55.23225 31.6955 C -55.23003 31.05095 -55.2021 30.02083 -55.16933 29.38313 C -55.13657 28.74545 -55.05855 27.72867 -54.9961 27.09937 C -54.93364 26.47005 -54.81017 25.46684 -54.71906 24.84734 C -54.62796 24.22783 -54.4584 23.24234 -54.33951 22.63426 C -54.22061 22.02617 -54.00754 21.05995 -53.86198 20.46465 C -53.71645 19.86935 -53.4626 18.92514 -53.29039 18.3437 C -53.11818 17.76227 -52.81842 16.84013 -52.62082 16.27402 C -52.42323 15.70787 -52.08742 14.81285 -51.86626 14.26335 C -51.64508 13.71388 -51.27055 12.8455 -51.02669 12.31369 C -50.78284 11.78185 -50.37375 10.94331 -50.10864 10.4302 C -49.84354 9.9171 -49.40158 9.10896 -49.11595 8.61546 C -48.83032 8.122 -48.35487 7.34657 -48.04996 6.87344 C -47.74507 6.4003 -47.24074 5.65715 -46.91847 5.20537 C -46.59619 4.75356 -46.06543 4.04683 -45.72723 3.6171 C -45.38904 3.18735 -44.83368 2.51518 -44.4809 2.10794 C -44.12811 1.7007 -43.55048 1.06577 -43.18457 .68187 C -42.81865 .29796 -42.22147 -.29863 -41.84349 -.65915 C -41.4655 -1.01967 -40.84856 -1.5798 -40.46022 -1.91655 C -40.07188 -2.25331 -39.44142 -2.77362 -39.04453 -3.08635 C -38.64764 -3.39906 -38.00383 -3.88184 -37.59964 -4.17052 C -37.19547 -4.4592 -36.54134 -4.9027 -36.13138 -5.16707 C -35.72144 -5.43144 -35.05951 -5.83588 -34.64497 -6.07603 C -34.23044 -6.31621 -33.56104 -6.68196 -33.14362 -6.89809 C -32.72621 -7.11421 -32.05505 -7.44156 -31.63646 -7.63383 C -31.21786 -7.82611 -30.54536 -8.11516 -30.12668 -8.28395 C -29.708 -8.45273 -29.03607 -8.70462 -28.61885 -8.85034 C -28.20163 -8.99608 -27.534 -9.21132 -27.11948 -9.33435 C -26.70493 -9.4574 -26.04176 -9.63626 -25.63109 -9.73727 C -25.22044 -9.83826 -24.56512 -9.98277 -24.1596 -10.06232 C -23.75407 -10.14189 -23.10728 -10.25198 -22.70824 -10.31082 C -22.30919 -10.36969 -21.67467 -10.44768 -21.28343 -10.48663 C -20.89221 -10.52562 -20.27135 -10.57196 -19.88852 -10.59175 C -19.50566 -10.61156 -18.89737 -10.62778 -18.52408 -10.62938 C -18.15076 -10.63101 -17.56049 -10.61902 -17.1979 -10.60344 C -16.8353 -10.58786 -16.26193 -10.54889 -15.91068 -10.51714 C -15.55942 -10.48537 -15.00537 -10.42137 -14.66628 -10.3744 C -14.32716 -10.32742 -13.79274 -10.23949 -13.46661 -10.17847 C -13.14049 -10.11745 -12.62816 -10.0084 -12.31561 -9.93451 C -12.00308 -9.86061 -11.51254 -9.73148 -11.21396 -9.64578 C -10.91537 -9.56009 -10.44756 -9.41307 -10.16354 -9.31685 C -9.87953 -9.22061 -9.43602 -9.05788 -9.16696 -8.95221 C -8.8979 -8.84654 -8.47809 -8.66899 -8.22424 -8.55513 C -7.9704 -8.44128 -7.5756 -8.25217 -7.33734 -8.13148 C -7.09908 -8.01079 -6.72964 -7.81155 -6.50687 -7.68509 C -6.28407 -7.55862 -5.93893 -7.35095 -5.73154 -7.21991 C -5.52415 -7.08885 -5.20374 -6.87474 -5.01201 -6.74043 C -4.82028 -6.60612 -4.52583 -6.38815 -4.34958 -6.25188 C -4.17334 -6.11562 -3.90277 -5.89534 -3.74164 -5.75815 C -3.58052 -5.62097 -3.3343 -5.39992 -3.18822 -5.2631 C -3.0421 -5.12628 -2.82024 -4.90752 -2.68864 -4.77194 C -2.55704 -4.63638 -2.3572 -4.41911 -2.23965 -4.286 C -2.1221 -4.15286 -1.94533 -3.94199 -1.8413 -3.81238 C -1.73723 -3.68277 -1.58064 -3.47691 -1.48964 -3.35172 C -1.39864 -3.22649 -1.26393 -3.02942 -1.18535 -2.90988 C -1.10677 -2.79034 -.9903 -2.60324 -.92323 -2.4901 C -.85617 -2.37694 -.75806 -2.20027 -.70198 -2.09433 C -.6459 -1.98839 -.5652 -1.82457 -.51903 -1.72646 C -.47285 -1.62833 -.40622 -1.4766 -.36914 -1.38712 C -.33206 -1.29764 -.28052 -1.16145 -.25171 -1.08154 C -.22292 -1.0016 -.18312 -.88101 -.16153 -.81097 C -.13992 -.74095 -.11131 -.63644 -.09601 -.57677 C -.08072 -.51709 -.06139 -.42978 -.05122 -.38081 C -.04105 -.33186 -.02878 -.26169 -.02267 -.22383 C -.01656 -.18594 -.01007 -.13396 -.00711 -.10768 C -.00414 -.08142 -.00224 -.04893 -.00127 -.03435 C -.00027 -.01979 -.00014 -.00543 0 -.00256 C .00014 .00027 -.00041 -.00479 0 -.0136 C .00041 -.0224 .00136 -.04573 .00323 -.06616 C .0051 -.0866 .0092 -.12894 .0136 -.16089 C .018 -.19283 .02701 -.25311 .03502 -.29648 C .04301 -.33984 .05875 -.41916 .07133 -.47362 C .08392 -.52806 .10748 -.62411 .12584 -.68901 C .1442 -.7539 .1787 -.8666 .20372 -.94139 C .22871 -1.01619 .27347 -1.14348 .30621 -1.22818 C .33894 -1.31287 .39828 -1.45784 .43987 -1.55191 C .48143 -1.64597 .55493 -1.80403 .60596 -1.90619 C .657 -2.00835 .74626 -2.17859 .80774 -2.28831 C .86922 -2.39804 .97647 -2.5806 1.04912 -2.69708 C 1.12173 -2.81355 1.24673 -3.00555 1.33133 -3.12787 C 1.41594 -3.25018 1.56158 -3.45123 1.65897 -3.5788 C 1.75636 -3.70636 1.92262 -3.91565 2.03334 -4.04724 C 2.14403 -4.17883 2.33252 -4.39296 2.45702 -4.52736 C 2.58148 -4.66176 2.79185 -4.87964 2.93065 -5.01591 C 3.06946 -5.15219 3.30391 -5.37247 3.45747 -5.50964 C 3.61102 -5.64684 3.8689 -5.86778 4.0375 -6.0047 C 4.2061 -6.1416 4.48868 -6.36102 4.67268 -6.49648 C 4.85667 -6.63196 5.16418 -6.84837 5.36366 -6.98114 C 5.56314 -7.11389 5.89539 -7.32468 6.11043 -7.45348 C 6.32549 -7.5823 6.68304 -7.78581 6.91367 -7.90958 C 7.1443 -8.03336 7.52666 -8.22803 7.77267 -8.34558 C 8.0187 -8.46313 8.42543 -8.64693 8.68684 -8.75693 C 8.94826 -8.86693 9.38019 -9.03732 9.65681 -9.13841 C 9.93344 -9.2395 10.38936 -9.39445 10.68065 -9.48553 C 10.97192 -9.57664 11.45074 -9.71501 11.75635 -9.79503 C 12.06195 -9.87505 12.56387 -9.99464 12.88335 -10.06232 C 13.20282 -10.13 13.72629 -10.22882 14.05898 -10.28291 C 14.39168 -10.337 14.9362 -10.41273 15.28133 -10.45226 C 15.62645 -10.49178 16.18959 -10.5439 16.54651 -10.56775 C 16.90343 -10.5916 17.48576 -10.6171 17.85385 -10.62419 C 18.22194 -10.63129 18.8214 -10.62961 19.19946 -10.61902 C 19.57755 -10.6084 20.19157 -10.57689 20.57884 -10.54764 C 20.96611 -10.51837 21.59529 -10.4569 21.99065 -10.40813 C 22.386 -10.35934 23.02602 -10.26508 23.4284 -10.19597 C 23.83078 -10.12685 24.48257 -9.99995 24.89081 -9.90985 C 25.29906 -9.81978 25.9579 -9.65842 26.37073 -9.54651 C 26.78355 -9.43463 27.45009 -9.23767 27.86624 -9.1034 C 28.2824 -8.9691 28.95212 -8.73567 29.37016 -8.57852 C 29.78821 -8.42136 30.46053 -8.15105 30.87929 -7.97055 C 31.29803 -7.79008 31.97018 -7.4818 32.38841 -7.27765 C 32.80664 -7.07349 33.4775 -6.72719 33.89366 -6.49908 C 34.30981 -6.271 34.97539 -5.8858 35.38785 -5.63358 C 35.80031 -5.38136 36.45915 -4.95755 36.86647 -4.68112 C 37.27382 -4.40468 37.92303 -3.94182 38.32372 -3.64108 C 38.72437 -3.34032 39.36147 -2.83823 39.75432 -2.51344 C 40.14717 -2.18866 40.77162 -1.64883 41.1551 -1.30019 C 41.53857 -.95155 42.51823 -.00063 42.51823 -.00063 "/>
<path transform="matrix(2.7777777,0,0,-2.7777777,245.99721,508.73606)" stroke-width=".3985" stroke-linecap="butt" stroke-miterlimit="10" stroke-linejoin="miter" fill="none" stroke="#000000" d="M -85.04042 0 L 84.58214 0 "/>
<path transform="matrix(2.7777777,0,0,-2.7777777,480.9476,508.73606)" stroke-width=".31879" stroke-linecap="round" stroke-linejoin="round" fill="none" stroke="#000000" d="M -1.19551 1.59401 C -1.09587 .99626 0 .09961 .29886 0 C 0 -.09961 -1.09587 -.99626 -1.19551 -1.59401 "/>
<symbol id="font_0_5">
<path d="M .305 .31300003 C .311 .33900003 .334 .43100003 .404 .43100003 C .409 .43100003 .433 .43100003 .454 .418 C .426 .41300003 .40600003 .388 .40600003 .36400003 C .40600003 .34800003 .417 .32900004 .444 .32900004 C .46600003 .32900004 .498 .34700004 .498 .38700003 C .498 .43900005 .439 .45300005 .405 .45300005 C .347 .45300005 .312 .40000005 .3 .37700004 C .275 .44300003 .221 .45300005 .19200002 .45300005 C .08800001 .45300005 .031000002 .32400004 .031000002 .29900003 C .031000002 .28900004 .041 .28900004 .043000007 .28900004 C .051000008 .28900004 .054000006 .291 .056 .3 C .09 .40600003 .156 .43100003 .19000001 .43100003 C .209 .43100003 .244 .42200003 .244 .36400003 C .244 .33300004 .22700002 .26600004 .19000001 .126 C .17400001 .064 .13900002 .022000002 .095000009 .022000002 C .08900001 .022000002 .06600001 .022000002 .045 .035 C .07000001 .040000004 .09200001 .061 .09200001 .089 C .09200001 .116000007 .07000001 .124000009 .055000009 .124000009 C .025 .124000009 0 .098000008 0 .06600001 C 0 .020000002 .050000006 0 .094000007 0 C .16000001 0 .19600001 .07000001 .19900002 .076000008 C .21100001 .039 .24700003 0 .307 0 C .41 0 .467 .12900001 .467 .15400002 C .467 .16400002 .458 .16400002 .455 .16400002 C .446 .16400002 .444 .16000001 .442 .15300001 C .409 .046 .341 .022000002 .30900003 .022000002 C .27 .022000002 .254 .054 .254 .08800001 C .254 .11000001 .26 .13200002 .271 .17600002 L .305 .31300003 Z "/>
</symbol>
<use xlink:href="#font_0_5" transform="matrix(27.673888,0,0,-27.673888,492.79975,514.9988)"/>
<path transform="matrix(2.7777777,0,0,-2.7777777,245.99721,508.73606)" stroke-width=".3985" stroke-linecap="butt" stroke-miterlimit="10" stroke-linejoin="miter" fill="none" stroke="#000000" d="M 0 -42.5202 L 0 169.62258 "/>
<path transform="matrix(0,-2.7777777,-2.7777777,-0,245.99721,37.562265)" stroke-width=".31879" stroke-linecap="round" stroke-linejoin="round" fill="none" stroke="#000000" d="M -1.19551 1.59401 C -1.09587 .99626 0 .09961 .29886 0 C 0 -.09961 -1.09587 -.99626 -1.19551 -1.59401 "/>
<symbol id="font_0_6">
<path d="M .45700003 .586 C .461 .6 .461 .602 .461 .609 C .461 .62700006 .447 .63600006 .432 .63600006 C .42200003 .63600006 .40600003 .63 .397 .615 C .395 .61 .387 .579 .38300003 .561 C .37600003 .535 .36900003 .508 .363 .48100005 L .318 .301 C .314 .286 .271 .21600002 .20500002 .21600002 C .15400002 .21600002 .143 .26000003 .143 .29700003 C .143 .34300003 .16000001 .40500004 .194 .49300004 C .21000001 .53400006 .21400002 .545 .21400002 .56500008 C .21400002 .61 .18200001 .6470001 .13200002 .6470001 C .037 .6470001 0 .50200006 0 .49300004 C 0 .48300005 .01 .48300005 .012 .48300005 C .022000002 .48300005 .023 .485 .028000003 .50100007 C .055000009 .595 .095000009 .625 .12900001 .625 C .13700001 .625 .15400002 .625 .15400002 .59300008 C .15400002 .568 .14400001 .54200008 .13700001 .523 C .097 .41700004 .079 .36 .079 .31300003 C .079 .224 .142 .194 .201 .194 C .24000003 .194 .274 .21100001 .30200003 .23900002 C .289 .187 .277 .13800001 .237 .08500001 C .21100001 .051 .17300001 .022 .127 .022 C .113000009 .022 .068 .025000006 .051000008 .06400001 C .067 .06400001 .080000009 .06400001 .094000007 .076000008 C .104 .08500001 .11400001 .098000008 .11400001 .117000009 C .11400001 .148 .087000008 .15200001 .07700001 .15200001 C .054000006 .15200001 .021 .136 .021 .087000008 C .021 .037 .065000008 0 .127 0 C .23 0 .333 .091000009 .361 .20400001 L .45700003 .586 Z "/>
</symbol>
<use xlink:href="#font_0_6" transform="matrix(27.673888,0,0,-27.673888,239.5192,26.809256)"/>
<symbol id="font_0_4">
<path d="M .059000009 .07000001 C .056 .055000005 .050000006 .032 .050000006 .027000003 C .050000006 .009000001 .064 0 .079 0 C .091000009 0 .10900001 .008000001 .11600001 .028 C .118 .032 .15200001 .16800002 .156 .18600002 C .164 .21900001 .18200001 .28900004 .18800001 .316 C .19200002 .32900004 .22000002 .37600003 .244 .39800004 C .252 .40500004 .281 .43100003 .324 .43100003 C .35 .43100003 .365 .41900004 .366 .41900004 C .336 .41400004 .314 .39000003 .314 .36400003 C .314 .34800003 .325 .32900004 .352 .32900004 C .379 .32900004 .407 .35200004 .407 .388 C .407 .42300005 .375 .45300005 .324 .45300005 C .259 .45300005 .21500002 .404 .19600001 .37600003 C .18800001 .42100004 .15200001 .45300005 .105000007 .45300005 C .059000009 .45300005 .040000008 .41400004 .031000002 .39600004 C .013000002 .36200003 0 .30200003 0 .29900003 C 0 .28900004 .01 .28900004 .012 .28900004 C .022000002 .28900004 .023 .29000003 .029000001 .31200005 C .046000005 .38300003 .06600001 .43100003 .10200001 .43100003 C .119 .43100003 .133 .42300005 .133 .38500003 C .133 .36400003 .13000001 .35300002 .11700001 .30100004 L .059000009 .07000001 Z "/>
</symbol>
<use xlink:href="#font_0_4" transform="matrix(27.673888,0,0,-27.673888,414.08589,247.21826)"/>
<symbol id="font_1_5">
<path d="M .63100007 .19400002 C .646 .19400002 .665 .19400002 .665 .214 C .665 .23400001 .646 .23400001 .632 .23400001 L .033 .23400001 C .019000002 .23400001 0 .23400001 0 .214 C 0 .19400002 .019000002 .19400002 .034 .19400002 L .63100007 .19400002 M .632 0 C .646 0 .665 0 .665 .02000001 C .665 .040000008 .646 .040000008 .63100007 .040000008 L .034 .040000008 C .019000002 .040000008 0 .040000008 0 .02000001 C 0 0 .019000002 0 .033 0 L .632 0 Z "/>
</symbol>
<symbol id="font_1_3">
<path d="M .24800003 .37400005 C .33 .40100003 .388 .47100006 .388 .55 C .388 .632 .3 .688 .204 .688 C .10300001 .688 .027000003 .628 .027000003 .55200007 C .027000003 .519 .049000004 .5 .078 .5 C .109000008 .5 .12900001 .522 .12900001 .55100008 C .12900001 .6010001 .082 .6010001 .067 .6010001 C .098 .65000006 .164 .66300007 .20000002 .66300007 C .24100003 .66300007 .29600004 .64100006 .29600004 .55100008 C .29600004 .53900006 .29400004 .48100005 .268 .43700005 C .238 .38900004 .204 .38600005 .17900002 .38500003 C .171 .38400004 .14700002 .38200004 .14000002 .38200004 C .132 .38100005 .125 .38000003 .125 .37000004 C .125 .35900004 .132 .35900004 .14900002 .35900004 L .19300002 .35900004 C .275 .35900004 .312 .29100005 .312 .193 C .312 .057000005 .24300003 .028 .199 .028 C .15600002 .028 .081 .045 .046000005 .104 C .081 .09900001 .11200001 .12100001 .11200001 .15900001 C .11200001 .19500001 .085 .215 .056 .215 C .031999999 .215 0 .201 0 .157 C 0 .06600001 .093 0 .20200002 0 C .32400004 0 .41500003 .091000009 .41500003 .193 C .41500003 .27500005 .35200004 .35300005 .24800003 .37400005 Z "/>
</symbol>
<symbol id="font_1_8">
<path d="M .17500001 .20500002 C .197 .20100002 .279 .18500002 .279 .113000009 C .279 .062000004 .24400002 .022000002 .16600001 .022000002 C .082 .022000002 .046000005 .079 .027000003 .16400002 C .024000004 .17700002 .023000002 .18100001 .013000004 .18100001 C 0 .18100001 0 .17400001 0 .15600002 L 0 .024 C 0 .0070000009 0 0 .011000004 0 C .016000003 0 .017 .0010000002 .036000007 .020000002 C .038000004 .022000002 .038000004 .024 .056 .043 C .1 .0010000002 .14500001 0 .16600001 0 C .28100003 0 .32700003 .067 .32700003 .13900002 C .32700003 .19200002 .29700003 .22200002 .28500004 .23400001 C .25200004 .26600004 .213 .27400003 .171 .28200004 C .115 .293 .048 .30600003 .048 .36400003 C .048 .39900003 .07400001 .44000004 .16 .44000004 C .27 .44000004 .27500005 .35000003 .277 .31900005 C .27800004 .31000004 .28700004 .31000004 .28900004 .31000004 C .30200003 .31000004 .30200003 .31500004 .30200003 .33400003 L .30200003 .43500004 C .30200003 .45200003 .30200003 .45900003 .291 .45900003 C .286 .45900003 .284 .45900003 .27100004 .44700004 C .26800005 .44300003 .25800003 .43400003 .254 .43100003 C .21600002 .45900003 .17500001 .45900003 .16 .45900003 C .038000004 .45900003 0 .39200003 0 .33600004 C 0 .30100004 .016000003 .27300004 .043000007 .25100003 C .075 .22500003 .10300001 .21900001 .17500001 .20500002 Z "/>
</symbol>
<symbol id="font_1_6">
<path d="M .144 .44200004 L .0040000008 .43100003 L .0040000008 .4 C .069000009 .4 .07800001 .39400003 .07800001 .34500004 L .07800001 .076000008 C .07800001 .031000002 .067 .031000002 0 .031000002 L 0 0 C .032000007 .001 .086 .003 .11000001 .003 C .14500001 .003 .18 .001 .21400002 0 L .21400002 .031000002 C .148 .031000002 .144 .036000004 .144 .075 L .144 .44200004 M .148 .61600008 C .148 .648 .123 .669 .095000009 .669 C .064 .669 .042000005 .642 .042000005 .61600008 C .042000005 .58900007 .064 .563 .095000009 .563 C .123 .563 .148 .58400008 .148 .61600008 Z "/>
</symbol>
<symbol id="font_1_7">
<path d="M .07800001 .344 L .07800001 .076000008 C .07800001 .031000002 .067 .031000002 0 .031000002 L 0 0 C .035 .001 .08600001 .003 .113000009 .003 C .139 .003 .191 .001 .225 0 L .225 .031000002 C .158 .031000002 .147 .031000002 .147 .076000008 L .147 .26000003 C .147 .36400003 .218 .42000003 .282 .42000003 C .345 .42000003 .356 .36600004 .356 .30900003 L .356 .076000008 C .356 .031000002 .345 .031000002 .278 .031000002 L .278 0 C .31300003 .001 .36400003 .003 .391 .003 C .41700004 .003 .46900005 .001 .503 0 L .503 .031000002 C .451 .031000002 .42600004 .031000002 .425 .061000006 L .425 .252 C .425 .33800004 .425 .36900003 .39400003 .40500004 C .38000003 .42200003 .347 .44200004 .289 .44200004 C .216 .44200004 .169 .39900003 .141 .337 L .141 .44200004 L 0 .43100003 L 0 .4 C .07000001 .4 .07800001 .393 .07800001 .344 Z "/>
</symbol>
<use xlink:href="#font_1_5" transform="matrix(27.673888,0,0,-27.673888,435.77473,243.23322)"/>
<use xlink:href="#font_1_3" transform="matrix(27.673888,0,0,-27.673888,464.6109,247.52268)"/>
<use xlink:href="#font_1_8" transform="matrix(27.673888,0,0,-27.673888,482.79264,247.21826)"/>
<use xlink:href="#font_1_6" transform="matrix(27.673888,0,0,-27.673888,493.69615,246.91385)"/>
<use xlink:href="#font_1_7" transform="matrix(27.673888,0,0,-27.673888,501.36183,246.91385)"/>
<symbol id="font_0_1">
<path d="M .41300003 .511 C .41300003 .577 .395 .716 .293 .716 C .15400002 .716 0 .43400003 0 .20500002 C 0 .111 .029 0 .12 0 C .261 0 .41300003 .28700004 .41300003 .511 M .106 .374 C .123 .43800003 .143 .518 .183 .589 C .21000001 .638 .24700001 .694 .29200004 .694 C .34100003 .694 .34700004 .63 .34700004 .573 C .34700004 .524 .33900003 .47300003 .31500004 .374 L .106 .374 M .30600003 .34200005 C .29500003 .29600004 .27400003 .21100001 .23600003 .13900002 C .201 .071 .16300002 .022000002 .12 .022000002 C .087000008 .022000002 .066 .051000004 .066 .14400001 C .066 .18600002 .072000008 .24400002 .098 .34200005 L .30600003 .34200005 Z "/>
</symbol>
<use xlink:href="#font_0_1" transform="matrix(27.673888,0,0,-27.673888,521.63729,247.21826)"/>
<use xlink:href="#font_0_4" transform="matrix(27.673888,0,0,-27.673888,60.73309,557.89328)"/>
<symbol id="font_1_2">
<path d="M .205 .64000007 C .205 .66400006 .205 .666 .18200003 .666 C .120000008 .60200008 .032000007 .60200008 0 .60200008 L 0 .57100006 C .020000004 .57100006 .07900001 .57100006 .13100001 .597 L .13100001 .079 C .13100001 .043 .128 .031000002 .038000004 .031000002 L .0060000049 .031000002 L .0060000049 0 C .04100001 .003 .128 .003 .168 .003 C .20800002 .003 .29500003 .003 .33000005 0 L .33000005 .031000002 L .29800005 .031000002 C .20800002 .031000002 .205 .042000005 .205 .079 L .205 .64000007 Z "/>
</symbol>
<symbol id="font_1_1">
<path d="M .35300002 .31300003 L .632 .31300003 C .646 .31300003 .665 .31300003 .665 .333 C .665 .35300002 .646 .35300002 .632 .35300002 L .35300002 .35300002 L .35300002 .633 C .35300002 .647 .35300002 .666 .33300004 .666 C .31300003 .666 .31300003 .647 .31300003 .633 L .31300003 .35300002 L .033 .35300002 C .019000002 .35300002 0 .35300002 0 .333 C 0 .31300003 .019000002 .31300003 .033 .31300003 L .31300003 .31300003 L .31300003 .033000005 C .31300003 .019000002 .31300003 0 .33300004 0 C .35300002 0 .35300002 .019000002 .35300002 .033000005 L .35300002 .31300003 Z "/>
</symbol>
<use xlink:href="#font_1_5" transform="matrix(27.673888,0,0,-27.673888,82.419178,553.90829)"/>
<use xlink:href="#font_1_2" transform="matrix(27.673888,0,0,-27.673888,112.55604,557.58889)"/>
<use xlink:href="#font_1_1" transform="matrix(27.673888,0,0,-27.673888,131.62335,559.8858)"/>
<use xlink:href="#font_1_8" transform="matrix(27.673888,0,0,-27.673888,158.66074,557.89328)"/>
<use xlink:href="#font_1_6" transform="matrix(27.673888,0,0,-27.673888,169.56424,557.58889)"/>
<use xlink:href="#font_1_7" transform="matrix(27.673888,0,0,-27.673888,177.2299,557.58889)"/>
<use xlink:href="#font_0_1" transform="matrix(27.673888,0,0,-27.673888,197.49562,557.89328)"/>
<path transform="matrix(2.7777777,0,0,-2.7777777,245.99721,508.73606)" stroke-width=".3985" stroke-linecap="butt" stroke-miterlimit="10" stroke-linejoin="miter" fill="none" stroke="#000000" d="M 0 0 L 92.05919 53.15024 "/>
<use xlink:href="#font_0_1" transform="matrix(27.673888,0,0,-27.673888,455.32615,344.70713)"/>
<use xlink:href="#font_1_5" transform="matrix(27.673888,0,0,-27.673888,477.1608,340.72209)"/>
<symbol id="font_0_2">
<path d="M .23800002 .38400004 L .351 .38400004 C .31800003 .23600002 .30900003 .19300002 .30900003 .126 C .30900003 .111 .30900003 .08400001 .317 .05 C .327 .0060000007 .338 0 .35300002 0 C .373 0 .39400003 .018000002 .39400003 .038000004 C .39400003 .044 .39400003 .046 .388 .060000004 C .359 .13200002 .359 .19700001 .359 .22500003 C .359 .27800004 .366 .33200003 .377 .38400004 L .491 .38400004 C .504 .38400004 .54 .38400004 .54 .418 C .54 .44200004 .519 .44200004 .5 .44200004 L .165 .44200004 C .143 .44200004 .105 .44200004 .061000006 .395 C .026000003 .35600005 0 .31000004 0 .305 C 0 .30400003 0 .29500003 .012 .29500003 C .020000002 .29500003 .022000002 .29900003 .028000003 .307 C .077 .38400004 .135 .38400004 .15500002 .38400004 L .21200001 .38400004 C .18000002 .263 .12600002 .14200002 .08400001 .051000004 C .076000008 .036000004 .076000008 .034 .076000008 .027000003 C .076000008 .008000001 .092 0 .105 0 C .135 0 .143 .028 .15500002 .065000008 C .16900002 .111 .16900002 .113000009 .18200001 .16300002 L .23800002 .38400004 Z "/>
</symbol>
<symbol id="font_0_3">
<path d="M .384 .962 C .38900004 .975 .38900004 .97900006 .38900004 .98 C .38900004 .99100008 .38000003 1 .36900003 1 C .36200003 1 .35500003 .99700006 .352 .99100008 L .004999999 .037999989 C 0 .024999991 0 .020999983 0 .019999996 C 0 .008999988 .009 0 .02 0 C .033000005 0 .036000004 .0069999846 .042 .023999989 L .384 .962 Z "/>
</symbol>
<use xlink:href="#font_0_2" transform="matrix(27.673888,0,0,-27.673888,505.56938,344.70713)"/>
<use xlink:href="#font_0_3" transform="matrix(27.673888,0,0,-27.673888,523.1146,351.32118)"/>
<symbol id="font_1_4">
<path d="M .089999999 .35000003 L .089999999 .37400005 C .089999999 .62700006 .21400002 .66300007 .26500003 .66300007 C .28900004 .66300007 .33100004 .65700009 .35300002 .623 C .33800004 .623 .298 .623 .298 .57800009 C .298 .54700008 .32200004 .53200009 .344 .53200009 C .36 .53200009 .39000003 .54100009 .39000003 .58000007 C .39000003 .64000007 .34600003 .688 .263 .688 C .13499999 .688 0 .559 0 .33800004 C 0 .071 .116000007 0 .20900002 0 C .32000003 0 .41500003 .094000007 .41500003 .22600001 C .41500003 .35300005 .32600004 .44900004 .215 .44900004 C .14700002 .44900004 .11000001 .39800004 .089999999 .35000003 M .20900002 .028 C .146 .028 .116000007 .088 .11000001 .103 C .092 .15 .092 .23 .092 .24800001 C .092 .32600004 .124000009 .42600004 .21400002 .42600004 C .23000002 .42600004 .27600003 .42600004 .307 .36400003 C .32500003 .32700003 .32500003 .27600003 .32500003 .22700002 C .32500003 .179 .32500003 .12900001 .30800004 .093 C .27800004 .033000005 .23200003 .028 .20900002 .028 Z "/>
</symbol>
<use xlink:href="#font_1_4" transform="matrix(27.673888,0,0,-27.673888,536.59,345.01155)"/>
</g>
</svg>
