<?xml version="1.0" encoding="UTF-8" standalone="no"?>
<!DOCTYPE svg PUBLIC "-//W3C//DTD SVG 1.1//EN" "http://www.w3.org/Graphics/SVG/1.1/DTD/svg11.dtd">
<svg xmlns="http://www.w3.org/2000/svg" xmlns:xlink="http://www.w3.org/1999/xlink" version="1.1" width="584.88058pt" height="485.81944pt" viewBox="0 0 584.88058 485.81944">
<g enable-background="new">
<path transform="matrix(2.7777777,0,0,-2.7777777,10.330556,484.7111)" stroke-width=".79701" stroke-linecap="butt" stroke-miterlimit="10" stroke-linejoin="miter" fill="none" stroke="#000000" d="M 0 33.53642 L 191.68337 33.53642 "/>
<path transform="matrix(2.7777777,0,0,-2.7777777,542.7842,391.55439)" d="M 2.59026 0 L -1.55415 2.0722 L 0 0 L -1.55415 -2.0722 "/>
<path transform="matrix(2.7777777,0,0,-2.7777777,10.330556,484.7111)" stroke-width=".79701" stroke-linecap="butt" stroke-miterlimit="10" stroke-linejoin="miter" fill="none" stroke="#000000" d="M 43.17166 0 L 43.17166 158.80483 "/>
<path transform="matrix(0,-2.7777222,-2.7777222,-0,130.25183,43.5866)" d="M 2.59026 0 L -1.55415 2.0722 L 0 0 L -1.55415 -2.0722 "/>
<clipPath id="cp0">
<path transform="matrix(2.7777777,0,0,-2.7777777,10.330556,484.7111)" d="M 0 0 L 194.27359 0 L 194.27359 161.39505 L 0 161.39505 Z "/>
</clipPath>
<g clip-path="url(#cp0)">
<path transform="matrix(2.7777777,0,0,-2.7777777,10.330556,484.7111)" d="M 43.17163 117.37195 L 43.48303 117.37624 L 44.72899 117.3249 L 45.97493 117.20517 L 47.22087 117.01698 L 48.46681 116.76036 L 49.71275 116.43529 L 50.9587 116.04178 L 52.20464 115.57986 L 53.45059 115.0495 L 54.69653 114.4507 L 55.94247 113.78346 L 57.18842 113.04779 L 58.43436 112.2437 L 59.6803 111.37114 L 60.92625 110.43018 L 62.1722 109.42076 L 63.41814 108.34291 L 64.66408 107.19664 L 65.91002 105.98192 L 67.15596 104.69878 L 68.40192 103.3472 L 69.64786 101.92717 L 70.8938 100.43872 L 72.13974 98.88182 L 73.38568 97.2565 L 74.63162 95.56274 L 75.87756 93.80057 L 77.12352 91.96994 L 78.36946 90.07088 L 79.6154 88.1034 L 80.86136 86.06747 L 82.10728 83.96303 L 83.35323 81.79022 L 84.59918 79.549 L 85.84512 77.23933 L 87.09106 74.86124 L 88.337 72.41469 L 89.58296 69.89972 L 90.82889 67.31633 L 92.07483 64.66447 L 93.32079 61.94421 L 94.56673 59.15541 L 95.81267 56.29825 L 97.05862 53.37268 L 98.30457 50.37866 L 99.55049 47.31622 L 100.79645 44.18533 L 102.04239 40.98604 L 103.28833 37.71828 L 104.53429 34.3821 L 104.84619 33.52975 L 104.84601 33.53642 L 103.90956 33.53642 L 102.97514 33.53642 L 102.04071 33.53642 L 101.10626 33.53642 L 100.17184 33.53642 L 99.23741 33.53642 L 98.303 33.53642 L 97.36856 33.53642 L 96.43413 33.53642 L 95.4997 33.53642 L 94.56526 33.53642 L 93.63084 33.53642 L 92.69641 33.53642 L 91.76198 33.53642 L 90.82756 33.53642 L 89.89313 33.53642 L 88.95868 33.53642 L 88.02426 33.53642 L 87.08983 33.53642 L 86.15541 33.53642 L 85.22098 33.53642 L 84.28654 33.53642 L 83.35213 33.53642 L 82.41768 33.53642 L 81.48325 33.53642 L 80.54883 33.53642 L 79.6144 33.53642 L 78.67998 33.53642 L 77.74554 33.53642 L 76.81111 33.53642 L 75.87668 33.53642 L 74.94225 33.53642 L 74.00783 33.53642 L 73.0734 33.53642 L 72.13896 33.53642 L 71.20454 33.53642 L 70.27011 33.53642 L 69.33568 33.53642 L 68.40125 33.53642 L 67.46681 33.53642 L 66.5324 33.53642 L 65.59796 33.53642 L 64.66354 33.53642 L 63.7291 33.53642 L 62.79466 33.53642 L 61.86024 33.53642 L 60.92581 33.53642 L 59.9914 33.53642 L 59.05696 33.53642 L 58.12253 33.53642 L 57.1881 33.53642 L 56.25366 33.53642 L 55.31924 33.53642 L 54.38481 33.53642 L 53.45038 33.53642 L 52.51596 33.53642 L 51.58153 33.53642 L 50.6471 33.53642 L 49.71266 33.53642 L 48.77823 33.53642 L 47.84381 33.53642 L 46.90938 33.53642 L 45.97495 33.53642 L 45.04053 33.53642 L 44.10608 33.53642 L 43.17166 33.53642 Z " fill="#929292" fill-opacity=".2"/>
</g>
<clipPath id="cp1">
<path transform="matrix(2.7777777,0,0,-2.7777777,10.330556,484.7111)" d="M 0 0 L 194.27359 0 L 194.27359 161.39505 L 0 161.39505 Z "/>
</clipPath>
<g clip-path="url(#cp1)">
<path transform="matrix(2.7777777,0,0,-2.7777777,10.330556,484.7111)" stroke-width=".79701" stroke-linecap="butt" stroke-miterlimit="10" stroke-linejoin="miter" fill="none" stroke="#ff0000" d="M 12.33446 96.4179 L 13.58038 98.07744 L 14.82632 99.66855 L 16.07227 101.19125 L 17.31822 102.64548 L 18.56416 104.03131 L 19.8101 105.34868 L 21.05606 106.59763 L 22.30199 107.77814 L 23.54793 108.89021 L 24.79388 109.93384 L 26.03983 110.90906 L 27.28577 111.81581 L 28.53172 112.65416 L 29.77766 113.42406 L 31.02359 114.12552 L 32.26953 114.75854 L 33.51549 115.32314 L 34.76143 115.8193 L 36.00737 116.24702 L 37.25333 116.60631 L 38.49927 116.89717 L 39.7452 117.1196 L 40.99115 117.27357 L 42.23709 117.35913 L 43.48303 117.37624 L 44.72899 117.3249 L 45.97493 117.20517 L 47.22087 117.01698 L 48.46681 116.76036 L 49.71275 116.43529 L 50.9587 116.04178 L 52.20464 115.57986 L 53.45059 115.0495 L 54.69653 114.4507 L 55.94247 113.78346 L 57.18842 113.04779 L 58.43436 112.2437 L 59.6803 111.37114 L 60.92625 110.43018 L 62.1722 109.42076 L 63.41814 108.34291 L 64.66408 107.19664 L 65.91002 105.98192 L 67.15596 104.69878 L 68.40192 103.3472 L 69.64786 101.92717 L 70.8938 100.43872 L 72.13974 98.88182 L 73.38568 97.2565 L 74.63162 95.56274 L 75.87756 93.80057 L 77.12352 91.96994 L 78.36946 90.07088 L 79.6154 88.1034 L 80.86136 86.06747 L 82.10728 83.96303 L 83.35323 81.79022 L 84.59918 79.549 L 85.84512 77.23933 L 87.09106 74.86124 L 88.337 72.41469 L 89.58296 69.89972 L 90.82889 67.31633 L 92.07483 64.66447 L 93.32079 61.94421 L 94.56673 59.15541 L 95.81267 56.29825 L 97.05862 53.37268 L 98.30457 50.37866 L 99.55049 47.31622 L 100.79645 44.18533 L 102.04239 40.98604 L 103.28833 37.71828 L 104.53429 34.3821 L 105.78023 30.97748 L 107.02617 27.50427 L 108.2721 23.9628 L 109.51805 20.35287 L 110.76399 16.67451 L 112.00993 12.9277 L 113.25589 9.11249 L 114.50183 5.22882 L 115.74776 1.27673 L 116.99371 -2.74379 L 118.23965 -6.83275 L 119.4856 -10.99031 L 120.73155 -15.21616 L 121.9775 -19.51042 L 123.22343 -23.87312 L 124.46938 -28.30426 L 125.71532 -32.80383 L 126.96126 -37.37186 L 128.2072 -42.00829 L 129.45316 -46.71318 L 130.6991 -51.4865 L 131.94504 -56.32841 L 133.19098 -61.2386 L 134.43692 -66.21722 L 135.68286 -71.26427 "/>
<path transform="matrix(2.7777777,0,0,-2.7777777,10.330556,484.7111)" stroke-width=".79701" stroke-linecap="butt" stroke-miterlimit="10" stroke-linejoin="miter" fill="none" stroke="#0000ff" d="M 43.17166 33.53642 L 44.10608 33.53642 L 45.04053 33.53642 L 45.97495 33.53642 L 46.90938 33.53642 L 47.84381 33.53642 L 48.77823 33.53642 L 49.71266 33.53642 L 50.6471 33.53642 L 51.58153 33.53642 L 52.51596 33.53642 L 53.45038 33.53642 L 54.38481 33.53642 L 55.31924 33.53642 L 56.25366 33.53642 L 57.1881 33.53642 L 58.12253 33.53642 L 59.05696 33.53642 L 59.9914 33.53642 L 60.92581 33.53642 L 61.86024 33.53642 L 62.79466 33.53642 L 63.7291 33.53642 L 64.66354 33.53642 L 65.59796 33.53642 L 66.5324 33.53642 L 67.46681 33.53642 L 68.40125 33.53642 L 69.33568 33.53642 L 70.27011 33.53642 L 71.20454 33.53642 L 72.13896 33.53642 L 73.0734 33.53642 L 74.00783 33.53642 L 74.94225 33.53642 L 75.87668 33.53642 L 76.81111 33.53642 L 77.74554 33.53642 L 78.67998 33.53642 L 79.6144 33.53642 L 80.54883 33.53642 L 81.48325 33.53642 L 82.41768 33.53642 L 83.35213 33.53642 L 84.28654 33.53642 L 85.22098 33.53642 L 86.15541 33.53642 L 87.08983 33.53642 L 88.02426 33.53642 L 88.95868 33.53642 L 89.89313 33.53642 L 90.82756 33.53642 L 91.76198 33.53642 L 92.69641 33.53642 L 93.63084 33.53642 L 94.56526 33.53642 L 95.4997 33.53642 L 96.43413 33.53642 L 97.36856 33.53642 L 98.303 33.53642 L 99.23741 33.53642 L 100.17184 33.53642 L 101.10626 33.53642 L 102.04071 33.53642 L 102.97514 33.53642 L 103.90956 33.53642 L 104.844 33.53642 L 105.77841 33.53642 L 106.71284 33.53642 L 107.64728 33.53642 L 108.58171 33.53642 L 109.51614 33.53642 L 110.45056 33.53642 L 111.385 33.53642 L 112.31943 33.53642 L 113.25385 33.53642 L 114.18828 33.53642 L 115.12271 33.53642 L 116.05714 33.53642 L 116.99158 33.53642 L 117.926 33.53642 L 118.86043 33.53642 L 119.79485 33.53642 L 120.72928 33.53642 L 121.66373 33.53642 L 122.59814 33.53642 L 123.53258 33.53642 L 124.46701 33.53642 L 125.40143 33.53642 L 126.33586 33.53642 L 127.27028 33.53642 L 128.20473 33.53642 L 129.13916 33.53642 L 130.07358 33.53642 L 131.00801 33.53642 L 131.94245 33.53642 L 132.87686 33.53642 L 133.81131 33.53642 L 134.74573 33.53642 L 135.68016 33.53642 "/>
<path transform="matrix(2.7777777,0,0,-2.7777777,10.330556,484.7111)" stroke-width=".3985" stroke-linecap="butt" stroke-miterlimit="10" stroke-linejoin="miter" fill="none" stroke="#000000" d="M 135.6833 29.34433 L 135.6833 127.85861 "/>
<symbol id="font_2_1">
<path d="M .07700001 .07700001 L .18300002 .18 C .33900003 .31800003 .39900003 .372 .39900003 .47200004 C .39900003 .586 .30900003 .666 .18700002 .666 C .074 .666 0 .574 0 .485 C 0 .42900003 .05 .42900003 .053000008 .42900003 C .07000001 .42900003 .105000007 .441 .105000007 .48200003 C .105000007 .508 .08700001 .53400006 .052000006 .53400006 C .044000005 .53400006 .042000008 .53400006 .039 .53300008 C .062000004 .59800007 .11600001 .63500007 .17400001 .63500007 C .26500003 .63500007 .308 .554 .308 .47200004 C .308 .39200003 .25800003 .31300003 .20300003 .25100003 L .011000004 .037 C 0 .026 0 .024 0 0 L .37100003 0 L .39900003 .17400001 L .374 .17400001 C .36900003 .14400001 .36200003 .1 .352 .085 C .345 .07700001 .279 .07700001 .257 .07700001 L .07700001 .07700001 Z "/>
</symbol>
<use xlink:href="#font_2_1" transform="matrix(27.673888,0,0,-27.673888,296.0309,419.16944)"/>
<symbol id="font_2_3">
<path d="M .266 .165 L .266 .078 C .266 .042000005 .26400004 .031000002 .19000001 .031000002 L .16900002 .031000002 L .16900002 0 C .21000001 .003 .26200003 .003 .30400003 .003 C .34600003 .003 .39900003 .003 .44000004 0 L .44000004 .031000002 L .41900004 .031000002 C .34500004 .031000002 .34300003 .042000005 .34300003 .078 L .34300003 .165 L .44300003 .165 L .44300003 .19600001 L .34300003 .19600001 L .34300003 .651 C .34300003 .671 .34300003 .67700007 .32700003 .67700007 C .31800003 .67700007 .31500004 .67700007 .307 .665 L 0 .19600001 L 0 .165 L .266 .165 M .272 .19600001 L .028 .19600001 L .272 .569 L .272 .19600001 Z "/>
</symbol>
<use xlink:href="#font_2_3" transform="matrix(27.673888,0,0,-27.673888,107.41098,161.76111)"/>
<symbol id="font_2_2">
<path d="M .24800003 .37400005 C .33 .40100003 .388 .47100006 .388 .55 C .388 .632 .3 .688 .204 .688 C .10300001 .688 .027000003 .628 .027000003 .55200007 C .027000003 .519 .049000004 .5 .078 .5 C .109000008 .5 .12900001 .522 .12900001 .55100008 C .12900001 .6010001 .082 .6010001 .067 .6010001 C .098 .65000006 .164 .66300007 .20000002 .66300007 C .24100003 .66300007 .29600004 .64100006 .29600004 .55100008 C .29600004 .53900006 .29400004 .48100005 .268 .43700005 C .238 .38900004 .204 .38600005 .17900002 .38500003 C .171 .38400004 .14700002 .38200004 .14000002 .38200004 C .132 .38100005 .125 .38000003 .125 .37000004 C .125 .35900004 .132 .35900004 .14900002 .35900004 L .19300002 .35900004 C .275 .35900004 .312 .29100005 .312 .193 C .312 .057000005 .24300003 .028 .199 .028 C .15600002 .028 .081 .045 .046000005 .104 C .081 .09900001 .11200001 .12100001 .11200001 .15900001 C .11200001 .19500001 .085 .215 .056 .215 C .031999999 .215 0 .201 0 .157 C 0 .06600001 .093 0 .20200002 0 C .32400004 0 .41500003 .091000009 .41500003 .193 C .41500003 .27500005 .35200004 .35300005 .24800003 .37400005 Z "/>
</symbol>
<use xlink:href="#font_2_2" transform="matrix(27.673888,0,0,-27.673888,381.4678,425.60047)"/>
<path transform="matrix(2.7777777,0,0,-2.7777777,10.330556,484.7111)" stroke-width=".3985" stroke-linecap="butt" stroke-miterlimit="10" stroke-linejoin="miter" fill="none" stroke="#ff0000" d="M 126.43214 117.37837 C 124.27316 114.48824 142.77548 114.48824 144.93447 117.37837 "/>
<path transform="matrix(2.7777777,0,0,-2.7777777,10.330556,484.7111)" stroke-width=".3985" stroke-linecap="butt" stroke-miterlimit="10" stroke-linejoin="miter" fill="none" stroke="#ff0000" d="M 144.93447 117.37837 C 145.34311 117.37837 144.75139 119.83972 143.32772 122.68062 "/>
<path transform="matrix(1.2445277,2.4831944,2.4831944,-1.2445277,408.4627,143.93161)" d="M 3.58653 0 C 2.52383 .19925 .797 .797 -.3985 1.49438 L -.3985 -1.49438 C .797 -.797 2.52383 -.19925 3.58653 0 " fill="#ff0000"/>
<path transform="matrix(2.7777777,0,0,-2.7777777,10.330556,484.7111)" stroke-width=".3985" stroke-linecap="butt" stroke-miterlimit="10" stroke-linejoin="miter" fill="none" stroke="#ff0000" d="M 126.43214 117.37837 C 126.93954 117.37837 128.47345 119.38512 127.974 119.47443 "/>
</g>
<symbol id="font_3_1">
<path d="M .305 .31300003 C .311 .33900003 .334 .43100003 .404 .43100003 C .409 .43100003 .433 .43100003 .454 .418 C .426 .41300003 .40600003 .388 .40600003 .36400003 C .40600003 .34800003 .417 .32900004 .444 .32900004 C .46600003 .32900004 .498 .34700004 .498 .38700003 C .498 .43900005 .439 .45300005 .405 .45300005 C .347 .45300005 .312 .40000005 .3 .37700004 C .275 .44300003 .221 .45300005 .19200002 .45300005 C .08800001 .45300005 .031000002 .32400004 .031000002 .29900003 C .031000002 .28900004 .041 .28900004 .043000007 .28900004 C .051000008 .28900004 .054000006 .291 .056 .3 C .09 .40600003 .156 .43100003 .19000001 .43100003 C .209 .43100003 .244 .42200003 .244 .36400003 C .244 .33300004 .22700002 .26600004 .19000001 .126 C .17400001 .064 .13900002 .022000002 .095000009 .022000002 C .08900001 .022000002 .06600001 .022000002 .045 .035 C .07000001 .040000004 .09200001 .061 .09200001 .089 C .09200001 .116000007 .07000001 .124000009 .055000009 .124000009 C .025 .124000009 0 .098000008 0 .06600001 C 0 .020000002 .050000006 0 .094000007 0 C .16000001 0 .19600001 .07000001 .19900002 .076000008 C .21100001 .039 .24700003 0 .307 0 C .41 0 .467 .12900001 .467 .15400002 C .467 .16400002 .458 .16400002 .455 .16400002 C .446 .16400002 .444 .16000001 .442 .15300001 C .409 .046 .341 .022000002 .30900003 .022000002 C .27 .022000002 .254 .054 .254 .08800001 C .254 .11000001 .26 .13200002 .271 .17600002 L .305 .31300003 Z "/>
</symbol>
<use xlink:href="#font_3_1" transform="matrix(27.673888,0,0,-27.673888,560.64138,413.50166)"/>
<symbol id="font_3_2">
<path d="M .45700003 .586 C .461 .6 .461 .602 .461 .609 C .461 .62700006 .447 .63600006 .432 .63600006 C .42200003 .63600006 .40600003 .63 .397 .615 C .395 .61 .387 .579 .38300003 .561 C .37600003 .535 .36900003 .508 .363 .48100005 L .318 .301 C .314 .286 .271 .21600002 .20500002 .21600002 C .15400002 .21600002 .143 .26000003 .143 .29700003 C .143 .34300003 .16000001 .40500004 .194 .49300004 C .21000001 .53400006 .21400002 .545 .21400002 .56500008 C .21400002 .61 .18200001 .6470001 .13200002 .6470001 C .037 .6470001 0 .50200006 0 .49300004 C 0 .48300005 .01 .48300005 .012 .48300005 C .022000002 .48300005 .023 .485 .028000003 .50100007 C .055000009 .595 .095000009 .625 .12900001 .625 C .13700001 .625 .15400002 .625 .15400002 .59300008 C .15400002 .568 .14400001 .54200008 .13700001 .523 C .097 .41700004 .079 .36 .079 .31300003 C .079 .224 .142 .194 .201 .194 C .24000003 .194 .274 .21100001 .30200003 .23900002 C .289 .187 .277 .13800001 .237 .08500001 C .21100001 .051 .17300001 .022 .127 .022 C .113000009 .022 .068 .025000006 .051000008 .06400001 C .067 .06400001 .080000009 .06400001 .094000007 .076000008 C .104 .08500001 .11400001 .098000008 .11400001 .117000009 C .11400001 .148 .087000008 .15200001 .07700001 .15200001 C .054000006 .15200001 .021 .136 .021 .087000008 C .021 .037 .065000008 0 .127 0 C .23 0 .333 .091000009 .361 .20400001 L .45700003 .586 Z "/>
</symbol>
<use xlink:href="#font_3_2" transform="matrix(27.673888,0,0,-27.673888,106.7331,26.809287)"/>
</g>
</svg>
