<?xml version="1.0" encoding="UTF-8" standalone="no"?>
<!DOCTYPE svg PUBLIC "-//W3C//DTD SVG 1.1//EN" "http://www.w3.org/Graphics/SVG/1.1/DTD/svg11.dtd">
<svg xmlns="http://www.w3.org/2000/svg" xmlns:xlink="http://www.w3.org/1999/xlink" version="1.1" width="475.32499pt" height="497.80833pt" viewBox="0 0 475.32499 497.80833">
<g enable-background="new">
<path transform="matrix(2.7777777,0,0,-2.7777777,41.274999,429.9972)" stroke-width=".3985" stroke-linecap="butt" stroke-miterlimit="10" stroke-linejoin="miter" fill="none" stroke="#000000" d="M -11.33855 0 L 141.27574 0 "/>
<path transform="matrix(2.7777777,0,0,-2.7777777,433.70759,429.9972)" stroke-width=".31879" stroke-linecap="round" stroke-linejoin="round" fill="none" stroke="#000000" d="M -1.19551 1.59401 C -1.09587 .99626 0 .09961 .29886 0 C 0 -.09961 -1.09587 -.99626 -1.19551 -1.59401 "/>
<symbol id="font_0_1">
<path d="M .305 .31300003 C .311 .33900003 .334 .43100003 .404 .43100003 C .409 .43100003 .433 .43100003 .454 .418 C .426 .41300003 .40600003 .388 .40600003 .36400003 C .40600003 .34800003 .417 .32900004 .444 .32900004 C .46600003 .32900004 .498 .34700004 .498 .38700003 C .498 .43900005 .439 .45300005 .405 .45300005 C .347 .45300005 .312 .40000005 .3 .37700004 C .275 .44300003 .221 .45300005 .19200002 .45300005 C .08800001 .45300005 .031000002 .32400004 .031000002 .29900003 C .031000002 .28900004 .041 .28900004 .043000007 .28900004 C .051000008 .28900004 .054000006 .291 .056 .3 C .09 .40600003 .156 .43100003 .19000001 .43100003 C .209 .43100003 .244 .42200003 .244 .36400003 C .244 .33300004 .22700002 .26600004 .19000001 .126 C .17400001 .064 .13900002 .022000002 .095000009 .022000002 C .08900001 .022000002 .06600001 .022000002 .045 .035 C .07000001 .040000004 .09200001 .061 .09200001 .089 C .09200001 .116000007 .07000001 .124000009 .055000009 .124000009 C .025 .124000009 0 .098000008 0 .06600001 C 0 .020000002 .050000006 0 .094000007 0 C .16000001 0 .19600001 .07000001 .19900002 .076000008 C .21100001 .039 .24700003 0 .307 0 C .41 0 .467 .12900001 .467 .15400002 C .467 .16400002 .458 .16400002 .455 .16400002 C .446 .16400002 .444 .16000001 .442 .15300001 C .409 .046 .341 .022000002 .30900003 .022000002 C .27 .022000002 .254 .054 .254 .08800001 C .254 .11000001 .26 .13200002 .271 .17600002 L .305 .31300003 Z "/>
</symbol>
<use xlink:href="#font_0_1" transform="matrix(27.673888,0,0,-27.673888,445.55253,436.25996)"/>
<path transform="matrix(2.7777777,0,0,-2.7777777,41.274999,429.9972)" stroke-width=".3985" stroke-linecap="butt" stroke-miterlimit="10" stroke-linejoin="miter" fill="none" stroke="#000000" d="M 0 -1.1341 L 0 141.27574 "/>
<path transform="matrix(0,-2.7777777,-2.7777777,-0,41.274999,37.564596)" stroke-width=".31879" stroke-linecap="round" stroke-linejoin="round" fill="none" stroke="#000000" d="M -1.19551 1.59401 C -1.09587 .99626 0 .09961 .29886 0 C 0 -.09961 -1.09587 -.99626 -1.19551 -1.59401 "/>
<symbol id="font_0_2">
<path d="M .45700003 .586 C .461 .6 .461 .602 .461 .609 C .461 .62700006 .447 .63600006 .432 .63600006 C .42200003 .63600006 .40600003 .63 .397 .615 C .395 .61 .387 .579 .38300003 .561 C .37600003 .535 .36900003 .508 .363 .48100005 L .318 .301 C .314 .286 .271 .21600002 .20500002 .21600002 C .15400002 .21600002 .143 .26000003 .143 .29700003 C .143 .34300003 .16000001 .40500004 .194 .49300004 C .21000001 .53400006 .21400002 .545 .21400002 .56500008 C .21400002 .61 .18200001 .6470001 .13200002 .6470001 C .037 .6470001 0 .50200006 0 .49300004 C 0 .48300005 .01 .48300005 .012 .48300005 C .022000002 .48300005 .023 .485 .028000003 .50100007 C .055000009 .595 .095000009 .625 .12900001 .625 C .13700001 .625 .15400002 .625 .15400002 .59300008 C .15400002 .568 .14400001 .54200008 .13700001 .523 C .097 .41700004 .079 .36 .079 .31300003 C .079 .224 .142 .194 .201 .194 C .24000003 .194 .274 .21100001 .30200003 .23900002 C .289 .187 .277 .13800001 .237 .08500001 C .21100001 .051 .17300001 .022 .127 .022 C .113000009 .022 .068 .025000006 .051000008 .06400001 C .067 .06400001 .080000009 .06400001 .094000007 .076000008 C .104 .08500001 .11400001 .098000008 .11400001 .117000009 C .11400001 .148 .087000008 .15200001 .07700001 .15200001 C .054000006 .15200001 .021 .136 .021 .087000008 C .021 .037 .065000008 0 .127 0 C .23 0 .333 .091000009 .361 .20400001 L .45700003 .586 Z "/>
</symbol>
<use xlink:href="#font_0_2" transform="matrix(27.673888,0,0,-27.673888,34.796987,26.812033)"/>
<path transform="matrix(2.7777777,0,0,-2.7777777,41.274999,429.9972)" stroke-width=".3985" stroke-linecap="butt" stroke-miterlimit="10" stroke-linejoin="miter" fill="none" stroke="#000080" d="M 45.35504 111.11986 C 45.35504 111.11986 47.91515 112.04584 48.8984 112.31625 C 49.88167 112.58667 51.45848 112.92151 52.44174 113.06888 C 53.425 113.21625 55.00185 113.35397 55.9851 113.37857 C 56.96837 113.40317 58.54518 113.34451 59.52844 113.24622 C 60.5117 113.14792 62.08855 112.89137 63.07181 112.67006 C 64.05508 112.44875 65.63191 111.99513 66.61516 111.65102 C 67.59839 111.3069 69.17523 110.65689 70.1585 110.1899 C 71.14175 109.72289 72.7186 108.87492 73.70186 108.28499 C 74.68512 107.69507 76.26193 106.65086 77.2452 105.93805 C 78.22845 105.22523 79.8053 103.98317 80.78856 103.14731 C 81.77184 102.31143 83.34863 100.8723 84.33191 99.91365 C 85.31517 98.95502 86.89201 97.3195 87.87527 96.23795 C 88.85854 95.15639 90.43535 93.32303 91.41861 92.11845 C 92.40187 90.91388 93.97871 88.88344 94.96198 87.55606 C 95.94524 86.22868 97.52208 84.00183 98.50531 82.55157 C 99.48856 81.1013 101.06538 78.67653 102.04866 77.10333 C 103.03192 75.53014 104.60876 72.9091 105.59203 71.21303 C 106.57529 69.51694 108.1521 66.69806 109.13536 64.87894 C 110.11862 63.0598 111.69547 60.04385 112.67873 58.10196 C 113.66199 56.16005 115.2388 52.9477 116.22206 50.88287 C 117.20534 48.81804 118.78217 45.40788 119.76544 43.22003 C 120.7487 41.0322 122.32555 37.42493 123.30878 35.11429 C 124.292 32.80363 125.86885 29.00002 126.85211 26.56645 C 127.83537 24.13289 130.39548 17.57484 130.39548 17.57484 "/>
<path transform="matrix(2.7777777,0,0,-2.7777777,41.274999,429.9972)" stroke-width=".3985" stroke-linecap="butt" stroke-miterlimit="10" stroke-linejoin="miter" fill="none" stroke="#000000" d="M 56.69362 0 L 56.69362 99.21382 "/>
<path transform="matrix(2.7777777,0,0,-2.7777777,41.274999,429.9972)" stroke-width=".3985" stroke-linecap="butt" stroke-miterlimit="10" stroke-linejoin="miter" fill="none" stroke="#000000" d="M 85.0404 0 L 85.0404 99.21382 "/>
<path transform="matrix(2.7777777,0,0,-2.7777777,41.274999,429.9972)" stroke-width=".3985" stroke-linecap="butt" stroke-miterlimit="10" stroke-linejoin="miter" fill="none" stroke="#000000" d="M 113.38724 0 L 113.38724 99.21382 "/>
<path transform="matrix(2.7777777,0,0,-2.7777777,41.274999,429.9972)" stroke-width=".3985" stroke-linecap="butt" stroke-miterlimit="10" stroke-linejoin="miter" fill="none" stroke="#000000" d="M 56.69362 99.21382 L 113.38724 99.21382 "/>
<symbol id="font_1_2">
<path d="M .462 .41500003 C .425 .40800003 .41400004 .37600003 .41400004 .36100004 C .41400004 .34200005 .42800004 .32500003 .453 .32500003 C .48100005 .32500003 .508 .34900005 .508 .38400004 C .508 .43000005 .45800004 .45300005 .411 .45300005 C .351 .45300005 .316 .40000005 .30400003 .37900005 C .28500004 .42800004 .24100003 .45300005 .193 .45300005 C .086 .45300005 .028 .32500003 .028 .29900003 C .028 .29000003 .035000005 .28700004 .042000005 .28700004 C .051 .28700004 .054000006 .29200004 .056 .298 C .087000008 .397 .15300001 .42800004 .19100002 .42800004 C .22 .42800004 .24600002 .40900005 .24600002 .36200003 C .24600002 .32600004 .20300001 .16600001 .19000001 .11800001 C .18200001 .087000008 .15200001 .025000003 .097 .025000003 C .07700001 .025000003 .056 .032 .046000005 .038000004 C .07300001 .043 .093 .06600001 .093 .092 C .093 .117000009 .074 .128 .055 .128 C .026 .128 0 .10300001 0 .069000009 C 0 .020000002 .054000006 0 .096 0 C .15400002 0 .18800001 .048 .20300001 .075 C .22800002 .009000001 .287 0 .314 0 C .42200003 0 .479 .13000001 .479 .15400002 C .479 .15900001 .47600005 .16600001 .46600003 .16600001 C .455 .16600001 .45400004 .16200002 .44900004 .14700002 C .42700003 .075 .36900003 .025000003 .317 .025000003 C .28800003 .025000003 .261 .043 .261 .091000009 C .261 .113000009 .275 .16800002 .284 .20600002 C .28800003 .22400002 .31500004 .33200003 .317 .33900003 C .32900004 .37500004 .35900004 .42800004 .41000004 .42800004 C .42800004 .42800004 .44700004 .42500005 .462 .41500003 Z "/>
</symbol>
<use xlink:href="#font_1_2" transform="matrix(24.906666,0,0,-24.906666,172.82776,450.774)"/>
<symbol id="font_2_1">
<path d="M .24100001 .674 C .242 .67800006 .244 .684 .244 .689 C .244 .70500007 .22400002 .704 .212 .703 L .10000001 .694 C .083000008 .693 .07000001 .69200006 .07000001 .66800007 C .07000001 .653 .083000008 .653 .09900001 .653 C .128 .653 .135 .65000006 .148 .646 C .148 .634 .148 .632 .14400001 .616 L .0040000008 .057000005 C 0 .041 0 .036000004 0 .034 C 0 .009000001 .020000004 0 .034999998 0 C .045 0 .06300001 .0040000008 .076000008 .023000002 C .083000008 .036000004 .12300001 .202 .13000001 .23400001 C .19700001 .22900002 .269 .21300002 .269 .15400002 C .269 .14900002 .269 .14400001 .26600004 .133 C .263 .118 .263 .112 .263 .104 C .263 .038000004 .319 0 .376 0 C .473 0 .508 .14600002 .508 .15400002 C .508 .15600002 .507 .16800002 .48900003 .16800002 C .47500003 .16800002 .473 .16200002 .468 .14500001 C .458 .109000008 .43 .033000005 .379 .033000005 C .34100003 .033000005 .34100003 .076 .34100003 .087000008 C .34100003 .103 .34100003 .104 .34600003 .124000009 C .34600003 .125 .351 .14500001 .351 .157 C .351 .23400001 .264 .25800003 .18700002 .26500003 C .21100001 .28 .23200001 .296 .272 .331 C .32200004 .375 .374 .418 .42900003 .418 C .44200004 .418 .454 .41500003 .463 .405 C .42800004 .398 .413 .37 .413 .349 C .413 .317 .439 .31 .453 .31 C .47500003 .31 .51100006 .326 .51100006 .37600003 C .51100006 .419 .47900004 .451 .43 .451 C .36700005 .451 .30800004 .403 .26200003 .363 C .21000003 .31800003 .179 .292 .142 .278 L .24100001 .674 Z "/>
</symbol>
<use xlink:href="#font_2_1" transform="matrix(16.604445,0,0,-16.604445,188.0999,453.61604)"/>
<symbol id="font_3_1">
<path d="M .67100009 0 C .68700006 0 .712 0 .712 .025999994 C .712 .052000017 .68700006 .052000017 .67100009 .052000017 L .04100001 .052000017 C .025000006 .052000017 0 .052000017 0 .025999994 C 0 0 .025000006 0 .04100001 0 L .67100009 0 Z "/>
</symbol>
<use xlink:href="#font_3_1" transform="matrix(16.604445,0,0,-16.604445,199.98389,449.7306)"/>
<symbol id="font_4_2">
<path d="M .23800002 .63500007 C .23800002 .665 .23400001 .665 .20400001 .665 C .138 .601 .036 .601 0 .601 L 0 .56200006 C .025999994 .56200006 .09200001 .56200006 .152 .59000006 L .152 .085 C .152 .052 .152 .039 .048999996 .039 L .0059999974 .039 L .0059999974 0 C .061000006 .004 .13900002 .004 .19500001 .004 C .251 .004 .329 .004 .384 0 L .384 .039 L .34100003 .039 C .23800002 .039 .23800002 .052 .23800002 .085 L .23800002 .63500007 Z "/>
</symbol>
<use xlink:href="#font_4_2" transform="matrix(16.604445,0,0,-16.604445,215.90636,453.44999)"/>
<use xlink:href="#font_1_2" transform="matrix(24.906666,0,0,-24.906666,343.37498,450.774)"/>
<use xlink:href="#font_2_1" transform="matrix(16.604445,0,0,-16.604445,358.64714,453.61604)"/>
<use xlink:href="#font_1_2" transform="matrix(24.906666,0,0,-24.906666,194.1944,480.40733)"/>
<use xlink:href="#font_2_1" transform="matrix(16.604445,0,0,-16.604445,209.46932,483.25215)"/>
<symbol id="font_5_1">
<path d="M .314 .114 C .32500003 .10500001 .342 .093 .35000003 .093 C .36600004 .093 .379 .108 .379 .123 C .379 .139 .367 .14500001 .358 .14900002 L .215 .215 C .31100003 .261 .34500004 .275 .358 .282 C .36800004 .287 .379 .292 .379 .308 C .379 .323 .36600004 .338 .35000003 .338 C .34300003 .338 .34100003 .338 .317 .319 L .20300001 .239 L .21700001 .405 C .21700001 .418 .206 .43100003 .19 .43100003 C .171 .43100003 .16200002 .416 .16200002 .405 L .16900002 .321 C .172 .292 .17400001 .268 .17600002 .239 L .065 .317 C .054000006 .326 .037 .338 .029 .338 C .013000004 .338 0 .323 0 .308 C 0 .292 .012000002 .286 .021000006 .282 L .164 .21599999 C .068 .17000002 .034 .15600002 .021000006 .14900002 C .011 .144 0 .139 0 .123 C 0 .108 .013000004 .093 .029 .093 C .036000007 .093 .038000004 .093 .062000008 .11200001 L .17600002 .192 L .16200002 .026 C .16200002 .013 .17300001 0 .18900001 0 C .208 0 .21700001 .015000001 .21700001 .026 L .21000001 .11000001 C .20700002 .139 .20500002 .16300002 .20300001 .192 L .314 .114 Z "/>
</symbol>
<use xlink:href="#font_5_1" transform="matrix(24.906666,0,0,-24.906666,222.32984,479.2865)"/>
<symbol id="font_6_3">
<path d="M .651 .20400003 C .6650001 .20400003 .6840001 .20400003 .6840001 .22500003 C .6840001 .24700001 .66200008 .24700001 .6470001 .24700001 L .037 .24700001 C .022 .24700001 0 .24700001 0 .22500003 C 0 .20400003 .020000004 .20400003 .033 .20400003 L .651 .20400003 M .6470001 0 C .66200008 0 .6840001 0 .6840001 .022 C .6840001 .042999999 .6650001 .042999999 .651 .042999999 L .033 .042999999 C .020000004 .042999999 0 .042999999 0 .022 C 0 0 .022 0 .037 0 L .6470001 0 Z "/>
</symbol>
<use xlink:href="#font_6_3" transform="matrix(24.906666,0,0,-24.906666,241.9891,476.97019)"/>
<symbol id="font_2_2">
<path d="M .5 .403 C .465 .393 .45700006 .364 .45700006 .349 C .45700006 .317 .483 .31 .497 .31 C .526 .31 .555 .334 .555 .373 C .555 .42700003 .49600003 .451 .44500003 .451 C .37900005 .451 .33900003 .4 .32800005 .381 C .31500004 .40600003 .277 .451 .20200002 .451 C .087000008 .451 .019000002 .33200003 .019000002 .297 C .019000002 .292 .023000002 .283 .037 .283 C .051000008 .283 .054000006 .289 .057000005 .298 C .08200001 .379 .15 .418 .19900003 .418 C .24800003 .418 .263 .386 .263 .35300002 C .263 .34100003 .263 .33200003 .25500003 .301 C .23200003 .20800002 .21000001 .117000009 .20500002 .105000007 C .19000003 .067 .15400002 .033000005 .11200001 .033000005 C .10600001 .033000005 .078 .033000005 .055000009 .048000006 C .094000007 .061000006 .09800001 .094000007 .09800001 .102000009 C .09800001 .128 .078 .14100002 .058000007 .14100002 C .030000002 .14100002 0 .119 0 .078 C 0 .021000002 .063 0 .11000001 0 C .167 0 .20800004 .039 .22700003 .07 C .24700001 .028 .29500003 0 .35200004 0 C .47000007 0 .536 .12100001 .536 .15400002 C .536 .15600002 .535 .16800002 .517 .16800002 C .503 .16800002 .501 .16100002 .49800007 .15200001 C .469 .065000008 .39800004 .033000005 .35600005 .033000005 C .31800003 .033000005 .291 .055000005 .291 .097 C .291 .116000007 .29600004 .13800001 .30500005 .17300001 L .337 .303 C .34700004 .342 .35200004 .36 .37300004 .384 C .38700003 .39900003 .41100005 .418 .44300006 .418 C .44800005 .418 .47800002 .418 .5 .403 Z "/>
</symbol>
<use xlink:href="#font_2_2" transform="matrix(16.604445,0,0,-16.604445,271.95719,466.29939)"/>
<symbol id="font_7_1">
<path d="M .24400002 .667 C .248 .681 .248 .683 .248 .688 C .248 .705 .23300001 .705 .21700001 .704 L .094000007 .695 C .077 .694 .07500001 .693 .07 .689 C .06600001 .684 .063 .672 .063 .666 C .063 .649 .079 .649 .093 .649 C .094000007 .649 .11200001 .649 .127 .647 C .146 .645 .14700002 .642 .14700002 .634 C .14700002 .631 .14700002 .629 .14199999 .611 L .0040000008 .059 C 0 .044 0 .042000005 0 .036000004 C 0 .013000001 .018 0 .037999996 0 C .077 0 .086 .037 .09000001 .051000004 L .13499999 .23500002 C .16100002 .23400001 .286 .22700002 .286 .15600002 C .286 .14900002 .286 .14500001 .283 .13300002 C .28 .119 .28 .113000009 .28 .107 C .28 .036000004 .344 0 .402 0 C .504 0 .544 .143 .544 .15500002 C .544 .16900002 .527 .16900002 .523 .16900002 C .50600007 .16900002 .504 .16400002 .499 .14600002 C .48900003 .111 .46000005 .034 .40600003 .034 C .36900003 .034 .36400003 .071 .36400003 .093 C .36400003 .094000007 .36400003 .108 .368 .12500002 C .372 .14100002 .373 .15100001 .373 .15900001 C .373 .24700003 .263 .26200003 .197 .26700003 C .225 .28300003 .26700003 .31700004 .283 .33100004 C .34 .37600003 .39500005 .41900004 .45200003 .41900004 C .47500003 .41900004 .481 .41300003 .487 .40700004 C .486 .40700004 .481 .404 .47900004 .404 C .43300004 .388 .43300004 .34700004 .43300004 .344 C .43300004 .32700003 .445 .30300004 .47800005 .30300004 C .49800004 .30300004 .54 .31900005 .54 .374 C .54 .42300005 .50200006 .45300005 .454 .45300005 C .38600005 .45300005 .328 .40700004 .255 .34800003 C .22 .32000003 .187 .29500003 .14700002 .279 L .24400002 .667 Z "/>
</symbol>
<use xlink:href="#font_7_1" transform="matrix(13.836944,0,0,-13.836944,284.21577,470.1744)"/>
<symbol id="font_8_1">
<path d="M .72 0 C .736 0 .763 0 .763 .027999983 C .763 .05600001 .736 .05600001 .72 .05600001 L .042999999 .05600001 C .026999996 .05600001 0 .05600001 0 .027999983 C 0 0 .026999996 0 .042999999 0 L .72 0 Z "/>
</symbol>
<use xlink:href="#font_8_1" transform="matrix(13.836944,0,0,-13.836944,295.42778,466.9504)"/>
<symbol id="font_9_1">
<path d="M .25500003 .63600006 C .25500003 .666 .252 .666 .21900001 .666 C .148 .60200008 .037 .60200008 .017000005 .60200008 L 0 .60200008 L 0 .558 L .017000005 .558 C .040000008 .558 .105000007 .56100007 .16300002 .586 L .16300002 .086 C .16300002 .055000005 .16300002 .044000005 .056999998 .044000005 L .0069999995 .044000005 L .0069999995 0 C .062000008 .004 .151 .004 .20900002 .004 C .26700003 .004 .356 .004 .411 0 L .411 .044000005 L .361 .044000005 C .25500003 .044000005 .25500003 .055000005 .25500003 .086 L .25500003 .63600006 Z "/>
</symbol>
<use xlink:href="#font_9_1" transform="matrix(13.836944,0,0,-13.836944,310.1842,470.02223)"/>
<symbol id="font_4_1">
<path d="M .41400004 .36300005 L .73700007 .36300005 C .75100007 .36300005 .776 .36300005 .776 .389 C .776 .41500003 .75100007 .41500003 .73700007 .41500003 L .41400004 .41500003 L .41400004 .739 C .41400004 .753 .41400004 .77800008 .388 .77800008 C .36200003 .77800008 .36200003 .753 .36200003 .739 L .36200003 .41500003 L .039000006 .41500003 C .024999999 .41500003 0 .41500003 0 .389 C 0 .36300005 .024999999 .36300005 .039000006 .36300005 L .36200003 .36300005 L .36200003 .039000013 C .36200003 .025000006 .36200003 0 .388 0 C .41400004 0 .41400004 .025000006 .41400004 .039000013 L .41400004 .36300005 Z "/>
</symbol>
<use xlink:href="#font_4_1" transform="matrix(16.604445,0,0,-16.604445,320.3173,468.44136)"/>
<use xlink:href="#font_2_2" transform="matrix(16.604445,0,0,-16.604445,335.5794,466.29939)"/>
<use xlink:href="#font_7_1" transform="matrix(13.836944,0,0,-13.836944,347.838,470.1744)"/>
<path transform="matrix(2.7777777,0,0,-2.7777777,270.9111,473.90556)" stroke-width=".379" stroke-linecap="butt" stroke-miterlimit="10" stroke-linejoin="miter" fill="none" stroke="#000000" d="M 0 0 L 31.431 0 "/>
<symbol id="font_4_3">
<path d="M .46600006 .187 L .42900006 .187 C .42700003 .17300001 .41700004 .10700001 .40200005 .096 C .395 .09 .314 .09 .3 .09 L .113 .09 L .24100003 .194 C .275 .22100002 .36400003 .28500004 .395 .31500004 C .425 .34500004 .46600006 .39600004 .46600006 .467 C .46600006 .592 .35300002 .665 .21900001 .665 C .089999999 .665 0 .58000007 0 .48600004 C 0 .43500004 .042999999 .42900003 .053999999 .42900003 C .079 .42900003 .108 .44700004 .108 .483 C .108 .505 .095000009 .537 .051 .537 C .07400001 .588 .13500002 .62600007 .20400003 .62600007 C .30900003 .62600007 .365 .54800006 .365 .467 C .365 .39600004 .31800003 .323 .24800003 .259 L .011 .042000005 C .001000002 .032 0 .031000002 0 0 L .43500004 0 L .46600006 .187 Z "/>
</symbol>
<use xlink:href="#font_4_3" transform="matrix(16.604445,0,0,-16.604445,310.6872,488.5833)"/>
<path transform="matrix(2.7777777,0,0,-2.7777777,41.274999,429.9972)" stroke-width=".3985" stroke-linecap="butt" stroke-miterlimit="10" stroke-linejoin="miter" fill="none" stroke="#000000" d="M 124.72578 6.12798 L 124.72578 98.75554 "/>
<path transform="matrix(0,2.7777777,2.7777777,0,387.73548,412.97505)" stroke-width=".31879" stroke-linecap="round" stroke-linejoin="round" fill="none" stroke="#000000" d="M -1.19551 1.59401 C -1.09587 .99626 0 .09961 .29886 0 C 0 -.09961 -1.09587 -.99626 -1.19551 -1.59401 "/>
<path transform="matrix(0,-2.7777777,-2.7777777,0,387.73548,155.67627)" stroke-width=".31879" stroke-linecap="round" stroke-linejoin="round" fill="none" stroke="#000000" d="M -1.19551 1.59401 C -1.09587 .99626 0 .09961 .29886 0 C 0 -.09961 -1.09587 -.99626 -1.19551 -1.59401 "/>
<symbol id="font_1_1">
<path d="M .32000003 .605 L .41000004 .605 C .43000005 .605 .44000004 .605 .44000004 .623 C .44000004 .63600006 .43000005 .63600006 .41100005 .63600006 L .32600004 .63600006 C .33700005 .69600006 .35100005 .778 .36400003 .832 C .37300004 .87100008 .39700005 .885 .41700004 .885 C .42300005 .885 .446 .883 .46300004 .87100008 C .44300003 .8670001 .41400004 .8490001 .41400004 .816 C .41400004 .791 .43300004 .7800001 .45200006 .7800001 C .47900007 .7800001 .507 .80200007 .507 .84000006 C .507 .885 .46300004 .9100001 .41600005 .9100001 C .37100003 .9100001 .32600004 .878 .30500005 .837 C .28300003 .794 .27600003 .755 .25500003 .63600006 L .18300002 .63600006 C .164 .63600006 .15200001 .63600006 .15200001 .61800006 C .15200001 .605 .163 .605 .18100001 .605 L .249 .605 C .221 .46000005 .186 .26000003 .164 .15600002 C .15200001 .10100001 .136 .025000006 .088 .025000006 C .073 .025000006 .053000008 .031000004 .043 .039000006 C .068 .043000014 .092999998 .06400001 .092999998 .094000007 C .092999998 .11900001 .074 .13000001 .055000005 .13000001 C .028 .13000001 0 .10800001 0 .07000001 C 0 .024000004 .046 0 .088 0 C .19000001 0 .237 .16600001 .25300003 .252 L .32000003 .605 Z "/>
</symbol>
<use xlink:href="#font_1_1" transform="matrix(24.906666,0,0,-24.906666,405.19218,321.83085)"/>
<symbol id="font_6_1">
<path d="M .24000001 .011000007 C .24000001 .016000003 .23700002 .019000009 .231 .026000008 C .102000009 .14400001 .063 .324 .063 .499 C .063 .65400007 .093 .84200009 .234 .9760001 C .238 .98 .24000001 .98300006 .24000001 .98800006 C .24000001 .99500009 .23500002 .9990001 .22800002 .9990001 C .21599999 .9990001 .12600002 .92700007 .072000008 .818 C .023999997 .722 0 .619 0 .5 C 0 .42800004 .009000003 .314 .064 .19600001 C .123 .073 .21599999 0 .22800002 0 C .23500002 0 .24000001 .004000008 .24000001 .011000007 Z "/>
</symbol>
<use xlink:href="#font_6_1" transform="matrix(24.906666,0,0,-24.906666,421.4961,322.92674)"/>
<use xlink:href="#font_1_2" transform="matrix(24.906666,0,0,-24.906666,429.68327,316.99897)"/>
<symbol id="font_3_2">
<path d="M .36 .107 C .38600005 .089 .388 .089 .39499999 .089 C .412 .089 .42800004 .10400001 .42800004 .124000009 C .42800004 .144 .413 .15 .40500004 .15400002 C .35400004 .17500001 .30300004 .19600001 .251 .215 C .35300005 .257 .38100005 .26700003 .399 .275 C .41400004 .282 .42800004 .287 .42800004 .307 C .42800004 .32700003 .412 .342 .39499999 .342 C .38700003 .342 .38100005 .338 .37300004 .333 L .23100002 .243 C .23200001 .257 .23600002 .292 .237 .30400003 C .23900001 .324 .24700003 .384 .24700003 .40100003 C .24700003 .418 .23200001 .43100003 .214 .43100003 C .19700001 .43100003 .18100001 .418 .18100001 .40100003 C .18100001 .39900003 .19000001 .30900003 .191 .305 C .19200002 .294 .19600003 .256 .19700001 .243 L .055000009 .333 C .047000007 .338 .04100001 .342 .033000009 .342 C .016000003 .342 0 .32700003 0 .307 C 0 .287 .015000001 .28100003 .023000002 .277 C .074 .256 .125 .23500002 .177 .21599999 C .075 .174 .047000007 .164 .029 .15600002 C .013999999 .14900002 0 .144 0 .124000009 C 0 .10400001 .016000003 .089 .033000009 .089 C .04100001 .089 .058 .1 .07000001 .108 C .08400001 .116000007 .118 .13800001 .13100001 .14700002 C .16400002 .16800002 .17600002 .176 .19700001 .18800003 C .19600003 .174 .19200002 .139 .191 .127 L .18100001 .030000002 C .18100001 .013 .19700001 0 .214 0 C .23200001 0 .24700003 .013 .24700003 .030000002 C .24700003 .031000004 .23800002 .121 .237 .12600002 C .23600002 .137 .23200001 .17500001 .23100002 .18800003 L .36 .107 Z "/>
</symbol>
<use xlink:href="#font_3_2" transform="matrix(16.604445,0,0,-16.604445,445.1879,305.5799)"/>
<use xlink:href="#font_2_1" transform="matrix(16.604445,0,0,-16.604445,444.95545,322.0466)"/>
<symbol id="font_6_2">
<path d="M .24000001 .5 C .24000001 .582 .22800002 .69200006 .17600002 .80300006 C .11700001 .92600008 .024 .9990001 .011999998 .9990001 C .0020000004 .9990001 0 .99100008 0 .98800006 C 0 .98300006 .0020000004 .98 .009 .97300007 C .067 .92100009 .17700002 .785 .17700002 .5 C .17700002 .35700003 .15100001 .158 .006000001 .023000002 C .0040000008 .019999996 0 .016000003 0 .011000007 C 0 .008000001 .0020000004 0 .011999998 0 C .024 0 .11400001 .07200001 .16800002 .18100001 C .21600002 .277 .24000001 .38000003 .24000001 .5 Z "/>
</symbol>
<use xlink:href="#font_6_2" transform="matrix(24.906666,0,0,-24.906666,457.59178,322.92674)"/>
</g>
</svg>
