<?xml version="1.0" encoding="UTF-8" standalone="no"?>
<!DOCTYPE svg PUBLIC "-//W3C//DTD SVG 1.1//EN" "http://www.w3.org/Graphics/SVG/1.1/DTD/svg11.dtd">
<svg xmlns="http://www.w3.org/2000/svg" xmlns:xlink="http://www.w3.org/1999/xlink" version="1.1" width="640.25277pt" height="192.61389pt" viewBox="0 0 640.25277 192.61389">
<g enable-background="new">
<path transform="matrix(2.7777777,0,0,-2.7777777,560.9583,79.29446)" stroke-width=".3985" stroke-linecap="butt" stroke-miterlimit="10" stroke-linejoin="miter" fill="none" stroke="#000000" d="M 11.33855 0 C 11.33855 15.6557 6.26218 28.3468 0 28.3468 C -6.26218 28.3468 -11.33855 15.6557 -11.33855 0 C -11.33855 -15.6557 -6.26218 -28.3468 0 -28.3468 C 6.26218 -28.3468 11.33855 -15.6557 11.33855 0 Z M 0 0 "/>
<path transform="matrix(2.7777777,0,0,-2.7777777,560.9583,79.29446)" stroke-width=".3985" stroke-linecap="butt" stroke-miterlimit="10" stroke-linejoin="miter" fill="none" stroke="#000000" d="M -73.70187 0 C -73.70187 15.6557 -78.77824 28.3468 -85.04042 28.3468 C -91.3026 28.3468 -96.37897 15.6557 -96.37897 0 C -96.37897 -15.6557 -91.3026 -28.3468 -85.04042 -28.3468 C -78.77824 -28.3468 -73.70187 -15.6557 -73.70187 0 Z M -85.04042 0 "/>
<path transform="matrix(2.7777777,0,0,-2.7777777,560.9583,79.29446)" stroke-width=".3985" stroke-linecap="butt" stroke-miterlimit="10" stroke-linejoin="miter" fill="none" stroke="#000000" d="M -102.04869 0 C -102.04869 15.6557 -107.12505 28.3468 -113.38724 28.3468 C -119.64941 28.3468 -124.72578 15.6557 -124.72578 0 C -124.72578 -15.6557 -119.64941 -28.3468 -113.38724 -28.3468 C -107.12505 -28.3468 -102.04869 -15.6557 -102.04869 0 Z M -113.38724 0 "/>
<path transform="matrix(2.7777777,0,0,-2.7777777,560.9583,79.29446)" stroke-width=".3985" stroke-linecap="butt" stroke-miterlimit="10" stroke-linejoin="miter" fill="none" stroke="#000000" d="M -130.3955 0 C -130.3955 15.6557 -135.47187 28.3468 -141.73404 28.3468 C -147.99622 28.3468 -153.07259 15.6557 -153.07259 0 C -153.07259 -15.6557 -147.99622 -28.3468 -141.73404 -28.3468 C -135.47187 -28.3468 -130.3955 -15.6557 -130.3955 0 Z M -141.73404 0 "/>
<path transform="matrix(2.7777777,0,0,-2.7777777,560.9583,79.29446)" stroke-width=".3985" stroke-linecap="butt" stroke-miterlimit="10" stroke-linejoin="miter" fill="none" stroke="#000000" d="M -158.74231 0 C -158.74231 15.6557 -163.81867 28.3468 -170.08086 28.3468 C -176.34304 28.3468 -181.4194 15.6557 -181.4194 0 C -181.4194 -15.6557 -176.34304 -28.3468 -170.08086 -28.3468 C -163.81867 -28.3468 -158.74231 -15.6557 -158.74231 0 Z M -170.08086 0 "/>
<path transform="matrix(2.7777777,0,0,-2.7777777,560.9583,79.29446)" stroke-width=".3985" stroke-linecap="butt" stroke-dasharray="2.98883,2.98883" stroke-miterlimit="10" stroke-linejoin="miter" fill="none" stroke="#000000" d="M -198.42766 0 L 28.3468 0 "/>
<path transform="matrix(2.7777777,0,0,-2.7777777,560.9583,79.29446)" stroke-width=".3985" stroke-linecap="butt" stroke-miterlimit="10" stroke-linejoin="miter" fill="none" stroke="#000000" d="M -170.08086 28.3468 L 0 28.3468 "/>
<path transform="matrix(2.7777777,0,0,-2.7777777,560.9583,79.29446)" stroke-width=".3985" stroke-linecap="butt" stroke-miterlimit="10" stroke-linejoin="miter" fill="none" stroke="#000000" d="M -170.08086 -28.3468 L 0 -28.3468 "/>
<symbol id="font_0_2">
<path d="M .33300004 .38900004 C .31500004 .42600004 .286 .45300005 .24100001 .45300005 C .124 .45300005 0 .30600003 0 .16000001 C 0 .06600001 .055000005 0 .133 0 C .153 0 .20300001 .0040000008 .263 .075 C .27100004 .033000005 .30600003 0 .35400004 0 C .38900004 0 .41200004 .023000002 .42800004 .055000005 C .44500003 .091000009 .45800004 .15200001 .45800004 .15400002 C .45800004 .16400002 .44900004 .16400002 .44600005 .16400002 C .43600003 .16400002 .43500004 .16000001 .43200005 .14600002 C .41500003 .081 .397 .022000002 .35600005 .022000002 C .32900004 .022000002 .32600004 .048 .32600004 .068 C .32600004 .09 .32800005 .098000008 .33900003 .14200002 C .35000003 .18400002 .35200004 .19400002 .36100004 .23200003 L .397 .37200005 C .40400005 .40000005 .40400005 .40200005 .40400005 .40600003 C .40400005 .42300005 .39200003 .43300004 .37500004 .43300004 C .35100005 .43300004 .33600004 .411 .33300004 .38900004 M .26800005 .13000001 C .263 .112 .263 .11000001 .24800001 .093 C .20400001 .038000004 .163 .022000002 .135 .022000002 C .08499999 .022000002 .07100001 .077 .07100001 .116000007 C .07100001 .16600001 .103 .28900004 .126 .335 C .157 .39400003 .202 .43100003 .242 .43100003 C .307 .43100003 .32100005 .34900005 .32100005 .34300003 C .32100005 .337 .31900005 .33100004 .31800003 .32600004 L .26800005 .13000001 Z "/>
</symbol>
<use xlink:href="#font_0_2" transform="matrix(27.673888,0,0,-27.673888,82.30974,180.04332)"/>
<symbol id="font_0_3">
<path d="M .192 .694 C .192 .695 .192 .705 .179 .705 C .156 .705 .083000008 .697 .057 .695 C .049 .694 .038 .693 .038 .675 C .038 .663 .047000003 .663 .062000004 .663 C .11 .663 .112 .656 .112 .646 C .112 .639 .103 .605 .098000008 .584 L .015999999 .25800003 C .0040000008 .20800002 0 .19200002 0 .15700002 C 0 .062000004 .053 0 .127 0 C .24500002 0 .36800004 .14900002 .36800004 .293 C .36800004 .38400004 .31500004 .45300005 .235 .45300005 C .18900001 .45300005 .148 .42400003 .118 .39300005 L .192 .694 M .098000008 .316 C .104 .33800004 .104 .34000004 .113000009 .351 C .162 .41600005 .207 .43100003 .233 .43100003 C .26900003 .43100003 .29600004 .40100003 .29600004 .337 C .29600004 .27800004 .263 .16300002 .24500002 .12500002 C .212 .058000003 .16600001 .022000002 .127 .022000002 C .092999998 .022000002 .060000007 .049000004 .060000007 .123 C .060000007 .14200002 .060000007 .16100002 .076000008 .22400002 L .098000008 .316 Z "/>
</symbol>
<use xlink:href="#font_0_3" transform="matrix(27.673888,0,0,-27.673888,556.3201,183.6933)"/>
<symbol id="font_0_4">
<path d="M .305 .31300003 C .311 .33900003 .334 .43100003 .404 .43100003 C .409 .43100003 .433 .43100003 .454 .418 C .426 .41300003 .40600003 .388 .40600003 .36400003 C .40600003 .34800003 .417 .32900004 .444 .32900004 C .46600003 .32900004 .498 .34700004 .498 .38700003 C .498 .43900005 .439 .45300005 .405 .45300005 C .347 .45300005 .312 .40000005 .3 .37700004 C .275 .44300003 .221 .45300005 .19200002 .45300005 C .08800001 .45300005 .031000002 .32400004 .031000002 .29900003 C .031000002 .28900004 .041 .28900004 .043000007 .28900004 C .051000008 .28900004 .054000006 .291 .056 .3 C .09 .40600003 .156 .43100003 .19000001 .43100003 C .209 .43100003 .244 .42200003 .244 .36400003 C .244 .33300004 .22700002 .26600004 .19000001 .126 C .17400001 .064 .13900002 .022000002 .095000009 .022000002 C .08900001 .022000002 .06600001 .022000002 .045 .035 C .07000001 .040000004 .09200001 .061 .09200001 .089 C .09200001 .116000007 .07000001 .124000009 .055000009 .124000009 C .025 .124000009 0 .098000008 0 .06600001 C 0 .020000002 .050000006 0 .094000007 0 C .16000001 0 .19600001 .07000001 .19900002 .076000008 C .21100001 .039 .24700003 0 .307 0 C .41 0 .467 .12900001 .467 .15400002 C .467 .16400002 .458 .16400002 .455 .16400002 C .446 .16400002 .444 .16000001 .442 .15300001 C .409 .046 .341 .022000002 .30900003 .022000002 C .27 .022000002 .254 .054 .254 .08800001 C .254 .11000001 .26 .13200002 .271 .17600002 L .305 .31300003 Z "/>
</symbol>
<use xlink:href="#font_0_4" transform="matrix(27.673888,0,0,-27.673888,153.94423,177.9683)"/>
<symbol id="font_1_1">
<path d="M .22600001 .63600006 C .22600001 .66300007 .224 .66400006 .19600001 .66400006 C .132 .601 .041 .6 0 .6 L 0 .564 C .023999997 .564 .09000001 .564 .14500001 .592 L .14500001 .082 C .14500001 .049000004 .14500001 .036000004 .04500001 .036000004 L .0069999995 .036000004 L .0069999995 0 C .024999999 .001 .148 .004 .185 .004 C .21600002 .004 .34200005 .001 .36400003 0 L .36400003 .036000004 L .32600004 .036000004 C .22600001 .036000004 .22600001 .049000004 .22600001 .082 L .22600001 .63600006 Z "/>
</symbol>
<use xlink:href="#font_1_1" transform="matrix(19.371666,0,0,-19.371666,171.06987,181.81389)"/>
<use xlink:href="#font_0_4" transform="matrix(27.673888,0,0,-27.673888,232.68587,177.9683)"/>
<symbol id="font_1_2">
<path d="M .442 .18200001 L .40800003 .18200001 C .40500004 .16000001 .39500005 .101 .38200004 .091000009 C .374 .085 .29700003 .085 .28300003 .085 L .099 .085 C .20400003 .178 .23900002 .20600002 .29900003 .25300003 C .37300004 .312 .442 .374 .442 .469 C .442 .59000006 .33600004 .66400006 .20800004 .66400006 C .084 .66400006 0 .577 0 .485 C 0 .43400003 .043000007 .42900003 .053000004 .42900003 C .077 .42900003 .10600001 .446 .10600001 .48200003 C .10600001 .5 .099 .535 .047000007 .535 C .078 .606 .146 .628 .19300002 .628 C .293 .628 .34500004 .55 .34500004 .469 C .34500004 .38200004 .28300003 .31300003 .25100003 .277 L .010000005 .039 C 0 .030000002 0 .028 0 0 L .41200004 0 L .442 .18200001 Z "/>
</symbol>
<use xlink:href="#font_1_2" transform="matrix(19.371666,0,0,-19.371666,248.92041,181.81389)"/>
<use xlink:href="#font_0_4" transform="matrix(27.673888,0,0,-27.673888,311.42478,177.9683)"/>
<symbol id="font_1_3">
<path d="M .219 .35400004 C .29700003 .35400004 .35300002 .3 .35300002 .193 C .35300002 .069000009 .28100003 .032 .223 .032 C .18300002 .032 .095 .043000007 .053000008 .102000009 C .10000001 .10400001 .111 .13700001 .111 .158 C .111 .19 .087 .213 .056000007 .213 C .028 .213 0 .19600001 0 .155 C 0 .061000006 .104 0 .22500001 0 C .36400003 0 .46 .09300001 .46 .193 C .46 .27100004 .39600004 .34900005 .286 .37200005 C .39100004 .41000004 .42900003 .48500005 .42900003 .546 C .42900003 .625 .33800004 .684 .22700002 .684 C .116 .684 .031 .63 .031 .55 C .031 .51600006 .053000008 .49700005 .083000008 .49700005 C .11400001 .49700005 .134 .52 .134 .548 C .134 .577 .11400001 .598 .083000008 .6 C .118 .644 .187 .65500006 .22400002 .65500006 C .26900003 .65500006 .33200003 .633 .33200003 .546 C .33200003 .504 .31800003 .45800004 .29200004 .42700003 C .25900004 .38900004 .23100002 .38700003 .18100001 .38400004 C .156 .38200004 .154 .38200004 .149 .38100005 C .147 .38100005 .139 .37900005 .139 .36800004 C .139 .35400004 .148 .35400004 .165 .35400004 L .219 .35400004 Z "/>
</symbol>
<use xlink:href="#font_1_3" transform="matrix(19.371666,0,0,-19.371666,327.485,182.20133)"/>
<symbol id="font_0_1">
<path d="M .59300008 .71700009 C .59300008 .72 .591 .72700008 .582 .72700008 C .577 .72700008 .57600006 .7260001 .56400009 .7120001 L .51600006 .65500006 C .49000008 .702 .43800003 .72700008 .37300004 .72700008 C .246 .72700008 .126 .61200007 .126 .49100004 C .126 .41000004 .179 .36400003 .23 .34900005 L .337 .32100005 C .374 .31200005 .42900003 .29700003 .42900003 .215 C .42900003 .12500002 .347 .031000004 .24900003 .031000004 C .18500002 .031000004 .074 .053000004 .074 .177 C .074 .201 .07900001 .22500001 .08 .231 C .081 .23500002 .082 .23600002 .082 .238 C .082 .24800001 .075 .24900002 .07000001 .24900002 C .065000008 .24900002 .063 .24800001 .060000004 .245 C .056 .24100001 0 .013000001 0 .010000002 C 0 .0040000008 .0050000029 0 .011 0 C .016000003 0 .017000005 .0010000002 .029 .0150000019 L .07800001 .072000008 C .12100001 .014000001 .18900001 0 .24700003 0 C .38300003 0 .50100007 .13300002 .50100007 .25700004 C .50100007 .32600004 .46700008 .36000005 .45200003 .37400005 C .42900003 .39700005 .41400004 .40100003 .325 .42400003 C .30300004 .43000005 .26700003 .44000004 .25800003 .44200004 C .23100002 .45100004 .19700001 .48000006 .19700001 .53300008 C .19700001 .614 .277 .69900009 .37200005 .69900009 C .45500005 .69900009 .51600006 .656 .51600006 .544 C .51600006 .512 .512 .49400006 .512 .48800005 C .512 .48700006 .512 .47800005 .52400007 .47800005 C .53400006 .47800005 .535 .48100005 .53900006 .49800004 L .59300008 .71700009 Z "/>
</symbol>
<use xlink:href="#font_0_1" transform="matrix(27.673888,0,0,-27.673888,75.26407,142.4005)"/>
<use xlink:href="#font_1_1" transform="matrix(19.371666,0,0,-19.371666,92.90598,145.94167)"/>
<use xlink:href="#font_0_1" transform="matrix(27.673888,0,0,-27.673888,154.00574,142.4005)"/>
<use xlink:href="#font_1_2" transform="matrix(19.371666,0,0,-19.371666,170.75655,145.94167)"/>
<use xlink:href="#font_0_1" transform="matrix(27.673888,0,0,-27.673888,232.7446,142.4005)"/>
<use xlink:href="#font_1_3" transform="matrix(19.371666,0,0,-19.371666,249.32106,146.3291)"/>
<use xlink:href="#font_0_1" transform="matrix(27.673888,0,0,-27.673888,311.4863,142.4005)"/>
<symbol id="font_1_4">
<path d="M .49000005 .164 L .49000005 .2 L .379 .2 L .379 .646 C .379 .66700008 .379 .674 .35700003 .674 C .345 .674 .34100003 .674 .331 .66 L 0 .2 L 0 .164 L .294 .164 L .294 .082 C .294 .048 .294 .036000004 .213 .036000004 L .186 .036000004 L .186 0 C .236 .002 .3 .004 .33600004 .004 C .37300004 .004 .437 .002 .48700003 0 L .48700003 .036000004 L .46 .036000004 C .379 .036000004 .379 .048 .379 .082 L .379 .164 L .49000005 .164 M .301 .56600007 L .301 .2 L .037000006 .2 L .301 .56600007 Z "/>
</symbol>
<use xlink:href="#font_1_4" transform="matrix(19.371666,0,0,-19.371666,327.7722,145.94167)"/>
</g>
</svg>
