<?xml version="1.0" encoding="UTF-8" standalone="no"?>
<!DOCTYPE svg PUBLIC "-//W3C//DTD SVG 1.1//EN" "http://www.w3.org/Graphics/SVG/1.1/DTD/svg11.dtd">
<svg xmlns="http://www.w3.org/2000/svg" xmlns:xlink="http://www.w3.org/1999/xlink" version="1.1" width="682.38888pt" height="934.48886pt" viewBox="0 0 682.38888 934.48886">
<g enable-background="new">
<path transform="matrix(2.7777777,0,0,-2.7777777,57.02222,343.38328)" d="M 85.04042 0 C 85.04042 0 87.59987 13.95122 88.58287 17.35684 C 89.56586 20.76247 91.14236 22.78271 92.12535 24.54565 C 93.10834 26.3086 94.68484 28.65233 95.66783 30.06311 C 96.65083 31.47388 98.22733 33.5001 99.21033 34.71373 C 100.19331 35.92734 101.76982 37.72809 102.7528 38.81032 C 103.7358 39.89255 105.3123 41.52711 106.2953 42.5137 C 107.27829 43.5003 108.8548 45.00862 109.83778 45.92125 C 110.82077 46.83386 112.39728 48.2383 113.38026 49.09131 C 114.36327 49.94434 115.93976 51.2653 116.92276 52.06934 C 117.90575 52.87337 119.48225 54.12402 120.46524 54.88646 C 121.44823 55.6489 123.02473 56.83789 124.00774 57.56471 C 124.99072 58.29153 126.56723 59.42905 127.55022 60.1249 C 128.5332 60.82076 130.10971 61.9117 131.0927 62.58 C 132.0757 63.2483 133.65219 64.29765 134.6352 64.94167 C 135.61818 65.58566 137.19469 66.59935 138.17768 67.22154 C 139.16066 67.84375 140.73717 68.82382 141.72017 69.42622 C 142.70316 70.02864 144.27967 70.97897 145.26265 71.56337 C 146.24564 72.14777 147.82215 73.0706 148.80513 73.63826 C 149.78813 74.20592 151.36464 75.10225 152.34763 75.65477 C 153.33061 76.20728 154.90712 77.08182 155.8901 77.62065 C 156.8731 78.15948 158.4496 79.01282 159.4326 79.53853 C 160.41559 80.06422 161.9921 80.89626 162.97509 81.40968 C 163.95807 81.92313 165.53458 82.73718 166.51757 83.2393 C 167.50057 83.74142 170.06006 85.0287 170.06006 85.0287 L 170.08086 0 L 85.04042 0 " fill="#0000ff" fill-opacity=".5"/>
<path transform="matrix(2.7777777,0,0,-2.7777777,57.02222,343.38328)" stroke-width=".3985" stroke-linecap="butt" stroke-miterlimit="10" stroke-linejoin="miter" fill="none" stroke="#000000" d="M -17.00781 0 L 212.14276 0 "/>
<path transform="matrix(2.7777777,0,0,-2.7777777,646.3076,343.38328)" stroke-width=".31879" stroke-linecap="round" stroke-linejoin="round" fill="none" stroke="#000000" d="M -1.19551 1.59401 C -1.09587 .99626 0 .09961 .29886 0 C 0 -.09961 -1.09587 -.99626 -1.19551 -1.59401 "/>
<symbol id="font_0_1">
<path d="M .305 .31300003 C .311 .33900003 .334 .43100003 .404 .43100003 C .409 .43100003 .433 .43100003 .454 .418 C .426 .41300003 .40600003 .388 .40600003 .36400003 C .40600003 .34800003 .417 .32900004 .444 .32900004 C .46600003 .32900004 .498 .34700004 .498 .38700003 C .498 .43900005 .439 .45300005 .405 .45300005 C .347 .45300005 .312 .40000005 .3 .37700004 C .275 .44300003 .221 .45300005 .19200002 .45300005 C .08800001 .45300005 .031000002 .32400004 .031000002 .29900003 C .031000002 .28900004 .041 .28900004 .043000007 .28900004 C .051000008 .28900004 .054000006 .291 .056 .3 C .09 .40600003 .156 .43100003 .19000001 .43100003 C .209 .43100003 .244 .42200003 .244 .36400003 C .244 .33300004 .22700002 .26600004 .19000001 .126 C .17400001 .064 .13900002 .022000002 .095000009 .022000002 C .08900001 .022000002 .06600001 .022000002 .045 .035 C .07000001 .040000004 .09200001 .061 .09200001 .089 C .09200001 .116000007 .07000001 .124000009 .055000009 .124000009 C .025 .124000009 0 .098000008 0 .06600001 C 0 .020000002 .050000006 0 .094000007 0 C .16000001 0 .19600001 .07000001 .19900002 .076000008 C .21100001 .039 .24700003 0 .307 0 C .41 0 .467 .12900001 .467 .15400002 C .467 .16400002 .458 .16400002 .455 .16400002 C .446 .16400002 .444 .16000001 .442 .15300001 C .409 .046 .341 .022000002 .30900003 .022000002 C .27 .022000002 .254 .054 .254 .08800001 C .254 .11000001 .26 .13200002 .271 .17600002 L .305 .31300003 Z "/>
</symbol>
<use xlink:href="#font_0_1" transform="matrix(27.673888,0,0,-27.673888,658.1525,349.64604)"/>
<path transform="matrix(2.7777777,0,0,-2.7777777,57.02222,343.38328)" stroke-width=".3985" stroke-linecap="butt" stroke-miterlimit="10" stroke-linejoin="miter" fill="none" stroke="#000000" d="M 0 -1.70114 L 0 110.09451 "/>
<path transform="matrix(0,-2.7777777,-2.7777777,-0,57.02222,37.56519)" stroke-width=".31879" stroke-linecap="round" stroke-linejoin="round" fill="none" stroke="#000000" d="M -1.19551 1.59401 C -1.09587 .99626 0 .09961 .29886 0 C 0 -.09961 -1.09587 -.99626 -1.19551 -1.59401 "/>
<symbol id="font_0_2">
<path d="M .45700003 .586 C .461 .6 .461 .602 .461 .609 C .461 .62700006 .447 .63600006 .432 .63600006 C .42200003 .63600006 .40600003 .63 .397 .615 C .395 .61 .387 .579 .38300003 .561 C .37600003 .535 .36900003 .508 .363 .48100005 L .318 .301 C .314 .286 .271 .21600002 .20500002 .21600002 C .15400002 .21600002 .143 .26000003 .143 .29700003 C .143 .34300003 .16000001 .40500004 .194 .49300004 C .21000001 .53400006 .21400002 .545 .21400002 .56500008 C .21400002 .61 .18200001 .6470001 .13200002 .6470001 C .037 .6470001 0 .50200006 0 .49300004 C 0 .48300005 .01 .48300005 .012 .48300005 C .022000002 .48300005 .023 .485 .028000003 .50100007 C .055000009 .595 .095000009 .625 .12900001 .625 C .13700001 .625 .15400002 .625 .15400002 .59300008 C .15400002 .568 .14400001 .54200008 .13700001 .523 C .097 .41700004 .079 .36 .079 .31300003 C .079 .224 .142 .194 .201 .194 C .24000003 .194 .274 .21100001 .30200003 .23900002 C .289 .187 .277 .13800001 .237 .08500001 C .21100001 .051 .17300001 .022 .127 .022 C .113000009 .022 .068 .025000006 .051000008 .06400001 C .067 .06400001 .080000009 .06400001 .094000007 .076000008 C .104 .08500001 .11400001 .098000008 .11400001 .117000009 C .11400001 .148 .087000008 .15200001 .07700001 .15200001 C .054000006 .15200001 .021 .136 .021 .087000008 C .021 .037 .065000008 0 .127 0 C .23 0 .333 .091000009 .361 .20400001 L .45700003 .586 Z "/>
</symbol>
<use xlink:href="#font_0_2" transform="matrix(27.673888,0,0,-27.673888,50.54421,26.812003)"/>
<path transform="matrix(2.7777777,0,0,-2.7777777,57.02222,343.38328)" stroke-width=".3985" stroke-linecap="butt" stroke-miterlimit="10" stroke-linejoin="miter" fill="none" stroke="#ff6666" d="M 195.59322 -17.00781 C 188.9608 -17.00781 188.9608 17.00781 195.59322 17.00781 "/>
<path transform="matrix(2.7777777,0,0,-2.7777777,57.02222,343.38328)" stroke-width=".3985" stroke-linecap="butt" stroke-miterlimit="10" stroke-linejoin="miter" fill="none" stroke="#ff6666" d="M 195.59322 17.00781 C 198.53804 17.00781 199.84552 5.49591 199.84552 6.13763 "/>
<path transform="matrix(0,2.7777777,2.7777777,0,612.1486,326.33433)" d="M 3.58653 0 C 2.52383 .19925 .797 .797 -.3985 1.49438 L -.3985 -1.49438 C .797 -.797 2.52383 -.19925 3.58653 0 " fill="#ff6666"/>
<path transform="matrix(2.7777777,0,0,-2.7777777,57.02222,343.38328)" stroke-width=".3985" stroke-linecap="butt" stroke-miterlimit="10" stroke-linejoin="miter" fill="none" stroke="#ff6666" d="M 195.59322 -17.00781 C 198.53804 -17.00781 199.84552 -5.49591 199.84552 -2.5511 "/>
<path transform="matrix(2.7777777,0,0,-2.7777777,57.02222,343.38328)" stroke-width=".3985" stroke-linecap="butt" stroke-miterlimit="10" stroke-linejoin="miter" fill="none" stroke="#000080" d="M 85.04042 0 C 85.04042 0 87.59987 13.95122 88.58287 17.35684 C 89.56586 20.76247 91.14236 22.78271 92.12535 24.54565 C 93.10834 26.3086 94.68484 28.65233 95.66783 30.06311 C 96.65083 31.47388 98.22733 33.5001 99.21033 34.71373 C 100.19331 35.92734 101.76982 37.72809 102.7528 38.81032 C 103.7358 39.89255 105.3123 41.52711 106.2953 42.5137 C 107.27829 43.5003 108.8548 45.00862 109.83778 45.92125 C 110.82077 46.83386 112.39728 48.2383 113.38026 49.09131 C 114.36327 49.94434 115.93976 51.2653 116.92276 52.06934 C 117.90575 52.87337 119.48225 54.12402 120.46524 54.88646 C 121.44823 55.6489 123.02473 56.83789 124.00774 57.56471 C 124.99072 58.29153 126.56723 59.42905 127.55022 60.1249 C 128.5332 60.82076 130.10971 61.9117 131.0927 62.58 C 132.0757 63.2483 133.65219 64.29765 134.6352 64.94167 C 135.61818 65.58566 137.19469 66.59935 138.17768 67.22154 C 139.16066 67.84375 140.73717 68.82382 141.72017 69.42622 C 142.70316 70.02864 144.27967 70.97897 145.26265 71.56337 C 146.24564 72.14777 147.82215 73.0706 148.80513 73.63826 C 149.78813 74.20592 151.36464 75.10225 152.34763 75.65477 C 153.33061 76.20728 154.90712 77.08182 155.8901 77.62065 C 156.8731 78.15948 158.4496 79.01282 159.4326 79.53853 C 160.41559 80.06422 161.9921 80.89626 162.97509 81.40968 C 163.95807 81.92313 165.53458 82.73718 166.51757 83.2393 C 167.50057 83.74142 170.06006 85.0287 170.06006 85.0287 "/>
<path transform="matrix(2.7777777,0,0,-2.7777777,57.02222,343.38328)" stroke-width=".3985" stroke-linecap="butt" stroke-miterlimit="10" stroke-linejoin="miter" fill="none" stroke="#000080" d="M 170.08086 0 C 170.08086 0 170.08086 2.55945 170.08086 3.54243 C 170.08086 4.52542 170.08086 6.10193 170.08086 7.08492 C 170.08086 8.06792 170.08086 9.64441 170.08086 10.62741 C 170.08086 11.6104 170.08086 13.1869 170.08086 14.16989 C 170.08086 15.15288 170.08086 16.72939 170.08086 17.71239 C 170.08086 18.69537 170.08086 20.27188 170.08086 21.25487 C 170.08086 22.23785 170.08086 23.81436 170.08086 24.79735 C 170.08086 25.78035 170.08086 27.35684 170.08086 28.33984 C 170.08086 29.32283 170.08086 30.89934 170.08086 31.88232 C 170.08086 32.86531 170.08086 34.44182 170.08086 35.42482 C 170.08086 36.4078 170.08086 37.98431 170.08086 38.9673 C 170.08086 39.95029 170.08086 41.5268 170.08086 42.50978 C 170.08086 43.49278 170.08086 45.06927 170.08086 46.05228 C 170.08086 47.03526 170.08086 48.61177 170.08086 49.59476 C 170.08086 50.57774 170.08086 52.15425 170.08086 53.13725 C 170.08086 54.12024 170.08086 55.69675 170.08086 56.67973 C 170.08086 57.66272 170.08086 59.23923 170.08086 60.22221 C 170.08086 61.20522 170.08086 62.78172 170.08086 63.76471 C 170.08086 64.7477 170.08086 66.3242 170.08086 67.30719 C 170.08086 68.29018 170.08086 69.86668 170.08086 70.84969 C 170.08086 71.83267 170.08086 73.40918 170.08086 74.39217 C 170.08086 75.37515 170.08086 76.95166 170.08086 77.93465 C 170.08086 78.91765 170.08086 80.49416 170.08086 81.47714 C 170.08086 82.46013 170.08086 85.01962 170.08086 85.01962 "/>
<symbol id="font_1_1">
<path d="M .328 .60200008 L .421 .60200008 C .441 .60200008 .453 .60200008 .453 .62100008 C .453 .63500007 .44000004 .63500007 .423 .63500007 L .33400003 .63500007 C .35000003 .725 .36 .782 .37 .827 C .374 .84400007 .377 .855 .39200003 .86700007 C .405 .878 .41300003 .88000008 .42400003 .88000008 C .439 .88000008 .45500005 .87700006 .468 .869 C .463 .86700007 .45700003 .864 .45200003 .861 C .435 .852 .423 .83400008 .423 .814 C .423 .791 .441 .777 .463 .777 C .49200005 .777 .519 .80200007 .519 .837 C .519 .884 .47100003 .90800008 .423 .90800008 C .38900004 .90800008 .326 .892 .294 .8 C .285 .777 .285 .77500006 .25800003 .63500007 L .183 .63500007 C .163 .63500007 .15100001 .63500007 .15100001 .61600008 C .15100001 .60200008 .164 .60200008 .18100001 .60200008 L .252 .60200008 L .18 .21400002 C .161 .113000009 .146 .027999998 .092999998 .027999998 C .09 .027999998 .069000009 .027999998 .05 .040000008 C .096 .051 .096 .093 .096 .094000007 C .096 .117000009 .077999997 .13100001 .056000007 .13100001 C .029000003 .13100001 0 .10800001 0 .07000001 C 0 .027999998 .043 0 .092999998 0 C .154 0 .19600001 .06400001 .20899999 .08900001 C .245 .155 .268 .28000004 .27 .29000003 L .328 .60200008 Z "/>
</symbol>
<use xlink:href="#font_1_1" transform="matrix(22.139166,0,0,-22.139166,411.84263,155.42459)"/>
<symbol id="font_2_1">
<path d="M .22999999 0 C .238 0 .25 0 .25 .0119999949 C .25 .015999988 .24900002 .01699999 .236 .029999987 C .099 .159 .065000008 .345 .065000008 .5 C .065000008 .78800007 .18399999 .92300006 .23500002 .96900007 C .24900002 .98200008 .25 .98300006 .25 .98800006 C .25 .99300006 .24599999 1 .236 1 C .22 1 .16999999 .94900009 .162 .94000008 C .028000005 .8 0 .62 0 .5 C 0 .276 .094000007 .095999989 .22999999 0 Z "/>
</symbol>
<use xlink:href="#font_2_1" transform="matrix(22.139166,0,0,-22.139166,426.647,156.443)"/>
<symbol id="font_1_2">
<path d="M .46900005 .409 C .425 .398 .423 .359 .423 .35500003 C .423 .333 .44000004 .31800003 .462 .31800003 C .48400004 .31800003 .518 .335 .518 .37800003 C .518 .435 .455 .451 .418 .451 C .37100003 .451 .333 .418 .31 .379 C .28800003 .432 .236 .451 .19500001 .451 C .08600001 .451 .025000003 .326 .025000003 .298 C .025000003 .289 .032 .285 .040000004 .285 C .052000006 .285 .054 .29 .057 .30200003 C .08 .375 .14 .423 .192 .423 C .231 .423 .25 .395 .25 .359 C .25 .33900003 .238 .293 .23000002 .261 C .22300002 .23200003 .201 .143 .19600001 .124000009 C .18200001 .07 .146 .028 .100999999 .028 C .097 .028 .07100001 .028 .05 .042000005 C .096 .053000004 .096 .095 .096 .096 C .096 .119 .07800001 .133 .056000007 .133 C .029000003 .133 0 .11 0 .072000008 C 0 .026 .049 0 .099999997 0 C .153 0 .19000001 .040000004 .208 .072000008 C .23000002 .023000002 .27600003 0 .324 0 C .43300004 0 .49300004 .125 .49300004 .15300001 C .49300004 .16300002 .485 .16600001 .47800005 .16600001 C .46600003 .16600001 .46400003 .15900001 .46100004 .14900002 C .441 .082 .384 .028 .326 .028 C .293 .028 .26900003 .050000006 .26900003 .092 C .26900003 .112 .275 .135 .289 .19100002 C .296 .22100002 .31800003 .30900003 .323 .328 C .337 .38 .372 .423 .41700004 .423 C .42200003 .423 .448 .423 .46900005 .409 Z "/>
</symbol>
<use xlink:href="#font_1_2" transform="matrix(22.139166,0,0,-22.139166,434.22236,151.1296)"/>
<symbol id="font_2_2">
<path d="M .24900002 .5 C .24900002 .595 .23300001 .709 .171 .827 C .12200001 .919 .031000004 1 .013000004 1 C .0029999987 1 0 .99300006 0 .98800006 C 0 .984 0 .98200008 .012000002 .97 C .15200001 .837 .18400002 .65400007 .18400002 .5 C .18400002 .213 .065 .07699999 .013999999 .030999989 C .001000002 .017999992 0 .01699999 0 .0119999949 C 0 .0069999846 .0029999987 0 .013000004 0 C .029 0 .07900001 .050999986 .087 .059999989 C .22100002 .2 .24900002 .38 .24900002 .5 Z "/>
</symbol>
<use xlink:href="#font_2_2" transform="matrix(22.139166,0,0,-22.139166,448.0839,156.443)"/>
<symbol id="font_3_1">
<path d="M .34000004 .39100004 C .321 .42700003 .29000003 .45300005 .245 .45300005 C .12900001 .45300005 0 .31500004 0 .16200002 C 0 .052 .07 0 .137 0 C .20200002 0 .25500003 .054 .27100004 .07300001 C .282 .018000002 .33200003 0 .36400003 0 C .39300005 0 .418 .013000001 .44000004 .055000005 C .458 .08800001 .472 .15000002 .472 .15400002 C .472 .15900001 .46900005 .16600001 .45900006 .16600001 C .44700004 .16600001 .44600005 .16100002 .44200004 .14200002 C .42000003 .055000005 .39800004 .025000003 .367 .025000003 C .342 .025000003 .33600004 .049000004 .33600004 .071 C .33600004 .09 .34100003 .11000001 .35000003 .14500001 L .37500004 .24800003 C .38200004 .27300004 .40000005 .34800003 .404 .36300005 C .40800003 .37700004 .41400004 .40100003 .41400004 .404 C .41400004 .42000003 .40100003 .43300004 .38300003 .43300004 C .37000004 .43300004 .34500004 .42500005 .34000004 .39100004 M .275 .13300002 C .27 .11400001 .27 .113000009 .254 .094000007 C .21800003 .051000004 .17700002 .025000003 .14000002 .025000003 C .091 .025000003 .074 .076000008 .074 .119 C .074 .16800002 .10300001 .28300003 .127 .33100004 C .15900001 .39100004 .20500002 .42800004 .245 .42800004 C .312 .42800004 .32700003 .34800003 .32700003 .34100003 C .32700003 .33600004 .32500003 .33 .32400004 .32600004 L .275 .13300002 Z "/>
</symbol>
<use xlink:href="#font_3_1" transform="matrix(24.906666,0,0,-24.906666,287.50718,364.16004)"/>
<symbol id="font_3_2">
<path d="M .192 .671 C .19600001 .685 .19600001 .68700006 .19600001 .691 C .19600001 .7 .19000001 .705 .18100001 .705 C .16700001 .705 .078999999 .697 .059000005 .695 C .049 .694 .038 .693 .038 .676 C .038 .663 .049 .663 .065 .663 C .112 .663 .112 .656 .112 .647 C .112 .64100006 .112 .639 .105000007 .612 L .052000006 .40100003 C .038 .34500004 .025000003 .29400004 .014000002 .24700003 C .0069999995 .22200002 0 .19200002 0 .16000001 C 0 .074 .048000006 0 .134 0 C .25100003 0 .37900005 .14100002 .37900005 .291 C .37900005 .39300005 .316 .45300005 .24100001 .45300005 C .19000001 .45300005 .146 .418 .122999999 .39600004 L .192 .671 M .109 .33900003 C .13700001 .37900005 .18800001 .42800004 .23900001 .42800004 C .286 .42800004 .30500005 .381 .30500005 .33400003 C .30500005 .28900004 .277 .16500002 .246 .112 C .209 .048 .165 .025000003 .134 .025000003 C .08400001 .025000003 .06400001 .075 .06400001 .126 C .06400001 .16100002 .07100001 .18800001 .094 .279 L .109 .33900003 Z "/>
</symbol>
<use xlink:href="#font_3_2" transform="matrix(24.906666,0,0,-24.906666,525.1484,370.73219)"/>
<path transform="matrix(2.7777777,0,0,-2.7777777,57.02222,343.38328)" stroke-width=".3985" stroke-linecap="butt" stroke-miterlimit="10" stroke-linejoin="miter" fill="none" stroke="#000000" d="M -17.00781 -127.56065 L 212.14276 -127.56065 "/>
<path transform="matrix(2.7777777,0,0,-2.7777777,646.3076,697.7184)" stroke-width=".31879" stroke-linecap="round" stroke-linejoin="round" fill="none" stroke="#000000" d="M -1.19551 1.59401 C -1.09587 .99626 0 .09961 .29886 0 C 0 -.09961 -1.09587 -.99626 -1.19551 -1.59401 "/>
<use xlink:href="#font_0_1" transform="matrix(27.673888,0,0,-27.673888,658.1525,703.97659)"/>
<path transform="matrix(2.7777777,0,0,-2.7777777,57.02222,343.38328)" stroke-width=".3985" stroke-linecap="butt" stroke-miterlimit="10" stroke-linejoin="miter" fill="none" stroke="#000000" d="M 0 -129.26181 L 0 -17.46614 "/>
<path transform="matrix(0,-2.7777777,-2.7777777,-0,57.02222,391.90034)" stroke-width=".31879" stroke-linecap="round" stroke-linejoin="round" fill="none" stroke="#000000" d="M -1.19551 1.59401 C -1.09587 .99626 0 .09961 .29886 0 C 0 -.09961 -1.09587 -.99626 -1.19551 -1.59401 "/>
<use xlink:href="#font_0_2" transform="matrix(27.673888,0,0,-27.673888,50.54421,381.14247)"/>
<use xlink:href="#font_3_2" transform="matrix(24.906666,0,0,-24.906666,525.1484,725.0628)"/>
<use xlink:href="#font_3_1" transform="matrix(24.906666,0,0,-24.906666,287.50718,718.4906)"/>
<path transform="matrix(2.7777777,0,0,-2.7777777,57.02222,343.38328)" d="M 85.04042 -127.56065 C 85.04042 -127.56065 87.59987 -113.60944 88.58287 -110.20381 C 89.56586 -106.79819 91.14236 -104.77794 92.12535 -103.015 C 93.10834 -101.25206 94.68484 -98.90833 95.66783 -97.49754 C 96.65083 -96.08678 98.22733 -94.06055 99.21033 -92.84692 C 100.19331 -91.6333 101.76982 -89.83255 102.7528 -88.75032 C 103.7358 -87.6681 105.3123 -86.03354 106.2953 -85.04694 C 107.27829 -84.06035 108.8548 -82.55203 109.83778 -81.6394 C 110.82077 -80.72679 112.39728 -79.32236 113.38026 -78.46933 C 114.36327 -77.61632 115.93976 -76.29535 116.92276 -75.49132 C 117.90575 -74.68729 119.48225 -73.43663 120.46524 -72.6742 C 121.44823 -71.91174 123.02473 -70.72276 124.00774 -69.99594 C 124.99072 -69.26912 126.56723 -68.1316 127.55022 -67.43576 C 128.5332 -66.7399 130.10971 -65.64896 131.0927 -64.98065 C 132.0757 -64.31235 133.65219 -63.263 134.6352 -62.61899 C 135.61818 -61.97499 137.19469 -60.9613 138.17768 -60.33911 C 139.16066 -59.7169 140.73717 -58.73683 141.72017 -58.13443 C 142.70316 -57.53201 144.27967 -56.58168 145.26265 -55.99728 C 146.24564 -55.41289 147.82215 -54.49005 148.80513 -53.9224 C 149.78813 -53.35474 151.36464 -52.4584 152.34763 -51.90588 C 153.33061 -51.35336 154.90712 -50.47884 155.8901 -49.94 C 156.8731 -49.40117 158.4496 -48.54784 159.4326 -48.02213 C 160.41559 -47.49643 161.9921 -46.6644 162.97509 -46.15097 C 163.95807 -45.63753 165.53458 -44.82347 166.51757 -44.32135 C 167.50057 -43.81923 170.06006 -42.53195 170.06006 -42.53195 C 165.04746 -42.53195 161.57627 -122.54807 161.57627 -127.56065 L 85.04042 -127.56065 " fill="#8080ff"/>
<path transform="matrix(2.7777777,0,0,-2.7777777,57.02222,343.38328)" d="M 85.04042 -127.56065 C 85.04042 -127.56065 87.59987 -141.51189 88.58287 -144.9175 C 89.56586 -148.32312 91.14236 -150.34339 92.12535 -152.10633 C 93.10834 -153.86927 94.68484 -156.213 95.66783 -157.62378 C 96.65083 -159.03455 98.22733 -161.06078 99.21033 -162.2744 C 100.19331 -163.488 101.76982 -165.28876 102.7528 -166.37099 C 103.7358 -167.45322 105.3123 -169.08779 106.2953 -170.07437 C 107.27829 -171.06098 108.8548 -172.56929 109.83778 -173.48192 C 110.82077 -174.39453 112.39728 -175.79897 113.38026 -176.65198 C 114.36327 -177.50499 115.93976 -178.82598 116.92276 -179.63 C 117.90575 -180.43404 119.48225 -181.6847 120.46524 -182.44713 C 121.44823 -183.20957 123.02473 -184.39856 124.00774 -185.12538 C 124.99072 -185.8522 126.56723 -186.98972 127.55022 -187.68556 C 128.5332 -188.38143 130.10971 -189.47235 131.0927 -190.14067 C 132.0757 -190.80898 133.65219 -191.85832 134.6352 -192.50232 C 135.61818 -193.14633 137.19469 -194.16 138.17768 -194.78221 C 139.16066 -195.40442 140.73717 -196.38449 141.72017 -196.9869 C 142.70316 -197.58931 144.27967 -198.53964 145.26265 -199.12404 C 146.24564 -199.70844 147.82215 -200.63127 148.80513 -201.19892 C 149.78813 -201.76657 151.36464 -202.66292 152.34763 -203.21544 C 153.33061 -203.76795 154.90712 -204.64249 155.8901 -205.18132 C 156.8731 -205.72016 158.4496 -206.57349 159.4326 -207.09918 C 160.41559 -207.6249 161.9921 -208.45693 162.97509 -208.97035 C 163.95807 -209.48378 165.53458 -210.29785 166.51757 -210.79998 C 167.50057 -211.3021 170.06006 -212.58937 170.06006 -212.58937 C 165.04746 -212.58937 161.57627 -132.57326 161.57627 -127.56065 L 85.04042 -127.56065 " fill="#8080ff"/>
<path transform="matrix(2.7777777,0,0,-2.7777777,57.02222,343.38328)" stroke-width=".3985" stroke-linecap="butt" stroke-miterlimit="10" stroke-linejoin="miter" fill="none" stroke="#000000" d="M 170.08086 -42.52023 C 160.13233 -42.52023 160.13233 -212.60109 170.08086 -212.60109 C 180.02938 -212.60109 180.02938 -42.52023 170.08086 -42.52023 "/>
<path transform="matrix(2.7777777,0,0,-2.7777777,57.02222,343.38328)" d="M 100.34705 -89.54706 L 103.74939 -89.54706 C 108.19643 -89.54706 108.19643 -165.57425 103.74939 -165.57425 L 100.34705 -165.57425 C 95.90001 -165.57425 95.90001 -89.54706 100.34705 -89.54706 " fill="#0000ff"/>
<path transform="matrix(2.7777777,0,0,-2.7777777,57.02222,343.38328)" stroke-width=".3985" stroke-linecap="butt" stroke-miterlimit="10" stroke-linejoin="miter" fill="none" stroke="#0000ff" d="M 100.34705 -89.54706 L 103.74939 -89.54706 C 108.19643 -89.54706 108.19643 -165.57425 103.74939 -165.57425 L 100.34705 -165.57425 C 95.90001 -165.57425 95.90001 -89.54706 100.34705 -89.54706 "/>
<path transform="matrix(2.7777777,0,0,-2.7777777,57.02222,343.38328)" stroke-width=".3985" stroke-linecap="butt" stroke-miterlimit="10" stroke-linejoin="miter" fill="none" stroke="#0000ff" d="M 103.74939 -89.54706 C 99.30235 -89.54706 99.30235 -165.57425 103.74939 -165.57425 "/>
<path transform="matrix(2.7777777,0,0,-2.7777777,57.02222,343.38328)" stroke-width=".3985" stroke-linecap="butt" stroke-miterlimit="10" stroke-linejoin="miter" fill="none" stroke="#0000ff" d="M 103.74939 -124.15964 C 104.14722 -124.15964 104.14722 -130.96167 103.74939 -130.96167 C 103.35156 -130.96167 103.35156 -124.15964 103.74939 -124.15964 "/>
<path transform="matrix(2.7777777,0,0,-2.7777777,57.02222,343.38328)" d="M 125.85942 -67.43703 L 129.26181 -67.43703 C 136.29538 -67.43703 136.29538 -187.68428 129.26181 -187.68428 L 125.85942 -187.68428 C 118.82585 -187.68428 118.82585 -67.43703 125.85942 -67.43703 " fill="#0000ff"/>
<path transform="matrix(2.7777777,0,0,-2.7777777,57.02222,343.38328)" stroke-width=".3985" stroke-linecap="butt" stroke-miterlimit="10" stroke-linejoin="miter" fill="none" stroke="#0000ff" d="M 125.85942 -67.43703 L 129.26181 -67.43703 C 136.29538 -67.43703 136.29538 -187.68428 129.26181 -187.68428 L 125.85942 -187.68428 C 118.82585 -187.68428 118.82585 -67.43703 125.85942 -67.43703 "/>
<path transform="matrix(2.7777777,0,0,-2.7777777,57.02222,343.38328)" stroke-width=".3985" stroke-linecap="butt" stroke-miterlimit="10" stroke-linejoin="miter" fill="none" stroke="#0000ff" d="M 129.26181 -67.43703 C 122.22823 -67.43703 122.22823 -187.68428 129.26181 -187.68428 "/>
<path transform="matrix(2.7777777,0,0,-2.7777777,57.02222,343.38328)" stroke-width=".3985" stroke-linecap="butt" stroke-miterlimit="10" stroke-linejoin="miter" fill="none" stroke="#0000ff" d="M 129.26181 -106.30058 C 131.74893 -106.30058 131.74893 -148.82074 129.26181 -148.82074 C 126.77469 -148.82074 126.77469 -106.30058 129.26181 -106.30058 "/>
<symbol id="font_3_4">
<path d="M .462 .41500003 C .425 .40800003 .41400004 .37600003 .41400004 .36100004 C .41400004 .34200005 .42800004 .32500003 .453 .32500003 C .48100005 .32500003 .508 .34900005 .508 .38400004 C .508 .43000005 .45800004 .45300005 .411 .45300005 C .351 .45300005 .316 .40000005 .30400003 .37900005 C .28500004 .42800004 .24100003 .45300005 .193 .45300005 C .086 .45300005 .028 .32500003 .028 .29900003 C .028 .29000003 .035000005 .28700004 .042000005 .28700004 C .051 .28700004 .054000006 .29200004 .056 .298 C .087000008 .397 .15300001 .42800004 .19100002 .42800004 C .22 .42800004 .24600002 .40900005 .24600002 .36200003 C .24600002 .32600004 .20300001 .16600001 .19000001 .11800001 C .18200001 .087000008 .15200001 .025000003 .097 .025000003 C .07700001 .025000003 .056 .032 .046000005 .038000004 C .07300001 .043 .093 .06600001 .093 .092 C .093 .117000009 .074 .128 .055 .128 C .026 .128 0 .10300001 0 .069000009 C 0 .020000002 .054000006 0 .096 0 C .15400002 0 .18800001 .048 .20300001 .075 C .22800002 .009000001 .287 0 .314 0 C .42200003 0 .479 .13000001 .479 .15400002 C .479 .15900001 .47600005 .16600001 .46600003 .16600001 C .455 .16600001 .45400004 .16200002 .44900004 .14700002 C .42700003 .075 .36900003 .025000003 .317 .025000003 C .28800003 .025000003 .261 .043 .261 .091000009 C .261 .113000009 .275 .16800002 .284 .20600002 C .28800003 .22400002 .31500004 .33200003 .317 .33900003 C .32900004 .37500004 .35900004 .42800004 .41000004 .42800004 C .42800004 .42800004 .44700004 .42500005 .462 .41500003 Z "/>
</symbol>
<use xlink:href="#font_3_4" transform="matrix(24.906666,0,0,-24.906666,404.84443,718.4906)"/>
<path transform="matrix(2.7777777,0,0,-2.7777777,57.02222,343.38328)" stroke-width=".3985" stroke-linecap="butt" stroke-miterlimit="10" stroke-linejoin="miter" fill="none" stroke="#000000" d="M 127.56061 -127.56065 L 127.56061 -67.42796 "/>
<symbol id="font_3_3">
<path d="M .32000003 .605 L .41000004 .605 C .43000005 .605 .44000004 .605 .44000004 .623 C .44000004 .63600006 .43000005 .63600006 .41100005 .63600006 L .32600004 .63600006 C .33700005 .69600006 .35100005 .778 .36400003 .832 C .37300004 .87100008 .39700005 .885 .41700004 .885 C .42300005 .885 .446 .883 .46300004 .87100008 C .44300003 .8670001 .41400004 .8490001 .41400004 .816 C .41400004 .791 .43300004 .7800001 .45200006 .7800001 C .47900007 .7800001 .507 .80200007 .507 .84000006 C .507 .885 .46300004 .9100001 .41600005 .9100001 C .37100003 .9100001 .32600004 .878 .30500005 .837 C .28300003 .794 .27600003 .755 .25500003 .63600006 L .18300002 .63600006 C .164 .63600006 .15200001 .63600006 .15200001 .61800006 C .15200001 .605 .163 .605 .18100001 .605 L .249 .605 C .221 .46000005 .186 .26000003 .164 .15600002 C .15200001 .10100001 .136 .025000006 .088 .025000006 C .073 .025000006 .053000008 .031000004 .043 .039000006 C .068 .043000014 .092999998 .06400001 .092999998 .094000007 C .092999998 .11900001 .074 .13000001 .055000005 .13000001 C .028 .13000001 0 .10800001 0 .07000001 C 0 .024000004 .046 0 .088 0 C .19000001 0 .237 .16600001 .25300003 .252 L .32000003 .605 Z "/>
</symbol>
<use xlink:href="#font_3_3" transform="matrix(24.906666,0,0,-24.906666,411.54496,636.79196)"/>
<symbol id="font_4_1">
<path d="M .24000001 .011000007 C .24000001 .016000003 .23700002 .019000009 .231 .026000008 C .102000009 .14400001 .063 .324 .063 .499 C .063 .65400007 .093 .84200009 .234 .9760001 C .238 .98 .24000001 .98300006 .24000001 .98800006 C .24000001 .99500009 .23500002 .9990001 .22800002 .9990001 C .21599999 .9990001 .12600002 .92700007 .072000008 .818 C .023999997 .722 0 .619 0 .5 C 0 .42800004 .009000003 .314 .064 .19600001 C .123 .073 .21599999 0 .22800002 0 C .23500002 0 .24000001 .004000008 .24000001 .011000007 Z "/>
</symbol>
<use xlink:href="#font_4_1" transform="matrix(24.906666,0,0,-24.906666,427.84889,637.8878)"/>
<use xlink:href="#font_3_4" transform="matrix(24.906666,0,0,-24.906666,436.03605,631.96)"/>
<symbol id="font_4_2">
<path d="M .24000001 .5 C .24000001 .582 .22800002 .69200006 .17600002 .80300006 C .11700001 .92600008 .024 .9990001 .011999998 .9990001 C .0020000004 .9990001 0 .99100008 0 .98800006 C 0 .98300006 .0020000004 .98 .009 .97300007 C .067 .92100009 .17700002 .785 .17700002 .5 C .17700002 .35700003 .15100001 .158 .006000001 .023000002 C .0040000008 .019999996 0 .016000003 0 .011000007 C 0 .008000001 .0020000004 0 .011999998 0 C .024 0 .11400001 .07200001 .16800002 .18100001 C .21600002 .277 .24000001 .38000003 .24000001 .5 Z "/>
</symbol>
<use xlink:href="#font_4_2" transform="matrix(24.906666,0,0,-24.906666,451.2418,637.8878)"/>
</g>
</svg>
