<?xml version="1.0" encoding="UTF-8" standalone="no"?>
<!DOCTYPE svg PUBLIC "-//W3C//DTD SVG 1.1//EN" "http://www.w3.org/Graphics/SVG/1.1/DTD/svg11.dtd">
<svg xmlns="http://www.w3.org/2000/svg" xmlns:xlink="http://www.w3.org/1999/xlink" version="1.1" width="492.79167pt" height="466.29444pt" viewBox="0 0 492.79167 466.29444">
<g enable-background="new">
<path transform="matrix(2.7777777,0,0,-2.7777777,41.274999,429.9972)" stroke-width=".3985" stroke-linecap="butt" stroke-miterlimit="10" stroke-linejoin="miter" fill="none" stroke="#000000" d="M -11.33855 0 L 141.27574 0 "/>
<path transform="matrix(2.7777777,0,0,-2.7777777,433.70759,429.9972)" stroke-width=".31879" stroke-linecap="round" stroke-linejoin="round" fill="none" stroke="#000000" d="M -1.19551 1.59401 C -1.09587 .99626 0 .09961 .29886 0 C 0 -.09961 -1.09587 -.99626 -1.19551 -1.59401 "/>
<symbol id="font_0_1">
<path d="M .305 .31300003 C .311 .33900003 .334 .43100003 .404 .43100003 C .409 .43100003 .433 .43100003 .454 .418 C .426 .41300003 .40600003 .388 .40600003 .36400003 C .40600003 .34800003 .417 .32900004 .444 .32900004 C .46600003 .32900004 .498 .34700004 .498 .38700003 C .498 .43900005 .439 .45300005 .405 .45300005 C .347 .45300005 .312 .40000005 .3 .37700004 C .275 .44300003 .221 .45300005 .19200002 .45300005 C .08800001 .45300005 .031000002 .32400004 .031000002 .29900003 C .031000002 .28900004 .041 .28900004 .043000007 .28900004 C .051000008 .28900004 .054000006 .291 .056 .3 C .09 .40600003 .156 .43100003 .19000001 .43100003 C .209 .43100003 .244 .42200003 .244 .36400003 C .244 .33300004 .22700002 .26600004 .19000001 .126 C .17400001 .064 .13900002 .022000002 .095000009 .022000002 C .08900001 .022000002 .06600001 .022000002 .045 .035 C .07000001 .040000004 .09200001 .061 .09200001 .089 C .09200001 .116000007 .07000001 .124000009 .055000009 .124000009 C .025 .124000009 0 .098000008 0 .06600001 C 0 .020000002 .050000006 0 .094000007 0 C .16000001 0 .19600001 .07000001 .19900002 .076000008 C .21100001 .039 .24700003 0 .307 0 C .41 0 .467 .12900001 .467 .15400002 C .467 .16400002 .458 .16400002 .455 .16400002 C .446 .16400002 .444 .16000001 .442 .15300001 C .409 .046 .341 .022000002 .30900003 .022000002 C .27 .022000002 .254 .054 .254 .08800001 C .254 .11000001 .26 .13200002 .271 .17600002 L .305 .31300003 Z "/>
</symbol>
<use xlink:href="#font_0_1" transform="matrix(27.673888,0,0,-27.673888,445.55253,436.25996)"/>
<path transform="matrix(2.7777777,0,0,-2.7777777,41.274999,429.9972)" stroke-width=".3985" stroke-linecap="butt" stroke-miterlimit="10" stroke-linejoin="miter" fill="none" stroke="#000000" d="M 0 -1.1341 L 0 141.27574 "/>
<path transform="matrix(0,-2.7777777,-2.7777777,-0,41.274999,37.564596)" stroke-width=".31879" stroke-linecap="round" stroke-linejoin="round" fill="none" stroke="#000000" d="M -1.19551 1.59401 C -1.09587 .99626 0 .09961 .29886 0 C 0 -.09961 -1.09587 -.99626 -1.19551 -1.59401 "/>
<symbol id="font_0_2">
<path d="M .45700003 .586 C .461 .6 .461 .602 .461 .609 C .461 .62700006 .447 .63600006 .432 .63600006 C .42200003 .63600006 .40600003 .63 .397 .615 C .395 .61 .387 .579 .38300003 .561 C .37600003 .535 .36900003 .508 .363 .48100005 L .318 .301 C .314 .286 .271 .21600002 .20500002 .21600002 C .15400002 .21600002 .143 .26000003 .143 .29700003 C .143 .34300003 .16000001 .40500004 .194 .49300004 C .21000001 .53400006 .21400002 .545 .21400002 .56500008 C .21400002 .61 .18200001 .6470001 .13200002 .6470001 C .037 .6470001 0 .50200006 0 .49300004 C 0 .48300005 .01 .48300005 .012 .48300005 C .022000002 .48300005 .023 .485 .028000003 .50100007 C .055000009 .595 .095000009 .625 .12900001 .625 C .13700001 .625 .15400002 .625 .15400002 .59300008 C .15400002 .568 .14400001 .54200008 .13700001 .523 C .097 .41700004 .079 .36 .079 .31300003 C .079 .224 .142 .194 .201 .194 C .24000003 .194 .274 .21100001 .30200003 .23900002 C .289 .187 .277 .13800001 .237 .08500001 C .21100001 .051 .17300001 .022 .127 .022 C .113000009 .022 .068 .025000006 .051000008 .06400001 C .067 .06400001 .080000009 .06400001 .094000007 .076000008 C .104 .08500001 .11400001 .098000008 .11400001 .117000009 C .11400001 .148 .087000008 .15200001 .07700001 .15200001 C .054000006 .15200001 .021 .136 .021 .087000008 C .021 .037 .065000008 0 .127 0 C .23 0 .333 .091000009 .361 .20400001 L .45700003 .586 Z "/>
</symbol>
<use xlink:href="#font_0_2" transform="matrix(27.673888,0,0,-27.673888,34.796987,26.812064)"/>
<path transform="matrix(2.7777777,0,0,-2.7777777,41.274999,429.9972)" stroke-width=".3985" stroke-linecap="butt" stroke-miterlimit="10" stroke-linejoin="miter" fill="none" stroke="#000000" d="M 45.35504 111.11986 C 45.35504 111.11986 47.91515 112.04584 48.8984 112.31625 C 49.88167 112.58667 51.45848 112.92151 52.44174 113.06888 C 53.425 113.21625 55.00185 113.35397 55.9851 113.37857 C 56.96837 113.40317 58.54518 113.34451 59.52844 113.24622 C 60.5117 113.14792 62.08855 112.89137 63.07181 112.67006 C 64.05508 112.44875 65.63191 111.99513 66.61516 111.65102 C 67.59839 111.3069 69.17523 110.65689 70.1585 110.1899 C 71.14175 109.72289 72.7186 108.87492 73.70186 108.28499 C 74.68512 107.69507 76.26193 106.65086 77.2452 105.93805 C 78.22845 105.22523 79.8053 103.98317 80.78856 103.14731 C 81.77184 102.31143 83.34863 100.8723 84.33191 99.91365 C 85.31517 98.95502 86.89201 97.3195 87.87527 96.23795 C 88.85854 95.15639 90.43535 93.32303 91.41861 92.11845 C 92.40187 90.91388 93.97871 88.88344 94.96198 87.55606 C 95.94524 86.22868 97.52208 84.00183 98.50531 82.55157 C 99.48856 81.1013 101.06538 78.67653 102.04866 77.10333 C 103.03192 75.53014 104.60876 72.9091 105.59203 71.21303 C 106.57529 69.51694 108.1521 66.69806 109.13536 64.87894 C 110.11862 63.0598 111.69547 60.04385 112.67873 58.10196 C 113.66199 56.16005 115.2388 52.9477 116.22206 50.88287 C 117.20534 48.81804 118.78217 45.40788 119.76544 43.22003 C 120.7487 41.0322 122.32555 37.42493 123.30878 35.11429 C 124.292 32.80363 125.86885 29.00002 126.85211 26.56645 C 127.83537 24.13289 130.39548 17.57484 130.39548 17.57484 "/>
<path transform="matrix(2.7777777,0,0,-2.7777777,41.274999,429.9972)" stroke-width=".3985" stroke-linecap="butt" stroke-miterlimit="10" stroke-linejoin="miter" fill="none" stroke="#000000" d="M 45.35504 0 L 45.35504 111.11986 "/>
<path transform="matrix(2.7777777,0,0,-2.7777777,41.274999,429.9972)" stroke-width=".3985" stroke-linecap="butt" stroke-miterlimit="10" stroke-linejoin="miter" fill="none" stroke="#000000" d="M 130.39548 0 L 130.39548 17.57484 "/>
<symbol id="font_1_1">
<path d="M .33600004 .63500007 C .342 .66 .34500004 .67 .36300005 .67300006 C .37200005 .674 .40500004 .674 .426 .674 C .505 .674 .615 .674 .615 .573 C .615 .536 .6 .46100004 .543 .41800005 C .519 .40200005 .46899999 .37600003 .388 .37600003 L .27100004 .37600003 L .33600004 .63500007 M .491 .36100004 C .62700006 .39600004 .711 .47200004 .711 .554 C .711 .64100006 .616 .70500007 .48299999 .70500007 L .193 .70500007 C .17500001 .70500007 .163 .70500007 .163 .68700006 C .163 .674 .172 .674 .193 .674 C .19700001 .674 .21500002 .674 .23100002 .67200008 C .24800001 .67 .255 .66800007 .255 .65700009 C .255 .65200009 .254 .64800009 .251 .637 L .11600001 .098000008 C .10700001 .062000008 .105000007 .053000004 .030000002 .053000004 C .011 .053000004 0 .053000004 0 .035000005 C 0 .024000003 .008000001 .022000002 .015000001 .022000002 C .031000004 .022000002 .061000006 .023000002 .078 .024000003 C .09900001 .025000003 .10100001 .025000003 .14 .025000003 C .172 .025000003 .17400001 .025000003 .20400001 .024000003 C .22400002 .023000002 .249 .022000002 .268 .022000002 C .27500005 .022000002 .288 .022000002 .288 .040000004 C .288 .053000004 .278 .053000004 .25700004 .053000004 C .25300003 .053000004 .235 .053000004 .219 .055 C .19700001 .058000007 .19600001 .062000008 .19600001 .071 C .19600001 .074 .19600001 .076000008 .201 .094000007 L .265 .35100005 L .388 .35100005 C .478 .35100005 .501 .29900003 .501 .261 C .501 .254 .501 .24700001 .495 .22500001 C .47100003 .13300002 .47100003 .124000009 .47100003 .109000008 C .47100003 .019000002 .556 0 .607 0 C .694 0 .73 .101 .73 .117000009 C .73 .124000009 .72400006 .12900001 .717 .12900001 C .70600005 .12900001 .70500007 .124000009 .70100006 .112 C .684 .060000004 .647 .025000003 .61 .025000003 C .572 .025000003 .57 .055 .57 .08400001 C .57 .109000008 .577 .16700001 .578 .17400001 C .58 .19000001 .58500006 .23 .58500006 .245 C .58500006 .30200003 .549 .34100003 .491 .36100004 Z "/>
</symbol>
<use xlink:href="#font_1_1" transform="matrix(24.906666,0,0,-24.906666,268.84303,281.5757)"/>
<symbol id="font_1_6">
<path d="M .47300003 .59000006 C .474 .595 .47599999 .6010001 .47599999 .607 C .47599999 .62 .467 .63600006 .44500003 .63600006 C .432 .63600006 .414 .628 .40600003 .609 C .405 .605 .395 .564 .389 .54200008 L .33900003 .342 C .331 .31300003 .331 .31100003 .329 .30200003 C .328 .298 .286 .21900001 .21400002 .21900001 C .15200001 .21900001 .15200001 .282 .15200001 .301 C .15200001 .34600003 .165 .39500005 .20800002 .507 C .216 .53000006 .22200002 .544 .22200002 .563 C .22200002 .612 .18500002 .6470001 .136 .6470001 C .040000008 .6470001 0 .505 0 .49300004 C 0 .48400004 .007000001 .48100005 .014 .48100005 C .025 .48100005 .026000003 .48700003 .030000003 .5 C .051000008 .574 .091000009 .62200006 .133 .62200006 C .157 .62200006 .157 .60300007 .157 .589 C .157 .572 .15300001 .554 .14400001 .53000006 C .097 .40600003 .08400001 .36400003 .08400001 .316 C .08400001 .20500002 .17400001 .194 .21100001 .194 C .26 .194 .295 .22000002 .313 .238 C .3 .187 .289 .14200002 .25 .09200001 C .22000002 .052 .18 .025000006 .136 .025000006 C .10800001 .025000006 .075 .03500001 .061000006 .06300001 C .11400001 .06300001 .12100001 .10700001 .12100001 .117000009 C .12100001 .13900002 .105000007 .15300001 .083000008 .15300001 C .059000009 .15300001 .027 .134 .027 .08800001 C .027 .036 .07300001 0 .136 0 C .23800002 0 .347 .087000008 .37600003 .20400001 L .47300003 .59000006 Z "/>
</symbol>
<use xlink:href="#font_1_6" transform="matrix(24.906666,0,0,-24.906666,387.10285,321.8281)"/>
<symbol id="font_2_3">
<path d="M .651 .20400003 C .6650001 .20400003 .6840001 .20400003 .6840001 .22500003 C .6840001 .24700001 .66200008 .24700001 .6470001 .24700001 L .037 .24700001 C .022 .24700001 0 .24700001 0 .22500003 C 0 .20400003 .020000004 .20400003 .033 .20400003 L .651 .20400003 M .6470001 0 C .66200008 0 .6840001 0 .6840001 .022 C .6840001 .042999999 .6650001 .042999999 .651 .042999999 L .033 .042999999 C .020000004 .042999999 0 .042999999 0 .022 C 0 0 .022 0 .037 0 L .6470001 0 Z "/>
</symbol>
<use xlink:href="#font_2_3" transform="matrix(24.906666,0,0,-24.906666,408.41133,313.55909)"/>
<symbol id="font_1_4">
<path d="M .32000003 .605 L .41000004 .605 C .43000005 .605 .44000004 .605 .44000004 .623 C .44000004 .63600006 .43000005 .63600006 .41100005 .63600006 L .32600004 .63600006 C .33700005 .69600006 .35100005 .778 .36400003 .832 C .37300004 .87100008 .39700005 .885 .41700004 .885 C .42300005 .885 .446 .883 .46300004 .87100008 C .44300003 .8670001 .41400004 .8490001 .41400004 .816 C .41400004 .791 .43300004 .7800001 .45200006 .7800001 C .47900007 .7800001 .507 .80200007 .507 .84000006 C .507 .885 .46300004 .9100001 .41600005 .9100001 C .37100003 .9100001 .32600004 .878 .30500005 .837 C .28300003 .794 .27600003 .755 .25500003 .63600006 L .18300002 .63600006 C .164 .63600006 .15200001 .63600006 .15200001 .61800006 C .15200001 .605 .163 .605 .18100001 .605 L .249 .605 C .221 .46000005 .186 .26000003 .164 .15600002 C .15200001 .10100001 .136 .025000006 .088 .025000006 C .073 .025000006 .053000008 .031000004 .043 .039000006 C .068 .043000014 .092999998 .06400001 .092999998 .094000007 C .092999998 .11900001 .074 .13000001 .055000005 .13000001 C .028 .13000001 0 .10800001 0 .07000001 C 0 .024000004 .046 0 .088 0 C .19000001 0 .237 .16600001 .25300003 .252 L .32000003 .605 Z "/>
</symbol>
<use xlink:href="#font_1_4" transform="matrix(24.906666,0,0,-24.906666,435.35884,321.8281)"/>
<symbol id="font_2_1">
<path d="M .24000001 .011000007 C .24000001 .016000003 .23700002 .019000009 .231 .026000008 C .102000009 .14400001 .063 .324 .063 .499 C .063 .65400007 .093 .84200009 .234 .9760001 C .238 .98 .24000001 .98300006 .24000001 .98800006 C .24000001 .99500009 .23500002 .9990001 .22800002 .9990001 C .21599999 .9990001 .12600002 .92700007 .072000008 .818 C .023999997 .722 0 .619 0 .5 C 0 .42800004 .009000003 .314 .064 .19600001 C .123 .073 .21599999 0 .22800002 0 C .23500002 0 .24000001 .004000008 .24000001 .011000007 Z "/>
</symbol>
<use xlink:href="#font_2_1" transform="matrix(24.906666,0,0,-24.906666,451.66276,322.92399)"/>
<symbol id="font_1_5">
<path d="M .462 .41500003 C .425 .40800003 .41400004 .37600003 .41400004 .36100004 C .41400004 .34200005 .42800004 .32500003 .453 .32500003 C .48100005 .32500003 .508 .34900005 .508 .38400004 C .508 .43000005 .45800004 .45300005 .411 .45300005 C .351 .45300005 .316 .40000005 .30400003 .37900005 C .28500004 .42800004 .24100003 .45300005 .193 .45300005 C .086 .45300005 .028 .32500003 .028 .29900003 C .028 .29000003 .035000005 .28700004 .042000005 .28700004 C .051 .28700004 .054000006 .29200004 .056 .298 C .087000008 .397 .15300001 .42800004 .19100002 .42800004 C .22 .42800004 .24600002 .40900005 .24600002 .36200003 C .24600002 .32600004 .20300001 .16600001 .19000001 .11800001 C .18200001 .087000008 .15200001 .025000003 .097 .025000003 C .07700001 .025000003 .056 .032 .046000005 .038000004 C .07300001 .043 .093 .06600001 .093 .092 C .093 .117000009 .074 .128 .055 .128 C .026 .128 0 .10300001 0 .069000009 C 0 .020000002 .054000006 0 .096 0 C .15400002 0 .18800001 .048 .20300001 .075 C .22800002 .009000001 .287 0 .314 0 C .42200003 0 .479 .13000001 .479 .15400002 C .479 .15900001 .47600005 .16600001 .46600003 .16600001 C .455 .16600001 .45400004 .16200002 .44900004 .14700002 C .42700003 .075 .36900003 .025000003 .317 .025000003 C .28800003 .025000003 .261 .043 .261 .091000009 C .261 .113000009 .275 .16800002 .284 .20600002 C .28800003 .22400002 .31500004 .33200003 .317 .33900003 C .32900004 .37500004 .35900004 .42800004 .41000004 .42800004 C .42800004 .42800004 .44700004 .42500005 .462 .41500003 Z "/>
</symbol>
<use xlink:href="#font_1_5" transform="matrix(24.906666,0,0,-24.906666,459.84996,316.99623)"/>
<symbol id="font_2_2">
<path d="M .24000001 .5 C .24000001 .582 .22800002 .69200006 .17600002 .80300006 C .11700001 .92600008 .024 .9990001 .011999998 .9990001 C .0020000004 .9990001 0 .99100008 0 .98800006 C 0 .98300006 .0020000004 .98 .009 .97300007 C .067 .92100009 .17700002 .785 .17700002 .5 C .17700002 .35700003 .15100001 .158 .006000001 .023000002 C .0040000008 .019999996 0 .016000003 0 .011000007 C 0 .008000001 .0020000004 0 .011999998 0 C .024 0 .11400001 .07200001 .16800002 .18100001 C .21600002 .277 .24000001 .38000003 .24000001 .5 Z "/>
</symbol>
<use xlink:href="#font_2_2" transform="matrix(24.906666,0,0,-24.906666,475.05567,322.92399)"/>
<symbol id="font_1_2">
<path d="M .34000004 .39100004 C .321 .42700003 .29000003 .45300005 .245 .45300005 C .12900001 .45300005 0 .31500004 0 .16200002 C 0 .052 .07 0 .137 0 C .20200002 0 .25500003 .054 .27100004 .07300001 C .282 .018000002 .33200003 0 .36400003 0 C .39300005 0 .418 .013000001 .44000004 .055000005 C .458 .08800001 .472 .15000002 .472 .15400002 C .472 .15900001 .46900005 .16600001 .45900006 .16600001 C .44700004 .16600001 .44600005 .16100002 .44200004 .14200002 C .42000003 .055000005 .39800004 .025000003 .367 .025000003 C .342 .025000003 .33600004 .049000004 .33600004 .071 C .33600004 .09 .34100003 .11000001 .35000003 .14500001 L .37500004 .24800003 C .38200004 .27300004 .40000005 .34800003 .404 .36300005 C .40800003 .37700004 .41400004 .40100003 .41400004 .404 C .41400004 .42000003 .40100003 .43300004 .38300003 .43300004 C .37000004 .43300004 .34500004 .42500005 .34000004 .39100004 M .275 .13300002 C .27 .11400001 .27 .113000009 .254 .094000007 C .21800003 .051000004 .17700002 .025000003 .14000002 .025000003 C .091 .025000003 .074 .076000008 .074 .119 C .074 .16800002 .10300001 .28300003 .127 .33100004 C .15900001 .39100004 .20500002 .42800004 .245 .42800004 C .312 .42800004 .32700003 .34800003 .32700003 .34100003 C .32700003 .33600004 .32500003 .33 .32400004 .32600004 L .275 .13300002 Z "/>
</symbol>
<use xlink:href="#font_1_2" transform="matrix(24.906666,0,0,-24.906666,161.52385,450.7712)"/>
<symbol id="font_1_3">
<path d="M .192 .671 C .19600001 .685 .19600001 .68700006 .19600001 .691 C .19600001 .7 .19000001 .705 .18100001 .705 C .16700001 .705 .078999999 .697 .059000005 .695 C .049 .694 .038 .693 .038 .676 C .038 .663 .049 .663 .065 .663 C .112 .663 .112 .656 .112 .647 C .112 .64100006 .112 .639 .105000007 .612 L .052000006 .40100003 C .038 .34500004 .025000003 .29400004 .014000002 .24700003 C .0069999995 .22200002 0 .19200002 0 .16000001 C 0 .074 .048000006 0 .134 0 C .25100003 0 .37900005 .14100002 .37900005 .291 C .37900005 .39300005 .316 .45300005 .24100001 .45300005 C .19000001 .45300005 .146 .418 .122999999 .39600004 L .192 .671 M .109 .33900003 C .13700001 .37900005 .18800001 .42800004 .23900001 .42800004 C .286 .42800004 .30500005 .381 .30500005 .33400003 C .30500005 .28900004 .277 .16500002 .246 .112 C .209 .048 .165 .025000003 .134 .025000003 C .08400001 .025000003 .06400001 .075 .06400001 .126 C .06400001 .16100002 .07100001 .18800001 .094 .279 L .109 .33900003 Z "/>
</symbol>
<use xlink:href="#font_1_3" transform="matrix(24.906666,0,0,-24.906666,399.16505,457.3434)"/>
</g>
</svg>
