<?xml version="1.0" encoding="UTF-8" standalone="no"?>
<!DOCTYPE svg PUBLIC "-//W3C//DTD SVG 1.1//EN" "http://www.w3.org/Graphics/SVG/1.1/DTD/svg11.dtd">
<svg xmlns="http://www.w3.org/2000/svg" xmlns:xlink="http://www.w3.org/1999/xlink" version="1.1" width="270.175pt" height="300.31944pt" viewBox="0 0 270.175 300.31944">
<g enable-background="new">
<path transform="matrix(2.7777777,0,0,-2.7777777,88.51944,32.049985)" stroke-width=".3985" stroke-linecap="butt" stroke-miterlimit="10" stroke-linejoin="miter" fill="none" stroke="#000000" d="M 28.3468 0 C 28.3468 6.26218 15.6557 11.33855 0 11.33855 C -15.6557 11.33855 -28.3468 6.26218 -28.3468 0 C -28.3468 -6.26218 -15.6557 -11.33855 0 -11.33855 C 15.6557 -11.33855 28.3468 -6.26218 28.3468 0 Z M 0 0 "/>
<path transform="matrix(2.7777777,0,0,-2.7777777,88.51944,32.049985)" stroke-width=".3985" stroke-linecap="butt" stroke-miterlimit="10" stroke-linejoin="miter" fill="none" stroke="#000000" d="M 28.3468 -85.04042 C 28.3468 -78.77824 15.6557 -73.70187 0 -73.70187 C -15.6557 -73.70187 -28.3468 -78.77824 -28.3468 -85.04042 C -28.3468 -91.3026 -15.6557 -96.37897 0 -96.37897 C 15.6557 -96.37897 28.3468 -91.3026 28.3468 -85.04042 Z M 0 -85.04042 "/>
<path transform="matrix(2.7777777,0,0,-2.7777777,88.51944,32.049985)" stroke-width=".3985" stroke-linecap="butt" stroke-miterlimit="10" stroke-linejoin="miter" fill="none" stroke="#000000" d="M 28.3468 -85.04042 L 28.3468 0 "/>
<path transform="matrix(2.7777777,0,0,-2.7777777,88.51944,32.049985)" stroke-width=".3985" stroke-linecap="butt" stroke-miterlimit="10" stroke-linejoin="miter" fill="none" stroke="#000000" d="M -28.3468 -85.04042 L -28.3468 0 "/>
<path transform="matrix(2.7777777,0,0,-2.7777777,88.51944,32.049985)" stroke-width=".3985" stroke-linecap="butt" stroke-miterlimit="10" stroke-linejoin="miter" fill="none" stroke="#000000" d="M 48.18947 0 L 65.19774 0 "/>
<path transform="matrix(2.7777777,0,0,-2.7777777,88.51944,32.049985)" stroke-width=".3985" stroke-linecap="butt" stroke-miterlimit="10" stroke-linejoin="miter" fill="none" stroke="#000000" d="M 48.18947 -85.04042 L 65.19774 -85.04042 "/>
<path transform="matrix(2.7777777,0,0,-2.7777777,88.51944,32.049985)" stroke-width=".3985" stroke-linecap="butt" stroke-miterlimit="10" stroke-linejoin="miter" fill="none" stroke="#000000" d="M 56.69362 -84.58214 L 56.69362 -.45827 "/>
<path transform="matrix(0,2.7777777,2.7777777,0,246.00173,267.00038)" stroke-width=".31879" stroke-linecap="round" stroke-linejoin="round" fill="none" stroke="#000000" d="M -1.19551 1.59401 C -1.09587 .99626 0 .09961 .29886 0 C 0 -.09961 -1.09587 -.99626 -1.19551 -1.59401 "/>
<path transform="matrix(0,-2.7777777,-2.7777777,0,246.00173,33.322957)" stroke-width=".31879" stroke-linecap="round" stroke-linejoin="round" fill="none" stroke="#000000" d="M -1.19551 1.59401 C -1.09587 .99626 0 .09961 .29886 0 C 0 -.09961 -1.09587 -.99626 -1.19551 -1.59401 "/>
<symbol id="font_0_1">
<path d="M .335 .605 C .344 .64100006 .347 .652 .441 .652 C .47100006 .652 .479 .652 .479 .671 C .479 .683 .46800003 .683 .46300004 .683 C .43 .683 .34800003 .68 .315 .68 C .285 .68 .21200001 .683 .18200001 .683 C .17500001 .683 .163 .683 .163 .66300007 C .163 .652 .172 .652 .191 .652 C .193 .652 .21200001 .652 .229 .65000006 C .24700001 .648 .256 .647 .256 .634 C .256 .63000008 .255 .62700006 .252 .615 L .118 .078 C .107999999 .039 .106000009 .031000002 .026999999 .031000002 C .010000002 .031000002 0 .031000002 0 .011000001 C 0 0 .009 0 .026999999 0 L .49000005 0 C .51400008 0 .51500007 0 .521 .017 L .6000001 .23300001 C .60400006 .24400002 .60400006 .246 .60400006 .24700001 C .60400006 .25100003 .6010001 .25800003 .59200009 .25800003 C .58300009 .25800003 .5820001 .25300003 .57500007 .23700002 C .54100009 .14500001 .497 .031000002 .324 .031000002 L .23000002 .031000002 C .21600002 .031000002 .21400002 .031000002 .208 .032 C .19800002 .033 .19500001 .034 .19500001 .042000005 C .19500001 .045 .19500001 .047000003 .2 .065000008 L .335 .605 Z "/>
</symbol>
<use xlink:href="#font_0_1" transform="matrix(27.673888,0,0,-27.673888,80.17928,277.72499)"/>
<symbol id="font_1_1">
<path d="M .07800001 .076000008 C .07800001 .031000002 .067 .031000002 0 .031000002 L 0 0 C .035 .001 .08600001 .003 .113000009 .003 C .139 .003 .191 .001 .225 0 L .225 .031000002 C .158 .031000002 .147 .031000002 .147 .076000008 L .147 .26000003 C .147 .36400003 .218 .42000003 .282 .42000003 C .345 .42000003 .356 .36600004 .356 .30900003 L .356 .076000008 C .356 .031000002 .345 .031000002 .278 .031000002 L .278 0 C .31300003 .001 .36400003 .003 .391 .003 C .41700004 .003 .46900005 .001 .503 0 L .503 .031000002 C .451 .031000002 .42600004 .031000002 .425 .061000006 L .425 .252 C .425 .33800004 .425 .36900003 .39400003 .40500004 C .38000003 .42200003 .347 .44200004 .289 .44200004 C .20500002 .44200004 .161 .38200004 .14400001 .344 L .14400001 .694 L 0 .683 L 0 .652 C .07000001 .652 .07800001 .64500007 .07800001 .596 L .07800001 .076000008 Z "/>
</symbol>
<use xlink:href="#font_1_1" transform="matrix(27.673888,0,0,-27.673888,223.44945,159.76941)"/>
</g>
</svg>
