<?xml version="1.0" encoding="UTF-8" standalone="no"?>
<!DOCTYPE svg PUBLIC "-//W3C//DTD SVG 1.1//EN" "http://www.w3.org/Graphics/SVG/1.1/DTD/svg11.dtd">
<svg xmlns="http://www.w3.org/2000/svg" xmlns:xlink="http://www.w3.org/1999/xlink" version="1.1" width="584.8722pt" height="485.78053pt" viewBox="0 0 584.8722 485.78053">
<g enable-background="new">
<path transform="matrix(2.7777777,0,0,-2.7777777,10.330556,484.67219)" stroke-width=".79701" stroke-linecap="butt" stroke-miterlimit="10" stroke-linejoin="miter" fill="none" stroke="#000000" d="M 0 39.52538 L 191.68337 39.52538 "/>
<path transform="matrix(2.7777777,0,0,-2.7777777,542.7842,374.8795)" d="M 2.59026 0 L -1.55415 2.0722 L 0 0 L -1.55415 -2.0722 "/>
<path transform="matrix(2.7777777,0,0,-2.7777777,10.330556,484.67219)" stroke-width=".79701" stroke-linecap="butt" stroke-miterlimit="10" stroke-linejoin="miter" fill="none" stroke="#000000" d="M 43.17166 0 L 43.17166 158.80587 "/>
<path transform="matrix(0,-2.7777222,-2.7777222,-0,130.25183,43.54481)" d="M 2.59026 0 L -1.55415 2.0722 L 0 0 L -1.55415 -2.0722 "/>
<clipPath id="cp0">
<path transform="matrix(2.7777777,0,0,-2.7777777,10.330556,484.67219)" d="M 0 0 L 194.27359 0 L 194.27359 161.39609 L 0 161.39609 Z "/>
</clipPath>
<g clip-path="url(#cp0)">
<path transform="matrix(2.7777777,0,0,-2.7777777,10.330556,484.67219)" d="M 58.5903 86.10516 L 58.74522 86.34041 L 59.36818 87.26753 L 59.9911 88.17699 L 60.61404 89.06975 L 61.237 89.9467 L 61.85994 90.80867 L 62.48288 91.65639 L 63.10582 92.49052 L 63.72878 93.31175 L 64.3517 94.1206 L 64.97464 94.91766 L 65.5976 95.70341 L 66.22054 96.47832 L 66.84348 97.24283 L 67.46642 97.99733 L 68.08937 98.74222 L 68.71231 99.47786 L 69.33525 100.20459 L 69.95819 100.9227 L 70.58113 101.63252 L 71.20407 102.33434 L 71.82701 103.02838 L 72.44997 103.7149 L 73.0729 104.39418 L 73.69586 105.06642 L 74.00899 105.4004 L 74.00888 72.46686 L 73.69586 71.79819 L 73.0729 70.49438 L 72.44997 69.21744 L 71.82701 67.96739 L 71.20407 66.74422 L 70.58113 65.54794 L 69.95819 64.37854 L 69.33525 63.23602 L 68.71231 62.12036 L 68.08937 61.03163 L 67.46642 59.96976 L 66.84348 58.93477 L 66.22054 57.92667 L 65.5976 56.94545 L 64.97464 55.9911 L 64.3517 55.06364 L 63.72878 54.16306 L 63.10582 53.28937 L 62.48288 52.44257 L 61.85994 51.62265 L 61.237 50.8296 L 60.61404 50.06343 L 59.9911 49.32416 L 59.36818 48.61177 L 58.74522 47.92625 L 58.59003 47.76216 Z " fill="#929292" fill-opacity=".2"/>
</g>
<clipPath id="cp1">
<path transform="matrix(2.7777777,0,0,-2.7777777,10.330556,484.67219)" d="M 0 0 L 194.27359 0 L 194.27359 161.39609 L 0 161.39609 Z "/>
</clipPath>
<g clip-path="url(#cp1)">
<path transform="matrix(2.7777777,0,0,-2.7777777,10.330556,484.67219)" stroke-width=".79701" stroke-linecap="butt" stroke-miterlimit="10" stroke-linejoin="miter" fill="none" stroke="#ff0000" d="M 43.17166 39.52538 L 43.7946 48.88824 L 44.41754 52.76646 L 45.0405 55.74234 L 45.66342 58.25111 L 46.28636 60.4617 L 46.90932 62.45996 L 47.53226 64.29756 L 48.1552 66.00795 L 48.77814 67.6144 L 49.4011 69.1338 L 50.02403 70.57895 L 50.64696 71.95978 L 51.26991 73.28416 L 51.89285 74.55853 L 52.5158 75.78813 L 53.13873 76.9774 L 53.76169 78.13005 L 54.38463 79.24924 L 55.00757 80.33777 L 55.63051 81.39801 L 56.25345 82.43205 L 56.8764 83.44177 L 57.49933 84.42877 L 58.12228 85.39455 L 58.74522 86.34041 L 59.36818 87.26753 L 59.9911 88.17699 L 60.61404 89.06975 L 61.237 89.9467 L 61.85994 90.80867 L 62.48288 91.65639 L 63.10582 92.49052 L 63.72878 93.31175 L 64.3517 94.1206 L 64.97464 94.91766 L 65.5976 95.70341 L 66.22054 96.47832 L 66.84348 97.24283 L 67.46642 97.99733 L 68.08937 98.74222 L 68.71231 99.47786 L 69.33525 100.20459 L 69.95819 100.9227 L 70.58113 101.63252 L 71.20407 102.33434 L 71.82701 103.02838 L 72.44997 103.7149 L 73.0729 104.39418 L 73.69586 105.06642 L 74.31879 105.73083 L 74.94173 106.38953 L 75.56468 107.0419 L 76.18762 107.68803 L 76.81056 108.32805 L 77.4335 108.9622 L 78.05646 109.59065 L 78.67938 110.21338 L 79.30232 110.83076 L 79.92528 111.44293 L 80.54822 112.04976 L 81.17116 112.65167 L 81.7941 113.24866 L 82.41705 113.84082 L 83.04 114.42825 L 83.66292 115.01115 L 84.28587 115.58965 L 84.90881 116.16371 L 85.53175 116.73355 L 86.1547 117.29918 L 86.77765 117.86067 L 87.40059 118.41824 L 88.02353 118.97192 L 88.64647 119.52176 L 89.26941 120.06776 L 89.89236 120.61018 L 90.5153 121.14897 L 91.13824 121.68413 L 91.76118 122.21597 L 92.38414 122.74431 L 93.00706 123.26941 L 93.63 123.7911 L 94.25296 124.3097 L 94.8759 124.82515 L 95.49884 125.3374 L 96.12178 125.84673 L 96.74474 126.35294 L 97.36768 126.85634 L 97.9906 127.35683 L 98.61356 127.85449 L 99.2365 128.34935 L 99.85944 128.8414 L 100.48238 129.33083 L 101.10533 129.81754 L 101.72827 130.30173 L 102.3512 130.78333 L 102.97415 131.2624 L 103.59709 131.73886 L 104.22005 132.21302 L 104.84299 132.68474 "/>
<path transform="matrix(2.7777777,0,0,-2.7777777,10.330556,484.67219)" stroke-width=".79701" stroke-linecap="butt" stroke-miterlimit="10" stroke-linejoin="miter" fill="none" stroke="#0000ff" d="M 43.17166 39.52538 L 43.7946 39.53882 L 44.41754 39.57913 L 45.0405 39.64635 L 45.66342 39.74043 L 46.28636 39.8614 L 46.90932 40.00926 L 47.53226 40.184 L 48.1552 40.38562 L 48.77814 40.61414 L 49.4011 40.8695 L 50.02403 41.15178 L 50.64696 41.46094 L 51.26991 41.79697 L 51.89285 42.15988 L 52.5158 42.5497 L 53.13873 42.96638 L 53.76169 43.40994 L 54.38463 43.88039 L 55.00757 44.37772 L 55.63051 44.90193 L 56.25345 45.45303 L 56.8764 46.03102 L 57.49933 46.63588 L 58.12228 47.26762 L 58.74522 47.92625 L 59.36818 48.61177 L 59.9911 49.32416 L 60.61404 50.06343 L 61.237 50.8296 L 61.85994 51.62265 L 62.48288 52.44257 L 63.10582 53.28937 L 63.72878 54.16306 L 64.3517 55.06364 L 64.97464 55.9911 L 65.5976 56.94545 L 66.22054 57.92667 L 66.84348 58.93477 L 67.46642 59.96976 L 68.08937 61.03163 L 68.71231 62.12036 L 69.33525 63.23602 L 69.95819 64.37854 L 70.58113 65.54794 L 71.20407 66.74422 L 71.82701 67.96739 L 72.44997 69.21744 L 73.0729 70.49438 L 73.69586 71.79819 L 74.31879 73.12883 L 74.94173 74.48643 L 75.56468 75.87091 L 76.18762 77.28226 L 76.81056 78.7205 L 77.4335 80.18561 L 78.05646 81.67763 L 78.67938 83.1965 L 79.30232 84.74228 L 79.92528 86.31493 L 80.54822 87.91446 L 81.17116 89.5409 L 81.7941 91.19418 L 82.41705 92.87437 L 83.04 94.58144 L 83.66292 96.31526 L 84.28587 98.0761 L 84.90881 99.86382 L 85.53175 101.6784 L 86.1547 103.5199 L 86.77765 105.38826 L 87.40059 107.28351 L 88.02353 109.20564 L 88.64647 111.15465 L 89.26941 113.13055 L 89.89236 115.13333 L 90.5153 117.163 L 91.13824 119.21954 L 91.76118 121.30298 L 92.38414 123.41313 L 93.00706 125.55032 L 93.63 127.7144 L 94.25296 129.90537 L 94.8759 132.12322 L 95.49884 134.36794 L 96.12178 136.63954 L 96.74474 138.93804 L 97.36768 141.26342 L 97.9906 143.61566 L 98.61356 145.99483 L 99.2365 148.40084 L 99.85944 150.83376 L 100.48238 153.29354 L 101.10533 155.78003 L 101.72827 158.2936 L 102.3512 160.83402 L 102.97415 163.40135 L 103.59709 165.99555 L 104.22005 168.61664 L 104.84299 171.26462 "/>
<path transform="matrix(2.7777777,0,0,-2.7777777,10.330556,484.67219)" stroke-width=".3985" stroke-linecap="butt" stroke-dasharray="2.98883,2.98883" stroke-miterlimit="10" stroke-linejoin="miter" fill="none" stroke="#000000" d="M 58.59027 39.52538 L 58.59027 86.1069 "/>
<path transform="matrix(2.7777777,0,0,-2.7777777,10.330556,484.67219)" stroke-width=".3985" stroke-linecap="butt" stroke-dasharray="2.98883,2.98883" stroke-miterlimit="10" stroke-linejoin="miter" fill="none" stroke="#000000" d="M 74.00888 39.52538 L 74.00888 105.40163 "/>
<symbol id="font_2_1">
<path d="M .22600001 .63600006 C .22600001 .66300007 .224 .66400006 .19600001 .66400006 C .132 .601 .041 .6 0 .6 L 0 .564 C .023999997 .564 .09000001 .564 .14500001 .592 L .14500001 .082 C .14500001 .049000004 .14500001 .036000004 .04500001 .036000004 L .0069999995 .036000004 L .0069999995 0 C .024999999 .001 .148 .004 .185 .004 C .21600002 .004 .34200005 .001 .36400003 0 L .36400003 .036000004 L .32600004 .036000004 C .22600001 .036000004 .22600001 .049000004 .22600001 .082 L .22600001 .63600006 Z "/>
</symbol>
<use xlink:href="#font_2_1" transform="matrix(19.371666,0,0,-19.371666,169.67542,397.1444)"/>
<path transform="matrix(2.7777777,0,0,-2.7777777,167.5639,401.1222)" stroke-width=".398" stroke-linecap="butt" stroke-miterlimit="10" stroke-linejoin="miter" fill="none" stroke="#000000" d="M 0 0 L 3.971 0 "/>
<symbol id="font_2_2">
<path d="M .442 .18200001 L .40800003 .18200001 C .40500004 .16000001 .39500005 .101 .38200004 .091000009 C .374 .085 .29700003 .085 .28300003 .085 L .099 .085 C .20400003 .178 .23900002 .20600002 .29900003 .25300003 C .37300004 .312 .442 .374 .442 .469 C .442 .59000006 .33600004 .66400006 .20800004 .66400006 C .084 .66400006 0 .577 0 .485 C 0 .43400003 .043000007 .42900003 .053000004 .42900003 C .077 .42900003 .10600001 .446 .10600001 .48200003 C .10600001 .5 .099 .535 .047000007 .535 C .078 .606 .146 .628 .19300002 .628 C .293 .628 .34500004 .55 .34500004 .469 C .34500004 .38200004 .28300003 .31300003 .25100003 .277 L .010000005 .039 C 0 .030000002 0 .028 0 0 L .41200004 0 L .442 .18200001 Z "/>
</symbol>
<use xlink:href="#font_2_2" transform="matrix(19.371666,0,0,-19.371666,168.78432,417.5833)"/>
<symbol id="font_3_1">
<path d="M .205 .64000007 C .205 .66400006 .205 .666 .18200003 .666 C .120000008 .60200008 .032000007 .60200008 0 .60200008 L 0 .57100006 C .020000004 .57100006 .07900001 .57100006 .13100001 .597 L .13100001 .079 C .13100001 .043 .128 .031000002 .038000004 .031000002 L .0060000049 .031000002 L .0060000049 0 C .04100001 .003 .128 .003 .168 .003 C .20800002 .003 .29500003 .003 .33000005 0 L .33000005 .031000002 L .29800005 .031000002 C .20800002 .031000002 .205 .042000005 .205 .079 L .205 .64000007 Z "/>
</symbol>
<use xlink:href="#font_3_1" transform="matrix(27.673888,0,0,-27.673888,211.45464,402.49443)"/>
<path transform="matrix(2.7777777,0,0,-2.7777777,10.330556,484.67219)" stroke-width=".3985" stroke-linecap="butt" stroke-miterlimit="10" stroke-linejoin="miter" fill="none" stroke="#ff0000" d="M 151.10192 23.05632 C 147.25843 17.91122 147.25843 50.84935 151.10192 55.99445 "/>
<path transform="matrix(2.7777777,0,0,-2.7777777,10.330556,484.67219)" stroke-width=".3985" stroke-linecap="butt" stroke-miterlimit="10" stroke-linejoin="miter" fill="none" stroke="#ff0000" d="M 151.10192 55.99445 C 153.87483 55.99445 152.94326 44.63928 152.57883 45.36662 "/>
<path transform="matrix(1.2445555,2.4831665,2.4831665,-1.2445555,434.16026,358.65394)" d="M 3.58653 0 C 2.52383 .19925 .797 .797 -.3985 1.49438 L -.3985 -1.49438 C .797 -.797 2.52383 -.19925 3.58653 0 " fill="#ff0000"/>
<path transform="matrix(2.7777777,0,0,-2.7777777,10.330556,484.67219)" stroke-width=".3985" stroke-linecap="butt" stroke-miterlimit="10" stroke-linejoin="miter" fill="none" stroke="#ff0000" d="M 151.10192 23.05632 C 153.691 23.05632 155.1923 35.7758 152.64377 36.23157 "/>
</g>
<symbol id="font_4_1">
<path d="M .305 .31300003 C .311 .33900003 .334 .43100003 .404 .43100003 C .409 .43100003 .433 .43100003 .454 .418 C .426 .41300003 .40600003 .388 .40600003 .36400003 C .40600003 .34800003 .417 .32900004 .444 .32900004 C .46600003 .32900004 .498 .34700004 .498 .38700003 C .498 .43900005 .439 .45300005 .405 .45300005 C .347 .45300005 .312 .40000005 .3 .37700004 C .275 .44300003 .221 .45300005 .19200002 .45300005 C .08800001 .45300005 .031000002 .32400004 .031000002 .29900003 C .031000002 .28900004 .041 .28900004 .043000007 .28900004 C .051000008 .28900004 .054000006 .291 .056 .3 C .09 .40600003 .156 .43100003 .19000001 .43100003 C .209 .43100003 .244 .42200003 .244 .36400003 C .244 .33300004 .22700002 .26600004 .19000001 .126 C .17400001 .064 .13900002 .022000002 .095000009 .022000002 C .08900001 .022000002 .06600001 .022000002 .045 .035 C .07000001 .040000004 .09200001 .061 .09200001 .089 C .09200001 .116000007 .07000001 .124000009 .055000009 .124000009 C .025 .124000009 0 .098000008 0 .06600001 C 0 .020000002 .050000006 0 .094000007 0 C .16000001 0 .19600001 .07000001 .19900002 .076000008 C .21100001 .039 .24700003 0 .307 0 C .41 0 .467 .12900001 .467 .15400002 C .467 .16400002 .458 .16400002 .455 .16400002 C .446 .16400002 .444 .16000001 .442 .15300001 C .409 .046 .341 .022000002 .30900003 .022000002 C .27 .022000002 .254 .054 .254 .08800001 C .254 .11000001 .26 .13200002 .271 .17600002 L .305 .31300003 Z "/>
</symbol>
<use xlink:href="#font_4_1" transform="matrix(27.673888,0,0,-27.673888,560.63589,396.87104)"/>
<symbol id="font_4_2">
<path d="M .45700003 .586 C .461 .6 .461 .602 .461 .609 C .461 .62700006 .447 .63600006 .432 .63600006 C .42200003 .63600006 .40600003 .63 .397 .615 C .395 .61 .387 .579 .38300003 .561 C .37600003 .535 .36900003 .508 .363 .48100005 L .318 .301 C .314 .286 .271 .21600002 .20500002 .21600002 C .15400002 .21600002 .143 .26000003 .143 .29700003 C .143 .34300003 .16000001 .40500004 .194 .49300004 C .21000001 .53400006 .21400002 .545 .21400002 .56500008 C .21400002 .61 .18200001 .6470001 .13200002 .6470001 C .037 .6470001 0 .50200006 0 .49300004 C 0 .48300005 .01 .48300005 .012 .48300005 C .022000002 .48300005 .023 .485 .028000003 .50100007 C .055000009 .595 .095000009 .625 .12900001 .625 C .13700001 .625 .15400002 .625 .15400002 .59300008 C .15400002 .568 .14400001 .54200008 .13700001 .523 C .097 .41700004 .079 .36 .079 .31300003 C .079 .224 .142 .194 .201 .194 C .24000003 .194 .274 .21100001 .30200003 .23900002 C .289 .187 .277 .13800001 .237 .08500001 C .21100001 .051 .17300001 .022 .127 .022 C .113000009 .022 .068 .025000006 .051000008 .06400001 C .067 .06400001 .080000009 .06400001 .094000007 .076000008 C .104 .08500001 .11400001 .098000008 .11400001 .117000009 C .11400001 .148 .087000008 .15200001 .07700001 .15200001 C .054000006 .15200001 .021 .136 .021 .087000008 C .021 .037 .065000008 0 .127 0 C .23 0 .333 .091000009 .361 .20400001 L .45700003 .586 Z "/>
</symbol>
<use xlink:href="#font_4_2" transform="matrix(27.673888,0,0,-27.673888,106.72476,26.812033)"/>
</g>
</svg>
