<?xml version="1.0" encoding="UTF-8" standalone="no"?>
<!DOCTYPE svg PUBLIC "-//W3C//DTD SVG 1.1//EN" "http://www.w3.org/Graphics/SVG/1.1/DTD/svg11.dtd">
<svg xmlns="http://www.w3.org/2000/svg" xmlns:xlink="http://www.w3.org/1999/xlink" version="1.1" width="695.3694pt" height="922.36947pt" viewBox="0 0 695.3694 922.36947">
<g enable-background="new">
<path transform="matrix(2.7777777,0,0,-2.7777777,57.02222,307.64167)" d="M 85.04042 0 C 85.04042 0 87.59987 13.95122 88.58287 17.35684 C 89.56586 20.76247 91.14236 22.78271 92.12535 24.54565 C 93.10834 26.3086 94.68484 28.65233 95.66783 30.06311 C 96.65083 31.47388 98.22733 33.5001 99.21033 34.71373 C 100.19331 35.92734 101.76982 37.72809 102.7528 38.81032 C 103.7358 39.89255 105.3123 41.52711 106.2953 42.5137 C 107.27829 43.5003 108.8548 45.00862 109.83778 45.92125 C 110.82077 46.83386 112.39728 48.2383 113.38026 49.09131 C 114.36327 49.94434 115.93976 51.2653 116.92276 52.06934 C 117.90575 52.87337 119.48225 54.12402 120.46524 54.88646 C 121.44823 55.6489 123.02473 56.83789 124.00774 57.56471 C 124.99072 58.29153 126.56723 59.42905 127.55022 60.1249 C 128.5332 60.82076 130.10971 61.9117 131.0927 62.58 C 132.0757 63.2483 133.65219 64.29765 134.6352 64.94167 C 135.61818 65.58566 137.19469 66.59935 138.17768 67.22154 C 139.16066 67.84375 140.73717 68.82382 141.72017 69.42622 C 142.70316 70.02864 144.27967 70.97897 145.26265 71.56337 C 146.24564 72.14777 147.82215 73.0706 148.80513 73.63826 C 149.78813 74.20592 151.36464 75.10225 152.34763 75.65477 C 153.33061 76.20728 154.90712 77.08182 155.8901 77.62065 C 156.8731 78.15948 158.4496 79.01282 159.4326 79.53853 C 160.41559 80.06422 161.9921 80.89626 162.97509 81.40968 C 163.95807 81.92313 165.53458 82.73718 166.51757 83.2393 C 167.50057 83.74142 170.06006 85.0287 170.06006 85.0287 L 170.08086 0 L 85.04042 0 " fill="#0000ff" fill-opacity=".5"/>
<path transform="matrix(2.7777777,0,0,-2.7777777,57.02222,307.64167)" d="M 85.04042 0 C 85.04042 0 87.59987 .0649 88.58287 .14662 C 89.56586 .22835 91.14236 .42526 92.12535 .58908 C 93.10834 .7529 94.68484 1.08173 95.66783 1.32744 C 96.65083 1.57317 98.22733 2.0327 99.21033 2.36032 C 100.19331 2.68796 101.76982 3.27951 102.7528 3.6891 C 103.7358 4.0987 105.3123 4.82109 106.2953 5.3124 C 107.27829 5.80371 108.8548 6.65704 109.83778 7.23027 C 110.82077 7.80348 112.39728 8.7889 113.38026 9.44403 C 114.36327 10.09915 115.93976 11.21523 116.92276 11.9523 C 117.90575 12.68939 119.48225 13.93744 120.46524 14.75642 C 121.44823 15.57542 123.02473 16.95422 124.00774 17.85513 C 124.99072 18.75603 126.56723 20.2669 127.55022 21.24971 C 128.5332 22.23251 130.10971 23.87424 131.0927 24.93883 C 132.0757 26.0034 133.65219 27.77602 134.6352 28.9225 C 135.61818 30.06898 137.19469 31.97363 138.17768 33.20203 C 139.16066 34.43042 140.73717 36.46582 141.72017 37.77612 C 142.70316 39.08643 144.27967 41.25366 145.26265 42.64606 C 146.24564 44.03845 147.82215 46.33768 148.80513 47.81184 C 149.78813 49.28601 151.36464 51.71503 152.34763 53.27092 C 153.33061 54.82681 154.90712 57.38786 155.8901 59.02583 C 156.8731 60.66382 158.4496 63.35667 159.4326 65.0766 C 160.41559 66.79654 161.9921 69.6201 162.97509 71.42194 C 163.95807 73.22379 165.53458 76.17937 166.51757 78.06313 C 167.50057 79.94688 170.06006 84.99887 170.06006 84.99887 L 170.08086 0 L 85.04042 0 " fill="#ffffff"/>
<path transform="matrix(2.7777777,0,0,-2.7777777,57.02222,307.64167)" stroke-width=".3985" stroke-linecap="butt" stroke-miterlimit="10" stroke-linejoin="miter" fill="none" stroke="#000000" d="M -17.00781 0 L 229.60887 0 "/>
<path transform="matrix(2.7777777,0,0,-2.7777777,57.02222,307.64167)" stroke-width=".3985" stroke-linecap="butt" stroke-miterlimit="10" stroke-linejoin="miter" fill="none" stroke="#000000" d="M 0 -1.70114 L 0 110.5528 "/>
<path transform="matrix(2.7777777,0,0,-2.7777777,57.02222,307.64167)" stroke-width=".3985" stroke-linecap="butt" stroke-miterlimit="10" stroke-linejoin="miter" fill="none" stroke="#ff0000" d="M 212.60105 -17.00781 C 205.96862 -17.00781 205.96862 17.00781 212.60105 17.00781 "/>
<path transform="matrix(2.7777777,0,0,-2.7777777,57.02222,307.64167)" stroke-width=".3985" stroke-linecap="butt" stroke-miterlimit="10" stroke-linejoin="miter" fill="none" stroke="#ff0000" d="M 212.60105 17.00781 C 215.54587 17.00781 216.85335 5.49591 216.85335 6.13763 "/>
<path transform="matrix(0,2.7777777,2.7777777,0,659.3926,290.5927)" d="M 3.58653 0 C 2.52383 .19925 .797 .797 -.3985 1.49438 L -.3985 -1.49438 C .797 -.797 2.52383 -.19925 3.58653 0 " fill="#ff0000"/>
<path transform="matrix(2.7777777,0,0,-2.7777777,57.02222,307.64167)" stroke-width=".3985" stroke-linecap="butt" stroke-miterlimit="10" stroke-linejoin="miter" fill="none" stroke="#ff0000" d="M 212.60105 -17.00781 C 215.54587 -17.00781 216.85335 -5.49591 216.85335 -2.5511 "/>
<path transform="matrix(2.7777777,0,0,-2.7777777,57.02222,307.64167)" stroke-width=".3985" stroke-linecap="butt" stroke-miterlimit="10" stroke-linejoin="miter" fill="none" stroke="#000080" d="M 85.04042 0 C 85.04042 0 88.1118 15.28313 89.2914 19.01393 C 90.471 22.74472 92.36278 24.9582 93.54237 26.88911 C 94.72197 28.82002 96.61375 31.38573 97.79335 32.9308 C 98.97295 34.47589 100.86473 36.69566 102.04433 38.02527 C 103.22392 39.35486 105.11569 41.32782 106.2953 42.5137 C 107.4749 43.6996 109.36671 45.49168 110.54631 46.57263 C 111.7259 47.6536 113.61769 49.30498 114.79729 50.30457 C 115.97688 51.30417 117.86867 52.84264 119.04826 53.77701 C 120.22786 54.71138 122.11964 56.15846 123.29924 57.0392 C 124.47884 57.91994 126.37062 59.28954 127.55022 60.1249 C 128.72982 60.96027 130.62165 62.26395 131.80124 63.06009 C 132.98084 63.85623 134.87262 65.10088 136.05222 65.86295 C 137.23181 66.62502 139.12358 67.82071 140.30319 68.55292 C 141.48279 69.28513 143.37456 70.4348 144.55416 71.14037 C 145.73377 71.84595 147.62554 72.95663 148.80513 73.63826 C 149.98473 74.31989 151.87656 75.39331 153.05615 76.05313 C 154.23575 76.71297 156.12754 77.75401 157.30713 78.39404 C 158.48673 79.03407 160.37851 80.04411 161.5581 80.66612 C 162.7377 81.28815 164.62949 82.272 165.80908 82.87729 C 166.98868 83.48257 168.88047 84.43874 170.06006 85.0287 C 171.23966 85.61865 173.13144 86.55362 174.31104 87.12953 C 175.49063 87.70544 177.38245 88.61739 178.56206 89.1798 C 179.74166 89.74222 181.63343 90.63312 182.81302 91.18332 C 183.99263 91.7335 187.064 93.14528 187.064 93.14528 "/>
<path transform="matrix(2.7777777,0,0,-2.7777777,57.02222,307.64167)" stroke-width=".3985" stroke-linecap="butt" stroke-miterlimit="10" stroke-linejoin="miter" fill="none" stroke="#000080" d="M 85.04042 0 C 85.04042 0 87.85582 .07875 88.93713 .17776 C 90.01845 .27678 91.75256 .51547 92.83388 .71368 C 93.9152 .91188 95.64928 1.3092 96.73059 1.60641 C 97.8119 1.90363 99.54602 2.45961 100.62735 2.85602 C 101.70866 3.25243 103.44273 3.9683 104.52405 4.46376 C 105.60536 4.95923 107.3395 5.83258 108.4208 6.42705 C 109.50212 7.02153 111.23624 8.05482 112.31757 8.74849 C 113.39888 9.44215 115.13295 10.63406 116.21426 11.42674 C 117.29558 12.21942 119.02971 13.56995 120.11102 14.46187 C 121.19234 15.35378 122.9264 16.86401 124.00774 17.85513 C 125.08905 18.84624 126.82317 20.51532 127.90448 21.60526 C 128.9858 22.69519 130.71993 24.52176 131.80124 25.71089 C 132.88256 26.90001 134.61663 28.88762 135.69794 30.17598 C 136.77927 31.46436 138.51338 33.60942 139.5947 34.99661 C 140.67601 36.38382 142.4101 38.68768 143.49141 40.17407 C 144.57273 41.66046 146.30684 44.1241 147.38816 45.70973 C 148.46949 47.29535 150.2036 49.91756 151.28491 51.6022 C 152.36623 53.28683 154.10031 56.06766 155.18163 57.85149 C 156.26294 59.63531 157.99706 62.57613 159.07837 64.45897 C 160.15969 66.34181 161.89377 69.4401 162.97509 71.42194 C 164.0564 73.4038 165.79051 76.66197 166.87184 78.74306 C 167.95316 80.82416 169.68723 84.24095 170.76854 86.42105 C 171.84986 88.60115 173.58399 92.17679 174.6653 94.4559 C 175.74662 96.73502 178.56206 102.84753 178.56206 102.84753 "/>
<symbol id="font_0_1">
<path d="M .328 .60200008 L .421 .60200008 C .441 .60200008 .453 .60200008 .453 .62100008 C .453 .63500007 .44000004 .63500007 .423 .63500007 L .33400003 .63500007 C .35000003 .725 .36 .782 .37 .827 C .374 .84400007 .377 .855 .39200003 .86700007 C .405 .878 .41300003 .88000008 .42400003 .88000008 C .439 .88000008 .45500005 .87700006 .468 .869 C .463 .86700007 .45700003 .864 .45200003 .861 C .435 .852 .423 .83400008 .423 .814 C .423 .791 .441 .777 .463 .777 C .49200005 .777 .519 .80200007 .519 .837 C .519 .884 .47100003 .90800008 .423 .90800008 C .38900004 .90800008 .326 .892 .294 .8 C .285 .777 .285 .77500006 .25800003 .63500007 L .183 .63500007 C .163 .63500007 .15100001 .63500007 .15100001 .61600008 C .15100001 .60200008 .164 .60200008 .18100001 .60200008 L .252 .60200008 L .18 .21400002 C .161 .113000009 .146 .027999998 .092999998 .027999998 C .09 .027999998 .069000009 .027999998 .05 .040000008 C .096 .051 .096 .093 .096 .094000007 C .096 .117000009 .077999997 .13100001 .056000007 .13100001 C .029000003 .13100001 0 .10800001 0 .07000001 C 0 .027999998 .043 0 .092999998 0 C .154 0 .19600001 .06400001 .20899999 .08900001 C .245 .155 .268 .28000004 .27 .29000003 L .328 .60200008 Z "/>
</symbol>
<use xlink:href="#font_0_1" transform="matrix(22.139166,0,0,-22.139166,422.34544,245.96366)" fill="#000080"/>
<symbol id="font_1_1">
<path d="M .22999999 0 C .238 0 .25 0 .25 .0119999949 C .25 .015999988 .24900002 .01699999 .236 .029999987 C .099 .159 .065000008 .345 .065000008 .5 C .065000008 .78800007 .18399999 .92300006 .23500002 .96900007 C .24900002 .98200008 .25 .98300006 .25 .98800006 C .25 .99300006 .24599999 1 .236 1 C .22 1 .16999999 .94900009 .162 .94000008 C .028000005 .8 0 .62 0 .5 C 0 .276 .094000007 .095999989 .22999999 0 Z "/>
</symbol>
<use xlink:href="#font_1_1" transform="matrix(22.139166,0,0,-22.139166,437.14979,246.98206)" fill="#000080"/>
<symbol id="font_0_2">
<path d="M .46900005 .409 C .425 .398 .423 .359 .423 .35500003 C .423 .333 .44000004 .31800003 .462 .31800003 C .48400004 .31800003 .518 .335 .518 .37800003 C .518 .435 .455 .451 .418 .451 C .37100003 .451 .333 .418 .31 .379 C .28800003 .432 .236 .451 .19500001 .451 C .08600001 .451 .025000003 .326 .025000003 .298 C .025000003 .289 .032 .285 .040000004 .285 C .052000006 .285 .054 .29 .057 .30200003 C .08 .375 .14 .423 .192 .423 C .231 .423 .25 .395 .25 .359 C .25 .33900003 .238 .293 .23000002 .261 C .22300002 .23200003 .201 .143 .19600001 .124000009 C .18200001 .07 .146 .028 .100999999 .028 C .097 .028 .07100001 .028 .05 .042000005 C .096 .053000004 .096 .095 .096 .096 C .096 .119 .07800001 .133 .056000007 .133 C .029000003 .133 0 .11 0 .072000008 C 0 .026 .049 0 .099999997 0 C .153 0 .19000001 .040000004 .208 .072000008 C .23000002 .023000002 .27600003 0 .324 0 C .43300004 0 .49300004 .125 .49300004 .15300001 C .49300004 .16300002 .485 .16600001 .47800005 .16600001 C .46600003 .16600001 .46400003 .15900001 .46100004 .14900002 C .441 .082 .384 .028 .326 .028 C .293 .028 .26900003 .050000006 .26900003 .092 C .26900003 .112 .275 .135 .289 .19100002 C .296 .22100002 .31800003 .30900003 .323 .328 C .337 .38 .372 .423 .41700004 .423 C .42200003 .423 .448 .423 .46900005 .409 Z "/>
</symbol>
<use xlink:href="#font_0_2" transform="matrix(22.139166,0,0,-22.139166,444.72514,241.66866)" fill="#000080"/>
<symbol id="font_1_2">
<path d="M .24900002 .5 C .24900002 .595 .23300001 .709 .171 .827 C .12200001 .919 .031000004 1 .013000004 1 C .0029999987 1 0 .99300006 0 .98800006 C 0 .984 0 .98200008 .012000002 .97 C .15200001 .837 .18400002 .65400007 .18400002 .5 C .18400002 .213 .065 .07699999 .013999999 .030999989 C .001000002 .017999992 0 .01699999 0 .0119999949 C 0 .0069999846 .0029999987 0 .013000004 0 C .029 0 .07900001 .050999986 .087 .059999989 C .22100002 .2 .24900002 .38 .24900002 .5 Z "/>
</symbol>
<symbol id="font_1_3">
<path d="M .672 .212 C .68700006 .212 .707 .212 .707 .235 C .707 .25800003 .683 .25800003 .66800007 .25800003 L .039 .25800003 C .024 .25800003 0 .25800003 0 .235 C 0 .212 .02 .212 .035 .212 L .672 .212 M .66800007 0 C .683 0 .707 0 .707 .023000002 C .707 .046000005 .68700006 .046000005 .672 .046000005 L .035 .046000005 C .02 .046000005 0 .046000005 0 .023000002 C 0 0 .024 0 .039 0 L .66800007 0 Z "/>
</symbol>
<use xlink:href="#font_1_2" transform="matrix(22.139166,0,0,-22.139166,458.58668,246.98206)" fill="#000080"/>
<use xlink:href="#font_1_3" transform="matrix(22.139166,0,0,-22.139166,474.2391,238.76844)" fill="#000080"/>
<use xlink:href="#font_0_2" transform="matrix(22.139166,0,0,-22.139166,498.4807,241.66866)" fill="#000080"/>
<symbol id="font_2_1">
<path d="M .46600006 .187 L .42900006 .187 C .42700003 .17300001 .41700004 .10700001 .40200005 .096 C .395 .09 .314 .09 .3 .09 L .113 .09 L .24100003 .194 C .275 .22100002 .36400003 .28500004 .395 .31500004 C .425 .34500004 .46600006 .39600004 .46600006 .467 C .46600006 .592 .35300002 .665 .21900001 .665 C .089999999 .665 0 .58000007 0 .48600004 C 0 .43500004 .042999999 .42900003 .053999999 .42900003 C .079 .42900003 .108 .44700004 .108 .483 C .108 .505 .095000009 .537 .051 .537 C .07400001 .588 .13500002 .62600007 .20400003 .62600007 C .30900003 .62600007 .365 .54800006 .365 .467 C .365 .39600004 .31800003 .323 .24800003 .259 L .011 .042000005 C .001000002 .032 0 .031000002 0 0 L .43500004 0 L .46600006 .187 Z "/>
</symbol>
<use xlink:href="#font_2_1" transform="matrix(16.604445,0,0,-16.604445,512.2094,233.63336)" fill="#000080"/>
<use xlink:href="#font_0_1" transform="matrix(22.139166,0,0,-22.139166,347.6343,119.68033)" fill="#000080"/>
<use xlink:href="#font_1_1" transform="matrix(22.139166,0,0,-22.139166,362.43867,120.69873)" fill="#000080"/>
<use xlink:href="#font_0_2" transform="matrix(22.139166,0,0,-22.139166,370.014,115.38533)" fill="#000080"/>
<use xlink:href="#font_1_2" transform="matrix(22.139166,0,0,-22.139166,383.87553,120.69873)" fill="#000080"/>
<use xlink:href="#font_1_3" transform="matrix(22.139166,0,0,-22.139166,399.52796,112.4851)" fill="#000080"/>
<symbol id="font_3_1">
<path d="M .33800004 .110000018 L .149 .49800004 C .14400001 .50900009 .14000002 .51400008 .13200002 .51400008 C .128 .51400008 .126 .513 .11600001 .50600007 L .014000006 .435 C 0 .426 0 .421 0 .41800005 C 0 .412 .0050000029 .40400005 .014000006 .40400005 C .018000007 .40400005 .020000004 .40400005 .032000007 .41400004 C .045 .422 .06500001 .43700005 .082 .449 L .29200004 .018000007 C .30100004 0 .305 0 .31500004 0 C .33200003 0 .335 .004999995 .34300003 .021000028 L .82600006 .95800009 C .83400008 .97200009 .83400008 .97400006 .83400008 .97800007 C .83400008 .99000009 .82400009 1.001 .81100007 1.001 C .79800006 1.001 .794 .99300006 .78700008 .98 L .33800004 .110000018 Z "/>
</symbol>
<use xlink:href="#font_3_1" transform="matrix(22.139166,0,0,-22.139166,424.6994,120.345729)" fill="#000080"/>
<path transform="matrix(2.7777777,0,0,-2.7777777,442.66386,98.70554)" stroke-width=".359" stroke-linecap="butt" stroke-miterlimit="10" stroke-linejoin="miter" fill="none" stroke="#000080" d="M 0 0 L 4.767 0 "/>
<use xlink:href="#font_0_2" transform="matrix(22.139166,0,0,-22.139166,443.3723,115.38533)" fill="#000080"/>
<symbol id="font_4_2">
<path d="M .192 .671 C .19600001 .685 .19600001 .68700006 .19600001 .691 C .19600001 .7 .19000001 .705 .18100001 .705 C .16700001 .705 .078999999 .697 .059000005 .695 C .049 .694 .038 .693 .038 .676 C .038 .663 .049 .663 .065 .663 C .112 .663 .112 .656 .112 .647 C .112 .64100006 .112 .639 .105000007 .612 L .052000006 .40100003 C .038 .34500004 .025000003 .29400004 .014000002 .24700003 C .0069999995 .22200002 0 .19200002 0 .16000001 C 0 .074 .048000006 0 .134 0 C .25100003 0 .37900005 .14100002 .37900005 .291 C .37900005 .39300005 .316 .45300005 .24100001 .45300005 C .19000001 .45300005 .146 .418 .122999999 .39600004 L .192 .671 M .109 .33900003 C .13700001 .37900005 .18800001 .42800004 .23900001 .42800004 C .286 .42800004 .30500005 .381 .30500005 .33400003 C .30500005 .28900004 .277 .16500002 .246 .112 C .209 .048 .165 .025000003 .134 .025000003 C .08400001 .025000003 .06400001 .075 .06400001 .126 C .06400001 .16100002 .07100001 .18800001 .094 .279 L .109 .33900003 Z "/>
</symbol>
<use xlink:href="#font_4_2" transform="matrix(24.906666,0,0,-24.906666,525.1484,334.9879)"/>
<symbol id="font_4_1">
<path d="M .34000004 .39100004 C .321 .42700003 .29000003 .45300005 .245 .45300005 C .12900001 .45300005 0 .31500004 0 .16200002 C 0 .052 .07 0 .137 0 C .20200002 0 .25500003 .054 .27100004 .07300001 C .282 .018000002 .33200003 0 .36400003 0 C .39300005 0 .418 .013000001 .44000004 .055000005 C .458 .08800001 .472 .15000002 .472 .15400002 C .472 .15900001 .46900005 .16600001 .45900006 .16600001 C .44700004 .16600001 .44600005 .16100002 .44200004 .14200002 C .42000003 .055000005 .39800004 .025000003 .367 .025000003 C .342 .025000003 .33600004 .049000004 .33600004 .071 C .33600004 .09 .34100003 .11000001 .35000003 .14500001 L .37500004 .24800003 C .38200004 .27300004 .40000005 .34800003 .404 .36300005 C .40800003 .37700004 .41400004 .40100003 .41400004 .404 C .41400004 .42000003 .40100003 .43300004 .38300003 .43300004 C .37000004 .43300004 .34500004 .42500005 .34000004 .39100004 M .275 .13300002 C .27 .11400001 .27 .113000009 .254 .094000007 C .21800003 .051000004 .17700002 .025000003 .14000002 .025000003 C .091 .025000003 .074 .076000008 .074 .119 C .074 .16800002 .10300001 .28300003 .127 .33100004 C .15900001 .39100004 .20500002 .42800004 .245 .42800004 C .312 .42800004 .32700003 .34800003 .32700003 .34100003 C .32700003 .33600004 .32500003 .33 .32400004 .32600004 L .275 .13300002 Z "/>
</symbol>
<use xlink:href="#font_4_1" transform="matrix(24.906666,0,0,-24.906666,287.50718,328.4157)"/>
<path transform="matrix(2.7777777,0,0,-2.7777777,57.02222,307.64167)" stroke-width=".3985" stroke-linecap="butt" stroke-miterlimit="10" stroke-linejoin="miter" fill="none" stroke="#000000" d="M -17.00781 -127.56065 L 229.60887 -127.56065 "/>
<path transform="matrix(2.7777777,0,0,-2.7777777,57.02222,307.64167)" stroke-width=".3985" stroke-linecap="butt" stroke-miterlimit="10" stroke-linejoin="miter" fill="none" stroke="#000000" d="M 0 -221.10564 L 0 -34.01569 "/>
<use xlink:href="#font_4_2" transform="matrix(24.906666,0,0,-24.906666,525.1484,689.3184)"/>
<use xlink:href="#font_4_1" transform="matrix(24.906666,0,0,-24.906666,270.94886,682.7462)"/>
<path transform="matrix(2.7777777,0,0,-2.7777777,57.02222,307.64167)" d="M 85.04042 -127.56065 C 85.04042 -127.56065 87.59987 -113.60944 88.58287 -110.20381 C 89.56586 -106.79819 91.14236 -104.77794 92.12535 -103.015 C 93.10834 -101.25206 94.68484 -98.90833 95.66783 -97.49754 C 96.65083 -96.08678 98.22733 -94.06055 99.21033 -92.84692 C 100.19331 -91.6333 101.76982 -89.83255 102.7528 -88.75032 C 103.7358 -87.6681 105.3123 -86.03354 106.2953 -85.04694 C 107.27829 -84.06035 108.8548 -82.55203 109.83778 -81.6394 C 110.82077 -80.72679 112.39728 -79.32236 113.38026 -78.46933 C 114.36327 -77.61632 115.93976 -76.29535 116.92276 -75.49132 C 117.90575 -74.68729 119.48225 -73.43663 120.46524 -72.6742 C 121.44823 -71.91174 123.02473 -70.72276 124.00774 -69.99594 C 124.99072 -69.26912 126.56723 -68.1316 127.55022 -67.43576 C 128.5332 -66.7399 130.10971 -65.64896 131.0927 -64.98065 C 132.0757 -64.31235 133.65219 -63.263 134.6352 -62.61899 C 135.61818 -61.97499 137.19469 -60.9613 138.17768 -60.33911 C 139.16066 -59.7169 140.73717 -58.73683 141.72017 -58.13443 C 142.70316 -57.53201 144.27967 -56.58168 145.26265 -55.99728 C 146.24564 -55.41289 147.82215 -54.49005 148.80513 -53.9224 C 149.78813 -53.35474 151.36464 -52.4584 152.34763 -51.90588 C 153.33061 -51.35336 154.90712 -50.47884 155.8901 -49.94 C 156.8731 -49.40117 158.4496 -48.54784 159.4326 -48.02213 C 160.41559 -47.49643 161.9921 -46.6644 162.97509 -46.15097 C 163.95807 -45.63753 165.53458 -44.82347 166.51757 -44.32135 C 167.50057 -43.81923 170.06006 -42.53195 170.06006 -42.53195 C 165.04746 -42.53195 161.57627 -122.54807 161.57627 -127.56065 L 85.04042 -127.56065 " fill="#8080ff"/>
<path transform="matrix(2.7777777,0,0,-2.7777777,57.02222,307.64167)" d="M 85.04042 -127.56065 C 85.04042 -127.56065 87.59987 -141.51189 88.58287 -144.9175 C 89.56586 -148.32312 91.14236 -150.34339 92.12535 -152.10633 C 93.10834 -153.86927 94.68484 -156.213 95.66783 -157.62378 C 96.65083 -159.03455 98.22733 -161.06078 99.21033 -162.2744 C 100.19331 -163.488 101.76982 -165.28876 102.7528 -166.37099 C 103.7358 -167.45322 105.3123 -169.08779 106.2953 -170.07437 C 107.27829 -171.06098 108.8548 -172.56929 109.83778 -173.48192 C 110.82077 -174.39453 112.39728 -175.79897 113.38026 -176.65198 C 114.36327 -177.50499 115.93976 -178.82598 116.92276 -179.63 C 117.90575 -180.43404 119.48225 -181.6847 120.46524 -182.44713 C 121.44823 -183.20957 123.02473 -184.39856 124.00774 -185.12538 C 124.99072 -185.8522 126.56723 -186.98972 127.55022 -187.68556 C 128.5332 -188.38143 130.10971 -189.47235 131.0927 -190.14067 C 132.0757 -190.80898 133.65219 -191.85832 134.6352 -192.50232 C 135.61818 -193.14633 137.19469 -194.16 138.17768 -194.78221 C 139.16066 -195.40442 140.73717 -196.38449 141.72017 -196.9869 C 142.70316 -197.58931 144.27967 -198.53964 145.26265 -199.12404 C 146.24564 -199.70844 147.82215 -200.63127 148.80513 -201.19892 C 149.78813 -201.76657 151.36464 -202.66292 152.34763 -203.21544 C 153.33061 -203.76795 154.90712 -204.64249 155.8901 -205.18132 C 156.8731 -205.72016 158.4496 -206.57349 159.4326 -207.09918 C 160.41559 -207.6249 161.9921 -208.45693 162.97509 -208.97035 C 163.95807 -209.48378 165.53458 -210.29785 166.51757 -210.79998 C 167.50057 -211.3021 170.06006 -212.58937 170.06006 -212.58937 C 165.04746 -212.58937 161.57627 -132.57326 161.57627 -127.56065 L 85.04042 -127.56065 " fill="#8080ff"/>
<path transform="matrix(2.7777777,0,0,-2.7777777,57.02222,307.64167)" stroke-width=".3985" stroke-linecap="butt" stroke-miterlimit="10" stroke-linejoin="miter" fill="none" stroke="#000080" d="M 85.04042 -127.56065 C 85.04042 -127.56065 87.59987 -113.60944 88.58287 -110.20381 C 89.56586 -106.79819 91.14236 -104.77794 92.12535 -103.015 C 93.10834 -101.25206 94.68484 -98.90833 95.66783 -97.49754 C 96.65083 -96.08678 98.22733 -94.06055 99.21033 -92.84692 C 100.19331 -91.6333 101.76982 -89.83255 102.7528 -88.75032 C 103.7358 -87.6681 105.3123 -86.03354 106.2953 -85.04694 C 107.27829 -84.06035 108.8548 -82.55203 109.83778 -81.6394 C 110.82077 -80.72679 112.39728 -79.32236 113.38026 -78.46933 C 114.36327 -77.61632 115.93976 -76.29535 116.92276 -75.49132 C 117.90575 -74.68729 119.48225 -73.43663 120.46524 -72.6742 C 121.44823 -71.91174 123.02473 -70.72276 124.00774 -69.99594 C 124.99072 -69.26912 126.56723 -68.1316 127.55022 -67.43576 C 128.5332 -66.7399 130.10971 -65.64896 131.0927 -64.98065 C 132.0757 -64.31235 133.65219 -63.263 134.6352 -62.61899 C 135.61818 -61.97499 137.19469 -60.9613 138.17768 -60.33911 C 139.16066 -59.7169 140.73717 -58.73683 141.72017 -58.13443 C 142.70316 -57.53201 144.27967 -56.58168 145.26265 -55.99728 C 146.24564 -55.41289 147.82215 -54.49005 148.80513 -53.9224 C 149.78813 -53.35474 151.36464 -52.4584 152.34763 -51.90588 C 153.33061 -51.35336 154.90712 -50.47884 155.8901 -49.94 C 156.8731 -49.40117 158.4496 -48.54784 159.4326 -48.02213 C 160.41559 -47.49643 161.9921 -46.6644 162.97509 -46.15097 C 163.95807 -45.63753 165.53458 -44.82347 166.51757 -44.32135 C 167.50057 -43.81923 170.06006 -42.53195 170.06006 -42.53195 "/>
<path transform="matrix(2.7777777,0,0,-2.7777777,57.02222,307.64167)" stroke-width=".3985" stroke-linecap="butt" stroke-miterlimit="10" stroke-linejoin="miter" fill="none" stroke="#000080" d="M 85.04042 -127.56065 C 85.04042 -127.56065 87.59987 -141.51189 88.58287 -144.9175 C 89.56586 -148.32312 91.14236 -150.34339 92.12535 -152.10633 C 93.10834 -153.86927 94.68484 -156.213 95.66783 -157.62378 C 96.65083 -159.03455 98.22733 -161.06078 99.21033 -162.2744 C 100.19331 -163.488 101.76982 -165.28876 102.7528 -166.37099 C 103.7358 -167.45322 105.3123 -169.08779 106.2953 -170.07437 C 107.27829 -171.06098 108.8548 -172.56929 109.83778 -173.48192 C 110.82077 -174.39453 112.39728 -175.79897 113.38026 -176.65198 C 114.36327 -177.50499 115.93976 -178.82598 116.92276 -179.63 C 117.90575 -180.43404 119.48225 -181.6847 120.46524 -182.44713 C 121.44823 -183.20957 123.02473 -184.39856 124.00774 -185.12538 C 124.99072 -185.8522 126.56723 -186.98972 127.55022 -187.68556 C 128.5332 -188.38143 130.10971 -189.47235 131.0927 -190.14067 C 132.0757 -190.80898 133.65219 -191.85832 134.6352 -192.50232 C 135.61818 -193.14633 137.19469 -194.16 138.17768 -194.78221 C 139.16066 -195.40442 140.73717 -196.38449 141.72017 -196.9869 C 142.70316 -197.58931 144.27967 -198.53964 145.26265 -199.12404 C 146.24564 -199.70844 147.82215 -200.63127 148.80513 -201.19892 C 149.78813 -201.76657 151.36464 -202.66292 152.34763 -203.21544 C 153.33061 -203.76795 154.90712 -204.64249 155.8901 -205.18132 C 156.8731 -205.72016 158.4496 -206.57349 159.4326 -207.09918 C 160.41559 -207.6249 161.9921 -208.45693 162.97509 -208.97035 C 163.95807 -209.48378 165.53458 -210.29785 166.51757 -210.79998 C 167.50057 -211.3021 170.06006 -212.58937 170.06006 -212.58937 "/>
<path transform="matrix(2.7777777,0,0,-2.7777777,57.02222,307.64167)" stroke-width=".3985" stroke-linecap="butt" stroke-dasharray="2.98883,2.98883" stroke-miterlimit="10" stroke-linejoin="miter" fill="none" stroke="#000080" d="M 85.04042 -127.56065 C 85.04042 -127.56065 87.59987 -127.49576 88.58287 -127.41403 C 89.56586 -127.3323 91.14236 -127.13539 92.12535 -126.97157 C 93.10834 -126.80775 94.68484 -126.47893 95.66783 -126.2332 C 96.65083 -125.98749 98.22733 -125.52795 99.21033 -125.20032 C 100.19331 -124.8727 101.76982 -124.28114 102.7528 -123.87155 C 103.7358 -123.46196 105.3123 -122.73956 106.2953 -122.24825 C 107.27829 -121.75694 108.8548 -120.90361 109.83778 -120.33038 C 110.82077 -119.75717 112.39728 -118.77176 113.38026 -118.11662 C 114.36327 -117.4615 115.93976 -116.34543 116.92276 -115.60835 C 117.90575 -114.87126 119.48225 -113.62321 120.46524 -112.80421 C 121.44823 -111.98523 123.02473 -110.60643 124.00774 -109.70552 C 124.99072 -108.80463 126.56723 -107.29375 127.55022 -106.31094 C 128.5332 -105.32813 130.10971 -103.6864 131.0927 -102.62183 C 132.0757 -101.55725 133.65219 -99.78464 134.6352 -98.63815 C 135.61818 -97.49167 137.19469 -95.58702 138.17768 -94.35863 C 139.16066 -93.13023 140.73717 -91.09483 141.72017 -89.78453 C 142.70316 -88.47423 144.27967 -86.30699 145.26265 -84.9146 C 146.24564 -83.5222 147.82215 -81.22298 148.80513 -79.74881 C 149.78813 -78.27464 151.36464 -75.84563 152.34763 -74.28973 C 153.33061 -72.73384 154.90712 -70.17279 155.8901 -68.53482 C 156.8731 -66.89684 158.4496 -64.20398 159.4326 -62.48404 C 160.41559 -60.76411 161.9921 -57.94055 162.97509 -56.1387 C 163.95807 -54.33687 165.53458 -51.38129 166.51757 -49.49753 C 167.50057 -47.61377 170.06006 -42.56178 170.06006 -42.56178 "/>
<path transform="matrix(2.7777777,0,0,-2.7777777,57.02222,307.64167)" stroke-width=".3985" stroke-linecap="butt" stroke-dasharray="2.98883,2.98883" stroke-miterlimit="10" stroke-linejoin="miter" fill="none" stroke="#000080" d="M 85.04042 -127.56065 C 85.04042 -127.56065 87.59987 -127.62555 88.58287 -127.70728 C 89.56586 -127.789 91.14236 -127.98593 92.12535 -128.14975 C 93.10834 -128.31357 94.68484 -128.64238 95.66783 -128.8881 C 96.65083 -129.13384 98.22733 -129.59337 99.21033 -129.92099 C 100.19331 -130.24863 101.76982 -130.84018 102.7528 -131.24977 C 103.7358 -131.65937 105.3123 -132.38176 106.2953 -132.87306 C 107.27829 -133.36438 108.8548 -134.21772 109.83778 -134.79094 C 110.82077 -135.36415 112.39728 -136.34957 113.38026 -137.00469 C 114.36327 -137.65982 115.93976 -138.7759 116.92276 -139.51297 C 117.90575 -140.25006 119.48225 -141.49811 120.46524 -142.3171 C 121.44823 -143.1361 123.02473 -144.5149 124.00774 -145.41579 C 124.99072 -146.3167 126.56723 -147.82758 127.55022 -148.81038 C 128.5332 -149.79319 130.10971 -151.4349 131.0927 -152.4995 C 132.0757 -153.56407 133.65219 -155.33669 134.6352 -156.48317 C 135.61818 -157.62966 137.19469 -159.5343 138.17768 -160.7627 C 139.16066 -161.99109 140.73717 -164.02648 141.72017 -165.33679 C 142.70316 -166.6471 144.27967 -168.81433 145.26265 -170.20673 C 146.24564 -171.59912 147.82215 -173.89835 148.80513 -175.37252 C 149.78813 -176.84668 151.36464 -179.2757 152.34763 -180.83159 C 153.33061 -182.38748 154.90712 -184.94852 155.8901 -186.5865 C 156.8731 -188.22449 158.4496 -190.91735 159.4326 -192.63727 C 160.41559 -194.35721 161.9921 -197.18077 162.97509 -198.9826 C 163.95807 -200.78446 165.53458 -203.74004 166.51757 -205.6238 C 167.50057 -207.50754 170.06006 -212.55954 170.06006 -212.55954 "/>
<path transform="matrix(2.7777777,0,0,-2.7777777,57.02222,307.64167)" stroke-width=".3985" stroke-linecap="butt" stroke-miterlimit="10" stroke-linejoin="miter" fill="none" stroke="#000080" d="M 170.08086 -42.52023 C 160.13233 -42.52023 160.13233 -212.60109 170.08086 -212.60109 C 180.02938 -212.60109 180.02938 -42.52023 170.08086 -42.52023 "/>
<path transform="matrix(2.7777777,0,0,-2.7777777,57.02222,307.64167)" d="M 100.34705 -89.54706 L 103.74939 -89.54706 C 108.19643 -89.54706 108.19643 -165.57425 103.74939 -165.57425 L 100.34705 -165.57425 C 95.90001 -165.57425 95.90001 -89.54706 100.34705 -89.54706 " fill="#0000cc"/>
<path transform="matrix(2.7777777,0,0,-2.7777777,57.02222,307.64167)" stroke-width=".3985" stroke-linecap="butt" stroke-miterlimit="10" stroke-linejoin="miter" fill="none" stroke="#000080" d="M 100.34705 -89.54706 L 103.74939 -89.54706 C 108.19643 -89.54706 108.19643 -165.57425 103.74939 -165.57425 L 100.34705 -165.57425 C 95.90001 -165.57425 95.90001 -89.54706 100.34705 -89.54706 "/>
<path transform="matrix(2.7777777,0,0,-2.7777777,57.02222,307.64167)" stroke-width=".3985" stroke-linecap="butt" stroke-miterlimit="10" stroke-linejoin="miter" fill="none" stroke="#000080" d="M 103.74939 -89.54706 C 99.30235 -89.54706 99.30235 -165.57425 103.74939 -165.57425 "/>
<path transform="matrix(2.7777777,0,0,-2.7777777,57.02222,307.64167)" stroke-width=".3985" stroke-linecap="butt" stroke-miterlimit="10" stroke-linejoin="miter" fill="none" stroke="#000080" d="M 103.74939 -124.15964 C 104.14722 -124.15964 104.14722 -130.96167 103.74939 -130.96167 C 103.35156 -130.96167 103.35156 -124.15964 103.74939 -124.15964 "/>
<path transform="matrix(2.7777777,0,0,-2.7777777,57.02222,307.64167)" d="M 125.85942 -67.43703 L 129.26181 -67.43703 C 136.29538 -67.43703 136.29538 -187.68428 129.26181 -187.68428 L 125.85942 -187.68428 C 118.82585 -187.68428 118.82585 -67.43703 125.85942 -67.43703 " fill="#0000cc"/>
<path transform="matrix(2.7777777,0,0,-2.7777777,57.02222,307.64167)" stroke-width=".3985" stroke-linecap="butt" stroke-miterlimit="10" stroke-linejoin="miter" fill="none" stroke="#000080" d="M 125.85942 -67.43703 L 129.26181 -67.43703 C 136.29538 -67.43703 136.29538 -187.68428 129.26181 -187.68428 L 125.85942 -187.68428 C 118.82585 -187.68428 118.82585 -67.43703 125.85942 -67.43703 "/>
<path transform="matrix(2.7777777,0,0,-2.7777777,57.02222,307.64167)" stroke-width=".3985" stroke-linecap="butt" stroke-miterlimit="10" stroke-linejoin="miter" fill="none" stroke="#000080" d="M 129.26181 -67.43703 C 122.22823 -67.43703 122.22823 -187.68428 129.26181 -187.68428 "/>
<path transform="matrix(2.7777777,0,0,-2.7777777,57.02222,307.64167)" stroke-width=".3985" stroke-linecap="butt" stroke-miterlimit="10" stroke-linejoin="miter" fill="none" stroke="#000080" d="M 129.26181 -106.30058 C 131.74893 -106.30058 131.74893 -148.82074 129.26181 -148.82074 C 126.77469 -148.82074 126.77469 -106.30058 129.26181 -106.30058 "/>
<path transform="matrix(2.7777777,0,0,-2.7777777,57.02222,307.64167)" d="M 151.37184 -51.50104 L 154.77417 -51.50104 C 163.67208 -51.50104 163.67208 -203.62027 154.77417 -203.62027 L 151.37184 -203.62027 L 151.37184 -181.98647 C 157.73888 -181.98647 157.73888 -73.13486 151.37184 -73.13486 Z " fill="#0000cc"/>
<path transform="matrix(2.7777777,0,0,-2.7777777,57.02222,307.64167)" stroke-width=".3985" stroke-linecap="butt" stroke-miterlimit="10" stroke-linejoin="miter" fill="none" stroke="#000080" d="M 151.37184 -181.98647 C 157.73888 -181.98647 157.73888 -73.13486 151.37184 -73.13486 "/>
<path transform="matrix(2.7777777,0,0,-2.7777777,57.02222,307.64167)" d="M 151.37184 -51.50104 L 154.77417 -51.50104 L 154.77417 -73.13486 C 148.40714 -73.13486 148.40714 -181.98647 154.77417 -181.98647 L 154.77417 -203.62027 L 151.37184 -203.62027 C 142.47394 -203.62027 142.47394 -51.50104 151.37184 -51.50104 " fill="#0000cc"/>
<path transform="matrix(2.7777777,0,0,-2.7777777,57.02222,307.64167)" stroke-width=".3985" stroke-linecap="butt" stroke-miterlimit="10" stroke-linejoin="miter" fill="none" stroke="#000080" d="M 151.37184 -51.50104 L 154.77417 -51.50104 C 163.67208 -51.50104 163.67208 -203.62027 154.77417 -203.62027 L 151.37184 -203.62027 C 142.47394 -203.62027 142.47394 -51.50104 151.37184 -51.50104 "/>
<path transform="matrix(2.7777777,0,0,-2.7777777,57.02222,307.64167)" stroke-width=".3985" stroke-linecap="butt" stroke-miterlimit="10" stroke-linejoin="miter" fill="none" stroke="#000080" d="M 154.77417 -51.50104 C 145.87628 -51.50104 145.87628 -203.62027 154.77417 -203.62027 "/>
<path transform="matrix(2.7777777,0,0,-2.7777777,57.02222,307.64167)" stroke-width=".3985" stroke-linecap="butt" stroke-miterlimit="10" stroke-linejoin="miter" fill="none" stroke="#000080" d="M 154.77417 -73.13486 C 161.14122 -73.13486 161.14122 -181.98647 154.77417 -181.98647 C 148.40714 -181.98647 148.40714 -73.13486 154.77417 -73.13486 "/>
</g>
</svg>
