<?xml version="1.0" encoding="UTF-8" standalone="no"?>
<!DOCTYPE svg PUBLIC "-//W3C//DTD SVG 1.1//EN" "http://www.w3.org/Graphics/SVG/1.1/DTD/svg11.dtd">
<svg xmlns="http://www.w3.org/2000/svg" xmlns:xlink="http://www.w3.org/1999/xlink" version="1.1" width="1183.0999pt" height="374.59446pt" viewBox="0 0 1183.0999 374.59446">
<g enable-background="new">
<path transform="matrix(2.7777777,0,0,-2.7777777,167.8111,314.43333)" d="M 0 42.52022 L 0 -10.63004 L 1.41733 -10.46394 L 2.83467 -9.96567 L 4.25201 -9.1352 L 5.66937 -7.97253 L 7.08672 -6.47768 L 8.50406 -4.65063 L 9.92142 -2.4914 L 11.33876 0 L 12.75609 2.8236 L 14.17345 5.97939 L 15.59079 9.46738 L 17.00813 13.28755 L 18.42549 17.43991 L 19.84283 21.92447 L 21.26018 26.74121 L 22.67754 31.89015 L 24.09486 37.37128 L 25.5122 43.18459 L 26.92955 49.3301 L 28.34691 55.80779 L 29.76425 62.61766 L 31.1816 69.75974 L 32.59895 77.23398 L 34.0163 85.04044 L 0 21.2601 " fill="#0000ff" fill-opacity=".5"/>
<path transform="matrix(2.7777777,0,0,-2.7777777,167.8111,314.43333)" d="M 0 21.2601 L 0 -10.63004 L .81818 -10.57457 L 1.63637 -10.4088 L 2.45456 -10.13176 L 3.27275 -9.74442 L 4.09096 -9.24646 L 4.90913 -8.63756 L 5.72733 -7.91803 L 6.54552 -7.08755 L 7.36371 -6.14679 L 8.18192 -5.09508 L 9.00009 -3.93272 L 9.8183 -2.65977 L 10.63647 -1.27586 L 11.45467 .2183 L 12.27287 1.82346 L 13.09105 3.53923 L 13.90926 5.36594 L 14.72745 7.30296 L 15.54562 9.3509 L 16.36383 11.5095 L 17.182 13.77902 L 18.00021 16.15884 L 18.8184 18.64963 L 19.6366 21.251 L 19.63937 21.2601 " fill="#ffffff"/>
<path transform="matrix(2.7777777,0,0,-2.7777777,167.8111,314.43333)" stroke-width=".79701" stroke-linecap="butt" stroke-miterlimit="10" stroke-linejoin="miter" fill="none" stroke="#000000" d="M 0 -10.63004 L .36644 -10.61902 L .73288 -10.5856 L 1.09932 -10.53014 L 1.46579 -10.45227 L 1.83223 -10.35236 L 2.19867 -10.23038 L 2.56511 -10.08601 L 2.93158 -9.9196 L 3.29802 -9.73079 L 3.66446 -9.51993 L 4.0309 -9.28668 L 4.39737 -9.03139 L 4.76381 -8.7537 L 5.13025 -8.45393 L 5.49669 -8.1318 L 5.86316 -7.78761 L 6.2296 -7.42137 L 6.59604 -7.03273 L 6.96248 -6.62204 L 7.32895 -6.18896 L 7.69539 -5.73381 L 8.06183 -5.25629 L 8.42827 -4.75671 L 8.79474 -4.23474 L 9.16118 -3.69073 L 9.52762 -3.12463 L 9.89406 -2.53616 L 10.26053 -1.92564 L 10.62697 -1.29274 L 10.99341 -.63776 L 11.35985 .03957 L 11.72632 .73898 L 12.09276 1.46045 L 12.4592 2.20432 L 12.82565 2.97055 L 13.19211 3.75885 L 13.55855 4.5692 L 13.92499 5.40195 L 14.29144 6.25708 L 14.6579 7.13394 L 15.02434 8.03351 L 15.39078 8.95482 L 15.75723 9.89851 L 16.12369 10.8646 L 16.49013 11.85272 L 16.85657 12.8629 L 17.22302 13.89548 L 17.58948 14.95045 L 17.95592 16.02715 L 18.32236 17.12654 L 18.68881 18.24768 L 19.05527 19.39153 L 19.4217 20.55711 L 19.78815 21.74509 L 20.1546 22.95543 L 20.52106 24.18785 L 20.8875 25.4423 L 21.25394 26.71916 L 21.62039 28.01808 L 21.98685 29.33937 L 22.35329 30.68272 L 22.71973 32.04845 L 23.08618 33.43626 L 23.45264 34.84644 L 23.81908 36.27867 L 24.18553 37.73299 L 24.55197 39.20967 L 24.91843 40.70842 L 25.28487 42.22954 L 25.65132 43.77274 L 26.01776 45.3383 L 26.38422 46.92593 L 26.75066 48.53593 L 27.11711 50.16803 L 27.48355 51.82216 L 27.85 53.49867 L 28.21645 55.19757 L 28.5829 56.91853 L 28.94934 58.66156 L 29.3158 60.42696 L 29.68224 62.21442 L 30.04869 64.02426 L 30.41513 65.85619 L 30.78159 67.71013 L 31.14803 69.58649 L 31.51448 71.48523 L 31.88092 73.406 L 32.24738 75.34888 L 32.61382 77.3141 L 32.98027 79.3014 L 33.34671 81.31108 L 33.71317 83.34283 L 34.0796 85.39696 L 34.44606 87.47313 L 34.81252 89.57137 L 35.17896 91.692 L 35.54541 93.83469 L 35.91185 95.99976 L 36.2783 98.18721 "/>
<symbol id="font_0_4">
<path d="M .467 .374 C .467 .45200003 .42200003 .45200003 .418 .45200003 C .39400003 .45200003 .36600004 .426 .36600004 .4 C .36600004 .384 .374 .377 .38300003 .36900003 C .40600003 .349 .42000003 .321 .42000003 .289 C .42000003 .24300002 .354 .028 .23900002 .028 C .19600001 .028 .16100002 .051000004 .16100002 .114 C .16100002 .16900002 .19100002 .24800001 .215 .308 C .227 .34 .23000002 .34800003 .23000002 .366 C .23000002 .42000003 .186 .451 .14 .451 C .041 .451 0 .31 0 .298 C 0 .289 .0069999995 .285 .015000001 .285 C .028 .285 .029000003 .291 .032 .301 C .058000007 .388 .10100001 .423 .13700001 .423 C .15200001 .423 .16100002 .414 .16100002 .39000003 C .16100002 .367 .15200001 .344 .142 .319 C .093 .19300002 .089 .16000001 .089 .12900001 C .089 .020000002 .178 0 .23500002 0 C .40100003 0 .467 .298 .467 .374 Z "/>
</symbol>
<use xlink:href="#font_0_4" transform="matrix(22.139166,0,0,-22.139166,247.35582,26.049181)"/>
<symbol id="font_1_1">
<path d="M .22999999 0 C .238 0 .25 0 .25 .0119999949 C .25 .015999988 .24900002 .01699999 .236 .029999987 C .099 .159 .065000008 .345 .065000008 .5 C .065000008 .78800007 .18399999 .92300006 .23500002 .96900007 C .24900002 .98200008 .25 .98300006 .25 .98800006 C .25 .99300006 .24599999 1 .236 1 C .22 1 .16999999 .94900009 .162 .94000008 C .028000005 .8 0 .62 0 .5 C 0 .276 .094000007 .095999989 .22999999 0 Z "/>
</symbol>
<use xlink:href="#font_1_1" transform="matrix(22.139166,0,0,-22.139166,261.2192,31.362582)"/>
<symbol id="font_0_5">
<path d="M .46900005 .409 C .425 .398 .423 .359 .423 .35500003 C .423 .333 .44000004 .31800003 .462 .31800003 C .48400004 .31800003 .518 .335 .518 .37800003 C .518 .435 .455 .451 .418 .451 C .37100003 .451 .333 .418 .31 .379 C .28800003 .432 .236 .451 .19500001 .451 C .08600001 .451 .025000003 .326 .025000003 .298 C .025000003 .289 .032 .285 .040000004 .285 C .052000006 .285 .054 .29 .057 .30200003 C .08 .375 .14 .423 .192 .423 C .231 .423 .25 .395 .25 .359 C .25 .33900003 .238 .293 .23000002 .261 C .22300002 .23200003 .201 .143 .19600001 .124000009 C .18200001 .07 .146 .028 .100999999 .028 C .097 .028 .07100001 .028 .05 .042000005 C .096 .053000004 .096 .095 .096 .096 C .096 .119 .07800001 .133 .056000007 .133 C .029000003 .133 0 .11 0 .072000008 C 0 .026 .049 0 .099999997 0 C .153 0 .19000001 .040000004 .208 .072000008 C .23000002 .023000002 .27600003 0 .324 0 C .43300004 0 .49300004 .125 .49300004 .15300001 C .49300004 .16300002 .485 .16600001 .47800005 .16600001 C .46600003 .16600001 .46400003 .15900001 .46100004 .14900002 C .441 .082 .384 .028 .326 .028 C .293 .028 .26900003 .050000006 .26900003 .092 C .26900003 .112 .275 .135 .289 .19100002 C .296 .22100002 .31800003 .30900003 .323 .328 C .337 .38 .372 .423 .41700004 .423 C .42200003 .423 .448 .423 .46900005 .409 Z "/>
</symbol>
<use xlink:href="#font_0_5" transform="matrix(22.139166,0,0,-22.139166,268.79734,26.049181)"/>
<symbol id="font_1_2">
<path d="M .24900002 .5 C .24900002 .595 .23300001 .709 .171 .827 C .12200001 .919 .031000004 1 .013000004 1 C .0029999987 1 0 .99300006 0 .98800006 C 0 .984 0 .98200008 .012000002 .97 C .15200001 .837 .18400002 .65400007 .18400002 .5 C .18400002 .213 .065 .07699999 .013999999 .030999989 C .001000002 .017999992 0 .01699999 0 .0119999949 C 0 .0069999846 .0029999987 0 .013000004 0 C .029 0 .07900001 .050999986 .087 .059999989 C .22100002 .2 .24900002 .38 .24900002 .5 Z "/>
</symbol>
<use xlink:href="#font_1_2" transform="matrix(22.139166,0,0,-22.139166,282.6561,31.362582)"/>
<path transform="matrix(2.7777777,0,0,-2.7777777,167.8111,314.43333)" stroke-width=".79701" stroke-linecap="butt" stroke-miterlimit="10" stroke-linejoin="miter" fill="none" stroke="#000000" d="M 0 21.2601 L .4123 22.03314 L .82458 22.8062 L 1.23688 23.57927 L 1.64919 24.35231 L 2.06148 25.12537 L 2.47377 25.89842 L 2.88606 26.67146 L 3.29837 27.44452 L 3.71066 28.21759 L 4.12296 28.99063 L 4.53525 29.76369 L 4.94756 30.53674 L 5.35985 31.30978 L 5.77214 32.08284 L 6.18443 32.85591 L 6.59674 33.62895 L 7.00903 34.40201 L 7.42133 35.17506 L 7.83362 35.9481 L 8.24593 36.72116 L 8.65822 37.49423 L 9.07051 38.26727 L 9.4828 39.04033 L 9.89511 39.81339 L 10.3074 40.58643 L 10.7197 41.3595 L 11.132 42.13255 L 11.5443 42.9056 L 11.95659 43.67865 L 12.36888 44.4517 L 12.78119 45.22475 L 13.19348 45.99782 L 13.60577 46.77087 L 14.01807 47.54391 L 14.43037 48.31697 L 14.84267 49.09003 L 15.25496 49.86307 L 15.66725 50.63614 L 16.07956 51.4092 L 16.49185 52.18224 L 16.90414 52.95529 L 17.31644 53.72835 L 17.72876 54.5014 L 18.14105 55.27446 L 18.55334 56.04752 L 18.96564 56.82056 L 19.37794 57.59361 L 19.79024 58.36667 L 20.20253 59.13972 L 20.61484 59.91278 L 21.02713 60.68584 L 21.43942 61.45888 L 21.85172 62.23193 L 22.26402 63.00499 L 22.67632 63.77805 L 23.08861 64.5511 L 23.5009 65.32416 L 23.91321 66.09721 L 24.3255 66.87025 L 24.7378 67.64331 L 25.15009 68.41638 L 25.5624 69.18942 L 25.97469 69.96248 L 26.38698 70.73553 L 26.79927 71.50858 L 27.21158 72.28165 L 27.62387 73.0547 L 28.03616 73.82774 L 28.44846 74.6008 L 28.86076 75.37386 L 29.27306 76.1469 L 29.68535 76.91997 L 30.09766 77.69302 L 30.50995 78.46606 L 30.92224 79.23912 L 31.33453 80.01218 L 31.74684 80.78522 L 32.15913 81.55829 L 32.57143 82.33134 L 32.98372 83.10439 L 33.39603 83.87744 L 33.80832 84.6505 L 34.22061 85.42355 L 34.6329 86.19661 L 35.04523 86.96967 L 35.45752 87.7427 L 35.86981 88.51576 L 36.2821 89.28882 L 36.69441 90.06187 L 37.1067 90.83493 L 37.519 91.60799 L 37.93129 92.38103 L 38.3436 93.15408 L 38.75589 93.92714 L 39.16818 94.7002 L 39.58049 95.47325 L 39.99278 96.2463 L 40.40508 97.01935 L 40.81737 97.7924 "/>
<symbol id="font_0_3">
<path d="M .34500004 .119 C .34 .1 .293 .028 .22600001 .028 C .17700002 .028 .16000001 .064 .16000001 .109000008 C .16000001 .16800002 .19500001 .25800003 .21700001 .314 C .227 .33900003 .23000002 .34800003 .23000002 .366 C .23000002 .421 .186 .451 .14 .451 C .041 .451 0 .31 0 .298 C 0 .289 .0069999995 .285 .015000001 .285 C .028 .285 .029000003 .291 .032 .301 C .058000007 .39000003 .102 .423 .13700001 .423 C .15200001 .423 .16100002 .41300003 .16100002 .39000003 C .16100002 .367 .15200001 .344 .13900002 .30900003 C .097 .20300001 .08800001 .16000001 .08800001 .124000009 C .08800001 .026 .162 0 .22100002 0 C .296 0 .342 .060000004 .34600003 .065000008 C .36200003 .018000002 .407 0 .44300003 0 C .49000005 0 .513 .040000004 .52 .055000005 C .5400001 .091 .554 .14900002 .554 .15300001 C .554 .15900001 .5500001 .16600001 .538 .16600001 C .526 .16600001 .52400007 .16100002 .518 .135 C .505 .085 .48700003 .028 .446 .028 C .423 .028 .41400004 .047000003 .41400004 .075 C .41400004 .092 .423 .126 .42900003 .15100001 C .43500004 .17600002 .45000003 .23600002 .45400004 .254 L .474 .33 C .48000006 .357 .492 .404 .492 .41 C .492 .435 .47200004 .441 .46 .441 C .446 .441 .42400003 .432 .41700004 .40800003 L .34500004 .119 Z "/>
</symbol>
<use xlink:href="#font_0_3" transform="matrix(22.139166,0,0,-22.139166,292.1864,69.94643)"/>
<use xlink:href="#font_1_1" transform="matrix(22.139166,0,0,-22.139166,307.422,75.25983)"/>
<use xlink:href="#font_0_5" transform="matrix(22.139166,0,0,-22.139166,315.00013,69.94643)"/>
<use xlink:href="#font_1_2" transform="matrix(22.139166,0,0,-22.139166,328.85887,75.25983)"/>
<path transform="matrix(2.7777777,0,0,-2.7777777,167.8111,314.43333)" stroke-width=".3985" stroke-linecap="butt" stroke-dasharray="2.98883,2.98883" stroke-miterlimit="10" stroke-linejoin="miter" fill="none" stroke="#000000" d="M 0 85.04044 L 34.0163 85.04044 "/>
<path transform="matrix(2.7777777,0,0,-2.7777777,167.8111,314.43333)" stroke-width=".79701" stroke-linecap="butt" stroke-miterlimit="10" stroke-linejoin="miter" fill="none" stroke="#000000" d="M -56.69383 0 L 52.03134 0 "/>
<path transform="matrix(2.7777777,0,0,-2.7777777,312.34263,314.43333)" d="M 4.66248 0 C 3.28098 .25902 1.0361 1.0361 -.51805 1.94269 L -.51805 -1.94269 C 1.0361 -1.0361 3.28098 -.25902 4.66248 0 "/>
<use xlink:href="#font_0_5" transform="matrix(22.139166,0,0,-22.139166,319.38069,304.3242)"/>
<path transform="matrix(2.7777777,0,0,-2.7777777,167.8111,314.43333)" stroke-width=".79701" stroke-linecap="butt" stroke-miterlimit="10" stroke-linejoin="miter" fill="none" stroke="#000000" d="M 0 -21.2601 L 0 101.63806 "/>
<path transform="matrix(0,-2.7777777,-2.7777777,-0,167.8111,32.10538)" d="M 4.66248 0 C 3.28098 .25902 1.0361 1.0361 -.51805 1.94269 L -.51805 -1.94269 C 1.0361 -1.0361 3.28098 -.25902 4.66248 0 "/>
<symbol id="font_0_6">
<path d="M .488 .58100005 C .492 .595 .492 .597 .492 .60400006 C .492 .629 .47200004 .63500007 .46 .63500007 C .455 .63500007 .432 .634 .41900004 .60800006 C .41700004 .60300007 .40800003 .56700006 .40300004 .546 L .34300003 .30600003 C .342 .30300004 .29900003 .22200002 .22600001 .22200002 C .17700002 .22200002 .16000001 .25800003 .16000001 .30300004 C .16000001 .361 .194 .45000003 .21700001 .508 C .227 .53300008 .23000002 .54200008 .23000002 .56 C .23000002 .615 .186 .64500007 .14 .64500007 C .041 .64500007 0 .504 0 .49200005 C 0 .48300005 .0069999995 .47900004 .015000001 .47900004 C .028 .47900004 .029000003 .485 .032 .495 C .058000007 .582 .10100001 .61700007 .13700001 .61700007 C .15200001 .61700007 .16100002 .60700008 .16100002 .58400008 C .16100002 .563 .15300001 .54 .14600002 .522 C .105000007 .416 .08800001 .365 .08800001 .31800003 C .08800001 .22000002 .162 .194 .22100002 .194 C .268 .194 .30200003 .21500002 .326 .238 C .312 .18200001 .30200003 .143 .264 .095000009 C .231 .054000006 .19100002 .027999998 .14600002 .027999998 C .12900001 .027999998 .091000009 .031000004 .071 .061000006 C .12400001 .065 .128 .11000001 .128 .116000007 C .128 .14000002 .11 .15300001 .089 .15300001 C .067 .15300001 .032 .136 .032 .087000008 C .032 .040000008 .075 0 .14600002 0 C .24800003 0 .363 .082 .393 .20300001 L .488 .58100005 Z "/>
</symbol>
<use xlink:href="#font_0_6" transform="matrix(22.139166,0,0,-22.139166,178.80582,43.53586)"/>
<path transform="matrix(2.7777777,0,0,-2.7777777,167.8111,314.43333)" stroke-width=".3985" stroke-linecap="butt" stroke-miterlimit="10" stroke-linejoin="miter" fill="none" stroke="#000000" d="M -1.49442 21.2601 L 1.49442 21.2601 "/>
<symbol id="font_0_1">
<path d="M .365 .393 C .32400004 .388 .31100003 .357 .31100003 .337 C .31100003 .308 .337 .3 .35000003 .3 C .35500003 .3 .40600003 .304 .40600003 .365 C .40600003 .426 .34 .451 .28 .451 C .13800001 .451 0 .313 0 .17300001 C 0 .078 .065 0 .17600002 0 C .33400003 0 .41700004 .101 .41700004 .114 C .41700004 .123 .40700004 .13000001 .40100003 .13000001 C .395 .13000001 .39200003 .127 .38700003 .12100001 C .30800004 .028 .19600001 .028 .17800002 .028 C .12400001 .028 .081 .061000006 .081 .13700001 C .081 .18100001 .10100001 .287 .148 .349 C .19200002 .405 .24200002 .423 .28100003 .423 C .293 .423 .33900003 .42200003 .365 .393 Z "/>
</symbol>
<use xlink:href="#font_0_1" transform="matrix(22.139166,0,0,-22.139166,182.71579,260.36589)"/>
<path transform="matrix(2.7777777,0,0,-2.7777777,167.8111,314.43333)" stroke-width=".3985" stroke-linecap="butt" stroke-miterlimit="10" stroke-linejoin="miter" fill="none" stroke="#000000" d="M -1.49442 85.04044 L 1.49442 85.04044 "/>
<symbol id="font_0_2">
<path d="M .49500004 .674 C .49600003 .676 .49900005 .689 .49900005 .69 C .49900005 .69500008 .49500004 .704 .483 .704 C .479 .704 .448 .70100006 .425 .699 L .36900003 .69500008 C .347 .693 .337 .69200006 .337 .674 C .337 .66 .351 .66 .363 .66 C .411 .66 .411 .65400007 .411 .64500007 C .411 .639 .403 .606 .398 .586 L .349 .391 C .34 .40800003 .311 .451 .25 .451 C .13100001 .451 0 .312 0 .16400002 C 0 .060000004 .067 0 .14400001 0 C .20800002 0 .263 .051000004 .281 .071 C .299 .0020000004 .367 0 .379 0 C .425 0 .448 .038000004 .456 .055000005 C .47600005 .091 .49000005 .14900002 .49000005 .15300001 C .49000005 .15900001 .48600004 .16600001 .474 .16600001 C .46199999 .16600001 .46 .16000001 .454 .135 C .44 .08 .421 .028 .382 .028 C .359 .028 .35 .047000003 .35 .075 C .35 .094000007 .35300002 .105000007 .356 .118 L .49500004 .674 M .281 .118 C .23100002 .049000004 .17900002 .028 .14700002 .028 C .10100001 .028 .07800001 .07 .07800001 .122 C .07800001 .16900002 .105000007 .276 .127 .32 C .15600002 .381 .20500002 .423 .251 .423 C .316 .423 .335 .35 .335 .338 C .335 .334 .31 .23600002 .304 .21000001 C .291 .16300002 .291 .16100002 .281 .118 Z "/>
</symbol>
<use xlink:href="#font_0_2" transform="matrix(22.139166,0,0,-22.139166,182.69365,86.121417)"/>
<path transform="matrix(2.7777777,0,0,-2.7777777,167.8111,314.43333)" stroke-width=".79701" stroke-linecap="butt" stroke-miterlimit="10" stroke-linejoin="miter" fill="none" stroke="#ff0000" d="M -11.33876 95.67049 C -11.33876 90.36429 11.33876 90.36429 11.33876 95.67049 "/>
<path transform="matrix(2.7777777,0,0,-2.7777777,167.8111,314.43333)" stroke-width=".79701" stroke-linecap="butt" stroke-miterlimit="10" stroke-linejoin="miter" fill="none" stroke="#ff0000" d="M 11.33876 95.67049 C 11.33876 100.97668 -11.33876 100.97668 -11.33876 95.67049 "/>
<path transform="matrix(2.7777777,0,0,-2.7777777,167.8111,314.43333)" stroke-width=".79701" stroke-linecap="butt" stroke-miterlimit="10" stroke-linejoin="miter" fill="none" stroke="#ff0000" d="M 4.53543 99.28467 L 8.06412 99.28467 "/>
<path transform="matrix(-2.7777777,0,0,2.7777777,190.21144,38.642587)" d="M 4.66248 0 C 3.28098 .25902 1.0361 1.0361 -.51805 1.94269 L -.51805 -1.94269 C 1.0361 -1.0361 3.28098 -.25902 4.66248 0 " fill="#ff0000"/>
<path transform="matrix(2.7777777,0,0,-2.7777777,167.8111,314.43333)" d="M 249.45192 85.04044 L 249.45192 85.04044 L 252.28662 69.75974 L 255.12129 55.80779 L 257.956 43.18459 L 260.79069 31.89015 L 263.62538 21.92447 L 266.46009 13.28755 L 269.29475 5.97939 L 272.12947 0 L 274.96418 -4.65063 L 277.79884 -7.97253 L 280.63356 -9.96567 L 283.46824 -10.63004 L 286.3029 -9.96567 L 289.1376 -7.97253 L 291.97227 -4.65063 L 294.80699 0 L 297.6417 5.97939 L 300.47636 13.28755 L 303.31105 21.92447 L 306.14576 31.89015 L 308.98045 43.18459 L 311.81513 55.80779 L 314.6498 69.75974 L 317.4845 85.04044 " fill="#0000ff" fill-opacity=".5"/>
<path transform="matrix(2.7777777,0,0,-2.7777777,167.8111,314.43333)" d="M 283.46824 21.2601 L 317.4845 85.04044 L 249.45192 85.04044 " fill="#929292" fill-opacity=".5"/>
<path transform="matrix(2.7777777,0,0,-2.7777777,167.8111,314.43333)" d="M 263.82884 21.2601 L 263.82884 21.2601 L 265.46543 16.16664 L 267.10197 11.51631 L 268.7385 7.30847 L 270.37507 3.54378 L 272.01164 .22188 L 273.6482 -2.65686 L 275.28474 -5.09312 L 276.9213 -7.08626 L 278.55787 -8.63658 L 280.19444 -9.74377 L 281.831 -10.40846 L 283.46754 -10.63004 L 285.10408 -10.4088 L 286.74064 -9.74475 L 288.3772 -8.63756 L 290.01377 -7.08755 L 291.6503 -5.09474 L 293.28688 -2.65912 L 294.92344 .21928 L 296.55998 3.54085 L 298.19654 7.30522 L 299.83308 11.51242 L 301.46965 16.16241 L 303.1062 21.25555 L 303.1076 21.2601 " fill="#ffffff"/>
<path transform="matrix(2.7777777,0,0,-2.7777777,167.8111,314.43333)" stroke-width=".79701" stroke-linecap="butt" stroke-miterlimit="10" stroke-linejoin="miter" fill="none" stroke="#000000" d="M 247.18419 98.22127 L 247.9171 93.86842 L 248.64998 89.60413 L 249.38289 85.42906 L 250.11577 81.34256 L 250.84868 77.34492 L 251.58156 73.43587 L 252.31447 69.61601 L 253.04737 65.88474 L 253.78026 62.24232 L 254.51316 58.68881 L 255.24605 55.22417 L 255.97895 51.8481 L 256.71186 48.56125 L 257.44474 45.36296 L 258.17765 42.25354 L 258.91053 39.2327 L 259.64344 36.30107 L 260.3763 33.458 L 261.1092 30.70381 L 261.8421 28.03851 L 262.575 25.4621 L 263.3079 22.97424 L 264.0408 20.5756 L 264.77369 18.26553 L 265.5066 16.04434 L 266.23948 13.9117 L 266.97239 11.86829 L 267.70527 9.91344 L 268.43818 8.04747 L 269.17106 6.27039 L 269.90397 4.58218 L 270.63685 2.98254 L 271.36976 1.47212 L 272.10264 .05026 L 272.83555 -1.28267 L 273.56843 -2.52676 L 274.30134 -3.6823 L 275.0342 -4.74861 L 275.76713 -5.72635 L 276.5 -6.61554 L 277.2329 -7.41553 L 277.9658 -8.12662 L 278.6987 -8.74915 L 279.43159 -9.28279 L 280.1645 -9.72755 L 280.89738 -10.08374 L 281.63029 -10.35072 L 282.36317 -10.52916 L 283.09608 -10.61868 L 283.82893 -10.61934 L 284.56184 -10.5311 L 285.2947 -10.35431 L 286.02763 -10.08829 L 286.7605 -9.73372 L 287.4934 -9.29057 L 288.2263 -8.75824 L 288.9592 -8.13701 L 289.6921 -7.4272 L 290.425 -6.62852 L 291.15788 -5.74095 L 291.8908 -4.76483 L 292.62367 -3.69948 L 293.35658 -2.54558 L 294.08949 -1.30278 L 294.82237 .02885 L 295.55528 1.4491 L 296.28816 2.95854 L 297.02107 4.55656 L 297.75395 6.24345 L 298.48686 8.01923 L 299.21974 9.88359 L 299.95265 11.83714 L 300.68553 13.87926 L 301.41844 16.01027 L 302.1513 18.23016 L 302.88423 20.53894 L 303.6171 22.9363 L 304.35 25.42252 L 305.0829 27.99763 L 305.8158 30.66164 L 306.54869 33.41452 L 307.2816 36.25598 L 308.01448 39.18663 L 308.74739 42.20586 L 309.48027 45.31364 L 310.21318 48.51065 L 310.94606 51.7962 L 311.67897 55.17096 L 312.41188 58.63431 L 313.14476 62.18652 L 313.87767 65.82732 L 314.61058 69.5573 L 315.34346 73.37585 L 316.07637 77.2833 L 316.80924 81.27962 L 317.54216 85.36452 L 318.27503 89.5386 L 319.00794 93.80127 L 319.7408 98.15283 "/>
<use xlink:href="#font_0_4" transform="matrix(22.139166,0,0,-22.139166,1034.7418,26.14641)"/>
<use xlink:href="#font_1_1" transform="matrix(22.139166,0,0,-22.139166,1048.6051,31.45981)"/>
<use xlink:href="#font_0_5" transform="matrix(22.139166,0,0,-22.139166,1056.1806,26.14641)"/>
<use xlink:href="#font_1_2" transform="matrix(22.139166,0,0,-22.139166,1070.0421,31.45981)"/>
<path transform="matrix(2.7777777,0,0,-2.7777777,167.8111,314.43333)" stroke-width=".79701" stroke-linecap="butt" stroke-miterlimit="10" stroke-linejoin="miter" fill="none" stroke="#000000" d="M 264.19236 -14.882 L 264.7993 -13.74399 L 265.40623 -12.60599 L 266.01319 -11.46797 L 266.6201 -10.32997 L 267.22706 -9.19196 L 267.83399 -8.05396 L 268.44093 -6.91595 L 269.04786 -5.77792 L 269.65483 -4.63992 L 270.26176 -3.50192 L 270.8687 -2.36392 L 271.47563 -1.2259 L 272.08259 -.0879 L 272.6895 1.05008 L 273.29646 2.1881 L 273.90339 3.3261 L 274.5103 4.4641 L 275.11726 5.6021 L 275.7242 6.74013 L 276.33116 7.87813 L 276.93809 9.01613 L 277.545 10.15414 L 278.15196 11.29214 L 278.7589 12.43015 L 279.36585 13.56816 L 279.97279 14.70618 L 280.5797 15.84418 L 281.18666 16.98218 L 281.7936 18.1202 L 282.40055 19.25821 L 283.00749 20.39621 L 283.6144 21.53423 L 284.22135 22.67223 L 284.8283 23.81023 L 285.43525 24.94823 L 286.04216 26.08626 L 286.6491 27.22426 L 287.25605 28.36226 L 287.86299 29.50027 L 288.4699 30.63828 L 289.07688 31.77629 L 289.6838 32.91429 L 290.29075 34.0523 L 290.89768 35.1903 L 291.5046 36.32831 L 292.11158 37.46632 L 292.71849 38.60434 L 293.32545 39.74234 L 293.93238 40.88034 L 294.5393 42.01836 L 295.14628 43.15636 L 295.7532 44.29437 L 296.36015 45.43239 L 296.9671 46.57039 L 297.574 47.70839 L 298.18095 48.84639 L 298.7879 49.9844 L 299.39485 51.12242 L 300.0018 52.26042 L 300.60874 53.39844 L 301.21565 54.53644 L 301.8226 55.67444 L 302.42955 56.81245 L 303.03648 57.95047 L 303.64344 59.08847 L 304.25035 60.22647 L 304.85728 61.36449 L 305.46424 62.50249 L 306.07118 63.6405 L 306.6781 64.7785 L 307.28507 65.91652 L 307.89198 67.05452 L 308.49894 68.19252 L 309.10588 69.33055 L 309.7128 70.46855 L 310.31977 71.60655 L 310.9267 72.74455 L 311.53364 73.88257 L 312.1406 75.02057 L 312.7475 76.15858 L 313.35447 77.2966 L 313.9614 78.4346 L 314.56834 79.5726 L 315.17527 80.71062 L 315.7822 81.84863 L 316.38914 82.98663 L 316.9961 84.12463 L 317.60304 85.26265 L 318.20997 86.40065 L 318.8169 87.53865 L 319.42384 88.67668 L 320.0308 89.81468 L 320.63774 90.95268 L 321.24467 92.09068 L 321.8516 93.2287 L 322.45854 94.36671 L 323.0655 95.50471 L 323.67243 96.64273 L 324.27937 97.78073 "/>
<use xlink:href="#font_0_3" transform="matrix(22.139166,0,0,-22.139166,1079.5724,69.97975)"/>
<use xlink:href="#font_1_1" transform="matrix(22.139166,0,0,-22.139166,1094.8079,75.29315)"/>
<use xlink:href="#font_0_5" transform="matrix(22.139166,0,0,-22.139166,1102.3833,69.97975)"/>
<use xlink:href="#font_1_2" transform="matrix(22.139166,0,0,-22.139166,1116.2449,75.29315)"/>
<path transform="matrix(2.7777777,0,0,-2.7777777,167.8111,314.43333)" stroke-width=".79701" stroke-linecap="butt" stroke-miterlimit="10" stroke-linejoin="miter" fill="none" stroke="#000000" d="M 242.64859 97.79663 L 243.25553 96.65863 L 243.86248 95.5206 L 244.4694 94.3826 L 245.07634 93.2446 L 245.68329 92.1066 L 246.29022 90.96858 L 246.89716 89.83057 L 247.5041 88.69257 L 248.11104 87.55455 L 248.71799 86.41655 L 249.32492 85.27855 L 249.93186 84.14053 L 250.5388 83.00252 L 251.14574 81.86452 L 251.75267 80.72652 L 252.35962 79.5885 L 252.96657 78.4505 L 253.5735 77.31248 L 254.18045 76.17447 L 254.78739 75.03647 L 255.39432 73.89847 L 256.00129 72.76047 L 256.6082 71.62245 L 257.21513 70.48444 L 257.82209 69.34644 L 258.42903 68.20842 L 259.03596 67.07042 L 259.6429 65.93242 L 260.24983 64.7944 L 260.85679 63.65639 L 261.4637 62.51839 L 262.07066 61.38039 L 262.6776 60.24237 L 263.28453 59.10437 L 263.89146 57.96635 L 264.4984 56.82835 L 265.10536 55.69034 L 265.71229 54.55234 L 266.31925 53.41434 L 266.92619 52.2763 L 267.5331 51.1383 L 268.14006 50.0003 L 268.747 48.8623 L 269.35395 47.72429 L 269.96089 46.58629 L 270.5678 45.44827 L 271.17478 44.31026 L 271.7817 43.17226 L 272.38865 42.03426 L 272.99559 40.89626 L 273.6025 39.75822 L 274.20945 38.62022 L 274.81639 37.48222 L 275.4233 36.34421 L 276.03028 35.2062 L 276.6372 34.0682 L 277.24415 32.93019 L 277.85108 31.79218 L 278.458 30.65417 L 279.06498 29.51617 L 279.6719 28.37816 L 280.27885 27.24014 L 280.8858 26.10214 L 281.49275 24.96413 L 282.09968 23.82613 L 282.7066 22.68813 L 283.31355 21.55013 L 283.92048 20.4121 L 284.5274 19.2741 L 285.13435 18.1361 L 285.7413 16.99808 L 286.3482 15.86008 L 286.95518 14.72206 L 287.5621 13.58406 L 288.16905 12.44604 L 288.776 11.30804 L 289.38294 10.17004 L 289.98988 9.03203 L 290.5968 7.89401 L 291.20375 6.75601 L 291.81068 5.61801 L 292.41764 4.48 L 293.02455 3.342 L 293.63154 2.20398 L 294.23847 1.06596 L 294.84538 -.072 L 295.45234 -1.21 L 296.05928 -2.348 L 296.6662 -3.48602 L 297.27317 -4.62404 L 297.88008 -5.76204 L 298.487 -6.90005 L 299.09397 -8.03806 L 299.7009 -9.17606 L 300.30787 -10.31407 L 300.9148 -11.45209 L 301.5217 -12.59009 L 302.12867 -13.72809 L 302.7356 -14.8661 "/>
<path transform="matrix(2.7777777,0,0,-2.7777777,167.8111,314.43333)" d="M 317.4845 85.04044 C 317.4845 87.38875 302.25514 89.29239 283.46824 89.29239 C 264.6813 89.29239 249.45192 87.38875 249.45192 85.04044 C 249.45192 82.69212 264.6813 80.78848 283.46824 80.78848 C 302.25514 80.78848 317.4845 82.69212 317.4845 85.04044 Z M 283.46824 85.04044 " fill="#e6e6ff"/>
<path transform="matrix(2.7777777,0,0,-2.7777777,167.8111,314.43333)" stroke-width=".3985" stroke-linecap="butt" stroke-miterlimit="10" stroke-linejoin="miter" fill="none" stroke="#000000" d="M 317.4845 85.04044 C 317.4845 87.38875 302.25514 89.29239 283.46824 89.29239 C 264.6813 89.29239 249.45192 87.38875 249.45192 85.04044 C 249.45192 82.69212 264.6813 80.78848 283.46824 80.78848 C 302.25514 80.78848 317.4845 82.69212 317.4845 85.04044 Z M 283.46824 85.04044 "/>
<path transform="matrix(2.7777777,0,0,-2.7777777,167.8111,314.43333)" d="M 303.1076 21.2601 C 303.1076 23.60841 294.31489 25.51204 283.46824 25.51204 C 272.62156 25.51204 263.82884 23.60841 263.82884 21.2601 C 263.82884 18.91179 272.62156 17.00815 283.46824 17.00815 C 294.31489 17.00815 303.1076 18.91179 303.1076 21.2601 Z M 283.46824 21.2601 " fill="#8080ff"/>
<path transform="matrix(2.7777777,0,0,-2.7777777,167.8111,314.43333)" stroke-width=".3985" stroke-linecap="butt" stroke-miterlimit="10" stroke-linejoin="miter" fill="none" stroke="#000000" d="M 303.1076 21.2601 C 303.1076 23.60841 294.31489 25.51204 283.46824 25.51204 C 272.62156 25.51204 263.82884 23.60841 263.82884 21.2601 C 263.82884 18.91179 272.62156 17.00815 283.46824 17.00815 C 294.31489 17.00815 303.1076 18.91179 303.1076 21.2601 Z M 283.46824 21.2601 "/>
<path transform="matrix(2.7777777,0,0,-2.7777777,167.8111,314.43333)" d="M 311.24247 48.89832 C 311.24247 51.24663 298.80769 53.15025 283.46824 53.15025 C 268.12876 53.15025 255.69399 51.24663 255.69399 48.89832 C 255.69399 46.55 268.12876 44.64636 283.46824 44.64636 C 298.80769 44.64636 311.24247 46.55 311.24247 48.89832 Z M 283.46824 48.89832 "/>
<path transform="matrix(2.7777777,0,0,-2.7777777,167.8111,314.43333)" stroke-width=".3985" stroke-linecap="butt" stroke-miterlimit="10" stroke-linejoin="miter" fill="none" stroke="#000000" d="M 311.24247 48.89832 C 311.24247 51.24663 298.80769 53.15025 283.46824 53.15025 C 268.12876 53.15025 255.69399 51.24663 255.69399 48.89832 C 255.69399 46.55 268.12876 44.64636 283.46824 44.64636 C 298.80769 44.64636 311.24247 46.55 311.24247 48.89832 Z M 283.46824 48.89832 "/>
<path transform="matrix(2.7777777,0,0,-2.7777777,167.8111,314.43333)" d="M 255.69399 48.89832 L 255.69399 57.40222 L 311.24247 57.40222 L 311.24247 48.89832 Z M 311.24247 57.40222 "/>
<path transform="matrix(2.7777777,0,0,-2.7777777,167.8111,314.43333)" d="M 311.24247 57.40222 C 311.24247 59.75053 298.80769 61.65417 283.46824 61.65417 C 268.12876 61.65417 255.69399 59.75053 255.69399 57.40222 C 255.69399 55.05391 268.12876 53.15027 283.46824 53.15027 C 298.80769 53.15027 311.24247 55.05391 311.24247 57.40222 Z M 283.46824 57.40222 " fill="#a9a9a9"/>
<path transform="matrix(2.7777777,0,0,-2.7777777,167.8111,314.43333)" stroke-width=".3985" stroke-linecap="butt" stroke-miterlimit="10" stroke-linejoin="miter" fill="none" stroke="#000000" d="M 311.24247 57.40222 C 311.24247 59.75053 298.80769 61.65417 283.46824 61.65417 C 268.12876 61.65417 255.69399 59.75053 255.69399 57.40222 C 255.69399 55.05391 268.12876 53.15027 283.46824 53.15027 C 298.80769 53.15027 311.24247 55.05391 311.24247 57.40222 Z M 283.46824 57.40222 "/>
<path transform="matrix(2.7777777,0,0,-2.7777777,167.8111,314.43333)" d="M 299.9037 57.40222 C 299.9037 58.57645 292.54539 59.52835 283.46824 59.52835 C 274.39106 59.52835 267.03276 58.57645 267.03276 57.40222 C 267.03276 56.228 274.39106 55.2761 283.46824 55.2761 C 292.54539 55.2761 299.9037 56.228 299.9037 57.40222 Z M 283.46824 57.40222 "/>
<path transform="matrix(2.7777777,0,0,-2.7777777,167.8111,314.43333)" stroke-width=".3985" stroke-linecap="butt" stroke-miterlimit="10" stroke-linejoin="miter" fill="none" stroke="#000000" d="M 299.9037 57.40222 C 299.9037 58.57645 292.54539 59.52835 283.46824 59.52835 C 274.39106 59.52835 267.03276 58.57645 267.03276 57.40222 C 267.03276 56.228 274.39106 55.2761 283.46824 55.2761 C 292.54539 55.2761 299.9037 56.228 299.9037 57.40222 Z M 283.46824 57.40222 "/>
<path transform="matrix(2.7777777,0,0,-2.7777777,167.8111,314.43333)" stroke-width=".3985" stroke-linecap="butt" stroke-miterlimit="10" stroke-linejoin="miter" fill="none" stroke="#000000" d="M 311.24247 48.89832 L 311.24247 57.40222 "/>
<path transform="matrix(2.7777777,0,0,-2.7777777,167.8111,314.43333)" stroke-width=".3985" stroke-linecap="butt" stroke-miterlimit="10" stroke-linejoin="miter" fill="none" stroke="#000000" d="M 255.69399 48.89832 L 255.69399 57.40222 "/>
<path transform="matrix(2.7777777,0,0,-2.7777777,167.8111,314.43333)" stroke-width=".3985" stroke-linecap="butt" stroke-miterlimit="10" stroke-linejoin="miter" fill="none" stroke="#000000" d="M 303.49024 57.40222 L 307.6559 57.40222 "/>
<path transform="matrix(-2.7777777,0,0,2.7777777,1010.8395,154.98271)" d="M 3.58653 0 C 2.52383 .19925 .797 .797 -.3985 1.49438 L -.3985 -1.49438 C .797 -.797 2.52383 -.19925 3.58653 0 "/>
<path transform="matrix(2.7777777,0,0,-2.7777777,1022.4108,154.98271)" d="M 3.58653 0 C 2.52383 .19925 .797 .797 -.3985 1.49438 L -.3985 -1.49438 C .797 -.797 2.52383 -.19925 3.58653 0 "/>
<use xlink:href="#font_0_3" transform="matrix(22.139166,0,0,-22.139166,1058.4865,160.74085)"/>
<use xlink:href="#font_1_1" transform="matrix(22.139166,0,0,-22.139166,1073.7219,166.05425)"/>
<use xlink:href="#font_0_6" transform="matrix(22.139166,0,0,-22.139166,1081.253,165.03585)"/>
<use xlink:href="#font_1_2" transform="matrix(22.139166,0,0,-22.139166,1094.3395,166.05425)"/>
<symbol id="font_2_1">
<path d="M .61100009 0 C .62700006 0 .64900007 0 .64900007 .022999987 C .64900007 .04599999 .62700006 .04599999 .61100009 .04599999 L .037999996 .04599999 C .022 .04599999 0 .04599999 0 .022999987 C 0 0 .022 0 .037999996 0 L .61100009 0 Z "/>
</symbol>
<use xlink:href="#font_2_1" transform="matrix(22.139166,0,0,-22.139166,1109.3344,155.49387)"/>
<use xlink:href="#font_0_4" transform="matrix(22.139166,0,0,-22.139166,1131.5752,160.74085)"/>
<use xlink:href="#font_1_1" transform="matrix(22.139166,0,0,-22.139166,1145.4385,166.05425)"/>
<use xlink:href="#font_0_6" transform="matrix(22.139166,0,0,-22.139166,1152.9696,165.03585)"/>
<use xlink:href="#font_1_2" transform="matrix(22.139166,0,0,-22.139166,1166.0562,166.05425)"/>
<path transform="matrix(2.7777777,0,0,-2.7777777,167.8111,314.43333)" stroke-width=".79701" stroke-linecap="butt" stroke-miterlimit="10" stroke-linejoin="miter" fill="none" stroke="#000000" d="M 226.77439 0 L 335.49958 0 "/>
<path transform="matrix(2.7777777,0,0,-2.7777777,1099.7543,314.43333)" d="M 4.66248 0 C 3.28098 .25902 1.0361 1.0361 -.51805 1.94269 L -.51805 -1.94269 C 1.0361 -1.0361 3.28098 -.25902 4.66248 0 "/>
<use xlink:href="#font_0_5" transform="matrix(22.139166,0,0,-22.139166,1106.7833,304.3242)"/>
<path transform="matrix(2.7777777,0,0,-2.7777777,167.8111,314.43333)" stroke-width=".79701" stroke-linecap="butt" stroke-miterlimit="10" stroke-linejoin="miter" fill="none" stroke="#000000" d="M 283.46824 -21.2601 L 283.46824 17.00813 "/>
<path transform="matrix(2.7777777,0,0,-2.7777777,167.8111,314.43333)" stroke-width=".79701" stroke-linecap="butt" stroke-miterlimit="10" stroke-linejoin="miter" fill="none" stroke="#000000" d="M 283.46824 21.2601 L 283.46824 44.64635 "/>
<path transform="matrix(2.7777777,0,0,-2.7777777,167.8111,314.43333)" stroke-width=".79701" stroke-linecap="butt" stroke-miterlimit="10" stroke-linejoin="miter" fill="none" stroke="#000000" d="M 283.46824 57.40222 L 283.46824 80.78847 "/>
<path transform="matrix(2.7777777,0,0,-2.7777777,167.8111,314.43333)" stroke-width=".79701" stroke-linecap="butt" stroke-miterlimit="10" stroke-linejoin="miter" fill="none" stroke="#000000" d="M 283.46824 80.78847 L 283.46824 101.63806 "/>
<path transform="matrix(0,-2.7777777,-2.7777777,-0,955.2228,32.10538)" d="M 4.66248 0 C 3.28098 .25902 1.0361 1.0361 -.51805 1.94269 L -.51805 -1.94269 C 1.0361 -1.0361 3.28098 -.25902 4.66248 0 "/>
<use xlink:href="#font_0_6" transform="matrix(22.139166,0,0,-22.139166,966.20858,43.53586)"/>
<path transform="matrix(2.7777777,0,0,-2.7777777,167.8111,314.43333)" stroke-width=".3985" stroke-linecap="butt" stroke-miterlimit="10" stroke-linejoin="miter" fill="none" stroke="#000000" d="M 281.9738 21.2601 L 284.96263 21.2601 "/>
<use xlink:href="#font_0_1" transform="matrix(22.139166,0,0,-22.139166,970.1157,260.36589)"/>
<path transform="matrix(2.7777777,0,0,-2.7777777,167.8111,314.43333)" stroke-width=".3985" stroke-linecap="butt" stroke-miterlimit="10" stroke-linejoin="miter" fill="none" stroke="#000000" d="M 281.9738 85.04044 L 284.96263 85.04044 "/>
<use xlink:href="#font_0_2" transform="matrix(22.139166,0,0,-22.139166,970.09359,86.121417)"/>
<path transform="matrix(2.7777777,0,0,-2.7777777,167.8111,314.43333)" stroke-width=".79701" stroke-linecap="butt" stroke-miterlimit="10" stroke-linejoin="miter" fill="none" stroke="#000000" d="M 283.46824 21.2601 L 283.58259 21.47452 L 283.69694 21.68896 L 283.8113 21.90338 L 283.92567 22.11783 L 284.04 22.33224 L 284.1544 22.54669 L 284.26875 22.76111 L 284.38313 22.97556 L 284.49748 23.18997 L 284.61186 23.4044 L 284.7262 23.61884 L 284.84059 23.83325 L 284.95494 24.0477 L 285.0693 24.26212 L 285.18367 24.47656 L 285.29804 24.69098 L 285.41239 24.90543 L 285.52677 25.11984 L 285.6411 25.33429 L 285.7555 25.5487 L 285.86985 25.76314 L 285.9842 25.97757 L 286.09858 26.192 L 286.21296 26.40643 L 286.3273 26.62086 L 286.44169 26.8353 L 286.55604 27.04973 L 286.6704 27.26416 L 286.78477 27.47859 L 286.8991 27.69302 L 287.01347 27.90746 L 287.1278 28.12187 L 287.2422 28.33632 L 287.35655 28.55074 L 287.47093 28.76518 L 287.58528 28.9796 L 287.69966 29.19405 L 287.814 29.40846 L 287.92839 29.6229 L 288.04277 29.83733 L 288.1571 30.05174 L 288.27149 30.26619 L 288.38584 30.4806 L 288.5002 30.69505 L 288.61457 30.90947 L 288.7289 31.12392 L 288.8433 31.33833 L 288.95765 31.55278 L 289.072 31.7672 L 289.18638 31.98164 L 289.30076 32.19606 L 289.4151 32.41049 L 289.52946 32.62492 L 289.64384 32.83936 L 289.7582 33.05379 L 289.87257 33.26822 L 289.9869 33.48265 L 290.1013 33.69708 L 290.21565 33.91151 L 290.33003 34.12595 L 290.44438 34.34036 L 290.55873 34.55481 L 290.6731 34.76923 L 290.78746 34.98367 L 290.90184 35.19809 L 291.0162 35.41254 L 291.13056 35.62695 L 291.24494 35.8414 L 291.35929 36.05582 L 291.47367 36.27025 L 291.588 36.48468 L 291.7024 36.6991 L 291.81675 36.91354 L 291.9311 37.12796 L 292.04548 37.3424 L 292.15986 37.55682 L 292.2742 37.77127 L 292.38856 37.98569 L 292.5029 38.20013 L 292.61729 38.41455 L 292.73164 38.62898 L 292.846 38.84341 L 292.96037 39.05785 L 293.07475 39.27228 L 293.1891 39.48671 L 293.30348 39.70114 L 293.41783 39.91557 L 293.5322 40.13 L 293.64656 40.34444 L 293.76094 40.55887 L 293.8753 40.7733 L 293.98966 40.98772 L 294.104 41.20216 L 294.21839 41.41658 L 294.33274 41.63103 L 294.4471 41.84544 L 294.56147 42.05989 L 294.67585 42.2743 L 294.7902 42.48875 "/>
<path transform="matrix(2.7777777,0,0,-2.7777777,167.8111,314.43333)" stroke-width=".79701" stroke-linecap="butt" stroke-miterlimit="10" stroke-linejoin="miter" fill="none" stroke="#000000" d="M 272.12947 42.52022 L 272.2438 42.30577 L 272.3582 42.09135 L 272.47257 41.8769 L 272.5869 41.66249 L 272.7013 41.44804 L 272.81565 41.23363 L 272.93003 41.01918 L 273.04438 40.80476 L 273.15873 40.59032 L 273.2731 40.3759 L 273.38746 40.16147 L 273.50184 39.94704 L 273.61619 39.73262 L 273.73057 39.51817 L 273.8449 39.30376 L 273.95927 39.08931 L 274.07365 38.8749 L 274.188 38.66045 L 274.30238 38.44603 L 274.41673 38.23158 L 274.5311 38.01717 L 274.64546 37.80273 L 274.7598 37.5883 L 274.87419 37.37387 L 274.98854 37.15944 L 275.1029 36.945 L 275.2173 36.73058 L 275.33164 36.51614 L 275.446 36.30171 L 275.56037 36.08728 L 275.6747 35.87286 L 275.7891 35.65842 L 275.90345 35.444 L 276.0178 35.22955 L 276.13218 35.01514 L 276.24656 34.80069 L 276.3609 34.58627 L 276.47529 34.37183 L 276.5896 34.15741 L 276.70399 33.94296 L 276.81834 33.72855 L 276.9327 33.51411 L 277.04707 33.29968 L 277.16145 33.08527 L 277.2758 32.87082 L 277.39018 32.6564 L 277.50453 32.44196 L 277.6189 32.22754 L 277.73326 32.01309 L 277.84764 31.79868 L 277.96199 31.58424 L 278.07637 31.36981 L 278.19075 31.15538 L 278.30509 30.94095 L 278.41944 30.72652 L 278.5338 30.51208 L 278.64817 30.29765 L 278.76255 30.08322 L 278.8769 29.86879 L 278.99128 29.65436 L 279.10563 29.43993 L 279.22 29.22551 L 279.33436 29.01106 L 279.44874 28.79665 L 279.56309 28.5822 L 279.67744 28.36778 L 279.7918 28.15334 L 279.90617 27.93892 L 280.0205 27.72447 L 280.1349 27.51006 L 280.24925 27.29562 L 280.36363 27.08119 L 280.47798 26.86678 L 280.59236 26.65233 L 280.7067 26.43791 L 280.82109 26.22346 L 280.93544 26.00905 L 281.0498 25.7946 L 281.16419 25.58018 L 281.27854 25.36574 L 281.3929 25.15132 L 281.50727 24.93689 L 281.62165 24.72246 L 281.736 24.50803 L 281.85035 24.2936 L 281.9647 24.07916 L 282.07908 23.86473 L 282.19346 23.6503 L 282.3078 23.43587 L 282.42216 23.22144 L 282.53654 23.00702 L 282.6509 22.79257 L 282.76527 22.57816 L 282.8796 22.36371 L 282.994 22.14929 L 283.10835 21.93484 L 283.22273 21.72043 L 283.33708 21.50598 L 283.45146 21.29156 "/>
<path transform="matrix(2.7777777,0,0,-2.7777777,167.8111,314.43333)" stroke-width=".79701" stroke-linecap="butt" stroke-miterlimit="10" stroke-linejoin="miter" fill="none" stroke="#ff0000" d="M 272.12947 95.67049 C 272.12947 90.36429 294.80699 90.36429 294.80699 95.67049 "/>
<path transform="matrix(2.7777777,0,0,-2.7777777,167.8111,314.43333)" stroke-width=".79701" stroke-linecap="butt" stroke-miterlimit="10" stroke-linejoin="miter" fill="none" stroke="#ff0000" d="M 294.80699 95.67049 C 294.80699 100.97668 272.12947 100.97668 272.12947 95.67049 "/>
<path transform="matrix(2.7777777,0,0,-2.7777777,167.8111,314.43333)" stroke-width=".79701" stroke-linecap="butt" stroke-miterlimit="10" stroke-linejoin="miter" fill="none" stroke="#ff0000" d="M 288.00367 99.28467 L 291.53236 99.28467 "/>
<path transform="matrix(-2.7777777,0,0,2.7777777,977.6231,38.642587)" d="M 4.66248 0 C 3.28098 .25902 1.0361 1.0361 -.51805 1.94269 L -.51805 -1.94269 C 1.0361 -1.0361 3.28098 -.25902 4.66248 0 " fill="#ff0000"/>
</g>
</svg>
