<?xml version="1.0" encoding="UTF-8" standalone="no"?>
<!DOCTYPE svg PUBLIC "-//W3C//DTD SVG 1.1//EN" "http://www.w3.org/Graphics/SVG/1.1/DTD/svg11.dtd">
<svg xmlns="http://www.w3.org/2000/svg" xmlns:xlink="http://www.w3.org/1999/xlink" version="1.1" width="584.88058pt" height="485.77778pt" viewBox="0 0 584.88058 485.77778">
<g enable-background="new">
<path transform="matrix(2.7777777,0,0,-2.7777777,10.330556,484.66944)" stroke-width=".79701" stroke-linecap="butt" stroke-miterlimit="10" stroke-linejoin="miter" fill="none" stroke="#000000" d="M 0 39.52519 L 191.68337 39.52519 "/>
<path transform="matrix(2.7777777,0,0,-2.7777777,542.7842,374.87724)" d="M 2.59026 0 L -1.55415 2.0722 L 0 0 L -1.55415 -2.0722 "/>
<path transform="matrix(2.7777777,0,0,-2.7777777,10.330556,484.66944)" stroke-width=".79701" stroke-linecap="butt" stroke-miterlimit="10" stroke-linejoin="miter" fill="none" stroke="#000000" d="M 43.17166 0 L 43.17166 158.80512 "/>
<path transform="matrix(0,-2.7777222,-2.7777222,-0,130.25183,43.544134)" d="M 2.59026 0 L -1.55415 2.0722 L 0 0 L -1.55415 -2.0722 "/>
<clipPath id="cp0">
<path transform="matrix(2.7777777,0,0,-2.7777777,10.330556,484.66944)" d="M 0 0 L 194.27359 0 L 194.27359 161.39534 L 0 161.39534 Z "/>
</clipPath>
<g clip-path="url(#cp0)">
<path transform="matrix(2.7777777,0,0,-2.7777777,10.330556,484.66944)" d="M 58.59016 105.46027 L 59.05696 103.4644 L 59.9914 99.91035 L 60.92581 96.73517 L 61.86024 93.87616 L 62.79466 91.2872 L 63.7291 88.93547 L 64.66354 86.78462 L 65.59796 84.8149 L 66.5324 83.00331 L 67.46681 81.33008 L 68.40125 79.78198 L 69.33568 78.34587 L 70.27011 77.00862 L 71.20454 75.75697 L 72.13896 74.59094 L 73.0734 73.49414 L 74.00783 72.46317 L 74.94225 71.49512 L 75.87668 70.58206 L 76.81111 69.71945 L 77.74554 68.90259 L 78.67998 68.13016 L 79.6144 67.39667 L 80.54883 66.70003 L 81.48325 66.03694 L 82.41768 65.4059 L 83.35213 64.8041 L 84.28654 64.22932 L 85.22098 63.68024 L 86.15541 63.15488 L 87.08983 62.65259 L 88.02426 62.1707 L 88.95868 61.70825 L 89.89313 61.26492 L 90.82756 60.83803 L 91.76198 60.42862 L 92.69641 60.03467 L 93.63084 59.65456 L 94.56526 59.28862 L 95.4997 58.93555 L 96.43413 58.59496 L 97.36856 58.26625 L 98.303 57.94841 L 99.23741 57.64172 L 100.17184 57.34465 L 101.10626 57.05775 L 102.04071 56.77878 L 102.97514 56.50934 L 103.90956 56.24779 L 104.84601 55.99428 L 104.84605 105.40115 L 104.53429 105.40115 L 103.28833 105.40115 L 102.04239 105.40115 L 100.79645 105.40115 L 99.55049 105.40115 L 98.30457 105.40115 L 97.05862 105.40115 L 95.81267 105.40115 L 94.56673 105.40115 L 93.32079 105.40115 L 92.07483 105.40115 L 90.82889 105.40115 L 89.58296 105.40115 L 88.337 105.40115 L 87.09106 105.40115 L 85.84512 105.40115 L 84.59918 105.40115 L 83.35323 105.40115 L 82.10728 105.40115 L 80.86136 105.40115 L 79.6154 105.40115 L 78.36946 105.40115 L 77.12352 105.40115 L 75.87756 105.40115 L 74.63162 105.40115 L 73.38568 105.40115 L 72.13974 105.40115 L 70.8938 105.40115 L 69.64786 105.40115 L 68.40192 105.40115 L 67.15596 105.40115 L 65.91002 105.40115 L 64.66408 105.40115 L 63.41814 105.40115 L 62.1722 105.40115 L 60.92625 105.40115 L 59.6803 105.40115 L 58.59027 105.40115 Z " fill="#929292" fill-opacity=".2"/>
</g>
<clipPath id="cp1">
<path transform="matrix(2.7777777,0,0,-2.7777777,10.330556,484.66944)" d="M 0 0 L 194.27359 0 L 194.27359 161.39534 L 0 161.39534 Z "/>
</clipPath>
<g clip-path="url(#cp1)">
<path transform="matrix(2.7777777,0,0,-2.7777777,10.330556,484.66944)" stroke-width=".79701" stroke-linecap="butt" stroke-miterlimit="10" stroke-linejoin="miter" fill="none" stroke="#000000" d="M 44.10608 1126.5442 L 45.04053 583.03469 L 45.97495 401.8429 L 46.90938 311.27339 L 47.84381 256.92243 L 48.77823 220.69065 L 49.71266 194.80797 L 50.6471 175.39434 L 51.58153 160.30216 L 52.51596 148.2271 L 53.45038 138.33913 L 54.38481 130.10794 L 55.31924 123.14154 L 56.25366 117.16661 L 57.1881 111.98874 L 58.12253 107.45976 L 59.05696 103.4644 L 59.9914 99.91035 L 60.92581 96.73517 L 61.86024 93.87616 L 62.79466 91.2872 L 63.7291 88.93547 L 64.66354 86.78462 L 65.59796 84.8149 L 66.5324 83.00331 L 67.46681 81.33008 L 68.40125 79.78198 L 69.33568 78.34587 L 70.27011 77.00862 L 71.20454 75.75697 L 72.13896 74.59094 L 73.0734 73.49414 L 74.00783 72.46317 L 74.94225 71.49512 L 75.87668 70.58206 L 76.81111 69.71945 L 77.74554 68.90259 L 78.67998 68.13016 L 79.6144 67.39667 L 80.54883 66.70003 L 81.48325 66.03694 L 82.41768 65.4059 L 83.35213 64.8041 L 84.28654 64.22932 L 85.22098 63.68024 L 86.15541 63.15488 L 87.08983 62.65259 L 88.02426 62.1707 L 88.95868 61.70825 L 89.89313 61.26492 L 90.82756 60.83803 L 91.76198 60.42862 L 92.69641 60.03467 L 93.63084 59.65456 L 94.56526 59.28862 L 95.4997 58.93555 L 96.43413 58.59496 L 97.36856 58.26625 L 98.303 57.94841 L 99.23741 57.64172 L 100.17184 57.34465 L 101.10626 57.05775 L 102.04071 56.77878 L 102.97514 56.50934 L 103.90956 56.24779 L 104.844 55.99483 L 105.77841 55.74881 L 106.71284 55.50996 L 107.64728 55.27843 L 108.58171 55.05347 L 109.51614 54.83475 L 110.45056 54.622 L 111.385 54.41548 L 112.31943 54.2139 L 113.25385 54.01859 L 114.18828 53.8275 L 115.12271 53.64209 L 116.05714 53.4606 L 116.99158 53.28468 L 117.926 53.1121 L 118.86043 52.94444 L 119.79485 52.7811 L 120.72928 52.62132 L 121.66373 52.46552 L 122.59814 52.31302 L 123.53258 52.16446 L 124.46701 52.01921 L 125.40143 51.87758 L 126.33586 51.73827 L 127.27028 51.60286 L 128.20473 51.47049 L 129.13916 51.34006 L 130.07358 51.2129 L 131.00801 51.08871 L 131.94245 50.96718 L 132.87686 50.84827 L 133.81131 50.73102 L 134.74573 50.61703 L 135.68016 50.50475 "/>
<path transform="matrix(2.7777777,0,0,-2.7777777,10.330556,484.66944)" stroke-width=".79701" stroke-linecap="butt" stroke-miterlimit="10" stroke-linejoin="miter" fill="none" stroke="#0000ff" d="M 12.33446 105.40115 L 13.58038 105.40115 L 14.82632 105.40115 L 16.07227 105.40115 L 17.31822 105.40115 L 18.56416 105.40115 L 19.8101 105.40115 L 21.05606 105.40115 L 22.30199 105.40115 L 23.54793 105.40115 L 24.79388 105.40115 L 26.03983 105.40115 L 27.28577 105.40115 L 28.53172 105.40115 L 29.77766 105.40115 L 31.02359 105.40115 L 32.26953 105.40115 L 33.51549 105.40115 L 34.76143 105.40115 L 36.00737 105.40115 L 37.25333 105.40115 L 38.49927 105.40115 L 39.7452 105.40115 L 40.99115 105.40115 L 42.23709 105.40115 L 43.48303 105.40115 L 44.72899 105.40115 L 45.97493 105.40115 L 47.22087 105.40115 L 48.46681 105.40115 L 49.71275 105.40115 L 50.9587 105.40115 L 52.20464 105.40115 L 53.45059 105.40115 L 54.69653 105.40115 L 55.94247 105.40115 L 57.18842 105.40115 L 58.43436 105.40115 L 59.6803 105.40115 L 60.92625 105.40115 L 62.1722 105.40115 L 63.41814 105.40115 L 64.66408 105.40115 L 65.91002 105.40115 L 67.15596 105.40115 L 68.40192 105.40115 L 69.64786 105.40115 L 70.8938 105.40115 L 72.13974 105.40115 L 73.38568 105.40115 L 74.63162 105.40115 L 75.87756 105.40115 L 77.12352 105.40115 L 78.36946 105.40115 L 79.6154 105.40115 L 80.86136 105.40115 L 82.10728 105.40115 L 83.35323 105.40115 L 84.59918 105.40115 L 85.84512 105.40115 L 87.09106 105.40115 L 88.337 105.40115 L 89.58296 105.40115 L 90.82889 105.40115 L 92.07483 105.40115 L 93.32079 105.40115 L 94.56673 105.40115 L 95.81267 105.40115 L 97.05862 105.40115 L 98.30457 105.40115 L 99.55049 105.40115 L 100.79645 105.40115 L 102.04239 105.40115 L 103.28833 105.40115 L 104.53429 105.40115 L 105.78023 105.40115 L 107.02617 105.40115 L 108.2721 105.40115 L 109.51805 105.40115 L 110.76399 105.40115 L 112.00993 105.40115 L 113.25589 105.40115 L 114.50183 105.40115 L 115.74776 105.40115 L 116.99371 105.40115 L 118.23965 105.40115 L 119.4856 105.40115 L 120.73155 105.40115 L 121.9775 105.40115 L 123.22343 105.40115 L 124.46938 105.40115 L 125.71532 105.40115 L 126.96126 105.40115 L 128.2072 105.40115 L 129.45316 105.40115 L 130.6991 105.40115 L 131.94504 105.40115 L 133.19098 105.40115 L 134.43692 105.40115 L 135.68286 105.40115 "/>
<path transform="matrix(2.7777777,0,0,-2.7777777,10.330556,484.66944)" stroke-width=".3985" stroke-linecap="butt" stroke-miterlimit="10" stroke-linejoin="miter" fill="none" stroke="#ff0000" d="M 104.84608 6.58722 L 104.84608 138.33913 "/>
<path transform="matrix(2.7777777,0,0,-2.7777777,10.330556,484.66944)" stroke-width=".3985" stroke-linecap="butt" stroke-dasharray="2.98883,2.98883" stroke-miterlimit="10" stroke-linejoin="miter" fill="none" stroke="#000000" d="M 58.59027 39.52519 L 58.59027 105.40115 "/>
<path transform="matrix(2.7777777,0,0,-2.7777777,10.330556,484.66944)" stroke-width=".3985" stroke-linecap="butt" stroke-dasharray="2.98883,2.98883" stroke-miterlimit="10" stroke-linejoin="miter" fill="none" stroke="#000000" d="M 43.17166 55.99419 L 104.84608 55.99419 "/>
<symbol id="font_2_1">
<path d="M .22600001 .63600006 C .22600001 .66300007 .224 .66400006 .19600001 .66400006 C .132 .601 .041 .6 0 .6 L 0 .564 C .023999997 .564 .09000001 .564 .14500001 .592 L .14500001 .082 C .14500001 .049000004 .14500001 .036000004 .04500001 .036000004 L .0069999995 .036000004 L .0069999995 0 C .024999999 .001 .148 .004 .185 .004 C .21600002 .004 .34200005 .001 .36400003 0 L .36400003 .036000004 L .32600004 .036000004 C .22600001 .036000004 .22600001 .049000004 .22600001 .082 L .22600001 .63600006 Z "/>
</symbol>
<use xlink:href="#font_2_1" transform="matrix(19.371666,0,0,-19.371666,169.67542,397.14167)"/>
<path transform="matrix(2.7777777,0,0,-2.7777777,167.5639,401.11943)" stroke-width=".398" stroke-linecap="butt" stroke-miterlimit="10" stroke-linejoin="miter" fill="none" stroke="#000000" d="M 0 0 L 3.971 0 "/>
<symbol id="font_2_2">
<path d="M .442 .18200001 L .40800003 .18200001 C .40500004 .16000001 .39500005 .101 .38200004 .091000009 C .374 .085 .29700003 .085 .28300003 .085 L .099 .085 C .20400003 .178 .23900002 .20600002 .29900003 .25300003 C .37300004 .312 .442 .374 .442 .469 C .442 .59000006 .33600004 .66400006 .20800004 .66400006 C .084 .66400006 0 .577 0 .485 C 0 .43400003 .043000007 .42900003 .053000004 .42900003 C .077 .42900003 .10600001 .446 .10600001 .48200003 C .10600001 .5 .099 .535 .047000007 .535 C .078 .606 .146 .628 .19300002 .628 C .293 .628 .34500004 .55 .34500004 .469 C .34500004 .38200004 .28300003 .31300003 .25100003 .277 L .010000005 .039 C 0 .030000002 0 .028 0 0 L .41200004 0 L .442 .18200001 Z "/>
</symbol>
<use xlink:href="#font_2_2" transform="matrix(19.371666,0,0,-19.371666,168.78432,417.58058)"/>
<use xlink:href="#font_2_1" transform="matrix(19.371666,0,0,-19.371666,108.233737,325.15556)"/>
<path transform="matrix(2.7777777,0,0,-2.7777777,106.12222,329.13334)" stroke-width=".398" stroke-linecap="butt" stroke-miterlimit="10" stroke-linejoin="miter" fill="none" stroke="#000000" d="M 0 0 L 3.971 0 "/>
<use xlink:href="#font_2_2" transform="matrix(19.371666,0,0,-19.371666,107.342639,345.59443)"/>
<symbol id="font_3_1">
<path d="M .07700001 .07700001 L .18300002 .18 C .33900003 .31800003 .39900003 .372 .39900003 .47200004 C .39900003 .586 .30900003 .666 .18700002 .666 C .074 .666 0 .574 0 .485 C 0 .42900003 .05 .42900003 .053000008 .42900003 C .07000001 .42900003 .105000007 .441 .105000007 .48200003 C .105000007 .508 .08700001 .53400006 .052000006 .53400006 C .044000005 .53400006 .042000008 .53400006 .039 .53300008 C .062000004 .59800007 .11600001 .63500007 .17400001 .63500007 C .26500003 .63500007 .308 .554 .308 .47200004 C .308 .39200003 .25800003 .31300003 .20300003 .25100003 L .011000004 .037 C 0 .026 0 .024 0 0 L .37100003 0 L .39900003 .17400001 L .374 .17400001 C .36900003 .14400001 .36200003 .1 .352 .085 C .345 .07700001 .279 .07700001 .257 .07700001 L .07700001 .07700001 Z "/>
</symbol>
<use xlink:href="#font_3_1" transform="matrix(27.673888,0,0,-27.673888,287.46705,402.49168)"/>
<use xlink:href="#font_3_1" transform="matrix(27.673888,0,0,-27.673888,108.019809,209.96112)"/>
<symbol id="font_4_1">
<path d="M .305 .31300003 C .311 .33900003 .334 .43100003 .404 .43100003 C .409 .43100003 .433 .43100003 .454 .418 C .426 .41300003 .40600003 .388 .40600003 .36400003 C .40600003 .34800003 .417 .32900004 .444 .32900004 C .46600003 .32900004 .498 .34700004 .498 .38700003 C .498 .43900005 .439 .45300005 .405 .45300005 C .347 .45300005 .312 .40000005 .3 .37700004 C .275 .44300003 .221 .45300005 .19200002 .45300005 C .08800001 .45300005 .031000002 .32400004 .031000002 .29900003 C .031000002 .28900004 .041 .28900004 .043000007 .28900004 C .051000008 .28900004 .054000006 .291 .056 .3 C .09 .40600003 .156 .43100003 .19000001 .43100003 C .209 .43100003 .244 .42200003 .244 .36400003 C .244 .33300004 .22700002 .26600004 .19000001 .126 C .17400001 .064 .13900002 .022000002 .095000009 .022000002 C .08900001 .022000002 .06600001 .022000002 .045 .035 C .07000001 .040000004 .09200001 .061 .09200001 .089 C .09200001 .116000007 .07000001 .124000009 .055000009 .124000009 C .025 .124000009 0 .098000008 0 .06600001 C 0 .020000002 .050000006 0 .094000007 0 C .16000001 0 .19600001 .07000001 .19900002 .076000008 C .21100001 .039 .24700003 0 .307 0 C .41 0 .467 .12900001 .467 .15400002 C .467 .16400002 .458 .16400002 .455 .16400002 C .446 .16400002 .444 .16000001 .442 .15300001 C .409 .046 .341 .022000002 .30900003 .022000002 C .27 .022000002 .254 .054 .254 .08800001 C .254 .11000001 .26 .13200002 .271 .17600002 L .305 .31300003 Z "/>
</symbol>
<use xlink:href="#font_4_1" transform="matrix(27.673888,0,0,-27.673888,312.14698,292.6072)" fill="#ff0000"/>
<symbol id="font_3_2">
<path d="M .63100007 .19400002 C .646 .19400002 .665 .19400002 .665 .214 C .665 .23400001 .646 .23400001 .632 .23400001 L .033 .23400001 C .019000002 .23400001 0 .23400001 0 .214 C 0 .19400002 .019000002 .19400002 .034 .19400002 L .63100007 .19400002 M .632 0 C .646 0 .665 0 .665 .02000001 C .665 .040000008 .646 .040000008 .63100007 .040000008 L .034 .040000008 C .019000002 .040000008 0 .040000008 0 .02000001 C 0 0 .019000002 0 .033 0 L .632 0 Z "/>
</symbol>
<use xlink:href="#font_3_2" transform="matrix(27.673888,0,0,-27.673888,336.39695,288.62217)" fill="#ff0000"/>
<use xlink:href="#font_3_1" transform="matrix(27.673888,0,0,-27.673888,365.45454,292.3028)" fill="#ff0000"/>
<symbol id="font_4_2">
<path d="M .45700003 .586 C .461 .6 .461 .602 .461 .609 C .461 .62700006 .447 .63600006 .432 .63600006 C .42200003 .63600006 .40600003 .63 .397 .615 C .395 .61 .387 .579 .38300003 .561 C .37600003 .535 .36900003 .508 .363 .48100005 L .318 .301 C .314 .286 .271 .21600002 .20500002 .21600002 C .15400002 .21600002 .143 .26000003 .143 .29700003 C .143 .34300003 .16000001 .40500004 .194 .49300004 C .21000001 .53400006 .21400002 .545 .21400002 .56500008 C .21400002 .61 .18200001 .6470001 .13200002 .6470001 C .037 .6470001 0 .50200006 0 .49300004 C 0 .48300005 .01 .48300005 .012 .48300005 C .022000002 .48300005 .023 .485 .028000003 .50100007 C .055000009 .595 .095000009 .625 .12900001 .625 C .13700001 .625 .15400002 .625 .15400002 .59300008 C .15400002 .568 .14400001 .54200008 .13700001 .523 C .097 .41700004 .079 .36 .079 .31300003 C .079 .224 .142 .194 .201 .194 C .24000003 .194 .274 .21100001 .30200003 .23900002 C .289 .187 .277 .13800001 .237 .08500001 C .21100001 .051 .17300001 .022 .127 .022 C .113000009 .022 .068 .025000006 .051000008 .06400001 C .067 .06400001 .080000009 .06400001 .094000007 .076000008 C .104 .08500001 .11400001 .098000008 .11400001 .117000009 C .11400001 .148 .087000008 .15200001 .07700001 .15200001 C .054000006 .15200001 .021 .136 .021 .087000008 C .021 .037 .065000008 0 .127 0 C .23 0 .333 .091000009 .361 .20400001 L .45700003 .586 Z "/>
</symbol>
<use xlink:href="#font_4_2" transform="matrix(27.673888,0,0,-27.673888,184.06365,182.40926)" fill="#0000ff"/>
<use xlink:href="#font_3_2" transform="matrix(27.673888,0,0,-27.673888,207.05808,173.05548)" fill="#0000ff"/>
<use xlink:href="#font_3_1" transform="matrix(27.673888,0,0,-27.673888,236.11563,176.73612)" fill="#0000ff"/>
<use xlink:href="#font_4_2" transform="matrix(27.673888,0,0,-27.673888,181.38587,278.88984)"/>
<use xlink:href="#font_3_2" transform="matrix(27.673888,0,0,-27.673888,204.38031,269.53605)"/>
<use xlink:href="#font_2_1" transform="matrix(19.371666,0,0,-19.371666,238.23374,262.31947)"/>
<path transform="matrix(2.7777777,0,0,-2.7777777,235.36389,266.2972)" stroke-width=".398" stroke-linecap="butt" stroke-miterlimit="10" stroke-linejoin="miter" fill="none" stroke="#000000" d="M 0 0 L 4.518 0 "/>
<symbol id="font_5_1">
<path d="M .201 .116000007 C .19100002 .082 .15800002 .028 .107 .028 C .10400001 .028 .07400001 .028 .053000004 .042000005 C .094000007 .055000005 .09700001 .091 .09700001 .097 C .09700001 .119 .080000009 .134 .057000005 .134 C .029000007 .134 0 .11 0 .073 C 0 .023000002 .056 0 .10500001 0 C .15100003 0 .192 .029000003 .21700001 .071 C .241 .018000002 .296 0 .336 0 C .451 0 .512 .125 .512 .15300001 C .512 .16600001 .49900005 .16600001 .49600003 .16600001 C .48200003 .16600001 .48100005 .16100002 .47700004 .14900002 C .456 .08 .39600004 .028 .34 .028 C .3 .028 .279 .055000005 .279 .093 C .279 .119 .303 .21000001 .331 .321 C .351 .398 .39600004 .423 .42900003 .423 C .43100003 .423 .46200005 .423 .483 .409 C .451 .4 .439 .372 .439 .354 C .439 .33200003 .456 .317 .479 .317 C .50200006 .317 .535 .336 .535 .37800003 C .535 .43400003 .47100006 .451 .43100003 .451 C .381 .451 .34100003 .418 .319 .38 C .301 .421 .255 .451 .199 .451 C .087000008 .451 .023000002 .328 .023000002 .298 C .023000002 .285 .037 .285 .040000008 .285 C .053000004 .285 .054000006 .289 .059000009 .30200003 C .084 .38 .14700002 .423 .19600001 .423 C .229 .423 .256 .405 .256 .357 C .256 .337 .24400002 .287 .23500002 .25300003 L .201 .116000007 Z "/>
</symbol>
<use xlink:href="#font_5_1" transform="matrix(19.371666,0,0,-19.371666,236.29373,282.9521)"/>
<path transform="matrix(2.7777777,0,0,-2.7777777,10.330556,484.66944)" stroke-width=".3985" stroke-linecap="butt" stroke-miterlimit="10" stroke-linejoin="miter" fill="none" stroke="#ff0000" d="M 151.10192 23.05621 C 147.25843 17.91112 147.25843 50.84909 151.10192 55.99419 "/>
<path transform="matrix(2.7777777,0,0,-2.7777777,10.330556,484.66944)" stroke-width=".3985" stroke-linecap="butt" stroke-miterlimit="10" stroke-linejoin="miter" fill="none" stroke="#ff0000" d="M 151.10192 55.99419 C 153.87483 55.99419 152.94326 44.63908 152.57883 45.36642 "/>
<path transform="matrix(1.2445555,2.4831665,2.4831665,-1.2445555,434.16026,358.65174)" d="M 3.58653 0 C 2.52383 .19925 .797 .797 -.3985 1.49438 L -.3985 -1.49438 C .797 -.797 2.52383 -.19925 3.58653 0 " fill="#ff0000"/>
<path transform="matrix(2.7777777,0,0,-2.7777777,10.330556,484.66944)" stroke-width=".3985" stroke-linecap="butt" stroke-miterlimit="10" stroke-linejoin="miter" fill="none" stroke="#ff0000" d="M 151.10192 23.05621 C 153.691 23.05621 155.1923 35.77563 152.64377 36.2314 "/>
</g>
<use xlink:href="#font_4_1" transform="matrix(27.673888,0,0,-27.673888,560.64138,396.8683)"/>
<use xlink:href="#font_4_2" transform="matrix(27.673888,0,0,-27.673888,106.7331,26.809287)"/>
</g>
</svg>
