<?xml version="1.0" encoding="UTF-8" standalone="no"?>
<!DOCTYPE svg PUBLIC "-//W3C//DTD SVG 1.1//EN" "http://www.w3.org/Graphics/SVG/1.1/DTD/svg11.dtd">
<svg xmlns="http://www.w3.org/2000/svg" xmlns:xlink="http://www.w3.org/1999/xlink" version="1.1" width="584.8444pt" height="485.80555pt" viewBox="0 0 584.8444 485.80555">
<g enable-background="new">
<path transform="matrix(2.7777777,0,0,-2.7777777,10.330556,484.6972)" stroke-width=".79701" stroke-linecap="butt" stroke-miterlimit="10" stroke-linejoin="miter" fill="none" stroke="#000000" d="M 0 39.52538 L 191.67804 39.52538 "/>
<path transform="matrix(2.7777777,0,0,-2.7777777,542.7694,374.90449)" d="M 2.59026 0 L -1.55415 2.0722 L 0 0 L -1.55415 -2.0722 "/>
<path transform="matrix(2.7777777,0,0,-2.7777777,10.330556,484.6972)" stroke-width=".79701" stroke-linecap="butt" stroke-miterlimit="10" stroke-linejoin="miter" fill="none" stroke="#000000" d="M 87.22244 0 L 87.22244 158.80587 "/>
<path transform="matrix(0,-2.7777222,-2.7777222,-0,252.61511,43.569818)" d="M 2.59026 0 L -1.55415 2.0722 L 0 0 L -1.55415 -2.0722 "/>
<clipPath id="cp0">
<path transform="matrix(2.7777777,0,0,-2.7777777,10.330556,484.6972)" d="M 0 0 L 194.26827 0 L 194.26827 161.39609 L 0 161.39609 Z "/>
</clipPath>
<g clip-path="url(#cp0)">
<path transform="matrix(2.7777777,0,0,-2.7777777,10.330556,484.6972)" d="M 87.22247 39.52559 L 88.22359 46.92747 L 89.22475 49.99368 L 90.2259 52.34639 L 91.22707 54.32979 L 92.22824 56.07724 L 93.2294 57.65703 L 94.23055 59.10979 L 95.2317 60.462 L 96.23286 61.73203 L 97.23404 62.93323 L 98.2352 64.07574 L 99.23634 65.16739 L 100.2375 66.21445 L 101.23866 67.22192 L 102.23984 68.19403 L 103.241 69.13423 L 104.24214 70.0455 L 105.2433 70.93031 L 106.24448 71.79088 L 107.24564 72.62862 L 108.2468 73.44608 L 109.24794 74.2443 L 110.2491 75.02457 L 111.25027 75.7881 L 112.25143 76.53587 L 113.2526 77.26883 L 114.25374 77.98784 L 115.2549 78.69362 L 116.25607 79.3869 L 117.25723 80.06839 L 118.25839 80.73856 L 119.25954 81.398 L 120.26071 82.04716 L 121.26187 82.68665 L 122.26303 83.3168 L 123.26419 83.93802 L 124.26534 84.55064 L 125.26651 85.15498 L 126.26767 85.7515 L 127.26883 86.34036 L 128.26999 86.92198 L 129.27114 87.4965 L 130.27231 88.06422 L 131.27347 88.62538 L 132.27463 89.18019 L 133.27579 89.72888 L 134.27695 90.27164 L 135.2781 90.80864 L 136.27927 91.3401 L 137.28043 91.86617 L 138.28159 92.38695 L 139.28276 92.90274 L 140.2839 93.41348 L 141.28507 93.91951 L 142.28623 94.42085 L 143.28739 94.91762 L 144.28856 95.41 L 145.2897 95.89816 L 146.29087 96.38197 L 147.29203 96.86182 L 148.2932 97.33768 L 149.29436 97.80962 L 150.2955 98.27774 L 151.29666 98.74222 L 152.29782 99.20306 L 153.299 99.66037 L 154.30016 100.1142 L 155.3013 100.5647 L 156.30246 101.01186 L 157.30362 101.45581 L 158.3048 101.89662 L 159.30596 102.33434 L 160.3071 102.76898 L 161.30826 103.20068 L 162.30942 103.62949 L 163.3106 104.05544 L 164.31175 104.47856 L 165.3129 104.89899 L 166.31406 105.31674 L 166.51595 105.40045 L 166.51595 105.40163 L 165.91352 105.40163 L 164.71213 105.40163 L 163.51073 105.40163 L 162.30933 105.40163 L 161.10793 105.40163 L 159.90653 105.40163 L 158.70514 105.40163 L 157.50374 105.40163 L 156.30234 105.40163 L 155.10094 105.40163 L 153.89955 105.40163 L 152.69815 105.40163 L 151.49677 105.40163 L 150.29537 105.40163 L 149.09398 105.40163 L 147.89258 105.40163 L 146.69118 105.40163 L 145.48978 105.40163 L 144.28839 105.40163 L 143.08699 105.40163 L 141.88559 105.40163 L 140.68419 105.40163 L 139.4828 105.40163 L 138.2814 105.40163 L 137.08 105.40163 L 135.87862 105.40163 L 134.67722 105.40163 L 133.47583 105.40163 L 132.27443 105.40163 L 131.07303 105.40163 L 129.87163 105.40163 L 128.67024 105.40163 L 127.46884 105.40163 L 126.26744 105.40163 L 125.06604 105.40163 L 123.86465 105.40163 L 122.66325 105.40163 L 121.46187 105.40163 L 120.26047 105.40163 L 119.05908 105.40163 L 117.85768 105.40163 L 116.65628 105.40163 L 115.45488 105.40163 L 114.25348 105.40163 L 113.0521 105.40163 L 111.8507 105.40163 L 110.64929 105.40163 L 109.44789 105.40163 L 108.24652 105.40163 L 107.04512 105.40163 L 105.84372 105.40163 L 104.64232 105.40163 L 103.44093 105.40163 L 102.23953 105.40163 L 101.03813 105.40163 L 99.83673 105.40163 L 98.63535 105.40163 L 97.43394 105.40163 L 96.23256 105.40163 L 95.03116 105.40163 L 93.82976 105.40163 L 92.62837 105.40163 L 91.42697 105.40163 L 90.22557 105.40163 L 89.02417 105.40163 L 87.82278 105.40163 L 87.22243 105.40163 Z " fill="#929292" fill-opacity=".2"/>
</g>
<clipPath id="cp1">
<path transform="matrix(2.7777777,0,0,-2.7777777,10.330556,484.6972)" d="M 0 0 L 194.26827 0 L 194.26827 161.39609 L 0 161.39609 Z "/>
</clipPath>
<g clip-path="url(#cp1)">
<path transform="matrix(2.7777777,0,0,-2.7777777,10.330556,484.6972)" stroke-width=".79701" stroke-linecap="butt" stroke-miterlimit="10" stroke-linejoin="miter" fill="none" stroke="#000000" d="M 87.22244 39.52538 L 88.22359 46.92747 L 89.22475 49.99368 L 90.2259 52.34639 L 91.22707 54.32979 L 92.22824 56.07724 L 93.2294 57.65703 L 94.23055 59.10979 L 95.2317 60.462 L 96.23286 61.73203 L 97.23404 62.93323 L 98.2352 64.07574 L 99.23634 65.16739 L 100.2375 66.21445 L 101.23866 67.22192 L 102.23984 68.19403 L 103.241 69.13423 L 104.24214 70.0455 L 105.2433 70.93031 L 106.24448 71.79088 L 107.24564 72.62862 L 108.2468 73.44608 L 109.24794 74.2443 L 110.2491 75.02457 L 111.25027 75.7881 L 112.25143 76.53587 L 113.2526 77.26883 L 114.25374 77.98784 L 115.2549 78.69362 L 116.25607 79.3869 L 117.25723 80.06839 L 118.25839 80.73856 L 119.25954 81.398 L 120.26071 82.04716 L 121.26187 82.68665 L 122.26303 83.3168 L 123.26419 83.93802 L 124.26534 84.55064 L 125.26651 85.15498 L 126.26767 85.7515 L 127.26883 86.34036 L 128.26999 86.92198 L 129.27114 87.4965 L 130.27231 88.06422 L 131.27347 88.62538 L 132.27463 89.18019 L 133.27579 89.72888 L 134.27695 90.27164 L 135.2781 90.80864 L 136.27927 91.3401 L 137.28043 91.86617 L 138.28159 92.38695 L 139.28276 92.90274 L 140.2839 93.41348 L 141.28507 93.91951 L 142.28623 94.42085 L 143.28739 94.91762 L 144.28856 95.41 L 145.2897 95.89816 L 146.29087 96.38197 L 147.29203 96.86182 L 148.2932 97.33768 L 149.29436 97.80962 L 150.2955 98.27774 L 151.29666 98.74222 L 152.29782 99.20306 L 153.299 99.66037 L 154.30016 100.1142 L 155.3013 100.5647 L 156.30246 101.01186 L 157.30362 101.45581 L 158.3048 101.89662 L 159.30596 102.33434 L 160.3071 102.76898 L 161.30826 103.20068 L 162.30942 103.62949 L 163.3106 104.05544 L 164.31175 104.47856 L 165.3129 104.89899 L 166.31406 105.31674 L 167.31523 105.73184 L 168.31639 106.1443 L 169.31755 106.55429 L 170.3187 106.96173 L 171.31986 107.36678 L 172.32103 107.76941 L 173.32219 108.16966 L 174.32335 108.56764 L 175.3245 108.96326 L 176.32566 109.3567 L 177.32683 109.74791 L 178.32799 110.13698 L 179.32915 110.52386 L 180.33029 110.90869 L 181.33147 111.29146 L 182.33263 111.67216 L 183.33379 112.05084 L 184.33495 112.42766 L 185.33609 112.80249 L 186.33727 113.17535 "/>
<path transform="matrix(2.7777777,0,0,-2.7777777,10.330556,484.6972)" stroke-width=".79701" stroke-linecap="butt" stroke-miterlimit="10" stroke-linejoin="miter" fill="none" stroke="#0000ff" d="M 67.39906 105.40163 L 68.60043 105.40163 L 69.80183 105.40163 L 71.00323 105.40163 L 72.20464 105.40163 L 73.40602 105.40163 L 74.60742 105.40163 L 75.80882 105.40163 L 77.01022 105.40163 L 78.21162 105.40163 L 79.41301 105.40163 L 80.6144 105.40163 L 81.8158 105.40163 L 83.0172 105.40163 L 84.21858 105.40163 L 85.41998 105.40163 L 86.62138 105.40163 L 87.82278 105.40163 L 89.02417 105.40163 L 90.22557 105.40163 L 91.42697 105.40163 L 92.62837 105.40163 L 93.82976 105.40163 L 95.03116 105.40163 L 96.23256 105.40163 L 97.43394 105.40163 L 98.63535 105.40163 L 99.83673 105.40163 L 101.03813 105.40163 L 102.23953 105.40163 L 103.44093 105.40163 L 104.64232 105.40163 L 105.84372 105.40163 L 107.04512 105.40163 L 108.24652 105.40163 L 109.44789 105.40163 L 110.64929 105.40163 L 111.8507 105.40163 L 113.0521 105.40163 L 114.25348 105.40163 L 115.45488 105.40163 L 116.65628 105.40163 L 117.85768 105.40163 L 119.05908 105.40163 L 120.26047 105.40163 L 121.46187 105.40163 L 122.66325 105.40163 L 123.86465 105.40163 L 125.06604 105.40163 L 126.26744 105.40163 L 127.46884 105.40163 L 128.67024 105.40163 L 129.87163 105.40163 L 131.07303 105.40163 L 132.27443 105.40163 L 133.47583 105.40163 L 134.67722 105.40163 L 135.87862 105.40163 L 137.08 105.40163 L 138.2814 105.40163 L 139.4828 105.40163 L 140.68419 105.40163 L 141.88559 105.40163 L 143.08699 105.40163 L 144.28839 105.40163 L 145.48978 105.40163 L 146.69118 105.40163 L 147.89258 105.40163 L 149.09398 105.40163 L 150.29537 105.40163 L 151.49677 105.40163 L 152.69815 105.40163 L 153.89955 105.40163 L 155.10094 105.40163 L 156.30234 105.40163 L 157.50374 105.40163 L 158.70514 105.40163 L 159.90653 105.40163 L 161.10793 105.40163 L 162.30933 105.40163 L 163.51073 105.40163 L 164.71213 105.40163 L 165.91352 105.40163 L 167.1149 105.40163 L 168.3163 105.40163 L 169.5177 105.40163 L 170.71909 105.40163 L 171.92049 105.40163 L 173.12189 105.40163 L 174.32329 105.40163 L 175.52468 105.40163 L 176.72608 105.40163 L 177.92748 105.40163 L 179.12888 105.40163 L 180.33026 105.40163 L 181.53165 105.40163 L 182.73305 105.40163 L 183.93445 105.40163 L 185.13585 105.40163 L 186.33724 105.40163 "/>
<path transform="matrix(2.7777777,0,0,-2.7777777,10.330556,484.6972)" stroke-width=".3985" stroke-linecap="butt" stroke-miterlimit="10" stroke-linejoin="miter" fill="none" stroke="#ff0000" d="M 87.22244 39.52538 L 87.22244 138.33975 "/>
<path transform="matrix(2.7777777,0,0,-2.7777777,10.330556,484.6972)" stroke-width=".3985" stroke-linecap="butt" stroke-miterlimit="10" stroke-linejoin="miter" fill="none" stroke="#ff0000" d="M 47.57568 6.58725 L 47.57568 138.33975 "/>
<path transform="matrix(2.7777777,0,0,-2.7777777,10.330556,484.6972)" stroke-width=".3985" stroke-linecap="butt" stroke-dasharray="2.98883,2.98883" stroke-miterlimit="10" stroke-linejoin="miter" fill="none" stroke="#000000" d="M 166.51596 39.52538 L 166.51596 105.40163 "/>
<symbol id="font_2_3">
<path d="M .266 .165 L .266 .078 C .266 .042000005 .26400004 .031000002 .19000001 .031000002 L .16900002 .031000002 L .16900002 0 C .21000001 .003 .26200003 .003 .30400003 .003 C .34600003 .003 .39900003 .003 .44000004 0 L .44000004 .031000002 L .41900004 .031000002 C .34500004 .031000002 .34300003 .042000005 .34300003 .078 L .34300003 .165 L .44300003 .165 L .44300003 .19600001 L .34300003 .19600001 L .34300003 .651 C .34300003 .671 .34300003 .67700007 .32700003 .67700007 C .31800003 .67700007 .31500004 .67700007 .307 .665 L 0 .19600001 L 0 .165 L .266 .165 M .272 .19600001 L .028 .19600001 L .272 .569 L .272 .19600001 Z "/>
</symbol>
<use xlink:href="#font_2_3" transform="matrix(27.673888,0,0,-27.673888,466.72483,402.51945)"/>
<symbol id="font_3_1">
<path d="M .57600006 0 C .59300008 0 .611 0 .611 .019999996 C .611 .040000008 .59300008 .040000008 .57600006 .040000008 L .035000005 .040000008 C .018 .040000008 0 .040000008 0 .019999996 C 0 0 .018 0 .035000005 0 L .57600006 0 Z "/>
</symbol>
<use xlink:href="#font_3_1" transform="matrix(27.673888,0,0,-27.673888,127.09971,396.15446)"/>
<symbol id="font_2_2">
<path d="M .07700001 .07700001 L .18300002 .18 C .33900003 .31800003 .39900003 .372 .39900003 .47200004 C .39900003 .586 .30900003 .666 .18700002 .666 C .074 .666 0 .574 0 .485 C 0 .42900003 .05 .42900003 .053000008 .42900003 C .07000001 .42900003 .105000007 .441 .105000007 .48200003 C .105000007 .508 .08700001 .53400006 .052000006 .53400006 C .044000005 .53400006 .042000008 .53400006 .039 .53300008 C .062000004 .59800007 .11600001 .63500007 .17400001 .63500007 C .26500003 .63500007 .308 .554 .308 .47200004 C .308 .39200003 .25800003 .31300003 .20300003 .25100003 L .011000004 .037 C 0 .026 0 .024 0 0 L .37100003 0 L .39900003 .17400001 L .374 .17400001 C .36900003 .14400001 .36200003 .1 .352 .085 C .345 .07700001 .279 .07700001 .257 .07700001 L .07700001 .07700001 Z "/>
</symbol>
<use xlink:href="#font_2_2" transform="matrix(27.673888,0,0,-27.673888,147.71147,402.51945)"/>
<use xlink:href="#font_2_2" transform="matrix(27.673888,0,0,-27.673888,230.3837,219.13611)"/>
<symbol id="font_4_2">
<path d="M .45700003 .586 C .461 .6 .461 .602 .461 .609 C .461 .62700006 .447 .63600006 .432 .63600006 C .42200003 .63600006 .40600003 .63 .397 .615 C .395 .61 .387 .579 .38300003 .561 C .37600003 .535 .36900003 .508 .363 .48100005 L .318 .301 C .314 .286 .271 .21600002 .20500002 .21600002 C .15400002 .21600002 .143 .26000003 .143 .29700003 C .143 .34300003 .16000001 .40500004 .194 .49300004 C .21000001 .53400006 .21400002 .545 .21400002 .56500008 C .21400002 .61 .18200001 .6470001 .13200002 .6470001 C .037 .6470001 0 .50200006 0 .49300004 C 0 .48300005 .01 .48300005 .012 .48300005 C .022000002 .48300005 .023 .485 .028000003 .50100007 C .055000009 .595 .095000009 .625 .12900001 .625 C .13700001 .625 .15400002 .625 .15400002 .59300008 C .15400002 .568 .14400001 .54200008 .13700001 .523 C .097 .41700004 .079 .36 .079 .31300003 C .079 .224 .142 .194 .201 .194 C .24000003 .194 .274 .21100001 .30200003 .23900002 C .289 .187 .277 .13800001 .237 .08500001 C .21100001 .051 .17300001 .022 .127 .022 C .113000009 .022 .068 .025000006 .051000008 .06400001 C .067 .06400001 .080000009 .06400001 .094000007 .076000008 C .104 .08500001 .11400001 .098000008 .11400001 .117000009 C .11400001 .148 .087000008 .15200001 .07700001 .15200001 C .054000006 .15200001 .021 .136 .021 .087000008 C .021 .037 .065000008 0 .127 0 C .23 0 .333 .091000009 .361 .20400001 L .45700003 .586 Z "/>
</symbol>
<use xlink:href="#font_4_2" transform="matrix(27.673888,0,0,-27.673888,318.3748,293.56205)"/>
<symbol id="font_2_4">
<path d="M .63100007 .19400002 C .646 .19400002 .665 .19400002 .665 .214 C .665 .23400001 .646 .23400001 .632 .23400001 L .033 .23400001 C .019000002 .23400001 0 .23400001 0 .214 C 0 .19400002 .019000002 .19400002 .034 .19400002 L .63100007 .19400002 M .632 0 C .646 0 .665 0 .665 .02000001 C .665 .040000008 .646 .040000008 .63100007 .040000008 L .034 .040000008 C .019000002 .040000008 0 .040000008 0 .02000001 C 0 0 .019000002 0 .033 0 L .632 0 Z "/>
</symbol>
<use xlink:href="#font_2_4" transform="matrix(27.673888,0,0,-27.673888,341.3692,284.20826)"/>
<symbol id="font_3_2">
<path d="M .316 .10500002 L .14000002 .49400003 C .13300002 .51 .12799999 .51 .125 .51 C .124000009 .51 .118999999 .51 .108 .502 L .012999997 .43 C 0 .42000003 0 .417 0 .41400004 C 0 .40900005 .0029999987 .403 .009999998 .403 C .015999996 .403 .033 .417 .044 .425 C .049999998 .43 .065000008 .44099999 .076 .449 L .273 .015999973 C .28 0 .285 0 .294 0 C .30900003 0 .312 .0059999825 .319 .01999998 L .773 .96000006 C .78000006 .97400006 .78000006 .97800007 .78000006 .98 C .78000006 .99 .772 1 .76000007 1 C .75200006 1 .745 .99500009 .73700007 .97900006 L .316 .10500002 Z "/>
</symbol>
<use xlink:href="#font_3_2" transform="matrix(27.673888,0,0,-27.673888,371.05079,294.52247)"/>
<path transform="matrix(2.7777777,0,0,-2.7777777,392.09449,267.40278)" stroke-width=".398" stroke-linecap="butt" stroke-miterlimit="10" stroke-linejoin="miter" fill="none" stroke="#000000" d="M 0 0 L 5.694 0 "/>
<symbol id="font_4_1">
<path d="M .305 .31300003 C .311 .33900003 .334 .43100003 .404 .43100003 C .409 .43100003 .433 .43100003 .454 .418 C .426 .41300003 .40600003 .388 .40600003 .36400003 C .40600003 .34800003 .417 .32900004 .444 .32900004 C .46600003 .32900004 .498 .34700004 .498 .38700003 C .498 .43900005 .439 .45300005 .405 .45300005 C .347 .45300005 .312 .40000005 .3 .37700004 C .275 .44300003 .221 .45300005 .19200002 .45300005 C .08800001 .45300005 .031000002 .32400004 .031000002 .29900003 C .031000002 .28900004 .041 .28900004 .043000007 .28900004 C .051000008 .28900004 .054000006 .291 .056 .3 C .09 .40600003 .156 .43100003 .19000001 .43100003 C .209 .43100003 .244 .42200003 .244 .36400003 C .244 .33300004 .22700002 .26600004 .19000001 .126 C .17400001 .064 .13900002 .022000002 .095000009 .022000002 C .08900001 .022000002 .06600001 .022000002 .045 .035 C .07000001 .040000004 .09200001 .061 .09200001 .089 C .09200001 .116000007 .07000001 .124000009 .055000009 .124000009 C .025 .124000009 0 .098000008 0 .06600001 C 0 .020000002 .050000006 0 .094000007 0 C .16000001 0 .19600001 .07000001 .19900002 .076000008 C .21100001 .039 .24700003 0 .307 0 C .41 0 .467 .12900001 .467 .15400002 C .467 .16400002 .458 .16400002 .455 .16400002 C .446 .16400002 .444 .16000001 .442 .15300001 C .409 .046 .341 .022000002 .30900003 .022000002 C .27 .022000002 .254 .054 .254 .08800001 C .254 .11000001 .26 .13200002 .271 .17600002 L .305 .31300003 Z "/>
</symbol>
<use xlink:href="#font_4_1" transform="matrix(27.673888,0,0,-27.673888,392.89704,288.1933)"/>
<symbol id="font_2_1">
<path d="M .421 .34200005 C .421 .42200003 .416 .50200006 .381 .57600006 C .335 .67200008 .25300003 .688 .211 .688 C .15100001 .688 .07800001 .66200008 .037000006 .56900009 C .0050000029 .5 0 .42200003 0 .34200005 C 0 .26700003 .0040000008 .177 .045000007 .101 C .088 .020000002 .161 0 .21000001 0 C .264 0 .34 .021000002 .384 .116000007 C .416 .185 .421 .263 .421 .34200005 M .21000001 .022000002 C .171 .022000002 .112 .047000003 .094 .143 C .083000008 .20300001 .083000008 .29500003 .083000008 .35400004 C .083000008 .41800005 .083000008 .48400004 .091000009 .53800007 C .11 .65700009 .185 .66600009 .21000001 .66600009 C .243 .66600009 .30900003 .64800009 .328 .549 C .338 .49300004 .338 .41700004 .338 .35400004 C .338 .279 .338 .21100001 .32700003 .147 C .312 .052 .255 .022000002 .21000001 .022000002 Z "/>
</symbol>
<use xlink:href="#font_2_1" transform="matrix(27.673888,0,0,-27.673888,230.07929,402.731)"/>
<path transform="matrix(2.7777777,0,0,-2.7777777,10.330556,484.6972)" stroke-width=".79701" stroke-linecap="butt" stroke-miterlimit="10" stroke-linejoin="miter" fill="none" stroke="#ff0000" d="M 39.64633 121.8707 C 43.2989 121.21747 59.15761 121.21747 55.50504 121.8707 "/>
<path transform="matrix(2.7777777,0,0,-2.7777777,10.330556,484.6972)" stroke-width=".79701" stroke-linecap="butt" stroke-miterlimit="10" stroke-linejoin="miter" fill="none" stroke="#ff0000" d="M 39.64633 121.8707 C 37.77599 125.60248 55.61702 125.60248 57.48737 121.8707 "/>
<path transform="matrix(2.7777777,0,0,-2.7777777,10.330556,484.6972)" stroke-width=".79701" stroke-linecap="butt" stroke-miterlimit="10" stroke-linejoin="miter" fill="none" stroke="#ff0000" d="M 55.50504 121.8707 L 58.18517 121.8707 "/>
<path transform="matrix(-2.7777222,0,0,2.7777222,171.9558,146.1675)" d="M 4.66248 0 C 3.28098 .25902 1.0361 1.0361 -.51805 1.94269 L -.51805 -1.94269 C 1.0361 -1.0361 3.28098 -.25902 4.66248 0 " fill="#ff0000"/>
</g>
<use xlink:href="#font_4_1" transform="matrix(27.673888,0,0,-27.673888,560.6053,396.89607)"/>
<use xlink:href="#font_4_2" transform="matrix(27.673888,0,0,-27.673888,229.1081,26.812033)"/>
</g>
</svg>
