<?xml version="1.0" encoding="UTF-8" standalone="no"?>
<!DOCTYPE svg PUBLIC "-//W3C//DTD SVG 1.1//EN" "http://www.w3.org/Graphics/SVG/1.1/DTD/svg11.dtd">
<svg xmlns="http://www.w3.org/2000/svg" xmlns:xlink="http://www.w3.org/1999/xlink" version="1.1" width="1180.1666pt" height="356.54444pt" viewBox="0 0 1180.1666 356.54444">
<g enable-background="new">
<path transform="matrix(2.7777777,0,0,-2.7777777,167.8111,296.38334)" d="M 0 21.2601 L 0 -10.63004 L 1.41733 -10.46394 L 2.83467 -9.96567 L 4.25201 -9.1352 L 5.66937 -7.97253 L 7.08672 -6.47768 L 8.50406 -4.65063 L 9.92142 -2.4914 L 11.33876 0 L 12.75609 2.8236 L 14.17345 5.97939 L 15.59079 9.46738 L 17.00813 13.28755 L 18.42549 17.43991 L 19.84283 21.92447 L 21.26018 26.74121 L 22.67754 31.89015 L 24.09486 37.37128 L 25.5122 43.18459 L 26.92955 49.3301 L 28.34691 55.80779 L 29.76425 62.61766 L 31.1816 69.75974 L 32.59895 77.23398 L 34.0163 85.04044 L 0 85.04044 " fill="#0000ff" fill-opacity=".5"/>
<path transform="matrix(2.7777777,0,0,-2.7777777,167.8111,296.38334)" d="M 0 21.2601 L 0 -10.63004 L .81818 -10.57457 L 1.63637 -10.4088 L 2.45456 -10.13176 L 3.27275 -9.74442 L 4.09096 -9.24646 L 4.90913 -8.63756 L 5.72733 -7.91803 L 6.54552 -7.08755 L 7.36371 -6.14679 L 8.18192 -5.09508 L 9.00009 -3.93272 L 9.8183 -2.65977 L 10.63647 -1.27586 L 11.45467 .2183 L 12.27287 1.82346 L 13.09105 3.53923 L 13.90926 5.36594 L 14.72745 7.30296 L 15.54562 9.3509 L 16.36383 11.5095 L 17.182 13.77902 L 18.00021 16.15884 L 18.8184 18.64963 L 19.6366 21.251 L 0 21.2601 " fill="#ffffff"/>
<path transform="matrix(2.7777777,0,0,-2.7777777,167.8111,296.38334)" stroke-width=".79701" stroke-linecap="butt" stroke-miterlimit="10" stroke-linejoin="miter" fill="none" stroke="#000000" d="M 0 -10.63004 L .36644 -10.61902 L .73288 -10.5856 L 1.09932 -10.53014 L 1.46579 -10.45227 L 1.83223 -10.35236 L 2.19867 -10.23038 L 2.56511 -10.08601 L 2.93158 -9.9196 L 3.29802 -9.73079 L 3.66446 -9.51993 L 4.0309 -9.28668 L 4.39737 -9.03139 L 4.76381 -8.7537 L 5.13025 -8.45393 L 5.49669 -8.1318 L 5.86316 -7.78761 L 6.2296 -7.42137 L 6.59604 -7.03273 L 6.96248 -6.62204 L 7.32895 -6.18896 L 7.69539 -5.73381 L 8.06183 -5.25629 L 8.42827 -4.75671 L 8.79474 -4.23474 L 9.16118 -3.69073 L 9.52762 -3.12463 L 9.89406 -2.53616 L 10.26053 -1.92564 L 10.62697 -1.29274 L 10.99341 -.63776 L 11.35985 .03957 L 11.72632 .73898 L 12.09276 1.46045 L 12.4592 2.20432 L 12.82565 2.97055 L 13.19211 3.75885 L 13.55855 4.5692 L 13.92499 5.40195 L 14.29144 6.25708 L 14.6579 7.13394 L 15.02434 8.03351 L 15.39078 8.95482 L 15.75723 9.89851 L 16.12369 10.8646 L 16.49013 11.85272 L 16.85657 12.8629 L 17.22302 13.89548 L 17.58948 14.95045 L 17.95592 16.02715 L 18.32236 17.12654 L 18.68881 18.24768 L 19.05527 19.39153 L 19.4217 20.55711 L 19.78815 21.74509 L 20.1546 22.95543 L 20.52106 24.18785 L 20.8875 25.4423 L 21.25394 26.71916 L 21.62039 28.01808 L 21.98685 29.33937 L 22.35329 30.68272 L 22.71973 32.04845 L 23.08618 33.43626 L 23.45264 34.84644 L 23.81908 36.27867 L 24.18553 37.73299 L 24.55197 39.20967 L 24.91843 40.70842 L 25.28487 42.22954 L 25.65132 43.77274 L 26.01776 45.3383 L 26.38422 46.92593 L 26.75066 48.53593 L 27.11711 50.16803 L 27.48355 51.82216 L 27.85 53.49867 L 28.21645 55.19757 L 28.5829 56.91853 L 28.94934 58.66156 L 29.3158 60.42696 L 29.68224 62.21442 L 30.04869 64.02426 L 30.41513 65.85619 L 30.78159 67.71013 L 31.14803 69.58649 L 31.51448 71.48523 L 31.88092 73.406 L 32.24738 75.34888 L 32.61382 77.3141 L 32.98027 79.3014 L 33.34671 81.31108 L 33.71317 83.34283 L 34.0796 85.39696 L 34.44606 87.47313 L 34.81252 89.57137 L 35.17896 91.692 L 35.54541 93.83469 L 35.91185 95.99976 L 36.2783 98.18721 "/>
<symbol id="font_0_4">
<path d="M .305 .31300003 C .311 .33900003 .334 .43100003 .404 .43100003 C .409 .43100003 .433 .43100003 .454 .418 C .426 .41300003 .40600003 .388 .40600003 .36400003 C .40600003 .34800003 .417 .32900004 .444 .32900004 C .46600003 .32900004 .498 .34700004 .498 .38700003 C .498 .43900005 .439 .45300005 .405 .45300005 C .347 .45300005 .312 .40000005 .3 .37700004 C .275 .44300003 .221 .45300005 .19200002 .45300005 C .08800001 .45300005 .031000002 .32400004 .031000002 .29900003 C .031000002 .28900004 .041 .28900004 .043000007 .28900004 C .051000008 .28900004 .054000006 .291 .056 .3 C .09 .40600003 .156 .43100003 .19000001 .43100003 C .209 .43100003 .244 .42200003 .244 .36400003 C .244 .33300004 .22700002 .26600004 .19000001 .126 C .17400001 .064 .13900002 .022000002 .095000009 .022000002 C .08900001 .022000002 .06600001 .022000002 .045 .035 C .07000001 .040000004 .09200001 .061 .09200001 .089 C .09200001 .116000007 .07000001 .124000009 .055000009 .124000009 C .025 .124000009 0 .098000008 0 .06600001 C 0 .020000002 .050000006 0 .094000007 0 C .16000001 0 .19600001 .07000001 .19900002 .076000008 C .21100001 .039 .24700003 0 .307 0 C .41 0 .467 .12900001 .467 .15400002 C .467 .16400002 .458 .16400002 .455 .16400002 C .446 .16400002 .444 .16000001 .442 .15300001 C .409 .046 .341 .022000002 .30900003 .022000002 C .27 .022000002 .254 .054 .254 .08800001 C .254 .11000001 .26 .13200002 .271 .17600002 L .305 .31300003 Z "/>
</symbol>
<use xlink:href="#font_0_4" transform="matrix(27.673888,0,0,-27.673888,279.71644,30.865509)"/>
<symbol id="font_1_3">
<path d="M .63100007 .19400002 C .646 .19400002 .665 .19400002 .665 .214 C .665 .23400001 .646 .23400001 .632 .23400001 L .033 .23400001 C .019000002 .23400001 0 .23400001 0 .214 C 0 .19400002 .019000002 .19400002 .034 .19400002 L .63100007 .19400002 M .632 0 C .646 0 .665 0 .665 .02000001 C .665 .040000008 .646 .040000008 .63100007 .040000008 L .034 .040000008 C .019000002 .040000008 0 .040000008 0 .02000001 C 0 0 .019000002 0 .033 0 L .632 0 Z "/>
</symbol>
<use xlink:href="#font_1_3" transform="matrix(27.673888,0,0,-27.673888,303.96916,26.880469)"/>
<symbol id="font_0_3">
<path d="M .321 .067 C .33200003 .026 .367 0 .41 0 C .44500003 0 .468 .023000002 .484 .055000005 C .50100007 .091000009 .51400008 .15200001 .51400008 .15400002 C .51400008 .16400002 .50500008 .16400002 .50200006 .16400002 C .492 .16400002 .49100004 .16000001 .488 .14600002 C .474 .09 .455 .022000002 .41300003 .022000002 C .39200003 .022000002 .382 .035 .382 .068 C .382 .09 .394 .13700001 .402 .17200002 L .43 .28000004 C .433 .29500003 .44300003 .33300004 .447 .34800003 C .45200003 .37100003 .462 .40900005 .462 .41500003 C .462 .43300004 .448 .44200004 .433 .44200004 C .428 .44200004 .402 .441 .394 .40700004 C .375 .33400003 .331 .15900001 .319 .106000009 C .318 .102000009 .278 .022000002 .20500002 .022000002 C .15300001 .022000002 .143 .067 .143 .104 C .143 .16000001 .171 .23900002 .19700001 .30800004 C .209 .33800004 .21400002 .35200004 .21400002 .37100003 C .21400002 .41600005 .18200001 .45300005 .13200002 .45300005 C .037 .45300005 0 .30800004 0 .29900003 C 0 .28900004 .01 .28900004 .012 .28900004 C .022000002 .28900004 .023 .291 .028000003 .307 C .053000004 .39400003 .091000009 .43100003 .12900001 .43100003 C .13800001 .43100003 .15400002 .43000005 .15400002 .39800004 C .15400002 .374 .143 .34500004 .13700001 .33 C .10000001 .23100002 .079 .16900002 .079 .120000008 C .079 .025000003 .148 0 .202 0 C .268 0 .304 .045 .321 .067 Z "/>
</symbol>
<use xlink:href="#font_0_3" transform="matrix(27.673888,0,0,-27.673888,332.43309,30.865509)"/>
<symbol id="font_1_1">
<path d="M .23200003 .00999999 C .23200003 .012999982 .23200003 .014999986 .215 .03199999 C .09 .15799999 .058 .347 .058 .5 C .058 .674 .096 .84800007 .21900001 .97300007 C .23200003 .985 .23200003 .98700007 .23200003 .99 C .23200003 .99700006 .22800002 1 .222 1 C .21200001 1 .12200001 .93200007 .06299999 .805 C .012000002 .69500008 0 .584 0 .5 C 0 .422 .011 .301 .066 .188 C .126 .065 .21200001 0 .222 0 C .22800002 0 .23200003 .0029999912 .23200003 .00999999 Z "/>
</symbol>
<use xlink:href="#font_1_1" transform="matrix(27.673888,0,0,-27.673888,350.2119,37.47957)"/>
<symbol id="font_0_5">
<path d="M .45700003 .586 C .461 .6 .461 .602 .461 .609 C .461 .62700006 .447 .63600006 .432 .63600006 C .42200003 .63600006 .40600003 .63 .397 .615 C .395 .61 .387 .579 .38300003 .561 C .37600003 .535 .36900003 .508 .363 .48100005 L .318 .301 C .314 .286 .271 .21600002 .20500002 .21600002 C .15400002 .21600002 .143 .26000003 .143 .29700003 C .143 .34300003 .16000001 .40500004 .194 .49300004 C .21000001 .53400006 .21400002 .545 .21400002 .56500008 C .21400002 .61 .18200001 .6470001 .13200002 .6470001 C .037 .6470001 0 .50200006 0 .49300004 C 0 .48300005 .01 .48300005 .012 .48300005 C .022000002 .48300005 .023 .485 .028000003 .50100007 C .055000009 .595 .095000009 .625 .12900001 .625 C .13700001 .625 .15400002 .625 .15400002 .59300008 C .15400002 .568 .14400001 .54200008 .13700001 .523 C .097 .41700004 .079 .36 .079 .31300003 C .079 .224 .142 .194 .201 .194 C .24000003 .194 .274 .21100001 .30200003 .23900002 C .289 .187 .277 .13800001 .237 .08500001 C .21100001 .051 .17300001 .022 .127 .022 C .113000009 .022 .068 .025000006 .051000008 .06400001 C .067 .06400001 .080000009 .06400001 .094000007 .076000008 C .104 .08500001 .11400001 .098000008 .11400001 .117000009 C .11400001 .148 .087000008 .15200001 .07700001 .15200001 C .054000006 .15200001 .021 .136 .021 .087000008 C .021 .037 .065000008 0 .127 0 C .23 0 .333 .091000009 .361 .20400001 L .45700003 .586 Z "/>
</symbol>
<use xlink:href="#font_0_5" transform="matrix(27.673888,0,0,-27.673888,359.03584,36.234247)"/>
<symbol id="font_1_2">
<path d="M .232 .5 C .232 .578 .22100002 .699 .16600001 .81200006 C .106 .93500009 .020000004 1 .009999998 1 C .0040000008 1 0 .99600008 0 .99 C 0 .98700007 0 .985 .019000002 .967 C .117000009 .86800006 .174 .709 .174 .5 C .174 .329 .137 .153 .012999997 .026999996 C 0 .014999986 0 .012999982 0 .00999999 C 0 .003999993 .0040000008 0 .009999998 0 C .020000004 0 .11000001 .06799999 .169 .195 C .22 .305 .232 .416 .232 .5 Z "/>
</symbol>
<use xlink:href="#font_1_2" transform="matrix(27.673888,0,0,-27.673888,374.37184,37.47957)"/>
<path transform="matrix(2.7777777,0,0,-2.7777777,167.8111,296.38334)" stroke-width=".79701" stroke-linecap="butt" stroke-miterlimit="10" stroke-linejoin="miter" fill="none" stroke="#000000" d="M -56.69383 0 L 52.03134 0 "/>
<path transform="matrix(2.7777777,0,0,-2.7777777,312.34263,296.38334)" d="M 4.66248 0 C 3.28098 .25902 1.0361 1.0361 -.51805 1.94269 L -.51805 -1.94269 C 1.0361 -1.0361 3.28098 -.25902 4.66248 0 "/>
<use xlink:href="#font_0_4" transform="matrix(27.673888,0,0,-27.673888,318.18867,286.35719)"/>
<path transform="matrix(2.7777777,0,0,-2.7777777,167.8111,296.38334)" stroke-width=".79701" stroke-linecap="butt" stroke-miterlimit="10" stroke-linejoin="miter" fill="none" stroke="#000000" d="M 0 -21.2601 L 0 101.63806 "/>
<path transform="matrix(0,-2.7777777,-2.7777777,-0,167.8111,14.055379)" d="M 4.66248 0 C 3.28098 .25902 1.0361 1.0361 -.51805 1.94269 L -.51805 -1.94269 C 1.0361 -1.0361 3.28098 -.25902 4.66248 0 "/>
<use xlink:href="#font_0_5" transform="matrix(27.673888,0,0,-27.673888,178.94419,29.0259)"/>
<path transform="matrix(2.7777777,0,0,-2.7777777,167.8111,296.38334)" stroke-width=".3985" stroke-linecap="butt" stroke-miterlimit="10" stroke-linejoin="miter" fill="none" stroke="#000000" d="M -1.49442 21.2601 L 1.49442 21.2601 "/>
<symbol id="font_0_1">
<path d="M .35500003 .39100004 C .33900003 .39100004 .32500003 .39100004 .31100003 .37700004 C .29500003 .36200003 .293 .34500004 .293 .33800004 C .293 .314 .31100003 .30300004 .33 .30300004 C .359 .30300004 .386 .32700003 .386 .367 C .386 .41600005 .33900003 .45300005 .268 .45300005 C .13300002 .45300005 0 .31000004 0 .16900002 C 0 .079 .058000007 0 .162 0 C .305 0 .389 .106000009 .389 .11800001 C .389 .124000009 .38300003 .13100001 .377 .13100001 C .372 .13100001 .37 .12900001 .36400003 .12100001 C .285 .022000002 .176 .022000002 .164 .022000002 C .101 .022000002 .074 .071 .074 .13100001 C .074 .17200002 .094000007 .26900003 .12800002 .33100004 C .15900001 .388 .21400002 .43100003 .269 .43100003 C .303 .43100003 .34100003 .418 .35500003 .39100004 Z "/>
</symbol>
<use xlink:href="#font_0_1" transform="matrix(27.673888,0,0,-27.673888,182.8763,243.59052)"/>
<path transform="matrix(2.7777777,0,0,-2.7777777,167.8111,296.38334)" stroke-width=".3985" stroke-linecap="butt" stroke-miterlimit="10" stroke-linejoin="miter" fill="none" stroke="#000000" d="M -1.49442 85.04044 L 1.49442 85.04044 "/>
<symbol id="font_0_2">
<path d="M .47600005 .694 C .47600005 .695 .47600005 .705 .46300004 .705 C .44800005 .705 .35300002 .69600006 .33600004 .694 C .32800005 .693 .32200004 .688 .32200004 .675 C .32200004 .663 .33100004 .663 .34600003 .663 C .39400003 .663 .39600004 .656 .39600004 .646 L .39300005 .626 L .33300004 .38900004 C .31500004 .42600004 .286 .45300005 .24100001 .45300005 C .124 .45300005 0 .30600003 0 .16000001 C 0 .06600001 .055000005 0 .133 0 C .153 0 .20300001 .0040000008 .263 .075 C .27100004 .033000005 .30600003 0 .35400004 0 C .38900004 0 .41200004 .023000002 .42800004 .055000005 C .44500003 .091000009 .45800004 .15200001 .45800004 .15400002 C .45800004 .16400002 .44900004 .16400002 .44600005 .16400002 C .43600003 .16400002 .43500004 .16000001 .43200005 .14600002 C .41500003 .081 .397 .022000002 .35600005 .022000002 C .32900004 .022000002 .32600004 .048 .32600004 .068 C .32600004 .092 .32800005 .09900001 .33200003 .116000007 L .47600005 .694 M .26800005 .13000001 C .263 .112 .263 .11000001 .24800001 .093 C .20400001 .038000004 .163 .022000002 .135 .022000002 C .08499999 .022000002 .07100001 .077 .07100001 .116000007 C .07100001 .16600001 .103 .28900004 .126 .335 C .157 .39400003 .202 .43100003 .242 .43100003 C .307 .43100003 .32100005 .34900005 .32100005 .34300003 C .32100005 .337 .31900005 .33100004 .31800003 .32600004 L .26800005 .13000001 Z "/>
</symbol>
<use xlink:href="#font_0_2" transform="matrix(27.673888,0,0,-27.673888,182.84862,70.0766)"/>
<path transform="matrix(2.7777777,0,0,-2.7777777,167.8111,296.38334)" stroke-width=".79701" stroke-linecap="butt" stroke-miterlimit="10" stroke-linejoin="miter" fill="none" stroke="#ff0000" d="M -11.33876 95.67049 C -11.33876 90.36429 11.33876 90.36429 11.33876 95.67049 "/>
<path transform="matrix(2.7777777,0,0,-2.7777777,167.8111,296.38334)" stroke-width=".79701" stroke-linecap="butt" stroke-miterlimit="10" stroke-linejoin="miter" fill="none" stroke="#ff0000" d="M 11.33876 95.67049 C 11.33876 100.97668 -11.33876 100.97668 -11.33876 95.67049 "/>
<path transform="matrix(2.7777777,0,0,-2.7777777,167.8111,296.38334)" stroke-width=".79701" stroke-linecap="butt" stroke-miterlimit="10" stroke-linejoin="miter" fill="none" stroke="#ff0000" d="M 4.53543 99.28467 L 8.06412 99.28467 "/>
<path transform="matrix(-2.7777777,0,0,2.7777777,190.21144,20.592583)" d="M 4.66248 0 C 3.28098 .25902 1.0361 1.0361 -.51805 1.94269 L -.51805 -1.94269 C 1.0361 -1.0361 3.28098 -.25902 4.66248 0 " fill="#ff0000"/>
<path transform="matrix(2.7777777,0,0,-2.7777777,167.8111,296.38334)" d="M 249.45192 85.04044 L 249.45192 85.04044 L 252.28662 69.75974 L 255.12129 55.80779 L 257.956 43.18459 L 260.79069 31.89015 L 263.62538 21.92447 L 266.46009 13.28755 L 269.29475 5.97939 L 272.12947 0 L 274.96418 -4.65063 L 277.79884 -7.97253 L 280.63356 -9.96567 L 283.46824 -10.63004 L 286.3029 -9.96567 L 289.1376 -7.97253 L 291.97227 -4.65063 L 294.80699 0 L 297.6417 5.97939 L 300.47636 13.28755 L 303.31105 21.92447 L 306.14576 31.89015 L 308.98045 43.18459 L 311.81513 55.80779 L 314.6498 69.75974 L 317.4845 85.04044 " fill="#0000ff" fill-opacity=".5"/>
<path transform="matrix(2.7777777,0,0,-2.7777777,167.8111,296.38334)" d="M 263.82884 21.2601 L 263.82884 21.2601 L 265.46543 16.16664 L 267.10197 11.51631 L 268.7385 7.30847 L 270.37507 3.54378 L 272.01164 .22188 L 273.6482 -2.65686 L 275.28474 -5.09312 L 276.9213 -7.08626 L 278.55787 -8.63658 L 280.19444 -9.74377 L 281.831 -10.40846 L 283.46754 -10.63004 L 285.10408 -10.4088 L 286.74064 -9.74475 L 288.3772 -8.63756 L 290.01377 -7.08755 L 291.6503 -5.09474 L 293.28688 -2.65912 L 294.92344 .21928 L 296.55998 3.54085 L 298.19654 7.30522 L 299.83308 11.51242 L 301.46965 16.16241 L 303.1062 21.25555 L 303.1076 21.2601 " fill="#ffffff"/>
<path transform="matrix(2.7777777,0,0,-2.7777777,167.8111,296.38334)" stroke-width=".79701" stroke-linecap="butt" stroke-miterlimit="10" stroke-linejoin="miter" fill="none" stroke="#000000" d="M 247.18419 98.22127 L 247.9171 93.86842 L 248.64998 89.60413 L 249.38289 85.42906 L 250.11577 81.34256 L 250.84868 77.34492 L 251.58156 73.43587 L 252.31447 69.61601 L 253.04737 65.88474 L 253.78026 62.24232 L 254.51316 58.68881 L 255.24605 55.22417 L 255.97895 51.8481 L 256.71186 48.56125 L 257.44474 45.36296 L 258.17765 42.25354 L 258.91053 39.2327 L 259.64344 36.30107 L 260.3763 33.458 L 261.1092 30.70381 L 261.8421 28.03851 L 262.575 25.4621 L 263.3079 22.97424 L 264.0408 20.5756 L 264.77369 18.26553 L 265.5066 16.04434 L 266.23948 13.9117 L 266.97239 11.86829 L 267.70527 9.91344 L 268.43818 8.04747 L 269.17106 6.27039 L 269.90397 4.58218 L 270.63685 2.98254 L 271.36976 1.47212 L 272.10264 .05026 L 272.83555 -1.28267 L 273.56843 -2.52676 L 274.30134 -3.6823 L 275.0342 -4.74861 L 275.76713 -5.72635 L 276.5 -6.61554 L 277.2329 -7.41553 L 277.9658 -8.12662 L 278.6987 -8.74915 L 279.43159 -9.28279 L 280.1645 -9.72755 L 280.89738 -10.08374 L 281.63029 -10.35072 L 282.36317 -10.52916 L 283.09608 -10.61868 L 283.82893 -10.61934 L 284.56184 -10.5311 L 285.2947 -10.35431 L 286.02763 -10.08829 L 286.7605 -9.73372 L 287.4934 -9.29057 L 288.2263 -8.75824 L 288.9592 -8.13701 L 289.6921 -7.4272 L 290.425 -6.62852 L 291.15788 -5.74095 L 291.8908 -4.76483 L 292.62367 -3.69948 L 293.35658 -2.54558 L 294.08949 -1.30278 L 294.82237 .02885 L 295.55528 1.4491 L 296.28816 2.95854 L 297.02107 4.55656 L 297.75395 6.24345 L 298.48686 8.01923 L 299.21974 9.88359 L 299.95265 11.83714 L 300.68553 13.87926 L 301.41844 16.01027 L 302.1513 18.23016 L 302.88423 20.53894 L 303.6171 22.9363 L 304.35 25.42252 L 305.0829 27.99763 L 305.8158 30.66164 L 306.54869 33.41452 L 307.2816 36.25598 L 308.01448 39.18663 L 308.74739 42.20586 L 309.48027 45.31364 L 310.21318 48.51065 L 310.94606 51.7962 L 311.67897 55.17096 L 312.41188 58.63431 L 313.14476 62.18652 L 313.87767 65.82732 L 314.61058 69.5573 L 315.34346 73.37585 L 316.07637 77.2833 L 316.80924 81.27962 L 317.54216 85.36452 L 318.27503 89.5386 L 319.00794 93.80127 L 319.7408 98.15283 "/>
<use xlink:href="#font_0_4" transform="matrix(27.673888,0,0,-27.673888,1067.1024,30.962708)"/>
<use xlink:href="#font_1_3" transform="matrix(27.673888,0,0,-27.673888,1091.3523,26.977667)"/>
<use xlink:href="#font_0_3" transform="matrix(27.673888,0,0,-27.673888,1119.8162,30.962708)"/>
<use xlink:href="#font_1_1" transform="matrix(27.673888,0,0,-27.673888,1137.5979,37.576768)"/>
<use xlink:href="#font_0_5" transform="matrix(27.673888,0,0,-27.673888,1146.4218,36.331445)"/>
<use xlink:href="#font_1_2" transform="matrix(27.673888,0,0,-27.673888,1161.7578,37.576768)"/>
<path transform="matrix(2.7777777,0,0,-2.7777777,167.8111,296.38334)" d="M 317.4845 85.04044 C 317.4845 87.38875 302.25514 89.29239 283.46824 89.29239 C 264.6813 89.29239 249.45192 87.38875 249.45192 85.04044 C 249.45192 82.69212 264.6813 80.78848 283.46824 80.78848 C 302.25514 80.78848 317.4845 82.69212 317.4845 85.04044 Z M 283.46824 85.04044 " fill="#ebebeb"/>
<path transform="matrix(2.7777777,0,0,-2.7777777,167.8111,296.38334)" stroke-width=".3985" stroke-linecap="butt" stroke-miterlimit="10" stroke-linejoin="miter" fill="none" stroke="#000000" d="M 317.4845 85.04044 C 317.4845 87.38875 302.25514 89.29239 283.46824 89.29239 C 264.6813 89.29239 249.45192 87.38875 249.45192 85.04044 C 249.45192 82.69212 264.6813 80.78848 283.46824 80.78848 C 302.25514 80.78848 317.4845 82.69212 317.4845 85.04044 Z M 283.46824 85.04044 "/>
<path transform="matrix(2.7777777,0,0,-2.7777777,167.8111,296.38334)" d="M 303.1076 21.2601 C 303.1076 23.60841 294.31489 25.51204 283.46824 25.51204 C 272.62156 25.51204 263.82884 23.60841 263.82884 21.2601 C 263.82884 18.91179 272.62156 17.00815 283.46824 17.00815 C 294.31489 17.00815 303.1076 18.91179 303.1076 21.2601 Z M 283.46824 21.2601 " fill="#cbcbcb"/>
<path transform="matrix(2.7777777,0,0,-2.7777777,167.8111,296.38334)" stroke-width=".3985" stroke-linecap="butt" stroke-miterlimit="10" stroke-linejoin="miter" fill="none" stroke="#000000" d="M 303.1076 21.2601 C 303.1076 23.60841 294.31489 25.51204 283.46824 25.51204 C 272.62156 25.51204 263.82884 23.60841 263.82884 21.2601 C 263.82884 18.91179 272.62156 17.00815 283.46824 17.00815 C 294.31489 17.00815 303.1076 18.91179 303.1076 21.2601 Z M 283.46824 21.2601 "/>
<path transform="matrix(2.7777777,0,0,-2.7777777,167.8111,296.38334)" d="M 311.24247 48.89832 C 311.24247 51.24663 298.80769 53.15025 283.46824 53.15025 C 268.12876 53.15025 255.69399 51.24663 255.69399 48.89832 C 255.69399 46.55 268.12876 44.64636 283.46824 44.64636 C 298.80769 44.64636 311.24247 46.55 311.24247 48.89832 Z M 283.46824 48.89832 "/>
<path transform="matrix(2.7777777,0,0,-2.7777777,167.8111,296.38334)" stroke-width=".3985" stroke-linecap="butt" stroke-miterlimit="10" stroke-linejoin="miter" fill="none" stroke="#000000" d="M 311.24247 48.89832 C 311.24247 51.24663 298.80769 53.15025 283.46824 53.15025 C 268.12876 53.15025 255.69399 51.24663 255.69399 48.89832 C 255.69399 46.55 268.12876 44.64636 283.46824 44.64636 C 298.80769 44.64636 311.24247 46.55 311.24247 48.89832 Z M 283.46824 48.89832 "/>
<path transform="matrix(2.7777777,0,0,-2.7777777,167.8111,296.38334)" d="M 255.69399 48.89832 L 255.69399 57.40222 L 311.24247 57.40222 L 311.24247 48.89832 Z M 311.24247 57.40222 "/>
<path transform="matrix(2.7777777,0,0,-2.7777777,167.8111,296.38334)" d="M 311.24247 57.40222 C 311.24247 59.75053 298.80769 61.65417 283.46824 61.65417 C 268.12876 61.65417 255.69399 59.75053 255.69399 57.40222 C 255.69399 55.05391 268.12876 53.15027 283.46824 53.15027 C 298.80769 53.15027 311.24247 55.05391 311.24247 57.40222 Z M 283.46824 57.40222 " fill="#a9a9a9"/>
<path transform="matrix(2.7777777,0,0,-2.7777777,167.8111,296.38334)" stroke-width=".3985" stroke-linecap="butt" stroke-miterlimit="10" stroke-linejoin="miter" fill="none" stroke="#000000" d="M 311.24247 57.40222 C 311.24247 59.75053 298.80769 61.65417 283.46824 61.65417 C 268.12876 61.65417 255.69399 59.75053 255.69399 57.40222 C 255.69399 55.05391 268.12876 53.15027 283.46824 53.15027 C 298.80769 53.15027 311.24247 55.05391 311.24247 57.40222 Z M 283.46824 57.40222 "/>
<path transform="matrix(2.7777777,0,0,-2.7777777,167.8111,296.38334)" stroke-width=".3985" stroke-linecap="butt" stroke-miterlimit="10" stroke-linejoin="miter" fill="none" stroke="#000000" d="M 311.24247 48.89832 L 311.24247 57.40222 "/>
<path transform="matrix(2.7777777,0,0,-2.7777777,167.8111,296.38334)" stroke-width=".3985" stroke-linecap="butt" stroke-miterlimit="10" stroke-linejoin="miter" fill="none" stroke="#000000" d="M 255.69399 48.89832 L 255.69399 57.40222 "/>
<path transform="matrix(2.7777777,0,0,-2.7777777,167.8111,296.38334)" stroke-width=".3985" stroke-linecap="butt" stroke-miterlimit="10" stroke-linejoin="miter" fill="none" stroke="#000000" d="M 287.05476 63.78032 L 307.6559 63.78032 "/>
<path transform="matrix(-2.7777777,0,0,2.7777777,965.18539,119.21577)" d="M 3.58653 0 C 2.52383 .19925 .797 .797 -.3985 1.49438 L -.3985 -1.49438 C .797 -.797 2.52383 -.19925 3.58653 0 "/>
<path transform="matrix(2.7777777,0,0,-2.7777777,1022.4108,119.21577)" d="M 3.58653 0 C 2.52383 .19925 .797 .797 -.3985 1.49438 L -.3985 -1.49438 C .797 -.797 2.52383 -.19925 3.58653 0 "/>
<use xlink:href="#font_0_3" transform="matrix(27.673888,0,0,-27.673888,968.6275,102.826618)"/>
<use xlink:href="#font_1_1" transform="matrix(27.673888,0,0,-27.673888,986.4063,109.440677)"/>
<use xlink:href="#font_0_5" transform="matrix(27.673888,0,0,-27.673888,995.23306,108.19535)"/>
<use xlink:href="#font_1_2" transform="matrix(27.673888,0,0,-27.673888,1010.5662,109.440677)"/>
<path transform="matrix(2.7777777,0,0,-2.7777777,167.8111,296.38334)" stroke-width=".79701" stroke-linecap="butt" stroke-miterlimit="10" stroke-linejoin="miter" fill="none" stroke="#000000" d="M 226.77439 0 L 335.49958 0 "/>
<path transform="matrix(2.7777777,0,0,-2.7777777,1099.7543,296.38334)" d="M 4.66248 0 C 3.28098 .25902 1.0361 1.0361 -.51805 1.94269 L -.51805 -1.94269 C 1.0361 -1.0361 3.28098 -.25902 4.66248 0 "/>
<use xlink:href="#font_0_4" transform="matrix(27.673888,0,0,-27.673888,1105.5885,286.35719)"/>
<path transform="matrix(2.7777777,0,0,-2.7777777,167.8111,296.38334)" stroke-width=".79701" stroke-linecap="butt" stroke-miterlimit="10" stroke-linejoin="miter" fill="none" stroke="#000000" d="M 283.46824 -21.2601 L 283.46824 17.00813 "/>
<path transform="matrix(2.7777777,0,0,-2.7777777,167.8111,296.38334)" stroke-width=".79701" stroke-linecap="butt" stroke-miterlimit="10" stroke-linejoin="miter" fill="none" stroke="#0000ff" d="M 283.46824 21.2601 L 283.46824 44.64635 "/>
<path transform="matrix(2.7777777,0,0,-2.7777777,167.8111,296.38334)" stroke-width=".79701" stroke-linecap="butt" stroke-miterlimit="10" stroke-linejoin="miter" fill="none" stroke="#0000ff" d="M 283.46824 57.40222 L 283.46824 80.78847 "/>
<path transform="matrix(2.7777777,0,0,-2.7777777,167.8111,296.38334)" stroke-width=".79701" stroke-linecap="butt" stroke-miterlimit="10" stroke-linejoin="miter" fill="none" stroke="#000000" d="M 283.46824 85.04044 L 283.46824 101.63806 "/>
<path transform="matrix(0,-2.7777777,-2.7777777,-0,955.2228,14.055379)" d="M 4.66248 0 C 3.28098 .25902 1.0361 1.0361 -.51805 1.94269 L -.51805 -1.94269 C 1.0361 -1.0361 3.28098 -.25902 4.66248 0 "/>
<use xlink:href="#font_0_5" transform="matrix(27.673888,0,0,-27.673888,966.3469,29.0259)"/>
<path transform="matrix(2.7777777,0,0,-2.7777777,167.8111,296.38334)" stroke-width=".3985" stroke-linecap="butt" stroke-miterlimit="10" stroke-linejoin="miter" fill="none" stroke="#000000" d="M 281.9738 21.2601 L 284.96263 21.2601 "/>
<use xlink:href="#font_0_1" transform="matrix(27.673888,0,0,-27.673888,970.27627,243.59052)"/>
<path transform="matrix(2.7777777,0,0,-2.7777777,167.8111,296.38334)" stroke-width=".3985" stroke-linecap="butt" stroke-miterlimit="10" stroke-linejoin="miter" fill="none" stroke="#000000" d="M 281.9738 85.04044 L 284.96263 85.04044 "/>
<use xlink:href="#font_0_2" transform="matrix(27.673888,0,0,-27.673888,970.24856,70.0766)"/>
<path transform="matrix(2.7777777,0,0,-2.7777777,167.8111,296.38334)" stroke-width=".79701" stroke-linecap="butt" stroke-miterlimit="10" stroke-linejoin="miter" fill="none" stroke="#ff0000" d="M 272.12947 95.67049 C 272.12947 90.36429 294.80699 90.36429 294.80699 95.67049 "/>
<path transform="matrix(2.7777777,0,0,-2.7777777,167.8111,296.38334)" stroke-width=".79701" stroke-linecap="butt" stroke-miterlimit="10" stroke-linejoin="miter" fill="none" stroke="#ff0000" d="M 294.80699 95.67049 C 294.80699 100.97668 272.12947 100.97668 272.12947 95.67049 "/>
<path transform="matrix(2.7777777,0,0,-2.7777777,167.8111,296.38334)" stroke-width=".79701" stroke-linecap="butt" stroke-miterlimit="10" stroke-linejoin="miter" fill="none" stroke="#ff0000" d="M 288.00367 99.28467 L 291.53236 99.28467 "/>
<path transform="matrix(-2.7777777,0,0,2.7777777,977.6231,20.592583)" d="M 4.66248 0 C 3.28098 .25902 1.0361 1.0361 -.51805 1.94269 L -.51805 -1.94269 C 1.0361 -1.0361 3.28098 -.25902 4.66248 0 " fill="#ff0000"/>
</g>
</svg>
