<?xml version="1.0" encoding="UTF-8" standalone="no"?>
<!DOCTYPE svg PUBLIC "-//W3C//DTD SVG 1.1//EN" "http://www.w3.org/Graphics/SVG/1.1/DTD/svg11.dtd">
<svg xmlns="http://www.w3.org/2000/svg" xmlns:xlink="http://www.w3.org/1999/xlink" version="1.1" width="540.7361pt" height="449.425pt" viewBox="0 0 540.7361 449.425">
<g enable-background="new">
<path transform="matrix(2.7777777,0,0,-2.7777777,-66.899997,448.8722)" stroke-width=".19925" stroke-linecap="butt" stroke-miterlimit="10" stroke-linejoin="miter" fill="none" stroke="#929292" d="M 145.70183 78.57188 L 145.70183 82.82445 "/>
<path transform="matrix(2.7777777,0,0,-2.7777777,-66.899997,448.8722)" stroke-width=".19925" stroke-linecap="butt" stroke-miterlimit="10" stroke-linejoin="miter" fill="none" stroke="#929292" d="M 119.29224 100.87273 L 123.54413 100.87273 "/>
<path transform="matrix(2.7777777,0,0,-2.7777777,-66.899997,448.8722)" stroke-width=".3985" stroke-linecap="butt" stroke-miterlimit="10" stroke-linejoin="miter" fill="none" stroke="#000000" d="M 24.28363 80.69818 L 216.56023 80.69818 "/>
<path transform="matrix(2.7777777,0,0,-2.7777777,534.6562,224.71059)" d="M 1.99252 0 L -1.19551 1.59401 L 0 0 L -1.19551 -1.59401 "/>
<path transform="matrix(2.7777777,0,0,-2.7777777,-66.899997,448.8722)" stroke-width=".3985" stroke-linecap="butt" stroke-miterlimit="10" stroke-linejoin="miter" fill="none" stroke="#000000" d="M 121.4182 0 L 121.4182 159.40384 "/>
<path transform="matrix(0,-2.7777777,-2.7777777,-0,270.37278,6.0837638)" d="M 1.99252 0 L -1.19551 1.59401 L 0 0 L -1.19551 -1.59401 "/>
<symbol id="font_0_2">
<path d="M .205 .64000007 C .205 .66400006 .205 .666 .18200003 .666 C .120000008 .60200008 .032000007 .60200008 0 .60200008 L 0 .57100006 C .020000004 .57100006 .07900001 .57100006 .13100001 .597 L .13100001 .079 C .13100001 .043 .128 .031000002 .038000004 .031000002 L .0060000049 .031000002 L .0060000049 0 C .04100001 .003 .128 .003 .168 .003 C .20800002 .003 .29500003 .003 .33000005 0 L .33000005 .031000002 L .29800005 .031000002 C .20800002 .031000002 .205 .042000005 .205 .079 L .205 .64000007 Z "/>
</symbol>
<use xlink:href="#font_0_2" transform="matrix(27.673888,0,0,-27.673888,333.36576,258.23054)"/>
<use xlink:href="#font_0_2" transform="matrix(27.673888,0,0,-27.673888,243.31298,177.59168)"/>
<clipPath id="cp1">
<path transform="matrix(2.7777777,0,0,-2.7777777,-66.899997,448.8722)" d="M 24.28363 0 L 218.55275 0 L 218.55275 161.39636 L 24.28363 161.39636 Z "/>
</clipPath>
<g clip-path="url(#cp1)">
<path transform="matrix(2.7777777,0,0,-2.7777777,-66.899997,448.8722)" stroke-width=".79701" stroke-linecap="butt" stroke-miterlimit="10" stroke-linejoin="miter" fill="none" stroke="#0000ff" d="M 0 726.2836 L 1.22025 704.2046 L 2.44049 682.8539 L 3.66075 662.2577 L 4.881 642.33737 L 6.10124 623.111 L 7.3215 604.5363 L 8.54176 586.6112 L 9.76201 569.2934 L 10.98227 552.5626 L 12.20251 536.41696 L 13.42276 520.816 L 14.64302 505.7496 L 15.86327 491.19773 L 17.08353 477.14817 L 18.30379 463.57878 L 19.52403 450.46934 L 20.74428 437.81587 L 21.96454 425.5941 L 23.18478 413.78398 L 24.40504 402.3813 L 25.6253 391.37004 L 26.84555 380.734 L 28.06581 370.46516 L 29.28606 360.54533 L 30.5063 350.96647 L 31.72656 341.71244 L 32.94681 332.78114 L 34.16707 324.15248 L 35.38733 315.8204 L 36.60757 307.7687 L 37.82782 299.9995 L 39.04808 292.49055 L 40.26833 285.2418 L 41.48857 278.2342 L 42.70885 271.47373 L 43.9291 264.93959 L 45.14934 258.63404 L 46.3696 252.54413 L 47.58984 246.65924 L 48.8101 240.9793 L 50.03035 235.49262 L 51.25061 230.19477 L 52.47087 225.07527 L 53.69112 220.13536 L 54.91136 215.36002 L 56.13162 210.75075 L 57.35187 206.30147 L 58.57211 202.00023 L 59.79239 197.84671 L 61.01263 193.83583 L 62.23288 189.96453 L 63.45314 186.22394 L 64.67339 182.61009 L 65.89363 179.12332 L 67.1139 175.75356 L 68.33415 172.49842 L 69.5544 169.35825 L 70.77466 166.32276 L 71.9949 163.3896 L 73.21516 160.5605 L 74.43541 157.82686 L 75.65567 155.18561 L 76.87593 152.63675 L 78.09618 150.17345 L 79.31642 147.79607 L 80.53668 145.49799 L 81.75693 143.28162 L 82.97717 141.13829 L 84.19745 139.0694 L 85.4177 137.07028 L 86.63794 135.1414 L 87.8582 133.27745 L 89.07845 131.4771 L 90.29869 129.74008 L 91.51895 128.06073 L 92.73921 126.4393 L 93.95946 124.87274 L 95.17972 123.3623 L 96.39996 121.90065 L 97.62022 120.49043 L 98.84047 119.12865 L 100.06071 117.81308 L 101.28099 116.5421 L 102.50124 115.31587 L 103.72148 114.13083 L 104.94174 112.9859 L 106.16199 111.88037 L 107.38223 110.81374 L 108.6025 109.7828 L 109.82275 108.78658 L 111.043 107.82567 L 112.26326 106.89682 L 113.4835 106.00008 L 114.70375 105.13419 L 115.92401 104.29773 L 117.14426 103.48956 L 118.36452 102.70963 L 119.58478 101.95627 L 120.80502 101.22879 L 122.02528 100.53036 L 123.2456 99.85048 L 124.46574 99.19441 L 125.68607 98.56293 L 126.90622 97.95145 L 128.12654 97.36034 L 129.34687 96.7892 L 130.567 96.23824 L 131.78734 95.70743 L 133.00748 95.19278 L 134.22782 94.69647 L 135.44814 94.21815 L 136.66828 93.75433 L 137.8886 93.30827 L 139.10874 92.87634 L 140.32907 92.45851 L 141.5494 92.05704 L 142.76955 91.66747 L 143.98987 91.29224 L 145.21 90.9289 L 146.43035 90.57964 L 147.65067 90.2407 L 148.8708 89.9139 L 150.09113 89.59918 L 151.31128 89.29454 L 152.5316 89 L 153.75193 88.71513 L 154.97206 88.44096 L 156.1924 88.17647 L 157.41254 87.92044 L 158.63286 87.6719 L 159.8532 87.43405 L 161.07334 87.20363 L 162.29366 86.9799 L 163.5138 86.76607 L 164.73413 86.55824 L 165.95446 86.35631 L 167.17459 86.16264 L 168.39493 85.97702 L 169.61507 85.79546 L 170.8354 85.62178 L 172.05573 85.4525 L 173.27587 85.28888 L 174.49619 85.13354 L 175.71633 84.98021 L 176.93666 84.83496 L 178.15699 84.69153 L 179.37712 84.55635 L 180.59746 84.42299 L 181.8176 84.29588 L 183.03792 84.17285 L 184.25824 84.05402 L 185.4784 83.9388 L 186.69872 83.82806 L 187.91886 83.72093 L 189.13919 83.61801 L 190.35951 83.51695 L 191.57965 83.4201 L 192.79998 83.32751 L 194.02013 83.23651 L 195.24047 83.14977 L 196.46079 83.06705 L 197.68093 82.98636 L 198.90125 82.90746 L 200.12139 82.83081 L 201.34172 82.7582 L 202.56204 82.68831 L 203.78218 82.62016 L 205.00252 82.55438 L 206.22266 82.49084 L 207.44298 82.42946 L 208.6633 82.3702 L 209.88346 82.313 L 211.10378 82.25769 L 212.32392 82.2043 L 213.54425 82.15277 L 214.76457 82.10297 L 215.98471 82.05487 L 217.20503 82.00842 L 218.42519 81.96358 L 219.64553 81.92026 L 220.86585 81.87843 L 222.08599 81.83803 L 223.3063 81.799 L 224.52645 81.76132 L 225.74677 81.72493 L 226.9671 81.68979 L 228.18724 81.65582 L 229.40758 81.62303 L 230.62772 81.5914 L 231.84804 81.56079 L 233.06836 81.53128 L 234.2885 81.50278 L 235.50884 81.4752 L 236.72898 81.44862 L 237.94931 81.42294 L 239.16963 81.39813 L 240.38977 81.37415 L 241.61009 81.35101 L 242.83023 81.32867 "/>
<path transform="matrix(2.7777777,0,0,-2.7777777,-66.899997,448.8722)" stroke-width=".79701" stroke-linecap="butt" stroke-miterlimit="10" stroke-linejoin="miter" fill="none" stroke="#ff0000" d="M 122.02528 188.06308 L 123.2456 155.99562 L 124.46574 141.10478 L 125.68607 131.30603 L 126.90622 123.9867 L 128.12654 118.14212 L 129.34687 113.27602 L 130.567 109.11263 L 131.78734 105.46605 L 133.00748 102.22786 L 134.22782 99.31442 L 135.44814 96.66675 L 136.66828 94.24054 L 137.8886 92.00015 L 139.10874 89.91853 L 140.32907 87.97858 L 141.5494 86.157 L 142.76955 84.44417 L 143.98987 82.82634 L 145.21 81.29424 L 146.43035 79.83868 L 147.65067 78.45242 L 148.8708 77.12909 L 150.09113 75.86174 L 151.31128 74.64984 L 152.5316 73.48515 L 153.75193 72.36526 L 154.97206 71.28773 L 156.1924 70.24835 L 157.41254 69.24586 L 158.63286 68.27528 L 159.8532 67.33554 L 161.07334 66.4271 L 162.29366 65.54324 L 163.5138 64.69048 L 164.73413 63.85687 L 165.95446 63.04646 L 167.17459 62.26509 L 168.39493 61.49765 L 169.61507 60.74754 L 170.8354 60.01926 L 172.05573 59.31012 L 173.27587 58.61693 L 174.49619 57.94026 L 175.71633 57.27812 L 176.93666 56.63094 L 178.15699 55.99867 L 179.37712 55.3791 L 180.59746 54.77287 L 181.8176 54.17871 L 183.03792 53.59628 L 184.25824 53.02534 L 185.4784 52.46652 L 186.69872 51.91797 L 187.91886 51.38052 L 189.13919 50.84993 L 190.35951 50.32944 L 191.57965 49.819 L 192.79998 49.31667 L 194.02013 48.82442 L 195.24047 48.33821 L 196.46079 47.86008 L 197.68093 47.39403 L 198.90125 46.93202 L 200.12139 46.47609 L 201.34172 46.02618 L 202.56204 45.58638 L 203.78218 45.15466 L 205.00252 44.72495 L 206.22266 44.30531 L 207.44298 43.8877 L 208.6633 43.47614 L 209.88346 43.07265 L 211.10378 42.67316 L 212.32392 42.28381 L 213.54425 41.89445 L 214.76457 41.51114 L 215.98471 41.13791 L 217.20503 40.76265 L 218.42519 40.39348 L 219.64553 40.02628 L 220.86585 39.66719 L 222.08599 39.3121 L 223.3063 38.96106 L 224.52645 38.61406 L 225.74677 38.27109 L 226.9671 37.93216 L 228.18724 37.59726 L 229.40758 37.26843 L 230.62772 36.9416 L 231.84804 36.6188 L 233.06836 36.29803 L 234.2885 35.9813 L 235.50884 35.66856 L 236.72898 35.3599 L 237.94931 35.05122 L 239.16963 34.74663 L 240.38977 34.44801 L 241.61009 34.15347 L 242.83023 33.8569 "/>
<path transform="matrix(2.7777777,0,0,-2.7777777,-66.899997,448.8722)" stroke-width=".79701" stroke-linecap="butt" stroke-dasharray="2.98883,2.98883" stroke-miterlimit="10" stroke-linejoin="miter" fill="none" stroke="#929292" d="M 24.28363 0 L 25.25986 .81102 L 26.23608 1.62204 L 27.21231 2.43309 L 28.18854 3.24414 L 29.16476 4.05518 L 30.14099 4.86621 L 31.11722 5.67725 L 32.09343 6.48827 L 33.06966 7.29932 L 34.04588 8.11034 L 35.02211 8.92139 L 35.99834 9.73244 L 36.97456 10.54347 L 37.9508 11.3545 L 38.92703 12.16554 L 39.90326 12.97656 L 40.87949 13.78761 L 41.85571 14.59863 L 42.83192 15.40967 L 43.80815 16.22073 L 44.78438 17.03177 L 45.7606 17.8428 L 46.73683 18.65384 L 47.71306 19.46486 L 48.68929 20.27591 L 49.66553 21.08693 L 50.64175 21.898 L 51.61798 22.70903 L 52.59421 23.52007 L 53.57042 24.3311 L 54.54665 25.14214 L 55.52287 25.95316 L 56.4991 26.7642 L 57.47533 27.57523 L 58.45155 28.38626 L 59.4278 29.19733 L 60.40402 30.00836 L 61.38025 30.81938 L 62.35648 31.63043 L 63.3327 32.44145 L 64.30891 33.2525 L 65.28514 34.06352 L 66.26137 34.87459 L 67.2376 35.68562 L 68.21382 36.49666 L 69.19005 37.30768 L 70.16628 38.11873 L 71.1425 38.92975 L 72.11874 39.7408 L 73.09497 40.55182 L 74.0712 41.36288 L 75.04741 42.17392 L 76.02364 42.98495 L 76.99986 43.79597 L 77.97609 44.60703 L 78.95232 45.41805 L 79.92854 46.22908 L 80.90477 47.04015 L 81.88101 47.85118 L 82.85724 48.66222 L 83.83347 49.47325 L 84.8097 50.28427 L 85.78592 51.09532 L 86.76213 51.90634 L 87.73836 52.71736 L 88.71458 53.52844 L 89.69081 54.33948 L 90.66704 55.1505 L 91.64326 55.96153 L 92.61949 56.77257 L 93.59572 57.5836 L 94.57196 58.39464 L 95.54819 59.20566 L 96.52441 60.01674 L 97.50063 60.82776 L 98.47685 61.6388 L 99.45308 62.44983 L 100.4293 63.26086 L 101.40553 64.0719 L 102.38176 64.88293 L 103.35799 65.69398 L 104.33421 66.50504 L 105.31044 67.31606 L 106.28667 68.12709 L 107.26291 68.93813 L 108.23912 69.74916 L 109.21535 70.56018 L 110.19157 71.37123 L 111.1678 72.18228 L 112.14403 72.99333 L 113.12025 73.80435 L 114.09648 74.61539 L 115.07271 75.42642 L 116.04893 76.23746 L 117.02516 77.04848 L 118.0014 77.85953 L 118.97762 78.67058 L 119.95384 79.48163 L 120.93007 80.29265 L 121.9063 81.10368 L 122.88258 81.91478 L 123.85872 82.72572 L 124.835 83.5368 L 125.81114 84.3478 L 126.78743 85.15887 L 127.76372 85.96994 L 128.73986 86.78091 L 129.71613 87.59201 L 130.69228 88.40298 L 131.66857 89.21405 L 132.64485 90.02513 L 133.62099 90.83612 L 134.59728 91.64717 L 135.57341 92.45815 L 136.5497 93.26924 L 137.52599 94.08034 L 138.50212 94.89128 L 139.47841 95.70238 L 140.45455 96.51334 L 141.43083 97.32445 L 142.4071 98.1355 L 143.38326 98.94647 L 144.35955 99.75757 L 145.33568 100.56851 L 146.31197 101.3796 L 147.28826 102.1907 L 148.26439 103.00166 L 149.24068 103.81274 L 150.21681 104.6237 L 151.1931 105.4348 L 152.16938 106.2459 L 153.14551 107.05682 L 154.1218 107.86792 L 155.09795 108.6789 L 156.07424 109.48999 L 157.05052 110.30106 L 158.02666 111.11203 L 159.00295 111.92311 L 159.97908 112.73407 L 160.95537 113.54515 L 161.93166 114.35625 L 162.90778 115.16722 L 163.88407 115.97829 L 164.86022 116.78925 L 165.8365 117.60036 L 166.81278 118.4114 L 167.78893 119.2224 L 168.76522 120.03348 L 169.74135 120.84445 L 170.71764 121.65552 L 171.69393 122.46661 L 172.67006 123.27757 L 173.64633 124.08868 L 174.62247 124.89961 L 175.59876 125.71071 L 176.57505 126.5218 L 177.5512 127.33278 L 178.52748 128.14385 L 179.50362 128.95482 L 180.4799 129.7659 L 181.45619 130.57698 L 182.43233 131.38794 L 183.40862 132.19904 L 184.38474 133.01001 L 185.36103 133.82108 L 186.33731 134.63216 L 187.31346 135.44315 L 188.28974 136.25423 L 189.26589 137.06519 L 190.24217 137.87627 L 191.21846 138.68737 L 192.1946 139.49834 L 193.17089 140.3094 L 194.14702 141.12036 L 195.12329 141.93148 L 196.09958 142.74253 L 197.07572 143.55352 L 198.052 144.3646 L 199.02814 145.17557 L 200.00444 145.98664 L 200.98073 146.79773 L 201.95687 147.60869 L 202.93315 148.41977 L 203.90929 149.23073 L 204.88558 150.04183 L 205.86185 150.85292 L 206.83798 151.66387 L 207.81427 152.47496 L 208.7904 153.28594 L 209.7667 154.09702 L 210.74298 154.9081 L 211.71913 155.71906 L 212.6954 156.53015 L 213.67156 157.34113 L 214.64785 158.15219 L 215.62413 158.96329 L 216.60027 159.77425 L 217.57654 160.58535 L 218.55268 161.39629 "/>
</g>
<symbol id="font_2_3">
<path d="M .305 .31300003 C .311 .33900003 .334 .43100003 .404 .43100003 C .409 .43100003 .433 .43100003 .454 .418 C .426 .41300003 .40600003 .388 .40600003 .36400003 C .40600003 .34800003 .417 .32900004 .444 .32900004 C .46600003 .32900004 .498 .34700004 .498 .38700003 C .498 .43900005 .439 .45300005 .405 .45300005 C .347 .45300005 .312 .40000005 .3 .37700004 C .275 .44300003 .221 .45300005 .19200002 .45300005 C .08800001 .45300005 .031000002 .32400004 .031000002 .29900003 C .031000002 .28900004 .041 .28900004 .043000007 .28900004 C .051000008 .28900004 .054000006 .291 .056 .3 C .09 .40600003 .156 .43100003 .19000001 .43100003 C .209 .43100003 .244 .42200003 .244 .36400003 C .244 .33300004 .22700002 .26600004 .19000001 .126 C .17400001 .064 .13900002 .022000002 .095000009 .022000002 C .08900001 .022000002 .06600001 .022000002 .045 .035 C .07000001 .040000004 .09200001 .061 .09200001 .089 C .09200001 .116000007 .07000001 .124000009 .055000009 .124000009 C .025 .124000009 0 .098000008 0 .06600001 C 0 .020000002 .050000006 0 .094000007 0 C .16000001 0 .19600001 .07000001 .19900002 .076000008 C .21100001 .039 .24700003 0 .307 0 C .41 0 .467 .12900001 .467 .15400002 C .467 .16400002 .458 .16400002 .455 .16400002 C .446 .16400002 .444 .16000001 .442 .15300001 C .409 .046 .341 .022000002 .30900003 .022000002 C .27 .022000002 .254 .054 .254 .08800001 C .254 .11000001 .26 .13200002 .271 .17600002 L .305 .31300003 Z "/>
</symbol>
<use xlink:href="#font_2_3" transform="matrix(27.673888,0,0,-27.673888,515.3914,215.24053)"/>
<symbol id="font_2_4">
<path d="M .45700003 .586 C .461 .6 .461 .602 .461 .609 C .461 .62700006 .447 .63600006 .432 .63600006 C .42200003 .63600006 .40600003 .63 .397 .615 C .395 .61 .387 .579 .38300003 .561 C .37600003 .535 .36900003 .508 .363 .48100005 L .318 .301 C .314 .286 .271 .21600002 .20500002 .21600002 C .15400002 .21600002 .143 .26000003 .143 .29700003 C .143 .34300003 .16000001 .40500004 .194 .49300004 C .21000001 .53400006 .21400002 .545 .21400002 .56500008 C .21400002 .61 .18200001 .6470001 .13200002 .6470001 C .037 .6470001 0 .50200006 0 .49300004 C 0 .48300005 .01 .48300005 .012 .48300005 C .022000002 .48300005 .023 .485 .028000003 .50100007 C .055000009 .595 .095000009 .625 .12900001 .625 C .13700001 .625 .15400002 .625 .15400002 .59300008 C .15400002 .568 .14400001 .54200008 .13700001 .523 C .097 .41700004 .079 .36 .079 .31300003 C .079 .224 .142 .194 .201 .194 C .24000003 .194 .274 .21100001 .30200003 .23900002 C .289 .187 .277 .13800001 .237 .08500001 C .21100001 .051 .17300001 .022 .127 .022 C .113000009 .022 .068 .025000006 .051000008 .06400001 C .067 .06400001 .080000009 .06400001 .094000007 .076000008 C .104 .08500001 .11400001 .098000008 .11400001 .117000009 C .11400001 .148 .087000008 .15200001 .07700001 .15200001 C .054000006 .15200001 .021 .136 .021 .087000008 C .021 .037 .065000008 0 .127 0 C .23 0 .333 .091000009 .361 .20400001 L .45700003 .586 Z "/>
</symbol>
<use xlink:href="#font_2_4" transform="matrix(27.673888,0,0,-27.673888,280.947,27.92031)"/>
<path transform="matrix(2.7777777,0,0,-2.7777777,-66.899997,448.8722)" d="M 143.13103 117.58792 L 214.46727 117.58792 L 214.46727 157.96848 L 143.13103 157.96848 Z " fill="#ffffff"/>
<path transform="matrix(2.7777777,0,0,-2.7777777,-66.899997,448.8722)" stroke-width=".3985" stroke-linecap="butt" stroke-miterlimit="10" stroke-linejoin="miter" fill="none" stroke="#000000" d="M 143.13103 117.58792 L 214.46727 117.58792 L 214.46727 157.96848 L 143.13103 157.96848 Z "/>
<path transform="matrix(2.7777777,0,0,-2.7777777,340.08888,32.41387)" stroke-width=".79701" stroke-linecap="butt" stroke-miterlimit="10" stroke-linejoin="miter" fill="none" stroke="#0000ff" d="M 0 0 L 8.50412 0 L 17.00826 0 "/>
<use xlink:href="#font_2_4" transform="matrix(27.673888,0,0,-27.673888,415.2803,45.20092)"/>
<symbol id="font_0_3">
<path d="M .63100007 .19400002 C .646 .19400002 .665 .19400002 .665 .214 C .665 .23400001 .646 .23400001 .632 .23400001 L .033 .23400001 C .019000002 .23400001 0 .23400001 0 .214 C 0 .19400002 .019000002 .19400002 .034 .19400002 L .63100007 .19400002 M .632 0 C .646 0 .665 0 .665 .02000001 C .665 .040000008 .646 .040000008 .63100007 .040000008 L .034 .040000008 C .019000002 .040000008 0 .040000008 0 .02000001 C 0 0 .019000002 0 .033 0 L .632 0 Z "/>
</symbol>
<use xlink:href="#font_0_3" transform="matrix(27.673888,0,0,-27.673888,438.27473,35.847146)"/>
<symbol id="font_2_2">
<path d="M .33300004 .38900004 C .31500004 .42600004 .286 .45300005 .24100001 .45300005 C .124 .45300005 0 .30600003 0 .16000001 C 0 .06600001 .055000005 0 .133 0 C .153 0 .20300001 .0040000008 .263 .075 C .27100004 .033000005 .30600003 0 .35400004 0 C .38900004 0 .41200004 .023000002 .42800004 .055000005 C .44500003 .091000009 .45800004 .15200001 .45800004 .15400002 C .45800004 .16400002 .44900004 .16400002 .44600005 .16400002 C .43600003 .16400002 .43500004 .16000001 .43200005 .14600002 C .41500003 .081 .397 .022000002 .35600005 .022000002 C .32900004 .022000002 .32600004 .048 .32600004 .068 C .32600004 .09 .32800005 .098000008 .33900003 .14200002 C .35000003 .18400002 .35200004 .19400002 .36100004 .23200003 L .397 .37200005 C .40400005 .40000005 .40400005 .40200005 .40400005 .40600003 C .40400005 .42300005 .39200003 .43300004 .37500004 .43300004 C .35100005 .43300004 .33600004 .411 .33300004 .38900004 M .26800005 .13000001 C .263 .112 .263 .11000001 .24800001 .093 C .20400001 .038000004 .163 .022000002 .135 .022000002 C .08499999 .022000002 .07100001 .077 .07100001 .116000007 C .07100001 .16600001 .103 .28900004 .126 .335 C .157 .39400003 .202 .43100003 .242 .43100003 C .307 .43100003 .32100005 .34900005 .32100005 .34300003 C .32100005 .337 .31900005 .33100004 .31800003 .32600004 L .26800005 .13000001 Z "/>
</symbol>
<use xlink:href="#font_2_2" transform="matrix(27.673888,0,0,-27.673888,467.04307,39.832185)"/>
<symbol id="font_3_2">
<path d="M .201 .116000007 C .19100002 .082 .15800002 .028 .107 .028 C .10400001 .028 .07400001 .028 .053000004 .042000005 C .094000007 .055000005 .09700001 .091 .09700001 .097 C .09700001 .119 .080000009 .134 .057000005 .134 C .029000007 .134 0 .11 0 .073 C 0 .023000002 .056 0 .10500001 0 C .15100003 0 .192 .029000003 .21700001 .071 C .241 .018000002 .296 0 .336 0 C .451 0 .512 .125 .512 .15300001 C .512 .16600001 .49900005 .16600001 .49600003 .16600001 C .48200003 .16600001 .48100005 .16100002 .47700004 .14900002 C .456 .08 .39600004 .028 .34 .028 C .3 .028 .279 .055000005 .279 .093 C .279 .119 .303 .21000001 .331 .321 C .351 .398 .39600004 .423 .42900003 .423 C .43100003 .423 .46200005 .423 .483 .409 C .451 .4 .439 .372 .439 .354 C .439 .33200003 .456 .317 .479 .317 C .50200006 .317 .535 .336 .535 .37800003 C .535 .43400003 .47100006 .451 .43100003 .451 C .381 .451 .34100003 .418 .319 .38 C .301 .421 .255 .451 .199 .451 C .087000008 .451 .023000002 .328 .023000002 .298 C .023000002 .285 .037 .285 .040000008 .285 C .053000004 .285 .054000006 .289 .059000009 .30200003 C .084 .38 .14700002 .423 .19600001 .423 C .229 .423 .256 .405 .256 .357 C .256 .337 .24400002 .287 .23500002 .25300003 L .201 .116000007 Z "/>
</symbol>
<use xlink:href="#font_3_2" transform="matrix(19.371666,0,0,-19.371666,481.49375,29.6798)"/>
<path transform="matrix(2.7777777,0,0,-2.7777777,340.08888,66.43332)" stroke-width=".79701" stroke-linecap="butt" stroke-miterlimit="10" stroke-linejoin="miter" fill="none" stroke="#ff0000" d="M 0 0 L 8.50412 0 L 17.00826 0 "/>
<use xlink:href="#font_2_4" transform="matrix(27.673888,0,0,-27.673888,394.77754,79.63976)"/>
<use xlink:href="#font_0_3" transform="matrix(27.673888,0,0,-27.673888,417.7747,70.28599)"/>
<symbol id="font_3_1">
<path d="M .361 .39200003 C .34000004 .425 .306 .451 .25800003 .451 C .13000001 .451 0 .31 0 .16600001 C 0 .069000009 .065 0 .15100001 0 C .205 0 .25300003 .031000004 .29299999 .07 C .31200005 .010000001 .37 0 .39600004 0 C .43200005 0 .45700003 .022 .47500003 .053000004 C .49700005 .092 .51000007 .14900002 .51000007 .15300001 C .51000007 .16600001 .49700005 .16600001 .49400003 .16600001 C .48000003 .16600001 .47900004 .16200002 .47200007 .135 C .46000005 .087000008 .44100005 .028 .399 .028 C .37300004 .028 .366 .050000006 .366 .077 C .366 .094000007 .374 .13000001 .38100005 .15600002 C .388 .18300002 .398 .22400002 .403 .24600002 L .42300005 .322 C .42900003 .34800003 .44100005 .395 .44100005 .4 C .44100005 .42200003 .42300005 .432 .407 .432 C .39000006 .432 .36700005 .42000003 .361 .39200003 M .297 .135 C .29000003 .107 .268 .087000008 .246 .068 C .237 .060000004 .19700001 .028 .154 .028 C .117 .028 .081 .054000006 .081 .125 C .081 .17800002 .11 .28800003 .133 .328 C .179 .40800003 .23 .423 .25800003 .423 C .328 .423 .347 .347 .347 .336 C .347 .33200003 .34500004 .32500003 .34400005 .322 L .297 .135 Z "/>
</symbol>
<use xlink:href="#font_3_1" transform="matrix(19.371666,0,0,-19.371666,438.92884,64.118679)"/>
<symbol id="font_0_5">
<path d="M .144 .694 L 0 .683 L 0 .652 C .07000001 .652 .07800001 .64500007 .07800001 .596 L .07800001 .076000008 C .07800001 .031000002 .067 .031000002 0 .031000002 L 0 0 C .033 .001 .086 .003 .11100001 .003 C .136 .003 .185 .001 .22200004 0 L .22200004 .031000002 C .155 .031000002 .144 .031000002 .144 .076000008 L .144 .694 Z "/>
</symbol>
<symbol id="font_0_6">
<path d="M .44300003 .22500003 C .44300003 .35300002 .34300003 .45900003 .222 .45900003 C .097 .45900003 0 .35000003 0 .22500003 C 0 .096 .104 0 .22100002 0 C .342 0 .44300003 .098000008 .44300003 .22500003 M .222 .025000003 C .17900002 .025000003 .135 .046 .10800001 .092 C .083000008 .136 .083000008 .19700001 .083000008 .23300003 C .083000008 .272 .083000008 .32600004 .10700001 .37000004 C .134 .41600005 .18100001 .43700005 .22100002 .43700005 C .26500003 .43700005 .30800004 .41500003 .33400003 .37200005 C .36 .32900004 .36 .27100004 .36 .23300003 C .36 .19700001 .36 .143 .33800004 .09900001 C .316 .054 .272 .025000003 .222 .025000003 Z "/>
</symbol>
<symbol id="font_0_4">
<path d="M .19400002 .37800003 C .10700001 .37800003 .10700001 .47800005 .10700001 .50100007 C .10700001 .52800008 .10800001 .56 .12300001 .58500006 C .13100001 .59700009 .15400002 .62500008 .19400002 .62500008 C .28100003 .62500008 .28100003 .52500006 .28100003 .50200006 C .28100003 .47500003 .28000004 .44300003 .26500003 .41800005 C .25700004 .40600003 .23400003 .37800003 .19400002 .37800003 M .07800001 .33900003 C .07800001 .34300003 .07800001 .36600004 .095 .38600005 C .134 .35800005 .17500001 .35500003 .19400002 .35500003 C .28700004 .35500003 .356 .42400003 .356 .50100007 C .356 .53800007 .34000004 .57500007 .31500004 .59800007 C .351 .632 .38700003 .637 .40500004 .637 C .40700004 .637 .41200004 .637 .41500003 .63600006 C .404 .632 .39900003 .62100008 .39900003 .609 C .39900003 .592 .41200004 .58000007 .42800004 .58000007 C .43800003 .58000007 .45700003 .587 .45700003 .61 C .45700003 .62700006 .44500003 .65900006 .40600003 .65900006 C .38600005 .65900006 .342 .65300008 .3 .61200007 C .25800003 .64500007 .21600002 .64800009 .19400002 .64800009 C .10100001 .64800009 .032 .57900008 .032 .50200006 C .032 .458 .054 .42000003 .07900001 .39900003 C .066 .384 .048000006 .351 .048000006 .316 C .048000006 .28500004 .061 .24700001 .09200001 .22700002 C .032 .21000001 0 .16700001 0 .127 C 0 .055000009 .09900001 0 .22100002 0 C .33900003 0 .44300003 .051000015 .44300003 .12900001 C .44300003 .164 .42900003 .21500002 .37800003 .24300002 C .32500003 .27100004 .26700003 .27100004 .20600002 .27100004 C .18100001 .27100004 .13800001 .27100004 .13100001 .272 C .09900001 .27600003 .07800001 .307 .07800001 .33900003 M .222 .023000002 C .12100001 .023000002 .052000006 .074000019 .052000006 .127 C .052000006 .17300001 .09 .21000001 .134 .21300002 L .19300002 .21300002 C .279 .21300002 .39100004 .21300002 .39100004 .127 C .39100004 .073000017 .32000003 .023000002 .222 .023000002 Z "/>
</symbol>
<use xlink:href="#font_0_5" transform="matrix(27.673888,0,0,-27.673888,459.73545,73.96661)"/>
<use xlink:href="#font_0_6" transform="matrix(27.673888,0,0,-27.673888,467.2904,74.27103)"/>
<use xlink:href="#font_0_4" transform="matrix(27.673888,0,0,-27.673888,481.12736,79.667438)"/>
<use xlink:href="#font_2_3" transform="matrix(27.673888,0,0,-27.673888,499.9831,74.27103)"/>
<symbol id="font_0_1">
<path d="M .421 .34200005 C .421 .42200003 .416 .50200006 .381 .57600006 C .335 .67200008 .25300003 .688 .211 .688 C .15100001 .688 .07800001 .66200008 .037000006 .56900009 C .0050000029 .5 0 .42200003 0 .34200005 C 0 .26700003 .0040000008 .177 .045000007 .101 C .088 .020000002 .161 0 .21000001 0 C .264 0 .34 .021000002 .384 .116000007 C .416 .185 .421 .263 .421 .34200005 M .21000001 .022000002 C .171 .022000002 .112 .047000003 .094 .143 C .083000008 .20300001 .083000008 .29500003 .083000008 .35400004 C .083000008 .41800005 .083000008 .48400004 .091000009 .53800007 C .11 .65700009 .185 .66600009 .21000001 .66600009 C .243 .66600009 .30900003 .64800009 .328 .549 C .338 .49300004 .338 .41700004 .338 .35400004 C .338 .279 .338 .21100001 .32700003 .147 C .312 .052 .255 .022000002 .21000001 .022000002 Z "/>
</symbol>
<use xlink:href="#font_0_1" transform="matrix(27.673888,0,0,-27.673888,397.51539,107.63104)"/>
<symbol id="font_2_1">
<path d="M .592 .53800007 C .60400006 .544 .611 .549 .611 .56000009 C .611 .57100006 .60200008 .58000007 .591 .58000007 C .588 .58000007 .586 .58000007 .573 .5730001 L .019000002 .312 C .008000001 .307 0 .30200003 0 .29 C 0 .278 .008000001 .273 .019000002 .268 L .573 .007000003 C .586 0 .588 0 .591 0 C .60200008 0 .611 .0090000019 .611 .020000002 C .611 .031000004 .60400006 .036000004 .592 .042000005 L .067 .29 L .592 .53800007 Z "/>
</symbol>
<use xlink:href="#font_2_1" transform="matrix(27.673888,0,0,-27.673888,420.258,108.12917)"/>
<use xlink:href="#font_2_2" transform="matrix(27.673888,0,0,-27.673888,448.29167,107.32663)"/>
<use xlink:href="#font_2_1" transform="matrix(27.673888,0,0,-27.673888,471.81449,108.12917)"/>
<use xlink:href="#font_0_2" transform="matrix(27.673888,0,0,-27.673888,501.1629,107.02222)"/>
</g>
</svg>
