<?xml version="1.0" encoding="UTF-8" standalone="no"?>
<!DOCTYPE svg PUBLIC "-//W3C//DTD SVG 1.1//EN" "http://www.w3.org/Graphics/SVG/1.1/DTD/svg11.dtd">
<svg xmlns="http://www.w3.org/2000/svg" xmlns:xlink="http://www.w3.org/1999/xlink" version="1.1" width="1163.3306pt" height="285.10835pt" viewBox="0 0 1163.3306 285.10835">
<g enable-background="new">
<path transform="matrix(2.7777777,0,0,-2.7777777,10.330556,237.32778)" stroke-width=".79701" stroke-linecap="butt" stroke-miterlimit="10" stroke-linejoin="miter" fill="none" stroke="#000000" d="M 0 0 L 113.38724 0 L 113.38724 85.0404 Z "/>
<symbol id="font_0_2">
<path d="M .316 .10500002 L .14000002 .49400003 C .13300002 .51 .12799999 .51 .125 .51 C .124000009 .51 .118999999 .51 .108 .502 L .012999997 .43 C 0 .42000003 0 .417 0 .41400004 C 0 .40900005 .0029999987 .403 .009999998 .403 C .015999996 .403 .033 .417 .044 .425 C .049999998 .43 .065000008 .44099999 .076 .449 L .273 .015999973 C .28 0 .285 0 .294 0 C .30900003 0 .312 .0059999825 .319 .01999998 L .773 .96000006 C .78000006 .97400006 .78000006 .97800007 .78000006 .98 C .78000006 .99 .772 1 .76000007 1 C .75200006 1 .745 .99500009 .73700007 .97900006 L .316 .10500002 Z "/>
</symbol>
<use xlink:href="#font_0_2" transform="matrix(27.673888,0,0,-27.673888,120.35631,275.8836)"/>
<path transform="matrix(2.7777777,0,0,-2.7777777,141.39722,248.7639)" stroke-width=".398" stroke-linecap="butt" stroke-miterlimit="10" stroke-linejoin="miter" fill="none" stroke="#000000" d="M 0 0 L 27.321 0 "/>
<symbol id="font_1_2">
<path d="M .205 .64000007 C .205 .66400006 .205 .666 .18200003 .666 C .120000008 .60200008 .032000007 .60200008 0 .60200008 L 0 .57100006 C .020000004 .57100006 .07900001 .57100006 .13100001 .597 L .13100001 .079 C .13100001 .043 .128 .031000002 .038000004 .031000002 L .0060000049 .031000002 L .0060000049 0 C .04100001 .003 .128 .003 .168 .003 C .20800002 .003 .29500003 .003 .33000005 0 L .33000005 .031000002 L .29800005 .031000002 C .20800002 .031000002 .205 .042000005 .205 .079 L .205 .64000007 Z "/>
</symbol>
<use xlink:href="#font_1_2" transform="matrix(27.673888,0,0,-27.673888,143.8602,272.38056)"/>
<symbol id="font_0_1">
<path d="M .57600006 0 C .59300008 0 .611 0 .611 .019999996 C .611 .040000008 .59300008 .040000008 .57600006 .040000008 L .035000005 .040000008 C .018 .040000008 0 .040000008 0 .019999996 C 0 0 .018 0 .035000005 0 L .57600006 0 Z "/>
</symbol>
<use xlink:href="#font_0_1" transform="matrix(27.673888,0,0,-27.673888,163.68027,266.01557)"/>
<symbol id="font_2_1">
<path d="M .305 .31300003 C .311 .33900003 .334 .43100003 .404 .43100003 C .409 .43100003 .433 .43100003 .454 .418 C .426 .41300003 .40600003 .388 .40600003 .36400003 C .40600003 .34800003 .417 .32900004 .444 .32900004 C .46600003 .32900004 .498 .34700004 .498 .38700003 C .498 .43900005 .439 .45300005 .405 .45300005 C .347 .45300005 .312 .40000005 .3 .37700004 C .275 .44300003 .221 .45300005 .19200002 .45300005 C .08800001 .45300005 .031000002 .32400004 .031000002 .29900003 C .031000002 .28900004 .041 .28900004 .043000007 .28900004 C .051000008 .28900004 .054000006 .291 .056 .3 C .09 .40600003 .156 .43100003 .19000001 .43100003 C .209 .43100003 .244 .42200003 .244 .36400003 C .244 .33300004 .22700002 .26600004 .19000001 .126 C .17400001 .064 .13900002 .022000002 .095000009 .022000002 C .08900001 .022000002 .06600001 .022000002 .045 .035 C .07000001 .040000004 .09200001 .061 .09200001 .089 C .09200001 .116000007 .07000001 .124000009 .055000009 .124000009 C .025 .124000009 0 .098000008 0 .06600001 C 0 .020000002 .050000006 0 .094000007 0 C .16000001 0 .19600001 .07000001 .19900002 .076000008 C .21100001 .039 .24700003 0 .307 0 C .41 0 .467 .12900001 .467 .15400002 C .467 .16400002 .458 .16400002 .455 .16400002 C .446 .16400002 .444 .16000001 .442 .15300001 C .409 .046 .341 .022000002 .30900003 .022000002 C .27 .022000002 .254 .054 .254 .08800001 C .254 .11000001 .26 .13200002 .271 .17600002 L .305 .31300003 Z "/>
</symbol>
<use xlink:href="#font_2_1" transform="matrix(27.673888,0,0,-27.673888,189.86086,272.68498)"/>
<symbol id="font_3_1">
<path d="M .442 .18200001 L .40800003 .18200001 C .40500004 .16000001 .39500005 .101 .38200004 .091000009 C .374 .085 .29700003 .085 .28300003 .085 L .099 .085 C .20400003 .178 .23900002 .20600002 .29900003 .25300003 C .37300004 .312 .442 .374 .442 .469 C .442 .59000006 .33600004 .66400006 .20800004 .66400006 C .084 .66400006 0 .577 0 .485 C 0 .43400003 .043000007 .42900003 .053000004 .42900003 C .077 .42900003 .10600001 .446 .10600001 .48200003 C .10600001 .5 .099 .535 .047000007 .535 C .078 .606 .146 .628 .19300002 .628 C .293 .628 .34500004 .55 .34500004 .469 C .34500004 .38200004 .28300003 .31300003 .25100003 .277 L .010000005 .039 C 0 .030000002 0 .028 0 0 L .41200004 0 L .442 .18200001 Z "/>
</symbol>
<use xlink:href="#font_3_1" transform="matrix(19.371666,0,0,-19.371666,206.0954,264.38334)"/>
<use xlink:href="#font_1_2" transform="matrix(27.673888,0,0,-27.673888,148.55742,120.25835)"/>
<use xlink:href="#font_2_1" transform="matrix(27.673888,0,0,-27.673888,333.93589,133.36554)"/>
<symbol id="font_3_8">
<path d="M .334 .43 C .334 .447 .334 .456 .32 .456 C .315 .456 .31300003 .456 .3 .444 C .29800005 .44300003 .288 .43400003 .282 .42900003 C .25200004 .45000003 .214 .456 .17700002 .456 C .034 .456 0 .381 0 .331 C 0 .299 .014000002 .273 .038000004 .25300003 C .076000008 .22000002 .11400001 .21300002 .17600002 .20300001 C .22600003 .19400002 .30700005 .18 .30700005 .113000009 C .30700005 .074 .28000004 .028 .18400002 .028 C .088 .028 .053000004 .091 .035000005 .15900001 C .032000007 .172 .031000004 .17600002 .017 .17600002 C 0 .17600002 0 .16900002 0 .14900002 L 0 .026 C 0 .009000001 0 0 .014000002 0 C .023000002 0 .042000005 .021000002 .062000008 .043 C .106000009 .0020000004 .16000001 0 .18400002 0 C .314 0 .362 .07 .362 .14100002 C .362 .17900002 .34500004 .20900002 .319 .23300001 C .28100003 .268 .235 .276 .2 .282 C .120000008 .296 .055 .308 .055 .361 C .055 .393 .082 .432 .17700002 .432 C .29300005 .432 .29800005 .351 .3 .322 C .301 .31100003 .31300003 .31100003 .31700004 .31100003 C .334 .31100003 .334 .31800003 .334 .337 L .334 .43 Z "/>
</symbol>
<symbol id="font_3_5">
<path d="M .155 .61700007 C .155 .646 .13100001 .674 .09700001 .674 C .067 .674 .04 .65000006 .04 .61700007 C .04 .58100005 .069 .559 .09700001 .559 C .12900001 .559 .155 .58400008 .155 .61700007 M .0030000024 .43 L .0030000024 .39400003 C .06600001 .39400003 .07500001 .388 .07500001 .33900003 L .07500001 .079 C .07500001 .036000004 .065000008 .036000004 0 .036000004 L 0 0 C .0020000004 0 .072000008 .004 .11200001 .004 C .14700002 .004 .183 .003 .21800003 0 L .21800003 .036000004 C .16 .036000004 .15 .036000004 .15 .078 L .15 .441 L .0030000024 .43 Z "/>
</symbol>
<symbol id="font_3_6">
<path d="M .46100006 .303 C .46100006 .39000003 .41800005 .441 .31100003 .441 C .22900002 .441 .176 .39600004 .148 .344 L .147 .344 L .147 .441 L 0 .43 L 0 .39400003 C .067 .39400003 .075 .38700003 .075 .33800004 L .075 .079 C .075 .036000004 .065 .036000004 0 .036000004 L 0 0 C .0020000004 0 .072 .004 .11400001 .004 C .15100001 .004 .22000002 .001 .22900002 0 L .22900002 .036000004 C .164 .036000004 .154 .036000004 .154 .079 L .154 .259 C .154 .36400003 .237 .41300003 .30300004 .41300003 C .37300004 .41300003 .38200004 .358 .38200004 .307 L .38200004 .079 C .38200004 .036000004 .37200005 .036000004 .30700005 .036000004 L .30700005 0 C .30900003 0 .37900005 .004 .42100004 .004 C .45800004 .004 .527 .001 .536 0 L .536 .036000004 C .47100006 .036000004 .46100006 .036000004 .46100006 .079 L .46100006 .303 Z "/>
</symbol>
<use xlink:href="#font_3_8" transform="matrix(19.371666,0,0,-19.371666,55.255056,230.56038)"/>
<use xlink:href="#font_3_5" transform="matrix(19.371666,0,0,-19.371666,64.243518,230.36667)"/>
<use xlink:href="#font_3_6" transform="matrix(19.371666,0,0,-19.371666,70.461818,230.36667)"/>
<symbol id="font_4_1">
<path d="M .72 0 C .736 0 .763 0 .763 .027999983 C .763 .05600001 .736 .05600001 .72 .05600001 L .042999999 .05600001 C .026999996 .05600001 0 .05600001 0 .027999983 C 0 0 .026999996 0 .042999999 0 L .72 0 Z "/>
</symbol>
<use xlink:href="#font_4_1" transform="matrix(13.836944,0,0,-13.836944,83.852809,218.94208)"/>
<symbol id="font_5_1">
<path d="M .25500003 .63600006 C .25500003 .666 .252 .666 .21900001 .666 C .148 .60200008 .037 .60200008 .017000005 .60200008 L 0 .60200008 L 0 .558 L .017000005 .558 C .040000008 .558 .105000007 .56100007 .16300002 .586 L .16300002 .086 C .16300002 .055000005 .16300002 .044000005 .056999998 .044000005 L .0069999995 .044000005 L .0069999995 0 C .062000008 .004 .151 .004 .20900002 .004 C .26700003 .004 .356 .004 .411 0 L .411 .044000005 L .361 .044000005 C .25500003 .044000005 .25500003 .055000005 .25500003 .086 L .25500003 .63600006 Z "/>
</symbol>
<use xlink:href="#font_5_1" transform="matrix(13.836944,0,0,-13.836944,98.60924,222.01389)"/>
<symbol id="font_6_1">
<path d="M .201 .116000007 C .19100002 .082 .15800002 .028 .107 .028 C .10400001 .028 .07400001 .028 .053000004 .042000005 C .094000007 .055000005 .09700001 .091 .09700001 .097 C .09700001 .119 .080000009 .134 .057000005 .134 C .029000007 .134 0 .11 0 .073 C 0 .023000002 .056 0 .10500001 0 C .15100003 0 .192 .029000003 .21700001 .071 C .241 .018000002 .296 0 .336 0 C .451 0 .512 .125 .512 .15300001 C .512 .16600001 .49900005 .16600001 .49600003 .16600001 C .48200003 .16600001 .48100005 .16100002 .47700004 .14900002 C .456 .08 .39600004 .028 .34 .028 C .3 .028 .279 .055000005 .279 .093 C .279 .119 .303 .21000001 .331 .321 C .351 .398 .39600004 .423 .42900003 .423 C .43100003 .423 .46200005 .423 .483 .409 C .451 .4 .439 .372 .439 .354 C .439 .33200003 .456 .317 .479 .317 C .50200006 .317 .535 .336 .535 .37800003 C .535 .43400003 .47100006 .451 .43100003 .451 C .381 .451 .34100003 .418 .319 .38 C .301 .421 .255 .451 .199 .451 C .087000008 .451 .023000002 .328 .023000002 .298 C .023000002 .285 .037 .285 .040000008 .285 C .053000004 .285 .054000006 .289 .059000009 .30200003 C .084 .38 .14700002 .423 .19600001 .423 C .229 .423 .256 .405 .256 .357 C .256 .337 .24400002 .287 .23500002 .25300003 L .201 .116000007 Z "/>
</symbol>
<use xlink:href="#font_6_1" transform="matrix(19.371666,0,0,-19.371666,112.14095,230.56038)"/>
<symbol id="font_3_3">
<path d="M .34300003 .409 C .32500003 .40100003 .31500004 .38500003 .31500004 .365 C .31500004 .338 .33400003 .31800003 .36200003 .31800003 C .38900004 .31800003 .41000004 .335 .41000004 .367 C .41000004 .456 .271 .456 .243 .456 C .09300001 .456 0 .34100003 0 .22600001 C 0 .1 .10700001 0 .238 0 C .38700003 0 .42200003 .118 .42200003 .13000001 C .42200003 .142 .409 .142 .40500004 .142 C .39200003 .142 .391 .13900002 .386 .125 C .36400003 .063 .31100003 .032 .25 .032 C .18100001 .032 .091000009 .083000008 .091000009 .22700002 C .091000009 .354 .15300001 .42400003 .24600002 .42400003 C .259 .42400003 .307 .42400003 .34300003 .409 Z "/>
</symbol>
<symbol id="font_3_7">
<path d="M .49000005 .22300002 C .49000005 .34800003 .38300003 .456 .245 .456 C .10700001 .456 0 .34800003 0 .22300002 C 0 .099 .11 0 .245 0 C .38000003 0 .49000005 .099 .49000005 .22300002 M .245 .032 C .208 .032 .154 .044000005 .12100001 .093 C .094 .134 .091000009 .18600002 .091000009 .23200003 C .091000009 .275 .09200001 .334 .127 .377 C .15200001 .40600003 .194 .428 .245 .428 C .30400003 .428 .34600003 .4 .368 .36900003 C .39600004 .33 .39900003 .28 .39900003 .23200003 C .39900003 .18400002 .39600004 .13100001 .367 .09 C .34 .052000006 .294 .032 .245 .032 Z "/>
</symbol>
<use xlink:href="#font_3_3" transform="matrix(19.371666,0,0,-19.371666,258.80775,57.33262)"/>
<use xlink:href="#font_3_7" transform="matrix(19.371666,0,0,-19.371666,268.51298,57.33262)"/>
<use xlink:href="#font_3_8" transform="matrix(19.371666,0,0,-19.371666,279.67106,57.33262)"/>
<use xlink:href="#font_4_1" transform="matrix(13.836944,0,0,-13.836944,289.76945,45.714319)"/>
<use xlink:href="#font_5_1" transform="matrix(13.836944,0,0,-13.836944,304.5231,48.786119)"/>
<use xlink:href="#font_6_1" transform="matrix(19.371666,0,0,-19.371666,318.05485,57.33262)"/>
<path transform="matrix(2.7777777,0,0,-2.7777777,10.330556,237.32778)" stroke-width=".3985" stroke-linecap="butt" stroke-miterlimit="10" stroke-linejoin="miter" fill="none" stroke="#000000" d="M 113.38724 0 L 102.04869 0 L 102.04869 11.33855 L 113.38724 11.33855 "/>
<path transform="matrix(2.7777777,0,0,-2.7777777,368.5055,248.27223)" stroke-width=".79701" stroke-linecap="butt" stroke-miterlimit="10" stroke-linejoin="miter" fill="none" stroke="#000000" d="M 0 0 L 113.38724 0 L 113.38724 85.0404 Z "/>
<use xlink:href="#font_1_2" transform="matrix(27.673888,0,0,-27.673888,521.52957,275.88334)"/>
<use xlink:href="#font_0_2" transform="matrix(27.673888,0,0,-27.673888,443.2924,120.93362)"/>
<path transform="matrix(2.7777777,0,0,-2.7777777,464.33329,93.811138)" stroke-width=".398" stroke-linecap="butt" stroke-miterlimit="10" stroke-linejoin="miter" fill="none" stroke="#000000" d="M 0 0 L 27.321 0 "/>
<symbol id="font_1_1">
<path d="M .35300002 .31300003 L .632 .31300003 C .646 .31300003 .665 .31300003 .665 .333 C .665 .35300002 .646 .35300002 .632 .35300002 L .35300002 .35300002 L .35300002 .633 C .35300002 .647 .35300002 .666 .33300004 .666 C .31300003 .666 .31300003 .647 .31300003 .633 L .31300003 .35300002 L .033 .35300002 C .019000002 .35300002 0 .35300002 0 .333 C 0 .31300003 .019000002 .31300003 .033 .31300003 L .31300003 .31300003 L .31300003 .033000005 C .31300003 .019000002 .31300003 0 .33300004 0 C .35300002 0 .35300002 .019000002 .35300002 .033000005 L .35300002 .31300003 Z "/>
</symbol>
<use xlink:href="#font_1_2" transform="matrix(27.673888,0,0,-27.673888,466.79627,117.42778)"/>
<use xlink:href="#font_1_1" transform="matrix(27.673888,0,0,-27.673888,485.8636,119.72472)"/>
<use xlink:href="#font_2_1" transform="matrix(27.673888,0,0,-27.673888,512.79696,117.73219)"/>
<use xlink:href="#font_3_1" transform="matrix(19.371666,0,0,-19.371666,529.03146,109.43335)"/>
<use xlink:href="#font_2_1" transform="matrix(27.673888,0,0,-27.673888,692.1081,144.30998)"/>
<symbol id="font_3_9">
<path d="M .172 .405 L .328 .405 L .328 .441 L .172 .441 L .172 .625 L .13800001 .625 C .13700001 .535 .096 .43600003 0 .433 L 0 .405 L .09300001 .405 L .09300001 .135 C .09300001 .023000002 .17700002 0 .23300003 0 C .3 0 .34600003 .057000005 .34600003 .136 L .34600003 .19100002 L .312 .19100002 L .312 .13700001 C .312 .069000009 .28 .032 .24100001 .032 C .172 .032 .172 .116000007 .172 .134 L .172 .405 Z "/>
</symbol>
<symbol id="font_3_2">
<path d="M .391 .278 C .391 .331 .391 .36900003 .345 .40600003 C .30400003 .44 .256 .456 .197 .456 C .102 .456 .035 .42000003 .035 .359 C .035 .327 .057 .31 .083000008 .31 C .11 .31 .13 .33 .13 .357 C .13 .374 .121999997 .395 .095 .403 C .131 .428 .18900001 .428 .195 .428 C .25100003 .428 .312 .391 .312 .307 L .312 .276 C .257 .274 .191 .271 .118 .24400002 C .028 .21100001 0 .15600002 0 .111 C 0 .025000003 .104 0 .175 0 C .255 0 .30200003 .045 .323 .084 C .32700003 .043 .354 .0050000005 .4 .0050000005 C .402 .0050000005 .499 .0050000005 .499 .1 L .499 .15500002 L .46500004 .15500002 L .46500004 .101 C .46500004 .091 .46500004 .043 .428 .043 C .391 .043 .391 .09 .391 .103 L .391 .278 M .312 .15100001 C .312 .055000005 .22800002 .028 .183 .028 C .132 .028 .08400001 .062000004 .08400001 .111 C .08400001 .16600001 .132 .24300002 .312 .25 L .312 .15100001 Z "/>
</symbol>
<use xlink:href="#font_3_9" transform="matrix(19.371666,0,0,-19.371666,410.79508,241.50482)"/>
<use xlink:href="#font_3_2" transform="matrix(19.371666,0,0,-19.371666,419.9385,241.50482)"/>
<use xlink:href="#font_3_6" transform="matrix(19.371666,0,0,-19.371666,430.96104,241.31111)"/>
<use xlink:href="#font_4_1" transform="matrix(13.836944,0,0,-13.836944,444.34999,229.88932)"/>
<use xlink:href="#font_5_1" transform="matrix(13.836944,0,0,-13.836944,459.10365,232.96112)"/>
<use xlink:href="#font_6_1" transform="matrix(19.371666,0,0,-19.371666,472.63536,241.50482)"/>
<path transform="matrix(2.7777777,0,0,-2.7777777,368.5055,248.27223)" stroke-width=".3985" stroke-linecap="butt" stroke-miterlimit="10" stroke-linejoin="miter" fill="none" stroke="#000000" d="M 113.38724 0 L 102.04869 0 L 102.04869 11.33855 L 113.38724 11.33855 "/>
<path transform="matrix(2.7777777,0,0,-2.7777777,726.67776,248.27223)" stroke-width=".79701" stroke-linecap="butt" stroke-miterlimit="10" stroke-linejoin="miter" fill="none" stroke="#000000" d="M 0 0 L 113.38724 0 L 113.38724 85.0404 Z "/>
<use xlink:href="#font_1_2" transform="matrix(27.673888,0,0,-27.673888,879.7018,275.88334)"/>
<use xlink:href="#font_2_1" transform="matrix(27.673888,0,0,-27.673888,878.98867,112.80443)"/>
<use xlink:href="#font_0_2" transform="matrix(27.673888,0,0,-27.673888,1057.1729,144.00583)"/>
<path transform="matrix(2.7777777,0,0,-2.7777777,1078.2139,116.88612)" stroke-width=".398" stroke-linecap="butt" stroke-miterlimit="10" stroke-linejoin="miter" fill="none" stroke="#000000" d="M 0 0 L 27.321 0 "/>
<use xlink:href="#font_2_1" transform="matrix(27.673888,0,0,-27.673888,1079.0164,140.8072)"/>
<use xlink:href="#font_3_1" transform="matrix(19.371666,0,0,-19.371666,1095.251,132.50557)"/>
<use xlink:href="#font_0_1" transform="matrix(27.673888,0,0,-27.673888,1114.8914,134.1378)"/>
<use xlink:href="#font_1_2" transform="matrix(27.673888,0,0,-27.673888,1142.7326,140.50279)"/>
<symbol id="font_3_4">
<path d="M .40100003 .23800002 C .42200003 .23800002 .42900003 .23800002 .42900003 .26 C .42900003 .34800003 .38000003 .456 .231 .456 C .10000001 .456 0 .352 0 .22900002 C 0 .102000009 .111 0 .24400002 0 C .379 0 .42900003 .108 .42900003 .13000001 C .42900003 .134 .42700003 .14400001 .41200004 .14400001 C .39900003 .14400001 .397 .13800001 .39400003 .128 C .363 .047000003 .287 .032 .25100003 .032 C .20400001 .032 .15900001 .053000004 .12900001 .091 C .09200001 .13800001 .091000009 .19900002 .091000009 .23800002 L .40100003 .23800002 M .09200001 .264 C .103 .405 .193 .428 .231 .428 C .354 .428 .358 .289 .35900004 .264 L .09200001 .264 Z "/>
</symbol>
<use xlink:href="#font_3_8" transform="matrix(19.371666,0,0,-19.371666,771.005,241.50482)"/>
<use xlink:href="#font_3_4" transform="matrix(19.371666,0,0,-19.371666,779.6641,241.50482)"/>
<use xlink:href="#font_3_3" transform="matrix(19.371666,0,0,-19.371666,789.64059,241.50482)"/>
<use xlink:href="#font_4_1" transform="matrix(13.836944,0,0,-13.836944,800.7945,229.88932)"/>
<use xlink:href="#font_5_1" transform="matrix(13.836944,0,0,-13.836944,815.5509,232.96112)"/>
<use xlink:href="#font_6_1" transform="matrix(19.371666,0,0,-19.371666,829.0826,241.50482)"/>
<path transform="matrix(2.7777777,0,0,-2.7777777,726.67776,248.27223)" stroke-width=".3985" stroke-linecap="butt" stroke-miterlimit="10" stroke-linejoin="miter" fill="none" stroke="#000000" d="M 113.38724 0 L 102.04869 0 L 102.04869 11.33855 L 113.38724 11.33855 "/>
</g>
</svg>
