<?xml version="1.0" encoding="UTF-8" standalone="no"?>
<!DOCTYPE svg PUBLIC "-//W3C//DTD SVG 1.1//EN" "http://www.w3.org/Graphics/SVG/1.1/DTD/svg11.dtd">
<svg xmlns="http://www.w3.org/2000/svg" xmlns:xlink="http://www.w3.org/1999/xlink" version="1.1" width="540.7361pt" height="449.425pt" viewBox="0 0 540.7361 449.425">
<g enable-background="new">
<path transform="matrix(2.7777777,0,0,-2.7777777,-66.899997,522.95278)" stroke-width=".19925" stroke-linecap="butt" stroke-miterlimit="10" stroke-linejoin="miter" fill="none" stroke="#929292" d="M 145.70183 105.24155 L 145.70183 109.49408 "/>
<path transform="matrix(2.7777777,0,0,-2.7777777,-66.899997,522.95278)" stroke-width=".19925" stroke-linecap="butt" stroke-miterlimit="10" stroke-linejoin="miter" fill="none" stroke="#929292" d="M 119.29224 127.54236 L 123.54413 127.54236 "/>
<path transform="matrix(2.7777777,0,0,-2.7777777,-66.899997,522.95278)" stroke-width=".3985" stroke-linecap="butt" stroke-miterlimit="10" stroke-linejoin="miter" fill="none" stroke="#000000" d="M 24.28363 107.36781 L 216.56023 107.36781 "/>
<path transform="matrix(2.7777777,0,0,-2.7777777,534.6562,224.70885)" d="M 1.99252 0 L -1.19551 1.59401 L 0 0 L -1.19551 -1.59401 "/>
<path transform="matrix(2.7777777,0,0,-2.7777777,-66.899997,522.95278)" stroke-width=".3985" stroke-linecap="butt" stroke-miterlimit="10" stroke-linejoin="miter" fill="none" stroke="#000000" d="M 121.4182 26.66963 L 121.4182 186.07347 "/>
<path transform="matrix(0,-2.7777777,-2.7777777,-0,270.37278,6.082026)" d="M 1.99252 0 L -1.19551 1.59401 L 0 0 L -1.19551 -1.59401 "/>
<symbol id="font_0_1">
<path d="M .205 .64000007 C .205 .66400006 .205 .666 .18200003 .666 C .120000008 .60200008 .032000007 .60200008 0 .60200008 L 0 .57100006 C .020000004 .57100006 .07900001 .57100006 .13100001 .597 L .13100001 .079 C .13100001 .043 .128 .031000002 .038000004 .031000002 L .0060000049 .031000002 L .0060000049 0 C .04100001 .003 .128 .003 .168 .003 C .20800002 .003 .29500003 .003 .33000005 0 L .33000005 .031000002 L .29800005 .031000002 C .20800002 .031000002 .205 .042000005 .205 .079 L .205 .64000007 Z "/>
</symbol>
<use xlink:href="#font_0_1" transform="matrix(27.673888,0,0,-27.673888,333.36576,258.23054)"/>
<use xlink:href="#font_0_1" transform="matrix(27.673888,0,0,-27.673888,243.31298,177.5889)"/>
<clipPath id="cp1">
<path transform="matrix(2.7777777,0,0,-2.7777777,-66.899997,522.95278)" d="M 24.28363 26.66963 L 218.55275 26.66963 L 218.55275 188.066 L 24.28363 188.066 Z "/>
</clipPath>
<g clip-path="url(#cp1)">
<path transform="matrix(2.7777777,0,0,-2.7777777,-66.899997,522.95278)" stroke-width=".79701" stroke-linecap="butt" stroke-miterlimit="10" stroke-linejoin="miter" fill="none" stroke="#0000ff" d="M 0 107.99826 L 1.22025 108.02092 L 2.44049 108.04404 L 3.66075 108.06801 L 4.881 108.09283 L 6.10124 108.11853 L 7.3215 108.1451 L 8.54176 108.17268 L 9.76201 108.2012 L 10.98227 108.23073 L 12.20251 108.2613 L 13.42276 108.29298 L 14.64302 108.32578 L 15.86327 108.35973 L 17.08353 108.39488 L 18.30379 108.43126 L 19.52403 108.46895 L 20.74428 108.508 L 21.96454 108.54842 L 23.18478 108.59023 L 24.40504 108.63356 L 25.6253 108.6784 L 26.84555 108.72485 L 28.06581 108.77295 L 29.28606 108.82275 L 30.5063 108.87431 L 31.72656 108.92769 L 32.94681 108.98297 L 34.16707 109.0402 L 35.38733 109.09947 L 36.60757 109.16089 L 37.82782 109.22441 L 39.04808 109.2902 L 40.26833 109.35832 L 41.48857 109.42784 L 42.70885 109.50046 L 43.9291 109.57712 L 45.14934 109.656 L 46.3696 109.7367 L 47.58984 109.82162 L 48.8101 109.9082 L 50.03035 109.99716 L 51.25061 110.08975 L 52.47087 110.1866 L 53.69112 110.28767 L 54.91136 110.39058 L 56.13162 110.4977 L 57.35187 110.60843 L 58.57211 110.72366 L 59.79239 110.84248 L 61.01263 110.96553 L 62.23288 111.09264 L 63.45314 111.22598 L 64.67339 111.36316 L 65.89363 111.50462 L 67.1139 111.64986 L 68.33415 111.80319 L 69.5544 111.96056 L 70.77466 112.12213 L 71.9949 112.29143 L 73.21516 112.4651 L 74.43541 112.64667 L 75.65567 112.8341 L 76.87593 113.028 L 78.09618 113.2279 L 79.31642 113.43573 L 80.53668 113.64954 L 81.75693 113.87329 L 82.97717 114.1037 L 84.19745 114.34154 L 85.4177 114.59009 L 86.63794 114.84612 L 87.8582 115.11061 L 89.07845 115.38477 L 90.29869 115.66965 L 91.51895 115.96417 L 92.73921 116.26883 L 93.95946 116.58353 L 95.17972 116.91037 L 96.39996 117.2477 L 97.62022 117.59853 L 98.84047 117.96187 L 100.06071 118.3371 L 101.28099 118.72467 L 102.50124 119.12816 L 103.72148 119.54417 L 104.94174 119.9757 L 106.16199 120.42397 L 107.38223 120.88599 L 108.6025 121.36412 L 109.82275 121.8606 L 111.043 122.37506 L 112.26326 122.90564 L 113.4835 123.4568 L 114.70375 124.02776 L 115.92401 124.61705 L 117.14426 125.22855 L 118.36452 125.86223 L 119.58478 126.5179 L 120.80502 127.19595 L 122.02528 127.89462 L 123.2456 128.62229 L 124.46574 129.3752 L 125.68607 130.15535 L 126.90622 130.96254 L 128.12654 131.79857 L 129.34687 132.66468 L 130.567 133.56124 L 131.78734 134.48906 L 133.00748 135.44976 L 134.22782 136.44559 L 135.44814 137.47629 L 136.66828 138.54334 L 137.8886 139.6481 L 139.10874 140.79178 L 140.32907 141.97623 L 141.5494 143.20284 L 142.76955 144.47223 L 143.98987 145.78739 L 145.21 147.14919 L 146.43035 148.5586 L 147.65067 150.01923 L 148.8708 151.52989 L 150.09113 153.09545 L 151.31128 154.71628 L 152.5316 156.39418 L 153.75193 158.13141 L 154.97206 159.93018 L 156.1924 161.79288 L 157.41254 163.72177 L 158.63286 165.71965 L 159.8532 167.78676 L 161.07334 169.92786 L 162.29366 172.14545 L 163.5138 174.4405 L 164.73413 176.81728 L 165.95446 179.27959 L 167.17459 181.82743 L 168.39493 184.46726 L 169.61507 187.1975 L 170.8354 190.02758 L 172.05573 192.95752 L 173.27587 195.99217 L 174.49619 199.13072 L 175.71633 202.38184 L 176.93666 205.75081 L 178.15699 209.23677 L 179.37712 212.84618 L 180.59746 216.58634 L 181.8176 220.45642 L 183.03792 224.46431 L 184.25824 228.614 L 185.4784 232.91139 L 186.69872 237.36209 L 187.91886 241.96715 L 189.13919 246.737 L 190.35951 251.67633 L 191.57965 256.79057 L 192.79998 262.0846 L 194.02013 267.5682 L 195.24047 273.24635 L 196.46079 279.1226 L 197.68093 285.2129 L 198.90125 291.51603 L 200.12139 298.03965 L 201.34172 304.802 L 202.56204 311.8005 L 203.78218 319.04319 L 205.00252 326.55015 L 206.22266 334.3133 L 207.44298 342.35285 L 208.6633 350.6829 L 209.88346 359.3035 L 211.10378 368.2307 L 212.32392 377.47874 L 213.54425 387.04756 L 214.76457 396.96537 L 215.98471 407.2241 L 217.20503 417.84803 L 218.42519 428.84718 L 219.64553 440.24986 L 220.86585 452.03984 L 222.08599 464.25148 L 223.3063 476.911 L 224.52645 490.00227 L 225.74677 503.5596 L 226.9671 517.601 L 228.18724 532.13888 L 229.40758 547.19918 L 230.62772 562.7779 L 231.84804 578.91958 L 233.06836 595.64028 L 234.2885 612.93588 L 235.50884 630.8509 L 236.72898 649.3953 L 237.94931 668.6136 L 239.16963 688.50369 L 240.38977 709.0938 L 241.61009 730.4183 L 242.83023 752.50338 "/>
<path transform="matrix(2.7777777,0,0,-2.7777777,-66.899997,522.95278)" stroke-width=".79701" stroke-linecap="butt" stroke-miterlimit="10" stroke-linejoin="miter" fill="none" stroke="#ff0000" d="M 122.02528 0 L 123.2456 32.07011 L 124.46574 46.95975 L 125.68607 56.75932 L 126.90622 64.08003 L 128.12654 69.92474 L 129.34687 74.78743 L 130.567 78.95274 L 131.78734 82.59941 L 133.00748 85.83772 L 134.22782 88.7512 L 135.44814 91.39897 L 136.66828 93.82521 L 137.8886 96.06546 L 139.10874 98.14711 L 140.32907 100.0873 L 141.5494 101.90875 L 142.76955 103.62161 L 143.98987 105.2396 L 145.21 106.77171 L 146.43035 108.2273 L 147.65067 109.61362 L 148.8708 110.93706 L 150.09113 112.2043 L 151.31128 113.41628 L 152.5316 114.58078 L 153.75193 115.70078 L 154.97206 116.77826 L 156.1924 117.81793 L 157.41254 118.82034 L 158.63286 119.791 L 159.8532 120.73083 L 161.07334 121.63924 L 162.29366 122.52289 L 163.5138 123.37566 L 164.73413 124.20926 L 165.95446 125.01987 L 167.17459 125.80133 L 168.39493 126.56885 L 169.61507 127.31894 L 170.8354 128.04685 L 172.05573 128.75617 L 173.27587 129.44945 L 174.49619 130.12618 L 175.71633 130.7883 L 176.93666 131.43535 L 178.15699 132.06781 L 179.37712 132.68746 L 180.59746 133.29375 L 181.8176 133.88779 L 183.03792 134.47019 L 184.25824 135.04125 L 185.4784 135.60007 L 186.69872 136.14842 L 187.91886 136.68863 L 189.13919 137.2178 L 190.35951 137.7379 L 191.57965 138.24694 L 192.79998 138.74872 L 194.02013 139.24268 L 195.24047 139.72814 L 196.46079 140.20548 L 197.68093 140.6741 L 198.90125 141.13539 L 200.12139 141.59152 L 201.34172 142.03914 L 202.56204 142.48069 L 203.78218 142.91316 L 205.00252 143.34247 L 206.22266 143.76192 L 207.44298 144.17899 L 208.6633 144.58942 L 209.88346 144.99163 L 211.10378 145.39151 L 212.32392 145.78357 L 213.54425 146.17272 L 214.76457 146.55693 L 215.98471 146.92977 L 217.20503 147.3035 L 218.42519 147.6737 L 219.64553 148.04161 L 220.86585 148.40106 L 222.08599 148.75528 L 223.3063 149.10659 L 224.52645 149.45293 L 225.74677 149.79521 L 226.9671 150.13431 L 228.18724 150.46846 L 229.40758 150.7991 L 230.62772 151.12625 L 231.84804 151.44962 L 233.06836 151.76976 L 234.2885 152.08644 L 235.50884 152.39873 L 236.72898 152.70873 L 237.94931 153.01522 L 239.16963 153.31908 L 240.38977 153.61827 L 241.61009 153.91544 L 242.83023 154.20938 "/>
<path transform="matrix(2.7777777,0,0,-2.7777777,-66.899997,522.95278)" stroke-width=".79701" stroke-linecap="butt" stroke-dasharray="2.98883,2.98883" stroke-miterlimit="10" stroke-linejoin="miter" fill="none" stroke="#929292" d="M 24.28363 26.66963 L 25.25986 27.48065 L 26.23608 28.2917 L 27.21231 29.10272 L 28.18854 29.91379 L 29.16476 30.72482 L 30.14099 31.53586 L 31.11722 32.34688 L 32.09343 33.15793 L 33.06966 33.96895 L 34.04588 34.77998 L 35.02211 35.59102 L 35.99834 36.40208 L 36.97456 37.21312 L 37.9508 38.02415 L 38.92703 38.83517 L 39.90326 39.64622 L 40.87949 40.45724 L 41.85571 41.26828 L 42.83192 42.07932 L 43.80815 42.89038 L 44.78438 43.70142 L 45.7606 44.51245 L 46.73683 45.32347 L 47.71306 46.13452 L 48.68929 46.94554 L 49.66553 47.75658 L 50.64175 48.56764 L 51.61798 49.37868 L 52.59421 50.1897 L 53.57042 51.00075 L 54.54665 51.81177 L 55.52287 52.62282 L 56.4991 53.43384 L 57.47533 54.24487 L 58.45155 55.05591 L 59.4278 55.86697 L 60.40402 56.678 L 61.38025 57.48904 L 62.35648 58.30006 L 63.3327 59.1111 L 64.30891 59.92213 L 65.28514 60.73317 L 66.26137 61.54424 L 67.2376 62.35527 L 68.21382 63.16629 L 69.19005 63.97734 L 70.16628 64.78836 L 71.1425 65.5994 L 72.11874 66.41043 L 73.09497 67.22147 L 74.0712 68.03253 L 75.04741 68.84357 L 76.02364 69.65459 L 76.99986 70.46564 L 77.97609 71.27666 L 78.95232 72.08769 L 79.92854 72.89873 L 80.90477 73.7098 L 81.88101 74.52081 L 82.85724 75.33186 L 83.83347 76.14288 L 84.8097 76.95392 L 85.78592 77.76495 L 86.76213 78.57597 L 87.73836 79.38702 L 88.71458 80.19807 L 89.69081 81.00911 L 90.66704 81.82014 L 91.64326 82.63118 L 92.61949 83.44221 L 93.59572 84.25325 L 94.57196 85.06427 L 95.54819 85.87532 L 96.52441 86.68637 L 97.50063 87.4974 L 98.47685 88.30844 L 99.45308 89.11948 L 100.4293 89.9305 L 101.40553 90.74155 L 102.38176 91.55257 L 103.35799 92.36365 L 104.33421 93.17467 L 105.31044 93.9857 L 106.28667 94.79674 L 107.26291 95.60777 L 108.23912 96.4188 L 109.21535 97.22984 L 110.19157 98.04086 L 111.1678 98.85193 L 112.14403 99.66296 L 113.12025 100.474 L 114.09648 101.28503 L 115.07271 102.09607 L 116.04893 102.90709 L 117.02516 103.71814 L 118.0014 104.52916 L 118.97762 105.34023 L 119.95384 106.15126 L 120.93007 106.9623 L 121.9063 107.77333 L 122.88258 108.58443 L 123.85872 109.39536 L 124.835 110.20647 L 125.81114 111.01743 L 126.78743 111.82852 L 127.76372 112.63959 L 128.73986 113.45056 L 129.71613 114.26164 L 130.69228 115.07263 L 131.66857 115.88368 L 132.64485 116.6948 L 133.62099 117.50575 L 134.59728 118.31682 L 135.57341 119.12779 L 136.5497 119.93889 L 137.52599 120.74997 L 138.50212 121.56093 L 139.47841 122.37201 L 140.45455 123.183 L 141.43083 123.99408 L 142.4071 124.80515 L 143.38326 125.61612 L 144.35955 126.42722 L 145.33568 127.23814 L 146.31197 128.04926 L 147.28826 128.86034 L 148.26439 129.6713 L 149.24068 130.48238 L 150.21681 131.29334 L 151.1931 132.10445 L 152.16938 132.91555 L 153.14551 133.72647 L 154.1218 134.53757 L 155.09795 135.34854 L 156.07424 136.15962 L 157.05052 136.9707 L 158.02666 137.78166 L 159.00295 138.59276 L 159.97908 139.4037 L 160.95537 140.2148 L 161.93166 141.0259 L 162.90778 141.83687 L 163.88407 142.64792 L 164.86022 143.45891 L 165.8365 144.26999 L 166.81278 145.08106 L 167.78893 145.89203 L 168.76522 146.70313 L 169.74135 147.5141 L 170.71764 148.32517 L 171.69393 149.13625 L 172.67006 149.94724 L 173.64633 150.75832 L 174.62247 151.56926 L 175.59876 152.38036 L 176.57505 153.19145 L 177.5512 154.00241 L 178.52748 154.81349 L 179.50362 155.62445 L 180.4799 156.43556 L 181.45619 157.24662 L 182.43233 158.05759 L 183.40862 158.86869 L 184.38474 159.67966 L 185.36103 160.4907 L 186.33731 161.30182 L 187.31346 162.11278 L 188.28974 162.92389 L 189.26589 163.73482 L 190.24217 164.54592 L 191.21846 165.35701 L 192.1946 166.16799 L 193.17089 166.97904 L 194.14702 167.79003 L 195.12329 168.6011 L 196.09958 169.41217 L 197.07572 170.22315 L 198.052 171.03424 L 199.02814 171.84522 L 200.00444 172.65628 L 200.98073 173.46736 L 201.95687 174.27835 L 202.93315 175.0894 L 203.90929 175.90038 L 204.88558 176.71147 L 205.86185 177.52257 L 206.83798 178.33351 L 207.81427 179.1446 L 208.7904 179.95557 L 209.7667 180.76668 L 210.74298 181.57773 L 211.71913 182.38869 L 212.6954 183.1998 L 213.67156 184.01076 L 214.64785 184.82183 L 215.62413 185.63294 L 216.60027 186.4439 L 217.57654 187.25499 L 218.55268 188.06594 "/>
</g>
<symbol id="font_2_3">
<path d="M .305 .31300003 C .311 .33900003 .334 .43100003 .404 .43100003 C .409 .43100003 .433 .43100003 .454 .418 C .426 .41300003 .40600003 .388 .40600003 .36400003 C .40600003 .34800003 .417 .32900004 .444 .32900004 C .46600003 .32900004 .498 .34700004 .498 .38700003 C .498 .43900005 .439 .45300005 .405 .45300005 C .347 .45300005 .312 .40000005 .3 .37700004 C .275 .44300003 .221 .45300005 .19200002 .45300005 C .08800001 .45300005 .031000002 .32400004 .031000002 .29900003 C .031000002 .28900004 .041 .28900004 .043000007 .28900004 C .051000008 .28900004 .054000006 .291 .056 .3 C .09 .40600003 .156 .43100003 .19000001 .43100003 C .209 .43100003 .244 .42200003 .244 .36400003 C .244 .33300004 .22700002 .26600004 .19000001 .126 C .17400001 .064 .13900002 .022000002 .095000009 .022000002 C .08900001 .022000002 .06600001 .022000002 .045 .035 C .07000001 .040000004 .09200001 .061 .09200001 .089 C .09200001 .116000007 .07000001 .124000009 .055000009 .124000009 C .025 .124000009 0 .098000008 0 .06600001 C 0 .020000002 .050000006 0 .094000007 0 C .16000001 0 .19600001 .07000001 .19900002 .076000008 C .21100001 .039 .24700003 0 .307 0 C .41 0 .467 .12900001 .467 .15400002 C .467 .16400002 .458 .16400002 .455 .16400002 C .446 .16400002 .444 .16000001 .442 .15300001 C .409 .046 .341 .022000002 .30900003 .022000002 C .27 .022000002 .254 .054 .254 .08800001 C .254 .11000001 .26 .13200002 .271 .17600002 L .305 .31300003 Z "/>
</symbol>
<use xlink:href="#font_2_3" transform="matrix(27.673888,0,0,-27.673888,515.3914,215.24053)"/>
<symbol id="font_2_4">
<path d="M .45700003 .586 C .461 .6 .461 .602 .461 .609 C .461 .62700006 .447 .63600006 .432 .63600006 C .42200003 .63600006 .40600003 .63 .397 .615 C .395 .61 .387 .579 .38300003 .561 C .37600003 .535 .36900003 .508 .363 .48100005 L .318 .301 C .314 .286 .271 .21600002 .20500002 .21600002 C .15400002 .21600002 .143 .26000003 .143 .29700003 C .143 .34300003 .16000001 .40500004 .194 .49300004 C .21000001 .53400006 .21400002 .545 .21400002 .56500008 C .21400002 .61 .18200001 .6470001 .13200002 .6470001 C .037 .6470001 0 .50200006 0 .49300004 C 0 .48300005 .01 .48300005 .012 .48300005 C .022000002 .48300005 .023 .485 .028000003 .50100007 C .055000009 .595 .095000009 .625 .12900001 .625 C .13700001 .625 .15400002 .625 .15400002 .59300008 C .15400002 .568 .14400001 .54200008 .13700001 .523 C .097 .41700004 .079 .36 .079 .31300003 C .079 .224 .142 .194 .201 .194 C .24000003 .194 .274 .21100001 .30200003 .23900002 C .289 .187 .277 .13800001 .237 .08500001 C .21100001 .051 .17300001 .022 .127 .022 C .113000009 .022 .068 .025000006 .051000008 .06400001 C .067 .06400001 .080000009 .06400001 .094000007 .076000008 C .104 .08500001 .11400001 .098000008 .11400001 .117000009 C .11400001 .148 .087000008 .15200001 .07700001 .15200001 C .054000006 .15200001 .021 .136 .021 .087000008 C .021 .037 .065000008 0 .127 0 C .23 0 .333 .091000009 .361 .20400001 L .45700003 .586 Z "/>
</symbol>
<use xlink:href="#font_2_4" transform="matrix(27.673888,0,0,-27.673888,280.947,27.92037)"/>
<path transform="matrix(2.7777777,0,0,-2.7777777,-66.899997,522.95278)" d="M 143.13103 144.25756 L 214.46727 144.25756 L 214.46727 184.6381 L 143.13103 184.6381 Z " fill="#ffffff"/>
<path transform="matrix(2.7777777,0,0,-2.7777777,-66.899997,522.95278)" stroke-width=".3985" stroke-linecap="butt" stroke-miterlimit="10" stroke-linejoin="miter" fill="none" stroke="#000000" d="M 143.13103 144.25756 L 214.46727 144.25756 L 214.46727 184.6381 L 143.13103 184.6381 Z "/>
<path transform="matrix(2.7777777,0,0,-2.7777777,340.08888,32.413896)" stroke-width=".79701" stroke-linecap="butt" stroke-miterlimit="10" stroke-linejoin="miter" fill="none" stroke="#0000ff" d="M 0 0 L 8.50412 0 L 17.00826 0 "/>
<use xlink:href="#font_2_4" transform="matrix(27.673888,0,0,-27.673888,415.2803,45.20092)"/>
<symbol id="font_0_2">
<path d="M .63100007 .19400002 C .646 .19400002 .665 .19400002 .665 .214 C .665 .23400001 .646 .23400001 .632 .23400001 L .033 .23400001 C .019000002 .23400001 0 .23400001 0 .214 C 0 .19400002 .019000002 .19400002 .034 .19400002 L .63100007 .19400002 M .632 0 C .646 0 .665 0 .665 .02000001 C .665 .040000008 .646 .040000008 .63100007 .040000008 L .034 .040000008 C .019000002 .040000008 0 .040000008 0 .02000001 C 0 0 .019000002 0 .033 0 L .632 0 Z "/>
</symbol>
<use xlink:href="#font_0_2" transform="matrix(27.673888,0,0,-27.673888,438.27473,35.847146)"/>
<symbol id="font_2_2">
<path d="M .33300004 .38900004 C .31500004 .42600004 .286 .45300005 .24100001 .45300005 C .124 .45300005 0 .30600003 0 .16000001 C 0 .06600001 .055000005 0 .133 0 C .153 0 .20300001 .0040000008 .263 .075 C .27100004 .033000005 .30600003 0 .35400004 0 C .38900004 0 .41200004 .023000002 .42800004 .055000005 C .44500003 .091000009 .45800004 .15200001 .45800004 .15400002 C .45800004 .16400002 .44900004 .16400002 .44600005 .16400002 C .43600003 .16400002 .43500004 .16000001 .43200005 .14600002 C .41500003 .081 .397 .022000002 .35600005 .022000002 C .32900004 .022000002 .32600004 .048 .32600004 .068 C .32600004 .09 .32800005 .098000008 .33900003 .14200002 C .35000003 .18400002 .35200004 .19400002 .36100004 .23200003 L .397 .37200005 C .40400005 .40000005 .40400005 .40200005 .40400005 .40600003 C .40400005 .42300005 .39200003 .43300004 .37500004 .43300004 C .35100005 .43300004 .33600004 .411 .33300004 .38900004 M .26800005 .13000001 C .263 .112 .263 .11000001 .24800001 .093 C .20400001 .038000004 .163 .022000002 .135 .022000002 C .08499999 .022000002 .07100001 .077 .07100001 .116000007 C .07100001 .16600001 .103 .28900004 .126 .335 C .157 .39400003 .202 .43100003 .242 .43100003 C .307 .43100003 .32100005 .34900005 .32100005 .34300003 C .32100005 .337 .31900005 .33100004 .31800003 .32600004 L .26800005 .13000001 Z "/>
</symbol>
<use xlink:href="#font_2_2" transform="matrix(27.673888,0,0,-27.673888,467.04307,39.832185)"/>
<symbol id="font_3_2">
<path d="M .201 .116000007 C .19100002 .082 .15800002 .028 .107 .028 C .10400001 .028 .07400001 .028 .053000004 .042000005 C .094000007 .055000005 .09700001 .091 .09700001 .097 C .09700001 .119 .080000009 .134 .057000005 .134 C .029000007 .134 0 .11 0 .073 C 0 .023000002 .056 0 .10500001 0 C .15100003 0 .192 .029000003 .21700001 .071 C .241 .018000002 .296 0 .336 0 C .451 0 .512 .125 .512 .15300001 C .512 .16600001 .49900005 .16600001 .49600003 .16600001 C .48200003 .16600001 .48100005 .16100002 .47700004 .14900002 C .456 .08 .39600004 .028 .34 .028 C .3 .028 .279 .055000005 .279 .093 C .279 .119 .303 .21000001 .331 .321 C .351 .398 .39600004 .423 .42900003 .423 C .43100003 .423 .46200005 .423 .483 .409 C .451 .4 .439 .372 .439 .354 C .439 .33200003 .456 .317 .479 .317 C .50200006 .317 .535 .336 .535 .37800003 C .535 .43400003 .47100006 .451 .43100003 .451 C .381 .451 .34100003 .418 .319 .38 C .301 .421 .255 .451 .199 .451 C .087000008 .451 .023000002 .328 .023000002 .298 C .023000002 .285 .037 .285 .040000008 .285 C .053000004 .285 .054000006 .289 .059000009 .30200003 C .084 .38 .14700002 .423 .19600001 .423 C .229 .423 .256 .405 .256 .357 C .256 .337 .24400002 .287 .23500002 .25300003 L .201 .116000007 Z "/>
</symbol>
<use xlink:href="#font_3_2" transform="matrix(19.371666,0,0,-19.371666,481.49375,29.6798)"/>
<path transform="matrix(2.7777777,0,0,-2.7777777,340.08888,66.43612)" stroke-width=".79701" stroke-linecap="butt" stroke-miterlimit="10" stroke-linejoin="miter" fill="none" stroke="#ff0000" d="M 0 0 L 8.50412 0 L 17.00826 0 "/>
<use xlink:href="#font_2_4" transform="matrix(27.673888,0,0,-27.673888,394.77754,79.64257)"/>
<use xlink:href="#font_0_2" transform="matrix(27.673888,0,0,-27.673888,417.7747,70.288799)"/>
<symbol id="font_3_1">
<path d="M .361 .39200003 C .34000004 .425 .306 .451 .25800003 .451 C .13000001 .451 0 .31 0 .16600001 C 0 .069000009 .065 0 .15100001 0 C .205 0 .25300003 .031000004 .29299999 .07 C .31200005 .010000001 .37 0 .39600004 0 C .43200005 0 .45700003 .022 .47500003 .053000004 C .49700005 .092 .51000007 .14900002 .51000007 .15300001 C .51000007 .16600001 .49700005 .16600001 .49400003 .16600001 C .48000003 .16600001 .47900004 .16200002 .47200007 .135 C .46000005 .087000008 .44100005 .028 .399 .028 C .37300004 .028 .366 .050000006 .366 .077 C .366 .094000007 .374 .13000001 .38100005 .15600002 C .388 .18300002 .398 .22400002 .403 .24600002 L .42300005 .322 C .42900003 .34800003 .44100005 .395 .44100005 .4 C .44100005 .42200003 .42300005 .432 .407 .432 C .39000006 .432 .36700005 .42000003 .361 .39200003 M .297 .135 C .29000003 .107 .268 .087000008 .246 .068 C .237 .060000004 .19700001 .028 .154 .028 C .117 .028 .081 .054000006 .081 .125 C .081 .17800002 .11 .28800003 .133 .328 C .179 .40800003 .23 .423 .25800003 .423 C .328 .423 .347 .347 .347 .336 C .347 .33200003 .34500004 .32500003 .34400005 .322 L .297 .135 Z "/>
</symbol>
<use xlink:href="#font_3_1" transform="matrix(19.371666,0,0,-19.371666,438.92884,64.12148)"/>
<symbol id="font_0_4">
<path d="M .144 .694 L 0 .683 L 0 .652 C .07000001 .652 .07800001 .64500007 .07800001 .596 L .07800001 .076000008 C .07800001 .031000002 .067 .031000002 0 .031000002 L 0 0 C .033 .001 .086 .003 .11100001 .003 C .136 .003 .185 .001 .22200004 0 L .22200004 .031000002 C .155 .031000002 .144 .031000002 .144 .076000008 L .144 .694 Z "/>
</symbol>
<symbol id="font_0_5">
<path d="M .44300003 .22500003 C .44300003 .35300002 .34300003 .45900003 .222 .45900003 C .097 .45900003 0 .35000003 0 .22500003 C 0 .096 .104 0 .22100002 0 C .342 0 .44300003 .098000008 .44300003 .22500003 M .222 .025000003 C .17900002 .025000003 .135 .046 .10800001 .092 C .083000008 .136 .083000008 .19700001 .083000008 .23300003 C .083000008 .272 .083000008 .32600004 .10700001 .37000004 C .134 .41600005 .18100001 .43700005 .22100002 .43700005 C .26500003 .43700005 .30800004 .41500003 .33400003 .37200005 C .36 .32900004 .36 .27100004 .36 .23300003 C .36 .19700001 .36 .143 .33800004 .09900001 C .316 .054 .272 .025000003 .222 .025000003 Z "/>
</symbol>
<symbol id="font_0_3">
<path d="M .19400002 .37800003 C .10700001 .37800003 .10700001 .47800005 .10700001 .50100007 C .10700001 .52800008 .10800001 .56 .12300001 .58500006 C .13100001 .59700009 .15400002 .62500008 .19400002 .62500008 C .28100003 .62500008 .28100003 .52500006 .28100003 .50200006 C .28100003 .47500003 .28000004 .44300003 .26500003 .41800005 C .25700004 .40600003 .23400003 .37800003 .19400002 .37800003 M .07800001 .33900003 C .07800001 .34300003 .07800001 .36600004 .095 .38600005 C .134 .35800005 .17500001 .35500003 .19400002 .35500003 C .28700004 .35500003 .356 .42400003 .356 .50100007 C .356 .53800007 .34000004 .57500007 .31500004 .59800007 C .351 .632 .38700003 .637 .40500004 .637 C .40700004 .637 .41200004 .637 .41500003 .63600006 C .404 .632 .39900003 .62100008 .39900003 .609 C .39900003 .592 .41200004 .58000007 .42800004 .58000007 C .43800003 .58000007 .45700003 .587 .45700003 .61 C .45700003 .62700006 .44500003 .65900006 .40600003 .65900006 C .38600005 .65900006 .342 .65300008 .3 .61200007 C .25800003 .64500007 .21600002 .64800009 .19400002 .64800009 C .10100001 .64800009 .032 .57900008 .032 .50200006 C .032 .458 .054 .42000003 .07900001 .39900003 C .066 .384 .048000006 .351 .048000006 .316 C .048000006 .28500004 .061 .24700001 .09200001 .22700002 C .032 .21000001 0 .16700001 0 .127 C 0 .055000009 .09900001 0 .22100002 0 C .33900003 0 .44300003 .051000015 .44300003 .12900001 C .44300003 .164 .42900003 .21500002 .37800003 .24300002 C .32500003 .27100004 .26700003 .27100004 .20600002 .27100004 C .18100001 .27100004 .13800001 .27100004 .13100001 .272 C .09900001 .27600003 .07800001 .307 .07800001 .33900003 M .222 .023000002 C .12100001 .023000002 .052000006 .074000019 .052000006 .127 C .052000006 .17300001 .09 .21000001 .134 .21300002 L .19300002 .21300002 C .279 .21300002 .39100004 .21300002 .39100004 .127 C .39100004 .073000017 .32000003 .023000002 .222 .023000002 Z "/>
</symbol>
<use xlink:href="#font_0_4" transform="matrix(27.673888,0,0,-27.673888,459.73545,73.96942)"/>
<use xlink:href="#font_0_5" transform="matrix(27.673888,0,0,-27.673888,467.2904,74.273838)"/>
<use xlink:href="#font_0_3" transform="matrix(27.673888,0,0,-27.673888,481.12736,79.67024)"/>
<use xlink:href="#font_2_3" transform="matrix(27.673888,0,0,-27.673888,499.9831,74.273838)"/>
<symbol id="font_2_1">
<path d="M .592 .268 C .60300007 .273 .611 .278 .611 .29 C .611 .30200003 .60300007 .307 .592 .312 L .038000004 .5730001 C .024999999 .58000007 .023000002 .58000007 .020000004 .58000007 C .009000003 .58000007 0 .57100006 0 .56000009 C 0 .55100008 .0050000029 .545 .019000002 .53800007 L .544 .29 L .019000002 .042000005 C .0050000029 .035000005 0 .029000003 0 .020000002 C 0 .0090000019 .009000003 0 .020000004 0 C .023000002 0 .024999999 0 .038000004 .007000003 L .592 .268 Z "/>
</symbol>
<use xlink:href="#font_2_2" transform="matrix(27.673888,0,0,-27.673888,422.91249,107.32941)"/>
<use xlink:href="#font_2_1" transform="matrix(27.673888,0,0,-27.673888,446.4353,108.13195)"/>
<use xlink:href="#font_0_1" transform="matrix(27.673888,0,0,-27.673888,475.7935,107.024997)"/>
</g>
</svg>
