<?xml version="1.0" encoding="UTF-8" standalone="no"?>
<!DOCTYPE svg PUBLIC "-//W3C//DTD SVG 1.1//EN" "http://www.w3.org/Graphics/SVG/1.1/DTD/svg11.dtd">
<svg xmlns="http://www.w3.org/2000/svg" xmlns:xlink="http://www.w3.org/1999/xlink" version="1.1" width="540.74447pt" height="449.44444pt" viewBox="0 0 540.74447 449.44444">
<g enable-background="new">
<path transform="matrix(2.7777777,0,0,-2.7777777,45.524999,411.5278)" stroke-width=".3985" stroke-linecap="butt" stroke-miterlimit="10" stroke-linejoin="miter" fill="none" stroke="#000000" d="M -16.19016 7.91187 L 176.08959 7.91187 "/>
<path transform="matrix(2.7777777,0,0,-2.7777777,534.6627,389.55039)" d="M 1.99252 0 L -1.19551 1.59401 L 0 0 L -1.19551 -1.59401 "/>
<path transform="matrix(2.7777777,0,0,-2.7777777,45.524999,411.5278)" stroke-width=".3985" stroke-linecap="butt" stroke-miterlimit="10" stroke-linejoin="miter" fill="none" stroke="#000000" d="M 80.94597 -13.45099 L 80.94597 145.96025 "/>
<path transform="matrix(0,-2.7777777,-2.7777777,-0,270.3749,6.0826618)" d="M 1.99252 0 L -1.19551 1.59401 L 0 0 L -1.19551 -1.59401 "/>
<clipPath id="cp0">
<path transform="matrix(2.7777777,0,0,-2.7777777,45.524999,411.5278)" d="M -16.19016 -13.45099 L 178.0821 -13.45099 L 178.0821 147.95278 L -16.19016 147.95278 Z "/>
</clipPath>
<g clip-path="url(#cp0)">
<path transform="matrix(2.7777777,0,0,-2.7777777,45.524999,411.5278)" stroke-width=".79701" stroke-linecap="butt" stroke-miterlimit="10" stroke-linejoin="miter" fill="none" stroke="#0000ff" d="M 0 9.88982 L .8135 9.93127 L 1.62704 9.97417 L 2.44057 10.01831 L 3.2541 10.06277 L 4.06763 10.1085 L 4.88115 10.1544 L 5.69469 10.20203 L 6.50822 10.24933 L 7.32173 10.29997 L 8.13527 10.35075 L 8.9488 10.4014 L 9.76233 10.45361 L 10.57585 10.50742 L 11.38939 10.56282 L 12.20291 10.61835 L 13.01645 10.67531 L 13.82997 10.7337 L 14.6435 10.79384 L 15.45703 10.85411 L 16.27057 10.91742 L 17.08408 10.98071 L 17.89761 11.04558 L 18.71114 11.11061 L 19.52467 11.17851 L 20.3382 11.24829 L 21.15172 11.31776 L 21.96526 11.3907 L 22.7788 11.46333 L 23.5923 11.53944 L 24.40584 11.6154 L 25.21938 11.69295 L 26.0329 11.77364 L 26.84642 11.85434 L 27.65996 11.93837 L 28.47348 12.02382 L 29.28702 12.11067 L 30.10056 12.1993 L 30.91406 12.28966 L 31.7276 12.38142 L 32.54114 12.47653 L 33.35466 12.57289 L 34.16818 12.67116 L 34.98172 12.77226 L 35.79524 12.8737 L 36.60878 12.97972 L 37.4223 13.08575 L 38.23582 13.19508 L 39.04936 13.30727 L 39.8629 13.42136 L 40.6764 13.53688 L 41.48994 13.65555 L 42.30348 13.77739 L 43.117 13.90082 L 43.93053 14.02757 L 44.74406 14.15717 L 45.55759 14.2885 L 46.37112 14.42332 L 47.18465 14.56099 L 47.99817 14.70183 L 48.8117 14.84424 L 49.62524 14.9914 L 50.43877 15.14014 L 51.25229 15.29362 L 52.06583 15.4487 L 52.87936 15.60852 L 53.69287 15.77008 L 54.50641 15.93623 L 55.31993 16.1057 L 56.13347 16.27975 L 56.947 16.4554 L 57.76051 16.63596 L 58.57405 16.82109 L 59.38759 17.00957 L 60.20111 17.20102 L 61.01463 17.39725 L 61.82817 17.59819 L 62.6417 17.80247 L 63.45523 18.0112 L 64.26875 18.22498 L 65.08228 18.44176 L 65.89581 18.66519 L 66.70935 18.89131 L 67.52286 19.1225 L 68.3364 19.3597 L 69.14992 19.60196 L 69.96346 19.84897 L 70.77698 20.10057 L 71.5905 20.35864 L 72.40404 20.62132 L 73.21758 20.88892 L 74.03108 21.16266 L 74.84462 21.44273 L 75.65816 21.72914 L 76.47168 22.0203 L 77.2852 22.31812 L 78.09874 22.62207 L 78.91226 22.9338 L 79.7258 23.25027 L 80.53932 23.57483 L 81.35284 23.90175 L 82.16643 24.23926 L 82.97989 24.58408 L 83.79346 24.93614 L 84.60692 25.29565 L 85.4205 25.66245 L 86.23407 26.03732 L 87.04753 26.42009 L 87.8611 26.81093 L 88.67456 27.21 L 89.48814 27.61748 L 90.30173 28.03333 L 91.11517 28.45819 L 91.92874 28.89223 L 92.7422 29.33514 L 93.55579 29.78738 L 94.36935 30.24944 L 95.18282 30.72083 L 95.9964 31.2025 L 96.80986 31.69398 L 97.62343 32.1967 L 98.437 32.70924 L 99.25046 33.233 L 100.06404 33.76736 L 100.87749 34.3133 L 101.69107 34.87138 L 102.50465 35.44041 L 103.31812 36.02162 L 104.13167 36.615 L 104.94513 37.22139 L 105.75871 37.83977 L 106.5723 38.47256 L 107.38574 39.11722 L 108.19933 39.7766 L 109.01279 40.44879 L 109.82635 41.13634 L 110.63992 41.83763 L 111.45338 42.55351 L 112.26697 43.28613 L 113.08043 44.03238 L 113.89401 44.79526 L 114.70758 45.57457 L 115.52103 46.3694 L 116.33461 47.18147 L 117.14807 48.01079 L 117.96164 48.85768 L 118.77522 49.72133 L 119.58868 50.60526 L 120.40227 51.50658 L 121.2157 52.4261 L 122.02928 53.36665 L 122.84286 54.32668 L 123.65633 55.3068 L 124.4699 56.30653 L 125.28336 57.32971 L 126.09694 58.37265 L 126.9105 59.43901 L 127.72395 60.52626 L 128.53754 61.63788 L 129.351 62.77165 L 130.16458 63.92947 L 130.97815 65.11324 L 131.79161 66.32108 L 132.60518 67.5547 L 133.41864 68.81331 L 134.23221 70.10042 L 135.04579 71.41347 L 135.85926 72.75327 L 136.67284 74.1228 L 137.48628 75.52037 L 138.29987 76.94925 L 139.11344 78.40518 L 139.9269 79.89546 L 140.74047 81.41518 L 141.55393 82.96701 L 142.36751 84.55225 L 143.18109 86.17148 L 143.99456 87.82333 L 144.8081 89.5095 L 145.62157 91.23396 L 146.43515 92.99199 L 147.24874 94.79034 L 148.06218 96.6229 L 148.87577 98.49644 L 149.68923 100.41031 L 150.50279 102.36266 L 151.31636 104.35834 L 152.12982 106.39328 L 152.9434 108.47362 L 153.75687 110.5962 L 154.57044 112.76566 L 155.38402 114.9797 L 156.19747 117.23901 L 157.01105 119.54944 L 157.8245 121.90607 L 158.63808 124.3135 L 159.45166 126.7698 L 160.26512 129.28057 L 161.07869 131.8448 L 161.89214 134.46062 "/>
<path transform="matrix(2.7777777,0,0,-2.7777777,45.524999,411.5278)" stroke-width=".79701" stroke-linecap="butt" stroke-miterlimit="10" stroke-linejoin="miter" fill="none" stroke="#ff0000" d="M 0 134.50177 L .8135 131.8448 L 1.62704 129.27835 L 2.44057 126.7698 L 3.2541 124.31128 L 4.06763 121.90607 L 4.88115 119.54898 L 5.69469 117.23901 L 6.50822 114.9797 L 7.32173 112.76437 L 8.13527 110.5962 L 8.9488 108.47218 L 9.76233 106.39328 L 10.57585 104.35628 L 11.38939 102.36266 L 12.20291 100.41031 L 13.01645 98.4958 L 13.82997 96.6229 L 14.6435 94.78894 L 15.45703 92.99199 L 16.27057 91.23302 L 17.08408 89.5095 L 17.89761 87.82222 L 18.71114 86.171 L 19.52467 84.55225 L 20.3382 82.96701 L 21.15172 81.41518 L 21.96526 79.89452 L 22.7788 78.40518 L 23.5923 76.94766 L 24.40584 75.52037 L 25.21938 74.1228 L 26.0329 72.75327 L 26.84642 71.41347 L 27.65996 70.10025 L 28.47348 68.81331 L 29.28702 67.55359 L 30.10056 66.32108 L 30.91406 65.11278 L 31.7276 63.92947 L 32.54114 62.77165 L 33.35466 61.63708 L 34.16818 60.52626 L 34.98172 59.43774 L 35.79524 58.37265 L 36.60878 57.32877 L 37.4223 56.30653 L 38.23582 55.30554 L 39.04936 54.32668 L 39.8629 53.36665 L 40.6764 52.4261 L 41.48994 51.50658 L 42.30348 50.60399 L 43.117 49.72133 L 43.93053 48.85657 L 44.74406 48.01079 L 45.55759 47.18098 L 46.37112 46.3694 L 47.18465 45.57457 L 47.99817 44.79494 L 48.8117 44.03238 L 49.62524 43.28534 L 50.43877 42.55351 L 51.25229 41.83748 L 52.06583 41.13634 L 52.87936 40.4483 L 53.69287 39.77612 L 54.50641 39.11722 L 55.31993 38.47208 L 56.13347 37.83977 L 56.947 37.22107 L 57.76051 36.615 L 58.57405 36.02113 L 59.38759 35.44041 L 60.20111 34.87138 L 61.01463 34.3133 L 61.82817 33.76736 L 62.6417 33.23283 L 63.45523 32.70924 L 64.26875 32.19623 L 65.08228 31.69398 L 65.89581 31.2022 L 66.70935 30.72083 L 67.52286 30.24944 L 68.3364 29.78706 L 69.14992 29.33514 L 69.96346 28.89207 L 70.77698 28.45819 L 71.5905 28.03316 L 72.40404 27.61748 L 73.21758 27.20984 L 74.03108 26.81078 L 74.84462 26.42009 L 75.65816 26.03716 L 76.47168 25.66245 L 77.2852 25.29533 L 78.09874 24.93614 L 78.91226 24.58376 L 79.7258 24.23926 L 80.53932 23.90143 L 81.35284 23.57483 L 82.16643 23.25027 L 82.97989 22.9338 L 83.79346 22.62207 L 84.60692 22.31812 L 85.4205 22.0203 L 86.23407 21.72914 L 87.04753 21.44273 L 87.8611 21.16266 L 88.67456 20.88892 L 89.48814 20.62132 L 90.30173 20.35864 L 91.11517 20.10057 L 91.92874 19.84897 L 92.7422 19.60196 L 93.55579 19.3597 L 94.36935 19.1225 L 95.18282 18.89131 L 95.9964 18.66519 L 96.80986 18.44176 L 97.62343 18.22354 L 98.437 18.0112 L 99.25046 17.80247 L 100.06404 17.59819 L 100.87749 17.39725 L 101.69107 17.20102 L 102.50465 17.00957 L 103.31812 16.82109 L 104.13167 16.63596 L 104.94513 16.4554 L 105.75871 16.27975 L 106.5723 16.1057 L 107.38574 15.93623 L 108.19933 15.77008 L 109.01279 15.60852 L 109.82635 15.4487 L 110.63992 15.29362 L 111.45338 15.14014 L 112.26697 14.9914 L 113.08043 14.84424 L 113.89401 14.70183 L 114.70758 14.56099 L 115.52103 14.42332 L 116.33461 14.2885 L 117.14807 14.15717 L 117.96164 14.02757 L 118.77522 13.90082 L 119.58868 13.77739 L 120.40227 13.65555 L 121.2157 13.53688 L 122.02928 13.42136 L 122.84286 13.30727 L 123.65633 13.19508 L 124.4699 13.08575 L 125.28336 12.97972 L 126.09694 12.8737 L 126.9105 12.77086 L 127.72395 12.67116 L 128.53754 12.57289 L 129.351 12.47653 L 130.16458 12.38142 L 130.97815 12.28966 L 131.79161 12.1993 L 132.60518 12.11067 L 133.41864 12.02382 L 134.23221 11.93837 L 135.04579 11.85434 L 135.85926 11.77364 L 136.67284 11.69295 L 137.48628 11.6154 L 138.29987 11.53944 L 139.11344 11.46333 L 139.9269 11.3907 L 140.74047 11.31776 L 141.55393 11.24829 L 142.36751 11.17851 L 143.18109 11.11061 L 143.99456 11.04558 L 144.8081 10.98071 L 145.62157 10.91742 L 146.43515 10.85411 L 147.24874 10.79384 L 148.06218 10.7337 L 148.87577 10.67531 L 149.68923 10.61835 L 150.50279 10.56282 L 151.31636 10.50742 L 152.12982 10.45361 L 152.9434 10.4014 L 153.75687 10.35075 L 154.57044 10.29997 L 155.38402 10.24933 L 156.19747 10.20203 L 157.01105 10.1544 L 157.8245 10.1085 L 158.63808 10.06277 L 159.45166 10.01831 L 160.26512 9.97417 L 161.07869 9.93127 L 161.89214 9.89029 "/>
<symbol id="font_1_6">
<path d="M .45700003 .586 C .461 .6 .461 .602 .461 .609 C .461 .62700006 .447 .63600006 .432 .63600006 C .42200003 .63600006 .40600003 .63 .397 .615 C .395 .61 .387 .579 .38300003 .561 C .37600003 .535 .36900003 .508 .363 .48100005 L .318 .301 C .314 .286 .271 .21600002 .20500002 .21600002 C .15400002 .21600002 .143 .26000003 .143 .29700003 C .143 .34300003 .16000001 .40500004 .194 .49300004 C .21000001 .53400006 .21400002 .545 .21400002 .56500008 C .21400002 .61 .18200001 .6470001 .13200002 .6470001 C .037 .6470001 0 .50200006 0 .49300004 C 0 .48300005 .01 .48300005 .012 .48300005 C .022000002 .48300005 .023 .485 .028000003 .50100007 C .055000009 .595 .095000009 .625 .12900001 .625 C .13700001 .625 .15400002 .625 .15400002 .59300008 C .15400002 .568 .14400001 .54200008 .13700001 .523 C .097 .41700004 .079 .36 .079 .31300003 C .079 .224 .142 .194 .201 .194 C .24000003 .194 .274 .21100001 .30200003 .23900002 C .289 .187 .277 .13800001 .237 .08500001 C .21100001 .051 .17300001 .022 .127 .022 C .113000009 .022 .068 .025000006 .051000008 .06400001 C .067 .06400001 .080000009 .06400001 .094000007 .076000008 C .104 .08500001 .11400001 .098000008 .11400001 .117000009 C .11400001 .148 .087000008 .15200001 .07700001 .15200001 C .054000006 .15200001 .021 .136 .021 .087000008 C .021 .037 .065000008 0 .127 0 C .23 0 .333 .091000009 .361 .20400001 L .45700003 .586 Z "/>
</symbol>
<use xlink:href="#font_1_6" transform="matrix(27.673888,0,0,-27.673888,303.43589,94.0454)"/>
<symbol id="font_2_4">
<path d="M .63100007 .19400002 C .646 .19400002 .665 .19400002 .665 .214 C .665 .23400001 .646 .23400001 .632 .23400001 L .033 .23400001 C .019000002 .23400001 0 .23400001 0 .214 C 0 .19400002 .019000002 .19400002 .034 .19400002 L .63100007 .19400002 M .632 0 C .646 0 .665 0 .665 .02000001 C .665 .040000008 .646 .040000008 .63100007 .040000008 L .034 .040000008 C .019000002 .040000008 0 .040000008 0 .02000001 C 0 0 .019000002 0 .033 0 L .632 0 Z "/>
</symbol>
<symbol id="font_2_3">
<path d="M .07700001 .07700001 L .18300002 .18 C .33900003 .31800003 .39900003 .372 .39900003 .47200004 C .39900003 .586 .30900003 .666 .18700002 .666 C .074 .666 0 .574 0 .485 C 0 .42900003 .05 .42900003 .053000008 .42900003 C .07000001 .42900003 .105000007 .441 .105000007 .48200003 C .105000007 .508 .08700001 .53400006 .052000006 .53400006 C .044000005 .53400006 .042000008 .53400006 .039 .53300008 C .062000004 .59800007 .11600001 .63500007 .17400001 .63500007 C .26500003 .63500007 .308 .554 .308 .47200004 C .308 .39200003 .25800003 .31300003 .20300003 .25100003 L .011000004 .037 C 0 .026 0 .024 0 0 L .37100003 0 L .39900003 .17400001 L .374 .17400001 C .36900003 .14400001 .36200003 .1 .352 .085 C .345 .07700001 .279 .07700001 .257 .07700001 L .07700001 .07700001 Z "/>
</symbol>
<use xlink:href="#font_2_4" transform="matrix(27.673888,0,0,-27.673888,326.43309,84.69163)"/>
<use xlink:href="#font_2_3" transform="matrix(27.673888,0,0,-27.673888,355.49064,88.37225)"/>
<symbol id="font_3_1">
<path d="M .201 .116000007 C .19100002 .082 .15800002 .028 .107 .028 C .10400001 .028 .07400001 .028 .053000004 .042000005 C .094000007 .055000005 .09700001 .091 .09700001 .097 C .09700001 .119 .080000009 .134 .057000005 .134 C .029000007 .134 0 .11 0 .073 C 0 .023000002 .056 0 .10500001 0 C .15100003 0 .192 .029000003 .21700001 .071 C .241 .018000002 .296 0 .336 0 C .451 0 .512 .125 .512 .15300001 C .512 .16600001 .49900005 .16600001 .49600003 .16600001 C .48200003 .16600001 .48100005 .16100002 .47700004 .14900002 C .456 .08 .39600004 .028 .34 .028 C .3 .028 .279 .055000005 .279 .093 C .279 .119 .303 .21000001 .331 .321 C .351 .398 .39600004 .423 .42900003 .423 C .43100003 .423 .46200005 .423 .483 .409 C .451 .4 .439 .372 .439 .354 C .439 .33200003 .456 .317 .479 .317 C .50200006 .317 .535 .336 .535 .37800003 C .535 .43400003 .47100006 .451 .43100003 .451 C .381 .451 .34100003 .418 .319 .38 C .301 .421 .255 .451 .199 .451 C .087000008 .451 .023000002 .328 .023000002 .298 C .023000002 .285 .037 .285 .040000008 .285 C .053000004 .285 .054000006 .289 .059000009 .30200003 C .084 .38 .14700002 .423 .19600001 .423 C .229 .423 .256 .405 .256 .357 C .256 .337 .24400002 .287 .23500002 .25300003 L .201 .116000007 Z "/>
</symbol>
<use xlink:href="#font_3_1" transform="matrix(19.371666,0,0,-19.371666,368.86039,78.52151)"/>
<symbol id="font_1_1">
<path d="M .117000009 .194 C .117000009 .26 .092 .29900003 .05300001 .29900003 C .020000004 .29900003 0 .274 0 .246 C 0 .21900001 .020000004 .193 .05300001 .193 C .065000008 .193 .078 .197 .08800001 .206 C .091 .208 .092 .209 .093 .209 C .094000007 .209 .095000009 .208 .095000009 .194 C .095000009 .12 .06000001 .060000004 .027000003 .026999996 C .016000003 .016000003 .016000003 .013999999 .016000003 .0109999929 C .016000003 .003999993 .021000006 0 .026 0 C .037 0 .117000009 .077 .117000009 .194 Z "/>
</symbol>
<symbol id="font_1_4">
<path d="M .33300004 .38900004 C .31500004 .42600004 .286 .45300005 .24100001 .45300005 C .124 .45300005 0 .30600003 0 .16000001 C 0 .06600001 .055000005 0 .133 0 C .153 0 .20300001 .0040000008 .263 .075 C .27100004 .033000005 .30600003 0 .35400004 0 C .38900004 0 .41200004 .023000002 .42800004 .055000005 C .44500003 .091000009 .45800004 .15200001 .45800004 .15400002 C .45800004 .16400002 .44900004 .16400002 .44600005 .16400002 C .43600003 .16400002 .43500004 .16000001 .43200005 .14600002 C .41500003 .081 .397 .022000002 .35600005 .022000002 C .32900004 .022000002 .32600004 .048 .32600004 .068 C .32600004 .09 .32800005 .098000008 .33900003 .14200002 C .35000003 .18400002 .35200004 .19400002 .36100004 .23200003 L .397 .37200005 C .40400005 .40000005 .40400005 .40200005 .40400005 .40600003 C .40400005 .42300005 .39200003 .43300004 .37500004 .43300004 C .35100005 .43300004 .33600004 .411 .33300004 .38900004 M .26800005 .13000001 C .263 .112 .263 .11000001 .24800001 .093 C .20400001 .038000004 .163 .022000002 .135 .022000002 C .08499999 .022000002 .07100001 .077 .07100001 .116000007 C .07100001 .16600001 .103 .28900004 .126 .335 C .157 .39400003 .202 .43100003 .242 .43100003 C .307 .43100003 .32100005 .34900005 .32100005 .34300003 C .32100005 .337 .31900005 .33100004 .31800003 .32600004 L .26800005 .13000001 Z "/>
</symbol>
<symbol id="font_1_3">
<path d="M .592 .268 C .60300007 .273 .611 .278 .611 .29 C .611 .30200003 .60300007 .307 .592 .312 L .038000004 .5730001 C .024999999 .58000007 .023000002 .58000007 .020000004 .58000007 C .009000003 .58000007 0 .57100006 0 .56000009 C 0 .55100008 .0050000029 .545 .019000002 .53800007 L .544 .29 L .019000002 .042000005 C .0050000029 .035000005 0 .029000003 0 .020000002 C 0 .0090000019 .009000003 0 .020000004 0 C .023000002 0 .024999999 0 .038000004 .007000003 L .592 .268 Z "/>
</symbol>
<use xlink:href="#font_1_1" transform="matrix(27.673888,0,0,-27.673888,384.24385,93.71331)"/>
<use xlink:href="#font_1_4" transform="matrix(27.673888,0,0,-27.673888,395.28578,88.67667)"/>
<use xlink:href="#font_1_3" transform="matrix(27.673888,0,0,-27.673888,418.7809,89.47921)"/>
<symbol id="font_2_2">
<path d="M .205 .64000007 C .205 .66400006 .205 .666 .18200003 .666 C .120000008 .60200008 .032000007 .60200008 0 .60200008 L 0 .57100006 C .020000004 .57100006 .07900001 .57100006 .13100001 .597 L .13100001 .079 C .13100001 .043 .128 .031000002 .038000004 .031000002 L .0060000049 .031000002 L .0060000049 0 C .04100001 .003 .128 .003 .168 .003 C .20800002 .003 .29500003 .003 .33000005 0 L .33000005 .031000002 L .29800005 .031000002 C .20800002 .031000002 .205 .042000005 .205 .079 L .205 .64000007 Z "/>
</symbol>
<use xlink:href="#font_2_2" transform="matrix(27.673888,0,0,-27.673888,448.1519,88.37225)"/>
<use xlink:href="#font_1_6" transform="matrix(27.673888,0,0,-27.673888,29.044209,94.46209)"/>
<use xlink:href="#font_2_4" transform="matrix(27.673888,0,0,-27.673888,52.03862,85.108318)"/>
<symbol id="font_4_1">
<path d="M .22600001 .63600006 C .22600001 .66300007 .224 .66400006 .19600001 .66400006 C .132 .601 .041 .6 0 .6 L 0 .564 C .023999997 .564 .09000001 .564 .14500001 .592 L .14500001 .082 C .14500001 .049000004 .14500001 .036000004 .04500001 .036000004 L .0069999995 .036000004 L .0069999995 0 C .024999999 .001 .148 .004 .185 .004 C .21600002 .004 .34200005 .001 .36400003 0 L .36400003 .036000004 L .32600004 .036000004 C .22600001 .036000004 .22600001 .049000004 .22600001 .082 L .22600001 .63600006 Z "/>
</symbol>
<use xlink:href="#font_4_1" transform="matrix(19.371666,0,0,-19.371666,91.30317,77.89172)"/>
<path transform="matrix(2.7777777,0,0,-2.7777777,83.02222,81.86951)" stroke-width=".398" stroke-linecap="butt" stroke-miterlimit="10" stroke-linejoin="miter" fill="none" stroke="#000000" d="M 0 0 L 8.413 0 "/>
<symbol id="font_4_2">
<path d="M .442 .18200001 L .40800003 .18200001 C .40500004 .16000001 .39500005 .101 .38200004 .091000009 C .374 .085 .29700003 .085 .28300003 .085 L .099 .085 C .20400003 .178 .23900002 .20600002 .29900003 .25300003 C .37300004 .312 .442 .374 .442 .469 C .442 .59000006 .33600004 .66400006 .20800004 .66400006 C .084 .66400006 0 .577 0 .485 C 0 .43400003 .043000007 .42900003 .053000004 .42900003 C .077 .42900003 .10600001 .446 .10600001 .48200003 C .10600001 .5 .099 .535 .047000007 .535 C .078 .606 .146 .628 .19300002 .628 C .293 .628 .34500004 .55 .34500004 .469 C .34500004 .38200004 .28300003 .31300003 .25100003 .277 L .010000005 .039 C 0 .030000002 0 .028 0 0 L .41200004 0 L .442 .18200001 Z "/>
</symbol>
<use xlink:href="#font_4_2" transform="matrix(19.371666,0,0,-19.371666,84.24263,98.333377)"/>
<symbol id="font_5_1">
<path d="M .52800008 .40300004 C .48200006 .38900004 .48200006 .34500004 .48200006 .344 C .48200006 .32700003 .49400003 .30300004 .527 .30300004 C .555 .30300004 .58900007 .32700003 .58900007 .37100003 C .58900007 .43000005 .52300009 .45300005 .47000004 .45300005 C .40500004 .45300005 .36300005 .411 .34300003 .38500003 C .31000004 .44200004 .24600002 .45300005 .21000001 .45300005 C .085 .45300005 .014000006 .335 .014000006 .298 C .014000006 .284 .030000002 .284 .035000005 .284 C .044000009 .284 .05200001 .28500004 .056 .29600004 C .086 .39400003 .16800002 .41900004 .20600003 .41900004 C .23900002 .41900004 .277 .40500004 .277 .35200004 C .277 .32700003 .25900004 .25800003 .22500003 .12500002 C .21000001 .068 .164 .034 .121000017 .034 C .114000018 .034 .085 .034 .06100001 .05 C .10600001 .06600001 .10600001 .104 .10600001 .108 C .10600001 .13700001 .084 .15000002 .062 .15000002 C .037000009 .15000002 0 .13000001 0 .082 C 0 .021000002 .06800001 0 .11900001 0 C .17400003 0 .21900001 .032 .24300003 .068 C .28300003 .008000001 .34700004 0 .37800003 0 C .504 0 .57500007 .119 .57500007 .15500002 C .57500007 .16900002 .558 .16900002 .554 .16900002 C .53700008 .16900002 .535 .16300002 .532 .15400002 C .503 .064 .42600007 .034 .38200004 .034 C .35200004 .034 .31100003 .045 .31100003 .101 C .31100003 .113000009 .31100003 .120000008 .31900005 .15400002 C .33600004 .22400002 .36300005 .335 .37100003 .35300002 C .38400004 .37900005 .41700007 .41900004 .46800006 .41900004 C .47100003 .41900004 .50500008 .41900004 .52800008 .40300004 Z "/>
</symbol>
<use xlink:href="#font_5_1" transform="matrix(13.836944,0,0,-13.836944,95.339618,92.94948)"/>
<use xlink:href="#font_1_1" transform="matrix(27.673888,0,0,-27.673888,112.091068,94.13)"/>
<symbol id="font_2_1">
<path d="M .421 .34200005 C .421 .42200003 .416 .50200006 .381 .57600006 C .335 .67200008 .25300003 .688 .211 .688 C .15100001 .688 .07800001 .66200008 .037000006 .56900009 C .0050000029 .5 0 .42200003 0 .34200005 C 0 .26700003 .0040000008 .177 .045000007 .101 C .088 .020000002 .161 0 .21000001 0 C .264 0 .34 .021000002 .384 .116000007 C .416 .185 .421 .263 .421 .34200005 M .21000001 .022000002 C .171 .022000002 .112 .047000003 .094 .143 C .083000008 .20300001 .083000008 .29500003 .083000008 .35400004 C .083000008 .41800005 .083000008 .48400004 .091000009 .53800007 C .11 .65700009 .185 .66600009 .21000001 .66600009 C .243 .66600009 .30900003 .64800009 .328 .549 C .338 .49300004 .338 .41700004 .338 .35400004 C .338 .279 .338 .21100001 .32700003 .147 C .312 .052 .255 .022000002 .21000001 .022000002 Z "/>
</symbol>
<use xlink:href="#font_2_1" transform="matrix(27.673888,0,0,-27.673888,123.0904,89.397769)"/>
<symbol id="font_1_2">
<path d="M .592 .53800007 C .60400006 .544 .611 .549 .611 .56000009 C .611 .57100006 .60200008 .58000007 .591 .58000007 C .588 .58000007 .586 .58000007 .573 .5730001 L .019000002 .312 C .008000001 .307 0 .30200003 0 .29 C 0 .278 .008000001 .273 .019000002 .268 L .573 .007000003 C .586 0 .588 0 .591 0 C .60200008 0 .611 .0090000019 .611 .020000002 C .611 .031000004 .60400006 .036000004 .592 .042000005 L .067 .29 L .592 .53800007 Z "/>
</symbol>
<use xlink:href="#font_1_2" transform="matrix(27.673888,0,0,-27.673888,145.83306,89.8959)"/>
<use xlink:href="#font_1_4" transform="matrix(27.673888,0,0,-27.673888,173.8667,89.09335)"/>
<use xlink:href="#font_1_2" transform="matrix(27.673888,0,0,-27.673888,197.38951,89.8959)"/>
<use xlink:href="#font_2_2" transform="matrix(27.673888,0,0,-27.673888,226.73799,88.78894)"/>
</g>
<symbol id="font_1_5">
<path d="M .305 .31300003 C .311 .33900003 .334 .43100003 .404 .43100003 C .409 .43100003 .433 .43100003 .454 .418 C .426 .41300003 .40600003 .388 .40600003 .36400003 C .40600003 .34800003 .417 .32900004 .444 .32900004 C .46600003 .32900004 .498 .34700004 .498 .38700003 C .498 .43900005 .439 .45300005 .405 .45300005 C .347 .45300005 .312 .40000005 .3 .37700004 C .275 .44300003 .221 .45300005 .19200002 .45300005 C .08800001 .45300005 .031000002 .32400004 .031000002 .29900003 C .031000002 .28900004 .041 .28900004 .043000007 .28900004 C .051000008 .28900004 .054000006 .291 .056 .3 C .09 .40600003 .156 .43100003 .19000001 .43100003 C .209 .43100003 .244 .42200003 .244 .36400003 C .244 .33300004 .22700002 .26600004 .19000001 .126 C .17400001 .064 .13900002 .022000002 .095000009 .022000002 C .08900001 .022000002 .06600001 .022000002 .045 .035 C .07000001 .040000004 .09200001 .061 .09200001 .089 C .09200001 .116000007 .07000001 .124000009 .055000009 .124000009 C .025 .124000009 0 .098000008 0 .06600001 C 0 .020000002 .050000006 0 .094000007 0 C .16000001 0 .19600001 .07000001 .19900002 .076000008 C .21100001 .039 .24700003 0 .307 0 C .41 0 .467 .12900001 .467 .15400002 C .467 .16400002 .458 .16400002 .455 .16400002 C .446 .16400002 .444 .16000001 .442 .15300001 C .409 .046 .341 .022000002 .30900003 .022000002 C .27 .022000002 .254 .054 .254 .08800001 C .254 .11000001 .26 .13200002 .271 .17600002 L .305 .31300003 Z "/>
</symbol>
<use xlink:href="#font_1_5" transform="matrix(27.673888,0,0,-27.673888,515.3998,380.07664)"/>
<use xlink:href="#font_1_6" transform="matrix(27.673888,0,0,-27.673888,280.95256,27.917624)"/>
</g>
</svg>
