<?xml version="1.0" encoding="UTF-8" standalone="no"?>
<!DOCTYPE svg PUBLIC "-//W3C//DTD SVG 1.1//EN" "http://www.w3.org/Graphics/SVG/1.1/DTD/svg11.dtd">
<svg xmlns="http://www.w3.org/2000/svg" xmlns:xlink="http://www.w3.org/1999/xlink" version="1.1" width="426.97779pt" height="323.85276pt" viewBox="0 0 426.97779 323.85276">
<g enable-background="new">
<path transform="matrix(2.7777777,0,0,-2.7777777,10.330556,237.32776)" stroke-width=".79701" stroke-linecap="butt" stroke-miterlimit="10" stroke-linejoin="miter" fill="none" stroke="#000000" d="M 0 0 L 113.38724 0 L 113.38724 85.0404 Z "/>
<symbol id="font_0_3">
<path d="M .35500003 .19799996 L .35400004 .19799996 L .13800001 1.2 L .0069999995 .9940001 C 0 .985 0 .98300006 0 .9820001 C 0 .97800007 .012999997 .9670001 .013999991 .9660001 L .081999998 1.0730001 L .31300003 0 C .34600003 0 .349 0 .35500003 .026000023 L .90500006 2.3590003 C .907 2.3660002 .9090001 2.3750003 .9090001 2.38 C .9090001 2.391 .9010001 2.4 .889 2.4 C .873 2.4 .87000009 2.387 .86700007 2.3730002 L .35500003 .19799996 Z "/>
</symbol>
<use xlink:href="#font_0_3" transform="matrix(27.673888,0,0,-27.673888,81.791248,314.627)"/>
<path transform="matrix(2.7777777,0,0,-2.7777777,106.39443,248.76386)" stroke-width=".398" stroke-linecap="butt" stroke-miterlimit="10" stroke-linejoin="miter" fill="none" stroke="#000000" d="M 0 0 L 54.183 0 "/>
<symbol id="font_1_1">
<path d="M .205 .64000007 C .205 .66400006 .205 .666 .18200003 .666 C .120000008 .60200008 .032000007 .60200008 0 .60200008 L 0 .57100006 C .020000004 .57100006 .07900001 .57100006 .13100001 .597 L .13100001 .079 C .13100001 .043 .128 .031000002 .038000004 .031000002 L .0060000049 .031000002 L .0060000049 0 C .04100001 .003 .128 .003 .168 .003 C .20800002 .003 .29500003 .003 .33000005 0 L .33000005 .031000002 L .29800005 .031000002 C .20800002 .031000002 .205 .042000005 .205 .079 L .205 .64000007 Z "/>
</symbol>
<use xlink:href="#font_1_1" transform="matrix(27.673888,0,0,-27.673888,108.85741,292.40553)"/>
<symbol id="font_2_1">
<path d="M .57600006 0 C .59300008 0 .611 0 .611 .019999996 C .611 .040000008 .59300008 .040000008 .57600006 .040000008 L .035000005 .040000008 C .018 .040000008 0 .040000008 0 .019999996 C 0 0 .018 0 .035000005 0 L .57600006 0 Z "/>
</symbol>
<use xlink:href="#font_2_1" transform="matrix(27.673888,0,0,-27.673888,128.67748,286.04054)"/>
<symbol id="font_0_1">
<path d="M .33500005 .011000037 C .337 .00999999 .34600003 0 .347 0 L .36900003 0 C .37200005 0 .38 .0009999275 .38 .00999999 C .38 .013999939 .37800003 .016000033 .37600006 .018999935 C .34000004 .054999949 .286 .110000018 .224 .22000003 C .116 .41199995 .076000008 .65900006 .076000008 .89900007 C .076000008 1.343 .20200002 1.6040001 .37700004 1.781 C .38 1.784 .38 1.7870001 .38 1.789 C .38 1.799 .37300004 1.799 .361 1.799 C .348 1.799 .34600003 1.799 .337 1.791 C .24200002 1.7090001 .13500002 1.57 .066 1.3590001 C .023000002 1.227 0 1.066 0 .90000006 C 0 .663 .042999999 .39499999 .20000002 .16299999 C .227 .12399995 .26400004 .082999948 .26400004 .08200002 C .27400003 .06999993 .28800003 .05400002 .296 .04699993 L .33500005 .011000037 Z "/>
</symbol>
<use xlink:href="#font_0_1" transform="matrix(27.673888,0,0,-27.673888,159.03684,310.36448)"/>
<use xlink:href="#font_2_1" transform="matrix(27.673888,0,0,-27.673888,172.88027,286.04054)"/>
<symbol id="font_3_2">
<path d="M .349 .10899997 L .153 .49800004 C .148 .508 .14500001 .51400008 .137 .51400008 C .13300002 .51400008 .13100001 .51400008 .121 .50600007 L .013999999 .435 C 0 .426 0 .421 0 .41799999 C 0 .412 .0050000029 .40399999 .013999999 .40399999 C .018 .40399999 .020000004 .40399999 .033 .413 C .044000009 .421 .07300001 .44099999 .085 .449 L .30400003 .01700002 C .31100003 .0019999743 .313 0 .32700003 0 C .336 0 .347 0 .35700003 .018999994 L .8600001 .95500007 C .8680001 .96800008 .8680001 .97 .8680001 .975 C .8680001 .99100008 .8550001 1 .84400007 1 C .82900008 1 .82400009 .99100008 .8180001 .97900006 L .349 .10899997 Z "/>
</symbol>
<use xlink:href="#font_3_2" transform="matrix(19.371666,0,0,-19.371666,197.24872,283.81687)"/>
<path transform="matrix(2.7777777,0,0,-2.7777777,213.60834,264.92497)" stroke-width=".339" stroke-linecap="butt" stroke-miterlimit="10" stroke-linejoin="miter" fill="none" stroke="#000000" d="M 0 0 L 3.971 0 "/>
<symbol id="font_4_3">
<path d="M .219 .35400004 C .29700003 .35400004 .35300002 .3 .35300002 .193 C .35300002 .069000009 .28100003 .032 .223 .032 C .18300002 .032 .095 .043000007 .053000008 .102000009 C .10000001 .10400001 .111 .13700001 .111 .158 C .111 .19 .087 .213 .056000007 .213 C .028 .213 0 .19600001 0 .155 C 0 .061000006 .104 0 .22500001 0 C .36400003 0 .46 .09300001 .46 .193 C .46 .27100004 .39600004 .34900005 .286 .37200005 C .39100004 .41000004 .42900003 .48500005 .42900003 .546 C .42900003 .625 .33800004 .684 .22700002 .684 C .116 .684 .031 .63 .031 .55 C .031 .51600006 .053000008 .49700005 .083000008 .49700005 C .11400001 .49700005 .134 .52 .134 .548 C .134 .577 .11400001 .598 .083000008 .6 C .118 .644 .187 .65500006 .22400002 .65500006 C .26900003 .65500006 .33200003 .633 .33200003 .546 C .33200003 .504 .31800003 .45800004 .29200004 .42700003 C .25900004 .38900004 .23100002 .38700003 .18100001 .38400004 C .156 .38200004 .154 .38200004 .149 .38100005 C .147 .38100005 .139 .37900005 .139 .36800004 C .139 .35400004 .148 .35400004 .165 .35400004 L .219 .35400004 Z "/>
</symbol>
<use xlink:href="#font_4_3" transform="matrix(19.371666,0,0,-19.371666,214.6544,281.82908)"/>
<path transform="matrix(2.7777777,0,0,-2.7777777,195.42777,285.48609)" stroke-width=".398" stroke-linecap="butt" stroke-miterlimit="10" stroke-linejoin="miter" fill="none" stroke="#000000" d="M 0 0 L 10.516 0 "/>
<symbol id="font_4_2">
<path d="M .442 .18200001 L .40800003 .18200001 C .40500004 .16000001 .39500005 .101 .38200004 .091000009 C .374 .085 .29700003 .085 .28300003 .085 L .099 .085 C .20400003 .178 .23900002 .20600002 .29900003 .25300003 C .37300004 .312 .442 .374 .442 .469 C .442 .59000006 .33600004 .66400006 .20800004 .66400006 C .084 .66400006 0 .577 0 .485 C 0 .43400003 .043000007 .42900003 .053000004 .42900003 C .077 .42900003 .10600001 .446 .10600001 .48200003 C .10600001 .5 .099 .535 .047000007 .535 C .078 .606 .146 .628 .19300002 .628 C .293 .628 .34500004 .55 .34500004 .469 C .34500004 .38200004 .28300003 .31300003 .25100003 .277 L .010000005 .039 C 0 .030000002 0 .028 0 0 L .41200004 0 L .442 .18200001 Z "/>
</symbol>
<use xlink:href="#font_4_2" transform="matrix(19.371666,0,0,-19.371666,205.73986,301.9472)"/>
<symbol id="font_0_2">
<path d="M .38 .90000006 C .38 1.187 .313 1.4920001 .11600001 1.717 C .10200001 1.733 .065 1.7720001 .041000006 1.7930001 C .033999999 1.799 .032 1.799 .019000002 1.799 C .009 1.799 0 1.799 0 1.789 C 0 1.7850001 .0040000008 1.781 .006000001 1.779 C .040000004 1.7440001 .09400001 1.689 .156 1.579 C .264 1.3870001 .304 1.1400001 .304 .90000006 C .304 .46599997 .18400002 .20099998 .0040000008 .018000007 C .0020000004 .016000033 0 .013000011 0 .00999999 C 0 0 .009 0 .019000002 0 C .032 0 .033999999 0 .043 .008000016 C .13800001 .09000003 .24500002 .22899997 .314 .44000007 C .358 .577 .38 .73899999 .38 .90000006 Z "/>
</symbol>
<use xlink:href="#font_0_2" transform="matrix(27.673888,0,0,-27.673888,228.95737,310.36448)"/>
<use xlink:href="#font_4_2" transform="matrix(19.371666,0,0,-19.371666,245.70929,267.4222)"/>
<use xlink:href="#font_1_1" transform="matrix(27.673888,0,0,-27.673888,148.55742,120.258319)"/>
<use xlink:href="#font_0_1" transform="matrix(27.673888,0,0,-27.673888,332.30073,133.03113)"/>
<use xlink:href="#font_2_1" transform="matrix(27.673888,0,0,-27.673888,346.14414,108.7072)"/>
<use xlink:href="#font_3_2" transform="matrix(19.371666,0,0,-19.371666,370.51258,106.48355)"/>
<path transform="matrix(2.7777777,0,0,-2.7777777,386.87223,87.59165)" stroke-width=".339" stroke-linecap="butt" stroke-miterlimit="10" stroke-linejoin="miter" fill="none" stroke="#000000" d="M 0 0 L 3.971 0 "/>
<use xlink:href="#font_4_3" transform="matrix(19.371666,0,0,-19.371666,387.9183,104.49574)"/>
<path transform="matrix(2.7777777,0,0,-2.7777777,368.69166,108.15276)" stroke-width=".398" stroke-linecap="butt" stroke-miterlimit="10" stroke-linejoin="miter" fill="none" stroke="#000000" d="M 0 0 L 10.516 0 "/>
<use xlink:href="#font_4_2" transform="matrix(19.371666,0,0,-19.371666,379.00376,124.61665)"/>
<use xlink:href="#font_0_2" transform="matrix(27.673888,0,0,-27.673888,402.22123,133.03113)"/>
<symbol id="font_1_4">
<path d="M .17500001 .20500002 C .197 .20100002 .279 .18500002 .279 .113000009 C .279 .062000004 .24400002 .022000002 .16600001 .022000002 C .082 .022000002 .046000005 .079 .027000003 .16400002 C .024000004 .17700002 .023000002 .18100001 .013000004 .18100001 C 0 .18100001 0 .17400001 0 .15600002 L 0 .024 C 0 .0070000009 0 0 .011000004 0 C .016000003 0 .017 .0010000002 .036000007 .020000002 C .038000004 .022000002 .038000004 .024 .056 .043 C .1 .0010000002 .14500001 0 .16600001 0 C .28100003 0 .32700003 .067 .32700003 .13900002 C .32700003 .19200002 .29700003 .22200002 .28500004 .23400001 C .25200004 .26600004 .213 .27400003 .171 .28200004 C .115 .293 .048 .30600003 .048 .36400003 C .048 .39900003 .07400001 .44000004 .16 .44000004 C .27 .44000004 .27500005 .35000003 .277 .31900005 C .27800004 .31000004 .28700004 .31000004 .28900004 .31000004 C .30200003 .31000004 .30200003 .31500004 .30200003 .33400003 L .30200003 .43500004 C .30200003 .45200003 .30200003 .45900003 .291 .45900003 C .286 .45900003 .284 .45900003 .27100004 .44700004 C .26800005 .44300003 .25800003 .43400003 .254 .43100003 C .21600002 .45900003 .17500001 .45900003 .16 .45900003 C .038000004 .45900003 0 .39200003 0 .33600004 C 0 .30100004 .016000003 .27300004 .043000007 .25100003 C .075 .22500003 .10300001 .21900001 .17500001 .20500002 Z "/>
</symbol>
<symbol id="font_1_2">
<path d="M .144 .44200004 L .0040000008 .43100003 L .0040000008 .4 C .069000009 .4 .07800001 .39400003 .07800001 .34500004 L .07800001 .076000008 C .07800001 .031000002 .067 .031000002 0 .031000002 L 0 0 C .032000007 .001 .086 .003 .11000001 .003 C .14500001 .003 .18 .001 .21400002 0 L .21400002 .031000002 C .148 .031000002 .144 .036000004 .144 .075 L .144 .44200004 M .148 .61600008 C .148 .648 .123 .669 .095000009 .669 C .064 .669 .042000005 .642 .042000005 .61600008 C .042000005 .58900007 .064 .563 .095000009 .563 C .123 .563 .148 .58400008 .148 .61600008 Z "/>
</symbol>
<symbol id="font_1_3">
<path d="M .07800001 .344 L .07800001 .076000008 C .07800001 .031000002 .067 .031000002 0 .031000002 L 0 0 C .035 .001 .08600001 .003 .113000009 .003 C .139 .003 .191 .001 .225 0 L .225 .031000002 C .158 .031000002 .147 .031000002 .147 .076000008 L .147 .26000003 C .147 .36400003 .218 .42000003 .282 .42000003 C .345 .42000003 .356 .36600004 .356 .30900003 L .356 .076000008 C .356 .031000002 .345 .031000002 .278 .031000002 L .278 0 C .31300003 .001 .36400003 .003 .391 .003 C .41700004 .003 .46900005 .001 .503 0 L .503 .031000002 C .451 .031000002 .42600004 .031000002 .425 .061000006 L .425 .252 C .425 .33800004 .425 .36900003 .39400003 .40500004 C .38000003 .42200003 .347 .44200004 .289 .44200004 C .216 .44200004 .169 .39900003 .141 .337 L .141 .44200004 L 0 .43100003 L 0 .4 C .07000001 .4 .07800001 .393 .07800001 .344 Z "/>
</symbol>
<use xlink:href="#font_1_4" transform="matrix(27.673888,0,0,-27.673888,57.86324,220.9294)"/>
<use xlink:href="#font_1_2" transform="matrix(27.673888,0,0,-27.673888,68.76675,220.62499)"/>
<use xlink:href="#font_1_3" transform="matrix(27.673888,0,0,-27.673888,76.43242,220.62499)"/>
<symbol id="font_3_1">
<path d="M .63600006 0 C .65200009 0 .67600008 0 .67600008 .023999989 C .67600008 .048999996 .65300008 .048999996 .63600006 .048999996 L .04 .048999996 C .023999997 .048999996 0 .048999996 0 .025000006 C 0 0 .02300001 0 .04 0 L .63600006 0 Z "/>
</symbol>
<use xlink:href="#font_3_1" transform="matrix(19.371666,0,0,-19.371666,93.01992,204.60533)"/>
<symbol id="font_4_1">
<path d="M .22600001 .63600006 C .22600001 .66300007 .224 .66400006 .19600001 .66400006 C .132 .601 .041 .6 0 .6 L 0 .564 C .023999997 .564 .09000001 .564 .14500001 .592 L .14500001 .082 C .14500001 .049000004 .14500001 .036000004 .04500001 .036000004 L .0069999995 .036000004 L .0069999995 0 C .024999999 .001 .148 .004 .185 .004 C .21600002 .004 .34200005 .001 .36400003 0 L .36400003 .036000004 L .32600004 .036000004 C .22600001 .036000004 .22600001 .049000004 .22600001 .082 L .22600001 .63600006 Z "/>
</symbol>
<use xlink:href="#font_4_1" transform="matrix(19.371666,0,0,-19.371666,110.333728,208.98332)"/>
<use xlink:href="#font_0_1" transform="matrix(27.673888,0,0,-27.673888,130.2313,238.58393)"/>
<use xlink:href="#font_2_1" transform="matrix(27.673888,0,0,-27.673888,144.0747,214.26001)"/>
<use xlink:href="#font_3_2" transform="matrix(19.371666,0,0,-19.371666,168.44316,212.03635)"/>
<path transform="matrix(2.7777777,0,0,-2.7777777,184.80277,193.14441)" stroke-width=".339" stroke-linecap="butt" stroke-miterlimit="10" stroke-linejoin="miter" fill="none" stroke="#000000" d="M 0 0 L 3.971 0 "/>
<use xlink:href="#font_4_3" transform="matrix(19.371666,0,0,-19.371666,185.84883,210.04853)"/>
<path transform="matrix(2.7777777,0,0,-2.7777777,166.62223,213.70552)" stroke-width=".398" stroke-linecap="butt" stroke-miterlimit="10" stroke-linejoin="miter" fill="none" stroke="#000000" d="M 0 0 L 10.516 0 "/>
<use xlink:href="#font_4_2" transform="matrix(19.371666,0,0,-19.371666,176.9343,230.16664)"/>
<use xlink:href="#font_0_2" transform="matrix(27.673888,0,0,-27.673888,200.15181,238.5839)"/>
<path transform="matrix(2.7777777,0,0,-2.7777777,10.330556,237.32776)" stroke-width=".3985" stroke-linecap="butt" stroke-miterlimit="10" stroke-linejoin="miter" fill="none" stroke="#000000" d="M 113.38724 0 L 102.04869 0 L 102.04869 11.33855 L 113.38724 11.33855 "/>
</g>
</svg>
