<?xml version="1.0" encoding="UTF-8" standalone="no"?>
<!DOCTYPE svg PUBLIC "-//W3C//DTD SVG 1.1//EN" "http://www.w3.org/Graphics/SVG/1.1/DTD/svg11.dtd">
<svg xmlns="http://www.w3.org/2000/svg" xmlns:xlink="http://www.w3.org/1999/xlink" version="1.1" width="305.59165pt" height="253.21387pt" viewBox="0 0 305.59165 253.21387">
<g enable-background="new">
<path transform="matrix(2.7777777,0,0,-2.7777777,-237.13054,207.11943)" stroke-width=".3985" stroke-linecap="butt" stroke-miterlimit="10" stroke-linejoin="miter" fill="none" stroke="#000000" d="M 104.88313 0 L 189.92357 0 "/>
<path transform="matrix(2.7777777,0,0,-2.7777777,-237.13054,207.11943)" d="M 104.88313 0 L 104.88313 45.35506 L 119.05653 45.35506 L 119.05653 0 Z M 119.05653 45.35506 " fill="#6dcff6" fill-opacity=".4"/>
<path transform="matrix(2.7777777,0,0,-2.7777777,-237.13054,207.11943)" stroke-width=".19925" stroke-linecap="butt" stroke-miterlimit="10" stroke-linejoin="miter" fill="none" stroke="#000000" d="M 104.88313 0 L 104.88313 45.35506 L 119.05653 45.35506 L 119.05653 0 Z M 119.05653 45.35506 "/>
<path transform="matrix(2.7777777,0,0,-2.7777777,-237.13054,207.11943)" d="M 119.05653 0 L 119.05653 69.20692 L 133.22995 69.20692 L 133.22995 0 Z M 133.22995 69.20692 " fill="#6dcff6" fill-opacity=".4"/>
<path transform="matrix(2.7777777,0,0,-2.7777777,-237.13054,207.11943)" stroke-width=".19925" stroke-linecap="butt" stroke-miterlimit="10" stroke-linejoin="miter" fill="none" stroke="#000000" d="M 119.05653 0 L 119.05653 69.20692 L 133.22995 69.20692 L 133.22995 0 Z M 133.22995 69.20692 "/>
<path transform="matrix(2.7777777,0,0,-2.7777777,-237.13054,207.11943)" d="M 133.22995 0 L 133.22995 71.12912 L 147.40335 71.12912 L 147.40335 0 Z M 147.40335 71.12912 " fill="#6dcff6" fill-opacity=".4"/>
<path transform="matrix(2.7777777,0,0,-2.7777777,-237.13054,207.11943)" stroke-width=".19925" stroke-linecap="butt" stroke-miterlimit="10" stroke-linejoin="miter" fill="none" stroke="#000000" d="M 133.22995 0 L 133.22995 71.12912 L 147.40335 71.12912 L 147.40335 0 Z M 147.40335 71.12912 "/>
<path transform="matrix(2.7777777,0,0,-2.7777777,-237.13054,207.11943)" d="M 147.40335 0 L 147.40335 49.35516 L 161.57675 49.35516 L 161.57675 0 Z M 161.57675 49.35516 " fill="#6dcff6" fill-opacity=".4"/>
<path transform="matrix(2.7777777,0,0,-2.7777777,-237.13054,207.11943)" stroke-width=".19925" stroke-linecap="butt" stroke-miterlimit="10" stroke-linejoin="miter" fill="none" stroke="#000000" d="M 147.40335 0 L 147.40335 49.35516 L 161.57675 49.35516 L 161.57675 0 Z M 161.57675 49.35516 "/>
<path transform="matrix(2.7777777,0,0,-2.7777777,-237.13054,207.11943)" d="M 161.57675 0 L 161.57675 23.9029 L 175.75016 23.9029 L 175.75016 0 Z M 175.75016 23.9029 " fill="#6dcff6" fill-opacity=".4"/>
<path transform="matrix(2.7777777,0,0,-2.7777777,-237.13054,207.11943)" stroke-width=".19925" stroke-linecap="butt" stroke-miterlimit="10" stroke-linejoin="miter" fill="none" stroke="#000000" d="M 161.57675 0 L 161.57675 23.9029 L 175.75016 23.9029 L 175.75016 0 Z M 175.75016 23.9029 "/>
<path transform="matrix(2.7777777,0,0,-2.7777777,-237.13054,207.11943)" d="M 175.75016 0 L 175.75016 18.17436 L 189.92357 18.17436 L 189.92357 0 Z M 189.92357 18.17436 " fill="#6dcff6" fill-opacity=".4"/>
<path transform="matrix(2.7777777,0,0,-2.7777777,-237.13054,207.11943)" stroke-width=".19925" stroke-linecap="butt" stroke-miterlimit="10" stroke-linejoin="miter" fill="none" stroke="#000000" d="M 175.75016 0 L 175.75016 18.17436 L 189.92357 18.17436 L 189.92357 0 Z M 189.92357 18.17436 "/>
<path transform="matrix(2.7777777,0,0,-2.7777777,-237.13054,207.11943)" stroke-width="1.59404" stroke-linecap="butt" stroke-miterlimit="10" stroke-linejoin="miter" fill="none" stroke="#000000" stroke-opacity=".6" d="M 104.88313 45.35506 C 104.88313 45.35506 107.4432 50.48184 108.42648 52.36736 C 109.40974 54.25287 110.98657 57.23656 111.96983 58.94453 C 112.9531 60.65253 114.52992 63.25351 115.51318 64.67738 C 116.49644 66.10127 118.07327 68.15561 119.05653 69.20692 C 120.0398 70.25822 121.61662 71.6409 122.59988 72.25458 C 123.58316 72.86827 125.15997 73.49239 126.14325 73.63007 C 127.12651 73.76773 128.70334 73.59383 129.6866 73.24683 C 130.66986 72.89983 132.24669 71.93895 133.22995 71.12912 C 134.21321 70.31929 135.79003 68.63254 136.77329 67.41017 C 137.75655 66.1878 139.33338 63.8783 140.31664 62.3192 C 141.2999 60.7601 142.87673 57.97198 143.85999 56.17326 C 144.84326 54.37454 146.42008 51.2816 147.40335 49.35516 C 148.38661 47.42873 149.96344 44.2234 150.9467 42.28879 C 151.92996 40.35419 153.50679 37.2343 154.49005 35.41188 C 155.47332 33.58945 157.05014 30.75075 158.0334 29.1539 C 159.01667 27.55705 160.59349 25.17482 161.57675 23.9029 C 162.56003 22.63098 164.13683 20.85486 165.1201 19.98671 C 166.10337 19.11855 167.68019 18.05617 168.66345 17.64581 C 169.64672 17.23544 171.22354 16.95567 172.2068 17.029 C 173.19007 17.10234 174.76689 17.62225 175.75016 18.17436 C 176.73342 18.72649 178.31024 20.01195 179.2935 21.00835 C 180.27678 22.00475 181.85359 23.97675 182.83687 25.3558 C 183.82013 26.73485 185.39696 29.27165 186.38022 30.94765 C 187.36348 32.62366 189.92357 37.43529 189.92357 37.43529 "/>
<path transform="matrix(2.7777777,0,0,-2.7777777,-237.13054,207.11943)" stroke-width=".3985" stroke-linecap="butt" stroke-miterlimit="10" stroke-linejoin="miter" fill="none" stroke="#000000" d="M 104.88313 0 L 104.88313 -2.83484 "/>
<path transform="matrix(2.7777777,0,0,-2.7777777,-237.13054,207.11943)" stroke-width=".3985" stroke-linecap="butt" stroke-miterlimit="10" stroke-linejoin="miter" fill="none" stroke="#000000" d="M 189.92357 0 L 189.92357 -2.83484 "/>
<symbol id="font_0_1">
<path d="M .33300004 .38900004 C .31500004 .42600004 .286 .45300005 .24100001 .45300005 C .124 .45300005 0 .30600003 0 .16000001 C 0 .06600001 .055000005 0 .133 0 C .153 0 .20300001 .0040000008 .263 .075 C .27100004 .033000005 .30600003 0 .35400004 0 C .38900004 0 .41200004 .023000002 .42800004 .055000005 C .44500003 .091000009 .45800004 .15200001 .45800004 .15400002 C .45800004 .16400002 .44900004 .16400002 .44600005 .16400002 C .43600003 .16400002 .43500004 .16000001 .43200005 .14600002 C .41500003 .081 .397 .022000002 .35600005 .022000002 C .32900004 .022000002 .32600004 .048 .32600004 .068 C .32600004 .09 .32800005 .098000008 .33900003 .14200002 C .35000003 .18400002 .35200004 .19400002 .36100004 .23200003 L .397 .37200005 C .40400005 .40000005 .40400005 .40200005 .40400005 .40600003 C .40400005 .42300005 .39200003 .43300004 .37500004 .43300004 C .35100005 .43300004 .33600004 .411 .33300004 .38900004 M .26800005 .13000001 C .263 .112 .263 .11000001 .24800001 .093 C .20400001 .038000004 .163 .022000002 .135 .022000002 C .08499999 .022000002 .07100001 .077 .07100001 .116000007 C .07100001 .16600001 .103 .28900004 .126 .335 C .157 .39400003 .202 .43100003 .242 .43100003 C .307 .43100003 .32100005 .34900005 .32100005 .34300003 C .32100005 .337 .31900005 .33100004 .31800003 .32600004 L .26800005 .13000001 Z "/>
</symbol>
<use xlink:href="#font_0_1" transform="matrix(27.673888,0,0,-27.673888,48.00141,236.9905)"/>
<symbol id="font_0_2">
<path d="M .192 .694 C .192 .695 .192 .705 .179 .705 C .156 .705 .083000008 .697 .057 .695 C .049 .694 .038 .693 .038 .675 C .038 .663 .047000003 .663 .062000004 .663 C .11 .663 .112 .656 .112 .646 C .112 .639 .103 .605 .098000008 .584 L .015999999 .25800003 C .0040000008 .20800002 0 .19200002 0 .15700002 C 0 .062000004 .053 0 .127 0 C .24500002 0 .36800004 .14900002 .36800004 .293 C .36800004 .38400004 .31500004 .45300005 .235 .45300005 C .18900001 .45300005 .148 .42400003 .118 .39300005 L .192 .694 M .098000008 .316 C .104 .33800004 .104 .34000004 .113000009 .351 C .162 .41600005 .207 .43100003 .233 .43100003 C .26900003 .43100003 .29600004 .40100003 .29600004 .337 C .29600004 .27800004 .263 .16300002 .24500002 .12500002 C .212 .058000003 .16600001 .022000002 .127 .022000002 C .092999998 .022000002 .060000007 .049000004 .060000007 .123 C .060000007 .14200002 .060000007 .16100002 .076000008 .22400002 L .098000008 .316 Z "/>
</symbol>
<use xlink:href="#font_0_2" transform="matrix(27.673888,0,0,-27.673888,285.79234,244.29328)"/>
<symbol id="font_0_3">
<path d="M .45700003 .586 C .461 .6 .461 .602 .461 .609 C .461 .62700006 .447 .63600006 .432 .63600006 C .42200003 .63600006 .40600003 .63 .397 .615 C .395 .61 .387 .579 .38300003 .561 C .37600003 .535 .36900003 .508 .363 .48100005 L .318 .301 C .314 .286 .271 .21600002 .20500002 .21600002 C .15400002 .21600002 .143 .26000003 .143 .29700003 C .143 .34300003 .16000001 .40500004 .194 .49300004 C .21000001 .53400006 .21400002 .545 .21400002 .56500008 C .21400002 .61 .18200001 .6470001 .13200002 .6470001 C .037 .6470001 0 .50200006 0 .49300004 C 0 .48300005 .01 .48300005 .012 .48300005 C .022000002 .48300005 .023 .485 .028000003 .50100007 C .055000009 .595 .095000009 .625 .12900001 .625 C .13700001 .625 .15400002 .625 .15400002 .59300008 C .15400002 .568 .14400001 .54200008 .13700001 .523 C .097 .41700004 .079 .36 .079 .31300003 C .079 .224 .142 .194 .201 .194 C .24000003 .194 .274 .21100001 .30200003 .23900002 C .289 .187 .277 .13800001 .237 .08500001 C .21100001 .051 .17300001 .022 .127 .022 C .113000009 .022 .068 .025000006 .051000008 .06400001 C .067 .06400001 .080000009 .06400001 .094000007 .076000008 C .104 .08500001 .11400001 .098000008 .11400001 .117000009 C .11400001 .148 .087000008 .15200001 .07700001 .15200001 C .054000006 .15200001 .021 .136 .021 .087000008 C .021 .037 .065000008 0 .127 0 C .23 0 .333 .091000009 .361 .20400001 L .45700003 .586 Z "/>
</symbol>
<use xlink:href="#font_0_3" transform="matrix(27.673888,0,0,-27.673888,19.249785,180.62868)"/>
<symbol id="font_1_1">
<path d="M .46400006 .33900003 C .46400006 .44900004 .45100004 .528 .40500004 .598 C .374 .644 .31200005 .684 .23200001 .684 C 0 .684 0 .41100005 0 .33900003 C 0 .26700003 0 0 .23200001 0 C .46400006 0 .46400006 .26700003 .46400006 .33900003 M .23200001 .028 C .186 .028 .125 .055 .105000007 .13700001 C .091000009 .19600001 .091000009 .27800004 .091000009 .35200004 C .091000009 .42500005 .091000009 .50100007 .106000009 .556 C .127 .635 .19100002 .656 .23200001 .656 C .286 .656 .338 .623 .356 .565 C .37200005 .51100006 .37300004 .43900005 .37300004 .35200004 C .37300004 .27800004 .37300004 .20400001 .36 .141 C .34000004 .050000006 .272 .028 .23200001 .028 Z "/>
</symbol>
<use xlink:href="#font_1_1" transform="matrix(19.371666,0,0,-19.371666,33.024015,179.49297)"/>
<use xlink:href="#font_0_3" transform="matrix(27.673888,0,0,-27.673888,66.49422,180.62868)"/>
<symbol id="font_1_2">
<path d="M .22600001 .63600006 C .22600001 .66300007 .224 .66400006 .19600001 .66400006 C .132 .601 .041 .6 0 .6 L 0 .564 C .023999997 .564 .09000001 .564 .14500001 .592 L .14500001 .082 C .14500001 .049000004 .14500001 .036000004 .04500001 .036000004 L .0069999995 .036000004 L .0069999995 0 C .024999999 .001 .148 .004 .185 .004 C .21600002 .004 .34200005 .001 .36400003 0 L .36400003 .036000004 L .32600004 .036000004 C .22600001 .036000004 .22600001 .049000004 .22600001 .082 L .22600001 .63600006 Z "/>
</symbol>
<use xlink:href="#font_1_2" transform="matrix(19.371666,0,0,-19.371666,81.37263,179.10553)"/>
<use xlink:href="#font_0_3" transform="matrix(27.673888,0,0,-27.673888,105.86644,180.62868)"/>
<symbol id="font_1_3">
<path d="M .442 .18200001 L .40800003 .18200001 C .40500004 .16000001 .39500005 .101 .38200004 .091000009 C .374 .085 .29700003 .085 .28300003 .085 L .099 .085 C .20400003 .178 .23900002 .20600002 .29900003 .25300003 C .37300004 .312 .442 .374 .442 .469 C .442 .59000006 .33600004 .66400006 .20800004 .66400006 C .084 .66400006 0 .577 0 .485 C 0 .43400003 .043000007 .42900003 .053000004 .42900003 C .077 .42900003 .10600001 .446 .10600001 .48200003 C .10600001 .5 .099 .535 .047000007 .535 C .078 .606 .146 .628 .19300002 .628 C .293 .628 .34500004 .55 .34500004 .469 C .34500004 .38200004 .28300003 .31300003 .25100003 .277 L .010000005 .039 C 0 .030000002 0 .028 0 0 L .41200004 0 L .442 .18200001 Z "/>
</symbol>
<use xlink:href="#font_1_3" transform="matrix(19.371666,0,0,-19.371666,119.850978,179.10553)"/>
<use xlink:href="#font_0_3" transform="matrix(27.673888,0,0,-27.673888,224.49419,180.0898)"/>
<symbol id="font_2_1">
<path d="M .075 .073 C .07100001 .060000004 .065 .035 .065 .032 C .065 .010000001 .083000008 0 .09900001 0 C .117 0 .133 .013 .138 .022 C .143 .031000004 .15100001 .063 .156 .084 C .161 .103 .172 .14900002 .178 .17400001 C .184 .19600001 .19000001 .21800001 .19500001 .24100001 C .20600002 .282 .20800002 .29 .237 .331 C .26500003 .37100003 .31200005 .423 .38700003 .423 C .44500003 .423 .44600005 .372 .44600005 .35300002 C .44600005 .293 .40300004 .18200001 .38700003 .14000002 C .37600003 .112 .37200005 .103 .37200005 .086 C .37200005 .033000005 .41600005 0 .467 0 C .56700006 0 .61100009 .13800001 .61100009 .15300001 C .61100009 .16600001 .59800007 .16600001 .595 .16600001 C .58100005 .16600001 .58000007 .16000001 .57600006 .14900002 C .55300006 .069000009 .51000007 .028 .47000004 .028 C .44900004 .028 .44500003 .042000005 .44500003 .063 C .44500003 .086 .45000003 .099 .46800006 .14400001 C .48000003 .17500001 .521 .28100003 .521 .337 C .521 .43400003 .44400005 .451 .39100004 .451 C .30800004 .451 .25200004 .4 .22200002 .36 C .21500002 .42900003 .156 .451 .114999998 .451 C .072 .451 .049 .42000003 .036000004 .397 C .014000002 .36 0 .303 0 .298 C 0 .285 .014000002 .285 .017 .285 C .031 .285 .032 .28800003 .039 .315 C .054 .374 .073 .423 .112 .423 C .138 .423 .145 .40100003 .145 .374 C .145 .35500003 .136 .31800003 .12900001 .291 C .12200001 .264 .112 .22300002 .10700001 .20100002 L .075 .073 Z "/>
</symbol>
<use xlink:href="#font_2_1" transform="matrix(19.371666,0,0,-19.371666,238.17157,178.76036)"/>
<symbol id="font_3_1">
<path d="M .63600006 0 C .65200009 0 .67600008 0 .67600008 .023999989 C .67600008 .048999996 .65300008 .048999996 .63600006 .048999996 L .04 .048999996 C .023999997 .048999996 0 .048999996 0 .025000006 C 0 0 .02300001 0 .04 0 L .63600006 0 Z "/>
</symbol>
<use xlink:href="#font_3_1" transform="matrix(19.371666,0,0,-19.371666,253.0338,174.18866)"/>
<use xlink:href="#font_1_2" transform="matrix(19.371666,0,0,-19.371666,270.34764,178.56665)"/>
</g>
</svg>
