<?xml version="1.0" encoding="UTF-8" standalone="no"?>
<!DOCTYPE svg PUBLIC "-//W3C//DTD SVG 1.1//EN" "http://www.w3.org/Graphics/SVG/1.1/DTD/svg11.dtd">
<svg xmlns="http://www.w3.org/2000/svg" xmlns:xlink="http://www.w3.org/1999/xlink" version="1.1" width="277.14445pt" height="253.21387pt" viewBox="0 0 277.14445 253.21387">
<g enable-background="new">
<path transform="matrix(2.7777777,0,0,-2.7777777,-265.57499,-265.31944)" stroke-width=".3985" stroke-linecap="butt" stroke-miterlimit="10" stroke-linejoin="miter" fill="none" stroke="#000000" d="M 104.88313 -170.08092 L 189.92357 -170.08092 "/>
<path transform="matrix(2.7777777,0,0,-2.7777777,-265.57499,-265.31944)" d="M 104.88313 -170.08092 L 104.88313 -100.87398 L 119.05653 -100.87398 L 119.05653 -170.08092 Z M 119.05653 -100.87398 " fill="#6dcff6" fill-opacity=".4"/>
<path transform="matrix(2.7777777,0,0,-2.7777777,-265.57499,-265.31944)" stroke-width=".19925" stroke-linecap="butt" stroke-miterlimit="10" stroke-linejoin="miter" fill="none" stroke="#000000" d="M 104.88313 -170.08092 L 104.88313 -100.87398 L 119.05653 -100.87398 L 119.05653 -170.08092 Z M 119.05653 -100.87398 "/>
<path transform="matrix(2.7777777,0,0,-2.7777777,-265.57499,-265.31944)" d="M 119.05653 -170.08092 L 119.05653 -98.95178 L 133.22995 -98.95178 L 133.22995 -170.08092 Z M 133.22995 -98.95178 " fill="#6dcff6" fill-opacity=".4"/>
<path transform="matrix(2.7777777,0,0,-2.7777777,-265.57499,-265.31944)" stroke-width=".19925" stroke-linecap="butt" stroke-miterlimit="10" stroke-linejoin="miter" fill="none" stroke="#000000" d="M 119.05653 -170.08092 L 119.05653 -98.95178 L 133.22995 -98.95178 L 133.22995 -170.08092 Z M 133.22995 -98.95178 "/>
<path transform="matrix(2.7777777,0,0,-2.7777777,-265.57499,-265.31944)" d="M 133.22995 -170.08092 L 133.22995 -120.72574 L 147.40335 -120.72574 L 147.40335 -170.08092 Z M 147.40335 -120.72574 " fill="#6dcff6" fill-opacity=".4"/>
<path transform="matrix(2.7777777,0,0,-2.7777777,-265.57499,-265.31944)" stroke-width=".19925" stroke-linecap="butt" stroke-miterlimit="10" stroke-linejoin="miter" fill="none" stroke="#000000" d="M 133.22995 -170.08092 L 133.22995 -120.72574 L 147.40335 -120.72574 L 147.40335 -170.08092 Z M 147.40335 -120.72574 "/>
<path transform="matrix(2.7777777,0,0,-2.7777777,-265.57499,-265.31944)" d="M 147.40335 -170.08092 L 147.40335 -146.17801 L 161.57675 -146.17801 L 161.57675 -170.08092 Z M 161.57675 -146.17801 " fill="#6dcff6" fill-opacity=".4"/>
<path transform="matrix(2.7777777,0,0,-2.7777777,-265.57499,-265.31944)" stroke-width=".19925" stroke-linecap="butt" stroke-miterlimit="10" stroke-linejoin="miter" fill="none" stroke="#000000" d="M 147.40335 -170.08092 L 147.40335 -146.17801 L 161.57675 -146.17801 L 161.57675 -170.08092 Z M 161.57675 -146.17801 "/>
<path transform="matrix(2.7777777,0,0,-2.7777777,-265.57499,-265.31944)" d="M 161.57675 -170.08092 L 161.57675 -151.90654 L 175.75016 -151.90654 L 175.75016 -170.08092 Z M 175.75016 -151.90654 " fill="#6dcff6" fill-opacity=".4"/>
<path transform="matrix(2.7777777,0,0,-2.7777777,-265.57499,-265.31944)" stroke-width=".19925" stroke-linecap="butt" stroke-miterlimit="10" stroke-linejoin="miter" fill="none" stroke="#000000" d="M 161.57675 -170.08092 L 161.57675 -151.90654 L 175.75016 -151.90654 L 175.75016 -170.08092 Z M 175.75016 -151.90654 "/>
<path transform="matrix(2.7777777,0,0,-2.7777777,-265.57499,-265.31944)" d="M 175.75016 -170.08092 L 175.75016 -132.64562 L 189.92357 -132.64562 L 189.92357 -170.08092 Z M 189.92357 -132.64562 " fill="#6dcff6" fill-opacity=".4"/>
<path transform="matrix(2.7777777,0,0,-2.7777777,-265.57499,-265.31944)" stroke-width=".19925" stroke-linecap="butt" stroke-miterlimit="10" stroke-linejoin="miter" fill="none" stroke="#000000" d="M 175.75016 -170.08092 L 175.75016 -132.64562 L 189.92357 -132.64562 L 189.92357 -170.08092 Z M 189.92357 -132.64562 "/>
<path transform="matrix(2.7777777,0,0,-2.7777777,-265.57499,-265.31944)" stroke-width="1.59404" stroke-linecap="butt" stroke-miterlimit="10" stroke-linejoin="miter" fill="none" stroke="#000000" stroke-opacity=".6" d="M 104.88313 -124.72586 C 104.88313 -124.72586 107.4432 -119.59906 108.42648 -117.71355 C 109.40974 -115.82803 110.98657 -112.84436 111.96983 -111.13637 C 112.9531 -109.42838 114.52992 -106.8274 115.51318 -105.40352 C 116.49644 -103.97964 118.07327 -101.9253 119.05653 -100.87398 C 120.0398 -99.82268 121.61662 -98.44 122.59988 -97.82632 C 123.58316 -97.21263 125.15997 -96.58852 126.14325 -96.45085 C 127.12651 -96.31317 128.70334 -96.48708 129.6866 -96.83408 C 130.66986 -97.18108 132.24669 -98.14195 133.22995 -98.95178 C 134.21321 -99.76161 135.79003 -101.44838 136.77329 -102.67073 C 137.75655 -103.8931 139.33338 -106.2026 140.31664 -107.7617 C 141.2999 -109.32082 142.87673 -112.10892 143.85999 -113.90764 C 144.84326 -115.70638 146.42008 -118.7993 147.40335 -120.72574 C 148.38661 -122.65219 149.96344 -125.85751 150.9467 -127.79211 C 151.92996 -129.72672 153.50679 -132.8466 154.49005 -134.66902 C 155.47332 -136.49146 157.05014 -139.33016 158.0334 -140.927 C 159.01667 -142.52385 160.59349 -144.90608 161.57675 -146.17801 C 162.56003 -147.44992 164.13683 -149.22605 165.1201 -150.09421 C 166.10337 -150.96236 167.68019 -152.02474 168.66345 -152.43509 C 169.64672 -152.84546 171.22354 -153.12523 172.2068 -153.0519 C 173.19007 -152.97856 174.76689 -152.45867 175.75016 -151.90654 C 176.73342 -151.35442 178.31024 -150.06896 179.2935 -149.07256 C 180.27678 -148.07616 181.85359 -146.10416 182.83687 -144.72512 C 183.82013 -143.34606 185.39696 -140.80927 186.38022 -139.13326 C 187.36348 -137.45726 189.92357 -132.64562 189.92357 -132.64562 "/>
<path transform="matrix(2.7777777,0,0,-2.7777777,-265.57499,-265.31944)" stroke-width=".3985" stroke-linecap="butt" stroke-miterlimit="10" stroke-linejoin="miter" fill="none" stroke="#000000" d="M 104.88313 -170.08092 L 104.88313 -172.91576 "/>
<path transform="matrix(2.7777777,0,0,-2.7777777,-265.57499,-265.31944)" stroke-width=".3985" stroke-linecap="butt" stroke-miterlimit="10" stroke-linejoin="miter" fill="none" stroke="#000000" d="M 189.92357 -170.08092 L 189.92357 -172.91576 "/>
<symbol id="font_0_1">
<path d="M .33300004 .38900004 C .31500004 .42600004 .286 .45300005 .24100001 .45300005 C .124 .45300005 0 .30600003 0 .16000001 C 0 .06600001 .055000005 0 .133 0 C .153 0 .20300001 .0040000008 .263 .075 C .27100004 .033000005 .30600003 0 .35400004 0 C .38900004 0 .41200004 .023000002 .42800004 .055000005 C .44500003 .091000009 .45800004 .15200001 .45800004 .15400002 C .45800004 .16400002 .44900004 .16400002 .44600005 .16400002 C .43600003 .16400002 .43500004 .16000001 .43200005 .14600002 C .41500003 .081 .397 .022000002 .35600005 .022000002 C .32900004 .022000002 .32600004 .048 .32600004 .068 C .32600004 .09 .32800005 .098000008 .33900003 .14200002 C .35000003 .18400002 .35200004 .19400002 .36100004 .23200003 L .397 .37200005 C .40400005 .40000005 .40400005 .40200005 .40400005 .40600003 C .40400005 .42300005 .39200003 .43300004 .37500004 .43300004 C .35100005 .43300004 .33600004 .411 .33300004 .38900004 M .26800005 .13000001 C .263 .112 .263 .11000001 .24800001 .093 C .20400001 .038000004 .163 .022000002 .135 .022000002 C .08499999 .022000002 .07100001 .077 .07100001 .116000007 C .07100001 .16600001 .103 .28900004 .126 .335 C .157 .39400003 .202 .43100003 .242 .43100003 C .307 .43100003 .32100005 .34900005 .32100005 .34300003 C .32100005 .337 .31900005 .33100004 .31800003 .32600004 L .26800005 .13000001 Z "/>
</symbol>
<use xlink:href="#font_0_1" transform="matrix(27.673888,0,0,-27.673888,19.554177,236.99051)"/>
<symbol id="font_0_2">
<path d="M .192 .694 C .192 .695 .192 .705 .179 .705 C .156 .705 .083000008 .697 .057 .695 C .049 .694 .038 .693 .038 .675 C .038 .663 .047000003 .663 .062000004 .663 C .11 .663 .112 .656 .112 .646 C .112 .639 .103 .605 .098000008 .584 L .015999999 .25800003 C .0040000008 .20800002 0 .19200002 0 .15700002 C 0 .062000004 .053 0 .127 0 C .24500002 0 .36800004 .14900002 .36800004 .293 C .36800004 .38400004 .31500004 .45300005 .235 .45300005 C .18900001 .45300005 .148 .42400003 .118 .39300005 L .192 .694 M .098000008 .316 C .104 .33800004 .104 .34000004 .113000009 .351 C .162 .41600005 .207 .43100003 .233 .43100003 C .26900003 .43100003 .29600004 .40100003 .29600004 .337 C .29600004 .27800004 .263 .16300002 .24500002 .12500002 C .212 .058000003 .16600001 .022000002 .127 .022000002 C .092999998 .022000002 .060000007 .049000004 .060000007 .123 C .060000007 .14200002 .060000007 .16100002 .076000008 .22400002 L .098000008 .316 Z "/>
</symbol>
<use xlink:href="#font_0_2" transform="matrix(27.673888,0,0,-27.673888,257.3451,244.29328)"/>
<symbol id="font_0_3">
<path d="M .45700003 .586 C .461 .6 .461 .602 .461 .609 C .461 .62700006 .447 .63600006 .432 .63600006 C .42200003 .63600006 .40600003 .63 .397 .615 C .395 .61 .387 .579 .38300003 .561 C .37600003 .535 .36900003 .508 .363 .48100005 L .318 .301 C .314 .286 .271 .21600002 .20500002 .21600002 C .15400002 .21600002 .143 .26000003 .143 .29700003 C .143 .34300003 .16000001 .40500004 .194 .49300004 C .21000001 .53400006 .21400002 .545 .21400002 .56500008 C .21400002 .61 .18200001 .6470001 .13200002 .6470001 C .037 .6470001 0 .50200006 0 .49300004 C 0 .48300005 .01 .48300005 .012 .48300005 C .022000002 .48300005 .023 .485 .028000003 .50100007 C .055000009 .595 .095000009 .625 .12900001 .625 C .13700001 .625 .15400002 .625 .15400002 .59300008 C .15400002 .568 .14400001 .54200008 .13700001 .523 C .097 .41700004 .079 .36 .079 .31300003 C .079 .224 .142 .194 .201 .194 C .24000003 .194 .274 .21100001 .30200003 .23900002 C .289 .187 .277 .13800001 .237 .08500001 C .21100001 .051 .17300001 .022 .127 .022 C .113000009 .022 .068 .025000006 .051000008 .06400001 C .067 .06400001 .080000009 .06400001 .094000007 .076000008 C .104 .08500001 .11400001 .098000008 .11400001 .117000009 C .11400001 .148 .087000008 .15200001 .07700001 .15200001 C .054000006 .15200001 .021 .136 .021 .087000008 C .021 .037 .065000008 0 .127 0 C .23 0 .333 .091000009 .361 .20400001 L .45700003 .586 Z "/>
</symbol>
<use xlink:href="#font_0_3" transform="matrix(27.673888,0,0,-27.673888,38.049757,180.62868)"/>
<symbol id="font_1_1">
<path d="M .22600001 .63600006 C .22600001 .66300007 .224 .66400006 .19600001 .66400006 C .132 .601 .041 .6 0 .6 L 0 .564 C .023999997 .564 .09000001 .564 .14500001 .592 L .14500001 .082 C .14500001 .049000004 .14500001 .036000004 .04500001 .036000004 L .0069999995 .036000004 L .0069999995 0 C .024999999 .001 .148 .004 .185 .004 C .21600002 .004 .34200005 .001 .36400003 0 L .36400003 .036000004 L .32600004 .036000004 C .22600001 .036000004 .22600001 .049000004 .22600001 .082 L .22600001 .63600006 Z "/>
</symbol>
<use xlink:href="#font_1_1" transform="matrix(19.371666,0,0,-19.371666,52.925386,179.10553)"/>
<use xlink:href="#font_0_3" transform="matrix(27.673888,0,0,-27.673888,77.41921,180.62868)"/>
<symbol id="font_1_2">
<path d="M .442 .18200001 L .40800003 .18200001 C .40500004 .16000001 .39500005 .101 .38200004 .091000009 C .374 .085 .29700003 .085 .28300003 .085 L .099 .085 C .20400003 .178 .23900002 .20600002 .29900003 .25300003 C .37300004 .312 .442 .374 .442 .469 C .442 .59000006 .33600004 .66400006 .20800004 .66400006 C .084 .66400006 0 .577 0 .485 C 0 .43400003 .043000007 .42900003 .053000004 .42900003 C .077 .42900003 .10600001 .446 .10600001 .48200003 C .10600001 .5 .099 .535 .047000007 .535 C .078 .606 .146 .628 .19300002 .628 C .293 .628 .34500004 .55 .34500004 .469 C .34500004 .38200004 .28300003 .31300003 .25100003 .277 L .010000005 .039 C 0 .030000002 0 .028 0 0 L .41200004 0 L .442 .18200001 Z "/>
</symbol>
<use xlink:href="#font_1_2" transform="matrix(19.371666,0,0,-19.371666,91.40653,179.10553)"/>
<use xlink:href="#font_0_3" transform="matrix(27.673888,0,0,-27.673888,232.24973,180.62868)"/>
<symbol id="font_2_1">
<path d="M .075 .073 C .07100001 .060000004 .065 .035 .065 .032 C .065 .010000001 .083000008 0 .09900001 0 C .117 0 .133 .013 .138 .022 C .143 .031000004 .15100001 .063 .156 .084 C .161 .103 .172 .14900002 .178 .17400001 C .184 .19600001 .19000001 .21800001 .19500001 .24100001 C .20600002 .282 .20800002 .29 .237 .331 C .26500003 .37100003 .31200005 .423 .38700003 .423 C .44500003 .423 .44600005 .372 .44600005 .35300002 C .44600005 .293 .40300004 .18200001 .38700003 .14000002 C .37600003 .112 .37200005 .103 .37200005 .086 C .37200005 .033000005 .41600005 0 .467 0 C .56700006 0 .61100009 .13800001 .61100009 .15300001 C .61100009 .16600001 .59800007 .16600001 .595 .16600001 C .58100005 .16600001 .58000007 .16000001 .57600006 .14900002 C .55300006 .069000009 .51000007 .028 .47000004 .028 C .44900004 .028 .44500003 .042000005 .44500003 .063 C .44500003 .086 .45000003 .099 .46800006 .14400001 C .48000003 .17500001 .521 .28100003 .521 .337 C .521 .43400003 .44400005 .451 .39100004 .451 C .30800004 .451 .25200004 .4 .22200002 .36 C .21500002 .42900003 .156 .451 .114999998 .451 C .072 .451 .049 .42000003 .036000004 .397 C .014000002 .36 0 .303 0 .298 C 0 .285 .014000002 .285 .017 .285 C .031 .285 .032 .28800003 .039 .315 C .054 .374 .073 .423 .112 .423 C .138 .423 .145 .40100003 .145 .374 C .145 .35500003 .136 .31800003 .12900001 .291 C .12200001 .264 .112 .22300002 .10700001 .20100002 L .075 .073 Z "/>
</symbol>
<use xlink:href="#font_2_1" transform="matrix(19.371666,0,0,-19.371666,245.92711,179.29924)"/>
</g>
</svg>
