<?xml version="1.0" encoding="UTF-8" standalone="no"?>
<!DOCTYPE svg PUBLIC "-//W3C//DTD SVG 1.1//EN" "http://www.w3.org/Graphics/SVG/1.1/DTD/svg11.dtd">
<svg xmlns="http://www.w3.org/2000/svg" xmlns:xlink="http://www.w3.org/1999/xlink" version="1.1" width="331.95277pt" height="221.5361pt" viewBox="0 0 331.95277 221.5361">
<g enable-background="new">
<path transform="matrix(2.7777777,0,0,-2.7777777,51.130556,159.69443)" d="M 0 28.34636 C 0 28.34636 .51189 28.59218 .70848 28.68806 C .90508 28.78397 1.2204 28.94179 1.41698 29.03757 C 1.61357 29.13333 1.92888 29.28328 2.12547 29.37839 C 2.32207 29.47351 2.63739 29.6289 2.83397 29.72313 C 3.03056 29.81735 3.34587 29.96573 3.54247 30.05748 C 3.73906 30.14925 4.05438 30.29243 4.25096 30.38448 C 4.44756 30.47652 4.76288 30.62991 4.95947 30.72101 C 5.15607 30.81209 5.47136 30.95166 5.66795 31.04108 C 5.86455 31.1305 6.17987 31.2754 6.37646 31.36548 C 6.57306 31.45555 6.88835 31.60197 7.08495 31.6903 C 7.28154 31.77866 7.59686 31.91516 7.79346 32.00218 C 7.99005 32.08919 8.30536 32.23073 8.50195 32.3175 C 8.69855 32.40427 9.01385 32.54193 9.21045 32.62762 C 9.40704 32.71332 9.72235 32.85085 9.91895 32.93515 C 10.11554 33.01947 10.43085 33.15137 10.62744 33.23534 C 10.82404 33.31929 11.13934 33.45573 11.33594 33.54028 C 11.53253 33.62483 11.84785 33.76149 12.04445 33.84479 C 12.24104 33.92807 12.55634 34.05896 12.75293 34.14064 C 12.94952 34.22232 13.26485 34.35289 13.46144 34.43347 C 13.65802 34.51407 13.97333 34.6416 14.16992 34.72154 C 14.36652 34.80147 14.68184 34.9304 14.87843 35.00961 C 15.07501 35.08884 15.39034 35.2146 15.58693 35.2925 C 15.78352 35.37039 16.09883 35.49413 16.29543 35.57104 C 16.492 35.64796 17.00392 35.847 17.00392 35.847 L 17.00737 0 L 0 0 Z " fill="#6dcff6" fill-opacity=".4"/>
<path transform="matrix(2.7777777,0,0,-2.7777777,51.130556,159.69443)" stroke-width=".19925" stroke-linecap="butt" stroke-miterlimit="10" stroke-linejoin="miter" fill="none" stroke="#000000" d="M 0 28.34636 C 0 28.34636 .51189 28.59218 .70848 28.68806 C .90508 28.78397 1.2204 28.94179 1.41698 29.03757 C 1.61357 29.13333 1.92888 29.28328 2.12547 29.37839 C 2.32207 29.47351 2.63739 29.6289 2.83397 29.72313 C 3.03056 29.81735 3.34587 29.96573 3.54247 30.05748 C 3.73906 30.14925 4.05438 30.29243 4.25096 30.38448 C 4.44756 30.47652 4.76288 30.62991 4.95947 30.72101 C 5.15607 30.81209 5.47136 30.95166 5.66795 31.04108 C 5.86455 31.1305 6.17987 31.2754 6.37646 31.36548 C 6.57306 31.45555 6.88835 31.60197 7.08495 31.6903 C 7.28154 31.77866 7.59686 31.91516 7.79346 32.00218 C 7.99005 32.08919 8.30536 32.23073 8.50195 32.3175 C 8.69855 32.40427 9.01385 32.54193 9.21045 32.62762 C 9.40704 32.71332 9.72235 32.85085 9.91895 32.93515 C 10.11554 33.01947 10.43085 33.15137 10.62744 33.23534 C 10.82404 33.31929 11.13934 33.45573 11.33594 33.54028 C 11.53253 33.62483 11.84785 33.76149 12.04445 33.84479 C 12.24104 33.92807 12.55634 34.05896 12.75293 34.14064 C 12.94952 34.22232 13.26485 34.35289 13.46144 34.43347 C 13.65802 34.51407 13.97333 34.6416 14.16992 34.72154 C 14.36652 34.80147 14.68184 34.9304 14.87843 35.00961 C 15.07501 35.08884 15.39034 35.2146 15.58693 35.2925 C 15.78352 35.37039 16.09883 35.49413 16.29543 35.57104 C 16.492 35.64796 17.00392 35.847 17.00392 35.847 L 17.00737 0 L 0 0 Z "/>
<path transform="matrix(2.7777777,0,0,-2.7777777,51.130556,159.69443)" stroke-width=".3985" stroke-linecap="butt" stroke-dasharray=".3985,1.99255" stroke-miterlimit="10" stroke-linejoin="miter" fill="none" stroke="#000000" d="M 8.50368 0 L 8.50368 32.32008 "/>
<path transform="matrix(2.7777777,0,0,-2.7777777,51.130556,159.69443)" d="M 17.00737 35.85435 C 17.00737 35.85435 17.51929 36.05244 17.71588 36.12859 C 17.91248 36.20474 18.22778 36.32704 18.42438 36.40324 C 18.62097 36.47945 18.93628 36.60103 19.13287 36.67792 C 19.32945 36.75479 19.64478 36.88153 19.84137 36.95732 C 20.03796 37.03313 20.35327 37.1501 20.54987 37.22421 C 20.74644 37.29832 21.06177 37.41704 21.25836 37.4915 C 21.45496 37.56598 21.77028 37.68687 21.96687 37.76097 C 22.16345 37.83508 22.47876 37.95267 22.67535 38.02571 C 22.87195 38.09874 23.18727 38.2137 23.38387 38.28737 C 23.58044 38.36105 23.89575 38.48413 24.09235 38.55685 C 24.28894 38.6296 24.60426 38.74028 24.80084 38.81161 C 24.99744 38.88297 25.31276 38.99876 25.50935 39.07115 C 25.70595 39.14352 26.02126 39.26257 26.21783 39.33325 C 26.41443 39.40395 26.72975 39.51106 26.92635 39.58067 C 27.12294 39.65028 27.43825 39.76503 27.63483 39.83499 C 27.83142 39.90497 28.14674 40.01497 28.34334 40.085 C 28.53993 40.15504 28.85524 40.2698 29.05182 40.33978 C 29.24841 40.40976 29.56374 40.51974 29.76033 40.58936 C 29.95692 40.65897 30.27223 40.7736 30.46883 40.84152 C 30.66542 40.90944 30.98073 41.01207 31.17732 41.07898 C 31.37392 41.14587 31.68922 41.25761 31.88582 41.3238 C 32.08241 41.39 32.39772 41.48994 32.59431 41.55608 C 32.79091 41.62221 33.10622 41.73361 33.30281 41.80046 C 33.4994 41.86731 34.01132 42.03792 34.01132 42.03792 L 34.01477 0 L 17.00737 0 Z " fill="#6dcff6" fill-opacity=".4"/>
<path transform="matrix(2.7777777,0,0,-2.7777777,51.130556,159.69443)" stroke-width=".19925" stroke-linecap="butt" stroke-miterlimit="10" stroke-linejoin="miter" fill="none" stroke="#000000" d="M 17.00737 35.85435 C 17.00737 35.85435 17.51929 36.05244 17.71588 36.12859 C 17.91248 36.20474 18.22778 36.32704 18.42438 36.40324 C 18.62097 36.47945 18.93628 36.60103 19.13287 36.67792 C 19.32945 36.75479 19.64478 36.88153 19.84137 36.95732 C 20.03796 37.03313 20.35327 37.1501 20.54987 37.22421 C 20.74644 37.29832 21.06177 37.41704 21.25836 37.4915 C 21.45496 37.56598 21.77028 37.68687 21.96687 37.76097 C 22.16345 37.83508 22.47876 37.95267 22.67535 38.02571 C 22.87195 38.09874 23.18727 38.2137 23.38387 38.28737 C 23.58044 38.36105 23.89575 38.48413 24.09235 38.55685 C 24.28894 38.6296 24.60426 38.74028 24.80084 38.81161 C 24.99744 38.88297 25.31276 38.99876 25.50935 39.07115 C 25.70595 39.14352 26.02126 39.26257 26.21783 39.33325 C 26.41443 39.40395 26.72975 39.51106 26.92635 39.58067 C 27.12294 39.65028 27.43825 39.76503 27.63483 39.83499 C 27.83142 39.90497 28.14674 40.01497 28.34334 40.085 C 28.53993 40.15504 28.85524 40.2698 29.05182 40.33978 C 29.24841 40.40976 29.56374 40.51974 29.76033 40.58936 C 29.95692 40.65897 30.27223 40.7736 30.46883 40.84152 C 30.66542 40.90944 30.98073 41.01207 31.17732 41.07898 C 31.37392 41.14587 31.68922 41.25761 31.88582 41.3238 C 32.08241 41.39 32.39772 41.48994 32.59431 41.55608 C 32.79091 41.62221 33.10622 41.73361 33.30281 41.80046 C 33.4994 41.86731 34.01132 42.03792 34.01132 42.03792 L 34.01477 0 L 17.00737 0 Z "/>
<path transform="matrix(2.7777777,0,0,-2.7777777,51.130556,159.69443)" stroke-width=".3985" stroke-linecap="butt" stroke-dasharray=".3985,1.99255" stroke-miterlimit="10" stroke-linejoin="miter" fill="none" stroke="#000000" d="M 25.51108 0 L 25.51108 39.07288 "/>
<path transform="matrix(2.7777777,0,0,-2.7777777,51.130556,159.69443)" d="M 34.01477 42.04268 C 34.01477 42.04268 34.52669 42.21109 34.72327 42.27626 C 34.91986 42.34143 35.23517 42.44684 35.43176 42.51242 C 35.62836 42.578 35.94366 42.6832 36.14026 42.74902 C 36.33685 42.81485 36.65218 42.92146 36.84877 42.98691 C 37.04536 43.05237 37.36066 43.15706 37.55725 43.2209 C 37.75385 43.28476 38.06917 43.38303 38.26576 43.44713 C 38.46236 43.51122 38.77765 43.61914 38.97424 43.68286 C 39.17084 43.74658 39.48616 43.84306 39.68275 43.90648 C 39.87935 43.96991 40.19466 44.07603 40.39125 44.14006 C 40.58784 44.20409 40.90315 44.30495 41.09975 44.368 C 41.29634 44.43106 41.61165 44.53255 41.80824 44.59465 C 42.00484 44.65675 42.32014 44.75334 42.51674 44.81569 C 42.71332 44.87802 43.02864 44.98172 43.22523 45.04407 C 43.42183 45.1064 43.73715 45.20477 43.93375 45.26509 C 44.13033 45.3254 44.44563 45.41809 44.64223 45.47876 C 44.83882 45.53943 45.15414 45.64046 45.35074 45.70238 C 45.54732 45.76431 45.86263 45.86357 46.05922 45.92514 C 46.25581 45.98671 46.57114 46.0849 46.76773 46.14616 C 46.96431 46.20743 47.27963 46.30687 47.47623 46.36676 C 47.67282 46.42664 47.98813 46.51868 48.18471 46.57784 C 48.3813 46.63701 48.69662 46.73474 48.89322 46.79324 C 49.08981 46.85176 49.40512 46.941 49.6017 46.99957 C 49.7983 47.05814 50.11362 47.15623 50.31021 47.21541 C 50.5068 47.27457 51.0187 47.42604 51.0187 47.42604 L 51.02217 0 L 34.01477 0 Z " fill="#6dcff6" fill-opacity=".4"/>
<path transform="matrix(2.7777777,0,0,-2.7777777,51.130556,159.69443)" stroke-width=".19925" stroke-linecap="butt" stroke-miterlimit="10" stroke-linejoin="miter" fill="none" stroke="#000000" d="M 34.01477 42.04268 C 34.01477 42.04268 34.52669 42.21109 34.72327 42.27626 C 34.91986 42.34143 35.23517 42.44684 35.43176 42.51242 C 35.62836 42.578 35.94366 42.6832 36.14026 42.74902 C 36.33685 42.81485 36.65218 42.92146 36.84877 42.98691 C 37.04536 43.05237 37.36066 43.15706 37.55725 43.2209 C 37.75385 43.28476 38.06917 43.38303 38.26576 43.44713 C 38.46236 43.51122 38.77765 43.61914 38.97424 43.68286 C 39.17084 43.74658 39.48616 43.84306 39.68275 43.90648 C 39.87935 43.96991 40.19466 44.07603 40.39125 44.14006 C 40.58784 44.20409 40.90315 44.30495 41.09975 44.368 C 41.29634 44.43106 41.61165 44.53255 41.80824 44.59465 C 42.00484 44.65675 42.32014 44.75334 42.51674 44.81569 C 42.71332 44.87802 43.02864 44.98172 43.22523 45.04407 C 43.42183 45.1064 43.73715 45.20477 43.93375 45.26509 C 44.13033 45.3254 44.44563 45.41809 44.64223 45.47876 C 44.83882 45.53943 45.15414 45.64046 45.35074 45.70238 C 45.54732 45.76431 45.86263 45.86357 46.05922 45.92514 C 46.25581 45.98671 46.57114 46.0849 46.76773 46.14616 C 46.96431 46.20743 47.27963 46.30687 47.47623 46.36676 C 47.67282 46.42664 47.98813 46.51868 48.18471 46.57784 C 48.3813 46.63701 48.69662 46.73474 48.89322 46.79324 C 49.08981 46.85176 49.40512 46.941 49.6017 46.99957 C 49.7983 47.05814 50.11362 47.15623 50.31021 47.21541 C 50.5068 47.27457 51.0187 47.42604 51.0187 47.42604 L 51.02217 0 L 34.01477 0 Z "/>
<path transform="matrix(2.7777777,0,0,-2.7777777,51.130556,159.69443)" stroke-width=".3985" stroke-linecap="butt" stroke-dasharray=".3985,1.99255" stroke-miterlimit="10" stroke-linejoin="miter" fill="none" stroke="#000000" d="M 42.51846 0 L 42.51846 44.81958 "/>
<path transform="matrix(2.7777777,0,0,-2.7777777,51.130556,159.69443)" d="M 51.02217 47.4308 C 51.02217 47.4308 51.53407 47.57785 51.73067 47.63539 C 51.92726 47.69293 52.24257 47.78734 52.43916 47.84561 C 52.63574 47.90387 52.95107 47.99623 53.14766 48.05539 C 53.34425 48.11456 53.65958 48.21358 53.85616 48.2721 C 54.05275 48.33061 54.36806 48.42029 54.56465 48.47711 C 54.76125 48.53394 55.07657 48.62428 55.27315 48.6817 C 55.46974 48.73912 55.78505 48.83391 55.98164 48.89105 C 56.17824 48.94818 56.49356 49.03743 56.69014 49.09348 C 56.88673 49.14952 57.20204 49.23833 57.39864 49.29504 C 57.59523 49.35175 57.91055 49.44547 58.10713 49.50223 C 58.30373 49.55899 58.61905 49.64818 58.81564 49.70422 C 59.01224 49.76028 59.32753 49.84952 59.52412 49.90622 C 59.72072 49.96292 60.03604 50.05722 60.23264 50.11296 C 60.42923 50.16872 60.74452 50.25404 60.94112 50.30804 C 61.13771 50.36206 61.45303 50.44711 61.64963 50.50226 C 61.84622 50.55739 62.16153 50.64897 62.35812 50.70555 C 62.55472 50.76213 62.87003 50.8551 63.06662 50.91014 C 63.26321 50.96518 63.57852 51.04727 63.77512 51.10219 C 63.97171 51.1571 64.28702 51.25136 64.48361 51.30591 C 64.6802 51.36046 64.99551 51.44255 65.19211 51.49536 C 65.3887 51.54817 65.70403 51.63411 65.90062 51.68655 C 66.09721 51.739 66.4125 51.81981 66.6091 51.8734 C 66.8057 51.92699 67.12102 52.01897 67.31761 52.0728 C 67.51419 52.12663 68.0261 52.26138 68.0261 52.26138 L 68.02956 0 L 51.02217 0 Z " fill="#6dcff6" fill-opacity=".4"/>
<path transform="matrix(2.7777777,0,0,-2.7777777,51.130556,159.69443)" stroke-width=".19925" stroke-linecap="butt" stroke-miterlimit="10" stroke-linejoin="miter" fill="none" stroke="#000000" d="M 51.02217 47.4308 C 51.02217 47.4308 51.53407 47.57785 51.73067 47.63539 C 51.92726 47.69293 52.24257 47.78734 52.43916 47.84561 C 52.63574 47.90387 52.95107 47.99623 53.14766 48.05539 C 53.34425 48.11456 53.65958 48.21358 53.85616 48.2721 C 54.05275 48.33061 54.36806 48.42029 54.56465 48.47711 C 54.76125 48.53394 55.07657 48.62428 55.27315 48.6817 C 55.46974 48.73912 55.78505 48.83391 55.98164 48.89105 C 56.17824 48.94818 56.49356 49.03743 56.69014 49.09348 C 56.88673 49.14952 57.20204 49.23833 57.39864 49.29504 C 57.59523 49.35175 57.91055 49.44547 58.10713 49.50223 C 58.30373 49.55899 58.61905 49.64818 58.81564 49.70422 C 59.01224 49.76028 59.32753 49.84952 59.52412 49.90622 C 59.72072 49.96292 60.03604 50.05722 60.23264 50.11296 C 60.42923 50.16872 60.74452 50.25404 60.94112 50.30804 C 61.13771 50.36206 61.45303 50.44711 61.64963 50.50226 C 61.84622 50.55739 62.16153 50.64897 62.35812 50.70555 C 62.55472 50.76213 62.87003 50.8551 63.06662 50.91014 C 63.26321 50.96518 63.57852 51.04727 63.77512 51.10219 C 63.97171 51.1571 64.28702 51.25136 64.48361 51.30591 C 64.6802 51.36046 64.99551 51.44255 65.19211 51.49536 C 65.3887 51.54817 65.70403 51.63411 65.90062 51.68655 C 66.09721 51.739 66.4125 51.81981 66.6091 51.8734 C 66.8057 51.92699 67.12102 52.01897 67.31761 52.0728 C 67.51419 52.12663 68.0261 52.26138 68.0261 52.26138 L 68.02956 0 L 51.02217 0 Z "/>
<path transform="matrix(2.7777777,0,0,-2.7777777,51.130556,159.69443)" stroke-width=".3985" stroke-linecap="butt" stroke-dasharray=".3985,1.99255" stroke-miterlimit="10" stroke-linejoin="miter" fill="none" stroke="#000000" d="M 59.52586 0 L 59.52586 49.90881 "/>
<path transform="matrix(2.7777777,0,0,-2.7777777,51.130556,159.69443)" d="M 68.02956 52.26614 C 68.02956 52.26614 68.54147 52.40396 68.73807 52.4569 C 68.93466 52.50983 69.24995 52.59502 69.44655 52.64764 C 69.64314 52.70029 69.95847 52.78233 70.15506 52.83623 C 70.35165 52.89012 70.66695 52.98259 70.86354 53.03606 C 71.06013 53.08952 71.37546 53.17049 71.57205 53.22162 C 71.76865 53.27274 72.08395 53.35214 72.28055 53.40459 C 72.47714 53.45703 72.79245 53.54721 72.98904 53.59966 C 73.18562 53.6521 73.50095 53.73114 73.69754 53.78262 C 73.89413 53.83412 74.20944 53.91875 74.40604 53.97076 C 74.60262 54.0228 74.91794 54.10698 75.11453 54.15764 C 75.31113 54.20828 75.62645 54.28543 75.82304 54.33585 C 76.01962 54.38626 76.33493 54.4693 76.53152 54.52097 C 76.72812 54.57262 77.04344 54.65718 77.24004 54.70825 C 77.43661 54.75931 77.75192 54.83974 77.94852 54.88907 C 78.14511 54.93839 78.46043 55.01364 78.65701 55.06381 C 78.8536 55.11397 79.16893 55.1984 79.36552 55.25066 C 79.56212 55.30292 79.87743 55.38924 80.074 55.44054 C 80.2706 55.49185 80.58592 55.56989 80.78252 55.62047 C 80.97911 55.67107 81.29442 55.75531 81.491 55.80518 C 81.68759 55.85504 82.00291 55.93112 82.19951 55.9799 C 82.3961 56.02869 82.7114 56.10829 82.90799 56.15683 C 83.10458 56.20537 83.4199 56.2807 83.6165 56.32985 C 83.8131 56.379 84.1284 56.46198 84.325 56.51106 C 84.52159 56.56015 85.0335 56.68365 85.0335 56.68365 L 85.03696 0 L 68.02956 0 Z " fill="#6dcff6" fill-opacity=".4"/>
<path transform="matrix(2.7777777,0,0,-2.7777777,51.130556,159.69443)" stroke-width=".19925" stroke-linecap="butt" stroke-miterlimit="10" stroke-linejoin="miter" fill="none" stroke="#000000" d="M 68.02956 52.26614 C 68.02956 52.26614 68.54147 52.40396 68.73807 52.4569 C 68.93466 52.50983 69.24995 52.59502 69.44655 52.64764 C 69.64314 52.70029 69.95847 52.78233 70.15506 52.83623 C 70.35165 52.89012 70.66695 52.98259 70.86354 53.03606 C 71.06013 53.08952 71.37546 53.17049 71.57205 53.22162 C 71.76865 53.27274 72.08395 53.35214 72.28055 53.40459 C 72.47714 53.45703 72.79245 53.54721 72.98904 53.59966 C 73.18562 53.6521 73.50095 53.73114 73.69754 53.78262 C 73.89413 53.83412 74.20944 53.91875 74.40604 53.97076 C 74.60262 54.0228 74.91794 54.10698 75.11453 54.15764 C 75.31113 54.20828 75.62645 54.28543 75.82304 54.33585 C 76.01962 54.38626 76.33493 54.4693 76.53152 54.52097 C 76.72812 54.57262 77.04344 54.65718 77.24004 54.70825 C 77.43661 54.75931 77.75192 54.83974 77.94852 54.88907 C 78.14511 54.93839 78.46043 55.01364 78.65701 55.06381 C 78.8536 55.11397 79.16893 55.1984 79.36552 55.25066 C 79.56212 55.30292 79.87743 55.38924 80.074 55.44054 C 80.2706 55.49185 80.58592 55.56989 80.78252 55.62047 C 80.97911 55.67107 81.29442 55.75531 81.491 55.80518 C 81.68759 55.85504 82.00291 55.93112 82.19951 55.9799 C 82.3961 56.02869 82.7114 56.10829 82.90799 56.15683 C 83.10458 56.20537 83.4199 56.2807 83.6165 56.32985 C 83.8131 56.379 84.1284 56.46198 84.325 56.51106 C 84.52159 56.56015 85.0335 56.68365 85.0335 56.68365 L 85.03696 0 L 68.02956 0 Z "/>
<path transform="matrix(2.7777777,0,0,-2.7777777,51.130556,159.69443)" stroke-width=".3985" stroke-linecap="butt" stroke-dasharray=".3985,1.99255" stroke-miterlimit="10" stroke-linejoin="miter" fill="none" stroke="#000000" d="M 76.53326 0 L 76.53326 54.52486 "/>
<path transform="matrix(2.7777777,0,0,-2.7777777,51.130556,159.69443)" stroke-width="1.59404" stroke-linecap="butt" stroke-miterlimit="10" stroke-linejoin="miter" fill="none" stroke="#000000" stroke-opacity=".6" d="M 0 28.3468 C 0 28.3468 2.56007 29.60194 3.54333 30.06613 C 4.5266 30.53032 6.10342 31.25215 7.08669 31.69247 C 8.06995 32.13278 9.64677 32.81995 10.63004 33.23967 C 11.6133 33.6594 13.19012 34.31592 14.17339 34.71765 C 15.15665 35.11937 16.73347 35.74913 17.71674 36.13509 C 18.70001 36.52103 20.27682 37.12747 21.2601 37.4993 C 22.24336 37.87114 23.82019 38.45584 24.80345 38.81508 C 25.78671 39.17432 27.36354 39.74065 28.3468 40.08847 C 29.33006 40.43631 30.90688 40.98468 31.89014 41.32207 C 32.8734 41.65947 34.45023 42.19229 35.43349 42.5202 C 36.41676 42.8481 37.99358 43.36638 38.97685 43.68546 C 39.96011 44.00455 41.53694 44.50902 42.5202 44.82 C 43.50346 45.13098 45.08029 45.62334 46.06355 45.92686 C 47.04681 46.23041 48.62364 46.7112 49.6069 47.00778 C 50.59016 47.30435 52.16699 47.77443 53.15025 48.06447 C 54.13353 48.3545 55.71034 48.81436 56.69362 49.09824 C 57.67688 49.3821 59.2537 49.83229 60.23695 50.11038 C 61.22021 50.38847 62.79704 50.82986 63.7803 51.10262 C 64.76357 51.37537 66.3404 51.8086 67.32365 52.07625 C 68.30692 52.34392 69.88374 52.76889 70.867 53.03174 C 71.85028 53.2946 73.4271 53.71248 74.41037 53.97076 C 75.39363 54.22906 76.97046 54.63947 77.95372 54.89337 C 78.93698 55.1473 80.51381 55.55107 81.49707 55.80084 C 82.48033 56.05061 85.04042 56.69362 85.04042 56.69362 "/>
<path transform="matrix(2.7777777,0,0,-2.7777777,51.130556,159.69443)" stroke-width=".3985" stroke-linecap="butt" stroke-miterlimit="10" stroke-linejoin="miter" fill="none" stroke="#000000" d="M 0 0 L 0 -2.83484 "/>
<path transform="matrix(2.7777777,0,0,-2.7777777,51.130556,159.69443)" stroke-width=".3985" stroke-linecap="butt" stroke-miterlimit="10" stroke-linejoin="miter" fill="none" stroke="#000000" d="M 85.04042 0 L 85.04042 -2.83484 "/>
<symbol id="font_0_1">
<path d="M .33300004 .38900004 C .31500004 .42600004 .286 .45300005 .24100001 .45300005 C .124 .45300005 0 .30600003 0 .16000001 C 0 .06600001 .055000005 0 .133 0 C .153 0 .20300001 .0040000008 .263 .075 C .27100004 .033000005 .30600003 0 .35400004 0 C .38900004 0 .41200004 .023000002 .42800004 .055000005 C .44500003 .091000009 .45800004 .15200001 .45800004 .15400002 C .45800004 .16400002 .44900004 .16400002 .44600005 .16400002 C .43600003 .16400002 .43500004 .16000001 .43200005 .14600002 C .41500003 .081 .397 .022000002 .35600005 .022000002 C .32900004 .022000002 .32600004 .048 .32600004 .068 C .32600004 .09 .32800005 .098000008 .33900003 .14200002 C .35000003 .18400002 .35200004 .19400002 .36100004 .23200003 L .397 .37200005 C .40400005 .40000005 .40400005 .40200005 .40400005 .40600003 C .40400005 .42300005 .39200003 .43300004 .37500004 .43300004 C .35100005 .43300004 .33600004 .411 .33300004 .38900004 M .26800005 .13000001 C .263 .112 .263 .11000001 .24800001 .093 C .20400001 .038000004 .163 .022000002 .135 .022000002 C .08499999 .022000002 .07100001 .077 .07100001 .116000007 C .07100001 .16600001 .103 .28900004 .126 .335 C .157 .39400003 .202 .43100003 .242 .43100003 C .307 .43100003 .32100005 .34900005 .32100005 .34300003 C .32100005 .337 .31900005 .33100004 .31800003 .32600004 L .26800005 .13000001 Z "/>
</symbol>
<use xlink:href="#font_0_1" transform="matrix(27.673888,0,0,-27.673888,19.554177,211.23218)"/>
<symbol id="font_1_3">
<path d="M .63100007 .19400002 C .646 .19400002 .665 .19400002 .665 .214 C .665 .23400001 .646 .23400001 .632 .23400001 L .033 .23400001 C .019000002 .23400001 0 .23400001 0 .214 C 0 .19400002 .019000002 .19400002 .034 .19400002 L .63100007 .19400002 M .632 0 C .646 0 .665 0 .665 .02000001 C .665 .040000008 .646 .040000008 .63100007 .040000008 L .034 .040000008 C .019000002 .040000008 0 .040000008 0 .02000001 C 0 0 .019000002 0 .033 0 L .632 0 Z "/>
</symbol>
<symbol id="font_1_1">
<path d="M .421 .34200005 C .421 .42200003 .416 .50200006 .381 .57600006 C .335 .67200008 .25300003 .688 .211 .688 C .15100001 .688 .07800001 .66200008 .037000006 .56900009 C .0050000029 .5 0 .42200003 0 .34200005 C 0 .26700003 .0040000008 .177 .045000007 .101 C .088 .020000002 .161 0 .21000001 0 C .264 0 .34 .021000002 .384 .116000007 C .416 .185 .421 .263 .421 .34200005 M .21000001 .022000002 C .171 .022000002 .112 .047000003 .094 .143 C .083000008 .20300001 .083000008 .29500003 .083000008 .35400004 C .083000008 .41800005 .083000008 .48400004 .091000009 .53800007 C .11 .65700009 .185 .66600009 .21000001 .66600009 C .243 .66600009 .30900003 .64800009 .328 .549 C .338 .49300004 .338 .41700004 .338 .35400004 C .338 .279 .338 .21100001 .32700003 .147 C .312 .052 .255 .022000002 .21000001 .022000002 Z "/>
</symbol>
<use xlink:href="#font_1_3" transform="matrix(27.673888,0,0,-27.673888,42.313627,207.24713)"/>
<use xlink:href="#font_1_1" transform="matrix(27.673888,0,0,-27.673888,71.0668,211.53659)"/>
<symbol id="font_0_2">
<path d="M .192 .694 C .192 .695 .192 .705 .179 .705 C .156 .705 .083000008 .697 .057 .695 C .049 .694 .038 .693 .038 .675 C .038 .663 .047000003 .663 .062000004 .663 C .11 .663 .112 .656 .112 .646 C .112 .639 .103 .605 .098000008 .584 L .015999999 .25800003 C .0040000008 .20800002 0 .19200002 0 .15700002 C 0 .062000004 .053 0 .127 0 C .24500002 0 .36800004 .14900002 .36800004 .293 C .36800004 .38400004 .31500004 .45300005 .235 .45300005 C .18900001 .45300005 .148 .42400003 .118 .39300005 L .192 .694 M .098000008 .316 C .104 .33800004 .104 .34000004 .113000009 .351 C .162 .41600005 .207 .43100003 .233 .43100003 C .26900003 .43100003 .29600004 .40100003 .29600004 .337 C .29600004 .27800004 .263 .16300002 .24500002 .12500002 C .212 .058000003 .16600001 .022000002 .127 .022000002 C .092999998 .022000002 .060000007 .049000004 .060000007 .123 C .060000007 .14200002 .060000007 .16100002 .076000008 .22400002 L .098000008 .316 Z "/>
</symbol>
<use xlink:href="#font_0_2" transform="matrix(27.673888,0,0,-27.673888,257.34507,212.61551)"/>
<symbol id="font_1_2">
<path d="M .24800003 .37400005 C .33 .40100003 .388 .47100006 .388 .55 C .388 .632 .3 .688 .204 .688 C .10300001 .688 .027000003 .628 .027000003 .55200007 C .027000003 .519 .049000004 .5 .078 .5 C .109000008 .5 .12900001 .522 .12900001 .55100008 C .12900001 .6010001 .082 .6010001 .067 .6010001 C .098 .65000006 .164 .66300007 .20000002 .66300007 C .24100003 .66300007 .29600004 .64100006 .29600004 .55100008 C .29600004 .53900006 .29400004 .48100005 .268 .43700005 C .238 .38900004 .204 .38600005 .17900002 .38500003 C .171 .38400004 .14700002 .38200004 .14000002 .38200004 C .132 .38100005 .125 .38000003 .125 .37000004 C .125 .35900004 .132 .35900004 .14900002 .35900004 L .19300002 .35900004 C .275 .35900004 .312 .29100005 .312 .193 C .312 .057000005 .24300003 .028 .199 .028 C .15600002 .028 .081 .045 .046000005 .104 C .081 .09900001 .11200001 .12100001 .11200001 .15900001 C .11200001 .19500001 .085 .215 .056 .215 C .031999999 .215 0 .201 0 .157 C 0 .06600001 .093 0 .20200002 0 C .32400004 0 .41500003 .091000009 .41500003 .193 C .41500003 .27500005 .35200004 .35300005 .24800003 .37400005 Z "/>
</symbol>
<use xlink:href="#font_1_3" transform="matrix(27.673888,0,0,-27.673888,277.15806,208.63047)"/>
<use xlink:href="#font_1_2" transform="matrix(27.673888,0,0,-27.673888,305.9942,212.91992)"/>
<path transform="matrix(2.7777777,0,0,-2.7777777,51.130556,159.69443)" d="M .59776 0 C .59776 .33014 .33014 .59776 0 .59776 C -.33014 .59776 -.59776 .33014 -.59776 0 C -.59776 -.33014 -.33014 -.59776 0 -.59776 C .33014 -.59776 .59776 -.33014 .59776 0 Z M 0 0 "/>
<path transform="matrix(2.7777777,0,0,-2.7777777,51.130556,159.69443)" stroke-width=".3985" stroke-linecap="butt" stroke-miterlimit="10" stroke-linejoin="miter" fill="none" stroke="#000000" d="M .59776 0 C .59776 .33014 .33014 .59776 0 .59776 C -.33014 .59776 -.59776 .33014 -.59776 0 C -.59776 -.33014 -.33014 -.59776 0 -.59776 C .33014 -.59776 .59776 -.33014 .59776 0 Z M 0 0 "/>
<path transform="matrix(2.7777777,0,0,-2.7777777,51.130556,159.69443)" stroke-width=".3985" stroke-linecap="butt" stroke-dasharray="2.98883,2.98883" stroke-miterlimit="10" stroke-linejoin="miter" fill="none" stroke="#c0c0c0" d="M 0 0 L 0 28.3468 "/>
<path transform="matrix(2.7777777,0,0,-2.7777777,51.130556,159.69443)" d="M .59776 28.3468 C .59776 28.67694 .33014 28.94458 0 28.94458 C -.33014 28.94458 -.59776 28.67694 -.59776 28.3468 C -.59776 28.01666 -.33014 27.74902 0 27.74902 C .33014 27.74902 .59776 28.01666 .59776 28.3468 Z M 0 28.3468 "/>
<path transform="matrix(2.7777777,0,0,-2.7777777,51.130556,159.69443)" stroke-width=".3985" stroke-linecap="butt" stroke-miterlimit="10" stroke-linejoin="miter" fill="none" stroke="#000000" d="M .59776 28.3468 C .59776 28.67694 .33014 28.94458 0 28.94458 C -.33014 28.94458 -.59776 28.67694 -.59776 28.3468 C -.59776 28.01666 -.33014 27.74902 0 27.74902 C .33014 27.74902 .59776 28.01666 .59776 28.3468 Z M 0 28.3468 "/>
<path transform="matrix(2.7777777,0,0,-2.7777777,51.130556,159.69443)" d="M 9.10144 0 C 9.10144 .33014 8.83382 .59776 8.50368 .59776 C 8.17354 .59776 7.9059 .33014 7.9059 0 C 7.9059 -.33014 8.17354 -.59776 8.50368 -.59776 C 8.83382 -.59776 9.10144 -.33014 9.10144 0 Z M 8.50368 0 "/>
<path transform="matrix(2.7777777,0,0,-2.7777777,51.130556,159.69443)" stroke-width=".3985" stroke-linecap="butt" stroke-miterlimit="10" stroke-linejoin="miter" fill="none" stroke="#000000" d="M 9.10144 0 C 9.10144 .33014 8.83382 .59776 8.50368 .59776 C 8.17354 .59776 7.9059 .33014 7.9059 0 C 7.9059 -.33014 8.17354 -.59776 8.50368 -.59776 C 8.83382 -.59776 9.10144 -.33014 9.10144 0 Z M 8.50368 0 "/>
<path transform="matrix(2.7777777,0,0,-2.7777777,51.130556,159.69443)" stroke-width=".3985" stroke-linecap="butt" stroke-dasharray="2.98883,2.98883" stroke-miterlimit="10" stroke-linejoin="miter" fill="none" stroke="#c0c0c0" d="M 8.50368 0 L 8.50368 32.32008 "/>
<path transform="matrix(2.7777777,0,0,-2.7777777,51.130556,159.69443)" d="M 9.10144 32.32008 C 9.10144 32.65022 8.83382 32.91786 8.50368 32.91786 C 8.17354 32.91786 7.9059 32.65022 7.9059 32.32008 C 7.9059 31.98994 8.17354 31.7223 8.50368 31.7223 C 8.83382 31.7223 9.10144 31.98994 9.10144 32.32008 Z M 8.50368 32.32008 "/>
<path transform="matrix(2.7777777,0,0,-2.7777777,51.130556,159.69443)" stroke-width=".3985" stroke-linecap="butt" stroke-miterlimit="10" stroke-linejoin="miter" fill="none" stroke="#000000" d="M 9.10144 32.32008 C 9.10144 32.65022 8.83382 32.91786 8.50368 32.91786 C 8.17354 32.91786 7.9059 32.65022 7.9059 32.32008 C 7.9059 31.98994 8.17354 31.7223 8.50368 31.7223 C 8.83382 31.7223 9.10144 31.98994 9.10144 32.32008 Z M 8.50368 32.32008 "/>
<path transform="matrix(2.7777777,0,0,-2.7777777,51.130556,159.69443)" d="M 17.60515 0 C 17.60515 .33014 17.33751 .59776 17.00737 .59776 C 16.67723 .59776 16.4096 .33014 16.4096 0 C 16.4096 -.33014 16.67723 -.59776 17.00737 -.59776 C 17.33751 -.59776 17.60515 -.33014 17.60515 0 Z M 17.00737 0 "/>
<path transform="matrix(2.7777777,0,0,-2.7777777,51.130556,159.69443)" stroke-width=".3985" stroke-linecap="butt" stroke-miterlimit="10" stroke-linejoin="miter" fill="none" stroke="#000000" d="M 17.60515 0 C 17.60515 .33014 17.33751 .59776 17.00737 .59776 C 16.67723 .59776 16.4096 .33014 16.4096 0 C 16.4096 -.33014 16.67723 -.59776 17.00737 -.59776 C 17.33751 -.59776 17.60515 -.33014 17.60515 0 Z M 17.00737 0 "/>
<path transform="matrix(2.7777777,0,0,-2.7777777,51.130556,159.69443)" stroke-width=".3985" stroke-linecap="butt" stroke-dasharray="2.98883,2.98883" stroke-miterlimit="10" stroke-linejoin="miter" fill="none" stroke="#c0c0c0" d="M 17.00737 0 L 17.00737 35.85565 "/>
<path transform="matrix(2.7777777,0,0,-2.7777777,51.130556,159.69443)" d="M 17.60515 35.85565 C 17.60515 36.18579 17.33751 36.45343 17.00737 36.45343 C 16.67723 36.45343 16.4096 36.18579 16.4096 35.85565 C 16.4096 35.52551 16.67723 35.25787 17.00737 35.25787 C 17.33751 35.25787 17.60515 35.52551 17.60515 35.85565 Z M 17.00737 35.85565 "/>
<path transform="matrix(2.7777777,0,0,-2.7777777,51.130556,159.69443)" stroke-width=".3985" stroke-linecap="butt" stroke-miterlimit="10" stroke-linejoin="miter" fill="none" stroke="#000000" d="M 17.60515 35.85565 C 17.60515 36.18579 17.33751 36.45343 17.00737 36.45343 C 16.67723 36.45343 16.4096 36.18579 16.4096 35.85565 C 16.4096 35.52551 16.67723 35.25787 17.00737 35.25787 C 17.33751 35.25787 17.60515 35.52551 17.60515 35.85565 Z M 17.00737 35.85565 "/>
<path transform="matrix(2.7777777,0,0,-2.7777777,51.130556,159.69443)" d="M 26.10884 0 C 26.10884 .33014 25.84122 .59776 25.51108 .59776 C 25.18092 .59776 24.9133 .33014 24.9133 0 C 24.9133 -.33014 25.18092 -.59776 25.51108 -.59776 C 25.84122 -.59776 26.10884 -.33014 26.10884 0 Z M 25.51108 0 "/>
<path transform="matrix(2.7777777,0,0,-2.7777777,51.130556,159.69443)" stroke-width=".3985" stroke-linecap="butt" stroke-miterlimit="10" stroke-linejoin="miter" fill="none" stroke="#000000" d="M 26.10884 0 C 26.10884 .33014 25.84122 .59776 25.51108 .59776 C 25.18092 .59776 24.9133 .33014 24.9133 0 C 24.9133 -.33014 25.18092 -.59776 25.51108 -.59776 C 25.84122 -.59776 26.10884 -.33014 26.10884 0 Z M 25.51108 0 "/>
<path transform="matrix(2.7777777,0,0,-2.7777777,51.130556,159.69443)" stroke-width=".3985" stroke-linecap="butt" stroke-dasharray="2.98883,2.98883" stroke-miterlimit="10" stroke-linejoin="miter" fill="none" stroke="#c0c0c0" d="M 25.51108 0 L 25.51108 39.07288 "/>
<path transform="matrix(2.7777777,0,0,-2.7777777,51.130556,159.69443)" d="M 26.10884 39.07288 C 26.10884 39.40302 25.84122 39.67065 25.51108 39.67065 C 25.18092 39.67065 24.9133 39.40302 24.9133 39.07288 C 24.9133 38.74274 25.18092 38.4751 25.51108 38.4751 C 25.84122 38.4751 26.10884 38.74274 26.10884 39.07288 Z M 25.51108 39.07288 "/>
<path transform="matrix(2.7777777,0,0,-2.7777777,51.130556,159.69443)" stroke-width=".3985" stroke-linecap="butt" stroke-miterlimit="10" stroke-linejoin="miter" fill="none" stroke="#000000" d="M 26.10884 39.07288 C 26.10884 39.40302 25.84122 39.67065 25.51108 39.67065 C 25.18092 39.67065 24.9133 39.40302 24.9133 39.07288 C 24.9133 38.74274 25.18092 38.4751 25.51108 38.4751 C 25.84122 38.4751 26.10884 38.74274 26.10884 39.07288 Z M 25.51108 39.07288 "/>
<path transform="matrix(2.7777777,0,0,-2.7777777,51.130556,159.69443)" d="M 34.61253 0 C 34.61253 .33014 34.34491 .59776 34.01477 .59776 C 33.68463 .59776 33.41699 .33014 33.41699 0 C 33.41699 -.33014 33.68463 -.59776 34.01477 -.59776 C 34.34491 -.59776 34.61253 -.33014 34.61253 0 Z M 34.01477 0 "/>
<path transform="matrix(2.7777777,0,0,-2.7777777,51.130556,159.69443)" stroke-width=".3985" stroke-linecap="butt" stroke-miterlimit="10" stroke-linejoin="miter" fill="none" stroke="#000000" d="M 34.61253 0 C 34.61253 .33014 34.34491 .59776 34.01477 .59776 C 33.68463 .59776 33.41699 .33014 33.41699 0 C 33.41699 -.33014 33.68463 -.59776 34.01477 -.59776 C 34.34491 -.59776 34.61253 -.33014 34.61253 0 Z M 34.01477 0 "/>
<path transform="matrix(2.7777777,0,0,-2.7777777,51.130556,159.69443)" stroke-width=".3985" stroke-linecap="butt" stroke-dasharray="2.98883,2.98883" stroke-miterlimit="10" stroke-linejoin="miter" fill="none" stroke="#c0c0c0" d="M 34.01477 0 L 34.01477 42.0444 "/>
<path transform="matrix(2.7777777,0,0,-2.7777777,51.130556,159.69443)" d="M 34.61253 42.0444 C 34.61253 42.37454 34.34491 42.64218 34.01477 42.64218 C 33.68463 42.64218 33.41699 42.37454 33.41699 42.0444 C 33.41699 41.71426 33.68463 41.44664 34.01477 41.44664 C 34.34491 41.44664 34.61253 41.71426 34.61253 42.0444 Z M 34.01477 42.0444 "/>
<path transform="matrix(2.7777777,0,0,-2.7777777,51.130556,159.69443)" stroke-width=".3985" stroke-linecap="butt" stroke-miterlimit="10" stroke-linejoin="miter" fill="none" stroke="#000000" d="M 34.61253 42.0444 C 34.61253 42.37454 34.34491 42.64218 34.01477 42.64218 C 33.68463 42.64218 33.41699 42.37454 33.41699 42.0444 C 33.41699 41.71426 33.68463 41.44664 34.01477 41.44664 C 34.34491 41.44664 34.61253 41.71426 34.61253 42.0444 Z M 34.01477 42.0444 "/>
<path transform="matrix(2.7777777,0,0,-2.7777777,51.130556,159.69443)" d="M 43.11624 0 C 43.11624 .33014 42.8486 .59776 42.51846 .59776 C 42.18832 .59776 41.9207 .33014 41.9207 0 C 41.9207 -.33014 42.18832 -.59776 42.51846 -.59776 C 42.8486 -.59776 43.11624 -.33014 43.11624 0 Z M 42.51846 0 "/>
<path transform="matrix(2.7777777,0,0,-2.7777777,51.130556,159.69443)" stroke-width=".3985" stroke-linecap="butt" stroke-miterlimit="10" stroke-linejoin="miter" fill="none" stroke="#000000" d="M 43.11624 0 C 43.11624 .33014 42.8486 .59776 42.51846 .59776 C 42.18832 .59776 41.9207 .33014 41.9207 0 C 41.9207 -.33014 42.18832 -.59776 42.51846 -.59776 C 42.8486 -.59776 43.11624 -.33014 43.11624 0 Z M 42.51846 0 "/>
<path transform="matrix(2.7777777,0,0,-2.7777777,51.130556,159.69443)" stroke-width=".3985" stroke-linecap="butt" stroke-dasharray="2.98883,2.98883" stroke-miterlimit="10" stroke-linejoin="miter" fill="none" stroke="#c0c0c0" d="M 42.51846 0 L 42.51846 44.81958 "/>
<path transform="matrix(2.7777777,0,0,-2.7777777,51.130556,159.69443)" d="M 43.11624 44.81958 C 43.11624 45.14972 42.8486 45.41734 42.51846 45.41734 C 42.18832 45.41734 41.9207 45.14972 41.9207 44.81958 C 41.9207 44.48944 42.18832 44.2218 42.51846 44.2218 C 42.8486 44.2218 43.11624 44.48944 43.11624 44.81958 Z M 42.51846 44.81958 "/>
<path transform="matrix(2.7777777,0,0,-2.7777777,51.130556,159.69443)" stroke-width=".3985" stroke-linecap="butt" stroke-miterlimit="10" stroke-linejoin="miter" fill="none" stroke="#000000" d="M 43.11624 44.81958 C 43.11624 45.14972 42.8486 45.41734 42.51846 45.41734 C 42.18832 45.41734 41.9207 45.14972 41.9207 44.81958 C 41.9207 44.48944 42.18832 44.2218 42.51846 44.2218 C 42.8486 44.2218 43.11624 44.48944 43.11624 44.81958 Z M 42.51846 44.81958 "/>
<path transform="matrix(2.7777777,0,0,-2.7777777,51.130556,159.69443)" d="M 51.61993 0 C 51.61993 .33014 51.35231 .59776 51.02217 .59776 C 50.69202 .59776 50.4244 .33014 50.4244 0 C 50.4244 -.33014 50.69202 -.59776 51.02217 -.59776 C 51.35231 -.59776 51.61993 -.33014 51.61993 0 Z M 51.02217 0 "/>
<path transform="matrix(2.7777777,0,0,-2.7777777,51.130556,159.69443)" stroke-width=".3985" stroke-linecap="butt" stroke-miterlimit="10" stroke-linejoin="miter" fill="none" stroke="#000000" d="M 51.61993 0 C 51.61993 .33014 51.35231 .59776 51.02217 .59776 C 50.69202 .59776 50.4244 .33014 50.4244 0 C 50.4244 -.33014 50.69202 -.59776 51.02217 -.59776 C 51.35231 -.59776 51.61993 -.33014 51.61993 0 Z M 51.02217 0 "/>
<path transform="matrix(2.7777777,0,0,-2.7777777,51.130556,159.69443)" stroke-width=".3985" stroke-linecap="butt" stroke-dasharray="2.98883,2.98883" stroke-miterlimit="10" stroke-linejoin="miter" fill="none" stroke="#c0c0c0" d="M 51.02217 0 L 51.02217 47.43254 "/>
<path transform="matrix(2.7777777,0,0,-2.7777777,51.130556,159.69443)" d="M 51.61993 47.43254 C 51.61993 47.76268 51.35231 48.0303 51.02217 48.0303 C 50.69202 48.0303 50.4244 47.76268 50.4244 47.43254 C 50.4244 47.1024 50.69202 46.83476 51.02217 46.83476 C 51.35231 46.83476 51.61993 47.1024 51.61993 47.43254 Z M 51.02217 47.43254 "/>
<path transform="matrix(2.7777777,0,0,-2.7777777,51.130556,159.69443)" stroke-width=".3985" stroke-linecap="butt" stroke-miterlimit="10" stroke-linejoin="miter" fill="none" stroke="#000000" d="M 51.61993 47.43254 C 51.61993 47.76268 51.35231 48.0303 51.02217 48.0303 C 50.69202 48.0303 50.4244 47.76268 50.4244 47.43254 C 50.4244 47.1024 50.69202 46.83476 51.02217 46.83476 C 51.35231 46.83476 51.61993 47.1024 51.61993 47.43254 Z M 51.02217 47.43254 "/>
<path transform="matrix(2.7777777,0,0,-2.7777777,51.130556,159.69443)" d="M 60.12364 0 C 60.12364 .33014 59.856 .59776 59.52586 .59776 C 59.19572 .59776 58.92809 .33014 58.92809 0 C 58.92809 -.33014 59.19572 -.59776 59.52586 -.59776 C 59.856 -.59776 60.12364 -.33014 60.12364 0 Z M 59.52586 0 "/>
<path transform="matrix(2.7777777,0,0,-2.7777777,51.130556,159.69443)" stroke-width=".3985" stroke-linecap="butt" stroke-miterlimit="10" stroke-linejoin="miter" fill="none" stroke="#000000" d="M 60.12364 0 C 60.12364 .33014 59.856 .59776 59.52586 .59776 C 59.19572 .59776 58.92809 .33014 58.92809 0 C 58.92809 -.33014 59.19572 -.59776 59.52586 -.59776 C 59.856 -.59776 60.12364 -.33014 60.12364 0 Z M 59.52586 0 "/>
<path transform="matrix(2.7777777,0,0,-2.7777777,51.130556,159.69443)" stroke-width=".3985" stroke-linecap="butt" stroke-dasharray="2.98883,2.98883" stroke-miterlimit="10" stroke-linejoin="miter" fill="none" stroke="#c0c0c0" d="M 59.52586 0 L 59.52586 49.90881 "/>
<path transform="matrix(2.7777777,0,0,-2.7777777,51.130556,159.69443)" d="M 60.12364 49.90881 C 60.12364 50.23895 59.856 50.50659 59.52586 50.50659 C 59.19572 50.50659 58.92809 50.23895 58.92809 49.90881 C 58.92809 49.57867 59.19572 49.31105 59.52586 49.31105 C 59.856 49.31105 60.12364 49.57867 60.12364 49.90881 Z M 59.52586 49.90881 "/>
<path transform="matrix(2.7777777,0,0,-2.7777777,51.130556,159.69443)" stroke-width=".3985" stroke-linecap="butt" stroke-miterlimit="10" stroke-linejoin="miter" fill="none" stroke="#000000" d="M 60.12364 49.90881 C 60.12364 50.23895 59.856 50.50659 59.52586 50.50659 C 59.19572 50.50659 58.92809 50.23895 58.92809 49.90881 C 58.92809 49.57867 59.19572 49.31105 59.52586 49.31105 C 59.856 49.31105 60.12364 49.57867 60.12364 49.90881 Z M 59.52586 49.90881 "/>
<path transform="matrix(2.7777777,0,0,-2.7777777,51.130556,159.69443)" d="M 68.62733 0 C 68.62733 .33014 68.3597 .59776 68.02956 .59776 C 67.69942 .59776 67.4318 .33014 67.4318 0 C 67.4318 -.33014 67.69942 -.59776 68.02956 -.59776 C 68.3597 -.59776 68.62733 -.33014 68.62733 0 Z M 68.02956 0 "/>
<path transform="matrix(2.7777777,0,0,-2.7777777,51.130556,159.69443)" stroke-width=".3985" stroke-linecap="butt" stroke-miterlimit="10" stroke-linejoin="miter" fill="none" stroke="#000000" d="M 68.62733 0 C 68.62733 .33014 68.3597 .59776 68.02956 .59776 C 67.69942 .59776 67.4318 .33014 67.4318 0 C 67.4318 -.33014 67.69942 -.59776 68.02956 -.59776 C 68.3597 -.59776 68.62733 -.33014 68.62733 0 Z M 68.02956 0 "/>
<path transform="matrix(2.7777777,0,0,-2.7777777,51.130556,159.69443)" stroke-width=".3985" stroke-linecap="butt" stroke-dasharray="2.98883,2.98883" stroke-miterlimit="10" stroke-linejoin="miter" fill="none" stroke="#c0c0c0" d="M 68.02956 0 L 68.02956 52.2683 "/>
<path transform="matrix(2.7777777,0,0,-2.7777777,51.130556,159.69443)" d="M 68.62733 52.2683 C 68.62733 52.59845 68.3597 52.86607 68.02956 52.86607 C 67.69942 52.86607 67.4318 52.59845 67.4318 52.2683 C 67.4318 51.93816 67.69942 51.67053 68.02956 51.67053 C 68.3597 51.67053 68.62733 51.93816 68.62733 52.2683 Z M 68.02956 52.2683 "/>
<path transform="matrix(2.7777777,0,0,-2.7777777,51.130556,159.69443)" stroke-width=".3985" stroke-linecap="butt" stroke-miterlimit="10" stroke-linejoin="miter" fill="none" stroke="#000000" d="M 68.62733 52.2683 C 68.62733 52.59845 68.3597 52.86607 68.02956 52.86607 C 67.69942 52.86607 67.4318 52.59845 67.4318 52.2683 C 67.4318 51.93816 67.69942 51.67053 68.02956 51.67053 C 68.3597 51.67053 68.62733 51.93816 68.62733 52.2683 Z M 68.02956 52.2683 "/>
<path transform="matrix(2.7777777,0,0,-2.7777777,51.130556,159.69443)" d="M 77.13103 0 C 77.13103 .33014 76.8634 .59776 76.53326 .59776 C 76.20311 .59776 75.93549 .33014 75.93549 0 C 75.93549 -.33014 76.20311 -.59776 76.53326 -.59776 C 76.8634 -.59776 77.13103 -.33014 77.13103 0 Z M 76.53326 0 "/>
<path transform="matrix(2.7777777,0,0,-2.7777777,51.130556,159.69443)" stroke-width=".3985" stroke-linecap="butt" stroke-miterlimit="10" stroke-linejoin="miter" fill="none" stroke="#000000" d="M 77.13103 0 C 77.13103 .33014 76.8634 .59776 76.53326 .59776 C 76.20311 .59776 75.93549 .33014 75.93549 0 C 75.93549 -.33014 76.20311 -.59776 76.53326 -.59776 C 76.8634 -.59776 77.13103 -.33014 77.13103 0 Z M 76.53326 0 "/>
<path transform="matrix(2.7777777,0,0,-2.7777777,51.130556,159.69443)" stroke-width=".3985" stroke-linecap="butt" stroke-dasharray="2.98883,2.98883" stroke-miterlimit="10" stroke-linejoin="miter" fill="none" stroke="#c0c0c0" d="M 76.53326 0 L 76.53326 54.52486 "/>
<path transform="matrix(2.7777777,0,0,-2.7777777,51.130556,159.69443)" d="M 77.13103 54.52486 C 77.13103 54.855 76.8634 55.12262 76.53326 55.12262 C 76.20311 55.12262 75.93549 54.855 75.93549 54.52486 C 75.93549 54.19472 76.20311 53.92708 76.53326 53.92708 C 76.8634 53.92708 77.13103 54.19472 77.13103 54.52486 Z M 76.53326 54.52486 "/>
<path transform="matrix(2.7777777,0,0,-2.7777777,51.130556,159.69443)" stroke-width=".3985" stroke-linecap="butt" stroke-miterlimit="10" stroke-linejoin="miter" fill="none" stroke="#000000" d="M 77.13103 54.52486 C 77.13103 54.855 76.8634 55.12262 76.53326 55.12262 C 76.20311 55.12262 75.93549 54.855 75.93549 54.52486 C 75.93549 54.19472 76.20311 53.92708 76.53326 53.92708 C 76.8634 53.92708 77.13103 54.19472 77.13103 54.52486 Z M 76.53326 54.52486 "/>
<path transform="matrix(2.7777777,0,0,-2.7777777,51.130556,159.69443)" d="M 85.63474 0 C 85.63474 .33014 85.3671 .59776 85.03696 .59776 C 84.70682 .59776 84.43918 .33014 84.43918 0 C 84.43918 -.33014 84.70682 -.59776 85.03696 -.59776 C 85.3671 -.59776 85.63474 -.33014 85.63474 0 Z M 85.03696 0 "/>
<path transform="matrix(2.7777777,0,0,-2.7777777,51.130556,159.69443)" stroke-width=".3985" stroke-linecap="butt" stroke-miterlimit="10" stroke-linejoin="miter" fill="none" stroke="#000000" d="M 85.63474 0 C 85.63474 .33014 85.3671 .59776 85.03696 .59776 C 84.70682 .59776 84.43918 .33014 84.43918 0 C 84.43918 -.33014 84.70682 -.59776 85.03696 -.59776 C 85.3671 -.59776 85.63474 -.33014 85.63474 0 Z M 85.03696 0 "/>
<path transform="matrix(2.7777777,0,0,-2.7777777,51.130556,159.69443)" stroke-width=".3985" stroke-linecap="butt" stroke-dasharray="2.98883,2.98883" stroke-miterlimit="10" stroke-linejoin="miter" fill="none" stroke="#c0c0c0" d="M 85.03696 0 L 85.03696 56.6923 "/>
<path transform="matrix(2.7777777,0,0,-2.7777777,51.130556,159.69443)" d="M 85.63474 56.6923 C 85.63474 57.02245 85.3671 57.29007 85.03696 57.29007 C 84.70682 57.29007 84.43918 57.02245 84.43918 56.6923 C 84.43918 56.36217 84.70682 56.09453 85.03696 56.09453 C 85.3671 56.09453 85.63474 56.36217 85.63474 56.6923 Z M 85.03696 56.6923 "/>
<path transform="matrix(2.7777777,0,0,-2.7777777,51.130556,159.69443)" stroke-width=".3985" stroke-linecap="butt" stroke-miterlimit="10" stroke-linejoin="miter" fill="none" stroke="#000000" d="M 85.63474 56.6923 C 85.63474 57.02245 85.3671 57.29007 85.03696 57.29007 C 84.70682 57.29007 84.43918 57.02245 84.43918 56.6923 C 84.43918 56.36217 84.70682 56.09453 85.03696 56.09453 C 85.3671 56.09453 85.63474 56.36217 85.63474 56.6923 Z M 85.03696 56.6923 "/>
<symbol id="font_0_3">
<path d="M .305 .31300003 C .311 .33900003 .334 .43100003 .404 .43100003 C .409 .43100003 .433 .43100003 .454 .418 C .426 .41300003 .40600003 .388 .40600003 .36400003 C .40600003 .34800003 .417 .32900004 .444 .32900004 C .46600003 .32900004 .498 .34700004 .498 .38700003 C .498 .43900005 .439 .45300005 .405 .45300005 C .347 .45300005 .312 .40000005 .3 .37700004 C .275 .44300003 .221 .45300005 .19200002 .45300005 C .08800001 .45300005 .031000002 .32400004 .031000002 .29900003 C .031000002 .28900004 .041 .28900004 .043000007 .28900004 C .051000008 .28900004 .054000006 .291 .056 .3 C .09 .40600003 .156 .43100003 .19000001 .43100003 C .209 .43100003 .244 .42200003 .244 .36400003 C .244 .33300004 .22700002 .26600004 .19000001 .126 C .17400001 .064 .13900002 .022000002 .095000009 .022000002 C .08900001 .022000002 .06600001 .022000002 .045 .035 C .07000001 .040000004 .09200001 .061 .09200001 .089 C .09200001 .116000007 .07000001 .124000009 .055000009 .124000009 C .025 .124000009 0 .098000008 0 .06600001 C 0 .020000002 .050000006 0 .094000007 0 C .16000001 0 .19600001 .07000001 .19900002 .076000008 C .21100001 .039 .24700003 0 .307 0 C .41 0 .467 .12900001 .467 .15400002 C .467 .16400002 .458 .16400002 .455 .16400002 C .446 .16400002 .444 .16000001 .442 .15300001 C .409 .046 .341 .022000002 .30900003 .022000002 C .27 .022000002 .254 .054 .254 .08800001 C .254 .11000001 .26 .13200002 .271 .17600002 L .305 .31300003 Z "/>
</symbol>
<use xlink:href="#font_0_3" transform="matrix(27.673888,0,0,-27.673888,37.81643,189.56552)"/>
<symbol id="font_2_1">
<path d="M .46400006 .33900003 C .46400006 .44900004 .45100004 .528 .40500004 .598 C .374 .644 .31200005 .684 .23200001 .684 C 0 .684 0 .41100005 0 .33900003 C 0 .26700003 0 0 .23200001 0 C .46400006 0 .46400006 .26700003 .46400006 .33900003 M .23200001 .028 C .186 .028 .125 .055 .105000007 .13700001 C .091000009 .19600001 .091000009 .27800004 .091000009 .35200004 C .091000009 .42500005 .091000009 .50100007 .106000009 .556 C .127 .635 .19100002 .656 .23200001 .656 C .286 .656 .338 .623 .356 .565 C .37200005 .51100006 .37300004 .43900005 .37300004 .35200004 C .37300004 .27800004 .37300004 .20400001 .36 .141 C .34000004 .050000006 .272 .028 .23200001 .028 Z "/>
</symbol>
<use xlink:href="#font_2_1" transform="matrix(19.371666,0,0,-19.371666,53.83788,193.80132)"/>
<use xlink:href="#font_0_3" transform="matrix(27.673888,0,0,-27.673888,61.43865,189.56552)"/>
<symbol id="font_2_2">
<path d="M .22600001 .63600006 C .22600001 .66300007 .224 .66400006 .19600001 .66400006 C .132 .601 .041 .6 0 .6 L 0 .564 C .023999997 .564 .09000001 .564 .14500001 .592 L .14500001 .082 C .14500001 .049000004 .14500001 .036000004 .04500001 .036000004 L .0069999995 .036000004 L .0069999995 0 C .024999999 .001 .148 .004 .185 .004 C .21600002 .004 .34200005 .001 .36400003 0 L .36400003 .036000004 L .32600004 .036000004 C .22600001 .036000004 .22600001 .049000004 .22600001 .082 L .22600001 .63600006 Z "/>
</symbol>
<use xlink:href="#font_2_2" transform="matrix(19.371666,0,0,-19.371666,78.56428,193.41388)"/>
<use xlink:href="#font_0_3" transform="matrix(27.673888,0,0,-27.673888,85.060878,189.56552)"/>
<symbol id="font_2_3">
<path d="M .442 .18200001 L .40800003 .18200001 C .40500004 .16000001 .39500005 .101 .38200004 .091000009 C .374 .085 .29700003 .085 .28300003 .085 L .099 .085 C .20400003 .178 .23900002 .20600002 .29900003 .25300003 C .37300004 .312 .442 .374 .442 .469 C .442 .59000006 .33600004 .66400006 .20800004 .66400006 C .084 .66400006 0 .577 0 .485 C 0 .43400003 .043000007 .42900003 .053000004 .42900003 C .077 .42900003 .10600001 .446 .10600001 .48200003 C .10600001 .5 .099 .535 .047000007 .535 C .078 .606 .146 .628 .19300002 .628 C .293 .628 .34500004 .55 .34500004 .469 C .34500004 .38200004 .28300003 .31300003 .25100003 .277 L .010000005 .039 C 0 .030000002 0 .028 0 0 L .41200004 0 L .442 .18200001 Z "/>
</symbol>
<use xlink:href="#font_2_3" transform="matrix(19.371666,0,0,-19.371666,101.29541,193.41388)"/>
<use xlink:href="#font_0_3" transform="matrix(27.673888,0,0,-27.673888,250.41364,189.56552)"/>
<symbol id="font_2_4">
<path d="M .36400003 .31800003 C .36400003 .07 .24100001 .032 .18100001 .032 C .15900001 .032 .106000009 .034 .078999999 .065000008 C .120000008 .069000009 .122999999 .10300001 .122999999 .11200001 C .122999999 .13700001 .106000009 .15900001 .076000008 .15900001 C .046 .15900001 .028 .139 .028 .11000001 C .028 .042000005 .08500001 0 .18200001 0 C .32500003 0 .46 .135 .46 .34900005 C .46 .597 .35000003 .684 .233 .684 C .2 .684 .131 .679 .074 .623 C .040000004 .59000006 0 .551 0 .46100004 C 0 .33400003 .100999999 .24000001 .21800001 .24000001 C .29800005 .24000001 .34100003 .293 .36400003 .33800004 L .36400003 .31800003 M .223 .268 C .184 .268 .147 .28100003 .119 .32700003 C .096 .36400003 .096 .40600003 .096 .46100004 C .096 .519 .096 .559 .125 .59900006 C .149 .634 .18200001 .65500006 .23400001 .65500006 C .28500004 .65500006 .31500004 .623 .33100004 .597 C .35800005 .555 .36100004 .48500005 .36100004 .45000003 C .36100004 .32000003 .286 .268 .223 .268 Z "/>
</symbol>
<use xlink:href="#font_2_4" transform="matrix(19.371666,0,0,-19.371666,266.47386,193.80132)"/>
<use xlink:href="#font_0_3" transform="matrix(27.673888,0,0,-27.673888,284.2692,189.56552)"/>
<use xlink:href="#font_2_2" transform="matrix(19.371666,0,0,-19.371666,301.39485,193.41388)"/>
<use xlink:href="#font_2_1" transform="matrix(19.371666,0,0,-19.371666,311.3325,193.80132)"/>
</g>
</svg>
