<?xml version="1.0" encoding="UTF-8" standalone="no"?>
<!DOCTYPE svg PUBLIC "-//W3C//DTD SVG 1.1//EN" "http://www.w3.org/Graphics/SVG/1.1/DTD/svg11.dtd">
<svg xmlns="http://www.w3.org/2000/svg" xmlns:xlink="http://www.w3.org/1999/xlink" version="1.1" width="291.19999pt" height="264.18055pt" viewBox="0 0 291.19999 264.18055">
<g enable-background="new">
<path transform="matrix(2.7777777,0,0,-2.7777777,-551.2361,-1682.6417)" stroke-width=".3985" stroke-linecap="butt" stroke-miterlimit="10" stroke-linejoin="miter" fill="none" stroke="#000000" d="M 209.76628 -680.3237 L 294.80674 -680.3237 "/>
<path transform="matrix(2.7777777,0,0,-2.7777777,-551.2361,-1682.6417)" d="M 209.76628 -634.9682 C 209.76628 -634.9682 210.40631 -633.5102 210.65212 -632.96347 C 210.89792 -632.4166 211.29216 -631.55386 211.53795 -631.02737 C 211.78376 -630.50088 212.178 -629.67538 212.42378 -629.16879 C 212.66959 -628.6622 213.06381 -627.86318 213.30962 -627.37637 C 213.55544 -626.8895 213.94966 -626.12637 214.19547 -625.66 C 214.44129 -625.1936 214.83551 -624.462 215.08132 -624.0151 C 215.3271 -623.5682 215.72135 -622.86587 215.96715 -622.4389 C 216.21294 -622.01199 216.60718 -621.34469 216.85298 -620.938 C 217.09877 -620.5313 217.493 -619.8949 217.73882 -619.50808 C 217.98462 -619.12118 218.37885 -618.5166 218.62467 -618.14987 C 218.87049 -617.783 219.2647 -617.21109 219.5105 -616.8644 C 219.7563 -616.51766 220.15053 -615.97799 220.39633 -615.65109 C 220.64214 -615.3242 221.03635 -614.8152 221.28217 -614.5083 C 221.52799 -614.2015 221.9222 -613.72659 222.16802 -613.4395 C 222.41384 -613.15249 222.80805 -612.7069 223.05385 -612.43948 C 223.29965 -612.17208 223.69388 -611.7592 223.93968 -611.51217 C 224.18549 -611.26498 224.57971 -610.88497 224.82552 -610.6583 C 225.07132 -610.43167 225.46553 -610.08529 225.71135 -609.8784 C 225.95717 -609.6716 226.35138 -609.355 226.5972 -609.16738 C 226.84302 -608.9797 227.23723 -608.6933 227.48303 -608.5259 C 227.72884 -608.35848 228.12306 -608.1076 228.36887 -607.9606 C 228.61467 -607.81356 229.0089 -607.59329 229.2547 -607.4662 C 229.50052 -607.33908 229.89475 -607.1517 230.14055 -607.04446 C 230.38637 -606.9372 231.02639 -606.6932 231.02639 -606.6932 L 231.02639 -680.3237 L 209.76628 -680.3237 Z " fill="#6dcff6" fill-opacity=".4"/>
<path transform="matrix(2.7777777,0,0,-2.7777777,-551.2361,-1682.6417)" stroke-width=".19925" stroke-linecap="butt" stroke-miterlimit="10" stroke-linejoin="miter" fill="none" stroke="#000000" d="M 209.76628 -634.9682 C 209.76628 -634.9682 210.40631 -633.5102 210.65212 -632.96347 C 210.89792 -632.4166 211.29216 -631.55386 211.53795 -631.02737 C 211.78376 -630.50088 212.178 -629.67538 212.42378 -629.16879 C 212.66959 -628.6622 213.06381 -627.86318 213.30962 -627.37637 C 213.55544 -626.8895 213.94966 -626.12637 214.19547 -625.66 C 214.44129 -625.1936 214.83551 -624.462 215.08132 -624.0151 C 215.3271 -623.5682 215.72135 -622.86587 215.96715 -622.4389 C 216.21294 -622.01199 216.60718 -621.34469 216.85298 -620.938 C 217.09877 -620.5313 217.493 -619.8949 217.73882 -619.50808 C 217.98462 -619.12118 218.37885 -618.5166 218.62467 -618.14987 C 218.87049 -617.783 219.2647 -617.21109 219.5105 -616.8644 C 219.7563 -616.51766 220.15053 -615.97799 220.39633 -615.65109 C 220.64214 -615.3242 221.03635 -614.8152 221.28217 -614.5083 C 221.52799 -614.2015 221.9222 -613.72659 222.16802 -613.4395 C 222.41384 -613.15249 222.80805 -612.7069 223.05385 -612.43948 C 223.29965 -612.17208 223.69388 -611.7592 223.93968 -611.51217 C 224.18549 -611.26498 224.57971 -610.88497 224.82552 -610.6583 C 225.07132 -610.43167 225.46553 -610.08529 225.71135 -609.8784 C 225.95717 -609.6716 226.35138 -609.355 226.5972 -609.16738 C 226.84302 -608.9797 227.23723 -608.6933 227.48303 -608.5259 C 227.72884 -608.35848 228.12306 -608.1076 228.36887 -607.9606 C 228.61467 -607.81356 229.0089 -607.59329 229.2547 -607.4662 C 229.50052 -607.33908 229.89475 -607.1517 230.14055 -607.04446 C 230.38637 -606.9372 231.02639 -606.6932 231.02639 -606.6932 L 231.02639 -680.3237 L 209.76628 -680.3237 Z "/>
<path transform="matrix(2.7777777,0,0,-2.7777777,-551.2361,-1682.6417)" stroke-width=".3985" stroke-linecap="butt" stroke-dasharray=".3985,1.99255" stroke-miterlimit="10" stroke-linejoin="miter" fill="none" stroke="#000000" d="M 220.39633 -680.3237 L 220.39633 -615.6463 "/>
<path transform="matrix(2.7777777,0,0,-2.7777777,-551.2361,-1682.6417)" d="M 231.02639 -606.6932 C 231.02639 -606.6932 231.66643 -606.7303 231.91222 -606.76028 C 232.15802 -606.7902 232.55226 -606.8569 232.79805 -606.9095 C 233.04386 -606.9621 233.43808 -607.0641 233.6839 -607.1396 C 233.9297 -607.2151 234.32393 -607.355 234.56975 -607.4536 C 234.81555 -607.5523 235.20978 -607.72958 235.45558 -607.8507 C 235.70137 -607.9718 236.09561 -608.1828 236.34142 -608.3265 C 236.5872 -608.47018 236.98143 -608.71969 237.22725 -608.88619 C 237.47307 -609.05276 237.86728 -609.3372 238.1131 -609.52676 C 238.35892 -609.7164 238.75313 -610.04 238.99893 -610.25259 C 239.24474 -610.46517 239.63896 -610.8236 239.88477 -611.05886 C 240.13057 -611.29409 240.5248 -611.6903 240.7706 -611.9481 C 241.0164 -612.20596 241.41062 -612.6362 241.65644 -612.917 C 241.90225 -613.1978 242.29647 -613.6686 242.54228 -613.9719 C 242.7881 -614.2753 243.18231 -614.7775 243.42812 -615.1035 C 243.67392 -615.4295 244.06815 -615.9724 244.31395 -616.3215 C 244.55976 -616.6706 244.95398 -617.2477 245.19979 -617.61959 C 245.44559 -617.9914 245.8398 -618.6069 246.08562 -619.0015 C 246.33144 -619.3962 246.72565 -620.04647 246.97147 -620.4639 C 247.21729 -620.8814 247.61151 -621.5704 247.8573 -622.0107 C 248.1031 -622.451 248.49735 -623.1745 248.74314 -623.63748 C 248.98894 -624.1004 249.38317 -624.8614 249.62897 -625.3473 C 249.87479 -625.8332 250.26902 -626.63119 250.51482 -627.1397 C 250.76064 -627.64828 251.15486 -628.48147 251.40065 -629.0126 C 251.64646 -629.54379 252.2865 -630.96817 252.2865 -630.96817 L 252.2865 -680.3237 L 231.02639 -680.3237 Z " fill="#6dcff6" fill-opacity=".4"/>
<path transform="matrix(2.7777777,0,0,-2.7777777,-551.2361,-1682.6417)" stroke-width=".19925" stroke-linecap="butt" stroke-miterlimit="10" stroke-linejoin="miter" fill="none" stroke="#000000" d="M 231.02639 -606.6932 C 231.02639 -606.6932 231.66643 -606.7303 231.91222 -606.76028 C 232.15802 -606.7902 232.55226 -606.8569 232.79805 -606.9095 C 233.04386 -606.9621 233.43808 -607.0641 233.6839 -607.1396 C 233.9297 -607.2151 234.32393 -607.355 234.56975 -607.4536 C 234.81555 -607.5523 235.20978 -607.72958 235.45558 -607.8507 C 235.70137 -607.9718 236.09561 -608.1828 236.34142 -608.3265 C 236.5872 -608.47018 236.98143 -608.71969 237.22725 -608.88619 C 237.47307 -609.05276 237.86728 -609.3372 238.1131 -609.52676 C 238.35892 -609.7164 238.75313 -610.04 238.99893 -610.25259 C 239.24474 -610.46517 239.63896 -610.8236 239.88477 -611.05886 C 240.13057 -611.29409 240.5248 -611.6903 240.7706 -611.9481 C 241.0164 -612.20596 241.41062 -612.6362 241.65644 -612.917 C 241.90225 -613.1978 242.29647 -613.6686 242.54228 -613.9719 C 242.7881 -614.2753 243.18231 -614.7775 243.42812 -615.1035 C 243.67392 -615.4295 244.06815 -615.9724 244.31395 -616.3215 C 244.55976 -616.6706 244.95398 -617.2477 245.19979 -617.61959 C 245.44559 -617.9914 245.8398 -618.6069 246.08562 -619.0015 C 246.33144 -619.3962 246.72565 -620.04647 246.97147 -620.4639 C 247.21729 -620.8814 247.61151 -621.5704 247.8573 -622.0107 C 248.1031 -622.451 248.49735 -623.1745 248.74314 -623.63748 C 248.98894 -624.1004 249.38317 -624.8614 249.62897 -625.3473 C 249.87479 -625.8332 250.26902 -626.63119 250.51482 -627.1397 C 250.76064 -627.64828 251.15486 -628.48147 251.40065 -629.0126 C 251.64646 -629.54379 252.2865 -630.96817 252.2865 -630.96817 L 252.2865 -680.3237 L 231.02639 -680.3237 Z "/>
<path transform="matrix(2.7777777,0,0,-2.7777777,-551.2361,-1682.6417)" stroke-width=".3985" stroke-linecap="butt" stroke-dasharray=".3985,1.99255" stroke-miterlimit="10" stroke-linejoin="miter" fill="none" stroke="#000000" d="M 241.65644 -680.3237 L 241.65644 -612.9135 "/>
<path transform="matrix(2.7777777,0,0,-2.7777777,-551.2361,-1682.6417)" d="M 252.2865 -630.96817 C 252.2865 -630.96817 252.92653 -632.43527 253.17234 -632.9863 C 253.41812 -633.5375 253.81235 -634.40597 254.05817 -634.9401 C 254.30397 -635.4743 254.6982 -636.3189 254.94402 -636.83639 C 255.18982 -637.35379 255.58405 -638.169 255.82985 -638.66946 C 256.07566 -639.16989 256.46989 -639.95907 256.71568 -640.4433 C 256.9615 -640.92758 257.3557 -641.6921 257.60154 -642.1596 C 257.84736 -642.6272 258.24156 -643.36318 258.48738 -643.8132 C 258.7332 -644.26327 259.1274 -644.97 259.3732 -645.4032 C 259.619 -645.8365 260.01325 -646.51889 260.25904 -646.93569 C 260.50486 -647.3525 260.89906 -648.0067 261.14488 -648.40719 C 261.39067 -648.8077 261.78489 -649.43838 262.0307 -649.822 C 262.27653 -650.2057 262.67073 -650.80587 262.91658 -651.1724 C 263.16239 -651.53897 263.55659 -652.11428 263.80238 -652.4639 C 264.0482 -652.81369 264.4424 -653.35989 264.68824 -653.6928 C 264.93403 -654.02578 265.32823 -654.54727 265.57405 -654.8637 C 265.8199 -655.1801 266.2141 -655.67367 266.4599 -655.9736 C 266.70573 -656.2735 267.09996 -656.7424 267.34574 -657.0255 C 267.59156 -657.30868 267.98579 -657.7484 268.23158 -658.0143 C 268.47737 -658.28018 268.8716 -658.69247 269.1174 -658.94168 C 269.3632 -659.19088 269.75743 -659.57748 270.00325 -659.8102 C 270.24906 -660.0429 270.64329 -660.4033 270.8891 -660.619 C 271.1349 -660.8347 271.52915 -661.1657 271.77494 -661.36477 C 272.02073 -661.5637 272.41496 -661.8709 272.66078 -662.05337 C 272.90657 -662.2357 273.5466 -662.6792 273.5466 -662.6792 L 273.5466 -680.3237 L 252.2865 -680.3237 Z " fill="#6dcff6" fill-opacity=".4"/>
<path transform="matrix(2.7777777,0,0,-2.7777777,-551.2361,-1682.6417)" stroke-width=".19925" stroke-linecap="butt" stroke-miterlimit="10" stroke-linejoin="miter" fill="none" stroke="#000000" d="M 252.2865 -630.96817 C 252.2865 -630.96817 252.92653 -632.43527 253.17234 -632.9863 C 253.41812 -633.5375 253.81235 -634.40597 254.05817 -634.9401 C 254.30397 -635.4743 254.6982 -636.3189 254.94402 -636.83639 C 255.18982 -637.35379 255.58405 -638.169 255.82985 -638.66946 C 256.07566 -639.16989 256.46989 -639.95907 256.71568 -640.4433 C 256.9615 -640.92758 257.3557 -641.6921 257.60154 -642.1596 C 257.84736 -642.6272 258.24156 -643.36318 258.48738 -643.8132 C 258.7332 -644.26327 259.1274 -644.97 259.3732 -645.4032 C 259.619 -645.8365 260.01325 -646.51889 260.25904 -646.93569 C 260.50486 -647.3525 260.89906 -648.0067 261.14488 -648.40719 C 261.39067 -648.8077 261.78489 -649.43838 262.0307 -649.822 C 262.27653 -650.2057 262.67073 -650.80587 262.91658 -651.1724 C 263.16239 -651.53897 263.55659 -652.11428 263.80238 -652.4639 C 264.0482 -652.81369 264.4424 -653.35989 264.68824 -653.6928 C 264.93403 -654.02578 265.32823 -654.54727 265.57405 -654.8637 C 265.8199 -655.1801 266.2141 -655.67367 266.4599 -655.9736 C 266.70573 -656.2735 267.09996 -656.7424 267.34574 -657.0255 C 267.59156 -657.30868 267.98579 -657.7484 268.23158 -658.0143 C 268.47737 -658.28018 268.8716 -658.69247 269.1174 -658.94168 C 269.3632 -659.19088 269.75743 -659.57748 270.00325 -659.8102 C 270.24906 -660.0429 270.64329 -660.4033 270.8891 -660.619 C 271.1349 -660.8347 271.52915 -661.1657 271.77494 -661.36477 C 272.02073 -661.5637 272.41496 -661.8709 272.66078 -662.05337 C 272.90657 -662.2357 273.5466 -662.6792 273.5466 -662.6792 L 273.5466 -680.3237 L 252.2865 -680.3237 Z "/>
<path transform="matrix(2.7777777,0,0,-2.7777777,-551.2361,-1682.6417)" stroke-width=".3985" stroke-linecap="butt" stroke-dasharray=".3985,1.99255" stroke-miterlimit="10" stroke-linejoin="miter" fill="none" stroke="#000000" d="M 262.91658 -680.3237 L 262.91658 -651.1698 "/>
<path transform="matrix(2.7777777,0,0,-2.7777777,-551.2361,-1682.6417)" d="M 273.5466 -662.6792 C 273.5466 -662.6792 274.1866 -662.8509 274.43244 -662.89938 C 274.67826 -662.9479 275.07246 -663.0059 275.31828 -663.0287 C 275.5641 -663.0515 275.9583 -663.0662 276.20414 -663.0637 C 276.44993 -663.0612 276.84416 -663.03799 277.08995 -663.01058 C 277.33576 -662.9831 277.72999 -662.9185 277.97578 -662.8661 C 278.2216 -662.8136 278.6158 -662.71017 278.86164 -662.6325 C 279.10746 -662.5548 279.50166 -662.4094 279.74748 -662.30636 C 279.99327 -662.2033 280.3875 -662.0178 280.6333 -661.88986 C 280.8791 -661.7618 281.27333 -661.5369 281.51914 -661.3838 C 281.76496 -661.2306 282.15916 -660.96438 282.40498 -660.78598 C 282.6508 -660.60769 283.045 -660.30209 283.29084 -660.09829 C 283.53666 -659.8945 283.93086 -659.54586 284.17665 -659.3171 C 284.42247 -659.0883 284.8167 -658.7033 285.06248 -658.4494 C 285.3083 -658.1955 285.7025 -657.76657 285.94834 -657.487 C 286.19416 -657.2075 286.58836 -656.7392 286.83418 -656.43466 C 287.08 -656.13009 287.4742 -655.62136 287.72 -655.2919 C 287.9658 -654.9624 288.36006 -654.4145 288.60585 -654.06 C 288.85166 -653.70559 289.24589 -653.1174 289.49168 -652.7373 C 289.73747 -652.35726 290.1317 -651.726 290.37754 -651.32077 C 290.62333 -650.9155 291.01756 -650.2466 291.26338 -649.8164 C 291.50917 -649.38619 291.9034 -648.6751 292.1492 -648.2199 C 292.395 -647.7647 292.7892 -647.01577 293.03504 -646.5356 C 293.28086 -646.0554 293.67506 -645.26516 293.92088 -644.75918 C 294.1667 -644.2532 294.80674 -642.88888 294.80674 -642.88888 L 294.80674 -680.3237 L 273.5466 -680.3237 Z " fill="#6dcff6" fill-opacity=".4"/>
<path transform="matrix(2.7777777,0,0,-2.7777777,-551.2361,-1682.6417)" stroke-width=".19925" stroke-linecap="butt" stroke-miterlimit="10" stroke-linejoin="miter" fill="none" stroke="#000000" d="M 273.5466 -662.6792 C 273.5466 -662.6792 274.1866 -662.8509 274.43244 -662.89938 C 274.67826 -662.9479 275.07246 -663.0059 275.31828 -663.0287 C 275.5641 -663.0515 275.9583 -663.0662 276.20414 -663.0637 C 276.44993 -663.0612 276.84416 -663.03799 277.08995 -663.01058 C 277.33576 -662.9831 277.72999 -662.9185 277.97578 -662.8661 C 278.2216 -662.8136 278.6158 -662.71017 278.86164 -662.6325 C 279.10746 -662.5548 279.50166 -662.4094 279.74748 -662.30636 C 279.99327 -662.2033 280.3875 -662.0178 280.6333 -661.88986 C 280.8791 -661.7618 281.27333 -661.5369 281.51914 -661.3838 C 281.76496 -661.2306 282.15916 -660.96438 282.40498 -660.78598 C 282.6508 -660.60769 283.045 -660.30209 283.29084 -660.09829 C 283.53666 -659.8945 283.93086 -659.54586 284.17665 -659.3171 C 284.42247 -659.0883 284.8167 -658.7033 285.06248 -658.4494 C 285.3083 -658.1955 285.7025 -657.76657 285.94834 -657.487 C 286.19416 -657.2075 286.58836 -656.7392 286.83418 -656.43466 C 287.08 -656.13009 287.4742 -655.62136 287.72 -655.2919 C 287.9658 -654.9624 288.36006 -654.4145 288.60585 -654.06 C 288.85166 -653.70559 289.24589 -653.1174 289.49168 -652.7373 C 289.73747 -652.35726 290.1317 -651.726 290.37754 -651.32077 C 290.62333 -650.9155 291.01756 -650.2466 291.26338 -649.8164 C 291.50917 -649.38619 291.9034 -648.6751 292.1492 -648.2199 C 292.395 -647.7647 292.7892 -647.01577 293.03504 -646.5356 C 293.28086 -646.0554 293.67506 -645.26516 293.92088 -644.75918 C 294.1667 -644.2532 294.80674 -642.88888 294.80674 -642.88888 L 294.80674 -680.3237 L 273.5466 -680.3237 Z "/>
<path transform="matrix(2.7777777,0,0,-2.7777777,-551.2361,-1682.6417)" stroke-width=".3985" stroke-linecap="butt" stroke-dasharray=".3985,1.99255" stroke-miterlimit="10" stroke-linejoin="miter" fill="none" stroke="#000000" d="M 284.17665 -680.3237 L 284.17665 -659.31539 "/>
<path transform="matrix(2.7777777,0,0,-2.7777777,-551.2361,-1682.6417)" stroke-width="1.59404" stroke-linecap="butt" stroke-miterlimit="10" stroke-linejoin="miter" fill="none" stroke="#000000" stroke-opacity=".6" d="M 209.76628 -634.9687 C 209.76628 -634.9687 212.32636 -629.84188 213.30962 -627.95639 C 214.2929 -626.0708 215.8697 -623.08718 216.85298 -621.37918 C 217.83625 -619.6712 219.41307 -617.0702 220.39633 -615.6463 C 221.3796 -614.2224 222.95642 -612.1681 223.93968 -611.11679 C 224.92295 -610.0655 226.49977 -608.6828 227.48303 -608.0691 C 228.4663 -607.45547 230.04312 -606.8313 231.02639 -606.69369 C 232.00966 -606.55599 233.58647 -606.72988 234.56975 -607.07687 C 235.55301 -607.4239 237.12984 -608.38479 238.1131 -609.1946 C 239.09636 -610.0044 240.67317 -611.69119 241.65644 -612.9135 C 242.6397 -614.1359 244.21652 -616.44546 245.19979 -618.0045 C 246.18305 -619.5636 247.75988 -622.35177 248.74314 -624.15048 C 249.72641 -625.94918 251.30323 -629.0421 252.2865 -630.96859 C 253.26976 -632.895 254.84659 -636.1003 255.82985 -638.0349 C 256.8131 -639.9695 258.38996 -643.0894 259.3732 -644.9118 C 260.35646 -646.73428 261.9333 -649.57296 262.91658 -651.1698 C 263.8998 -652.76669 265.47666 -655.1489 266.4599 -656.4208 C 267.44316 -657.69277 269.01997 -659.4689 270.00325 -660.337 C 270.9865 -661.2052 272.56336 -662.2675 273.5466 -662.6779 C 274.52986 -663.08828 276.1067 -663.36807 277.08995 -663.29476 C 278.0732 -663.2214 279.65007 -662.7015 280.6333 -662.14938 C 281.61656 -661.5972 283.1934 -660.31179 284.17665 -659.31539 C 285.1599 -658.319 286.73674 -656.3469 287.72 -654.9679 C 288.70329 -653.58889 290.2801 -651.05209 291.26338 -649.3761 C 292.24665 -647.7001 294.80674 -642.8884 294.80674 -642.8884 "/>
<path transform="matrix(2.7777777,0,0,-2.7777777,-551.2361,-1682.6417)" stroke-width=".3985" stroke-linecap="butt" stroke-miterlimit="10" stroke-linejoin="miter" fill="none" stroke="#000000" d="M 209.76628 -680.3237 L 209.76628 -683.15859 "/>
<path transform="matrix(2.7777777,0,0,-2.7777777,-551.2361,-1682.6417)" stroke-width=".3985" stroke-linecap="butt" stroke-miterlimit="10" stroke-linejoin="miter" fill="none" stroke="#000000" d="M 294.80674 -680.3237 L 294.80674 -683.15859 "/>
<symbol id="font_0_1">
<path d="M .45700003 .586 C .461 .6 .461 .602 .461 .609 C .461 .62700006 .447 .63600006 .432 .63600006 C .42200003 .63600006 .40600003 .63 .397 .615 C .395 .61 .387 .579 .38300003 .561 C .37600003 .535 .36900003 .508 .363 .48100005 L .318 .301 C .314 .286 .271 .21600002 .20500002 .21600002 C .15400002 .21600002 .143 .26000003 .143 .29700003 C .143 .34300003 .16000001 .40500004 .194 .49300004 C .21000001 .53400006 .21400002 .545 .21400002 .56500008 C .21400002 .61 .18200001 .6470001 .13200002 .6470001 C .037 .6470001 0 .50200006 0 .49300004 C 0 .48300005 .01 .48300005 .012 .48300005 C .022000002 .48300005 .023 .485 .028000003 .50100007 C .055000009 .595 .095000009 .625 .12900001 .625 C .13700001 .625 .15400002 .625 .15400002 .59300008 C .15400002 .568 .14400001 .54200008 .13700001 .523 C .097 .41700004 .079 .36 .079 .31300003 C .079 .224 .142 .194 .201 .194 C .24000003 .194 .274 .21100001 .30200003 .23900002 C .289 .187 .277 .13800001 .237 .08500001 C .21100001 .051 .17300001 .022 .127 .022 C .113000009 .022 .068 .025000006 .051000008 .06400001 C .067 .06400001 .080000009 .06400001 .094000007 .076000008 C .104 .08500001 .11400001 .098000008 .11400001 .117000009 C .11400001 .148 .087000008 .15200001 .07700001 .15200001 C .054000006 .15200001 .021 .136 .021 .087000008 C .021 .037 .065000008 0 .127 0 C .23 0 .333 .091000009 .361 .20400001 L .45700003 .586 Z "/>
</symbol>
<use xlink:href="#font_0_1" transform="matrix(27.673888,0,0,-27.673888,19.24974,242.3619)"/>
<symbol id="font_1_1">
<path d="M .46400006 .33900003 C .46400006 .44900004 .45100004 .528 .40500004 .598 C .374 .644 .31200005 .684 .23200001 .684 C 0 .684 0 .41100005 0 .33900003 C 0 .26700003 0 0 .23200001 0 C .46400006 0 .46400006 .26700003 .46400006 .33900003 M .23200001 .028 C .186 .028 .125 .055 .105000007 .13700001 C .091000009 .19600001 .091000009 .27800004 .091000009 .35200004 C .091000009 .42500005 .091000009 .50100007 .106000009 .556 C .127 .635 .19100002 .656 .23200001 .656 C .286 .656 .338 .623 .356 .565 C .37200005 .51100006 .37300004 .43900005 .37300004 .35200004 C .37300004 .27800004 .37300004 .20400001 .36 .141 C .34000004 .050000006 .272 .028 .23200001 .028 Z "/>
</symbol>
<use xlink:href="#font_1_1" transform="matrix(19.371666,0,0,-19.371666,33.02397,241.2262)"/>
<use xlink:href="#font_0_1" transform="matrix(27.673888,0,0,-27.673888,254.14691,242.3619)"/>
<symbol id="font_2_1">
<path d="M .075 .073 C .07100001 .060000004 .065 .035 .065 .032 C .065 .010000001 .083000008 0 .09900001 0 C .117 0 .133 .013 .138 .022 C .143 .031000004 .15100001 .063 .156 .084 C .161 .103 .172 .14900002 .178 .17400001 C .184 .19600001 .19000001 .21800001 .19500001 .24100001 C .20600002 .282 .20800002 .29 .237 .331 C .26500003 .37100003 .31200005 .423 .38700003 .423 C .44500003 .423 .44600005 .372 .44600005 .35300002 C .44600005 .293 .40300004 .18200001 .38700003 .14000002 C .37600003 .112 .37200005 .103 .37200005 .086 C .37200005 .033000005 .41600005 0 .467 0 C .56700006 0 .61100009 .13800001 .61100009 .15300001 C .61100009 .16600001 .59800007 .16600001 .595 .16600001 C .58100005 .16600001 .58000007 .16000001 .57600006 .14900002 C .55300006 .069000009 .51000007 .028 .47000004 .028 C .44900004 .028 .44500003 .042000005 .44500003 .063 C .44500003 .086 .45000003 .099 .46800006 .14400001 C .48000003 .17500001 .521 .28100003 .521 .337 C .521 .43400003 .44400005 .451 .39100004 .451 C .30800004 .451 .25200004 .4 .22200002 .36 C .21500002 .42900003 .156 .451 .114999998 .451 C .072 .451 .049 .42000003 .036000004 .397 C .014000002 .36 0 .303 0 .298 C 0 .285 .014000002 .285 .017 .285 C .031 .285 .032 .28800003 .039 .315 C .054 .374 .073 .423 .112 .423 C .138 .423 .145 .40100003 .145 .374 C .145 .35500003 .136 .31800003 .12900001 .291 C .12200001 .264 .112 .22300002 .10700001 .20100002 L .075 .073 Z "/>
</symbol>
<use xlink:href="#font_2_1" transform="matrix(19.371666,0,0,-19.371666,267.8215,241.03247)"/>
<use xlink:href="#font_0_1" transform="matrix(27.673888,0,0,-27.673888,50.746976,242.3619)"/>
<symbol id="font_1_2">
<path d="M .22600001 .63600006 C .22600001 .66300007 .224 .66400006 .19600001 .66400006 C .132 .601 .041 .6 0 .6 L 0 .564 C .023999997 .564 .09000001 .564 .14500001 .592 L .14500001 .082 C .14500001 .049000004 .14500001 .036000004 .04500001 .036000004 L .0069999995 .036000004 L .0069999995 0 C .024999999 .001 .148 .004 .185 .004 C .21600002 .004 .34200005 .001 .36400003 0 L .36400003 .036000004 L .32600004 .036000004 C .22600001 .036000004 .22600001 .049000004 .22600001 .082 L .22600001 .63600006 Z "/>
</symbol>
<use xlink:href="#font_1_2" transform="matrix(19.371666,0,0,-19.371666,65.622608,240.83876)"/>
<use xlink:href="#font_0_1" transform="matrix(27.673888,0,0,-27.673888,82.24421,242.3619)"/>
<symbol id="font_1_3">
<path d="M .442 .18200001 L .40800003 .18200001 C .40500004 .16000001 .39500005 .101 .38200004 .091000009 C .374 .085 .29700003 .085 .28300003 .085 L .099 .085 C .20400003 .178 .23900002 .20600002 .29900003 .25300003 C .37300004 .312 .442 .374 .442 .469 C .442 .59000006 .33600004 .66400006 .20800004 .66400006 C .084 .66400006 0 .577 0 .485 C 0 .43400003 .043000007 .42900003 .053000004 .42900003 C .077 .42900003 .10600001 .446 .10600001 .48200003 C .10600001 .5 .099 .535 .047000007 .535 C .078 .606 .146 .628 .19300002 .628 C .293 .628 .34500004 .55 .34500004 .469 C .34500004 .38200004 .28300003 .31300003 .25100003 .277 L .010000005 .039 C 0 .030000002 0 .028 0 0 L .41200004 0 L .442 .18200001 Z "/>
</symbol>
<use xlink:href="#font_1_3" transform="matrix(19.371666,0,0,-19.371666,96.22874,240.83876)"/>
<use xlink:href="#font_0_1" transform="matrix(27.673888,0,0,-27.673888,208.48863,254.173)"/>
<use xlink:href="#font_2_1" transform="matrix(19.371666,0,0,-19.371666,222.16324,252.84358)"/>
<symbol id="font_3_1">
<path d="M .63600006 0 C .65200009 0 .67600008 0 .67600008 .023999989 C .67600008 .048999996 .65300008 .048999996 .63600006 .048999996 L .04 .048999996 C .023999997 .048999996 0 .048999996 0 .025000006 C 0 0 .02300001 0 .04 0 L .63600006 0 Z "/>
</symbol>
<use xlink:href="#font_3_1" transform="matrix(19.371666,0,0,-19.371666,237.02547,248.27188)"/>
<use xlink:href="#font_1_2" transform="matrix(19.371666,0,0,-19.371666,254.34206,252.64987)"/>
</g>
</svg>
