<?xml version="1.0" encoding="UTF-8" standalone="no"?>
<!DOCTYPE svg PUBLIC "-//W3C//DTD SVG 1.1//EN" "http://www.w3.org/Graphics/SVG/1.1/DTD/svg11.dtd">
<svg xmlns="http://www.w3.org/2000/svg" xmlns:xlink="http://www.w3.org/1999/xlink" version="1.1" width="561.43057pt" height="449.42778pt" viewBox="0 0 561.43057 449.42778">
<g enable-background="new">
<path transform="matrix(2.7777777,0,0,-2.7777777,122.436107,411.51115)" stroke-width=".19925" stroke-linecap="butt" stroke-miterlimit="10" stroke-linejoin="miter" fill="none" stroke="#929292" d="M -31.0709 42.7062 L -31.0709 46.95807 M 58.59337 42.7062 L 58.59337 46.95807 M 103.42552 42.7062 L 103.42552 46.95807 M 148.25768 42.7062 L 148.25768 46.95807 "/>
<path transform="matrix(2.7777777,0,0,-2.7777777,122.436107,411.51115)" stroke-width=".19925" stroke-linecap="butt" stroke-miterlimit="10" stroke-linejoin="miter" fill="none" stroke="#929292" d="M 11.6353 0 L 15.88715 0 M 11.6353 89.6643 L 15.88715 89.6643 M 11.6353 134.49646 L 15.88715 134.49646 "/>
<path transform="matrix(2.7777777,0,0,-2.7777777,122.436107,411.51115)" stroke-width=".3985" stroke-linecap="butt" stroke-miterlimit="10" stroke-linejoin="miter" fill="none" stroke="#000000" d="M -36.43292 44.83215 L 155.8481 44.83215 "/>
<path transform="matrix(2.7777777,0,0,-2.7777777,555.3475,286.9774)" d="M 1.99252 0 L -1.19551 1.59401 L 0 0 L -1.19551 -1.59401 "/>
<path transform="matrix(2.7777777,0,0,-2.7777777,122.436107,411.51115)" stroke-width=".3985" stroke-linecap="butt" stroke-miterlimit="10" stroke-linejoin="miter" fill="none" stroke="#000000" d="M 13.76122 -13.45044 L 13.76122 145.95439 "/>
<path transform="matrix(0,-2.7777777,-2.7777777,-0,160.66172,6.08228)" d="M 1.99252 0 L -1.19551 1.59401 L 0 0 L -1.19551 -1.59401 "/>
<symbol id="font_0_1">
<path d="M .57600006 0 C .59300008 0 .611 0 .611 .019999996 C .611 .040000008 .59300008 .040000008 .57600006 .040000008 L .035000005 .040000008 C .018 .040000008 0 .040000008 0 .019999996 C 0 0 .018 0 .035000005 0 L .57600006 0 Z "/>
</symbol>
<use xlink:href="#font_0_1" transform="matrix(27.673888,0,0,-27.673888,20.744153,314.1322)"/>
<symbol id="font_1_1">
<path d="M .205 .64000007 C .205 .66400006 .205 .666 .18200003 .666 C .120000008 .60200008 .032000007 .60200008 0 .60200008 L 0 .57100006 C .020000004 .57100006 .07900001 .57100006 .13100001 .597 L .13100001 .079 C .13100001 .043 .128 .031000002 .038000004 .031000002 L .0060000049 .031000002 L .0060000049 0 C .04100001 .003 .128 .003 .168 .003 C .20800002 .003 .29500003 .003 .33000005 0 L .33000005 .031000002 L .29800005 .031000002 C .20800002 .031000002 .205 .042000005 .205 .079 L .205 .64000007 Z "/>
</symbol>
<use xlink:href="#font_1_1" transform="matrix(27.673888,0,0,-27.673888,42.43519,320.4972)"/>
<use xlink:href="#font_1_1" transform="matrix(27.673888,0,0,-27.673888,280.73799,320.4972)"/>
<symbol id="font_1_2">
<path d="M .07700001 .07700001 L .18300002 .18 C .33900003 .31800003 .39900003 .372 .39900003 .47200004 C .39900003 .586 .30900003 .666 .18700002 .666 C .074 .666 0 .574 0 .485 C 0 .42900003 .05 .42900003 .053000008 .42900003 C .07000001 .42900003 .105000007 .441 .105000007 .48200003 C .105000007 .508 .08700001 .53400006 .052000006 .53400006 C .044000005 .53400006 .042000008 .53400006 .039 .53300008 C .062000004 .59800007 .11600001 .63500007 .17400001 .63500007 C .26500003 .63500007 .308 .554 .308 .47200004 C .308 .39200003 .25800003 .31300003 .20300003 .25100003 L .011000004 .037 C 0 .026 0 .024 0 0 L .37100003 0 L .39900003 .17400001 L .374 .17400001 C .36900003 .14400001 .36200003 .1 .352 .085 C .345 .07700001 .279 .07700001 .257 .07700001 L .07700001 .07700001 Z "/>
</symbol>
<use xlink:href="#font_1_2" transform="matrix(27.673888,0,0,-27.673888,404.1892,320.4972)"/>
<symbol id="font_1_3">
<path d="M .24800003 .37400005 C .33 .40100003 .388 .47100006 .388 .55 C .388 .632 .3 .688 .204 .688 C .10300001 .688 .027000003 .628 .027000003 .55200007 C .027000003 .519 .049000004 .5 .078 .5 C .109000008 .5 .12900001 .522 .12900001 .55100008 C .12900001 .6010001 .082 .6010001 .067 .6010001 C .098 .65000006 .164 .66300007 .20000002 .66300007 C .24100003 .66300007 .29600004 .64100006 .29600004 .55100008 C .29600004 .53900006 .29400004 .48100005 .268 .43700005 C .238 .38900004 .204 .38600005 .17900002 .38500003 C .171 .38400004 .14700002 .38200004 .14000002 .38200004 C .132 .38100005 .125 .38000003 .125 .37000004 C .125 .35900004 .132 .35900004 .14900002 .35900004 L .19300002 .35900004 C .275 .35900004 .312 .29100005 .312 .193 C .312 .057000005 .24300003 .028 .199 .028 C .15600002 .028 .081 .045 .046000005 .104 C .081 .09900001 .11200001 .12100001 .11200001 .15900001 C .11200001 .19500001 .085 .215 .056 .215 C .031999999 .215 0 .201 0 .157 C 0 .06600001 .093 0 .20200002 0 C .32400004 0 .41500003 .091000009 .41500003 .193 C .41500003 .27500005 .35200004 .35300005 .24800003 .37400005 Z "/>
</symbol>
<use xlink:href="#font_1_3" transform="matrix(27.673888,0,0,-27.673888,528.50119,321.10603)"/>
<use xlink:href="#font_0_1" transform="matrix(27.673888,0,0,-27.673888,111.9136,412.91285)"/>
<use xlink:href="#font_1_1" transform="matrix(27.673888,0,0,-27.673888,133.60463,419.27784)"/>
<use xlink:href="#font_1_1" transform="matrix(27.673888,0,0,-27.673888,133.60465,171.36389)"/>
<use xlink:href="#font_1_2" transform="matrix(27.673888,0,0,-27.673888,132.52536,46.833375)"/>
<clipPath id="cp2">
<path transform="matrix(2.7777777,0,0,-2.7777777,122.436107,411.51115)" d="M -36.43292 -13.45044 L 157.84062 -13.45044 L 157.84062 147.94692 L -36.43292 147.94692 Z "/>
</clipPath>
<g clip-path="url(#cp2)">
<path transform="matrix(2.7777777,0,0,-2.7777777,122.436107,411.51115)" stroke-width=".79701" stroke-linecap="butt" stroke-miterlimit="10" stroke-linejoin="miter" fill="none" stroke="#000000" d="M 0 134.49646 L 5.93352 124.6123 L 11.16856 118.2986 L 15.85577 113.91805 L 20.0978 110.69954 L 23.97534 108.2351 L 27.53859 106.2876 L 30.8454 104.70996 L 33.92717 103.40533 L 36.80853 102.30965 L 39.5155 101.37534 L 42.06735 100.57018 L 44.48155 99.8672 L 46.77292 99.2503 L 48.95178 98.7038 L 51.02884 98.21602 L 53.01625 97.77892 L 54.92073 97.3835 L 56.7418 97.02484 L 58.49205 96.69801 L 60.17773 96.39987 L 61.80649 96.1246 L 63.38145 95.87175 L 64.89722 95.63774 L 66.36368 95.42075 L 67.78395 95.219 L 69.15985 95.0316 L 70.4963 94.85495 L 71.79329 94.69089 L 73.05309 94.53755 L 74.27881 94.39409 L 75.47267 94.25511 L 76.63474 94.12509 L 77.76808 94.0027 L 78.87364 93.88748 L 79.95276 93.77765 L 81.00407 93.67363 L 82.03342 93.57501 L 83.04034 93.47995 L 84.02261 93.39029 L 84.98517 93.30466 L 85.92888 93.22351 L 86.85109 93.14551 L 87.75534 93.0702 L 88.64168 92.99846 L 89.51141 92.93033 L 90.36368 92.86441 L 91.20024 92.80075 L 92.02246 92.73978 L 92.82765 92.6815 L 93.62074 92.62502 L 94.39992 92.57077 L 95.1643 92.51877 L 95.91704 92.46855 L 96.65721 92.41924 L 97.38574 92.37215 L 98.09991 92.32687 L 98.80647 92.28294 L 99.50362 92.2399 L 100.18013 92.19865 L 100.85754 92.15831 L 101.52151 92.1202 L 102.16798 92.08253 L 102.81805 92.04712 L 103.45825 92.01126 L 104.085 91.97629 L 104.70055 91.94356 L 105.31027 91.91173 L 105.91235 91.8799 L 106.5055 91.84985 L 107.091 91.81982 L 107.66978 91.79114 L 108.23871 91.7629 L 108.80313 91.73509 L 109.35905 91.70863 L 109.90915 91.68219 L 110.45251 91.65709 L 110.98871 91.63243 L 111.51953 91.60866 L 112.04271 91.58536 L 112.56097 91.56204 L 113.07385 91.53917 L 113.57867 91.51765 L 114.07944 91.49614 L 114.57394 91.47507 L 115.0626 91.45444 L 115.5477 91.43472 L 116.02695 91.415 L 116.50127 91.39572 L 116.96977 91.37733 L 117.43422 91.35895 L 117.89467 91.34102 L 118.34836 91.32307 L 118.79758 91.30606 L 119.24277 91.28946 L 119.68616 91.27333 L 120.12192 91.25674 L 120.55635 91.24103 L 120.98404 91.22534 L 120.70082 91.23552 "/>
<path transform="matrix(2.7759166,.09980555,.09980555,-2.7759166,457.7161,158.07915)" stroke-width=".6376" stroke-linecap="round" stroke-linejoin="round" fill="none" stroke="#000000" d="M -1.55415 2.0722 C -1.42464 1.29512 0 .1295 .38852 0 C 0 -.1295 -1.42464 -1.29512 -1.55415 -2.0722 "/>
</g>
<symbol id="font_3_1">
<path d="M .305 .31300003 C .311 .33900003 .334 .43100003 .404 .43100003 C .409 .43100003 .433 .43100003 .454 .418 C .426 .41300003 .40600003 .388 .40600003 .36400003 C .40600003 .34800003 .417 .32900004 .444 .32900004 C .46600003 .32900004 .498 .34700004 .498 .38700003 C .498 .43900005 .439 .45300005 .405 .45300005 C .347 .45300005 .312 .40000005 .3 .37700004 C .275 .44300003 .221 .45300005 .19200002 .45300005 C .08800001 .45300005 .031000002 .32400004 .031000002 .29900003 C .031000002 .28900004 .041 .28900004 .043000007 .28900004 C .051000008 .28900004 .054000006 .291 .056 .3 C .09 .40600003 .156 .43100003 .19000001 .43100003 C .209 .43100003 .244 .42200003 .244 .36400003 C .244 .33300004 .22700002 .26600004 .19000001 .126 C .17400001 .064 .13900002 .022000002 .095000009 .022000002 C .08900001 .022000002 .06600001 .022000002 .045 .035 C .07000001 .040000004 .09200001 .061 .09200001 .089 C .09200001 .116000007 .07000001 .124000009 .055000009 .124000009 C .025 .124000009 0 .098000008 0 .06600001 C 0 .020000002 .050000006 0 .094000007 0 C .16000001 0 .19600001 .07000001 .19900002 .076000008 C .21100001 .039 .24700003 0 .307 0 C .41 0 .467 .12900001 .467 .15400002 C .467 .16400002 .458 .16400002 .455 .16400002 C .446 .16400002 .444 .16000001 .442 .15300001 C .409 .046 .341 .022000002 .30900003 .022000002 C .27 .022000002 .254 .054 .254 .08800001 C .254 .11000001 .26 .13200002 .271 .17600002 L .305 .31300003 Z "/>
</symbol>
<use xlink:href="#font_3_1" transform="matrix(27.673888,0,0,-27.673888,536.0859,277.50718)"/>
<symbol id="font_3_2">
<path d="M .45700003 .586 C .461 .6 .461 .602 .461 .609 C .461 .62700006 .447 .63600006 .432 .63600006 C .42200003 .63600006 .40600003 .63 .397 .615 C .395 .61 .387 .579 .38300003 .561 C .37600003 .535 .36900003 .508 .363 .48100005 L .318 .301 C .314 .286 .271 .21600002 .20500002 .21600002 C .15400002 .21600002 .143 .26000003 .143 .29700003 C .143 .34300003 .16000001 .40500004 .194 .49300004 C .21000001 .53400006 .21400002 .545 .21400002 .56500008 C .21400002 .61 .18200001 .6470001 .13200002 .6470001 C .037 .6470001 0 .50200006 0 .49300004 C 0 .48300005 .01 .48300005 .012 .48300005 C .022000002 .48300005 .023 .485 .028000003 .50100007 C .055000009 .595 .095000009 .625 .12900001 .625 C .13700001 .625 .15400002 .625 .15400002 .59300008 C .15400002 .568 .14400001 .54200008 .13700001 .523 C .097 .41700004 .079 .36 .079 .31300003 C .079 .224 .142 .194 .201 .194 C .24000003 .194 .274 .21100001 .30200003 .23900002 C .289 .187 .277 .13800001 .237 .08500001 C .21100001 .051 .17300001 .022 .127 .022 C .113000009 .022 .068 .025000006 .051000008 .06400001 C .067 .06400001 .080000009 .06400001 .094000007 .076000008 C .104 .08500001 .11400001 .098000008 .11400001 .117000009 C .11400001 .148 .087000008 .15200001 .07700001 .15200001 C .054000006 .15200001 .021 .136 .021 .087000008 C .021 .037 .065000008 0 .127 0 C .23 0 .333 .091000009 .361 .20400001 L .45700003 .586 Z "/>
</symbol>
<use xlink:href="#font_3_2" transform="matrix(27.673888,0,0,-27.673888,171.24143,27.920432)"/>
</g>
</svg>
