<?xml version="1.0" encoding="UTF-8" standalone="no"?>
<!DOCTYPE svg PUBLIC "-//W3C//DTD SVG 1.1//EN" "http://www.w3.org/Graphics/SVG/1.1/DTD/svg11.dtd">
<svg xmlns="http://www.w3.org/2000/svg" xmlns:xlink="http://www.w3.org/1999/xlink" version="1.1" width="591.9333pt" height="449.43888pt" viewBox="0 0 591.9333 449.43888">
<g enable-background="new">
<path transform="matrix(2.7777777,0,0,-2.7777777,171.05832,336.8028)" stroke-width=".19925" stroke-linecap="butt" stroke-miterlimit="10" stroke-linejoin="miter" fill="none" stroke="#929292" d="M -48.57475 -22.3021 L -48.57475 -18.05 M -.00443 -22.3021 L -.00443 -18.05 M 97.13618 -22.3021 L 97.13618 -18.05 M 145.7065 -22.3021 L 145.7065 -18.05 "/>
<path transform="matrix(2.7777777,0,0,-2.7777777,171.05832,336.8028)" stroke-width=".19925" stroke-linecap="butt" stroke-miterlimit="10" stroke-linejoin="miter" fill="none" stroke="#929292" d="M 46.44005 20.17606 L 50.69168 20.17606 M 46.44005 60.52818 L 50.69168 60.52818 M 46.44005 100.88033 L 50.69168 100.88033 "/>
<path transform="matrix(2.7777777,0,0,-2.7777777,171.05832,336.8028)" stroke-width=".3985" stroke-linecap="butt" stroke-miterlimit="10" stroke-linejoin="miter" fill="none" stroke="#000000" d="M -48.56808 -20.17606 L 143.71176 -20.17606 "/>
<path transform="matrix(2.7777777,0,0,-2.7777777,570.2576,392.84739)" d="M 1.99252 0 L -1.19551 1.59401 L 0 0 L -1.19551 -1.59401 "/>
<path transform="matrix(2.7777777,0,0,-2.7777777,171.05832,336.8028)" stroke-width=".3985" stroke-linecap="butt" stroke-miterlimit="10" stroke-linejoin="miter" fill="none" stroke="#000000" d="M 48.56586 -40.35027 L 48.56586 119.05832 "/>
<path transform="matrix(0,-2.7777777,-2.7777777,-0,305.96348,6.085247)" d="M 1.99252 0 L -1.19551 1.59401 L 0 0 L -1.19551 -1.59401 "/>
<symbol id="font_0_1">
<path d="M .57600006 0 C .59300008 0 .611 0 .611 .019999996 C .611 .040000008 .59300008 .040000008 .57600006 .040000008 L .035000005 .040000008 C .018 .040000008 0 .040000008 0 .019999996 C 0 0 .018 0 .035000005 0 L .57600006 0 Z "/>
</symbol>
<use xlink:href="#font_0_1" transform="matrix(27.673888,0,0,-27.673888,20.744153,419.99894)"/>
<symbol id="font_1_2">
<path d="M .07700001 .07700001 L .18300002 .18 C .33900003 .31800003 .39900003 .372 .39900003 .47200004 C .39900003 .586 .30900003 .666 .18700002 .666 C .074 .666 0 .574 0 .485 C 0 .42900003 .05 .42900003 .053000008 .42900003 C .07000001 .42900003 .105000007 .441 .105000007 .48200003 C .105000007 .508 .08700001 .53400006 .052000006 .53400006 C .044000005 .53400006 .042000008 .53400006 .039 .53300008 C .062000004 .59800007 .11600001 .63500007 .17400001 .63500007 C .26500003 .63500007 .308 .554 .308 .47200004 C .308 .39200003 .25800003 .31300003 .20300003 .25100003 L .011000004 .037 C 0 .026 0 .024 0 0 L .37100003 0 L .39900003 .17400001 L .374 .17400001 C .36900003 .14400001 .36200003 .1 .352 .085 C .345 .07700001 .279 .07700001 .257 .07700001 L .07700001 .07700001 Z "/>
</symbol>
<use xlink:href="#font_1_2" transform="matrix(27.673888,0,0,-27.673888,41.355909,426.36393)"/>
<use xlink:href="#font_0_1" transform="matrix(27.673888,0,0,-27.673888,155.66082,419.99894)"/>
<symbol id="font_1_1">
<path d="M .205 .64000007 C .205 .66400006 .205 .666 .18200003 .666 C .120000008 .60200008 .032000007 .60200008 0 .60200008 L 0 .57100006 C .020000004 .57100006 .07900001 .57100006 .13100001 .597 L .13100001 .079 C .13100001 .043 .128 .031000002 .038000004 .031000002 L .0060000049 .031000002 L .0060000049 0 C .04100001 .003 .128 .003 .168 .003 C .20800002 .003 .29500003 .003 .33000005 0 L .33000005 .031000002 L .29800005 .031000002 C .20800002 .031000002 .205 .042000005 .205 .079 L .205 .64000007 Z "/>
</symbol>
<use xlink:href="#font_1_1" transform="matrix(27.673888,0,0,-27.673888,177.35187,426.36393)"/>
<use xlink:href="#font_1_1" transform="matrix(27.673888,0,0,-27.673888,436.4213,426.36393)"/>
<use xlink:href="#font_1_2" transform="matrix(27.673888,0,0,-27.673888,570.25869,426.36393)"/>
<use xlink:href="#font_1_2" transform="matrix(27.673888,0,0,-27.673888,277.82536,289.675)"/>
<symbol id="font_1_3">
<path d="M .266 .165 L .266 .078 C .266 .042000005 .26400004 .031000002 .19000001 .031000002 L .16900002 .031000002 L .16900002 0 C .21000001 .003 .26200003 .003 .30400003 .003 C .34600003 .003 .39900003 .003 .44000004 0 L .44000004 .031000002 L .41900004 .031000002 C .34500004 .031000002 .34300003 .042000005 .34300003 .078 L .34300003 .165 L .44300003 .165 L .44300003 .19600001 L .34300003 .19600001 L .34300003 .651 C .34300003 .671 .34300003 .67700007 .32700003 .67700007 C .31800003 .67700007 .31500004 .67700007 .307 .665 L 0 .19600001 L 0 .165 L .266 .165 M .272 .19600001 L .028 .19600001 L .272 .569 L .272 .19600001 Z "/>
</symbol>
<use xlink:href="#font_1_3" transform="matrix(27.673888,0,0,-27.673888,277.21653,177.5889)"/>
<symbol id="font_1_4">
<path d="M .089999999 .35000003 L .089999999 .37400005 C .089999999 .62700006 .21400002 .66300007 .26500003 .66300007 C .28900004 .66300007 .33100004 .65700009 .35300002 .623 C .33800004 .623 .298 .623 .298 .57800009 C .298 .54700008 .32200004 .53200009 .344 .53200009 C .36 .53200009 .39000003 .54100009 .39000003 .58000007 C .39000003 .64000007 .34600003 .688 .263 .688 C .13499999 .688 0 .559 0 .33800004 C 0 .071 .116000007 0 .20900002 0 C .32000003 0 .41500003 .094000007 .41500003 .22600001 C .41500003 .35300005 .32600004 .44900004 .215 .44900004 C .14700002 .44900004 .11000001 .39800004 .089999999 .35000003 M .20900002 .028 C .146 .028 .116000007 .088 .11000001 .103 C .092 .15 .092 .23 .092 .24800001 C .092 .32600004 .124000009 .42600004 .21400002 .42600004 C .23000002 .42600004 .27600003 .42600004 .307 .36400003 C .32500003 .32700003 .32500003 .27600003 .32500003 .22700002 C .32500003 .179 .32500003 .12900001 .30800004 .093 C .27800004 .033000005 .23200003 .028 .20900002 .028 Z "/>
</symbol>
<use xlink:href="#font_1_4" transform="matrix(27.673888,0,0,-27.673888,277.60395,66.108829)"/>
<clipPath id="cp2">
<path transform="matrix(2.7777777,0,0,-2.7777777,171.05832,336.8028)" d="M -48.56808 -40.35027 L 145.70429 -40.35027 L 145.70429 121.05084 L -48.56808 121.05084 Z "/>
</clipPath>
<g clip-path="url(#cp2)">
<path transform="matrix(2.7777777,0,0,-2.7777777,171.05832,336.8028)" stroke-width=".79701" stroke-linecap="butt" stroke-miterlimit="10" stroke-linejoin="miter" fill="none" stroke="#000000" d="M 97.13618 0 L 96.15501 .81514 L 95.17383 1.6303 L 94.19267 2.44547 L 93.21149 3.2606 L 92.23032 4.07576 L 91.24915 4.89093 L 90.26797 5.70609 L 89.28679 6.52124 L 88.30562 7.33641 L 87.32445 8.15155 L 86.34328 8.9667 L 85.36209 9.78188 L 84.38094 10.59702 L 83.39975 11.41219 L 82.41858 12.22734 L 81.43741 13.0425 L 80.45624 13.85767 L 79.47505 14.67282 L 78.49388 15.48796 L 77.51271 16.30313 L 76.53154 17.11829 L 75.55035 17.93344 L 74.5692 18.7486 L 73.58801 19.56375 L 72.60684 20.3789 L 71.62567 21.19408 L 70.6445 22.00923 L 69.66331 22.82439 L 68.68214 23.63954 L 67.70097 24.4547 L 66.7198 25.26987 L 65.73862 26.085 L 64.75746 26.90016 L 63.77628 27.71533 L 62.7951 28.53049 L 61.81393 29.34564 L 60.83276 30.16081 L 59.85158 30.97595 L 58.8704 31.7911 L 57.88924 32.60628 L 56.90807 33.42142 L 55.92688 34.23659 L 54.94572 35.05174 L 53.96454 35.8669 L 52.98337 36.68207 L 52.0022 37.49722 L 51.02103 38.31236 L 50.03984 39.12753 L 49.05867 39.94269 L 48.0775 40.75784 L 47.09631 41.57301 L 46.11514 42.38817 L 45.13397 43.20331 L 44.1528 44.01848 L 43.17162 44.83363 L 42.19046 45.64879 L 41.20929 46.46394 L 40.2281 47.2791 L 39.24693 48.09427 L 38.26576 48.90942 L 37.28458 49.72458 L 36.3034 50.53973 L 35.32224 51.35489 L 34.34106 52.17004 L 33.3599 52.98521 L 32.37872 53.80035 L 31.39755 54.61552 L 30.41637 55.43068 L 29.4352 56.24583 L 28.45403 57.061 L 27.47284 57.87614 L 26.49167 58.6913 L 25.5105 59.50647 L 24.52933 60.32162 L 23.54814 61.13678 L 22.56699 61.95193 L 21.58582 62.76709 L 20.60463 63.58224 L 19.62346 64.39742 L 18.64229 65.21257 L 17.6611 66.02773 L 16.67993 66.84288 L 15.69876 67.65804 L 14.71759 68.4732 L 13.73642 69.28835 L 12.75525 70.1035 L 11.77408 70.91867 L 10.7929 71.73383 L 9.81172 72.54898 L 8.83055 73.36414 L 7.84937 74.17929 L 6.8682 74.99445 L 5.88702 75.80962 L 4.90585 76.62477 L 3.92468 77.43993 L 2.94351 78.25508 L 1.96234 79.07024 L .98116 79.8854 L .54404 80.24857 "/>
<path transform="matrix(-2.1364723,-1.7749721,-1.7749721,2.1364723,172.56957,113.89016)" stroke-width=".6376" stroke-linecap="round" stroke-linejoin="round" fill="none" stroke="#000000" d="M -1.55415 2.0722 C -1.42464 1.29512 0 .1295 .38852 0 C 0 -.1295 -1.42464 -1.29512 -1.55415 -2.0722 "/>
</g>
<symbol id="font_3_1">
<path d="M .305 .31300003 C .311 .33900003 .334 .43100003 .404 .43100003 C .409 .43100003 .433 .43100003 .454 .418 C .426 .41300003 .40600003 .388 .40600003 .36400003 C .40600003 .34800003 .417 .32900004 .444 .32900004 C .46600003 .32900004 .498 .34700004 .498 .38700003 C .498 .43900005 .439 .45300005 .405 .45300005 C .347 .45300005 .312 .40000005 .3 .37700004 C .275 .44300003 .221 .45300005 .19200002 .45300005 C .08800001 .45300005 .031000002 .32400004 .031000002 .29900003 C .031000002 .28900004 .041 .28900004 .043000007 .28900004 C .051000008 .28900004 .054000006 .291 .056 .3 C .09 .40600003 .156 .43100003 .19000001 .43100003 C .209 .43100003 .244 .42200003 .244 .36400003 C .244 .33300004 .22700002 .26600004 .19000001 .126 C .17400001 .064 .13900002 .022000002 .095000009 .022000002 C .08900001 .022000002 .06600001 .022000002 .045 .035 C .07000001 .040000004 .09200001 .061 .09200001 .089 C .09200001 .116000007 .07000001 .124000009 .055000009 .124000009 C .025 .124000009 0 .098000008 0 .06600001 C 0 .020000002 .050000006 0 .094000007 0 C .16000001 0 .19600001 .07000001 .19900002 .076000008 C .21100001 .039 .24700003 0 .307 0 C .41 0 .467 .12900001 .467 .15400002 C .467 .16400002 .458 .16400002 .455 .16400002 C .446 .16400002 .444 .16000001 .442 .15300001 C .409 .046 .341 .022000002 .30900003 .022000002 C .27 .022000002 .254 .054 .254 .08800001 C .254 .11000001 .26 .13200002 .271 .17600002 L .305 .31300003 Z "/>
</symbol>
<use xlink:href="#font_3_1" transform="matrix(27.673888,0,0,-27.673888,550.9942,383.3739)"/>
<symbol id="font_3_2">
<path d="M .45700003 .586 C .461 .6 .461 .602 .461 .609 C .461 .62700006 .447 .63600006 .432 .63600006 C .42200003 .63600006 .40600003 .63 .397 .615 C .395 .61 .387 .579 .38300003 .561 C .37600003 .535 .36900003 .508 .363 .48100005 L .318 .301 C .314 .286 .271 .21600002 .20500002 .21600002 C .15400002 .21600002 .143 .26000003 .143 .29700003 C .143 .34300003 .16000001 .40500004 .194 .49300004 C .21000001 .53400006 .21400002 .545 .21400002 .56500008 C .21400002 .61 .18200001 .6470001 .13200002 .6470001 C .037 .6470001 0 .50200006 0 .49300004 C 0 .48300005 .01 .48300005 .012 .48300005 C .022000002 .48300005 .023 .485 .028000003 .50100007 C .055000009 .595 .095000009 .625 .12900001 .625 C .13700001 .625 .15400002 .625 .15400002 .59300008 C .15400002 .568 .14400001 .54200008 .13700001 .523 C .097 .41700004 .079 .36 .079 .31300003 C .079 .224 .142 .194 .201 .194 C .24000003 .194 .274 .21100001 .30200003 .23900002 C .289 .187 .277 .13800001 .237 .08500001 C .21100001 .051 .17300001 .022 .127 .022 C .113000009 .022 .068 .025000006 .051000008 .06400001 C .067 .06400001 .080000009 .06400001 .094000007 .076000008 C .104 .08500001 .11400001 .098000008 .11400001 .117000009 C .11400001 .148 .087000008 .15200001 .07700001 .15200001 C .054000006 .15200001 .021 .136 .021 .087000008 C .021 .037 .065000008 0 .127 0 C .23 0 .333 .091000009 .361 .20400001 L .45700003 .586 Z "/>
</symbol>
<use xlink:href="#font_3_2" transform="matrix(27.673888,0,0,-27.673888,316.54145,27.92037)"/>
</g>
</svg>
