<?xml version="1.0" encoding="UTF-8" standalone="no"?>
<!DOCTYPE svg PUBLIC "-//W3C//DTD SVG 1.1//EN" "http://www.w3.org/Graphics/SVG/1.1/DTD/svg11.dtd">
<svg xmlns="http://www.w3.org/2000/svg" xmlns:xlink="http://www.w3.org/1999/xlink" version="1.1" width="740.56387pt" height="309.35276pt" viewBox="0 0 740.56387 309.35276">
<g enable-background="new">
<path transform="matrix(2.7777777,0,0,-2.7777777,62.58611,272.51664)" stroke-width=".3985" stroke-linecap="butt" stroke-miterlimit="10" stroke-linejoin="miter" fill="none" stroke="#000000" d="M 0 0 L 0 81.45387 "/>
<path transform="matrix(0,-2.7777777,-2.7777777,-0,62.58611,46.255895)" d="M 3.58653 0 C 2.52383 .19925 .797 .797 -.3985 1.49438 L -.3985 -1.49438 C .797 -.797 2.52383 -.19925 3.58653 0 "/>
<symbol id="font_0_6">
<path d="M .45700003 .586 C .461 .6 .461 .602 .461 .609 C .461 .62700006 .447 .63600006 .432 .63600006 C .42200003 .63600006 .40600003 .63 .397 .615 C .395 .61 .387 .579 .38300003 .561 C .37600003 .535 .36900003 .508 .363 .48100005 L .318 .301 C .314 .286 .271 .21600002 .20500002 .21600002 C .15400002 .21600002 .143 .26000003 .143 .29700003 C .143 .34300003 .16000001 .40500004 .194 .49300004 C .21000001 .53400006 .21400002 .545 .21400002 .56500008 C .21400002 .61 .18200001 .6470001 .13200002 .6470001 C .037 .6470001 0 .50200006 0 .49300004 C 0 .48300005 .01 .48300005 .012 .48300005 C .022000002 .48300005 .023 .485 .028000003 .50100007 C .055000009 .595 .095000009 .625 .12900001 .625 C .13700001 .625 .15400002 .625 .15400002 .59300008 C .15400002 .568 .14400001 .54200008 .13700001 .523 C .097 .41700004 .079 .36 .079 .31300003 C .079 .224 .142 .194 .201 .194 C .24000003 .194 .274 .21100001 .30200003 .23900002 C .289 .187 .277 .13800001 .237 .08500001 C .21100001 .051 .17300001 .022 .127 .022 C .113000009 .022 .068 .025000006 .051000008 .06400001 C .067 .06400001 .080000009 .06400001 .094000007 .076000008 C .104 .08500001 .11400001 .098000008 .11400001 .117000009 C .11400001 .148 .087000008 .15200001 .07700001 .15200001 C .054000006 .15200001 .021 .136 .021 .087000008 C .021 .037 .065000008 0 .127 0 C .23 0 .333 .091000009 .361 .20400001 L .45700003 .586 Z "/>
</symbol>
<use xlink:href="#font_0_6" transform="matrix(27.673888,0,0,-27.673888,56.108098,26.812003)"/>
<path transform="matrix(2.7777777,0,0,-2.7777777,62.58611,272.51664)" stroke-width=".3985" stroke-linecap="butt" stroke-miterlimit="10" stroke-linejoin="miter" fill="none" stroke="#000000" d="M 0 0 L 227.95406 0 "/>
<path transform="matrix(2.7777777,0,0,-2.7777777,695.7918,272.51664)" d="M 3.58653 0 C 2.52383 .19925 .797 .797 -.3985 1.49438 L -.3985 -1.49438 C .797 -.797 2.52383 -.19925 3.58653 0 "/>
<symbol id="font_0_5">
<path d="M .305 .31300003 C .311 .33900003 .334 .43100003 .404 .43100003 C .409 .43100003 .433 .43100003 .454 .418 C .426 .41300003 .40600003 .388 .40600003 .36400003 C .40600003 .34800003 .417 .32900004 .444 .32900004 C .46600003 .32900004 .498 .34700004 .498 .38700003 C .498 .43900005 .439 .45300005 .405 .45300005 C .347 .45300005 .312 .40000005 .3 .37700004 C .275 .44300003 .221 .45300005 .19200002 .45300005 C .08800001 .45300005 .031000002 .32400004 .031000002 .29900003 C .031000002 .28900004 .041 .28900004 .043000007 .28900004 C .051000008 .28900004 .054000006 .291 .056 .3 C .09 .40600003 .156 .43100003 .19000001 .43100003 C .209 .43100003 .244 .42200003 .244 .36400003 C .244 .33300004 .22700002 .26600004 .19000001 .126 C .17400001 .064 .13900002 .022000002 .095000009 .022000002 C .08900001 .022000002 .06600001 .022000002 .045 .035 C .07000001 .040000004 .09200001 .061 .09200001 .089 C .09200001 .116000007 .07000001 .124000009 .055000009 .124000009 C .025 .124000009 0 .098000008 0 .06600001 C 0 .020000002 .050000006 0 .094000007 0 C .16000001 0 .19600001 .07000001 .19900002 .076000008 C .21100001 .039 .24700003 0 .307 0 C .41 0 .467 .12900001 .467 .15400002 C .467 .16400002 .458 .16400002 .455 .16400002 C .446 .16400002 .444 .16000001 .442 .15300001 C .409 .046 .341 .022000002 .30900003 .022000002 C .27 .022000002 .254 .054 .254 .08800001 C .254 .11000001 .26 .13200002 .271 .17600002 L .305 .31300003 Z "/>
</symbol>
<use xlink:href="#font_0_5" transform="matrix(27.673888,0,0,-27.673888,716.32479,278.77937)"/>
<path transform="matrix(2.7777777,0,0,-2.7777777,62.58611,272.51664)" stroke-width=".99628" stroke-linecap="butt" stroke-miterlimit="10" stroke-linejoin="miter" fill="none" stroke="#929292" d="M -16.18037 28.3468 L -11.25116 22.92839 L -7.34795 17.70982 L -4.4136 12.88312 L -2.35559 8.6274 L -1.04846 5.09874 L -.33952 2.42738 L -.05405 .71194 L -.00084 .01556 L .01988 .36418 L .2063 1.74484 L .7539 4.1065 L 1.84346 7.36264 L 3.63547 11.39174 L 6.26573 16.0467 L 9.83719 21.15541 L 14.42038 26.52884 L 20.04639 31.96887 L 26.7092 37.27611 L 34.3647 42.2542 L 42.9311 46.71884 L 52.2934 50.50615 L 62.30708 53.47638 L 72.80478 55.51926 L 83.60007 56.56082 L 94.49484 56.56125 L 105.29012 55.52144 L 115.78825 53.47942 L 125.8028 50.51048 L 135.16596 46.72403 L 143.73323 42.26024 L 151.38957 37.28302 L 158.0537 31.97578 L 163.68102 26.53577 L 168.26592 21.16191 L 171.83867 16.05276 L 174.47025 11.39735 L 176.26313 7.36697 L 177.35355 4.1104 L 177.90113 1.74745 L 178.088 .36548 L 178.10875 .01512 L 178.16196 .71063 L 178.44699 2.42436 L 179.15549 5.09485 L 180.46175 8.62263 L 182.51934 12.87708 L 185.45195 17.70334 L 189.35387 22.92148 L 194.28179 28.33987 "/>
<path transform="matrix(2.7777777,0,0,-2.7777777,62.58611,272.51664)" stroke-width=".99628" stroke-linecap="butt" stroke-miterlimit="10" stroke-linejoin="miter" fill="none" stroke="#ff0000" d="M 68.03217 28.3468 C 68.03217 44.00252 55.34106 56.69362 39.68535 56.69362 C 24.02963 56.69362 11.33855 44.00252 11.33855 28.3468 C 11.33855 12.69109 24.02963 0 39.68535 0 C 55.34106 0 68.03217 12.69109 68.03217 28.3468 Z M 39.68535 28.3468 "/>
<path transform="matrix(2.7777777,0,0,-2.7777777,62.58611,272.51664)" stroke-width=".99628" stroke-linecap="butt" stroke-miterlimit="10" stroke-linejoin="miter" fill="none" stroke="#ff0000" d="M 206.4547 28.3468 C 206.4547 44.00252 193.7636 56.69362 178.1079 56.69362 C 162.45218 56.69362 149.76108 44.00252 149.76108 28.3468 C 149.76108 12.69109 162.45218 0 178.1079 0 C 193.7636 0 206.4547 12.69109 206.4547 28.3468 Z M 178.1079 28.3468 "/>
<use xlink:href="#font_0_5" transform="matrix(27.673888,0,0,-27.673888,86.97753,294.51548)"/>
<path transform="matrix(2.7777777,0,0,-2.7777777,62.58611,272.51664)" d="M 40.68163 28.3468 C 40.68163 28.89703 40.23558 29.34308 39.68535 29.34308 C 39.13512 29.34308 38.68907 28.89703 38.68907 28.3468 C 38.68907 27.79657 39.13512 27.35052 39.68535 27.35052 C 40.23558 27.35052 40.68163 27.79657 40.68163 28.3468 Z M 39.68535 28.3468 " fill="#0000ff"/>
<path transform="matrix(2.7777777,0,0,-2.7777777,62.58611,272.51664)" stroke-width=".3985" stroke-linecap="butt" stroke-miterlimit="10" stroke-linejoin="miter" fill="none" stroke="#000000" d="M 40.68163 28.3468 C 40.68163 28.89703 40.23558 29.34308 39.68535 29.34308 C 39.13512 29.34308 38.68907 28.89703 38.68907 28.3468 C 38.68907 27.79657 39.13512 27.35052 39.68535 27.35052 C 40.23558 27.35052 40.68163 27.79657 40.68163 28.3468 Z M 39.68535 28.3468 "/>
<path transform="matrix(2.7777777,0,0,-2.7777777,62.58611,272.51664)" d="M 179.10417 28.3468 C 179.10417 28.89703 178.65813 29.34308 178.1079 29.34308 C 177.55767 29.34308 177.11162 28.89703 177.11162 28.3468 C 177.11162 27.79657 177.55767 27.35052 178.1079 27.35052 C 178.65813 27.35052 179.10417 27.79657 179.10417 28.3468 Z M 178.1079 28.3468 " fill="#0000ff"/>
<path transform="matrix(2.7777777,0,0,-2.7777777,62.58611,272.51664)" stroke-width=".3985" stroke-linecap="butt" stroke-miterlimit="10" stroke-linejoin="miter" fill="none" stroke="#000000" d="M 179.10417 28.3468 C 179.10417 28.89703 178.65813 29.34308 178.1079 29.34308 C 177.55767 29.34308 177.11162 28.89703 177.11162 28.3468 C 177.11162 27.79657 177.55767 27.35052 178.1079 27.35052 C 178.65813 27.35052 179.10417 27.79657 179.10417 28.3468 Z M 178.1079 28.3468 "/>
<path transform="matrix(2.7777777,0,0,-2.7777777,62.58611,272.51664)" stroke-width=".3985" stroke-linecap="butt" stroke-miterlimit="10" stroke-linejoin="miter" fill="none" stroke="#000000" d="M 39.68535 28.3468 L 11.33855 23.52788 "/>
<symbol id="font_0_3">
<path d="M .33300004 .38900004 C .31500004 .42600004 .286 .45300005 .24100001 .45300005 C .124 .45300005 0 .30600003 0 .16000001 C 0 .06600001 .055000005 0 .133 0 C .153 0 .20300001 .0040000008 .263 .075 C .27100004 .033000005 .30600003 0 .35400004 0 C .38900004 0 .41200004 .023000002 .42800004 .055000005 C .44500003 .091000009 .45800004 .15200001 .45800004 .15400002 C .45800004 .16400002 .44900004 .16400002 .44600005 .16400002 C .43600003 .16400002 .43500004 .16000001 .43200005 .14600002 C .41500003 .081 .397 .022000002 .35600005 .022000002 C .32900004 .022000002 .32600004 .048 .32600004 .068 C .32600004 .09 .32800005 .098000008 .33900003 .14200002 C .35000003 .18400002 .35200004 .19400002 .36100004 .23200003 L .397 .37200005 C .40400005 .40000005 .40400005 .40200005 .40400005 .40600003 C .40400005 .42300005 .39200003 .43300004 .37500004 .43300004 C .35100005 .43300004 .33600004 .411 .33300004 .38900004 M .26800005 .13000001 C .263 .112 .263 .11000001 .24800001 .093 C .20400001 .038000004 .163 .022000002 .135 .022000002 C .08499999 .022000002 .07100001 .077 .07100001 .116000007 C .07100001 .16600001 .103 .28900004 .126 .335 C .157 .39400003 .202 .43100003 .242 .43100003 C .307 .43100003 .32100005 .34900005 .32100005 .34300003 C .32100005 .337 .31900005 .33100004 .31800003 .32600004 L .26800005 .13000001 Z "/>
</symbol>
<use xlink:href="#font_0_3" transform="matrix(27.673888,0,0,-27.673888,135.6986,190.99881)"/>
<path transform="matrix(2.7777777,0,0,-2.7777777,62.58611,272.51664)" stroke-width=".3985" stroke-linecap="butt" stroke-miterlimit="10" stroke-linejoin="miter" fill="none" stroke="#000000" d="M 39.68535 28.3468 L 39.68535 0 "/>
<symbol id="font_0_4">
<path d="M .18300002 .411 L .277 .411 C .29700003 .411 .307 .411 .307 .43100003 C .307 .44200004 .29700003 .44200004 .279 .44200004 L .19100002 .44200004 C .227 .584 .23200003 .60400006 .23200003 .61 C .23200003 .62700006 .22000002 .637 .20300001 .637 C .2 .637 .172 .636 .163 .601 L .124 .44200004 L .030000002 .44200004 C .009999998 .44200004 0 .44200004 0 .42300005 C 0 .411 .007999999 .411 .028 .411 L .11600001 .411 C .044 .127 .04 .11000001 .04 .092 C .04 .038000004 .078 0 .132 0 C .234 0 .291 .14600002 .291 .15400002 C .291 .16400002 .28300003 .16400002 .279 .16400002 C .27 .16400002 .26900003 .16100002 .264 .15000002 C .22100002 .046 .16800002 .022000002 .134 .022000002 C .113000009 .022000002 .103 .035 .103 .068 C .103 .092 .105000007 .09900001 .109 .116000007 L .18300002 .411 Z "/>
</symbol>
<use xlink:href="#font_0_3" transform="matrix(27.673888,0,0,-27.673888,159.31252,299.62107)"/>
<use xlink:href="#font_0_4" transform="matrix(27.673888,0,0,-27.673888,178.10309,299.62107)"/>
<path transform="matrix(2.7777777,0,0,-2.7777777,62.58611,272.51664)" stroke-width=".3985" stroke-linecap="butt" stroke-dasharray=".3985,1.99255" stroke-miterlimit="10" stroke-linejoin="miter" fill="none" stroke="#000000" d="M 11.33855 23.52788 L 11.33855 0 "/>
<path transform="matrix(2.7777777,0,0,-2.7777777,62.58611,272.51664)" stroke-width=".3985" stroke-linecap="butt" stroke-dasharray=".3985,1.99255" stroke-miterlimit="10" stroke-linejoin="miter" fill="none" stroke="#000000" d="M 11.33855 23.52788 L 0 23.52788 "/>
<use xlink:href="#font_0_6" transform="matrix(27.673888,0,0,-27.673888,46.924764,216.10369)"/>
<path transform="matrix(2.7777777,0,0,-2.7777777,62.58611,272.51664)" stroke-width=".3985" stroke-linecap="butt" stroke-miterlimit="10" stroke-linejoin="miter" fill="none" stroke="#000000" d="M 39.68535 11.33855 C 31.98836 11.33855 25.24875 16.5101 23.37523 23.50208 "/>
<path transform="matrix(-.71886107,-2.6831389,-2.6831389,.71886107,127.5173,207.23308)" stroke-width=".31879" stroke-linecap="round" stroke-linejoin="round" fill="none" stroke="#000000" d="M -1.19551 1.59401 C -1.09587 .99626 0 .09961 .29886 0 C 0 -.09961 -1.09587 -.99626 -1.19551 -1.59401 "/>
<symbol id="font_1_2">
<path d="M .204 .405 L .30600003 .405 C .32500003 .405 .33800004 .405 .33800004 .42700003 C .33800004 .441 .32500003 .441 .30800004 .441 L .21300003 .441 L .25000004 .58900007 C .25100003 .59400007 .25300003 .59900006 .25300003 .60300007 C .25300003 .621 .23900002 .635 .21900001 .635 C .194 .635 .17900002 .61800006 .17200002 .592 C .16500002 .56700006 .178 .615 .134 .441 L .031999999 .441 C .013 .441 0 .441 0 .419 C 0 .405 .011999998 .405 .030000002 .405 L .125 .405 L .066 .16900002 C .060000004 .14400001 .051 .108 .051 .095 C .051 .036000004 .101 0 .15799999 0 C .26900003 0 .33200003 .14000002 .33200003 .15300001 C .33200003 .16600001 .31900005 .16600001 .316 .16600001 C .30400003 .16600001 .30300004 .16400002 .29500003 .14700002 C .26700003 .084 .21600002 .028 .16100002 .028 C .14000002 .028 .12600002 .041 .12600002 .077 C .12600002 .087000008 .13 .108 .132 .118 L .204 .405 Z "/>
</symbol>
<use xlink:href="#font_1_2" transform="matrix(19.371666,0,0,-19.371666,153.70806,215.67702)"/>
<path transform="matrix(2.7777777,0,0,-2.7777777,62.58611,272.51664)" stroke-width=".3985" stroke-linecap="butt" stroke-miterlimit="10" stroke-linejoin="miter" fill="none" stroke="#000000" d="M 8.50418 34.01637 C 10.74603 42.3835 15.86615 49.69672 20.02448 52.60838 "/>
<path transform="matrix(2.2754167,-1.5931944,-1.5931944,-2.2754167,118.20966,126.382289)" d="M 3.58653 0 C 2.52383 .19925 .797 .797 -.3985 1.49438 L -.3985 -1.49438 C .797 -.797 2.52383 -.19925 3.58653 0 "/>
<path transform="matrix(2.7777777,0,0,-2.7777777,62.58611,272.51664)" stroke-width=".3985" stroke-linecap="butt" stroke-miterlimit="10" stroke-linejoin="miter" fill="none" stroke="#000000" d="M 70.8771 22.68025 C 68.63548 14.31267 63.51474 6.99974 59.35687 4.0883 "/>
<path transform="matrix(-2.275389,1.5932222,1.5932222,2.275389,227.46637,261.16026)" d="M 3.58653 0 C 2.52383 .19925 .797 .797 -.3985 1.49438 L -.3985 -1.49438 C .797 -.797 2.52383 -.19925 3.58653 0 "/>
<path transform="matrix(2.7777777,0,0,-2.7777777,62.58611,272.51664)" d="M 12.33482 23.52788 C 12.33482 24.07811 11.88878 24.52415 11.33855 24.52415 C 10.7883 24.52415 10.34227 24.07811 10.34227 23.52788 C 10.34227 22.97765 10.7883 22.5316 11.33855 22.5316 C 11.88878 22.5316 12.33482 22.97765 12.33482 23.52788 Z M 11.33855 23.52788 "/>
<path transform="matrix(2.7777777,0,0,-2.7777777,62.58611,272.51664)" stroke-width=".3985" stroke-linecap="butt" stroke-miterlimit="10" stroke-linejoin="miter" fill="none" stroke="#000000" d="M 12.33482 23.52788 C 12.33482 24.07811 11.88878 24.52415 11.33855 24.52415 C 10.7883 24.52415 10.34227 24.07811 10.34227 23.52788 C 10.34227 22.97765 10.7883 22.5316 11.33855 22.5316 C 11.88878 22.5316 12.33482 22.97765 12.33482 23.52788 Z M 11.33855 23.52788 "/>
<symbol id="font_2_1">
<path d="M .23200003 .00999999 C .23200003 .012999982 .23200003 .014999986 .215 .03199999 C .09 .15799999 .058 .347 .058 .5 C .058 .674 .096 .84800007 .21900001 .97300007 C .23200003 .985 .23200003 .98700007 .23200003 .99 C .23200003 .99700006 .22800002 1 .222 1 C .21200001 1 .12200001 .93200007 .06299999 .805 C .012000002 .69500008 0 .584 0 .5 C 0 .422 .011 .301 .066 .188 C .126 .065 .21200001 0 .222 0 C .22800002 0 .23200003 .0029999912 .23200003 .00999999 Z "/>
</symbol>
<use xlink:href="#font_2_1" transform="matrix(27.673888,0,0,-27.673888,265.8536,105.2601)"/>
<symbol id="font_0_1">
<path d="M .23800002 .38400004 L .351 .38400004 C .31800003 .23600002 .30900003 .19300002 .30900003 .126 C .30900003 .111 .30900003 .08400001 .317 .05 C .327 .0060000007 .338 0 .35300002 0 C .373 0 .39400003 .018000002 .39400003 .038000004 C .39400003 .044 .39400003 .046 .388 .060000004 C .359 .13200002 .359 .19700001 .359 .22500003 C .359 .27800004 .366 .33200003 .377 .38400004 L .491 .38400004 C .504 .38400004 .54 .38400004 .54 .418 C .54 .44200004 .519 .44200004 .5 .44200004 L .165 .44200004 C .143 .44200004 .105 .44200004 .061000006 .395 C .026000003 .35600005 0 .31000004 0 .305 C 0 .30400003 0 .29500003 .012 .29500003 C .020000002 .29500003 .022000002 .29900003 .028000003 .307 C .077 .38400004 .135 .38400004 .15500002 .38400004 L .21200001 .38400004 C .18000002 .263 .12600002 .14200002 .08400001 .051000004 C .076000008 .036000004 .076000008 .034 .076000008 .027000003 C .076000008 .008000001 .092 0 .105 0 C .135 0 .143 .028 .15500002 .065000008 C .16900002 .111 .16900002 .113000009 .18200001 .16300002 L .23800002 .38400004 Z "/>
</symbol>
<symbol id="font_0_2">
<path d="M .117000009 .194 C .117000009 .26 .092 .29900003 .05300001 .29900003 C .020000004 .29900003 0 .274 0 .246 C 0 .21900001 .020000004 .193 .05300001 .193 C .065000008 .193 .078 .197 .08800001 .206 C .091 .208 .092 .209 .093 .209 C .094000007 .209 .095000009 .208 .095000009 .194 C .095000009 .12 .06000001 .060000004 .027000003 .026999996 C .016000003 .016000003 .016000003 .013999999 .016000003 .0109999929 C .016000003 .003999993 .021000006 0 .026 0 C .037 0 .117000009 .077 .117000009 .194 Z "/>
</symbol>
<use xlink:href="#font_0_1" transform="matrix(27.673888,0,0,-27.673888,274.6222,98.64604)"/>
<use xlink:href="#font_0_3" transform="matrix(27.673888,0,0,-27.673888,291.75233,98.64604)"/>
<use xlink:href="#font_0_2" transform="matrix(27.673888,0,0,-27.673888,307.6648,103.682689)"/>
<symbol id="font_2_3">
<path d="M .07700001 .07700001 L .18300002 .18 C .33900003 .31800003 .39900003 .372 .39900003 .47200004 C .39900003 .586 .30900003 .666 .18700002 .666 C .074 .666 0 .574 0 .485 C 0 .42900003 .05 .42900003 .053000008 .42900003 C .07000001 .42900003 .105000007 .441 .105000007 .48200003 C .105000007 .508 .08700001 .53400006 .052000006 .53400006 C .044000005 .53400006 .042000008 .53400006 .039 .53300008 C .062000004 .59800007 .11600001 .63500007 .17400001 .63500007 C .26500003 .63500007 .308 .554 .308 .47200004 C .308 .39200003 .25800003 .31300003 .20300003 .25100003 L .011000004 .037 C 0 .026 0 .024 0 0 L .37100003 0 L .39900003 .17400001 L .374 .17400001 C .36900003 .14400001 .36200003 .1 .352 .085 C .345 .07700001 .279 .07700001 .257 .07700001 L .07700001 .07700001 Z "/>
</symbol>
<use xlink:href="#font_2_3" transform="matrix(27.673888,0,0,-27.673888,318.95314,98.34163)"/>
<use xlink:href="#font_0_3" transform="matrix(27.673888,0,0,-27.673888,332.5153,98.64604)"/>
<symbol id="font_2_2">
<path d="M .232 .5 C .232 .578 .22100002 .699 .16600001 .81200006 C .106 .93500009 .020000004 1 .009999998 1 C .0040000008 1 0 .99600008 0 .99 C 0 .98700007 0 .985 .019000002 .967 C .117000009 .86800006 .174 .709 .174 .5 C .174 .329 .137 .153 .012999997 .026999996 C 0 .014999986 0 .012999982 0 .00999999 C 0 .003999993 .0040000008 0 .009999998 0 C .020000004 0 .11000001 .06799999 .169 .195 C .22 .305 .232 .416 .232 .5 Z "/>
</symbol>
<use xlink:href="#font_2_2" transform="matrix(27.673888,0,0,-27.673888,347.61354,105.2601)"/>
<path transform="matrix(2.7777777,0,0,-2.7777777,62.58611,272.51664)" d="M 90.05022 56.69362 C 90.05022 57.24385 89.60417 57.6899 89.05394 57.6899 C 88.50371 57.6899 88.05766 57.24385 88.05766 56.69362 C 88.05766 56.14337 88.50371 55.69734 89.05394 55.69734 C 89.60417 55.69734 90.05022 56.14337 90.05022 56.69362 Z M 89.05394 56.69362 "/>
<path transform="matrix(2.7777777,0,0,-2.7777777,62.58611,272.51664)" stroke-width=".3985" stroke-linecap="butt" stroke-miterlimit="10" stroke-linejoin="miter" fill="none" stroke="#000000" d="M 90.05022 56.69362 C 90.05022 57.24385 89.60417 57.6899 89.05394 57.6899 C 88.50371 57.6899 88.05766 57.24385 88.05766 56.69362 C 88.05766 56.14337 88.50371 55.69734 89.05394 55.69734 C 89.60417 55.69734 90.05022 56.14337 90.05022 56.69362 Z M 89.05394 56.69362 "/>
<symbol id="font_1_3">
<path d="M .201 .116000007 C .19100002 .082 .15800002 .028 .107 .028 C .10400001 .028 .07400001 .028 .053000004 .042000005 C .094000007 .055000005 .09700001 .091 .09700001 .097 C .09700001 .119 .080000009 .134 .057000005 .134 C .029000007 .134 0 .11 0 .073 C 0 .023000002 .056 0 .10500001 0 C .15100003 0 .192 .029000003 .21700001 .071 C .241 .018000002 .296 0 .336 0 C .451 0 .512 .125 .512 .15300001 C .512 .16600001 .49900005 .16600001 .49600003 .16600001 C .48200003 .16600001 .48100005 .16100002 .47700004 .14900002 C .456 .08 .39600004 .028 .34 .028 C .3 .028 .279 .055000005 .279 .093 C .279 .119 .303 .21000001 .331 .321 C .351 .398 .39600004 .423 .42900003 .423 C .43100003 .423 .46200005 .423 .483 .409 C .451 .4 .439 .372 .439 .354 C .439 .33200003 .456 .317 .479 .317 C .50200006 .317 .535 .336 .535 .37800003 C .535 .43400003 .47100006 .451 .43100003 .451 C .381 .451 .34100003 .418 .319 .38 C .301 .421 .255 .451 .199 .451 C .087000008 .451 .023000002 .328 .023000002 .298 C .023000002 .285 .037 .285 .040000008 .285 C .053000004 .285 .054000006 .289 .059000009 .30200003 C .084 .38 .14700002 .423 .19600001 .423 C .229 .423 .256 .405 .256 .357 C .256 .337 .24400002 .287 .23500002 .25300003 L .201 .116000007 Z "/>
</symbol>
<use xlink:href="#font_1_3" transform="matrix(19.371666,0,0,-19.371666,305.1937,183.06594)"/>
<symbol id="font_3_4">
<path d="M .698 .22000003 C .71300008 .22000003 .73600009 .22000003 .73600009 .24500004 C .73600009 .26900003 .7120001 .26900003 .69900009 .26900003 L .037000009 .26900003 C .024000004 .26900003 0 .26900003 0 .24500004 C 0 .22000003 .023000002 .22000003 .038000004 .22000003 L .698 .22000003 M .69900009 0 C .7120001 0 .73600009 0 .73600009 .023999997 C .73600009 .049000004 .71300008 .049000004 .698 .049000004 L .038000004 .049000004 C .023000002 .049000004 0 .049000004 0 .023999997 C 0 0 .024000004 0 .037000009 0 L .69900009 0 Z "/>
</symbol>
<use xlink:href="#font_3_4" transform="matrix(19.371666,0,0,-19.371666,324.4671,180.6251)"/>
<symbol id="font_1_1">
<path d="M .361 .39200003 C .34000004 .425 .306 .451 .25800003 .451 C .13000001 .451 0 .31 0 .16600001 C 0 .069000009 .065 0 .15100001 0 C .205 0 .25300003 .031000004 .29299999 .07 C .31200005 .010000001 .37 0 .39600004 0 C .43200005 0 .45700003 .022 .47500003 .053000004 C .49700005 .092 .51000007 .14900002 .51000007 .15300001 C .51000007 .16600001 .49700005 .16600001 .49400003 .16600001 C .48000003 .16600001 .47900004 .16200002 .47200007 .135 C .46000005 .087000008 .44100005 .028 .399 .028 C .37300004 .028 .366 .050000006 .366 .077 C .366 .094000007 .374 .13000001 .38100005 .15600002 C .388 .18300002 .398 .22400002 .403 .24600002 L .42300005 .322 C .42900003 .34800003 .44100005 .395 .44100005 .4 C .44100005 .42200003 .42300005 .432 .407 .432 C .39000006 .432 .36700005 .42000003 .361 .39200003 M .297 .135 C .29000003 .107 .268 .087000008 .246 .068 C .237 .060000004 .19700001 .028 .154 .028 C .117 .028 .081 .054000006 .081 .125 C .081 .17800002 .11 .28800003 .133 .328 C .179 .40800003 .23 .423 .25800003 .423 C .328 .423 .347 .347 .347 .336 C .347 .33200003 .34500004 .32500003 .34400005 .322 L .297 .135 Z "/>
</symbol>
<use xlink:href="#font_1_1" transform="matrix(19.371666,0,0,-19.371666,347.58168,183.06594)"/>
<symbol id="font_3_1">
<path d="M .24000001 .9990001 C .050000006 .86500009 0 .653 0 .5 C 0 .35900004 .042000005 .14000002 .24000001 0 C .248 0 .26000003 0 .26000003 .0119999949 C .26000003 .018000007 .257 .019999996 .25 .026999996 C .117000009 .14700002 .06800001 .31700004 .06800001 .499 C .06800001 .76900008 .171 .901 .25300003 .975 C .257 .97900006 .26000003 .98200008 .26000003 .98700007 C .26000003 .9990001 .248 .9990001 .24000001 .9990001 Z "/>
</symbol>
<use xlink:href="#font_3_1" transform="matrix(19.371666,0,0,-19.371666,360.6333,187.69577)"/>
<use xlink:href="#font_1_2" transform="matrix(19.371666,0,0,-19.371666,367.8664,183.06594)"/>
<symbol id="font_4_1">
<path d="M .63600006 0 C .65200009 0 .67600008 0 .67600008 .023999989 C .67600008 .048999996 .65300008 .048999996 .63600006 .048999996 L .04 .048999996 C .023999997 .048999996 0 .048999996 0 .025000006 C 0 0 .02300001 0 .04 0 L .63600006 0 Z "/>
</symbol>
<use xlink:href="#font_4_1" transform="matrix(19.371666,0,0,-19.371666,382.54496,178.49423)"/>
<symbol id="font_3_9">
<path d="M .334 .43 C .334 .447 .334 .456 .32 .456 C .315 .456 .31300003 .456 .3 .444 C .29800005 .44300003 .288 .43400003 .282 .42900003 C .25200004 .45000003 .214 .456 .17700002 .456 C .034 .456 0 .381 0 .331 C 0 .299 .014000002 .273 .038000004 .25300003 C .076000008 .22000002 .11400001 .21300002 .17600002 .20300001 C .22600003 .19400002 .30700005 .18 .30700005 .113000009 C .30700005 .074 .28000004 .028 .18400002 .028 C .088 .028 .053000004 .091 .035000005 .15900001 C .032000007 .172 .031000004 .17600002 .017 .17600002 C 0 .17600002 0 .16900002 0 .14900002 L 0 .026 C 0 .009000001 0 0 .014000002 0 C .023000002 0 .042000005 .021000002 .062000008 .043 C .106000009 .0020000004 .16000001 0 .18400002 0 C .314 0 .362 .07 .362 .14100002 C .362 .17900002 .34500004 .20900002 .319 .23300001 C .28100003 .268 .235 .276 .2 .282 C .120000008 .296 .055 .308 .055 .361 C .055 .393 .082 .432 .17700002 .432 C .29300005 .432 .29800005 .351 .3 .322 C .301 .31100003 .31300003 .31100003 .31700004 .31100003 C .334 .31100003 .334 .31800003 .334 .337 L .334 .43 Z "/>
</symbol>
<symbol id="font_3_6">
<path d="M .155 .61700007 C .155 .646 .13100001 .674 .09700001 .674 C .067 .674 .04 .65000006 .04 .61700007 C .04 .58100005 .069 .559 .09700001 .559 C .12900001 .559 .155 .58400008 .155 .61700007 M .0030000024 .43 L .0030000024 .39400003 C .06600001 .39400003 .07500001 .388 .07500001 .33900003 L .07500001 .079 C .07500001 .036000004 .065000008 .036000004 0 .036000004 L 0 0 C .0020000004 0 .072000008 .004 .11200001 .004 C .14700002 .004 .183 .003 .21800003 0 L .21800003 .036000004 C .16 .036000004 .15 .036000004 .15 .078 L .15 .441 L .0030000024 .43 Z "/>
</symbol>
<symbol id="font_3_7">
<path d="M .46100006 .303 C .46100006 .39000003 .41800005 .441 .31100003 .441 C .22900002 .441 .176 .39600004 .148 .344 L .147 .344 L .147 .441 L 0 .43 L 0 .39400003 C .067 .39400003 .075 .38700003 .075 .33800004 L .075 .079 C .075 .036000004 .065 .036000004 0 .036000004 L 0 0 C .0020000004 0 .072 .004 .11400001 .004 C .15100001 .004 .22000002 .001 .22900002 0 L .22900002 .036000004 C .164 .036000004 .154 .036000004 .154 .079 L .154 .259 C .154 .36400003 .237 .41300003 .30300004 .41300003 C .37300004 .41300003 .38200004 .358 .38200004 .307 L .38200004 .079 C .38200004 .036000004 .37200005 .036000004 .30700005 .036000004 L .30700005 0 C .30900003 0 .37900005 .004 .42100004 .004 C .45800004 .004 .527 .001 .536 0 L .536 .036000004 C .47100006 .036000004 .46100006 .036000004 .46100006 .079 L .46100006 .303 Z "/>
</symbol>
<use xlink:href="#font_3_9" transform="matrix(19.371666,0,0,-19.371666,403.65788,183.06594)"/>
<use xlink:href="#font_3_6" transform="matrix(19.371666,0,0,-19.371666,412.6463,182.87223)"/>
<use xlink:href="#font_3_7" transform="matrix(19.371666,0,0,-19.371666,418.86463,182.87223)"/>
<use xlink:href="#font_1_2" transform="matrix(19.371666,0,0,-19.371666,434.63584,183.06594)"/>
<symbol id="font_3_2">
<path d="M .019000002 .9990001 C .012000002 .9990001 0 .9990001 0 .98700007 C 0 .98200008 .0029999987 .97900006 .009000003 .97200009 C .095000009 .89300009 .19100002 .758 .19100002 .5 C .19100002 .291 .12600002 .13300002 .018 .034999998 C .001000002 .018000007 0 .017000005 0 .0119999949 C 0 .0069999995 .0029999987 0 .013000004 0 C .024999999 0 .12000001 .066 .18599999 .19100002 C .23000002 .27400003 .259 .38200004 .259 .499 C .259 .64000007 .21700001 .859 .019000002 .9990001 Z "/>
</symbol>
<use xlink:href="#font_3_2" transform="matrix(19.371666,0,0,-19.371666,443.55876,187.69577)"/>
<symbol id="font_1_4">
<path d="M .50900009 .58100005 C .513 .595 .513 .597 .513 .60300007 C .513 .623 .49700005 .63500007 .48000003 .63500007 C .46900005 .63500007 .45000003 .63000008 .43900005 .611 C .43600003 .605 .42800004 .573 .42300005 .55300006 L .40200005 .47000004 C .39600004 .44600005 .36500005 .32000003 .36200003 .30900003 C .36100004 .30900003 .31700004 .22200002 .23900001 .22200002 C .171 .22200002 .171 .287 .171 .305 C .171 .35900004 .194 .42200003 .22400002 .499 C .23600002 .531 .24100001 .54300007 .24100001 .56 C .24100001 .60800006 .2 .64500007 .146 .64500007 C .045000007 .64500007 0 .509 0 .49200005 C 0 .47900004 .014000002 .47900004 .017 .47900004 C .031 .47900004 .032 .48400004 .035 .495 C .060000007 .578 .103 .61700007 .143 .61700007 C .16000001 .61700007 .168 .606 .168 .582 C .168 .559 .15900001 .537 .154 .52400007 C .106000009 .402 .096 .365 .096 .321 C .096 .30400003 .096 .25700004 .135 .22500001 C .16600001 .19900002 .20800002 .194 .235 .194 C .27500005 .194 .31100003 .209 .34400005 .23900001 C .33100004 .18400002 .32000003 .142 .27800004 .09200001 C .25100003 .061000006 .21100001 .027999998 .158 .027999998 C .15100001 .027999998 .104 .027999998 .083000008 .061000006 C .13700001 .067 .13700001 .11500001 .13700001 .116000007 C .13700001 .148 .107999999 .15400002 .098000008 .15400002 C .073 .15400002 .040000004 .134 .040000004 .08800001 C .040000004 .037 .088 0 .15900001 0 C .26000003 0 .38300003 .07800001 .41400004 .20300001 L .50900009 .58100005 Z "/>
</symbol>
<use xlink:href="#font_1_4" transform="matrix(19.371666,0,0,-19.371666,302.96324,210.44623)"/>
<use xlink:href="#font_3_4" transform="matrix(19.371666,0,0,-19.371666,321.62544,204.2473)"/>
<use xlink:href="#font_1_1" transform="matrix(19.371666,0,0,-19.371666,344.74,206.68813)"/>
<symbol id="font_3_3">
<path d="M .22600001 .63600006 C .22600001 .66300007 .224 .66400006 .19600001 .66400006 C .132 .601 .041 .6 0 .6 L 0 .564 C .023999997 .564 .09000001 .564 .14500001 .592 L .14500001 .082 C .14500001 .049000004 .14500001 .036000004 .04500001 .036000004 L .0069999995 .036000004 L .0069999995 0 C .024999999 .001 .148 .004 .185 .004 C .21600002 .004 .34200005 .001 .36400003 0 L .36400003 .036000004 L .32600004 .036000004 C .22600001 .036000004 .22600001 .049000004 .22600001 .082 L .22600001 .63600006 Z "/>
</symbol>
<use xlink:href="#font_3_1" transform="matrix(19.371666,0,0,-19.371666,357.78886,211.31797)"/>
<use xlink:href="#font_3_3" transform="matrix(19.371666,0,0,-19.371666,366.31239,206.49442)"/>
<use xlink:href="#font_4_1" transform="matrix(19.371666,0,0,-19.371666,382.37269,202.11643)"/>
<symbol id="font_3_5">
<path d="M .34300003 .409 C .32500003 .40100003 .31500004 .38500003 .31500004 .365 C .31500004 .338 .33400003 .31800003 .36200003 .31800003 C .38900004 .31800003 .41000004 .335 .41000004 .367 C .41000004 .456 .271 .456 .243 .456 C .09300001 .456 0 .34100003 0 .22600001 C 0 .1 .10700001 0 .238 0 C .38700003 0 .42200003 .118 .42200003 .13000001 C .42200003 .142 .409 .142 .40500004 .142 C .39200003 .142 .391 .13900002 .386 .125 C .36400003 .063 .31100003 .032 .25 .032 C .18100001 .032 .091000009 .083000008 .091000009 .22700002 C .091000009 .354 .15300001 .42400003 .24600002 .42400003 C .259 .42400003 .307 .42400003 .34300003 .409 Z "/>
</symbol>
<symbol id="font_3_8">
<path d="M .49000005 .22300002 C .49000005 .34800003 .38300003 .456 .245 .456 C .10700001 .456 0 .34800003 0 .22300002 C 0 .099 .11 0 .245 0 C .38000003 0 .49000005 .099 .49000005 .22300002 M .245 .032 C .208 .032 .154 .044000005 .12100001 .093 C .094 .134 .091000009 .18600002 .091000009 .23200003 C .091000009 .275 .09200001 .334 .127 .377 C .15200001 .40600003 .194 .428 .245 .428 C .30400003 .428 .34600003 .4 .368 .36900003 C .39600004 .33 .39900003 .28 .39900003 .23200003 C .39900003 .18400002 .39600004 .13100001 .367 .09 C .34 .052000006 .294 .032 .245 .032 Z "/>
</symbol>
<use xlink:href="#font_3_5" transform="matrix(19.371666,0,0,-19.371666,403.50776,206.68813)"/>
<use xlink:href="#font_3_8" transform="matrix(19.371666,0,0,-19.371666,413.21296,206.68813)"/>
<use xlink:href="#font_3_9" transform="matrix(19.371666,0,0,-19.371666,424.37107,206.68813)"/>
<use xlink:href="#font_1_2" transform="matrix(19.371666,0,0,-19.371666,436.84693,206.68813)"/>
<use xlink:href="#font_3_2" transform="matrix(19.371666,0,0,-19.371666,445.7698,211.31797)"/>
<use xlink:href="#font_2_3" transform="matrix(27.673888,0,0,-27.673888,536.09207,300.12776)"/>
<use xlink:href="#font_0_1" transform="matrix(27.673888,0,0,-27.673888,549.2917,300.43217)"/>
<use xlink:href="#font_0_3" transform="matrix(27.673888,0,0,-27.673888,566.4218,300.43217)"/>
</g>
</svg>
