<?xml version="1.0" encoding="UTF-8" standalone="no"?>
<!DOCTYPE svg PUBLIC "-//W3C//DTD SVG 1.1//EN" "http://www.w3.org/Graphics/SVG/1.1/DTD/svg11.dtd">
<svg xmlns="http://www.w3.org/2000/svg" xmlns:xlink="http://www.w3.org/1999/xlink" version="1.1" width="566.3333pt" height="449.42778pt" viewBox="0 0 566.3333 449.42778">
<g enable-background="new">
<path transform="matrix(2.7777777,0,0,-2.7777777,118.82222,411.51115)" stroke-width=".19925" stroke-linecap="butt" stroke-miterlimit="10" stroke-linejoin="miter" fill="none" stroke="#929292" d="M -30.59976 59.0087 L -30.59976 63.26079 M -.0324 59.0087 L -.0324 63.26079 M 30.53496 59.0087 L 30.53496 63.26079 M 91.66971 59.0087 L 91.66971 63.26079 M 122.23709 59.0087 L 122.23709 63.26079 M 152.80448 59.0087 L 152.80448 63.26079 "/>
<path transform="matrix(2.7777777,0,0,-2.7777777,118.82222,411.51115)" stroke-width=".19925" stroke-linecap="butt" stroke-miterlimit="10" stroke-linejoin="miter" fill="none" stroke="#929292" d="M 58.9763 0 L 63.2284 0 M 58.9763 30.56737 L 63.2284 30.56737 M 58.9763 91.70213 L 63.2284 91.70213 M 58.9763 122.2695 L 63.2284 122.2695 "/>
<path transform="matrix(2.7777777,0,0,-2.7777777,118.82222,411.51115)" stroke-width=".3985" stroke-linecap="butt" stroke-miterlimit="10" stroke-linejoin="miter" fill="none" stroke="#000000" d="M -36.01816 61.13475 L 156.26276 61.13475 "/>
<path transform="matrix(2.7777777,0,0,-2.7777777,552.88546,241.69239)" d="M 1.99252 0 L -1.19551 1.59401 L 0 0 L -1.19551 -1.59401 "/>
<path transform="matrix(2.7777777,0,0,-2.7777777,118.82222,411.51115)" stroke-width=".3985" stroke-linecap="butt" stroke-miterlimit="10" stroke-linejoin="miter" fill="none" stroke="#000000" d="M 61.10234 -13.45044 L 61.10234 145.95439 "/>
<path transform="matrix(0,-2.7777777,-2.7777777,-0,288.55094,6.08228)" d="M 1.99252 0 L -1.19551 1.59401 L 0 0 L -1.19551 -1.59401 "/>
<symbol id="font_0_1">
<path d="M .57600006 0 C .59300008 0 .611 0 .611 .019999996 C .611 .040000008 .59300008 .040000008 .57600006 .040000008 L .035000005 .040000008 C .018 .040000008 0 .040000008 0 .019999996 C 0 0 .018 0 .035000005 0 L .57600006 0 Z "/>
</symbol>
<use xlink:href="#font_0_1" transform="matrix(27.673888,0,0,-27.673888,11.521931,268.84889)"/>
<symbol id="font_1_4">
<path d="M .205 .64000007 C .205 .66400006 .205 .666 .18200003 .666 C .120000008 .60200008 .032000007 .60200008 0 .60200008 L 0 .57100006 C .020000004 .57100006 .07900001 .57100006 .13100001 .597 L .13100001 .079 C .13100001 .043 .128 .031000002 .038000004 .031000002 L .0060000049 .031000002 L .0060000049 0 C .04100001 .003 .128 .003 .168 .003 C .20800002 .003 .29500003 .003 .33000005 0 L .33000005 .031000002 L .29800005 .031000002 C .20800002 .031000002 .205 .042000005 .205 .079 L .205 .64000007 Z "/>
</symbol>
<symbol id="font_1_5">
<path d="M .39900003 .223 C .39900003 .34200005 .317 .44200004 .209 .44200004 C .16100002 .44200004 .118000019 .42600004 .082 .39100004 L .082 .586 C .10200001 .58000007 .135 .573 .16700001 .573 C .29 .573 .36 .66400006 .36 .67700007 C .36 .683 .357 .688 .35 .688 C .349 .688 .347 .688 .342 .68500009 C .322 .67600008 .273 .656 .20600002 .656 C .16600001 .656 .120000008 .66300007 .073 .6840001 C .065 .68700006 .06300001 .68700006 .061000009 .68700006 C .051000004 .68700006 .051000004 .679 .051000004 .66300007 L .051000004 .36700005 C .051000004 .34900005 .051000004 .34100003 .065 .34100003 C .07200001 .34100003 .074 .34400005 .07800001 .35000003 C .08900002 .36600004 .12600002 .42000006 .207 .42000006 C .259 .42000006 .284 .37400005 .292 .35600005 C .308 .31900005 .31 .28000004 .31 .23 C .31 .19500001 .31 .135 .286 .093 C .262 .054000006 .22500001 .028 .17900002 .028 C .106000009 .028 .049000008 .08100001 .032 .14000002 C .035 .13900002 .038000008 .13800001 .049000008 .13800001 C .082 .13800001 .09900001 .163 .09900001 .187 C .09900001 .21100001 .082 .23600002 .049000008 .23600002 C .035 .23600002 0 .22900002 0 .18300002 C 0 .097 .069000009 0 .18100001 0 C .297 0 .39900003 .096 .39900003 .223 Z "/>
</symbol>
<use xlink:href="#font_1_4" transform="matrix(27.673888,0,0,-27.673888,33.210195,275.21388)"/>
<use xlink:href="#font_1_5" transform="matrix(27.673888,0,0,-27.673888,45.967859,275.8227)"/>
<use xlink:href="#font_0_1" transform="matrix(27.673888,0,0,-27.673888,96.43027,268.84889)"/>
<symbol id="font_1_3">
<path d="M .421 .34200005 C .421 .42200003 .416 .50200006 .381 .57600006 C .335 .67200008 .25300003 .688 .211 .688 C .15100001 .688 .07800001 .66200008 .037000006 .56900009 C .0050000029 .5 0 .42200003 0 .34200005 C 0 .26700003 .0040000008 .177 .045000007 .101 C .088 .020000002 .161 0 .21000001 0 C .264 0 .34 .021000002 .384 .116000007 C .416 .185 .421 .263 .421 .34200005 M .21000001 .022000002 C .171 .022000002 .112 .047000003 .094 .143 C .083000008 .20300001 .083000008 .29500003 .083000008 .35400004 C .083000008 .41800005 .083000008 .48400004 .091000009 .53800007 C .11 .65700009 .185 .66600009 .21000001 .66600009 C .243 .66600009 .30900003 .64800009 .328 .549 C .338 .49300004 .338 .41700004 .338 .35400004 C .338 .279 .338 .21100001 .32700003 .147 C .312 .052 .255 .022000002 .21000001 .022000002 Z "/>
</symbol>
<use xlink:href="#font_1_4" transform="matrix(27.673888,0,0,-27.673888,118.11853,275.21388)"/>
<use xlink:href="#font_1_3" transform="matrix(27.673888,0,0,-27.673888,130.5718,275.8227)"/>
<use xlink:href="#font_0_1" transform="matrix(27.673888,0,0,-27.673888,188.25527,268.84889)"/>
<use xlink:href="#font_1_5" transform="matrix(27.673888,0,0,-27.673888,208.86702,275.8227)"/>
<use xlink:href="#font_1_5" transform="matrix(27.673888,0,0,-27.673888,367.92259,275.8227)"/>
<use xlink:href="#font_1_4" transform="matrix(27.673888,0,0,-27.673888,446.99076,275.21388)"/>
<use xlink:href="#font_1_3" transform="matrix(27.673888,0,0,-27.673888,459.44398,275.8227)"/>
<use xlink:href="#font_1_4" transform="matrix(27.673888,0,0,-27.673888,531.89907,275.21388)"/>
<use xlink:href="#font_1_5" transform="matrix(27.673888,0,0,-27.673888,544.6567,275.8227)"/>
<use xlink:href="#font_0_1" transform="matrix(27.673888,0,0,-27.673888,225.9636,412.91285)"/>
<use xlink:href="#font_1_4" transform="matrix(27.673888,0,0,-27.673888,247.65465,419.27784)"/>
<use xlink:href="#font_1_3" transform="matrix(27.673888,0,0,-27.673888,260.1079,419.88667)"/>
<use xlink:href="#font_0_1" transform="matrix(27.673888,0,0,-27.673888,239.7997,328.00453)"/>
<use xlink:href="#font_1_5" transform="matrix(27.673888,0,0,-27.673888,260.41148,334.97834)"/>
<use xlink:href="#font_1_5" transform="matrix(27.673888,0,0,-27.673888,260.41148,166.31439)"/>
<use xlink:href="#font_1_4" transform="matrix(27.673888,0,0,-27.673888,247.65464,80.79721)"/>
<use xlink:href="#font_1_3" transform="matrix(27.673888,0,0,-27.673888,260.10789,81.40604)"/>
<clipPath id="cp2">
<path transform="matrix(2.7777777,0,0,-2.7777777,118.82222,411.51115)" d="M -36.01816 -13.45044 L 158.25528 -13.45044 L 158.25528 147.94692 L -36.01816 147.94692 Z "/>
</clipPath>
<g clip-path="url(#cp2)">
<path transform="matrix(2.7777777,0,0,-2.7777777,118.82222,411.51115)" stroke-width=".79701" stroke-linecap="butt" stroke-miterlimit="10" stroke-linejoin="miter" fill="none" stroke="#000000" d="M 122.23709 61.13475 L 122.11116 57.25757 L 121.74374 53.39691 L 121.13055 49.56682 L 120.27467 45.7832 L 119.18404 42.06007 L 117.85556 38.41524 L 116.29968 34.86208 L 114.52373 31.41225 L 112.53012 28.0853 L 110.33049 24.8904 L 107.93279 21.83855 L 105.34618 18.94992 L 102.58105 16.22882 L 99.65086 13.68744 L 96.56233 11.33865 L 93.33382 9.18915 L 89.97385 7.24995 L 86.49771 5.529 L 82.92072 4.02815 L 79.25447 2.76021 L 75.51486 1.72581 L 71.71901 .92923 L 67.87851 .37964 L 64.01175 .07152 L 60.13397 .00916 L 56.25986 .195 L 52.4047 .62477 L 48.5844 1.29848 L 44.81482 2.21367 L 41.10944 3.363 L 37.4866 4.74832 L 33.95729 6.36107 L 30.53802 8.19022 L 27.24225 10.23698 L 24.08159 12.48676 L 21.07008 14.93214 L 18.22243 17.56523 L 15.54471 20.37253 L 13.05042 23.34367 L 10.75114 26.46767 L 8.653 29.72981 L 6.76698 33.12035 L 5.09984 36.62215 L 3.65707 40.22298 L 2.44783 43.91002 L 1.47334 47.6643 L .73788 51.473 L .24883 55.32083 L 0 59.19249 L 0 63.06966 L .24883 66.9407 L .73727 70.78975 L 1.4721 74.59843 L 2.44598 78.35335 L 3.65402 82.03978 L 5.09741 85.64061 L 6.76456 89.14363 L 8.64934 92.53416 L 10.74747 95.79633 L 13.04675 98.9203 L 15.54044 101.89268 L 18.21754 104.69936 L 21.0658 107.33304 L 24.07669 109.77843 L 27.23737 112.02881 L 30.5313 114.07622 L 33.95302 115.9066 L 37.4811 117.5175 L 41.10333 118.90463 L 44.80809 120.05399 L 48.57828 120.96977 L 52.39798 121.64348 L 56.25313 122.07385 L 60.12724 122.26031 L 64.00563 122.19675 L 67.8718 121.88985 L 71.71167 121.34148 L 75.50935 120.54489 L 79.24776 119.51111 L 82.914 118.24316 L 86.49223 116.74414 L 89.9671 115.0232 L 93.32831 113.084 L 96.55684 110.9345 L 99.64536 108.5863 L 102.57616 106.04434 L 105.3413 103.32506 L 107.92851 100.43523 L 110.32683 97.38521 L 112.52644 94.1903 L 114.52068 90.86273 L 116.29663 87.41412 L 117.85374 83.86037 L 119.18098 80.2149 L 120.27345 76.493 L 121.12994 72.70938 L 121.74251 68.87929 L 122.10994 65.01802 L 122.2129 61.8478 "/>
<path transform="matrix(.09025,2.7762223,2.7762223,-.09025,458.30247,239.71167)" stroke-width=".6376" stroke-linecap="round" stroke-linejoin="round" fill="none" stroke="#000000" d="M -1.55415 2.0722 C -1.42464 1.29512 0 .1295 .38852 0 C 0 -.1295 -1.42464 -1.29512 -1.55415 -2.0722 "/>
<symbol id="font_3_2">
<path d="M .305 .31300003 C .311 .33900003 .334 .43100003 .404 .43100003 C .409 .43100003 .433 .43100003 .454 .418 C .426 .41300003 .40600003 .388 .40600003 .36400003 C .40600003 .34800003 .417 .32900004 .444 .32900004 C .46600003 .32900004 .498 .34700004 .498 .38700003 C .498 .43900005 .439 .45300005 .405 .45300005 C .347 .45300005 .312 .40000005 .3 .37700004 C .275 .44300003 .221 .45300005 .19200002 .45300005 C .08800001 .45300005 .031000002 .32400004 .031000002 .29900003 C .031000002 .28900004 .041 .28900004 .043000007 .28900004 C .051000008 .28900004 .054000006 .291 .056 .3 C .09 .40600003 .156 .43100003 .19000001 .43100003 C .209 .43100003 .244 .42200003 .244 .36400003 C .244 .33300004 .22700002 .26600004 .19000001 .126 C .17400001 .064 .13900002 .022000002 .095000009 .022000002 C .08900001 .022000002 .06600001 .022000002 .045 .035 C .07000001 .040000004 .09200001 .061 .09200001 .089 C .09200001 .116000007 .07000001 .124000009 .055000009 .124000009 C .025 .124000009 0 .098000008 0 .06600001 C 0 .020000002 .050000006 0 .094000007 0 C .16000001 0 .19600001 .07000001 .19900002 .076000008 C .21100001 .039 .24700003 0 .307 0 C .41 0 .467 .12900001 .467 .15400002 C .467 .16400002 .458 .16400002 .455 .16400002 C .446 .16400002 .444 .16000001 .442 .15300001 C .409 .046 .341 .022000002 .30900003 .022000002 C .27 .022000002 .254 .054 .254 .08800001 C .254 .11000001 .26 .13200002 .271 .17600002 L .305 .31300003 Z "/>
</symbol>
<use xlink:href="#font_3_2" transform="matrix(27.673888,0,0,-27.673888,352.7553,45.137788)"/>
<symbol id="font_1_6">
<path d="M .63100007 .19400002 C .646 .19400002 .665 .19400002 .665 .214 C .665 .23400001 .646 .23400001 .632 .23400001 L .033 .23400001 C .019000002 .23400001 0 .23400001 0 .214 C 0 .19400002 .019000002 .19400002 .034 .19400002 L .63100007 .19400002 M .632 0 C .646 0 .665 0 .665 .02000001 C .665 .040000008 .646 .040000008 .63100007 .040000008 L .034 .040000008 C .019000002 .040000008 0 .040000008 0 .02000001 C 0 0 .019000002 0 .033 0 L .632 0 Z "/>
</symbol>
<symbol id="font_1_7">
<path d="M .083000008 .22900002 C .083000008 .39200003 .16500002 .43400003 .218 .43400003 C .227 .43400003 .29 .43300004 .32500003 .397 C .284 .39400003 .278 .36400003 .278 .351 C .278 .32500003 .296 .305 .324 .305 C .35 .305 .37 .32200004 .37 .35200004 C .37 .42000003 .294 .45900003 .21700001 .45900003 C .092 .45900003 0 .351 0 .22700002 C 0 .09900001 .099 0 .215 0 C .349 0 .381 .120000008 .381 .13000001 C .381 .14000002 .37100003 .14000002 .368 .14000002 C .359 .14000002 .35700003 .136 .35500003 .13000001 C .326 .037 .261 .025000003 .224 .025000003 C .171 .025000003 .083000008 .068 .083000008 .22900002 Z "/>
</symbol>
<symbol id="font_1_a">
<path d="M .44300003 .22500003 C .44300003 .35300002 .34300003 .45900003 .222 .45900003 C .097 .45900003 0 .35000003 0 .22500003 C 0 .096 .104 0 .22100002 0 C .342 0 .44300003 .098000008 .44300003 .22500003 M .222 .025000003 C .17900002 .025000003 .135 .046 .10800001 .092 C .083000008 .136 .083000008 .19700001 .083000008 .23300003 C .083000008 .272 .083000008 .32600004 .10700001 .37000004 C .134 .41600005 .18100001 .43700005 .22100002 .43700005 C .26500003 .43700005 .30800004 .41500003 .33400003 .37200005 C .36 .32900004 .36 .27100004 .36 .23300003 C .36 .19700001 .36 .143 .33800004 .09900001 C .316 .054 .272 .025000003 .222 .025000003 Z "/>
</symbol>
<symbol id="font_1_b">
<path d="M .17500001 .20500002 C .197 .20100002 .279 .18500002 .279 .113000009 C .279 .062000004 .24400002 .022000002 .16600001 .022000002 C .082 .022000002 .046000005 .079 .027000003 .16400002 C .024000004 .17700002 .023000002 .18100001 .013000004 .18100001 C 0 .18100001 0 .17400001 0 .15600002 L 0 .024 C 0 .0070000009 0 0 .011000004 0 C .016000003 0 .017 .0010000002 .036000007 .020000002 C .038000004 .022000002 .038000004 .024 .056 .043 C .1 .0010000002 .14500001 0 .16600001 0 C .28100003 0 .32700003 .067 .32700003 .13900002 C .32700003 .19200002 .29700003 .22200002 .28500004 .23400001 C .25200004 .26600004 .213 .27400003 .171 .28200004 C .115 .293 .048 .30600003 .048 .36400003 C .048 .39900003 .07400001 .44000004 .16 .44000004 C .27 .44000004 .27500005 .35000003 .277 .31900005 C .27800004 .31000004 .28700004 .31000004 .28900004 .31000004 C .30200003 .31000004 .30200003 .31500004 .30200003 .33400003 L .30200003 .43500004 C .30200003 .45200003 .30200003 .45900003 .291 .45900003 C .286 .45900003 .284 .45900003 .27100004 .44700004 C .26800005 .44300003 .25800003 .43400003 .254 .43100003 C .21600002 .45900003 .17500001 .45900003 .16 .45900003 C .038000004 .45900003 0 .39200003 0 .33600004 C 0 .30100004 .016000003 .27300004 .043000007 .25100003 C .075 .22500003 .10300001 .21900001 .17500001 .20500002 Z "/>
</symbol>
<symbol id="font_1_1">
<path d="M .23200003 .00999999 C .23200003 .012999982 .23200003 .014999986 .215 .03199999 C .09 .15799999 .058 .347 .058 .5 C .058 .674 .096 .84800007 .21900001 .97300007 C .23200003 .985 .23200003 .98700007 .23200003 .99 C .23200003 .99700006 .22800002 1 .222 1 C .21200001 1 .12200001 .93200007 .06299999 .805 C .012000002 .69500008 0 .584 0 .5 C 0 .422 .011 .301 .066 .188 C .126 .065 .21200001 0 .222 0 C .22800002 0 .23200003 .0029999912 .23200003 .00999999 Z "/>
</symbol>
<use xlink:href="#font_1_6" transform="matrix(27.673888,0,0,-27.673888,377.00529,41.15275)"/>
<use xlink:href="#font_1_4" transform="matrix(27.673888,0,0,-27.673888,407.14216,44.833375)"/>
<use xlink:href="#font_1_3" transform="matrix(27.673888,0,0,-27.673888,419.5954,45.4422)"/>
<use xlink:href="#font_1_7" transform="matrix(27.673888,0,0,-27.673888,437.88783,45.137788)"/>
<use xlink:href="#font_1_a" transform="matrix(27.673888,0,0,-27.673888,450.009,45.137788)"/>
<use xlink:href="#font_1_b" transform="matrix(27.673888,0,0,-27.673888,463.98429,45.137788)"/>
<use xlink:href="#font_1_1" transform="matrix(27.673888,0,0,-27.673888,476.74195,51.751848)"/>
<use xlink:href="#font_0_1" transform="matrix(27.673888,0,0,-27.673888,487.0636,38.46838)"/>
<symbol id="font_3_1">
<path d="M .41300003 .511 C .41300003 .577 .395 .716 .293 .716 C .15400002 .716 0 .43400003 0 .20500002 C 0 .111 .029 0 .12 0 C .261 0 .41300003 .28700004 .41300003 .511 M .106 .374 C .123 .43800003 .143 .518 .183 .589 C .21000001 .638 .24700001 .694 .29200004 .694 C .34100003 .694 .34700004 .63 .34700004 .573 C .34700004 .524 .33900003 .47300003 .31500004 .374 L .106 .374 M .30600003 .34200005 C .29500003 .29600004 .27400003 .21100001 .23600003 .13900002 C .201 .071 .16300002 .022000002 .12 .022000002 C .087000008 .022000002 .066 .051000004 .066 .14400001 C .066 .18600002 .072000008 .24400002 .098 .34200005 L .30600003 .34200005 Z "/>
</symbol>
<use xlink:href="#font_3_1" transform="matrix(27.673888,0,0,-27.673888,507.45396,45.137788)"/>
<symbol id="font_1_2">
<path d="M .232 .5 C .232 .578 .22100002 .699 .16600001 .81200006 C .106 .93500009 .020000004 1 .009999998 1 C .0040000008 1 0 .99600008 0 .99 C 0 .98700007 0 .985 .019000002 .967 C .117000009 .86800006 .174 .709 .174 .5 C .174 .329 .137 .153 .012999997 .026999996 C 0 .014999986 0 .012999982 0 .00999999 C 0 .003999993 .0040000008 0 .009999998 0 C .020000004 0 .11000001 .06799999 .169 .195 C .22 .305 .232 .416 .232 .5 Z "/>
</symbol>
<use xlink:href="#font_1_2" transform="matrix(27.673888,0,0,-27.673888,521.6301,51.751848)"/>
<symbol id="font_3_3">
<path d="M .45700003 .586 C .461 .6 .461 .602 .461 .609 C .461 .62700006 .447 .63600006 .432 .63600006 C .42200003 .63600006 .40600003 .63 .397 .615 C .395 .61 .387 .579 .38300003 .561 C .37600003 .535 .36900003 .508 .363 .48100005 L .318 .301 C .314 .286 .271 .21600002 .20500002 .21600002 C .15400002 .21600002 .143 .26000003 .143 .29700003 C .143 .34300003 .16000001 .40500004 .194 .49300004 C .21000001 .53400006 .21400002 .545 .21400002 .56500008 C .21400002 .61 .18200001 .6470001 .13200002 .6470001 C .037 .6470001 0 .50200006 0 .49300004 C 0 .48300005 .01 .48300005 .012 .48300005 C .022000002 .48300005 .023 .485 .028000003 .50100007 C .055000009 .595 .095000009 .625 .12900001 .625 C .13700001 .625 .15400002 .625 .15400002 .59300008 C .15400002 .568 .14400001 .54200008 .13700001 .523 C .097 .41700004 .079 .36 .079 .31300003 C .079 .224 .142 .194 .201 .194 C .24000003 .194 .274 .21100001 .30200003 .23900002 C .289 .187 .277 .13800001 .237 .08500001 C .21100001 .051 .17300001 .022 .127 .022 C .113000009 .022 .068 .025000006 .051000008 .06400001 C .067 .06400001 .080000009 .06400001 .094000007 .076000008 C .104 .08500001 .11400001 .098000008 .11400001 .117000009 C .11400001 .148 .087000008 .15200001 .07700001 .15200001 C .054000006 .15200001 .021 .136 .021 .087000008 C .021 .037 .065000008 0 .127 0 C .23 0 .333 .091000009 .361 .20400001 L .45700003 .586 Z "/>
</symbol>
<use xlink:href="#font_3_3" transform="matrix(27.673888,0,0,-27.673888,354.91923,84.47036)"/>
<symbol id="font_1_8">
<path d="M .144 .44200004 L .0040000008 .43100003 L .0040000008 .4 C .069000009 .4 .07800001 .39400003 .07800001 .34500004 L .07800001 .076000008 C .07800001 .031000002 .067 .031000002 0 .031000002 L 0 0 C .032000007 .001 .086 .003 .11000001 .003 C .14500001 .003 .18 .001 .21400002 0 L .21400002 .031000002 C .148 .031000002 .144 .036000004 .144 .075 L .144 .44200004 M .148 .61600008 C .148 .648 .123 .669 .095000009 .669 C .064 .669 .042000005 .642 .042000005 .61600008 C .042000005 .58900007 .064 .563 .095000009 .563 C .123 .563 .148 .58400008 .148 .61600008 Z "/>
</symbol>
<symbol id="font_1_9">
<path d="M .07800001 .344 L .07800001 .076000008 C .07800001 .031000002 .067 .031000002 0 .031000002 L 0 0 C .035 .001 .08600001 .003 .113000009 .003 C .139 .003 .191 .001 .225 0 L .225 .031000002 C .158 .031000002 .147 .031000002 .147 .076000008 L .147 .26000003 C .147 .36400003 .218 .42000003 .282 .42000003 C .345 .42000003 .356 .36600004 .356 .30900003 L .356 .076000008 C .356 .031000002 .345 .031000002 .278 .031000002 L .278 0 C .31300003 .001 .36400003 .003 .391 .003 C .41700004 .003 .46900005 .001 .503 0 L .503 .031000002 C .451 .031000002 .42600004 .031000002 .425 .061000006 L .425 .252 C .425 .33800004 .425 .36900003 .39400003 .40500004 C .38000003 .42200003 .347 .44200004 .289 .44200004 C .216 .44200004 .169 .39900003 .141 .337 L .141 .44200004 L 0 .43100003 L 0 .4 C .07000001 .4 .07800001 .393 .07800001 .344 Z "/>
</symbol>
<use xlink:href="#font_1_6" transform="matrix(27.673888,0,0,-27.673888,377.9136,75.116588)"/>
<use xlink:href="#font_1_4" transform="matrix(27.673888,0,0,-27.673888,408.05049,78.79721)"/>
<use xlink:href="#font_1_3" transform="matrix(27.673888,0,0,-27.673888,420.5037,79.40604)"/>
<use xlink:href="#font_1_b" transform="matrix(27.673888,0,0,-27.673888,438.76847,79.10162)"/>
<use xlink:href="#font_1_8" transform="matrix(27.673888,0,0,-27.673888,449.67198,78.79721)"/>
<use xlink:href="#font_1_9" transform="matrix(27.673888,0,0,-27.673888,457.33766,78.79721)"/>
<use xlink:href="#font_1_1" transform="matrix(27.673888,0,0,-27.673888,474.57847,85.71568)"/>
<use xlink:href="#font_0_1" transform="matrix(27.673888,0,0,-27.673888,484.8997,72.43222)"/>
<use xlink:href="#font_3_1" transform="matrix(27.673888,0,0,-27.673888,505.28727,79.10162)"/>
<use xlink:href="#font_1_2" transform="matrix(27.673888,0,0,-27.673888,519.4635,85.71568)"/>
</g>
<use xlink:href="#font_3_2" transform="matrix(27.673888,0,0,-27.673888,533.622,232.22385)"/>
<use xlink:href="#font_3_3" transform="matrix(27.673888,0,0,-27.673888,299.12757,27.920432)"/>
</g>
</svg>
