<?xml version="1.0" encoding="UTF-8" standalone="no"?>
<!DOCTYPE svg PUBLIC "-//W3C//DTD SVG 1.1//EN" "http://www.w3.org/Graphics/SVG/1.1/DTD/svg11.dtd">
<svg xmlns="http://www.w3.org/2000/svg" xmlns:xlink="http://www.w3.org/1999/xlink" version="1.1" width="549.9861pt" height="546.5222pt" viewBox="0 0 549.9861 546.5222">
<g enable-background="new">
<path transform="matrix(2.7777777,0,0,-2.7777777,186.20557,427.19447)" stroke-width=".19925" stroke-linecap="butt" stroke-miterlimit="10" stroke-linejoin="miter" fill="none" stroke="#929292" d="M -49.08717 -15.57661 L -49.08717 -11.32478 M 49.08717 -15.57661 L 49.08717 -11.32478 M 98.17436 -15.57661 L 98.17436 -11.32478 "/>
<path transform="matrix(2.7777777,0,0,-2.7777777,186.20557,427.19447)" stroke-width=".19925" stroke-linecap="butt" stroke-miterlimit="10" stroke-linejoin="miter" fill="none" stroke="#929292" d="M -2.1259 0 L 2.1259 0 M -2.1259 49.08717 L 2.1259 49.08717 M -2.1259 98.17436 L 2.1259 98.17436 M -2.1259 147.26155 L 2.1259 147.26155 "/>
<path transform="matrix(2.7777777,0,0,-2.7777777,186.20557,427.19447)" stroke-width=".3985" stroke-linecap="butt" stroke-miterlimit="10" stroke-linejoin="miter" fill="none" stroke="#000000" d="M -63.51443 -13.4507 L 128.77136 -13.4507 "/>
<path transform="matrix(2.7777777,0,0,-2.7777777,543.90377,464.5575)" d="M 1.99252 0 L -1.19551 1.59401 L 0 0 L -1.19551 -1.59401 "/>
<path transform="matrix(2.7777777,0,0,-2.7777777,186.20557,427.19447)" stroke-width=".3985" stroke-linecap="butt" stroke-miterlimit="10" stroke-linejoin="miter" fill="none" stroke="#000000" d="M 0 -13.4507 L 0 145.95708 "/>
<path transform="matrix(0,-2.7777777,-2.7777777,-0,186.20557,21.758143)" d="M 1.99252 0 L -1.19551 1.59401 L 0 0 L -1.19551 -1.59401 "/>
<symbol id="font_0_1">
<path d="M .57600006 0 C .59300008 0 .611 0 .611 .019999996 C .611 .040000008 .59300008 .040000008 .57600006 .040000008 L .035000005 .040000008 C .018 .040000008 0 .040000008 0 .019999996 C 0 0 .018 0 .035000005 0 L .57600006 0 Z "/>
</symbol>
<use xlink:href="#font_0_1" transform="matrix(27.673888,0,0,-27.673888,34.469167,491.71003)"/>
<symbol id="font_1_3">
<path d="M .07700001 .07700001 L .18300002 .18 C .33900003 .31800003 .39900003 .372 .39900003 .47200004 C .39900003 .586 .30900003 .666 .18700002 .666 C .074 .666 0 .574 0 .485 C 0 .42900003 .05 .42900003 .053000008 .42900003 C .07000001 .42900003 .105000007 .441 .105000007 .48200003 C .105000007 .508 .08700001 .53400006 .052000006 .53400006 C .044000005 .53400006 .042000008 .53400006 .039 .53300008 C .062000004 .59800007 .11600001 .63500007 .17400001 .63500007 C .26500003 .63500007 .308 .554 .308 .47200004 C .308 .39200003 .25800003 .31300003 .20300003 .25100003 L .011000004 .037 C 0 .026 0 .024 0 0 L .37100003 0 L .39900003 .17400001 L .374 .17400001 C .36900003 .14400001 .36200003 .1 .352 .085 C .345 .07700001 .279 .07700001 .257 .07700001 L .07700001 .07700001 Z "/>
</symbol>
<use xlink:href="#font_1_3" transform="matrix(27.673888,0,0,-27.673888,55.080926,498.075)"/>
<use xlink:href="#font_1_3" transform="matrix(27.673888,0,0,-27.673888,317.02259,498.075)"/>
<symbol id="font_1_4">
<path d="M .266 .165 L .266 .078 C .266 .042000005 .26400004 .031000002 .19000001 .031000002 L .16900002 .031000002 L .16900002 0 C .21000001 .003 .26200003 .003 .30400003 .003 C .34600003 .003 .39900003 .003 .44000004 0 L .44000004 .031000002 L .41900004 .031000002 C .34500004 .031000002 .34300003 .042000005 .34300003 .078 L .34300003 .165 L .44300003 .165 L .44300003 .19600001 L .34300003 .19600001 L .34300003 .651 C .34300003 .671 .34300003 .67700007 .32700003 .67700007 C .31800003 .67700007 .31500004 .67700007 .307 .665 L 0 .19600001 L 0 .165 L .266 .165 M .272 .19600001 L .028 .19600001 L .272 .569 L .272 .19600001 Z "/>
</symbol>
<use xlink:href="#font_1_4" transform="matrix(27.673888,0,0,-27.673888,452.76377,498.075)"/>
<symbol id="font_0_2">
<path d="M .106 .05299999 C .106 .082 .08200001 .10599999 .05300001 .10599999 C .024000004 .10599999 0 .082 0 .05299999 C 0 .024000004 .024000004 0 .05300001 0 C .08200001 0 .106 .024000004 .106 .05299999 Z "/>
</symbol>
<use xlink:href="#font_0_2" transform="matrix(27.673888,0,0,-27.673888,465.3077,541.07046)"/>
<symbol id="font_1_2">
<path d="M .205 .64000007 C .205 .66400006 .205 .666 .18200003 .666 C .120000008 .60200008 .032000007 .60200008 0 .60200008 L 0 .57100006 C .020000004 .57100006 .07900001 .57100006 .13100001 .597 L .13100001 .079 C .13100001 .043 .128 .031000002 .038000004 .031000002 L .0060000049 .031000002 L .0060000049 0 C .04100001 .003 .128 .003 .168 .003 C .20800002 .003 .29500003 .003 .33000005 0 L .33000005 .031000002 L .29800005 .031000002 C .20800002 .031000002 .205 .042000005 .205 .079 L .205 .64000007 Z "/>
</symbol>
<symbol id="font_1_1">
<path d="M .421 .34200005 C .421 .42200003 .416 .50200006 .381 .57600006 C .335 .67200008 .25300003 .688 .211 .688 C .15100001 .688 .07800001 .66200008 .037000006 .56900009 C .0050000029 .5 0 .42200003 0 .34200005 C 0 .26700003 .0040000008 .177 .045000007 .101 C .088 .020000002 .161 0 .21000001 0 C .264 0 .34 .021000002 .384 .116000007 C .416 .185 .421 .263 .421 .34200005 M .21000001 .022000002 C .171 .022000002 .112 .047000003 .094 .143 C .083000008 .20300001 .083000008 .29500003 .083000008 .35400004 C .083000008 .41800005 .083000008 .48400004 .091000009 .53800007 C .11 .65700009 .185 .66600009 .21000001 .66600009 C .243 .66600009 .30900003 .64800009 .328 .549 C .338 .49300004 .338 .41700004 .338 .35400004 C .338 .279 .338 .21100001 .32700003 .147 C .312 .052 .255 .022000002 .21000001 .022000002 Z "/>
</symbol>
<use xlink:href="#font_1_2" transform="matrix(27.673888,0,0,-27.673888,473.07966,546.5222)"/>
<use xlink:href="#font_1_1" transform="matrix(27.673888,0,0,-27.673888,485.5329,547.13107)"/>
<symbol id="font_2_1">
<path d="M .63600006 0 C .65200009 0 .67600008 0 .67600008 .023999989 C .67600008 .048999996 .65300008 .048999996 .63600006 .048999996 L .04 .048999996 C .023999997 .048999996 0 .048999996 0 .025000006 C 0 0 .02300001 0 .04 0 L .63600006 0 Z "/>
</symbol>
<use xlink:href="#font_2_1" transform="matrix(19.371666,0,0,-19.371666,500.38105,532.10256)"/>
<symbol id="font_3_1">
<path d="M .442 .18200001 L .40800003 .18200001 C .40500004 .16000001 .39500005 .101 .38200004 .091000009 C .374 .085 .29700003 .085 .28300003 .085 L .099 .085 C .20400003 .178 .23900002 .20600002 .29900003 .25300003 C .37300004 .312 .442 .374 .442 .469 C .442 .59000006 .33600004 .66400006 .20800004 .66400006 C .084 .66400006 0 .577 0 .485 C 0 .43400003 .043000007 .42900003 .053000004 .42900003 C .077 .42900003 .10600001 .446 .10600001 .48200003 C .10600001 .5 .099 .535 .047000007 .535 C .078 .606 .146 .628 .19300002 .628 C .293 .628 .34500004 .55 .34500004 .469 C .34500004 .38200004 .28300003 .31300003 .25100003 .277 L .010000005 .039 C 0 .030000002 0 .028 0 0 L .41200004 0 L .442 .18200001 Z "/>
</symbol>
<use xlink:href="#font_3_1" transform="matrix(19.371666,0,0,-19.371666,516.8066,536.4805)"/>
<use xlink:href="#font_1_2" transform="matrix(27.673888,0,0,-27.673888,159.14911,436.1139)"/>
<use xlink:href="#font_1_2" transform="matrix(27.673888,0,0,-27.673888,123.78797,299.7611)"/>
<symbol id="font_4_1">
<path d="M .106 .053000004 C .106 .082 .08200001 .106000009 .05300001 .106000009 C .024000004 .106000009 0 .082 0 .053000004 C 0 .024 .024000004 0 .05300001 0 C .08200001 0 .106 .024 .106 .053000004 Z "/>
</symbol>
<use xlink:href="#font_4_1" transform="matrix(27.673888,0,0,-27.673888,137.54108,299.7611)"/>
<use xlink:href="#font_1_1" transform="matrix(27.673888,0,0,-27.673888,143.9265,300.36994)"/>
<use xlink:href="#font_1_3" transform="matrix(27.673888,0,0,-27.673888,158.06786,299.7611)"/>
<use xlink:href="#font_1_2" transform="matrix(27.673888,0,0,-27.673888,123.78797,163.41114)"/>
<use xlink:href="#font_4_1" transform="matrix(27.673888,0,0,-27.673888,137.54108,163.41114)"/>
<use xlink:href="#font_1_1" transform="matrix(27.673888,0,0,-27.673888,143.9265,164.01996)"/>
<use xlink:href="#font_1_4" transform="matrix(27.673888,0,0,-27.673888,157.45903,163.41114)"/>
<use xlink:href="#font_1_2" transform="matrix(27.673888,0,0,-27.673888,123.78797,27.05835)"/>
<use xlink:href="#font_4_1" transform="matrix(27.673888,0,0,-27.673888,137.54108,27.05835)"/>
<symbol id="font_1_5">
<path d="M .089999999 .35000003 L .089999999 .37400005 C .089999999 .62700006 .21400002 .66300007 .26500003 .66300007 C .28900004 .66300007 .33100004 .65700009 .35300002 .623 C .33800004 .623 .298 .623 .298 .57800009 C .298 .54700008 .32200004 .53200009 .344 .53200009 C .36 .53200009 .39000003 .54100009 .39000003 .58000007 C .39000003 .64000007 .34600003 .688 .263 .688 C .13499999 .688 0 .559 0 .33800004 C 0 .071 .116000007 0 .20900002 0 C .32000003 0 .41500003 .094000007 .41500003 .22600001 C .41500003 .35300005 .32600004 .44900004 .215 .44900004 C .14700002 .44900004 .11000001 .39800004 .089999999 .35000003 M .20900002 .028 C .146 .028 .116000007 .088 .11000001 .103 C .092 .15 .092 .23 .092 .24800001 C .092 .32600004 .124000009 .42600004 .21400002 .42600004 C .23000002 .42600004 .27600003 .42600004 .307 .36400003 C .32500003 .32700003 .32500003 .27600003 .32500003 .22700002 C .32500003 .179 .32500003 .12900001 .30800004 .093 C .27800004 .033000005 .23200003 .028 .20900002 .028 Z "/>
</symbol>
<use xlink:href="#font_1_1" transform="matrix(27.673888,0,0,-27.673888,143.9265,27.667176)"/>
<use xlink:href="#font_1_5" transform="matrix(27.673888,0,0,-27.673888,157.84647,27.667176)"/>
<clipPath id="cp5">
<path transform="matrix(2.7777777,0,0,-2.7777777,186.20557,427.19447)" d="M -63.51443 -13.4507 L 130.76389 -13.4507 L 130.76389 147.9496 L -63.51443 147.9496 Z "/>
</clipPath>
<g clip-path="url(#cp5)">
<path transform="matrix(2.7777777,0,0,-2.7777777,186.20557,427.19447)" stroke-width=".79701" stroke-linecap="butt" stroke-miterlimit="10" stroke-linejoin="miter" fill="none" stroke="#000000" d="M 0 0 L .66266 1.32509 L 1.34988 2.69952 L 2.01256 4.02489 L 2.69978 5.39932 L 3.36246 6.72469 L 4.04968 8.09912 L 4.76143 9.52264 L 5.42412 10.848 L 6.11134 12.22244 L 6.77402 13.54779 L 7.46123 14.92224 L 8.12392 16.24759 L 8.81114 17.62204 L 9.5229 19.04556 L 10.18558 20.37091 L 10.8728 21.74536 L 11.53548 23.07071 L 12.19815 24.39607 L 12.88538 25.77051 L 13.59712 27.19403 L 14.25981 28.5194 L 14.94704 29.89383 L 15.60971 31.2192 L 16.29692 32.59363 L 16.95961 33.91898 L 17.64684 35.29343 L 18.3586 36.71695 L 19.02127 38.0423 L 19.7085 39.41675 L 20.37117 40.7421 L 21.0584 42.11655 L 21.72107 43.4419 L 22.38373 44.76724 L 23.0955 46.19078 L 23.78273 47.56522 L 24.44542 48.89058 L 25.13261 50.26501 L 25.7953 51.59036 L 26.48253 52.96481 L 27.19429 54.38834 L 27.85696 55.7137 L 28.54419 57.08813 L 29.20686 58.41348 L 29.89409 59.78793 L 30.55676 61.11328 L 31.24397 62.48773 L 31.95573 63.91125 L 32.61842 65.2366 L 33.30565 66.61105 L 33.9683 67.9364 L 34.631 69.26175 L 35.31822 70.6362 L 35.9809 71.96155 L 36.69266 73.38509 L 37.37988 74.75952 L 38.04256 76.08487 L 38.72978 77.45932 L 39.39246 78.78467 L 40.07968 80.15912 L 40.79143 81.58264 L 41.45412 82.90799 L 42.14134 84.28244 L 42.804 85.60779 L 43.49123 86.98224 L 44.15392 88.30759 L 44.81659 89.63318 L 45.5038 91.00764 L 46.16649 92.33298 L 46.8537 93.70743 L 47.56548 95.1307 L 48.22815 96.45631 L 48.91537 97.83076 L 49.5535 99.10703 L 50.26527 100.53055 L 50.92795 101.85591 L 51.61516 103.23035 L 52.27785 104.55571 L 52.98961 105.97923 L 53.67682 107.35365 L 54.31496 108.62994 L 55.02672 110.05345 L 55.6894 111.37883 L 56.35208 112.70416 L 57.03929 114.07861 L 57.75107 115.50215 L 58.41374 116.8275 L 59.05188 118.10374 L 59.76364 119.5273 L 60.45085 120.90173 L 61.11354 122.2271 L 61.80077 123.60153 L 62.51251 125.02504 L 63.15065 126.30133 L 63.81334 127.62668 L 64.5251 129.05022 L 65.21231 130.42464 L 65.87498 131.75 L 66.53767 133.07535 L 66.93314 133.86626 "/>
<path transform="matrix(1.2421389,-2.4843333,-2.4843333,-1.2421389,372.13093,55.343797)" stroke-width=".6376" stroke-linecap="round" stroke-linejoin="round" fill="none" stroke="#000000" d="M -1.55415 2.0722 C -1.42464 1.29512 0 .1295 .38852 0 C 0 -.1295 -1.42464 -1.29512 -1.55415 -2.0722 "/>
</g>
<symbol id="font_4_2">
<path d="M .305 .31300003 C .311 .33900003 .334 .43100003 .404 .43100003 C .409 .43100003 .433 .43100003 .454 .418 C .426 .41300003 .40600003 .388 .40600003 .36400003 C .40600003 .34800003 .417 .32900004 .444 .32900004 C .46600003 .32900004 .498 .34700004 .498 .38700003 C .498 .43900005 .439 .45300005 .405 .45300005 C .347 .45300005 .312 .40000005 .3 .37700004 C .275 .44300003 .221 .45300005 .19200002 .45300005 C .08800001 .45300005 .031000002 .32400004 .031000002 .29900003 C .031000002 .28900004 .041 .28900004 .043000007 .28900004 C .051000008 .28900004 .054000006 .291 .056 .3 C .09 .40600003 .156 .43100003 .19000001 .43100003 C .209 .43100003 .244 .42200003 .244 .36400003 C .244 .33300004 .22700002 .26600004 .19000001 .126 C .17400001 .064 .13900002 .022000002 .095000009 .022000002 C .08900001 .022000002 .06600001 .022000002 .045 .035 C .07000001 .040000004 .09200001 .061 .09200001 .089 C .09200001 .116000007 .07000001 .124000009 .055000009 .124000009 C .025 .124000009 0 .098000008 0 .06600001 C 0 .020000002 .050000006 0 .094000007 0 C .16000001 0 .19600001 .07000001 .19900002 .076000008 C .21100001 .039 .24700003 0 .307 0 C .41 0 .467 .12900001 .467 .15400002 C .467 .16400002 .458 .16400002 .455 .16400002 C .446 .16400002 .444 .16000001 .442 .15300001 C .409 .046 .341 .022000002 .30900003 .022000002 C .27 .022000002 .254 .054 .254 .08800001 C .254 .11000001 .26 .13200002 .271 .17600002 L .305 .31300003 Z "/>
</symbol>
<use xlink:href="#font_4_2" transform="matrix(27.673888,0,0,-27.673888,524.6414,455.08497)"/>
<symbol id="font_4_3">
<path d="M .45700003 .586 C .461 .6 .461 .602 .461 .609 C .461 .62700006 .447 .63600006 .432 .63600006 C .42200003 .63600006 .40600003 .63 .397 .615 C .395 .61 .387 .579 .38300003 .561 C .37600003 .535 .36900003 .508 .363 .48100005 L .318 .301 C .314 .286 .271 .21600002 .20500002 .21600002 C .15400002 .21600002 .143 .26000003 .143 .29700003 C .143 .34300003 .16000001 .40500004 .194 .49300004 C .21000001 .53400006 .21400002 .545 .21400002 .56500008 C .21400002 .61 .18200001 .6470001 .13200002 .6470001 C .037 .6470001 0 .50200006 0 .49300004 C 0 .48300005 .01 .48300005 .012 .48300005 C .022000002 .48300005 .023 .485 .028000003 .50100007 C .055000009 .595 .095000009 .625 .12900001 .625 C .13700001 .625 .15400002 .625 .15400002 .59300008 C .15400002 .568 .14400001 .54200008 .13700001 .523 C .097 .41700004 .079 .36 .079 .31300003 C .079 .224 .142 .194 .201 .194 C .24000003 .194 .274 .21100001 .30200003 .23900002 C .289 .187 .277 .13800001 .237 .08500001 C .21100001 .051 .17300001 .022 .127 .022 C .113000009 .022 .068 .025000006 .051000008 .06400001 C .067 .06400001 .080000009 .06400001 .094000007 .076000008 C .104 .08500001 .11400001 .098000008 .11400001 .117000009 C .11400001 .148 .087000008 .15200001 .07700001 .15200001 C .054000006 .15200001 .021 .136 .021 .087000008 C .021 .037 .065000008 0 .127 0 C .23 0 .333 .091000009 .361 .20400001 L .45700003 .586 Z "/>
</symbol>
<use xlink:href="#font_4_3" transform="matrix(27.673888,0,0,-27.673888,196.78586,43.59539)"/>
</g>
</svg>
