<?xml version="1.0" encoding="UTF-8" standalone="no"?>
<!DOCTYPE svg PUBLIC "-//W3C//DTD SVG 1.1//EN" "http://www.w3.org/Graphics/SVG/1.1/DTD/svg11.dtd">
<svg xmlns="http://www.w3.org/2000/svg" xmlns:xlink="http://www.w3.org/1999/xlink" version="1.1" width="575.0222pt" height="462.83055pt" viewBox="0 0 575.0222 462.83055">
<g enable-background="new">
<path transform="matrix(2.7777777,0,0,-2.7777777,79.79445,438.0778)" stroke-width=".19925" stroke-linecap="butt" stroke-miterlimit="10" stroke-linejoin="miter" fill="none" stroke="#929292" d="M 25.90416 4.34993 L 25.90416 8.60213 M 58.28438 4.34993 L 58.28438 8.60213 M 90.6646 4.34993 L 90.6646 8.60213 M 123.0448 4.34993 L 123.0448 8.60213 M 155.42502 4.34993 L 155.42502 8.60213 "/>
<path transform="matrix(2.7777777,0,0,-2.7777777,79.79445,438.0778)" stroke-width=".19925" stroke-linecap="butt" stroke-miterlimit="10" stroke-linejoin="miter" fill="none" stroke="#929292" d="M -8.60213 38.85625 L -4.34993 38.85625 M -8.60213 71.23647 L -4.34993 71.23647 M -8.60213 103.61668 L -4.34993 103.61668 M -8.60213 135.99689 L -4.34993 135.99689 "/>
<path transform="matrix(2.7777777,0,0,-2.7777777,79.79445,438.0778)" stroke-width=".3985" stroke-linecap="butt" stroke-miterlimit="10" stroke-linejoin="miter" fill="none" stroke="#000000" d="M -16.1904 6.47603 L 176.09223 6.47603 "/>
<path transform="matrix(2.7777777,0,0,-2.7777777,568.9395,420.0888)" d="M 1.99252 0 L -1.19551 1.59401 L 0 0 L -1.19551 -1.59401 "/>
<path transform="matrix(2.7777777,0,0,-2.7777777,79.79445,438.0778)" stroke-width=".3985" stroke-linecap="butt" stroke-miterlimit="10" stroke-linejoin="miter" fill="none" stroke="#000000" d="M -6.47603 -3.88579 L -6.47603 155.51816 "/>
<path transform="matrix(0,-2.7777777,-2.7777777,-0,61.805475,6.0829164)" d="M 1.99252 0 L -1.19551 1.59401 L 0 0 L -1.19551 -1.59401 "/>
<symbol id="font_0_4">
<path d="M .39900003 .223 C .39900003 .34200005 .317 .44200004 .209 .44200004 C .16100002 .44200004 .118000019 .42600004 .082 .39100004 L .082 .586 C .10200001 .58000007 .135 .573 .16700001 .573 C .29 .573 .36 .66400006 .36 .67700007 C .36 .683 .357 .688 .35 .688 C .349 .688 .347 .688 .342 .68500009 C .322 .67600008 .273 .656 .20600002 .656 C .16600001 .656 .120000008 .66300007 .073 .6840001 C .065 .68700006 .06300001 .68700006 .061000009 .68700006 C .051000004 .68700006 .051000004 .679 .051000004 .66300007 L .051000004 .36700005 C .051000004 .34900005 .051000004 .34100003 .065 .34100003 C .07200001 .34100003 .074 .34400005 .07800001 .35000003 C .08900002 .36600004 .12600002 .42000006 .207 .42000006 C .259 .42000006 .284 .37400005 .292 .35600005 C .308 .31900005 .31 .28000004 .31 .23 C .31 .19500001 .31 .135 .286 .093 C .262 .054000006 .22500001 .028 .17900002 .028 C .106000009 .028 .049000008 .08100001 .032 .14000002 C .035 .13900002 .038000008 .13800001 .049000008 .13800001 C .082 .13800001 .09900001 .163 .09900001 .187 C .09900001 .21100001 .082 .23600002 .049000008 .23600002 C .035 .23600002 0 .22900002 0 .18300002 C 0 .097 .069000009 0 .18100001 0 C .297 0 .39900003 .096 .39900003 .223 Z "/>
</symbol>
<use xlink:href="#font_0_4" transform="matrix(27.673888,0,0,-27.673888,146.21425,454.21437)"/>
<symbol id="font_0_2">
<path d="M .205 .64000007 C .205 .66400006 .205 .666 .18200003 .666 C .120000008 .60200008 .032000007 .60200008 0 .60200008 L 0 .57100006 C .020000004 .57100006 .07900001 .57100006 .13100001 .597 L .13100001 .079 C .13100001 .043 .128 .031000002 .038000004 .031000002 L .0060000049 .031000002 L .0060000049 0 C .04100001 .003 .128 .003 .168 .003 C .20800002 .003 .29500003 .003 .33000005 0 L .33000005 .031000002 L .29800005 .031000002 C .20800002 .031000002 .205 .042000005 .205 .079 L .205 .64000007 Z "/>
</symbol>
<symbol id="font_0_1">
<path d="M .421 .34200005 C .421 .42200003 .416 .50200006 .381 .57600006 C .335 .67200008 .25300003 .688 .211 .688 C .15100001 .688 .07800001 .66200008 .037000006 .56900009 C .0050000029 .5 0 .42200003 0 .34200005 C 0 .26700003 .0040000008 .177 .045000007 .101 C .088 .020000002 .161 0 .21000001 0 C .264 0 .34 .021000002 .384 .116000007 C .416 .185 .421 .263 .421 .34200005 M .21000001 .022000002 C .171 .022000002 .112 .047000003 .094 .143 C .083000008 .20300001 .083000008 .29500003 .083000008 .35400004 C .083000008 .41800005 .083000008 .48400004 .091000009 .53800007 C .11 .65700009 .185 .66600009 .21000001 .66600009 C .243 .66600009 .30900003 .64800009 .328 .549 C .338 .49300004 .338 .41700004 .338 .35400004 C .338 .279 .338 .21100001 .32700003 .147 C .312 .052 .255 .022000002 .21000001 .022000002 Z "/>
</symbol>
<use xlink:href="#font_0_2" transform="matrix(27.673888,0,0,-27.673888,230.31853,453.60554)"/>
<use xlink:href="#font_0_1" transform="matrix(27.673888,0,0,-27.673888,242.77178,454.21437)"/>
<use xlink:href="#font_0_2" transform="matrix(27.673888,0,0,-27.673888,320.263,453.60554)"/>
<use xlink:href="#font_0_4" transform="matrix(27.673888,0,0,-27.673888,333.02067,454.21437)"/>
<symbol id="font_0_3">
<path d="M .07700001 .07700001 L .18300002 .18 C .33900003 .31800003 .39900003 .372 .39900003 .47200004 C .39900003 .586 .30900003 .666 .18700002 .666 C .074 .666 0 .574 0 .485 C 0 .42900003 .05 .42900003 .053000008 .42900003 C .07000001 .42900003 .105000007 .441 .105000007 .48200003 C .105000007 .508 .08700001 .53400006 .052000006 .53400006 C .044000005 .53400006 .042000008 .53400006 .039 .53300008 C .062000004 .59800007 .11600001 .63500007 .17400001 .63500007 C .26500003 .63500007 .308 .554 .308 .47200004 C .308 .39200003 .25800003 .31300003 .20300003 .25100003 L .011000004 .037 C 0 .026 0 .024 0 0 L .37100003 0 L .39900003 .17400001 L .374 .17400001 C .36900003 .14400001 .36200003 .1 .352 .085 C .345 .07700001 .279 .07700001 .257 .07700001 L .07700001 .07700001 Z "/>
</symbol>
<use xlink:href="#font_0_3" transform="matrix(27.673888,0,0,-27.673888,409.1281,453.60554)"/>
<use xlink:href="#font_0_1" transform="matrix(27.673888,0,0,-27.673888,422.6606,454.21437)"/>
<use xlink:href="#font_0_3" transform="matrix(27.673888,0,0,-27.673888,499.07258,453.60554)"/>
<use xlink:href="#font_0_4" transform="matrix(27.673888,0,0,-27.673888,512.9095,454.21437)"/>
<use xlink:href="#font_0_4" transform="matrix(27.673888,0,0,-27.673888,33.669809,339.6727)"/>
<use xlink:href="#font_0_2" transform="matrix(27.673888,0,0,-27.673888,20.910206,249.11945)"/>
<use xlink:href="#font_0_1" transform="matrix(27.673888,0,0,-27.673888,33.363454,249.72827)"/>
<use xlink:href="#font_0_2" transform="matrix(27.673888,0,0,-27.673888,20.910206,159.17505)"/>
<use xlink:href="#font_0_4" transform="matrix(27.673888,0,0,-27.673888,33.667867,159.78388)"/>
<use xlink:href="#font_0_3" transform="matrix(27.673888,0,0,-27.673888,19.830924,69.23056)"/>
<use xlink:href="#font_0_1" transform="matrix(27.673888,0,0,-27.673888,33.363454,69.839389)"/>
<clipPath id="cp1">
<path transform="matrix(2.7777777,0,0,-2.7777777,79.79445,438.0778)" d="M -16.1904 -3.88579 L 178.08475 -3.88579 L 178.08475 157.51068 L -16.1904 157.51068 Z "/>
</clipPath>
<g clip-path="url(#cp1)">
<path transform="matrix(2.7777777,0,0,-2.7777777,79.79445,438.0778)" stroke-width=".79701" stroke-linecap="butt" stroke-miterlimit="10" stroke-linejoin="miter" fill="none" stroke="#000000" d="M 0 6.47603 L .0165 6.80309 L .06606 7.13016 L .14864 7.45723 L .26428 7.78429 L .41293 8.11136 L .59464 8.43843 L .80937 8.76549 L 1.05714 9.09256 L 1.33795 9.41963 L 1.65181 9.74669 L 1.99867 10.07375 L 2.3786 10.40082 L 2.79155 10.72789 L 3.23755 11.05495 L 3.71657 11.38202 L 4.22864 11.70909 L 4.77371 12.03615 L 5.35187 12.36322 L 5.96303 12.69028 L 6.60724 13.01735 L 7.28447 13.3444 L 7.99477 13.67148 L 8.73808 13.99855 L 9.51442 14.3256 L 10.32384 14.65268 L 11.16626 14.97975 L 12.0417 15.30681 L 12.9502 15.63388 L 13.89175 15.96094 L 14.86632 16.28801 L 15.87392 16.61507 L 16.91458 16.94214 L 17.98825 17.26921 L 19.09496 17.59627 L 20.2347 17.92334 L 21.40752 18.25041 L 22.61331 18.57747 L 23.85217 18.90454 L 25.12408 19.2316 L 26.42902 19.55867 L 27.76697 19.88573 L 29.138 20.2128 L 30.54202 20.53987 L 31.9791 20.86693 L 33.44919 21.194 L 34.95238 21.52107 L 36.48856 21.84813 L 38.05777 22.1752 L 39.66006 22.50226 L 41.29535 22.82933 L 42.96365 23.15639 L 44.66505 23.48346 L 46.39946 23.81053 L 48.16689 24.13759 L 49.96739 24.46466 L 51.8009 24.79173 L 53.66742 25.1188 L 55.56699 25.44586 L 57.49965 25.77292 L 59.4653 26.09999 L 61.46397 26.42705 L 63.49576 26.75412 L 65.56053 27.08119 L 67.65831 27.40825 L 69.78918 27.73534 L 71.95306 28.0624 L 74.14996 28.38947 L 76.37985 28.7165 L 78.64285 29.04358 L 80.93886 29.37065 L 83.26796 29.69771 L 85.63008 30.02478 L 88.02519 30.35185 L 90.45331 30.67891 L 92.91455 31.006 L 95.40877 31.33305 L 97.936 31.66013 L 100.49634 31.98717 L 103.08978 32.31424 L 105.71613 32.64131 L 108.37547 32.96837 L 111.06804 33.29544 L 113.79349 33.62251 L 116.55196 33.94957 L 119.34352 34.27664 L 122.1682 34.60371 L 125.02577 34.93079 L 127.91646 35.25783 L 130.84024 35.5849 L 133.79694 35.91197 L 136.78673 36.23903 L 139.80962 36.5661 L 142.86542 36.89317 L 145.95424 37.22023 L 149.07614 37.5473 L 152.23116 37.87437 L 155.41919 38.20145 L 158.64022 38.52849 L 161.19055 38.78485 "/>
<path transform="matrix(2.7637499,-.27775,-.27775,-2.7637499,527.5459,330.34214)" stroke-width=".6376" stroke-linecap="round" stroke-linejoin="round" fill="none" stroke="#000000" d="M -1.55415 2.0722 C -1.42464 1.29512 0 .1295 .38852 0 C 0 -.1295 -1.42464 -1.29512 -1.55415 -2.0722 "/>
</g>
<symbol id="font_2_1">
<path d="M .305 .31300003 C .311 .33900003 .334 .43100003 .404 .43100003 C .409 .43100003 .433 .43100003 .454 .418 C .426 .41300003 .40600003 .388 .40600003 .36400003 C .40600003 .34800003 .417 .32900004 .444 .32900004 C .46600003 .32900004 .498 .34700004 .498 .38700003 C .498 .43900005 .439 .45300005 .405 .45300005 C .347 .45300005 .312 .40000005 .3 .37700004 C .275 .44300003 .221 .45300005 .19200002 .45300005 C .08800001 .45300005 .031000002 .32400004 .031000002 .29900003 C .031000002 .28900004 .041 .28900004 .043000007 .28900004 C .051000008 .28900004 .054000006 .291 .056 .3 C .09 .40600003 .156 .43100003 .19000001 .43100003 C .209 .43100003 .244 .42200003 .244 .36400003 C .244 .33300004 .22700002 .26600004 .19000001 .126 C .17400001 .064 .13900002 .022000002 .095000009 .022000002 C .08900001 .022000002 .06600001 .022000002 .045 .035 C .07000001 .040000004 .09200001 .061 .09200001 .089 C .09200001 .116000007 .07000001 .124000009 .055000009 .124000009 C .025 .124000009 0 .098000008 0 .06600001 C 0 .020000002 .050000006 0 .094000007 0 C .16000001 0 .19600001 .07000001 .19900002 .076000008 C .21100001 .039 .24700003 0 .307 0 C .41 0 .467 .12900001 .467 .15400002 C .467 .16400002 .458 .16400002 .455 .16400002 C .446 .16400002 .444 .16000001 .442 .15300001 C .409 .046 .341 .022000002 .30900003 .022000002 C .27 .022000002 .254 .054 .254 .08800001 C .254 .11000001 .26 .13200002 .271 .17600002 L .305 .31300003 Z "/>
</symbol>
<use xlink:href="#font_2_1" transform="matrix(27.673888,0,0,-27.673888,549.67758,410.6155)"/>
<symbol id="font_2_2">
<path d="M .45700003 .586 C .461 .6 .461 .602 .461 .609 C .461 .62700006 .447 .63600006 .432 .63600006 C .42200003 .63600006 .40600003 .63 .397 .615 C .395 .61 .387 .579 .38300003 .561 C .37600003 .535 .36900003 .508 .363 .48100005 L .318 .301 C .314 .286 .271 .21600002 .20500002 .21600002 C .15400002 .21600002 .143 .26000003 .143 .29700003 C .143 .34300003 .16000001 .40500004 .194 .49300004 C .21000001 .53400006 .21400002 .545 .21400002 .56500008 C .21400002 .61 .18200001 .6470001 .13200002 .6470001 C .037 .6470001 0 .50200006 0 .49300004 C 0 .48300005 .01 .48300005 .012 .48300005 C .022000002 .48300005 .023 .485 .028000003 .50100007 C .055000009 .595 .095000009 .625 .12900001 .625 C .13700001 .625 .15400002 .625 .15400002 .59300008 C .15400002 .568 .14400001 .54200008 .13700001 .523 C .097 .41700004 .079 .36 .079 .31300003 C .079 .224 .142 .194 .201 .194 C .24000003 .194 .274 .21100001 .30200003 .23900002 C .289 .187 .277 .13800001 .237 .08500001 C .21100001 .051 .17300001 .022 .127 .022 C .113000009 .022 .068 .025000006 .051000008 .06400001 C .067 .06400001 .080000009 .06400001 .094000007 .076000008 C .104 .08500001 .11400001 .098000008 .11400001 .117000009 C .11400001 .148 .087000008 .15200001 .07700001 .15200001 C .054000006 .15200001 .021 .136 .021 .087000008 C .021 .037 .065000008 0 .127 0 C .23 0 .333 .091000009 .361 .20400001 L .45700003 .586 Z "/>
</symbol>
<use xlink:href="#font_2_2" transform="matrix(27.673888,0,0,-27.673888,72.38588,27.92037)"/>
</g>
</svg>
