<?xml version="1.0" encoding="UTF-8" standalone="no"?>
<!DOCTYPE svg PUBLIC "-//W3C//DTD SVG 1.1//EN" "http://www.w3.org/Graphics/SVG/1.1/DTD/svg11.dtd">
<svg xmlns="http://www.w3.org/2000/svg" xmlns:xlink="http://www.w3.org/1999/xlink" version="1.1" width="549.96389pt" height="449.41389pt" viewBox="0 0 549.96389 449.41389">
<g enable-background="new">
<path transform="matrix(2.7777777,0,0,-2.7777777,54.749998,307.9861)" stroke-width=".19925" stroke-linecap="butt" stroke-miterlimit="10" stroke-linejoin="miter" fill="none" stroke="#929292" d="M 8.9944 27.85535 L 8.9944 32.1073 M 38.97574 27.85535 L 38.97574 32.1073 M 68.95708 27.85535 L 68.95708 32.1073 M 128.91977 27.85535 L 128.91977 32.1073 M 158.90111 27.85535 L 158.90111 32.1073 "/>
<path transform="matrix(2.7777777,0,0,-2.7777777,54.749998,307.9861)" stroke-width=".19925" stroke-linecap="butt" stroke-miterlimit="10" stroke-linejoin="miter" fill="none" stroke="#929292" d="M 96.81244 -29.98134 L 101.06439 -29.98134 M 96.81244 0 L 101.06439 0 M 96.81244 59.96268 L 101.06439 59.96268 M 96.81244 89.94402 L 101.06439 89.94402 "/>
<path transform="matrix(2.7777777,0,0,-2.7777777,54.749998,307.9861)" stroke-width=".3985" stroke-linecap="butt" stroke-miterlimit="10" stroke-linejoin="miter" fill="none" stroke="#000000" d="M -16.18996 29.98134 L 176.08744 29.98134 "/>
<path transform="matrix(2.7777777,0,0,-2.7777777,543.8817,224.7046)" d="M 1.99252 0 L -1.19551 1.59401 L 0 0 L -1.19551 -1.59401 "/>
<path transform="matrix(2.7777777,0,0,-2.7777777,54.749998,307.9861)" stroke-width=".3985" stroke-linecap="butt" stroke-miterlimit="10" stroke-linejoin="miter" fill="none" stroke="#000000" d="M 98.93842 -50.7149 L 98.93842 108.68506 "/>
<path transform="matrix(0,-2.7777777,-2.7777777,-0,329.57896,6.0831706)" d="M 1.99252 0 L -1.19551 1.59401 L 0 0 L -1.19551 -1.59401 "/>
<symbol id="font_0_1">
<path d="M .57600006 0 C .59300008 0 .611 0 .611 .019999996 C .611 .040000008 .59300008 .040000008 .57600006 .040000008 L .035000005 .040000008 C .018 .040000008 0 .040000008 0 .019999996 C 0 0 .018 0 .035000005 0 L .57600006 0 Z "/>
</symbol>
<use xlink:href="#font_0_1" transform="matrix(27.673888,0,0,-27.673888,57.430265,251.85999)"/>
<symbol id="font_1_4">
<path d="M .24800003 .37400005 C .33 .40100003 .388 .47100006 .388 .55 C .388 .632 .3 .688 .204 .688 C .10300001 .688 .027000003 .628 .027000003 .55200007 C .027000003 .519 .049000004 .5 .078 .5 C .109000008 .5 .12900001 .522 .12900001 .55100008 C .12900001 .6010001 .082 .6010001 .067 .6010001 C .098 .65000006 .164 .66300007 .20000002 .66300007 C .24100003 .66300007 .29600004 .64100006 .29600004 .55100008 C .29600004 .53900006 .29400004 .48100005 .268 .43700005 C .238 .38900004 .204 .38600005 .17900002 .38500003 C .171 .38400004 .14700002 .38200004 .14000002 .38200004 C .132 .38100005 .125 .38000003 .125 .37000004 C .125 .35900004 .132 .35900004 .14900002 .35900004 L .19300002 .35900004 C .275 .35900004 .312 .29100005 .312 .193 C .312 .057000005 .24300003 .028 .199 .028 C .15600002 .028 .081 .045 .046000005 .104 C .081 .09900001 .11200001 .12100001 .11200001 .15900001 C .11200001 .19500001 .085 .215 .056 .215 C .031999999 .215 0 .201 0 .157 C 0 .06600001 .093 0 .20200002 0 C .32400004 0 .41500003 .091000009 .41500003 .193 C .41500003 .27500005 .35200004 .35300005 .24800003 .37400005 Z "/>
</symbol>
<symbol id="font_1_1">
<path d="M .421 .34200005 C .421 .42200003 .416 .50200006 .381 .57600006 C .335 .67200008 .25300003 .688 .211 .688 C .15100001 .688 .07800001 .66200008 .037000006 .56900009 C .0050000029 .5 0 .42200003 0 .34200005 C 0 .26700003 .0040000008 .177 .045000007 .101 C .088 .020000002 .161 0 .21000001 0 C .264 0 .34 .021000002 .384 .116000007 C .416 .185 .421 .263 .421 .34200005 M .21000001 .022000002 C .171 .022000002 .112 .047000003 .094 .143 C .083000008 .20300001 .083000008 .29500003 .083000008 .35400004 C .083000008 .41800005 .083000008 .48400004 .091000009 .53800007 C .11 .65700009 .185 .66600009 .21000001 .66600009 C .243 .66600009 .30900003 .64800009 .328 .549 C .338 .49300004 .338 .41700004 .338 .35400004 C .338 .279 .338 .21100001 .32700003 .147 C .312 .052 .255 .022000002 .21000001 .022000002 Z "/>
</symbol>
<use xlink:href="#font_1_4" transform="matrix(27.673888,0,0,-27.673888,77.82063,258.8338)"/>
<use xlink:href="#font_1_1" transform="matrix(27.673888,0,0,-27.673888,91.57456,258.8338)"/>
<use xlink:href="#font_0_1" transform="matrix(27.673888,0,0,-27.673888,140.71082,251.85999)"/>
<symbol id="font_1_3">
<path d="M .07700001 .07700001 L .18300002 .18 C .33900003 .31800003 .39900003 .372 .39900003 .47200004 C .39900003 .586 .30900003 .666 .18700002 .666 C .074 .666 0 .574 0 .485 C 0 .42900003 .05 .42900003 .053000008 .42900003 C .07000001 .42900003 .105000007 .441 .105000007 .48200003 C .105000007 .508 .08700001 .53400006 .052000006 .53400006 C .044000005 .53400006 .042000008 .53400006 .039 .53300008 C .062000004 .59800007 .11600001 .63500007 .17400001 .63500007 C .26500003 .63500007 .308 .554 .308 .47200004 C .308 .39200003 .25800003 .31300003 .20300003 .25100003 L .011000004 .037 C 0 .026 0 .024 0 0 L .37100003 0 L .39900003 .17400001 L .374 .17400001 C .36900003 .14400001 .36200003 .1 .352 .085 C .345 .07700001 .279 .07700001 .257 .07700001 L .07700001 .07700001 Z "/>
</symbol>
<use xlink:href="#font_1_3" transform="matrix(27.673888,0,0,-27.673888,161.32257,258.22499)"/>
<use xlink:href="#font_1_1" transform="matrix(27.673888,0,0,-27.673888,174.8551,258.8338)"/>
<use xlink:href="#font_0_1" transform="matrix(27.673888,0,0,-27.673888,223.99137,251.85999)"/>
<symbol id="font_1_2">
<path d="M .205 .64000007 C .205 .66400006 .205 .666 .18200003 .666 C .120000008 .60200008 .032000007 .60200008 0 .60200008 L 0 .57100006 C .020000004 .57100006 .07900001 .57100006 .13100001 .597 L .13100001 .079 C .13100001 .043 .128 .031000002 .038000004 .031000002 L .0060000049 .031000002 L .0060000049 0 C .04100001 .003 .128 .003 .168 .003 C .20800002 .003 .29500003 .003 .33000005 0 L .33000005 .031000002 L .29800005 .031000002 C .20800002 .031000002 .205 .042000005 .205 .079 L .205 .64000007 Z "/>
</symbol>
<use xlink:href="#font_1_2" transform="matrix(27.673888,0,0,-27.673888,245.68242,258.22499)"/>
<use xlink:href="#font_1_1" transform="matrix(27.673888,0,0,-27.673888,258.13566,258.8338)"/>
<use xlink:href="#font_1_2" transform="matrix(27.673888,0,0,-27.673888,401.48243,258.22499)"/>
<use xlink:href="#font_1_1" transform="matrix(27.673888,0,0,-27.673888,413.93565,258.8338)"/>
<use xlink:href="#font_1_3" transform="matrix(27.673888,0,0,-27.673888,483.68367,258.22499)"/>
<use xlink:href="#font_1_1" transform="matrix(27.673888,0,0,-27.673888,497.2162,258.8338)"/>
<use xlink:href="#font_0_1" transform="matrix(27.673888,0,0,-27.673888,266.99137,392.66835)"/>
<use xlink:href="#font_1_3" transform="matrix(27.673888,0,0,-27.673888,287.60316,399.03334)"/>
<use xlink:href="#font_1_1" transform="matrix(27.673888,0,0,-27.673888,301.13569,399.64216)"/>
<use xlink:href="#font_0_1" transform="matrix(27.673888,0,0,-27.673888,266.99137,309.3878)"/>
<use xlink:href="#font_1_2" transform="matrix(27.673888,0,0,-27.673888,288.68244,315.75279)"/>
<use xlink:href="#font_1_1" transform="matrix(27.673888,0,0,-27.673888,301.13569,316.3616)"/>
<use xlink:href="#font_1_2" transform="matrix(27.673888,0,0,-27.673888,288.68244,150.34445)"/>
<use xlink:href="#font_1_1" transform="matrix(27.673888,0,0,-27.673888,301.13569,150.95328)"/>
<use xlink:href="#font_1_3" transform="matrix(27.673888,0,0,-27.673888,287.60316,67.0639)"/>
<use xlink:href="#font_1_1" transform="matrix(27.673888,0,0,-27.673888,301.13569,67.67273)"/>
<clipPath id="cp2">
<path transform="matrix(2.7777777,0,0,-2.7777777,54.749998,307.9861)" d="M -16.18996 -50.7149 L 178.07996 -50.7149 L 178.07996 110.67758 L -16.18996 110.67758 Z "/>
</clipPath>
<g clip-path="url(#cp2)">
<path transform="matrix(2.7777777,0,0,-2.7777777,54.749998,307.9861)" stroke-width=".79701" stroke-linecap="butt" stroke-miterlimit="10" stroke-linejoin="miter" fill="none" stroke="#000000" d="M 0 20.98694 L 4.80748 21.16862 L 9.42078 21.35033 L 13.84386 21.53203 L 18.08072 21.71373 L 22.13542 21.89543 L 26.01189 22.07713 L 29.71419 22.25883 L 33.24629 22.44054 L 36.61224 22.62224 L 39.81598 22.80394 L 42.86156 22.98564 L 45.75296 23.16734 L 48.49422 23.34904 L 51.08928 23.53075 L 53.5422 23.71245 L 55.85698 23.89415 L 58.03766 24.07585 L 60.0881 24.25755 L 62.0125 24.43925 L 63.81471 24.62097 L 65.49878 24.80266 L 67.06874 24.98438 L 68.52856 25.16606 L 69.88228 25.34778 L 71.13388 25.52946 L 72.28737 25.71118 L 73.34676 25.89287 L 74.31606 26.07458 L 75.19923 26.25627 L 76.00034 26.43799 L 76.72336 26.61967 L 77.37228 26.80138 L 77.95113 26.98308 L 78.46391 27.16478 L 78.91461 27.34648 L 79.30725 27.52818 L 79.64583 27.70988 L 79.93436 27.89159 L 80.17682 28.07329 L 80.37724 28.25499 L 80.53961 28.43669 L 80.66795 28.6184 L 80.76625 28.8001 L 80.83852 28.9818 L 80.88875 29.1635 L 80.92097 29.3452 L 80.93918 29.5269 L 80.94736 29.7086 L 80.94952 29.8903 L 80.94969 30.072 L 80.95184 30.25371 L 80.96002 30.43542 L 80.9782 30.61711 L 81.01038 30.79883 L 81.0606 30.98051 L 81.13281 31.16223 L 81.23105 31.34392 L 81.35933 31.52562 L 81.52164 31.70732 L 81.72198 31.88902 L 81.96436 32.07072 L 82.25279 32.25241 L 82.59128 32.43413 L 82.98381 32.61581 L 83.43439 32.79753 L 83.94705 32.97922 L 84.52577 33.16093 L 85.17456 33.34262 L 85.89743 33.52434 L 86.69838 33.70602 L 87.58142 33.88774 L 88.55054 34.06943 L 89.60976 34.25114 L 90.76308 34.43283 L 92.01448 34.61455 L 93.36801 34.79623 L 94.82762 34.97795 L 96.39737 35.15964 L 98.08122 35.34135 L 99.8832 35.52304 L 101.80731 35.70476 L 103.85756 35.88644 L 106.03793 36.06816 L 108.35245 36.24985 L 110.80518 36.43156 L 113.39998 36.61327 L 116.14093 36.79497 L 119.03206 36.97667 L 122.07733 37.15837 L 125.28079 37.34007 L 128.6464 37.52177 L 132.17819 37.70346 L 135.88016 37.88518 L 139.75632 38.06686 L 143.81067 38.24858 L 148.04718 38.43027 L 152.46993 38.61198 L 157.08283 38.79367 L 161.18314 38.94868 "/>
<path transform="matrix(2.7756944,-.10491666,-.10491666,-2.7756944,502.4809,199.79535)" stroke-width=".6376" stroke-linecap="round" stroke-linejoin="round" fill="none" stroke="#000000" d="M -1.55415 2.0722 C -1.42464 1.29512 0 .1295 .38852 0 C 0 -.1295 -1.42464 -1.29512 -1.55415 -2.0722 "/>
</g>
<symbol id="font_3_1">
<path d="M .305 .31300003 C .311 .33900003 .334 .43100003 .404 .43100003 C .409 .43100003 .433 .43100003 .454 .418 C .426 .41300003 .40600003 .388 .40600003 .36400003 C .40600003 .34800003 .417 .32900004 .444 .32900004 C .46600003 .32900004 .498 .34700004 .498 .38700003 C .498 .43900005 .439 .45300005 .405 .45300005 C .347 .45300005 .312 .40000005 .3 .37700004 C .275 .44300003 .221 .45300005 .19200002 .45300005 C .08800001 .45300005 .031000002 .32400004 .031000002 .29900003 C .031000002 .28900004 .041 .28900004 .043000007 .28900004 C .051000008 .28900004 .054000006 .291 .056 .3 C .09 .40600003 .156 .43100003 .19000001 .43100003 C .209 .43100003 .244 .42200003 .244 .36400003 C .244 .33300004 .22700002 .26600004 .19000001 .126 C .17400001 .064 .13900002 .022000002 .095000009 .022000002 C .08900001 .022000002 .06600001 .022000002 .045 .035 C .07000001 .040000004 .09200001 .061 .09200001 .089 C .09200001 .116000007 .07000001 .124000009 .055000009 .124000009 C .025 .124000009 0 .098000008 0 .06600001 C 0 .020000002 .050000006 0 .094000007 0 C .16000001 0 .19600001 .07000001 .19900002 .076000008 C .21100001 .039 .24700003 0 .307 0 C .41 0 .467 .12900001 .467 .15400002 C .467 .16400002 .458 .16400002 .455 .16400002 C .446 .16400002 .444 .16000001 .442 .15300001 C .409 .046 .341 .022000002 .30900003 .022000002 C .27 .022000002 .254 .054 .254 .08800001 C .254 .11000001 .26 .13200002 .271 .17600002 L .305 .31300003 Z "/>
</symbol>
<use xlink:href="#font_3_1" transform="matrix(27.673888,0,0,-27.673888,524.6192,215.23497)"/>
<symbol id="font_3_2">
<path d="M .45700003 .586 C .461 .6 .461 .602 .461 .609 C .461 .62700006 .447 .63600006 .432 .63600006 C .42200003 .63600006 .40600003 .63 .397 .615 C .395 .61 .387 .579 .38300003 .561 C .37600003 .535 .36900003 .508 .363 .48100005 L .318 .301 C .314 .286 .271 .21600002 .20500002 .21600002 C .15400002 .21600002 .143 .26000003 .143 .29700003 C .143 .34300003 .16000001 .40500004 .194 .49300004 C .21000001 .53400006 .21400002 .545 .21400002 .56500008 C .21400002 .61 .18200001 .6470001 .13200002 .6470001 C .037 .6470001 0 .50200006 0 .49300004 C 0 .48300005 .01 .48300005 .012 .48300005 C .022000002 .48300005 .023 .485 .028000003 .50100007 C .055000009 .595 .095000009 .625 .12900001 .625 C .13700001 .625 .15400002 .625 .15400002 .59300008 C .15400002 .568 .14400001 .54200008 .13700001 .523 C .097 .41700004 .079 .36 .079 .31300003 C .079 .224 .142 .194 .201 .194 C .24000003 .194 .274 .21100001 .30200003 .23900002 C .289 .187 .277 .13800001 .237 .08500001 C .21100001 .051 .17300001 .022 .127 .022 C .113000009 .022 .068 .025000006 .051000008 .06400001 C .067 .06400001 .080000009 .06400001 .094000007 .076000008 C .104 .08500001 .11400001 .098000008 .11400001 .117000009 C .11400001 .148 .087000008 .15200001 .07700001 .15200001 C .054000006 .15200001 .021 .136 .021 .087000008 C .021 .037 .065000008 0 .127 0 C .23 0 .333 .091000009 .361 .20400001 L .45700003 .586 Z "/>
</symbol>
<use xlink:href="#font_3_2" transform="matrix(27.673888,0,0,-27.673888,340.1553,27.92037)"/>
</g>
</svg>
