<?xml version="1.0" encoding="UTF-8" standalone="no"?>
<!DOCTYPE svg PUBLIC "-//W3C//DTD SVG 1.1//EN" "http://www.w3.org/Graphics/SVG/1.1/DTD/svg11.dtd">
<svg xmlns="http://www.w3.org/2000/svg" xmlns:xlink="http://www.w3.org/1999/xlink" version="1.1" width="584.86666pt" height="485.78889pt" viewBox="0 0 584.86666 485.78889">
<g enable-background="new">
<path transform="matrix(2.7777777,0,0,-2.7777777,55.302778,447.31944)" stroke-width=".79701" stroke-linecap="butt" stroke-miterlimit="10" stroke-linejoin="miter" fill="none" stroke="#000000" d="M -16.19025 2.63718 L 175.49292 2.63718 "/>
<path transform="matrix(2.7777777,0,0,-2.7777777,542.78298,439.99397)" d="M 2.59026 0 L -1.55415 2.0722 L 0 0 L -1.55415 -2.0722 "/>
<path transform="matrix(2.7777777,0,0,-2.7777777,55.302778,447.31944)" stroke-width=".79701" stroke-linecap="butt" stroke-miterlimit="10" stroke-linejoin="miter" fill="none" stroke="#000000" d="M 20.23686 -13.45041 L 20.23686 145.3563 "/>
<path transform="matrix(0,-2.7777222,-2.7777222,-0,111.51627,43.55197)" d="M 2.59026 0 L -1.55415 2.0722 L 0 0 L -1.55415 -2.0722 "/>
<clipPath id="cp0">
<path transform="matrix(2.7777777,0,0,-2.7777777,55.302778,447.31944)" d="M -16.19025 -13.45041 L 178.08315 -13.45041 L 178.08315 147.94652 L -16.19025 147.94652 Z "/>
</clipPath>
<g clip-path="url(#cp0)">
<path transform="matrix(2.7777777,0,0,-2.7777777,55.302778,447.31944)" stroke-width=".79701" stroke-linecap="butt" stroke-miterlimit="10" stroke-linejoin="miter" fill="none" stroke="#929292" d="M 80.9475 129.22174 L 81.0285 129.26387 L 81.10953 129.30587 L 81.19055 129.34769 L 81.27158 129.38933 L 81.3526 129.43079 L 81.43362 129.47209 L 81.51466 129.51325 L 81.59569 129.55422 L 81.67671 129.59502 L 81.75774 129.63564 L 81.83876 129.67609 L 81.91978 129.71639 L 82.00082 129.75653 L 82.08185 129.79648 L 82.16287 129.83626 L 82.2439 129.87587 L 82.32492 129.91532 L 82.40594 129.95458 L 82.48697 129.9937 L 82.56801 130.03263 L 82.64903 130.0714 L 82.73006 130.11 L 82.81108 130.14844 L 82.8921 130.1867 L 82.97313 130.2248 L 83.05417 130.26273 L 83.1352 130.30046 L 83.21622 130.33805 L 83.29724 130.37548 L 83.37827 130.41272 L 83.45929 130.4498 L 83.54031 130.4867 L 83.62135 130.52346 L 83.70238 130.56002 L 83.7834 130.5964 L 83.86443 130.63265 L 83.94545 130.66872 L 84.02647 130.7046 L 84.10751 130.74034 L 84.18854 130.77588 L 84.26956 130.81127 L 84.35059 130.84651 L 84.43161 130.88155 L 84.51263 130.91643 L 84.59367 130.95113 L 84.6747 130.98569 L 84.75572 131.02005 L 84.83675 131.05425 L 84.91777 131.08827 L 84.9988 131.12215 L 85.07982 131.15586 L 85.16086 131.18938 L 85.24188 131.22272 L 85.3229 131.25592 L 85.40393 131.28894 L 85.48495 131.3218 L 85.56598 131.35448 L 85.64702 131.38698 L 85.72804 131.41931 L 85.80907 131.45149 L 85.89009 131.4835 L 85.97112 131.51534 L 86.05214 131.547 L 86.13316 131.5785 L 86.2142 131.60985 L 86.29523 131.641 L 86.37625 131.67198 L 86.45728 131.70282 L 86.5383 131.73345 L 86.61932 131.76395 L 86.70036 131.79427 L 86.78139 131.8244 L 86.86241 131.85439 L 86.94344 131.88419 L 87.02446 131.9138 L 87.10548 131.94329 L 87.18651 131.97258 L 87.26755 132.00173 L 87.34857 132.03067 L 87.4296 132.05947 L 87.51062 132.0881 L 87.59164 132.11655 L 87.67267 132.14484 L 87.75371 132.17295 L 87.83473 132.20088 L 87.91576 132.22867 L 87.99678 132.25627 L 88.0778 132.28372 L 88.15883 132.31099 L 88.23987 132.33808 L 88.32089 132.36504 L 88.40192 132.39179 L 88.48294 132.4184 L 88.56396 132.4448 L 88.64499 132.47107 L 88.72601 132.49713 L 88.80705 132.52307 L 88.88808 132.54882 L 88.9691 132.57439 L 89.05013 132.59978 L 89.13115 132.62503 L 89.21216 132.6501 L 89.29321 132.67502 L 89.37422 132.69976 L 89.45525 132.72432 L 89.53629 132.7487 L 89.6173 132.77292 L 89.69833 132.79698 L 89.77934 132.82086 L 89.86038 132.84459 L 89.94142 132.86815 L 90.02243 132.89151 L 90.10347 132.91472 L 90.18448 132.93776 L 90.2655 132.96065 L 90.34656 132.98336 L 90.42757 133.00588 L 90.5086 133.02825 L 90.58961 133.05043 L 90.67064 133.07247 L 90.75168 133.09433 L 90.83269 133.11602 L 90.91373 133.13755 L 90.99475 133.15888 L 91.07578 133.18007 L 91.15681 133.2011 L 91.23782 133.22193 L 91.31885 133.2426 L 91.39989 133.2631 L 91.48091 133.28345 L 91.56195 133.30364 L 91.64296 133.32361 L 91.72398 133.34345 L 91.80501 133.3631 L 91.88605 133.3826 L 91.96709 133.40192 L 92.0481 133.42107 L 92.12912 133.44005 L 92.21014 133.45886 L 92.29117 133.4775 L 92.3722 133.49597 L 92.45323 133.51428 L 92.53426 133.53244 L 92.61528 133.5504 L 92.6963 133.5682 L 92.77733 133.58583 L 92.85835 133.60329 L 92.93939 133.62058 L 93.02042 133.6377 L 93.10144 133.65467 L 93.18246 133.67145 L 93.26349 133.68807 L 93.34451 133.7045 L 93.42554 133.72078 L 93.50658 133.7369 L 93.5876 133.75283 L 93.66862 133.7686 L 93.74965 133.78421 L 93.83067 133.79964 L 93.9117 133.81491 L 93.99274 133.82999 L 94.07376 133.84491 L 94.15479 133.8597 L 94.23581 133.87427 L 94.31683 133.88869 L 94.39786 133.90293 L 94.47888 133.917 L 94.55992 133.93091 L 94.64095 133.94466 L 94.72197 133.95824 L 94.803 133.97164 L 94.88402 133.98488 L 94.96504 133.99794 L 95.04608 134.01084 L 95.1271 134.02358 L 95.20813 134.03612 L 95.28915 134.04851 L 95.37018 134.06072 L 95.4512 134.07277 L 95.53224 134.08466 L 95.61327 134.09636 L 95.69429 134.10791 L 95.77531 134.11928 L 95.85634 134.13048 L 95.93736 134.14153 L 96.01839 134.15239 L 96.09943 134.16307 L 96.18045 134.17362 L 96.26146 134.18398 L 96.3425 134.19417 L 96.42352 134.20418 L 96.50455 134.21404 L 96.58559 134.22373 L 96.6666 134.23323 L 96.74763 134.24257 L 96.82866 134.25176 L 96.90968 134.26076 L 96.9907 134.26959 L 97.07172 134.27826 L 97.15277 134.28676 L 97.2338 134.29509 L 97.31482 134.30326 L 97.39584 134.31124 L 97.47685 134.31906 L 97.55789 134.3267 L 97.63893 134.33419 L 97.71994 134.34152 L 97.80098 134.34867 L 97.88199 134.35564 L 97.96303 134.36246 L 98.04405 134.36908 L 98.12508 134.37557 L 98.20612 134.38187 L 98.28712 134.38797 L 98.36816 134.39395 L 98.44919 134.39975 L 98.5302 134.40537 L 98.61124 134.41082 L 98.69226 134.4161 L 98.7733 134.42122 L 98.85432 134.42617 L 98.93533 134.43096 L 99.01637 134.43556 L 99.09738 134.44002 L 99.17844 134.44428 L 99.25946 134.44837 L 99.34047 134.45232 L 99.42151 134.45607 L 99.50252 134.45967 L 99.58354 134.46309 L 99.66458 134.46634 L 99.7456 134.46942 L 99.82664 134.47237 L 99.90765 134.4751 L 99.98868 134.47766 L 100.06972 134.48009 L 100.15073 134.48235 L 100.23178 134.48442 L 100.31279 134.4863 L 100.39381 134.48804 L 100.47485 134.4896 L 100.55586 134.49102 L 100.6369 134.49225 L 100.71791 134.49329 L 100.79895 134.49417 L 100.87999 134.49489 L 100.961 134.49546 L 101.04202 134.49585 L 101.12305 134.49605 L 101.20407 134.4961 L 101.28513 134.49597 L 101.36613 134.49567 L 101.44717 134.4952 L 101.52818 134.49457 L 101.6092 134.49376 L 101.69025 134.49282 L 101.77127 134.49166 L 101.8523 134.49034 L 101.93332 134.48886 L 102.01434 134.48723 L 102.09538 134.4854 L 102.17639 134.48343 L 102.25742 134.48125 L 102.33846 134.47895 L 102.41948 134.47646 L 102.50052 134.47379 L 102.58153 134.47095 L 102.66255 134.46796 L 102.74358 134.46477 L 102.82462 134.46143 L 102.90565 134.45793 L 102.98666 134.45426 L 103.06769 134.45041 L 103.14871 134.44638 L 103.22974 134.44222 L 103.31078 134.43785 L 103.3918 134.43332 L 103.47282 134.42864 L 103.55385 134.4238 L 103.63487 134.41876 L 103.7159 134.41355 L 103.79692 134.40818 L 103.87796 134.40265 L 103.95898 134.39696 L 104.04001 134.39109 L 104.12103 134.38503 L 104.20206 134.37882 L 104.28308 134.37242 L 104.3641 134.36588 L 104.44514 134.35915 L 104.52617 134.35227 L 104.6072 134.3452 L 104.68822 134.33798 L 104.76924 134.33057 L 104.85027 134.32302 L 104.9313 134.31528 L 105.01233 134.30738 L 105.09335 134.29929 L 105.17438 134.29106 L 105.2554 134.28266 L 105.33643 134.27405 L 105.41747 134.2653 L 105.49849 134.2564 L 105.57951 134.2473 L 105.66054 134.23804 L 105.74156 134.22863 L 105.82259 134.21904 L 105.90361 134.20925 L 105.98465 134.19933 L 106.06567 134.18921 L 106.1467 134.17894 L 106.22772 134.1685 L 106.30875 134.15792 L 106.38977 134.14711 L 106.47081 134.13617 L 106.55183 134.12506 L 106.63286 134.11376 L 106.71388 134.10231 L 106.7949 134.09069 L 106.87593 134.07889 L 106.95695 134.06693 L 107.038 134.0548 L 107.11902 134.0425 L 107.20003 134.03003 L 107.28107 134.01738 L 107.36209 134.00457 L 107.44312 133.9916 L 107.52415 133.97846 L 107.60516 133.96514 L 107.6862 133.95165 L 107.76723 133.93799 L 107.84825 133.92418 L 107.92928 133.91016 L 108.01028 133.89601 L 108.09134 133.88167 L 108.17236 133.86719 L 108.25339 133.8525 L 108.33441 133.83768 L 108.41542 133.82266 L 108.49646 133.80748 L 108.5775 133.79215 L 108.65851 133.77663 L 108.73955 133.76094 L 108.82056 133.7451 L 108.9016 133.72907 L 108.98262 133.71289 L 109.06364 133.69652 L 109.14468 133.68 L 109.2257 133.6633 L 109.30673 133.64644 L 109.38776 133.6294 L 109.46877 133.61219 L 109.5498 133.59482 L 109.63083 133.57726 L 109.71187 133.55956 L 109.7929 133.54167 L 109.8739 133.52362 L 109.95494 133.50539 L 110.03595 133.48702 L 110.117 133.46845 L 110.19803 133.44972 L 110.27904 133.43083 L 110.36008 133.41175 L 110.44109 133.39253 L 110.52211 133.37313 L 110.60315 133.35355 L 110.68417 133.3338 L 110.76521 133.31389 L 110.84622 133.29381 L 110.92725 133.27356 L 111.00829 133.25315 L 111.0893 133.23256 L 111.17035 133.21179 L 111.25136 133.19087 L 111.33238 133.16977 L 111.41342 133.1485 L 111.49443 133.12709 L 111.57547 133.10546 L 111.6565 133.08373 L 111.73752 133.06177 L 111.81856 133.03966 L 111.89957 133.01738 L 111.98059 132.99492 L 112.06161 132.9723 L 112.14264 132.94954 L 112.2237 132.92656 L 112.3047 132.90346 L 112.38573 132.88018 L 112.46675 132.85669 L 112.54778 132.83306 L 112.62881 132.80925 L 112.70984 132.7853 L 112.79086 132.76116 L 112.87189 132.73685 L 112.95291 132.71236 L 113.03395 132.68772 L 113.11496 132.6629 L 113.19598 132.63791 L 113.27702 132.61277 L 113.35805 132.58744 L 113.43909 132.56195 L 113.5201 132.53629 L 113.60112 132.51045 L 113.68214 132.48445 L 113.76318 132.45829 L 113.84421 132.43195 L 113.92523 132.40546 L 114.00626 132.37877 L 114.08728 132.35193 L 114.1683 132.3249 L 114.24933 132.29772 L 114.33037 132.27039 L 114.41139 132.24286 L 114.49242 132.21517 L 114.57344 132.1873 L 114.65446 132.15927 L 114.73549 132.13108 L 114.81653 132.10272 L 114.89755 132.07418 L 114.97858 132.04547 L 115.0596 132.01659 L 115.14063 131.98755 L 115.22165 131.95833 L 115.30269 131.92897 L 115.38371 131.89942 L 115.46474 131.86968 L 115.54576 131.83979 L 115.62679 131.80974 L 115.70781 131.77951 L 115.78883 131.74912 L 115.86987 131.71855 L 115.9509 131.68784 L 116.03192 131.65692 L 116.11295 131.62584 L 116.19397 131.5946 L 116.275 131.56317 L 116.35603 131.53162 L 116.43706 131.49987 L 116.51808 131.46793 L 116.5991 131.43585 L 116.68013 131.40358 L 116.76115 131.37117 L 116.84218 131.33858 L 116.92322 131.3058 L 117.00424 131.27289 L 117.08527 131.23976 L 117.16629 131.2065 L 117.24731 131.17308 L 117.32832 131.13945 L 117.40938 131.10567 L 117.4904 131.07172 L 117.57143 131.03763 L 117.65245 131.00334 L 117.73346 130.96887 L 117.8145 130.93425 L 117.89552 130.89946 L 117.97656 130.86449 L 118.05759 130.82936 L 118.1386 130.79407 L 118.21964 130.75859 L 118.30066 130.72296 L 118.38168 130.68717 L 118.46272 130.65117 L 118.54373 130.61502 L 118.62477 130.5787 L 118.7058 130.54222 L 118.7868 130.50557 L 118.86784 130.46875 L 118.94887 130.43177 L 119.0299 130.3946 L 119.11093 130.35726 L 119.19194 130.31978 L 119.27298 130.28209 L 119.35399 130.24427 L 119.43503 130.20626 L 119.51607 130.16808 L 119.59708 130.12975 L 119.67812 130.09125 L 119.75912 130.05254 L 119.84016 130.0137 L 119.92119 129.97467 L 120.00221 129.93549 L 120.08325 129.89612 L 120.16426 129.8566 L 120.2453 129.8169 L 120.32632 129.77703 L 120.40733 129.737 L 120.48837 129.69678 L 120.5694 129.65642 L 120.65042 129.61588 L 120.73146 129.57515 L 120.81247 129.53427 L 120.89351 129.49323 L 120.97452 129.45201 L 121.05556 129.41062 L 121.1366 129.36907 L 121.2176 129.32735 L 121.29865 129.28545 L 121.37965 129.24338 L 121.46068 129.20116 L 121.54172 129.15876 L 121.62274 129.11617 L 121.70378 129.07343 L 121.78479 129.03052 L 121.86581 128.98744 L 121.94685 128.9442 L 122.02786 128.90077 L 122.1089 128.8572 L 122.18993 128.81343 L 122.27095 128.7695 L 122.35199 128.7254 L 122.433 128.68114 L 122.51402 128.63672 L 122.59506 128.59212 L 122.67609 128.54735 L 122.75713 128.50241 L 122.83813 128.4573 L 122.91916 128.41202 L 123.00018 128.36656 L 123.0812 128.32096 L 123.16226 128.27518 L 123.24327 128.22924 L 123.3243 128.18309 L 123.40532 128.1368 L 123.48634 128.09035 L 123.56737 128.04372 L 123.6484 127.99692 L 123.72943 127.94994 L 123.81046 127.9028 L 123.89148 127.85548 L 123.9725 127.80801 L 124.05353 127.76036 L 124.13455 127.71255 L 124.21559 127.66458 L 124.29662 127.61642 L 124.37764 127.5681 L 124.45866 127.5196 L 124.53969 127.47093 L 124.62071 127.42212 L 124.70175 127.37311 L 124.78278 127.32396 L 124.8638 127.27461 L 124.94482 127.22511 L 125.02585 127.17545 L 125.10687 127.1256 L 125.1879 127.07558 L 125.26894 127.02539 L 125.34996 126.97504 L 125.43098 126.92451 L 125.51201 126.87384 L 125.59303 126.82297 L 125.67406 126.77196 L 125.7551 126.72076 L 125.83612 126.6694 L 125.91714 126.61784 L 125.99817 126.56616 L 126.0792 126.51427 L 126.16022 126.46223 L 126.24126 126.41002 L 126.32228 126.35764 L 126.4033 126.3051 L 126.48433 126.25237 L 126.56535 126.1995 L 126.64638 126.14644 L 126.7274 126.0932 L 126.80844 126.03983 L 126.88947 125.98624 L 126.97049 125.93251 L 127.05151 125.87862 L 127.13254 125.82454 L 127.21356 125.7703 L 127.2946 125.71588 L 127.37563 125.6613 L 127.45663 125.60655 L 127.53767 125.55164 L 127.6187 125.49655 L 127.69972 125.4413 L 127.78075 125.38588 L 127.86177 125.3303 L 127.94281 125.27452 L 128.02384 125.2186 L 128.10486 125.16249 L 128.18589 125.10623 L 128.26689 125.0498 L 128.34795 124.99316 L 128.42897 124.93639 L 128.51 124.87946 L 128.59102 124.82233 L 128.67203 124.76505 L 128.75307 124.70758 L 128.8341 124.64996 L 128.91512 124.59218 L 128.99616 124.53423 L 129.07717 124.47609 L 129.1582 124.4178 L 129.23923 124.35933 L 129.32024 124.3007 L 129.40129 124.24187 L 129.4823 124.18292 L 129.56334 124.12376 L 129.64437 124.06445 L 129.72537 124.00497 L 129.80641 123.9453 L 129.88744 123.8855 L 129.96848 123.8255 L 130.0495 123.76535 L 130.13051 123.705 L 130.21155 123.6445 L 130.29256 123.58386 L 130.3736 123.52301 L 130.45464 123.46199 L 130.53565 123.40085 L 130.61669 123.33948 L 130.6977 123.27798 L 130.77872 123.21631 L 130.85976 123.15445 L 130.94078 123.09245 L 131.02182 123.03024 L 131.10283 122.9679 L 131.18386 122.90538 L 131.2649 122.84265 L 131.3459 122.7798 L 131.42694 122.71675 L 131.50797 122.65356 L 131.58899 122.59018 L 131.67003 122.52663 L 131.75104 122.46295 L 131.83208 122.39906 L 131.91309 122.33502 L 131.99413 122.2708 L 132.07517 122.20639 L 132.15618 122.14186 L 132.2372 122.07712 L 132.31822 122.01224 L 132.39925 121.94714 L 132.4803 121.88193 L 132.56131 121.81653 L 132.64234 121.75093 L 132.72336 121.68523 L 132.80438 121.61931 L 132.88542 121.55322 L 132.96643 121.48698 L 133.04747 121.42056 L 133.1285 121.35399 L 133.20952 121.28723 L 133.29056 121.22028 L 133.37157 121.15321 L 133.45259 121.08595 L 133.53363 121.01851 L 133.61466 120.95093 L 133.69568 120.88313 L 133.7767 120.81522 L 133.85773 120.74707 L 133.93875 120.67883 L 134.01978 120.61038 L 134.10082 120.54173 L 134.18184 120.47298 L 134.26287 120.40402 L 134.34389 120.33492 L 134.42491 120.26561 L 134.50594 120.19617 L 134.58698 120.12653 L 134.668 120.05673 L 134.74903 119.98676 L 134.83005 119.91661 L 134.91107 119.84631 L 134.9921 119.77583 L 135.07312 119.70518 L 135.15416 119.6344 L 135.23519 119.5634 L 135.31621 119.49222 L 135.39723 119.42094 L 135.47826 119.34944 L 135.55928 119.27779 L 135.64032 119.20596 L 135.72135 119.13396 L 135.80237 119.0618 L 135.88339 118.98947 L 135.96442 118.91695 L 136.04544 118.84427 L 136.12648 118.77144 L 136.2075 118.69843 L 136.28853 118.62524 L 136.36956 118.5519 L 136.45058 118.47838 L 136.5316 118.4047 L 136.61263 118.33083 L 136.69367 118.2568 L 136.77469 118.1826 L 136.85572 118.10823 L 136.93674 118.03372 L 137.01776 117.95901 L 137.09879 117.88412 L 137.17983 117.8091 L 137.26085 117.73389 L 137.34188 117.65851 L 137.4229 117.58295 L 137.50392 117.50725 L 137.58493 117.43134 L 137.66597 117.35529 L 137.74701 117.27907 L 137.82804 117.20268 L 137.90906 117.12613 L 137.99007 117.0494 L 138.0711 116.97249 L 138.15213 116.8954 L 138.23317 116.81816 L 138.3142 116.74075 L 138.3952 116.66318 L 138.47624 116.58543 L 138.55727 116.50752 L 138.63829 116.42944 L 138.71932 116.35118 L 138.80034 116.27277 L 138.88138 116.19415 L 138.9624 116.1154 L 139.04343 116.03648 L 139.12445 115.95737 L 139.20546 115.87811 L 139.28652 115.79868 L 139.36754 115.71907 L 139.44855 115.63928 L 139.52959 115.55936 L 139.6106 115.47923 L 139.69164 115.39896 L 139.77268 115.3185 L 139.85369 115.23787 L 139.93473 115.15707 L 140.01573 115.07613 L 140.09677 114.99498 L 140.1778 114.9137 L 140.2588 114.83223 L 140.33986 114.7506 L 140.42087 114.66878 L 140.5019 114.5868 L 140.58293 114.50465 L 140.66394 114.42235 L 140.74498 114.33987 L 140.826 114.25723 L 140.90703 114.17441 L 140.98807 114.09142 L 141.06908 114.00826 L 141.15012 113.92491 L 141.23113 113.84143 L 141.31215 113.75777 L 141.3932 113.67392 L 141.47422 113.58992 L 141.55525 113.50577 L 141.63626 113.4214 L 141.71729 113.33691 L 141.79833 113.25223 L 141.87935 113.16737 L 141.96039 113.08234 L 142.0414 112.99716 L 142.12242 112.9118 L 142.20346 112.82628 L 142.28447 112.74059 L 142.36551 112.65471 L 142.44654 112.56868 L 142.52756 112.48248 L 142.6086 112.3961 L 142.6896 112.30959 L 142.77063 112.22285 L 142.85166 112.13599 L 142.9327 112.04893 L 143.01374 111.96173 L 143.09474 111.87434 L 143.17577 111.78679 L 143.25679 111.69905 L 143.33782 111.61118 L 143.41887 111.5231 L 143.49988 111.43488 L 143.5809 111.34647 L 143.66193 111.2579 L 143.74295 111.16916 L 143.82399 111.08026 L 143.905 110.99117 L 143.98604 110.90193 L 144.06707 110.81252 L 144.14809 110.72293 L 144.22911 110.63316 L 144.31014 110.54326 L 144.39116 110.45316 L 144.4722 110.3629 L 144.55323 110.27248 L 144.63425 110.18188 L 144.71527 110.0911 L 144.7963 110.00017 L 144.87732 109.90904 L 144.95835 109.8178 L 145.03939 109.72633 L 145.1204 109.63474 L 145.20143 109.54294 L 145.28246 109.451 L 145.36348 109.35886 L 145.4445 109.26659 L 145.52555 109.17412 L 145.60657 109.08148 L 145.68759 108.9887 L 145.76862 108.89572 L 145.84964 108.80258 L 145.93067 108.70929 L 146.0117 108.61581 L 146.09273 108.52217 L 146.17375 108.42834 L 146.25478 108.33437 L 146.3358 108.24023 L 146.41683 108.1459 L 146.49785 108.05142 L 146.57889 107.95677 L 146.65991 107.86194 L 146.74094 107.76695 L 146.82196 107.67177 L 146.90299 107.57645 L 146.98401 107.48094 L 147.06505 107.38527 L 147.14608 107.28941 L 147.2271 107.1934 L 147.30812 107.09723 L 147.38915 107.00089 L 147.47017 106.90436 L 147.5512 106.80768 L 147.63224 106.71083 L 147.71324 106.61385 L 147.79428 106.5166 L 147.8753 106.41924 L 147.95633 106.3217 L 148.03736 106.224 L 148.11838 106.12613 L 148.19942 106.02809 L 148.28044 105.92989 L 148.36147 105.83151 L 148.44249 105.73297 L 148.5235 105.63423 L 148.60454 105.53537 L 148.68558 105.4363 L 148.7666 105.33708 L 148.84763 105.2377 L 148.92864 105.13815 L 149.00968 105.03839 L 149.0907 104.93849 L 149.17174 104.83842 L 149.25276 104.73819 L 149.33377 104.6378 L 149.41481 104.53722 L 149.49584 104.43645 L 149.57685 104.33554 L 149.6579 104.23447 L 149.7389 104.13324 L 149.81995 104.0318 L 149.90097 103.93019 L 149.98198 103.82845 L 150.06302 103.72652 L 150.14403 103.62445 L 150.22509 103.52214 L 150.3061 103.41971 L 150.38712 103.31714 L 150.46816 103.21431 L 150.54917 103.11142 L 150.6302 103.00827 L 150.71125 102.905 L 150.79225 102.80157 L 150.87329 102.69792 L 150.9543 102.59416 L 151.03533 102.49014 L 151.11637 102.38603 L 151.19738 102.28177 L 151.27843 102.17726 L 151.35944 102.0727 L 151.44046 101.96783 L 151.5215 101.86285 L 151.60251 101.75777 L 151.68355 101.6524 L 151.76457 101.54697 L 151.8456 101.44131 L 151.92664 101.33546 L 152.00765 101.2295 L 152.08869 101.12332 L 152.1697 101.01701 L 152.25072 100.91048 L 152.33177 100.80382 L 152.41278 100.69704 L 152.4938 100.59 L 152.57483 100.48285 L 152.65586 100.37547 L 152.7369 100.26797 L 152.81792 100.16032 L 152.89894 100.05247 L 152.97997 99.94446 L 153.06099 99.83627 L 153.14203 99.72787 L 153.22304 99.61942 L 153.30408 99.51065 L 153.3851 99.40184 L 153.46613 99.29282 L 153.54717 99.18356 L 153.62818 99.07423 L 153.7092 98.96466 L 153.79022 98.85498 L 153.87126 98.74512 L 153.9523 98.63504 L 154.03331 98.52486 L 154.11434 98.41447 L 154.19536 98.30391 L 154.27639 98.19319 L 154.35742 98.08229 L 154.43845 97.97122 L 154.51947 97.86 L 154.6005 97.7486 L 154.68152 97.63704 L 154.76255 97.52525 L 154.84357 97.4134 L 154.9246 97.3013 L 155.00563 97.18909 L 155.08666 97.07664 L 155.16768 96.96404 L 155.2487 96.85132 L 155.32973 96.7384 L 155.41077 96.62532 L 155.49179 96.51207 L 155.57282 96.39862 L 155.65384 96.28502 L 155.73487 96.17126 L 155.81589 96.05733 L 155.89691 95.94322 L 155.97795 95.82895 L 156.05898 95.71451 L 156.14 95.5999 L 156.22103 95.4851 L 156.30205 95.37015 L 156.38307 95.25504 L 156.46411 95.13976 L 156.54514 95.02428 L 156.62616 94.90865 L 156.70719 94.79286 L 156.78821 94.67691 L 156.86923 94.56075 L 156.95027 94.44446 L 157.0313 94.32797 L 157.11232 94.21135 L 157.19335 94.09454 L 157.27437 93.97755 L 157.3554 93.86041 L 157.43642 93.7431 L 157.51746 93.62558 L 157.59848 93.50795 L 157.6795 93.39012 L 157.76053 93.27213 L 157.84154 93.15396 L 157.92258 93.03563 L 158.00362 92.91713 L 158.08464 92.79846 L 158.16567 92.67961 L 158.24668 92.5606 L 158.32772 92.44142 L 158.40874 92.32208 L 158.48976 92.20256 L 158.5708 92.08286 L 158.65181 91.96301 L 158.73285 91.84299 L 158.81388 91.7228 L 158.8949 91.60243 L 158.97592 91.48192 L 159.05695 91.36122 L 159.13799 91.24034 L 159.21901 91.1193 L 159.30004 90.9981 L 159.38106 90.87671 L 159.46207 90.75516 L 159.54312 90.63345 L 159.62415 90.51157 L 159.70516 90.38953 L 159.7862 90.26729 L 159.8672 90.1449 L 159.94824 90.02235 L 160.02927 89.89961 L 160.11029 89.77672 L 160.19133 89.65364 L 160.27234 89.53041 L 160.35338 89.407 L 160.4344 89.28342 L 160.51541 89.15968 L 160.59647 89.03577 L 160.67748 88.91168 L 160.75852 88.78743 L 160.83954 88.66302 L 160.92055 88.53842 L 161.00159 88.41367 L 161.0826 88.28876 L 161.16364 88.16364 L 161.24468 88.03838 L 161.32569 87.91295 L 161.40673 87.78732 L 161.48773 87.66156 L 161.56876 87.53561 L 161.64981 87.40952 L 161.73082 87.28322 L 161.81186 87.15677 L 161.89287 87.03015 "/>
<symbol id="font_1_4">
<path d="M .291 .087000008 C .29500003 .047000003 .32200004 .005000001 .36900003 .005000001 C .39000003 .005000001 .45100004 .019000002 .45100004 .1 L .45100004 .15600002 L .42600004 .15600002 L .42600004 .1 C .42600004 .042000005 .40100003 .036000004 .39000003 .036000004 C .35700003 .036000004 .35300002 .081 .35300002 .086 L .35300002 .286 C .35300002 .328 .35300002 .367 .31700004 .404 C .27800004 .44300003 .22800002 .45900003 .18 .45900003 C .098 .45900003 .029 .41200004 .029 .34600003 C .029 .316 .049000004 .29900003 .075 .29900003 C .10300001 .29900003 .121 .31900005 .121 .34500004 C .121 .35700003 .116000007 .39000003 .07 .39100004 C .09700001 .42600004 .146 .43700005 .178 .43700005 C .22700003 .43700005 .284 .39800004 .284 .30900003 L .284 .272 C .23300001 .26900003 .16300002 .26600004 .1 .23600002 C .024999999 .20200002 0 .15000002 0 .106000009 C 0 .025000003 .09700001 0 .16 0 C .22600001 0 .272 .040000004 .291 .087000008 M .284 .25100003 L .284 .15100001 C .284 .056 .21200001 .022000002 .167 .022000002 C .11800001 .022000002 .077 .057000005 .077 .107 C .077 .16200002 .11900001 .24500002 .284 .25100003 Z "/>
</symbol>
<use xlink:href="#font_1_4" transform="matrix(27.673888,0,0,-27.673888,302.50669,482.88496)"/>
<symbol id="font_1_5">
<path d="M .14400001 .388 L .14400001 .705 L 0 .694 L 0 .663 C .07000001 .663 .07800001 .656 .07800001 .607 L .07800001 .011000001 L .103000018 .011000001 C .104 .012000001 .112 .026 .13900002 .07300001 C .15400002 .05 .19600001 0 .27 0 C .38900004 0 .49300004 .098000008 .49300004 .22700002 C .49300004 .35400004 .395 .45300005 .28100003 .45300005 C .20300001 .45300005 .16000001 .40600003 .14400001 .388 M .14700002 .12500002 L .14700002 .33100004 C .14700002 .35000003 .14700002 .351 .158 .367 C .19700001 .42300005 .252 .43100003 .27600003 .43100003 C .321 .43100003 .35700003 .40500004 .381 .367 C .40700004 .32600004 .41000004 .26900003 .41000004 .22800002 C .41000004 .19100002 .40800003 .13100001 .379 .086 C .358 .055000005 .32000003 .022000002 .266 .022000002 C .22100002 .022000002 .18500002 .046 .16100002 .083000008 C .14700002 .104 .14700002 .107 .14700002 .12500002 Z "/>
</symbol>
<use xlink:href="#font_1_5" transform="matrix(27.673888,0,0,-27.673888,469.98875,486.53498)"/>
<path transform="matrix(2.7777777,0,0,-2.7777777,396.54167,320.35835)" stroke-width=".398" stroke-linecap="butt" stroke-miterlimit="10" stroke-linejoin="miter" fill="none" stroke="#000000" d="M 0 0 L 5.242 0 "/>
<symbol id="font_2_5">
<path d="M .45700003 .586 C .461 .6 .461 .602 .461 .609 C .461 .62700006 .447 .63600006 .432 .63600006 C .42200003 .63600006 .40600003 .63 .397 .615 C .395 .61 .387 .579 .38300003 .561 C .37600003 .535 .36900003 .508 .363 .48100005 L .318 .301 C .314 .286 .271 .21600002 .20500002 .21600002 C .15400002 .21600002 .143 .26000003 .143 .29700003 C .143 .34300003 .16000001 .40500004 .194 .49300004 C .21000001 .53400006 .21400002 .545 .21400002 .56500008 C .21400002 .61 .18200001 .6470001 .13200002 .6470001 C .037 .6470001 0 .50200006 0 .49300004 C 0 .48300005 .01 .48300005 .012 .48300005 C .022000002 .48300005 .023 .485 .028000003 .50100007 C .055000009 .595 .095000009 .625 .12900001 .625 C .13700001 .625 .15400002 .625 .15400002 .59300008 C .15400002 .568 .14400001 .54200008 .13700001 .523 C .097 .41700004 .079 .36 .079 .31300003 C .079 .224 .142 .194 .201 .194 C .24000003 .194 .274 .21100001 .30200003 .23900002 C .289 .187 .277 .13800001 .237 .08500001 C .21100001 .051 .17300001 .022 .127 .022 C .113000009 .022 .068 .025000006 .051000008 .06400001 C .067 .06400001 .080000009 .06400001 .094000007 .076000008 C .104 .08500001 .11400001 .098000008 .11400001 .117000009 C .11400001 .148 .087000008 .15200001 .07700001 .15200001 C .054000006 .15200001 .021 .136 .021 .087000008 C .021 .037 .065000008 0 .127 0 C .23 0 .333 .091000009 .361 .20400001 L .45700003 .586 Z "/>
</symbol>
<use xlink:href="#font_2_5" transform="matrix(27.673888,0,0,-27.673888,397.3442,341.82038)"/>
<use xlink:href="#font_2_5" transform="matrix(27.673888,0,0,-27.673888,453.1442,122.94259)"/>
<symbol id="font_1_3">
<path d="M .63100007 .19400002 C .646 .19400002 .665 .19400002 .665 .214 C .665 .23400001 .646 .23400001 .632 .23400001 L .033 .23400001 C .019000002 .23400001 0 .23400001 0 .214 C 0 .19400002 .019000002 .19400002 .034 .19400002 L .63100007 .19400002 M .632 0 C .646 0 .665 0 .665 .02000001 C .665 .040000008 .646 .040000008 .63100007 .040000008 L .034 .040000008 C .019000002 .040000008 0 .040000008 0 .02000001 C 0 0 .019000002 0 .033 0 L .632 0 Z "/>
</symbol>
<use xlink:href="#font_1_3" transform="matrix(27.673888,0,0,-27.673888,476.1414,113.58881)"/>
<symbol id="font_2_3">
<path d="M .314 .605 L .4 .605 C .42000003 .605 .43 .605 .43 .625 C .43 .63600006 .42000003 .63600006 .40300004 .63600006 L .32000003 .63600006 L .34100003 .75 C .34500004 .771 .35900004 .842 .365 .8540001 C .374 .873 .39100004 .888 .41200004 .888 C .416 .888 .44200004 .888 .461 .87 C .41700004 .86600008 .407 .8310001 .407 .816 C .407 .793 .425 .781 .444 .781 C .47 .781 .49900005 .8030001 .49900005 .8410001 C .49900005 .8870001 .45300005 .9100001 .41200004 .9100001 C .37800003 .9100001 .31500004 .8920001 .28500004 .793 C .279 .7720001 .27600003 .7620001 .252 .63600006 L .18300002 .63600006 C .164 .63600006 .15300001 .63600006 .15300001 .61700007 C .15300001 .605 .162 .605 .18100001 .605 L .24700001 .605 L .172 .21000001 C .15400002 .113000009 .13700001 .022 .08500001 .022 C .081 .022 .056 .022 .037 .040000008 C .083000008 .043000014 .09200001 .07900001 .09200001 .094000007 C .09200001 .117000009 .074 .12900001 .055 .12900001 C .029 .12900001 0 .10700001 0 .069000009 C 0 .024000004 .044 0 .08500001 0 C .14 0 .18 .059 .19800002 .09700001 C .23000002 .16000001 .25300003 .28100003 .254 .28800003 L .314 .605 Z "/>
</symbol>
<use xlink:href="#font_2_3" transform="matrix(27.673888,0,0,-27.673888,505.26948,122.94259)"/>
<symbol id="font_1_1">
<path d="M .23200003 .00999999 C .23200003 .012999982 .23200003 .014999986 .215 .03199999 C .09 .15799999 .058 .347 .058 .5 C .058 .674 .096 .84800007 .21900001 .97300007 C .23200003 .985 .23200003 .98700007 .23200003 .99 C .23200003 .99700006 .22800002 1 .222 1 C .21200001 1 .12200001 .93200007 .06299999 .805 C .012000002 .69500008 0 .584 0 .5 C 0 .422 .011 .301 .066 .188 C .126 .065 .21200001 0 .222 0 C .22800002 0 .23200003 .0029999912 .23200003 .00999999 Z "/>
</symbol>
<use xlink:href="#font_1_1" transform="matrix(27.673888,0,0,-27.673888,523.07028,124.18791)"/>
<symbol id="font_2_4">
<path d="M .305 .31300003 C .311 .33900003 .334 .43100003 .404 .43100003 C .409 .43100003 .433 .43100003 .454 .418 C .426 .41300003 .40600003 .388 .40600003 .36400003 C .40600003 .34800003 .417 .32900004 .444 .32900004 C .46600003 .32900004 .498 .34700004 .498 .38700003 C .498 .43900005 .439 .45300005 .405 .45300005 C .347 .45300005 .312 .40000005 .3 .37700004 C .275 .44300003 .221 .45300005 .19200002 .45300005 C .08800001 .45300005 .031000002 .32400004 .031000002 .29900003 C .031000002 .28900004 .041 .28900004 .043000007 .28900004 C .051000008 .28900004 .054000006 .291 .056 .3 C .09 .40600003 .156 .43100003 .19000001 .43100003 C .209 .43100003 .244 .42200003 .244 .36400003 C .244 .33300004 .22700002 .26600004 .19000001 .126 C .17400001 .064 .13900002 .022000002 .095000009 .022000002 C .08900001 .022000002 .06600001 .022000002 .045 .035 C .07000001 .040000004 .09200001 .061 .09200001 .089 C .09200001 .116000007 .07000001 .124000009 .055000009 .124000009 C .025 .124000009 0 .098000008 0 .06600001 C 0 .020000002 .050000006 0 .094000007 0 C .16000001 0 .19600001 .07000001 .19900002 .076000008 C .21100001 .039 .24700003 0 .307 0 C .41 0 .467 .12900001 .467 .15400002 C .467 .16400002 .458 .16400002 .455 .16400002 C .446 .16400002 .444 .16000001 .442 .15300001 C .409 .046 .341 .022000002 .30900003 .022000002 C .27 .022000002 .254 .054 .254 .08800001 C .254 .11000001 .26 .13200002 .271 .17600002 L .305 .31300003 Z "/>
</symbol>
<use xlink:href="#font_2_4" transform="matrix(27.673888,0,0,-27.673888,531.89419,117.57385)"/>
<symbol id="font_1_2">
<path d="M .232 .5 C .232 .578 .22100002 .699 .16600001 .81200006 C .106 .93500009 .020000004 1 .009999998 1 C .0040000008 1 0 .99600008 0 .99 C 0 .98700007 0 .985 .019000002 .967 C .117000009 .86800006 .174 .709 .174 .5 C .174 .329 .137 .153 .012999997 .026999996 C 0 .014999986 0 .012999982 0 .00999999 C 0 .003999993 .0040000008 0 .009999998 0 C .020000004 0 .11000001 .06799999 .169 .195 C .22 .305 .232 .416 .232 .5 Z "/>
</symbol>
<use xlink:href="#font_1_2" transform="matrix(27.673888,0,0,-27.673888,548.48568,124.18791)"/>
<path transform="matrix(2.7777777,0,0,-2.7777777,55.302778,447.31944)" d="M 123.44492 61.97368 C 123.44492 62.04651 122.5389 62.10555 121.42123 62.10555 C 120.30357 62.10555 119.39755 62.04651 119.39755 61.97368 C 119.39755 61.90086 120.30357 61.84183 121.42123 61.84183 C 122.5389 61.84183 123.44492 61.90086 123.44492 61.97368 Z M 121.42123 61.97368 "/>
<path transform="matrix(2.7777777,0,0,-2.7777777,55.302778,447.31944)" stroke-width=".3985" stroke-linecap="butt" stroke-miterlimit="10" stroke-linejoin="miter" fill="none" stroke="#000000" d="M 123.44492 61.97368 C 123.44492 62.04651 122.5389 62.10555 121.42123 62.10555 C 120.30357 62.10555 119.39755 62.04651 119.39755 61.97368 C 119.39755 61.90086 120.30357 61.84183 121.42123 61.84183 C 122.5389 61.84183 123.44492 61.90086 123.44492 61.97368 Z M 121.42123 61.97368 "/>
<symbol id="font_2_2">
<path d="M .662 .65900006 C .663 .66300007 .665 .66800007 .665 .674 C .665 .683 .66 .683 .64 .683 L .21800003 .683 C .194 .683 .19300002 .68200007 .187 .66300007 L .13200002 .483 C .13000001 .47800002 .12900001 .47100003 .12900001 .469 C .12900001 .46800003 .12900001 .45800004 .14100002 .45800004 C .15 .45800004 .15200001 .46500004 .15400002 .46800003 C .192 .586 .24400002 .652 .40000005 .652 L .563 .652 L .0040000008 .027 C .0040000008 .026 0 .012 0 .009000001 C 0 0 .007000003 0 .025000003 0 L .46 0 C .48400007 0 .48500005 .001 .49100004 .020000002 L .562 .24100001 C .563 .245 .566 .252 .566 .256 C .566 .261 .562 .26700003 .553 .26700003 C .544 .26700003 .543 .263 .536 .24200002 C .492 .106000009 .44400005 .034 .27400003 .034 L .103000018 .034 L .662 .65900006 Z "/>
</symbol>
<use xlink:href="#font_2_2" transform="matrix(27.673888,0,0,-27.673888,351.64955,258.47779)"/>
<use xlink:href="#font_1_1" transform="matrix(27.673888,0,0,-27.673888,373.6564,265.39625)"/>
<path transform="matrix(2.7777777,0,0,-2.7777777,381.67784,242.68889)" stroke-width=".398" stroke-linecap="butt" stroke-miterlimit="10" stroke-linejoin="miter" fill="none" stroke="#000000" d="M 0 0 L 5.694 0 "/>
<symbol id="font_2_1">
<path d="M .117000009 .194 C .117000009 .26 .092 .29900003 .05300001 .29900003 C .020000004 .29900003 0 .274 0 .246 C 0 .21900001 .020000004 .193 .05300001 .193 C .065000008 .193 .078 .197 .08800001 .206 C .091 .208 .092 .209 .093 .209 C .094000007 .209 .095000009 .208 .095000009 .194 C .095000009 .12 .06000001 .060000004 .027000003 .026999996 C .016000003 .016000003 .016000003 .013999999 .016000003 .0109999929 C .016000003 .003999993 .021000006 0 .026 0 C .037 0 .117000009 .077 .117000009 .194 Z "/>
</symbol>
<use xlink:href="#font_2_4" transform="matrix(27.673888,0,0,-27.673888,382.48039,258.7822)"/>
<use xlink:href="#font_2_1" transform="matrix(27.673888,0,0,-27.673888,399.88725,263.81886)"/>
<path transform="matrix(2.7777777,0,0,-2.7777777,409.79444,242.68889)" stroke-width=".398" stroke-linecap="butt" stroke-miterlimit="10" stroke-linejoin="miter" fill="none" stroke="#000000" d="M 0 0 L 5.242 0 "/>
<use xlink:href="#font_2_5" transform="matrix(27.673888,0,0,-27.673888,410.59703,264.15095)"/>
<use xlink:href="#font_1_2" transform="matrix(27.673888,0,0,-27.673888,425.933,265.39625)"/>
<path transform="matrix(2.7777777,0,0,-2.7777777,55.302778,447.31944)" stroke-width=".79701" stroke-linecap="butt" stroke-miterlimit="10" stroke-linejoin="miter" fill="none" stroke="#000000" d="M 91.06592 2.63718 L 91.06592 133.1775 "/>
<path transform="matrix(2.7777777,0,0,-2.7777777,55.302778,447.31944)" stroke-width=".79701" stroke-linecap="butt" stroke-miterlimit="10" stroke-linejoin="miter" fill="none" stroke="#000000" d="M 151.77655 2.63718 L 151.77655 101.53136 "/>
<path transform="matrix(2.7777777,0,0,-2.7777777,55.302778,447.31944)" stroke-width=".79701" stroke-linecap="butt" stroke-miterlimit="10" stroke-linejoin="miter" fill="none" stroke="#000000" d="M 121.42123 2.63718 L 121.42123 61.97368 "/>
</g>
<use xlink:href="#font_2_4" transform="matrix(27.673888,0,0,-27.673888,560.62759,461.9905)"/>
<use xlink:href="#font_2_5" transform="matrix(27.673888,0,0,-27.673888,87.98032,26.812033)"/>
</g>
</svg>
