<?xml version="1.0" encoding="UTF-8" standalone="no"?>
<!DOCTYPE svg PUBLIC "-//W3C//DTD SVG 1.1//EN" "http://www.w3.org/Graphics/SVG/1.1/DTD/svg11.dtd">
<svg xmlns="http://www.w3.org/2000/svg" xmlns:xlink="http://www.w3.org/1999/xlink" version="1.1" width="584.9139pt" height="485.86668pt" viewBox="0 0 584.9139 485.86668">
<g enable-background="new">
<path transform="matrix(2.7777777,0,0,-2.7777777,10.330556,484.75834)" stroke-width=".79701" stroke-linecap="butt" stroke-miterlimit="10" stroke-linejoin="miter" fill="none" stroke="#000000" d="M 0 28.39465 L 191.69092 28.39465 "/>
<path transform="matrix(2.7777777,0,0,-2.7777777,542.8052,405.88429)" d="M 2.59026 0 L -1.55415 2.0722 L 0 0 L -1.55415 -2.0722 "/>
<path transform="matrix(2.7777777,0,0,-2.7777777,10.330556,484.75834)" stroke-width=".79701" stroke-linecap="butt" stroke-miterlimit="10" stroke-linejoin="miter" fill="none" stroke="#000000" d="M 97.14143 0 L 97.14143 158.80599 "/>
<path transform="matrix(0,-2.7777222,-2.7777222,-0,280.16789,43.6306)" d="M 2.59026 0 L -1.55415 2.0722 L 0 0 L -1.55415 -2.0722 "/>
<clipPath id="cp0">
<path transform="matrix(2.7777777,0,0,-2.7777777,10.330556,484.75834)" d="M 0 0 L 194.28115 0 L 194.28115 161.39621 L 0 161.39621 Z "/>
</clipPath>
<g clip-path="url(#cp0)">
<path transform="matrix(2.7777777,0,0,-2.7777777,10.330556,484.75834)" d="M 97.14142 118.06049 L 97.05952 118.06049 L 97.2216 118.06049 L 97.38367 118.06049 L 97.5457 118.06049 L 97.7078 118.06049 L 97.86983 118.06049 L 98.03189 118.06049 L 98.19398 118.06049 L 98.35602 118.06049 L 98.51808 118.06049 L 98.68015 118.06049 L 98.84221 118.06049 L 99.00427 118.06049 L 99.16632 118.06049 L 99.3284 118.06049 L 99.49045 118.06049 L 99.65251 118.06049 L 99.81459 118.06049 L 99.97664 118.06049 L 100.1387 118.06049 L 100.30077 118.06049 L 100.46283 118.06049 L 100.6249 118.06049 L 100.78694 118.06049 L 100.94902 118.06049 L 101.11105 118.06049 L 101.27313 118.06049 L 101.43521 118.06049 L 101.59724 118.06049 L 101.75931 118.06049 L 101.92137 118.06049 L 102.08344 118.06049 L 102.2455 118.06049 L 102.40756 118.06049 L 102.56963 118.06049 L 102.73167 118.06049 L 102.89375 118.06049 L 103.05582 118.06049 L 103.21786 118.06049 L 103.37994 118.06049 L 103.54198 118.06049 L 103.70406 118.06049 L 103.86612 118.06049 L 104.02817 118.06049 L 104.19025 118.06049 L 104.35228 118.06049 L 104.51436 118.06049 L 104.67644 118.06049 L 104.83847 118.06049 L 105.00055 118.06049 L 105.1626 118.06049 L 105.32466 118.06049 L 105.48674 118.06049 L 105.64879 118.06049 L 105.81085 118.06049 L 105.9729 118.06049 L 106.13498 118.06049 L 106.29704 118.06049 L 106.45909 118.06049 L 106.62117 118.06049 L 106.7832 118.06049 L 106.94528 118.06049 L 107.10736 118.06049 L 107.2694 118.06049 L 107.43146 118.06049 L 107.59352 118.06049 L 107.75558 118.06049 L 107.91765 118.06049 L 108.0797 118.06049 L 108.24178 118.06049 L 108.40382 118.06049 L 108.56589 118.06049 L 108.72797 118.06049 L 108.89001 118.06049 L 109.05208 118.06049 L 109.21414 118.06049 L 109.3762 118.06049 L 109.53827 118.06049 L 109.70033 118.06049 L 109.8624 118.06049 L 110.02443 118.06049 L 110.18652 118.06049 L 110.34859 118.06049 L 110.51062 118.06049 L 110.67268 118.06049 L 110.83475 118.06049 L 110.99681 118.06049 L 111.15887 118.06049 L 111.32094 118.06049 L 111.483 118.06049 L 111.64505 118.06049 L 111.80713 118.06049 L 111.9692 118.06049 L 112.13124 118.06049 L 112.29332 118.06049 L 112.45535 118.06049 L 112.61743 118.06049 L 112.7795 118.06049 L 112.94154 118.06049 L 113.10362 118.06049 L 113.33154 118.06049 L 113.33154 28.39465 L 113.10362 28.39465 L 112.94154 28.39465 L 112.7795 28.39465 L 112.61743 28.39465 L 112.45535 28.39465 L 112.29332 28.39465 L 112.13124 28.39465 L 111.9692 28.39465 L 111.80713 28.39465 L 111.64505 28.39465 L 111.483 28.39465 L 111.32094 28.39465 L 111.15887 28.39465 L 110.99681 28.39465 L 110.83475 28.39465 L 110.67268 28.39465 L 110.51062 28.39465 L 110.34859 28.39465 L 110.18652 28.39465 L 110.02443 28.39465 L 109.8624 28.39465 L 109.70033 28.39465 L 109.53827 28.39465 L 109.3762 28.39465 L 109.21414 28.39465 L 109.05208 28.39465 L 108.89001 28.39465 L 108.72797 28.39465 L 108.56589 28.39465 L 108.40382 28.39465 L 108.24178 28.39465 L 108.0797 28.39465 L 107.91765 28.39465 L 107.75558 28.39465 L 107.59352 28.39465 L 107.43146 28.39465 L 107.2694 28.39465 L 107.10736 28.39465 L 106.94528 28.39465 L 106.7832 28.39465 L 106.62117 28.39465 L 106.45909 28.39465 L 106.29704 28.39465 L 106.13498 28.39465 L 105.9729 28.39465 L 105.81085 28.39465 L 105.64879 28.39465 L 105.48674 28.39465 L 105.32466 28.39465 L 105.1626 28.39465 L 105.00055 28.39465 L 104.83847 28.39465 L 104.67644 28.39465 L 104.51436 28.39465 L 104.35228 28.39465 L 104.19025 28.39465 L 104.02817 28.39465 L 103.86612 28.39465 L 103.70406 28.39465 L 103.54198 28.39465 L 103.37994 28.39465 L 103.21786 28.39465 L 103.05582 28.39465 L 102.89375 28.39465 L 102.73167 28.39465 L 102.56963 28.39465 L 102.40756 28.39465 L 102.2455 28.39465 L 102.08344 28.39465 L 101.92137 28.39465 L 101.75931 28.39465 L 101.59724 28.39465 L 101.43521 28.39465 L 101.27313 28.39465 L 101.11105 28.39465 L 100.94902 28.39465 L 100.78694 28.39465 L 100.6249 28.39465 L 100.46283 28.39465 L 100.30077 28.39465 L 100.1387 28.39465 L 99.97664 28.39465 L 99.81459 28.39465 L 99.65251 28.39465 L 99.49045 28.39465 L 99.3284 28.39465 L 99.16632 28.39465 L 99.00427 28.39465 L 98.84221 28.39465 L 98.68015 28.39465 L 98.51808 28.39465 L 98.35602 28.39465 L 98.19398 28.39465 L 98.03189 28.39465 L 97.86983 28.39465 L 97.7078 28.39465 L 97.5457 28.39465 L 97.38367 28.39465 L 97.2216 28.39465 L 97.05952 28.39465 L 97.14142 28.39465 Z " fill="#0000ff" fill-opacity=".3"/>
</g>
<clipPath id="cp1">
<path transform="matrix(2.7777777,0,0,-2.7777777,10.330556,484.75834)" d="M 0 0 L 194.28115 0 L 194.28115 161.39621 L 0 161.39621 Z "/>
</clipPath>
<g clip-path="url(#cp1)">
<path transform="matrix(2.7777777,0,0,-2.7777777,10.330556,484.75834)" d="M 113.33223 28.39595 L 113.42773 28.57225 L 113.58981 28.87143 L 113.75185 29.1706 L 113.91393 29.46977 L 114.07597 29.76895 L 114.23804 30.06813 L 114.40012 30.36736 L 114.56216 30.66649 L 114.72423 30.96571 L 114.88628 31.26483 L 115.04836 31.56407 L 115.21042 31.86325 L 115.37247 32.16243 L 115.53455 32.4616 L 115.69658 32.76077 L 115.85866 33.05997 L 116.02074 33.35918 L 116.18277 33.65831 L 116.34485 33.95753 L 116.5069 34.25667 L 116.66896 34.5559 L 116.83102 34.85507 L 116.99309 35.15425 L 117.15515 35.45343 L 117.3172 35.7526 L 117.47926 36.05179 L 117.64134 36.35101 L 117.80339 36.65013 L 117.96545 36.94936 L 118.12752 37.24849 L 118.28958 37.54773 L 118.45164 37.8469 L 118.61371 38.14607 L 118.77577 38.44525 L 118.9378 38.74443 L 119.0999 39.04361 L 119.26196 39.34283 L 119.424 39.64197 L 119.58607 39.94118 L 119.74812 40.24031 L 119.91019 40.53955 L 120.07225 40.83873 L 120.23431 41.1379 L 120.39638 41.43707 L 120.55843 41.7362 L 120.7205 42.03545 L 120.88257 42.33466 L 121.04462 42.63379 L 121.2067 42.93301 L 121.36874 43.23213 L 121.5308 43.53133 L 121.69287 43.83055 L 121.85492 44.12968 L 122.017 44.4289 L 122.17903 44.72803 L 122.34111 45.02727 L 122.50319 45.32645 L 122.66522 45.62561 L 122.8273 45.92479 L 122.98935 46.22397 L 123.15141 46.52315 L 123.31349 46.82237 L 123.47554 47.1215 L 123.6376 47.42073 L 123.79965 47.71985 L 123.96173 48.01909 L 124.1238 48.31827 L 124.28584 48.61745 L 124.44792 48.91661 L 124.60997 49.21579 L 124.77203 49.51498 L 124.93411 49.8142 L 125.09615 50.11333 L 125.25822 50.41255 L 125.42027 50.71169 L 125.58234 51.01091 L 125.74442 51.31009 L 125.90646 51.60927 L 126.06853 51.90845 L 126.23058 52.20761 L 126.39264 52.5068 L 126.55472 52.80603 L 126.71677 53.10515 L 126.87883 53.40437 L 127.0409 53.7035 L 127.20296 54.00275 L 127.36502 54.30191 L 127.52708 54.60109 L 127.68915 54.90027 L 127.85118 55.19945 L 128.01328 55.49863 L 128.17534 55.7978 L 128.33737 56.09698 L 128.49945 56.3962 L 128.6615 56.69533 L 128.82357 56.99457 L 128.98564 57.29375 L 129.14769 57.59286 L 129.30976 57.89209 L 129.4718 58.19122 L 129.63388 58.49045 L 129.79595 58.78963 L 129.958 59.0888 L 130.12007 59.38799 L 130.28212 59.68715 L 130.44419 59.98634 L 130.60625 60.28557 L 130.76831 60.5847 L 130.93038 60.88391 L 131.0924 61.18304 L 131.2545 61.48228 L 131.41657 61.78145 L 131.5786 62.08063 L 131.74068 62.3798 L 131.90273 62.67899 L 132.06479 62.97816 L 132.22687 63.27739 L 132.38892 63.57652 L 132.55098 63.87575 L 132.71305 64.17487 L 132.8751 64.4741 L 133.03717 64.77328 L 133.19922 65.07245 L 133.3613 65.37163 L 133.52335 65.6708 L 133.68541 65.97 L 133.84749 66.26921 L 134.00954 66.56834 L 134.1716 66.86757 L 134.33365 67.1667 L 134.49573 67.46593 L 134.65779 67.7651 L 134.81984 68.06429 L 134.9819 68.36345 L 135.14395 68.66263 L 135.30602 68.96182 L 135.4681 69.26105 L 135.63014 69.56017 L 135.7922 69.85939 L 135.95427 70.15852 L 136.11634 70.45776 L 136.2784 70.75693 L 136.44046 71.0561 L 136.60253 71.35529 L 136.76456 71.65445 L 136.92665 71.95364 L 137.08872 72.25287 L 137.25075 72.552 L 137.41283 72.85121 L 137.57488 73.15034 L 137.73694 73.44954 L 137.89902 73.74876 L 138.06107 74.04788 L 138.22313 74.3471 L 138.38518 74.64624 L 138.54726 74.94547 L 138.70932 75.24464 L 138.87137 75.54382 L 139.03345 75.843 L 139.1955 76.14217 L 139.35756 76.44136 L 139.51963 76.74059 L 139.68169 77.03972 L 139.84375 77.33893 L 140.00579 77.63806 L 140.16788 77.9373 L 140.32994 78.23647 L 140.49198 78.53564 L 140.65407 78.83482 L 140.8161 79.134 L 140.97817 79.43318 L 141.14025 79.7324 L 141.30229 80.03154 L 141.46436 80.33076 L 141.62642 80.62988 L 141.78849 80.92912 L 141.95055 81.2283 L 142.1126 81.52747 L 142.27468 81.82664 L 142.43672 82.12582 L 142.59879 82.42502 L 142.76087 82.72423 L 142.92292 83.02336 L 143.08498 83.32259 L 143.24703 83.62172 L 143.4091 83.92094 L 143.57117 84.22012 L 143.73322 84.5193 L 143.8953 84.81847 L 144.05733 85.11765 L 144.21939 85.41684 L 144.38147 85.71602 L 144.54352 86.01518 L 144.70558 86.31436 L 144.86765 86.61354 L 145.02971 86.91278 L 145.19178 87.21194 L 145.35384 87.51108 L 145.5159 87.8103 L 145.67795 88.10942 L 145.84003 88.40866 L 146.00209 88.70784 L 146.16413 89.00702 L 146.3262 89.30618 L 146.48825 89.60536 L 146.65032 89.90456 L 146.8124 90.20378 L 146.97444 90.5029 L 147.1365 90.80212 L 147.29856 91.10126 L 147.46063 91.40048 L 147.6227 91.69966 L 147.78475 91.99884 L 147.94683 92.29802 L 148.10887 92.59718 L 148.27094 92.89638 L 148.433 93.1956 L 148.59506 93.49474 L 148.75713 93.79395 L 148.91918 94.09308 L 149.08126 94.39232 L 149.24332 94.69148 L 149.40535 94.99066 L 149.56745 95.28984 L 149.72948 95.58902 L 149.89154 95.8882 L 150.05364 96.18742 L 150.21567 96.48656 L 150.37773 96.78578 L 150.5398 97.0849 L 150.70186 97.38414 L 150.86392 97.68332 L 151.02597 97.98248 L 151.18805 98.28166 L 151.3501 98.58084 L 151.51216 98.88004 L 151.67424 99.17924 L 151.83629 99.47838 L 151.99835 99.7776 L 152.1604 100.07674 L 152.32248 100.37596 L 152.48455 100.67514 L 152.64659 100.97432 L 152.80867 101.27348 L 152.9707 101.57266 L 153.13277 101.87186 L 153.29486 102.17104 L 153.4569 102.4702 L 153.61896 102.76942 L 153.78102 103.06856 L 153.94309 103.36775 L 154.10515 103.66696 L 154.26721 103.9661 L 154.42928 104.26532 L 154.59133 104.56444 L 154.7534 104.86368 L 154.91547 105.16286 L 155.07752 105.46204 L 155.23958 105.7612 L 155.40163 106.06038 L 155.5637 106.35957 L 155.72577 106.65878 L 155.88782 106.95792 L 156.04988 107.25714 L 156.21193 107.55627 L 156.37401 107.8555 L 156.53607 108.15468 L 156.69812 108.45386 L 156.8602 108.75304 L 157.02225 109.0522 L 157.18431 109.3514 L 157.34639 109.65062 L 157.50844 109.94975 L 157.6705 110.24896 L 157.83255 110.5481 L 157.99463 110.84734 L 158.1567 111.1465 L 158.31874 111.44568 L 158.48082 111.74486 L 158.64286 112.04404 L 158.80493 112.34322 L 158.96701 112.64244 L 159.12905 112.94157 L 159.2911 113.24078 L 159.45317 113.53992 L 159.61524 113.83916 L 159.7773 114.13834 L 159.93935 114.4375 L 160.10143 114.73668 L 160.26348 115.03586 L 160.42554 115.33505 L 160.58762 115.63422 L 160.74967 115.9334 L 160.91173 116.23257 L 161.07378 116.53174 L 161.23586 116.83093 L 161.39792 117.13016 L 161.55997 117.42934 L 161.72205 117.7285 L 161.90207 118.06084 L 161.90187 118.06049 L 161.72205 118.06049 L 161.55997 118.06049 L 161.39792 118.06049 L 161.23586 118.06049 L 161.07378 118.06049 L 160.91173 118.06049 L 160.74967 118.06049 L 160.58762 118.06049 L 160.42554 118.06049 L 160.26348 118.06049 L 160.10143 118.06049 L 159.93935 118.06049 L 159.7773 118.06049 L 159.61524 118.06049 L 159.45317 118.06049 L 159.2911 118.06049 L 159.12905 118.06049 L 158.96701 118.06049 L 158.80493 118.06049 L 158.64286 118.06049 L 158.48082 118.06049 L 158.31874 118.06049 L 158.1567 118.06049 L 157.99463 118.06049 L 157.83255 118.06049 L 157.6705 118.06049 L 157.50844 118.06049 L 157.34639 118.06049 L 157.18431 118.06049 L 157.02225 118.06049 L 156.8602 118.06049 L 156.69812 118.06049 L 156.53607 118.06049 L 156.37401 118.06049 L 156.21193 118.06049 L 156.04988 118.06049 L 155.88782 118.06049 L 155.72577 118.06049 L 155.5637 118.06049 L 155.40163 118.06049 L 155.23958 118.06049 L 155.07752 118.06049 L 154.91547 118.06049 L 154.7534 118.06049 L 154.59133 118.06049 L 154.42928 118.06049 L 154.26721 118.06049 L 154.10515 118.06049 L 153.94309 118.06049 L 153.78102 118.06049 L 153.61896 118.06049 L 153.4569 118.06049 L 153.29486 118.06049 L 153.13277 118.06049 L 152.9707 118.06049 L 152.80867 118.06049 L 152.64659 118.06049 L 152.48455 118.06049 L 152.32248 118.06049 L 152.1604 118.06049 L 151.99835 118.06049 L 151.83629 118.06049 L 151.67424 118.06049 L 151.51216 118.06049 L 151.3501 118.06049 L 151.18805 118.06049 L 151.02597 118.06049 L 150.86392 118.06049 L 150.70186 118.06049 L 150.5398 118.06049 L 150.37773 118.06049 L 150.21567 118.06049 L 150.05364 118.06049 L 149.89154 118.06049 L 149.72948 118.06049 L 149.56745 118.06049 L 149.40535 118.06049 L 149.24332 118.06049 L 149.08126 118.06049 L 148.91918 118.06049 L 148.75713 118.06049 L 148.59506 118.06049 L 148.433 118.06049 L 148.27094 118.06049 L 148.10887 118.06049 L 147.94683 118.06049 L 147.78475 118.06049 L 147.6227 118.06049 L 147.46063 118.06049 L 147.29856 118.06049 L 147.1365 118.06049 L 146.97444 118.06049 L 146.8124 118.06049 L 146.65032 118.06049 L 146.48825 118.06049 L 146.3262 118.06049 L 146.16413 118.06049 L 146.00209 118.06049 L 145.84003 118.06049 L 145.67795 118.06049 L 145.5159 118.06049 L 145.35384 118.06049 L 145.19178 118.06049 L 145.02971 118.06049 L 144.86765 118.06049 L 144.70558 118.06049 L 144.54352 118.06049 L 144.38147 118.06049 L 144.21939 118.06049 L 144.05733 118.06049 L 143.8953 118.06049 L 143.73322 118.06049 L 143.57117 118.06049 L 143.4091 118.06049 L 143.24703 118.06049 L 143.08498 118.06049 L 142.92292 118.06049 L 142.76087 118.06049 L 142.59879 118.06049 L 142.43672 118.06049 L 142.27468 118.06049 L 142.1126 118.06049 L 141.95055 118.06049 L 141.78849 118.06049 L 141.62642 118.06049 L 141.46436 118.06049 L 141.30229 118.06049 L 141.14025 118.06049 L 140.97817 118.06049 L 140.8161 118.06049 L 140.65407 118.06049 L 140.49198 118.06049 L 140.32994 118.06049 L 140.16788 118.06049 L 140.00579 118.06049 L 139.84375 118.06049 L 139.68169 118.06049 L 139.51963 118.06049 L 139.35756 118.06049 L 139.1955 118.06049 L 139.03345 118.06049 L 138.87137 118.06049 L 138.70932 118.06049 L 138.54726 118.06049 L 138.38518 118.06049 L 138.22313 118.06049 L 138.06107 118.06049 L 137.89902 118.06049 L 137.73694 118.06049 L 137.57488 118.06049 L 137.41283 118.06049 L 137.25075 118.06049 L 137.08872 118.06049 L 136.92665 118.06049 L 136.76456 118.06049 L 136.60253 118.06049 L 136.44046 118.06049 L 136.2784 118.06049 L 136.11634 118.06049 L 135.95427 118.06049 L 135.7922 118.06049 L 135.63014 118.06049 L 135.4681 118.06049 L 135.30602 118.06049 L 135.14395 118.06049 L 134.9819 118.06049 L 134.81984 118.06049 L 134.65779 118.06049 L 134.49573 118.06049 L 134.33365 118.06049 L 134.1716 118.06049 L 134.00954 118.06049 L 133.84749 118.06049 L 133.68541 118.06049 L 133.52335 118.06049 L 133.3613 118.06049 L 133.19922 118.06049 L 133.03717 118.06049 L 132.8751 118.06049 L 132.71305 118.06049 L 132.55098 118.06049 L 132.38892 118.06049 L 132.22687 118.06049 L 132.06479 118.06049 L 131.90273 118.06049 L 131.74068 118.06049 L 131.5786 118.06049 L 131.41657 118.06049 L 131.2545 118.06049 L 131.0924 118.06049 L 130.93038 118.06049 L 130.76831 118.06049 L 130.60625 118.06049 L 130.44419 118.06049 L 130.28212 118.06049 L 130.12007 118.06049 L 129.958 118.06049 L 129.79595 118.06049 L 129.63388 118.06049 L 129.4718 118.06049 L 129.30976 118.06049 L 129.14769 118.06049 L 128.98564 118.06049 L 128.82357 118.06049 L 128.6615 118.06049 L 128.49945 118.06049 L 128.33737 118.06049 L 128.17534 118.06049 L 128.01328 118.06049 L 127.85118 118.06049 L 127.68915 118.06049 L 127.52708 118.06049 L 127.36502 118.06049 L 127.20296 118.06049 L 127.0409 118.06049 L 126.87883 118.06049 L 126.71677 118.06049 L 126.55472 118.06049 L 126.39264 118.06049 L 126.23058 118.06049 L 126.06853 118.06049 L 125.90646 118.06049 L 125.74442 118.06049 L 125.58234 118.06049 L 125.42027 118.06049 L 125.25822 118.06049 L 125.09615 118.06049 L 124.93411 118.06049 L 124.77203 118.06049 L 124.60997 118.06049 L 124.44792 118.06049 L 124.28584 118.06049 L 124.1238 118.06049 L 123.96173 118.06049 L 123.79965 118.06049 L 123.6376 118.06049 L 123.47554 118.06049 L 123.31349 118.06049 L 123.15141 118.06049 L 122.98935 118.06049 L 122.8273 118.06049 L 122.66522 118.06049 L 122.50319 118.06049 L 122.34111 118.06049 L 122.17903 118.06049 L 122.017 118.06049 L 121.85492 118.06049 L 121.69287 118.06049 L 121.5308 118.06049 L 121.36874 118.06049 L 121.2067 118.06049 L 121.04462 118.06049 L 120.88257 118.06049 L 120.7205 118.06049 L 120.55843 118.06049 L 120.39638 118.06049 L 120.23431 118.06049 L 120.07225 118.06049 L 119.91019 118.06049 L 119.74812 118.06049 L 119.58607 118.06049 L 119.424 118.06049 L 119.26196 118.06049 L 119.0999 118.06049 L 118.9378 118.06049 L 118.77577 118.06049 L 118.61371 118.06049 L 118.45164 118.06049 L 118.28958 118.06049 L 118.12752 118.06049 L 117.96545 118.06049 L 117.80339 118.06049 L 117.64134 118.06049 L 117.47926 118.06049 L 117.3172 118.06049 L 117.15515 118.06049 L 116.99309 118.06049 L 116.83102 118.06049 L 116.66896 118.06049 L 116.5069 118.06049 L 116.34485 118.06049 L 116.18277 118.06049 L 116.02074 118.06049 L 115.85866 118.06049 L 115.69658 118.06049 L 115.53455 118.06049 L 115.37247 118.06049 L 115.21042 118.06049 L 115.04836 118.06049 L 114.88628 118.06049 L 114.72423 118.06049 L 114.56216 118.06049 L 114.40012 118.06049 L 114.23804 118.06049 L 114.07597 118.06049 L 113.91393 118.06049 L 113.75185 118.06049 L 113.58981 118.06049 L 113.42773 118.06049 L 113.26566 118.06049 L 113.33154 118.06049 Z " fill="#0000ff" fill-opacity=".3"/>
</g>
<clipPath id="cp2">
<path transform="matrix(2.7777777,0,0,-2.7777777,10.330556,484.75834)" d="M 0 0 L 194.28115 0 L 194.28115 161.39621 L 0 161.39621 Z "/>
</clipPath>
<g clip-path="url(#cp2)">
<path transform="matrix(2.7777777,0,0,-2.7777777,10.330556,484.75834)" stroke-width=".79701" stroke-linecap="butt" stroke-miterlimit="10" stroke-linejoin="miter" fill="none" stroke="#ff8000" d="M 16.1909 -150.93698 L 16.35295 -150.63782 L 16.51501 -150.33864 L 16.67708 -150.03946 L 16.83914 -149.74028 L 17.0012 -149.4411 L 17.16327 -149.14188 L 17.32532 -148.8427 L 17.4874 -148.54352 L 17.64944 -148.24436 L 17.81151 -147.94516 L 17.97357 -147.64598 L 18.13564 -147.34682 L 18.29768 -147.04764 L 18.45975 -146.74846 L 18.62183 -146.44927 L 18.78387 -146.1501 L 18.94594 -145.85092 L 19.108 -145.5517 L 19.27007 -145.25252 L 19.43211 -144.95334 L 19.5942 -144.65416 L 19.75624 -144.35498 L 19.9183 -144.05582 L 20.08038 -143.75664 L 20.24243 -143.45745 L 20.4045 -143.15827 L 20.56656 -142.8591 L 20.72862 -142.55988 L 20.89067 -142.2607 L 21.05273 -141.9615 L 21.2148 -141.66234 L 21.37686 -141.36316 L 21.53891 -141.06398 L 21.70099 -140.76482 L 21.86305 -140.46562 L 22.0251 -140.16645 L 22.18718 -139.86727 L 22.34923 -139.5681 L 22.51129 -139.26888 L 22.67336 -138.96968 L 22.83542 -138.6705 L 22.99747 -138.37134 L 23.15953 -138.07216 L 23.3216 -137.77298 L 23.48366 -137.4738 L 23.64572 -137.17462 L 23.80779 -136.87545 L 23.96985 -136.57627 L 24.1319 -136.2771 L 24.29398 -135.9779 L 24.45602 -135.67873 L 24.61809 -135.3795 L 24.78015 -135.08034 L 24.94221 -134.78116 L 25.10426 -134.48197 L 25.26633 -134.1828 L 25.4284 -133.88362 L 25.59045 -133.58444 L 25.75252 -133.28527 L 25.91458 -132.98609 L 26.07664 -132.6869 L 26.2387 -132.38768 L 26.40077 -132.0885 L 26.56282 -131.78934 L 26.72488 -131.49015 L 26.88696 -131.19097 L 27.04901 -130.8918 L 27.21107 -130.59262 L 27.37312 -130.29344 L 27.5352 -129.99425 L 27.69725 -129.69509 L 27.85931 -129.3959 L 28.02138 -129.09673 L 28.18344 -128.7975 L 28.34549 -128.49832 L 28.50757 -128.19915 L 28.66963 -127.89996 L 28.83168 -127.6008 L 28.99376 -127.30162 L 29.1558 -127.00243 L 29.31787 -126.70325 L 29.47993 -126.40408 L 29.642 -126.1049 L 29.80405 -125.80568 L 29.96611 -125.50648 L 30.12817 -125.20732 L 30.29024 -124.90814 L 30.4523 -124.60896 L 30.61436 -124.3098 L 30.77643 -124.0106 L 30.93848 -123.71143 L 31.10056 -123.41225 L 31.2626 -123.11308 L 31.42467 -122.8139 L 31.58673 -122.51471 L 31.7488 -122.21548 L 31.91084 -121.91632 L 32.0729 -121.61714 L 32.23499 -121.31796 L 32.39703 -121.01878 L 32.5591 -120.7196 L 32.72116 -120.42043 L 32.88322 -120.12125 L 33.04527 -119.82208 L 33.20735 -119.52289 L 33.36942 -119.22366 L 33.53146 -118.92453 L 33.69354 -118.62532 L 33.85558 -118.32619 L 34.01765 -118.02695 L 34.17972 -117.72778 L 34.34177 -117.4286 L 34.50383 -117.12943 L 34.66588 -116.83025 L 34.82796 -116.53107 L 34.99002 -116.23184 L 35.15207 -115.93271 L 35.31415 -115.63348 L 35.4762 -115.33437 L 35.63826 -115.03513 L 35.80034 -114.73595 L 35.96239 -114.43678 L 36.12445 -114.1376 L 36.28651 -113.83842 L 36.44858 -113.53923 L 36.61064 -113.24002 L 36.77269 -112.94089 L 36.93477 -112.64166 L 37.0968 -112.34253 L 37.25888 -112.0433 L 37.42096 -111.74413 L 37.583 -111.44495 L 37.74506 -111.14578 L 37.90712 -110.8466 L 38.06918 -110.54741 L 38.23125 -110.24818 L 38.39331 -109.94907 L 38.55537 -109.64984 L 38.71742 -109.35071 L 38.87949 -109.05148 L 39.04156 -108.7523 L 39.20361 -108.45313 L 39.36568 -108.15395 L 39.52773 -107.85483 L 39.6898 -107.55559 L 39.85187 -107.25636 L 40.01392 -106.95723 L 40.176 -106.65807 L 40.33803 -106.35889 L 40.5001 -106.0597 L 40.66219 -105.76048 L 40.82422 -105.46135 L 40.98628 -105.16212 L 41.14835 -104.86299 L 41.31041 -104.56377 L 41.47247 -104.26459 L 41.63454 -103.96541 L 41.7966 -103.66623 L 41.95865 -103.36707 L 42.12073 -103.06787 L 42.28279 -102.76865 L 42.44484 -102.46951 L 42.60692 -102.1703 L 42.76895 -101.87117 L 42.93103 -101.57193 L 43.0931 -101.27277 L 43.25514 -100.97359 L 43.41722 -100.67441 L 43.57925 -100.37523 L 43.74133 -100.07605 L 43.9034 -99.77682 L 44.06544 -99.47769 L 44.22752 -99.17848 L 44.38957 -98.87935 L 44.55164 -98.58011 L 44.71371 -98.28093 L 44.87576 -97.98177 L 45.03783 -97.68259 L 45.19989 -97.3834 L 45.36195 -97.08421 L 45.52402 -96.785 L 45.68607 -96.48587 L 45.84814 -96.18665 L 46.01018 -95.88753 L 46.17226 -95.58829 L 46.33434 -95.28911 L 46.49637 -94.98993 L 46.65845 -94.69077 L 46.8205 -94.39159 L 46.98256 -94.09239 L 47.14462 -93.79317 L 47.30669 -93.49405 L 47.46875 -93.19482 L 47.6308 -92.89569 L 47.79286 -92.59647 L 47.95494 -92.29729 L 48.11699 -91.99815 L 48.27905 -91.69893 L 48.44112 -91.39981 L 48.60318 -91.10057 L 48.76524 -90.80139 L 48.92729 -90.50221 L 49.08937 -90.20305 L 49.2514 -89.90387 L 49.41348 -89.60468 L 49.57556 -89.30547 L 49.7376 -89.00633 L 49.89966 -88.7071 L 50.06172 -88.40797 L 50.22379 -88.10875 L 50.38585 -87.80957 L 50.54791 -87.51039 L 50.70998 -87.21121 L 50.87202 -86.91205 L 51.0341 -86.61285 L 51.19617 -86.31363 L 51.35822 -86.01451 L 51.5203 -85.71529 L 51.68234 -85.41615 L 51.8444 -85.11691 L 52.00647 -84.81775 L 52.16852 -84.51857 L 52.3306 -84.21939 L 52.49263 -83.92021 L 52.65471 -83.62103 L 52.81679 -83.32181 L 52.97882 -83.02267 L 53.1409 -82.72346 L 53.30295 -82.42433 L 53.46501 -82.12509 L 53.62709 -81.82591 L 53.78914 -81.52675 L 53.9512 -81.22757 L 54.11327 -80.92839 L 54.27533 -80.6292 L 54.4374 -80.32999 L 54.59944 -80.03085 L 54.76152 -79.73163 L 54.92355 -79.43251 L 55.08563 -79.13327 L 55.24771 -78.83409 L 55.40974 -78.53491 L 55.57182 -78.23575 L 55.73387 -77.93661 L 55.89594 -77.63737 L 56.05801 -77.33815 L 56.22006 -77.03903 L 56.38213 -76.73985 L 56.54417 -76.44067 L 56.70624 -76.1415 L 56.86832 -75.84227 L 57.03036 -75.54314 L 57.19243 -75.24391 L 57.35449 -74.9448 L 57.51656 -74.64555 L 57.67862 -74.34637 L 57.84068 -74.0472 L 58.00275 -73.74803 L 58.16478 -73.44885 L 58.32687 -73.14966 L 58.48894 -72.85045 L 58.65097 -72.55132 L 58.81303 -72.25209 L 58.9751 -71.95296 L 59.13716 -71.65373 L 59.29922 -71.35455 L 59.46129 -71.05537 L 59.62335 -70.7562 L 59.7854 -70.45703 L 59.94748 -70.15784 L 60.10954 -69.85861 L 60.27159 -69.5595 L 60.43367 -69.26027 L 60.59572 -68.96114 L 60.75778 -68.6619 L 60.91986 -68.36273 L 61.08191 -68.06355 L 61.24397 -67.76437 L 61.406 -67.4652 L 61.5681 -67.16602 L 61.73016 -66.86679 L 61.8922 -66.56766 L 62.05428 -66.26845 L 62.21632 -65.96931 L 62.37839 -65.67007 L 62.54047 -65.3709 L 62.70251 -65.07173 L 62.86458 -64.77255 L 63.02664 -64.47337 L 63.1887 -64.17418 L 63.35077 -63.87502 L 63.51282 -63.57584 L 63.6749 -63.27661 L 63.83693 -62.9775 L 63.99901 -62.67825 L 64.16109 -62.37907 L 64.32312 -62.07994 L 64.4852 -61.78073 L 64.64725 -61.48155 L 64.80931 -61.18236 L 64.97139 -60.88318 L 65.13344 -60.58401 L 65.2955 -60.28484 L 65.45755 -59.98566 L 65.61961 -59.68648 L 65.7817 -59.38725 L 65.94374 -59.08812 L 66.1058 -58.7889 L 66.26787 -58.48978 L 66.42993 -58.19054 L 66.592 -57.89136 L 66.75406 -57.59218 L 66.91612 -57.29301 L 67.07816 -56.99384 L 67.24025 -56.69464 L 67.40231 -56.39543 L 67.56435 -56.0963 L 67.72643 -55.79707 L 67.88847 -55.49794 L 68.05054 -55.19872 L 68.2126 -54.89954 L 68.37466 -54.60036 L 68.53673 -54.30118 L 68.69878 -54.00201 L 68.86086 -53.70282 L 69.02292 -53.4036 L 69.18497 -53.10448 L 69.34705 -52.80525 L 69.5091 -52.50612 L 69.67116 -52.20688 L 69.83324 -51.90771 L 69.99529 -51.60854 L 70.15735 -51.30936 L 70.31938 -51.01018 L 70.48148 -50.711 L 70.64354 -50.41177 L 70.80557 -50.11264 L 70.96767 -49.81343 L 71.1297 -49.5143 L 71.29176 -49.21506 L 71.45384 -48.91588 L 71.61589 -48.61671 L 71.77795 -48.31754 L 71.94002 -48.0184 L 72.10208 -47.71918 L 72.26414 -47.41995 L 72.4262 -47.12082 L 72.58827 -46.82164 L 72.75032 -46.52248 L 72.91238 -46.22328 L 73.07446 -45.92406 L 73.2365 -45.62492 L 73.39857 -45.32571 L 73.56062 -45.02658 L 73.72269 -44.72734 L 73.88477 -44.42818 L 74.04681 -44.129 L 74.20888 -43.82982 L 74.37093 -43.53064 L 74.53299 -43.23146 L 74.69507 -42.93224 L 74.85712 -42.6331 L 75.01918 -42.33388 L 75.18124 -42.03476 L 75.3433 -41.73552 L 75.50537 -41.43634 L 75.66743 -41.13718 L 75.8295 -40.838 L 75.99155 -40.53882 L 76.15363 -40.23962 L 76.31569 -39.94041 L 76.47772 -39.64128 L 76.63982 -39.34206 L 76.80185 -39.04292 L 76.96391 -38.7437 L 77.12599 -38.44452 L 77.28804 -38.14534 L 77.4501 -37.84618 L 77.61215 -37.547 L 77.77423 -37.2478 L 77.9363 -36.94858 L 78.09834 -36.64946 L 78.26042 -36.35023 L 78.42247 -36.0511 L 78.58453 -35.75186 L 78.74661 -35.4527 L 78.90866 -35.15352 L 79.07072 -34.85434 L 79.23276 -34.55518 L 79.39485 -34.25598 L 79.55692 -33.9568 L 79.71895 -33.65762 L 79.88104 -33.35846 L 80.04308 -33.05928 L 80.20514 -32.76004 L 80.36723 -32.46086 L 80.52927 -32.16174 L 80.69133 -31.86252 L 80.8534 -31.56334 L 81.01546 -31.26416 L 81.17752 -30.96497 L 81.33957 -30.6658 L 81.50165 -30.3666 L 81.6637 -30.06746 L 81.82576 -29.76825 L 81.98784 -29.46904 L 82.14989 -29.16989 L 82.31195 -28.8707 L 82.474 -28.57153 L 82.63608 -28.27232 L 82.79814 -27.97314 L 82.96019 -27.67398 L 83.12225 -27.37477 L 83.2843 -27.07562 L 83.44637 -26.77643 L 83.60844 -26.47722 L 83.7705 -26.17807 L 83.93256 -25.87886 L 84.09462 -25.57971 L 84.25668 -25.2805 L 84.41875 -24.98132 L 84.58081 -24.68219 L 84.74287 -24.38298 L 84.90492 -24.08382 L 85.067 -23.7846 L 85.22906 -23.48543 L 85.39111 -23.18626 L 85.55319 -22.88705 L 85.71523 -22.5879 L 85.8773 -22.28871 L 86.03937 -21.9895 L 86.20142 -21.69035 L 86.36348 -21.39116 L 86.52553 -21.092 L 86.6876 -20.79279 L 86.84967 -20.49359 L 87.01172 -20.19444 L 87.1738 -19.89523 L 87.33585 -19.59608 L 87.49791 -19.29688 L 87.65999 -18.99768 L 87.82204 -18.69853 L 87.9841 -18.39932 L 88.14613 -18.10017 L 88.30823 -17.80096 L 88.47029 -17.50177 L 88.63232 -17.2026 L 88.79442 -16.90341 L 88.95645 -16.60426 L 89.11852 -16.30505 L 89.28061 -16.00584 L 89.44264 -15.70671 L 89.6047 -15.4075 L 89.76677 -15.10834 L 89.92883 -14.80914 L 90.0909 -14.50995 L 90.25294 -14.21078 L 90.41502 -13.91158 L 90.57707 -13.61244 L 90.73914 -13.31323 L 90.90121 -13.01402 L 91.06326 -12.71487 L 91.22533 -12.41568 L 91.38737 -12.11652 L 91.54945 -11.8173 L 91.71152 -11.51813 L 91.87357 -11.21896 L 92.03564 -10.91975 L 92.19768 -10.6206 L 92.35976 -10.32141 L 92.52182 -10.02223 L 92.68387 -9.72307 L 92.84593 -9.42386 L 93.008 -9.12473 L 93.17006 -8.82552 L 93.33212 -8.5263 L 93.49419 -8.22717 L 93.65625 -7.92796 L 93.8183 -7.6288 L 93.98038 -7.32959 L 94.14244 -7.03041 L 94.30449 -6.73125 L 94.46657 -6.43204 L 94.6286 -6.13289 L 94.79068 -5.8337 L 94.95274 -5.53448 L 95.11479 -5.23534 L 95.27687 -4.93614 L 95.4389 -4.63698 L 95.60098 -4.33777 L 95.76305 -4.03857 L 95.9251 -3.73943 L 96.08717 -3.44022 L 96.24922 -3.14107 L 96.41129 -2.84186 L 96.57336 -2.54266 L 96.73541 -2.24352 L 96.89748 -1.9443 L 97.05952 -1.64516 L 97.2216 -1.34595 L 97.38367 -1.04675 L 97.5457 -.74759 L 97.7078 -.4484 L 97.86983 -.14925 L 98.03189 .14995 L 98.19398 .44914 L 98.35602 .7483 L 98.51808 1.0475 L 98.68015 1.34666 L 98.84221 1.64586 L 99.00427 1.94505 L 99.16632 2.24422 L 99.3284 2.54343 L 99.49045 2.84256 L 99.65251 3.14177 L 99.81459 3.44098 L 99.97664 3.74013 L 100.1387 4.03932 L 100.30077 4.33849 L 100.46283 4.6377 L 100.6249 4.93686 L 100.78694 5.23602 L 100.94902 5.53522 L 101.11105 5.83438 L 101.27313 6.13358 L 101.43521 6.43277 L 101.59724 6.73193 L 101.75931 7.03113 L 101.92137 7.33028 L 102.08344 7.62949 L 102.2455 7.9287 L 102.40756 8.22784 L 102.56963 8.52704 L 102.73167 8.8262 L 102.89375 9.12541 L 103.05582 9.42459 L 103.21786 9.72375 L 103.37994 10.02296 L 103.54198 10.3221 L 103.70406 10.6213 L 103.86612 10.92052 L 104.02817 11.21968 L 104.19025 11.51886 L 104.35228 11.81802 L 104.51436 12.11723 L 104.67644 12.41643 L 104.83847 12.71558 L 105.00055 13.01479 L 105.1626 13.31393 L 105.32466 13.61313 L 105.48674 13.91234 L 105.64879 14.2115 L 105.81085 14.5107 L 105.9729 14.80984 L 106.13498 15.10905 L 106.29704 15.40825 L 106.45909 15.70741 L 106.62117 16.0066 L 106.7832 16.30576 L 106.94528 16.60497 L 107.10736 16.90416 L 107.2694 17.20332 L 107.43146 17.50252 L 107.59352 17.80168 L 107.75558 18.10088 L 107.91765 18.40007 L 108.0797 18.69923 L 108.24178 18.99844 L 108.40382 19.29758 L 108.56589 19.59679 L 108.72797 19.89597 L 108.89001 20.19511 L 109.05208 20.49432 L 109.21414 20.79347 L 109.3762 21.09268 L 109.53827 21.39188 L 109.70033 21.69104 L 109.8624 21.99023 L 110.02443 22.2894 L 110.18652 22.5886 L 110.34859 22.88779 L 110.51062 23.18695 L 110.67268 23.48615 L 110.83475 23.7853 L 110.99681 24.0845 L 111.15887 24.38371 L 111.32094 24.68286 L 111.483 24.98206 L 111.64505 25.28122 L 111.80713 25.58043 L 111.9692 25.87961 L 112.13124 26.17877 L 112.29332 26.47798 L 112.45535 26.77711 L 112.61743 27.07632 L 112.7795 27.37553 L 112.94154 27.6747 L 113.10362 27.97388 L 113.26566 28.27304 L 113.42773 28.57225 L 113.58981 28.87143 L 113.75185 29.1706 L 113.91393 29.46977 L 114.07597 29.76895 L 114.23804 30.06813 L 114.40012 30.36736 L 114.56216 30.66649 L 114.72423 30.96571 L 114.88628 31.26483 L 115.04836 31.56407 L 115.21042 31.86325 L 115.37247 32.16243 L 115.53455 32.4616 L 115.69658 32.76077 L 115.85866 33.05997 L 116.02074 33.35918 L 116.18277 33.65831 L 116.34485 33.95753 L 116.5069 34.25667 L 116.66896 34.5559 L 116.83102 34.85507 L 116.99309 35.15425 L 117.15515 35.45343 L 117.3172 35.7526 L 117.47926 36.05179 L 117.64134 36.35101 L 117.80339 36.65013 L 117.96545 36.94936 L 118.12752 37.24849 L 118.28958 37.54773 L 118.45164 37.8469 L 118.61371 38.14607 L 118.77577 38.44525 L 118.9378 38.74443 L 119.0999 39.04361 L 119.26196 39.34283 L 119.424 39.64197 L 119.58607 39.94118 L 119.74812 40.24031 L 119.91019 40.53955 L 120.07225 40.83873 L 120.23431 41.1379 L 120.39638 41.43707 L 120.55843 41.7362 L 120.7205 42.03545 L 120.88257 42.33466 L 121.04462 42.63379 L 121.2067 42.93301 L 121.36874 43.23213 L 121.5308 43.53133 L 121.69287 43.83055 L 121.85492 44.12968 L 122.017 44.4289 L 122.17903 44.72803 L 122.34111 45.02727 L 122.50319 45.32645 L 122.66522 45.62561 L 122.8273 45.92479 L 122.98935 46.22397 L 123.15141 46.52315 L 123.31349 46.82237 L 123.47554 47.1215 L 123.6376 47.42073 L 123.79965 47.71985 L 123.96173 48.01909 L 124.1238 48.31827 L 124.28584 48.61745 L 124.44792 48.91661 L 124.60997 49.21579 L 124.77203 49.51498 L 124.93411 49.8142 L 125.09615 50.11333 L 125.25822 50.41255 L 125.42027 50.71169 L 125.58234 51.01091 L 125.74442 51.31009 L 125.90646 51.60927 L 126.06853 51.90845 L 126.23058 52.20761 L 126.39264 52.5068 L 126.55472 52.80603 L 126.71677 53.10515 L 126.87883 53.40437 L 127.0409 53.7035 L 127.20296 54.00275 L 127.36502 54.30191 L 127.52708 54.60109 L 127.68915 54.90027 L 127.85118 55.19945 L 128.01328 55.49863 L 128.17534 55.7978 L 128.33737 56.09698 L 128.49945 56.3962 L 128.6615 56.69533 L 128.82357 56.99457 L 128.98564 57.29375 L 129.14769 57.59286 L 129.30976 57.89209 L 129.4718 58.19122 L 129.63388 58.49045 L 129.79595 58.78963 L 129.958 59.0888 L 130.12007 59.38799 L 130.28212 59.68715 L 130.44419 59.98634 L 130.60625 60.28557 L 130.76831 60.5847 L 130.93038 60.88391 L 131.0924 61.18304 L 131.2545 61.48228 L 131.41657 61.78145 L 131.5786 62.08063 L 131.74068 62.3798 L 131.90273 62.67899 L 132.06479 62.97816 L 132.22687 63.27739 L 132.38892 63.57652 L 132.55098 63.87575 L 132.71305 64.17487 L 132.8751 64.4741 L 133.03717 64.77328 L 133.19922 65.07245 L 133.3613 65.37163 L 133.52335 65.6708 L 133.68541 65.97 L 133.84749 66.26921 L 134.00954 66.56834 L 134.1716 66.86757 L 134.33365 67.1667 L 134.49573 67.46593 L 134.65779 67.7651 L 134.81984 68.06429 L 134.9819 68.36345 L 135.14395 68.66263 L 135.30602 68.96182 L 135.4681 69.26105 L 135.63014 69.56017 L 135.7922 69.85939 L 135.95427 70.15852 L 136.11634 70.45776 L 136.2784 70.75693 L 136.44046 71.0561 L 136.60253 71.35529 L 136.76456 71.65445 L 136.92665 71.95364 L 137.08872 72.25287 L 137.25075 72.552 L 137.41283 72.85121 L 137.57488 73.15034 L 137.73694 73.44954 L 137.89902 73.74876 L 138.06107 74.04788 L 138.22313 74.3471 L 138.38518 74.64624 L 138.54726 74.94547 L 138.70932 75.24464 L 138.87137 75.54382 L 139.03345 75.843 L 139.1955 76.14217 L 139.35756 76.44136 L 139.51963 76.74059 L 139.68169 77.03972 L 139.84375 77.33893 L 140.00579 77.63806 L 140.16788 77.9373 L 140.32994 78.23647 L 140.49198 78.53564 L 140.65407 78.83482 L 140.8161 79.134 L 140.97817 79.43318 L 141.14025 79.7324 L 141.30229 80.03154 L 141.46436 80.33076 L 141.62642 80.62988 L 141.78849 80.92912 L 141.95055 81.2283 L 142.1126 81.52747 L 142.27468 81.82664 L 142.43672 82.12582 L 142.59879 82.42502 L 142.76087 82.72423 L 142.92292 83.02336 L 143.08498 83.32259 L 143.24703 83.62172 L 143.4091 83.92094 L 143.57117 84.22012 L 143.73322 84.5193 L 143.8953 84.81847 L 144.05733 85.11765 L 144.21939 85.41684 L 144.38147 85.71602 L 144.54352 86.01518 L 144.70558 86.31436 L 144.86765 86.61354 L 145.02971 86.91278 L 145.19178 87.21194 L 145.35384 87.51108 L 145.5159 87.8103 L 145.67795 88.10942 L 145.84003 88.40866 L 146.00209 88.70784 L 146.16413 89.00702 L 146.3262 89.30618 L 146.48825 89.60536 L 146.65032 89.90456 L 146.8124 90.20378 L 146.97444 90.5029 L 147.1365 90.80212 L 147.29856 91.10126 L 147.46063 91.40048 L 147.6227 91.69966 L 147.78475 91.99884 L 147.94683 92.29802 L 148.10887 92.59718 L 148.27094 92.89638 L 148.433 93.1956 L 148.59506 93.49474 L 148.75713 93.79395 L 148.91918 94.09308 L 149.08126 94.39232 L 149.24332 94.69148 L 149.40535 94.99066 L 149.56745 95.28984 L 149.72948 95.58902 L 149.89154 95.8882 L 150.05364 96.18742 L 150.21567 96.48656 L 150.37773 96.78578 L 150.5398 97.0849 L 150.70186 97.38414 L 150.86392 97.68332 L 151.02597 97.98248 L 151.18805 98.28166 L 151.3501 98.58084 L 151.51216 98.88004 L 151.67424 99.17924 L 151.83629 99.47838 L 151.99835 99.7776 L 152.1604 100.07674 L 152.32248 100.37596 L 152.48455 100.67514 L 152.64659 100.97432 L 152.80867 101.27348 L 152.9707 101.57266 L 153.13277 101.87186 L 153.29486 102.17104 L 153.4569 102.4702 L 153.61896 102.76942 L 153.78102 103.06856 L 153.94309 103.36775 L 154.10515 103.66696 L 154.26721 103.9661 L 154.42928 104.26532 L 154.59133 104.56444 L 154.7534 104.86368 L 154.91547 105.16286 L 155.07752 105.46204 L 155.23958 105.7612 L 155.40163 106.06038 L 155.5637 106.35957 L 155.72577 106.65878 L 155.88782 106.95792 L 156.04988 107.25714 L 156.21193 107.55627 L 156.37401 107.8555 L 156.53607 108.15468 L 156.69812 108.45386 L 156.8602 108.75304 L 157.02225 109.0522 L 157.18431 109.3514 L 157.34639 109.65062 L 157.50844 109.94975 L 157.6705 110.24896 L 157.83255 110.5481 L 157.99463 110.84734 L 158.1567 111.1465 L 158.31874 111.44568 L 158.48082 111.74486 L 158.64286 112.04404 L 158.80493 112.34322 L 158.96701 112.64244 L 159.12905 112.94157 L 159.2911 113.24078 L 159.45317 113.53992 L 159.61524 113.83916 L 159.7773 114.13834 L 159.93935 114.4375 L 160.10143 114.73668 L 160.26348 115.03586 L 160.42554 115.33505 L 160.58762 115.63422 L 160.74967 115.9334 L 160.91173 116.23257 L 161.07378 116.53174 L 161.23586 116.83093 L 161.39792 117.13016 L 161.55997 117.42934 L 161.72205 117.7285 L 161.88408 118.02763 L 162.04615 118.32687 L 162.20824 118.62605 L 162.37027 118.92522 L 162.53234 119.2244 L 162.6944 119.52357 L 162.85646 119.82275 L 163.01853 120.12198 L 163.18059 120.42111 L 163.34265 120.72034 L 163.5047 121.01945 L 163.66678 121.3187 L 163.82884 121.61787 L 163.99089 121.91705 L 164.15296 122.21622 L 164.315 122.5154 L 164.47708 122.81459 L 164.63915 123.1138 L 164.8012 123.41293 L 164.96327 123.71216 L 165.1253 124.01129 L 165.28739 124.31052 L 165.44945 124.6097 L 165.6115 124.90887 L 165.77358 125.20805 L 165.93563 125.50722 L 166.09769 125.80641 L 166.25977 126.10564 L 166.42182 126.40475 L 166.58388 126.70398 L 166.74593 127.00311 L 166.908 127.30235 L 167.07007 127.60152 L 167.23212 127.9007 L 167.3942 128.19988 L 167.55623 128.49906 L 167.7183 128.79824 L 167.88039 129.09746 L 168.04242 129.39659 L 168.2045 129.6958 L 168.36655 129.99494 L 168.52861 130.29418 L 168.69068 130.59336 L 168.85272 130.89252 L 169.0148 131.1917 L 169.17685 131.49088 L 169.33892 131.79007 L 169.50099 132.08924 L 169.66304 132.38842 L 169.8251 132.68764 L 169.98717 132.98676 L 170.14923 133.28595 L 170.3113 133.58518 L 170.47335 133.88431 L 170.63542 134.18352 L 170.79746 134.48265 L 170.95952 134.78189 L 171.12162 135.08107 L 171.28365 135.38024 L 171.44571 135.67942 L 171.60778 135.97859 L 171.76984 136.27777 L 171.9319 136.577 L 172.09397 136.87613 L 172.25603 137.17536 L 172.41808 137.47447 L 172.58016 137.77371 L 172.74222 138.07289 L 172.90427 138.37207 L 173.06635 138.67124 L 173.2284 138.97042 L 173.39046 139.2696 L 173.55252 139.56882 L 173.71457 139.86795 L 173.87665 140.16718 L 174.03868 140.46631 L 174.20076 140.76554 L 174.36284 141.06472 L 174.52487 141.36389 L 174.68695 141.66307 L 174.849 141.96224 L 175.01107 142.26143 L 175.17314 142.56066 L 175.33519 142.85977 L 175.49726 143.159 L 175.6593 143.45813 L 175.82138 143.75737 L 175.98345 144.05654 L 176.1455 144.35572 L 176.30757 144.65489 L 176.4696 144.95407 L 176.63169 145.25325 L 176.79376 145.55243 L 176.9558 145.85161 L 177.11788 146.15077 L 177.27993 146.44995 L 177.44199 146.74919 L 177.60407 147.04837 L 177.7661 147.34754 L 177.92818 147.64672 L 178.09023 147.94585 "/>
<path transform="matrix(2.7777777,0,0,-2.7777777,10.330556,484.75834)" stroke-width=".79701" stroke-linecap="butt" stroke-miterlimit="10" stroke-linejoin="miter" fill="none" stroke="#fff200" d="M 16.1909 28.39465 L 16.35295 28.39465 L 16.51501 28.39465 L 16.67708 28.39465 L 16.83914 28.39465 L 17.0012 28.39465 L 17.16327 28.39465 L 17.32532 28.39465 L 17.4874 28.39465 L 17.64944 28.39465 L 17.81151 28.39465 L 17.97357 28.39465 L 18.13564 28.39465 L 18.29768 28.39465 L 18.45975 28.39465 L 18.62183 28.39465 L 18.78387 28.39465 L 18.94594 28.39465 L 19.108 28.39465 L 19.27007 28.39465 L 19.43211 28.39465 L 19.5942 28.39465 L 19.75624 28.39465 L 19.9183 28.39465 L 20.08038 28.39465 L 20.24243 28.39465 L 20.4045 28.39465 L 20.56656 28.39465 L 20.72862 28.39465 L 20.89067 28.39465 L 21.05273 28.39465 L 21.2148 28.39465 L 21.37686 28.39465 L 21.53891 28.39465 L 21.70099 28.39465 L 21.86305 28.39465 L 22.0251 28.39465 L 22.18718 28.39465 L 22.34923 28.39465 L 22.51129 28.39465 L 22.67336 28.39465 L 22.83542 28.39465 L 22.99747 28.39465 L 23.15953 28.39465 L 23.3216 28.39465 L 23.48366 28.39465 L 23.64572 28.39465 L 23.80779 28.39465 L 23.96985 28.39465 L 24.1319 28.39465 L 24.29398 28.39465 L 24.45602 28.39465 L 24.61809 28.39465 L 24.78015 28.39465 L 24.94221 28.39465 L 25.10426 28.39465 L 25.26633 28.39465 L 25.4284 28.39465 L 25.59045 28.39465 L 25.75252 28.39465 L 25.91458 28.39465 L 26.07664 28.39465 L 26.2387 28.39465 L 26.40077 28.39465 L 26.56282 28.39465 L 26.72488 28.39465 L 26.88696 28.39465 L 27.04901 28.39465 L 27.21107 28.39465 L 27.37312 28.39465 L 27.5352 28.39465 L 27.69725 28.39465 L 27.85931 28.39465 L 28.02138 28.39465 L 28.18344 28.39465 L 28.34549 28.39465 L 28.50757 28.39465 L 28.66963 28.39465 L 28.83168 28.39465 L 28.99376 28.39465 L 29.1558 28.39465 L 29.31787 28.39465 L 29.47993 28.39465 L 29.642 28.39465 L 29.80405 28.39465 L 29.96611 28.39465 L 30.12817 28.39465 L 30.29024 28.39465 L 30.4523 28.39465 L 30.61436 28.39465 L 30.77643 28.39465 L 30.93848 28.39465 L 31.10056 28.39465 L 31.2626 28.39465 L 31.42467 28.39465 L 31.58673 28.39465 L 31.7488 28.39465 L 31.91084 28.39465 L 32.0729 28.39465 L 32.23499 28.39465 L 32.39703 28.39465 L 32.5591 28.39465 L 32.72116 28.39465 L 32.88322 28.39465 L 33.04527 28.39465 L 33.20735 28.39465 L 33.36942 28.39465 L 33.53146 28.39465 L 33.69354 28.39465 L 33.85558 28.39465 L 34.01765 28.39465 L 34.17972 28.39465 L 34.34177 28.39465 L 34.50383 28.39465 L 34.66588 28.39465 L 34.82796 28.39465 L 34.99002 28.39465 L 35.15207 28.39465 L 35.31415 28.39465 L 35.4762 28.39465 L 35.63826 28.39465 L 35.80034 28.39465 L 35.96239 28.39465 L 36.12445 28.39465 L 36.28651 28.39465 L 36.44858 28.39465 L 36.61064 28.39465 L 36.77269 28.39465 L 36.93477 28.39465 L 37.0968 28.39465 L 37.25888 28.39465 L 37.42096 28.39465 L 37.583 28.39465 L 37.74506 28.39465 L 37.90712 28.39465 L 38.06918 28.39465 L 38.23125 28.39465 L 38.39331 28.39465 L 38.55537 28.39465 L 38.71742 28.39465 L 38.87949 28.39465 L 39.04156 28.39465 L 39.20361 28.39465 L 39.36568 28.39465 L 39.52773 28.39465 L 39.6898 28.39465 L 39.85187 28.39465 L 40.01392 28.39465 L 40.176 28.39465 L 40.33803 28.39465 L 40.5001 28.39465 L 40.66219 28.39465 L 40.82422 28.39465 L 40.98628 28.39465 L 41.14835 28.39465 L 41.31041 28.39465 L 41.47247 28.39465 L 41.63454 28.39465 L 41.7966 28.39465 L 41.95865 28.39465 L 42.12073 28.39465 L 42.28279 28.39465 L 42.44484 28.39465 L 42.60692 28.39465 L 42.76895 28.39465 L 42.93103 28.39465 L 43.0931 28.39465 L 43.25514 28.39465 L 43.41722 28.39465 L 43.57925 28.39465 L 43.74133 28.39465 L 43.9034 28.39465 L 44.06544 28.39465 L 44.22752 28.39465 L 44.38957 28.39465 L 44.55164 28.39465 L 44.71371 28.39465 L 44.87576 28.39465 L 45.03783 28.39465 L 45.19989 28.39465 L 45.36195 28.39465 L 45.52402 28.39465 L 45.68607 28.39465 L 45.84814 28.39465 L 46.01018 28.39465 L 46.17226 28.39465 L 46.33434 28.39465 L 46.49637 28.39465 L 46.65845 28.39465 L 46.8205 28.39465 L 46.98256 28.39465 L 47.14462 28.39465 L 47.30669 28.39465 L 47.46875 28.39465 L 47.6308 28.39465 L 47.79286 28.39465 L 47.95494 28.39465 L 48.11699 28.39465 L 48.27905 28.39465 L 48.44112 28.39465 L 48.60318 28.39465 L 48.76524 28.39465 L 48.92729 28.39465 L 49.08937 28.39465 L 49.2514 28.39465 L 49.41348 28.39465 L 49.57556 28.39465 L 49.7376 28.39465 L 49.89966 28.39465 L 50.06172 28.39465 L 50.22379 28.39465 L 50.38585 28.39465 L 50.54791 28.39465 L 50.70998 28.39465 L 50.87202 28.39465 L 51.0341 28.39465 L 51.19617 28.39465 L 51.35822 28.39465 L 51.5203 28.39465 L 51.68234 28.39465 L 51.8444 28.39465 L 52.00647 28.39465 L 52.16852 28.39465 L 52.3306 28.39465 L 52.49263 28.39465 L 52.65471 28.39465 L 52.81679 28.39465 L 52.97882 28.39465 L 53.1409 28.39465 L 53.30295 28.39465 L 53.46501 28.39465 L 53.62709 28.39465 L 53.78914 28.39465 L 53.9512 28.39465 L 54.11327 28.39465 L 54.27533 28.39465 L 54.4374 28.39465 L 54.59944 28.39465 L 54.76152 28.39465 L 54.92355 28.39465 L 55.08563 28.39465 L 55.24771 28.39465 L 55.40974 28.39465 L 55.57182 28.39465 L 55.73387 28.39465 L 55.89594 28.39465 L 56.05801 28.39465 L 56.22006 28.39465 L 56.38213 28.39465 L 56.54417 28.39465 L 56.70624 28.39465 L 56.86832 28.39465 L 57.03036 28.39465 L 57.19243 28.39465 L 57.35449 28.39465 L 57.51656 28.39465 L 57.67862 28.39465 L 57.84068 28.39465 L 58.00275 28.39465 L 58.16478 28.39465 L 58.32687 28.39465 L 58.48894 28.39465 L 58.65097 28.39465 L 58.81303 28.39465 L 58.9751 28.39465 L 59.13716 28.39465 L 59.29922 28.39465 L 59.46129 28.39465 L 59.62335 28.39465 L 59.7854 28.39465 L 59.94748 28.39465 L 60.10954 28.39465 L 60.27159 28.39465 L 60.43367 28.39465 L 60.59572 28.39465 L 60.75778 28.39465 L 60.91986 28.39465 L 61.08191 28.39465 L 61.24397 28.39465 L 61.406 28.39465 L 61.5681 28.39465 L 61.73016 28.39465 L 61.8922 28.39465 L 62.05428 28.39465 L 62.21632 28.39465 L 62.37839 28.39465 L 62.54047 28.39465 L 62.70251 28.39465 L 62.86458 28.39465 L 63.02664 28.39465 L 63.1887 28.39465 L 63.35077 28.39465 L 63.51282 28.39465 L 63.6749 28.39465 L 63.83693 28.39465 L 63.99901 28.39465 L 64.16109 28.39465 L 64.32312 28.39465 L 64.4852 28.39465 L 64.64725 28.39465 L 64.80931 28.39465 L 64.97139 28.39465 L 65.13344 28.39465 L 65.2955 28.39465 L 65.45755 28.39465 L 65.61961 28.39465 L 65.7817 28.39465 L 65.94374 28.39465 L 66.1058 28.39465 L 66.26787 28.39465 L 66.42993 28.39465 L 66.592 28.39465 L 66.75406 28.39465 L 66.91612 28.39465 L 67.07816 28.39465 L 67.24025 28.39465 L 67.40231 28.39465 L 67.56435 28.39465 L 67.72643 28.39465 L 67.88847 28.39465 L 68.05054 28.39465 L 68.2126 28.39465 L 68.37466 28.39465 L 68.53673 28.39465 L 68.69878 28.39465 L 68.86086 28.39465 L 69.02292 28.39465 L 69.18497 28.39465 L 69.34705 28.39465 L 69.5091 28.39465 L 69.67116 28.39465 L 69.83324 28.39465 L 69.99529 28.39465 L 70.15735 28.39465 L 70.31938 28.39465 L 70.48148 28.39465 L 70.64354 28.39465 L 70.80557 28.39465 L 70.96767 28.39465 L 71.1297 28.39465 L 71.29176 28.39465 L 71.45384 28.39465 L 71.61589 28.39465 L 71.77795 28.39465 L 71.94002 28.39465 L 72.10208 28.39465 L 72.26414 28.39465 L 72.4262 28.39465 L 72.58827 28.39465 L 72.75032 28.39465 L 72.91238 28.39465 L 73.07446 28.39465 L 73.2365 28.39465 L 73.39857 28.39465 L 73.56062 28.39465 L 73.72269 28.39465 L 73.88477 28.39465 L 74.04681 28.39465 L 74.20888 28.39465 L 74.37093 28.39465 L 74.53299 28.39465 L 74.69507 28.39465 L 74.85712 28.39465 L 75.01918 28.39465 L 75.18124 28.39465 L 75.3433 28.39465 L 75.50537 28.39465 L 75.66743 28.39465 L 75.8295 28.39465 L 75.99155 28.39465 L 76.15363 28.39465 L 76.31569 28.39465 L 76.47772 28.39465 L 76.63982 28.39465 L 76.80185 28.39465 L 76.96391 28.39465 L 77.12599 28.39465 L 77.28804 28.39465 L 77.4501 28.39465 L 77.61215 28.39465 L 77.77423 28.39465 L 77.9363 28.39465 L 78.09834 28.39465 L 78.26042 28.39465 L 78.42247 28.39465 L 78.58453 28.39465 L 78.74661 28.39465 L 78.90866 28.39465 L 79.07072 28.39465 L 79.23276 28.39465 L 79.39485 28.39465 L 79.55692 28.39465 L 79.71895 28.39465 L 79.88104 28.39465 L 80.04308 28.39465 L 80.20514 28.39465 L 80.36723 28.39465 L 80.52927 28.39465 L 80.69133 28.39465 L 80.8534 28.39465 L 81.01546 28.39465 L 81.17752 28.39465 L 81.33957 28.39465 L 81.50165 28.39465 L 81.6637 28.39465 L 81.82576 28.39465 L 81.98784 28.39465 L 82.14989 28.39465 L 82.31195 28.39465 L 82.474 28.39465 L 82.63608 28.39465 L 82.79814 28.39465 L 82.96019 28.39465 L 83.12225 28.39465 L 83.2843 28.39465 L 83.44637 28.39465 L 83.60844 28.39465 L 83.7705 28.39465 L 83.93256 28.39465 L 84.09462 28.39465 L 84.25668 28.39465 L 84.41875 28.39465 L 84.58081 28.39465 L 84.74287 28.39465 L 84.90492 28.39465 L 85.067 28.39465 L 85.22906 28.39465 L 85.39111 28.39465 L 85.55319 28.39465 L 85.71523 28.39465 L 85.8773 28.39465 L 86.03937 28.39465 L 86.20142 28.39465 L 86.36348 28.39465 L 86.52553 28.39465 L 86.6876 28.39465 L 86.84967 28.39465 L 87.01172 28.39465 L 87.1738 28.39465 L 87.33585 28.39465 L 87.49791 28.39465 L 87.65999 28.39465 L 87.82204 28.39465 L 87.9841 28.39465 L 88.14613 28.39465 L 88.30823 28.39465 L 88.47029 28.39465 L 88.63232 28.39465 L 88.79442 28.39465 L 88.95645 28.39465 L 89.11852 28.39465 L 89.28061 28.39465 L 89.44264 28.39465 L 89.6047 28.39465 L 89.76677 28.39465 L 89.92883 28.39465 L 90.0909 28.39465 L 90.25294 28.39465 L 90.41502 28.39465 L 90.57707 28.39465 L 90.73914 28.39465 L 90.90121 28.39465 L 91.06326 28.39465 L 91.22533 28.39465 L 91.38737 28.39465 L 91.54945 28.39465 L 91.71152 28.39465 L 91.87357 28.39465 L 92.03564 28.39465 L 92.19768 28.39465 L 92.35976 28.39465 L 92.52182 28.39465 L 92.68387 28.39465 L 92.84593 28.39465 L 93.008 28.39465 L 93.17006 28.39465 L 93.33212 28.39465 L 93.49419 28.39465 L 93.65625 28.39465 L 93.8183 28.39465 L 93.98038 28.39465 L 94.14244 28.39465 L 94.30449 28.39465 L 94.46657 28.39465 L 94.6286 28.39465 L 94.79068 28.39465 L 94.95274 28.39465 L 95.11479 28.39465 L 95.27687 28.39465 L 95.4389 28.39465 L 95.60098 28.39465 L 95.76305 28.39465 L 95.9251 28.39465 L 96.08717 28.39465 L 96.24922 28.39465 L 96.41129 28.39465 L 96.57336 28.39465 L 96.73541 28.39465 L 96.89748 28.39465 L 97.05952 28.39465 L 97.2216 28.39465 L 97.38367 28.39465 L 97.5457 28.39465 L 97.7078 28.39465 L 97.86983 28.39465 L 98.03189 28.39465 L 98.19398 28.39465 L 98.35602 28.39465 L 98.51808 28.39465 L 98.68015 28.39465 L 98.84221 28.39465 L 99.00427 28.39465 L 99.16632 28.39465 L 99.3284 28.39465 L 99.49045 28.39465 L 99.65251 28.39465 L 99.81459 28.39465 L 99.97664 28.39465 L 100.1387 28.39465 L 100.30077 28.39465 L 100.46283 28.39465 L 100.6249 28.39465 L 100.78694 28.39465 L 100.94902 28.39465 L 101.11105 28.39465 L 101.27313 28.39465 L 101.43521 28.39465 L 101.59724 28.39465 L 101.75931 28.39465 L 101.92137 28.39465 L 102.08344 28.39465 L 102.2455 28.39465 L 102.40756 28.39465 L 102.56963 28.39465 L 102.73167 28.39465 L 102.89375 28.39465 L 103.05582 28.39465 L 103.21786 28.39465 L 103.37994 28.39465 L 103.54198 28.39465 L 103.70406 28.39465 L 103.86612 28.39465 L 104.02817 28.39465 L 104.19025 28.39465 L 104.35228 28.39465 L 104.51436 28.39465 L 104.67644 28.39465 L 104.83847 28.39465 L 105.00055 28.39465 L 105.1626 28.39465 L 105.32466 28.39465 L 105.48674 28.39465 L 105.64879 28.39465 L 105.81085 28.39465 L 105.9729 28.39465 L 106.13498 28.39465 L 106.29704 28.39465 L 106.45909 28.39465 L 106.62117 28.39465 L 106.7832 28.39465 L 106.94528 28.39465 L 107.10736 28.39465 L 107.2694 28.39465 L 107.43146 28.39465 L 107.59352 28.39465 L 107.75558 28.39465 L 107.91765 28.39465 L 108.0797 28.39465 L 108.24178 28.39465 L 108.40382 28.39465 L 108.56589 28.39465 L 108.72797 28.39465 L 108.89001 28.39465 L 109.05208 28.39465 L 109.21414 28.39465 L 109.3762 28.39465 L 109.53827 28.39465 L 109.70033 28.39465 L 109.8624 28.39465 L 110.02443 28.39465 L 110.18652 28.39465 L 110.34859 28.39465 L 110.51062 28.39465 L 110.67268 28.39465 L 110.83475 28.39465 L 110.99681 28.39465 L 111.15887 28.39465 L 111.32094 28.39465 L 111.483 28.39465 L 111.64505 28.39465 L 111.80713 28.39465 L 111.9692 28.39465 L 112.13124 28.39465 L 112.29332 28.39465 L 112.45535 28.39465 L 112.61743 28.39465 L 112.7795 28.39465 L 112.94154 28.39465 L 113.10362 28.39465 L 113.26566 28.39465 L 113.42773 28.39465 L 113.58981 28.39465 L 113.75185 28.39465 L 113.91393 28.39465 L 114.07597 28.39465 L 114.23804 28.39465 L 114.40012 28.39465 L 114.56216 28.39465 L 114.72423 28.39465 L 114.88628 28.39465 L 115.04836 28.39465 L 115.21042 28.39465 L 115.37247 28.39465 L 115.53455 28.39465 L 115.69658 28.39465 L 115.85866 28.39465 L 116.02074 28.39465 L 116.18277 28.39465 L 116.34485 28.39465 L 116.5069 28.39465 L 116.66896 28.39465 L 116.83102 28.39465 L 116.99309 28.39465 L 117.15515 28.39465 L 117.3172 28.39465 L 117.47926 28.39465 L 117.64134 28.39465 L 117.80339 28.39465 L 117.96545 28.39465 L 118.12752 28.39465 L 118.28958 28.39465 L 118.45164 28.39465 L 118.61371 28.39465 L 118.77577 28.39465 L 118.9378 28.39465 L 119.0999 28.39465 L 119.26196 28.39465 L 119.424 28.39465 L 119.58607 28.39465 L 119.74812 28.39465 L 119.91019 28.39465 L 120.07225 28.39465 L 120.23431 28.39465 L 120.39638 28.39465 L 120.55843 28.39465 L 120.7205 28.39465 L 120.88257 28.39465 L 121.04462 28.39465 L 121.2067 28.39465 L 121.36874 28.39465 L 121.5308 28.39465 L 121.69287 28.39465 L 121.85492 28.39465 L 122.017 28.39465 L 122.17903 28.39465 L 122.34111 28.39465 L 122.50319 28.39465 L 122.66522 28.39465 L 122.8273 28.39465 L 122.98935 28.39465 L 123.15141 28.39465 L 123.31349 28.39465 L 123.47554 28.39465 L 123.6376 28.39465 L 123.79965 28.39465 L 123.96173 28.39465 L 124.1238 28.39465 L 124.28584 28.39465 L 124.44792 28.39465 L 124.60997 28.39465 L 124.77203 28.39465 L 124.93411 28.39465 L 125.09615 28.39465 L 125.25822 28.39465 L 125.42027 28.39465 L 125.58234 28.39465 L 125.74442 28.39465 L 125.90646 28.39465 L 126.06853 28.39465 L 126.23058 28.39465 L 126.39264 28.39465 L 126.55472 28.39465 L 126.71677 28.39465 L 126.87883 28.39465 L 127.0409 28.39465 L 127.20296 28.39465 L 127.36502 28.39465 L 127.52708 28.39465 L 127.68915 28.39465 L 127.85118 28.39465 L 128.01328 28.39465 L 128.17534 28.39465 L 128.33737 28.39465 L 128.49945 28.39465 L 128.6615 28.39465 L 128.82357 28.39465 L 128.98564 28.39465 L 129.14769 28.39465 L 129.30976 28.39465 L 129.4718 28.39465 L 129.63388 28.39465 L 129.79595 28.39465 L 129.958 28.39465 L 130.12007 28.39465 L 130.28212 28.39465 L 130.44419 28.39465 L 130.60625 28.39465 L 130.76831 28.39465 L 130.93038 28.39465 L 131.0924 28.39465 L 131.2545 28.39465 L 131.41657 28.39465 L 131.5786 28.39465 L 131.74068 28.39465 L 131.90273 28.39465 L 132.06479 28.39465 L 132.22687 28.39465 L 132.38892 28.39465 L 132.55098 28.39465 L 132.71305 28.39465 L 132.8751 28.39465 L 133.03717 28.39465 L 133.19922 28.39465 L 133.3613 28.39465 L 133.52335 28.39465 L 133.68541 28.39465 L 133.84749 28.39465 L 134.00954 28.39465 L 134.1716 28.39465 L 134.33365 28.39465 L 134.49573 28.39465 L 134.65779 28.39465 L 134.81984 28.39465 L 134.9819 28.39465 L 135.14395 28.39465 L 135.30602 28.39465 L 135.4681 28.39465 L 135.63014 28.39465 L 135.7922 28.39465 L 135.95427 28.39465 L 136.11634 28.39465 L 136.2784 28.39465 L 136.44046 28.39465 L 136.60253 28.39465 L 136.76456 28.39465 L 136.92665 28.39465 L 137.08872 28.39465 L 137.25075 28.39465 L 137.41283 28.39465 L 137.57488 28.39465 L 137.73694 28.39465 L 137.89902 28.39465 L 138.06107 28.39465 L 138.22313 28.39465 L 138.38518 28.39465 L 138.54726 28.39465 L 138.70932 28.39465 L 138.87137 28.39465 L 139.03345 28.39465 L 139.1955 28.39465 L 139.35756 28.39465 L 139.51963 28.39465 L 139.68169 28.39465 L 139.84375 28.39465 L 140.00579 28.39465 L 140.16788 28.39465 L 140.32994 28.39465 L 140.49198 28.39465 L 140.65407 28.39465 L 140.8161 28.39465 L 140.97817 28.39465 L 141.14025 28.39465 L 141.30229 28.39465 L 141.46436 28.39465 L 141.62642 28.39465 L 141.78849 28.39465 L 141.95055 28.39465 L 142.1126 28.39465 L 142.27468 28.39465 L 142.43672 28.39465 L 142.59879 28.39465 L 142.76087 28.39465 L 142.92292 28.39465 L 143.08498 28.39465 L 143.24703 28.39465 L 143.4091 28.39465 L 143.57117 28.39465 L 143.73322 28.39465 L 143.8953 28.39465 L 144.05733 28.39465 L 144.21939 28.39465 L 144.38147 28.39465 L 144.54352 28.39465 L 144.70558 28.39465 L 144.86765 28.39465 L 145.02971 28.39465 L 145.19178 28.39465 L 145.35384 28.39465 L 145.5159 28.39465 L 145.67795 28.39465 L 145.84003 28.39465 L 146.00209 28.39465 L 146.16413 28.39465 L 146.3262 28.39465 L 146.48825 28.39465 L 146.65032 28.39465 L 146.8124 28.39465 L 146.97444 28.39465 L 147.1365 28.39465 L 147.29856 28.39465 L 147.46063 28.39465 L 147.6227 28.39465 L 147.78475 28.39465 L 147.94683 28.39465 L 148.10887 28.39465 L 148.27094 28.39465 L 148.433 28.39465 L 148.59506 28.39465 L 148.75713 28.39465 L 148.91918 28.39465 L 149.08126 28.39465 L 149.24332 28.39465 L 149.40535 28.39465 L 149.56745 28.39465 L 149.72948 28.39465 L 149.89154 28.39465 L 150.05364 28.39465 L 150.21567 28.39465 L 150.37773 28.39465 L 150.5398 28.39465 L 150.70186 28.39465 L 150.86392 28.39465 L 151.02597 28.39465 L 151.18805 28.39465 L 151.3501 28.39465 L 151.51216 28.39465 L 151.67424 28.39465 L 151.83629 28.39465 L 151.99835 28.39465 L 152.1604 28.39465 L 152.32248 28.39465 L 152.48455 28.39465 L 152.64659 28.39465 L 152.80867 28.39465 L 152.9707 28.39465 L 153.13277 28.39465 L 153.29486 28.39465 L 153.4569 28.39465 L 153.61896 28.39465 L 153.78102 28.39465 L 153.94309 28.39465 L 154.10515 28.39465 L 154.26721 28.39465 L 154.42928 28.39465 L 154.59133 28.39465 L 154.7534 28.39465 L 154.91547 28.39465 L 155.07752 28.39465 L 155.23958 28.39465 L 155.40163 28.39465 L 155.5637 28.39465 L 155.72577 28.39465 L 155.88782 28.39465 L 156.04988 28.39465 L 156.21193 28.39465 L 156.37401 28.39465 L 156.53607 28.39465 L 156.69812 28.39465 L 156.8602 28.39465 L 157.02225 28.39465 L 157.18431 28.39465 L 157.34639 28.39465 L 157.50844 28.39465 L 157.6705 28.39465 L 157.83255 28.39465 L 157.99463 28.39465 L 158.1567 28.39465 L 158.31874 28.39465 L 158.48082 28.39465 L 158.64286 28.39465 L 158.80493 28.39465 L 158.96701 28.39465 L 159.12905 28.39465 L 159.2911 28.39465 L 159.45317 28.39465 L 159.61524 28.39465 L 159.7773 28.39465 L 159.93935 28.39465 L 160.10143 28.39465 L 160.26348 28.39465 L 160.42554 28.39465 L 160.58762 28.39465 L 160.74967 28.39465 L 160.91173 28.39465 L 161.07378 28.39465 L 161.23586 28.39465 L 161.39792 28.39465 L 161.55997 28.39465 L 161.72205 28.39465 L 161.88408 28.39465 L 162.04615 28.39465 L 162.20824 28.39465 L 162.37027 28.39465 L 162.53234 28.39465 L 162.6944 28.39465 L 162.85646 28.39465 L 163.01853 28.39465 L 163.18059 28.39465 L 163.34265 28.39465 L 163.5047 28.39465 L 163.66678 28.39465 L 163.82884 28.39465 L 163.99089 28.39465 L 164.15296 28.39465 L 164.315 28.39465 L 164.47708 28.39465 L 164.63915 28.39465 L 164.8012 28.39465 L 164.96327 28.39465 L 165.1253 28.39465 L 165.28739 28.39465 L 165.44945 28.39465 L 165.6115 28.39465 L 165.77358 28.39465 L 165.93563 28.39465 L 166.09769 28.39465 L 166.25977 28.39465 L 166.42182 28.39465 L 166.58388 28.39465 L 166.74593 28.39465 L 166.908 28.39465 L 167.07007 28.39465 L 167.23212 28.39465 L 167.3942 28.39465 L 167.55623 28.39465 L 167.7183 28.39465 L 167.88039 28.39465 L 168.04242 28.39465 L 168.2045 28.39465 L 168.36655 28.39465 L 168.52861 28.39465 L 168.69068 28.39465 L 168.85272 28.39465 L 169.0148 28.39465 L 169.17685 28.39465 L 169.33892 28.39465 L 169.50099 28.39465 L 169.66304 28.39465 L 169.8251 28.39465 L 169.98717 28.39465 L 170.14923 28.39465 L 170.3113 28.39465 L 170.47335 28.39465 L 170.63542 28.39465 L 170.79746 28.39465 L 170.95952 28.39465 L 171.12162 28.39465 L 171.28365 28.39465 L 171.44571 28.39465 L 171.60778 28.39465 L 171.76984 28.39465 L 171.9319 28.39465 L 172.09397 28.39465 L 172.25603 28.39465 L 172.41808 28.39465 L 172.58016 28.39465 L 172.74222 28.39465 L 172.90427 28.39465 L 173.06635 28.39465 L 173.2284 28.39465 L 173.39046 28.39465 L 173.55252 28.39465 L 173.71457 28.39465 L 173.87665 28.39465 L 174.03868 28.39465 L 174.20076 28.39465 L 174.36284 28.39465 L 174.52487 28.39465 L 174.68695 28.39465 L 174.849 28.39465 L 175.01107 28.39465 L 175.17314 28.39465 L 175.33519 28.39465 L 175.49726 28.39465 L 175.6593 28.39465 L 175.82138 28.39465 L 175.98345 28.39465 L 176.1455 28.39465 L 176.30757 28.39465 L 176.4696 28.39465 L 176.63169 28.39465 L 176.79376 28.39465 L 176.9558 28.39465 L 177.11788 28.39465 L 177.27993 28.39465 L 177.44199 28.39465 L 177.60407 28.39465 L 177.7661 28.39465 L 177.92818 28.39465 L 178.09023 28.39465 "/>
<path transform="matrix(2.7777777,0,0,-2.7777777,10.330556,484.75834)" stroke-width=".79701" stroke-linecap="butt" stroke-miterlimit="10" stroke-linejoin="miter" fill="none" stroke="#00ff00" d="M 16.1909 118.06049 L 16.35295 118.06049 L 16.51501 118.06049 L 16.67708 118.06049 L 16.83914 118.06049 L 17.0012 118.06049 L 17.16327 118.06049 L 17.32532 118.06049 L 17.4874 118.06049 L 17.64944 118.06049 L 17.81151 118.06049 L 17.97357 118.06049 L 18.13564 118.06049 L 18.29768 118.06049 L 18.45975 118.06049 L 18.62183 118.06049 L 18.78387 118.06049 L 18.94594 118.06049 L 19.108 118.06049 L 19.27007 118.06049 L 19.43211 118.06049 L 19.5942 118.06049 L 19.75624 118.06049 L 19.9183 118.06049 L 20.08038 118.06049 L 20.24243 118.06049 L 20.4045 118.06049 L 20.56656 118.06049 L 20.72862 118.06049 L 20.89067 118.06049 L 21.05273 118.06049 L 21.2148 118.06049 L 21.37686 118.06049 L 21.53891 118.06049 L 21.70099 118.06049 L 21.86305 118.06049 L 22.0251 118.06049 L 22.18718 118.06049 L 22.34923 118.06049 L 22.51129 118.06049 L 22.67336 118.06049 L 22.83542 118.06049 L 22.99747 118.06049 L 23.15953 118.06049 L 23.3216 118.06049 L 23.48366 118.06049 L 23.64572 118.06049 L 23.80779 118.06049 L 23.96985 118.06049 L 24.1319 118.06049 L 24.29398 118.06049 L 24.45602 118.06049 L 24.61809 118.06049 L 24.78015 118.06049 L 24.94221 118.06049 L 25.10426 118.06049 L 25.26633 118.06049 L 25.4284 118.06049 L 25.59045 118.06049 L 25.75252 118.06049 L 25.91458 118.06049 L 26.07664 118.06049 L 26.2387 118.06049 L 26.40077 118.06049 L 26.56282 118.06049 L 26.72488 118.06049 L 26.88696 118.06049 L 27.04901 118.06049 L 27.21107 118.06049 L 27.37312 118.06049 L 27.5352 118.06049 L 27.69725 118.06049 L 27.85931 118.06049 L 28.02138 118.06049 L 28.18344 118.06049 L 28.34549 118.06049 L 28.50757 118.06049 L 28.66963 118.06049 L 28.83168 118.06049 L 28.99376 118.06049 L 29.1558 118.06049 L 29.31787 118.06049 L 29.47993 118.06049 L 29.642 118.06049 L 29.80405 118.06049 L 29.96611 118.06049 L 30.12817 118.06049 L 30.29024 118.06049 L 30.4523 118.06049 L 30.61436 118.06049 L 30.77643 118.06049 L 30.93848 118.06049 L 31.10056 118.06049 L 31.2626 118.06049 L 31.42467 118.06049 L 31.58673 118.06049 L 31.7488 118.06049 L 31.91084 118.06049 L 32.0729 118.06049 L 32.23499 118.06049 L 32.39703 118.06049 L 32.5591 118.06049 L 32.72116 118.06049 L 32.88322 118.06049 L 33.04527 118.06049 L 33.20735 118.06049 L 33.36942 118.06049 L 33.53146 118.06049 L 33.69354 118.06049 L 33.85558 118.06049 L 34.01765 118.06049 L 34.17972 118.06049 L 34.34177 118.06049 L 34.50383 118.06049 L 34.66588 118.06049 L 34.82796 118.06049 L 34.99002 118.06049 L 35.15207 118.06049 L 35.31415 118.06049 L 35.4762 118.06049 L 35.63826 118.06049 L 35.80034 118.06049 L 35.96239 118.06049 L 36.12445 118.06049 L 36.28651 118.06049 L 36.44858 118.06049 L 36.61064 118.06049 L 36.77269 118.06049 L 36.93477 118.06049 L 37.0968 118.06049 L 37.25888 118.06049 L 37.42096 118.06049 L 37.583 118.06049 L 37.74506 118.06049 L 37.90712 118.06049 L 38.06918 118.06049 L 38.23125 118.06049 L 38.39331 118.06049 L 38.55537 118.06049 L 38.71742 118.06049 L 38.87949 118.06049 L 39.04156 118.06049 L 39.20361 118.06049 L 39.36568 118.06049 L 39.52773 118.06049 L 39.6898 118.06049 L 39.85187 118.06049 L 40.01392 118.06049 L 40.176 118.06049 L 40.33803 118.06049 L 40.5001 118.06049 L 40.66219 118.06049 L 40.82422 118.06049 L 40.98628 118.06049 L 41.14835 118.06049 L 41.31041 118.06049 L 41.47247 118.06049 L 41.63454 118.06049 L 41.7966 118.06049 L 41.95865 118.06049 L 42.12073 118.06049 L 42.28279 118.06049 L 42.44484 118.06049 L 42.60692 118.06049 L 42.76895 118.06049 L 42.93103 118.06049 L 43.0931 118.06049 L 43.25514 118.06049 L 43.41722 118.06049 L 43.57925 118.06049 L 43.74133 118.06049 L 43.9034 118.06049 L 44.06544 118.06049 L 44.22752 118.06049 L 44.38957 118.06049 L 44.55164 118.06049 L 44.71371 118.06049 L 44.87576 118.06049 L 45.03783 118.06049 L 45.19989 118.06049 L 45.36195 118.06049 L 45.52402 118.06049 L 45.68607 118.06049 L 45.84814 118.06049 L 46.01018 118.06049 L 46.17226 118.06049 L 46.33434 118.06049 L 46.49637 118.06049 L 46.65845 118.06049 L 46.8205 118.06049 L 46.98256 118.06049 L 47.14462 118.06049 L 47.30669 118.06049 L 47.46875 118.06049 L 47.6308 118.06049 L 47.79286 118.06049 L 47.95494 118.06049 L 48.11699 118.06049 L 48.27905 118.06049 L 48.44112 118.06049 L 48.60318 118.06049 L 48.76524 118.06049 L 48.92729 118.06049 L 49.08937 118.06049 L 49.2514 118.06049 L 49.41348 118.06049 L 49.57556 118.06049 L 49.7376 118.06049 L 49.89966 118.06049 L 50.06172 118.06049 L 50.22379 118.06049 L 50.38585 118.06049 L 50.54791 118.06049 L 50.70998 118.06049 L 50.87202 118.06049 L 51.0341 118.06049 L 51.19617 118.06049 L 51.35822 118.06049 L 51.5203 118.06049 L 51.68234 118.06049 L 51.8444 118.06049 L 52.00647 118.06049 L 52.16852 118.06049 L 52.3306 118.06049 L 52.49263 118.06049 L 52.65471 118.06049 L 52.81679 118.06049 L 52.97882 118.06049 L 53.1409 118.06049 L 53.30295 118.06049 L 53.46501 118.06049 L 53.62709 118.06049 L 53.78914 118.06049 L 53.9512 118.06049 L 54.11327 118.06049 L 54.27533 118.06049 L 54.4374 118.06049 L 54.59944 118.06049 L 54.76152 118.06049 L 54.92355 118.06049 L 55.08563 118.06049 L 55.24771 118.06049 L 55.40974 118.06049 L 55.57182 118.06049 L 55.73387 118.06049 L 55.89594 118.06049 L 56.05801 118.06049 L 56.22006 118.06049 L 56.38213 118.06049 L 56.54417 118.06049 L 56.70624 118.06049 L 56.86832 118.06049 L 57.03036 118.06049 L 57.19243 118.06049 L 57.35449 118.06049 L 57.51656 118.06049 L 57.67862 118.06049 L 57.84068 118.06049 L 58.00275 118.06049 L 58.16478 118.06049 L 58.32687 118.06049 L 58.48894 118.06049 L 58.65097 118.06049 L 58.81303 118.06049 L 58.9751 118.06049 L 59.13716 118.06049 L 59.29922 118.06049 L 59.46129 118.06049 L 59.62335 118.06049 L 59.7854 118.06049 L 59.94748 118.06049 L 60.10954 118.06049 L 60.27159 118.06049 L 60.43367 118.06049 L 60.59572 118.06049 L 60.75778 118.06049 L 60.91986 118.06049 L 61.08191 118.06049 L 61.24397 118.06049 L 61.406 118.06049 L 61.5681 118.06049 L 61.73016 118.06049 L 61.8922 118.06049 L 62.05428 118.06049 L 62.21632 118.06049 L 62.37839 118.06049 L 62.54047 118.06049 L 62.70251 118.06049 L 62.86458 118.06049 L 63.02664 118.06049 L 63.1887 118.06049 L 63.35077 118.06049 L 63.51282 118.06049 L 63.6749 118.06049 L 63.83693 118.06049 L 63.99901 118.06049 L 64.16109 118.06049 L 64.32312 118.06049 L 64.4852 118.06049 L 64.64725 118.06049 L 64.80931 118.06049 L 64.97139 118.06049 L 65.13344 118.06049 L 65.2955 118.06049 L 65.45755 118.06049 L 65.61961 118.06049 L 65.7817 118.06049 L 65.94374 118.06049 L 66.1058 118.06049 L 66.26787 118.06049 L 66.42993 118.06049 L 66.592 118.06049 L 66.75406 118.06049 L 66.91612 118.06049 L 67.07816 118.06049 L 67.24025 118.06049 L 67.40231 118.06049 L 67.56435 118.06049 L 67.72643 118.06049 L 67.88847 118.06049 L 68.05054 118.06049 L 68.2126 118.06049 L 68.37466 118.06049 L 68.53673 118.06049 L 68.69878 118.06049 L 68.86086 118.06049 L 69.02292 118.06049 L 69.18497 118.06049 L 69.34705 118.06049 L 69.5091 118.06049 L 69.67116 118.06049 L 69.83324 118.06049 L 69.99529 118.06049 L 70.15735 118.06049 L 70.31938 118.06049 L 70.48148 118.06049 L 70.64354 118.06049 L 70.80557 118.06049 L 70.96767 118.06049 L 71.1297 118.06049 L 71.29176 118.06049 L 71.45384 118.06049 L 71.61589 118.06049 L 71.77795 118.06049 L 71.94002 118.06049 L 72.10208 118.06049 L 72.26414 118.06049 L 72.4262 118.06049 L 72.58827 118.06049 L 72.75032 118.06049 L 72.91238 118.06049 L 73.07446 118.06049 L 73.2365 118.06049 L 73.39857 118.06049 L 73.56062 118.06049 L 73.72269 118.06049 L 73.88477 118.06049 L 74.04681 118.06049 L 74.20888 118.06049 L 74.37093 118.06049 L 74.53299 118.06049 L 74.69507 118.06049 L 74.85712 118.06049 L 75.01918 118.06049 L 75.18124 118.06049 L 75.3433 118.06049 L 75.50537 118.06049 L 75.66743 118.06049 L 75.8295 118.06049 L 75.99155 118.06049 L 76.15363 118.06049 L 76.31569 118.06049 L 76.47772 118.06049 L 76.63982 118.06049 L 76.80185 118.06049 L 76.96391 118.06049 L 77.12599 118.06049 L 77.28804 118.06049 L 77.4501 118.06049 L 77.61215 118.06049 L 77.77423 118.06049 L 77.9363 118.06049 L 78.09834 118.06049 L 78.26042 118.06049 L 78.42247 118.06049 L 78.58453 118.06049 L 78.74661 118.06049 L 78.90866 118.06049 L 79.07072 118.06049 L 79.23276 118.06049 L 79.39485 118.06049 L 79.55692 118.06049 L 79.71895 118.06049 L 79.88104 118.06049 L 80.04308 118.06049 L 80.20514 118.06049 L 80.36723 118.06049 L 80.52927 118.06049 L 80.69133 118.06049 L 80.8534 118.06049 L 81.01546 118.06049 L 81.17752 118.06049 L 81.33957 118.06049 L 81.50165 118.06049 L 81.6637 118.06049 L 81.82576 118.06049 L 81.98784 118.06049 L 82.14989 118.06049 L 82.31195 118.06049 L 82.474 118.06049 L 82.63608 118.06049 L 82.79814 118.06049 L 82.96019 118.06049 L 83.12225 118.06049 L 83.2843 118.06049 L 83.44637 118.06049 L 83.60844 118.06049 L 83.7705 118.06049 L 83.93256 118.06049 L 84.09462 118.06049 L 84.25668 118.06049 L 84.41875 118.06049 L 84.58081 118.06049 L 84.74287 118.06049 L 84.90492 118.06049 L 85.067 118.06049 L 85.22906 118.06049 L 85.39111 118.06049 L 85.55319 118.06049 L 85.71523 118.06049 L 85.8773 118.06049 L 86.03937 118.06049 L 86.20142 118.06049 L 86.36348 118.06049 L 86.52553 118.06049 L 86.6876 118.06049 L 86.84967 118.06049 L 87.01172 118.06049 L 87.1738 118.06049 L 87.33585 118.06049 L 87.49791 118.06049 L 87.65999 118.06049 L 87.82204 118.06049 L 87.9841 118.06049 L 88.14613 118.06049 L 88.30823 118.06049 L 88.47029 118.06049 L 88.63232 118.06049 L 88.79442 118.06049 L 88.95645 118.06049 L 89.11852 118.06049 L 89.28061 118.06049 L 89.44264 118.06049 L 89.6047 118.06049 L 89.76677 118.06049 L 89.92883 118.06049 L 90.0909 118.06049 L 90.25294 118.06049 L 90.41502 118.06049 L 90.57707 118.06049 L 90.73914 118.06049 L 90.90121 118.06049 L 91.06326 118.06049 L 91.22533 118.06049 L 91.38737 118.06049 L 91.54945 118.06049 L 91.71152 118.06049 L 91.87357 118.06049 L 92.03564 118.06049 L 92.19768 118.06049 L 92.35976 118.06049 L 92.52182 118.06049 L 92.68387 118.06049 L 92.84593 118.06049 L 93.008 118.06049 L 93.17006 118.06049 L 93.33212 118.06049 L 93.49419 118.06049 L 93.65625 118.06049 L 93.8183 118.06049 L 93.98038 118.06049 L 94.14244 118.06049 L 94.30449 118.06049 L 94.46657 118.06049 L 94.6286 118.06049 L 94.79068 118.06049 L 94.95274 118.06049 L 95.11479 118.06049 L 95.27687 118.06049 L 95.4389 118.06049 L 95.60098 118.06049 L 95.76305 118.06049 L 95.9251 118.06049 L 96.08717 118.06049 L 96.24922 118.06049 L 96.41129 118.06049 L 96.57336 118.06049 L 96.73541 118.06049 L 96.89748 118.06049 L 97.05952 118.06049 L 97.2216 118.06049 L 97.38367 118.06049 L 97.5457 118.06049 L 97.7078 118.06049 L 97.86983 118.06049 L 98.03189 118.06049 L 98.19398 118.06049 L 98.35602 118.06049 L 98.51808 118.06049 L 98.68015 118.06049 L 98.84221 118.06049 L 99.00427 118.06049 L 99.16632 118.06049 L 99.3284 118.06049 L 99.49045 118.06049 L 99.65251 118.06049 L 99.81459 118.06049 L 99.97664 118.06049 L 100.1387 118.06049 L 100.30077 118.06049 L 100.46283 118.06049 L 100.6249 118.06049 L 100.78694 118.06049 L 100.94902 118.06049 L 101.11105 118.06049 L 101.27313 118.06049 L 101.43521 118.06049 L 101.59724 118.06049 L 101.75931 118.06049 L 101.92137 118.06049 L 102.08344 118.06049 L 102.2455 118.06049 L 102.40756 118.06049 L 102.56963 118.06049 L 102.73167 118.06049 L 102.89375 118.06049 L 103.05582 118.06049 L 103.21786 118.06049 L 103.37994 118.06049 L 103.54198 118.06049 L 103.70406 118.06049 L 103.86612 118.06049 L 104.02817 118.06049 L 104.19025 118.06049 L 104.35228 118.06049 L 104.51436 118.06049 L 104.67644 118.06049 L 104.83847 118.06049 L 105.00055 118.06049 L 105.1626 118.06049 L 105.32466 118.06049 L 105.48674 118.06049 L 105.64879 118.06049 L 105.81085 118.06049 L 105.9729 118.06049 L 106.13498 118.06049 L 106.29704 118.06049 L 106.45909 118.06049 L 106.62117 118.06049 L 106.7832 118.06049 L 106.94528 118.06049 L 107.10736 118.06049 L 107.2694 118.06049 L 107.43146 118.06049 L 107.59352 118.06049 L 107.75558 118.06049 L 107.91765 118.06049 L 108.0797 118.06049 L 108.24178 118.06049 L 108.40382 118.06049 L 108.56589 118.06049 L 108.72797 118.06049 L 108.89001 118.06049 L 109.05208 118.06049 L 109.21414 118.06049 L 109.3762 118.06049 L 109.53827 118.06049 L 109.70033 118.06049 L 109.8624 118.06049 L 110.02443 118.06049 L 110.18652 118.06049 L 110.34859 118.06049 L 110.51062 118.06049 L 110.67268 118.06049 L 110.83475 118.06049 L 110.99681 118.06049 L 111.15887 118.06049 L 111.32094 118.06049 L 111.483 118.06049 L 111.64505 118.06049 L 111.80713 118.06049 L 111.9692 118.06049 L 112.13124 118.06049 L 112.29332 118.06049 L 112.45535 118.06049 L 112.61743 118.06049 L 112.7795 118.06049 L 112.94154 118.06049 L 113.10362 118.06049 L 113.26566 118.06049 L 113.42773 118.06049 L 113.58981 118.06049 L 113.75185 118.06049 L 113.91393 118.06049 L 114.07597 118.06049 L 114.23804 118.06049 L 114.40012 118.06049 L 114.56216 118.06049 L 114.72423 118.06049 L 114.88628 118.06049 L 115.04836 118.06049 L 115.21042 118.06049 L 115.37247 118.06049 L 115.53455 118.06049 L 115.69658 118.06049 L 115.85866 118.06049 L 116.02074 118.06049 L 116.18277 118.06049 L 116.34485 118.06049 L 116.5069 118.06049 L 116.66896 118.06049 L 116.83102 118.06049 L 116.99309 118.06049 L 117.15515 118.06049 L 117.3172 118.06049 L 117.47926 118.06049 L 117.64134 118.06049 L 117.80339 118.06049 L 117.96545 118.06049 L 118.12752 118.06049 L 118.28958 118.06049 L 118.45164 118.06049 L 118.61371 118.06049 L 118.77577 118.06049 L 118.9378 118.06049 L 119.0999 118.06049 L 119.26196 118.06049 L 119.424 118.06049 L 119.58607 118.06049 L 119.74812 118.06049 L 119.91019 118.06049 L 120.07225 118.06049 L 120.23431 118.06049 L 120.39638 118.06049 L 120.55843 118.06049 L 120.7205 118.06049 L 120.88257 118.06049 L 121.04462 118.06049 L 121.2067 118.06049 L 121.36874 118.06049 L 121.5308 118.06049 L 121.69287 118.06049 L 121.85492 118.06049 L 122.017 118.06049 L 122.17903 118.06049 L 122.34111 118.06049 L 122.50319 118.06049 L 122.66522 118.06049 L 122.8273 118.06049 L 122.98935 118.06049 L 123.15141 118.06049 L 123.31349 118.06049 L 123.47554 118.06049 L 123.6376 118.06049 L 123.79965 118.06049 L 123.96173 118.06049 L 124.1238 118.06049 L 124.28584 118.06049 L 124.44792 118.06049 L 124.60997 118.06049 L 124.77203 118.06049 L 124.93411 118.06049 L 125.09615 118.06049 L 125.25822 118.06049 L 125.42027 118.06049 L 125.58234 118.06049 L 125.74442 118.06049 L 125.90646 118.06049 L 126.06853 118.06049 L 126.23058 118.06049 L 126.39264 118.06049 L 126.55472 118.06049 L 126.71677 118.06049 L 126.87883 118.06049 L 127.0409 118.06049 L 127.20296 118.06049 L 127.36502 118.06049 L 127.52708 118.06049 L 127.68915 118.06049 L 127.85118 118.06049 L 128.01328 118.06049 L 128.17534 118.06049 L 128.33737 118.06049 L 128.49945 118.06049 L 128.6615 118.06049 L 128.82357 118.06049 L 128.98564 118.06049 L 129.14769 118.06049 L 129.30976 118.06049 L 129.4718 118.06049 L 129.63388 118.06049 L 129.79595 118.06049 L 129.958 118.06049 L 130.12007 118.06049 L 130.28212 118.06049 L 130.44419 118.06049 L 130.60625 118.06049 L 130.76831 118.06049 L 130.93038 118.06049 L 131.0924 118.06049 L 131.2545 118.06049 L 131.41657 118.06049 L 131.5786 118.06049 L 131.74068 118.06049 L 131.90273 118.06049 L 132.06479 118.06049 L 132.22687 118.06049 L 132.38892 118.06049 L 132.55098 118.06049 L 132.71305 118.06049 L 132.8751 118.06049 L 133.03717 118.06049 L 133.19922 118.06049 L 133.3613 118.06049 L 133.52335 118.06049 L 133.68541 118.06049 L 133.84749 118.06049 L 134.00954 118.06049 L 134.1716 118.06049 L 134.33365 118.06049 L 134.49573 118.06049 L 134.65779 118.06049 L 134.81984 118.06049 L 134.9819 118.06049 L 135.14395 118.06049 L 135.30602 118.06049 L 135.4681 118.06049 L 135.63014 118.06049 L 135.7922 118.06049 L 135.95427 118.06049 L 136.11634 118.06049 L 136.2784 118.06049 L 136.44046 118.06049 L 136.60253 118.06049 L 136.76456 118.06049 L 136.92665 118.06049 L 137.08872 118.06049 L 137.25075 118.06049 L 137.41283 118.06049 L 137.57488 118.06049 L 137.73694 118.06049 L 137.89902 118.06049 L 138.06107 118.06049 L 138.22313 118.06049 L 138.38518 118.06049 L 138.54726 118.06049 L 138.70932 118.06049 L 138.87137 118.06049 L 139.03345 118.06049 L 139.1955 118.06049 L 139.35756 118.06049 L 139.51963 118.06049 L 139.68169 118.06049 L 139.84375 118.06049 L 140.00579 118.06049 L 140.16788 118.06049 L 140.32994 118.06049 L 140.49198 118.06049 L 140.65407 118.06049 L 140.8161 118.06049 L 140.97817 118.06049 L 141.14025 118.06049 L 141.30229 118.06049 L 141.46436 118.06049 L 141.62642 118.06049 L 141.78849 118.06049 L 141.95055 118.06049 L 142.1126 118.06049 L 142.27468 118.06049 L 142.43672 118.06049 L 142.59879 118.06049 L 142.76087 118.06049 L 142.92292 118.06049 L 143.08498 118.06049 L 143.24703 118.06049 L 143.4091 118.06049 L 143.57117 118.06049 L 143.73322 118.06049 L 143.8953 118.06049 L 144.05733 118.06049 L 144.21939 118.06049 L 144.38147 118.06049 L 144.54352 118.06049 L 144.70558 118.06049 L 144.86765 118.06049 L 145.02971 118.06049 L 145.19178 118.06049 L 145.35384 118.06049 L 145.5159 118.06049 L 145.67795 118.06049 L 145.84003 118.06049 L 146.00209 118.06049 L 146.16413 118.06049 L 146.3262 118.06049 L 146.48825 118.06049 L 146.65032 118.06049 L 146.8124 118.06049 L 146.97444 118.06049 L 147.1365 118.06049 L 147.29856 118.06049 L 147.46063 118.06049 L 147.6227 118.06049 L 147.78475 118.06049 L 147.94683 118.06049 L 148.10887 118.06049 L 148.27094 118.06049 L 148.433 118.06049 L 148.59506 118.06049 L 148.75713 118.06049 L 148.91918 118.06049 L 149.08126 118.06049 L 149.24332 118.06049 L 149.40535 118.06049 L 149.56745 118.06049 L 149.72948 118.06049 L 149.89154 118.06049 L 150.05364 118.06049 L 150.21567 118.06049 L 150.37773 118.06049 L 150.5398 118.06049 L 150.70186 118.06049 L 150.86392 118.06049 L 151.02597 118.06049 L 151.18805 118.06049 L 151.3501 118.06049 L 151.51216 118.06049 L 151.67424 118.06049 L 151.83629 118.06049 L 151.99835 118.06049 L 152.1604 118.06049 L 152.32248 118.06049 L 152.48455 118.06049 L 152.64659 118.06049 L 152.80867 118.06049 L 152.9707 118.06049 L 153.13277 118.06049 L 153.29486 118.06049 L 153.4569 118.06049 L 153.61896 118.06049 L 153.78102 118.06049 L 153.94309 118.06049 L 154.10515 118.06049 L 154.26721 118.06049 L 154.42928 118.06049 L 154.59133 118.06049 L 154.7534 118.06049 L 154.91547 118.06049 L 155.07752 118.06049 L 155.23958 118.06049 L 155.40163 118.06049 L 155.5637 118.06049 L 155.72577 118.06049 L 155.88782 118.06049 L 156.04988 118.06049 L 156.21193 118.06049 L 156.37401 118.06049 L 156.53607 118.06049 L 156.69812 118.06049 L 156.8602 118.06049 L 157.02225 118.06049 L 157.18431 118.06049 L 157.34639 118.06049 L 157.50844 118.06049 L 157.6705 118.06049 L 157.83255 118.06049 L 157.99463 118.06049 L 158.1567 118.06049 L 158.31874 118.06049 L 158.48082 118.06049 L 158.64286 118.06049 L 158.80493 118.06049 L 158.96701 118.06049 L 159.12905 118.06049 L 159.2911 118.06049 L 159.45317 118.06049 L 159.61524 118.06049 L 159.7773 118.06049 L 159.93935 118.06049 L 160.10143 118.06049 L 160.26348 118.06049 L 160.42554 118.06049 L 160.58762 118.06049 L 160.74967 118.06049 L 160.91173 118.06049 L 161.07378 118.06049 L 161.23586 118.06049 L 161.39792 118.06049 L 161.55997 118.06049 L 161.72205 118.06049 L 161.88408 118.06049 L 162.04615 118.06049 L 162.20824 118.06049 L 162.37027 118.06049 L 162.53234 118.06049 L 162.6944 118.06049 L 162.85646 118.06049 L 163.01853 118.06049 L 163.18059 118.06049 L 163.34265 118.06049 L 163.5047 118.06049 L 163.66678 118.06049 L 163.82884 118.06049 L 163.99089 118.06049 L 164.15296 118.06049 L 164.315 118.06049 L 164.47708 118.06049 L 164.63915 118.06049 L 164.8012 118.06049 L 164.96327 118.06049 L 165.1253 118.06049 L 165.28739 118.06049 L 165.44945 118.06049 L 165.6115 118.06049 L 165.77358 118.06049 L 165.93563 118.06049 L 166.09769 118.06049 L 166.25977 118.06049 L 166.42182 118.06049 L 166.58388 118.06049 L 166.74593 118.06049 L 166.908 118.06049 L 167.07007 118.06049 L 167.23212 118.06049 L 167.3942 118.06049 L 167.55623 118.06049 L 167.7183 118.06049 L 167.88039 118.06049 L 168.04242 118.06049 L 168.2045 118.06049 L 168.36655 118.06049 L 168.52861 118.06049 L 168.69068 118.06049 L 168.85272 118.06049 L 169.0148 118.06049 L 169.17685 118.06049 L 169.33892 118.06049 L 169.50099 118.06049 L 169.66304 118.06049 L 169.8251 118.06049 L 169.98717 118.06049 L 170.14923 118.06049 L 170.3113 118.06049 L 170.47335 118.06049 L 170.63542 118.06049 L 170.79746 118.06049 L 170.95952 118.06049 L 171.12162 118.06049 L 171.28365 118.06049 L 171.44571 118.06049 L 171.60778 118.06049 L 171.76984 118.06049 L 171.9319 118.06049 L 172.09397 118.06049 L 172.25603 118.06049 L 172.41808 118.06049 L 172.58016 118.06049 L 172.74222 118.06049 L 172.90427 118.06049 L 173.06635 118.06049 L 173.2284 118.06049 L 173.39046 118.06049 L 173.55252 118.06049 L 173.71457 118.06049 L 173.87665 118.06049 L 174.03868 118.06049 L 174.20076 118.06049 L 174.36284 118.06049 L 174.52487 118.06049 L 174.68695 118.06049 L 174.849 118.06049 L 175.01107 118.06049 L 175.17314 118.06049 L 175.33519 118.06049 L 175.49726 118.06049 L 175.6593 118.06049 L 175.82138 118.06049 L 175.98345 118.06049 L 176.1455 118.06049 L 176.30757 118.06049 L 176.4696 118.06049 L 176.63169 118.06049 L 176.79376 118.06049 L 176.9558 118.06049 L 177.11788 118.06049 L 177.27993 118.06049 L 177.44199 118.06049 L 177.60407 118.06049 L 177.7661 118.06049 L 177.92818 118.06049 L 178.09023 118.06049 "/>
<symbol id="font_3_1">
<path d="M .205 .64000007 C .205 .66400006 .205 .666 .18200003 .666 C .120000008 .60200008 .032000007 .60200008 0 .60200008 L 0 .57100006 C .020000004 .57100006 .07900001 .57100006 .13100001 .597 L .13100001 .079 C .13100001 .043 .128 .031000002 .038000004 .031000002 L .0060000049 .031000002 L .0060000049 0 C .04100001 .003 .128 .003 .168 .003 C .20800002 .003 .29500003 .003 .33000005 0 L .33000005 .031000002 L .29800005 .031000002 C .20800002 .031000002 .205 .042000005 .205 .079 L .205 .64000007 Z "/>
</symbol>
<use xlink:href="#font_3_1" transform="matrix(27.673888,0,0,-27.673888,320.6824,431.40834)"/>
<symbol id="font_3_2">
<path d="M .266 .165 L .266 .078 C .266 .042000005 .26400004 .031000002 .19000001 .031000002 L .16900002 .031000002 L .16900002 0 C .21000001 .003 .26200003 .003 .30400003 .003 C .34600003 .003 .39900003 .003 .44000004 0 L .44000004 .031000002 L .41900004 .031000002 C .34500004 .031000002 .34300003 .042000005 .34300003 .078 L .34300003 .165 L .44300003 .165 L .44300003 .19600001 L .34300003 .19600001 L .34300003 .651 C .34300003 .671 .34300003 .67700007 .32700003 .67700007 C .31800003 .67700007 .31500004 .67700007 .307 .665 L 0 .19600001 L 0 .165 L .266 .165 M .272 .19600001 L .028 .19600001 L .272 .569 L .272 .19600001 Z "/>
</symbol>
<use xlink:href="#font_3_2" transform="matrix(27.673888,0,0,-27.673888,453.90818,431.40834)"/>
<symbol id="font_3_3">
<path d="M .19700001 .605 C .19700001 .64100006 .20000002 .652 .279 .652 L .305 .652 L .305 .683 C .27 .68 .19100002 .68 .15300001 .68 C .11400001 .68 .035 .68 0 .683 L 0 .652 L .026 .652 C .105000007 .652 .10800001 .64100006 .10800001 .605 L .10800001 .078 C .10800001 .042000005 .105000007 .031000002 .026 .031000002 L 0 .031000002 L 0 0 C .035 .003 .11400001 .003 .15200001 .003 C .19100002 .003 .27 .003 .305 0 L .305 .031000002 L .279 .031000002 C .20000002 .031000002 .19700001 .042000005 .19700001 .078 L .19700001 .605 Z "/>
</symbol>
<use xlink:href="#font_3_3" transform="matrix(27.673888,0,0,-27.673888,298.43043,249.29723)"/>
<use xlink:href="#font_3_3" transform="matrix(27.673888,0,0,-27.673888,382.99153,249.29723)"/>
<use xlink:href="#font_3_3" transform="matrix(27.673888,0,0,-27.673888,393.75663,249.29723)"/>
<path transform="matrix(2.7777777,0,0,-2.7777777,10.330556,484.75834)" stroke-width=".3985" stroke-linecap="butt" stroke-dasharray="2.98883,2.98883" stroke-miterlimit="10" stroke-linejoin="miter" fill="none" stroke="#000000" d="M 113.33154 28.39465 L 113.33154 118.06049 "/>
<path transform="matrix(2.7777777,0,0,-2.7777777,10.330556,484.75834)" stroke-width=".3985" stroke-linecap="butt" stroke-dasharray="2.98883,2.98883" stroke-miterlimit="10" stroke-linejoin="miter" fill="none" stroke="#000000" d="M 161.90187 28.39465 L 161.90187 118.06049 "/>
</g>
<symbol id="font_4_1">
<path d="M .305 .31300003 C .311 .33900003 .334 .43100003 .404 .43100003 C .409 .43100003 .433 .43100003 .454 .418 C .426 .41300003 .40600003 .388 .40600003 .36400003 C .40600003 .34800003 .417 .32900004 .444 .32900004 C .46600003 .32900004 .498 .34700004 .498 .38700003 C .498 .43900005 .439 .45300005 .405 .45300005 C .347 .45300005 .312 .40000005 .3 .37700004 C .275 .44300003 .221 .45300005 .19200002 .45300005 C .08800001 .45300005 .031000002 .32400004 .031000002 .29900003 C .031000002 .28900004 .041 .28900004 .043000007 .28900004 C .051000008 .28900004 .054000006 .291 .056 .3 C .09 .40600003 .156 .43100003 .19000001 .43100003 C .209 .43100003 .244 .42200003 .244 .36400003 C .244 .33300004 .22700002 .26600004 .19000001 .126 C .17400001 .064 .13900002 .022000002 .095000009 .022000002 C .08900001 .022000002 .06600001 .022000002 .045 .035 C .07000001 .040000004 .09200001 .061 .09200001 .089 C .09200001 .116000007 .07000001 .124000009 .055000009 .124000009 C .025 .124000009 0 .098000008 0 .06600001 C 0 .020000002 .050000006 0 .094000007 0 C .16000001 0 .19600001 .07000001 .19900002 .076000008 C .21100001 .039 .24700003 0 .307 0 C .41 0 .467 .12900001 .467 .15400002 C .467 .16400002 .458 .16400002 .455 .16400002 C .446 .16400002 .444 .16000001 .442 .15300001 C .409 .046 .341 .022000002 .30900003 .022000002 C .27 .022000002 .254 .054 .254 .08800001 C .254 .11000001 .26 .13200002 .271 .17600002 L .305 .31300003 Z "/>
</symbol>
<use xlink:href="#font_4_1" transform="matrix(27.673888,0,0,-27.673888,560.6775,427.77388)"/>
<symbol id="font_4_2">
<path d="M .45700003 .586 C .461 .6 .461 .602 .461 .609 C .461 .62700006 .447 .63600006 .432 .63600006 C .42200003 .63600006 .40600003 .63 .397 .615 C .395 .61 .387 .579 .38300003 .561 C .37600003 .535 .36900003 .508 .363 .48100005 L .318 .301 C .314 .286 .271 .21600002 .20500002 .21600002 C .15400002 .21600002 .143 .26000003 .143 .29700003 C .143 .34300003 .16000001 .40500004 .194 .49300004 C .21000001 .53400006 .21400002 .545 .21400002 .56500008 C .21400002 .61 .18200001 .6470001 .13200002 .6470001 C .037 .6470001 0 .50200006 0 .49300004 C 0 .48300005 .01 .48300005 .012 .48300005 C .022000002 .48300005 .023 .485 .028000003 .50100007 C .055000009 .595 .095000009 .625 .12900001 .625 C .13700001 .625 .15400002 .625 .15400002 .59300008 C .15400002 .568 .14400001 .54200008 .13700001 .523 C .097 .41700004 .079 .36 .079 .31300003 C .079 .224 .142 .194 .201 .194 C .24000003 .194 .274 .21100001 .30200003 .23900002 C .289 .187 .277 .13800001 .237 .08500001 C .21100001 .051 .17300001 .022 .127 .022 C .113000009 .022 .068 .025000006 .051000008 .06400001 C .067 .06400001 .080000009 .06400001 .094000007 .076000008 C .104 .08500001 .11400001 .098000008 .11400001 .117000009 C .11400001 .148 .087000008 .15200001 .07700001 .15200001 C .054000006 .15200001 .021 .136 .021 .087000008 C .021 .037 .065000008 0 .127 0 C .23 0 .333 .091000009 .361 .20400001 L .45700003 .586 Z "/>
</symbol>
<use xlink:href="#font_4_2" transform="matrix(27.673888,0,0,-27.673888,256.67198,26.809256)"/>
</g>
</svg>
