<?xml version="1.0" encoding="UTF-8" standalone="no"?>
<!DOCTYPE svg PUBLIC "-//W3C//DTD SVG 1.1//EN" "http://www.w3.org/Graphics/SVG/1.1/DTD/svg11.dtd">
<svg xmlns="http://www.w3.org/2000/svg" xmlns:xlink="http://www.w3.org/1999/xlink" version="1.1" width="584.83609pt" height="485.80555pt" viewBox="0 0 584.83609 485.80555">
<g enable-background="new">
<path transform="matrix(2.7777777,0,0,-2.7777777,87.41944,420.65275)" stroke-width=".79701" stroke-linecap="butt" stroke-miterlimit="10" stroke-linejoin="miter" fill="none" stroke="#000000" d="M -27.75192 1.14142 L 163.92354 1.14142 "/>
<path transform="matrix(2.7777777,0,0,-2.7777777,542.76248,417.48216)" d="M 2.59026 0 L -1.55415 2.0722 L 0 0 L -1.55415 -2.0722 "/>
<path transform="matrix(2.7777777,0,0,-2.7777777,87.41944,420.65275)" stroke-width=".79701" stroke-linecap="butt" stroke-miterlimit="10" stroke-linejoin="miter" fill="none" stroke="#000000" d="M 17.34544 -23.05638 L 17.34544 135.74994 "/>
<path transform="matrix(0,-2.7777222,-2.7777222,-0,135.60121,43.569608)" d="M 2.59026 0 L -1.55415 2.0722 L 0 0 L -1.55415 -2.0722 "/>
<clipPath id="cp0">
<path transform="matrix(2.7777777,0,0,-2.7777777,87.41944,420.65275)" d="M -27.75192 -23.05638 L 166.51375 -23.05638 L 166.51375 138.34015 L -27.75192 138.34015 Z "/>
</clipPath>
<g clip-path="url(#cp0)">
<path transform="matrix(2.7777777,0,0,-2.7777777,87.41944,420.65275)" stroke-width=".79701" stroke-linecap="butt" stroke-miterlimit="10" stroke-linejoin="miter" fill="none" stroke="#929292" d="M 34.6909 50.2227 L 34.79507 50.14052 L 34.89925 50.0585 L 35.00343 49.97665 L 35.10759 49.89497 L 35.21178 49.81345 L 35.31595 49.7321 L 35.42012 49.6509 L 35.52429 49.56987 L 35.62848 49.489 L 35.73265 49.40831 L 35.83682 49.32777 L 35.941 49.2474 L 36.04518 49.1672 L 36.14935 49.08716 L 36.25352 49.0073 L 36.3577 48.92758 L 36.46188 48.84802 L 36.56606 48.76863 L 36.67023 48.68942 L 36.7744 48.61035 L 36.87857 48.53151 L 36.98274 48.45274 L 37.08691 48.37419 L 37.1911 48.2958 L 37.29527 48.21756 L 37.39946 48.13951 L 37.50362 48.06161 L 37.6078 47.98389 L 37.71198 47.90631 L 37.81615 47.8289 L 37.92032 47.75166 L 38.0245 47.67459 L 38.12868 47.59767 L 38.23285 47.52094 L 38.33702 47.44435 L 38.44121 47.36794 L 38.54538 47.29169 L 38.64955 47.2156 L 38.75372 47.13966 L 38.85791 47.06392 L 38.96208 46.98833 L 39.06625 46.9129 L 39.17043 46.83762 L 39.27461 46.76253 L 39.37877 46.68759 L 39.48296 46.61282 L 39.58713 46.53822 L 39.69131 46.46378 L 39.79547 46.3895 L 39.89966 46.31538 L 40.00383 46.24144 L 40.10802 46.16766 L 40.21217 46.09406 L 40.31636 46.02061 L 40.42053 45.9473 L 40.52472 45.87418 L 40.62888 45.80121 L 40.73305 45.72844 L 40.83723 45.65579 L 40.94139 45.58333 L 41.04558 45.51102 L 41.14975 45.43889 L 41.25394 45.36693 L 41.3581 45.2951 L 41.46228 45.22348 L 41.56645 45.152 L 41.67064 45.08069 L 41.7748 45.00954 L 41.87898 44.93857 L 41.98315 44.86774 L 42.08733 44.79709 L 42.1915 44.7266 L 42.29568 44.6563 L 42.39986 44.58612 L 42.50403 44.51613 L 42.6082 44.4463 L 42.71239 44.37663 L 42.81656 44.30713 L 42.92073 44.2378 L 43.0249 44.16862 L 43.12909 44.09962 L 43.23326 44.03079 L 43.33743 43.96211 L 43.4416 43.89359 L 43.54579 43.82524 L 43.64995 43.75706 L 43.75414 43.68906 L 43.8583 43.6212 L 43.9625 43.55351 L 44.06665 43.486 L 44.17084 43.41864 L 44.27501 43.35144 L 44.3792 43.28441 L 44.48335 43.21751 L 44.58752 43.15082 L 44.69171 43.0843 L 44.79588 43.01791 L 44.90005 42.9517 L 45.00423 42.88567 L 45.10841 42.81978 L 45.21259 42.75409 L 45.31676 42.68854 L 45.42093 42.62315 L 45.5251 42.55794 L 45.62927 42.49287 L 45.73347 42.42798 L 45.83763 42.36327 L 45.94182 42.29872 L 46.04597 42.23431 L 46.15016 42.17009 L 46.25433 42.10602 L 46.3585 42.04213 L 46.46268 41.97838 L 46.56686 41.91481 L 46.67104 41.85141 L 46.77522 41.78816 L 46.87938 41.7251 L 46.98357 41.66217 L 47.08772 41.59943 L 47.19191 41.53687 L 47.2961 41.47443 L 47.40027 41.41217 L 47.50444 41.35008 L 47.60861 41.28818 L 47.71278 41.22641 L 47.81697 41.1648 L 47.92113 41.1034 L 48.02531 41.04211 L 48.12949 40.98102 L 48.23367 40.92009 L 48.33784 40.8593 L 48.442 40.79869 L 48.54619 40.73824 L 48.65034 40.67798 L 48.75453 40.61786 L 48.85872 40.5579 L 48.96289 40.49814 L 49.06706 40.4385 L 49.17123 40.37906 L 49.2754 40.31976 L 49.3796 40.26064 L 49.48375 40.20169 L 49.58794 40.14288 L 49.6921 40.08424 L 49.7963 40.0258 L 49.90047 39.96748 L 50.00464 39.90935 L 50.10881 39.85138 L 50.21298 39.79358 L 50.31715 39.73593 L 50.42136 39.67847 L 50.5255 39.62114 L 50.6297 39.564 L 50.73386 39.507 L 50.83804 39.4502 L 50.94221 39.39354 L 51.04639 39.33704 L 51.15056 39.28072 L 51.25473 39.22456 L 51.35892 39.16856 L 51.4631 39.11273 L 51.56726 39.05707 L 51.67145 39.00156 L 51.7756 38.94623 L 51.87979 38.89107 L 51.98396 38.83604 L 52.08813 38.78122 L 52.19232 38.72652 L 52.29648 38.67201 L 52.40067 38.61768 L 52.50484 38.56348 L 52.60901 38.50946 L 52.71318 38.4556 L 52.81735 38.40193 L 52.92154 38.3484 L 53.02573 38.29503 L 53.12988 38.24184 L 53.23407 38.18881 L 53.33823 38.13594 L 53.44241 38.08324 L 53.54659 38.0307 L 53.65077 37.97833 L 53.75494 37.92612 L 53.85912 37.87407 L 53.96329 37.82219 L 54.06747 37.77048 L 54.17163 37.71893 L 54.27582 37.66754 L 54.37999 37.61633 L 54.48418 37.56528 L 54.58835 37.51439 L 54.69252 37.46365 L 54.79669 37.4131 L 54.90086 37.3627 L 55.00504 37.31247 L 55.10922 37.2624 L 55.2134 37.21251 L 55.31758 37.16277 L 55.42174 37.11319 L 55.52592 37.06378 L 55.6301 37.01453 L 55.73427 36.96545 L 55.83844 36.91653 L 55.94261 36.86781 L 56.0468 36.81921 L 56.15097 36.7708 L 56.25514 36.72253 L 56.35931 36.67444 L 56.46349 36.62653 L 56.56766 36.57877 L 56.67184 36.53117 L 56.77602 36.48373 L 56.8802 36.43646 L 56.98436 36.38936 L 57.08855 36.34242 L 57.19272 36.29565 L 57.29689 36.24905 L 57.40106 36.2026 L 57.50525 36.15633 L 57.60942 36.11021 L 57.71361 36.06425 L 57.81776 36.01846 L 57.92195 35.97285 L 58.02611 35.9274 L 58.1303 35.88211 L 58.23447 35.83699 L 58.33865 35.79202 L 58.44283 35.74722 L 58.547 35.7026 L 58.65117 35.65813 L 58.75536 35.61382 L 58.85951 35.56969 L 58.9637 35.52573 L 59.06787 35.48192 L 59.17206 35.43825 L 59.27623 35.39478 L 59.3804 35.35147 L 59.48457 35.30832 L 59.58875 35.26534 L 59.69292 35.2225 L 59.79709 35.17986 L 59.90128 35.13736 L 60.00545 35.09502 L 60.10962 35.05289 L 60.21379 35.01086 L 60.31798 34.96904 L 60.42213 34.92737 L 60.52632 34.88588 L 60.6305 34.84454 L 60.73468 34.80336 L 60.83885 34.76234 L 60.94302 34.72151 L 61.0472 34.68083 L 61.15137 34.64032 L 61.25554 34.59998 L 61.35973 34.55977 L 61.4639 34.51976 L 61.56808 34.4799 L 61.67224 34.44022 L 61.77643 34.40068 L 61.8806 34.36131 L 61.98477 34.32213 L 62.08894 34.28308 L 62.19312 34.24423 L 62.2973 34.20552 L 62.40149 34.16699 L 62.50565 34.1286 L 62.60983 34.0904 L 62.71399 34.05235 L 62.81818 34.01448 L 62.92235 33.97676 L 63.02654 33.9392 L 63.1307 33.90182 L 63.23488 33.86461 L 63.33905 33.82755 L 63.44322 33.79065 L 63.5474 33.75394 L 63.65157 33.71736 L 63.75574 33.68097 L 63.85992 33.64474 L 63.96411 33.60866 L 64.06827 33.57275 L 64.17245 33.53702 L 64.27661 33.50146 L 64.3808 33.46603 L 64.48497 33.4308 L 64.58914 33.3957 L 64.69333 33.3608 L 64.7975 33.32605 L 64.90167 33.29146 L 65.00586 33.25703 L 65.11002 33.2228 L 65.2142 33.18869 L 65.31836 33.15477 L 65.42256 33.121 L 65.52673 33.0874 L 65.6309 33.05397 L 65.73508 33.02069 L 65.83925 32.9876 L 65.94342 32.95467 L 66.0476 32.92189 L 66.15176 32.88928 L 66.25597 32.85683 L 66.36012 32.82454 L 66.46431 32.79243 L 66.56848 32.76047 L 66.67265 32.7287 L 66.77682 32.69708 L 66.881 32.66562 L 66.98518 32.63432 L 67.08937 32.6032 L 67.19353 32.57224 L 67.2977 32.54144 L 67.40187 32.5108 L 67.50604 32.48033 L 67.61023 32.45003 L 67.71439 32.41988 L 67.81859 32.38992 L 67.92274 32.3601 L 68.02693 32.33044 L 68.1311 32.30098 L 68.23528 32.27165 L 68.33945 32.24251 L 68.44362 32.21353 L 68.5478 32.18471 L 68.652 32.15604 L 68.75615 32.12755 L 68.86034 32.09921 L 68.9645 32.07106 L 69.06868 32.04306 L 69.17285 32.01523 L 69.27702 31.98755 L 69.38121 31.96005 L 69.48538 31.93272 L 69.58955 31.90553 L 69.69374 31.87852 L 69.7979 31.85168 L 69.90208 31.825 L 70.00624 31.7985 L 70.11044 31.77213 L 70.21461 31.74596 L 70.31879 31.71992 L 70.42296 31.69406 L 70.52713 31.66838 L 70.6313 31.64285 L 70.73549 31.61748 L 70.83965 31.59229 L 70.94385 31.56723 L 71.048 31.54237 L 71.15218 31.51767 L 71.25636 31.49313 L 71.36052 31.46877 L 71.4647 31.44455 L 71.56886 31.4205 L 71.67307 31.39662 L 71.77724 31.37291 L 71.88141 31.34935 L 71.98558 31.32596 L 72.08975 31.30275 L 72.19392 31.2797 L 72.29811 31.25679 L 72.40228 31.23407 L 72.50647 31.21149 L 72.61063 31.1891 L 72.71481 31.16685 L 72.81898 31.1448 L 72.92316 31.12288 L 73.02733 31.10115 L 73.1315 31.07959 L 73.23569 31.05817 L 73.33987 31.03691 L 73.44403 31.01582 L 73.54822 30.9949 L 73.65237 30.97417 L 73.75656 30.95358 L 73.86073 30.93317 L 73.96492 30.9129 L 74.06909 30.8928 L 74.17326 30.87288 L 74.27744 30.8531 L 74.38162 30.83351 L 74.48578 30.81409 L 74.58997 30.7948 L 74.69412 30.77571 L 74.79832 30.75677 L 74.9025 30.73798 L 75.00665 30.71938 L 75.11084 30.70091 L 75.215 30.68265 L 75.31918 30.66452 L 75.42336 30.64658 L 75.52754 30.62878 L 75.63171 30.61116 L 75.73589 30.59372 L 75.84006 30.57642 L 75.94424 30.55928 L 76.0484 30.54231 L 76.15259 30.52551 L 76.25674 30.5089 L 76.36095 30.49243 L 76.46512 30.47612 L 76.56929 30.45996 L 76.67346 30.44398 L 76.77763 30.42818 L 76.8818 30.41254 L 76.986 30.39705 L 77.09015 30.38174 L 77.19435 30.36658 L 77.29851 30.3516 L 77.4027 30.33678 L 77.50687 30.32211 L 77.61104 30.30762 L 77.71521 30.29329 L 77.81938 30.27913 L 77.92357 30.26512 L 78.02776 30.2513 L 78.13191 30.23763 L 78.2361 30.2241 L 78.34026 30.21078 L 78.44444 30.1976 L 78.54861 30.18459 L 78.65279 30.17174 L 78.75697 30.15904 L 78.86113 30.14653 L 78.96532 30.13417 L 79.06949 30.12198 L 79.17366 30.10997 L 79.27783 30.09811 L 79.382 30.08641 L 79.48618 30.07489 L 79.59038 30.06352 L 79.69453 30.05232 L 79.79872 30.04129 L 79.90288 30.03043 L 80.00706 30.0197 L 80.11124 30.00917 L 80.21541 29.99878 L 80.31958 29.98857 L 80.42377 29.97852 L 80.52794 29.96864 L 80.63213 29.95894 L 80.73628 29.94939 L 80.84047 29.93999 L 80.94463 29.93076 L 81.04881 29.9217 L 81.153 29.91281 L 81.25717 29.90408 L 81.36134 29.89552 L 81.46552 29.88712 L 81.56969 29.87888 L 81.67387 29.8708 L 81.77803 29.8629 L 81.88222 29.85516 L 81.98639 29.84758 L 82.09058 29.84016 L 82.19475 29.83292 L 82.29892 29.82585 L 82.40309 29.81891 L 82.50725 29.81216 L 82.61143 29.80559 L 82.71562 29.79915 L 82.8198 29.7929 L 82.92397 29.78679 L 83.02814 29.78088 L 83.13231 29.7751 L 83.2365 29.7695 L 83.34065 29.76407 L 83.44484 29.75879 L 83.54901 29.75368 L 83.6532 29.74875 L 83.75737 29.74397 L 83.86154 29.73935 L 83.96571 29.73491 L 84.06989 29.73062 L 84.17406 29.7265 L 84.27826 29.72255 L 84.38242 29.71877 L 84.4866 29.71513 L 84.59076 29.71169 L 84.69495 29.70839 L 84.79912 29.70525 L 84.90329 29.70229 L 85.00748 29.6995 L 85.11165 29.69684 L 85.21582 29.69437 L 85.32 29.69208 L 85.42416 29.68993 L 85.52835 29.68796 L 85.6325 29.68614 L 85.7367 29.68448 L 85.84088 29.68301 L 85.94505 29.68169 L 86.04922 29.68053 L 86.1534 29.67955 L 86.25757 29.67871 L 86.36174 29.67805 L 86.46591 29.67757 L 86.5701 29.67723 L 86.67427 29.67706 L 86.77844 29.67706 L 86.88263 29.67723 L 86.98679 29.67755 L 87.09097 29.67804 L 87.19513 29.67871 L 87.29932 29.67953 L 87.4035 29.6805 L 87.50768 29.68167 L 87.61185 29.68298 L 87.71602 29.68446 L 87.82019 29.68611 L 87.92438 29.68793 L 88.02853 29.68988 L 88.13274 29.69203 L 88.2369 29.69434 L 88.34108 29.6968 L 88.44525 29.69945 L 88.54942 29.70224 L 88.6536 29.7052 L 88.75777 29.70833 L 88.86194 29.71162 L 88.96614 29.71507 L 89.0703 29.71869 L 89.17448 29.72249 L 89.27864 29.72644 L 89.38283 29.73055 L 89.487 29.73483 L 89.59117 29.73927 L 89.69536 29.7439 L 89.79953 29.74867 L 89.9037 29.75359 L 90.00789 29.7587 L 90.11205 29.76398 L 90.21622 29.76941 L 90.32039 29.775 L 90.42456 29.78078 L 90.52876 29.78668 L 90.63292 29.79279 L 90.7371 29.79903 L 90.84126 29.80547 L 90.94545 29.81204 L 91.04962 29.8188 L 91.1538 29.82571 L 91.25798 29.8328 L 91.36215 29.84003 L 91.46632 29.84746 L 91.57051 29.85503 L 91.67467 29.86278 L 91.77885 29.87067 L 91.88301 29.87874 L 91.9872 29.88698 L 92.09138 29.89537 L 92.19556 29.90393 L 92.29973 29.91266 L 92.4039 29.92154 L 92.50807 29.9306 L 92.61226 29.93983 L 92.71642 29.94922 L 92.8206 29.95876 L 92.92477 29.96848 L 93.02896 29.97835 L 93.13313 29.9884 L 93.2373 29.9986 L 93.34148 30.00899 L 93.44565 30.01952 L 93.54982 30.03023 L 93.65402 30.04109 L 93.75818 30.05212 L 93.86235 30.06334 L 93.96652 30.07469 L 94.0707 30.08621 L 94.17488 30.0979 L 94.27904 30.10976 L 94.38322 30.12178 L 94.48738 30.13396 L 94.59158 30.14632 L 94.69576 30.15883 L 94.79993 30.17151 L 94.9041 30.18436 L 95.00827 30.19736 L 95.11244 30.21054 L 95.21663 30.22388 L 95.3208 30.23738 L 95.42499 30.25105 L 95.52914 30.26488 L 95.63333 30.27888 L 95.7375 30.29303 L 95.84167 30.30737 L 95.94585 30.32185 L 96.05003 30.33652 L 96.1542 30.35133 L 96.25839 30.36632 L 96.36255 30.38147 L 96.46674 30.39679 L 96.57089 30.41226 L 96.67508 30.4279 L 96.77925 30.44371 L 96.88344 30.4597 L 96.98761 30.47583 L 97.09178 30.49214 L 97.19595 30.5086 L 97.30014 30.52524 L 97.4043 30.54202 L 97.50848 30.55898 L 97.61266 30.57611 L 97.71683 30.5934 L 97.82101 30.61087 L 97.92517 30.62848 L 98.02936 30.64627 L 98.13351 30.6642 L 98.2377 30.68233 L 98.34187 30.70062 L 98.44606 30.71904 L 98.55023 30.73766 L 98.6544 30.75644 L 98.75858 30.77536 L 98.86276 30.79448 L 98.96692 30.81374 L 99.0711 30.83318 L 99.17528 30.85275 L 99.27946 30.87253 L 99.38364 30.89246 L 99.48781 30.91255 L 99.59198 30.9328 L 99.69615 30.95323 L 99.80032 30.97382 L 99.90451 30.99455 L 100.00868 31.01546 L 100.11287 31.03654 L 100.21703 31.05779 L 100.32121 31.0792 L 100.42538 31.10077 L 100.52956 31.12251 L 100.63373 31.14442 L 100.73792 31.16647 L 100.84209 31.1887 L 100.94627 31.2111 L 101.05043 31.23367 L 101.15462 31.25638 L 101.25877 31.27928 L 101.36296 31.30234 L 101.46713 31.32556 L 101.5713 31.34894 L 101.67549 31.3725 L 101.77965 31.3962 L 101.88383 31.42007 L 101.988 31.44412 L 102.09218 31.46834 L 102.19635 31.4927 L 102.30054 31.51724 L 102.40471 31.54196 L 102.5089 31.5668 L 102.61305 31.59184 L 102.71724 31.61705 L 102.8214 31.6424 L 102.92558 31.66794 L 103.02977 31.69362 L 103.13394 31.71947 L 103.23811 31.7455 L 103.34229 31.77167 L 103.44646 31.79802 L 103.55064 31.82454 L 103.6548 31.85121 L 103.75899 31.87805 L 103.86316 31.90508 L 103.96735 31.93224 L 104.07152 31.95956 L 104.17569 31.98706 L 104.27986 32.01474 L 104.38403 32.04257 L 104.4882 32.07057 L 104.59239 32.09872 L 104.69656 32.12704 L 104.80075 32.15555 L 104.9049 32.18419 L 105.0091 32.21301 L 105.11327 32.242 L 105.21744 32.27115 L 105.32161 32.30046 L 105.42577 32.32994 L 105.52997 32.35957 L 105.63414 32.38939 L 105.73831 32.41936 L 105.84248 32.44951 L 105.94666 32.4798 L 106.05083 32.51025 L 106.15503 32.54091 L 106.25919 32.57169 L 106.36337 32.60266 L 106.46753 32.63376 L 106.57172 32.66505 L 106.67589 32.69652 L 106.78006 32.72813 L 106.88423 32.75992 L 106.9884 32.79185 L 107.09259 32.82399 L 107.19678 32.85628 L 107.30093 32.8887 L 107.40512 32.92131 L 107.50928 32.95409 L 107.61346 32.98703 L 107.71764 33.02011 L 107.82181 33.05339 L 107.926 33.0868 L 108.03017 33.1204 L 108.13434 33.15417 L 108.23853 33.18808 L 108.34268 33.22218 L 108.44687 33.25644 L 108.55103 33.29085 L 108.65523 33.32544 L 108.7594 33.36018 L 108.86357 33.3951 L 108.96774 33.43018 L 109.0719 33.46541 L 109.17609 33.50082 L 109.28026 33.53639 L 109.38443 33.57213 L 109.48862 33.60803 L 109.59279 33.6441 L 109.69696 33.68033 L 109.80115 33.71672 L 109.9053 33.75328 L 110.00949 33.79001 L 110.11365 33.82689 L 110.21785 33.86395 L 110.32202 33.90117 L 110.4262 33.93855 L 110.53036 33.9761 L 110.63454 34.0138 L 110.73871 34.0517 L 110.8429 34.08974 L 110.94705 34.12793 L 111.05125 34.16632 L 111.15541 34.20483 L 111.2596 34.24355 L 111.36377 34.28241 L 111.46794 34.32144 L 111.57211 34.36063 L 111.67628 34.4 L 111.78047 34.43951 L 111.88466 34.4792 L 111.98882 34.51904 L 112.093 34.55908 L 112.19716 34.59926 L 112.30135 34.6396 L 112.40552 34.68011 L 112.50969 34.7208 L 112.61388 34.76163 L 112.71805 34.80264 L 112.82222 34.84381 L 112.92639 34.88516 L 113.03056 34.92665 L 113.13474 34.9683 L 113.2389 35.01013 L 113.3431 35.05212 L 113.44728 35.0943 L 113.55144 35.13661 L 113.65562 35.17912 L 113.75978 35.22174 L 113.86397 35.26457 L 113.96814 35.30756 L 114.07233 35.3507 L 114.1765 35.39401 L 114.28067 35.43747 L 114.38484 35.48114 L 114.48903 35.52495 L 114.59319 35.56891 L 114.69737 35.61304 L 114.80153 35.65735 L 114.90573 35.70181 L 115.0099 35.74644 L 115.11407 35.79124 L 115.21825 35.8362 L 115.32242 35.88132 L 115.42659 35.9266 L 115.53078 35.97206 L 115.63495 36.01767 L 115.73914 36.06345 L 115.84329 36.1094 L 115.94748 36.15552 L 116.05165 36.20178 L 116.15582 36.24823 L 116.26 36.29483 L 116.36417 36.3416 L 116.46835 36.38853 L 116.57254 36.43565 L 116.6767 36.4829 L 116.78087 36.53033 L 116.88504 36.57793 L 116.98921 36.62567 L 117.0934 36.67361 L 117.19757 36.7217 L 117.30176 36.76996 L 117.40591 36.81836 L 117.5101 36.86693 L 117.61427 36.9157 L 117.71844 36.96458 L 117.82262 37.01367 L 117.92679 37.06291 L 118.03098 37.11234 L 118.13516 37.1619 L 118.23932 37.21162 L 118.3435 37.26154 L 118.44766 37.31157 L 118.55185 37.36183 L 118.65602 37.41222 L 118.76021 37.46277 L 118.86438 37.5135 L 118.96855 37.56439 L 119.07272 37.61543 L 119.17691 37.66664 L 119.28107 37.71803 L 119.38525 37.76958 L 119.48941 37.82129 L 119.59361 37.87317 L 119.69778 37.9252 L 119.80196 37.9774 L 119.90613 38.02979 L 120.0103 38.08232 L 120.11447 38.13501 L 120.21866 38.18788 L 120.32281 38.2409 L 120.427 38.2941 L 120.53117 38.34746 L 120.63535 38.40097 L 120.73953 38.45467 L 120.84369 38.50851 L 120.94788 38.56253 L 121.05203 38.61671 L 121.15623 38.67105 L 121.2604 38.72557 L 121.36458 38.78024 L 121.46875 38.83508 L 121.57292 38.89008 L 121.6771 38.94525 L 121.78128 39.0006 L 121.88544 39.05609 L 121.98964 39.11177 L 122.0938 39.16757 L 122.19798 39.22359 L 122.30215 39.27972 L 122.40633 39.33606 L 122.5105 39.39255 L 122.61467 39.44919 L 122.71884 39.50601 L 122.82304 39.56299 L 122.9272 39.62013 L 123.03139 39.67744 L 123.13554 39.73492 L 123.23973 39.79257 L 123.3439 39.85037 L 123.44807 39.90833 L 123.55225 39.96646 L 123.65643 40.02477 L 123.7606 40.08324 L 123.86479 40.14185 L 123.96895 40.20065 L 124.07314 40.2596 L 124.17729 40.31873 L 124.28146 40.378 L 124.38567 40.43748 L 124.48982 40.49707 L 124.59401 40.55685 L 124.69817 40.6168 L 124.80235 40.67691 L 124.90652 40.7372 L 125.0107 40.79762 L 125.11487 40.85825 L 125.21906 40.91899 L 125.32323 40.97993 L 125.42741 41.04105 L 125.53157 41.10228 L 125.63576 41.16373 L 125.73991 41.22531 L 125.8441 41.28708 L 125.94829 41.34901 L 126.05246 41.41106 L 126.15663 41.47333 L 126.2608 41.53574 L 126.36497 41.59834 L 126.46916 41.66107 L 126.57332 41.72398 L 126.67752 41.78706 L 126.78168 41.85031 L 126.88586 41.9137 L 126.99004 41.97728 L 127.09421 42.041 L 127.19838 42.1049 L 127.30255 42.16896 L 127.40672 42.23318 L 127.51093 42.29758 L 127.61508 42.36215 L 127.71927 42.42686 L 127.82343 42.49174 L 127.92761 42.5568 L 128.03179 42.62201 L 128.13594 42.6874 L 128.24015 42.75294 L 128.3443 42.81865 L 128.44849 42.88452 L 128.55266 42.95056 L 128.65683 43.01675 L 128.761 43.08315 L 128.86518 43.14966 L 128.96935 43.21635 L 129.07355 43.28323 L 129.1777 43.35025 L 129.28189 43.41745 L 129.38605 43.4848 L 129.49024 43.55232 L 129.5944 43.62001 L 129.69858 43.68785 L 129.80277 43.75587 L 129.90694 43.82402 L 130.01111 43.89241 L 130.1153 43.9609 L 130.21945 44.02957 L 130.32364 44.0984 L 130.4278 44.16742 L 130.53199 44.23657 L 130.63617 44.30591 L 130.74034 44.37541 L 130.84452 44.44507 L 130.94869 44.5149 L 131.05286 44.58488 L 131.15705 44.65504 L 131.2612 44.72537 L 131.3654 44.79585 L 131.46956 44.8665 L 131.57375 44.93732 L 131.67792 45.00829 L 131.78209 45.07944 L 131.88626 45.15076 L 131.99042 45.22223 L 132.0946 45.29385 L 132.19879 45.36568 L 132.30297 45.43762 L 132.40714 45.50977 L 132.5113 45.58206 L 132.61548 45.65451 L 132.71967 45.72716 L 132.82382 45.79994 L 132.92803 45.87291 L 133.03218 45.94601 L 133.13637 46.0193 L 133.24054 46.09276 L 133.34471 46.16637 L 133.44889 46.24016 L 133.55306 46.31409 L 133.65724 46.3882 L 133.76143 46.46248 L 133.86559 46.53691 L 133.96977 46.61153 L 134.07393 46.68628 L 134.17812 46.76122 L 134.28229 46.83632 L 134.38646 46.91156 L 134.49065 46.987 L 134.59482 47.06258 L 134.69899 47.13835 L 134.80318 47.21425 L 134.90734 47.29034 L 135.01152 47.3666 L 135.11568 47.44301 L 135.21987 47.51959 L 135.32405 47.59633 L 135.42823 47.67325 L 135.5324 47.75032 L 135.63655 47.82755 L 135.74074 47.90495 L 135.84491 47.98251 L 135.94908 48.06024 L 136.05327 48.13814 L 136.15743 48.2162 L 136.26161 48.29443 L 136.3658 48.37283 L 136.46996 48.45137 L 136.57415 48.53009 L 136.6783 48.60898 L 136.78249 48.68802 L 136.88668 48.76726 L 136.99085 48.84662 L 137.09502 48.92618 L 137.19919 49.00586 L 137.30336 49.08577 L 137.40755 49.1658 L 137.5117 49.24599 L 137.61589 49.32637 L 137.72006 49.40689 L 137.82425 49.48758 L 137.92842 49.56845 L 138.0326 49.64948 L 138.13677 49.73067 L 138.24094 49.81201 L 138.34511 49.89354 L 138.4493 49.97522 L 138.55347 50.05707 L 138.65766 50.13908 L 138.76181 50.22125 "/>
<path transform="matrix(2.7777777,0,0,-2.7777777,87.41944,420.65275)" stroke-width=".79701" stroke-linecap="butt" stroke-miterlimit="10" stroke-linejoin="miter" fill="none" stroke="#929292" d="M 34.6909 94.7383 L 34.79507 94.82047 L 34.89925 94.9025 L 35.00343 94.98434 L 35.10759 95.06602 L 35.21178 95.14755 L 35.31595 95.2289 L 35.42012 95.31009 L 35.52429 95.39111 L 35.62848 95.47198 L 35.73265 95.55269 L 35.83682 95.63322 L 35.941 95.71358 L 36.04518 95.79378 L 36.14935 95.87383 L 36.25352 95.95369 L 36.3577 96.03342 L 36.46188 96.11296 L 36.56606 96.19235 L 36.67023 96.27156 L 36.7744 96.35063 L 36.87857 96.42949 L 36.98274 96.50824 L 37.08691 96.58679 L 37.1911 96.66518 L 37.29527 96.74342 L 37.39946 96.82149 L 37.50362 96.89938 L 37.6078 96.97711 L 37.71198 97.05469 L 37.81615 97.1321 L 37.92032 97.20934 L 38.0245 97.28639 L 38.12868 97.36331 L 38.23285 97.44005 L 38.33702 97.51665 L 38.44121 97.59306 L 38.54538 97.6693 L 38.64955 97.74538 L 38.75372 97.82132 L 38.85791 97.89706 L 38.96208 97.97267 L 39.06625 98.04808 L 39.17043 98.12337 L 39.27461 98.19847 L 39.37877 98.27339 L 39.48296 98.34816 L 39.58713 98.42278 L 39.69131 98.49721 L 39.79547 98.57149 L 39.89966 98.6456 L 40.00383 98.71954 L 40.10802 98.79332 L 40.21217 98.86694 L 40.31636 98.94038 L 40.42053 99.01369 L 40.52472 99.0868 L 40.62888 99.15977 L 40.73305 99.23254 L 40.83723 99.30519 L 40.94139 99.37767 L 41.04558 99.44997 L 41.14975 99.5221 L 41.25394 99.59407 L 41.3581 99.66588 L 41.46228 99.73752 L 41.56645 99.80899 L 41.67064 99.88031 L 41.7748 99.95145 L 41.87898 100.02243 L 41.98315 100.09325 L 42.08733 100.1639 L 42.1915 100.23439 L 42.29568 100.3047 L 42.39986 100.37488 L 42.50403 100.44485 L 42.6082 100.51468 L 42.71239 100.58435 L 42.81656 100.65385 L 42.92073 100.72319 L 43.0249 100.79236 L 43.12909 100.86136 L 43.23326 100.93019 L 43.33743 100.99889 L 43.4416 101.0674 L 43.54579 101.13574 L 43.64995 101.20392 L 43.75414 101.27194 L 43.8583 101.33978 L 43.9625 101.40749 L 44.06665 101.47499 L 44.17084 101.54236 L 44.27501 101.60954 L 44.3792 101.67659 L 44.48335 101.74347 L 44.58752 101.81017 L 44.69171 101.8767 L 44.79588 101.94307 L 44.90005 102.00928 L 45.00423 102.07532 L 45.10841 102.1412 L 45.21259 102.20691 L 45.31676 102.27246 L 45.42093 102.33784 L 45.5251 102.40306 L 45.62927 102.46811 L 45.73347 102.533 L 45.83763 102.59772 L 45.94182 102.66226 L 46.04597 102.72668 L 46.15016 102.79091 L 46.25433 102.85497 L 46.3585 102.91885 L 46.46268 102.9826 L 46.56686 103.04617 L 46.67104 103.10959 L 46.77522 103.17282 L 46.87938 103.2359 L 46.98357 103.29881 L 47.08772 103.36156 L 47.19191 103.42413 L 47.2961 103.48656 L 47.40027 103.54881 L 47.50444 103.6109 L 47.60861 103.67282 L 47.71278 103.73459 L 47.81697 103.7962 L 47.92113 103.8576 L 48.02531 103.91888 L 48.12949 103.97998 L 48.23367 104.04091 L 48.33784 104.1017 L 48.442 104.1623 L 48.54619 104.22275 L 48.65034 104.283 L 48.75453 104.34314 L 48.85872 104.40308 L 48.96289 104.46284 L 49.06706 104.52249 L 49.17123 104.58192 L 49.2754 104.64124 L 49.3796 104.70035 L 49.48375 104.75931 L 49.58794 104.8181 L 49.6921 104.87674 L 49.7963 104.9352 L 49.90047 104.9935 L 50.00464 105.05164 L 50.10881 105.1096 L 50.21298 105.16742 L 50.31715 105.22507 L 50.42136 105.28253 L 50.5255 105.33986 L 50.6297 105.397 L 50.73386 105.454 L 50.83804 105.5108 L 50.94221 105.56746 L 51.04639 105.62395 L 51.15056 105.68027 L 51.25473 105.73642 L 51.35892 105.79243 L 51.4631 105.84825 L 51.56726 105.90392 L 51.67145 105.95944 L 51.7756 106.01476 L 51.87979 106.06993 L 51.98396 106.12494 L 52.08813 106.17978 L 52.19232 106.23447 L 52.29648 106.28897 L 52.40067 106.34332 L 52.50484 106.3975 L 52.60901 106.45152 L 52.71318 106.50539 L 52.81735 106.55905 L 52.92154 106.6126 L 53.02573 106.66597 L 53.12988 106.71916 L 53.23407 106.77219 L 53.33823 106.82506 L 53.44241 106.87775 L 53.54659 106.93028 L 53.65077 106.98265 L 53.75494 107.03487 L 53.85912 107.08693 L 53.96329 107.1388 L 54.06747 107.1905 L 54.17163 107.24207 L 54.27582 107.29344 L 54.37999 107.34467 L 54.48418 107.3957 L 54.58835 107.44661 L 54.69252 107.49733 L 54.79669 107.5479 L 54.90086 107.59828 L 55.00504 107.64851 L 55.10922 107.69858 L 55.2134 107.74849 L 55.31758 107.79822 L 55.42174 107.8478 L 55.52592 107.8972 L 55.6301 107.94646 L 55.73427 107.99553 L 55.83844 108.04445 L 55.94261 108.09317 L 56.0468 108.14177 L 56.15097 108.19019 L 56.25514 108.23846 L 56.35931 108.28654 L 56.46349 108.33446 L 56.56766 108.38222 L 56.67184 108.42982 L 56.77602 108.47725 L 56.8802 108.52454 L 56.98436 108.57162 L 57.08855 108.61858 L 57.19272 108.66533 L 57.29689 108.71194 L 57.40106 108.75838 L 57.50525 108.80466 L 57.60942 108.85078 L 57.71361 108.89673 L 57.81776 108.94252 L 57.92195 108.98813 L 58.02611 109.03358 L 58.1303 109.07889 L 58.23447 109.12401 L 58.33865 109.16898 L 58.44283 109.21378 L 58.547 109.25839 L 58.65117 109.30286 L 58.75536 109.34717 L 58.85951 109.3913 L 58.9637 109.43527 L 59.06787 109.47908 L 59.17206 109.52274 L 59.27623 109.56621 L 59.3804 109.60953 L 59.48457 109.65268 L 59.58875 109.69566 L 59.69292 109.73848 L 59.79709 109.78114 L 59.90128 109.82362 L 60.00545 109.86597 L 60.10962 109.90811 L 60.21379 109.95012 L 60.31798 109.99196 L 60.42213 110.03363 L 60.52632 110.07512 L 60.6305 110.11646 L 60.73468 110.15764 L 60.83885 110.19865 L 60.94302 110.2395 L 61.0472 110.28018 L 61.15137 110.32068 L 61.25554 110.36104 L 61.35973 110.40121 L 61.4639 110.44124 L 61.56808 110.4811 L 61.67224 110.52078 L 61.77643 110.5603 L 61.8806 110.59967 L 61.98477 110.63887 L 62.08894 110.6779 L 62.19312 110.71678 L 62.2973 110.75546 L 62.40149 110.79402 L 62.50565 110.83238 L 62.60983 110.87059 L 62.71399 110.90865 L 62.81818 110.9465 L 62.92235 110.98422 L 63.02654 111.02179 L 63.1307 111.05917 L 63.23488 111.09639 L 63.33905 111.13345 L 63.44322 111.17035 L 63.5474 111.20706 L 63.65157 111.24364 L 63.75574 111.28003 L 63.85992 111.31627 L 63.96411 111.35234 L 64.06827 111.38823 L 64.17245 111.42397 L 64.27661 111.45953 L 64.3808 111.49496 L 64.48497 111.5302 L 64.58914 111.56528 L 64.69333 111.60019 L 64.7975 111.63495 L 64.90167 111.66953 L 65.00586 111.70395 L 65.11002 111.7382 L 65.2142 111.77231 L 65.31836 111.80624 L 65.42256 111.84 L 65.52673 111.87358 L 65.6309 111.90703 L 65.73508 111.94029 L 65.83925 111.97339 L 65.94342 112.00633 L 66.0476 112.03911 L 66.15176 112.07172 L 66.25597 112.10417 L 66.36012 112.13644 L 66.46431 112.16855 L 66.56848 112.20052 L 66.67265 112.23228 L 66.77682 112.26393 L 66.881 112.29538 L 66.98518 112.32666 L 67.08937 112.3578 L 67.19353 112.38875 L 67.2977 112.41957 L 67.40187 112.45018 L 67.50604 112.48067 L 67.61023 112.51097 L 67.71439 112.5411 L 67.81859 112.57109 L 67.92274 112.60088 L 68.02693 112.63054 L 68.1311 112.66002 L 68.23528 112.68935 L 68.33945 112.71848 L 68.44362 112.74745 L 68.5478 112.77629 L 68.652 112.80495 L 68.75615 112.83344 L 68.86034 112.86177 L 68.9645 112.88992 L 69.06868 112.91794 L 69.17285 112.94577 L 69.27702 112.97343 L 69.38121 113.00093 L 69.48538 113.02829 L 69.58955 113.05545 L 69.69374 113.08246 L 69.7979 113.10931 L 69.90208 113.13599 L 70.00624 113.1625 L 70.11044 113.18886 L 70.21461 113.21504 L 70.31879 113.24106 L 70.42296 113.26692 L 70.52713 113.29262 L 70.6313 113.31815 L 70.73549 113.3435 L 70.83965 113.3687 L 70.94385 113.39375 L 71.048 113.41861 L 71.15218 113.44331 L 71.25636 113.46786 L 71.36052 113.49223 L 71.4647 113.51645 L 71.56886 113.54048 L 71.67307 113.56436 L 71.77724 113.58809 L 71.88141 113.61165 L 71.98558 113.63503 L 72.08975 113.65825 L 72.19392 113.6813 L 72.29811 113.7042 L 72.40228 113.72693 L 72.50647 113.7495 L 72.61063 113.77188 L 72.71481 113.79413 L 72.81898 113.81621 L 72.92316 113.8381 L 73.02733 113.85983 L 73.1315 113.88142 L 73.23569 113.90283 L 73.33987 113.92407 L 73.44403 113.94516 L 73.54822 113.96608 L 73.65237 113.98683 L 73.75656 114.00742 L 73.86073 114.02783 L 73.96492 114.0481 L 74.06909 114.06819 L 74.17326 114.0881 L 74.27744 114.10788 L 74.38162 114.12747 L 74.48578 114.14691 L 74.58997 114.16618 L 74.69412 114.18529 L 74.79832 114.20424 L 74.9025 114.223 L 75.00665 114.24161 L 75.11084 114.26007 L 75.215 114.27834 L 75.31918 114.29646 L 75.42336 114.31442 L 75.52754 114.3322 L 75.63171 114.34982 L 75.73589 114.3673 L 75.84006 114.38457 L 75.94424 114.4017 L 76.0484 114.41867 L 76.15259 114.43547 L 76.25674 114.4521 L 76.36095 114.46858 L 76.46512 114.48488 L 76.56929 114.50102 L 76.67346 114.517 L 76.77763 114.5328 L 76.8818 114.54846 L 76.986 114.56393 L 77.09015 114.57925 L 77.19435 114.5944 L 77.29851 114.60939 L 77.4027 114.62422 L 77.50687 114.63889 L 77.61104 114.65338 L 77.71521 114.66771 L 77.81938 114.68187 L 77.92357 114.69586 L 78.02776 114.7097 L 78.13191 114.72336 L 78.2361 114.73688 L 78.34026 114.75021 L 78.44444 114.7634 L 78.54861 114.7764 L 78.65279 114.78925 L 78.75697 114.80194 L 78.86113 114.81445 L 78.96532 114.82681 L 79.06949 114.839 L 79.17366 114.85101 L 79.27783 114.86288 L 79.382 114.87457 L 79.48618 114.88611 L 79.59038 114.89748 L 79.69453 114.90868 L 79.79872 114.91971 L 79.90288 114.93059 L 80.00706 114.94128 L 80.11124 114.95181 L 80.21541 114.9622 L 80.31958 114.97241 L 80.42377 114.98247 L 80.52794 114.99236 L 80.63213 115.00206 L 80.73628 115.01161 L 80.84047 115.021 L 80.94463 115.03023 L 81.04881 115.03928 L 81.153 115.04819 L 81.25717 115.05692 L 81.36134 115.06549 L 81.46552 115.07388 L 81.56969 115.08212 L 81.67387 115.0902 L 81.77803 115.0981 L 81.88222 115.10583 L 81.98639 115.1134 L 82.09058 115.12082 L 82.19475 115.12807 L 82.29892 115.13516 L 82.40309 115.14207 L 82.50725 115.14882 L 82.61143 115.15543 L 82.71562 115.16183 L 82.8198 115.16809 L 82.92397 115.1742 L 83.02814 115.18013 L 83.13231 115.18588 L 83.2365 115.1915 L 83.34065 115.19691 L 83.44484 115.2022 L 83.54901 115.2073 L 83.6532 115.21225 L 83.75737 115.21701 L 83.86154 115.22163 L 83.96571 115.22609 L 84.06989 115.23036 L 84.17406 115.23448 L 84.27826 115.23843 L 84.38242 115.24223 L 84.4866 115.24585 L 84.59076 115.24931 L 84.69495 115.25261 L 84.79912 115.25574 L 84.90329 115.2587 L 85.00748 115.2615 L 85.11165 115.26414 L 85.21582 115.26662 L 85.32 115.26892 L 85.42416 115.27106 L 85.52835 115.27304 L 85.6325 115.27484 L 85.7367 115.2765 L 85.84088 115.278 L 85.94505 115.2793 L 86.04922 115.28046 L 86.1534 115.28146 L 86.25757 115.28229 L 86.36174 115.28293 L 86.46591 115.28343 L 86.5701 115.28375 L 86.67427 115.28392 L 86.77844 115.28392 L 86.88263 115.28375 L 86.98679 115.28343 L 87.09097 115.28294 L 87.19513 115.28229 L 87.29932 115.28146 L 87.4035 115.28049 L 87.50768 115.27933 L 87.61185 115.27802 L 87.71602 115.27654 L 87.82019 115.27489 L 87.92438 115.27309 L 88.02853 115.2711 L 88.13274 115.26897 L 88.2369 115.26665 L 88.34108 115.26419 L 88.44525 115.26157 L 88.54942 115.25876 L 88.6536 115.25578 L 88.75777 115.25267 L 88.86194 115.24937 L 88.96614 115.24591 L 89.0703 115.2423 L 89.17448 115.2385 L 89.27864 115.23456 L 89.38283 115.23044 L 89.487 115.22617 L 89.59117 115.22171 L 89.69536 115.2171 L 89.79953 115.21234 L 89.9037 115.2074 L 90.00789 115.20229 L 90.11205 115.197 L 90.21622 115.19159 L 90.32039 115.18599 L 90.42456 115.18022 L 90.52876 115.1743 L 90.63292 115.1682 L 90.7371 115.16196 L 90.84126 115.15553 L 90.94545 115.14894 L 91.04962 115.1422 L 91.1538 115.13528 L 91.25798 115.12819 L 91.36215 115.12096 L 91.46632 115.11354 L 91.57051 115.10597 L 91.67467 115.09824 L 91.77885 115.09033 L 91.88301 115.08224 L 91.9872 115.07402 L 92.09138 115.06563 L 92.19556 115.05707 L 92.29973 115.04834 L 92.4039 115.03944 L 92.50807 115.0304 L 92.61226 115.02116 L 92.71642 115.01178 L 92.8206 115.00223 L 92.92477 114.99251 L 93.02896 114.98264 L 93.13313 114.9726 L 93.2373 114.96239 L 93.34148 114.952 L 93.44565 114.94147 L 93.54982 114.93077 L 93.65402 114.91989 L 93.75818 114.90886 L 93.86235 114.89767 L 93.96652 114.88629 L 94.0707 114.87477 L 94.17488 114.86308 L 94.27904 114.85123 L 94.38322 114.8392 L 94.48738 114.82703 L 94.59158 114.81468 L 94.69576 114.80215 L 94.79993 114.78947 L 94.9041 114.77663 L 95.00827 114.76364 L 95.11244 114.75046 L 95.21663 114.7371 L 95.3208 114.7236 L 95.42499 114.70995 L 95.52914 114.6961 L 95.63333 114.68211 L 95.7375 114.66795 L 95.84167 114.65361 L 95.94585 114.63913 L 96.05003 114.62448 L 96.1542 114.60965 L 96.25839 114.59468 L 96.36255 114.57953 L 96.46674 114.5642 L 96.57089 114.54872 L 96.67508 114.53308 L 96.77925 114.51727 L 96.88344 114.50131 L 96.98761 114.48517 L 97.09178 114.46887 L 97.19595 114.45241 L 97.30014 114.43576 L 97.4043 114.41896 L 97.50848 114.40201 L 97.61266 114.38487 L 97.71683 114.3676 L 97.82101 114.35013 L 97.92517 114.3325 L 98.02936 114.31473 L 98.13351 114.29678 L 98.2377 114.27866 L 98.34187 114.26038 L 98.44606 114.24194 L 98.55023 114.22334 L 98.6544 114.20454 L 98.75858 114.18562 L 98.86276 114.16652 L 98.96692 114.14725 L 99.0711 114.12782 L 99.17528 114.10823 L 99.27946 114.08846 L 99.38364 114.06854 L 99.48781 114.04845 L 99.59198 114.0282 L 99.69615 114.00777 L 99.80032 113.9872 L 99.90451 113.96645 L 100.00868 113.94553 L 100.11287 113.92444 L 100.21703 113.9032 L 100.32121 113.88179 L 100.42538 113.86023 L 100.52956 113.83849 L 100.63373 113.81657 L 100.73792 113.79451 L 100.84209 113.77228 L 100.94627 113.7499 L 101.05043 113.72733 L 101.15462 113.7046 L 101.25877 113.68172 L 101.36296 113.65865 L 101.46713 113.63544 L 101.5713 113.61206 L 101.67549 113.5885 L 101.77965 113.56479 L 101.88383 113.54091 L 101.988 113.51686 L 102.09218 113.49266 L 102.19635 113.46829 L 102.30054 113.44376 L 102.40471 113.41905 L 102.5089 113.39418 L 102.61305 113.36916 L 102.71724 113.34395 L 102.8214 113.31859 L 102.92558 113.29306 L 103.02977 113.26736 L 103.13394 113.24152 L 103.23811 113.21552 L 103.34229 113.18933 L 103.44646 113.16298 L 103.55064 113.13646 L 103.6548 113.10979 L 103.75899 113.08293 L 103.86316 113.05594 L 103.96735 113.02875 L 104.07152 113.00142 L 104.17569 112.97392 L 104.27986 112.94626 L 104.38403 112.91841 L 104.4882 112.89043 L 104.59239 112.86226 L 104.69656 112.83394 L 104.80075 112.80545 L 104.9049 112.7768 L 105.0091 112.74797 L 105.11327 112.71898 L 105.21744 112.68983 L 105.32161 112.66054 L 105.42577 112.63106 L 105.52997 112.60141 L 105.63414 112.5716 L 105.73831 112.54164 L 105.84248 112.51149 L 105.94666 112.4812 L 106.05083 112.45073 L 106.15503 112.42009 L 106.25919 112.3893 L 106.36337 112.35834 L 106.46753 112.32722 L 106.57172 112.29593 L 106.67589 112.26448 L 106.78006 112.23285 L 106.88423 112.20107 L 106.9884 112.16913 L 107.09259 112.13701 L 107.19678 112.10474 L 107.30093 112.0723 L 107.40512 112.03969 L 107.50928 112.00691 L 107.61346 111.97398 L 107.71764 111.94087 L 107.82181 111.90761 L 107.926 111.87418 L 108.03017 111.84058 L 108.13434 111.80682 L 108.23853 111.7729 L 108.34268 111.73882 L 108.44687 111.70456 L 108.55103 111.67014 L 108.65523 111.63556 L 108.7594 111.60081 L 108.86357 111.5659 L 108.96774 111.53082 L 109.0719 111.49557 L 109.17609 111.46017 L 109.28026 111.42459 L 109.38443 111.38887 L 109.48862 111.35295 L 109.59279 111.31691 L 109.69696 111.28067 L 109.80115 111.24426 L 109.9053 111.2077 L 110.00949 111.17097 L 110.11365 111.1341 L 110.21785 111.09705 L 110.32202 111.05983 L 110.4262 111.02245 L 110.53036 110.9849 L 110.63454 110.94719 L 110.73871 110.9093 L 110.8429 110.87126 L 110.94705 110.83305 L 111.05125 110.7947 L 111.15541 110.75615 L 111.2596 110.71744 L 111.36377 110.67859 L 111.46794 110.63956 L 111.57211 110.60036 L 111.67628 110.561 L 111.78047 110.52147 L 111.88466 110.4818 L 111.98882 110.44194 L 112.093 110.40192 L 112.19716 110.36174 L 112.30135 110.32138 L 112.40552 110.28087 L 112.50969 110.2402 L 112.61388 110.19936 L 112.71805 110.15836 L 112.82222 110.11717 L 112.92639 110.07585 L 113.03056 110.03435 L 113.13474 109.99269 L 113.2389 109.95085 L 113.3431 109.90887 L 113.44728 109.8667 L 113.55144 109.82437 L 113.65562 109.78189 L 113.75978 109.73924 L 113.86397 109.69643 L 113.96814 109.65343 L 114.07233 109.6103 L 114.1765 109.56697 L 114.28067 109.52351 L 114.38484 109.47986 L 114.48903 109.43604 L 114.59319 109.39207 L 114.69737 109.34795 L 114.80153 109.30365 L 114.90573 109.25919 L 115.0099 109.21455 L 115.11407 109.16975 L 115.21825 109.1248 L 115.32242 109.07968 L 115.42659 109.0344 L 115.53078 108.98894 L 115.63495 108.94331 L 115.73914 108.89754 L 115.84329 108.85158 L 115.94748 108.80548 L 116.05165 108.7592 L 116.15582 108.71275 L 116.26 108.66615 L 116.36417 108.61938 L 116.46835 108.57246 L 116.57254 108.52533 L 116.6767 108.47809 L 116.78087 108.43066 L 116.88504 108.38306 L 116.98921 108.33531 L 117.0934 108.28738 L 117.19757 108.23929 L 117.30176 108.19102 L 117.40591 108.14262 L 117.5101 108.09406 L 117.61427 108.04529 L 117.71844 107.9964 L 117.82262 107.94731 L 117.92679 107.89807 L 118.03098 107.84865 L 118.13516 107.79909 L 118.23932 107.74936 L 118.3435 107.69946 L 118.44766 107.64941 L 118.55185 107.59915 L 118.65602 107.54878 L 118.76021 107.49821 L 118.86438 107.44748 L 118.96855 107.3966 L 119.07272 107.34555 L 119.17691 107.29434 L 119.28107 107.24295 L 119.38525 107.1914 L 119.48941 107.13971 L 119.59361 107.08781 L 119.69778 107.03578 L 119.80196 106.98358 L 119.90613 106.93121 L 120.0103 106.87868 L 120.11447 106.82599 L 120.21866 106.7731 L 120.32281 106.72008 L 120.427 106.6669 L 120.53117 106.61354 L 120.63535 106.56003 L 120.73953 106.50632 L 120.84369 106.45247 L 120.94788 106.39845 L 121.05203 106.34428 L 121.15623 106.28993 L 121.2604 106.23541 L 121.36458 106.18076 L 121.46875 106.1259 L 121.57292 106.0709 L 121.6771 106.01573 L 121.78128 105.9604 L 121.88544 105.90489 L 121.98964 105.84923 L 122.0938 105.79341 L 122.19798 105.7374 L 122.30215 105.68126 L 122.40633 105.62494 L 122.5105 105.56845 L 122.61467 105.5118 L 122.71884 105.45497 L 122.82304 105.398 L 122.9272 105.34085 L 123.03139 105.28354 L 123.13554 105.22606 L 123.23973 105.16843 L 123.3439 105.11063 L 123.44807 105.05266 L 123.55225 104.99452 L 123.65643 104.93622 L 123.7606 104.87776 L 123.86479 104.81914 L 123.96895 104.76033 L 124.07314 104.70139 L 124.17729 104.64226 L 124.28146 104.58298 L 124.38567 104.5235 L 124.48982 104.46391 L 124.59401 104.40414 L 124.69817 104.34418 L 124.80235 104.28407 L 124.90652 104.22379 L 125.0107 104.16338 L 125.11487 104.10275 L 125.21906 104.04199 L 125.32323 103.98105 L 125.42741 103.91994 L 125.53157 103.8587 L 125.63576 103.79726 L 125.73991 103.73567 L 125.8441 103.67392 L 125.94829 103.61198 L 126.05246 103.54993 L 126.15663 103.48766 L 126.2608 103.42525 L 126.36497 103.36266 L 126.46916 103.29991 L 126.57332 103.23701 L 126.67752 103.17392 L 126.78168 103.11067 L 126.88586 103.04729 L 126.99004 102.98372 L 127.09421 102.91998 L 127.19838 102.8561 L 127.30255 102.79204 L 127.40672 102.7278 L 127.51093 102.6634 L 127.61508 102.59885 L 127.71927 102.53413 L 127.82343 102.46925 L 127.92761 102.40419 L 128.03179 102.33897 L 128.13594 102.27359 L 128.24015 102.20805 L 128.3443 102.14235 L 128.44849 102.07648 L 128.55266 102.01042 L 128.65683 101.94423 L 128.761 101.87784 L 128.86518 101.81134 L 128.96935 101.74463 L 129.07355 101.67775 L 129.1777 101.61075 L 129.28189 101.54353 L 129.38605 101.4762 L 129.49024 101.40866 L 129.5944 101.34097 L 129.69858 101.27315 L 129.80277 101.20511 L 129.90694 101.13696 L 130.01111 101.06859 L 130.1153 101.00008 L 130.21945 100.93141 L 130.32364 100.86258 L 130.4278 100.79356 L 130.53199 100.72441 L 130.63617 100.65508 L 130.74034 100.58557 L 130.84452 100.51591 L 130.94869 100.44609 L 131.05286 100.3761 L 131.15705 100.30594 L 131.2612 100.23563 L 131.3654 100.16513 L 131.46956 100.09448 L 131.57375 100.02368 L 131.67792 99.9527 L 131.78209 99.88155 L 131.88626 99.81024 L 131.99042 99.73875 L 132.0946 99.66713 L 132.19879 99.5953 L 132.30297 99.52336 L 132.40714 99.45123 L 132.5113 99.37892 L 132.61548 99.30647 L 132.71967 99.23383 L 132.82382 99.16106 L 132.92803 99.08809 L 133.03218 99.01498 L 133.13637 98.9417 L 133.24054 98.86823 L 133.34471 98.79463 L 133.44889 98.72084 L 133.55306 98.64691 L 133.65724 98.57278 L 133.76143 98.4985 L 133.86559 98.42407 L 133.96977 98.34947 L 134.07393 98.2747 L 134.17812 98.19977 L 134.28229 98.12468 L 134.38646 98.04942 L 134.49065 97.974 L 134.59482 97.8984 L 134.69899 97.82265 L 134.80318 97.74673 L 134.90734 97.67065 L 135.01152 97.59439 L 135.11568 97.51797 L 135.21987 97.44139 L 135.32405 97.36467 L 135.42823 97.28775 L 135.5324 97.21066 L 135.63655 97.13344 L 135.74074 97.05603 L 135.84491 96.97847 L 135.94908 96.90074 L 136.05327 96.82285 L 136.15743 96.7448 L 136.26161 96.66656 L 136.3658 96.58815 L 136.46996 96.50961 L 136.57415 96.4309 L 136.6783 96.35202 L 136.78249 96.27296 L 136.88668 96.19374 L 136.99085 96.11436 L 137.09502 96.0348 L 137.19919 95.95512 L 137.30336 95.87523 L 137.40755 95.79518 L 137.5117 95.71501 L 137.61589 95.63461 L 137.72006 95.5541 L 137.82425 95.4734 L 137.92842 95.39255 L 138.0326 95.31152 L 138.13677 95.23032 L 138.24094 95.14897 L 138.34511 95.06744 L 138.4493 94.98576 L 138.55347 94.90392 L 138.65766 94.8219 L 138.76181 94.73975 "/>
<symbol id="font_1_3">
<path d="M .291 .087000008 C .29500003 .047000003 .32200004 .005000001 .36900003 .005000001 C .39000003 .005000001 .45100004 .019000002 .45100004 .1 L .45100004 .15600002 L .42600004 .15600002 L .42600004 .1 C .42600004 .042000005 .40100003 .036000004 .39000003 .036000004 C .35700003 .036000004 .35300002 .081 .35300002 .086 L .35300002 .286 C .35300002 .328 .35300002 .367 .31700004 .404 C .27800004 .44300003 .22800002 .45900003 .18 .45900003 C .098 .45900003 .029 .41200004 .029 .34600003 C .029 .316 .049000004 .29900003 .075 .29900003 C .10300001 .29900003 .121 .31900005 .121 .34500004 C .121 .35700003 .116000007 .39000003 .07 .39100004 C .09700001 .42600004 .146 .43700005 .178 .43700005 C .22700003 .43700005 .284 .39800004 .284 .30900003 L .284 .272 C .23300001 .26900003 .16300002 .26600004 .1 .23600002 C .024999999 .20200002 0 .15000002 0 .106000009 C 0 .025000003 .09700001 0 .16 0 C .22600001 0 .272 .040000004 .291 .087000008 M .284 .25100003 L .284 .15100001 C .284 .056 .21200001 .022000002 .167 .022000002 C .11800001 .022000002 .077 .057000005 .077 .107 C .077 .16200002 .11900001 .24500002 .284 .25100003 Z "/>
</symbol>
<use xlink:href="#font_1_3" transform="matrix(27.673888,0,0,-27.673888,226.20674,439.59886)"/>
<symbol id="font_1_4">
<path d="M .14400001 .388 L .14400001 .705 L 0 .694 L 0 .663 C .07000001 .663 .07800001 .656 .07800001 .607 L .07800001 .011000001 L .103000018 .011000001 C .104 .012000001 .112 .026 .13900002 .07300001 C .15400002 .05 .19600001 0 .27 0 C .38900004 0 .49300004 .098000008 .49300004 .22700002 C .49300004 .35400004 .395 .45300005 .28100003 .45300005 C .20300001 .45300005 .16000001 .40600003 .14400001 .388 M .14700002 .12500002 L .14700002 .33100004 C .14700002 .35000003 .14700002 .351 .158 .367 C .19700001 .42300005 .252 .43100003 .27600003 .43100003 C .321 .43100003 .35700003 .40500004 .381 .367 C .40700004 .32600004 .41000004 .26900003 .41000004 .22800002 C .41000004 .19100002 .40800003 .13100001 .379 .086 C .358 .055000005 .32000003 .022000002 .266 .022000002 C .22100002 .022000002 .18500002 .046 .16100002 .083000008 C .14700002 .104 .14700002 .107 .14700002 .12500002 Z "/>
</symbol>
<use xlink:href="#font_1_4" transform="matrix(27.673888,0,0,-27.673888,417.77485,443.24879)"/>
<symbol id="font_2_4">
<path d="M .45700003 .586 C .461 .6 .461 .602 .461 .609 C .461 .62700006 .447 .63600006 .432 .63600006 C .42200003 .63600006 .40600003 .63 .397 .615 C .395 .61 .387 .579 .38300003 .561 C .37600003 .535 .36900003 .508 .363 .48100005 L .318 .301 C .314 .286 .271 .21600002 .20500002 .21600002 C .15400002 .21600002 .143 .26000003 .143 .29700003 C .143 .34300003 .16000001 .40500004 .194 .49300004 C .21000001 .53400006 .21400002 .545 .21400002 .56500008 C .21400002 .61 .18200001 .6470001 .13200002 .6470001 C .037 .6470001 0 .50200006 0 .49300004 C 0 .48300005 .01 .48300005 .012 .48300005 C .022000002 .48300005 .023 .485 .028000003 .50100007 C .055000009 .595 .095000009 .625 .12900001 .625 C .13700001 .625 .15400002 .625 .15400002 .59300008 C .15400002 .568 .14400001 .54200008 .13700001 .523 C .097 .41700004 .079 .36 .079 .31300003 C .079 .224 .142 .194 .201 .194 C .24000003 .194 .274 .21100001 .30200003 .23900002 C .289 .187 .277 .13800001 .237 .08500001 C .21100001 .051 .17300001 .022 .127 .022 C .113000009 .022 .068 .025000006 .051000008 .06400001 C .067 .06400001 .080000009 .06400001 .094000007 .076000008 C .104 .08500001 .11400001 .098000008 .11400001 .117000009 C .11400001 .148 .087000008 .15200001 .07700001 .15200001 C .054000006 .15200001 .021 .136 .021 .087000008 C .021 .037 .065000008 0 .127 0 C .23 0 .333 .091000009 .361 .20400001 L .45700003 .586 Z "/>
</symbol>
<use xlink:href="#font_2_4" transform="matrix(27.673888,0,0,-27.673888,316.1359,93.51202)"/>
<symbol id="font_3_1">
<path d="M .22600001 .63600006 C .22600001 .66300007 .224 .66400006 .19600001 .66400006 C .132 .601 .041 .6 0 .6 L 0 .564 C .023999997 .564 .09000001 .564 .14500001 .592 L .14500001 .082 C .14500001 .049000004 .14500001 .036000004 .04500001 .036000004 L .0069999995 .036000004 L .0069999995 0 C .024999999 .001 .148 .004 .185 .004 C .21600002 .004 .34200005 .001 .36400003 0 L .36400003 .036000004 L .32600004 .036000004 C .22600001 .036000004 .22600001 .049000004 .22600001 .082 L .22600001 .63600006 Z "/>
</symbol>
<use xlink:href="#font_3_1" transform="matrix(19.371666,0,0,-19.371666,331.0143,91.98889)"/>
<use xlink:href="#font_2_4" transform="matrix(27.673888,0,0,-27.673888,316.1359,359.8398)"/>
<symbol id="font_3_2">
<path d="M .442 .18200001 L .40800003 .18200001 C .40500004 .16000001 .39500005 .101 .38200004 .091000009 C .374 .085 .29700003 .085 .28300003 .085 L .099 .085 C .20400003 .178 .23900002 .20600002 .29900003 .25300003 C .37300004 .312 .442 .374 .442 .469 C .442 .59000006 .33600004 .66400006 .20800004 .66400006 C .084 .66400006 0 .577 0 .485 C 0 .43400003 .043000007 .42900003 .053000004 .42900003 C .077 .42900003 .10600001 .446 .10600001 .48200003 C .10600001 .5 .099 .535 .047000007 .535 C .078 .606 .146 .628 .19300002 .628 C .293 .628 .34500004 .55 .34500004 .469 C .34500004 .38200004 .28300003 .31300003 .25100003 .277 L .010000005 .039 C 0 .030000002 0 .028 0 0 L .41200004 0 L .442 .18200001 Z "/>
</symbol>
<use xlink:href="#font_3_2" transform="matrix(19.371666,0,0,-19.371666,330.12324,358.31944)"/>
<path transform="matrix(2.7777777,0,0,-2.7777777,87.41944,420.65275)" d="M 88.46182 72.4805 C 88.46182 72.51201 87.68524 72.53757 86.72728 72.53757 C 85.76932 72.53757 84.99274 72.51201 84.99274 72.4805 C 84.99274 72.44899 85.76932 72.42343 86.72728 72.42343 C 87.68524 72.42343 88.46182 72.44899 88.46182 72.4805 Z M 86.72728 72.4805 "/>
<path transform="matrix(2.7777777,0,0,-2.7777777,87.41944,420.65275)" stroke-width=".3985" stroke-linecap="butt" stroke-miterlimit="10" stroke-linejoin="miter" fill="none" stroke="#000000" d="M 88.46182 72.4805 C 88.46182 72.51201 87.68524 72.53757 86.72728 72.53757 C 85.76932 72.53757 84.99274 72.51201 84.99274 72.4805 C 84.99274 72.44899 85.76932 72.42343 86.72728 72.42343 C 87.68524 72.42343 88.46182 72.44899 88.46182 72.4805 Z M 86.72728 72.4805 "/>
<symbol id="font_2_2">
<path d="M .662 .65900006 C .663 .66300007 .665 .66800007 .665 .674 C .665 .683 .66 .683 .64 .683 L .21800003 .683 C .194 .683 .19300002 .68200007 .187 .66300007 L .13200002 .483 C .13000001 .47800002 .12900001 .47100003 .12900001 .469 C .12900001 .46800003 .12900001 .45800004 .14100002 .45800004 C .15 .45800004 .15200001 .46500004 .15400002 .46800003 C .192 .586 .24400002 .652 .40000005 .652 L .563 .652 L .0040000008 .027 C .0040000008 .026 0 .012 0 .009000001 C 0 0 .007000003 0 .025000003 0 L .46 0 C .48400007 0 .48500005 .001 .49100004 .020000002 L .562 .24100001 C .563 .245 .566 .252 .566 .256 C .566 .261 .562 .26700003 .553 .26700003 C .544 .26700003 .543 .263 .536 .24200002 C .492 .106000009 .44400005 .034 .27400003 .034 L .103000018 .034 L .662 .65900006 Z "/>
</symbol>
<use xlink:href="#font_2_2" transform="matrix(27.673888,0,0,-27.673888,287.39396,202.625)"/>
<symbol id="font_1_1">
<path d="M .23200003 .00999999 C .23200003 .012999982 .23200003 .014999986 .215 .03199999 C .09 .15799999 .058 .347 .058 .5 C .058 .674 .096 .84800007 .21900001 .97300007 C .23200003 .985 .23200003 .98700007 .23200003 .99 C .23200003 .99700006 .22800002 1 .222 1 C .21200001 1 .12200001 .93200007 .06299999 .805 C .012000002 .69500008 0 .584 0 .5 C 0 .422 .011 .301 .066 .188 C .126 .065 .21200001 0 .222 0 C .22800002 0 .23200003 .0029999912 .23200003 .00999999 Z "/>
</symbol>
<use xlink:href="#font_1_1" transform="matrix(27.673888,0,0,-27.673888,309.40083,209.54347)"/>
<path transform="matrix(2.7777777,0,0,-2.7777777,317.4222,186.8361)" stroke-width=".398" stroke-linecap="butt" stroke-miterlimit="10" stroke-linejoin="miter" fill="none" stroke="#000000" d="M 0 0 L 5.694 0 "/>
<symbol id="font_2_3">
<path d="M .305 .31300003 C .311 .33900003 .334 .43100003 .404 .43100003 C .409 .43100003 .433 .43100003 .454 .418 C .426 .41300003 .40600003 .388 .40600003 .36400003 C .40600003 .34800003 .417 .32900004 .444 .32900004 C .46600003 .32900004 .498 .34700004 .498 .38700003 C .498 .43900005 .439 .45300005 .405 .45300005 C .347 .45300005 .312 .40000005 .3 .37700004 C .275 .44300003 .221 .45300005 .19200002 .45300005 C .08800001 .45300005 .031000002 .32400004 .031000002 .29900003 C .031000002 .28900004 .041 .28900004 .043000007 .28900004 C .051000008 .28900004 .054000006 .291 .056 .3 C .09 .40600003 .156 .43100003 .19000001 .43100003 C .209 .43100003 .244 .42200003 .244 .36400003 C .244 .33300004 .22700002 .26600004 .19000001 .126 C .17400001 .064 .13900002 .022000002 .095000009 .022000002 C .08900001 .022000002 .06600001 .022000002 .045 .035 C .07000001 .040000004 .09200001 .061 .09200001 .089 C .09200001 .116000007 .07000001 .124000009 .055000009 .124000009 C .025 .124000009 0 .098000008 0 .06600001 C 0 .020000002 .050000006 0 .094000007 0 C .16000001 0 .19600001 .07000001 .19900002 .076000008 C .21100001 .039 .24700003 0 .307 0 C .41 0 .467 .12900001 .467 .15400002 C .467 .16400002 .458 .16400002 .455 .16400002 C .446 .16400002 .444 .16000001 .442 .15300001 C .409 .046 .341 .022000002 .30900003 .022000002 C .27 .022000002 .254 .054 .254 .08800001 C .254 .11000001 .26 .13200002 .271 .17600002 L .305 .31300003 Z "/>
</symbol>
<symbol id="font_2_1">
<path d="M .117000009 .194 C .117000009 .26 .092 .29900003 .05300001 .29900003 C .020000004 .29900003 0 .274 0 .246 C 0 .21900001 .020000004 .193 .05300001 .193 C .065000008 .193 .078 .197 .08800001 .206 C .091 .208 .092 .209 .093 .209 C .094000007 .209 .095000009 .208 .095000009 .194 C .095000009 .12 .06000001 .060000004 .027000003 .026999996 C .016000003 .016000003 .016000003 .013999999 .016000003 .0109999929 C .016000003 .003999993 .021000006 0 .026 0 C .037 0 .117000009 .077 .117000009 .194 Z "/>
</symbol>
<use xlink:href="#font_2_3" transform="matrix(27.673888,0,0,-27.673888,318.22477,202.92942)"/>
<use xlink:href="#font_2_1" transform="matrix(27.673888,0,0,-27.673888,335.63163,207.96607)"/>
<path transform="matrix(2.7777777,0,0,-2.7777777,345.53889,186.8361)" stroke-width=".398" stroke-linecap="butt" stroke-miterlimit="10" stroke-linejoin="miter" fill="none" stroke="#000000" d="M 0 0 L 5.242 0 "/>
<use xlink:href="#font_2_4" transform="matrix(27.673888,0,0,-27.673888,346.34144,208.29814)"/>
<symbol id="font_1_2">
<path d="M .232 .5 C .232 .578 .22100002 .699 .16600001 .81200006 C .106 .93500009 .020000004 1 .009999998 1 C .0040000008 1 0 .99600008 0 .99 C 0 .98700007 0 .985 .019000002 .967 C .117000009 .86800006 .174 .709 .174 .5 C .174 .329 .137 .153 .012999997 .026999996 C 0 .014999986 0 .012999982 0 .00999999 C 0 .003999993 .0040000008 0 .009999998 0 C .020000004 0 .11000001 .06799999 .169 .195 C .22 .305 .232 .416 .232 .5 Z "/>
</symbol>
<use xlink:href="#font_1_2" transform="matrix(27.673888,0,0,-27.673888,361.6774,209.54347)"/>
<path transform="matrix(2.7777777,0,0,-2.7777777,87.41944,420.65275)" stroke-width=".79701" stroke-linecap="butt" stroke-miterlimit="10" stroke-linejoin="miter" fill="none" stroke="#000000" d="M 52.03636 38.80846 L 52.03636 106.15254 "/>
<path transform="matrix(2.7777777,0,0,-2.7777777,87.41944,420.65275)" stroke-width=".3985" stroke-linecap="butt" stroke-dasharray="2.98883,2.98883" stroke-miterlimit="10" stroke-linejoin="miter" fill="none" stroke="#000000" d="M 52.03636 1.14142 L 52.03636 38.80846 "/>
<path transform="matrix(2.7777777,0,0,-2.7777777,87.41944,420.65275)" stroke-width=".79701" stroke-linecap="butt" stroke-miterlimit="10" stroke-linejoin="miter" fill="none" stroke="#000000" d="M 121.4182 38.80846 L 121.4182 106.15254 "/>
<path transform="matrix(2.7777777,0,0,-2.7777777,87.41944,420.65275)" stroke-width=".3985" stroke-linecap="butt" stroke-dasharray="2.98883,2.98883" stroke-miterlimit="10" stroke-linejoin="miter" fill="none" stroke="#000000" d="M 121.4182 1.14142 L 121.4182 38.80846 "/>
</g>
<use xlink:href="#font_2_3" transform="matrix(27.673888,0,0,-27.673888,560.5998,439.4794)"/>
<use xlink:href="#font_2_4" transform="matrix(27.673888,0,0,-27.673888,112.07476,26.812033)"/>
</g>
</svg>
