<?xml version="1.0" encoding="UTF-8" standalone="no"?>
<!DOCTYPE svg PUBLIC "-//W3C//DTD SVG 1.1//EN" "http://www.w3.org/Graphics/SVG/1.1/DTD/svg11.dtd">
<svg xmlns="http://www.w3.org/2000/svg" xmlns:xlink="http://www.w3.org/1999/xlink" version="1.1" width="584.86666pt" height="485.78889pt" viewBox="0 0 584.86666 485.78889">
<g enable-background="new">
<path transform="matrix(2.7777777,0,0,-2.7777777,55.302778,447.31944)" stroke-width=".79701" stroke-linecap="butt" stroke-miterlimit="10" stroke-linejoin="miter" fill="none" stroke="#000000" d="M -16.19029 5.17293 L 175.4934 5.17293 "/>
<path transform="matrix(2.7777777,0,0,-2.7777777,542.78427,432.9502)" d="M 2.59026 0 L -1.55415 2.0722 L 0 0 L -1.55415 -2.0722 "/>
<path transform="matrix(2.7777777,0,0,-2.7777777,55.302778,447.31944)" stroke-width=".79701" stroke-linecap="butt" stroke-miterlimit="10" stroke-linejoin="miter" fill="none" stroke="#000000" d="M 32.3787 -13.45041 L 32.3787 145.35636 "/>
<path transform="matrix(0,-2.7777222,-2.7777222,-0,145.2436,43.551805)" d="M 2.59026 0 L -1.55415 2.0722 L 0 0 L -1.55415 -2.0722 "/>
<clipPath id="cp0">
<path transform="matrix(2.7777777,0,0,-2.7777777,55.302778,447.31944)" d="M -16.19029 -13.45041 L 178.08362 -13.45041 L 178.08362 147.94658 L -16.19029 147.94658 Z "/>
</clipPath>
<g clip-path="url(#cp0)">
<path transform="matrix(2.7777777,0,0,-2.7777777,55.302778,447.31944)" stroke-width=".79701" stroke-linecap="butt" stroke-miterlimit="10" stroke-linejoin="miter" fill="none" stroke="#929292" d="M 32.3787 7.75938 L 32.50833 8.04918 L 32.63797 8.33867 L 32.76761 8.62779 L 32.89726 8.91661 L 33.0269 9.20511 L 33.15654 9.49324 L 33.28618 9.78108 L 33.41583 10.06856 L 33.54547 10.35571 L 33.67513 10.64252 L 33.80476 10.929 L 33.93442 11.21516 L 34.06406 11.50102 L 34.1937 11.78653 L 34.32333 12.07167 L 34.45299 12.35649 L 34.58263 12.641 L 34.71228 12.92517 L 34.84192 13.20895 L 34.97157 13.4925 L 35.10121 13.77571 L 35.23085 14.05852 L 35.36049 14.34105 L 35.49014 14.6232 L 35.61978 14.90508 L 35.74944 15.18654 L 35.87907 15.46774 L 36.00873 15.74858 L 36.13837 16.02916 L 36.268 16.30933 L 36.39764 16.58919 L 36.5273 16.86868 L 36.65694 17.14787 L 36.78659 17.42673 L 36.91623 17.70525 L 37.04588 17.98344 L 37.17552 18.26137 L 37.30516 18.5389 L 37.4348 18.81606 L 37.56445 19.09296 L 37.69409 19.36946 L 37.82375 19.64569 L 37.95338 19.92155 L 38.08304 20.19707 L 38.21268 20.47232 L 38.34232 20.74722 L 38.47195 21.02176 L 38.60161 21.29597 L 38.73125 21.56987 L 38.86089 21.84341 L 38.99052 22.1166 L 39.1202 22.3895 L 39.24983 22.66205 L 39.37947 22.93434 L 39.50911 23.20622 L 39.63875 23.47775 L 39.7684 23.749 L 39.89804 24.0199 L 40.02768 24.29044 L 40.15733 24.56065 L 40.28699 24.83057 L 40.41663 25.10016 L 40.54626 25.3694 L 40.6759 25.63832 L 40.80556 25.9069 L 40.9352 26.17511 L 41.06483 26.44304 L 41.19447 26.71063 L 41.32414 26.97786 L 41.45378 27.24481 L 41.58342 27.51141 L 41.71306 27.77763 L 41.84271 28.04356 L 41.97235 28.30913 L 42.10199 28.57439 L 42.23163 28.83932 L 42.3613 29.10391 L 42.49094 29.36821 L 42.62057 29.63216 L 42.75021 29.89577 L 42.87987 30.159 L 43.0095 30.42192 L 43.13914 30.68452 L 43.26878 30.94682 L 43.39845 31.20877 L 43.52809 31.47035 L 43.65773 31.73169 L 43.78737 31.9926 L 43.91702 32.25323 L 44.04666 32.51353 L 44.1763 32.77345 L 44.30594 33.03305 L 44.43561 33.29236 L 44.56523 33.55128 L 44.69489 33.80995 L 44.82452 34.06827 L 44.95418 34.32622 L 45.08382 34.58385 L 45.21346 34.84113 L 45.3431 35.0981 L 45.47276 35.35478 L 45.60239 35.611 L 45.73204 35.867 L 45.86166 36.1226 L 45.99133 36.37794 L 46.12097 36.63293 L 46.25061 36.88757 L 46.38026 37.14189 L 46.5099 37.39586 L 46.63954 37.64952 L 46.7692 37.90285 L 46.89883 38.15582 L 47.02849 38.4085 L 47.15811 38.6608 L 47.28777 38.91278 L 47.41742 39.16443 L 47.54706 39.41574 L 47.67671 39.6668 L 47.80634 39.9174 L 47.93599 40.16777 L 48.06564 40.4178 L 48.19528 40.66743 L 48.32492 40.91676 L 48.45456 41.16577 L 48.58421 41.41444 L 48.71387 41.66281 L 48.84349 41.91077 L 48.97314 42.1585 L 49.10278 42.40579 L 49.23244 42.65285 L 49.36208 42.89952 L 49.49171 43.14587 L 49.62137 43.39189 L 49.751 43.63757 L 49.88065 43.8829 L 50.0103 44.12799 L 50.13995 44.37268 L 50.26959 44.617 L 50.39922 44.86104 L 50.52887 45.10474 L 50.65854 45.34813 L 50.78816 45.59113 L 50.91782 45.83388 L 51.04744 46.0762 L 51.1771 46.31825 L 51.30675 46.55997 L 51.43639 46.80135 L 51.56602 47.04237 L 51.69566 47.28308 L 51.82532 47.52347 L 51.95497 47.76355 L 52.0846 48.00322 L 52.21426 48.24261 L 52.34389 48.48164 L 52.47354 48.7204 L 52.6032 48.95879 L 52.73283 49.19685 L 52.86247 49.43454 L 52.99211 49.67194 L 53.12177 49.90904 L 53.25142 50.14577 L 53.38104 50.38217 L 53.5107 50.61821 L 53.64032 50.85396 L 53.76999 51.08937 L 53.89964 51.32448 L 54.02927 51.55917 L 54.15892 51.79361 L 54.28856 52.02763 L 54.41821 52.2614 L 54.54785 52.49484 L 54.67749 52.72789 L 54.80714 52.96066 L 54.93677 53.19304 L 55.06642 53.42514 L 55.19608 53.65692 L 55.32571 53.88832 L 55.45537 54.11943 L 55.58499 54.35016 L 55.71465 54.5806 L 55.8443 54.81073 L 55.97394 55.04045 L 56.10358 55.26988 L 56.23322 55.49898 L 56.36287 55.7278 L 56.49252 55.95624 L 56.62215 56.18431 L 56.7518 56.41212 L 56.88144 56.63956 L 57.0111 56.86664 L 57.14075 57.09346 L 57.27037 57.31987 L 57.40004 57.54602 L 57.52966 57.77177 L 57.65932 57.99724 L 57.78896 58.22235 L 57.9186 58.44716 L 58.04825 58.6716 L 58.17789 58.89572 L 58.30753 59.11949 L 58.4372 59.343 L 58.56682 59.56607 L 58.69647 59.78893 L 58.8261 60.01137 L 58.95576 60.23352 L 59.0854 60.45532 L 59.21504 60.67676 L 59.34468 60.89793 L 59.47433 61.11871 L 59.60397 61.3392 L 59.73363 61.55936 L 59.86325 61.77917 L 59.99292 61.99864 L 60.12254 62.21782 L 60.2522 62.4366 L 60.38184 62.65514 L 60.51149 62.87321 L 60.64114 63.09108 L 60.77077 63.30853 L 60.9004 63.52571 L 61.03008 63.74254 L 61.15971 63.95906 L 61.28935 64.17522 L 61.41898 64.391 L 61.54865 64.60655 L 61.6783 64.82172 L 61.80792 65.03656 L 61.93758 65.25107 L 62.06721 65.46521 L 62.19687 65.67908 L 62.3265 65.8926 L 62.45615 66.10574 L 62.58578 66.31863 L 62.71544 66.53108 L 62.84508 66.74333 L 62.97473 66.95514 L 63.10435 67.16669 L 63.23402 67.37787 L 63.36365 67.5887 L 63.4933 67.79921 L 63.62296 68.00945 L 63.7526 68.2193 L 63.88223 68.42885 L 64.01187 68.63799 L 64.14151 68.84688 L 64.27118 69.05542 L 64.4008 69.26361 L 64.53046 69.47148 L 64.66008 69.67903 L 64.78975 69.88623 L 64.9194 70.09308 L 65.04903 70.29964 L 65.17868 70.50594 L 65.30832 70.7117 L 65.43796 70.91733 L 65.56761 71.12256 L 65.69725 71.32742 L 65.8269 71.53197 L 65.95653 71.73616 L 66.08618 71.94006 L 66.21584 72.14363 L 66.34547 72.34683 L 66.47513 72.54973 L 66.60475 72.75232 L 66.7344 72.95454 L 66.86406 73.15642 L 66.9937 73.35796 L 67.12334 73.5592 L 67.25298 73.76013 L 67.38264 73.9607 L 67.51228 74.161 L 67.6419 74.36089 L 67.77156 74.56047 L 67.90121 74.75974 L 68.03085 74.95863 L 68.1605 75.1572 L 68.29013 75.35544 L 68.41978 75.55336 L 68.54942 75.75092 L 68.67908 75.94818 L 68.80872 76.14513 L 68.93835 76.3417 L 69.06801 76.53795 L 69.19765 76.73387 L 69.32729 76.92947 L 69.45695 77.12479 L 69.58658 77.31967 L 69.71623 77.51431 L 69.84586 77.70854 L 69.97552 77.90251 L 70.10516 78.09613 L 70.2348 78.2894 L 70.36444 78.48235 L 70.4941 78.67494 L 70.62373 78.86722 L 70.75339 79.05914 L 70.88301 79.25076 L 71.01268 79.44205 L 71.1423 79.63298 L 71.27196 79.82361 L 71.40161 80.01396 L 71.53125 80.20387 L 71.6609 80.39354 L 71.79053 80.58275 L 71.92018 80.7718 L 72.04984 80.96039 L 72.17946 81.1487 L 72.30911 81.33667 L 72.43875 81.52429 L 72.5684 81.7116 L 72.69806 81.89856 L 72.82768 82.08519 L 72.95734 82.2715 L 73.08698 82.45747 L 73.21663 82.64313 L 73.34627 82.82841 L 73.4759 83.01341 L 73.60556 83.19806 L 73.7352 83.38237 L 73.86484 83.5664 L 73.99449 83.75008 L 74.12413 83.9334 L 74.25378 84.11636 L 74.3834 84.29901 L 74.51306 84.48135 L 74.64272 84.66331 L 74.77235 84.84499 L 74.90201 85.02635 L 75.03163 85.20732 L 75.16129 85.388 L 75.29094 85.56833 L 75.42058 85.74834 L 75.55022 85.928 L 75.67986 86.10733 L 75.80951 86.28635 L 75.93916 86.46507 L 76.06879 86.64336 L 76.19846 86.82143 L 76.32808 86.9991 L 76.45773 87.17647 L 76.58737 87.35347 L 76.71703 87.53015 L 76.84666 87.7065 L 76.9763 87.88252 L 77.10594 88.05821 L 77.23561 88.23357 L 77.36523 88.4086 L 77.49489 88.58327 L 77.62451 88.75764 L 77.75418 88.93169 L 77.88383 89.10547 L 78.01346 89.27875 L 78.1431 89.45186 L 78.27275 89.62448 L 78.40239 89.79695 L 78.53204 89.96898 L 78.66167 90.14066 L 78.79134 90.31206 L 78.92096 90.48311 L 79.05061 90.6538 L 79.18027 90.82419 L 79.3099 90.99423 L 79.43956 91.16394 L 79.56918 91.33333 L 79.69884 91.5024 L 79.82849 91.67113 L 79.95813 91.83952 L 80.08777 92.00766 L 80.21739 92.17531 L 80.34706 92.34277 L 80.47672 92.50983 L 80.60634 92.67657 L 80.736 92.84296 L 80.86563 93.00902 L 80.99529 93.17476 L 81.12492 93.34015 L 81.25456 93.50525 L 81.38422 93.66998 L 81.51385 93.83438 L 81.6435 93.99844 L 81.77315 94.1622 L 81.90279 94.32562 L 82.03244 94.48871 L 82.16206 94.65146 L 82.29172 94.81386 L 82.42139 94.97604 L 82.55101 95.1378 L 82.68065 95.29922 L 82.81029 95.46033 L 82.93996 95.62108 L 83.0696 95.7815 L 83.19922 95.94162 L 83.32887 96.10138 L 83.45853 96.26077 L 83.58817 96.4199 L 83.71782 96.57867 L 83.84744 96.73709 L 83.97711 96.8952 L 84.10674 97.053 L 84.23639 97.21043 L 84.36603 97.36761 L 84.49568 97.52434 L 84.62534 97.68085 L 84.75496 97.8369 L 84.8846 97.99277 L 85.01425 98.14818 L 85.14389 98.30333 L 85.27354 98.45811 L 85.40317 98.61258 L 85.53282 98.7667 L 85.66248 98.9205 L 85.79211 99.07394 L 85.92177 99.22708 L 86.05139 99.37988 L 86.18105 99.53235 L 86.3107 99.68457 L 86.44034 99.83626 L 86.56998 99.98782 L 86.69962 100.1389 L 86.82927 100.28978 L 86.95892 100.44026 L 87.08855 100.5904 L 87.21822 100.7402 L 87.34784 100.8897 L 87.4775 101.03885 L 87.60713 101.18767 L 87.73679 101.33615 L 87.86642 101.48431 L 87.99606 101.63216 L 88.1257 101.77963 L 88.25537 101.92679 L 88.385 102.07361 L 88.51465 102.22012 L 88.64427 102.36626 L 88.77394 102.51216 L 88.90358 102.65767 L 89.03322 102.80284 L 89.16287 102.94768 L 89.29251 103.09216 L 89.42215 103.23637 L 89.5518 103.38019 L 89.68144 103.52373 L 89.8111 103.66687 L 89.94072 103.80974 L 90.07037 103.95224 L 90.20003 104.09445 L 90.32967 104.2363 L 90.45932 104.37782 L 90.58894 104.519 L 90.7186 104.65985 L 90.84825 104.80043 L 90.97789 104.94057 L 91.10753 105.08052 L 91.23717 105.22003 L 91.36682 105.35924 L 91.49648 105.49811 L 91.6261 105.63664 L 91.75575 105.77484 L 91.88539 105.9127 L 92.01505 106.05025 L 92.1447 106.18747 L 92.27432 106.32433 L 92.40398 106.46089 L 92.53362 106.59709 L 92.66327 106.73297 L 92.79291 106.86858 L 92.92255 107.00375 L 93.0522 107.13869 L 93.18182 107.27318 L 93.31148 107.40746 L 93.44115 107.54135 L 93.57077 107.67491 L 93.70042 107.80815 L 93.83005 107.94102 L 93.95972 108.07361 L 94.08936 108.20586 L 94.219 108.33775 L 94.34863 108.46928 L 94.47827 108.60056 L 94.60793 108.73145 L 94.73758 108.86208 L 94.8672 108.99226 L 94.99687 109.12222 L 95.1265 109.25175 L 95.25615 109.38106 L 95.38579 109.50996 L 95.51544 109.63857 L 95.64508 109.7668 L 95.77472 109.89473 L 95.90436 110.02232 L 96.03403 110.14958 L 96.16365 110.27649 L 96.2933 110.40309 L 96.42293 110.52936 L 96.5526 110.65529 L 96.68225 110.78088 L 96.81187 110.90614 L 96.94153 111.0311 L 97.07117 111.15569 L 97.20082 111.27997 L 97.33046 111.40395 L 97.46008 111.52756 L 97.58975 111.65083 L 97.71939 111.77379 L 97.84903 111.8964 L 97.97868 112.01868 L 98.10832 112.14063 L 98.23798 112.26224 L 98.3676 112.38353 L 98.49725 112.50449 L 98.6269 112.6251 L 98.75655 112.74539 L 98.88618 112.86534 L 99.01582 112.98499 L 99.14548 113.10428 L 99.27513 113.2233 L 99.40475 113.34187 L 99.53441 113.46022 L 99.66405 113.57816 L 99.7937 113.69583 L 99.92334 113.81313 L 100.05298 113.93011 L 100.18265 114.04675 L 100.31227 114.16307 L 100.44191 114.27904 L 100.57156 114.39468 L 100.70122 114.51001 L 100.83086 114.62497 L 100.96048 114.73962 L 101.09013 114.85394 L 101.2198 114.96799 L 101.34943 115.0816 L 101.47908 115.19498 L 101.6087 115.30792 L 101.73837 115.42062 L 101.86803 115.53296 L 101.99765 115.64496 L 102.12729 115.7566 L 102.25694 115.86795 L 102.38658 115.97896 L 102.51624 116.08963 L 102.64586 116.19997 L 102.77553 116.30998 L 102.90515 116.41965 L 103.0348 116.52899 L 103.16446 116.638 L 103.2941 116.74669 L 103.42374 116.85503 L 103.55338 116.96306 L 103.68301 117.07077 L 103.81268 117.17813 L 103.9423 117.28516 L 104.07196 117.39185 L 104.20158 117.49821 L 104.33125 117.60423 L 104.4609 117.70993 L 104.59053 117.81529 L 104.72018 117.92032 L 104.84982 118.02502 L 104.97948 118.1294 L 105.10912 118.23343 L 105.23875 118.33713 L 105.36841 118.4405 L 105.49803 118.54355 L 105.62769 118.64627 L 105.75734 118.74869 L 105.88698 118.85072 L 106.01663 118.95244 L 106.14626 119.05382 L 106.27591 119.15486 L 106.40558 119.25558 L 106.5352 119.35597 L 106.66484 119.45602 L 106.79448 119.55576 L 106.92415 119.65515 L 107.05379 119.75421 L 107.18341 119.85294 L 107.31306 119.95134 L 107.4427 120.04941 L 107.57236 120.14714 L 107.70201 120.24457 L 107.83163 120.3416 L 107.96129 120.43839 L 108.09093 120.53476 L 108.22058 120.63087 L 108.35022 120.72661 L 108.47986 120.82202 L 108.60951 120.9171 L 108.73915 121.01186 L 108.86879 121.10626 L 108.99844 121.20035 L 109.12808 121.29411 L 109.25774 121.38753 L 109.38736 121.4806 L 109.51701 121.57338 L 109.64667 121.66583 L 109.7763 121.7579 L 109.90596 121.8497 L 110.03558 121.9411 L 110.16524 122.03223 L 110.29489 122.123 L 110.42451 122.21344 L 110.55417 122.30354 L 110.6838 122.39331 L 110.81346 122.48274 L 110.94312 122.57185 L 111.07274 122.66063 L 111.20241 122.74908 L 111.33203 122.83719 L 111.46169 122.92499 L 111.59132 123.01242 L 111.72096 123.09955 L 111.85062 123.18634 L 111.98026 123.2728 L 112.1099 123.35893 L 112.23956 123.44473 L 112.36919 123.5302 L 112.49884 123.61533 L 112.62846 123.70013 L 112.75813 123.78458 L 112.88777 123.86873 L 113.01741 123.95253 L 113.14705 124.036 L 113.2767 124.11913 L 113.40634 124.20193 L 113.536 124.28441 L 113.66562 124.36656 L 113.79529 124.44838 L 113.92491 124.52985 L 114.05457 124.611 L 114.18422 124.69185 L 114.31386 124.7723 L 114.44351 124.85248 L 114.57314 124.9323 L 114.70277 125.0118 L 114.83244 125.09094 L 114.96208 125.16977 L 115.09172 125.24828 L 115.22134 125.32643 L 115.35101 125.40427 L 115.48067 125.48177 L 115.61029 125.55893 L 115.73994 125.63577 L 115.86958 125.71227 L 115.99924 125.78844 L 116.12888 125.8643 L 116.25851 125.93979 L 116.38817 126.01498 L 116.5178 126.08981 L 116.64745 126.16435 L 116.7771 126.23853 L 116.90674 126.31238 L 117.03639 126.3859 L 117.16602 126.45908 L 117.29567 126.53194 L 117.42534 126.60448 L 117.55496 126.67665 L 117.6846 126.7485 L 117.81424 126.82005 L 117.94391 126.89124 L 118.07355 126.9621 L 118.20317 127.03264 L 118.33282 127.10287 L 118.46246 127.1727 L 118.59212 127.24226 L 118.72177 127.31148 L 118.8514 127.38036 L 118.98106 127.4489 L 119.11069 127.5171 L 119.24034 127.58498 L 119.36998 127.65253 L 119.49963 127.71974 L 119.62927 127.78664 L 119.75891 127.85318 L 119.88855 127.9194 L 120.01822 127.98529 L 120.14784 128.05084 L 120.2775 128.11608 L 120.40712 128.18096 L 120.53679 128.24553 L 120.66643 128.30979 L 120.79607 128.37368 L 120.9257 128.43726 L 121.05536 128.50048 L 121.185 128.56339 L 121.31465 128.62595 L 121.44427 128.6882 L 121.57394 128.7501 L 121.70357 128.81168 L 121.83322 128.87293 L 121.96288 128.93384 L 122.09251 128.99442 L 122.22215 129.05466 L 122.35179 129.1146 L 122.48145 129.17417 L 122.6111 129.23346 L 122.74072 129.29235 L 122.87038 129.35097 L 123.00002 129.40921 L 123.12967 129.46715 L 123.25932 129.52474 L 123.38895 129.582 L 123.5186 129.63893 L 123.64824 129.69554 L 123.7779 129.75182 L 123.90753 129.80774 L 124.03717 129.86334 L 124.16684 129.91863 L 124.29646 129.97356 L 124.4261 130.02819 L 124.55576 130.08248 L 124.68541 130.13642 L 124.81505 130.19004 L 124.94467 130.2433 L 125.07433 130.29627 L 125.204 130.34889 L 125.33362 130.40119 L 125.46327 130.45314 L 125.5929 130.50476 L 125.72256 130.55606 L 125.8522 130.60701 L 125.98184 130.65764 L 126.11148 130.70795 L 126.24113 130.7579 L 126.37077 130.80754 L 126.50043 130.85684 L 126.63005 130.9058 L 126.75972 130.95446 L 126.88934 131.00276 L 127.019 131.05077 L 127.14864 131.0984 L 127.27829 131.1457 L 127.40793 131.19269 L 127.53757 131.23934 L 127.6672 131.28566 L 127.79688 131.33165 L 127.9265 131.3773 L 128.05615 131.42263 L 128.18578 131.46762 L 128.31545 131.51227 L 128.4451 131.5566 L 128.57472 131.60059 L 128.70438 131.64424 L 128.83402 131.68759 L 128.96366 131.73059 L 129.0933 131.77327 L 129.22295 131.81558 L 129.3526 131.8576 L 129.48223 131.89928 L 129.61188 131.94063 L 129.74153 131.98165 L 129.87117 132.02233 L 130.00083 132.06267 L 130.13045 132.10268 L 130.2601 132.14235 L 130.38976 132.18172 L 130.5194 132.22072 L 130.64904 132.25942 L 130.77867 132.29776 L 130.90833 132.3358 L 131.03798 132.3735 L 131.1676 132.41086 L 131.29726 132.44788 L 131.42688 132.48456 L 131.55655 132.52095 L 131.6862 132.55699 L 131.81583 132.59268 L 131.94547 132.62805 L 132.07512 132.6631 L 132.20478 132.6978 L 132.33441 132.73218 L 132.46404 132.76622 L 132.5937 132.79993 L 132.72333 132.83332 L 132.85298 132.86637 L 132.98264 132.89908 L 133.11228 132.93146 L 133.24193 132.96352 L 133.37155 132.99523 L 133.5012 133.02664 L 133.63086 133.0577 L 133.7605 133.08843 L 133.89014 133.1188 L 134.01978 133.14888 L 134.14943 133.1786 L 134.27909 133.20801 L 134.4087 133.23708 L 134.53836 133.26581 L 134.668 133.2942 L 134.79766 133.32228 L 134.92729 133.35002 L 135.05693 133.37744 L 135.1866 133.40451 L 135.31623 133.43126 L 135.44586 133.45767 L 135.57552 133.48377 L 135.70516 133.5095 L 135.83481 133.53493 L 135.96443 133.56002 L 136.09409 133.58478 L 136.22376 133.60919 L 136.35338 133.63329 L 136.48303 133.65705 L 136.61266 133.68048 L 136.74233 133.70357 L 136.87197 133.72634 L 137.00159 133.74878 L 137.13124 133.77088 L 137.2609 133.79265 L 137.39054 133.81409 L 137.52019 133.8352 L 137.64981 133.85597 L 137.77948 133.87642 L 137.9091 133.89652 L 138.03876 133.9163 L 138.1684 133.93575 L 138.29805 133.95487 L 138.42769 133.97365 L 138.55733 133.9921 L 138.68697 134.01023 L 138.81664 134.028 L 138.94626 134.04547 L 139.07592 134.06259 L 139.20554 134.07939 L 139.3352 134.09586 L 139.46485 134.11199 L 139.59449 134.12778 L 139.72414 134.14325 L 139.85378 134.15839 L 139.98342 134.17319 L 140.11307 134.18766 L 140.2427 134.20182 L 140.37236 134.21562 L 140.50199 134.22908 L 140.63164 134.24224 L 140.76129 134.25505 L 140.89093 134.26753 L 141.02059 134.27968 L 141.1502 134.2915 L 141.27986 134.30298 L 141.40953 134.31414 L 141.53916 134.32497 L 141.6688 134.33545 L 141.79843 134.34561 L 141.92809 134.35544 L 142.05774 134.36493 L 142.18737 134.3741 L 142.31702 134.38294 L 142.44666 134.39142 L 142.57631 134.3996 L 142.70597 134.40744 L 142.83559 134.41495 L 142.96526 134.42212 L 143.09488 134.42896 L 143.22454 134.43547 L 143.35417 134.44165 L 143.48383 134.44751 L 143.61347 134.453 L 143.74309 134.45819 L 143.87274 134.46305 L 144.00241 134.46758 L 144.13204 134.47176 L 144.26169 134.47562 L 144.39131 134.47914 L 144.52098 134.48233 L 144.65062 134.48519 L 144.78026 134.48772 L 144.9099 134.48992 L 145.03955 134.49179 L 145.16919 134.49332 L 145.29885 134.49452 L 145.42847 134.49539 L 145.55814 134.49594 L 145.68776 134.49616 L 145.81742 134.49602 L 145.94707 134.49556 L 146.0767 134.49477 L 146.20635 134.49365 L 146.33599 134.4922 L 146.46564 134.49042 L 146.59529 134.48831 L 146.72492 134.48586 L 146.85457 134.48308 L 146.9842 134.47998 L 147.11386 134.47653 L 147.24352 134.47277 L 147.37314 134.46866 L 147.50279 134.46422 L 147.63243 134.45946 L 147.76209 134.45435 L 147.89173 134.44892 L 148.02136 134.44316 L 148.15102 134.43706 L 148.28066 134.43064 L 148.4103 134.42388 L 148.53995 134.41678 L 148.66959 134.40937 L 148.79924 134.40161 L 148.92887 134.39353 L 149.05852 134.3851 L 149.18817 134.37636 L 149.31781 134.36727 L 149.44747 134.35787 L 149.57709 134.34812 L 149.70674 134.33805 L 149.8364 134.32764 L 149.96602 134.3169 L 150.09568 134.30582 L 150.22531 134.29442 L 150.35497 134.28269 L 150.48462 134.27062 L 150.61425 134.25823 L 150.74391 134.24549 L 150.87354 134.23242 L 151.00319 134.21904 L 151.13283 134.2053 L 151.26247 134.19126 L 151.39212 134.17687 L 151.52176 134.16216 L 151.6514 134.1471 L 151.78107 134.13172 L 151.91069 134.116 L 152.04035 134.09996 L 152.16997 134.08358 L 152.29964 134.06687 L 152.42928 134.04982 L 152.55892 134.03244 L 152.68856 134.01474 L 152.8182 133.99669 L 152.94785 133.97834 L 153.0775 133.95963 L 153.20713 133.9406 L 153.33679 133.92124 L 153.46642 133.90154 L 153.59607 133.8815 L 153.72571 133.86115 L 153.85535 133.84046 L 153.98502 133.81945 L 154.11464 133.79808 L 154.24428 133.7764 L 154.37393 133.75437 L 154.50359 133.73203 L 154.63323 133.70934 L 154.76285 133.68634 L 154.8925 133.66298 L 155.02217 133.63932 L 155.1518 133.61531 L 155.28145 133.59096 L 155.41107 133.5663 L 155.54074 133.54129 L 155.67038 133.51595 L 155.80002 133.49028 L 155.92966 133.4643 L 156.05931 133.43796 L 156.18895 133.41129 L 156.3186 133.3843 L 156.44823 133.35698 L 156.5779 133.32932 L 156.70752 133.30132 L 156.83718 133.273 L 156.96683 133.24434 L 157.09647 133.21535 L 157.2261 133.18605 L 157.35575 133.1564 L 157.4854 133.12642 L 157.61505 133.09612 L 157.74468 133.06546 L 157.87433 133.0345 L 158.00395 133.00318 L 158.13362 132.97154 L 158.26328 132.93958 L 158.3929 132.90727 L 158.52256 132.87465 L 158.65219 132.84168 L 158.78185 132.80838 L 158.91149 132.77474 L 159.04113 132.74079 L 159.17078 132.7065 L 159.3004 132.67188 L 159.43006 132.63692 L 159.55971 132.60163 L 159.68935 132.56601 L 159.819 132.53006 L 159.94863 132.49378 L 160.07828 132.45717 L 160.20795 132.42021 L 160.33757 132.38294 L 160.46721 132.34534 L 160.59685 132.30739 L 160.72652 132.26912 L 160.85616 132.2305 L 160.98578 132.19158 L 161.11544 132.1523 L 161.24509 132.11272 L 161.37473 132.07277 L 161.50438 132.0325 L 161.634 131.99192 L 161.76367 131.95099 L 161.8933 131.90973 "/>
<symbol id="font_1_4">
<path d="M .291 .087000008 C .29500003 .047000003 .32200004 .005000001 .36900003 .005000001 C .39000003 .005000001 .45100004 .019000002 .45100004 .1 L .45100004 .15600002 L .42600004 .15600002 L .42600004 .1 C .42600004 .042000005 .40100003 .036000004 .39000003 .036000004 C .35700003 .036000004 .35300002 .081 .35300002 .086 L .35300002 .286 C .35300002 .328 .35300002 .367 .31700004 .404 C .27800004 .44300003 .22800002 .45900003 .18 .45900003 C .098 .45900003 .029 .41200004 .029 .34600003 C .029 .316 .049000004 .29900003 .075 .29900003 C .10300001 .29900003 .121 .31900005 .121 .34500004 C .121 .35700003 .116000007 .39000003 .07 .39100004 C .09700001 .42600004 .146 .43700005 .178 .43700005 C .22700003 .43700005 .284 .39800004 .284 .30900003 L .284 .272 C .23300001 .26900003 .16300002 .26600004 .1 .23600002 C .024999999 .20200002 0 .15000002 0 .106000009 C 0 .025000003 .09700001 0 .16 0 C .22600001 0 .272 .040000004 .291 .087000008 M .284 .25100003 L .284 .15100001 C .284 .056 .21200001 .022000002 .167 .022000002 C .11800001 .022000002 .077 .057000005 .077 .107 C .077 .16200002 .11900001 .24500002 .284 .25100003 Z "/>
</symbol>
<use xlink:href="#font_1_4" transform="matrix(27.673888,0,0,-27.673888,274.3956,453.58219)"/>
<symbol id="font_1_5">
<path d="M .14400001 .388 L .14400001 .705 L 0 .694 L 0 .663 C .07000001 .663 .07800001 .656 .07800001 .607 L .07800001 .011000001 L .103000018 .011000001 C .104 .012000001 .112 .026 .13900002 .07300001 C .15400002 .05 .19600001 0 .27 0 C .38900004 0 .49300004 .098000008 .49300004 .22700002 C .49300004 .35400004 .395 .45300005 .28100003 .45300005 C .20300001 .45300005 .16000001 .40600003 .14400001 .388 M .14700002 .12500002 L .14700002 .33100004 C .14700002 .35000003 .14700002 .351 .158 .367 C .19700001 .42300005 .252 .43100003 .27600003 .43100003 C .321 .43100003 .35700003 .40500004 .381 .367 C .40700004 .32600004 .41000004 .26900003 .41000004 .22800002 C .41000004 .19100002 .40800003 .13100001 .379 .086 C .358 .055000005 .32000003 .022000002 .266 .022000002 C .22100002 .022000002 .18500002 .046 .16100002 .083000008 C .14700002 .104 .14700002 .107 .14700002 .12500002 Z "/>
</symbol>
<use xlink:href="#font_1_5" transform="matrix(27.673888,0,0,-27.673888,453.1193,457.23219)"/>
<symbol id="font_2_5">
<path d="M .45700003 .586 C .461 .6 .461 .602 .461 .609 C .461 .62700006 .447 .63600006 .432 .63600006 C .42200003 .63600006 .40600003 .63 .397 .615 C .395 .61 .387 .579 .38300003 .561 C .37600003 .535 .36900003 .508 .363 .48100005 L .318 .301 C .314 .286 .271 .21600002 .20500002 .21600002 C .15400002 .21600002 .143 .26000003 .143 .29700003 C .143 .34300003 .16000001 .40500004 .194 .49300004 C .21000001 .53400006 .21400002 .545 .21400002 .56500008 C .21400002 .61 .18200001 .6470001 .13200002 .6470001 C .037 .6470001 0 .50200006 0 .49300004 C 0 .48300005 .01 .48300005 .012 .48300005 C .022000002 .48300005 .023 .485 .028000003 .50100007 C .055000009 .595 .095000009 .625 .12900001 .625 C .13700001 .625 .15400002 .625 .15400002 .59300008 C .15400002 .568 .14400001 .54200008 .13700001 .523 C .097 .41700004 .079 .36 .079 .31300003 C .079 .224 .142 .194 .201 .194 C .24000003 .194 .274 .21100001 .30200003 .23900002 C .289 .187 .277 .13800001 .237 .08500001 C .21100001 .051 .17300001 .022 .127 .022 C .113000009 .022 .068 .025000006 .051000008 .06400001 C .067 .06400001 .080000009 .06400001 .094000007 .076000008 C .104 .08500001 .11400001 .098000008 .11400001 .117000009 C .11400001 .148 .087000008 .15200001 .07700001 .15200001 C .054000006 .15200001 .021 .136 .021 .087000008 C .021 .037 .065000008 0 .127 0 C .23 0 .333 .091000009 .361 .20400001 L .45700003 .586 Z "/>
</symbol>
<use xlink:href="#font_2_5" transform="matrix(27.673888,0,0,-27.673888,273.2609,86.31484)"/>
<symbol id="font_1_3">
<path d="M .63100007 .19400002 C .646 .19400002 .665 .19400002 .665 .214 C .665 .23400001 .646 .23400001 .632 .23400001 L .033 .23400001 C .019000002 .23400001 0 .23400001 0 .214 C 0 .19400002 .019000002 .19400002 .034 .19400002 L .63100007 .19400002 M .632 0 C .646 0 .665 0 .665 .02000001 C .665 .040000008 .646 .040000008 .63100007 .040000008 L .034 .040000008 C .019000002 .040000008 0 .040000008 0 .02000001 C 0 0 .019000002 0 .033 0 L .632 0 Z "/>
</symbol>
<use xlink:href="#font_1_3" transform="matrix(27.673888,0,0,-27.673888,296.2581,76.96107)"/>
<symbol id="font_2_2">
<path d="M .314 .605 L .4 .605 C .42000003 .605 .43 .605 .43 .625 C .43 .63600006 .42000003 .63600006 .40300004 .63600006 L .32000003 .63600006 L .34100003 .75 C .34500004 .771 .35900004 .842 .365 .8540001 C .374 .873 .39100004 .888 .41200004 .888 C .416 .888 .44200004 .888 .461 .87 C .41700004 .86600008 .407 .8310001 .407 .816 C .407 .793 .425 .781 .444 .781 C .47 .781 .49900005 .8030001 .49900005 .8410001 C .49900005 .8870001 .45300005 .9100001 .41200004 .9100001 C .37800003 .9100001 .31500004 .8920001 .28500004 .793 C .279 .7720001 .27600003 .7620001 .252 .63600006 L .18300002 .63600006 C .164 .63600006 .15300001 .63600006 .15300001 .61700007 C .15300001 .605 .162 .605 .18100001 .605 L .24700001 .605 L .172 .21000001 C .15400002 .113000009 .13700001 .022 .08500001 .022 C .081 .022 .056 .022 .037 .040000008 C .083000008 .043000014 .09200001 .07900001 .09200001 .094000007 C .09200001 .117000009 .074 .12900001 .055 .12900001 C .029 .12900001 0 .10700001 0 .069000009 C 0 .024000004 .044 0 .08500001 0 C .14 0 .18 .059 .19800002 .09700001 C .23000002 .16000001 .25300003 .28100003 .254 .28800003 L .314 .605 Z "/>
</symbol>
<use xlink:href="#font_2_2" transform="matrix(27.673888,0,0,-27.673888,325.38618,86.31484)"/>
<symbol id="font_1_1">
<path d="M .23200003 .00999999 C .23200003 .012999982 .23200003 .014999986 .215 .03199999 C .09 .15799999 .058 .347 .058 .5 C .058 .674 .096 .84800007 .21900001 .97300007 C .23200003 .985 .23200003 .98700007 .23200003 .99 C .23200003 .99700006 .22800002 1 .222 1 C .21200001 1 .12200001 .93200007 .06299999 .805 C .012000002 .69500008 0 .584 0 .5 C 0 .422 .011 .301 .066 .188 C .126 .065 .21200001 0 .222 0 C .22800002 0 .23200003 .0029999912 .23200003 .00999999 Z "/>
</symbol>
<use xlink:href="#font_1_1" transform="matrix(27.673888,0,0,-27.673888,343.18696,87.560169)"/>
<symbol id="font_2_4">
<path d="M .305 .31300003 C .311 .33900003 .334 .43100003 .404 .43100003 C .409 .43100003 .433 .43100003 .454 .418 C .426 .41300003 .40600003 .388 .40600003 .36400003 C .40600003 .34800003 .417 .32900004 .444 .32900004 C .46600003 .32900004 .498 .34700004 .498 .38700003 C .498 .43900005 .439 .45300005 .405 .45300005 C .347 .45300005 .312 .40000005 .3 .37700004 C .275 .44300003 .221 .45300005 .19200002 .45300005 C .08800001 .45300005 .031000002 .32400004 .031000002 .29900003 C .031000002 .28900004 .041 .28900004 .043000007 .28900004 C .051000008 .28900004 .054000006 .291 .056 .3 C .09 .40600003 .156 .43100003 .19000001 .43100003 C .209 .43100003 .244 .42200003 .244 .36400003 C .244 .33300004 .22700002 .26600004 .19000001 .126 C .17400001 .064 .13900002 .022000002 .095000009 .022000002 C .08900001 .022000002 .06600001 .022000002 .045 .035 C .07000001 .040000004 .09200001 .061 .09200001 .089 C .09200001 .116000007 .07000001 .124000009 .055000009 .124000009 C .025 .124000009 0 .098000008 0 .06600001 C 0 .020000002 .050000006 0 .094000007 0 C .16000001 0 .19600001 .07000001 .19900002 .076000008 C .21100001 .039 .24700003 0 .307 0 C .41 0 .467 .12900001 .467 .15400002 C .467 .16400002 .458 .16400002 .455 .16400002 C .446 .16400002 .444 .16000001 .442 .15300001 C .409 .046 .341 .022000002 .30900003 .022000002 C .27 .022000002 .254 .054 .254 .08800001 C .254 .11000001 .26 .13200002 .271 .17600002 L .305 .31300003 Z "/>
</symbol>
<use xlink:href="#font_2_4" transform="matrix(27.673888,0,0,-27.673888,352.0109,80.946109)"/>
<symbol id="font_1_2">
<path d="M .232 .5 C .232 .578 .22100002 .699 .16600001 .81200006 C .106 .93500009 .020000004 1 .009999998 1 C .0040000008 1 0 .99600008 0 .99 C 0 .98700007 0 .985 .019000002 .967 C .117000009 .86800006 .174 .709 .174 .5 C .174 .329 .137 .153 .012999997 .026999996 C 0 .014999986 0 .012999982 0 .00999999 C 0 .003999993 .0040000008 0 .009999998 0 C .020000004 0 .11000001 .06799999 .169 .195 C .22 .305 .232 .416 .232 .5 Z "/>
</symbol>
<use xlink:href="#font_1_2" transform="matrix(27.673888,0,0,-27.673888,368.60246,87.560169)"/>
<symbol id="font_2_1">
<path d="M .47600005 .694 C .47600005 .695 .47600005 .705 .46300004 .705 C .44800005 .705 .35300002 .69600006 .33600004 .694 C .32800005 .693 .32200004 .688 .32200004 .675 C .32200004 .663 .33100004 .663 .34600003 .663 C .39400003 .663 .39600004 .656 .39600004 .646 L .39300005 .626 L .33300004 .38900004 C .31500004 .42600004 .286 .45300005 .24100001 .45300005 C .124 .45300005 0 .30600003 0 .16000001 C 0 .06600001 .055000005 0 .133 0 C .153 0 .20300001 .0040000008 .263 .075 C .27100004 .033000005 .30600003 0 .35400004 0 C .38900004 0 .41200004 .023000002 .42800004 .055000005 C .44500003 .091000009 .45800004 .15200001 .45800004 .15400002 C .45800004 .16400002 .44900004 .16400002 .44600005 .16400002 C .43600003 .16400002 .43500004 .16000001 .43200005 .14600002 C .41500003 .081 .397 .022000002 .35600005 .022000002 C .32900004 .022000002 .32600004 .048 .32600004 .068 C .32600004 .092 .32800005 .09900001 .33200003 .116000007 L .47600005 .694 M .26800005 .13000001 C .263 .112 .263 .11000001 .24800001 .093 C .20400001 .038000004 .163 .022000002 .135 .022000002 C .08499999 .022000002 .07100001 .077 .07100001 .116000007 C .07100001 .16600001 .103 .28900004 .126 .335 C .157 .39400003 .202 .43100003 .242 .43100003 C .307 .43100003 .32100005 .34900005 .32100005 .34300003 C .32100005 .337 .31900005 .33100004 .31800003 .32600004 L .26800005 .13000001 Z "/>
</symbol>
<symbol id="font_2_3">
<path d="M .33900006 .38500003 C .311 .38400004 .291 .36200003 .291 .34000004 C .291 .32600004 .3 .31100003 .32200004 .31100003 C .34400005 .31100003 .36800004 .328 .36800004 .367 C .36800004 .41200004 .325 .45300005 .24900003 .45300005 C .11700001 .45300005 .08 .351 .08 .307 C .08 .22900002 .15400002 .21400002 .18300002 .20800002 C .235 .19800002 .287 .18700002 .287 .13200002 C .287 .106000009 .264 .022000002 .14400001 .022000002 C .13000001 .022000002 .053000004 .022000002 .030000002 .075 C .068 .07000001 .09300001 .1 .09300001 .128 C .09300001 .15100001 .07700001 .16300002 .056 .16300002 C .030000002 .16300002 0 .14200002 0 .097 C 0 .040000004 .057000005 0 .143 0 C .305 0 .34400005 .12100001 .34400005 .16600001 C .34400005 .20200002 .325 .22700002 .31300003 .23900002 C .286 .26700003 .25700004 .272 .21300002 .28100003 C .17700002 .28900004 .13700001 .29600004 .13700001 .34100003 C .13700001 .37000004 .16100002 .43100003 .24900003 .43100003 C .274 .43100003 .324 .42400003 .33900006 .38500003 Z "/>
</symbol>
<use xlink:href="#font_2_1" transform="matrix(27.673888,0,0,-27.673888,357.5125,177.03775)"/>
<use xlink:href="#font_2_3" transform="matrix(27.673888,0,0,-27.673888,372.26274,177.03775)"/>
<path transform="matrix(2.7777777,0,0,-2.7777777,55.302778,447.31944)" stroke-width=".79701" stroke-linecap="butt" stroke-miterlimit="10" stroke-linejoin="miter" fill="none" stroke="#000000" d="M 106.84969 120.89145 L 106.84969 118.30498 "/>
<path transform="matrix(2.7777777,0,0,-2.7777777,55.302778,447.31944)" stroke-width=".79701" stroke-linecap="butt" stroke-miterlimit="10" stroke-linejoin="miter" fill="none" stroke="#000000" d="M 119.80116 129.168 L 119.80116 126.58153 "/>
<path transform="matrix(2.7777777,0,0,-2.7777777,55.302778,447.31944)" stroke-width=".3985" stroke-linecap="butt" stroke-miterlimit="10" stroke-linejoin="miter" fill="none" stroke="#000000" d="M 107.30797 108.6315 L 119.3429 108.6315 "/>
<path transform="matrix(-2.7777222,0,0,2.7777222,353.38044,145.56528)" stroke-width=".31879" stroke-linecap="round" stroke-linejoin="round" fill="none" stroke="#000000" d="M -1.19551 1.59401 C -1.09587 .99626 0 .09961 .29886 0 C 0 -.09961 -1.09587 -.99626 -1.19551 -1.59401 "/>
<path transform="matrix(2.7777777,0,0,-2.7777777,386.81077,145.56528)" stroke-width=".31879" stroke-linecap="round" stroke-linejoin="round" fill="none" stroke="#000000" d="M -1.19551 1.59401 C -1.09587 .99626 0 .09961 .29886 0 C 0 -.09961 -1.09587 -.99626 -1.19551 -1.59401 "/>
<path transform="matrix(2.7777777,0,0,-2.7777777,55.302778,447.31944)" stroke-width=".3985" stroke-linecap="butt" stroke-dasharray="2.98883,2.98883" stroke-miterlimit="10" stroke-linejoin="miter" fill="none" stroke="#000000" d="M 80.94673 5.17293 L 80.94673 93.11272 "/>
<path transform="matrix(2.7777777,0,0,-2.7777777,55.302778,447.31944)" stroke-width=".3985" stroke-linecap="butt" stroke-dasharray="2.98883,2.98883" stroke-miterlimit="10" stroke-linejoin="miter" fill="none" stroke="#000000" d="M 145.70412 5.17293 L 145.70412 134.49616 "/>
</g>
<use xlink:href="#font_2_4" transform="matrix(27.673888,0,0,-27.673888,560.6303,454.94609)"/>
<use xlink:href="#font_2_5" transform="matrix(27.673888,0,0,-27.673888,121.7081,26.812033)"/>
</g>
</svg>
