<?xml version="1.0" encoding="UTF-8" standalone="no"?>
<!DOCTYPE svg PUBLIC "-//W3C//DTD SVG 1.1//EN" "http://www.w3.org/Graphics/SVG/1.1/DTD/svg11.dtd">
<svg xmlns="http://www.w3.org/2000/svg" xmlns:xlink="http://www.w3.org/1999/xlink" version="1.1" width="584.8944pt" height="486.04444pt" viewBox="0 0 584.8944 486.04444">
<g enable-background="new">
<path transform="matrix(2.7777777,0,0,-2.7777777,10.330556,484.9361)" stroke-width=".79701" stroke-linecap="butt" stroke-miterlimit="10" stroke-linejoin="miter" fill="none" stroke="#000000" d="M 0 40.3499 L 191.69092 40.3499 "/>
<path transform="matrix(2.7777777,0,0,-2.7777777,542.8052,372.85304)" d="M 2.59026 0 L -1.55415 2.0722 L 0 0 L -1.55415 -2.0722 "/>
<path transform="matrix(2.7777777,0,0,-2.7777777,10.330556,484.9361)" stroke-width=".79701" stroke-linecap="butt" stroke-miterlimit="10" stroke-linejoin="miter" fill="none" stroke="#000000" d="M 97.14143 0 L 97.14143 158.80722 "/>
<path transform="matrix(0,-2.7777222,-2.7777222,-0,280.16789,43.80493)" d="M 2.59026 0 L -1.55415 2.0722 L 0 0 L -1.55415 -2.0722 "/>
<clipPath id="cp0">
<path transform="matrix(2.7777777,0,0,-2.7777777,10.330556,484.9361)" d="M 0 0 L 194.28115 0 L 194.28115 161.39743 L 0 161.39743 Z "/>
</clipPath>
<g clip-path="url(#cp0)">
<path transform="matrix(2.7777777,0,0,-2.7777777,10.330556,484.9361)" d="M 64.7613 40.34999 L 64.80931 40.66931 L 64.97139 41.74207 L 65.13344 42.80942 L 65.2955 43.87134 L 65.45755 44.92792 L 65.61961 45.9791 L 65.7817 47.02502 L 65.94374 48.06526 L 66.1058 49.10042 L 66.26787 50.12988 L 66.42993 51.15425 L 66.592 52.17308 L 66.75406 53.18652 L 66.91612 54.19456 L 67.07816 55.1972 L 67.24025 56.19449 L 67.40231 57.18651 L 67.56435 58.17282 L 67.72643 59.1541 L 67.88847 60.12967 L 68.05054 61.1001 L 68.2126 62.06503 L 68.37466 63.02455 L 68.53673 63.97868 L 68.69878 64.92744 L 68.86086 65.87083 L 69.02292 66.80893 L 69.18497 67.7414 L 69.34705 68.66873 L 69.5091 69.59036 L 69.67116 70.50691 L 69.83324 71.41794 L 69.99529 72.32358 L 70.15735 73.22382 L 70.31938 74.11864 L 70.48148 75.00809 L 70.64354 75.8923 L 70.80557 76.77086 L 70.96767 77.64426 L 71.1297 78.51205 L 71.29176 79.37466 L 71.45384 80.23181 L 71.61589 81.0835 L 71.77795 81.92986 L 71.94002 82.77066 L 72.10208 83.60634 L 72.26414 84.43665 L 72.4262 85.26129 L 72.58827 86.08063 L 72.75032 86.89465 L 72.91238 87.70323 L 73.07446 88.50658 L 73.2365 89.30429 L 73.39857 90.09685 L 73.56062 90.88376 L 73.72269 91.66551 L 73.88477 92.44174 L 74.04681 93.21263 L 74.20888 93.97812 L 74.37093 94.73819 L 74.53299 95.49289 L 74.69507 96.24231 L 74.85712 96.98611 L 75.01918 97.72475 L 75.18124 98.45776 L 75.3433 99.18562 L 75.50537 99.90797 L 75.66743 100.62495 L 75.8295 101.33652 L 75.99155 102.0427 L 76.15363 102.7435 L 76.31569 103.43898 L 76.47772 104.1289 L 76.63982 104.81361 L 76.80185 105.49277 L 76.96391 106.16669 L 77.12599 106.83514 L 77.28804 107.4982 L 77.4501 108.15587 L 77.61215 108.8081 L 77.77423 109.45503 L 77.9363 110.09662 L 78.09834 110.7326 L 78.26042 111.36342 L 78.42247 111.98866 L 78.58453 112.6087 L 78.74661 113.22324 L 78.90866 113.8324 L 79.07072 114.43617 L 79.23276 115.03452 L 79.39485 115.6275 L 79.55692 116.2151 L 79.71895 116.79729 L 79.88104 117.3741 L 80.04308 117.94553 L 80.20514 118.51164 L 80.36723 119.07227 L 80.52927 119.62744 L 80.69133 120.17738 L 80.8534 120.72183 L 81.01546 121.26093 L 81.17752 121.79465 L 81.33957 122.32289 L 81.50165 122.84586 L 81.6637 123.3633 L 81.82576 123.87547 L 81.98784 124.38226 L 82.14989 124.88354 L 82.31195 125.37955 L 82.474 125.87006 L 82.63608 126.35527 L 82.79814 126.83508 L 82.96019 127.30945 L 83.12225 127.77847 L 83.2843 128.24204 L 83.44637 128.7003 L 83.60844 129.15316 L 83.7705 129.60056 L 83.93256 130.04267 L 84.09462 130.4793 L 84.25668 130.91056 L 84.41875 131.33649 L 84.58081 131.75696 L 84.74287 132.17208 L 84.90492 132.58176 L 85.067 132.9861 L 85.22906 133.38506 L 85.39111 133.77857 L 85.55319 134.16672 L 85.71523 134.54943 L 85.8773 134.92684 L 86.03937 135.29883 L 86.20142 135.66536 L 86.36348 136.0266 L 86.52553 136.38239 L 86.6876 136.73279 L 86.84967 137.07787 L 87.01172 137.41747 L 87.1738 137.7517 L 87.33585 138.08055 L 87.49791 138.40404 L 87.65999 138.72209 L 87.82204 139.03478 L 87.9841 139.34207 L 88.14613 139.64392 L 88.30823 139.94048 L 88.47029 140.23162 L 88.63232 140.51729 L 88.79442 140.79766 L 88.95645 141.07259 L 89.11852 141.34218 L 89.28061 141.60634 L 89.44264 141.8651 L 89.6047 142.1185 L 89.76677 142.36646 L 89.92883 142.60909 L 90.0909 142.84633 L 90.25294 143.07811 L 90.41502 143.30455 L 90.57707 143.52558 L 90.73914 143.74124 L 90.90121 143.9515 L 91.06326 144.15636 L 91.22533 144.35584 L 91.38737 144.54991 L 91.54945 144.73863 L 91.71152 144.92194 L 91.87357 145.09984 L 92.03564 145.27239 L 92.19768 145.43953 L 92.35976 145.60128 L 92.52182 145.75763 L 92.68387 145.90859 L 92.84593 146.05417 L 93.008 146.19435 L 93.17006 146.32915 L 93.33212 146.45856 L 93.49419 146.58255 L 93.65625 146.70117 L 93.8183 146.81438 L 93.98038 146.92224 L 94.14244 147.02469 L 94.30449 147.12172 L 94.46657 147.21341 L 94.6286 147.2997 L 94.79068 147.38059 L 94.95274 147.45609 L 95.11479 147.52619 L 95.27687 147.59091 L 95.4389 147.65023 L 95.60098 147.70415 L 95.76305 147.75272 L 95.9251 147.79586 L 96.08717 147.8336 L 96.24922 147.866 L 96.41129 147.89296 L 96.57336 147.91455 L 96.73541 147.93077 L 96.89748 147.94156 L 97.05952 147.94699 L 97.2216 147.94702 L 97.38367 147.94165 L 97.5457 147.93088 L 97.7078 147.91475 L 97.86983 147.89322 L 98.03189 147.86632 L 98.19398 147.83399 L 98.35602 147.7963 L 98.51808 147.7532 L 98.68015 147.7047 L 98.84221 147.65084 L 99.00427 147.59157 L 99.16632 147.52692 L 99.3284 147.45687 L 99.49045 147.38141 L 99.65251 147.3006 L 99.81459 147.21436 L 99.97664 147.12274 L 100.1387 147.02576 L 100.30077 146.92334 L 100.46283 146.81557 L 100.6249 146.7024 L 100.78694 146.58386 L 100.94902 146.45987 L 101.11105 146.33057 L 101.27313 146.19582 L 101.43521 146.0557 L 101.59724 145.91019 L 101.75931 145.75926 L 101.92137 145.60297 L 102.08344 145.44129 L 102.2455 145.27419 L 102.40756 145.10172 L 102.56963 144.92388 L 102.73167 144.74065 L 102.89375 144.552 L 103.05582 144.35794 L 103.21786 144.15854 L 103.37994 143.95374 L 103.54198 143.74353 L 103.70406 143.52793 L 103.86612 143.30693 L 104.02817 143.08057 L 104.19025 142.84879 L 104.35228 142.61167 L 104.51436 142.3691 L 104.67644 142.12113 L 104.83847 141.86783 L 105.00055 141.6091 L 105.1626 141.345 L 105.32466 141.0755 L 105.48674 140.80059 L 105.64879 140.52036 L 105.81085 140.23465 L 105.9729 139.94365 L 106.13498 139.64717 L 106.29704 139.34528 L 106.45909 139.03809 L 106.62117 138.72545 L 106.7832 138.40749 L 106.94528 138.08405 L 107.10736 137.75524 L 107.2694 137.42107 L 107.43146 137.08147 L 107.59352 136.73653 L 107.75558 136.38616 L 107.91765 136.03038 L 108.0797 135.6693 L 108.24178 135.30272 L 108.40382 134.93085 L 108.56589 134.55353 L 108.72797 134.17078 L 108.89001 133.78275 L 109.05208 133.38924 L 109.21414 132.9904 L 109.3762 132.5861 L 109.53827 132.17644 L 109.70033 131.76143 L 109.8624 131.34096 L 110.02443 130.91519 L 110.18652 130.48392 L 110.34859 130.04732 L 110.51062 129.60536 L 110.67268 129.15796 L 110.83475 128.70519 L 110.99681 128.247 L 111.15887 127.78343 L 111.32094 127.3145 L 111.483 126.84013 L 111.64505 126.36047 L 111.80713 125.87532 L 111.9692 125.38478 L 112.13124 124.88893 L 112.29332 124.3876 L 112.45535 123.88098 L 112.61743 123.36885 L 112.7795 122.85135 L 112.94154 122.32857 L 113.10362 121.80026 L 113.26566 121.26668 L 113.42773 120.72763 L 113.58981 120.1832 L 113.75185 119.6334 L 113.91393 119.07822 L 114.07597 118.51762 L 114.23804 117.95169 L 114.40012 117.38022 L 114.56216 116.80357 L 114.72423 116.22136 L 114.88628 115.63387 L 115.04836 115.0409 L 115.21042 114.44257 L 115.37247 113.83887 L 115.53455 113.22975 L 115.69658 112.61528 L 115.85866 111.99539 L 116.02074 111.37004 L 116.18277 110.73946 L 116.34485 110.10335 L 116.5069 109.462 L 116.66896 108.81505 L 116.83102 108.16284 L 116.99309 107.50525 L 117.15515 106.84225 L 117.3172 106.17383 L 117.47926 105.50006 L 117.64134 104.82082 L 117.80339 104.13634 L 117.96545 103.44627 L 118.12752 102.75107 L 118.28958 102.0502 L 118.45164 101.34407 L 118.61371 100.63254 L 118.77577 99.91565 L 118.9378 99.19337 L 119.0999 98.46568 L 119.26196 97.7325 L 119.424 96.99413 L 119.58607 96.25018 L 119.74812 95.50102 L 119.91019 94.74628 L 120.07225 93.98625 L 120.23431 93.22084 L 120.39638 92.45004 L 120.55843 91.67395 L 120.7205 90.89221 L 120.88257 90.10513 L 121.04462 89.31288 L 121.2067 88.51498 L 121.36874 87.71199 L 121.5308 86.90343 L 121.69287 86.08937 L 121.85492 85.27016 L 122.017 84.44536 L 122.17903 83.61537 L 122.34111 82.77974 L 122.50319 81.93884 L 122.66522 81.09256 L 122.8273 80.24092 L 122.98935 79.38383 L 123.15141 78.52141 L 123.31349 77.65341 L 123.47554 76.78035 L 123.6376 75.90157 L 123.79965 75.0177 L 123.96173 74.12817 L 124.1238 73.23338 L 124.28584 72.3332 L 124.44792 71.42763 L 124.60997 70.51666 L 124.77203 69.60034 L 124.93411 68.67845 L 125.09615 67.75145 L 125.25822 66.81879 L 125.42027 65.88101 L 125.58234 64.93756 L 125.74442 63.98888 L 125.90646 63.03477 L 126.06853 62.0753 L 126.23058 61.11044 L 126.39264 60.14017 L 126.55472 59.16435 L 126.71677 58.1835 L 126.87883 57.1969 L 127.0409 56.20525 L 127.20296 55.20787 L 127.36502 54.20528 L 127.52708 53.19728 L 127.68915 52.18391 L 127.85118 51.16513 L 128.01328 50.141 L 128.17534 49.11143 L 128.33737 48.07646 L 128.49945 47.03601 L 128.6615 45.99042 L 128.82357 44.93916 L 128.98564 43.88266 L 129.14769 42.8209 L 129.30976 41.7535 L 129.4718 40.68097 L 129.52153 40.35008 L 129.52164 40.3499 L 129.30976 40.3499 L 129.14769 40.3499 L 128.98564 40.3499 L 128.82357 40.3499 L 128.6615 40.3499 L 128.49945 40.3499 L 128.33737 40.3499 L 128.17534 40.3499 L 128.01328 40.3499 L 127.85118 40.3499 L 127.68915 40.3499 L 127.52708 40.3499 L 127.36502 40.3499 L 127.20296 40.3499 L 127.0409 40.3499 L 126.87883 40.3499 L 126.71677 40.3499 L 126.55472 40.3499 L 126.39264 40.3499 L 126.23058 40.3499 L 126.06853 40.3499 L 125.90646 40.3499 L 125.74442 40.3499 L 125.58234 40.3499 L 125.42027 40.3499 L 125.25822 40.3499 L 125.09615 40.3499 L 124.93411 40.3499 L 124.77203 40.3499 L 124.60997 40.3499 L 124.44792 40.3499 L 124.28584 40.3499 L 124.1238 40.3499 L 123.96173 40.3499 L 123.79965 40.3499 L 123.6376 40.3499 L 123.47554 40.3499 L 123.31349 40.3499 L 123.15141 40.3499 L 122.98935 40.3499 L 122.8273 40.3499 L 122.66522 40.3499 L 122.50319 40.3499 L 122.34111 40.3499 L 122.17903 40.3499 L 122.017 40.3499 L 121.85492 40.3499 L 121.69287 40.3499 L 121.5308 40.3499 L 121.36874 40.3499 L 121.2067 40.3499 L 121.04462 40.3499 L 120.88257 40.3499 L 120.7205 40.3499 L 120.55843 40.3499 L 120.39638 40.3499 L 120.23431 40.3499 L 120.07225 40.3499 L 119.91019 40.3499 L 119.74812 40.3499 L 119.58607 40.3499 L 119.424 40.3499 L 119.26196 40.3499 L 119.0999 40.3499 L 118.9378 40.3499 L 118.77577 40.3499 L 118.61371 40.3499 L 118.45164 40.3499 L 118.28958 40.3499 L 118.12752 40.3499 L 117.96545 40.3499 L 117.80339 40.3499 L 117.64134 40.3499 L 117.47926 40.3499 L 117.3172 40.3499 L 117.15515 40.3499 L 116.99309 40.3499 L 116.83102 40.3499 L 116.66896 40.3499 L 116.5069 40.3499 L 116.34485 40.3499 L 116.18277 40.3499 L 116.02074 40.3499 L 115.85866 40.3499 L 115.69658 40.3499 L 115.53455 40.3499 L 115.37247 40.3499 L 115.21042 40.3499 L 115.04836 40.3499 L 114.88628 40.3499 L 114.72423 40.3499 L 114.56216 40.3499 L 114.40012 40.3499 L 114.23804 40.3499 L 114.07597 40.3499 L 113.91393 40.3499 L 113.75185 40.3499 L 113.58981 40.3499 L 113.42773 40.3499 L 113.26566 40.3499 L 113.10362 40.3499 L 112.94154 40.3499 L 112.7795 40.3499 L 112.61743 40.3499 L 112.45535 40.3499 L 112.29332 40.3499 L 112.13124 40.3499 L 111.9692 40.3499 L 111.80713 40.3499 L 111.64505 40.3499 L 111.483 40.3499 L 111.32094 40.3499 L 111.15887 40.3499 L 110.99681 40.3499 L 110.83475 40.3499 L 110.67268 40.3499 L 110.51062 40.3499 L 110.34859 40.3499 L 110.18652 40.3499 L 110.02443 40.3499 L 109.8624 40.3499 L 109.70033 40.3499 L 109.53827 40.3499 L 109.3762 40.3499 L 109.21414 40.3499 L 109.05208 40.3499 L 108.89001 40.3499 L 108.72797 40.3499 L 108.56589 40.3499 L 108.40382 40.3499 L 108.24178 40.3499 L 108.0797 40.3499 L 107.91765 40.3499 L 107.75558 40.3499 L 107.59352 40.3499 L 107.43146 40.3499 L 107.2694 40.3499 L 107.10736 40.3499 L 106.94528 40.3499 L 106.7832 40.3499 L 106.62117 40.3499 L 106.45909 40.3499 L 106.29704 40.3499 L 106.13498 40.3499 L 105.9729 40.3499 L 105.81085 40.3499 L 105.64879 40.3499 L 105.48674 40.3499 L 105.32466 40.3499 L 105.1626 40.3499 L 105.00055 40.3499 L 104.83847 40.3499 L 104.67644 40.3499 L 104.51436 40.3499 L 104.35228 40.3499 L 104.19025 40.3499 L 104.02817 40.3499 L 103.86612 40.3499 L 103.70406 40.3499 L 103.54198 40.3499 L 103.37994 40.3499 L 103.21786 40.3499 L 103.05582 40.3499 L 102.89375 40.3499 L 102.73167 40.3499 L 102.56963 40.3499 L 102.40756 40.3499 L 102.2455 40.3499 L 102.08344 40.3499 L 101.92137 40.3499 L 101.75931 40.3499 L 101.59724 40.3499 L 101.43521 40.3499 L 101.27313 40.3499 L 101.11105 40.3499 L 100.94902 40.3499 L 100.78694 40.3499 L 100.6249 40.3499 L 100.46283 40.3499 L 100.30077 40.3499 L 100.1387 40.3499 L 99.97664 40.3499 L 99.81459 40.3499 L 99.65251 40.3499 L 99.49045 40.3499 L 99.3284 40.3499 L 99.16632 40.3499 L 99.00427 40.3499 L 98.84221 40.3499 L 98.68015 40.3499 L 98.51808 40.3499 L 98.35602 40.3499 L 98.19398 40.3499 L 98.03189 40.3499 L 97.86983 40.3499 L 97.7078 40.3499 L 97.5457 40.3499 L 97.38367 40.3499 L 97.2216 40.3499 L 97.05952 40.3499 L 96.89748 40.3499 L 96.73541 40.3499 L 96.57336 40.3499 L 96.41129 40.3499 L 96.24922 40.3499 L 96.08717 40.3499 L 95.9251 40.3499 L 95.76305 40.3499 L 95.60098 40.3499 L 95.4389 40.3499 L 95.27687 40.3499 L 95.11479 40.3499 L 94.95274 40.3499 L 94.79068 40.3499 L 94.6286 40.3499 L 94.46657 40.3499 L 94.30449 40.3499 L 94.14244 40.3499 L 93.98038 40.3499 L 93.8183 40.3499 L 93.65625 40.3499 L 93.49419 40.3499 L 93.33212 40.3499 L 93.17006 40.3499 L 93.008 40.3499 L 92.84593 40.3499 L 92.68387 40.3499 L 92.52182 40.3499 L 92.35976 40.3499 L 92.19768 40.3499 L 92.03564 40.3499 L 91.87357 40.3499 L 91.71152 40.3499 L 91.54945 40.3499 L 91.38737 40.3499 L 91.22533 40.3499 L 91.06326 40.3499 L 90.90121 40.3499 L 90.73914 40.3499 L 90.57707 40.3499 L 90.41502 40.3499 L 90.25294 40.3499 L 90.0909 40.3499 L 89.92883 40.3499 L 89.76677 40.3499 L 89.6047 40.3499 L 89.44264 40.3499 L 89.28061 40.3499 L 89.11852 40.3499 L 88.95645 40.3499 L 88.79442 40.3499 L 88.63232 40.3499 L 88.47029 40.3499 L 88.30823 40.3499 L 88.14613 40.3499 L 87.9841 40.3499 L 87.82204 40.3499 L 87.65999 40.3499 L 87.49791 40.3499 L 87.33585 40.3499 L 87.1738 40.3499 L 87.01172 40.3499 L 86.84967 40.3499 L 86.6876 40.3499 L 86.52553 40.3499 L 86.36348 40.3499 L 86.20142 40.3499 L 86.03937 40.3499 L 85.8773 40.3499 L 85.71523 40.3499 L 85.55319 40.3499 L 85.39111 40.3499 L 85.22906 40.3499 L 85.067 40.3499 L 84.90492 40.3499 L 84.74287 40.3499 L 84.58081 40.3499 L 84.41875 40.3499 L 84.25668 40.3499 L 84.09462 40.3499 L 83.93256 40.3499 L 83.7705 40.3499 L 83.60844 40.3499 L 83.44637 40.3499 L 83.2843 40.3499 L 83.12225 40.3499 L 82.96019 40.3499 L 82.79814 40.3499 L 82.63608 40.3499 L 82.474 40.3499 L 82.31195 40.3499 L 82.14989 40.3499 L 81.98784 40.3499 L 81.82576 40.3499 L 81.6637 40.3499 L 81.50165 40.3499 L 81.33957 40.3499 L 81.17752 40.3499 L 81.01546 40.3499 L 80.8534 40.3499 L 80.69133 40.3499 L 80.52927 40.3499 L 80.36723 40.3499 L 80.20514 40.3499 L 80.04308 40.3499 L 79.88104 40.3499 L 79.71895 40.3499 L 79.55692 40.3499 L 79.39485 40.3499 L 79.23276 40.3499 L 79.07072 40.3499 L 78.90866 40.3499 L 78.74661 40.3499 L 78.58453 40.3499 L 78.42247 40.3499 L 78.26042 40.3499 L 78.09834 40.3499 L 77.9363 40.3499 L 77.77423 40.3499 L 77.61215 40.3499 L 77.4501 40.3499 L 77.28804 40.3499 L 77.12599 40.3499 L 76.96391 40.3499 L 76.80185 40.3499 L 76.63982 40.3499 L 76.47772 40.3499 L 76.31569 40.3499 L 76.15363 40.3499 L 75.99155 40.3499 L 75.8295 40.3499 L 75.66743 40.3499 L 75.50537 40.3499 L 75.3433 40.3499 L 75.18124 40.3499 L 75.01918 40.3499 L 74.85712 40.3499 L 74.69507 40.3499 L 74.53299 40.3499 L 74.37093 40.3499 L 74.20888 40.3499 L 74.04681 40.3499 L 73.88477 40.3499 L 73.72269 40.3499 L 73.56062 40.3499 L 73.39857 40.3499 L 73.2365 40.3499 L 73.07446 40.3499 L 72.91238 40.3499 L 72.75032 40.3499 L 72.58827 40.3499 L 72.4262 40.3499 L 72.26414 40.3499 L 72.10208 40.3499 L 71.94002 40.3499 L 71.77795 40.3499 L 71.61589 40.3499 L 71.45384 40.3499 L 71.29176 40.3499 L 71.1297 40.3499 L 70.96767 40.3499 L 70.80557 40.3499 L 70.64354 40.3499 L 70.48148 40.3499 L 70.31938 40.3499 L 70.15735 40.3499 L 69.99529 40.3499 L 69.83324 40.3499 L 69.67116 40.3499 L 69.5091 40.3499 L 69.34705 40.3499 L 69.18497 40.3499 L 69.02292 40.3499 L 68.86086 40.3499 L 68.69878 40.3499 L 68.53673 40.3499 L 68.37466 40.3499 L 68.2126 40.3499 L 68.05054 40.3499 L 67.88847 40.3499 L 67.72643 40.3499 L 67.56435 40.3499 L 67.40231 40.3499 L 67.24025 40.3499 L 67.07816 40.3499 L 66.91612 40.3499 L 66.75406 40.3499 L 66.592 40.3499 L 66.42993 40.3499 L 66.26787 40.3499 L 66.1058 40.3499 L 65.94374 40.3499 L 65.7817 40.3499 L 65.61961 40.3499 L 65.45755 40.3499 L 65.2955 40.3499 L 65.13344 40.3499 L 64.97139 40.3499 L 64.80931 40.3499 L 64.76123 40.3499 Z " fill="#0000ff" fill-opacity=".3"/>
</g>
<clipPath id="cp1">
<path transform="matrix(2.7777777,0,0,-2.7777777,10.330556,484.9361)" d="M 0 0 L 194.28115 0 L 194.28115 161.39743 L 0 161.39743 Z "/>
</clipPath>
<g clip-path="url(#cp1)">
<path transform="matrix(2.7777777,0,0,-2.7777777,10.330556,484.9361)" stroke-width=".79701" stroke-linecap="butt" stroke-miterlimit="10" stroke-linejoin="miter" fill="none" stroke="#ff8000" d="M 16.1909 -524.5384 L 16.35295 -521.84878 L 16.51501 -519.16397 L 16.67708 -516.4849 L 16.83914 -513.8112 L 17.0012 -511.14289 L 17.16327 -508.47947 L 17.32532 -505.8222 L 17.4874 -503.16984 L 17.64944 -500.52323 L 17.81151 -497.88197 L 17.97357 -495.24607 L 18.13564 -492.61546 L 18.29768 -489.9902 L 18.45975 -487.37028 L 18.62183 -484.75569 L 18.78387 -482.14686 L 18.94594 -479.54335 L 19.108 -476.94477 L 19.27007 -474.35194 L 19.43211 -471.76445 L 19.5942 -469.18229 L 19.75624 -466.60545 L 19.9183 -464.0344 L 20.08038 -461.46824 L 20.24243 -458.9078 L 20.4045 -456.35276 L 20.56656 -453.803 L 20.72862 -451.2582 L 20.89067 -448.71958 L 21.05273 -446.18583 L 21.2148 -443.65785 L 21.37686 -441.1348 L 21.53891 -438.6175 L 21.70099 -436.1055 L 21.86305 -433.59889 L 22.0251 -431.0976 L 22.18718 -428.60206 L 22.34923 -426.1114 L 22.51129 -423.6261 L 22.67336 -421.14656 L 22.83542 -418.67195 L 22.99747 -416.20307 L 23.15953 -413.73994 L 23.3216 -411.28175 L 23.48366 -408.82887 L 23.64572 -406.38175 L 23.80779 -403.93998 L 23.96985 -401.5031 L 24.1319 -399.072 L 24.29398 -396.6462 L 24.45602 -394.22618 L 24.61809 -391.81065 L 24.78015 -389.4013 L 24.94221 -386.99687 L 25.10426 -384.59819 L 25.26633 -382.20484 L 25.4284 -379.81684 L 25.59045 -377.43415 L 25.75252 -375.05683 L 25.91458 -372.6852 L 26.07664 -370.31855 L 26.2387 -367.95719 L 26.40077 -365.6016 L 26.56282 -363.25135 L 26.72488 -360.90644 L 26.88696 -358.56687 L 27.04901 -356.2326 L 27.21107 -353.9041 L 27.37312 -351.5805 L 27.5352 -349.2627 L 27.69725 -346.9502 L 27.85931 -344.64305 L 28.02138 -342.34123 L 28.18344 -340.04475 L 28.34549 -337.7536 L 28.50757 -335.4682 L 28.66963 -333.18775 L 28.83168 -330.913 L 28.99376 -328.6436 L 29.1558 -326.37953 L 29.31787 -324.1208 L 29.47993 -321.86784 L 29.642 -319.6198 L 29.80405 -317.37709 L 29.96611 -315.1401 L 30.12817 -312.90849 L 30.29024 -310.68217 L 30.4523 -308.46125 L 30.61436 -306.24559 L 30.77643 -304.0353 L 30.93848 -301.83076 L 31.10056 -299.63157 L 31.2626 -297.43727 L 31.42467 -295.24876 L 31.58673 -293.06556 L 31.7488 -290.88768 L 31.91084 -288.71516 L 32.0729 -286.54838 L 32.23499 -284.3865 L 32.39703 -282.2304 L 32.5591 -280.07966 L 32.72116 -277.9342 L 32.88322 -275.79408 L 33.04527 -273.65934 L 33.20735 -271.5303 L 33.36942 -269.4058 L 33.53146 -267.28788 L 33.69354 -265.17445 L 33.85558 -263.06678 L 34.01765 -260.96443 L 34.17972 -258.86744 L 34.34177 -256.77574 L 34.50383 -254.68984 L 34.66588 -252.60884 L 34.82796 -250.53359 L 34.99002 -248.46326 L 35.15207 -246.39908 L 35.31415 -244.33943 L 35.4762 -242.28594 L 35.63826 -240.23738 L 35.80034 -238.19414 L 35.96239 -236.15665 L 36.12445 -234.1245 L 36.28651 -232.09767 L 36.44858 -230.07619 L 36.61064 -228.05965 L 36.77269 -226.04924 L 36.93477 -224.04378 L 37.0968 -222.04404 L 37.25888 -220.04924 L 37.42096 -218.06018 L 37.583 -216.07646 L 37.74506 -214.09809 L 37.90712 -212.12545 L 38.06918 -210.15773 L 38.23125 -208.19536 L 38.39331 -206.23873 L 38.55537 -204.28702 L 38.71742 -202.34148 L 38.87949 -200.40045 L 39.04156 -198.46517 L 39.20361 -196.53563 L 39.36568 -194.61101 L 39.52773 -192.69214 L 39.6898 -190.7782 L 39.85187 -188.87 L 40.01392 -186.96715 L 40.176 -185.06963 L 40.33803 -183.17784 L 40.5001 -181.29099 L 40.66219 -179.40947 L 40.82422 -177.53369 L 40.98628 -175.66286 L 41.14835 -173.79817 L 41.31041 -171.938 L 41.47247 -170.08358 L 41.63454 -168.2349 L 41.7966 -166.39113 L 41.95865 -164.55312 L 42.12073 -162.72003 L 42.28279 -160.89272 L 42.44484 -159.07071 L 42.60692 -157.25405 L 42.76895 -155.44313 L 42.93103 -153.63672 L 43.0931 -151.83647 L 43.25514 -150.04157 L 43.41722 -148.25157 L 43.57925 -146.46735 L 43.74133 -144.68845 L 43.9034 -142.91487 L 44.06544 -141.14705 L 44.22752 -139.38416 L 44.38957 -137.627 L 44.55164 -135.87477 L 44.71371 -134.12831 L 44.87576 -132.38716 L 45.03783 -130.65135 L 45.19989 -128.92089 L 45.36195 -127.19576 L 45.52402 -125.47595 L 45.68607 -123.7619 L 45.84814 -122.05318 L 46.01018 -120.34984 L 46.17226 -118.6516 L 46.33434 -116.95894 L 46.49637 -115.27168 L 46.65845 -113.58986 L 46.8205 -111.91336 L 46.98256 -110.24228 L 47.14462 -108.57634 L 47.30669 -106.91629 L 47.46875 -105.26115 L 47.6308 -103.61191 L 47.79286 -101.9675 L 47.95494 -100.32878 L 48.11699 -98.69571 L 48.27905 -97.06749 L 48.44112 -95.44516 L 48.60318 -93.82777 L 48.76524 -92.21597 L 48.92729 -90.60957 L 49.08937 -89.00856 L 49.2514 -87.41296 L 49.41348 -85.82274 L 49.57556 -84.23772 L 49.7376 -82.65848 L 49.89966 -81.0842 L 50.06172 -79.51576 L 50.22379 -77.95227 L 50.38585 -76.39441 L 50.54791 -74.8419 L 50.70998 -73.29483 L 50.87202 -71.75311 L 51.0341 -70.2168 L 51.19617 -68.68565 L 51.35822 -67.16031 L 51.5203 -65.63995 L 51.68234 -64.12543 L 51.8444 -62.61586 L 52.00647 -61.11188 L 52.16852 -59.61331 L 52.3306 -58.12009 L 52.49263 -56.63232 L 52.65471 -55.14989 L 52.81679 -53.67267 L 52.97882 -52.20123 L 53.1409 -50.73477 L 53.30295 -49.27419 L 53.46501 -47.8185 L 53.62709 -46.36841 L 53.78914 -44.92374 L 53.9512 -43.48445 L 54.11327 -42.05057 L 54.27533 -40.62207 L 54.4374 -39.19875 L 54.59944 -37.78119 L 54.76152 -36.36867 L 54.92355 -34.96193 L 55.08563 -33.56018 L 55.24771 -32.16399 L 55.40974 -30.77325 L 55.57182 -29.38785 L 55.73387 -28.00807 L 55.89594 -26.63327 L 56.05801 -25.26387 L 56.22006 -23.90022 L 56.38213 -22.54182 L 56.54417 -21.18877 L 56.70624 -19.84113 L 56.86832 -18.49866 L 57.03036 -17.16202 L 57.19243 -15.83029 L 57.35449 -14.50441 L 57.51656 -13.18355 L 57.67862 -11.86824 L 57.84068 -10.55833 L 58.00275 -9.25378 L 58.16478 -7.95465 L 58.32687 -6.6609 L 58.48894 -5.37238 L 58.65097 -4.08963 L 58.81303 -2.81184 L 58.9751 -1.53984 L 59.13716 -.27287 L 59.29922 .98853 L 59.46129 2.24452 L 59.62335 3.49515 L 59.7854 4.7404 L 59.94748 5.98021 L 60.10954 7.21484 L 60.27159 8.44371 L 60.43367 9.6676 L 60.59572 10.88565 L 60.75778 12.09874 L 60.91986 13.30623 L 61.08191 14.50835 L 61.24397 15.70506 L 61.406 16.89636 L 61.5681 18.08229 L 61.73016 19.26305 L 61.8922 20.438 L 62.05428 21.60796 L 62.21632 22.77213 L 62.37839 23.93127 L 62.54047 25.08487 L 62.70251 26.23311 L 62.86458 27.37589 L 63.02664 28.51329 L 63.1887 29.64532 L 63.35077 30.77197 L 63.51282 31.8932 L 63.6749 33.00928 L 63.83693 34.11955 L 63.99901 35.22482 L 64.16109 36.3245 L 64.32312 37.41861 L 64.4852 38.5077 L 64.64725 39.59122 L 64.80931 40.66931 L 64.97139 41.74207 L 65.13344 42.80942 L 65.2955 43.87134 L 65.45755 44.92792 L 65.61961 45.9791 L 65.7817 47.02502 L 65.94374 48.06526 L 66.1058 49.10042 L 66.26787 50.12988 L 66.42993 51.15425 L 66.592 52.17308 L 66.75406 53.18652 L 66.91612 54.19456 L 67.07816 55.1972 L 67.24025 56.19449 L 67.40231 57.18651 L 67.56435 58.17282 L 67.72643 59.1541 L 67.88847 60.12967 L 68.05054 61.1001 L 68.2126 62.06503 L 68.37466 63.02455 L 68.53673 63.97868 L 68.69878 64.92744 L 68.86086 65.87083 L 69.02292 66.80893 L 69.18497 67.7414 L 69.34705 68.66873 L 69.5091 69.59036 L 69.67116 70.50691 L 69.83324 71.41794 L 69.99529 72.32358 L 70.15735 73.22382 L 70.31938 74.11864 L 70.48148 75.00809 L 70.64354 75.8923 L 70.80557 76.77086 L 70.96767 77.64426 L 71.1297 78.51205 L 71.29176 79.37466 L 71.45384 80.23181 L 71.61589 81.0835 L 71.77795 81.92986 L 71.94002 82.77066 L 72.10208 83.60634 L 72.26414 84.43665 L 72.4262 85.26129 L 72.58827 86.08063 L 72.75032 86.89465 L 72.91238 87.70323 L 73.07446 88.50658 L 73.2365 89.30429 L 73.39857 90.09685 L 73.56062 90.88376 L 73.72269 91.66551 L 73.88477 92.44174 L 74.04681 93.21263 L 74.20888 93.97812 L 74.37093 94.73819 L 74.53299 95.49289 L 74.69507 96.24231 L 74.85712 96.98611 L 75.01918 97.72475 L 75.18124 98.45776 L 75.3433 99.18562 L 75.50537 99.90797 L 75.66743 100.62495 L 75.8295 101.33652 L 75.99155 102.0427 L 76.15363 102.7435 L 76.31569 103.43898 L 76.47772 104.1289 L 76.63982 104.81361 L 76.80185 105.49277 L 76.96391 106.16669 L 77.12599 106.83514 L 77.28804 107.4982 L 77.4501 108.15587 L 77.61215 108.8081 L 77.77423 109.45503 L 77.9363 110.09662 L 78.09834 110.7326 L 78.26042 111.36342 L 78.42247 111.98866 L 78.58453 112.6087 L 78.74661 113.22324 L 78.90866 113.8324 L 79.07072 114.43617 L 79.23276 115.03452 L 79.39485 115.6275 L 79.55692 116.2151 L 79.71895 116.79729 L 79.88104 117.3741 L 80.04308 117.94553 L 80.20514 118.51164 L 80.36723 119.07227 L 80.52927 119.62744 L 80.69133 120.17738 L 80.8534 120.72183 L 81.01546 121.26093 L 81.17752 121.79465 L 81.33957 122.32289 L 81.50165 122.84586 L 81.6637 123.3633 L 81.82576 123.87547 L 81.98784 124.38226 L 82.14989 124.88354 L 82.31195 125.37955 L 82.474 125.87006 L 82.63608 126.35527 L 82.79814 126.83508 L 82.96019 127.30945 L 83.12225 127.77847 L 83.2843 128.24204 L 83.44637 128.7003 L 83.60844 129.15316 L 83.7705 129.60056 L 83.93256 130.04267 L 84.09462 130.4793 L 84.25668 130.91056 L 84.41875 131.33649 L 84.58081 131.75696 L 84.74287 132.17208 L 84.90492 132.58176 L 85.067 132.9861 L 85.22906 133.38506 L 85.39111 133.77857 L 85.55319 134.16672 L 85.71523 134.54943 L 85.8773 134.92684 L 86.03937 135.29883 L 86.20142 135.66536 L 86.36348 136.0266 L 86.52553 136.38239 L 86.6876 136.73279 L 86.84967 137.07787 L 87.01172 137.41747 L 87.1738 137.7517 L 87.33585 138.08055 L 87.49791 138.40404 L 87.65999 138.72209 L 87.82204 139.03478 L 87.9841 139.34207 L 88.14613 139.64392 L 88.30823 139.94048 L 88.47029 140.23162 L 88.63232 140.51729 L 88.79442 140.79766 L 88.95645 141.07259 L 89.11852 141.34218 L 89.28061 141.60634 L 89.44264 141.8651 L 89.6047 142.1185 L 89.76677 142.36646 L 89.92883 142.60909 L 90.0909 142.84633 L 90.25294 143.07811 L 90.41502 143.30455 L 90.57707 143.52558 L 90.73914 143.74124 L 90.90121 143.9515 L 91.06326 144.15636 L 91.22533 144.35584 L 91.38737 144.54991 L 91.54945 144.73863 L 91.71152 144.92194 L 91.87357 145.09984 L 92.03564 145.27239 L 92.19768 145.43953 L 92.35976 145.60128 L 92.52182 145.75763 L 92.68387 145.90859 L 92.84593 146.05417 L 93.008 146.19435 L 93.17006 146.32915 L 93.33212 146.45856 L 93.49419 146.58255 L 93.65625 146.70117 L 93.8183 146.81438 L 93.98038 146.92224 L 94.14244 147.02469 L 94.30449 147.12172 L 94.46657 147.21341 L 94.6286 147.2997 L 94.79068 147.38059 L 94.95274 147.45609 L 95.11479 147.52619 L 95.27687 147.59091 L 95.4389 147.65023 L 95.60098 147.70415 L 95.76305 147.75272 L 95.9251 147.79586 L 96.08717 147.8336 L 96.24922 147.866 L 96.41129 147.89296 L 96.57336 147.91455 L 96.73541 147.93077 L 96.89748 147.94156 L 97.05952 147.94699 L 97.2216 147.94702 L 97.38367 147.94165 L 97.5457 147.93088 L 97.7078 147.91475 L 97.86983 147.89322 L 98.03189 147.86632 L 98.19398 147.83399 L 98.35602 147.7963 L 98.51808 147.7532 L 98.68015 147.7047 L 98.84221 147.65084 L 99.00427 147.59157 L 99.16632 147.52692 L 99.3284 147.45687 L 99.49045 147.38141 L 99.65251 147.3006 L 99.81459 147.21436 L 99.97664 147.12274 L 100.1387 147.02576 L 100.30077 146.92334 L 100.46283 146.81557 L 100.6249 146.7024 L 100.78694 146.58386 L 100.94902 146.45987 L 101.11105 146.33057 L 101.27313 146.19582 L 101.43521 146.0557 L 101.59724 145.91019 L 101.75931 145.75926 L 101.92137 145.60297 L 102.08344 145.44129 L 102.2455 145.27419 L 102.40756 145.10172 L 102.56963 144.92388 L 102.73167 144.74065 L 102.89375 144.552 L 103.05582 144.35794 L 103.21786 144.15854 L 103.37994 143.95374 L 103.54198 143.74353 L 103.70406 143.52793 L 103.86612 143.30693 L 104.02817 143.08057 L 104.19025 142.84879 L 104.35228 142.61167 L 104.51436 142.3691 L 104.67644 142.12113 L 104.83847 141.86783 L 105.00055 141.6091 L 105.1626 141.345 L 105.32466 141.0755 L 105.48674 140.80059 L 105.64879 140.52036 L 105.81085 140.23465 L 105.9729 139.94365 L 106.13498 139.64717 L 106.29704 139.34528 L 106.45909 139.03809 L 106.62117 138.72545 L 106.7832 138.40749 L 106.94528 138.08405 L 107.10736 137.75524 L 107.2694 137.42107 L 107.43146 137.08147 L 107.59352 136.73653 L 107.75558 136.38616 L 107.91765 136.03038 L 108.0797 135.6693 L 108.24178 135.30272 L 108.40382 134.93085 L 108.56589 134.55353 L 108.72797 134.17078 L 108.89001 133.78275 L 109.05208 133.38924 L 109.21414 132.9904 L 109.3762 132.5861 L 109.53827 132.17644 L 109.70033 131.76143 L 109.8624 131.34096 L 110.02443 130.91519 L 110.18652 130.48392 L 110.34859 130.04732 L 110.51062 129.60536 L 110.67268 129.15796 L 110.83475 128.70519 L 110.99681 128.247 L 111.15887 127.78343 L 111.32094 127.3145 L 111.483 126.84013 L 111.64505 126.36047 L 111.80713 125.87532 L 111.9692 125.38478 L 112.13124 124.88893 L 112.29332 124.3876 L 112.45535 123.88098 L 112.61743 123.36885 L 112.7795 122.85135 L 112.94154 122.32857 L 113.10362 121.80026 L 113.26566 121.26668 L 113.42773 120.72763 L 113.58981 120.1832 L 113.75185 119.6334 L 113.91393 119.07822 L 114.07597 118.51762 L 114.23804 117.95169 L 114.40012 117.38022 L 114.56216 116.80357 L 114.72423 116.22136 L 114.88628 115.63387 L 115.04836 115.0409 L 115.21042 114.44257 L 115.37247 113.83887 L 115.53455 113.22975 L 115.69658 112.61528 L 115.85866 111.99539 L 116.02074 111.37004 L 116.18277 110.73946 L 116.34485 110.10335 L 116.5069 109.462 L 116.66896 108.81505 L 116.83102 108.16284 L 116.99309 107.50525 L 117.15515 106.84225 L 117.3172 106.17383 L 117.47926 105.50006 L 117.64134 104.82082 L 117.80339 104.13634 L 117.96545 103.44627 L 118.12752 102.75107 L 118.28958 102.0502 L 118.45164 101.34407 L 118.61371 100.63254 L 118.77577 99.91565 L 118.9378 99.19337 L 119.0999 98.46568 L 119.26196 97.7325 L 119.424 96.99413 L 119.58607 96.25018 L 119.74812 95.50102 L 119.91019 94.74628 L 120.07225 93.98625 L 120.23431 93.22084 L 120.39638 92.45004 L 120.55843 91.67395 L 120.7205 90.89221 L 120.88257 90.10513 L 121.04462 89.31288 L 121.2067 88.51498 L 121.36874 87.71199 L 121.5308 86.90343 L 121.69287 86.08937 L 121.85492 85.27016 L 122.017 84.44536 L 122.17903 83.61537 L 122.34111 82.77974 L 122.50319 81.93884 L 122.66522 81.09256 L 122.8273 80.24092 L 122.98935 79.38383 L 123.15141 78.52141 L 123.31349 77.65341 L 123.47554 76.78035 L 123.6376 75.90157 L 123.79965 75.0177 L 123.96173 74.12817 L 124.1238 73.23338 L 124.28584 72.3332 L 124.44792 71.42763 L 124.60997 70.51666 L 124.77203 69.60034 L 124.93411 68.67845 L 125.09615 67.75145 L 125.25822 66.81879 L 125.42027 65.88101 L 125.58234 64.93756 L 125.74442 63.98888 L 125.90646 63.03477 L 126.06853 62.0753 L 126.23058 61.11044 L 126.39264 60.14017 L 126.55472 59.16435 L 126.71677 58.1835 L 126.87883 57.1969 L 127.0409 56.20525 L 127.20296 55.20787 L 127.36502 54.20528 L 127.52708 53.19728 L 127.68915 52.18391 L 127.85118 51.16513 L 128.01328 50.141 L 128.17534 49.11143 L 128.33737 48.07646 L 128.49945 47.03601 L 128.6615 45.99042 L 128.82357 44.93916 L 128.98564 43.88266 L 129.14769 42.8209 L 129.30976 41.7535 L 129.4718 40.68097 L 129.63388 39.60274 L 129.79595 38.51929 L 129.958 37.43042 L 130.12007 36.3362 L 130.28212 35.23656 L 130.44419 34.13153 L 130.60625 33.02097 L 130.76831 31.90533 L 130.93038 30.78397 L 131.0924 29.65756 L 131.2545 28.5254 L 131.41657 27.38808 L 131.5786 26.2453 L 131.74068 25.09718 L 131.90273 23.94363 L 132.06479 22.78473 L 132.22687 21.62022 L 132.38892 20.45068 L 132.55098 19.27544 L 132.71305 18.0951 L 132.8751 16.90904 L 133.03717 15.71779 L 133.19922 14.52112 L 133.3613 13.31908 L 133.52335 12.11163 L 133.68541 10.89882 L 133.84749 9.6804 L 134.00954 8.457 L 134.1716 7.22781 L 134.33365 5.99359 L 134.49573 4.75365 L 134.65779 3.50845 L 134.81984 2.2579 L 134.9819 1.00195 L 135.14395 -.25935 L 135.30602 -1.52611 L 135.4681 -2.79842 L 135.63014 -4.07574 L 135.7922 -5.35887 L 135.95427 -6.64696 L 136.11634 -7.94083 L 136.2784 -9.23991 L 136.44046 -10.54437 L 136.60253 -11.85425 L 136.76456 -13.16946 L 136.92665 -14.49014 L 137.08872 -15.81635 L 137.25075 -17.14757 L 137.41283 -18.48457 L 137.57488 -19.82655 L 137.73694 -21.17416 L 137.89902 -22.52733 L 138.06107 -23.88553 L 138.22313 -25.24947 L 138.38518 -26.6184 L 138.54726 -27.99318 L 138.70932 -29.37312 L 138.87137 -30.75842 L 139.03345 -32.14914 L 139.1955 -33.54524 L 139.35756 -34.94675 L 139.51963 -36.35385 L 139.68169 -37.76588 L 139.84375 -39.1838 L 140.00579 -40.60663 L 140.16788 -42.03531 L 140.32994 -43.46913 L 140.49198 -44.90836 L 140.65407 -46.35298 L 140.8161 -47.803 L 140.97817 -49.25838 L 141.14025 -50.71938 L 141.30229 -52.18536 L 141.46436 -53.65715 L 141.62642 -55.1339 L 141.78849 -56.61647 L 141.95055 -58.1042 L 142.1126 -59.59735 L 142.27468 -61.09587 L 142.43672 -62.59978 L 142.59879 -64.10909 L 142.76087 -65.624 L 142.92292 -67.14386 L 143.08498 -68.66956 L 143.24703 -70.20023 L 143.4091 -71.7367 L 143.57117 -73.27832 L 143.73322 -74.82536 L 143.8953 -76.37782 L 144.05733 -77.93561 L 144.21939 -79.49881 L 144.38147 -81.06744 L 144.54352 -82.64142 L 144.70558 -84.2208 L 144.86765 -85.80556 L 145.02971 -87.39598 L 145.19178 -88.99152 L 145.35384 -90.59221 L 145.5159 -92.1988 L 145.67795 -93.81029 L 145.84003 -95.42764 L 146.00209 -97.05016 L 146.16413 -98.67805 L 146.3262 -100.31133 L 146.48825 -101.94998 L 146.65032 -103.59406 L 146.8124 -105.24379 L 146.97444 -106.89836 L 147.1365 -108.55885 L 147.29856 -110.22421 L 147.46063 -111.89551 L 147.6227 -113.57191 L 147.78475 -115.25371 L 147.94683 -116.9409 L 148.10887 -118.6335 L 148.27094 -120.33147 L 148.433 -122.03513 L 148.59506 -123.74342 L 148.75713 -125.45789 L 148.91918 -127.17728 L 149.08126 -128.90242 L 149.24332 -130.63289 L 149.40535 -132.36829 L 149.56745 -134.10944 L 149.72948 -135.8559 L 149.89154 -137.60771 L 150.05364 -139.36527 L 150.21567 -141.12776 L 150.37773 -142.896 L 150.5398 -144.66915 L 150.70186 -146.44847 L 150.86392 -148.2327 L 151.02597 -150.02227 L 151.18805 -151.81719 L 151.3501 -153.61743 L 151.51216 -155.42342 L 151.67424 -157.23476 L 151.83629 -159.05101 L 151.99835 -160.87343 L 152.1604 -162.70034 L 152.32248 -164.53342 L 152.48455 -166.37143 L 152.64659 -168.2152 L 152.80867 -170.06388 L 152.9707 -171.9183 L 153.13277 -173.77806 L 153.29486 -175.64315 L 153.4569 -177.51358 L 153.61896 -179.38977 L 153.78102 -181.27046 L 153.94309 -183.15732 L 154.10515 -185.04952 L 154.26721 -186.94663 L 154.42928 -188.84989 L 154.59133 -190.75768 L 154.7534 -192.67162 L 154.91547 -194.59049 L 155.07752 -196.5151 L 155.23958 -198.44464 L 155.40163 -200.37993 L 155.5637 -202.32054 L 155.72577 -204.2665 L 155.88782 -206.21779 L 156.04988 -208.17484 L 156.21193 -210.1364 L 156.37401 -212.10411 L 156.53607 -214.07715 L 156.69812 -216.05553 L 156.8602 -218.03925 L 157.02225 -220.0283 L 157.18431 -222.0227 L 157.34639 -224.02285 L 157.50844 -226.0275 L 157.6705 -228.03871 L 157.83255 -230.05443 L 157.99463 -232.07592 L 158.1567 -234.10274 L 158.31874 -236.13489 L 158.48082 -238.17238 L 158.64286 -240.21562 L 158.80493 -242.26377 L 158.96701 -244.31809 L 159.12905 -246.37693 L 159.2911 -248.4415 L 159.45317 -250.511 L 159.61524 -252.58667 L 159.7773 -254.66767 L 159.93935 -256.7536 L 160.10143 -258.84483 L 160.26348 -260.94187 L 160.42554 -263.0442 L 160.58762 -265.15187 L 160.74967 -267.2649 L 160.91173 -269.3832 L 161.07378 -271.5069 L 161.23586 -273.63636 L 161.39792 -275.7711 L 161.55997 -277.91123 L 161.72205 -280.05665 L 161.88408 -282.20704 L 162.04615 -284.36354 L 162.20824 -286.52497 L 162.37027 -288.69215 L 162.53234 -290.86427 L 162.6944 -293.04216 L 162.85646 -295.22535 L 163.01853 -297.41386 L 163.18059 -299.60774 L 163.34265 -301.80738 L 163.5047 -304.0115 L 163.66678 -306.2218 L 163.82884 -308.4374 L 163.99089 -310.65837 L 164.15296 -312.88468 L 164.315 -315.1163 L 164.47708 -317.35328 L 164.63915 -319.596 L 164.8012 -321.84324 L 164.96327 -324.097 L 165.1253 -326.3549 L 165.28739 -328.6194 L 165.44945 -330.8888 L 165.6115 -333.1635 L 165.77358 -335.44358 L 165.93563 -337.7294 L 166.09769 -340.02015 L 166.25977 -342.3166 L 166.42182 -344.618 L 166.58388 -346.92558 L 166.74593 -349.23768 L 166.908 -351.5559 L 167.07007 -353.87907 L 167.23212 -356.20799 L 167.3942 -358.5418 L 167.55623 -360.8814 L 167.7183 -363.2263 L 167.88039 -365.57698 L 168.04242 -367.93217 L 168.2045 -370.2935 L 168.36655 -372.65937 L 168.52861 -375.03178 L 168.69068 -377.4087 L 168.85272 -379.79139 L 169.0148 -382.17939 L 169.17685 -384.57276 L 169.33892 -386.97145 L 169.50099 -389.37547 L 169.66304 -391.7848 L 169.8251 -394.20033 L 169.98717 -396.62037 L 170.14923 -399.04573 L 170.3113 -401.47727 L 170.47335 -403.91328 L 170.63542 -406.35548 L 170.79746 -408.8026 L 170.95952 -411.25547 L 171.12162 -413.71369 L 171.28365 -416.1768 L 171.44571 -418.64567 L 171.60778 -421.11988 L 171.76984 -423.59944 L 171.9319 -426.08473 L 172.09397 -428.57496 L 172.25603 -431.0709 L 172.41808 -433.5718 L 172.58016 -436.07884 L 172.74222 -438.5908 L 172.90427 -441.10813 L 173.06635 -443.63078 L 173.2284 -446.15876 L 173.39046 -448.69248 L 173.55252 -451.23155 L 173.71457 -453.7755 L 173.87665 -456.32569 L 174.03868 -458.8803 L 174.20076 -461.44114 L 174.36284 -464.00688 L 174.52487 -466.57798 L 174.68695 -469.1548 L 174.849 -471.73655 L 175.01107 -474.324 L 175.17314 -476.91728 L 175.33519 -479.51506 L 175.49726 -482.11894 L 175.6593 -484.72779 L 175.82138 -487.34236 L 175.98345 -489.96229 L 176.1455 -492.58714 L 176.30757 -495.21775 L 176.4696 -497.85365 L 176.63169 -500.4949 L 176.79376 -503.1415 L 176.9558 -505.79389 L 177.11788 -508.45115 L 177.27993 -511.11415 L 177.44199 -513.7829 L 177.60407 -516.4566 L 177.7661 -519.1356 L 177.92818 -521.82 L 178.09023 -524.5093 "/>
<path transform="matrix(2.7777777,0,0,-2.7777777,10.330556,484.9361)" stroke-width=".79701" stroke-linecap="butt" stroke-miterlimit="10" stroke-linejoin="miter" fill="none" stroke="#fff200" d="M 16.1909 40.3499 L 16.35295 40.3499 L 16.51501 40.3499 L 16.67708 40.3499 L 16.83914 40.3499 L 17.0012 40.3499 L 17.16327 40.3499 L 17.32532 40.3499 L 17.4874 40.3499 L 17.64944 40.3499 L 17.81151 40.3499 L 17.97357 40.3499 L 18.13564 40.3499 L 18.29768 40.3499 L 18.45975 40.3499 L 18.62183 40.3499 L 18.78387 40.3499 L 18.94594 40.3499 L 19.108 40.3499 L 19.27007 40.3499 L 19.43211 40.3499 L 19.5942 40.3499 L 19.75624 40.3499 L 19.9183 40.3499 L 20.08038 40.3499 L 20.24243 40.3499 L 20.4045 40.3499 L 20.56656 40.3499 L 20.72862 40.3499 L 20.89067 40.3499 L 21.05273 40.3499 L 21.2148 40.3499 L 21.37686 40.3499 L 21.53891 40.3499 L 21.70099 40.3499 L 21.86305 40.3499 L 22.0251 40.3499 L 22.18718 40.3499 L 22.34923 40.3499 L 22.51129 40.3499 L 22.67336 40.3499 L 22.83542 40.3499 L 22.99747 40.3499 L 23.15953 40.3499 L 23.3216 40.3499 L 23.48366 40.3499 L 23.64572 40.3499 L 23.80779 40.3499 L 23.96985 40.3499 L 24.1319 40.3499 L 24.29398 40.3499 L 24.45602 40.3499 L 24.61809 40.3499 L 24.78015 40.3499 L 24.94221 40.3499 L 25.10426 40.3499 L 25.26633 40.3499 L 25.4284 40.3499 L 25.59045 40.3499 L 25.75252 40.3499 L 25.91458 40.3499 L 26.07664 40.3499 L 26.2387 40.3499 L 26.40077 40.3499 L 26.56282 40.3499 L 26.72488 40.3499 L 26.88696 40.3499 L 27.04901 40.3499 L 27.21107 40.3499 L 27.37312 40.3499 L 27.5352 40.3499 L 27.69725 40.3499 L 27.85931 40.3499 L 28.02138 40.3499 L 28.18344 40.3499 L 28.34549 40.3499 L 28.50757 40.3499 L 28.66963 40.3499 L 28.83168 40.3499 L 28.99376 40.3499 L 29.1558 40.3499 L 29.31787 40.3499 L 29.47993 40.3499 L 29.642 40.3499 L 29.80405 40.3499 L 29.96611 40.3499 L 30.12817 40.3499 L 30.29024 40.3499 L 30.4523 40.3499 L 30.61436 40.3499 L 30.77643 40.3499 L 30.93848 40.3499 L 31.10056 40.3499 L 31.2626 40.3499 L 31.42467 40.3499 L 31.58673 40.3499 L 31.7488 40.3499 L 31.91084 40.3499 L 32.0729 40.3499 L 32.23499 40.3499 L 32.39703 40.3499 L 32.5591 40.3499 L 32.72116 40.3499 L 32.88322 40.3499 L 33.04527 40.3499 L 33.20735 40.3499 L 33.36942 40.3499 L 33.53146 40.3499 L 33.69354 40.3499 L 33.85558 40.3499 L 34.01765 40.3499 L 34.17972 40.3499 L 34.34177 40.3499 L 34.50383 40.3499 L 34.66588 40.3499 L 34.82796 40.3499 L 34.99002 40.3499 L 35.15207 40.3499 L 35.31415 40.3499 L 35.4762 40.3499 L 35.63826 40.3499 L 35.80034 40.3499 L 35.96239 40.3499 L 36.12445 40.3499 L 36.28651 40.3499 L 36.44858 40.3499 L 36.61064 40.3499 L 36.77269 40.3499 L 36.93477 40.3499 L 37.0968 40.3499 L 37.25888 40.3499 L 37.42096 40.3499 L 37.583 40.3499 L 37.74506 40.3499 L 37.90712 40.3499 L 38.06918 40.3499 L 38.23125 40.3499 L 38.39331 40.3499 L 38.55537 40.3499 L 38.71742 40.3499 L 38.87949 40.3499 L 39.04156 40.3499 L 39.20361 40.3499 L 39.36568 40.3499 L 39.52773 40.3499 L 39.6898 40.3499 L 39.85187 40.3499 L 40.01392 40.3499 L 40.176 40.3499 L 40.33803 40.3499 L 40.5001 40.3499 L 40.66219 40.3499 L 40.82422 40.3499 L 40.98628 40.3499 L 41.14835 40.3499 L 41.31041 40.3499 L 41.47247 40.3499 L 41.63454 40.3499 L 41.7966 40.3499 L 41.95865 40.3499 L 42.12073 40.3499 L 42.28279 40.3499 L 42.44484 40.3499 L 42.60692 40.3499 L 42.76895 40.3499 L 42.93103 40.3499 L 43.0931 40.3499 L 43.25514 40.3499 L 43.41722 40.3499 L 43.57925 40.3499 L 43.74133 40.3499 L 43.9034 40.3499 L 44.06544 40.3499 L 44.22752 40.3499 L 44.38957 40.3499 L 44.55164 40.3499 L 44.71371 40.3499 L 44.87576 40.3499 L 45.03783 40.3499 L 45.19989 40.3499 L 45.36195 40.3499 L 45.52402 40.3499 L 45.68607 40.3499 L 45.84814 40.3499 L 46.01018 40.3499 L 46.17226 40.3499 L 46.33434 40.3499 L 46.49637 40.3499 L 46.65845 40.3499 L 46.8205 40.3499 L 46.98256 40.3499 L 47.14462 40.3499 L 47.30669 40.3499 L 47.46875 40.3499 L 47.6308 40.3499 L 47.79286 40.3499 L 47.95494 40.3499 L 48.11699 40.3499 L 48.27905 40.3499 L 48.44112 40.3499 L 48.60318 40.3499 L 48.76524 40.3499 L 48.92729 40.3499 L 49.08937 40.3499 L 49.2514 40.3499 L 49.41348 40.3499 L 49.57556 40.3499 L 49.7376 40.3499 L 49.89966 40.3499 L 50.06172 40.3499 L 50.22379 40.3499 L 50.38585 40.3499 L 50.54791 40.3499 L 50.70998 40.3499 L 50.87202 40.3499 L 51.0341 40.3499 L 51.19617 40.3499 L 51.35822 40.3499 L 51.5203 40.3499 L 51.68234 40.3499 L 51.8444 40.3499 L 52.00647 40.3499 L 52.16852 40.3499 L 52.3306 40.3499 L 52.49263 40.3499 L 52.65471 40.3499 L 52.81679 40.3499 L 52.97882 40.3499 L 53.1409 40.3499 L 53.30295 40.3499 L 53.46501 40.3499 L 53.62709 40.3499 L 53.78914 40.3499 L 53.9512 40.3499 L 54.11327 40.3499 L 54.27533 40.3499 L 54.4374 40.3499 L 54.59944 40.3499 L 54.76152 40.3499 L 54.92355 40.3499 L 55.08563 40.3499 L 55.24771 40.3499 L 55.40974 40.3499 L 55.57182 40.3499 L 55.73387 40.3499 L 55.89594 40.3499 L 56.05801 40.3499 L 56.22006 40.3499 L 56.38213 40.3499 L 56.54417 40.3499 L 56.70624 40.3499 L 56.86832 40.3499 L 57.03036 40.3499 L 57.19243 40.3499 L 57.35449 40.3499 L 57.51656 40.3499 L 57.67862 40.3499 L 57.84068 40.3499 L 58.00275 40.3499 L 58.16478 40.3499 L 58.32687 40.3499 L 58.48894 40.3499 L 58.65097 40.3499 L 58.81303 40.3499 L 58.9751 40.3499 L 59.13716 40.3499 L 59.29922 40.3499 L 59.46129 40.3499 L 59.62335 40.3499 L 59.7854 40.3499 L 59.94748 40.3499 L 60.10954 40.3499 L 60.27159 40.3499 L 60.43367 40.3499 L 60.59572 40.3499 L 60.75778 40.3499 L 60.91986 40.3499 L 61.08191 40.3499 L 61.24397 40.3499 L 61.406 40.3499 L 61.5681 40.3499 L 61.73016 40.3499 L 61.8922 40.3499 L 62.05428 40.3499 L 62.21632 40.3499 L 62.37839 40.3499 L 62.54047 40.3499 L 62.70251 40.3499 L 62.86458 40.3499 L 63.02664 40.3499 L 63.1887 40.3499 L 63.35077 40.3499 L 63.51282 40.3499 L 63.6749 40.3499 L 63.83693 40.3499 L 63.99901 40.3499 L 64.16109 40.3499 L 64.32312 40.3499 L 64.4852 40.3499 L 64.64725 40.3499 L 64.80931 40.3499 L 64.97139 40.3499 L 65.13344 40.3499 L 65.2955 40.3499 L 65.45755 40.3499 L 65.61961 40.3499 L 65.7817 40.3499 L 65.94374 40.3499 L 66.1058 40.3499 L 66.26787 40.3499 L 66.42993 40.3499 L 66.592 40.3499 L 66.75406 40.3499 L 66.91612 40.3499 L 67.07816 40.3499 L 67.24025 40.3499 L 67.40231 40.3499 L 67.56435 40.3499 L 67.72643 40.3499 L 67.88847 40.3499 L 68.05054 40.3499 L 68.2126 40.3499 L 68.37466 40.3499 L 68.53673 40.3499 L 68.69878 40.3499 L 68.86086 40.3499 L 69.02292 40.3499 L 69.18497 40.3499 L 69.34705 40.3499 L 69.5091 40.3499 L 69.67116 40.3499 L 69.83324 40.3499 L 69.99529 40.3499 L 70.15735 40.3499 L 70.31938 40.3499 L 70.48148 40.3499 L 70.64354 40.3499 L 70.80557 40.3499 L 70.96767 40.3499 L 71.1297 40.3499 L 71.29176 40.3499 L 71.45384 40.3499 L 71.61589 40.3499 L 71.77795 40.3499 L 71.94002 40.3499 L 72.10208 40.3499 L 72.26414 40.3499 L 72.4262 40.3499 L 72.58827 40.3499 L 72.75032 40.3499 L 72.91238 40.3499 L 73.07446 40.3499 L 73.2365 40.3499 L 73.39857 40.3499 L 73.56062 40.3499 L 73.72269 40.3499 L 73.88477 40.3499 L 74.04681 40.3499 L 74.20888 40.3499 L 74.37093 40.3499 L 74.53299 40.3499 L 74.69507 40.3499 L 74.85712 40.3499 L 75.01918 40.3499 L 75.18124 40.3499 L 75.3433 40.3499 L 75.50537 40.3499 L 75.66743 40.3499 L 75.8295 40.3499 L 75.99155 40.3499 L 76.15363 40.3499 L 76.31569 40.3499 L 76.47772 40.3499 L 76.63982 40.3499 L 76.80185 40.3499 L 76.96391 40.3499 L 77.12599 40.3499 L 77.28804 40.3499 L 77.4501 40.3499 L 77.61215 40.3499 L 77.77423 40.3499 L 77.9363 40.3499 L 78.09834 40.3499 L 78.26042 40.3499 L 78.42247 40.3499 L 78.58453 40.3499 L 78.74661 40.3499 L 78.90866 40.3499 L 79.07072 40.3499 L 79.23276 40.3499 L 79.39485 40.3499 L 79.55692 40.3499 L 79.71895 40.3499 L 79.88104 40.3499 L 80.04308 40.3499 L 80.20514 40.3499 L 80.36723 40.3499 L 80.52927 40.3499 L 80.69133 40.3499 L 80.8534 40.3499 L 81.01546 40.3499 L 81.17752 40.3499 L 81.33957 40.3499 L 81.50165 40.3499 L 81.6637 40.3499 L 81.82576 40.3499 L 81.98784 40.3499 L 82.14989 40.3499 L 82.31195 40.3499 L 82.474 40.3499 L 82.63608 40.3499 L 82.79814 40.3499 L 82.96019 40.3499 L 83.12225 40.3499 L 83.2843 40.3499 L 83.44637 40.3499 L 83.60844 40.3499 L 83.7705 40.3499 L 83.93256 40.3499 L 84.09462 40.3499 L 84.25668 40.3499 L 84.41875 40.3499 L 84.58081 40.3499 L 84.74287 40.3499 L 84.90492 40.3499 L 85.067 40.3499 L 85.22906 40.3499 L 85.39111 40.3499 L 85.55319 40.3499 L 85.71523 40.3499 L 85.8773 40.3499 L 86.03937 40.3499 L 86.20142 40.3499 L 86.36348 40.3499 L 86.52553 40.3499 L 86.6876 40.3499 L 86.84967 40.3499 L 87.01172 40.3499 L 87.1738 40.3499 L 87.33585 40.3499 L 87.49791 40.3499 L 87.65999 40.3499 L 87.82204 40.3499 L 87.9841 40.3499 L 88.14613 40.3499 L 88.30823 40.3499 L 88.47029 40.3499 L 88.63232 40.3499 L 88.79442 40.3499 L 88.95645 40.3499 L 89.11852 40.3499 L 89.28061 40.3499 L 89.44264 40.3499 L 89.6047 40.3499 L 89.76677 40.3499 L 89.92883 40.3499 L 90.0909 40.3499 L 90.25294 40.3499 L 90.41502 40.3499 L 90.57707 40.3499 L 90.73914 40.3499 L 90.90121 40.3499 L 91.06326 40.3499 L 91.22533 40.3499 L 91.38737 40.3499 L 91.54945 40.3499 L 91.71152 40.3499 L 91.87357 40.3499 L 92.03564 40.3499 L 92.19768 40.3499 L 92.35976 40.3499 L 92.52182 40.3499 L 92.68387 40.3499 L 92.84593 40.3499 L 93.008 40.3499 L 93.17006 40.3499 L 93.33212 40.3499 L 93.49419 40.3499 L 93.65625 40.3499 L 93.8183 40.3499 L 93.98038 40.3499 L 94.14244 40.3499 L 94.30449 40.3499 L 94.46657 40.3499 L 94.6286 40.3499 L 94.79068 40.3499 L 94.95274 40.3499 L 95.11479 40.3499 L 95.27687 40.3499 L 95.4389 40.3499 L 95.60098 40.3499 L 95.76305 40.3499 L 95.9251 40.3499 L 96.08717 40.3499 L 96.24922 40.3499 L 96.41129 40.3499 L 96.57336 40.3499 L 96.73541 40.3499 L 96.89748 40.3499 L 97.05952 40.3499 L 97.2216 40.3499 L 97.38367 40.3499 L 97.5457 40.3499 L 97.7078 40.3499 L 97.86983 40.3499 L 98.03189 40.3499 L 98.19398 40.3499 L 98.35602 40.3499 L 98.51808 40.3499 L 98.68015 40.3499 L 98.84221 40.3499 L 99.00427 40.3499 L 99.16632 40.3499 L 99.3284 40.3499 L 99.49045 40.3499 L 99.65251 40.3499 L 99.81459 40.3499 L 99.97664 40.3499 L 100.1387 40.3499 L 100.30077 40.3499 L 100.46283 40.3499 L 100.6249 40.3499 L 100.78694 40.3499 L 100.94902 40.3499 L 101.11105 40.3499 L 101.27313 40.3499 L 101.43521 40.3499 L 101.59724 40.3499 L 101.75931 40.3499 L 101.92137 40.3499 L 102.08344 40.3499 L 102.2455 40.3499 L 102.40756 40.3499 L 102.56963 40.3499 L 102.73167 40.3499 L 102.89375 40.3499 L 103.05582 40.3499 L 103.21786 40.3499 L 103.37994 40.3499 L 103.54198 40.3499 L 103.70406 40.3499 L 103.86612 40.3499 L 104.02817 40.3499 L 104.19025 40.3499 L 104.35228 40.3499 L 104.51436 40.3499 L 104.67644 40.3499 L 104.83847 40.3499 L 105.00055 40.3499 L 105.1626 40.3499 L 105.32466 40.3499 L 105.48674 40.3499 L 105.64879 40.3499 L 105.81085 40.3499 L 105.9729 40.3499 L 106.13498 40.3499 L 106.29704 40.3499 L 106.45909 40.3499 L 106.62117 40.3499 L 106.7832 40.3499 L 106.94528 40.3499 L 107.10736 40.3499 L 107.2694 40.3499 L 107.43146 40.3499 L 107.59352 40.3499 L 107.75558 40.3499 L 107.91765 40.3499 L 108.0797 40.3499 L 108.24178 40.3499 L 108.40382 40.3499 L 108.56589 40.3499 L 108.72797 40.3499 L 108.89001 40.3499 L 109.05208 40.3499 L 109.21414 40.3499 L 109.3762 40.3499 L 109.53827 40.3499 L 109.70033 40.3499 L 109.8624 40.3499 L 110.02443 40.3499 L 110.18652 40.3499 L 110.34859 40.3499 L 110.51062 40.3499 L 110.67268 40.3499 L 110.83475 40.3499 L 110.99681 40.3499 L 111.15887 40.3499 L 111.32094 40.3499 L 111.483 40.3499 L 111.64505 40.3499 L 111.80713 40.3499 L 111.9692 40.3499 L 112.13124 40.3499 L 112.29332 40.3499 L 112.45535 40.3499 L 112.61743 40.3499 L 112.7795 40.3499 L 112.94154 40.3499 L 113.10362 40.3499 L 113.26566 40.3499 L 113.42773 40.3499 L 113.58981 40.3499 L 113.75185 40.3499 L 113.91393 40.3499 L 114.07597 40.3499 L 114.23804 40.3499 L 114.40012 40.3499 L 114.56216 40.3499 L 114.72423 40.3499 L 114.88628 40.3499 L 115.04836 40.3499 L 115.21042 40.3499 L 115.37247 40.3499 L 115.53455 40.3499 L 115.69658 40.3499 L 115.85866 40.3499 L 116.02074 40.3499 L 116.18277 40.3499 L 116.34485 40.3499 L 116.5069 40.3499 L 116.66896 40.3499 L 116.83102 40.3499 L 116.99309 40.3499 L 117.15515 40.3499 L 117.3172 40.3499 L 117.47926 40.3499 L 117.64134 40.3499 L 117.80339 40.3499 L 117.96545 40.3499 L 118.12752 40.3499 L 118.28958 40.3499 L 118.45164 40.3499 L 118.61371 40.3499 L 118.77577 40.3499 L 118.9378 40.3499 L 119.0999 40.3499 L 119.26196 40.3499 L 119.424 40.3499 L 119.58607 40.3499 L 119.74812 40.3499 L 119.91019 40.3499 L 120.07225 40.3499 L 120.23431 40.3499 L 120.39638 40.3499 L 120.55843 40.3499 L 120.7205 40.3499 L 120.88257 40.3499 L 121.04462 40.3499 L 121.2067 40.3499 L 121.36874 40.3499 L 121.5308 40.3499 L 121.69287 40.3499 L 121.85492 40.3499 L 122.017 40.3499 L 122.17903 40.3499 L 122.34111 40.3499 L 122.50319 40.3499 L 122.66522 40.3499 L 122.8273 40.3499 L 122.98935 40.3499 L 123.15141 40.3499 L 123.31349 40.3499 L 123.47554 40.3499 L 123.6376 40.3499 L 123.79965 40.3499 L 123.96173 40.3499 L 124.1238 40.3499 L 124.28584 40.3499 L 124.44792 40.3499 L 124.60997 40.3499 L 124.77203 40.3499 L 124.93411 40.3499 L 125.09615 40.3499 L 125.25822 40.3499 L 125.42027 40.3499 L 125.58234 40.3499 L 125.74442 40.3499 L 125.90646 40.3499 L 126.06853 40.3499 L 126.23058 40.3499 L 126.39264 40.3499 L 126.55472 40.3499 L 126.71677 40.3499 L 126.87883 40.3499 L 127.0409 40.3499 L 127.20296 40.3499 L 127.36502 40.3499 L 127.52708 40.3499 L 127.68915 40.3499 L 127.85118 40.3499 L 128.01328 40.3499 L 128.17534 40.3499 L 128.33737 40.3499 L 128.49945 40.3499 L 128.6615 40.3499 L 128.82357 40.3499 L 128.98564 40.3499 L 129.14769 40.3499 L 129.30976 40.3499 L 129.4718 40.3499 L 129.63388 40.3499 L 129.79595 40.3499 L 129.958 40.3499 L 130.12007 40.3499 L 130.28212 40.3499 L 130.44419 40.3499 L 130.60625 40.3499 L 130.76831 40.3499 L 130.93038 40.3499 L 131.0924 40.3499 L 131.2545 40.3499 L 131.41657 40.3499 L 131.5786 40.3499 L 131.74068 40.3499 L 131.90273 40.3499 L 132.06479 40.3499 L 132.22687 40.3499 L 132.38892 40.3499 L 132.55098 40.3499 L 132.71305 40.3499 L 132.8751 40.3499 L 133.03717 40.3499 L 133.19922 40.3499 L 133.3613 40.3499 L 133.52335 40.3499 L 133.68541 40.3499 L 133.84749 40.3499 L 134.00954 40.3499 L 134.1716 40.3499 L 134.33365 40.3499 L 134.49573 40.3499 L 134.65779 40.3499 L 134.81984 40.3499 L 134.9819 40.3499 L 135.14395 40.3499 L 135.30602 40.3499 L 135.4681 40.3499 L 135.63014 40.3499 L 135.7922 40.3499 L 135.95427 40.3499 L 136.11634 40.3499 L 136.2784 40.3499 L 136.44046 40.3499 L 136.60253 40.3499 L 136.76456 40.3499 L 136.92665 40.3499 L 137.08872 40.3499 L 137.25075 40.3499 L 137.41283 40.3499 L 137.57488 40.3499 L 137.73694 40.3499 L 137.89902 40.3499 L 138.06107 40.3499 L 138.22313 40.3499 L 138.38518 40.3499 L 138.54726 40.3499 L 138.70932 40.3499 L 138.87137 40.3499 L 139.03345 40.3499 L 139.1955 40.3499 L 139.35756 40.3499 L 139.51963 40.3499 L 139.68169 40.3499 L 139.84375 40.3499 L 140.00579 40.3499 L 140.16788 40.3499 L 140.32994 40.3499 L 140.49198 40.3499 L 140.65407 40.3499 L 140.8161 40.3499 L 140.97817 40.3499 L 141.14025 40.3499 L 141.30229 40.3499 L 141.46436 40.3499 L 141.62642 40.3499 L 141.78849 40.3499 L 141.95055 40.3499 L 142.1126 40.3499 L 142.27468 40.3499 L 142.43672 40.3499 L 142.59879 40.3499 L 142.76087 40.3499 L 142.92292 40.3499 L 143.08498 40.3499 L 143.24703 40.3499 L 143.4091 40.3499 L 143.57117 40.3499 L 143.73322 40.3499 L 143.8953 40.3499 L 144.05733 40.3499 L 144.21939 40.3499 L 144.38147 40.3499 L 144.54352 40.3499 L 144.70558 40.3499 L 144.86765 40.3499 L 145.02971 40.3499 L 145.19178 40.3499 L 145.35384 40.3499 L 145.5159 40.3499 L 145.67795 40.3499 L 145.84003 40.3499 L 146.00209 40.3499 L 146.16413 40.3499 L 146.3262 40.3499 L 146.48825 40.3499 L 146.65032 40.3499 L 146.8124 40.3499 L 146.97444 40.3499 L 147.1365 40.3499 L 147.29856 40.3499 L 147.46063 40.3499 L 147.6227 40.3499 L 147.78475 40.3499 L 147.94683 40.3499 L 148.10887 40.3499 L 148.27094 40.3499 L 148.433 40.3499 L 148.59506 40.3499 L 148.75713 40.3499 L 148.91918 40.3499 L 149.08126 40.3499 L 149.24332 40.3499 L 149.40535 40.3499 L 149.56745 40.3499 L 149.72948 40.3499 L 149.89154 40.3499 L 150.05364 40.3499 L 150.21567 40.3499 L 150.37773 40.3499 L 150.5398 40.3499 L 150.70186 40.3499 L 150.86392 40.3499 L 151.02597 40.3499 L 151.18805 40.3499 L 151.3501 40.3499 L 151.51216 40.3499 L 151.67424 40.3499 L 151.83629 40.3499 L 151.99835 40.3499 L 152.1604 40.3499 L 152.32248 40.3499 L 152.48455 40.3499 L 152.64659 40.3499 L 152.80867 40.3499 L 152.9707 40.3499 L 153.13277 40.3499 L 153.29486 40.3499 L 153.4569 40.3499 L 153.61896 40.3499 L 153.78102 40.3499 L 153.94309 40.3499 L 154.10515 40.3499 L 154.26721 40.3499 L 154.42928 40.3499 L 154.59133 40.3499 L 154.7534 40.3499 L 154.91547 40.3499 L 155.07752 40.3499 L 155.23958 40.3499 L 155.40163 40.3499 L 155.5637 40.3499 L 155.72577 40.3499 L 155.88782 40.3499 L 156.04988 40.3499 L 156.21193 40.3499 L 156.37401 40.3499 L 156.53607 40.3499 L 156.69812 40.3499 L 156.8602 40.3499 L 157.02225 40.3499 L 157.18431 40.3499 L 157.34639 40.3499 L 157.50844 40.3499 L 157.6705 40.3499 L 157.83255 40.3499 L 157.99463 40.3499 L 158.1567 40.3499 L 158.31874 40.3499 L 158.48082 40.3499 L 158.64286 40.3499 L 158.80493 40.3499 L 158.96701 40.3499 L 159.12905 40.3499 L 159.2911 40.3499 L 159.45317 40.3499 L 159.61524 40.3499 L 159.7773 40.3499 L 159.93935 40.3499 L 160.10143 40.3499 L 160.26348 40.3499 L 160.42554 40.3499 L 160.58762 40.3499 L 160.74967 40.3499 L 160.91173 40.3499 L 161.07378 40.3499 L 161.23586 40.3499 L 161.39792 40.3499 L 161.55997 40.3499 L 161.72205 40.3499 L 161.88408 40.3499 L 162.04615 40.3499 L 162.20824 40.3499 L 162.37027 40.3499 L 162.53234 40.3499 L 162.6944 40.3499 L 162.85646 40.3499 L 163.01853 40.3499 L 163.18059 40.3499 L 163.34265 40.3499 L 163.5047 40.3499 L 163.66678 40.3499 L 163.82884 40.3499 L 163.99089 40.3499 L 164.15296 40.3499 L 164.315 40.3499 L 164.47708 40.3499 L 164.63915 40.3499 L 164.8012 40.3499 L 164.96327 40.3499 L 165.1253 40.3499 L 165.28739 40.3499 L 165.44945 40.3499 L 165.6115 40.3499 L 165.77358 40.3499 L 165.93563 40.3499 L 166.09769 40.3499 L 166.25977 40.3499 L 166.42182 40.3499 L 166.58388 40.3499 L 166.74593 40.3499 L 166.908 40.3499 L 167.07007 40.3499 L 167.23212 40.3499 L 167.3942 40.3499 L 167.55623 40.3499 L 167.7183 40.3499 L 167.88039 40.3499 L 168.04242 40.3499 L 168.2045 40.3499 L 168.36655 40.3499 L 168.52861 40.3499 L 168.69068 40.3499 L 168.85272 40.3499 L 169.0148 40.3499 L 169.17685 40.3499 L 169.33892 40.3499 L 169.50099 40.3499 L 169.66304 40.3499 L 169.8251 40.3499 L 169.98717 40.3499 L 170.14923 40.3499 L 170.3113 40.3499 L 170.47335 40.3499 L 170.63542 40.3499 L 170.79746 40.3499 L 170.95952 40.3499 L 171.12162 40.3499 L 171.28365 40.3499 L 171.44571 40.3499 L 171.60778 40.3499 L 171.76984 40.3499 L 171.9319 40.3499 L 172.09397 40.3499 L 172.25603 40.3499 L 172.41808 40.3499 L 172.58016 40.3499 L 172.74222 40.3499 L 172.90427 40.3499 L 173.06635 40.3499 L 173.2284 40.3499 L 173.39046 40.3499 L 173.55252 40.3499 L 173.71457 40.3499 L 173.87665 40.3499 L 174.03868 40.3499 L 174.20076 40.3499 L 174.36284 40.3499 L 174.52487 40.3499 L 174.68695 40.3499 L 174.849 40.3499 L 175.01107 40.3499 L 175.17314 40.3499 L 175.33519 40.3499 L 175.49726 40.3499 L 175.6593 40.3499 L 175.82138 40.3499 L 175.98345 40.3499 L 176.1455 40.3499 L 176.30757 40.3499 L 176.4696 40.3499 L 176.63169 40.3499 L 176.79376 40.3499 L 176.9558 40.3499 L 177.11788 40.3499 L 177.27993 40.3499 L 177.44199 40.3499 L 177.60407 40.3499 L 177.7661 40.3499 L 177.92818 40.3499 L 178.09023 40.3499 "/>
<symbol id="font_2_1">
<path d="M .26500003 0 L .26500003 .058 L 0 .058 L 0 0 L .26500003 0 Z "/>
</symbol>
<symbol id="font_2_2">
<path d="M .07700001 .07700001 L .18300002 .18 C .33900003 .31800003 .39900003 .372 .39900003 .47200004 C .39900003 .586 .30900003 .666 .18700002 .666 C .074 .666 0 .574 0 .485 C 0 .42900003 .05 .42900003 .053000008 .42900003 C .07000001 .42900003 .105000007 .441 .105000007 .48200003 C .105000007 .508 .08700001 .53400006 .052000006 .53400006 C .044000005 .53400006 .042000008 .53400006 .039 .53300008 C .062000004 .59800007 .11600001 .63500007 .17400001 .63500007 C .26500003 .63500007 .308 .554 .308 .47200004 C .308 .39200003 .25800003 .31300003 .20300003 .25100003 L .011000004 .037 C 0 .026 0 .024 0 0 L .37100003 0 L .39900003 .17400001 L .374 .17400001 C .36900003 .14400001 .36200003 .1 .352 .085 C .345 .07700001 .279 .07700001 .257 .07700001 L .07700001 .07700001 Z "/>
</symbol>
<use xlink:href="#font_2_1" transform="matrix(27.673888,0,0,-27.673888,178.99608,391.54167)"/>
<use xlink:href="#font_2_2" transform="matrix(27.673888,0,0,-27.673888,189.29076,396.71669)"/>
<use xlink:href="#font_2_2" transform="matrix(27.673888,0,0,-27.673888,364.57533,396.71669)"/>
</g>
<symbol id="font_3_1">
<path d="M .305 .31300003 C .311 .33900003 .334 .43100003 .404 .43100003 C .409 .43100003 .433 .43100003 .454 .418 C .426 .41300003 .40600003 .388 .40600003 .36400003 C .40600003 .34800003 .417 .32900004 .444 .32900004 C .46600003 .32900004 .498 .34700004 .498 .38700003 C .498 .43900005 .439 .45300005 .405 .45300005 C .347 .45300005 .312 .40000005 .3 .37700004 C .275 .44300003 .221 .45300005 .19200002 .45300005 C .08800001 .45300005 .031000002 .32400004 .031000002 .29900003 C .031000002 .28900004 .041 .28900004 .043000007 .28900004 C .051000008 .28900004 .054000006 .291 .056 .3 C .09 .40600003 .156 .43100003 .19000001 .43100003 C .209 .43100003 .244 .42200003 .244 .36400003 C .244 .33300004 .22700002 .26600004 .19000001 .126 C .17400001 .064 .13900002 .022000002 .095000009 .022000002 C .08900001 .022000002 .06600001 .022000002 .045 .035 C .07000001 .040000004 .09200001 .061 .09200001 .089 C .09200001 .116000007 .07000001 .124000009 .055000009 .124000009 C .025 .124000009 0 .098000008 0 .06600001 C 0 .020000002 .050000006 0 .094000007 0 C .16000001 0 .19600001 .07000001 .19900002 .076000008 C .21100001 .039 .24700003 0 .307 0 C .41 0 .467 .12900001 .467 .15400002 C .467 .16400002 .458 .16400002 .455 .16400002 C .446 .16400002 .444 .16000001 .442 .15300001 C .409 .046 .341 .022000002 .30900003 .022000002 C .27 .022000002 .254 .054 .254 .08800001 C .254 .11000001 .26 .13200002 .271 .17600002 L .305 .31300003 Z "/>
</symbol>
<use xlink:href="#font_3_1" transform="matrix(27.673888,0,0,-27.673888,560.658,394.58775)"/>
<symbol id="font_3_2">
<path d="M .45700003 .586 C .461 .6 .461 .602 .461 .609 C .461 .62700006 .447 .63600006 .432 .63600006 C .42200003 .63600006 .40600003 .63 .397 .615 C .395 .61 .387 .579 .38300003 .561 C .37600003 .535 .36900003 .508 .363 .48100005 L .318 .301 C .314 .286 .271 .21600002 .20500002 .21600002 C .15400002 .21600002 .143 .26000003 .143 .29700003 C .143 .34300003 .16000001 .40500004 .194 .49300004 C .21000001 .53400006 .21400002 .545 .21400002 .56500008 C .21400002 .61 .18200001 .6470001 .13200002 .6470001 C .037 .6470001 0 .50200006 0 .49300004 C 0 .48300005 .01 .48300005 .012 .48300005 C .022000002 .48300005 .023 .485 .028000003 .50100007 C .055000009 .595 .095000009 .625 .12900001 .625 C .13700001 .625 .15400002 .625 .15400002 .59300008 C .15400002 .568 .14400001 .54200008 .13700001 .523 C .097 .41700004 .079 .36 .079 .31300003 C .079 .224 .142 .194 .201 .194 C .24000003 .194 .274 .21100001 .30200003 .23900002 C .289 .187 .277 .13800001 .237 .08500001 C .21100001 .051 .17300001 .022 .127 .022 C .113000009 .022 .068 .025000006 .051000008 .06400001 C .067 .06400001 .080000009 .06400001 .094000007 .076000008 C .104 .08500001 .11400001 .098000008 .11400001 .117000009 C .11400001 .148 .087000008 .15200001 .07700001 .15200001 C .054000006 .15200001 .021 .136 .021 .087000008 C .021 .037 .065000008 0 .127 0 C .23 0 .333 .091000009 .361 .20400001 L .45700003 .586 Z "/>
</symbol>
<use xlink:href="#font_3_2" transform="matrix(27.673888,0,0,-27.673888,256.6303,26.812064)"/>
</g>
</svg>
