<?xml version="1.0" encoding="UTF-8" standalone="no"?>
<!DOCTYPE svg PUBLIC "-//W3C//DTD SVG 1.1//EN" "http://www.w3.org/Graphics/SVG/1.1/DTD/svg11.dtd">
<svg xmlns="http://www.w3.org/2000/svg" xmlns:xlink="http://www.w3.org/1999/xlink" version="1.1" width="508.91667pt" height="368.66386pt" viewBox="0 0 508.91667 368.66386">
<g enable-background="new">
<path transform="matrix(2.7777777,0,0,-2.7777777,48.35,320.31388)" stroke-width=".79701" stroke-linecap="butt" stroke-miterlimit="10" stroke-linejoin="miter" fill="none" stroke="#000000" d="M -17.00801 0 L 150.4821 0 "/>
<path transform="matrix(2.7777777,0,0,-2.7777777,466.35585,320.31388)" d="M 2.59026 0 L -1.55415 2.0722 L 0 0 L -1.55415 -2.0722 "/>
<symbol id="font_0_2">
<path d="M .305 .31300003 C .311 .33900003 .334 .43100003 .404 .43100003 C .409 .43100003 .433 .43100003 .454 .418 C .426 .41300003 .40600003 .388 .40600003 .36400003 C .40600003 .34800003 .417 .32900004 .444 .32900004 C .46600003 .32900004 .498 .34700004 .498 .38700003 C .498 .43900005 .439 .45300005 .405 .45300005 C .347 .45300005 .312 .40000005 .3 .37700004 C .275 .44300003 .221 .45300005 .19200002 .45300005 C .08800001 .45300005 .031000002 .32400004 .031000002 .29900003 C .031000002 .28900004 .041 .28900004 .043000007 .28900004 C .051000008 .28900004 .054000006 .291 .056 .3 C .09 .40600003 .156 .43100003 .19000001 .43100003 C .209 .43100003 .244 .42200003 .244 .36400003 C .244 .33300004 .22700002 .26600004 .19000001 .126 C .17400001 .064 .13900002 .022000002 .095000009 .022000002 C .08900001 .022000002 .06600001 .022000002 .045 .035 C .07000001 .040000004 .09200001 .061 .09200001 .089 C .09200001 .116000007 .07000001 .124000009 .055000009 .124000009 C .025 .124000009 0 .098000008 0 .06600001 C 0 .020000002 .050000006 0 .094000007 0 C .16000001 0 .19600001 .07000001 .19900002 .076000008 C .21100001 .039 .24700003 0 .307 0 C .41 0 .467 .12900001 .467 .15400002 C .467 .16400002 .458 .16400002 .455 .16400002 C .446 .16400002 .444 .16000001 .442 .15300001 C .409 .046 .341 .022000002 .30900003 .022000002 C .27 .022000002 .254 .054 .254 .08800001 C .254 .11000001 .26 .13200002 .271 .17600002 L .305 .31300003 Z "/>
</symbol>
<use xlink:href="#font_0_2" transform="matrix(27.673888,0,0,-27.673888,484.6803,326.57383)"/>
<path transform="matrix(2.7777777,0,0,-2.7777777,48.35,320.31388)" stroke-width=".79701" stroke-linecap="butt" stroke-miterlimit="10" stroke-linejoin="miter" fill="none" stroke="#000000" d="M 0 -17.00801 L 0 99.45798 "/>
<path transform="matrix(0,-2.7777777,-2.7777777,-0,48.35,44.041719)" d="M 2.59026 0 L -1.55415 2.0722 L 0 0 L -1.55415 -2.0722 "/>
<symbol id="font_0_3">
<path d="M .45700003 .586 C .461 .6 .461 .602 .461 .609 C .461 .62700006 .447 .63600006 .432 .63600006 C .42200003 .63600006 .40600003 .63 .397 .615 C .395 .61 .387 .579 .38300003 .561 C .37600003 .535 .36900003 .508 .363 .48100005 L .318 .301 C .314 .286 .271 .21600002 .20500002 .21600002 C .15400002 .21600002 .143 .26000003 .143 .29700003 C .143 .34300003 .16000001 .40500004 .194 .49300004 C .21000001 .53400006 .21400002 .545 .21400002 .56500008 C .21400002 .61 .18200001 .6470001 .13200002 .6470001 C .037 .6470001 0 .50200006 0 .49300004 C 0 .48300005 .01 .48300005 .012 .48300005 C .022000002 .48300005 .023 .485 .028000003 .50100007 C .055000009 .595 .095000009 .625 .12900001 .625 C .13700001 .625 .15400002 .625 .15400002 .59300008 C .15400002 .568 .14400001 .54200008 .13700001 .523 C .097 .41700004 .079 .36 .079 .31300003 C .079 .224 .142 .194 .201 .194 C .24000003 .194 .274 .21100001 .30200003 .23900002 C .289 .187 .277 .13800001 .237 .08500001 C .21100001 .051 .17300001 .022 .127 .022 C .113000009 .022 .068 .025000006 .051000008 .06400001 C .067 .06400001 .080000009 .06400001 .094000007 .076000008 C .104 .08500001 .11400001 .098000008 .11400001 .117000009 C .11400001 .148 .087000008 .15200001 .07700001 .15200001 C .054000006 .15200001 .021 .136 .021 .087000008 C .021 .037 .065000008 0 .127 0 C .23 0 .333 .091000009 .361 .20400001 L .45700003 .586 Z "/>
</symbol>
<use xlink:href="#font_0_3" transform="matrix(27.673888,0,0,-27.673888,41.871988,26.812003)"/>
<path transform="matrix(2.7777777,0,0,-2.7777777,48.35,320.31388)" stroke-width=".79701" stroke-linecap="butt" stroke-miterlimit="10" stroke-linejoin="miter" fill="none" stroke="#00aeef" d="M 27.21295 91.82721 C 27.21295 91.82721 29.67041 91.37865 30.61424 90.95262 C 31.55809 90.52658 33.0717 89.53677 34.01555 88.75655 C 34.95938 87.97633 36.473 86.43265 37.41684 85.32928 C 38.36069 84.22595 39.8743 82.18683 40.81815 80.80428 C 41.76198 79.42169 43.2756 76.97127 44.21945 75.36469 C 45.16327 73.75807 46.67688 70.99168 47.62073 69.2249 C 48.56456 67.45815 50.07819 64.48718 51.02203 62.63097 C 51.96585 60.77475 53.47949 57.71825 54.42332 55.84654 C 55.36716 53.97482 56.88078 50.95384 57.82463 49.14099 C 58.76846 47.32816 60.28209 44.46237 61.22594 42.78065 C 62.16975 41.09892 63.6834 38.50368 64.62723 37.0203 C 65.57106 35.5369 67.08467 33.31522 68.02852 32.08937 C 68.97234 30.86353 70.48598 29.10481 71.4298 28.18512 C 72.37364 27.26541 73.88727 26.03743 74.8311 25.46066 C 75.77495 24.88388 77.28857 24.2388 78.2324 24.02809 C 79.17624 23.81737 80.68988 23.77832 81.6337 23.94193 C 82.57755 24.10555 84.09116 24.67604 85.03499 25.20737 C 85.97882 25.7387 87.49246 26.8935 88.43628 27.77145 C 89.38013 28.6494 90.89375 30.3454 91.83759 31.53502 C 92.78143 32.72466 94.29506 34.89174 95.23889 36.34552 C 96.18272 37.79932 97.69637 40.35287 98.64018 42.01297 C 99.58403 43.67308 101.09764 46.51044 102.04149 48.31055 C 102.98532 50.11066 104.49893 53.11864 105.44276 54.98701 C 106.38661 56.8554 108.84407 61.77663 108.84407 61.77663 "/>
<use xlink:href="#font_0_3" transform="matrix(27.673888,0,0,-27.673888,185.46642,101.417568)"/>
<symbol id="font_1_3">
<path d="M .63100007 .19400002 C .646 .19400002 .665 .19400002 .665 .214 C .665 .23400001 .646 .23400001 .632 .23400001 L .033 .23400001 C .019000002 .23400001 0 .23400001 0 .214 C 0 .19400002 .019000002 .19400002 .034 .19400002 L .63100007 .19400002 M .632 0 C .646 0 .665 0 .665 .02000001 C .665 .040000008 .646 .040000008 .63100007 .040000008 L .034 .040000008 C .019000002 .040000008 0 .040000008 0 .02000001 C 0 0 .019000002 0 .033 0 L .632 0 Z "/>
</symbol>
<use xlink:href="#font_1_3" transform="matrix(27.673888,0,0,-27.673888,208.46086,92.06379)"/>
<symbol id="font_0_1">
<path d="M .314 .605 L .4 .605 C .42000003 .605 .43 .605 .43 .625 C .43 .63600006 .42000003 .63600006 .40300004 .63600006 L .32000003 .63600006 L .34100003 .75 C .34500004 .771 .35900004 .842 .365 .8540001 C .374 .873 .39100004 .888 .41200004 .888 C .416 .888 .44200004 .888 .461 .87 C .41700004 .86600008 .407 .8310001 .407 .816 C .407 .793 .425 .781 .444 .781 C .47 .781 .49900005 .8030001 .49900005 .8410001 C .49900005 .8870001 .45300005 .9100001 .41200004 .9100001 C .37800003 .9100001 .31500004 .8920001 .28500004 .793 C .279 .7720001 .27600003 .7620001 .252 .63600006 L .18300002 .63600006 C .164 .63600006 .15300001 .63600006 .15300001 .61700007 C .15300001 .605 .162 .605 .18100001 .605 L .24700001 .605 L .172 .21000001 C .15400002 .113000009 .13700001 .022 .08500001 .022 C .081 .022 .056 .022 .037 .040000008 C .083000008 .043000014 .09200001 .07900001 .09200001 .094000007 C .09200001 .117000009 .074 .12900001 .055 .12900001 C .029 .12900001 0 .10700001 0 .069000009 C 0 .024000004 .044 0 .08500001 0 C .14 0 .18 .059 .19800002 .09700001 C .23000002 .16000001 .25300003 .28100003 .254 .28800003 L .314 .605 Z "/>
</symbol>
<use xlink:href="#font_0_1" transform="matrix(27.673888,0,0,-27.673888,237.58895,101.417568)"/>
<symbol id="font_1_1">
<path d="M .23200003 .00999999 C .23200003 .012999982 .23200003 .014999986 .215 .03199999 C .09 .15799999 .058 .347 .058 .5 C .058 .674 .096 .84800007 .21900001 .97300007 C .23200003 .985 .23200003 .98700007 .23200003 .99 C .23200003 .99700006 .22800002 1 .222 1 C .21200001 1 .12200001 .93200007 .06299999 .805 C .012000002 .69500008 0 .584 0 .5 C 0 .422 .011 .301 .066 .188 C .126 .065 .21200001 0 .222 0 C .22800002 0 .23200003 .0029999912 .23200003 .00999999 Z "/>
</symbol>
<use xlink:href="#font_1_1" transform="matrix(27.673888,0,0,-27.673888,255.38971,102.66289)"/>
<use xlink:href="#font_0_2" transform="matrix(27.673888,0,0,-27.673888,264.21369,96.04883)"/>
<symbol id="font_1_2">
<path d="M .232 .5 C .232 .578 .22100002 .699 .16600001 .81200006 C .106 .93500009 .020000004 1 .009999998 1 C .0040000008 1 0 .99600008 0 .99 C 0 .98700007 0 .985 .019000002 .967 C .117000009 .86800006 .174 .709 .174 .5 C .174 .329 .137 .153 .012999997 .026999996 C 0 .014999986 0 .012999982 0 .00999999 C 0 .003999993 .0040000008 0 .009999998 0 C .020000004 0 .11000001 .06799999 .169 .195 C .22 .305 .232 .416 .232 .5 Z "/>
</symbol>
<use xlink:href="#font_1_2" transform="matrix(27.673888,0,0,-27.673888,280.8052,102.66289)"/>
<path transform="matrix(2.7777777,0,0,-2.7777777,48.35,320.31388)" stroke-width=".3985" stroke-linecap="butt" stroke-miterlimit="10" stroke-linejoin="miter" fill="none" stroke="#929292" d="M 27.21295 0 L 27.21295 91.82721 "/>
<path transform="matrix(2.7777777,0,0,-2.7777777,48.35,320.31388)" d="M 29.00624 91.82721 C 29.00624 92.81761 28.20335 93.6205 27.21295 93.6205 C 26.22253 93.6205 25.41966 92.81761 25.41966 91.82721 C 25.41966 90.83679 26.22253 90.03392 27.21295 90.03392 C 28.20335 90.03392 29.00624 90.83679 29.00624 91.82721 Z M 27.21295 91.82721 " fill="#929292"/>
<path transform="matrix(2.7777777,0,0,-2.7777777,48.35,320.31388)" stroke-width=".3985" stroke-linecap="butt" stroke-miterlimit="10" stroke-linejoin="miter" fill="none" stroke="#929292" d="M 108.85136 0 L 108.85136 61.79063 "/>
<path transform="matrix(2.7777777,0,0,-2.7777777,48.35,320.31388)" d="M 110.64464 61.79063 C 110.64464 62.78105 109.84177 63.58392 108.85136 63.58392 C 107.86095 63.58392 107.05807 62.78105 107.05807 61.79063 C 107.05807 60.80023 107.86095 59.99734 108.85136 59.99734 C 109.84177 59.99734 110.64464 60.80023 110.64464 61.79063 Z M 108.85136 61.79063 " fill="#929292"/>
</g>
</svg>
