<?xml version="1.0" encoding="UTF-8" standalone="no"?>
<!DOCTYPE svg PUBLIC "-//W3C//DTD SVG 1.1//EN" "http://www.w3.org/Graphics/SVG/1.1/DTD/svg11.dtd">
<svg xmlns="http://www.w3.org/2000/svg" xmlns:xlink="http://www.w3.org/1999/xlink" version="1.1" width="989.4778pt" height="981.73336pt" viewBox="0 0 989.4778 981.73336">
<g enable-background="new">
<path transform="matrix(2.7777777,0,0,-2.7777777,482.21943,508.7389)" stroke-width=".3985" stroke-linecap="butt" stroke-miterlimit="10" stroke-linejoin="miter" fill="none" stroke="#000000" d="M -170.08086 0 L 169.62258 0 "/>
<path transform="matrix(2.7777777,0,0,-2.7777777,953.3932,508.7389)" stroke-width=".31879" stroke-linecap="round" stroke-linejoin="round" fill="none" stroke="#000000" d="M -1.19551 1.59401 C -1.09587 .99626 0 .09961 .29886 0 C 0 -.09961 -1.09587 -.99626 -1.19551 -1.59401 "/>
<symbol id="font_0_3">
<path d="M .305 .31300003 C .311 .33900003 .334 .43100003 .404 .43100003 C .409 .43100003 .433 .43100003 .454 .418 C .426 .41300003 .40600003 .388 .40600003 .36400003 C .40600003 .34800003 .417 .32900004 .444 .32900004 C .46600003 .32900004 .498 .34700004 .498 .38700003 C .498 .43900005 .439 .45300005 .405 .45300005 C .347 .45300005 .312 .40000005 .3 .37700004 C .275 .44300003 .221 .45300005 .19200002 .45300005 C .08800001 .45300005 .031000002 .32400004 .031000002 .29900003 C .031000002 .28900004 .041 .28900004 .043000007 .28900004 C .051000008 .28900004 .054000006 .291 .056 .3 C .09 .40600003 .156 .43100003 .19000001 .43100003 C .209 .43100003 .244 .42200003 .244 .36400003 C .244 .33300004 .22700002 .26600004 .19000001 .126 C .17400001 .064 .13900002 .022000002 .095000009 .022000002 C .08900001 .022000002 .06600001 .022000002 .045 .035 C .07000001 .040000004 .09200001 .061 .09200001 .089 C .09200001 .116000007 .07000001 .124000009 .055000009 .124000009 C .025 .124000009 0 .098000008 0 .06600001 C 0 .020000002 .050000006 0 .094000007 0 C .16000001 0 .19600001 .07000001 .19900002 .076000008 C .21100001 .039 .24700003 0 .307 0 C .41 0 .467 .12900001 .467 .15400002 C .467 .16400002 .458 .16400002 .455 .16400002 C .446 .16400002 .444 .16000001 .442 .15300001 C .409 .046 .341 .022000002 .30900003 .022000002 C .27 .022000002 .254 .054 .254 .08800001 C .254 .11000001 .26 .13200002 .271 .17600002 L .305 .31300003 Z "/>
</symbol>
<use xlink:href="#font_0_3" transform="matrix(27.673888,0,0,-27.673888,965.23867,515.00167)"/>
<path transform="matrix(2.7777777,0,0,-2.7777777,482.21943,508.7389)" stroke-width=".3985" stroke-linecap="butt" stroke-miterlimit="10" stroke-linejoin="miter" fill="none" stroke="#000000" d="M 0 -170.08086 L 0 169.62258 "/>
<path transform="matrix(0,-2.7777777,-2.7777777,-0,482.21943,37.5651)" stroke-width=".31879" stroke-linecap="round" stroke-linejoin="round" fill="none" stroke="#000000" d="M -1.19551 1.59401 C -1.09587 .99626 0 .09961 .29886 0 C 0 -.09961 -1.09587 -.99626 -1.19551 -1.59401 "/>
<symbol id="font_0_4">
<path d="M .45700003 .586 C .461 .6 .461 .602 .461 .609 C .461 .62700006 .447 .63600006 .432 .63600006 C .42200003 .63600006 .40600003 .63 .397 .615 C .395 .61 .387 .579 .38300003 .561 C .37600003 .535 .36900003 .508 .363 .48100005 L .318 .301 C .314 .286 .271 .21600002 .20500002 .21600002 C .15400002 .21600002 .143 .26000003 .143 .29700003 C .143 .34300003 .16000001 .40500004 .194 .49300004 C .21000001 .53400006 .21400002 .545 .21400002 .56500008 C .21400002 .61 .18200001 .6470001 .13200002 .6470001 C .037 .6470001 0 .50200006 0 .49300004 C 0 .48300005 .01 .48300005 .012 .48300005 C .022000002 .48300005 .023 .485 .028000003 .50100007 C .055000009 .595 .095000009 .625 .12900001 .625 C .13700001 .625 .15400002 .625 .15400002 .59300008 C .15400002 .568 .14400001 .54200008 .13700001 .523 C .097 .41700004 .079 .36 .079 .31300003 C .079 .224 .142 .194 .201 .194 C .24000003 .194 .274 .21100001 .30200003 .23900002 C .289 .187 .277 .13800001 .237 .08500001 C .21100001 .051 .17300001 .022 .127 .022 C .113000009 .022 .068 .025000006 .051000008 .06400001 C .067 .06400001 .080000009 .06400001 .094000007 .076000008 C .104 .08500001 .11400001 .098000008 .11400001 .117000009 C .11400001 .148 .087000008 .15200001 .07700001 .15200001 C .054000006 .15200001 .021 .136 .021 .087000008 C .021 .037 .065000008 0 .127 0 C .23 0 .333 .091000009 .361 .20400001 L .45700003 .586 Z "/>
</symbol>
<use xlink:href="#font_0_4" transform="matrix(27.673888,0,0,-27.673888,475.74143,26.812064)"/>
<path transform="matrix(2.7777777,0,0,-2.7777777,482.21943,508.7389)" stroke-width=".3985" stroke-linecap="butt" stroke-miterlimit="10" stroke-linejoin="miter" fill="none" stroke="#cbcbcb" d="M 28.3468 0 C 28.3468 15.6557 15.6557 28.3468 0 28.3468 C -15.6557 28.3468 -28.3468 15.6557 -28.3468 0 C -28.3468 -15.6557 -15.6557 -28.3468 0 -28.3468 C 15.6557 -28.3468 28.3468 -15.6557 28.3468 0 Z M 0 0 "/>
<path transform="matrix(2.7777777,0,0,-2.7777777,482.21943,508.7389)" stroke-width=".3985" stroke-linecap="butt" stroke-miterlimit="10" stroke-linejoin="miter" fill="none" stroke="#cbcbcb" d="M 56.69362 0 C 56.69362 31.31142 31.31142 56.69362 0 56.69362 C -31.31142 56.69362 -56.69362 31.31142 -56.69362 0 C -56.69362 -31.31142 -31.31142 -56.69362 0 -56.69362 C 31.31142 -56.69362 56.69362 -31.31142 56.69362 0 Z M 0 0 "/>
<path transform="matrix(2.7777777,0,0,-2.7777777,482.21943,508.7389)" stroke-width=".3985" stroke-linecap="butt" stroke-miterlimit="10" stroke-linejoin="miter" fill="none" stroke="#cbcbcb" d="M 85.04042 0 C 85.04042 46.96713 46.96713 85.04042 0 85.04042 C -46.96713 85.04042 -85.04042 46.96713 -85.04042 0 C -85.04042 -46.96713 -46.96713 -85.04042 0 -85.04042 C 46.96713 -85.04042 85.04042 -46.96713 85.04042 0 Z M 0 0 "/>
<path transform="matrix(2.7777777,0,0,-2.7777777,482.21943,508.7389)" stroke-width=".3985" stroke-linecap="butt" stroke-miterlimit="10" stroke-linejoin="miter" fill="none" stroke="#cbcbcb" d="M 113.38724 0 C 113.38724 62.62283 62.62283 113.38724 0 113.38724 C -62.62283 113.38724 -113.38724 62.62283 -113.38724 0 C -113.38724 -62.62283 -62.62283 -113.38724 0 -113.38724 C 62.62283 -113.38724 113.38724 -62.62283 113.38724 0 Z M 0 0 "/>
<path transform="matrix(2.7777777,0,0,-2.7777777,482.21943,508.7389)" stroke-width=".3985" stroke-linecap="butt" stroke-miterlimit="10" stroke-linejoin="miter" fill="none" stroke="#cbcbcb" d="M 141.73404 0 C 141.73404 78.27855 78.27855 141.73404 0 141.73404 C -78.27855 141.73404 -141.73404 78.27855 -141.73404 0 C -141.73404 -78.27855 -78.27855 -141.73404 0 -141.73404 C 78.27855 -141.73404 141.73404 -78.27855 141.73404 0 Z M 0 0 "/>
<path transform="matrix(2.7777777,0,0,-2.7777777,482.21943,508.7389)" stroke-width=".3985" stroke-linecap="butt" stroke-miterlimit="10" stroke-linejoin="miter" fill="none" stroke="#cbcbcb" d="M 0 0 L 155.90744 0 "/>
<path transform="matrix(2.7777777,0,0,-2.7777777,482.21943,508.7389)" stroke-width=".3985" stroke-linecap="butt" stroke-miterlimit="10" stroke-linejoin="miter" fill="none" stroke="#cbcbcb" d="M 0 0 L 135.02017 77.95372 "/>
<path transform="matrix(2.7777777,0,0,-2.7777777,482.21943,508.7389)" stroke-width=".3985" stroke-linecap="butt" stroke-miterlimit="10" stroke-linejoin="miter" fill="none" stroke="#cbcbcb" d="M 0 0 L 77.95372 135.02017 "/>
<path transform="matrix(2.7777777,0,0,-2.7777777,482.21943,508.7389)" stroke-width=".3985" stroke-linecap="butt" stroke-miterlimit="10" stroke-linejoin="miter" fill="none" stroke="#cbcbcb" d="M 0 0 L 0 155.90744 "/>
<path transform="matrix(2.7777777,0,0,-2.7777777,482.21943,508.7389)" stroke-width=".3985" stroke-linecap="butt" stroke-miterlimit="10" stroke-linejoin="miter" fill="none" stroke="#cbcbcb" d="M 0 0 L -77.95372 135.02017 "/>
<path transform="matrix(2.7777777,0,0,-2.7777777,482.21943,508.7389)" stroke-width=".3985" stroke-linecap="butt" stroke-miterlimit="10" stroke-linejoin="miter" fill="none" stroke="#cbcbcb" d="M 0 0 L -135.02017 77.95372 "/>
<path transform="matrix(2.7777777,0,0,-2.7777777,482.21943,508.7389)" stroke-width=".3985" stroke-linecap="butt" stroke-miterlimit="10" stroke-linejoin="miter" fill="none" stroke="#cbcbcb" d="M 0 0 L -155.90744 0 "/>
<path transform="matrix(2.7777777,0,0,-2.7777777,482.21943,508.7389)" stroke-width=".3985" stroke-linecap="butt" stroke-miterlimit="10" stroke-linejoin="miter" fill="none" stroke="#cbcbcb" d="M 0 0 L -135.02017 -77.95372 "/>
<path transform="matrix(2.7777777,0,0,-2.7777777,482.21943,508.7389)" stroke-width=".3985" stroke-linecap="butt" stroke-miterlimit="10" stroke-linejoin="miter" fill="none" stroke="#cbcbcb" d="M 0 0 L -77.95372 -135.02017 "/>
<path transform="matrix(2.7777777,0,0,-2.7777777,482.21943,508.7389)" stroke-width=".3985" stroke-linecap="butt" stroke-miterlimit="10" stroke-linejoin="miter" fill="none" stroke="#cbcbcb" d="M 0 0 L 0 -155.90744 "/>
<path transform="matrix(2.7777777,0,0,-2.7777777,482.21943,508.7389)" stroke-width=".3985" stroke-linecap="butt" stroke-miterlimit="10" stroke-linejoin="miter" fill="none" stroke="#cbcbcb" d="M 0 0 L 77.95372 -135.02017 "/>
<path transform="matrix(2.7777777,0,0,-2.7777777,482.21943,508.7389)" stroke-width=".3985" stroke-linecap="butt" stroke-miterlimit="10" stroke-linejoin="miter" fill="none" stroke="#cbcbcb" d="M 0 0 L 135.02017 -77.95372 "/>
<path transform="matrix(2.7777777,0,0,-2.7777777,482.21943,508.7389)" stroke-width=".3985" stroke-linecap="butt" stroke-miterlimit="10" stroke-linejoin="miter" fill="none" stroke="#ff0000" d="M 0 0 L -70.867 122.74562 "/>
<path transform="matrix(2.7777777,0,0,-2.7777777,482.21943,508.7389)" d="M -67.87817 122.74562 C -67.87817 124.39632 -69.21631 125.73445 -70.867 125.73445 C -72.51772 125.73445 -73.85583 124.39632 -73.85583 122.74562 C -73.85583 121.09491 -72.51772 119.75679 -70.867 119.75679 C -69.21631 119.75679 -67.87817 121.09491 -67.87817 122.74562 Z M -70.867 122.74562 " fill="#ff0000"/>
<path transform="matrix(2.7777777,0,0,-2.7777777,482.21943,508.7389)" stroke-width=".3985" stroke-linecap="butt" stroke-miterlimit="10" stroke-linejoin="miter" fill="none" stroke="#ff0000" d="M -67.87817 122.74562 C -67.87817 124.39632 -69.21631 125.73445 -70.867 125.73445 C -72.51772 125.73445 -73.85583 124.39632 -73.85583 122.74562 C -73.85583 121.09491 -72.51772 119.75679 -70.867 119.75679 C -69.21631 119.75679 -67.87817 121.09491 -67.87817 122.74562 Z M -70.867 122.74562 "/>
<symbol id="font_0_2">
<path d="M .263 .316 L .43300004 .316 C .575 .316 .714 .42000003 .714 .532 C .714 .609 .648 .683 .517 .683 L .193 .683 C .17400001 .683 .163 .683 .163 .66400006 C .163 .652 .172 .652 .192 .652 C .205 .652 .223 .651 .235 .65000006 C .25100003 .648 .25700004 .64500007 .25700004 .634 C .25700004 .63000008 .256 .62700006 .25300003 .615 L .119 .078 C .109 .039 .10699999 .031000002 .028 .031000002 C .011 .031000002 0 .031000002 0 .012 C 0 0 .011999998 0 .015000001 0 C .043 0 .11400001 .003 .142 .003 C .163 .003 .185 .002 .206 .002 C .228 .002 .25000004 0 .27100004 0 C .27800004 0 .29100005 0 .29100005 .020000002 C .29100005 .031000002 .28200004 .031000002 .263 .031000002 C .226 .031000002 .198 .031000002 .198 .049000004 C .198 .055000005 .2 .060000004 .201 .066 L .263 .316 M .33500005 .614 C .344 .64900007 .34600003 .652 .38900004 .652 L .48500005 .652 C .568 .652 .621 .625 .621 .55600008 C .621 .517 .601 .43100003 .56200006 .395 C .512 .35000003 .45200003 .342 .40800003 .342 L .26700003 .342 L .33500005 .614 Z "/>
</symbol>
<use xlink:href="#font_0_2" transform="matrix(27.673888,0,0,-27.673888,153.19306,151.08887)" fill="#ff0000"/>
<symbol id="font_1_1">
<path d="M .23200003 .00999999 C .23200003 .012999982 .23200003 .014999986 .215 .03199999 C .09 .15799999 .058 .347 .058 .5 C .058 .674 .096 .84800007 .21900001 .97300007 C .23200003 .985 .23200003 .98700007 .23200003 .99 C .23200003 .99700006 .22800002 1 .222 1 C .21200001 1 .12200001 .93200007 .06299999 .805 C .012000002 .69500008 0 .584 0 .5 C 0 .422 .011 .301 .066 .188 C .126 .065 .21200001 0 .222 0 C .22800002 0 .23200003 .0029999912 .23200003 .00999999 Z "/>
</symbol>
<symbol id="font_1_7">
<path d="M .39900003 .223 C .39900003 .34200005 .317 .44200004 .209 .44200004 C .16100002 .44200004 .118000019 .42600004 .082 .39100004 L .082 .586 C .10200001 .58000007 .135 .573 .16700001 .573 C .29 .573 .36 .66400006 .36 .67700007 C .36 .683 .357 .688 .35 .688 C .349 .688 .347 .688 .342 .68500009 C .322 .67600008 .273 .656 .20600002 .656 C .16600001 .656 .120000008 .66300007 .073 .6840001 C .065 .68700006 .06300001 .68700006 .061000009 .68700006 C .051000004 .68700006 .051000004 .679 .051000004 .66300007 L .051000004 .36700005 C .051000004 .34900005 .051000004 .34100003 .065 .34100003 C .07200001 .34100003 .074 .34400005 .07800001 .35000003 C .08900002 .36600004 .12600002 .42000006 .207 .42000006 C .259 .42000006 .284 .37400005 .292 .35600005 C .308 .31900005 .31 .28000004 .31 .23 C .31 .19500001 .31 .135 .286 .093 C .262 .054000006 .22500001 .028 .17900002 .028 C .106000009 .028 .049000008 .08100001 .032 .14000002 C .035 .13900002 .038000008 .13800001 .049000008 .13800001 C .082 .13800001 .09900001 .163 .09900001 .187 C .09900001 .21100001 .082 .23600002 .049000008 .23600002 C .035 .23600002 0 .22900002 0 .18300002 C 0 .097 .069000009 0 .18100001 0 C .297 0 .39900003 .096 .39900003 .223 Z "/>
</symbol>
<use xlink:href="#font_1_1" transform="matrix(27.673888,0,0,-27.673888,176.43692,158.00734)" fill="#ff0000"/>
<use xlink:href="#font_1_7" transform="matrix(27.673888,0,0,-27.673888,185.84606,151.6977)" fill="#ff0000"/>
<symbol id="font_0_1">
<path d="M .117000009 .194 C .117000009 .26 .092 .29900003 .05300001 .29900003 C .020000004 .29900003 0 .274 0 .246 C 0 .21900001 .020000004 .193 .05300001 .193 C .065000008 .193 .078 .197 .08800001 .206 C .091 .208 .092 .209 .093 .209 C .094000007 .209 .095000009 .208 .095000009 .194 C .095000009 .12 .06000001 .060000004 .027000003 .026999996 C .016000003 .016000003 .016000003 .013999999 .016000003 .0109999929 C .016000003 .003999993 .021000006 0 .026 0 C .037 0 .117000009 .077 .117000009 .194 Z "/>
</symbol>
<use xlink:href="#font_0_1" transform="matrix(27.673888,0,0,-27.673888,200.67717,156.42993)" fill="#ff0000"/>
<symbol id="font_1_4">
<path d="M .205 .64000007 C .205 .66400006 .205 .666 .18200003 .666 C .120000008 .60200008 .032000007 .60200008 0 .60200008 L 0 .57100006 C .020000004 .57100006 .07900001 .57100006 .13100001 .597 L .13100001 .079 C .13100001 .043 .128 .031000002 .038000004 .031000002 L .0060000049 .031000002 L .0060000049 0 C .04100001 .003 .128 .003 .168 .003 C .20800002 .003 .29500003 .003 .33000005 0 L .33000005 .031000002 L .29800005 .031000002 C .20800002 .031000002 .205 .042000005 .205 .079 L .205 .64000007 Z "/>
</symbol>
<symbol id="font_1_5">
<path d="M .07700001 .07700001 L .18300002 .18 C .33900003 .31800003 .39900003 .372 .39900003 .47200004 C .39900003 .586 .30900003 .666 .18700002 .666 C .074 .666 0 .574 0 .485 C 0 .42900003 .05 .42900003 .053000008 .42900003 C .07000001 .42900003 .105000007 .441 .105000007 .48200003 C .105000007 .508 .08700001 .53400006 .052000006 .53400006 C .044000005 .53400006 .042000008 .53400006 .039 .53300008 C .062000004 .59800007 .11600001 .63500007 .17400001 .63500007 C .26500003 .63500007 .308 .554 .308 .47200004 C .308 .39200003 .25800003 .31300003 .20300003 .25100003 L .011000004 .037 C 0 .026 0 .024 0 0 L .37100003 0 L .39900003 .17400001 L .374 .17400001 C .36900003 .14400001 .36200003 .1 .352 .085 C .345 .07700001 .279 .07700001 .257 .07700001 L .07700001 .07700001 Z "/>
</symbol>
<symbol id="font_1_3">
<path d="M .421 .34200005 C .421 .42200003 .416 .50200006 .381 .57600006 C .335 .67200008 .25300003 .688 .211 .688 C .15100001 .688 .07800001 .66200008 .037000006 .56900009 C .0050000029 .5 0 .42200003 0 .34200005 C 0 .26700003 .0040000008 .177 .045000007 .101 C .088 .020000002 .161 0 .21000001 0 C .264 0 .34 .021000002 .384 .116000007 C .416 .185 .421 .263 .421 .34200005 M .21000001 .022000002 C .171 .022000002 .112 .047000003 .094 .143 C .083000008 .20300001 .083000008 .29500003 .083000008 .35400004 C .083000008 .41800005 .083000008 .48400004 .091000009 .53800007 C .11 .65700009 .185 .66600009 .21000001 .66600009 C .243 .66600009 .30900003 .64800009 .328 .549 C .338 .49300004 .338 .41700004 .338 .35400004 C .338 .279 .338 .21100001 .32700003 .147 C .312 .052 .255 .022000002 .21000001 .022000002 Z "/>
</symbol>
<use xlink:href="#font_1_4" transform="matrix(27.673888,0,0,-27.673888,213.05744,151.08887)" fill="#ff0000"/>
<use xlink:href="#font_1_5" transform="matrix(27.673888,0,0,-27.673888,225.8151,151.08887)" fill="#ff0000"/>
<use xlink:href="#font_1_3" transform="matrix(27.673888,0,0,-27.673888,239.34763,151.6977)" fill="#ff0000"/>
<symbol id="font_2_1">
<path d="M .43 .214 C .43 .335 .333 .42900003 .21500002 .42900003 C .095 .42900003 0 .33200003 0 .21500002 C 0 .09400001 .097 0 .21500002 0 C .33500005 0 .43 .097 .43 .214 M .21500002 .049 C .12100001 .049 .048999996 .12500002 .048999996 .214 C .048999996 .307 .122999999 .38 .21500002 .38 C .30900003 .38 .38100005 .304 .38100005 .21500002 C .38100005 .12200001 .30699999 .049 .21500002 .049 Z "/>
</symbol>
<use xlink:href="#font_2_1" transform="matrix(19.371666,0,0,-19.371666,253.59719,140.34706)" fill="#ff0000"/>
<symbol id="font_1_2">
<path d="M .232 .5 C .232 .578 .22100002 .699 .16600001 .81200006 C .106 .93500009 .020000004 1 .009999998 1 C .0040000008 1 0 .99600008 0 .99 C 0 .98700007 0 .985 .019000002 .967 C .117000009 .86800006 .174 .709 .174 .5 C .174 .329 .137 .153 .012999997 .026999996 C 0 .014999986 0 .012999982 0 .00999999 C 0 .003999993 .0040000008 0 .009999998 0 C .020000004 0 .11000001 .06799999 .169 .195 C .22 .305 .232 .416 .232 .5 Z "/>
</symbol>
<use xlink:href="#font_1_2" transform="matrix(27.673888,0,0,-27.673888,266.408,158.00734)" fill="#ff0000"/>
<path transform="matrix(2.7777777,0,0,-2.7777777,482.21943,508.7389)" stroke-width=".3985" stroke-linecap="butt" stroke-miterlimit="10" stroke-linejoin="miter" fill="none" stroke="#ff0000" d="M 14.17339 0 C 14.17339 5.06305 11.47131 9.74312 7.08669 12.27454 C 3.0829 14.58623 -1.79979 14.79926 -5.57465 13.03914 "/>
<path transform="matrix(-2.5175279,1.1737777,1.1737777,2.5175279,466.73435,472.51908)" stroke-width=".31879" stroke-linecap="round" stroke-linejoin="round" fill="none" stroke="#ff0000" d="M -1.19551 1.59401 C -1.09587 .99626 0 .09961 .29886 0 C 0 -.09961 -1.09587 -.99626 -1.19551 -1.59401 "/>
<use xlink:href="#font_1_4" transform="matrix(27.673888,0,0,-27.673888,476.41575,466.47505)"/>
<use xlink:href="#font_1_5" transform="matrix(27.673888,0,0,-27.673888,489.17338,466.47505)"/>
<use xlink:href="#font_1_3" transform="matrix(27.673888,0,0,-27.673888,502.7059,467.08387)"/>
<use xlink:href="#font_2_1" transform="matrix(19.371666,0,0,-19.371666,516.9555,455.73323)"/>
<use xlink:href="#font_1_7" transform="matrix(27.673888,0,0,-27.673888,363.77537,357.0144)"/>
<path transform="matrix(2.7777777,0,0,-2.7777777,482.21943,508.7389)" stroke-width=".3985" stroke-linecap="butt" stroke-miterlimit="10" stroke-linejoin="miter" fill="none" stroke="#0000ff" d="M 0 0 L -80.17696 -80.17696 "/>
<path transform="matrix(2.7777777,0,0,-2.7777777,482.21943,508.7389)" d="M -77.18813 -80.17696 C -77.18813 -78.52625 -78.52625 -77.18813 -80.17696 -77.18813 C -81.82767 -77.18813 -83.16579 -78.52625 -83.16579 -80.17696 C -83.16579 -81.82767 -81.82767 -83.16579 -80.17696 -83.16579 C -78.52625 -83.16579 -77.18813 -81.82767 -77.18813 -80.17696 Z M -80.17696 -80.17696 " fill="#0000ff"/>
<path transform="matrix(2.7777777,0,0,-2.7777777,482.21943,508.7389)" stroke-width=".3985" stroke-linecap="butt" stroke-miterlimit="10" stroke-linejoin="miter" fill="none" stroke="#0000ff" d="M -77.18813 -80.17696 C -77.18813 -78.52625 -78.52625 -77.18813 -80.17696 -77.18813 C -81.82767 -77.18813 -83.16579 -78.52625 -83.16579 -80.17696 C -83.16579 -81.82767 -81.82767 -83.16579 -80.17696 -83.16579 C -78.52625 -83.16579 -77.18813 -81.82767 -77.18813 -80.17696 Z M -80.17696 -80.17696 "/>
<use xlink:href="#font_0_2" transform="matrix(27.673888,0,0,-27.673888,127.33193,714.7556)" fill="#0000ff"/>
<symbol id="font_1_6">
<path d="M .266 .165 L .266 .078 C .266 .042000005 .26400004 .031000002 .19000001 .031000002 L .16900002 .031000002 L .16900002 0 C .21000001 .003 .26200003 .003 .30400003 .003 C .34600003 .003 .39900003 .003 .44000004 0 L .44000004 .031000002 L .41900004 .031000002 C .34500004 .031000002 .34300003 .042000005 .34300003 .078 L .34300003 .165 L .44300003 .165 L .44300003 .19600001 L .34300003 .19600001 L .34300003 .651 C .34300003 .671 .34300003 .67700007 .32700003 .67700007 C .31800003 .67700007 .31500004 .67700007 .307 .665 L 0 .19600001 L 0 .165 L .266 .165 M .272 .19600001 L .028 .19600001 L .272 .569 L .272 .19600001 Z "/>
</symbol>
<use xlink:href="#font_1_1" transform="matrix(27.673888,0,0,-27.673888,150.5758,721.6741)" fill="#0000ff"/>
<use xlink:href="#font_1_6" transform="matrix(27.673888,0,0,-27.673888,159.3761,714.7556)" fill="#0000ff"/>
<use xlink:href="#font_0_1" transform="matrix(27.673888,0,0,-27.673888,174.81604,720.0967)" fill="#0000ff"/>
<use xlink:href="#font_1_5" transform="matrix(27.673888,0,0,-27.673888,186.11978,714.7556)" fill="#0000ff"/>
<use xlink:href="#font_1_5" transform="matrix(27.673888,0,0,-27.673888,199.95673,714.7556)" fill="#0000ff"/>
<use xlink:href="#font_1_7" transform="matrix(27.673888,0,0,-27.673888,213.79367,715.36447)" fill="#0000ff"/>
<use xlink:href="#font_2_1" transform="matrix(19.371666,0,0,-19.371666,227.73882,704.01376)" fill="#0000ff"/>
<use xlink:href="#font_1_2" transform="matrix(27.673888,0,0,-27.673888,240.54683,721.6741)" fill="#0000ff"/>
<path transform="matrix(2.7777777,0,0,-2.7777777,482.21943,508.7389)" stroke-width=".3985" stroke-linecap="butt" stroke-miterlimit="10" stroke-linejoin="miter" fill="none" stroke="#0000ff" d="M 28.3468 0 C 28.3468 15.6557 15.6557 28.3468 0 28.3468 C -15.6557 28.3468 -28.3468 15.6557 -28.3468 0 C -28.3468 -7.51663 -25.35925 -14.7292 -20.36827 -19.72018 "/>
<path transform="matrix(1.9641665,1.9641665,1.9641665,-1.9641665,425.6409,563.5172)" stroke-width=".31879" stroke-linecap="round" stroke-linejoin="round" fill="none" stroke="#0000ff" d="M -1.19551 1.59401 C -1.09587 .99626 0 .09961 .29886 0 C 0 -.09961 -1.09587 -.99626 -1.19551 -1.59401 "/>
<use xlink:href="#font_1_5" transform="matrix(27.673888,0,0,-27.673888,367.83924,569.44729)"/>
<use xlink:href="#font_1_5" transform="matrix(27.673888,0,0,-27.673888,381.67616,569.44729)"/>
<use xlink:href="#font_1_7" transform="matrix(27.673888,0,0,-27.673888,395.51307,570.0561)"/>
<use xlink:href="#font_2_1" transform="matrix(19.371666,0,0,-19.371666,409.45826,558.7081)"/>
<use xlink:href="#font_1_6" transform="matrix(27.673888,0,0,-27.673888,374.84709,638.2917)"/>
</g>
</svg>
