<?xml version="1.0" encoding="UTF-8" standalone="no"?>
<!DOCTYPE svg PUBLIC "-//W3C//DTD SVG 1.1//EN" "http://www.w3.org/Graphics/SVG/1.1/DTD/svg11.dtd">
<svg xmlns="http://www.w3.org/2000/svg" xmlns:xlink="http://www.w3.org/1999/xlink" version="1.1" width="674.51669pt" height="666.77218pt" viewBox="0 0 674.51669 666.77218">
<g enable-background="new">
<path transform="matrix(2.7777777,0,0,-2.7777777,403.47776,272.5194)" stroke-width=".3985" stroke-linecap="butt" stroke-miterlimit="10" stroke-linejoin="miter" fill="none" stroke="#000000" d="M -141.73404 0 L 84.58214 0 "/>
<path transform="matrix(2.7777777,0,0,-2.7777777,638.42819,272.5194)" stroke-width=".31879" stroke-linecap="round" stroke-linejoin="round" fill="none" stroke="#000000" d="M -1.19551 1.59401 C -1.09587 .99626 0 .09961 .29886 0 C 0 -.09961 -1.09587 -.99626 -1.19551 -1.59401 "/>
<symbol id="font_0_2">
<path d="M .305 .31300003 C .311 .33900003 .334 .43100003 .404 .43100003 C .409 .43100003 .433 .43100003 .454 .418 C .426 .41300003 .40600003 .388 .40600003 .36400003 C .40600003 .34800003 .417 .32900004 .444 .32900004 C .46600003 .32900004 .498 .34700004 .498 .38700003 C .498 .43900005 .439 .45300005 .405 .45300005 C .347 .45300005 .312 .40000005 .3 .37700004 C .275 .44300003 .221 .45300005 .19200002 .45300005 C .08800001 .45300005 .031000002 .32400004 .031000002 .29900003 C .031000002 .28900004 .041 .28900004 .043000007 .28900004 C .051000008 .28900004 .054000006 .291 .056 .3 C .09 .40600003 .156 .43100003 .19000001 .43100003 C .209 .43100003 .244 .42200003 .244 .36400003 C .244 .33300004 .22700002 .26600004 .19000001 .126 C .17400001 .064 .13900002 .022000002 .095000009 .022000002 C .08900001 .022000002 .06600001 .022000002 .045 .035 C .07000001 .040000004 .09200001 .061 .09200001 .089 C .09200001 .116000007 .07000001 .124000009 .055000009 .124000009 C .025 .124000009 0 .098000008 0 .06600001 C 0 .020000002 .050000006 0 .094000007 0 C .16000001 0 .19600001 .07000001 .19900002 .076000008 C .21100001 .039 .24700003 0 .307 0 C .41 0 .467 .12900001 .467 .15400002 C .467 .16400002 .458 .16400002 .455 .16400002 C .446 .16400002 .444 .16000001 .442 .15300001 C .409 .046 .341 .022000002 .30900003 .022000002 C .27 .022000002 .254 .054 .254 .08800001 C .254 .11000001 .26 .13200002 .271 .17600002 L .305 .31300003 Z "/>
</symbol>
<use xlink:href="#font_0_2" transform="matrix(27.673888,0,0,-27.673888,650.2775,278.77937)"/>
<path transform="matrix(2.7777777,0,0,-2.7777777,403.47776,272.5194)" stroke-width=".3985" stroke-linecap="butt" stroke-miterlimit="10" stroke-linejoin="miter" fill="none" stroke="#000000" d="M 0 -141.73404 L 0 84.58214 "/>
<path transform="matrix(0,-2.7777777,-2.7777777,-0,403.47776,37.569047)" stroke-width=".31879" stroke-linecap="round" stroke-linejoin="round" fill="none" stroke="#000000" d="M -1.19551 1.59401 C -1.09587 .99626 0 .09961 .29886 0 C 0 -.09961 -1.09587 -.99626 -1.19551 -1.59401 "/>
<symbol id="font_0_3">
<path d="M .45700003 .586 C .461 .6 .461 .602 .461 .609 C .461 .62700006 .447 .63600006 .432 .63600006 C .42200003 .63600006 .40600003 .63 .397 .615 C .395 .61 .387 .579 .38300003 .561 C .37600003 .535 .36900003 .508 .363 .48100005 L .318 .301 C .314 .286 .271 .21600002 .20500002 .21600002 C .15400002 .21600002 .143 .26000003 .143 .29700003 C .143 .34300003 .16000001 .40500004 .194 .49300004 C .21000001 .53400006 .21400002 .545 .21400002 .56500008 C .21400002 .61 .18200001 .6470001 .13200002 .6470001 C .037 .6470001 0 .50200006 0 .49300004 C 0 .48300005 .01 .48300005 .012 .48300005 C .022000002 .48300005 .023 .485 .028000003 .50100007 C .055000009 .595 .095000009 .625 .12900001 .625 C .13700001 .625 .15400002 .625 .15400002 .59300008 C .15400002 .568 .14400001 .54200008 .13700001 .523 C .097 .41700004 .079 .36 .079 .31300003 C .079 .224 .142 .194 .201 .194 C .24000003 .194 .274 .21100001 .30200003 .23900002 C .289 .187 .277 .13800001 .237 .08500001 C .21100001 .051 .17300001 .022 .127 .022 C .113000009 .022 .068 .025000006 .051000008 .06400001 C .067 .06400001 .080000009 .06400001 .094000007 .076000008 C .104 .08500001 .11400001 .098000008 .11400001 .117000009 C .11400001 .148 .087000008 .15200001 .07700001 .15200001 C .054000006 .15200001 .021 .136 .021 .087000008 C .021 .037 .065000008 0 .127 0 C .23 0 .333 .091000009 .361 .20400001 L .45700003 .586 Z "/>
</symbol>
<use xlink:href="#font_0_3" transform="matrix(27.673888,0,0,-27.673888,396.99977,26.81481)"/>
<path transform="matrix(2.7777777,0,0,-2.7777777,403.47776,272.5194)" stroke-width=".3985" stroke-linecap="butt" stroke-miterlimit="10" stroke-linejoin="miter" fill="none" stroke="#ff0000" d="M 0 0 L -100.22119 -100.22119 "/>
<path transform="matrix(2.7777777,0,0,-2.7777777,403.47776,272.5194)" stroke-width=".3985" stroke-linecap="butt" stroke-miterlimit="10" stroke-linejoin="miter" fill="none" stroke="#ff0000" d="M 14.17339 0 C 14.17339 7.82784 7.82784 14.17339 0 14.17339 C -7.82784 14.17339 -14.17339 7.82784 -14.17339 0 C -14.17339 -3.33182 -12.99883 -6.55833 -11.15189 -8.75948 "/>
<path transform="matrix(1.7854443,2.127889,2.127889,-1.7854443,372.5003,296.85127)" stroke-width=".31879" stroke-linecap="round" stroke-linejoin="round" fill="none" stroke="#ff0000" d="M -1.19551 1.59401 C -1.09587 .99626 0 .09961 .29886 0 C 0 -.09961 -1.09587 -.99626 -1.19551 -1.59401 "/>
<symbol id="font_1_1">
<path d="M .07700001 .07700001 L .18300002 .18 C .33900003 .31800003 .39900003 .372 .39900003 .47200004 C .39900003 .586 .30900003 .666 .18700002 .666 C .074 .666 0 .574 0 .485 C 0 .42900003 .05 .42900003 .053000008 .42900003 C .07000001 .42900003 .105000007 .441 .105000007 .48200003 C .105000007 .508 .08700001 .53400006 .052000006 .53400006 C .044000005 .53400006 .042000008 .53400006 .039 .53300008 C .062000004 .59800007 .11600001 .63500007 .17400001 .63500007 C .26500003 .63500007 .308 .554 .308 .47200004 C .308 .39200003 .25800003 .31300003 .20300003 .25100003 L .011000004 .037 C 0 .026 0 .024 0 0 L .37100003 0 L .39900003 .17400001 L .374 .17400001 C .36900003 .14400001 .36200003 .1 .352 .085 C .345 .07700001 .279 .07700001 .257 .07700001 L .07700001 .07700001 Z "/>
</symbol>
<symbol id="font_1_2">
<path d="M .39900003 .223 C .39900003 .34200005 .317 .44200004 .209 .44200004 C .16100002 .44200004 .118000019 .42600004 .082 .39100004 L .082 .586 C .10200001 .58000007 .135 .573 .16700001 .573 C .29 .573 .36 .66400006 .36 .67700007 C .36 .683 .357 .688 .35 .688 C .349 .688 .347 .688 .342 .68500009 C .322 .67600008 .273 .656 .20600002 .656 C .16600001 .656 .120000008 .66300007 .073 .6840001 C .065 .68700006 .06300001 .68700006 .061000009 .68700006 C .051000004 .68700006 .051000004 .679 .051000004 .66300007 L .051000004 .36700005 C .051000004 .34900005 .051000004 .34100003 .065 .34100003 C .07200001 .34100003 .074 .34400005 .07800001 .35000003 C .08900002 .36600004 .12600002 .42000006 .207 .42000006 C .259 .42000006 .284 .37400005 .292 .35600005 C .308 .31900005 .31 .28000004 .31 .23 C .31 .19500001 .31 .135 .286 .093 C .262 .054000006 .22500001 .028 .17900002 .028 C .106000009 .028 .049000008 .08100001 .032 .14000002 C .035 .13900002 .038000008 .13800001 .049000008 .13800001 C .082 .13800001 .09900001 .163 .09900001 .187 C .09900001 .21100001 .082 .23600002 .049000008 .23600002 C .035 .23600002 0 .22900002 0 .18300002 C 0 .097 .069000009 0 .18100001 0 C .297 0 .39900003 .096 .39900003 .223 Z "/>
</symbol>
<use xlink:href="#font_1_1" transform="matrix(27.673888,0,0,-27.673888,350.18647,234.31385)"/>
<use xlink:href="#font_1_1" transform="matrix(27.673888,0,0,-27.673888,364.02339,234.31385)"/>
<use xlink:href="#font_1_2" transform="matrix(27.673888,0,0,-27.673888,377.86033,234.92267)"/>
<symbol id="font_2_1">
<path d="M .43 .214 C .43 .335 .333 .42900003 .21500002 .42900003 C .095 .42900003 0 .33200003 0 .21500002 C 0 .09400001 .097 0 .21500002 0 C .33500005 0 .43 .097 .43 .214 M .21500002 .049 C .12100001 .049 .048999996 .12500002 .048999996 .214 C .048999996 .307 .122999999 .38 .21500002 .38 C .30900003 .38 .38100005 .304 .38100005 .21500002 C .38100005 .12200001 .30699999 .049 .21500002 .049 Z "/>
</symbol>
<use xlink:href="#font_2_1" transform="matrix(19.371666,0,0,-19.371666,391.80549,223.57482)"/>
<symbol id="font_0_1">
<path d="M .059000009 .07000001 C .056 .055000005 .050000006 .032 .050000006 .027000003 C .050000006 .009000001 .064 0 .079 0 C .091000009 0 .10900001 .008000001 .11600001 .028 C .118 .032 .15200001 .16800002 .156 .18600002 C .164 .21900001 .18200001 .28900004 .18800001 .316 C .19200002 .32900004 .22000002 .37600003 .244 .39800004 C .252 .40500004 .281 .43100003 .324 .43100003 C .35 .43100003 .365 .41900004 .366 .41900004 C .336 .41400004 .314 .39000003 .314 .36400003 C .314 .34800003 .325 .32900004 .352 .32900004 C .379 .32900004 .407 .35200004 .407 .388 C .407 .42300005 .375 .45300005 .324 .45300005 C .259 .45300005 .21500002 .404 .19600001 .37600003 C .18800001 .42100004 .15200001 .45300005 .105000007 .45300005 C .059000009 .45300005 .040000008 .41400004 .031000002 .39600004 C .013000002 .36200003 0 .30200003 0 .29900003 C 0 .28900004 .01 .28900004 .012 .28900004 C .022000002 .28900004 .023 .29000003 .029000001 .31200005 C .046000005 .38300003 .06600001 .43100003 .10200001 .43100003 C .119 .43100003 .133 .42300005 .133 .38500003 C .133 .36400003 .13000001 .35300002 .11700001 .30100004 L .059000009 .07000001 Z "/>
</symbol>
<use xlink:href="#font_0_1" transform="matrix(27.673888,0,0,-27.673888,298.29423,308.67384)"/>
<symbol id="font_1_3">
<path d="M .63100007 .19400002 C .646 .19400002 .665 .19400002 .665 .214 C .665 .23400001 .646 .23400001 .632 .23400001 L .033 .23400001 C .019000002 .23400001 0 .23400001 0 .214 C 0 .19400002 .019000002 .19400002 .034 .19400002 L .63100007 .19400002 M .632 0 C .646 0 .665 0 .665 .02000001 C .665 .040000008 .646 .040000008 .63100007 .040000008 L .034 .040000008 C .019000002 .040000008 0 .040000008 0 .02000001 C 0 0 .019000002 0 .033 0 L .632 0 Z "/>
</symbol>
<use xlink:href="#font_1_3" transform="matrix(27.673888,0,0,-27.673888,319.98307,304.68879)"/>
<use xlink:href="#font_1_2" transform="matrix(27.673888,0,0,-27.673888,349.04063,308.97825)"/>
</g>
</svg>
