<?xml version="1.0" encoding="UTF-8" standalone="no"?>
<!DOCTYPE svg PUBLIC "-//W3C//DTD SVG 1.1//EN" "http://www.w3.org/Graphics/SVG/1.1/DTD/svg11.dtd">
<svg xmlns="http://www.w3.org/2000/svg" xmlns:xlink="http://www.w3.org/1999/xlink" version="1.1" width="1541.3667pt" height="322.9472pt" viewBox="0 0 1541.3667 322.9472">
<g enable-background="new">
<path transform="matrix(2.7777777,0,0,-2.7777777,269.84165,322.39445)" stroke-width=".3985" stroke-linecap="butt" stroke-miterlimit="10" stroke-linejoin="miter" fill="none" stroke="#000000" d="M 0 0 L -42.5202 73.64735 "/>
<path transform="matrix(2.7777777,0,0,-2.7777777,269.84165,322.39445)" stroke-width=".3985" stroke-linecap="butt" stroke-miterlimit="10" stroke-linejoin="miter" fill="none" stroke="#000000" d="M 0 0 L 85.04042 0 "/>
<path transform="matrix(2.7777777,0,0,-2.7777777,269.84165,322.39445)" d="M -39.53137 73.64735 C -39.53137 75.29807 -40.86949 76.63618 -42.5202 76.63618 C -44.17091 76.63618 -45.50903 75.29807 -45.50903 73.64735 C -45.50903 71.99666 -44.17091 70.65852 -42.5202 70.65852 C -40.86949 70.65852 -39.53137 71.99666 -39.53137 73.64735 Z M -42.5202 73.64735 " fill="#ff0000"/>
<path transform="matrix(2.7777777,0,0,-2.7777777,269.84165,322.39445)" stroke-width=".3985" stroke-linecap="butt" stroke-miterlimit="10" stroke-linejoin="miter" fill="none" stroke="#ff0000" d="M -39.53137 73.64735 C -39.53137 75.29807 -40.86949 76.63618 -42.5202 76.63618 C -44.17091 76.63618 -45.50903 75.29807 -45.50903 73.64735 C -45.50903 71.99666 -44.17091 70.65852 -42.5202 70.65852 C -40.86949 70.65852 -39.53137 71.99666 -39.53137 73.64735 Z M -42.5202 73.64735 "/>
<symbol id="font_0_2">
<path d="M .263 .316 L .43300004 .316 C .575 .316 .714 .42000003 .714 .532 C .714 .609 .648 .683 .517 .683 L .193 .683 C .17400001 .683 .163 .683 .163 .66400006 C .163 .652 .172 .652 .192 .652 C .205 .652 .223 .651 .235 .65000006 C .25100003 .648 .25700004 .64500007 .25700004 .634 C .25700004 .63000008 .256 .62700006 .25300003 .615 L .119 .078 C .109 .039 .10699999 .031000002 .028 .031000002 C .011 .031000002 0 .031000002 0 .012 C 0 0 .011999998 0 .015000001 0 C .043 0 .11400001 .003 .142 .003 C .163 .003 .185 .002 .206 .002 C .228 .002 .25000004 0 .27100004 0 C .27800004 0 .29100005 0 .29100005 .020000002 C .29100005 .031000002 .28200004 .031000002 .263 .031000002 C .226 .031000002 .198 .031000002 .198 .049000004 C .198 .055000005 .2 .060000004 .201 .066 L .263 .316 M .33500005 .614 C .344 .64900007 .34600003 .652 .38900004 .652 L .48500005 .652 C .568 .652 .621 .625 .621 .55600008 C .621 .517 .601 .43100003 .56200006 .395 C .512 .35000003 .45200003 .342 .40800003 .342 L .26700003 .342 L .33500005 .614 Z "/>
</symbol>
<use xlink:href="#font_0_2" transform="matrix(27.673888,0,0,-27.673888,19.554177,101.125019)" fill="#ff0000"/>
<symbol id="font_1_1">
<path d="M .23200003 .00999999 C .23200003 .012999982 .23200003 .014999986 .215 .03199999 C .09 .15799999 .058 .347 .058 .5 C .058 .674 .096 .84800007 .21900001 .97300007 C .23200003 .985 .23200003 .98700007 .23200003 .99 C .23200003 .99700006 .22800002 1 .222 1 C .21200001 1 .12200001 .93200007 .06299999 .805 C .012000002 .69500008 0 .584 0 .5 C 0 .422 .011 .301 .066 .188 C .126 .065 .21200001 0 .222 0 C .22800002 0 .23200003 .0029999912 .23200003 .00999999 Z "/>
</symbol>
<symbol id="font_1_7">
<path d="M .39900003 .223 C .39900003 .34200005 .317 .44200004 .209 .44200004 C .16100002 .44200004 .118000019 .42600004 .082 .39100004 L .082 .586 C .10200001 .58000007 .135 .573 .16700001 .573 C .29 .573 .36 .66400006 .36 .67700007 C .36 .683 .357 .688 .35 .688 C .349 .688 .347 .688 .342 .68500009 C .322 .67600008 .273 .656 .20600002 .656 C .16600001 .656 .120000008 .66300007 .073 .6840001 C .065 .68700006 .06300001 .68700006 .061000009 .68700006 C .051000004 .68700006 .051000004 .679 .051000004 .66300007 L .051000004 .36700005 C .051000004 .34900005 .051000004 .34100003 .065 .34100003 C .07200001 .34100003 .074 .34400005 .07800001 .35000003 C .08900002 .36600004 .12600002 .42000006 .207 .42000006 C .259 .42000006 .284 .37400005 .292 .35600005 C .308 .31900005 .31 .28000004 .31 .23 C .31 .19500001 .31 .135 .286 .093 C .262 .054000006 .22500001 .028 .17900002 .028 C .106000009 .028 .049000008 .08100001 .032 .14000002 C .035 .13900002 .038000008 .13800001 .049000008 .13800001 C .082 .13800001 .09900001 .163 .09900001 .187 C .09900001 .21100001 .082 .23600002 .049000008 .23600002 C .035 .23600002 0 .22900002 0 .18300002 C 0 .097 .069000009 0 .18100001 0 C .297 0 .39900003 .096 .39900003 .223 Z "/>
</symbol>
<use xlink:href="#font_1_1" transform="matrix(27.673888,0,0,-27.673888,42.798044,108.04349)" fill="#ff0000"/>
<use xlink:href="#font_1_7" transform="matrix(27.673888,0,0,-27.673888,52.207166,101.73384)" fill="#ff0000"/>
<symbol id="font_0_1">
<path d="M .117000009 .194 C .117000009 .26 .092 .29900003 .05300001 .29900003 C .020000004 .29900003 0 .274 0 .246 C 0 .21900001 .020000004 .193 .05300001 .193 C .065000008 .193 .078 .197 .08800001 .206 C .091 .208 .092 .209 .093 .209 C .094000007 .209 .095000009 .208 .095000009 .194 C .095000009 .12 .06000001 .060000004 .027000003 .026999996 C .016000003 .016000003 .016000003 .013999999 .016000003 .0109999929 C .016000003 .003999993 .021000006 0 .026 0 C .037 0 .117000009 .077 .117000009 .194 Z "/>
</symbol>
<use xlink:href="#font_0_1" transform="matrix(27.673888,0,0,-27.673888,67.038288,106.46607)" fill="#ff0000"/>
<symbol id="font_1_4">
<path d="M .205 .64000007 C .205 .66400006 .205 .666 .18200003 .666 C .120000008 .60200008 .032000007 .60200008 0 .60200008 L 0 .57100006 C .020000004 .57100006 .07900001 .57100006 .13100001 .597 L .13100001 .079 C .13100001 .043 .128 .031000002 .038000004 .031000002 L .0060000049 .031000002 L .0060000049 0 C .04100001 .003 .128 .003 .168 .003 C .20800002 .003 .29500003 .003 .33000005 0 L .33000005 .031000002 L .29800005 .031000002 C .20800002 .031000002 .205 .042000005 .205 .079 L .205 .64000007 Z "/>
</symbol>
<symbol id="font_1_5">
<path d="M .07700001 .07700001 L .18300002 .18 C .33900003 .31800003 .39900003 .372 .39900003 .47200004 C .39900003 .586 .30900003 .666 .18700002 .666 C .074 .666 0 .574 0 .485 C 0 .42900003 .05 .42900003 .053000008 .42900003 C .07000001 .42900003 .105000007 .441 .105000007 .48200003 C .105000007 .508 .08700001 .53400006 .052000006 .53400006 C .044000005 .53400006 .042000008 .53400006 .039 .53300008 C .062000004 .59800007 .11600001 .63500007 .17400001 .63500007 C .26500003 .63500007 .308 .554 .308 .47200004 C .308 .39200003 .25800003 .31300003 .20300003 .25100003 L .011000004 .037 C 0 .026 0 .024 0 0 L .37100003 0 L .39900003 .17400001 L .374 .17400001 C .36900003 .14400001 .36200003 .1 .352 .085 C .345 .07700001 .279 .07700001 .257 .07700001 L .07700001 .07700001 Z "/>
</symbol>
<symbol id="font_1_3">
<path d="M .421 .34200005 C .421 .42200003 .416 .50200006 .381 .57600006 C .335 .67200008 .25300003 .688 .211 .688 C .15100001 .688 .07800001 .66200008 .037000006 .56900009 C .0050000029 .5 0 .42200003 0 .34200005 C 0 .26700003 .0040000008 .177 .045000007 .101 C .088 .020000002 .161 0 .21000001 0 C .264 0 .34 .021000002 .384 .116000007 C .416 .185 .421 .263 .421 .34200005 M .21000001 .022000002 C .171 .022000002 .112 .047000003 .094 .143 C .083000008 .20300001 .083000008 .29500003 .083000008 .35400004 C .083000008 .41800005 .083000008 .48400004 .091000009 .53800007 C .11 .65700009 .185 .66600009 .21000001 .66600009 C .243 .66600009 .30900003 .64800009 .328 .549 C .338 .49300004 .338 .41700004 .338 .35400004 C .338 .279 .338 .21100001 .32700003 .147 C .312 .052 .255 .022000002 .21000001 .022000002 Z "/>
</symbol>
<use xlink:href="#font_1_4" transform="matrix(27.673888,0,0,-27.673888,79.4213,101.125019)" fill="#ff0000"/>
<use xlink:href="#font_1_5" transform="matrix(27.673888,0,0,-27.673888,92.17897,101.125019)" fill="#ff0000"/>
<use xlink:href="#font_1_3" transform="matrix(27.673888,0,0,-27.673888,105.7115,101.73384)" fill="#ff0000"/>
<symbol id="font_2_1">
<path d="M .43 .214 C .43 .335 .333 .42900003 .21500002 .42900003 C .095 .42900003 0 .33200003 0 .21500002 C 0 .09400001 .097 0 .21500002 0 C .33500005 0 .43 .097 .43 .214 M .21500002 .049 C .12100001 .049 .048999996 .12500002 .048999996 .214 C .048999996 .307 .122999999 .38 .21500002 .38 C .30900003 .38 .38100005 .304 .38100005 .21500002 C .38100005 .12200001 .30699999 .049 .21500002 .049 Z "/>
</symbol>
<use xlink:href="#font_2_1" transform="matrix(19.371666,0,0,-19.371666,119.96106,90.38598)" fill="#ff0000"/>
<symbol id="font_1_2">
<path d="M .232 .5 C .232 .578 .22100002 .699 .16600001 .81200006 C .106 .93500009 .020000004 1 .009999998 1 C .0040000008 1 0 .99600008 0 .99 C 0 .98700007 0 .985 .019000002 .967 C .117000009 .86800006 .174 .709 .174 .5 C .174 .329 .137 .153 .012999997 .026999996 C 0 .014999986 0 .012999982 0 .00999999 C 0 .003999993 .0040000008 0 .009999998 0 C .020000004 0 .11000001 .06799999 .169 .195 C .22 .305 .232 .416 .232 .5 Z "/>
</symbol>
<use xlink:href="#font_1_2" transform="matrix(27.673888,0,0,-27.673888,132.76908,108.04349)" fill="#ff0000"/>
<path transform="matrix(2.7777777,0,0,-2.7777777,269.84165,322.39445)" stroke-width=".3985" stroke-linecap="butt" stroke-miterlimit="10" stroke-linejoin="miter" fill="none" stroke="#ff0000" d="M 14.17339 0 C 14.17339 5.06305 11.47131 9.74312 7.08669 12.27454 C 3.0829 14.58623 -1.79979 14.79926 -5.57465 13.03914 "/>
<path transform="matrix(-2.5175279,1.1737777,1.1737777,2.5175279,254.35657,286.17463)" stroke-width=".31879" stroke-linecap="round" stroke-linejoin="round" fill="none" stroke="#ff0000" d="M -1.19551 1.59401 C -1.09587 .99626 0 .09961 .29886 0 C 0 -.09961 -1.09587 -.99626 -1.19551 -1.59401 "/>
<use xlink:href="#font_1_4" transform="matrix(27.673888,0,0,-27.673888,272.74629,284.1889)"/>
<use xlink:href="#font_1_5" transform="matrix(27.673888,0,0,-27.673888,285.50395,284.1889)"/>
<use xlink:href="#font_1_3" transform="matrix(27.673888,0,0,-27.673888,299.03648,284.79774)"/>
<use xlink:href="#font_2_1" transform="matrix(19.371666,0,0,-19.371666,313.286,273.44709)"/>
<path transform="matrix(2.7777777,0,0,-2.7777777,797.9805,251.25)" stroke-width=".3985" stroke-linecap="butt" stroke-miterlimit="10" stroke-linejoin="miter" fill="none" stroke="#000000" d="M 0 0 L -42.5202 73.64735 "/>
<path transform="matrix(2.7777777,0,0,-2.7777777,797.9805,251.25)" stroke-width=".3985" stroke-linecap="butt" stroke-miterlimit="10" stroke-linejoin="miter" fill="none" stroke="#000000" d="M 0 0 L 85.04042 0 "/>
<path transform="matrix(2.7777777,0,0,-2.7777777,797.9805,251.25)" d="M -39.53137 73.64735 C -39.53137 75.29807 -40.86949 76.63618 -42.5202 76.63618 C -44.17091 76.63618 -45.50903 75.29807 -45.50903 73.64735 C -45.50903 71.99666 -44.17091 70.65852 -42.5202 70.65852 C -40.86949 70.65852 -39.53137 71.99666 -39.53137 73.64735 Z M -42.5202 73.64735 " fill="#ff0000"/>
<path transform="matrix(2.7777777,0,0,-2.7777777,797.9805,251.25)" stroke-width=".3985" stroke-linecap="butt" stroke-miterlimit="10" stroke-linejoin="miter" fill="none" stroke="#ff0000" d="M -39.53137 73.64735 C -39.53137 75.29807 -40.86949 76.63618 -42.5202 76.63618 C -44.17091 76.63618 -45.50903 75.29807 -45.50903 73.64735 C -45.50903 71.99666 -44.17091 70.65852 -42.5202 70.65852 C -40.86949 70.65852 -39.53137 71.99666 -39.53137 73.64735 Z M -42.5202 73.64735 "/>
<use xlink:href="#font_0_2" transform="matrix(27.673888,0,0,-27.673888,526.17086,29.98056)" fill="#ff0000"/>
<use xlink:href="#font_1_1" transform="matrix(27.673888,0,0,-27.673888,549.4119,36.899034)" fill="#ff0000"/>
<use xlink:href="#font_1_7" transform="matrix(27.673888,0,0,-27.673888,558.8211,30.589386)" fill="#ff0000"/>
<use xlink:href="#font_0_1" transform="matrix(27.673888,0,0,-27.673888,573.6522,35.32162)" fill="#ff0000"/>
<symbol id="font_3_1">
<path d="M .57600006 0 C .59300008 0 .611 0 .611 .019999996 C .611 .040000008 .59300008 .040000008 .57600006 .040000008 L .035000005 .040000008 C .018 .040000008 0 .040000008 0 .019999996 C 0 0 .018 0 .035000005 0 L .57600006 0 Z "/>
</symbol>
<use xlink:href="#font_3_1" transform="matrix(27.673888,0,0,-27.673888,585.8692,23.615567)" fill="#ff0000"/>
<symbol id="font_1_6">
<path d="M .266 .165 L .266 .078 C .266 .042000005 .26400004 .031000002 .19000001 .031000002 L .16900002 .031000002 L .16900002 0 C .21000001 .003 .26200003 .003 .30400003 .003 C .34600003 .003 .39900003 .003 .44000004 0 L .44000004 .031000002 L .41900004 .031000002 C .34500004 .031000002 .34300003 .042000005 .34300003 .078 L .34300003 .165 L .44300003 .165 L .44300003 .19600001 L .34300003 .19600001 L .34300003 .651 C .34300003 .671 .34300003 .67700007 .32700003 .67700007 C .31800003 .67700007 .31500004 .67700007 .307 .665 L 0 .19600001 L 0 .165 L .266 .165 M .272 .19600001 L .028 .19600001 L .272 .569 L .272 .19600001 Z "/>
</symbol>
<use xlink:href="#font_1_5" transform="matrix(27.673888,0,0,-27.673888,606.4809,29.98056)" fill="#ff0000"/>
<use xlink:href="#font_1_6" transform="matrix(27.673888,0,0,-27.673888,619.709,29.98056)" fill="#ff0000"/>
<use xlink:href="#font_1_3" transform="matrix(27.673888,0,0,-27.673888,633.85037,30.589386)" fill="#ff0000"/>
<use xlink:href="#font_2_1" transform="matrix(19.371666,0,0,-19.371666,648.1,19.241524)" fill="#ff0000"/>
<use xlink:href="#font_1_2" transform="matrix(27.673888,0,0,-27.673888,660.90798,36.899034)" fill="#ff0000"/>
<path transform="matrix(2.7777777,0,0,-2.7777777,797.9805,251.25)" stroke-width=".3985" stroke-linecap="butt" stroke-miterlimit="10" stroke-linejoin="miter" fill="none" stroke="#ff0000" d="M 14.17339 0 C 14.17339 -7.82784 7.82784 -14.17339 0 -14.17339 C -7.82784 -14.17339 -14.17339 -7.82784 -14.17339 0 C -14.17339 4.62338 -11.91661 8.9585 -8.50493 11.34732 "/>
<path transform="matrix(2.275389,-1.5932222,-1.5932222,-2.275389,774.3557,219.72974)" stroke-width=".31879" stroke-linecap="round" stroke-linejoin="round" fill="none" stroke="#ff0000" d="M -1.19551 1.59401 C -1.09587 .99626 0 .09961 .29886 0 C 0 -.09961 -1.09587 -.99626 -1.19551 -1.59401 "/>
<use xlink:href="#font_3_1" transform="matrix(27.673888,0,0,-27.673888,743.54696,305.05168)"/>
<use xlink:href="#font_1_5" transform="matrix(27.673888,0,0,-27.673888,764.1586,311.41667)"/>
<use xlink:href="#font_1_6" transform="matrix(27.673888,0,0,-27.673888,777.3867,311.41667)"/>
<use xlink:href="#font_1_3" transform="matrix(27.673888,0,0,-27.673888,791.5281,312.02549)"/>
<use xlink:href="#font_2_1" transform="matrix(19.371666,0,0,-19.371666,805.7777,300.67759)"/>
<path transform="matrix(2.7777777,0,0,-2.7777777,1304.5944,283.02503)" stroke-width=".3985" stroke-linecap="butt" stroke-miterlimit="10" stroke-linejoin="miter" fill="none" stroke="#000000" d="M 0 0 L -42.5202 73.64735 "/>
<path transform="matrix(2.7777777,0,0,-2.7777777,1304.5944,283.02503)" stroke-width=".3985" stroke-linecap="butt" stroke-miterlimit="10" stroke-linejoin="miter" fill="none" stroke="#000000" d="M 0 0 L 85.04042 0 "/>
<path transform="matrix(2.7777777,0,0,-2.7777777,1304.5944,283.02503)" d="M -39.53137 73.64735 C -39.53137 75.29807 -40.86949 76.63618 -42.5202 76.63618 C -44.17091 76.63618 -45.50903 75.29807 -45.50903 73.64735 C -45.50903 71.99666 -44.17091 70.65852 -42.5202 70.65852 C -40.86949 70.65852 -39.53137 71.99666 -39.53137 73.64735 Z M -42.5202 73.64735 " fill="#ff0000"/>
<path transform="matrix(2.7777777,0,0,-2.7777777,1304.5944,283.02503)" stroke-width=".3985" stroke-linecap="butt" stroke-miterlimit="10" stroke-linejoin="miter" fill="none" stroke="#ff0000" d="M -39.53137 73.64735 C -39.53137 75.29807 -40.86949 76.63618 -42.5202 76.63618 C -44.17091 76.63618 -45.50903 75.29807 -45.50903 73.64735 C -45.50903 71.99666 -44.17091 70.65852 -42.5202 70.65852 C -40.86949 70.65852 -39.53137 71.99666 -39.53137 73.64735 Z M -42.5202 73.64735 "/>
<use xlink:href="#font_0_2" transform="matrix(27.673888,0,0,-27.673888,1054.3096,61.755586)" fill="#ff0000"/>
<use xlink:href="#font_1_1" transform="matrix(27.673888,0,0,-27.673888,1077.5535,68.67406)" fill="#ff0000"/>
<use xlink:href="#font_1_7" transform="matrix(27.673888,0,0,-27.673888,1086.9627,62.36441)" fill="#ff0000"/>
<use xlink:href="#font_0_1" transform="matrix(27.673888,0,0,-27.673888,1101.791,67.09664)" fill="#ff0000"/>
<symbol id="font_1_8">
<path d="M .121 .47900004 C .075 .509 .071 .54300007 .071 .56000009 C .071 .62100008 .136 .66300007 .20700002 .66300007 C .28000004 .66300007 .344 .61100009 .344 .53900006 C .344 .48200003 .305 .43400005 .245 .39900003 L .121 .47900004 M .26700003 .38400004 C .33900003 .42100004 .388 .47300006 .388 .53900006 C .388 .63100007 .29900003 .688 .208 .688 C .108 .688 .027000003 .614 .027000003 .521 C .027000003 .503 .029 .45800004 .071 .41100005 C .082 .39900003 .11900001 .37400005 .144 .35700003 C .086 .32800005 0 .272 0 .17300001 C 0 .067 .102000009 0 .20700002 0 C .32000003 0 .41500003 .083000008 .41500003 .19000001 C .41500003 .22600001 .404 .27100004 .36600004 .31300003 C .34700004 .33400003 .33100004 .34400005 .26700003 .38400004 M .167 .34200005 L .29000003 .26400004 C .31800003 .245 .365 .215 .365 .154 C .365 .080000009 .29000003 .028 .208 .028 C .122 .028 .050000006 .09 .050000006 .17300001 C .050000006 .231 .082 .29500003 .167 .34200005 Z "/>
</symbol>
<use xlink:href="#font_1_6" transform="matrix(27.673888,0,0,-27.673888,1112.486,61.755586)" fill="#ff0000"/>
<use xlink:href="#font_1_8" transform="matrix(27.673888,0,0,-27.673888,1126.7103,62.36441)" fill="#ff0000"/>
<use xlink:href="#font_1_3" transform="matrix(27.673888,0,0,-27.673888,1140.4641,62.36441)" fill="#ff0000"/>
<use xlink:href="#font_2_1" transform="matrix(19.371666,0,0,-19.371666,1154.7138,51.01377)" fill="#ff0000"/>
<use xlink:href="#font_1_2" transform="matrix(27.673888,0,0,-27.673888,1167.5217,68.67406)" fill="#ff0000"/>
<path transform="matrix(2.7777777,0,0,-2.7777777,1304.5944,283.02503)" stroke-width=".3985" stroke-linecap="butt" stroke-miterlimit="10" stroke-linejoin="miter" fill="none" stroke="#ff0000" d="M 14.17339 0 C 14.17339 7.82784 7.82784 14.17339 0 14.17339 C -7.82784 14.17339 -14.17339 7.82784 -14.17339 0 C -14.17339 -7.82784 -7.82784 -14.17339 0 -14.17339 C 7.82784 -14.17339 14.17339 -7.82784 14.17339 -.45827 "/>
<path transform="matrix(0,-2.7777777,-2.7777777,-0,1343.965,284.29798)" stroke-width=".31879" stroke-linecap="round" stroke-linejoin="round" fill="none" stroke="#ff0000" d="M -1.19551 1.59401 C -1.09587 .99626 0 .09961 .29886 0 C 0 -.09961 -1.09587 -.99626 -1.19551 -1.59401 "/>
<use xlink:href="#font_1_6" transform="matrix(27.673888,0,0,-27.673888,1305.8109,244.81946)"/>
<use xlink:href="#font_1_8" transform="matrix(27.673888,0,0,-27.673888,1320.0353,245.42829)"/>
<use xlink:href="#font_1_3" transform="matrix(27.673888,0,0,-27.673888,1333.7891,245.42829)"/>
<use xlink:href="#font_2_1" transform="matrix(19.371666,0,0,-19.371666,1348.0387,234.07765)"/>
</g>
</svg>
