<?xml version="1.0" encoding="UTF-8" standalone="no"?>
<!DOCTYPE svg PUBLIC "-//W3C//DTD SVG 1.1//EN" "http://www.w3.org/Graphics/SVG/1.1/DTD/svg11.dtd">
<svg xmlns="http://www.w3.org/2000/svg" xmlns:xlink="http://www.w3.org/1999/xlink" version="1.1" width="584.9055pt" height="485.71943pt" viewBox="0 0 584.9055 485.71943">
<g enable-background="new">
<path transform="matrix(2.7777777,0,0,-2.7777777,10.330556,484.61109)" stroke-width=".79701" stroke-linecap="butt" stroke-miterlimit="10" stroke-linejoin="miter" fill="none" stroke="#000000" d="M 0 47.07405 L 191.6839 47.07405 "/>
<path transform="matrix(2.7777777,0,0,-2.7777777,542.78567,353.84983)" d="M 2.59026 0 L -1.55415 2.0722 L 0 0 L -1.55415 -2.0722 "/>
<path transform="matrix(2.7777777,0,0,-2.7777777,10.330556,484.61109)" stroke-width=".79701" stroke-linecap="butt" stroke-miterlimit="10" stroke-linejoin="miter" fill="none" stroke="#000000" d="M 48.56902 0 L 48.56902 158.80533 "/>
<path transform="matrix(0,-2.7777222,-2.7777222,-0,145.24449,43.485174)" d="M 2.59026 0 L -1.55415 2.0722 L 0 0 L -1.55415 -2.0722 "/>
<clipPath id="cp0">
<path transform="matrix(2.7777777,0,0,-2.7777777,10.330556,484.61109)" d="M 0 0 L 194.27411 0 L 194.27411 161.39556 L 0 161.39556 Z "/>
</clipPath>
<g clip-path="url(#cp0)">
<path transform="matrix(2.7777777,0,0,-2.7777777,10.330556,484.61109)" d="M 48.56734 47.07228 L 48.57114 47.07623 L 48.76558 47.27785 L 48.96007 47.47888 L 49.15456 47.67934 L 49.349 47.87914 L 49.54349 48.07837 L 49.73793 48.27695 L 49.93242 48.47498 L 50.1269 48.67238 L 50.32137 48.86916 L 50.51587 49.06535 L 50.71031 49.26091 L 50.90479 49.45587 L 51.09929 49.65027 L 51.29373 49.844 L 51.4882 50.03716 L 51.68268 50.2297 L 51.87715 50.42165 L 52.07164 50.61298 L 52.2661 50.8037 L 52.46057 50.99384 L 52.65504 51.18332 L 52.84953 51.37224 L 53.044 51.56055 L 53.23846 51.74821 L 53.43294 51.9353 L 53.62741 52.12178 L 53.82188 52.30766 L 54.01636 52.49292 L 54.21083 52.67758 L 54.4053 52.86165 L 54.59976 53.04507 L 54.79427 53.22792 L 54.98874 53.41017 L 55.18318 53.59177 L 55.37769 53.77281 L 55.57213 53.95322 L 55.76662 54.13303 L 55.9611 54.31224 L 56.15555 54.49081 L 56.35004 54.66881 L 56.5445 54.84619 L 56.73897 55.02298 L 56.93347 55.19916 L 57.12793 55.37471 L 57.32242 55.54967 L 57.51686 55.724 L 57.71135 55.89775 L 57.90584 56.07089 L 58.10028 56.24341 L 58.29475 56.41534 L 58.48923 56.58665 L 58.6837 56.75737 L 58.8782 56.92747 L 59.07265 57.09697 L 59.26714 57.26585 L 59.4616 57.43413 L 59.65608 57.60182 L 59.85056 57.7689 L 60.04501 57.93535 L 60.2395 58.10123 L 60.43396 58.26645 L 60.62843 58.43112 L 60.82292 58.59517 L 61.01738 58.75859 L 61.21187 58.92142 L 61.40631 59.08363 L 61.60081 59.24525 L 61.79529 59.40627 L 61.98975 59.56667 L 62.18423 59.72646 L 62.37868 59.88564 L 62.57318 60.04422 L 62.76765 60.20221 L 62.9621 60.35956 L 63.1566 60.51633 L 63.35104 60.67247 L 63.54553 60.82803 L 63.74002 60.98297 L 63.93448 61.1373 L 64.12897 61.29105 L 64.32341 61.44414 L 64.5179 61.59668 L 64.71239 61.7486 L 64.90683 61.89987 L 65.10132 62.0506 L 65.29578 62.20067 L 65.49026 62.35016 L 65.68475 62.49905 L 65.87921 62.6473 L 66.07368 62.79497 L 66.26816 62.94202 L 66.46263 63.08849 L 66.6571 63.23434 L 66.85158 63.37956 L 67.04605 63.52422 L 67.24051 63.66821 L 67.435 63.81165 L 67.62947 63.95445 L 67.82394 64.09665 L 68.01842 64.23828 L 68.21288 64.37924 L 68.40736 64.51964 L 68.60185 64.65944 L 68.7963 64.7986 L 68.99078 64.93718 L 69.18523 65.07512 L 69.37973 65.21248 L 69.5742 65.34924 L 69.76866 65.48535 L 69.96315 65.62091 L 70.15761 65.75583 L 70.35208 65.89015 L 70.54659 66.02388 L 70.74103 66.15698 L 70.93552 66.28947 L 71.12997 66.42137 L 71.32445 66.55266 L 71.51894 66.68335 L 71.7134 66.81343 L 71.90787 66.9429 L 72.10234 67.07175 L 72.29681 67.20001 L 72.49132 67.32768 L 72.68576 67.45471 L 72.88023 67.58115 L 73.0747 67.70697 L 73.26918 67.83221 L 73.46365 67.95683 L 73.65813 68.08084 L 73.8526 68.20424 L 74.04704 68.32703 L 74.24155 68.44922 L 74.43602 68.57083 L 74.6305 68.69179 L 74.82498 68.81218 L 75.01942 68.93192 L 75.21391 69.05109 L 75.4084 69.16966 L 75.60284 69.2876 L 75.79733 69.40494 L 75.99179 69.52167 L 76.18628 69.6378 L 76.38075 69.75333 L 76.57521 69.86824 L 76.7697 69.98254 L 76.96416 70.09624 L 77.15865 70.20934 L 77.35313 70.32184 L 77.54758 70.4337 L 77.74208 70.545 L 77.93652 70.65565 L 78.131 70.76572 L 78.32549 70.87517 L 78.51994 70.98402 L 78.71442 71.09227 L 78.90889 71.1999 L 79.10336 71.30695 L 79.29787 71.41338 L 79.49231 71.51918 L 79.6868 71.62439 L 79.88126 71.72899 L 80.07573 71.833 L 80.27022 71.93639 L 80.46468 72.03915 L 80.65915 72.14134 L 80.8536 72.2429 L 81.0481 72.34389 L 81.24258 72.44424 L 81.43704 72.544 L 81.63153 72.64314 L 81.82597 72.74167 L 82.02048 72.83961 L 82.21495 72.93694 L 82.4094 73.03366 L 82.60388 73.12978 L 82.79834 73.22528 L 82.99283 73.32019 L 83.18732 73.41447 L 83.38176 73.50816 L 83.57626 73.60126 L 83.7707 73.69371 L 83.9652 73.7856 L 84.15968 73.87686 L 84.35413 73.9675 L 84.54863 74.05756 L 84.74307 74.14699 L 84.93755 74.23582 L 85.13205 74.32408 L 85.32649 74.41168 L 85.52098 74.4987 L 85.71544 74.58511 L 85.90993 74.67091 L 86.10442 74.75612 L 86.29887 74.8407 L 86.49335 74.9247 L 86.6878 75.00806 L 86.8823 75.09085 L 87.07677 75.17302 L 87.27122 75.25456 L 87.46571 75.33553 L 87.66016 75.41585 L 87.85466 75.4956 L 88.04913 75.57474 L 88.2436 75.65326 L 88.43808 75.73119 L 88.63252 75.80849 L 88.82703 75.8852 L 89.0215 75.9613 L 89.21594 76.03677 L 89.41045 76.11168 L 89.60489 76.18596 L 89.7994 76.25963 L 89.99387 76.3327 L 90.18832 76.40515 L 90.38281 76.477 L 90.57727 76.54826 L 90.77174 76.61891 L 90.96623 76.68893 L 91.16069 76.75836 L 91.35518 76.8272 L 91.54962 76.8954 L 91.74411 76.96301 L 91.9386 77.03003 L 92.13306 77.09642 L 92.32753 77.16222 L 92.522 77.22739 L 92.71648 77.29196 L 92.91098 77.35594 L 93.10542 77.41931 L 93.2999 77.48206 L 93.49435 77.5442 L 93.68884 77.60576 L 93.88332 77.66669 L 94.07777 77.72702 L 94.27226 77.78676 L 94.46672 77.84586 L 94.66121 77.90437 L 94.8557 77.9623 L 95.05016 78.01959 L 95.24463 78.07628 L 95.43909 78.13235 L 95.63358 78.18784 L 95.82805 78.24272 L 96.0225 78.29698 L 96.217 78.35063 L 96.41144 78.4037 L 96.60594 78.45615 L 96.80043 78.50798 L 96.99487 78.5592 L 97.18936 78.60985 L 97.38382 78.65987 L 97.5783 78.70929 L 97.77278 78.7581 L 97.96724 78.80629 L 98.16173 78.85388 L 98.35617 78.90088 L 98.55066 78.94725 L 98.74515 78.99303 L 98.9396 79.0382 L 99.1341 79.08276 L 99.32855 79.12671 L 99.52303 79.17007 L 99.71751 79.21281 L 99.91197 79.25494 L 100.10645 79.29648 L 100.30092 79.3374 L 100.49539 79.37773 L 100.68987 79.41743 L 100.88434 79.45654 L 101.07881 79.49504 L 101.27327 79.53293 L 101.46777 79.57022 L 101.66225 79.6069 L 101.8567 79.64296 L 102.0512 79.67844 L 102.24564 79.71329 L 102.44012 79.74754 L 102.63461 79.78119 L 102.82906 79.81424 L 103.02354 79.84666 L 103.218 79.87848 L 103.41249 79.90971 L 103.60698 79.94032 L 103.80142 79.97034 L 103.99593 79.99974 L 104.19037 80.02853 L 104.38484 80.05673 L 104.57935 80.0843 L 104.77379 80.11127 L 104.96828 80.13765 L 105.16273 80.1634 L 105.35721 80.18855 L 105.55171 80.2131 L 105.74615 80.23705 L 105.94064 80.26039 L 106.1351 80.28311 L 106.32959 80.30525 L 106.52406 80.32677 L 106.71852 80.34767 L 106.913 80.36797 L 107.10747 80.38768 L 107.30194 80.40677 L 107.49643 80.42525 L 107.69089 80.44313 L 107.88538 80.4604 L 108.07982 80.47707 L 108.27432 80.49313 L 108.4688 80.50858 L 108.66325 80.5234 L 108.85774 80.53766 L 109.05219 80.5513 L 109.24667 80.56432 L 109.44116 80.57674 L 109.6356 80.58855 L 109.83011 80.59976 L 110.02455 80.61035 L 110.21906 80.62036 L 110.41353 80.62973 L 110.60799 80.63852 L 110.80247 80.6467 L 110.99692 80.65427 L 111.1914 80.66124 L 111.3859 80.66757 L 111.58034 80.67332 L 111.77484 80.67847 L 111.96928 80.683 L 112.16377 80.68694 L 112.35826 80.69025 L 112.55272 80.69298 L 112.7472 80.69508 L 112.94165 80.6966 L 113.13614 80.69748 L 113.33061 80.69778 L 113.52507 80.69746 L 113.71956 80.69655 L 113.91402 80.69499 L 114.1085 80.69286 L 114.30298 80.69014 L 114.49745 80.68678 L 114.69193 80.68283 L 114.88638 80.67827 L 115.08087 80.6731 L 115.27534 80.6673 L 115.46982 80.66093 L 115.66429 80.65395 L 115.85873 80.64636 L 116.05324 80.63815 L 116.24771 80.62932 L 116.44217 80.61995 L 116.63666 80.60994 L 116.83112 80.59927 L 117.0256 80.58809 L 117.22008 80.57622 L 117.41454 80.56375 L 117.60902 80.55074 L 117.80347 80.53708 L 117.99796 80.52278 L 118.19244 80.50789 L 118.38689 80.49245 L 118.58139 80.47633 L 118.77585 80.45966 L 118.97032 80.44237 L 119.16483 80.42447 L 119.35927 80.40594 L 119.55374 80.38686 L 119.74821 80.36711 L 119.94269 80.3468 L 120.13716 80.32587 L 120.33163 80.3043 L 120.52611 80.28214 L 120.72057 80.25941 L 120.91505 80.23602 L 121.10953 80.21207 L 121.304 80.18748 L 121.49849 80.1623 L 121.69293 80.13654 L 121.88742 80.11012 L 122.08191 80.08313 L 122.27637 80.05553 L 122.47084 80.02731 L 122.66528 79.99847 L 122.85979 79.96907 L 123.05426 79.93901 L 123.24872 79.90839 L 123.44322 79.87714 L 123.63766 79.84528 L 123.83215 79.81279 L 124.02664 79.77975 L 124.22108 79.74605 L 124.41557 79.71178 L 124.61003 79.6769 L 124.8045 79.64143 L 124.999 79.60532 L 125.19345 79.56863 L 125.38794 79.53128 L 125.5824 79.49342 L 125.77689 79.45483 L 125.97137 79.41576 L 126.16582 79.37598 L 126.36029 79.33565 L 126.55476 79.29471 L 126.74924 79.25314 L 126.94371 79.21098 L 127.13818 79.16824 L 127.33266 79.12485 L 127.52713 79.08087 L 127.7216 79.03629 L 127.91609 78.99109 L 128.11055 78.94527 L 128.30504 78.89883 L 128.49948 78.85185 L 128.69397 78.80423 L 128.88846 78.756 L 129.08292 78.70715 L 129.27739 78.6577 L 129.47185 78.60768 L 129.66634 78.55699 L 129.86083 78.50574 L 130.05527 78.45392 L 130.24977 78.40143 L 130.44422 78.34833 L 130.63872 78.29466 L 130.83319 78.24034 L 131.02764 78.18542 L 131.22214 78.12993 L 131.41658 78.07384 L 131.61106 78.01709 L 131.80556 77.9598 L 132 77.90186 L 132.1945 77.84332 L 132.38895 77.78421 L 132.58344 77.7244 L 132.77793 77.66406 L 132.97237 77.60312 L 133.16686 77.54155 L 133.36132 77.47937 L 133.55579 77.41656 L 133.75028 77.35315 L 133.94474 77.28917 L 134.13922 77.22458 L 134.33368 77.15936 L 134.52817 77.09354 L 134.72264 77.02716 L 134.91712 76.9601 L 135.11159 76.89249 L 135.30603 76.82423 L 135.50054 76.75539 L 135.695 76.68591 L 135.88947 76.61588 L 136.08394 76.5452 L 136.2784 76.47392 L 136.4729 76.40205 L 136.66738 76.32954 L 136.86183 76.25644 L 137.05632 76.18275 L 137.25077 76.10847 L 137.44527 76.03351 L 137.63974 75.958 L 137.83419 75.8819 L 138.02869 75.80516 L 138.22313 75.72784 L 138.41762 75.6499 L 138.6121 75.57135 L 138.80657 75.49219 L 139.00104 75.4124 L 139.19551 75.33206 L 139.38999 75.25105 L 139.58448 75.16943 L 139.77893 75.08728 L 139.9734 75.00447 L 140.16786 74.92105 L 140.36235 74.83707 L 140.55683 74.75247 L 140.7513 74.66725 L 140.94577 74.58136 L 141.14025 74.49496 L 141.33472 74.40788 L 141.5292 74.32027 L 141.72367 74.23201 L 141.91814 74.14316 L 142.11258 74.05368 L 142.30709 73.9636 L 142.50156 73.87292 L 142.69602 73.78165 L 142.8905 73.68971 L 143.08496 73.59721 L 143.27945 73.50414 L 143.47394 73.4104 L 143.66838 73.31612 L 143.86287 73.22119 L 144.05733 73.12566 L 144.25182 73.02951 L 144.44629 72.9327 L 144.64075 72.83537 L 144.83524 72.73743 L 145.02968 72.63887 L 145.22417 72.5397 L 145.41866 72.43991 L 145.61312 72.33955 L 145.80759 72.23853 L 146.00206 72.13695 L 146.19654 72.03468 L 146.39104 71.93193 L 146.58548 71.82849 L 146.77996 71.72444 L 146.97441 71.61984 L 147.1689 71.51462 L 147.36338 71.40877 L 147.55785 71.30235 L 147.75232 71.19528 L 147.9468 71.08763 L 148.14127 70.97928 L 148.33576 70.8704 L 148.53022 70.76097 L 148.72469 70.65086 L 148.91915 70.5402 L 149.11363 70.42888 L 149.3081 70.31697 L 149.50258 70.20447 L 149.69705 70.09132 L 149.89151 69.97758 L 150.086 69.86328 L 150.28049 69.74835 L 150.47493 69.63277 L 150.66944 69.51666 L 150.86388 69.39989 L 151.05837 69.28249 L 151.25284 69.16454 L 151.4473 69.04597 L 151.64179 68.92676 L 151.83625 68.80695 L 152.03072 68.68658 L 152.22522 68.56555 L 152.41967 68.44395 L 152.61415 68.32175 L 152.80861 68.19893 L 153.00308 68.07553 L 153.19759 67.95142 L 153.39203 67.8268 L 153.5865 67.70152 L 153.78098 67.57565 L 153.97545 67.44923 L 154.16994 67.32216 L 154.3644 67.19452 L 154.55889 67.0662 L 154.75334 66.93736 L 154.94783 66.80775 L 155.1423 66.6777 L 155.33676 66.54697 L 155.53125 66.4157 L 155.7257 66.28378 L 155.92018 66.15126 L 156.11467 66.01813 L 156.30913 65.88437 L 156.50362 65.75 L 156.69806 65.61511 L 156.89257 65.47946 L 157.08704 65.34329 L 157.28148 65.20657 L 157.47599 65.06917 L 157.67043 64.93121 L 157.86492 64.79263 L 158.0594 64.65334 L 158.25385 64.51363 L 158.44835 64.37315 L 158.64279 64.23212 L 158.83728 64.09052 L 159.03177 63.94829 L 159.22623 63.80547 L 159.4207 63.662 L 159.61516 63.51799 L 159.80965 63.3733 L 160.00414 63.22801 L 160.19858 63.0822 L 160.39305 62.93567 L 160.58753 62.78857 L 160.78202 62.64091 L 160.97649 62.49258 L 161.17096 62.3437 L 161.36544 62.1942 L 161.55989 62.04413 L 161.75438 61.89339 L 161.94886 61.74199 L 162.14331 61.59007 L 162.3378 61.43755 L 162.53224 61.2844 L 162.72673 61.13063 L 162.92122 60.9763 L 163.11569 60.82137 L 163.31017 60.66576 L 163.50463 60.50958 L 163.69911 60.35272 L 163.89359 60.19537 L 164.08805 60.03737 L 164.28253 59.87877 L 164.47698 59.71956 L 164.67148 59.55975 L 164.86595 59.39932 L 165.0604 59.23831 L 165.2549 59.0766 L 165.44936 58.91438 L 165.64383 58.75154 L 165.83834 58.58807 L 166.03278 58.424 L 166.22725 58.25935 L 166.4217 58.09406 L 166.6162 57.92818 L 166.81069 57.76169 L 167.00513 57.59464 L 167.19962 57.42686 L 167.39409 57.25853 L 167.58856 57.08965 L 167.78305 56.92012 L 167.97751 56.75 L 168.17198 56.57925 L 168.36646 56.40794 L 168.56093 56.23602 L 168.7554 56.06337 L 168.94988 55.89021 L 169.14435 55.71645 L 169.33879 55.54211 L 169.5333 55.3671 L 169.72777 55.19153 L 169.92224 55.01535 L 170.11672 54.83855 L 170.31118 54.66118 L 170.50566 54.48315 L 170.70014 54.30446 L 170.89459 54.12524 L 171.08908 53.94542 L 171.28353 53.76497 L 171.47803 53.58397 L 171.6725 53.4023 L 171.86696 53.22005 L 172.06145 53.0371 L 172.2559 52.85373 L 172.45038 52.66959 L 172.64488 52.4849 L 172.83933 52.29964 L 173.0338 52.11374 L 173.22827 51.92725 L 173.42275 51.74014 L 173.61724 51.55241 L 173.81169 51.36412 L 174.00617 51.17511 L 174.20064 50.98564 L 174.39511 50.79544 L 174.5896 50.60469 L 174.78406 50.41333 L 174.97855 50.22139 L 175.173 50.02884 L 175.36748 49.83566 L 175.56197 49.64178 L 175.75643 49.44754 L 175.9509 49.25243 L 176.14536 49.05685 L 176.33985 48.86066 L 176.53433 48.66385 L 176.72879 48.46642 L 176.92328 48.26843 L 177.11772 48.06978 L 177.31221 47.87054 L 177.5067 47.67061 L 177.70114 47.47015 L 177.89563 47.2691 L 178.08545 47.07228 L 178.08206 47.07227 L 177.89563 46.87897 L 177.70114 46.67792 L 177.5067 46.47746 L 177.31221 46.27753 L 177.11772 46.0783 L 176.92328 45.87964 L 176.72879 45.68166 L 176.53433 45.48422 L 176.33985 45.28741 L 176.14536 45.09122 L 175.9509 44.89565 L 175.75643 44.70053 L 175.56197 44.50629 L 175.36748 44.31241 L 175.173 44.11923 L 174.97855 43.92668 L 174.78406 43.73474 L 174.5896 43.54338 L 174.39511 43.35263 L 174.20064 43.16245 L 174.00617 42.97296 L 173.81169 42.78395 L 173.61724 42.59566 L 173.42275 42.40793 L 173.22827 42.22083 L 173.0338 42.03433 L 172.83933 41.84843 L 172.64488 41.66318 L 172.45038 41.47849 L 172.2559 41.29434 L 172.06145 41.11098 L 171.86696 40.92802 L 171.6725 40.74577 L 171.47803 40.5641 L 171.28353 40.3831 L 171.08908 40.20265 L 170.89459 40.02283 L 170.70014 39.84361 L 170.50566 39.66492 L 170.31118 39.4869 L 170.11672 39.30952 L 169.92224 39.13272 L 169.72777 38.95654 L 169.5333 38.78098 L 169.33879 38.60596 L 169.14435 38.43163 L 168.94988 38.25786 L 168.7554 38.0847 L 168.56093 37.91205 L 168.36646 37.74013 L 168.17198 37.56882 L 167.97751 37.39807 L 167.78305 37.22795 L 167.58856 37.05843 L 167.39409 36.88954 L 167.19962 36.7212 L 167.00513 36.55344 L 166.81069 36.38638 L 166.6162 36.2199 L 166.4217 36.05402 L 166.22725 35.88872 L 166.03278 35.72408 L 165.83834 35.56 L 165.64383 35.39653 L 165.44936 35.23369 L 165.2549 35.07147 L 165.0604 34.90976 L 164.86595 34.74875 L 164.67148 34.58832 L 164.47698 34.42851 L 164.28253 34.2693 L 164.08805 34.1107 L 163.89359 33.9527 L 163.69911 33.79535 L 163.50463 33.63849 L 163.31017 33.48232 L 163.11569 33.3267 L 162.92122 33.17177 L 162.72673 33.01744 L 162.53224 32.86368 L 162.3378 32.71053 L 162.14331 32.558 L 161.94886 32.40608 L 161.75438 32.25468 L 161.55989 32.10394 L 161.36544 31.95387 L 161.17096 31.80437 L 160.97649 31.65549 L 160.78202 31.50716 L 160.58753 31.3595 L 160.39305 31.2124 L 160.19858 31.06587 L 160.00414 30.92006 L 159.80965 30.77477 L 159.61516 30.63008 L 159.4207 30.48607 L 159.22623 30.3426 L 159.03177 30.19978 L 158.83728 30.05756 L 158.64279 29.91595 L 158.44835 29.77492 L 158.25385 29.63445 L 158.0594 29.49474 L 157.86492 29.35544 L 157.67043 29.21686 L 157.47599 29.0789 L 157.28148 28.9415 L 157.08704 28.80478 L 156.89257 28.66861 L 156.69806 28.53296 L 156.50362 28.39807 L 156.30913 28.2637 L 156.11467 28.12994 L 155.92018 27.99681 L 155.7257 27.86429 L 155.53125 27.73239 L 155.33676 27.6011 L 155.1423 27.47037 L 154.94783 27.34032 L 154.75334 27.21071 L 154.55889 27.08188 L 154.3644 26.95355 L 154.16994 26.82593 L 153.97545 26.69884 L 153.78098 26.57242 L 153.5865 26.44655 L 153.39203 26.32127 L 153.19759 26.19666 L 153.00308 26.07254 L 152.80861 25.94914 L 152.61415 25.82632 L 152.41967 25.70412 L 152.22522 25.58252 L 152.03072 25.46149 L 151.83625 25.34113 L 151.64179 25.22131 L 151.4473 25.1021 L 151.25284 24.98354 L 151.05837 24.86559 L 150.86388 24.74818 L 150.66944 24.63141 L 150.47493 24.5153 L 150.28049 24.39972 L 150.086 24.28479 L 149.89151 24.17049 L 149.69705 24.05675 L 149.50258 23.9436 L 149.3081 23.8311 L 149.11363 23.7192 L 148.91915 23.60786 L 148.72469 23.49721 L 148.53022 23.3871 L 148.33576 23.27766 L 148.14127 23.1688 L 147.9468 23.06044 L 147.75232 22.95279 L 147.55785 22.84572 L 147.36338 22.7393 L 147.1689 22.63345 L 146.97441 22.52823 L 146.77996 22.42363 L 146.58548 22.31958 L 146.39104 22.21616 L 146.19654 22.11339 L 146.00206 22.01112 L 145.80759 21.90955 L 145.61312 21.80852 L 145.41866 21.70816 L 145.22417 21.60837 L 145.02968 21.5092 L 144.83524 21.41064 L 144.64075 21.3127 L 144.44629 21.21538 L 144.25182 21.11856 L 144.05733 21.02242 L 143.86287 20.92688 L 143.66838 20.83197 L 143.47394 20.73767 L 143.27945 20.64394 L 143.08496 20.55086 L 142.8905 20.45836 L 142.69602 20.36642 L 142.50156 20.27515 L 142.30709 20.18448 L 142.11258 20.09439 L 141.91814 20.00491 L 141.72367 19.91606 L 141.5292 19.8278 L 141.33472 19.74019 L 141.14025 19.6531 L 140.94577 19.56671 L 140.7513 19.48082 L 140.55683 19.3956 L 140.36235 19.311 L 140.16786 19.22702 L 139.9734 19.1436 L 139.77893 19.06079 L 139.58448 18.97864 L 139.38999 18.89702 L 139.19551 18.81601 L 139.00104 18.73567 L 138.80657 18.65588 L 138.6121 18.57672 L 138.41762 18.49817 L 138.22313 18.42023 L 138.02869 18.34291 L 137.83419 18.26617 L 137.63974 18.19008 L 137.44527 18.11456 L 137.25077 18.0396 L 137.05632 17.96532 L 136.86183 17.89163 L 136.66738 17.81853 L 136.4729 17.74602 L 136.2784 17.67415 L 136.08394 17.60287 L 135.88947 17.5322 L 135.695 17.46216 L 135.50054 17.39268 L 135.30603 17.32384 L 135.11159 17.25558 L 134.91712 17.18797 L 134.72264 17.12091 L 134.52817 17.05453 L 134.33368 16.98871 L 134.13922 16.9235 L 133.94474 16.8589 L 133.75028 16.79492 L 133.55579 16.7315 L 133.36132 16.6687 L 133.16686 16.60652 L 132.97237 16.54495 L 132.77793 16.48401 L 132.58344 16.42368 L 132.38895 16.36386 L 132.1945 16.30475 L 132 16.24622 L 131.80556 16.18828 L 131.61106 16.13098 L 131.41658 16.07423 L 131.22214 16.01814 L 131.02764 15.96265 L 130.83319 15.90775 L 130.63872 15.85341 L 130.44422 15.79974 L 130.24977 15.74664 L 130.05527 15.69415 L 129.86083 15.64235 L 129.66634 15.59108 L 129.47185 15.54039 L 129.27739 15.49037 L 129.08292 15.44092 L 128.88846 15.39207 L 128.69397 15.34384 L 128.49948 15.29622 L 128.30504 15.24924 L 128.11055 15.2028 L 127.91609 15.15698 L 127.7216 15.11179 L 127.52713 15.0672 L 127.33266 15.02322 L 127.13818 14.97983 L 126.94371 14.93709 L 126.74924 14.89493 L 126.55476 14.85336 L 126.36029 14.81242 L 126.16582 14.7721 L 125.97137 14.73232 L 125.77689 14.69324 L 125.5824 14.65465 L 125.38794 14.61679 L 125.19345 14.57944 L 124.999 14.54276 L 124.8045 14.50664 L 124.61003 14.47118 L 124.41557 14.4363 L 124.22108 14.40202 L 124.02664 14.36832 L 123.83215 14.33528 L 123.63766 14.3028 L 123.44322 14.27094 L 123.24872 14.23969 L 123.05426 14.20906 L 122.85979 14.179 L 122.66528 14.1496 L 122.47084 14.12076 L 122.27637 14.09254 L 122.08191 14.06494 L 121.88742 14.03795 L 121.69293 14.01154 L 121.49849 13.98578 L 121.304 13.96059 L 121.10953 13.936 L 120.91505 13.91205 L 120.72057 13.88866 L 120.52611 13.86594 L 120.33163 13.84377 L 120.13716 13.8222 L 119.94269 13.80127 L 119.74821 13.78096 L 119.55374 13.76122 L 119.35927 13.74213 L 119.16483 13.7236 L 118.97032 13.7057 L 118.77585 13.68842 L 118.58139 13.67174 L 118.38689 13.65562 L 118.19244 13.64018 L 117.99796 13.6253 L 117.80347 13.611 L 117.60902 13.59734 L 117.41454 13.58432 L 117.22008 13.57185 L 117.0256 13.55998 L 116.83112 13.5488 L 116.63666 13.53813 L 116.44217 13.52812 L 116.24771 13.51875 L 116.05324 13.50992 L 115.85873 13.50171 L 115.66429 13.49413 L 115.46982 13.48714 L 115.27534 13.48077 L 115.08087 13.47498 L 114.88638 13.4698 L 114.69193 13.46524 L 114.49745 13.46129 L 114.30298 13.45793 L 114.1085 13.45522 L 113.91402 13.45308 L 113.71956 13.45152 L 113.52507 13.4506 L 113.33061 13.4503 L 113.13614 13.45059 L 112.94165 13.45148 L 112.7472 13.45299 L 112.55272 13.4551 L 112.35826 13.45782 L 112.16377 13.46114 L 111.96928 13.46507 L 111.77484 13.4696 L 111.58034 13.47475 L 111.3859 13.4805 L 111.1914 13.48683 L 110.99692 13.4938 L 110.80247 13.50137 L 110.60799 13.50955 L 110.41353 13.51834 L 110.21906 13.52771 L 110.02455 13.53772 L 109.83011 13.54831 L 109.6356 13.55952 L 109.44116 13.57133 L 109.24667 13.58376 L 109.05219 13.59677 L 108.85774 13.61041 L 108.66325 13.62466 L 108.4688 13.6395 L 108.27432 13.65494 L 108.07982 13.671 L 107.88538 13.68767 L 107.69089 13.70494 L 107.49643 13.72282 L 107.30194 13.7413 L 107.10747 13.76039 L 106.913 13.7801 L 106.71852 13.8004 L 106.52406 13.8213 L 106.32959 13.84282 L 106.1351 13.86496 L 105.94064 13.88768 L 105.74615 13.91103 L 105.55171 13.93497 L 105.35721 13.95952 L 105.16273 13.98466 L 104.96828 14.01042 L 104.77379 14.0368 L 104.57935 14.06377 L 104.38484 14.09134 L 104.19037 14.11954 L 103.99593 14.14833 L 103.80142 14.17773 L 103.60698 14.20775 L 103.41249 14.23836 L 103.218 14.26959 L 103.02354 14.3014 L 102.82906 14.33383 L 102.63461 14.36688 L 102.44012 14.40053 L 102.24564 14.43478 L 102.0512 14.46964 L 101.8567 14.50511 L 101.66225 14.54117 L 101.46777 14.57785 L 101.27327 14.61514 L 101.07881 14.65303 L 100.88434 14.69153 L 100.68987 14.73064 L 100.49539 14.77034 L 100.30092 14.81067 L 100.10645 14.8516 L 99.91197 14.89313 L 99.71751 14.93526 L 99.52303 14.978 L 99.32855 15.02136 L 99.1341 15.0653 L 98.9396 15.10988 L 98.74515 15.15504 L 98.55066 15.20082 L 98.35617 15.2472 L 98.16173 15.29419 L 97.96724 15.34178 L 97.77278 15.38997 L 97.5783 15.43878 L 97.38382 15.4882 L 97.18936 15.53822 L 96.99487 15.58887 L 96.80043 15.64009 L 96.60594 15.69193 L 96.41144 15.74438 L 96.217 15.79744 L 96.0225 15.85109 L 95.82805 15.90535 L 95.63358 15.96024 L 95.43909 16.01572 L 95.24463 16.0718 L 95.05016 16.12848 L 94.8557 16.18578 L 94.66121 16.2437 L 94.46672 16.30222 L 94.27226 16.36131 L 94.07777 16.42105 L 93.88332 16.48138 L 93.68884 16.54231 L 93.49435 16.60387 L 93.2999 16.66602 L 93.10542 16.72876 L 92.91098 16.79213 L 92.71648 16.85611 L 92.522 16.92068 L 92.32753 16.98586 L 92.13306 17.05165 L 91.9386 17.11804 L 91.74411 17.18506 L 91.54962 17.25267 L 91.35518 17.32088 L 91.16069 17.38971 L 90.96623 17.45914 L 90.77174 17.52916 L 90.57727 17.59981 L 90.38281 17.67107 L 90.18832 17.74292 L 89.99387 17.81537 L 89.7994 17.88844 L 89.60489 17.96211 L 89.41045 18.03639 L 89.21594 18.1113 L 89.0215 18.18677 L 88.82703 18.26288 L 88.63252 18.33958 L 88.43808 18.41689 L 88.2436 18.49481 L 88.04913 18.57333 L 87.85466 18.65247 L 87.66016 18.73222 L 87.46571 18.81255 L 87.27122 18.89351 L 87.07677 18.97505 L 86.8823 19.05722 L 86.6878 19.14001 L 86.49335 19.22337 L 86.29887 19.30737 L 86.10442 19.39195 L 85.90993 19.47716 L 85.71544 19.56296 L 85.52098 19.64937 L 85.32649 19.73639 L 85.13205 19.82399 L 84.93755 19.91225 L 84.74307 20.00108 L 84.54863 20.09052 L 84.35413 20.18057 L 84.15968 20.27121 L 83.9652 20.36247 L 83.7707 20.45436 L 83.57626 20.54681 L 83.38176 20.63991 L 83.18732 20.7336 L 82.99283 20.8279 L 82.79834 20.92279 L 82.60388 21.0183 L 82.4094 21.11441 L 82.21495 21.21114 L 82.02048 21.30846 L 81.82597 21.4064 L 81.63153 21.50493 L 81.43704 21.60406 L 81.24258 21.70383 L 81.0481 21.80418 L 80.8536 21.90517 L 80.65915 22.00673 L 80.46468 22.10892 L 80.27022 22.21169 L 80.07573 22.31508 L 79.88126 22.41908 L 79.6868 22.52368 L 79.49231 22.62889 L 79.29787 22.73471 L 79.10336 22.84113 L 78.90889 22.94817 L 78.71442 23.0558 L 78.51994 23.16405 L 78.32549 23.2729 L 78.131 23.38235 L 77.93652 23.49242 L 77.74208 23.60307 L 77.54758 23.71437 L 77.35313 23.82623 L 77.15865 23.93874 L 76.96416 24.05183 L 76.7697 24.16553 L 76.57521 24.27983 L 76.38075 24.39474 L 76.18628 24.51027 L 75.99179 24.6264 L 75.79733 24.74313 L 75.60284 24.86047 L 75.4084 24.97841 L 75.21391 25.09698 L 75.01942 25.21616 L 74.82498 25.33589 L 74.6305 25.45628 L 74.43602 25.57724 L 74.24155 25.69885 L 74.04704 25.82104 L 73.8526 25.94383 L 73.65813 26.06723 L 73.46365 26.19124 L 73.26918 26.31586 L 73.0747 26.4411 L 72.88023 26.56693 L 72.68576 26.69336 L 72.49132 26.82039 L 72.29681 26.94806 L 72.10234 27.07632 L 71.90787 27.20517 L 71.7134 27.33464 L 71.51894 27.46472 L 71.32445 27.59541 L 71.12997 27.7267 L 70.93552 27.8586 L 70.74103 27.99109 L 70.54659 28.12419 L 70.35208 28.25792 L 70.15761 28.39224 L 69.96315 28.52716 L 69.76866 28.66272 L 69.5742 28.79883 L 69.37973 28.9356 L 69.18523 29.07295 L 68.99078 29.21089 L 68.7963 29.34947 L 68.60185 29.48863 L 68.40736 29.62843 L 68.21288 29.76883 L 68.01842 29.90979 L 67.82394 30.05142 L 67.62947 30.19362 L 67.435 30.33643 L 67.24051 30.47986 L 67.04605 30.62386 L 66.85158 30.76851 L 66.6571 30.91373 L 66.46263 31.05959 L 66.26816 31.20605 L 66.07368 31.3531 L 65.87921 31.50078 L 65.68475 31.64902 L 65.49026 31.79791 L 65.29578 31.9474 L 65.10132 32.09747 L 64.90683 32.2482 L 64.71239 32.39948 L 64.5179 32.55139 L 64.32341 32.70393 L 64.12897 32.85703 L 63.93448 33.01077 L 63.74002 33.1651 L 63.54553 33.32004 L 63.35104 33.4756 L 63.1566 33.63174 L 62.9621 33.78851 L 62.76765 33.94586 L 62.57318 34.10385 L 62.37868 34.26244 L 62.18423 34.42162 L 61.98975 34.5814 L 61.79529 34.7418 L 61.60081 34.90282 L 61.40631 35.06444 L 61.21187 35.22665 L 61.01738 35.38948 L 60.82292 35.5529 L 60.62843 35.71695 L 60.43396 35.88162 L 60.2395 36.04684 L 60.04501 36.21272 L 59.85056 36.37917 L 59.65608 36.54625 L 59.4616 36.71394 L 59.26714 36.88222 L 59.07265 37.0511 L 58.8782 37.2206 L 58.6837 37.3907 L 58.48923 37.56142 L 58.29475 37.73273 L 58.10028 37.90466 L 57.90584 38.07718 L 57.71135 38.25032 L 57.51686 38.42407 L 57.32242 38.5984 L 57.12793 38.77336 L 56.93347 38.94891 L 56.73897 39.12509 L 56.5445 39.30188 L 56.35004 39.47926 L 56.15555 39.65726 L 55.9611 39.83583 L 55.76662 40.01505 L 55.57213 40.19485 L 55.37769 40.37526 L 55.18318 40.5563 L 54.98874 40.7379 L 54.79427 40.92015 L 54.59976 41.103 L 54.4053 41.28642 L 54.21083 41.47049 L 54.01636 41.65515 L 53.82188 41.84041 L 53.62741 42.02629 L 53.43294 42.21277 L 53.23846 42.39986 L 53.044 42.58752 L 52.84953 42.77583 L 52.65504 42.96475 L 52.46057 43.15425 L 52.2661 43.34438 L 52.07164 43.5351 L 51.87715 43.72643 L 51.68268 43.91837 L 51.4882 44.11092 L 51.29373 44.30408 L 51.09929 44.4978 L 50.90479 44.6922 L 50.71031 44.88716 L 50.51587 45.08272 L 50.32137 45.27892 L 50.1269 45.4757 L 49.93242 45.6731 L 49.73793 45.87112 L 49.54349 46.0697 L 49.349 46.26894 L 49.15456 46.46873 L 48.96007 46.66919 L 48.76558 46.87022 L 48.57114 47.07184 L 48.57068 47.07231 Z " fill="#0000ff" fill-opacity=".3"/>
</g>
<clipPath id="cp1">
<path transform="matrix(2.7777777,0,0,-2.7777777,10.330556,484.61109)" d="M 0 0 L 194.27411 0 L 194.27411 161.39556 L 0 161.39556 Z "/>
</clipPath>
<g clip-path="url(#cp1)">
<path transform="matrix(2.7777777,0,0,-2.7777777,10.330556,484.61109)" stroke-width=".79701" stroke-linecap="butt" stroke-miterlimit="10" stroke-linejoin="miter" fill="none" stroke="#00ff00" d="M -16.18835 -53.79715 L -15.99388 -53.39357 L -15.79941 -52.99055 L -15.60495 -52.58818 L -15.41046 -52.1864 L -15.216 -51.78525 L -15.02153 -51.38467 L -14.82706 -50.98473 L -14.63258 -50.58537 L -14.4381 -50.1866 L -14.24364 -49.78847 L -14.04916 -49.39093 L -13.85468 -48.994 L -13.66022 -48.59769 L -13.46574 -48.20198 L -13.27127 -47.80687 L -13.0768 -47.41238 L -12.88231 -47.01846 L -12.68785 -46.62517 L -12.49338 -46.2325 L -12.2989 -45.84042 L -12.10443 -45.44896 L -11.90997 -45.05809 L -11.71548 -44.66785 L -11.52101 -44.2782 L -11.32652 -43.88914 L -11.13206 -43.5007 L -10.93759 -43.11288 L -10.74312 -42.72565 L -10.54865 -42.33904 L -10.35419 -41.95303 L -10.1597 -41.56763 L -9.96524 -41.18283 L -9.77077 -40.79863 L -9.57628 -40.41504 L -9.3818 -40.03206 L -9.18733 -39.64969 L -8.99286 -39.26793 L -8.7984 -38.88678 L -8.60391 -38.50623 L -8.40945 -38.12628 L -8.21498 -37.74695 L -8.0205 -37.3682 L -7.82602 -36.99007 L -7.63155 -36.61256 L -7.43707 -36.23564 L -7.24261 -35.85933 L -7.04813 -35.48363 L -6.85367 -35.10855 L -6.6592 -34.73407 L -6.4647 -34.36015 L -6.27025 -33.9869 L -6.07576 -33.61423 L -5.8813 -33.24216 L -5.68683 -32.87071 L -5.49234 -32.49986 L -5.29788 -32.12964 L -5.10341 -31.76 L -4.90892 -31.39095 L -4.71446 -31.02252 L -4.51999 -30.65471 L -4.32552 -30.2875 L -4.13104 -29.92091 L -3.93657 -29.5549 L -3.7421 -29.18953 L -3.54764 -28.82474 L -3.35315 -28.46056 L -3.15868 -28.09697 L -2.9642 -27.73401 L -2.76973 -27.37166 L -2.57526 -27.0099 L -2.38078 -26.64877 L -2.18631 -26.28822 L -1.99185 -25.9283 L -1.79736 -25.56897 L -1.60289 -25.21024 L -1.40842 -24.85213 L -1.21394 -24.49461 L -1.01947 -24.13773 L -.825 -23.78143 L -.63052 -23.42575 L -.43607 -23.07066 L -.24158 -22.7162 L -.0471 -22.36232 L .14735 -22.00905 L .34183 -21.65642 L .5363 -21.30437 L .73077 -20.95293 L .92525 -20.6021 L 1.1197 -20.25186 L 1.3142 -19.90224 L 1.50865 -19.55324 L 1.70313 -19.2048 L 1.89761 -18.85701 L 2.09207 -18.50981 L 2.28654 -18.16322 L 2.48103 -17.81725 L 2.67549 -17.47186 L 2.86998 -17.1271 L 3.06444 -16.78294 L 3.25891 -16.43936 L 3.4534 -16.09639 L 3.64786 -15.75409 L 3.84233 -15.41234 L 4.0368 -15.07123 L 4.23128 -14.73068 L 4.42577 -14.39075 L 4.62022 -14.05147 L 4.8147 -13.71274 L 5.00916 -13.37468 L 5.20364 -13.03716 L 5.39812 -12.70026 L 5.59259 -12.364 L 5.78706 -12.0283 L 5.98154 -11.69328 L 6.17601 -11.35881 L 6.3705 -11.0249 L 6.56496 -10.6917 L 6.75943 -10.35904 L 6.95389 -10.02704 L 7.14838 -9.69559 L 7.34285 -9.36476 L 7.53732 -9.03456 L 7.7318 -8.70494 L 7.92625 -8.37598 L 8.12074 -8.04755 L 8.31523 -7.71974 L 8.50967 -7.3926 L 8.70416 -7.06601 L 8.89862 -6.74005 L 9.0931 -6.41467 L 9.28758 -6.0899 L 9.48204 -5.76576 L 9.67653 -5.44221 L 9.87099 -5.11932 L 10.06546 -4.79695 L 10.25996 -4.4752 L 10.4544 -4.15413 L 10.6489 -3.83359 L 10.84335 -3.51372 L 11.03783 -3.1944 L 11.23233 -2.87567 L 11.42677 -2.55763 L 11.62125 -2.24014 L 11.81572 -1.92328 L 12.0102 -1.60701 L 12.20468 -1.29132 L 12.39914 -.97629 L 12.59363 -.66183 L 12.78809 -.34802 L 12.98257 -.03477 L 13.17705 .27785 L 13.3715 .58984 L 13.56598 .90128 L 13.76044 1.21207 L 13.95493 1.52228 L 14.14941 1.83188 L 14.34387 2.14085 L 14.53836 2.44925 L 14.7328 2.75699 L 14.9273 3.0642 L 15.12178 3.37077 L 15.31622 3.67668 L 15.51073 3.98206 L 15.70517 4.28677 L 15.89964 4.59093 L 16.09415 4.89449 L 16.28859 5.19739 L 16.4831 5.49971 L 16.67754 5.8014 L 16.87202 6.10252 L 17.06651 6.40302 L 17.26097 6.7029 L 17.45544 7.00221 L 17.6499 7.30084 L 17.84439 7.59894 L 18.03888 7.89642 L 18.23332 8.19325 L 18.4278 8.4895 L 18.62227 8.78514 L 18.81676 9.0802 L 19.01123 9.37465 L 19.2057 9.66846 L 19.40018 9.96169 L 19.59464 10.25426 L 19.78912 10.54631 L 19.9836 10.8377 L 20.17805 11.12846 L 20.37254 11.41869 L 20.56699 11.70824 L 20.76147 11.99722 L 20.95596 12.28563 L 21.15044 12.57335 L 21.34491 12.86052 L 21.53937 13.14705 L 21.73386 13.433 L 21.92833 13.71835 L 22.12279 14.00307 L 22.31728 14.28719 L 22.51172 14.57068 L 22.7062 14.85362 L 22.9007 15.13594 L 23.09514 15.4176 L 23.28964 15.6987 L 23.4841 15.97917 L 23.67857 16.25905 L 23.87306 16.53835 L 24.06752 16.81699 L 24.262 17.09506 L 24.45645 17.37248 L 24.65094 17.64935 L 24.84543 17.9256 L 25.03987 18.2012 L 25.23436 18.47626 L 25.42882 18.75064 L 25.6233 19.02446 L 25.8178 19.2977 L 26.01225 19.57028 L 26.20673 19.84229 L 26.4012 20.11363 L 26.59567 20.38443 L 26.79015 20.65462 L 26.98462 20.92418 L 27.1791 21.19315 L 27.37354 21.46147 L 27.56804 21.72925 L 27.76251 21.99638 L 27.95699 22.26291 L 28.15146 22.52884 L 28.34592 22.79414 L 28.5404 23.05887 L 28.73488 23.323 L 28.92934 23.58649 L 29.12383 23.8494 L 29.31827 24.11165 L 29.51276 24.37335 L 29.70724 24.63445 L 29.9017 24.89488 L 30.09619 25.15479 L 30.29065 25.414 L 30.48512 25.67267 L 30.67963 25.93074 L 30.87407 26.18814 L 31.06854 26.44499 L 31.26302 26.70119 L 31.45749 26.95682 L 31.65198 27.21185 L 31.84644 27.46625 L 32.04091 27.72006 L 32.23538 27.97322 L 32.42986 28.22583 L 32.62434 28.47781 L 32.8188 28.72916 L 33.01328 28.97993 L 33.20775 29.23009 L 33.40222 29.47964 L 33.5967 29.7286 L 33.79117 29.97693 L 33.98564 30.22467 L 34.1801 30.47177 L 34.37459 30.7183 L 34.56908 30.96425 L 34.76352 31.20952 L 34.95802 31.45425 L 35.15247 31.69832 L 35.34695 31.94182 L 35.54144 32.18472 L 35.73589 32.42697 L 35.93037 32.66866 L 36.12483 32.9097 L 36.3193 33.15016 L 36.51381 33.39003 L 36.70825 33.62924 L 36.90276 33.8679 L 37.0972 34.10591 L 37.29169 34.34334 L 37.48618 34.58017 L 37.68062 34.81638 L 37.87509 35.05197 L 38.06956 35.28696 L 38.26404 35.52136 L 38.45853 35.75516 L 38.65298 35.98833 L 38.84747 36.22092 L 39.04193 36.45285 L 39.23642 36.68422 L 39.4309 36.915 L 39.62535 37.14511 L 39.81984 37.37466 L 40.0143 37.60358 L 40.20877 37.83191 L 40.40326 38.05965 L 40.59772 38.28676 L 40.7922 38.51326 L 40.98665 38.73915 L 41.18115 38.96446 L 41.37563 39.18915 L 41.57008 39.41322 L 41.76457 39.6367 L 41.95901 39.85954 L 42.15352 40.08183 L 42.34799 40.3035 L 42.54243 40.52452 L 42.73692 40.74498 L 42.93138 40.9648 L 43.12587 41.18404 L 43.32036 41.40265 L 43.51482 41.62067 L 43.7093 41.83809 L 43.90375 42.05487 L 44.09824 42.27109 L 44.29272 42.48668 L 44.48717 42.70164 L 44.68166 42.91605 L 44.87611 43.12979 L 45.07059 43.34297 L 45.26509 43.55554 L 45.45955 43.76746 L 45.65402 43.97884 L 45.8485 44.18956 L 46.04297 44.39969 L 46.23744 44.60922 L 46.43192 44.81813 L 46.62639 45.02646 L 46.82085 45.23413 L 47.01534 45.44125 L 47.20981 45.64777 L 47.40427 45.85362 L 47.59875 46.05891 L 47.79321 46.26358 L 47.9877 46.46765 L 48.18217 46.67111 L 48.37663 46.87398 L 48.57114 47.07623 L 48.76558 47.27785 L 48.96007 47.47888 L 49.15456 47.67934 L 49.349 47.87914 L 49.54349 48.07837 L 49.73793 48.27695 L 49.93242 48.47498 L 50.1269 48.67238 L 50.32137 48.86916 L 50.51587 49.06535 L 50.71031 49.26091 L 50.90479 49.45587 L 51.09929 49.65027 L 51.29373 49.844 L 51.4882 50.03716 L 51.68268 50.2297 L 51.87715 50.42165 L 52.07164 50.61298 L 52.2661 50.8037 L 52.46057 50.99384 L 52.65504 51.18332 L 52.84953 51.37224 L 53.044 51.56055 L 53.23846 51.74821 L 53.43294 51.9353 L 53.62741 52.12178 L 53.82188 52.30766 L 54.01636 52.49292 L 54.21083 52.67758 L 54.4053 52.86165 L 54.59976 53.04507 L 54.79427 53.22792 L 54.98874 53.41017 L 55.18318 53.59177 L 55.37769 53.77281 L 55.57213 53.95322 L 55.76662 54.13303 L 55.9611 54.31224 L 56.15555 54.49081 L 56.35004 54.66881 L 56.5445 54.84619 L 56.73897 55.02298 L 56.93347 55.19916 L 57.12793 55.37471 L 57.32242 55.54967 L 57.51686 55.724 L 57.71135 55.89775 L 57.90584 56.07089 L 58.10028 56.24341 L 58.29475 56.41534 L 58.48923 56.58665 L 58.6837 56.75737 L 58.8782 56.92747 L 59.07265 57.09697 L 59.26714 57.26585 L 59.4616 57.43413 L 59.65608 57.60182 L 59.85056 57.7689 L 60.04501 57.93535 L 60.2395 58.10123 L 60.43396 58.26645 L 60.62843 58.43112 L 60.82292 58.59517 L 61.01738 58.75859 L 61.21187 58.92142 L 61.40631 59.08363 L 61.60081 59.24525 L 61.79529 59.40627 L 61.98975 59.56667 L 62.18423 59.72646 L 62.37868 59.88564 L 62.57318 60.04422 L 62.76765 60.20221 L 62.9621 60.35956 L 63.1566 60.51633 L 63.35104 60.67247 L 63.54553 60.82803 L 63.74002 60.98297 L 63.93448 61.1373 L 64.12897 61.29105 L 64.32341 61.44414 L 64.5179 61.59668 L 64.71239 61.7486 L 64.90683 61.89987 L 65.10132 62.0506 L 65.29578 62.20067 L 65.49026 62.35016 L 65.68475 62.49905 L 65.87921 62.6473 L 66.07368 62.79497 L 66.26816 62.94202 L 66.46263 63.08849 L 66.6571 63.23434 L 66.85158 63.37956 L 67.04605 63.52422 L 67.24051 63.66821 L 67.435 63.81165 L 67.62947 63.95445 L 67.82394 64.09665 L 68.01842 64.23828 L 68.21288 64.37924 L 68.40736 64.51964 L 68.60185 64.65944 L 68.7963 64.7986 L 68.99078 64.93718 L 69.18523 65.07512 L 69.37973 65.21248 L 69.5742 65.34924 L 69.76866 65.48535 L 69.96315 65.62091 L 70.15761 65.75583 L 70.35208 65.89015 L 70.54659 66.02388 L 70.74103 66.15698 L 70.93552 66.28947 L 71.12997 66.42137 L 71.32445 66.55266 L 71.51894 66.68335 L 71.7134 66.81343 L 71.90787 66.9429 L 72.10234 67.07175 L 72.29681 67.20001 L 72.49132 67.32768 L 72.68576 67.45471 L 72.88023 67.58115 L 73.0747 67.70697 L 73.26918 67.83221 L 73.46365 67.95683 L 73.65813 68.08084 L 73.8526 68.20424 L 74.04704 68.32703 L 74.24155 68.44922 L 74.43602 68.57083 L 74.6305 68.69179 L 74.82498 68.81218 L 75.01942 68.93192 L 75.21391 69.05109 L 75.4084 69.16966 L 75.60284 69.2876 L 75.79733 69.40494 L 75.99179 69.52167 L 76.18628 69.6378 L 76.38075 69.75333 L 76.57521 69.86824 L 76.7697 69.98254 L 76.96416 70.09624 L 77.15865 70.20934 L 77.35313 70.32184 L 77.54758 70.4337 L 77.74208 70.545 L 77.93652 70.65565 L 78.131 70.76572 L 78.32549 70.87517 L 78.51994 70.98402 L 78.71442 71.09227 L 78.90889 71.1999 L 79.10336 71.30695 L 79.29787 71.41338 L 79.49231 71.51918 L 79.6868 71.62439 L 79.88126 71.72899 L 80.07573 71.833 L 80.27022 71.93639 L 80.46468 72.03915 L 80.65915 72.14134 L 80.8536 72.2429 L 81.0481 72.34389 L 81.24258 72.44424 L 81.43704 72.544 L 81.63153 72.64314 L 81.82597 72.74167 L 82.02048 72.83961 L 82.21495 72.93694 L 82.4094 73.03366 L 82.60388 73.12978 L 82.79834 73.22528 L 82.99283 73.32019 L 83.18732 73.41447 L 83.38176 73.50816 L 83.57626 73.60126 L 83.7707 73.69371 L 83.9652 73.7856 L 84.15968 73.87686 L 84.35413 73.9675 L 84.54863 74.05756 L 84.74307 74.14699 L 84.93755 74.23582 L 85.13205 74.32408 L 85.32649 74.41168 L 85.52098 74.4987 L 85.71544 74.58511 L 85.90993 74.67091 L 86.10442 74.75612 L 86.29887 74.8407 L 86.49335 74.9247 L 86.6878 75.00806 L 86.8823 75.09085 L 87.07677 75.17302 L 87.27122 75.25456 L 87.46571 75.33553 L 87.66016 75.41585 L 87.85466 75.4956 L 88.04913 75.57474 L 88.2436 75.65326 L 88.43808 75.73119 L 88.63252 75.80849 L 88.82703 75.8852 L 89.0215 75.9613 L 89.21594 76.03677 L 89.41045 76.11168 L 89.60489 76.18596 L 89.7994 76.25963 L 89.99387 76.3327 L 90.18832 76.40515 L 90.38281 76.477 L 90.57727 76.54826 L 90.77174 76.61891 L 90.96623 76.68893 L 91.16069 76.75836 L 91.35518 76.8272 L 91.54962 76.8954 L 91.74411 76.96301 L 91.9386 77.03003 L 92.13306 77.09642 L 92.32753 77.16222 L 92.522 77.22739 L 92.71648 77.29196 L 92.91098 77.35594 L 93.10542 77.41931 L 93.2999 77.48206 L 93.49435 77.5442 L 93.68884 77.60576 L 93.88332 77.66669 L 94.07777 77.72702 L 94.27226 77.78676 L 94.46672 77.84586 L 94.66121 77.90437 L 94.8557 77.9623 L 95.05016 78.01959 L 95.24463 78.07628 L 95.43909 78.13235 L 95.63358 78.18784 L 95.82805 78.24272 L 96.0225 78.29698 L 96.217 78.35063 L 96.41144 78.4037 L 96.60594 78.45615 L 96.80043 78.50798 L 96.99487 78.5592 L 97.18936 78.60985 L 97.38382 78.65987 L 97.5783 78.70929 L 97.77278 78.7581 L 97.96724 78.80629 L 98.16173 78.85388 L 98.35617 78.90088 L 98.55066 78.94725 L 98.74515 78.99303 L 98.9396 79.0382 L 99.1341 79.08276 L 99.32855 79.12671 L 99.52303 79.17007 L 99.71751 79.21281 L 99.91197 79.25494 L 100.10645 79.29648 L 100.30092 79.3374 L 100.49539 79.37773 L 100.68987 79.41743 L 100.88434 79.45654 L 101.07881 79.49504 L 101.27327 79.53293 L 101.46777 79.57022 L 101.66225 79.6069 L 101.8567 79.64296 L 102.0512 79.67844 L 102.24564 79.71329 L 102.44012 79.74754 L 102.63461 79.78119 L 102.82906 79.81424 L 103.02354 79.84666 L 103.218 79.87848 L 103.41249 79.90971 L 103.60698 79.94032 L 103.80142 79.97034 L 103.99593 79.99974 L 104.19037 80.02853 L 104.38484 80.05673 L 104.57935 80.0843 L 104.77379 80.11127 L 104.96828 80.13765 L 105.16273 80.1634 L 105.35721 80.18855 L 105.55171 80.2131 L 105.74615 80.23705 L 105.94064 80.26039 L 106.1351 80.28311 L 106.32959 80.30525 L 106.52406 80.32677 L 106.71852 80.34767 L 106.913 80.36797 L 107.10747 80.38768 L 107.30194 80.40677 L 107.49643 80.42525 L 107.69089 80.44313 L 107.88538 80.4604 L 108.07982 80.47707 L 108.27432 80.49313 L 108.4688 80.50858 L 108.66325 80.5234 L 108.85774 80.53766 L 109.05219 80.5513 L 109.24667 80.56432 L 109.44116 80.57674 L 109.6356 80.58855 L 109.83011 80.59976 L 110.02455 80.61035 L 110.21906 80.62036 L 110.41353 80.62973 L 110.60799 80.63852 L 110.80247 80.6467 L 110.99692 80.65427 L 111.1914 80.66124 L 111.3859 80.66757 L 111.58034 80.67332 L 111.77484 80.67847 L 111.96928 80.683 L 112.16377 80.68694 L 112.35826 80.69025 L 112.55272 80.69298 L 112.7472 80.69508 L 112.94165 80.6966 L 113.13614 80.69748 L 113.33061 80.69778 L 113.52507 80.69746 L 113.71956 80.69655 L 113.91402 80.69499 L 114.1085 80.69286 L 114.30298 80.69014 L 114.49745 80.68678 L 114.69193 80.68283 L 114.88638 80.67827 L 115.08087 80.6731 L 115.27534 80.6673 L 115.46982 80.66093 L 115.66429 80.65395 L 115.85873 80.64636 L 116.05324 80.63815 L 116.24771 80.62932 L 116.44217 80.61995 L 116.63666 80.60994 L 116.83112 80.59927 L 117.0256 80.58809 L 117.22008 80.57622 L 117.41454 80.56375 L 117.60902 80.55074 L 117.80347 80.53708 L 117.99796 80.52278 L 118.19244 80.50789 L 118.38689 80.49245 L 118.58139 80.47633 L 118.77585 80.45966 L 118.97032 80.44237 L 119.16483 80.42447 L 119.35927 80.40594 L 119.55374 80.38686 L 119.74821 80.36711 L 119.94269 80.3468 L 120.13716 80.32587 L 120.33163 80.3043 L 120.52611 80.28214 L 120.72057 80.25941 L 120.91505 80.23602 L 121.10953 80.21207 L 121.304 80.18748 L 121.49849 80.1623 L 121.69293 80.13654 L 121.88742 80.11012 L 122.08191 80.08313 L 122.27637 80.05553 L 122.47084 80.02731 L 122.66528 79.99847 L 122.85979 79.96907 L 123.05426 79.93901 L 123.24872 79.90839 L 123.44322 79.87714 L 123.63766 79.84528 L 123.83215 79.81279 L 124.02664 79.77975 L 124.22108 79.74605 L 124.41557 79.71178 L 124.61003 79.6769 L 124.8045 79.64143 L 124.999 79.60532 L 125.19345 79.56863 L 125.38794 79.53128 L 125.5824 79.49342 L 125.77689 79.45483 L 125.97137 79.41576 L 126.16582 79.37598 L 126.36029 79.33565 L 126.55476 79.29471 L 126.74924 79.25314 L 126.94371 79.21098 L 127.13818 79.16824 L 127.33266 79.12485 L 127.52713 79.08087 L 127.7216 79.03629 L 127.91609 78.99109 L 128.11055 78.94527 L 128.30504 78.89883 L 128.49948 78.85185 L 128.69397 78.80423 L 128.88846 78.756 L 129.08292 78.70715 L 129.27739 78.6577 L 129.47185 78.60768 L 129.66634 78.55699 L 129.86083 78.50574 L 130.05527 78.45392 L 130.24977 78.40143 L 130.44422 78.34833 L 130.63872 78.29466 L 130.83319 78.24034 L 131.02764 78.18542 L 131.22214 78.12993 L 131.41658 78.07384 L 131.61106 78.01709 L 131.80556 77.9598 L 132 77.90186 L 132.1945 77.84332 L 132.38895 77.78421 L 132.58344 77.7244 L 132.77793 77.66406 L 132.97237 77.60312 L 133.16686 77.54155 L 133.36132 77.47937 L 133.55579 77.41656 L 133.75028 77.35315 L 133.94474 77.28917 L 134.13922 77.22458 L 134.33368 77.15936 L 134.52817 77.09354 L 134.72264 77.02716 L 134.91712 76.9601 L 135.11159 76.89249 L 135.30603 76.82423 L 135.50054 76.75539 L 135.695 76.68591 L 135.88947 76.61588 L 136.08394 76.5452 L 136.2784 76.47392 L 136.4729 76.40205 L 136.66738 76.32954 L 136.86183 76.25644 L 137.05632 76.18275 L 137.25077 76.10847 L 137.44527 76.03351 L 137.63974 75.958 L 137.83419 75.8819 L 138.02869 75.80516 L 138.22313 75.72784 L 138.41762 75.6499 L 138.6121 75.57135 L 138.80657 75.49219 L 139.00104 75.4124 L 139.19551 75.33206 L 139.38999 75.25105 L 139.58448 75.16943 L 139.77893 75.08728 L 139.9734 75.00447 L 140.16786 74.92105 L 140.36235 74.83707 L 140.55683 74.75247 L 140.7513 74.66725 L 140.94577 74.58136 L 141.14025 74.49496 L 141.33472 74.40788 L 141.5292 74.32027 L 141.72367 74.23201 L 141.91814 74.14316 L 142.11258 74.05368 L 142.30709 73.9636 L 142.50156 73.87292 L 142.69602 73.78165 L 142.8905 73.68971 L 143.08496 73.59721 L 143.27945 73.50414 L 143.47394 73.4104 L 143.66838 73.31612 L 143.86287 73.22119 L 144.05733 73.12566 L 144.25182 73.02951 L 144.44629 72.9327 L 144.64075 72.83537 L 144.83524 72.73743 L 145.02968 72.63887 L 145.22417 72.5397 L 145.41866 72.43991 L 145.61312 72.33955 L 145.80759 72.23853 L 146.00206 72.13695 L 146.19654 72.03468 L 146.39104 71.93193 L 146.58548 71.82849 L 146.77996 71.72444 L 146.97441 71.61984 L 147.1689 71.51462 L 147.36338 71.40877 L 147.55785 71.30235 L 147.75232 71.19528 L 147.9468 71.08763 L 148.14127 70.97928 L 148.33576 70.8704 L 148.53022 70.76097 L 148.72469 70.65086 L 148.91915 70.5402 L 149.11363 70.42888 L 149.3081 70.31697 L 149.50258 70.20447 L 149.69705 70.09132 L 149.89151 69.97758 L 150.086 69.86328 L 150.28049 69.74835 L 150.47493 69.63277 L 150.66944 69.51666 L 150.86388 69.39989 L 151.05837 69.28249 L 151.25284 69.16454 L 151.4473 69.04597 L 151.64179 68.92676 L 151.83625 68.80695 L 152.03072 68.68658 L 152.22522 68.56555 L 152.41967 68.44395 L 152.61415 68.32175 L 152.80861 68.19893 L 153.00308 68.07553 L 153.19759 67.95142 L 153.39203 67.8268 L 153.5865 67.70152 L 153.78098 67.57565 L 153.97545 67.44923 L 154.16994 67.32216 L 154.3644 67.19452 L 154.55889 67.0662 L 154.75334 66.93736 L 154.94783 66.80775 L 155.1423 66.6777 L 155.33676 66.54697 L 155.53125 66.4157 L 155.7257 66.28378 L 155.92018 66.15126 L 156.11467 66.01813 L 156.30913 65.88437 L 156.50362 65.75 L 156.69806 65.61511 L 156.89257 65.47946 L 157.08704 65.34329 L 157.28148 65.20657 L 157.47599 65.06917 L 157.67043 64.93121 L 157.86492 64.79263 L 158.0594 64.65334 L 158.25385 64.51363 L 158.44835 64.37315 L 158.64279 64.23212 L 158.83728 64.09052 L 159.03177 63.94829 L 159.22623 63.80547 L 159.4207 63.662 L 159.61516 63.51799 L 159.80965 63.3733 L 160.00414 63.22801 L 160.19858 63.0822 L 160.39305 62.93567 L 160.58753 62.78857 L 160.78202 62.64091 L 160.97649 62.49258 L 161.17096 62.3437 L 161.36544 62.1942 L 161.55989 62.04413 L 161.75438 61.89339 L 161.94886 61.74199 L 162.14331 61.59007 L 162.3378 61.43755 L 162.53224 61.2844 L 162.72673 61.13063 L 162.92122 60.9763 L 163.11569 60.82137 L 163.31017 60.66576 L 163.50463 60.50958 L 163.69911 60.35272 L 163.89359 60.19537 L 164.08805 60.03737 L 164.28253 59.87877 L 164.47698 59.71956 L 164.67148 59.55975 L 164.86595 59.39932 L 165.0604 59.23831 L 165.2549 59.0766 L 165.44936 58.91438 L 165.64383 58.75154 L 165.83834 58.58807 L 166.03278 58.424 L 166.22725 58.25935 L 166.4217 58.09406 L 166.6162 57.92818 L 166.81069 57.76169 L 167.00513 57.59464 L 167.19962 57.42686 L 167.39409 57.25853 L 167.58856 57.08965 L 167.78305 56.92012 L 167.97751 56.75 L 168.17198 56.57925 L 168.36646 56.40794 L 168.56093 56.23602 L 168.7554 56.06337 L 168.94988 55.89021 L 169.14435 55.71645 L 169.33879 55.54211 L 169.5333 55.3671 L 169.72777 55.19153 L 169.92224 55.01535 L 170.11672 54.83855 L 170.31118 54.66118 L 170.50566 54.48315 L 170.70014 54.30446 L 170.89459 54.12524 L 171.08908 53.94542 L 171.28353 53.76497 L 171.47803 53.58397 L 171.6725 53.4023 L 171.86696 53.22005 L 172.06145 53.0371 L 172.2559 52.85373 L 172.45038 52.66959 L 172.64488 52.4849 L 172.83933 52.29964 L 173.0338 52.11374 L 173.22827 51.92725 L 173.42275 51.74014 L 173.61724 51.55241 L 173.81169 51.36412 L 174.00617 51.17511 L 174.20064 50.98564 L 174.39511 50.79544 L 174.5896 50.60469 L 174.78406 50.41333 L 174.97855 50.22139 L 175.173 50.02884 L 175.36748 49.83566 L 175.56197 49.64178 L 175.75643 49.44754 L 175.9509 49.25243 L 176.14536 49.05685 L 176.33985 48.86066 L 176.53433 48.66385 L 176.72879 48.46642 L 176.92328 48.26843 L 177.11772 48.06978 L 177.31221 47.87054 L 177.5067 47.67061 L 177.70114 47.47015 L 177.89563 47.2691 L 178.09009 47.06747 "/>
<path transform="matrix(2.7777777,0,0,-2.7777777,10.330556,484.61109)" stroke-width=".79701" stroke-linecap="butt" stroke-miterlimit="10" stroke-linejoin="miter" fill="none" stroke="#ff8000" d="M -16.18835 147.94525 L -15.99388 147.54166 L -15.79941 147.13866 L -15.60495 146.73627 L -15.41046 146.33449 L -15.216 145.93334 L -15.02153 145.53276 L -14.82706 145.13282 L -14.63258 144.73346 L -14.4381 144.33469 L -14.24364 143.93656 L -14.04916 143.53902 L -13.85468 143.14209 L -13.66022 142.74578 L -13.46574 142.35007 L -13.27127 141.95496 L -13.0768 141.56047 L -12.88231 141.16655 L -12.68785 140.77326 L -12.49338 140.38059 L -12.2989 139.98851 L -12.10443 139.59705 L -11.90997 139.20618 L -11.71548 138.81594 L -11.52101 138.42629 L -11.32652 138.03723 L -11.13206 137.64879 L -10.93759 137.26097 L -10.74312 136.87374 L -10.54865 136.48712 L -10.35419 136.10112 L -10.1597 135.71572 L -9.96524 135.33092 L -9.77077 134.94672 L -9.57628 134.56313 L -9.3818 134.18015 L -9.18733 133.79778 L -8.99286 133.41602 L -8.7984 133.03487 L -8.60391 132.65431 L -8.40945 132.27437 L -8.21498 131.89504 L -8.0205 131.51628 L -7.82602 131.13816 L -7.63155 130.76065 L -7.43707 130.38373 L -7.24261 130.00742 L -7.04813 129.63172 L -6.85367 129.25664 L -6.6592 128.88216 L -6.4647 128.50824 L -6.27025 128.13498 L -6.07576 127.76231 L -5.8813 127.39024 L -5.68683 127.0188 L -5.49234 126.64795 L -5.29788 126.27773 L -5.10341 125.90808 L -4.90892 125.53905 L -4.71446 125.17061 L -4.51999 124.8028 L -4.32552 124.4356 L -4.13104 124.069 L -3.93657 123.70299 L -3.7421 123.33762 L -3.54764 122.97282 L -3.35315 122.60864 L -3.15868 122.24506 L -2.9642 121.8821 L -2.76973 121.51974 L -2.57526 121.15799 L -2.38078 120.79686 L -2.18631 120.43631 L -1.99185 120.07639 L -1.79736 119.71706 L -1.60289 119.35832 L -1.40842 119.00021 L -1.21394 118.6427 L -1.01947 118.28581 L -.825 117.92952 L -.63052 117.57384 L -.43607 117.21875 L -.24158 116.86429 L -.0471 116.5104 L .14735 116.15714 L .34183 115.8045 L .5363 115.45245 L .73077 115.10101 L .92525 114.75018 L 1.1197 114.39995 L 1.3142 114.05032 L 1.50865 113.70132 L 1.70313 113.35289 L 1.89761 113.0051 L 2.09207 112.6579 L 2.28654 112.31131 L 2.48103 111.96533 L 2.67549 111.61995 L 2.86998 111.27519 L 3.06444 110.93103 L 3.25891 110.58745 L 3.4534 110.24448 L 3.64786 109.90218 L 3.84233 109.56042 L 4.0368 109.21931 L 4.23128 108.87877 L 4.42577 108.53883 L 4.62022 108.19955 L 4.8147 107.86082 L 5.00916 107.52277 L 5.20364 107.18524 L 5.39812 106.84834 L 5.59259 106.51208 L 5.78706 106.17639 L 5.98154 105.84137 L 6.17601 105.5069 L 6.3705 105.17299 L 6.56496 104.83978 L 6.75943 104.50713 L 6.95389 104.17513 L 7.14838 103.84367 L 7.34285 103.51285 L 7.53732 103.18265 L 7.7318 102.85303 L 7.92625 102.52406 L 8.12074 102.19563 L 8.31523 101.86783 L 8.50967 101.54068 L 8.70416 101.2141 L 8.89862 100.88814 L 9.0931 100.56276 L 9.28758 100.23799 L 9.48204 99.91385 L 9.67653 99.5903 L 9.87099 99.26741 L 10.06546 98.94504 L 10.25996 98.62329 L 10.4544 98.30222 L 10.6489 97.98167 L 10.84335 97.6618 L 11.03783 97.34248 L 11.23233 97.02376 L 11.42677 96.70572 L 11.62125 96.38823 L 11.81572 96.07137 L 12.0102 95.7551 L 12.20468 95.4394 L 12.39914 95.12437 L 12.59363 94.80992 L 12.78809 94.49611 L 12.98257 94.18286 L 13.17705 93.87022 L 13.3715 93.55823 L 13.56598 93.2468 L 13.76044 92.936 L 13.95493 92.6258 L 14.14941 92.3162 L 14.34387 92.00722 L 14.53836 91.69882 L 14.7328 91.39108 L 14.9273 91.08388 L 15.12178 90.7773 L 15.31622 90.47139 L 15.51073 90.16602 L 15.70517 89.8613 L 15.89964 89.55714 L 16.09415 89.25359 L 16.28859 88.95068 L 16.4831 88.64836 L 16.67754 88.34666 L 16.87202 88.04555 L 17.06651 87.74506 L 17.26097 87.44518 L 17.45544 87.14586 L 17.6499 86.84723 L 17.84439 86.54913 L 18.03888 86.25165 L 18.23332 85.95482 L 18.4278 85.65857 L 18.62227 85.36293 L 18.81676 85.06787 L 19.01123 84.77342 L 19.2057 84.47961 L 19.40018 84.18639 L 19.59464 83.89381 L 19.78912 83.60176 L 19.9836 83.31036 L 20.17805 83.0196 L 20.37254 82.72939 L 20.56699 82.43983 L 20.76147 82.15085 L 20.95596 81.86244 L 21.15044 81.57472 L 21.34491 81.28755 L 21.53937 81.00102 L 21.73386 80.71507 L 21.92833 80.42972 L 22.12279 80.145 L 22.31728 79.86089 L 22.51172 79.5774 L 22.7062 79.29445 L 22.9007 79.01213 L 23.09514 78.73047 L 23.28964 78.44937 L 23.4841 78.1689 L 23.67857 77.88902 L 23.87306 77.60973 L 24.06752 77.33109 L 24.262 77.05301 L 24.45645 76.77559 L 24.65094 76.49872 L 24.84543 76.22247 L 25.03987 75.94687 L 25.23436 75.67181 L 25.42882 75.39743 L 25.6233 75.12361 L 25.8178 74.85037 L 26.01225 74.5778 L 26.20673 74.30579 L 26.4012 74.03444 L 26.59567 73.76364 L 26.79015 73.49345 L 26.98462 73.22389 L 27.1791 72.95493 L 27.37354 72.6866 L 27.56804 72.41882 L 27.76251 72.15169 L 27.95699 71.88516 L 28.15146 71.61923 L 28.34592 71.35393 L 28.5404 71.0892 L 28.73488 70.82507 L 28.92934 70.56158 L 29.12383 70.29869 L 29.31827 70.03642 L 29.51276 69.77472 L 29.70724 69.51363 L 29.9017 69.25319 L 30.09619 68.99329 L 30.29065 68.73407 L 30.48512 68.4754 L 30.67963 68.21733 L 30.87407 67.95993 L 31.06854 67.70308 L 31.26302 67.44688 L 31.45749 67.19125 L 31.65198 66.93622 L 31.84644 66.68182 L 32.04091 66.42801 L 32.23538 66.17485 L 32.42986 65.92224 L 32.62434 65.67026 L 32.8188 65.41891 L 33.01328 65.16814 L 33.20775 64.91798 L 33.40222 64.66843 L 33.5967 64.41946 L 33.79117 64.17114 L 33.98564 63.9234 L 34.1801 63.6763 L 34.37459 63.42976 L 34.56908 63.18382 L 34.76352 62.93855 L 34.95802 62.69382 L 35.15247 62.44975 L 35.34695 62.20625 L 35.54144 61.96335 L 35.73589 61.7211 L 35.93037 61.47942 L 36.12483 61.23837 L 36.3193 60.99791 L 36.51381 60.75804 L 36.70825 60.51883 L 36.90276 60.28017 L 37.0972 60.04216 L 37.29169 59.80473 L 37.48618 59.5679 L 37.68062 59.3317 L 37.87509 59.0961 L 38.06956 58.86111 L 38.26404 58.62671 L 38.45853 58.39291 L 38.65298 58.15974 L 38.84747 57.92715 L 39.04193 57.69522 L 39.23642 57.46385 L 39.4309 57.23308 L 39.62535 57.00296 L 39.81984 56.7734 L 40.0143 56.5445 L 40.20877 56.31616 L 40.40326 56.08842 L 40.59772 55.86131 L 40.7922 55.63481 L 40.98665 55.40892 L 41.18115 55.18361 L 41.37563 54.95892 L 41.57008 54.73485 L 41.76457 54.51137 L 41.95901 54.28853 L 42.15352 54.06624 L 42.34799 53.84457 L 42.54243 53.62355 L 42.73692 53.40309 L 42.93138 53.18327 L 43.12587 52.96404 L 43.32036 52.74542 L 43.51482 52.5274 L 43.7093 52.30998 L 43.90375 52.0932 L 44.09824 51.87698 L 44.29272 51.66139 L 44.48717 51.44643 L 44.68166 51.23203 L 44.87611 51.0183 L 45.07059 50.8051 L 45.26509 50.59253 L 45.45955 50.38062 L 45.65402 50.16924 L 45.8485 49.95851 L 46.04297 49.74838 L 46.23744 49.53885 L 46.43192 49.32994 L 46.62639 49.12161 L 46.82085 48.91394 L 47.01534 48.70682 L 47.20981 48.5003 L 47.40427 48.29445 L 47.59875 48.08916 L 47.79321 47.88449 L 47.9877 47.68042 L 48.18217 47.47696 L 48.37663 47.27411 L 48.57114 47.07184 L 48.76558 46.87022 L 48.96007 46.66919 L 49.15456 46.46873 L 49.349 46.26894 L 49.54349 46.0697 L 49.73793 45.87112 L 49.93242 45.6731 L 50.1269 45.4757 L 50.32137 45.27892 L 50.51587 45.08272 L 50.71031 44.88716 L 50.90479 44.6922 L 51.09929 44.4978 L 51.29373 44.30408 L 51.4882 44.11092 L 51.68268 43.91837 L 51.87715 43.72643 L 52.07164 43.5351 L 52.2661 43.34438 L 52.46057 43.15425 L 52.65504 42.96475 L 52.84953 42.77583 L 53.044 42.58752 L 53.23846 42.39986 L 53.43294 42.21277 L 53.62741 42.02629 L 53.82188 41.84041 L 54.01636 41.65515 L 54.21083 41.47049 L 54.4053 41.28642 L 54.59976 41.103 L 54.79427 40.92015 L 54.98874 40.7379 L 55.18318 40.5563 L 55.37769 40.37526 L 55.57213 40.19485 L 55.76662 40.01505 L 55.9611 39.83583 L 56.15555 39.65726 L 56.35004 39.47926 L 56.5445 39.30188 L 56.73897 39.12509 L 56.93347 38.94891 L 57.12793 38.77336 L 57.32242 38.5984 L 57.51686 38.42407 L 57.71135 38.25032 L 57.90584 38.07718 L 58.10028 37.90466 L 58.29475 37.73273 L 58.48923 37.56142 L 58.6837 37.3907 L 58.8782 37.2206 L 59.07265 37.0511 L 59.26714 36.88222 L 59.4616 36.71394 L 59.65608 36.54625 L 59.85056 36.37917 L 60.04501 36.21272 L 60.2395 36.04684 L 60.43396 35.88162 L 60.62843 35.71695 L 60.82292 35.5529 L 61.01738 35.38948 L 61.21187 35.22665 L 61.40631 35.06444 L 61.60081 34.90282 L 61.79529 34.7418 L 61.98975 34.5814 L 62.18423 34.42162 L 62.37868 34.26244 L 62.57318 34.10385 L 62.76765 33.94586 L 62.9621 33.78851 L 63.1566 33.63174 L 63.35104 33.4756 L 63.54553 33.32004 L 63.74002 33.1651 L 63.93448 33.01077 L 64.12897 32.85703 L 64.32341 32.70393 L 64.5179 32.55139 L 64.71239 32.39948 L 64.90683 32.2482 L 65.10132 32.09747 L 65.29578 31.9474 L 65.49026 31.79791 L 65.68475 31.64902 L 65.87921 31.50078 L 66.07368 31.3531 L 66.26816 31.20605 L 66.46263 31.05959 L 66.6571 30.91373 L 66.85158 30.76851 L 67.04605 30.62386 L 67.24051 30.47986 L 67.435 30.33643 L 67.62947 30.19362 L 67.82394 30.05142 L 68.01842 29.90979 L 68.21288 29.76883 L 68.40736 29.62843 L 68.60185 29.48863 L 68.7963 29.34947 L 68.99078 29.21089 L 69.18523 29.07295 L 69.37973 28.9356 L 69.5742 28.79883 L 69.76866 28.66272 L 69.96315 28.52716 L 70.15761 28.39224 L 70.35208 28.25792 L 70.54659 28.12419 L 70.74103 27.99109 L 70.93552 27.8586 L 71.12997 27.7267 L 71.32445 27.59541 L 71.51894 27.46472 L 71.7134 27.33464 L 71.90787 27.20517 L 72.10234 27.07632 L 72.29681 26.94806 L 72.49132 26.82039 L 72.68576 26.69336 L 72.88023 26.56693 L 73.0747 26.4411 L 73.26918 26.31586 L 73.46365 26.19124 L 73.65813 26.06723 L 73.8526 25.94383 L 74.04704 25.82104 L 74.24155 25.69885 L 74.43602 25.57724 L 74.6305 25.45628 L 74.82498 25.33589 L 75.01942 25.21616 L 75.21391 25.09698 L 75.4084 24.97841 L 75.60284 24.86047 L 75.79733 24.74313 L 75.99179 24.6264 L 76.18628 24.51027 L 76.38075 24.39474 L 76.57521 24.27983 L 76.7697 24.16553 L 76.96416 24.05183 L 77.15865 23.93874 L 77.35313 23.82623 L 77.54758 23.71437 L 77.74208 23.60307 L 77.93652 23.49242 L 78.131 23.38235 L 78.32549 23.2729 L 78.51994 23.16405 L 78.71442 23.0558 L 78.90889 22.94817 L 79.10336 22.84113 L 79.29787 22.73471 L 79.49231 22.62889 L 79.6868 22.52368 L 79.88126 22.41908 L 80.07573 22.31508 L 80.27022 22.21169 L 80.46468 22.10892 L 80.65915 22.00673 L 80.8536 21.90517 L 81.0481 21.80418 L 81.24258 21.70383 L 81.43704 21.60406 L 81.63153 21.50493 L 81.82597 21.4064 L 82.02048 21.30846 L 82.21495 21.21114 L 82.4094 21.11441 L 82.60388 21.0183 L 82.79834 20.92279 L 82.99283 20.8279 L 83.18732 20.7336 L 83.38176 20.63991 L 83.57626 20.54681 L 83.7707 20.45436 L 83.9652 20.36247 L 84.15968 20.27121 L 84.35413 20.18057 L 84.54863 20.09052 L 84.74307 20.00108 L 84.93755 19.91225 L 85.13205 19.82399 L 85.32649 19.73639 L 85.52098 19.64937 L 85.71544 19.56296 L 85.90993 19.47716 L 86.10442 19.39195 L 86.29887 19.30737 L 86.49335 19.22337 L 86.6878 19.14001 L 86.8823 19.05722 L 87.07677 18.97505 L 87.27122 18.89351 L 87.46571 18.81255 L 87.66016 18.73222 L 87.85466 18.65247 L 88.04913 18.57333 L 88.2436 18.49481 L 88.43808 18.41689 L 88.63252 18.33958 L 88.82703 18.26288 L 89.0215 18.18677 L 89.21594 18.1113 L 89.41045 18.03639 L 89.60489 17.96211 L 89.7994 17.88844 L 89.99387 17.81537 L 90.18832 17.74292 L 90.38281 17.67107 L 90.57727 17.59981 L 90.77174 17.52916 L 90.96623 17.45914 L 91.16069 17.38971 L 91.35518 17.32088 L 91.54962 17.25267 L 91.74411 17.18506 L 91.9386 17.11804 L 92.13306 17.05165 L 92.32753 16.98586 L 92.522 16.92068 L 92.71648 16.85611 L 92.91098 16.79213 L 93.10542 16.72876 L 93.2999 16.66602 L 93.49435 16.60387 L 93.68884 16.54231 L 93.88332 16.48138 L 94.07777 16.42105 L 94.27226 16.36131 L 94.46672 16.30222 L 94.66121 16.2437 L 94.8557 16.18578 L 95.05016 16.12848 L 95.24463 16.0718 L 95.43909 16.01572 L 95.63358 15.96024 L 95.82805 15.90535 L 96.0225 15.85109 L 96.217 15.79744 L 96.41144 15.74438 L 96.60594 15.69193 L 96.80043 15.64009 L 96.99487 15.58887 L 97.18936 15.53822 L 97.38382 15.4882 L 97.5783 15.43878 L 97.77278 15.38997 L 97.96724 15.34178 L 98.16173 15.29419 L 98.35617 15.2472 L 98.55066 15.20082 L 98.74515 15.15504 L 98.9396 15.10988 L 99.1341 15.0653 L 99.32855 15.02136 L 99.52303 14.978 L 99.71751 14.93526 L 99.91197 14.89313 L 100.10645 14.8516 L 100.30092 14.81067 L 100.49539 14.77034 L 100.68987 14.73064 L 100.88434 14.69153 L 101.07881 14.65303 L 101.27327 14.61514 L 101.46777 14.57785 L 101.66225 14.54117 L 101.8567 14.50511 L 102.0512 14.46964 L 102.24564 14.43478 L 102.44012 14.40053 L 102.63461 14.36688 L 102.82906 14.33383 L 103.02354 14.3014 L 103.218 14.26959 L 103.41249 14.23836 L 103.60698 14.20775 L 103.80142 14.17773 L 103.99593 14.14833 L 104.19037 14.11954 L 104.38484 14.09134 L 104.57935 14.06377 L 104.77379 14.0368 L 104.96828 14.01042 L 105.16273 13.98466 L 105.35721 13.95952 L 105.55171 13.93497 L 105.74615 13.91103 L 105.94064 13.88768 L 106.1351 13.86496 L 106.32959 13.84282 L 106.52406 13.8213 L 106.71852 13.8004 L 106.913 13.7801 L 107.10747 13.76039 L 107.30194 13.7413 L 107.49643 13.72282 L 107.69089 13.70494 L 107.88538 13.68767 L 108.07982 13.671 L 108.27432 13.65494 L 108.4688 13.6395 L 108.66325 13.62466 L 108.85774 13.61041 L 109.05219 13.59677 L 109.24667 13.58376 L 109.44116 13.57133 L 109.6356 13.55952 L 109.83011 13.54831 L 110.02455 13.53772 L 110.21906 13.52771 L 110.41353 13.51834 L 110.60799 13.50955 L 110.80247 13.50137 L 110.99692 13.4938 L 111.1914 13.48683 L 111.3859 13.4805 L 111.58034 13.47475 L 111.77484 13.4696 L 111.96928 13.46507 L 112.16377 13.46114 L 112.35826 13.45782 L 112.55272 13.4551 L 112.7472 13.45299 L 112.94165 13.45148 L 113.13614 13.45059 L 113.33061 13.4503 L 113.52507 13.4506 L 113.71956 13.45152 L 113.91402 13.45308 L 114.1085 13.45522 L 114.30298 13.45793 L 114.49745 13.46129 L 114.69193 13.46524 L 114.88638 13.4698 L 115.08087 13.47498 L 115.27534 13.48077 L 115.46982 13.48714 L 115.66429 13.49413 L 115.85873 13.50171 L 116.05324 13.50992 L 116.24771 13.51875 L 116.44217 13.52812 L 116.63666 13.53813 L 116.83112 13.5488 L 117.0256 13.55998 L 117.22008 13.57185 L 117.41454 13.58432 L 117.60902 13.59734 L 117.80347 13.611 L 117.99796 13.6253 L 118.19244 13.64018 L 118.38689 13.65562 L 118.58139 13.67174 L 118.77585 13.68842 L 118.97032 13.7057 L 119.16483 13.7236 L 119.35927 13.74213 L 119.55374 13.76122 L 119.74821 13.78096 L 119.94269 13.80127 L 120.13716 13.8222 L 120.33163 13.84377 L 120.52611 13.86594 L 120.72057 13.88866 L 120.91505 13.91205 L 121.10953 13.936 L 121.304 13.96059 L 121.49849 13.98578 L 121.69293 14.01154 L 121.88742 14.03795 L 122.08191 14.06494 L 122.27637 14.09254 L 122.47084 14.12076 L 122.66528 14.1496 L 122.85979 14.179 L 123.05426 14.20906 L 123.24872 14.23969 L 123.44322 14.27094 L 123.63766 14.3028 L 123.83215 14.33528 L 124.02664 14.36832 L 124.22108 14.40202 L 124.41557 14.4363 L 124.61003 14.47118 L 124.8045 14.50664 L 124.999 14.54276 L 125.19345 14.57944 L 125.38794 14.61679 L 125.5824 14.65465 L 125.77689 14.69324 L 125.97137 14.73232 L 126.16582 14.7721 L 126.36029 14.81242 L 126.55476 14.85336 L 126.74924 14.89493 L 126.94371 14.93709 L 127.13818 14.97983 L 127.33266 15.02322 L 127.52713 15.0672 L 127.7216 15.11179 L 127.91609 15.15698 L 128.11055 15.2028 L 128.30504 15.24924 L 128.49948 15.29622 L 128.69397 15.34384 L 128.88846 15.39207 L 129.08292 15.44092 L 129.27739 15.49037 L 129.47185 15.54039 L 129.66634 15.59108 L 129.86083 15.64235 L 130.05527 15.69415 L 130.24977 15.74664 L 130.44422 15.79974 L 130.63872 15.85341 L 130.83319 15.90775 L 131.02764 15.96265 L 131.22214 16.01814 L 131.41658 16.07423 L 131.61106 16.13098 L 131.80556 16.18828 L 132 16.24622 L 132.1945 16.30475 L 132.38895 16.36386 L 132.58344 16.42368 L 132.77793 16.48401 L 132.97237 16.54495 L 133.16686 16.60652 L 133.36132 16.6687 L 133.55579 16.7315 L 133.75028 16.79492 L 133.94474 16.8589 L 134.13922 16.9235 L 134.33368 16.98871 L 134.52817 17.05453 L 134.72264 17.12091 L 134.91712 17.18797 L 135.11159 17.25558 L 135.30603 17.32384 L 135.50054 17.39268 L 135.695 17.46216 L 135.88947 17.5322 L 136.08394 17.60287 L 136.2784 17.67415 L 136.4729 17.74602 L 136.66738 17.81853 L 136.86183 17.89163 L 137.05632 17.96532 L 137.25077 18.0396 L 137.44527 18.11456 L 137.63974 18.19008 L 137.83419 18.26617 L 138.02869 18.34291 L 138.22313 18.42023 L 138.41762 18.49817 L 138.6121 18.57672 L 138.80657 18.65588 L 139.00104 18.73567 L 139.19551 18.81601 L 139.38999 18.89702 L 139.58448 18.97864 L 139.77893 19.06079 L 139.9734 19.1436 L 140.16786 19.22702 L 140.36235 19.311 L 140.55683 19.3956 L 140.7513 19.48082 L 140.94577 19.56671 L 141.14025 19.6531 L 141.33472 19.74019 L 141.5292 19.8278 L 141.72367 19.91606 L 141.91814 20.00491 L 142.11258 20.09439 L 142.30709 20.18448 L 142.50156 20.27515 L 142.69602 20.36642 L 142.8905 20.45836 L 143.08496 20.55086 L 143.27945 20.64394 L 143.47394 20.73767 L 143.66838 20.83197 L 143.86287 20.92688 L 144.05733 21.02242 L 144.25182 21.11856 L 144.44629 21.21538 L 144.64075 21.3127 L 144.83524 21.41064 L 145.02968 21.5092 L 145.22417 21.60837 L 145.41866 21.70816 L 145.61312 21.80852 L 145.80759 21.90955 L 146.00206 22.01112 L 146.19654 22.11339 L 146.39104 22.21616 L 146.58548 22.31958 L 146.77996 22.42363 L 146.97441 22.52823 L 147.1689 22.63345 L 147.36338 22.7393 L 147.55785 22.84572 L 147.75232 22.95279 L 147.9468 23.06044 L 148.14127 23.1688 L 148.33576 23.27766 L 148.53022 23.3871 L 148.72469 23.49721 L 148.91915 23.60786 L 149.11363 23.7192 L 149.3081 23.8311 L 149.50258 23.9436 L 149.69705 24.05675 L 149.89151 24.17049 L 150.086 24.28479 L 150.28049 24.39972 L 150.47493 24.5153 L 150.66944 24.63141 L 150.86388 24.74818 L 151.05837 24.86559 L 151.25284 24.98354 L 151.4473 25.1021 L 151.64179 25.22131 L 151.83625 25.34113 L 152.03072 25.46149 L 152.22522 25.58252 L 152.41967 25.70412 L 152.61415 25.82632 L 152.80861 25.94914 L 153.00308 26.07254 L 153.19759 26.19666 L 153.39203 26.32127 L 153.5865 26.44655 L 153.78098 26.57242 L 153.97545 26.69884 L 154.16994 26.82593 L 154.3644 26.95355 L 154.55889 27.08188 L 154.75334 27.21071 L 154.94783 27.34032 L 155.1423 27.47037 L 155.33676 27.6011 L 155.53125 27.73239 L 155.7257 27.86429 L 155.92018 27.99681 L 156.11467 28.12994 L 156.30913 28.2637 L 156.50362 28.39807 L 156.69806 28.53296 L 156.89257 28.66861 L 157.08704 28.80478 L 157.28148 28.9415 L 157.47599 29.0789 L 157.67043 29.21686 L 157.86492 29.35544 L 158.0594 29.49474 L 158.25385 29.63445 L 158.44835 29.77492 L 158.64279 29.91595 L 158.83728 30.05756 L 159.03177 30.19978 L 159.22623 30.3426 L 159.4207 30.48607 L 159.61516 30.63008 L 159.80965 30.77477 L 160.00414 30.92006 L 160.19858 31.06587 L 160.39305 31.2124 L 160.58753 31.3595 L 160.78202 31.50716 L 160.97649 31.65549 L 161.17096 31.80437 L 161.36544 31.95387 L 161.55989 32.10394 L 161.75438 32.25468 L 161.94886 32.40608 L 162.14331 32.558 L 162.3378 32.71053 L 162.53224 32.86368 L 162.72673 33.01744 L 162.92122 33.17177 L 163.11569 33.3267 L 163.31017 33.48232 L 163.50463 33.63849 L 163.69911 33.79535 L 163.89359 33.9527 L 164.08805 34.1107 L 164.28253 34.2693 L 164.47698 34.42851 L 164.67148 34.58832 L 164.86595 34.74875 L 165.0604 34.90976 L 165.2549 35.07147 L 165.44936 35.23369 L 165.64383 35.39653 L 165.83834 35.56 L 166.03278 35.72408 L 166.22725 35.88872 L 166.4217 36.05402 L 166.6162 36.2199 L 166.81069 36.38638 L 167.00513 36.55344 L 167.19962 36.7212 L 167.39409 36.88954 L 167.58856 37.05843 L 167.78305 37.22795 L 167.97751 37.39807 L 168.17198 37.56882 L 168.36646 37.74013 L 168.56093 37.91205 L 168.7554 38.0847 L 168.94988 38.25786 L 169.14435 38.43163 L 169.33879 38.60596 L 169.5333 38.78098 L 169.72777 38.95654 L 169.92224 39.13272 L 170.11672 39.30952 L 170.31118 39.4869 L 170.50566 39.66492 L 170.70014 39.84361 L 170.89459 40.02283 L 171.08908 40.20265 L 171.28353 40.3831 L 171.47803 40.5641 L 171.6725 40.74577 L 171.86696 40.92802 L 172.06145 41.11098 L 172.2559 41.29434 L 172.45038 41.47849 L 172.64488 41.66318 L 172.83933 41.84843 L 173.0338 42.03433 L 173.22827 42.22083 L 173.42275 42.40793 L 173.61724 42.59566 L 173.81169 42.78395 L 174.00617 42.97296 L 174.20064 43.16245 L 174.39511 43.35263 L 174.5896 43.54338 L 174.78406 43.73474 L 174.97855 43.92668 L 175.173 44.11923 L 175.36748 44.31241 L 175.56197 44.50629 L 175.75643 44.70053 L 175.9509 44.89565 L 176.14536 45.09122 L 176.33985 45.28741 L 176.53433 45.48422 L 176.72879 45.68166 L 176.92328 45.87964 L 177.11772 46.0783 L 177.31221 46.27753 L 177.5067 46.47746 L 177.70114 46.67792 L 177.89563 46.87897 L 178.09009 47.0806 "/>
<symbol id="font_2_1">
<path d="M .07700001 .07700001 L .18300002 .18 C .33900003 .31800003 .39900003 .372 .39900003 .47200004 C .39900003 .586 .30900003 .666 .18700002 .666 C .074 .666 0 .574 0 .485 C 0 .42900003 .05 .42900003 .053000008 .42900003 C .07000001 .42900003 .105000007 .441 .105000007 .48200003 C .105000007 .508 .08700001 .53400006 .052000006 .53400006 C .044000005 .53400006 .042000008 .53400006 .039 .53300008 C .062000004 .59800007 .11600001 .63500007 .17400001 .63500007 C .26500003 .63500007 .308 .554 .308 .47200004 C .308 .39200003 .25800003 .31300003 .20300003 .25100003 L .011000004 .037 C 0 .026 0 .024 0 0 L .37100003 0 L .39900003 .17400001 L .374 .17400001 C .36900003 .14400001 .36200003 .1 .352 .085 C .345 .07700001 .279 .07700001 .257 .07700001 L .07700001 .07700001 Z "/>
</symbol>
<use xlink:href="#font_2_1" transform="matrix(27.673888,0,0,-27.673888,499.467,381.44999)"/>
</g>
<symbol id="font_3_1">
<path d="M .305 .31300003 C .311 .33900003 .334 .43100003 .404 .43100003 C .409 .43100003 .433 .43100003 .454 .418 C .426 .41300003 .40600003 .388 .40600003 .36400003 C .40600003 .34800003 .417 .32900004 .444 .32900004 C .46600003 .32900004 .498 .34700004 .498 .38700003 C .498 .43900005 .439 .45300005 .405 .45300005 C .347 .45300005 .312 .40000005 .3 .37700004 C .275 .44300003 .221 .45300005 .19200002 .45300005 C .08800001 .45300005 .031000002 .32400004 .031000002 .29900003 C .031000002 .28900004 .041 .28900004 .043000007 .28900004 C .051000008 .28900004 .054000006 .291 .056 .3 C .09 .40600003 .156 .43100003 .19000001 .43100003 C .209 .43100003 .244 .42200003 .244 .36400003 C .244 .33300004 .22700002 .26600004 .19000001 .126 C .17400001 .064 .13900002 .022000002 .095000009 .022000002 C .08900001 .022000002 .06600001 .022000002 .045 .035 C .07000001 .040000004 .09200001 .061 .09200001 .089 C .09200001 .116000007 .07000001 .124000009 .055000009 .124000009 C .025 .124000009 0 .098000008 0 .06600001 C 0 .020000002 .050000006 0 .094000007 0 C .16000001 0 .19600001 .07000001 .19900002 .076000008 C .21100001 .039 .24700003 0 .307 0 C .41 0 .467 .12900001 .467 .15400002 C .467 .16400002 .458 .16400002 .455 .16400002 C .446 .16400002 .444 .16000001 .442 .15300001 C .409 .046 .341 .022000002 .30900003 .022000002 C .27 .022000002 .254 .054 .254 .08800001 C .254 .11000001 .26 .13200002 .271 .17600002 L .305 .31300003 Z "/>
</symbol>
<use xlink:href="#font_3_1" transform="matrix(27.673888,0,0,-27.673888,560.6664,375.79884)"/>
<symbol id="font_3_2">
<path d="M .45700003 .586 C .461 .6 .461 .602 .461 .609 C .461 .62700006 .447 .63600006 .432 .63600006 C .42200003 .63600006 .40600003 .63 .397 .615 C .395 .61 .387 .579 .38300003 .561 C .37600003 .535 .36900003 .508 .363 .48100005 L .318 .301 C .314 .286 .271 .21600002 .20500002 .21600002 C .15400002 .21600002 .143 .26000003 .143 .29700003 C .143 .34300003 .16000001 .40500004 .194 .49300004 C .21000001 .53400006 .21400002 .545 .21400002 .56500008 C .21400002 .61 .18200001 .6470001 .13200002 .6470001 C .037 .6470001 0 .50200006 0 .49300004 C 0 .48300005 .01 .48300005 .012 .48300005 C .022000002 .48300005 .023 .485 .028000003 .50100007 C .055000009 .595 .095000009 .625 .12900001 .625 C .13700001 .625 .15400002 .625 .15400002 .59300008 C .15400002 .568 .14400001 .54200008 .13700001 .523 C .097 .41700004 .079 .36 .079 .31300003 C .079 .224 .142 .194 .201 .194 C .24000003 .194 .274 .21100001 .30200003 .23900002 C .289 .187 .277 .13800001 .237 .08500001 C .21100001 .051 .17300001 .022 .127 .022 C .113000009 .022 .068 .025000006 .051000008 .06400001 C .067 .06400001 .080000009 .06400001 .094000007 .076000008 C .104 .08500001 .11400001 .098000008 .11400001 .117000009 C .11400001 .148 .087000008 .15200001 .07700001 .15200001 C .054000006 .15200001 .021 .136 .021 .087000008 C .021 .037 .065000008 0 .127 0 C .23 0 .333 .091000009 .361 .20400001 L .45700003 .586 Z "/>
</symbol>
<use xlink:href="#font_3_2" transform="matrix(27.673888,0,0,-27.673888,121.74143,26.809256)"/>
</g>
</svg>
