<?xml version="1.0" encoding="UTF-8" standalone="no"?>
<!DOCTYPE svg PUBLIC "-//W3C//DTD SVG 1.1//EN" "http://www.w3.org/Graphics/SVG/1.1/DTD/svg11.dtd">
<svg xmlns="http://www.w3.org/2000/svg" xmlns:xlink="http://www.w3.org/1999/xlink" version="1.1" width="584.8583pt" height="485.78889pt" viewBox="0 0 584.8583 485.78889">
<g enable-background="new">
<path transform="matrix(2.7777777,0,0,-2.7777777,55.302778,447.31944)" stroke-width=".79701" stroke-linecap="butt" stroke-miterlimit="10" stroke-linejoin="miter" fill="none" stroke="#000000" d="M -16.19003 53.79979 L 175.4906 53.79979 "/>
<path transform="matrix(2.7777777,0,0,-2.7777777,542.7765,297.87559)" d="M 2.59026 0 L -1.55415 2.0722 L 0 0 L -1.55415 -2.0722 "/>
<path transform="matrix(2.7777777,0,0,-2.7777777,55.302778,447.31944)" stroke-width=".79701" stroke-linecap="butt" stroke-miterlimit="10" stroke-linejoin="miter" fill="none" stroke="#000000" d="M 40.47374 -13.4506 L 40.47374 145.35846 "/>
<path transform="matrix(0,-2.7777222,-2.7777222,-0,167.72983,43.545957)" d="M 2.59026 0 L -1.55415 2.0722 L 0 0 L -1.55415 -2.0722 "/>
<clipPath id="cp0">
<path transform="matrix(2.7777777,0,0,-2.7777777,55.302778,447.31944)" d="M -16.19003 -13.4506 L 178.08081 -13.4506 L 178.08081 147.94869 L -16.19003 147.94869 Z "/>
</clipPath>
<g clip-path="url(#cp0)">
<path transform="matrix(2.7777777,0,0,-2.7777777,55.302778,447.31944)" stroke-width=".79701" stroke-linecap="butt" stroke-miterlimit="10" stroke-linejoin="miter" fill="none" stroke="#929292" d="M 0 129.88304 L .16203 129.92104 L .32408 129.95886 L .48613 129.99654 L .6482 130.03403 L .81024 130.07134 L .97229 130.10848 L 1.13435 130.14542 L 1.2964 130.18224 L 1.45845 130.21886 L 1.62051 130.2553 L 1.78256 130.29163 L 1.94461 130.32775 L 2.10667 130.36368 L 2.26872 130.39949 L 2.43077 130.43508 L 2.59282 130.47054 L 2.75488 130.5058 L 2.91693 130.54093 L 3.07898 130.57587 L 3.24104 130.61067 L 3.40309 130.64527 L 3.56514 130.67975 L 3.7272 130.71402 L 3.88925 130.74814 L 4.0513 130.78208 L 4.21336 130.81587 L 4.37541 130.84947 L 4.53746 130.88294 L 4.69952 130.91622 L 4.86157 130.94934 L 5.02362 130.9823 L 5.18567 131.01509 L 5.34773 131.04772 L 5.50978 131.08019 L 5.67183 131.11249 L 5.8339 131.14464 L 5.99594 131.1766 L 6.15799 131.20842 L 6.32005 131.24005 L 6.4821 131.27156 L 6.64415 131.30292 L 6.80621 131.33406 L 6.96826 131.36507 L 7.13031 131.39589 L 7.29237 131.42659 L 7.45442 131.45708 L 7.61647 131.48746 L 7.77852 131.51763 L 7.94058 131.54766 L 8.10263 131.57755 L 8.26468 131.60726 L 8.42673 131.6368 L 8.58878 131.6662 L 8.75082 131.69545 L 8.91289 131.7245 L 9.07494 131.75345 L 9.23698 131.78217 L 9.39905 131.81076 L 9.5611 131.83917 L 9.72314 131.86748 L 9.8852 131.89559 L 10.04726 131.92356 L 10.2093 131.95134 L 10.37135 131.97896 L 10.53342 132.0065 L 10.69547 132.03377 L 10.85751 132.06096 L 11.01958 132.08797 L 11.18163 132.1148 L 11.34367 132.14151 L 11.50574 132.16808 L 11.66779 132.19445 L 11.82983 132.22066 L 11.9919 132.24674 L 12.15395 132.2726 L 12.316 132.2984 L 12.47804 132.32396 L 12.6401 132.34941 L 12.80215 132.3747 L 12.9642 132.39981 L 13.12627 132.4248 L 13.28831 132.44966 L 13.45036 132.47434 L 13.61243 132.49884 L 13.77448 132.52315 L 13.93652 132.54737 L 14.09859 132.57144 L 14.26064 132.59526 L 14.42268 132.61907 L 14.58475 132.64263 L 14.7468 132.66605 L 14.90884 132.68932 L 15.07089 132.71242 L 15.23296 132.73542 L 15.395 132.75823 L 15.55705 132.78089 L 15.71912 132.80339 L 15.88116 132.82575 L 16.04321 132.84792 L 16.20528 132.87 L 16.36732 132.89188 L 16.52936 132.91362 L 16.69144 132.93523 L 16.85347 132.95665 L 17.01552 132.97792 L 17.1776 132.99904 L 17.33963 133.02002 L 17.5017 133.04087 L 17.66373 133.06153 L 17.82579 133.08205 L 17.98785 133.10245 L 18.14989 133.12265 L 18.31197 133.14272 L 18.474 133.16266 L 18.63605 133.18242 L 18.79813 133.20203 L 18.96016 133.22147 L 19.12222 133.24082 L 19.28427 133.26 L 19.44632 133.27899 L 19.60838 133.29787 L 19.77042 133.31655 L 19.93248 133.3351 L 20.09453 133.35353 L 20.25658 133.3718 L 20.41866 133.38991 L 20.58069 133.40789 L 20.74274 133.42568 L 20.9048 133.44336 L 21.06685 133.46085 L 21.22891 133.47824 L 21.39096 133.49542 L 21.55301 133.51251 L 21.71506 133.5294 L 21.87712 133.54618 L 22.03918 133.56284 L 22.20122 133.57927 L 22.36327 133.59557 L 22.52531 133.61173 L 22.68738 133.62779 L 22.84943 133.64368 L 23.01149 133.65941 L 23.17354 133.67496 L 23.33557 133.6904 L 23.49765 133.70566 L 23.6597 133.72083 L 23.82175 133.7358 L 23.98381 133.75064 L 24.14584 133.76532 L 24.3079 133.77986 L 24.46997 133.79428 L 24.63202 133.8085 L 24.79407 133.82262 L 24.9561 133.83657 L 25.11818 133.85034 L 25.28023 133.86402 L 25.44226 133.8775 L 25.60434 133.8909 L 25.76637 133.90412 L 25.92844 133.91716 L 26.0905 133.9301 L 26.25253 133.94287 L 26.4146 133.95552 L 26.57664 133.96797 L 26.73871 133.98032 L 26.90076 133.99254 L 27.06279 134.00455 L 27.22487 134.01645 L 27.3869 134.0282 L 27.54897 134.03983 L 27.71103 134.05126 L 27.87306 134.06256 L 28.03513 134.07372 L 28.19717 134.08478 L 28.35924 134.09564 L 28.52129 134.10634 L 28.68333 134.11695 L 28.8454 134.12735 L 29.00743 134.1377 L 29.1695 134.1478 L 29.33156 134.15779 L 29.49359 134.16762 L 29.65565 134.17737 L 29.8177 134.18692 L 29.97975 134.19632 L 30.14182 134.20561 L 30.30386 134.2147 L 30.46593 134.22371 L 30.62794 134.23253 L 30.79002 134.24123 L 30.95209 134.24977 L 31.11412 134.2582 L 31.2762 134.26644 L 31.43822 134.27452 L 31.60028 134.28252 L 31.76236 134.29032 L 31.9244 134.298 L 32.08644 134.30554 L 32.24847 134.31295 L 32.41055 134.32015 L 32.57262 134.32724 L 32.73465 134.33419 L 32.89671 134.34102 L 33.05875 134.34766 L 33.22081 134.35419 L 33.38289 134.36055 L 33.5449 134.36679 L 33.70697 134.37287 L 33.86902 134.37883 L 34.03108 134.3846 L 34.19315 134.39028 L 34.35518 134.39575 L 34.51724 134.40114 L 34.67928 134.40636 L 34.84134 134.41139 L 35.0034 134.41634 L 35.16544 134.42113 L 35.3275 134.42578 L 35.48955 134.43025 L 35.65161 134.43463 L 35.81366 134.43883 L 35.97571 134.44289 L 36.13777 134.44683 L 36.2998 134.4506 L 36.46188 134.45421 L 36.62393 134.4577 L 36.78596 134.46108 L 36.94803 134.46428 L 37.11008 134.46732 L 37.27213 134.47022 L 37.43419 134.47296 L 37.59624 134.4756 L 37.7583 134.4781 L 37.92033 134.48046 L 38.0824 134.48262 L 38.24446 134.48468 L 38.4065 134.4866 L 38.56857 134.48836 L 38.7306 134.48996 L 38.89265 134.49144 L 39.05473 134.49277 L 39.21677 134.49394 L 39.37883 134.49503 L 39.54086 134.49591 L 39.70293 134.49668 L 39.86499 134.4973 L 40.02702 134.49771 L 40.18909 134.49806 L 40.35114 134.49825 L 40.51318 134.49825 L 40.67526 134.49817 L 40.8373 134.49793 L 40.99936 134.49752 L 41.1614 134.497 L 41.32346 134.49629 L 41.48552 134.49552 L 41.64757 134.4945 L 41.80962 134.49341 L 41.97166 134.49214 L 42.13371 134.49074 L 42.29579 134.4892 L 42.45782 134.48749 L 42.61987 134.48569 L 42.78194 134.4837 L 42.94398 134.4816 L 43.10605 134.47931 L 43.2681 134.47693 L 43.43015 134.47437 L 43.5922 134.47165 L 43.75426 134.46881 L 43.91632 134.46584 L 44.07835 134.46273 L 44.2404 134.45946 L 44.40245 134.45603 L 44.56451 134.45249 L 44.72658 134.44875 L 44.88863 134.44493 L 45.05067 134.44092 L 45.2127 134.43682 L 45.37479 134.43253 L 45.53683 134.42809 L 45.69888 134.42354 L 45.86095 134.41884 L 46.02298 134.41396 L 46.18504 134.40897 L 46.3471 134.4038 L 46.50916 134.39852 L 46.6712 134.3931 L 46.83324 134.3875 L 46.99532 134.3818 L 47.15736 134.37593 L 47.31941 134.36992 L 47.48148 134.36376 L 47.64351 134.35747 L 47.80557 134.35103 L 47.96764 134.34447 L 48.12967 134.33774 L 48.29173 134.33083 L 48.45378 134.32384 L 48.61584 134.31664 L 48.7779 134.30931 L 48.93994 134.30188 L 49.102 134.29424 L 49.26404 134.28655 L 49.4261 134.27867 L 49.58817 134.27063 L 49.7502 134.26245 L 49.91226 134.2541 L 50.07431 134.2456 L 50.23637 134.237 L 50.39842 134.22826 L 50.56047 134.21936 L 50.72253 134.2103 L 50.88457 134.20111 L 51.04663 134.19174 L 51.2087 134.1823 L 51.37073 134.17266 L 51.5328 134.16286 L 51.69484 134.15294 L 51.85689 134.14287 L 52.01895 134.13266 L 52.181 134.12227 L 52.34306 134.11182 L 52.50508 134.10114 L 52.66716 134.09033 L 52.82922 134.07939 L 52.99126 134.06829 L 53.15334 134.05707 L 53.31535 134.04569 L 53.47742 134.03415 L 53.6395 134.0225 L 53.80153 134.01067 L 53.96358 133.9987 L 54.12561 133.9866 L 54.28769 133.97435 L 54.44975 133.96193 L 54.61179 133.94936 L 54.77385 133.93666 L 54.93588 133.92383 L 55.09795 133.91085 L 55.26003 133.8977 L 55.42204 133.88443 L 55.5841 133.87094 L 55.74615 133.85736 L 55.90822 133.84368 L 56.07028 133.82979 L 56.23232 133.81574 L 56.39438 133.80158 L 56.55641 133.78725 L 56.71848 133.77281 L 56.88055 133.75821 L 57.04257 133.74341 L 57.20464 133.72855 L 57.36668 133.71347 L 57.52875 133.69821 L 57.6908 133.68289 L 57.85284 133.66739 L 58.01491 133.65172 L 58.17694 133.63597 L 58.33902 133.62 L 58.50107 133.60391 L 58.6631 133.58766 L 58.82518 133.57128 L 58.98721 133.55474 L 59.14926 133.53803 L 59.31133 133.5212 L 59.47337 133.5042 L 59.63544 133.48706 L 59.79747 133.46976 L 59.95953 133.45235 L 60.1216 133.43477 L 60.28363 133.41704 L 60.44571 133.39911 L 60.60774 133.3811 L 60.76979 133.36292 L 60.93187 133.34458 L 61.0939 133.32611 L 61.25597 133.30748 L 61.41801 133.28868 L 61.58006 133.26976 L 61.74213 133.25066 L 61.90416 133.23143 L 62.06622 133.21205 L 62.22827 133.1925 L 62.39032 133.17279 L 62.5524 133.15299 L 62.71443 133.13298 L 62.87648 133.11283 L 63.03854 133.09255 L 63.20059 133.07209 L 63.36266 133.05153 L 63.5247 133.03076 L 63.68675 133.00986 L 63.8488 132.98879 L 64.01085 132.96756 L 64.17293 132.94623 L 64.33496 132.92472 L 64.49701 132.90303 L 64.65906 132.88124 L 64.82112 132.85926 L 64.98318 132.83716 L 65.14523 132.8149 L 65.30728 132.79242 L 65.46931 132.76985 L 65.6314 132.74715 L 65.79344 132.72426 L 65.95549 132.70117 L 66.11755 132.678 L 66.27959 132.65465 L 66.44165 132.63117 L 66.6037 132.6075 L 66.76576 132.5837 L 66.92781 132.55974 L 67.08984 132.53562 L 67.25192 132.51136 L 67.41397 132.4869 L 67.57602 132.46231 L 67.73808 132.43759 L 67.90012 132.41268 L 68.06218 132.38764 L 68.22424 132.36243 L 68.38628 132.33707 L 68.54834 132.31154 L 68.71039 132.28589 L 68.87245 132.26001 L 69.0345 132.23404 L 69.19653 132.20789 L 69.35861 132.18164 L 69.52065 132.15517 L 69.68271 132.12854 L 69.84477 132.10173 L 70.0068 132.07482 L 70.16887 132.04778 L 70.33092 132.02053 L 70.49298 131.99309 L 70.65503 131.96555 L 70.81708 131.9378 L 70.97914 131.90995 L 71.14117 131.88191 L 71.30322 131.8537 L 71.4653 131.82538 L 71.62733 131.79686 L 71.7894 131.76816 L 71.95145 131.73935 L 72.1135 131.71038 L 72.27556 131.68123 L 72.4376 131.65192 L 72.59967 131.62247 L 72.76169 131.59282 L 72.92377 131.563 L 73.08583 131.53304 L 73.24786 131.50298 L 73.40994 131.47267 L 73.57196 131.44226 L 73.73402 131.41165 L 73.89609 131.3809 L 74.05814 131.34999 L 74.22018 131.31893 L 74.38222 131.28765 L 74.5443 131.25624 L 74.70636 131.2247 L 74.8684 131.19295 L 75.03046 131.16106 L 75.19249 131.12899 L 75.35455 131.09677 L 75.51663 131.06436 L 75.67865 131.03182 L 75.84071 130.99913 L 76.00276 130.96623 L 76.16483 130.9332 L 76.32689 130.90003 L 76.4889 130.86664 L 76.65099 130.83315 L 76.81302 130.79941 L 76.97508 130.76554 L 77.13715 130.73152 L 77.29918 130.69731 L 77.46124 130.66298 L 77.62329 130.62844 L 77.78535 130.59377 L 77.9474 130.55887 L 78.10945 130.52385 L 78.27151 130.48863 L 78.43355 130.4533 L 78.59563 130.41776 L 78.75768 130.38205 L 78.91971 130.34619 L 79.08177 130.31012 L 79.24382 130.27393 L 79.40587 130.23755 L 79.56793 130.20102 L 79.72998 130.16434 L 79.89204 130.12746 L 80.05408 130.09038 L 80.21614 130.05318 L 80.3782 130.01576 L 80.54024 129.97818 L 80.70232 129.94048 L 80.86435 129.90258 L 81.0264 129.8645 L 81.18846 129.82627 L 81.35051 129.78781 L 81.51257 129.74924 L 81.6746 129.71051 L 81.83667 129.67154 L 81.99873 129.6324 L 82.16077 129.59314 L 82.32283 129.55367 L 82.48488 129.51406 L 82.64693 129.47425 L 82.809 129.43425 L 82.97104 129.3941 L 83.13309 129.35375 L 83.29515 129.3133 L 83.4572 129.27262 L 83.61926 129.23174 L 83.7813 129.1907 L 83.94336 129.14949 L 84.10541 129.1081 L 84.26746 129.06658 L 84.42953 129.02483 L 84.59157 128.98291 L 84.75362 128.94078 L 84.91566 128.89856 L 85.07773 128.85608 L 85.23978 128.81348 L 85.40184 128.77068 L 85.56389 128.72769 L 85.72592 128.68451 L 85.888 128.64115 L 86.05005 128.59764 L 86.2121 128.55394 L 86.37415 128.51007 L 86.5362 128.46598 L 86.69826 128.42173 L 86.8603 128.37728 L 87.02237 128.33266 L 87.18442 128.28787 L 87.34645 128.24289 L 87.50853 128.19773 L 87.67058 128.15238 L 87.83261 128.10688 L 87.99469 128.06114 L 88.15672 128.01528 L 88.31879 127.96916 L 88.48083 127.9229 L 88.64288 127.87643 L 88.80495 127.82979 L 88.96698 127.78296 L 89.12906 127.73596 L 89.2911 127.68875 L 89.45314 127.64137 L 89.61522 127.5938 L 89.77725 127.54605 L 89.93932 127.49812 L 90.10138 127.44997 L 90.26341 127.4016 L 90.42548 127.35309 L 90.58752 127.30441 L 90.74959 127.25548 L 90.91164 127.20639 L 91.07367 127.15717 L 91.23575 127.10767 L 91.39778 127.058 L 91.55983 127.00813 L 91.72191 126.9581 L 91.88394 126.90788 L 92.046 126.85742 L 92.20805 126.80682 L 92.3701 126.756 L 92.53217 126.70497 L 92.69421 126.65375 L 92.85628 126.60236 L 93.0183 126.55074 L 93.18037 126.49892 L 93.34244 126.44695 L 93.50447 126.39476 L 93.66653 126.34236 L 93.82857 126.28981 L 93.99063 126.23703 L 94.1527 126.18404 L 94.31474 126.13083 L 94.47679 126.07748 L 94.63882 126.0239 L 94.8009 125.9701 L 94.96297 125.9161 L 95.125 125.86192 L 95.28706 125.80754 L 95.4491 125.75296 L 95.61116 125.69817 L 95.77322 125.64316 L 95.93526 125.58797 L 96.09732 125.53253 L 96.25935 125.47691 L 96.42143 125.42114 L 96.5835 125.36511 L 96.74551 125.30893 L 96.9076 125.25244 L 97.06963 125.19585 L 97.23169 125.13899 L 97.39375 125.08188 L 97.55579 125.02466 L 97.71785 124.9672 L 97.8799 124.90952 L 98.04196 124.85158 L 98.20401 124.79352 L 98.36604 124.73517 L 98.52812 124.67665 L 98.69016 124.61795 L 98.85222 124.55899 L 99.01428 124.49983 L 99.17632 124.44044 L 99.33838 124.38081 L 99.50043 124.32108 L 99.66248 124.26106 L 99.82454 124.20074 L 99.98659 124.14034 L 100.14865 124.07962 L 100.31068 124.0188 L 100.47275 123.95766 L 100.63481 123.89633 L 100.79684 123.83481 L 100.95891 123.77301 L 101.12096 123.71104 L 101.283 123.64882 L 101.44507 123.5864 L 101.60712 123.52374 L 101.76918 123.46086 L 101.93121 123.3978 L 102.09328 123.33449 L 102.25534 123.2709 L 102.41737 123.20718 L 102.57944 123.14316 L 102.74149 123.07895 L 102.90353 123.01445 L 103.06561 122.94975 L 103.22765 122.88492 L 103.3897 122.81973 L 103.55174 122.75443 L 103.7138 122.6888 L 103.87587 122.62297 L 104.0379 122.5569 L 104.19997 122.49062 L 104.36201 122.42409 L 104.52406 122.35736 L 104.68614 122.29031 L 104.84818 122.22313 L 105.01022 122.15569 L 105.17227 122.08797 L 105.33434 122.02003 L 105.49638 121.95181 L 105.65843 121.88344 L 105.8205 121.81476 L 105.98253 121.7459 L 106.14459 121.67676 L 106.30666 121.60736 L 106.4687 121.53777 L 106.63075 121.46791 L 106.7928 121.39781 L 106.95486 121.32747 L 107.11691 121.25685 L 107.27898 121.18604 L 107.44102 121.1149 L 107.60306 121.0436 L 107.76514 120.97202 L 107.92719 120.90018 L 108.08922 120.8281 L 108.25128 120.7558 L 108.41333 120.68317 L 108.5754 120.61035 L 108.73744 120.53722 L 108.89949 120.4639 L 109.06155 120.39029 L 109.22359 120.31647 L 109.38567 120.24232 L 109.54771 120.16795 L 109.70975 120.09332 L 109.87183 120.01842 L 110.03386 119.94331 L 110.19592 119.86784 L 110.35799 119.79224 L 110.52002 119.71628 L 110.68208 119.64006 L 110.84412 119.56358 L 111.0062 119.48688 L 111.16824 119.40988 L 111.33028 119.33263 L 111.49236 119.25511 L 111.65439 119.1773 L 111.81644 119.09924 L 111.97852 119.02089 L 112.14055 118.94228 L 112.30261 118.86337 L 112.46466 118.78424 L 112.62671 118.70477 L 112.78877 118.62508 L 112.95082 118.54507 L 113.11288 118.46483 L 113.2749 118.38428 L 113.43697 118.30344 L 113.59904 118.22232 L 113.76108 118.14093 L 113.92314 118.05927 L 114.08517 117.9773 L 114.24724 117.89508 L 114.4093 117.81255 L 114.57135 117.72969 L 114.7334 117.64656 L 114.89543 117.56319 L 115.05751 117.47948 L 115.21957 117.39551 L 115.3816 117.31123 L 115.54366 117.22662 L 115.7057 117.14178 L 115.86777 117.05663 L 116.02983 116.97116 L 116.19188 116.88538 L 116.35393 116.7993 L 116.51596 116.71295 L 116.67804 116.6263 L 116.8401 116.53932 L 117.00212 116.45203 L 117.1642 116.36446 L 117.32623 116.27655 L 117.4883 116.18835 L 117.65036 116.09984 L 117.8124 116.01097 L 117.97446 115.92183 L 118.13649 115.83238 L 118.29857 115.74263 L 118.46062 115.65254 L 118.62265 115.56209 L 118.78473 115.47139 L 118.94676 115.3803 L 119.10883 115.28893 L 119.27089 115.19725 L 119.43292 115.1052 L 119.59499 115.01285 L 119.75703 114.92018 L 119.91908 114.82713 L 120.08115 114.7338 L 120.2432 114.6401 L 120.40526 114.54608 L 120.56729 114.45172 L 120.72934 114.35703 L 120.89142 114.26201 L 121.05345 114.16661 L 121.21552 114.07089 L 121.37756 113.97481 L 121.53961 113.87842 L 121.70168 113.78165 L 121.86372 113.68454 L 122.02579 113.58711 L 122.18782 113.48927 L 122.34988 113.39108 L 122.51195 113.29257 L 122.67398 113.19366 L 122.83603 113.09442 L 122.9981 112.99484 L 123.16014 112.89484 L 123.3222 112.7945 L 123.48425 112.6938 L 123.6463 112.59271 L 123.80835 112.49129 L 123.97041 112.38943 L 124.13248 112.28725 L 124.29451 112.18468 L 124.45657 112.08173 L 124.61862 111.97836 L 124.78067 111.87465 L 124.94275 111.77055 L 125.10478 111.66605 L 125.26683 111.56119 L 125.42886 111.4559 L 125.59094 111.35022 L 125.753 111.24414 L 125.91504 111.13768 L 126.0771 111.03084 L 126.23914 110.92352 L 126.4012 110.81587 L 126.56326 110.7078 L 126.72531 110.59929 L 126.88736 110.49042 L 127.04941 110.38107 L 127.21147 110.27136 L 127.37352 110.1612 L 127.53558 110.0506 L 127.69763 109.9396 L 127.85966 109.82819 L 128.02173 109.71635 L 128.18379 109.60403 L 128.34583 109.49133 L 128.50789 109.37814 L 128.66994 109.26453 L 128.832 109.1505 L 128.99405 109.03598 L 129.1561 108.92107 L 129.31816 108.80568 L 129.4802 108.68983 L 129.64228 108.57353 L 129.80432 108.45674 L 129.96636 108.33958 L 130.12844 108.22185 L 130.29047 108.10373 L 130.45253 107.98509 L 130.61458 107.86598 L 130.77663 107.74641 L 130.93869 107.62631 L 131.10073 107.50575 L 131.2628 107.38477 L 131.42485 107.2632 L 131.58689 107.14117 L 131.74897 107.01865 L 131.911 106.89563 L 132.07305 106.77216 L 132.23513 106.64812 L 132.39716 106.52357 L 132.55922 106.3985 L 132.72126 106.27289 L 132.88332 106.1468 L 133.04538 106.02019 L 133.20742 105.89304 L 133.36949 105.76534 L 133.53151 105.63713 L 133.69358 105.50833 L 133.85565 105.379 L 134.01769 105.24913 L 134.17975 105.11873 L 134.34178 104.98772 L 134.50385 104.8562 L 134.66591 104.72406 L 134.82796 104.59137 L 134.99 104.45813 L 135.15204 104.32428 L 135.3141 104.18987 L 135.47618 104.05482 L 135.63822 103.91919 L 135.80027 103.783 L 135.96231 103.64624 L 136.12438 103.50873 L 136.28644 103.37071 L 136.44849 103.23204 L 136.61054 103.09273 L 136.77257 102.95285 L 136.93465 102.81227 L 137.09671 102.67107 L 137.25873 102.52922 L 137.4208 102.38672 L 137.58284 102.24364 L 137.7449 102.09972 L 137.90697 101.95523 L 138.069 101.81006 L 138.23107 101.66422 L 138.3931 101.51772 L 138.55518 101.37047 L 138.71723 101.22252 L 138.87926 101.07388 L 139.04134 100.92448 L 139.20337 100.77448 L 139.36544 100.6236 L 139.5275 100.47203 L 139.68953 100.31981 L 139.8516 100.16669 L 140.01364 100.01299 L 140.17569 99.85834 L 140.33776 99.70299 L 140.49979 99.54694 L 140.66187 99.38998 L 140.8239 99.23232 L 140.98595 99.07378 L 141.14803 98.91441 L 141.31006 98.75433 L 141.47212 98.59332 L 141.63416 98.43155 L 141.79622 98.26884 L 141.95829 98.10527 L 142.12033 97.94096 L 142.2824 97.7756 L 142.44441 97.60953 L 142.60648 97.4424 L 142.76856 97.27444 L 142.93059 97.1056 L 143.09264 96.93571 L 143.25469 96.76501 L 143.41675 96.59323 L 143.57881 96.42055 L 143.74086 96.24696 L 143.90291 96.07231 L 144.06494 95.89667 L 144.22702 95.72003 L 144.38909 95.5423 L 144.5511 95.36366 L 144.71318 95.1838 L 144.87522 95.00304 L 145.03728 94.82112 L 145.19934 94.63803 L 145.36138 94.454 L 145.52344 94.26868 L 145.68547 94.08237 L 145.84755 93.89482 L 146.00962 93.70601 L 146.17163 93.51622 L 146.33371 93.3251 L 146.49575 93.13277 L 146.6578 92.93921 L 146.81987 92.74438 L 146.9819 92.54828 L 147.14397 92.35085 L 147.30602 92.1521 L 147.46808 91.95201 L 147.63013 91.75055 L 147.79216 91.54782 L 147.95424 91.3436 L 148.11627 91.13799 L 148.27832 90.9309 L 148.4404 90.72223 L 148.60243 90.51224 L 148.7645 90.30064 L 148.92655 90.08751 L 149.0886 89.87277 L 149.25066 89.65648 L 149.4127 89.43848 L 149.57477 89.21884 L 149.7368 88.99747 L 149.89885 88.77437 L 150.06093 88.54955 L 150.22296 88.32288 L 150.38503 88.09442 L 150.54708 87.86407 L 150.70912 87.63179 L 150.87119 87.39758 L 151.03324 87.16135 L 151.19528 86.92311 L 151.35733 86.68279 L 151.5194 86.44034 L 151.68146 86.19574 L 151.84349 85.94891 L 152.00556 85.6998 L 152.1676 85.44832 L 152.32965 85.19449 L 152.49172 84.93825 L 152.65377 84.67946 L 152.81581 84.41815 L 152.97786 84.15417 L 153.13993 83.88748 L 153.30199 83.61806 L 153.46402 83.34575 L 153.62609 83.07054 L 153.78812 82.79234 L 153.95018 82.51102 L 154.11225 82.22647 L 154.27429 81.93867 L 154.43634 81.64748 L 154.59839 81.35274 L 154.76045 81.05441 L 154.9225 80.75238 L 155.08455 80.44688 L 155.24662 80.137 L 155.40865 79.82294 L 155.57071 79.50462 L 155.73278 79.18184 L 155.89482 78.85445 L 156.05687 78.52223 L 156.21892 78.18504 L 156.38098 77.84262 L 156.54303 77.49478 L 156.7051 77.14124 L 156.86714 76.78178 L 157.02918 76.41606 L 157.19126 76.04384 L 157.3533 75.66473 L 157.51534 75.27841 L 157.6774 74.88446 L 157.83945 74.48244 L 158.00151 74.07187 L 158.16356 73.65225 L 158.3256 73.22293 L 158.48767 72.78333 L 158.6497 72.33267 L 158.81179 71.87013 L 158.97383 71.39478 L 159.13587 70.90556 L 159.29795 70.4012 L 159.45998 69.88031 L 159.62204 69.34125 L 159.78409 68.78201 L 159.94614 68.2003 L 160.1082 67.59322 L 160.27024 66.95726 L 160.4323 66.28804 L 160.59436 65.57988 L 160.7564 64.82529 L 160.91847 64.01402 L 161.0805 63.1312 L 161.24256 62.1541 L 161.40464 61.04501 L 161.56667 59.73012 L 161.72873 58.0213 L 161.89076 54.47098 "/>
<symbol id="font_1_1">
<path d="M .421 .34200005 C .421 .42200003 .416 .50200006 .381 .57600006 C .335 .67200008 .25300003 .688 .211 .688 C .15100001 .688 .07800001 .66200008 .037000006 .56900009 C .0050000029 .5 0 .42200003 0 .34200005 C 0 .26700003 .0040000008 .177 .045000007 .101 C .088 .020000002 .161 0 .21000001 0 C .264 0 .34 .021000002 .384 .116000007 C .416 .185 .421 .263 .421 .34200005 M .21000001 .022000002 C .171 .022000002 .112 .047000003 .094 .143 C .083000008 .20300001 .083000008 .29500003 .083000008 .35400004 C .083000008 .41800005 .083000008 .48400004 .091000009 .53800007 C .11 .65700009 .185 .66600009 .21000001 .66600009 C .243 .66600009 .30900003 .64800009 .328 .549 C .338 .49300004 .338 .41700004 .338 .35400004 C .338 .279 .338 .21100001 .32700003 .147 C .312 .052 .255 .022000002 .21000001 .022000002 Z "/>
</symbol>
<use xlink:href="#font_1_1" transform="matrix(27.673888,0,0,-27.673888,139.40428,322.34773)"/>
<symbol id="font_1_2">
<path d="M .24800003 .37400005 C .33 .40100003 .388 .47100006 .388 .55 C .388 .632 .3 .688 .204 .688 C .10300001 .688 .027000003 .628 .027000003 .55200007 C .027000003 .519 .049000004 .5 .078 .5 C .109000008 .5 .12900001 .522 .12900001 .55100008 C .12900001 .6010001 .082 .6010001 .067 .6010001 C .098 .65000006 .164 .66300007 .20000002 .66300007 C .24100003 .66300007 .29600004 .64100006 .29600004 .55100008 C .29600004 .53900006 .29400004 .48100005 .268 .43700005 C .238 .38900004 .204 .38600005 .17900002 .38500003 C .171 .38400004 .14700002 .38200004 .14000002 .38200004 C .132 .38100005 .125 .38000003 .125 .37000004 C .125 .35900004 .132 .35900004 .14900002 .35900004 L .19300002 .35900004 C .275 .35900004 .312 .29100005 .312 .193 C .312 .057000005 .24300003 .028 .199 .028 C .15600002 .028 .081 .045 .046000005 .104 C .081 .09900001 .11200001 .12100001 .11200001 .15900001 C .11200001 .19500001 .085 .215 .056 .215 C .031999999 .215 0 .201 0 .157 C 0 .06600001 .093 0 .20200002 0 C .32400004 0 .41500003 .091000009 .41500003 .193 C .41500003 .27500005 .35200004 .35300005 .24800003 .37400005 Z "/>
</symbol>
<use xlink:href="#font_1_2" transform="matrix(27.673888,0,0,-27.673888,499.24836,322.34773)"/>
<symbol id="font_1_3">
<path d="M .49100007 .648 C .49800004 .65900006 .49800004 .66 .49800004 .66700008 C .49800004 .683 .49200005 .683 .472 .683 L .024000004 .683 L .013000004 .45800004 L .038000004 .45800004 C .045 .57100006 .07500001 .652 .23900002 .652 L .39600004 .652 L .0069999995 .037 C 0 .026 0 .025 0 .017 C 0 0 .0050000029 0 .026 0 L .48700006 0 L .504 .26700003 L .47900004 .26700003 C .47100003 .128 .45200003 .034 .26700003 .034 L .10300001 .034 L .49100007 .648 Z "/>
</symbol>
<use xlink:href="#font_1_3" transform="matrix(27.673888,0,0,-27.673888,329.46089,307.3333)"/>
<path transform="matrix(2.7777777,0,0,-2.7777777,55.302778,447.31944)" stroke-width=".3985" stroke-linecap="butt" stroke-dasharray="2.98883,2.98883" stroke-miterlimit="10" stroke-linejoin="miter" fill="none" stroke="#000000" d="M 161.89499 53.79979 L 161.89499 322.7988 "/>
</g>
<symbol id="font_2_1">
<path d="M .305 .31300003 C .311 .33900003 .334 .43100003 .404 .43100003 C .409 .43100003 .433 .43100003 .454 .418 C .426 .41300003 .40600003 .388 .40600003 .36400003 C .40600003 .34800003 .417 .32900004 .444 .32900004 C .46600003 .32900004 .498 .34700004 .498 .38700003 C .498 .43900005 .439 .45300005 .405 .45300005 C .347 .45300005 .312 .40000005 .3 .37700004 C .275 .44300003 .221 .45300005 .19200002 .45300005 C .08800001 .45300005 .031000002 .32400004 .031000002 .29900003 C .031000002 .28900004 .041 .28900004 .043000007 .28900004 C .051000008 .28900004 .054000006 .291 .056 .3 C .09 .40600003 .156 .43100003 .19000001 .43100003 C .209 .43100003 .244 .42200003 .244 .36400003 C .244 .33300004 .22700002 .26600004 .19000001 .126 C .17400001 .064 .13900002 .022000002 .095000009 .022000002 C .08900001 .022000002 .06600001 .022000002 .045 .035 C .07000001 .040000004 .09200001 .061 .09200001 .089 C .09200001 .116000007 .07000001 .124000009 .055000009 .124000009 C .025 .124000009 0 .098000008 0 .06600001 C 0 .020000002 .050000006 0 .094000007 0 C .16000001 0 .19600001 .07000001 .19900002 .076000008 C .21100001 .039 .24700003 0 .307 0 C .41 0 .467 .12900001 .467 .15400002 C .467 .16400002 .458 .16400002 .455 .16400002 C .446 .16400002 .444 .16000001 .442 .15300001 C .409 .046 .341 .022000002 .30900003 .022000002 C .27 .022000002 .254 .054 .254 .08800001 C .254 .11000001 .26 .13200002 .271 .17600002 L .305 .31300003 Z "/>
</symbol>
<use xlink:href="#font_2_1" transform="matrix(27.673888,0,0,-27.673888,560.622,319.8544)"/>
<symbol id="font_2_2">
<path d="M .45700003 .586 C .461 .6 .461 .602 .461 .609 C .461 .62700006 .447 .63600006 .432 .63600006 C .42200003 .63600006 .40600003 .63 .397 .615 C .395 .61 .387 .579 .38300003 .561 C .37600003 .535 .36900003 .508 .363 .48100005 L .318 .301 C .314 .286 .271 .21600002 .20500002 .21600002 C .15400002 .21600002 .143 .26000003 .143 .29700003 C .143 .34300003 .16000001 .40500004 .194 .49300004 C .21000001 .53400006 .21400002 .545 .21400002 .56500008 C .21400002 .61 .18200001 .6470001 .13200002 .6470001 C .037 .6470001 0 .50200006 0 .49300004 C 0 .48300005 .01 .48300005 .012 .48300005 C .022000002 .48300005 .023 .485 .028000003 .50100007 C .055000009 .595 .095000009 .625 .12900001 .625 C .13700001 .625 .15400002 .625 .15400002 .59300008 C .15400002 .568 .14400001 .54200008 .13700001 .523 C .097 .41700004 .079 .36 .079 .31300003 C .079 .224 .142 .194 .201 .194 C .24000003 .194 .274 .21100001 .30200003 .23900002 C .289 .187 .277 .13800001 .237 .08500001 C .21100001 .051 .17300001 .022 .127 .022 C .113000009 .022 .068 .025000006 .051000008 .06400001 C .067 .06400001 .080000009 .06400001 .094000007 .076000008 C .104 .08500001 .11400001 .098000008 .11400001 .117000009 C .11400001 .148 .087000008 .15200001 .07700001 .15200001 C .054000006 .15200001 .021 .136 .021 .087000008 C .021 .037 .065000008 0 .127 0 C .23 0 .333 .091000009 .361 .20400001 L .45700003 .586 Z "/>
</symbol>
<use xlink:href="#font_2_2" transform="matrix(27.673888,0,0,-27.673888,144.21086,26.812033)"/>
</g>
</svg>
