<?xml version="1.0" encoding="UTF-8" standalone="no"?>
<!DOCTYPE svg PUBLIC "-//W3C//DTD SVG 1.1//EN" "http://www.w3.org/Graphics/SVG/1.1/DTD/svg11.dtd">
<svg xmlns="http://www.w3.org/2000/svg" xmlns:xlink="http://www.w3.org/1999/xlink" version="1.1" width="584.85pt" height="485.78334pt" viewBox="0 0 584.85 485.78334">
<g enable-background="new">
<path transform="matrix(2.7777777,0,0,-2.7777777,10.330556,484.675)" stroke-width=".79701" stroke-linecap="butt" stroke-miterlimit="10" stroke-linejoin="miter" fill="none" stroke="#000000" d="M 0 22.72705 L 191.68065 22.72705 "/>
<path transform="matrix(2.7777777,0,0,-2.7777777,542.7766,421.54429)" d="M 2.59026 0 L -1.55415 2.0722 L 0 0 L -1.55415 -2.0722 "/>
<path transform="matrix(2.7777777,0,0,-2.7777777,10.330556,484.675)" stroke-width=".79701" stroke-linecap="butt" stroke-miterlimit="10" stroke-linejoin="miter" fill="none" stroke="#000000" d="M 56.66379 0 L 56.66379 158.8078 "/>
<path transform="matrix(0,-2.7777222,-2.7777222,-0,167.72998,43.542226)" d="M 2.59026 0 L -1.55415 2.0722 L 0 0 L -1.55415 -2.0722 "/>
<clipPath id="cp0">
<path transform="matrix(2.7777777,0,0,-2.7777777,10.330556,484.675)" d="M 0 0 L 194.27086 0 L 194.27086 161.39801 L 0 161.39801 Z "/>
</clipPath>
<g clip-path="url(#cp0)">
<path transform="matrix(2.7777777,0,0,-2.7777777,10.330556,484.675)" d="M 56.66377 22.72705 L 56.70323 22.72705 L 56.86531 22.72705 L 57.02734 22.72705 L 57.1894 22.72705 L 57.35144 22.72707 L 57.5135 22.72708 L 57.67557 22.72711 L 57.8376 22.72716 L 57.99966 22.72722 L 58.16171 22.72728 L 58.32376 22.72736 L 58.48584 22.72746 L 58.64787 22.72758 L 58.80992 22.72774 L 58.97198 22.7279 L 59.13403 22.7281 L 59.2961 22.72832 L 59.45813 22.72858 L 59.6202 22.72885 L 59.78224 22.72917 L 59.94429 22.72952 L 60.10637 22.7299 L 60.2684 22.73033 L 60.43045 22.73077 L 60.5925 22.73128 L 60.75456 22.73184 L 60.91663 22.73242 L 61.07867 22.73308 L 61.24072 22.73376 L 61.40276 22.7345 L 61.56483 22.73528 L 61.72688 22.73613 L 61.88893 22.73703 L 62.05098 22.73799 L 62.21303 22.739 L 62.37509 22.74008 L 62.53714 22.74123 L 62.6992 22.74243 L 62.86125 22.7437 L 63.02328 22.74504 L 63.18536 22.74646 L 63.34741 22.74792 L 63.50946 22.7495 L 63.67152 22.75111 L 63.83356 22.75284 L 63.99562 22.75462 L 64.15768 22.75648 L 64.31972 22.75845 L 64.48178 22.76047 L 64.64381 22.7626 L 64.8059 22.7648 L 64.96794 22.76712 L 65.12997 22.7695 L 65.29205 22.77197 L 65.45409 22.77457 L 65.61615 22.77724 L 65.77821 22.78001 L 65.94025 22.7829 L 66.10231 22.78587 L 66.26436 22.78896 L 66.42642 22.79213 L 66.58847 22.79544 L 66.75052 22.79884 L 66.91258 22.80237 L 67.07462 22.80598 L 67.23666 22.80974 L 67.39874 22.81358 L 67.56078 22.81757 L 67.72284 22.82167 L 67.88489 22.8259 L 68.04694 22.83023 L 68.209 22.8347 L 68.37105 22.83931 L 68.53311 22.84404 L 68.69513 22.84889 L 68.85721 22.85387 L 69.01927 22.859 L 69.1813 22.86426 L 69.34337 22.86966 L 69.5054 22.8752 L 69.66747 22.88087 L 69.82953 22.8867 L 69.99158 22.89267 L 70.15363 22.89877 L 70.31566 22.90504 L 70.47774 22.91145 L 70.6398 22.91803 L 70.80183 22.92474 L 70.9639 22.93163 L 71.12593 22.93866 L 71.288 22.94586 L 71.45007 22.9532 L 71.61209 22.96072 L 71.77415 22.9684 L 71.93619 22.97624 L 72.09827 22.98427 L 72.26033 22.99245 L 72.42235 23.00081 L 72.58443 23.00935 L 72.74646 23.01805 L 72.90852 23.02695 L 73.0706 23.03603 L 73.23262 23.04526 L 73.39468 23.05469 L 73.55673 23.0643 L 73.7188 23.0741 L 73.88084 23.08409 L 74.0429 23.09425 L 74.20496 23.10463 L 74.36699 23.11519 L 74.52905 23.12595 L 74.69112 23.1369 L 74.85315 23.14806 L 75.01521 23.15941 L 75.17726 23.17097 L 75.33931 23.18272 L 75.50137 23.19469 L 75.66342 23.20686 L 75.82549 23.21924 L 75.98752 23.23184 L 76.14958 23.24464 L 76.31165 23.25766 L 76.47368 23.2709 L 76.63574 23.28436 L 76.79779 23.29805 L 76.95984 23.31194 L 77.1219 23.32607 L 77.28395 23.34041 L 77.44601 23.35498 L 77.60805 23.36978 L 77.77011 23.38481 L 77.93217 23.40009 L 78.09421 23.41559 L 78.25627 23.43132 L 78.41832 23.44731 L 78.58037 23.46352 L 78.74245 23.47998 L 78.90448 23.49667 L 79.06653 23.51363 L 79.22858 23.53082 L 79.39064 23.54825 L 79.5527 23.56595 L 79.71474 23.58391 L 79.8768 23.6021 L 80.03885 23.62056 L 80.2009 23.63927 L 80.36298 23.65823 L 80.52501 23.67747 L 80.68706 23.69696 L 80.8491 23.71672 L 81.01117 23.73676 L 81.17323 23.75705 L 81.33528 23.7776 L 81.49733 23.79846 L 81.65936 23.81956 L 81.82143 23.84096 L 81.98349 23.86261 L 82.14554 23.88457 L 82.30759 23.90677 L 82.46964 23.92929 L 82.6317 23.95207 L 82.79375 23.97517 L 82.95581 23.99852 L 83.11786 24.02217 L 83.27989 24.04613 L 83.44197 24.07036 L 83.60402 24.0949 L 83.76607 24.11974 L 83.92813 24.14487 L 84.09016 24.1703 L 84.25223 24.19604 L 84.41428 24.22208 L 84.57632 24.24841 L 84.73839 24.27507 L 84.90042 24.30203 L 85.0625 24.3293 L 85.22455 24.35689 L 85.38658 24.38478 L 85.54866 24.41301 L 85.7107 24.44154 L 85.87276 24.4704 L 86.03482 24.49957 L 86.19685 24.52908 L 86.35892 24.55891 L 86.52095 24.58905 L 86.68303 24.61955 L 86.84508 24.65036 L 87.00711 24.68152 L 87.16919 24.71298 L 87.33122 24.74481 L 87.49327 24.77696 L 87.65535 24.80945 L 87.81738 24.8423 L 87.97945 24.87547 L 88.1415 24.90901 L 88.30354 24.94289 L 88.4656 24.9771 L 88.62766 25.01167 L 88.78972 25.0466 L 88.95174 25.08188 L 89.1138 25.11751 L 89.27588 25.1535 L 89.43791 25.18985 L 89.59998 25.22656 L 89.76201 25.26364 L 89.92407 25.30109 L 90.08614 25.3389 L 90.24818 25.37706 L 90.41023 25.41562 L 90.57227 25.45453 L 90.73434 25.49384 L 90.89641 25.5335 L 91.05844 25.57353 L 91.2205 25.61395 L 91.38254 25.65475 L 91.5446 25.69595 L 91.70667 25.73753 L 91.8687 25.77948 L 92.03076 25.82182 L 92.1928 25.86456 L 92.35487 25.90768 L 92.51694 25.95123 L 92.67896 25.99513 L 92.84103 26.03944 L 93.00307 26.08415 L 93.16513 26.12927 L 93.3272 26.17479 L 93.48923 26.22072 L 93.65129 26.26703 L 93.81334 26.31377 L 93.9754 26.3609 L 94.13745 26.40848 L 94.29948 26.45644 L 94.46156 26.5048 L 94.6236 26.5536 L 94.78566 26.60283 L 94.94772 26.65247 L 95.10976 26.70253 L 95.27182 26.753 L 95.43387 26.80391 L 95.59592 26.85526 L 95.75798 26.90703 L 95.92003 26.95921 L 96.08209 27.01186 L 96.24413 27.06491 L 96.40617 27.11841 L 96.56825 27.17236 L 96.73029 27.22672 L 96.89235 27.28154 L 97.0544 27.33679 L 97.21645 27.39252 L 97.37851 27.44867 L 97.54056 27.50528 L 97.70262 27.56232 L 97.86465 27.61983 L 98.02672 27.6778 L 98.18878 27.73622 L 98.35081 27.79509 L 98.51288 27.85443 L 98.67493 27.91422 L 98.83698 27.97446 L 98.99904 28.03519 L 99.16109 28.09637 L 99.32314 28.15804 L 99.48518 28.22017 L 99.64725 28.28278 L 99.80931 28.34584 L 99.97134 28.40941 L 100.1334 28.47342 L 100.29546 28.53793 L 100.4575 28.60292 L 100.61958 28.6684 L 100.78162 28.73434 L 100.94366 28.80078 L 101.10571 28.8677 L 101.26778 28.93513 L 101.42982 29.00304 L 101.59187 29.07146 L 101.75394 29.14035 L 101.91597 29.20975 L 102.07803 29.27965 L 102.2401 29.35004 L 102.40215 29.42093 L 102.5642 29.49232 L 102.72624 29.56425 L 102.8883 29.63667 L 103.05035 29.70958 L 103.21242 29.78302 L 103.37447 29.85698 L 103.5365 29.93144 L 103.69856 30.00642 L 103.86063 30.08192 L 104.02266 30.15794 L 104.18472 30.2345 L 104.34677 30.31155 L 104.50883 30.38914 L 104.67088 30.46727 L 104.83293 30.54591 L 104.995 30.62509 L 105.15703 30.7048 L 105.3191 30.78505 L 105.48116 30.86583 L 105.64319 30.94716 L 105.80527 31.02902 L 105.9673 31.11142 L 106.12936 31.19438 L 106.29141 31.27785 L 106.45346 31.36191 L 106.61552 31.44649 L 106.77756 31.53163 L 106.93964 31.61731 L 107.10168 31.70357 L 107.26372 31.79037 L 107.4258 31.87772 L 107.58783 31.96564 L 107.74988 32.05412 L 107.91196 32.14316 L 108.07399 32.23276 L 108.23605 32.32294 L 108.3981 32.41368 L 108.56015 32.505 L 108.72221 32.59688 L 108.88425 32.68933 L 109.04633 32.78238 L 109.20834 32.87599 L 109.3704 32.97018 L 109.53249 33.06496 L 109.69452 33.1603 L 109.85658 33.25626 L 110.01862 33.35274 L 110.18068 33.44987 L 110.34274 33.54758 L 110.50479 33.64589 L 110.66684 33.74477 L 110.82887 33.84422 L 110.99095 33.94434 L 111.15302 34.04501 L 111.31505 34.14632 L 111.4771 34.24818 L 111.63914 34.35068 L 111.80121 34.45375 L 111.96327 34.55746 L 112.1253 34.66177 L 112.28737 34.76671 L 112.4494 34.87224 L 112.61148 34.9784 L 112.77354 35.08514 L 112.93556 35.19249 L 113.09764 35.30054 L 113.25967 35.40913 L 113.42174 35.51842 L 113.58379 35.6283 L 113.74583 35.73877 L 113.9079 35.84993 L 114.06993 35.96165 L 114.23201 36.0741 L 114.39406 36.18713 L 114.55609 36.3008 L 114.71817 36.41512 L 114.8802 36.53001 L 115.04227 36.64566 L 115.20433 36.76187 L 115.36636 36.87871 L 115.52843 36.99628 L 115.69048 37.11441 L 115.85252 37.23323 L 116.01459 37.35275 L 116.17662 37.47284 L 116.3387 37.59366 L 116.50073 37.71507 L 116.66278 37.83717 L 116.82486 37.95999 L 116.9869 38.08336 L 117.14896 38.2075 L 117.311 38.33221 L 117.47305 38.4577 L 117.63512 38.5838 L 117.79716 38.71051 L 117.95923 38.83803 L 118.12126 38.96608 L 118.28333 39.09488 L 118.44539 39.22441 L 118.60742 39.3545 L 118.76947 39.48535 L 118.93153 39.61688 L 119.09358 39.74913 L 119.25565 39.88205 L 119.4177 40.01558 L 119.57974 40.14992 L 119.74179 40.28484 L 119.90385 40.42052 L 120.06592 40.55693 L 120.22795 40.69394 L 120.39001 40.83171 L 120.55206 40.97018 L 120.71411 41.10934 L 120.87617 41.2493 L 121.03822 41.38983 L 121.20027 41.53113 L 121.3623 41.67313 L 121.52438 41.81584 L 121.68643 41.95935 L 121.84848 42.10344 L 122.01054 42.24837 L 122.17258 42.3939 L 122.33464 42.54022 L 122.4967 42.68732 L 122.65875 42.83502 L 122.8208 42.9835 L 122.98285 43.13274 L 123.14491 43.2827 L 123.30696 43.43336 L 123.46901 43.5848 L 123.63107 43.73695 L 123.7931 43.88985 L 123.95517 44.04347 L 124.11723 44.19785 L 124.27927 44.35298 L 124.44133 44.50885 L 124.60338 44.66545 L 124.76544 44.82281 L 124.92749 44.98099 L 125.08954 45.13977 L 125.2516 45.29941 L 125.41364 45.45978 L 125.57571 45.62091 L 125.73776 45.7828 L 125.8998 45.94545 L 126.06186 46.10887 L 126.2239 46.27306 L 126.38597 46.438 L 126.54802 46.60373 L 126.71007 46.7702 L 126.87213 46.93747 L 127.03416 47.1055 L 127.19624 47.27429 L 127.35829 47.4439 L 127.52032 47.61426 L 127.6824 47.7854 L 127.84444 47.95732 L 128.00649 48.13005 L 128.16857 48.30353 L 128.3306 48.47783 L 128.49266 48.65291 L 128.6547 48.82878 L 128.81676 49.00543 L 128.97882 49.1829 L 129.14086 49.36116 L 129.30294 49.54022 L 129.46495 49.72006 L 129.62702 49.90073 L 129.7891 50.0822 L 129.95113 50.26447 L 130.11319 50.44753 L 130.27523 50.63142 L 130.43729 50.81612 L 130.59935 51.00163 L 130.76139 51.18794 L 130.92345 51.3751 L 131.08548 51.56306 L 131.24755 51.75185 L 131.40962 51.94144 L 131.57166 52.13188 L 131.7337 52.32314 L 131.89575 52.51521 L 132.05782 52.70811 L 132.21988 52.90186 L 132.38193 53.09644 L 132.54398 53.29185 L 132.70601 53.48808 L 132.86809 53.68517 L 133.03015 53.88309 L 133.19217 54.08186 L 133.35424 54.28146 L 133.51628 54.48192 L 133.67835 54.68323 L 133.8404 54.88538 L 134.00244 55.08838 L 134.1645 55.29224 L 134.32654 55.49693 L 134.48862 55.70248 L 134.65067 55.90892 L 134.8127 56.1162 L 134.97478 56.32434 L 135.13681 56.53336 L 135.29888 56.74321 L 135.46094 56.95396 L 135.62297 57.16557 L 135.78504 57.37804 L 135.94707 57.59138 L 136.10913 57.80562 L 136.2712 58.0207 L 136.43323 58.2367 L 136.5953 58.45355 L 136.75734 58.67128 L 136.91939 58.8899 L 137.08147 59.1094 L 137.2435 59.32979 L 137.40557 59.55109 L 137.56761 59.77324 L 137.6114 59.83354 L 137.61127 59.83327 L 137.40557 59.83327 L 137.2435 59.83327 L 137.08147 59.83327 L 136.91939 59.83327 L 136.75734 59.83327 L 136.5953 59.83327 L 136.43323 59.83327 L 136.2712 59.83327 L 136.10913 59.83327 L 135.94707 59.83327 L 135.78504 59.83327 L 135.62297 59.83327 L 135.46094 59.83327 L 135.29888 59.83327 L 135.13681 59.83327 L 134.97478 59.83327 L 134.8127 59.83327 L 134.65067 59.83327 L 134.48862 59.83327 L 134.32654 59.83327 L 134.1645 59.83327 L 134.00244 59.83327 L 133.8404 59.83327 L 133.67835 59.83327 L 133.51628 59.83327 L 133.35424 59.83327 L 133.19217 59.83327 L 133.03015 59.83327 L 132.86809 59.83327 L 132.70601 59.83327 L 132.54398 59.83327 L 132.38193 59.83327 L 132.21988 59.83327 L 132.05782 59.83327 L 131.89575 59.83327 L 131.7337 59.83327 L 131.57166 59.83327 L 131.40962 59.83327 L 131.24755 59.83327 L 131.08548 59.83327 L 130.92345 59.83327 L 130.76139 59.83327 L 130.59935 59.83327 L 130.43729 59.83327 L 130.27523 59.83327 L 130.11319 59.83327 L 129.95113 59.83327 L 129.7891 59.83327 L 129.62702 59.83327 L 129.46495 59.83327 L 129.30294 59.83327 L 129.14086 59.83327 L 128.97882 59.83327 L 128.81676 59.83327 L 128.6547 59.83327 L 128.49266 59.83327 L 128.3306 59.83327 L 128.16857 59.83327 L 128.00649 59.83327 L 127.84444 59.83327 L 127.6824 59.83327 L 127.52032 59.83327 L 127.35829 59.83327 L 127.19624 59.83327 L 127.03416 59.83327 L 126.87213 59.83327 L 126.71007 59.83327 L 126.54802 59.83327 L 126.38597 59.83327 L 126.2239 59.83327 L 126.06186 59.83327 L 125.8998 59.83327 L 125.73776 59.83327 L 125.57571 59.83327 L 125.41364 59.83327 L 125.2516 59.83327 L 125.08954 59.83327 L 124.92749 59.83327 L 124.76544 59.83327 L 124.60338 59.83327 L 124.44133 59.83327 L 124.27927 59.83327 L 124.11723 59.83327 L 123.95517 59.83327 L 123.7931 59.83327 L 123.63107 59.83327 L 123.46901 59.83327 L 123.30696 59.83327 L 123.14491 59.83327 L 122.98285 59.83327 L 122.8208 59.83327 L 122.65875 59.83327 L 122.4967 59.83327 L 122.33464 59.83327 L 122.17258 59.83327 L 122.01054 59.83327 L 121.84848 59.83327 L 121.68643 59.83327 L 121.52438 59.83327 L 121.3623 59.83327 L 121.20027 59.83327 L 121.03822 59.83327 L 120.87617 59.83327 L 120.71411 59.83327 L 120.55206 59.83327 L 120.39001 59.83327 L 120.22795 59.83327 L 120.06592 59.83327 L 119.90385 59.83327 L 119.74179 59.83327 L 119.57974 59.83327 L 119.4177 59.83327 L 119.25565 59.83327 L 119.09358 59.83327 L 118.93153 59.83327 L 118.76947 59.83327 L 118.60742 59.83327 L 118.44539 59.83327 L 118.28333 59.83327 L 118.12126 59.83327 L 117.95923 59.83327 L 117.79716 59.83327 L 117.63512 59.83327 L 117.47305 59.83327 L 117.311 59.83327 L 117.14896 59.83327 L 116.9869 59.83327 L 116.82486 59.83327 L 116.66278 59.83327 L 116.50073 59.83327 L 116.3387 59.83327 L 116.17662 59.83327 L 116.01459 59.83327 L 115.85252 59.83327 L 115.69048 59.83327 L 115.52843 59.83327 L 115.36636 59.83327 L 115.20433 59.83327 L 115.04227 59.83327 L 114.8802 59.83327 L 114.71817 59.83327 L 114.55609 59.83327 L 114.39406 59.83327 L 114.23201 59.83327 L 114.06993 59.83327 L 113.9079 59.83327 L 113.74583 59.83327 L 113.58379 59.83327 L 113.42174 59.83327 L 113.25967 59.83327 L 113.09764 59.83327 L 112.93556 59.83327 L 112.77354 59.83327 L 112.61148 59.83327 L 112.4494 59.83327 L 112.28737 59.83327 L 112.1253 59.83327 L 111.96327 59.83327 L 111.80121 59.83327 L 111.63914 59.83327 L 111.4771 59.83327 L 111.31505 59.83327 L 111.15302 59.83327 L 110.99095 59.83327 L 110.82887 59.83327 L 110.66684 59.83327 L 110.50479 59.83327 L 110.34274 59.83327 L 110.18068 59.83327 L 110.01862 59.83327 L 109.85658 59.83327 L 109.69452 59.83327 L 109.53249 59.83327 L 109.3704 59.83327 L 109.20834 59.83327 L 109.04633 59.83327 L 108.88425 59.83327 L 108.72221 59.83327 L 108.56015 59.83327 L 108.3981 59.83327 L 108.23605 59.83327 L 108.07399 59.83327 L 107.91196 59.83327 L 107.74988 59.83327 L 107.58783 59.83327 L 107.4258 59.83327 L 107.26372 59.83327 L 107.10168 59.83327 L 106.93964 59.83327 L 106.77756 59.83327 L 106.61552 59.83327 L 106.45346 59.83327 L 106.29141 59.83327 L 106.12936 59.83327 L 105.9673 59.83327 L 105.80527 59.83327 L 105.64319 59.83327 L 105.48116 59.83327 L 105.3191 59.83327 L 105.15703 59.83327 L 104.995 59.83327 L 104.83293 59.83327 L 104.67088 59.83327 L 104.50883 59.83327 L 104.34677 59.83327 L 104.18472 59.83327 L 104.02266 59.83327 L 103.86063 59.83327 L 103.69856 59.83327 L 103.5365 59.83327 L 103.37447 59.83327 L 103.21242 59.83327 L 103.05035 59.83327 L 102.8883 59.83327 L 102.72624 59.83327 L 102.5642 59.83327 L 102.40215 59.83327 L 102.2401 59.83327 L 102.07803 59.83327 L 101.91597 59.83327 L 101.75394 59.83327 L 101.59187 59.83327 L 101.42982 59.83327 L 101.26778 59.83327 L 101.10571 59.83327 L 100.94366 59.83327 L 100.78162 59.83327 L 100.61958 59.83327 L 100.4575 59.83327 L 100.29546 59.83327 L 100.1334 59.83327 L 99.97134 59.83327 L 99.80931 59.83327 L 99.64725 59.83327 L 99.48518 59.83327 L 99.32314 59.83327 L 99.16109 59.83327 L 98.99904 59.83327 L 98.83698 59.83327 L 98.67493 59.83327 L 98.51288 59.83327 L 98.35081 59.83327 L 98.18878 59.83327 L 98.02672 59.83327 L 97.86465 59.83327 L 97.70262 59.83327 L 97.54056 59.83327 L 97.37851 59.83327 L 97.21645 59.83327 L 97.0544 59.83327 L 96.89235 59.83327 L 96.73029 59.83327 L 96.56825 59.83327 L 96.40617 59.83327 L 96.24413 59.83327 L 96.08209 59.83327 L 95.92003 59.83327 L 95.75798 59.83327 L 95.59592 59.83327 L 95.43387 59.83327 L 95.27182 59.83327 L 95.10976 59.83327 L 94.94772 59.83327 L 94.78566 59.83327 L 94.6236 59.83327 L 94.46156 59.83327 L 94.29948 59.83327 L 94.13745 59.83327 L 93.9754 59.83327 L 93.81334 59.83327 L 93.65129 59.83327 L 93.48923 59.83327 L 93.3272 59.83327 L 93.16513 59.83327 L 93.00307 59.83327 L 92.84103 59.83327 L 92.67896 59.83327 L 92.51694 59.83327 L 92.35487 59.83327 L 92.1928 59.83327 L 92.03076 59.83327 L 91.8687 59.83327 L 91.70667 59.83327 L 91.5446 59.83327 L 91.38254 59.83327 L 91.2205 59.83327 L 91.05844 59.83327 L 90.89641 59.83327 L 90.73434 59.83327 L 90.57227 59.83327 L 90.41023 59.83327 L 90.24818 59.83327 L 90.08614 59.83327 L 89.92407 59.83327 L 89.76201 59.83327 L 89.59998 59.83327 L 89.43791 59.83327 L 89.27588 59.83327 L 89.1138 59.83327 L 88.95174 59.83327 L 88.78972 59.83327 L 88.62766 59.83327 L 88.4656 59.83327 L 88.30354 59.83327 L 88.1415 59.83327 L 87.97945 59.83327 L 87.81738 59.83327 L 87.65535 59.83327 L 87.49327 59.83327 L 87.33122 59.83327 L 87.16919 59.83327 L 87.00711 59.83327 L 86.84508 59.83327 L 86.68303 59.83327 L 86.52095 59.83327 L 86.35892 59.83327 L 86.19685 59.83327 L 86.03482 59.83327 L 85.87276 59.83327 L 85.7107 59.83327 L 85.54866 59.83327 L 85.38658 59.83327 L 85.22455 59.83327 L 85.0625 59.83327 L 84.90042 59.83327 L 84.73839 59.83327 L 84.57632 59.83327 L 84.41428 59.83327 L 84.25223 59.83327 L 84.09016 59.83327 L 83.92813 59.83327 L 83.76607 59.83327 L 83.60402 59.83327 L 83.44197 59.83327 L 83.27989 59.83327 L 83.11786 59.83327 L 82.95581 59.83327 L 82.79375 59.83327 L 82.6317 59.83327 L 82.46964 59.83327 L 82.30759 59.83327 L 82.14554 59.83327 L 81.98349 59.83327 L 81.82143 59.83327 L 81.65936 59.83327 L 81.49733 59.83327 L 81.33528 59.83327 L 81.17323 59.83327 L 81.01117 59.83327 L 80.8491 59.83327 L 80.68706 59.83327 L 80.52501 59.83327 L 80.36298 59.83327 L 80.2009 59.83327 L 80.03885 59.83327 L 79.8768 59.83327 L 79.71474 59.83327 L 79.5527 59.83327 L 79.39064 59.83327 L 79.22858 59.83327 L 79.06653 59.83327 L 78.90448 59.83327 L 78.74245 59.83327 L 78.58037 59.83327 L 78.41832 59.83327 L 78.25627 59.83327 L 78.09421 59.83327 L 77.93217 59.83327 L 77.77011 59.83327 L 77.60805 59.83327 L 77.44601 59.83327 L 77.28395 59.83327 L 77.1219 59.83327 L 76.95984 59.83327 L 76.79779 59.83327 L 76.63574 59.83327 L 76.47368 59.83327 L 76.31165 59.83327 L 76.14958 59.83327 L 75.98752 59.83327 L 75.82549 59.83327 L 75.66342 59.83327 L 75.50137 59.83327 L 75.33931 59.83327 L 75.17726 59.83327 L 75.01521 59.83327 L 74.85315 59.83327 L 74.69112 59.83327 L 74.52905 59.83327 L 74.36699 59.83327 L 74.20496 59.83327 L 74.0429 59.83327 L 73.88084 59.83327 L 73.7188 59.83327 L 73.55673 59.83327 L 73.39468 59.83327 L 73.23262 59.83327 L 73.0706 59.83327 L 72.90852 59.83327 L 72.74646 59.83327 L 72.58443 59.83327 L 72.42235 59.83327 L 72.26033 59.83327 L 72.09827 59.83327 L 71.93619 59.83327 L 71.77415 59.83327 L 71.61209 59.83327 L 71.45007 59.83327 L 71.288 59.83327 L 71.12593 59.83327 L 70.9639 59.83327 L 70.80183 59.83327 L 70.6398 59.83327 L 70.47774 59.83327 L 70.31566 59.83327 L 70.15363 59.83327 L 69.99158 59.83327 L 69.82953 59.83327 L 69.66747 59.83327 L 69.5054 59.83327 L 69.34337 59.83327 L 69.1813 59.83327 L 69.01927 59.83327 L 68.85721 59.83327 L 68.69513 59.83327 L 68.53311 59.83327 L 68.37105 59.83327 L 68.209 59.83327 L 68.04694 59.83327 L 67.88489 59.83327 L 67.72284 59.83327 L 67.56078 59.83327 L 67.39874 59.83327 L 67.23666 59.83327 L 67.07462 59.83327 L 66.91258 59.83327 L 66.75052 59.83327 L 66.58847 59.83327 L 66.42642 59.83327 L 66.26436 59.83327 L 66.10231 59.83327 L 65.94025 59.83327 L 65.77821 59.83327 L 65.61615 59.83327 L 65.45409 59.83327 L 65.29205 59.83327 L 65.12997 59.83327 L 64.96794 59.83327 L 64.8059 59.83327 L 64.64381 59.83327 L 64.48178 59.83327 L 64.31972 59.83327 L 64.15768 59.83327 L 63.99562 59.83327 L 63.83356 59.83327 L 63.67152 59.83327 L 63.50946 59.83327 L 63.34741 59.83327 L 63.18536 59.83327 L 63.02328 59.83327 L 62.86125 59.83327 L 62.6992 59.83327 L 62.53714 59.83327 L 62.37509 59.83327 L 62.21303 59.83327 L 62.05098 59.83327 L 61.88893 59.83327 L 61.72688 59.83327 L 61.56483 59.83327 L 61.40276 59.83327 L 61.24072 59.83327 L 61.07867 59.83327 L 60.91663 59.83327 L 60.75456 59.83327 L 60.5925 59.83327 L 60.43045 59.83327 L 60.2684 59.83327 L 60.10637 59.83327 L 59.94429 59.83327 L 59.78224 59.83327 L 59.6202 59.83327 L 59.45813 59.83327 L 59.2961 59.83327 L 59.13403 59.83327 L 58.97198 59.83327 L 58.80992 59.83327 L 58.64787 59.83327 L 58.48584 59.83327 L 58.32376 59.83327 L 58.16171 59.83327 L 57.99966 59.83327 L 57.8376 59.83327 L 57.67557 59.83327 L 57.5135 59.83327 L 57.35144 59.83327 L 57.1894 59.83327 L 57.02734 59.83327 L 56.86531 59.83327 L 56.70323 59.83327 L 56.66377 59.83327 Z " fill="#0000ff" fill-opacity=".3"/>
</g>
<clipPath id="cp1">
<path transform="matrix(2.7777777,0,0,-2.7777777,10.330556,484.675)" d="M 0 0 L 194.27086 0 L 194.27086 161.39801 L 0 161.39801 Z "/>
</clipPath>
<g clip-path="url(#cp1)">
<path transform="matrix(2.7777777,0,0,-2.7777777,10.330556,484.675)" stroke-width=".79701" stroke-linecap="butt" stroke-miterlimit="10" stroke-linejoin="miter" fill="none" stroke="#00ff00" d="M 16.19003 18.08878 L 16.35208 18.14426 L 16.51413 18.19931 L 16.67618 18.2539 L 16.83824 18.30807 L 17.00029 18.36179 L 17.16234 18.41508 L 17.3244 18.46793 L 17.48645 18.52036 L 17.6485 18.57234 L 17.81055 18.6239 L 17.97261 18.67503 L 18.13466 18.72572 L 18.2967 18.776 L 18.45877 18.82587 L 18.62082 18.87529 L 18.78287 18.9243 L 18.94493 18.9729 L 19.10698 19.02107 L 19.26903 19.06883 L 19.43109 19.11621 L 19.59314 19.16315 L 19.75519 19.20969 L 19.91725 19.25581 L 20.0793 19.30151 L 20.24135 19.34685 L 20.4034 19.39175 L 20.56546 19.43628 L 20.72751 19.48041 L 20.88956 19.52412 L 21.05162 19.56744 L 21.21367 19.6104 L 21.37572 19.65294 L 21.53778 19.6951 L 21.69983 19.73686 L 21.86188 19.77826 L 22.02394 19.81926 L 22.18599 19.85988 L 22.34804 19.90012 L 22.5101 19.93997 L 22.67215 19.97945 L 22.8342 20.01857 L 22.99625 20.0573 L 23.15831 20.09567 L 23.32036 20.13367 L 23.4824 20.17128 L 23.64447 20.20856 L 23.80652 20.24545 L 23.96857 20.282 L 24.13063 20.31816 L 24.29268 20.35399 L 24.45473 20.38945 L 24.61678 20.42455 L 24.77882 20.4593 L 24.94087 20.4937 L 25.10292 20.52776 L 25.26498 20.56146 L 25.42703 20.59482 L 25.58908 20.62782 L 25.75114 20.66049 L 25.9132 20.69284 L 26.07524 20.72482 L 26.2373 20.75648 L 26.39935 20.7878 L 26.5614 20.81879 L 26.72346 20.84944 L 26.88551 20.87976 L 27.04756 20.90974 L 27.20963 20.93942 L 27.37167 20.96877 L 27.53372 20.99779 L 27.69577 21.02649 L 27.85783 21.05487 L 28.01988 21.08293 L 28.18193 21.11067 L 28.344 21.13812 L 28.50604 21.16524 L 28.66809 21.19203 L 28.83015 21.21855 L 28.9922 21.24474 L 29.15425 21.27063 L 29.31631 21.29622 L 29.47836 21.3215 L 29.64041 21.34648 L 29.80247 21.37117 L 29.96452 21.39557 L 30.12657 21.41968 L 30.28862 21.44348 L 30.45068 21.467 L 30.61273 21.4902 L 30.77478 21.51315 L 30.93684 21.5358 L 31.09889 21.55818 L 31.26094 21.58026 L 31.423 21.60207 L 31.58505 21.6236 L 31.7471 21.64485 L 31.90916 21.66582 L 32.07121 21.68654 L 32.23326 21.70697 L 32.39532 21.72713 L 32.55737 21.74702 L 32.7194 21.76666 L 32.88147 21.78604 L 33.04352 21.80513 L 33.20557 21.82399 L 33.36763 21.84256 L 33.52968 21.8609 L 33.69174 21.87897 L 33.85378 21.8968 L 34.01584 21.91437 L 34.1779 21.93169 L 34.33994 21.94876 L 34.50201 21.96559 L 34.66405 21.98216 L 34.8261 21.9985 L 34.98816 22.0146 L 35.1502 22.03047 L 35.31227 22.04608 L 35.4743 22.06146 L 35.63637 22.07663 L 35.79843 22.09155 L 35.96046 22.10623 L 36.12253 22.12071 L 36.28458 22.13493 L 36.44662 22.14896 L 36.6087 22.16275 L 36.77074 22.17632 L 36.93279 22.18967 L 37.09485 22.2028 L 37.2569 22.21573 L 37.41896 22.22841 L 37.581 22.2409 L 37.74306 22.25319 L 37.9051 22.26526 L 38.06715 22.27713 L 38.22923 22.28879 L 38.39127 22.30025 L 38.55331 22.3115 L 38.71536 22.32254 L 38.87743 22.3334 L 39.03947 22.34407 L 39.20154 22.35455 L 39.36359 22.36482 L 39.52562 22.37491 L 39.6877 22.3848 L 39.84975 22.3945 L 40.0118 22.40402 L 40.17384 22.41336 L 40.33589 22.42252 L 40.49796 22.4315 L 40.66 22.4403 L 40.82207 22.44891 L 40.98412 22.45737 L 41.14615 22.46564 L 41.30823 22.47374 L 41.47028 22.48167 L 41.63231 22.48946 L 41.79439 22.49706 L 41.95642 22.50449 L 42.11848 22.51176 L 42.28053 22.51888 L 42.44258 22.52585 L 42.60464 22.53264 L 42.76668 22.53928 L 42.92876 22.54579 L 43.0908 22.55212 L 43.25284 22.55832 L 43.41492 22.56435 L 43.57695 22.57025 L 43.73901 22.57599 L 43.90108 22.58162 L 44.06311 22.5871 L 44.22517 22.5924 L 44.38722 22.59761 L 44.54929 22.60268 L 44.71133 22.6076 L 44.87337 22.61238 L 45.03545 22.61705 L 45.19748 22.62158 L 45.35953 22.62599 L 45.5216 22.63028 L 45.68364 22.63445 L 45.8457 22.63847 L 46.00775 22.6424 L 46.1698 22.6462 L 46.33186 22.64989 L 46.49391 22.65346 L 46.65598 22.65694 L 46.818 22.66028 L 46.98007 22.66353 L 47.14214 22.66666 L 47.30417 22.66968 L 47.46623 22.67262 L 47.62827 22.67545 L 47.79033 22.67816 L 47.9524 22.6808 L 48.11444 22.68333 L 48.27649 22.68576 L 48.43852 22.68811 L 48.6006 22.69037 L 48.76266 22.69254 L 48.9247 22.69461 L 49.08676 22.69662 L 49.2488 22.69852 L 49.41086 22.70036 L 49.57294 22.7021 L 49.73495 22.70378 L 49.89702 22.70537 L 50.05905 22.7069 L 50.22113 22.70834 L 50.3832 22.70972 L 50.54521 22.71101 L 50.70729 22.71227 L 50.86932 22.71344 L 51.03139 22.71454 L 51.19345 22.71559 L 51.35548 22.71658 L 51.51755 22.71751 L 51.6796 22.71838 L 51.84166 22.71921 L 52.00371 22.71997 L 52.16574 22.72067 L 52.32782 22.72134 L 52.48985 22.72197 L 52.65192 22.72252 L 52.81398 22.72305 L 52.97601 22.72354 L 53.13808 22.72398 L 53.30013 22.72438 L 53.46217 22.72476 L 53.62424 22.72508 L 53.78629 22.72539 L 53.94835 22.72565 L 54.11038 22.72589 L 54.27245 22.7261 L 54.43451 22.72627 L 54.59654 22.72644 L 54.7586 22.72656 L 54.92065 22.72667 L 55.0827 22.72676 L 55.24477 22.72684 L 55.40681 22.7269 L 55.56888 22.72694 L 55.73091 22.72699 L 55.89297 22.727 L 56.05504 22.72704 L 56.21707 22.72704 L 56.37914 22.72705 L 56.54118 22.72705 L 56.70323 22.72705 L 56.86531 22.72705 L 57.02734 22.72705 L 57.1894 22.72705 L 57.35144 22.72707 L 57.5135 22.72708 L 57.67557 22.72711 L 57.8376 22.72716 L 57.99966 22.72722 L 58.16171 22.72728 L 58.32376 22.72736 L 58.48584 22.72746 L 58.64787 22.72758 L 58.80992 22.72774 L 58.97198 22.7279 L 59.13403 22.7281 L 59.2961 22.72832 L 59.45813 22.72858 L 59.6202 22.72885 L 59.78224 22.72917 L 59.94429 22.72952 L 60.10637 22.7299 L 60.2684 22.73033 L 60.43045 22.73077 L 60.5925 22.73128 L 60.75456 22.73184 L 60.91663 22.73242 L 61.07867 22.73308 L 61.24072 22.73376 L 61.40276 22.7345 L 61.56483 22.73528 L 61.72688 22.73613 L 61.88893 22.73703 L 62.05098 22.73799 L 62.21303 22.739 L 62.37509 22.74008 L 62.53714 22.74123 L 62.6992 22.74243 L 62.86125 22.7437 L 63.02328 22.74504 L 63.18536 22.74646 L 63.34741 22.74792 L 63.50946 22.7495 L 63.67152 22.75111 L 63.83356 22.75284 L 63.99562 22.75462 L 64.15768 22.75648 L 64.31972 22.75845 L 64.48178 22.76047 L 64.64381 22.7626 L 64.8059 22.7648 L 64.96794 22.76712 L 65.12997 22.7695 L 65.29205 22.77197 L 65.45409 22.77457 L 65.61615 22.77724 L 65.77821 22.78001 L 65.94025 22.7829 L 66.10231 22.78587 L 66.26436 22.78896 L 66.42642 22.79213 L 66.58847 22.79544 L 66.75052 22.79884 L 66.91258 22.80237 L 67.07462 22.80598 L 67.23666 22.80974 L 67.39874 22.81358 L 67.56078 22.81757 L 67.72284 22.82167 L 67.88489 22.8259 L 68.04694 22.83023 L 68.209 22.8347 L 68.37105 22.83931 L 68.53311 22.84404 L 68.69513 22.84889 L 68.85721 22.85387 L 69.01927 22.859 L 69.1813 22.86426 L 69.34337 22.86966 L 69.5054 22.8752 L 69.66747 22.88087 L 69.82953 22.8867 L 69.99158 22.89267 L 70.15363 22.89877 L 70.31566 22.90504 L 70.47774 22.91145 L 70.6398 22.91803 L 70.80183 22.92474 L 70.9639 22.93163 L 71.12593 22.93866 L 71.288 22.94586 L 71.45007 22.9532 L 71.61209 22.96072 L 71.77415 22.9684 L 71.93619 22.97624 L 72.09827 22.98427 L 72.26033 22.99245 L 72.42235 23.00081 L 72.58443 23.00935 L 72.74646 23.01805 L 72.90852 23.02695 L 73.0706 23.03603 L 73.23262 23.04526 L 73.39468 23.05469 L 73.55673 23.0643 L 73.7188 23.0741 L 73.88084 23.08409 L 74.0429 23.09425 L 74.20496 23.10463 L 74.36699 23.11519 L 74.52905 23.12595 L 74.69112 23.1369 L 74.85315 23.14806 L 75.01521 23.15941 L 75.17726 23.17097 L 75.33931 23.18272 L 75.50137 23.19469 L 75.66342 23.20686 L 75.82549 23.21924 L 75.98752 23.23184 L 76.14958 23.24464 L 76.31165 23.25766 L 76.47368 23.2709 L 76.63574 23.28436 L 76.79779 23.29805 L 76.95984 23.31194 L 77.1219 23.32607 L 77.28395 23.34041 L 77.44601 23.35498 L 77.60805 23.36978 L 77.77011 23.38481 L 77.93217 23.40009 L 78.09421 23.41559 L 78.25627 23.43132 L 78.41832 23.44731 L 78.58037 23.46352 L 78.74245 23.47998 L 78.90448 23.49667 L 79.06653 23.51363 L 79.22858 23.53082 L 79.39064 23.54825 L 79.5527 23.56595 L 79.71474 23.58391 L 79.8768 23.6021 L 80.03885 23.62056 L 80.2009 23.63927 L 80.36298 23.65823 L 80.52501 23.67747 L 80.68706 23.69696 L 80.8491 23.71672 L 81.01117 23.73676 L 81.17323 23.75705 L 81.33528 23.7776 L 81.49733 23.79846 L 81.65936 23.81956 L 81.82143 23.84096 L 81.98349 23.86261 L 82.14554 23.88457 L 82.30759 23.90677 L 82.46964 23.92929 L 82.6317 23.95207 L 82.79375 23.97517 L 82.95581 23.99852 L 83.11786 24.02217 L 83.27989 24.04613 L 83.44197 24.07036 L 83.60402 24.0949 L 83.76607 24.11974 L 83.92813 24.14487 L 84.09016 24.1703 L 84.25223 24.19604 L 84.41428 24.22208 L 84.57632 24.24841 L 84.73839 24.27507 L 84.90042 24.30203 L 85.0625 24.3293 L 85.22455 24.35689 L 85.38658 24.38478 L 85.54866 24.41301 L 85.7107 24.44154 L 85.87276 24.4704 L 86.03482 24.49957 L 86.19685 24.52908 L 86.35892 24.55891 L 86.52095 24.58905 L 86.68303 24.61955 L 86.84508 24.65036 L 87.00711 24.68152 L 87.16919 24.71298 L 87.33122 24.74481 L 87.49327 24.77696 L 87.65535 24.80945 L 87.81738 24.8423 L 87.97945 24.87547 L 88.1415 24.90901 L 88.30354 24.94289 L 88.4656 24.9771 L 88.62766 25.01167 L 88.78972 25.0466 L 88.95174 25.08188 L 89.1138 25.11751 L 89.27588 25.1535 L 89.43791 25.18985 L 89.59998 25.22656 L 89.76201 25.26364 L 89.92407 25.30109 L 90.08614 25.3389 L 90.24818 25.37706 L 90.41023 25.41562 L 90.57227 25.45453 L 90.73434 25.49384 L 90.89641 25.5335 L 91.05844 25.57353 L 91.2205 25.61395 L 91.38254 25.65475 L 91.5446 25.69595 L 91.70667 25.73753 L 91.8687 25.77948 L 92.03076 25.82182 L 92.1928 25.86456 L 92.35487 25.90768 L 92.51694 25.95123 L 92.67896 25.99513 L 92.84103 26.03944 L 93.00307 26.08415 L 93.16513 26.12927 L 93.3272 26.17479 L 93.48923 26.22072 L 93.65129 26.26703 L 93.81334 26.31377 L 93.9754 26.3609 L 94.13745 26.40848 L 94.29948 26.45644 L 94.46156 26.5048 L 94.6236 26.5536 L 94.78566 26.60283 L 94.94772 26.65247 L 95.10976 26.70253 L 95.27182 26.753 L 95.43387 26.80391 L 95.59592 26.85526 L 95.75798 26.90703 L 95.92003 26.95921 L 96.08209 27.01186 L 96.24413 27.06491 L 96.40617 27.11841 L 96.56825 27.17236 L 96.73029 27.22672 L 96.89235 27.28154 L 97.0544 27.33679 L 97.21645 27.39252 L 97.37851 27.44867 L 97.54056 27.50528 L 97.70262 27.56232 L 97.86465 27.61983 L 98.02672 27.6778 L 98.18878 27.73622 L 98.35081 27.79509 L 98.51288 27.85443 L 98.67493 27.91422 L 98.83698 27.97446 L 98.99904 28.03519 L 99.16109 28.09637 L 99.32314 28.15804 L 99.48518 28.22017 L 99.64725 28.28278 L 99.80931 28.34584 L 99.97134 28.40941 L 100.1334 28.47342 L 100.29546 28.53793 L 100.4575 28.60292 L 100.61958 28.6684 L 100.78162 28.73434 L 100.94366 28.80078 L 101.10571 28.8677 L 101.26778 28.93513 L 101.42982 29.00304 L 101.59187 29.07146 L 101.75394 29.14035 L 101.91597 29.20975 L 102.07803 29.27965 L 102.2401 29.35004 L 102.40215 29.42093 L 102.5642 29.49232 L 102.72624 29.56425 L 102.8883 29.63667 L 103.05035 29.70958 L 103.21242 29.78302 L 103.37447 29.85698 L 103.5365 29.93144 L 103.69856 30.00642 L 103.86063 30.08192 L 104.02266 30.15794 L 104.18472 30.2345 L 104.34677 30.31155 L 104.50883 30.38914 L 104.67088 30.46727 L 104.83293 30.54591 L 104.995 30.62509 L 105.15703 30.7048 L 105.3191 30.78505 L 105.48116 30.86583 L 105.64319 30.94716 L 105.80527 31.02902 L 105.9673 31.11142 L 106.12936 31.19438 L 106.29141 31.27785 L 106.45346 31.36191 L 106.61552 31.44649 L 106.77756 31.53163 L 106.93964 31.61731 L 107.10168 31.70357 L 107.26372 31.79037 L 107.4258 31.87772 L 107.58783 31.96564 L 107.74988 32.05412 L 107.91196 32.14316 L 108.07399 32.23276 L 108.23605 32.32294 L 108.3981 32.41368 L 108.56015 32.505 L 108.72221 32.59688 L 108.88425 32.68933 L 109.04633 32.78238 L 109.20834 32.87599 L 109.3704 32.97018 L 109.53249 33.06496 L 109.69452 33.1603 L 109.85658 33.25626 L 110.01862 33.35274 L 110.18068 33.44987 L 110.34274 33.54758 L 110.50479 33.64589 L 110.66684 33.74477 L 110.82887 33.84422 L 110.99095 33.94434 L 111.15302 34.04501 L 111.31505 34.14632 L 111.4771 34.24818 L 111.63914 34.35068 L 111.80121 34.45375 L 111.96327 34.55746 L 112.1253 34.66177 L 112.28737 34.76671 L 112.4494 34.87224 L 112.61148 34.9784 L 112.77354 35.08514 L 112.93556 35.19249 L 113.09764 35.30054 L 113.25967 35.40913 L 113.42174 35.51842 L 113.58379 35.6283 L 113.74583 35.73877 L 113.9079 35.84993 L 114.06993 35.96165 L 114.23201 36.0741 L 114.39406 36.18713 L 114.55609 36.3008 L 114.71817 36.41512 L 114.8802 36.53001 L 115.04227 36.64566 L 115.20433 36.76187 L 115.36636 36.87871 L 115.52843 36.99628 L 115.69048 37.11441 L 115.85252 37.23323 L 116.01459 37.35275 L 116.17662 37.47284 L 116.3387 37.59366 L 116.50073 37.71507 L 116.66278 37.83717 L 116.82486 37.95999 L 116.9869 38.08336 L 117.14896 38.2075 L 117.311 38.33221 L 117.47305 38.4577 L 117.63512 38.5838 L 117.79716 38.71051 L 117.95923 38.83803 L 118.12126 38.96608 L 118.28333 39.09488 L 118.44539 39.22441 L 118.60742 39.3545 L 118.76947 39.48535 L 118.93153 39.61688 L 119.09358 39.74913 L 119.25565 39.88205 L 119.4177 40.01558 L 119.57974 40.14992 L 119.74179 40.28484 L 119.90385 40.42052 L 120.06592 40.55693 L 120.22795 40.69394 L 120.39001 40.83171 L 120.55206 40.97018 L 120.71411 41.10934 L 120.87617 41.2493 L 121.03822 41.38983 L 121.20027 41.53113 L 121.3623 41.67313 L 121.52438 41.81584 L 121.68643 41.95935 L 121.84848 42.10344 L 122.01054 42.24837 L 122.17258 42.3939 L 122.33464 42.54022 L 122.4967 42.68732 L 122.65875 42.83502 L 122.8208 42.9835 L 122.98285 43.13274 L 123.14491 43.2827 L 123.30696 43.43336 L 123.46901 43.5848 L 123.63107 43.73695 L 123.7931 43.88985 L 123.95517 44.04347 L 124.11723 44.19785 L 124.27927 44.35298 L 124.44133 44.50885 L 124.60338 44.66545 L 124.76544 44.82281 L 124.92749 44.98099 L 125.08954 45.13977 L 125.2516 45.29941 L 125.41364 45.45978 L 125.57571 45.62091 L 125.73776 45.7828 L 125.8998 45.94545 L 126.06186 46.10887 L 126.2239 46.27306 L 126.38597 46.438 L 126.54802 46.60373 L 126.71007 46.7702 L 126.87213 46.93747 L 127.03416 47.1055 L 127.19624 47.27429 L 127.35829 47.4439 L 127.52032 47.61426 L 127.6824 47.7854 L 127.84444 47.95732 L 128.00649 48.13005 L 128.16857 48.30353 L 128.3306 48.47783 L 128.49266 48.65291 L 128.6547 48.82878 L 128.81676 49.00543 L 128.97882 49.1829 L 129.14086 49.36116 L 129.30294 49.54022 L 129.46495 49.72006 L 129.62702 49.90073 L 129.7891 50.0822 L 129.95113 50.26447 L 130.11319 50.44753 L 130.27523 50.63142 L 130.43729 50.81612 L 130.59935 51.00163 L 130.76139 51.18794 L 130.92345 51.3751 L 131.08548 51.56306 L 131.24755 51.75185 L 131.40962 51.94144 L 131.57166 52.13188 L 131.7337 52.32314 L 131.89575 52.51521 L 132.05782 52.70811 L 132.21988 52.90186 L 132.38193 53.09644 L 132.54398 53.29185 L 132.70601 53.48808 L 132.86809 53.68517 L 133.03015 53.88309 L 133.19217 54.08186 L 133.35424 54.28146 L 133.51628 54.48192 L 133.67835 54.68323 L 133.8404 54.88538 L 134.00244 55.08838 L 134.1645 55.29224 L 134.32654 55.49693 L 134.48862 55.70248 L 134.65067 55.90892 L 134.8127 56.1162 L 134.97478 56.32434 L 135.13681 56.53336 L 135.29888 56.74321 L 135.46094 56.95396 L 135.62297 57.16557 L 135.78504 57.37804 L 135.94707 57.59138 L 136.10913 57.80562 L 136.2712 58.0207 L 136.43323 58.2367 L 136.5953 58.45355 L 136.75734 58.67128 L 136.91939 58.8899 L 137.08147 59.1094 L 137.2435 59.32979 L 137.40557 59.55109 L 137.56761 59.77324 L 137.72966 59.9963 L 137.89173 60.22025 L 138.05376 60.4451 L 138.21584 60.67084 L 138.37787 60.89749 L 138.53992 61.12505 L 138.702 61.35349 L 138.86403 61.58284 L 139.02608 61.81311 L 139.18814 62.04428 L 139.35019 62.27635 L 139.51226 62.50934 L 139.6743 62.74324 L 139.83635 62.97806 L 139.9984 63.21379 L 140.16046 63.45045 L 140.32253 63.68802 L 140.48456 63.92651 L 140.6466 64.16594 L 140.80867 64.40628 L 140.97072 64.64755 L 141.13278 64.88974 L 141.29483 65.13287 L 141.45688 65.37694 L 141.61891 65.62195 L 141.78099 65.86789 L 141.94306 66.11475 L 142.10509 66.36258 L 142.26715 66.61133 L 142.42919 66.86101 L 142.59125 67.11166 L 142.75331 67.36325 L 142.91536 67.6158 L 143.07741 67.8693 L 143.23944 68.12373 L 143.40152 68.37914 L 143.56357 68.6355 L 143.72562 68.8928 L 143.88768 69.1511 L 144.04972 69.41031 L 144.21178 69.67052 L 144.37384 69.93167 L 144.53588 70.19379 L 144.69794 70.45691 L 144.85999 70.72096 L 145.02205 70.986 L 145.1841 71.25203 L 145.34615 71.51901 L 145.50821 71.78699 L 145.67024 72.05592 L 145.8323 72.32587 L 145.99437 72.59677 L 146.1564 72.86867 L 146.31847 73.14154 L 146.48052 73.41542 L 146.64258 73.69028 L 146.80463 73.96613 L 146.96668 74.24298 L 147.12874 74.52081 L 147.29077 74.79967 L 147.45285 75.0795 L 147.6149 75.36034 L 147.77693 75.64217 L 147.939 75.92503 L 148.10105 76.20888 L 148.26309 76.49373 L 148.42516 76.7796 L 148.5872 77.0665 L 148.74927 77.35437 L 148.9113 77.6433 L 149.07337 77.93321 L 149.23543 78.22414 L 149.39746 78.51613 L 149.55954 78.80911 L 149.72156 79.103 L 149.88362 79.39816 L 150.0457 79.69421 L 150.20774 79.99132 L 150.3698 80.28946 L 150.53182 80.5886 L 150.6939 80.88881 L 150.85596 81.19002 L 151.01799 81.49228 L 151.18006 81.79561 L 151.34209 82.09995 L 151.50415 82.40533 L 151.66623 82.71178 L 151.82826 83.01927 L 151.99031 83.3278 L 152.15236 83.63727 L 152.31443 83.94803 L 152.47649 84.25972 L 152.63854 84.57248 L 152.80059 84.88628 L 152.96262 85.20102 L 153.12468 85.51706 L 153.28676 85.83406 L 153.44878 86.15211 L 153.61084 86.47124 L 153.77289 86.7913 L 153.93495 87.11269 L 154.09702 87.43503 L 154.25905 87.75842 L 154.42111 88.08292 L 154.58315 88.40836 L 154.74523 88.73512 L 154.90727 89.06285 L 155.0693 89.39151 L 155.23137 89.72154 L 155.39342 90.0524 L 155.55548 90.38458 L 155.71753 90.71774 L 155.87958 91.05185 L 156.04164 91.38731 L 156.20368 91.72363 L 156.36574 92.0613 L 156.5278 92.39993 L 156.68984 92.73952 L 156.85192 93.08049 L 157.01395 93.42229 L 157.176 93.76549 L 157.33808 94.10963 L 157.5001 94.45476 L 157.66217 94.80128 L 157.82419 95.14862 L 157.98627 95.49724 L 158.14833 95.84708 L 158.31037 96.1978 L 158.47245 96.54988 L 158.63446 96.90283 L 158.79653 97.25717 L 158.9586 97.61249 L 159.12064 97.96884 L 159.28269 98.32654 L 159.44474 98.68513 L 159.6068 99.04512 L 159.76886 99.40611 L 159.93091 99.7681 L 160.09296 100.13136 L 160.25499 100.49577 L 160.41706 100.8613 L 160.57913 101.22815 L 160.74115 101.59581 L 160.90322 101.96495 L 161.06526 102.33492 L 161.22733 102.70622 L 161.38939 103.07878 L 161.55142 103.45224 L 161.71349 103.82712 L 161.87552 104.20288 L 162.0376 104.57996 L 162.19966 104.95831 L 162.36168 105.33755 L 162.52376 105.71811 L 162.68579 106.09982 L 162.84786 106.48271 L 163.0099 106.86678 L 163.17195 107.252 L 163.33402 107.63841 L 163.49605 108.026 L 163.65813 108.41472 L 163.82018 108.80484 L 163.98221 109.19579 L 164.14429 109.58809 L 164.30632 109.98158 L 164.46837 110.37625 L 164.63045 110.77226 L 164.79248 111.16917 L 164.95455 111.5674 L 165.11658 111.96683 L 165.27864 112.36746 L 165.4407 112.7693 L 165.60274 113.17232 L 165.76482 113.57654 L 165.92685 113.98198 L 166.0889 114.38861 L 166.25098 114.79646 L 166.41301 115.20552 L 166.57508 115.61578 L 166.73712 116.02725 L 166.89917 116.43994 L 167.06124 116.85384 L 167.22328 117.26895 L 167.38533 117.68529 L 167.54738 118.10284 L 167.70943 118.5216 L 167.8715 118.94162 L 168.03354 119.36285 L 168.19559 119.78531 L 168.35765 120.20898 L 168.5197 120.6339 L 168.68177 121.06006 L 168.84381 121.48744 L 169.00586 121.91606 L 169.16791 122.34592 L 169.32997 122.77702 L 169.49204 123.20937 L 169.65407 123.64294 L 169.81613 124.07777 L 169.97817 124.51387 L 170.14023 124.95117 L 170.30228 125.38974 L 170.46434 125.82959 L 170.62639 126.27066 L 170.78842 126.71301 L 170.9505 127.1566 L 171.11255 127.60146 L 171.2746 128.04759 L 171.43666 128.49497 L 171.5987 128.94364 L 171.76076 129.39353 L 171.92282 129.84473 L 172.08487 130.29717 L 172.24692 130.7509 L 172.40897 131.2059 L 172.57103 131.66219 L 172.73308 132.11974 L 172.89513 132.57857 L 173.05719 133.03868 L 173.21923 133.50009 L 173.38129 133.96276 L 173.54335 134.42675 L 173.70539 134.892 L 173.86745 135.35855 L 174.0295 135.82639 L 174.19156 136.29553 L 174.3536 136.76595 L 174.51566 137.23767 L 174.67772 137.71071 L 174.83975 138.18502 L 175.00182 138.66066 L 175.16388 139.13759 L 175.32592 139.61582 L 175.48798 140.09537 L 175.65003 140.57625 L 175.81209 141.05841 L 175.97414 141.5419 L 176.13619 142.02667 L 176.29825 142.51279 L 176.46028 143.00023 L 176.62235 143.48899 L 176.78441 143.97907 L 176.94644 144.47048 L 177.10852 144.96318 L 177.27056 145.45723 L 177.4326 145.95262 L 177.59467 146.44934 L 177.75672 146.94739 L 177.91878 147.44678 L 178.0808 147.9475 "/>
<path transform="matrix(2.7777777,0,0,-2.7777777,10.330556,484.675)" stroke-width=".79701" stroke-linecap="butt" stroke-miterlimit="10" stroke-linejoin="miter" fill="none" stroke="#ff8000" d="M 16.19003 59.83327 L 16.35208 59.83327 L 16.51413 59.83327 L 16.67618 59.83327 L 16.83824 59.83327 L 17.00029 59.83327 L 17.16234 59.83327 L 17.3244 59.83327 L 17.48645 59.83327 L 17.6485 59.83327 L 17.81055 59.83327 L 17.97261 59.83327 L 18.13466 59.83327 L 18.2967 59.83327 L 18.45877 59.83327 L 18.62082 59.83327 L 18.78287 59.83327 L 18.94493 59.83327 L 19.10698 59.83327 L 19.26903 59.83327 L 19.43109 59.83327 L 19.59314 59.83327 L 19.75519 59.83327 L 19.91725 59.83327 L 20.0793 59.83327 L 20.24135 59.83327 L 20.4034 59.83327 L 20.56546 59.83327 L 20.72751 59.83327 L 20.88956 59.83327 L 21.05162 59.83327 L 21.21367 59.83327 L 21.37572 59.83327 L 21.53778 59.83327 L 21.69983 59.83327 L 21.86188 59.83327 L 22.02394 59.83327 L 22.18599 59.83327 L 22.34804 59.83327 L 22.5101 59.83327 L 22.67215 59.83327 L 22.8342 59.83327 L 22.99625 59.83327 L 23.15831 59.83327 L 23.32036 59.83327 L 23.4824 59.83327 L 23.64447 59.83327 L 23.80652 59.83327 L 23.96857 59.83327 L 24.13063 59.83327 L 24.29268 59.83327 L 24.45473 59.83327 L 24.61678 59.83327 L 24.77882 59.83327 L 24.94087 59.83327 L 25.10292 59.83327 L 25.26498 59.83327 L 25.42703 59.83327 L 25.58908 59.83327 L 25.75114 59.83327 L 25.9132 59.83327 L 26.07524 59.83327 L 26.2373 59.83327 L 26.39935 59.83327 L 26.5614 59.83327 L 26.72346 59.83327 L 26.88551 59.83327 L 27.04756 59.83327 L 27.20963 59.83327 L 27.37167 59.83327 L 27.53372 59.83327 L 27.69577 59.83327 L 27.85783 59.83327 L 28.01988 59.83327 L 28.18193 59.83327 L 28.344 59.83327 L 28.50604 59.83327 L 28.66809 59.83327 L 28.83015 59.83327 L 28.9922 59.83327 L 29.15425 59.83327 L 29.31631 59.83327 L 29.47836 59.83327 L 29.64041 59.83327 L 29.80247 59.83327 L 29.96452 59.83327 L 30.12657 59.83327 L 30.28862 59.83327 L 30.45068 59.83327 L 30.61273 59.83327 L 30.77478 59.83327 L 30.93684 59.83327 L 31.09889 59.83327 L 31.26094 59.83327 L 31.423 59.83327 L 31.58505 59.83327 L 31.7471 59.83327 L 31.90916 59.83327 L 32.07121 59.83327 L 32.23326 59.83327 L 32.39532 59.83327 L 32.55737 59.83327 L 32.7194 59.83327 L 32.88147 59.83327 L 33.04352 59.83327 L 33.20557 59.83327 L 33.36763 59.83327 L 33.52968 59.83327 L 33.69174 59.83327 L 33.85378 59.83327 L 34.01584 59.83327 L 34.1779 59.83327 L 34.33994 59.83327 L 34.50201 59.83327 L 34.66405 59.83327 L 34.8261 59.83327 L 34.98816 59.83327 L 35.1502 59.83327 L 35.31227 59.83327 L 35.4743 59.83327 L 35.63637 59.83327 L 35.79843 59.83327 L 35.96046 59.83327 L 36.12253 59.83327 L 36.28458 59.83327 L 36.44662 59.83327 L 36.6087 59.83327 L 36.77074 59.83327 L 36.93279 59.83327 L 37.09485 59.83327 L 37.2569 59.83327 L 37.41896 59.83327 L 37.581 59.83327 L 37.74306 59.83327 L 37.9051 59.83327 L 38.06715 59.83327 L 38.22923 59.83327 L 38.39127 59.83327 L 38.55331 59.83327 L 38.71536 59.83327 L 38.87743 59.83327 L 39.03947 59.83327 L 39.20154 59.83327 L 39.36359 59.83327 L 39.52562 59.83327 L 39.6877 59.83327 L 39.84975 59.83327 L 40.0118 59.83327 L 40.17384 59.83327 L 40.33589 59.83327 L 40.49796 59.83327 L 40.66 59.83327 L 40.82207 59.83327 L 40.98412 59.83327 L 41.14615 59.83327 L 41.30823 59.83327 L 41.47028 59.83327 L 41.63231 59.83327 L 41.79439 59.83327 L 41.95642 59.83327 L 42.11848 59.83327 L 42.28053 59.83327 L 42.44258 59.83327 L 42.60464 59.83327 L 42.76668 59.83327 L 42.92876 59.83327 L 43.0908 59.83327 L 43.25284 59.83327 L 43.41492 59.83327 L 43.57695 59.83327 L 43.73901 59.83327 L 43.90108 59.83327 L 44.06311 59.83327 L 44.22517 59.83327 L 44.38722 59.83327 L 44.54929 59.83327 L 44.71133 59.83327 L 44.87337 59.83327 L 45.03545 59.83327 L 45.19748 59.83327 L 45.35953 59.83327 L 45.5216 59.83327 L 45.68364 59.83327 L 45.8457 59.83327 L 46.00775 59.83327 L 46.1698 59.83327 L 46.33186 59.83327 L 46.49391 59.83327 L 46.65598 59.83327 L 46.818 59.83327 L 46.98007 59.83327 L 47.14214 59.83327 L 47.30417 59.83327 L 47.46623 59.83327 L 47.62827 59.83327 L 47.79033 59.83327 L 47.9524 59.83327 L 48.11444 59.83327 L 48.27649 59.83327 L 48.43852 59.83327 L 48.6006 59.83327 L 48.76266 59.83327 L 48.9247 59.83327 L 49.08676 59.83327 L 49.2488 59.83327 L 49.41086 59.83327 L 49.57294 59.83327 L 49.73495 59.83327 L 49.89702 59.83327 L 50.05905 59.83327 L 50.22113 59.83327 L 50.3832 59.83327 L 50.54521 59.83327 L 50.70729 59.83327 L 50.86932 59.83327 L 51.03139 59.83327 L 51.19345 59.83327 L 51.35548 59.83327 L 51.51755 59.83327 L 51.6796 59.83327 L 51.84166 59.83327 L 52.00371 59.83327 L 52.16574 59.83327 L 52.32782 59.83327 L 52.48985 59.83327 L 52.65192 59.83327 L 52.81398 59.83327 L 52.97601 59.83327 L 53.13808 59.83327 L 53.30013 59.83327 L 53.46217 59.83327 L 53.62424 59.83327 L 53.78629 59.83327 L 53.94835 59.83327 L 54.11038 59.83327 L 54.27245 59.83327 L 54.43451 59.83327 L 54.59654 59.83327 L 54.7586 59.83327 L 54.92065 59.83327 L 55.0827 59.83327 L 55.24477 59.83327 L 55.40681 59.83327 L 55.56888 59.83327 L 55.73091 59.83327 L 55.89297 59.83327 L 56.05504 59.83327 L 56.21707 59.83327 L 56.37914 59.83327 L 56.54118 59.83327 L 56.70323 59.83327 L 56.86531 59.83327 L 57.02734 59.83327 L 57.1894 59.83327 L 57.35144 59.83327 L 57.5135 59.83327 L 57.67557 59.83327 L 57.8376 59.83327 L 57.99966 59.83327 L 58.16171 59.83327 L 58.32376 59.83327 L 58.48584 59.83327 L 58.64787 59.83327 L 58.80992 59.83327 L 58.97198 59.83327 L 59.13403 59.83327 L 59.2961 59.83327 L 59.45813 59.83327 L 59.6202 59.83327 L 59.78224 59.83327 L 59.94429 59.83327 L 60.10637 59.83327 L 60.2684 59.83327 L 60.43045 59.83327 L 60.5925 59.83327 L 60.75456 59.83327 L 60.91663 59.83327 L 61.07867 59.83327 L 61.24072 59.83327 L 61.40276 59.83327 L 61.56483 59.83327 L 61.72688 59.83327 L 61.88893 59.83327 L 62.05098 59.83327 L 62.21303 59.83327 L 62.37509 59.83327 L 62.53714 59.83327 L 62.6992 59.83327 L 62.86125 59.83327 L 63.02328 59.83327 L 63.18536 59.83327 L 63.34741 59.83327 L 63.50946 59.83327 L 63.67152 59.83327 L 63.83356 59.83327 L 63.99562 59.83327 L 64.15768 59.83327 L 64.31972 59.83327 L 64.48178 59.83327 L 64.64381 59.83327 L 64.8059 59.83327 L 64.96794 59.83327 L 65.12997 59.83327 L 65.29205 59.83327 L 65.45409 59.83327 L 65.61615 59.83327 L 65.77821 59.83327 L 65.94025 59.83327 L 66.10231 59.83327 L 66.26436 59.83327 L 66.42642 59.83327 L 66.58847 59.83327 L 66.75052 59.83327 L 66.91258 59.83327 L 67.07462 59.83327 L 67.23666 59.83327 L 67.39874 59.83327 L 67.56078 59.83327 L 67.72284 59.83327 L 67.88489 59.83327 L 68.04694 59.83327 L 68.209 59.83327 L 68.37105 59.83327 L 68.53311 59.83327 L 68.69513 59.83327 L 68.85721 59.83327 L 69.01927 59.83327 L 69.1813 59.83327 L 69.34337 59.83327 L 69.5054 59.83327 L 69.66747 59.83327 L 69.82953 59.83327 L 69.99158 59.83327 L 70.15363 59.83327 L 70.31566 59.83327 L 70.47774 59.83327 L 70.6398 59.83327 L 70.80183 59.83327 L 70.9639 59.83327 L 71.12593 59.83327 L 71.288 59.83327 L 71.45007 59.83327 L 71.61209 59.83327 L 71.77415 59.83327 L 71.93619 59.83327 L 72.09827 59.83327 L 72.26033 59.83327 L 72.42235 59.83327 L 72.58443 59.83327 L 72.74646 59.83327 L 72.90852 59.83327 L 73.0706 59.83327 L 73.23262 59.83327 L 73.39468 59.83327 L 73.55673 59.83327 L 73.7188 59.83327 L 73.88084 59.83327 L 74.0429 59.83327 L 74.20496 59.83327 L 74.36699 59.83327 L 74.52905 59.83327 L 74.69112 59.83327 L 74.85315 59.83327 L 75.01521 59.83327 L 75.17726 59.83327 L 75.33931 59.83327 L 75.50137 59.83327 L 75.66342 59.83327 L 75.82549 59.83327 L 75.98752 59.83327 L 76.14958 59.83327 L 76.31165 59.83327 L 76.47368 59.83327 L 76.63574 59.83327 L 76.79779 59.83327 L 76.95984 59.83327 L 77.1219 59.83327 L 77.28395 59.83327 L 77.44601 59.83327 L 77.60805 59.83327 L 77.77011 59.83327 L 77.93217 59.83327 L 78.09421 59.83327 L 78.25627 59.83327 L 78.41832 59.83327 L 78.58037 59.83327 L 78.74245 59.83327 L 78.90448 59.83327 L 79.06653 59.83327 L 79.22858 59.83327 L 79.39064 59.83327 L 79.5527 59.83327 L 79.71474 59.83327 L 79.8768 59.83327 L 80.03885 59.83327 L 80.2009 59.83327 L 80.36298 59.83327 L 80.52501 59.83327 L 80.68706 59.83327 L 80.8491 59.83327 L 81.01117 59.83327 L 81.17323 59.83327 L 81.33528 59.83327 L 81.49733 59.83327 L 81.65936 59.83327 L 81.82143 59.83327 L 81.98349 59.83327 L 82.14554 59.83327 L 82.30759 59.83327 L 82.46964 59.83327 L 82.6317 59.83327 L 82.79375 59.83327 L 82.95581 59.83327 L 83.11786 59.83327 L 83.27989 59.83327 L 83.44197 59.83327 L 83.60402 59.83327 L 83.76607 59.83327 L 83.92813 59.83327 L 84.09016 59.83327 L 84.25223 59.83327 L 84.41428 59.83327 L 84.57632 59.83327 L 84.73839 59.83327 L 84.90042 59.83327 L 85.0625 59.83327 L 85.22455 59.83327 L 85.38658 59.83327 L 85.54866 59.83327 L 85.7107 59.83327 L 85.87276 59.83327 L 86.03482 59.83327 L 86.19685 59.83327 L 86.35892 59.83327 L 86.52095 59.83327 L 86.68303 59.83327 L 86.84508 59.83327 L 87.00711 59.83327 L 87.16919 59.83327 L 87.33122 59.83327 L 87.49327 59.83327 L 87.65535 59.83327 L 87.81738 59.83327 L 87.97945 59.83327 L 88.1415 59.83327 L 88.30354 59.83327 L 88.4656 59.83327 L 88.62766 59.83327 L 88.78972 59.83327 L 88.95174 59.83327 L 89.1138 59.83327 L 89.27588 59.83327 L 89.43791 59.83327 L 89.59998 59.83327 L 89.76201 59.83327 L 89.92407 59.83327 L 90.08614 59.83327 L 90.24818 59.83327 L 90.41023 59.83327 L 90.57227 59.83327 L 90.73434 59.83327 L 90.89641 59.83327 L 91.05844 59.83327 L 91.2205 59.83327 L 91.38254 59.83327 L 91.5446 59.83327 L 91.70667 59.83327 L 91.8687 59.83327 L 92.03076 59.83327 L 92.1928 59.83327 L 92.35487 59.83327 L 92.51694 59.83327 L 92.67896 59.83327 L 92.84103 59.83327 L 93.00307 59.83327 L 93.16513 59.83327 L 93.3272 59.83327 L 93.48923 59.83327 L 93.65129 59.83327 L 93.81334 59.83327 L 93.9754 59.83327 L 94.13745 59.83327 L 94.29948 59.83327 L 94.46156 59.83327 L 94.6236 59.83327 L 94.78566 59.83327 L 94.94772 59.83327 L 95.10976 59.83327 L 95.27182 59.83327 L 95.43387 59.83327 L 95.59592 59.83327 L 95.75798 59.83327 L 95.92003 59.83327 L 96.08209 59.83327 L 96.24413 59.83327 L 96.40617 59.83327 L 96.56825 59.83327 L 96.73029 59.83327 L 96.89235 59.83327 L 97.0544 59.83327 L 97.21645 59.83327 L 97.37851 59.83327 L 97.54056 59.83327 L 97.70262 59.83327 L 97.86465 59.83327 L 98.02672 59.83327 L 98.18878 59.83327 L 98.35081 59.83327 L 98.51288 59.83327 L 98.67493 59.83327 L 98.83698 59.83327 L 98.99904 59.83327 L 99.16109 59.83327 L 99.32314 59.83327 L 99.48518 59.83327 L 99.64725 59.83327 L 99.80931 59.83327 L 99.97134 59.83327 L 100.1334 59.83327 L 100.29546 59.83327 L 100.4575 59.83327 L 100.61958 59.83327 L 100.78162 59.83327 L 100.94366 59.83327 L 101.10571 59.83327 L 101.26778 59.83327 L 101.42982 59.83327 L 101.59187 59.83327 L 101.75394 59.83327 L 101.91597 59.83327 L 102.07803 59.83327 L 102.2401 59.83327 L 102.40215 59.83327 L 102.5642 59.83327 L 102.72624 59.83327 L 102.8883 59.83327 L 103.05035 59.83327 L 103.21242 59.83327 L 103.37447 59.83327 L 103.5365 59.83327 L 103.69856 59.83327 L 103.86063 59.83327 L 104.02266 59.83327 L 104.18472 59.83327 L 104.34677 59.83327 L 104.50883 59.83327 L 104.67088 59.83327 L 104.83293 59.83327 L 104.995 59.83327 L 105.15703 59.83327 L 105.3191 59.83327 L 105.48116 59.83327 L 105.64319 59.83327 L 105.80527 59.83327 L 105.9673 59.83327 L 106.12936 59.83327 L 106.29141 59.83327 L 106.45346 59.83327 L 106.61552 59.83327 L 106.77756 59.83327 L 106.93964 59.83327 L 107.10168 59.83327 L 107.26372 59.83327 L 107.4258 59.83327 L 107.58783 59.83327 L 107.74988 59.83327 L 107.91196 59.83327 L 108.07399 59.83327 L 108.23605 59.83327 L 108.3981 59.83327 L 108.56015 59.83327 L 108.72221 59.83327 L 108.88425 59.83327 L 109.04633 59.83327 L 109.20834 59.83327 L 109.3704 59.83327 L 109.53249 59.83327 L 109.69452 59.83327 L 109.85658 59.83327 L 110.01862 59.83327 L 110.18068 59.83327 L 110.34274 59.83327 L 110.50479 59.83327 L 110.66684 59.83327 L 110.82887 59.83327 L 110.99095 59.83327 L 111.15302 59.83327 L 111.31505 59.83327 L 111.4771 59.83327 L 111.63914 59.83327 L 111.80121 59.83327 L 111.96327 59.83327 L 112.1253 59.83327 L 112.28737 59.83327 L 112.4494 59.83327 L 112.61148 59.83327 L 112.77354 59.83327 L 112.93556 59.83327 L 113.09764 59.83327 L 113.25967 59.83327 L 113.42174 59.83327 L 113.58379 59.83327 L 113.74583 59.83327 L 113.9079 59.83327 L 114.06993 59.83327 L 114.23201 59.83327 L 114.39406 59.83327 L 114.55609 59.83327 L 114.71817 59.83327 L 114.8802 59.83327 L 115.04227 59.83327 L 115.20433 59.83327 L 115.36636 59.83327 L 115.52843 59.83327 L 115.69048 59.83327 L 115.85252 59.83327 L 116.01459 59.83327 L 116.17662 59.83327 L 116.3387 59.83327 L 116.50073 59.83327 L 116.66278 59.83327 L 116.82486 59.83327 L 116.9869 59.83327 L 117.14896 59.83327 L 117.311 59.83327 L 117.47305 59.83327 L 117.63512 59.83327 L 117.79716 59.83327 L 117.95923 59.83327 L 118.12126 59.83327 L 118.28333 59.83327 L 118.44539 59.83327 L 118.60742 59.83327 L 118.76947 59.83327 L 118.93153 59.83327 L 119.09358 59.83327 L 119.25565 59.83327 L 119.4177 59.83327 L 119.57974 59.83327 L 119.74179 59.83327 L 119.90385 59.83327 L 120.06592 59.83327 L 120.22795 59.83327 L 120.39001 59.83327 L 120.55206 59.83327 L 120.71411 59.83327 L 120.87617 59.83327 L 121.03822 59.83327 L 121.20027 59.83327 L 121.3623 59.83327 L 121.52438 59.83327 L 121.68643 59.83327 L 121.84848 59.83327 L 122.01054 59.83327 L 122.17258 59.83327 L 122.33464 59.83327 L 122.4967 59.83327 L 122.65875 59.83327 L 122.8208 59.83327 L 122.98285 59.83327 L 123.14491 59.83327 L 123.30696 59.83327 L 123.46901 59.83327 L 123.63107 59.83327 L 123.7931 59.83327 L 123.95517 59.83327 L 124.11723 59.83327 L 124.27927 59.83327 L 124.44133 59.83327 L 124.60338 59.83327 L 124.76544 59.83327 L 124.92749 59.83327 L 125.08954 59.83327 L 125.2516 59.83327 L 125.41364 59.83327 L 125.57571 59.83327 L 125.73776 59.83327 L 125.8998 59.83327 L 126.06186 59.83327 L 126.2239 59.83327 L 126.38597 59.83327 L 126.54802 59.83327 L 126.71007 59.83327 L 126.87213 59.83327 L 127.03416 59.83327 L 127.19624 59.83327 L 127.35829 59.83327 L 127.52032 59.83327 L 127.6824 59.83327 L 127.84444 59.83327 L 128.00649 59.83327 L 128.16857 59.83327 L 128.3306 59.83327 L 128.49266 59.83327 L 128.6547 59.83327 L 128.81676 59.83327 L 128.97882 59.83327 L 129.14086 59.83327 L 129.30294 59.83327 L 129.46495 59.83327 L 129.62702 59.83327 L 129.7891 59.83327 L 129.95113 59.83327 L 130.11319 59.83327 L 130.27523 59.83327 L 130.43729 59.83327 L 130.59935 59.83327 L 130.76139 59.83327 L 130.92345 59.83327 L 131.08548 59.83327 L 131.24755 59.83327 L 131.40962 59.83327 L 131.57166 59.83327 L 131.7337 59.83327 L 131.89575 59.83327 L 132.05782 59.83327 L 132.21988 59.83327 L 132.38193 59.83327 L 132.54398 59.83327 L 132.70601 59.83327 L 132.86809 59.83327 L 133.03015 59.83327 L 133.19217 59.83327 L 133.35424 59.83327 L 133.51628 59.83327 L 133.67835 59.83327 L 133.8404 59.83327 L 134.00244 59.83327 L 134.1645 59.83327 L 134.32654 59.83327 L 134.48862 59.83327 L 134.65067 59.83327 L 134.8127 59.83327 L 134.97478 59.83327 L 135.13681 59.83327 L 135.29888 59.83327 L 135.46094 59.83327 L 135.62297 59.83327 L 135.78504 59.83327 L 135.94707 59.83327 L 136.10913 59.83327 L 136.2712 59.83327 L 136.43323 59.83327 L 136.5953 59.83327 L 136.75734 59.83327 L 136.91939 59.83327 L 137.08147 59.83327 L 137.2435 59.83327 L 137.40557 59.83327 L 137.56761 59.83327 L 137.72966 59.83327 L 137.89173 59.83327 L 138.05376 59.83327 L 138.21584 59.83327 L 138.37787 59.83327 L 138.53992 59.83327 L 138.702 59.83327 L 138.86403 59.83327 L 139.02608 59.83327 L 139.18814 59.83327 L 139.35019 59.83327 L 139.51226 59.83327 L 139.6743 59.83327 L 139.83635 59.83327 L 139.9984 59.83327 L 140.16046 59.83327 L 140.32253 59.83327 L 140.48456 59.83327 L 140.6466 59.83327 L 140.80867 59.83327 L 140.97072 59.83327 L 141.13278 59.83327 L 141.29483 59.83327 L 141.45688 59.83327 L 141.61891 59.83327 L 141.78099 59.83327 L 141.94306 59.83327 L 142.10509 59.83327 L 142.26715 59.83327 L 142.42919 59.83327 L 142.59125 59.83327 L 142.75331 59.83327 L 142.91536 59.83327 L 143.07741 59.83327 L 143.23944 59.83327 L 143.40152 59.83327 L 143.56357 59.83327 L 143.72562 59.83327 L 143.88768 59.83327 L 144.04972 59.83327 L 144.21178 59.83327 L 144.37384 59.83327 L 144.53588 59.83327 L 144.69794 59.83327 L 144.85999 59.83327 L 145.02205 59.83327 L 145.1841 59.83327 L 145.34615 59.83327 L 145.50821 59.83327 L 145.67024 59.83327 L 145.8323 59.83327 L 145.99437 59.83327 L 146.1564 59.83327 L 146.31847 59.83327 L 146.48052 59.83327 L 146.64258 59.83327 L 146.80463 59.83327 L 146.96668 59.83327 L 147.12874 59.83327 L 147.29077 59.83327 L 147.45285 59.83327 L 147.6149 59.83327 L 147.77693 59.83327 L 147.939 59.83327 L 148.10105 59.83327 L 148.26309 59.83327 L 148.42516 59.83327 L 148.5872 59.83327 L 148.74927 59.83327 L 148.9113 59.83327 L 149.07337 59.83327 L 149.23543 59.83327 L 149.39746 59.83327 L 149.55954 59.83327 L 149.72156 59.83327 L 149.88362 59.83327 L 150.0457 59.83327 L 150.20774 59.83327 L 150.3698 59.83327 L 150.53182 59.83327 L 150.6939 59.83327 L 150.85596 59.83327 L 151.01799 59.83327 L 151.18006 59.83327 L 151.34209 59.83327 L 151.50415 59.83327 L 151.66623 59.83327 L 151.82826 59.83327 L 151.99031 59.83327 L 152.15236 59.83327 L 152.31443 59.83327 L 152.47649 59.83327 L 152.63854 59.83327 L 152.80059 59.83327 L 152.96262 59.83327 L 153.12468 59.83327 L 153.28676 59.83327 L 153.44878 59.83327 L 153.61084 59.83327 L 153.77289 59.83327 L 153.93495 59.83327 L 154.09702 59.83327 L 154.25905 59.83327 L 154.42111 59.83327 L 154.58315 59.83327 L 154.74523 59.83327 L 154.90727 59.83327 L 155.0693 59.83327 L 155.23137 59.83327 L 155.39342 59.83327 L 155.55548 59.83327 L 155.71753 59.83327 L 155.87958 59.83327 L 156.04164 59.83327 L 156.20368 59.83327 L 156.36574 59.83327 L 156.5278 59.83327 L 156.68984 59.83327 L 156.85192 59.83327 L 157.01395 59.83327 L 157.176 59.83327 L 157.33808 59.83327 L 157.5001 59.83327 L 157.66217 59.83327 L 157.82419 59.83327 L 157.98627 59.83327 L 158.14833 59.83327 L 158.31037 59.83327 L 158.47245 59.83327 L 158.63446 59.83327 L 158.79653 59.83327 L 158.9586 59.83327 L 159.12064 59.83327 L 159.28269 59.83327 L 159.44474 59.83327 L 159.6068 59.83327 L 159.76886 59.83327 L 159.93091 59.83327 L 160.09296 59.83327 L 160.25499 59.83327 L 160.41706 59.83327 L 160.57913 59.83327 L 160.74115 59.83327 L 160.90322 59.83327 L 161.06526 59.83327 L 161.22733 59.83327 L 161.38939 59.83327 L 161.55142 59.83327 L 161.71349 59.83327 L 161.87552 59.83327 L 162.0376 59.83327 L 162.19966 59.83327 L 162.36168 59.83327 L 162.52376 59.83327 L 162.68579 59.83327 L 162.84786 59.83327 L 163.0099 59.83327 L 163.17195 59.83327 L 163.33402 59.83327 L 163.49605 59.83327 L 163.65813 59.83327 L 163.82018 59.83327 L 163.98221 59.83327 L 164.14429 59.83327 L 164.30632 59.83327 L 164.46837 59.83327 L 164.63045 59.83327 L 164.79248 59.83327 L 164.95455 59.83327 L 165.11658 59.83327 L 165.27864 59.83327 L 165.4407 59.83327 L 165.60274 59.83327 L 165.76482 59.83327 L 165.92685 59.83327 L 166.0889 59.83327 L 166.25098 59.83327 L 166.41301 59.83327 L 166.57508 59.83327 L 166.73712 59.83327 L 166.89917 59.83327 L 167.06124 59.83327 L 167.22328 59.83327 L 167.38533 59.83327 L 167.54738 59.83327 L 167.70943 59.83327 L 167.8715 59.83327 L 168.03354 59.83327 L 168.19559 59.83327 L 168.35765 59.83327 L 168.5197 59.83327 L 168.68177 59.83327 L 168.84381 59.83327 L 169.00586 59.83327 L 169.16791 59.83327 L 169.32997 59.83327 L 169.49204 59.83327 L 169.65407 59.83327 L 169.81613 59.83327 L 169.97817 59.83327 L 170.14023 59.83327 L 170.30228 59.83327 L 170.46434 59.83327 L 170.62639 59.83327 L 170.78842 59.83327 L 170.9505 59.83327 L 171.11255 59.83327 L 171.2746 59.83327 L 171.43666 59.83327 L 171.5987 59.83327 L 171.76076 59.83327 L 171.92282 59.83327 L 172.08487 59.83327 L 172.24692 59.83327 L 172.40897 59.83327 L 172.57103 59.83327 L 172.73308 59.83327 L 172.89513 59.83327 L 173.05719 59.83327 L 173.21923 59.83327 L 173.38129 59.83327 L 173.54335 59.83327 L 173.70539 59.83327 L 173.86745 59.83327 L 174.0295 59.83327 L 174.19156 59.83327 L 174.3536 59.83327 L 174.51566 59.83327 L 174.67772 59.83327 L 174.83975 59.83327 L 175.00182 59.83327 L 175.16388 59.83327 L 175.32592 59.83327 L 175.48798 59.83327 L 175.65003 59.83327 L 175.81209 59.83327 L 175.97414 59.83327 L 176.13619 59.83327 L 176.29825 59.83327 L 176.46028 59.83327 L 176.62235 59.83327 L 176.78441 59.83327 L 176.94644 59.83327 L 177.10852 59.83327 L 177.27056 59.83327 L 177.4326 59.83327 L 177.59467 59.83327 L 177.75672 59.83327 L 177.91878 59.83327 L 178.0808 59.83327 "/>
<symbol id="font_2_3">
<path d="M .121 .47900004 C .075 .509 .071 .54300007 .071 .56000009 C .071 .62100008 .136 .66300007 .20700002 .66300007 C .28000004 .66300007 .344 .61100009 .344 .53900006 C .344 .48200003 .305 .43400005 .245 .39900003 L .121 .47900004 M .26700003 .38400004 C .33900003 .42100004 .388 .47300006 .388 .53900006 C .388 .63100007 .29900003 .688 .208 .688 C .108 .688 .027000003 .614 .027000003 .521 C .027000003 .503 .029 .45800004 .071 .41100005 C .082 .39900003 .11900001 .37400005 .144 .35700003 C .086 .32800005 0 .272 0 .17300001 C 0 .067 .102000009 0 .20700002 0 C .32000003 0 .41500003 .083000008 .41500003 .19000001 C .41500003 .22600001 .404 .27100004 .36600004 .31300003 C .34700004 .33400003 .33100004 .34400005 .26700003 .38400004 M .167 .34200005 L .29000003 .26400004 C .31800003 .245 .365 .215 .365 .154 C .365 .080000009 .29000003 .028 .208 .028 C .122 .028 .050000006 .09 .050000006 .17300001 C .050000006 .231 .082 .29500003 .167 .34200005 Z "/>
</symbol>
<use xlink:href="#font_2_3" transform="matrix(27.673888,0,0,-27.673888,139.4873,328.0005)"/>
<symbol id="font_2_2">
<path d="M .07700001 .07700001 L .18300002 .18 C .33900003 .31800003 .39900003 .372 .39900003 .47200004 C .39900003 .586 .30900003 .666 .18700002 .666 C .074 .666 0 .574 0 .485 C 0 .42900003 .05 .42900003 .053000008 .42900003 C .07000001 .42900003 .105000007 .441 .105000007 .48200003 C .105000007 .508 .08700001 .53400006 .052000006 .53400006 C .044000005 .53400006 .042000008 .53400006 .039 .53300008 C .062000004 .59800007 .11600001 .63500007 .17400001 .63500007 C .26500003 .63500007 .308 .554 .308 .47200004 C .308 .39200003 .25800003 .31300003 .20300003 .25100003 L .011000004 .037 C 0 .026 0 .024 0 0 L .37100003 0 L .39900003 .17400001 L .374 .17400001 C .36900003 .14400001 .36200003 .1 .352 .085 C .345 .07700001 .279 .07700001 .257 .07700001 L .07700001 .07700001 Z "/>
</symbol>
<use xlink:href="#font_2_2" transform="matrix(27.673888,0,0,-27.673888,387.0448,440.76945)"/>
<symbol id="font_2_1">
<path d="M .421 .34200005 C .421 .42200003 .416 .50200006 .381 .57600006 C .335 .67200008 .25300003 .688 .211 .688 C .15100001 .688 .07800001 .66200008 .037000006 .56900009 C .0050000029 .5 0 .42200003 0 .34200005 C 0 .26700003 .0040000008 .177 .045000007 .101 C .088 .020000002 .161 0 .21000001 0 C .264 0 .34 .021000002 .384 .116000007 C .416 .185 .421 .263 .421 .34200005 M .21000001 .022000002 C .171 .022000002 .112 .047000003 .094 .143 C .083000008 .20300001 .083000008 .29500003 .083000008 .35400004 C .083000008 .41800005 .083000008 .48400004 .091000009 .53800007 C .11 .65700009 .185 .66600009 .21000001 .66600009 C .243 .66600009 .30900003 .64800009 .328 .549 C .338 .49300004 .338 .41700004 .338 .35400004 C .338 .279 .338 .21100001 .32700003 .147 C .312 .052 .255 .022000002 .21000001 .022000002 Z "/>
</symbol>
<use xlink:href="#font_2_1" transform="matrix(27.673888,0,0,-27.673888,139.40428,441.37828)"/>
<path transform="matrix(2.7777777,0,0,-2.7777777,10.330556,484.675)" stroke-width=".3985" stroke-linecap="butt" stroke-dasharray="2.98883,2.98883" stroke-miterlimit="10" stroke-linejoin="miter" fill="none" stroke="#000000" d="M 137.61128 22.72705 L 137.61128 69.10982 "/>
</g>
<symbol id="font_3_1">
<path d="M .305 .31300003 C .311 .33900003 .334 .43100003 .404 .43100003 C .409 .43100003 .433 .43100003 .454 .418 C .426 .41300003 .40600003 .388 .40600003 .36400003 C .40600003 .34800003 .417 .32900004 .444 .32900004 C .46600003 .32900004 .498 .34700004 .498 .38700003 C .498 .43900005 .439 .45300005 .405 .45300005 C .347 .45300005 .312 .40000005 .3 .37700004 C .275 .44300003 .221 .45300005 .19200002 .45300005 C .08800001 .45300005 .031000002 .32400004 .031000002 .29900003 C .031000002 .28900004 .041 .28900004 .043000007 .28900004 C .051000008 .28900004 .054000006 .291 .056 .3 C .09 .40600003 .156 .43100003 .19000001 .43100003 C .209 .43100003 .244 .42200003 .244 .36400003 C .244 .33300004 .22700002 .26600004 .19000001 .126 C .17400001 .064 .13900002 .022000002 .095000009 .022000002 C .08900001 .022000002 .06600001 .022000002 .045 .035 C .07000001 .040000004 .09200001 .061 .09200001 .089 C .09200001 .116000007 .07000001 .124000009 .055000009 .124000009 C .025 .124000009 0 .098000008 0 .06600001 C 0 .020000002 .050000006 0 .094000007 0 C .16000001 0 .19600001 .07000001 .19900002 .076000008 C .21100001 .039 .24700003 0 .307 0 C .41 0 .467 .12900001 .467 .15400002 C .467 .16400002 .458 .16400002 .455 .16400002 C .446 .16400002 .444 .16000001 .442 .15300001 C .409 .046 .341 .022000002 .30900003 .022000002 C .27 .022000002 .254 .054 .254 .08800001 C .254 .11000001 .26 .13200002 .271 .17600002 L .305 .31300003 Z "/>
</symbol>
<use xlink:href="#font_3_1" transform="matrix(27.673888,0,0,-27.673888,560.61367,443.54054)"/>
<symbol id="font_3_2">
<path d="M .45700003 .586 C .461 .6 .461 .602 .461 .609 C .461 .62700006 .447 .63600006 .432 .63600006 C .42200003 .63600006 .40600003 .63 .397 .615 C .395 .61 .387 .579 .38300003 .561 C .37600003 .535 .36900003 .508 .363 .48100005 L .318 .301 C .314 .286 .271 .21600002 .20500002 .21600002 C .15400002 .21600002 .143 .26000003 .143 .29700003 C .143 .34300003 .16000001 .40500004 .194 .49300004 C .21000001 .53400006 .21400002 .545 .21400002 .56500008 C .21400002 .61 .18200001 .6470001 .13200002 .6470001 C .037 .6470001 0 .50200006 0 .49300004 C 0 .48300005 .01 .48300005 .012 .48300005 C .022000002 .48300005 .023 .485 .028000003 .50100007 C .055000009 .595 .095000009 .625 .12900001 .625 C .13700001 .625 .15400002 .625 .15400002 .59300008 C .15400002 .568 .14400001 .54200008 .13700001 .523 C .097 .41700004 .079 .36 .079 .31300003 C .079 .224 .142 .194 .201 .194 C .24000003 .194 .274 .21100001 .30200003 .23900002 C .289 .187 .277 .13800001 .237 .08500001 C .21100001 .051 .17300001 .022 .127 .022 C .113000009 .022 .068 .025000006 .051000008 .06400001 C .067 .06400001 .080000009 .06400001 .094000007 .076000008 C .104 .08500001 .11400001 .098000008 .11400001 .117000009 C .11400001 .148 .087000008 .15200001 .07700001 .15200001 C .054000006 .15200001 .021 .136 .021 .087000008 C .021 .037 .065000008 0 .127 0 C .23 0 .333 .091000009 .361 .20400001 L .45700003 .586 Z "/>
</symbol>
<use xlink:href="#font_3_2" transform="matrix(27.673888,0,0,-27.673888,144.19422,26.809287)"/>
</g>
</svg>
