<?xml version="1.0" encoding="UTF-8" standalone="no"?>
<!DOCTYPE svg PUBLIC "-//W3C//DTD SVG 1.1//EN" "http://www.w3.org/Graphics/SVG/1.1/DTD/svg11.dtd">
<svg xmlns="http://www.w3.org/2000/svg" xmlns:xlink="http://www.w3.org/1999/xlink" version="1.1" width="584.7916pt" height="485.72499pt" viewBox="0 0 584.7916 485.72499">
<g enable-background="new">
<path transform="matrix(2.7777777,0,0,-2.7777777,10.330556,484.6166)" stroke-width=".79701" stroke-linecap="butt" stroke-miterlimit="10" stroke-linejoin="miter" fill="none" stroke="#000000" d="M 0 32.66425 L 191.6839 32.66425 "/>
<path transform="matrix(2.7777777,0,0,-2.7777777,542.78567,393.8826)" d="M 2.59026 0 L -1.55415 2.0722 L 0 0 L -1.55415 -2.0722 "/>
<path transform="matrix(2.7777777,0,0,-2.7777777,10.330556,484.6166)" stroke-width=".79701" stroke-linecap="butt" stroke-miterlimit="10" stroke-linejoin="miter" fill="none" stroke="#000000" d="M 48.56902 0 L 48.56902 158.80716 "/>
<path transform="matrix(0,-2.7777222,-2.7777222,-0,145.24449,43.48564)" d="M 2.59026 0 L -1.55415 2.0722 L 0 0 L -1.55415 -2.0722 "/>
<clipPath id="cp0">
<path transform="matrix(2.7777777,0,0,-2.7777777,10.330556,484.6166)" d="M 0 0 L 194.27411 0 L 194.27411 161.39737 L 0 161.39737 Z "/>
</clipPath>
<g clip-path="url(#cp0)">
<path transform="matrix(2.7777777,0,0,-2.7777777,10.330556,484.6166)" d="M 48.56902 32.66425 L 48.57114 32.66425 L 48.76558 32.66425 L 48.96007 32.66425 L 49.15456 32.66426 L 49.349 32.6643 L 49.54349 32.66437 L 49.73793 32.66447 L 49.93242 32.6646 L 50.1269 32.66478 L 50.32137 32.665 L 50.51587 32.66527 L 50.71031 32.66562 L 50.90479 32.66603 L 51.09929 32.66652 L 51.29373 32.6671 L 51.4882 32.66776 L 51.68268 32.6685 L 51.87715 32.66936 L 52.07164 32.6703 L 52.2661 32.67139 L 52.46057 32.67258 L 52.65504 32.67387 L 52.84953 32.67534 L 53.044 32.67693 L 53.23846 32.67863 L 53.43294 32.68053 L 53.62741 32.68254 L 53.82188 32.68475 L 54.01636 32.6871 L 54.21083 32.68964 L 54.4053 32.69237 L 54.59976 32.69527 L 54.79427 32.69836 L 54.98874 32.70166 L 55.18318 32.70518 L 55.37769 32.7089 L 55.57213 32.71284 L 55.76662 32.71701 L 55.9611 32.72139 L 56.15555 32.72603 L 56.35004 32.7309 L 56.5445 32.73602 L 56.73897 32.74141 L 56.93347 32.74704 L 57.12793 32.75296 L 57.32242 32.75914 L 57.51686 32.76561 L 57.71135 32.77235 L 57.90584 32.7794 L 58.10028 32.78676 L 58.29475 32.79442 L 58.48923 32.80238 L 58.6837 32.81067 L 58.8782 32.81927 L 59.07265 32.8282 L 59.26714 32.8375 L 59.4616 32.8471 L 59.65608 32.85709 L 59.85056 32.86742 L 60.04501 32.8781 L 60.2395 32.88916 L 60.43396 32.9006 L 60.62843 32.9124 L 60.82292 32.9246 L 61.01738 32.93721 L 61.21187 32.9502 L 61.40631 32.9636 L 61.60081 32.9774 L 61.79529 32.99162 L 61.98975 33.0063 L 62.18423 33.02138 L 62.37868 33.0369 L 62.57318 33.05286 L 62.76765 33.06927 L 62.9621 33.08615 L 63.1566 33.1035 L 63.35104 33.1213 L 63.54553 33.13957 L 63.74002 33.15834 L 63.93448 33.17758 L 64.12897 33.19731 L 64.32341 33.21756 L 64.5179 33.23831 L 64.71239 33.25957 L 64.90683 33.28134 L 65.10132 33.30363 L 65.29578 33.32646 L 65.49026 33.34984 L 65.68475 33.37375 L 65.87921 33.39821 L 66.07368 33.42323 L 66.26816 33.44879 L 66.46263 33.47495 L 66.6571 33.50168 L 66.85158 33.52898 L 67.04605 33.55687 L 67.24051 33.58534 L 67.435 33.61443 L 67.62947 33.64412 L 67.82394 33.67441 L 68.01842 33.70534 L 68.21288 33.73688 L 68.40736 33.76904 L 68.60185 33.80186 L 68.7963 33.83533 L 68.99078 33.86942 L 69.18523 33.90417 L 69.37973 33.93959 L 69.5742 33.9757 L 69.76866 34.01245 L 69.96315 34.0499 L 70.15761 34.08803 L 70.35208 34.12685 L 70.54659 34.16638 L 70.74103 34.2066 L 70.93552 34.24756 L 71.12997 34.28922 L 71.32445 34.33159 L 71.51894 34.37473 L 71.7134 34.41856 L 71.90787 34.46317 L 72.10234 34.5085 L 72.29681 34.55461 L 72.49132 34.60147 L 72.68576 34.64911 L 72.88023 34.69751 L 73.0747 34.74669 L 73.26918 34.79666 L 73.46365 34.84743 L 73.65813 34.89899 L 73.8526 34.95135 L 74.04704 35.00453 L 74.24155 35.05855 L 74.43602 35.11337 L 74.6305 35.16902 L 74.82498 35.22551 L 75.01942 35.28285 L 75.21391 35.34103 L 75.4084 35.40009 L 75.60284 35.45998 L 75.79733 35.52075 L 75.99179 35.5824 L 76.18628 35.64493 L 76.38075 35.70833 L 76.57521 35.77263 L 76.7697 35.83784 L 76.96416 35.90395 L 77.15865 35.97098 L 77.35313 36.03891 L 77.54758 36.10777 L 77.74208 36.17757 L 77.93652 36.2483 L 78.131 36.31998 L 78.32549 36.39261 L 78.51994 36.46617 L 78.71442 36.54071 L 78.90889 36.61623 L 79.10336 36.69272 L 79.29787 36.77019 L 79.49231 36.84862 L 79.6868 36.92807 L 79.88126 37.00851 L 80.07573 37.08997 L 80.27022 37.17242 L 80.46468 37.25589 L 80.65915 37.3404 L 80.8536 37.42592 L 81.0481 37.5125 L 81.24258 37.60011 L 81.43704 37.68877 L 81.63153 37.77849 L 81.82597 37.86926 L 82.02048 37.9611 L 82.21495 38.05405 L 82.4094 38.14803 L 82.60388 38.2431 L 82.79834 38.3393 L 82.99283 38.43657 L 83.18732 38.53497 L 83.38176 38.63445 L 83.57626 38.73508 L 83.7707 38.83679 L 83.9652 38.93968 L 84.15968 39.04367 L 84.35413 39.14882 L 84.54863 39.25511 L 84.74307 39.36256 L 84.93755 39.47119 L 85.13205 39.58098 L 85.32649 39.69191 L 85.52098 39.80406 L 85.71544 39.91737 L 85.90993 40.03189 L 86.10442 40.14761 L 86.29887 40.26453 L 86.49335 40.38264 L 86.6878 40.502 L 86.8823 40.62259 L 87.07677 40.74438 L 87.27122 40.86742 L 87.46571 40.9917 L 87.66016 41.11722 L 87.85466 41.244 L 88.04913 41.37207 L 88.2436 41.50137 L 88.43808 41.63196 L 88.63252 41.76382 L 88.82703 41.89699 L 89.0215 42.03145 L 89.21594 42.16718 L 89.41045 42.30424 L 89.60489 42.4426 L 89.7994 42.58229 L 89.99387 42.7233 L 90.18832 42.86562 L 90.38281 43.00931 L 90.57727 43.1543 L 90.77174 43.30069 L 90.96623 43.4484 L 91.16069 43.59747 L 91.35518 43.74792 L 91.54962 43.89973 L 91.74411 44.05295 L 91.9386 44.20757 L 92.13306 44.36351 L 92.32753 44.5209 L 92.522 44.67967 L 92.71648 44.83989 L 92.91098 45.00151 L 93.10542 45.16452 L 93.2999 45.32901 L 93.49435 45.49489 L 93.68884 45.66225 L 93.88332 45.83105 L 94.07777 46.00128 L 94.27226 46.173 L 94.46672 46.34618 L 94.66121 46.52084 L 94.8557 46.69699 L 95.05016 46.87459 L 95.24463 47.05371 L 95.43909 47.2343 L 95.63358 47.41644 L 95.82805 47.60007 L 96.0225 47.78519 L 96.217 47.97188 L 96.41144 48.16006 L 96.60594 48.34981 L 96.80043 48.54109 L 96.99487 48.7339 L 97.18936 48.92828 L 97.38382 49.12422 L 97.5783 49.32173 L 97.77278 49.52083 L 97.96724 49.72148 L 98.16173 49.92375 L 98.35617 50.12756 L 98.55066 50.33301 L 98.74515 50.54008 L 98.9396 50.74872 L 99.1341 50.959 L 99.32855 51.17087 L 99.52303 51.38441 L 99.71751 51.5996 L 99.91197 51.81638 L 100.10645 52.03485 L 100.30092 52.25494 L 100.49539 52.47672 L 100.68987 52.70018 L 100.88434 52.92526 L 101.07881 53.15207 L 101.27327 53.38052 L 101.46777 53.61072 L 101.66225 53.84259 L 101.8567 54.07614 L 102.0512 54.31145 L 102.24564 54.54843 L 102.44012 54.78716 L 102.63461 55.02765 L 102.82906 55.26979 L 103.02354 55.51376 L 103.218 55.7594 L 103.41249 56.00687 L 103.60698 56.25607 L 103.80142 56.507 L 103.99593 56.75977 L 104.19037 57.01427 L 104.38484 57.27057 L 104.57935 57.5287 L 104.77379 57.78856 L 104.96828 58.05028 L 105.16273 58.31378 L 105.35721 58.57912 L 105.55171 58.84628 L 105.74615 59.11523 L 105.94064 59.38608 L 106.1351 59.6587 L 106.32959 59.93324 L 106.52406 60.20961 L 106.71852 60.48781 L 106.913 60.76791 L 107.10747 61.04987 L 107.30194 61.33371 L 107.49643 61.61946 L 107.69089 61.90707 L 107.88538 62.19661 L 108.07982 62.48799 L 108.27432 62.78137 L 108.4688 63.07661 L 108.66325 63.37378 L 108.85774 63.6729 L 109.05219 63.97392 L 109.24667 64.2769 L 109.44116 64.58188 L 109.6356 64.88872 L 109.83011 65.1976 L 110.02455 65.50839 L 110.21906 65.8212 L 110.41353 66.13597 L 110.60799 66.45271 L 110.80247 66.77147 L 110.99692 67.09218 L 111.1914 67.41496 L 111.3859 67.73973 L 111.58034 68.06648 L 111.77484 68.39531 L 111.96928 68.7261 L 112.16377 69.05898 L 112.35826 69.39392 L 112.55272 69.73085 L 112.7472 70.06989 L 112.94165 70.4109 L 113.13614 70.75407 L 113.3277 71.09418 L 113.32642 32.66425 L 113.13614 32.66425 L 112.94165 32.66425 L 112.7472 32.66425 L 112.55272 32.66425 L 112.35826 32.66425 L 112.16377 32.66425 L 111.96928 32.66425 L 111.77484 32.66425 L 111.58034 32.66425 L 111.3859 32.66425 L 111.1914 32.66425 L 110.99692 32.66425 L 110.80247 32.66425 L 110.60799 32.66425 L 110.41353 32.66425 L 110.21906 32.66425 L 110.02455 32.66425 L 109.83011 32.66425 L 109.6356 32.66425 L 109.44116 32.66425 L 109.24667 32.66425 L 109.05219 32.66425 L 108.85774 32.66425 L 108.66325 32.66425 L 108.4688 32.66425 L 108.27432 32.66425 L 108.07982 32.66425 L 107.88538 32.66425 L 107.69089 32.66425 L 107.49643 32.66425 L 107.30194 32.66425 L 107.10747 32.66425 L 106.913 32.66425 L 106.71852 32.66425 L 106.52406 32.66425 L 106.32959 32.66425 L 106.1351 32.66425 L 105.94064 32.66425 L 105.74615 32.66425 L 105.55171 32.66425 L 105.35721 32.66425 L 105.16273 32.66425 L 104.96828 32.66425 L 104.77379 32.66425 L 104.57935 32.66425 L 104.38484 32.66425 L 104.19037 32.66425 L 103.99593 32.66425 L 103.80142 32.66425 L 103.60698 32.66425 L 103.41249 32.66425 L 103.218 32.66425 L 103.02354 32.66425 L 102.82906 32.66425 L 102.63461 32.66425 L 102.44012 32.66425 L 102.24564 32.66425 L 102.0512 32.66425 L 101.8567 32.66425 L 101.66225 32.66425 L 101.46777 32.66425 L 101.27327 32.66425 L 101.07881 32.66425 L 100.88434 32.66425 L 100.68987 32.66425 L 100.49539 32.66425 L 100.30092 32.66425 L 100.10645 32.66425 L 99.91197 32.66425 L 99.71751 32.66425 L 99.52303 32.66425 L 99.32855 32.66425 L 99.1341 32.66425 L 98.9396 32.66425 L 98.74515 32.66425 L 98.55066 32.66425 L 98.35617 32.66425 L 98.16173 32.66425 L 97.96724 32.66425 L 97.77278 32.66425 L 97.5783 32.66425 L 97.38382 32.66425 L 97.18936 32.66425 L 96.99487 32.66425 L 96.80043 32.66425 L 96.60594 32.66425 L 96.41144 32.66425 L 96.217 32.66425 L 96.0225 32.66425 L 95.82805 32.66425 L 95.63358 32.66425 L 95.43909 32.66425 L 95.24463 32.66425 L 95.05016 32.66425 L 94.8557 32.66425 L 94.66121 32.66425 L 94.46672 32.66425 L 94.27226 32.66425 L 94.07777 32.66425 L 93.88332 32.66425 L 93.68884 32.66425 L 93.49435 32.66425 L 93.2999 32.66425 L 93.10542 32.66425 L 92.91098 32.66425 L 92.71648 32.66425 L 92.522 32.66425 L 92.32753 32.66425 L 92.13306 32.66425 L 91.9386 32.66425 L 91.74411 32.66425 L 91.54962 32.66425 L 91.35518 32.66425 L 91.16069 32.66425 L 90.96623 32.66425 L 90.77174 32.66425 L 90.57727 32.66425 L 90.38281 32.66425 L 90.18832 32.66425 L 89.99387 32.66425 L 89.7994 32.66425 L 89.60489 32.66425 L 89.41045 32.66425 L 89.21594 32.66425 L 89.0215 32.66425 L 88.82703 32.66425 L 88.63252 32.66425 L 88.43808 32.66425 L 88.2436 32.66425 L 88.04913 32.66425 L 87.85466 32.66425 L 87.66016 32.66425 L 87.46571 32.66425 L 87.27122 32.66425 L 87.07677 32.66425 L 86.8823 32.66425 L 86.6878 32.66425 L 86.49335 32.66425 L 86.29887 32.66425 L 86.10442 32.66425 L 85.90993 32.66425 L 85.71544 32.66425 L 85.52098 32.66425 L 85.32649 32.66425 L 85.13205 32.66425 L 84.93755 32.66425 L 84.74307 32.66425 L 84.54863 32.66425 L 84.35413 32.66425 L 84.15968 32.66425 L 83.9652 32.66425 L 83.7707 32.66425 L 83.57626 32.66425 L 83.38176 32.66425 L 83.18732 32.66425 L 82.99283 32.66425 L 82.79834 32.66425 L 82.60388 32.66425 L 82.4094 32.66425 L 82.21495 32.66425 L 82.02048 32.66425 L 81.82597 32.66425 L 81.63153 32.66425 L 81.43704 32.66425 L 81.24258 32.66425 L 81.0481 32.66425 L 80.8536 32.66425 L 80.65915 32.66425 L 80.46468 32.66425 L 80.27022 32.66425 L 80.07573 32.66425 L 79.88126 32.66425 L 79.6868 32.66425 L 79.49231 32.66425 L 79.29787 32.66425 L 79.10336 32.66425 L 78.90889 32.66425 L 78.71442 32.66425 L 78.51994 32.66425 L 78.32549 32.66425 L 78.131 32.66425 L 77.93652 32.66425 L 77.74208 32.66425 L 77.54758 32.66425 L 77.35313 32.66425 L 77.15865 32.66425 L 76.96416 32.66425 L 76.7697 32.66425 L 76.57521 32.66425 L 76.38075 32.66425 L 76.18628 32.66425 L 75.99179 32.66425 L 75.79733 32.66425 L 75.60284 32.66425 L 75.4084 32.66425 L 75.21391 32.66425 L 75.01942 32.66425 L 74.82498 32.66425 L 74.6305 32.66425 L 74.43602 32.66425 L 74.24155 32.66425 L 74.04704 32.66425 L 73.8526 32.66425 L 73.65813 32.66425 L 73.46365 32.66425 L 73.26918 32.66425 L 73.0747 32.66425 L 72.88023 32.66425 L 72.68576 32.66425 L 72.49132 32.66425 L 72.29681 32.66425 L 72.10234 32.66425 L 71.90787 32.66425 L 71.7134 32.66425 L 71.51894 32.66425 L 71.32445 32.66425 L 71.12997 32.66425 L 70.93552 32.66425 L 70.74103 32.66425 L 70.54659 32.66425 L 70.35208 32.66425 L 70.15761 32.66425 L 69.96315 32.66425 L 69.76866 32.66425 L 69.5742 32.66425 L 69.37973 32.66425 L 69.18523 32.66425 L 68.99078 32.66425 L 68.7963 32.66425 L 68.60185 32.66425 L 68.40736 32.66425 L 68.21288 32.66425 L 68.01842 32.66425 L 67.82394 32.66425 L 67.62947 32.66425 L 67.435 32.66425 L 67.24051 32.66425 L 67.04605 32.66425 L 66.85158 32.66425 L 66.6571 32.66425 L 66.46263 32.66425 L 66.26816 32.66425 L 66.07368 32.66425 L 65.87921 32.66425 L 65.68475 32.66425 L 65.49026 32.66425 L 65.29578 32.66425 L 65.10132 32.66425 L 64.90683 32.66425 L 64.71239 32.66425 L 64.5179 32.66425 L 64.32341 32.66425 L 64.12897 32.66425 L 63.93448 32.66425 L 63.74002 32.66425 L 63.54553 32.66425 L 63.35104 32.66425 L 63.1566 32.66425 L 62.9621 32.66425 L 62.76765 32.66425 L 62.57318 32.66425 L 62.37868 32.66425 L 62.18423 32.66425 L 61.98975 32.66425 L 61.79529 32.66425 L 61.60081 32.66425 L 61.40631 32.66425 L 61.21187 32.66425 L 61.01738 32.66425 L 60.82292 32.66425 L 60.62843 32.66425 L 60.43396 32.66425 L 60.2395 32.66425 L 60.04501 32.66425 L 59.85056 32.66425 L 59.65608 32.66425 L 59.4616 32.66425 L 59.26714 32.66425 L 59.07265 32.66425 L 58.8782 32.66425 L 58.6837 32.66425 L 58.48923 32.66425 L 58.29475 32.66425 L 58.10028 32.66425 L 57.90584 32.66425 L 57.71135 32.66425 L 57.51686 32.66425 L 57.32242 32.66425 L 57.12793 32.66425 L 56.93347 32.66425 L 56.73897 32.66425 L 56.5445 32.66425 L 56.35004 32.66425 L 56.15555 32.66425 L 55.9611 32.66425 L 55.76662 32.66425 L 55.57213 32.66425 L 55.37769 32.66425 L 55.18318 32.66425 L 54.98874 32.66425 L 54.79427 32.66425 L 54.59976 32.66425 L 54.4053 32.66425 L 54.21083 32.66425 L 54.01636 32.66425 L 53.82188 32.66425 L 53.62741 32.66425 L 53.43294 32.66425 L 53.23846 32.66425 L 53.044 32.66425 L 52.84953 32.66425 L 52.65504 32.66425 L 52.46057 32.66425 L 52.2661 32.66425 L 52.07164 32.66425 L 51.87715 32.66425 L 51.68268 32.66425 L 51.4882 32.66425 L 51.29373 32.66425 L 51.09929 32.66425 L 50.90479 32.66425 L 50.71031 32.66425 L 50.51587 32.66425 L 50.32137 32.66425 L 50.1269 32.66425 L 49.93242 32.66425 L 49.73793 32.66425 L 49.54349 32.66425 L 49.349 32.66425 L 49.15456 32.66425 L 48.96007 32.66425 L 48.76558 32.66425 L 48.57114 32.66425 L 48.56902 32.66425 Z " fill="#0000ff" fill-opacity=".3"/>
</g>
<clipPath id="cp1">
<path transform="matrix(2.7777777,0,0,-2.7777777,10.330556,484.6166)" d="M 0 0 L 194.27411 0 L 194.27411 161.39737 L 0 161.39737 Z "/>
</clipPath>
<g clip-path="url(#cp1)">
<path transform="matrix(2.7777777,0,0,-2.7777777,10.330556,484.6166)" stroke-width=".79701" stroke-linecap="butt" stroke-miterlimit="10" stroke-linejoin="miter" fill="none" stroke="#00ff00" d="M -16.18835 -5.7633 L -15.99388 -5.41815 L -15.79941 -5.07506 L -15.60495 -4.73402 L -15.41046 -4.39507 L -15.216 -4.05817 L -15.02153 -3.7233 L -14.82706 -3.39047 L -14.63258 -3.0597 L -14.4381 -2.73093 L -14.24364 -2.40419 L -14.04916 -2.07947 L -13.85468 -1.75676 L -13.66022 -1.43608 L -13.46574 -1.11737 L -13.27127 -.80066 L -13.0768 -.48593 L -12.88231 -.17317 L -12.68785 .13759 L -12.49338 .44638 L -12.2989 .75322 L -12.10443 1.0581 L -11.90997 1.36105 L -11.71548 1.66205 L -11.52101 1.96112 L -11.32652 2.25826 L -11.13206 2.55347 L -10.93759 2.84677 L -10.74312 3.13815 L -10.54865 3.42763 L -10.35419 3.71521 L -10.1597 4.0009 L -9.96524 4.2847 L -9.77077 4.56662 L -9.57628 4.84668 L -9.3818 5.12486 L -9.18733 5.40118 L -8.99286 5.67564 L -8.7984 5.94827 L -8.60391 6.21904 L -8.40945 6.48799 L -8.21498 6.7551 L -8.0205 7.0204 L -7.82602 7.28387 L -7.63155 7.54553 L -7.43707 7.80539 L -7.24261 8.06345 L -7.04813 8.3197 L -6.85367 8.57419 L -6.6592 8.82689 L -6.4647 9.07782 L -6.27025 9.32698 L -6.07576 9.57439 L -5.8813 9.82 L -5.68683 10.06392 L -5.49234 10.30606 L -5.29788 10.54648 L -5.10341 10.78516 L -4.90892 11.02214 L -4.71446 11.25739 L -4.51999 11.49092 L -4.32552 11.72275 L -4.13104 11.95288 L -3.93657 12.18132 L -3.7421 12.40808 L -3.54764 12.63315 L -3.35315 12.85655 L -3.15868 13.07828 L -2.9642 13.29837 L -2.76973 13.51678 L -2.57526 13.73355 L -2.38078 13.94867 L -2.18631 14.16217 L -1.99185 14.37402 L -1.79736 14.58427 L -1.60289 14.79291 L -1.40842 14.99991 L -1.21394 15.20532 L -1.01947 15.40912 L -.825 15.61133 L -.63052 15.81197 L -.43607 16.01102 L -.24158 16.2085 L -.0471 16.4044 L .14735 16.59874 L .34183 16.79153 L .5363 16.98277 L .73077 17.17249 L .92525 17.36066 L 1.1197 17.54727 L 1.3142 17.73239 L 1.50865 17.91599 L 1.70313 18.09807 L 1.89761 18.27866 L 2.09207 18.45773 L 2.28654 18.6353 L 2.48103 18.8114 L 2.67549 18.98604 L 2.86998 19.15918 L 3.06444 19.33086 L 3.25891 19.50108 L 3.4534 19.66986 L 3.64786 19.83716 L 3.84233 20.00305 L 4.0368 20.16747 L 4.23128 20.33047 L 4.42577 20.49207 L 4.62022 20.65224 L 4.8147 20.81099 L 5.00916 20.96832 L 5.20364 21.12428 L 5.39812 21.27885 L 5.59259 21.432 L 5.78706 21.5838 L 5.98154 21.73422 L 6.17601 21.88327 L 6.3705 22.03098 L 6.56496 22.17729 L 6.75943 22.3223 L 6.95389 22.46591 L 7.14838 22.60823 L 7.34285 22.74922 L 7.53732 22.88887 L 7.7318 23.0272 L 7.92625 23.1642 L 8.12074 23.29994 L 8.31523 23.43437 L 8.50967 23.56749 L 8.70416 23.69933 L 8.89862 23.82988 L 9.0931 23.95918 L 9.28758 24.0872 L 9.48204 24.21396 L 9.67653 24.33946 L 9.87099 24.46371 L 10.06546 24.58673 L 10.25996 24.70851 L 10.4544 24.82906 L 10.6489 24.94838 L 10.84335 25.06647 L 11.03783 25.18338 L 11.23233 25.29906 L 11.42677 25.41354 L 11.62125 25.52686 L 11.81572 25.63895 L 12.0102 25.7499 L 12.20468 25.85965 L 12.39914 25.96823 L 12.59363 26.07565 L 12.78809 26.18192 L 12.98257 26.28705 L 13.17705 26.39104 L 13.3715 26.49387 L 13.56598 26.59558 L 13.76044 26.69617 L 13.95493 26.79564 L 14.14941 26.89401 L 14.34387 26.99126 L 14.53836 27.08742 L 14.7328 27.18246 L 14.9273 27.27646 L 15.12178 27.36935 L 15.31622 27.46117 L 15.51073 27.55194 L 15.70517 27.64162 L 15.89964 27.73026 L 16.09415 27.81787 L 16.28859 27.90439 L 16.4831 27.9899 L 16.67754 28.07439 L 16.87202 28.15784 L 17.06651 28.24028 L 17.26097 28.3217 L 17.45544 28.40213 L 17.6499 28.48154 L 17.84439 28.55998 L 18.03888 28.63742 L 18.23332 28.71387 L 18.4278 28.78937 L 18.62227 28.86388 L 18.81676 28.93744 L 19.01123 29.01006 L 19.2057 29.0817 L 19.40018 29.15242 L 19.59464 29.22218 L 19.78912 29.29103 L 19.9836 29.35895 L 20.17805 29.42595 L 20.37254 29.49205 L 20.56699 29.55722 L 20.76147 29.6215 L 20.95596 29.6849 L 21.15044 29.7474 L 21.34491 29.80904 L 21.53937 29.86978 L 21.73386 29.92966 L 21.92833 29.9887 L 22.12279 30.04686 L 22.31728 30.10419 L 22.51172 30.16064 L 22.7062 30.21628 L 22.9007 30.2711 L 23.09514 30.32509 L 23.28964 30.37825 L 23.4841 30.4306 L 23.67857 30.48215 L 23.87306 30.5329 L 24.06752 30.58284 L 24.262 30.632 L 24.45645 30.6804 L 24.65094 30.72803 L 24.84543 30.77486 L 25.03987 30.82094 L 25.23436 30.86627 L 25.42882 30.91086 L 25.6233 30.95468 L 25.8178 30.9978 L 26.01225 31.04016 L 26.20673 31.0818 L 26.4012 31.12273 L 26.59567 31.16293 L 26.79015 31.20247 L 26.98462 31.24126 L 27.1791 31.27939 L 27.37354 31.31682 L 27.56804 31.35358 L 27.76251 31.38963 L 27.95699 31.42503 L 28.15146 31.4598 L 28.34592 31.49388 L 28.5404 31.52731 L 28.73488 31.56012 L 28.92934 31.59227 L 29.12383 31.6238 L 29.31827 31.65471 L 29.51276 31.68498 L 29.70724 31.71468 L 29.9017 31.74374 L 30.09619 31.77222 L 30.29065 31.80008 L 30.48512 31.82738 L 30.67963 31.8541 L 30.87407 31.88022 L 31.06854 31.90578 L 31.26302 31.93079 L 31.45749 31.95525 L 31.65198 31.97914 L 31.84644 32.0025 L 32.04091 32.02531 L 32.23538 32.0476 L 32.42986 32.06937 L 32.62434 32.0906 L 32.8188 32.11134 L 33.01328 32.13158 L 33.20775 32.1513 L 33.40222 32.17055 L 33.5967 32.18929 L 33.79117 32.20755 L 33.98564 32.22534 L 34.1801 32.24268 L 34.37459 32.25954 L 34.56908 32.27596 L 34.76352 32.2919 L 34.95802 32.30742 L 35.15247 32.32248 L 35.34695 32.33714 L 35.54144 32.35136 L 35.73589 32.36516 L 35.93037 32.37856 L 36.12483 32.39154 L 36.3193 32.40411 L 36.51381 32.41632 L 36.70825 32.42812 L 36.90276 32.43956 L 37.0972 32.45059 L 37.29169 32.46127 L 37.48618 32.4716 L 37.68062 32.48155 L 37.87509 32.49118 L 38.06956 32.50044 L 38.26404 32.50938 L 38.45853 32.51797 L 38.65298 32.52626 L 38.84747 32.53421 L 39.04193 32.54187 L 39.23642 32.54921 L 39.4309 32.55626 L 39.62535 32.56299 L 39.81984 32.56946 L 40.0143 32.57564 L 40.20877 32.58154 L 40.40326 32.58719 L 40.59772 32.59256 L 40.7922 32.59767 L 40.98665 32.60255 L 41.18115 32.60718 L 41.37563 32.61157 L 41.57008 32.61572 L 41.76457 32.61966 L 41.95901 32.62337 L 42.15352 32.62688 L 42.34799 32.63017 L 42.54243 32.63326 L 42.73692 32.63617 L 42.93138 32.63889 L 43.12587 32.6414 L 43.32036 32.64378 L 43.51482 32.64597 L 43.7093 32.648 L 43.90375 32.64987 L 44.09824 32.6516 L 44.29272 32.65317 L 44.48717 32.65462 L 44.68166 32.65593 L 44.87611 32.6571 L 45.07059 32.65817 L 45.26509 32.65913 L 45.45955 32.65997 L 45.65402 32.66072 L 45.8485 32.66138 L 46.04297 32.66194 L 46.23744 32.66243 L 46.43192 32.66284 L 46.62639 32.6632 L 46.82085 32.66348 L 47.01534 32.6637 L 47.20981 32.66388 L 47.40427 32.66402 L 47.59875 32.66411 L 47.79321 32.66417 L 47.9877 32.66422 L 48.18217 32.66423 L 48.37663 32.66425 L 48.57114 32.66425 L 48.76558 32.66425 L 48.96007 32.66425 L 49.15456 32.66426 L 49.349 32.6643 L 49.54349 32.66437 L 49.73793 32.66447 L 49.93242 32.6646 L 50.1269 32.66478 L 50.32137 32.665 L 50.51587 32.66527 L 50.71031 32.66562 L 50.90479 32.66603 L 51.09929 32.66652 L 51.29373 32.6671 L 51.4882 32.66776 L 51.68268 32.6685 L 51.87715 32.66936 L 52.07164 32.6703 L 52.2661 32.67139 L 52.46057 32.67258 L 52.65504 32.67387 L 52.84953 32.67534 L 53.044 32.67693 L 53.23846 32.67863 L 53.43294 32.68053 L 53.62741 32.68254 L 53.82188 32.68475 L 54.01636 32.6871 L 54.21083 32.68964 L 54.4053 32.69237 L 54.59976 32.69527 L 54.79427 32.69836 L 54.98874 32.70166 L 55.18318 32.70518 L 55.37769 32.7089 L 55.57213 32.71284 L 55.76662 32.71701 L 55.9611 32.72139 L 56.15555 32.72603 L 56.35004 32.7309 L 56.5445 32.73602 L 56.73897 32.74141 L 56.93347 32.74704 L 57.12793 32.75296 L 57.32242 32.75914 L 57.51686 32.76561 L 57.71135 32.77235 L 57.90584 32.7794 L 58.10028 32.78676 L 58.29475 32.79442 L 58.48923 32.80238 L 58.6837 32.81067 L 58.8782 32.81927 L 59.07265 32.8282 L 59.26714 32.8375 L 59.4616 32.8471 L 59.65608 32.85709 L 59.85056 32.86742 L 60.04501 32.8781 L 60.2395 32.88916 L 60.43396 32.9006 L 60.62843 32.9124 L 60.82292 32.9246 L 61.01738 32.93721 L 61.21187 32.9502 L 61.40631 32.9636 L 61.60081 32.9774 L 61.79529 32.99162 L 61.98975 33.0063 L 62.18423 33.02138 L 62.37868 33.0369 L 62.57318 33.05286 L 62.76765 33.06927 L 62.9621 33.08615 L 63.1566 33.1035 L 63.35104 33.1213 L 63.54553 33.13957 L 63.74002 33.15834 L 63.93448 33.17758 L 64.12897 33.19731 L 64.32341 33.21756 L 64.5179 33.23831 L 64.71239 33.25957 L 64.90683 33.28134 L 65.10132 33.30363 L 65.29578 33.32646 L 65.49026 33.34984 L 65.68475 33.37375 L 65.87921 33.39821 L 66.07368 33.42323 L 66.26816 33.44879 L 66.46263 33.47495 L 66.6571 33.50168 L 66.85158 33.52898 L 67.04605 33.55687 L 67.24051 33.58534 L 67.435 33.61443 L 67.62947 33.64412 L 67.82394 33.67441 L 68.01842 33.70534 L 68.21288 33.73688 L 68.40736 33.76904 L 68.60185 33.80186 L 68.7963 33.83533 L 68.99078 33.86942 L 69.18523 33.90417 L 69.37973 33.93959 L 69.5742 33.9757 L 69.76866 34.01245 L 69.96315 34.0499 L 70.15761 34.08803 L 70.35208 34.12685 L 70.54659 34.16638 L 70.74103 34.2066 L 70.93552 34.24756 L 71.12997 34.28922 L 71.32445 34.33159 L 71.51894 34.37473 L 71.7134 34.41856 L 71.90787 34.46317 L 72.10234 34.5085 L 72.29681 34.55461 L 72.49132 34.60147 L 72.68576 34.64911 L 72.88023 34.69751 L 73.0747 34.74669 L 73.26918 34.79666 L 73.46365 34.84743 L 73.65813 34.89899 L 73.8526 34.95135 L 74.04704 35.00453 L 74.24155 35.05855 L 74.43602 35.11337 L 74.6305 35.16902 L 74.82498 35.22551 L 75.01942 35.28285 L 75.21391 35.34103 L 75.4084 35.40009 L 75.60284 35.45998 L 75.79733 35.52075 L 75.99179 35.5824 L 76.18628 35.64493 L 76.38075 35.70833 L 76.57521 35.77263 L 76.7697 35.83784 L 76.96416 35.90395 L 77.15865 35.97098 L 77.35313 36.03891 L 77.54758 36.10777 L 77.74208 36.17757 L 77.93652 36.2483 L 78.131 36.31998 L 78.32549 36.39261 L 78.51994 36.46617 L 78.71442 36.54071 L 78.90889 36.61623 L 79.10336 36.69272 L 79.29787 36.77019 L 79.49231 36.84862 L 79.6868 36.92807 L 79.88126 37.00851 L 80.07573 37.08997 L 80.27022 37.17242 L 80.46468 37.25589 L 80.65915 37.3404 L 80.8536 37.42592 L 81.0481 37.5125 L 81.24258 37.60011 L 81.43704 37.68877 L 81.63153 37.77849 L 81.82597 37.86926 L 82.02048 37.9611 L 82.21495 38.05405 L 82.4094 38.14803 L 82.60388 38.2431 L 82.79834 38.3393 L 82.99283 38.43657 L 83.18732 38.53497 L 83.38176 38.63445 L 83.57626 38.73508 L 83.7707 38.83679 L 83.9652 38.93968 L 84.15968 39.04367 L 84.35413 39.14882 L 84.54863 39.25511 L 84.74307 39.36256 L 84.93755 39.47119 L 85.13205 39.58098 L 85.32649 39.69191 L 85.52098 39.80406 L 85.71544 39.91737 L 85.90993 40.03189 L 86.10442 40.14761 L 86.29887 40.26453 L 86.49335 40.38264 L 86.6878 40.502 L 86.8823 40.62259 L 87.07677 40.74438 L 87.27122 40.86742 L 87.46571 40.9917 L 87.66016 41.11722 L 87.85466 41.244 L 88.04913 41.37207 L 88.2436 41.50137 L 88.43808 41.63196 L 88.63252 41.76382 L 88.82703 41.89699 L 89.0215 42.03145 L 89.21594 42.16718 L 89.41045 42.30424 L 89.60489 42.4426 L 89.7994 42.58229 L 89.99387 42.7233 L 90.18832 42.86562 L 90.38281 43.00931 L 90.57727 43.1543 L 90.77174 43.30069 L 90.96623 43.4484 L 91.16069 43.59747 L 91.35518 43.74792 L 91.54962 43.89973 L 91.74411 44.05295 L 91.9386 44.20757 L 92.13306 44.36351 L 92.32753 44.5209 L 92.522 44.67967 L 92.71648 44.83989 L 92.91098 45.00151 L 93.10542 45.16452 L 93.2999 45.32901 L 93.49435 45.49489 L 93.68884 45.66225 L 93.88332 45.83105 L 94.07777 46.00128 L 94.27226 46.173 L 94.46672 46.34618 L 94.66121 46.52084 L 94.8557 46.69699 L 95.05016 46.87459 L 95.24463 47.05371 L 95.43909 47.2343 L 95.63358 47.41644 L 95.82805 47.60007 L 96.0225 47.78519 L 96.217 47.97188 L 96.41144 48.16006 L 96.60594 48.34981 L 96.80043 48.54109 L 96.99487 48.7339 L 97.18936 48.92828 L 97.38382 49.12422 L 97.5783 49.32173 L 97.77278 49.52083 L 97.96724 49.72148 L 98.16173 49.92375 L 98.35617 50.12756 L 98.55066 50.33301 L 98.74515 50.54008 L 98.9396 50.74872 L 99.1341 50.959 L 99.32855 51.17087 L 99.52303 51.38441 L 99.71751 51.5996 L 99.91197 51.81638 L 100.10645 52.03485 L 100.30092 52.25494 L 100.49539 52.47672 L 100.68987 52.70018 L 100.88434 52.92526 L 101.07881 53.15207 L 101.27327 53.38052 L 101.46777 53.61072 L 101.66225 53.84259 L 101.8567 54.07614 L 102.0512 54.31145 L 102.24564 54.54843 L 102.44012 54.78716 L 102.63461 55.02765 L 102.82906 55.26979 L 103.02354 55.51376 L 103.218 55.7594 L 103.41249 56.00687 L 103.60698 56.25607 L 103.80142 56.507 L 103.99593 56.75977 L 104.19037 57.01427 L 104.38484 57.27057 L 104.57935 57.5287 L 104.77379 57.78856 L 104.96828 58.05028 L 105.16273 58.31378 L 105.35721 58.57912 L 105.55171 58.84628 L 105.74615 59.11523 L 105.94064 59.38608 L 106.1351 59.6587 L 106.32959 59.93324 L 106.52406 60.20961 L 106.71852 60.48781 L 106.913 60.76791 L 107.10747 61.04987 L 107.30194 61.33371 L 107.49643 61.61946 L 107.69089 61.90707 L 107.88538 62.19661 L 108.07982 62.48799 L 108.27432 62.78137 L 108.4688 63.07661 L 108.66325 63.37378 L 108.85774 63.6729 L 109.05219 63.97392 L 109.24667 64.2769 L 109.44116 64.58188 L 109.6356 64.88872 L 109.83011 65.1976 L 110.02455 65.50839 L 110.21906 65.8212 L 110.41353 66.13597 L 110.60799 66.45271 L 110.80247 66.77147 L 110.99692 67.09218 L 111.1914 67.41496 L 111.3859 67.73973 L 111.58034 68.06648 L 111.77484 68.39531 L 111.96928 68.7261 L 112.16377 69.05898 L 112.35826 69.39392 L 112.55272 69.73085 L 112.7472 70.06989 L 112.94165 70.4109 L 113.13614 70.75407 L 113.33061 71.09935 L 113.52507 71.44661 L 113.71956 71.79597 L 113.91402 72.14745 L 114.1085 72.501 L 114.30298 72.85663 L 114.49745 73.21437 L 114.69193 73.57425 L 114.88638 73.93626 L 115.08087 74.30058 L 115.27534 74.66689 L 115.46982 75.03526 L 115.66429 75.40582 L 115.85873 75.77852 L 116.05324 76.15341 L 116.24771 76.53047 L 116.44217 76.90964 L 116.63666 77.29102 L 116.83112 77.67465 L 117.0256 78.06056 L 117.22008 78.44855 L 117.41454 78.83873 L 117.60902 79.2311 L 117.80347 79.62567 L 117.99796 80.02255 L 118.19244 80.42181 L 118.38689 80.82286 L 118.58139 81.22661 L 118.77585 81.63237 L 118.97032 82.04039 L 119.16483 82.45068 L 119.35927 82.86325 L 119.55374 83.27806 L 119.74821 83.6952 L 119.94269 84.11458 L 120.13716 84.53647 L 120.33163 84.96045 L 120.52611 85.38676 L 120.72057 85.81532 L 120.91505 86.24629 L 121.10953 86.67952 L 121.304 87.11508 L 121.49849 87.55301 L 121.69293 87.9932 L 121.88742 88.43604 L 122.08191 88.88097 L 122.27637 89.32828 L 122.47084 89.77795 L 122.66528 90.23003 L 122.85979 90.68442 L 123.05426 91.14127 L 123.24872 91.60045 L 123.44322 92.06206 L 123.63766 92.52608 L 123.83215 92.99272 L 124.02664 93.46153 L 124.22108 93.93283 L 124.41557 94.40651 L 124.61003 94.88264 L 124.8045 95.36113 L 124.999 95.8422 L 125.19345 96.32562 L 125.38794 96.81181 L 125.5824 97.29991 L 125.77689 97.79108 L 125.97137 98.28436 L 126.16582 98.78024 L 126.36029 99.27853 L 126.55476 99.77933 L 126.74924 100.28265 L 126.94371 100.7885 L 127.13818 101.29681 L 127.33266 101.80797 L 127.52713 102.32133 L 127.7216 102.83727 L 127.91609 103.35574 L 128.11055 103.8768 L 128.30504 104.40042 L 128.49948 104.92653 L 128.69397 105.45522 L 128.88846 105.98672 L 129.08292 106.52058 L 129.27739 107.05707 L 129.47185 107.59607 L 129.66634 108.13776 L 129.86083 108.68198 L 130.05527 109.22876 L 130.24977 109.77824 L 130.44422 110.33035 L 130.63872 110.88527 L 130.83319 111.44269 L 131.02764 112.00269 L 131.22214 112.56534 L 131.41658 113.13057 L 131.61106 113.69856 L 131.80556 114.26917 L 132 114.84244 L 132.1945 115.41841 L 132.38895 115.99701 L 132.58344 116.57872 L 132.77793 117.16272 L 132.97237 117.74945 L 133.16686 118.33891 L 133.36132 118.93109 L 133.55579 119.52602 L 133.75028 120.12393 L 133.94474 120.72401 L 134.13922 121.32736 L 134.33368 121.93321 L 134.52817 122.54184 L 134.72264 123.15315 L 134.91712 123.76732 L 135.11159 124.3842 L 135.30603 125.00389 L 135.50054 125.62634 L 135.695 126.25189 L 135.88947 126.87964 L 136.08394 127.51082 L 136.2784 128.14447 L 136.4729 128.78096 L 136.66738 129.42029 L 136.86183 130.06246 L 137.05632 130.70738 L 137.25077 131.35517 L 137.44527 132.00618 L 137.63974 132.6597 L 137.83419 133.31601 L 138.02869 133.97528 L 138.22313 134.63736 L 138.41762 135.30234 L 138.6121 135.97022 L 138.80657 136.64099 L 139.00104 137.3147 L 139.19551 137.99121 L 139.38999 138.67102 L 139.58448 139.35349 L 139.77893 140.03873 L 139.9734 140.727 L 140.16786 141.41822 L 140.36235 142.1123 L 140.55683 142.80934 L 140.7513 143.50936 L 140.94577 144.21273 L 141.14025 144.91832 L 141.33472 145.62758 L 141.5292 146.33945 L 141.72367 147.05432 L 141.91814 147.77219 L 142.11258 148.49309 L 142.30709 149.217 L 142.50156 149.94384 L 142.69602 150.67374 L 142.8905 151.40703 L 143.08496 152.14299 L 143.27945 152.88191 L 143.47394 153.62398 L 143.66838 154.36904 L 143.86287 155.11714 L 144.05733 155.86832 L 144.25182 156.6226 L 144.44629 157.38034 L 144.64075 158.14072 L 144.83524 158.90418 L 145.02968 159.67075 L 145.22417 160.44045 L 145.41866 161.21324 L 145.61312 161.98908 L 145.80759 162.76816 L 146.00206 163.55027 L 146.19654 164.33592 L 146.39104 165.12424 L 146.58548 165.9158 L 146.77996 166.71053 L 146.97441 167.50835 L 147.1689 168.30933 L 147.36338 169.1135 L 147.55785 169.92075 L 147.75232 170.7313 L 147.9468 171.54496 L 148.14127 172.36232 L 148.33576 173.1824 L 148.53022 174.0056 L 148.72469 174.83214 L 148.91915 175.6618 L 149.11363 176.4948 L 149.3081 177.33095 L 149.50258 178.17034 L 149.69705 179.01334 L 149.89151 179.85926 L 150.086 180.70836 L 150.28049 181.56073 L 150.47493 182.41649 L 150.66944 183.27533 L 150.86388 184.13758 L 151.05837 185.00312 L 151.25284 185.87187 L 151.4473 186.74396 L 151.64179 187.61977 L 151.83625 188.49849 L 152.03072 189.38045 L 152.22522 190.26583 L 152.41967 191.15448 L 152.61415 192.04647 L 152.80861 192.94182 L 153.00308 193.84044 L 153.19759 194.74295 L 153.39203 195.64832 L 153.5865 196.55716 L 153.78098 197.4693 L 153.97545 198.38474 L 154.16994 199.30367 L 154.3644 200.22592 L 154.55889 201.15167 L 154.75334 202.08066 L 154.94783 203.0137 L 155.1423 203.94956 L 155.33676 204.88893 L 155.53125 205.83167 L 155.7257 206.77785 L 155.92018 207.72748 L 156.11467 208.68059 L 156.30913 209.63716 L 156.50362 210.59757 L 156.69806 211.56055 L 156.89257 212.52803 L 157.08704 213.49845 L 157.28148 214.47228 L 157.47599 215.4497 L 157.67043 216.43056 L 157.86492 217.41492 L 158.0594 218.40338 L 158.25385 219.39424 L 158.44835 220.38968 L 158.64279 221.3882 L 158.83728 222.39017 L 159.03177 223.39569 L 159.22623 224.40479 L 159.4207 225.41744 L 159.61516 226.43358 L 159.80965 227.4534 L 160.00414 228.4772 L 160.19858 229.50362 L 160.39305 230.53462 L 160.58753 231.56874 L 160.78202 232.60637 L 160.97649 233.64772 L 161.17096 234.69261 L 161.36544 235.74112 L 161.55989 236.79319 L 161.75438 237.84897 L 161.94886 238.90892 L 162.14331 239.97194 L 162.3378 241.0386 L 162.53224 242.10895 L 162.72673 243.18299 L 162.92122 244.26059 L 163.11569 245.34188 L 163.31017 246.42699 L 163.50463 247.51567 L 163.69911 248.60857 L 163.89359 249.70459 L 164.08805 250.80445 L 164.28253 251.9079 L 164.47698 253.0151 L 164.67148 254.12604 L 164.86595 255.24073 L 165.0604 256.35905 L 165.2549 257.48179 L 165.44936 258.6076 L 165.64383 259.73728 L 165.83834 260.87068 L 166.03278 262.00788 L 166.22725 263.14875 L 166.4217 264.29353 L 166.6162 265.44203 L 166.81069 266.59428 L 167.00513 267.75028 L 167.19962 268.91075 L 167.39409 270.0745 L 167.58856 271.24198 L 167.78305 272.41328 L 167.97751 273.58848 L 168.17198 274.7675 L 168.36646 275.95027 L 168.56093 277.1369 L 168.7554 278.32807 L 168.94988 279.52247 L 169.14435 280.72074 L 169.33879 281.9228 L 169.5333 283.12886 L 169.72777 284.3387 L 169.92224 285.55247 L 170.11672 286.77018 L 170.31118 287.99165 L 170.50566 289.2172 L 170.70014 290.4472 L 170.89459 291.6805 L 171.08908 292.91777 L 171.28353 294.15895 L 171.47803 295.40403 L 171.6725 296.65315 L 171.86696 297.90614 L 172.06145 299.16377 L 172.2559 300.42408 L 172.45038 301.68959 L 172.64488 302.9585 L 172.83933 304.23136 L 173.0338 305.5082 L 173.22827 306.78907 L 173.42275 308.07395 L 173.61724 309.36289 L 173.81169 310.6557 L 174.00617 311.95326 L 174.20064 313.25364 L 174.39511 314.55918 L 174.5896 315.86824 L 174.78406 317.1813 L 174.97855 318.49839 L 175.173 319.81953 L 175.36748 321.14476 L 175.56197 322.4748 L 175.75643 323.8074 L 175.9509 325.1456 L 176.14536 326.48716 L 176.33985 327.8328 L 176.53433 329.18257 L 176.72879 330.53645 L 176.92328 331.89436 L 177.11772 333.25654 L 177.31221 334.62275 L 177.5067 335.9938 L 177.70114 337.36833 L 177.89563 338.747 L 178.09009 340.12977 "/>
<path transform="matrix(2.7777777,0,0,-2.7777777,10.330556,484.6166)" stroke-width=".79701" stroke-linecap="butt" stroke-miterlimit="10" stroke-linejoin="miter" fill="none" stroke="#ff8000" d="M -16.18835 32.66425 L -15.99388 32.66425 L -15.79941 32.66425 L -15.60495 32.66425 L -15.41046 32.66425 L -15.216 32.66425 L -15.02153 32.66425 L -14.82706 32.66425 L -14.63258 32.66425 L -14.4381 32.66425 L -14.24364 32.66425 L -14.04916 32.66425 L -13.85468 32.66425 L -13.66022 32.66425 L -13.46574 32.66425 L -13.27127 32.66425 L -13.0768 32.66425 L -12.88231 32.66425 L -12.68785 32.66425 L -12.49338 32.66425 L -12.2989 32.66425 L -12.10443 32.66425 L -11.90997 32.66425 L -11.71548 32.66425 L -11.52101 32.66425 L -11.32652 32.66425 L -11.13206 32.66425 L -10.93759 32.66425 L -10.74312 32.66425 L -10.54865 32.66425 L -10.35419 32.66425 L -10.1597 32.66425 L -9.96524 32.66425 L -9.77077 32.66425 L -9.57628 32.66425 L -9.3818 32.66425 L -9.18733 32.66425 L -8.99286 32.66425 L -8.7984 32.66425 L -8.60391 32.66425 L -8.40945 32.66425 L -8.21498 32.66425 L -8.0205 32.66425 L -7.82602 32.66425 L -7.63155 32.66425 L -7.43707 32.66425 L -7.24261 32.66425 L -7.04813 32.66425 L -6.85367 32.66425 L -6.6592 32.66425 L -6.4647 32.66425 L -6.27025 32.66425 L -6.07576 32.66425 L -5.8813 32.66425 L -5.68683 32.66425 L -5.49234 32.66425 L -5.29788 32.66425 L -5.10341 32.66425 L -4.90892 32.66425 L -4.71446 32.66425 L -4.51999 32.66425 L -4.32552 32.66425 L -4.13104 32.66425 L -3.93657 32.66425 L -3.7421 32.66425 L -3.54764 32.66425 L -3.35315 32.66425 L -3.15868 32.66425 L -2.9642 32.66425 L -2.76973 32.66425 L -2.57526 32.66425 L -2.38078 32.66425 L -2.18631 32.66425 L -1.99185 32.66425 L -1.79736 32.66425 L -1.60289 32.66425 L -1.40842 32.66425 L -1.21394 32.66425 L -1.01947 32.66425 L -.825 32.66425 L -.63052 32.66425 L -.43607 32.66425 L -.24158 32.66425 L -.0471 32.66425 L .14735 32.66425 L .34183 32.66425 L .5363 32.66425 L .73077 32.66425 L .92525 32.66425 L 1.1197 32.66425 L 1.3142 32.66425 L 1.50865 32.66425 L 1.70313 32.66425 L 1.89761 32.66425 L 2.09207 32.66425 L 2.28654 32.66425 L 2.48103 32.66425 L 2.67549 32.66425 L 2.86998 32.66425 L 3.06444 32.66425 L 3.25891 32.66425 L 3.4534 32.66425 L 3.64786 32.66425 L 3.84233 32.66425 L 4.0368 32.66425 L 4.23128 32.66425 L 4.42577 32.66425 L 4.62022 32.66425 L 4.8147 32.66425 L 5.00916 32.66425 L 5.20364 32.66425 L 5.39812 32.66425 L 5.59259 32.66425 L 5.78706 32.66425 L 5.98154 32.66425 L 6.17601 32.66425 L 6.3705 32.66425 L 6.56496 32.66425 L 6.75943 32.66425 L 6.95389 32.66425 L 7.14838 32.66425 L 7.34285 32.66425 L 7.53732 32.66425 L 7.7318 32.66425 L 7.92625 32.66425 L 8.12074 32.66425 L 8.31523 32.66425 L 8.50967 32.66425 L 8.70416 32.66425 L 8.89862 32.66425 L 9.0931 32.66425 L 9.28758 32.66425 L 9.48204 32.66425 L 9.67653 32.66425 L 9.87099 32.66425 L 10.06546 32.66425 L 10.25996 32.66425 L 10.4544 32.66425 L 10.6489 32.66425 L 10.84335 32.66425 L 11.03783 32.66425 L 11.23233 32.66425 L 11.42677 32.66425 L 11.62125 32.66425 L 11.81572 32.66425 L 12.0102 32.66425 L 12.20468 32.66425 L 12.39914 32.66425 L 12.59363 32.66425 L 12.78809 32.66425 L 12.98257 32.66425 L 13.17705 32.66425 L 13.3715 32.66425 L 13.56598 32.66425 L 13.76044 32.66425 L 13.95493 32.66425 L 14.14941 32.66425 L 14.34387 32.66425 L 14.53836 32.66425 L 14.7328 32.66425 L 14.9273 32.66425 L 15.12178 32.66425 L 15.31622 32.66425 L 15.51073 32.66425 L 15.70517 32.66425 L 15.89964 32.66425 L 16.09415 32.66425 L 16.28859 32.66425 L 16.4831 32.66425 L 16.67754 32.66425 L 16.87202 32.66425 L 17.06651 32.66425 L 17.26097 32.66425 L 17.45544 32.66425 L 17.6499 32.66425 L 17.84439 32.66425 L 18.03888 32.66425 L 18.23332 32.66425 L 18.4278 32.66425 L 18.62227 32.66425 L 18.81676 32.66425 L 19.01123 32.66425 L 19.2057 32.66425 L 19.40018 32.66425 L 19.59464 32.66425 L 19.78912 32.66425 L 19.9836 32.66425 L 20.17805 32.66425 L 20.37254 32.66425 L 20.56699 32.66425 L 20.76147 32.66425 L 20.95596 32.66425 L 21.15044 32.66425 L 21.34491 32.66425 L 21.53937 32.66425 L 21.73386 32.66425 L 21.92833 32.66425 L 22.12279 32.66425 L 22.31728 32.66425 L 22.51172 32.66425 L 22.7062 32.66425 L 22.9007 32.66425 L 23.09514 32.66425 L 23.28964 32.66425 L 23.4841 32.66425 L 23.67857 32.66425 L 23.87306 32.66425 L 24.06752 32.66425 L 24.262 32.66425 L 24.45645 32.66425 L 24.65094 32.66425 L 24.84543 32.66425 L 25.03987 32.66425 L 25.23436 32.66425 L 25.42882 32.66425 L 25.6233 32.66425 L 25.8178 32.66425 L 26.01225 32.66425 L 26.20673 32.66425 L 26.4012 32.66425 L 26.59567 32.66425 L 26.79015 32.66425 L 26.98462 32.66425 L 27.1791 32.66425 L 27.37354 32.66425 L 27.56804 32.66425 L 27.76251 32.66425 L 27.95699 32.66425 L 28.15146 32.66425 L 28.34592 32.66425 L 28.5404 32.66425 L 28.73488 32.66425 L 28.92934 32.66425 L 29.12383 32.66425 L 29.31827 32.66425 L 29.51276 32.66425 L 29.70724 32.66425 L 29.9017 32.66425 L 30.09619 32.66425 L 30.29065 32.66425 L 30.48512 32.66425 L 30.67963 32.66425 L 30.87407 32.66425 L 31.06854 32.66425 L 31.26302 32.66425 L 31.45749 32.66425 L 31.65198 32.66425 L 31.84644 32.66425 L 32.04091 32.66425 L 32.23538 32.66425 L 32.42986 32.66425 L 32.62434 32.66425 L 32.8188 32.66425 L 33.01328 32.66425 L 33.20775 32.66425 L 33.40222 32.66425 L 33.5967 32.66425 L 33.79117 32.66425 L 33.98564 32.66425 L 34.1801 32.66425 L 34.37459 32.66425 L 34.56908 32.66425 L 34.76352 32.66425 L 34.95802 32.66425 L 35.15247 32.66425 L 35.34695 32.66425 L 35.54144 32.66425 L 35.73589 32.66425 L 35.93037 32.66425 L 36.12483 32.66425 L 36.3193 32.66425 L 36.51381 32.66425 L 36.70825 32.66425 L 36.90276 32.66425 L 37.0972 32.66425 L 37.29169 32.66425 L 37.48618 32.66425 L 37.68062 32.66425 L 37.87509 32.66425 L 38.06956 32.66425 L 38.26404 32.66425 L 38.45853 32.66425 L 38.65298 32.66425 L 38.84747 32.66425 L 39.04193 32.66425 L 39.23642 32.66425 L 39.4309 32.66425 L 39.62535 32.66425 L 39.81984 32.66425 L 40.0143 32.66425 L 40.20877 32.66425 L 40.40326 32.66425 L 40.59772 32.66425 L 40.7922 32.66425 L 40.98665 32.66425 L 41.18115 32.66425 L 41.37563 32.66425 L 41.57008 32.66425 L 41.76457 32.66425 L 41.95901 32.66425 L 42.15352 32.66425 L 42.34799 32.66425 L 42.54243 32.66425 L 42.73692 32.66425 L 42.93138 32.66425 L 43.12587 32.66425 L 43.32036 32.66425 L 43.51482 32.66425 L 43.7093 32.66425 L 43.90375 32.66425 L 44.09824 32.66425 L 44.29272 32.66425 L 44.48717 32.66425 L 44.68166 32.66425 L 44.87611 32.66425 L 45.07059 32.66425 L 45.26509 32.66425 L 45.45955 32.66425 L 45.65402 32.66425 L 45.8485 32.66425 L 46.04297 32.66425 L 46.23744 32.66425 L 46.43192 32.66425 L 46.62639 32.66425 L 46.82085 32.66425 L 47.01534 32.66425 L 47.20981 32.66425 L 47.40427 32.66425 L 47.59875 32.66425 L 47.79321 32.66425 L 47.9877 32.66425 L 48.18217 32.66425 L 48.37663 32.66425 L 48.57114 32.66425 L 48.76558 32.66425 L 48.96007 32.66425 L 49.15456 32.66425 L 49.349 32.66425 L 49.54349 32.66425 L 49.73793 32.66425 L 49.93242 32.66425 L 50.1269 32.66425 L 50.32137 32.66425 L 50.51587 32.66425 L 50.71031 32.66425 L 50.90479 32.66425 L 51.09929 32.66425 L 51.29373 32.66425 L 51.4882 32.66425 L 51.68268 32.66425 L 51.87715 32.66425 L 52.07164 32.66425 L 52.2661 32.66425 L 52.46057 32.66425 L 52.65504 32.66425 L 52.84953 32.66425 L 53.044 32.66425 L 53.23846 32.66425 L 53.43294 32.66425 L 53.62741 32.66425 L 53.82188 32.66425 L 54.01636 32.66425 L 54.21083 32.66425 L 54.4053 32.66425 L 54.59976 32.66425 L 54.79427 32.66425 L 54.98874 32.66425 L 55.18318 32.66425 L 55.37769 32.66425 L 55.57213 32.66425 L 55.76662 32.66425 L 55.9611 32.66425 L 56.15555 32.66425 L 56.35004 32.66425 L 56.5445 32.66425 L 56.73897 32.66425 L 56.93347 32.66425 L 57.12793 32.66425 L 57.32242 32.66425 L 57.51686 32.66425 L 57.71135 32.66425 L 57.90584 32.66425 L 58.10028 32.66425 L 58.29475 32.66425 L 58.48923 32.66425 L 58.6837 32.66425 L 58.8782 32.66425 L 59.07265 32.66425 L 59.26714 32.66425 L 59.4616 32.66425 L 59.65608 32.66425 L 59.85056 32.66425 L 60.04501 32.66425 L 60.2395 32.66425 L 60.43396 32.66425 L 60.62843 32.66425 L 60.82292 32.66425 L 61.01738 32.66425 L 61.21187 32.66425 L 61.40631 32.66425 L 61.60081 32.66425 L 61.79529 32.66425 L 61.98975 32.66425 L 62.18423 32.66425 L 62.37868 32.66425 L 62.57318 32.66425 L 62.76765 32.66425 L 62.9621 32.66425 L 63.1566 32.66425 L 63.35104 32.66425 L 63.54553 32.66425 L 63.74002 32.66425 L 63.93448 32.66425 L 64.12897 32.66425 L 64.32341 32.66425 L 64.5179 32.66425 L 64.71239 32.66425 L 64.90683 32.66425 L 65.10132 32.66425 L 65.29578 32.66425 L 65.49026 32.66425 L 65.68475 32.66425 L 65.87921 32.66425 L 66.07368 32.66425 L 66.26816 32.66425 L 66.46263 32.66425 L 66.6571 32.66425 L 66.85158 32.66425 L 67.04605 32.66425 L 67.24051 32.66425 L 67.435 32.66425 L 67.62947 32.66425 L 67.82394 32.66425 L 68.01842 32.66425 L 68.21288 32.66425 L 68.40736 32.66425 L 68.60185 32.66425 L 68.7963 32.66425 L 68.99078 32.66425 L 69.18523 32.66425 L 69.37973 32.66425 L 69.5742 32.66425 L 69.76866 32.66425 L 69.96315 32.66425 L 70.15761 32.66425 L 70.35208 32.66425 L 70.54659 32.66425 L 70.74103 32.66425 L 70.93552 32.66425 L 71.12997 32.66425 L 71.32445 32.66425 L 71.51894 32.66425 L 71.7134 32.66425 L 71.90787 32.66425 L 72.10234 32.66425 L 72.29681 32.66425 L 72.49132 32.66425 L 72.68576 32.66425 L 72.88023 32.66425 L 73.0747 32.66425 L 73.26918 32.66425 L 73.46365 32.66425 L 73.65813 32.66425 L 73.8526 32.66425 L 74.04704 32.66425 L 74.24155 32.66425 L 74.43602 32.66425 L 74.6305 32.66425 L 74.82498 32.66425 L 75.01942 32.66425 L 75.21391 32.66425 L 75.4084 32.66425 L 75.60284 32.66425 L 75.79733 32.66425 L 75.99179 32.66425 L 76.18628 32.66425 L 76.38075 32.66425 L 76.57521 32.66425 L 76.7697 32.66425 L 76.96416 32.66425 L 77.15865 32.66425 L 77.35313 32.66425 L 77.54758 32.66425 L 77.74208 32.66425 L 77.93652 32.66425 L 78.131 32.66425 L 78.32549 32.66425 L 78.51994 32.66425 L 78.71442 32.66425 L 78.90889 32.66425 L 79.10336 32.66425 L 79.29787 32.66425 L 79.49231 32.66425 L 79.6868 32.66425 L 79.88126 32.66425 L 80.07573 32.66425 L 80.27022 32.66425 L 80.46468 32.66425 L 80.65915 32.66425 L 80.8536 32.66425 L 81.0481 32.66425 L 81.24258 32.66425 L 81.43704 32.66425 L 81.63153 32.66425 L 81.82597 32.66425 L 82.02048 32.66425 L 82.21495 32.66425 L 82.4094 32.66425 L 82.60388 32.66425 L 82.79834 32.66425 L 82.99283 32.66425 L 83.18732 32.66425 L 83.38176 32.66425 L 83.57626 32.66425 L 83.7707 32.66425 L 83.9652 32.66425 L 84.15968 32.66425 L 84.35413 32.66425 L 84.54863 32.66425 L 84.74307 32.66425 L 84.93755 32.66425 L 85.13205 32.66425 L 85.32649 32.66425 L 85.52098 32.66425 L 85.71544 32.66425 L 85.90993 32.66425 L 86.10442 32.66425 L 86.29887 32.66425 L 86.49335 32.66425 L 86.6878 32.66425 L 86.8823 32.66425 L 87.07677 32.66425 L 87.27122 32.66425 L 87.46571 32.66425 L 87.66016 32.66425 L 87.85466 32.66425 L 88.04913 32.66425 L 88.2436 32.66425 L 88.43808 32.66425 L 88.63252 32.66425 L 88.82703 32.66425 L 89.0215 32.66425 L 89.21594 32.66425 L 89.41045 32.66425 L 89.60489 32.66425 L 89.7994 32.66425 L 89.99387 32.66425 L 90.18832 32.66425 L 90.38281 32.66425 L 90.57727 32.66425 L 90.77174 32.66425 L 90.96623 32.66425 L 91.16069 32.66425 L 91.35518 32.66425 L 91.54962 32.66425 L 91.74411 32.66425 L 91.9386 32.66425 L 92.13306 32.66425 L 92.32753 32.66425 L 92.522 32.66425 L 92.71648 32.66425 L 92.91098 32.66425 L 93.10542 32.66425 L 93.2999 32.66425 L 93.49435 32.66425 L 93.68884 32.66425 L 93.88332 32.66425 L 94.07777 32.66425 L 94.27226 32.66425 L 94.46672 32.66425 L 94.66121 32.66425 L 94.8557 32.66425 L 95.05016 32.66425 L 95.24463 32.66425 L 95.43909 32.66425 L 95.63358 32.66425 L 95.82805 32.66425 L 96.0225 32.66425 L 96.217 32.66425 L 96.41144 32.66425 L 96.60594 32.66425 L 96.80043 32.66425 L 96.99487 32.66425 L 97.18936 32.66425 L 97.38382 32.66425 L 97.5783 32.66425 L 97.77278 32.66425 L 97.96724 32.66425 L 98.16173 32.66425 L 98.35617 32.66425 L 98.55066 32.66425 L 98.74515 32.66425 L 98.9396 32.66425 L 99.1341 32.66425 L 99.32855 32.66425 L 99.52303 32.66425 L 99.71751 32.66425 L 99.91197 32.66425 L 100.10645 32.66425 L 100.30092 32.66425 L 100.49539 32.66425 L 100.68987 32.66425 L 100.88434 32.66425 L 101.07881 32.66425 L 101.27327 32.66425 L 101.46777 32.66425 L 101.66225 32.66425 L 101.8567 32.66425 L 102.0512 32.66425 L 102.24564 32.66425 L 102.44012 32.66425 L 102.63461 32.66425 L 102.82906 32.66425 L 103.02354 32.66425 L 103.218 32.66425 L 103.41249 32.66425 L 103.60698 32.66425 L 103.80142 32.66425 L 103.99593 32.66425 L 104.19037 32.66425 L 104.38484 32.66425 L 104.57935 32.66425 L 104.77379 32.66425 L 104.96828 32.66425 L 105.16273 32.66425 L 105.35721 32.66425 L 105.55171 32.66425 L 105.74615 32.66425 L 105.94064 32.66425 L 106.1351 32.66425 L 106.32959 32.66425 L 106.52406 32.66425 L 106.71852 32.66425 L 106.913 32.66425 L 107.10747 32.66425 L 107.30194 32.66425 L 107.49643 32.66425 L 107.69089 32.66425 L 107.88538 32.66425 L 108.07982 32.66425 L 108.27432 32.66425 L 108.4688 32.66425 L 108.66325 32.66425 L 108.85774 32.66425 L 109.05219 32.66425 L 109.24667 32.66425 L 109.44116 32.66425 L 109.6356 32.66425 L 109.83011 32.66425 L 110.02455 32.66425 L 110.21906 32.66425 L 110.41353 32.66425 L 110.60799 32.66425 L 110.80247 32.66425 L 110.99692 32.66425 L 111.1914 32.66425 L 111.3859 32.66425 L 111.58034 32.66425 L 111.77484 32.66425 L 111.96928 32.66425 L 112.16377 32.66425 L 112.35826 32.66425 L 112.55272 32.66425 L 112.7472 32.66425 L 112.94165 32.66425 L 113.13614 32.66425 L 113.33061 32.66425 L 113.52507 32.66425 L 113.71956 32.66425 L 113.91402 32.66425 L 114.1085 32.66425 L 114.30298 32.66425 L 114.49745 32.66425 L 114.69193 32.66425 L 114.88638 32.66425 L 115.08087 32.66425 L 115.27534 32.66425 L 115.46982 32.66425 L 115.66429 32.66425 L 115.85873 32.66425 L 116.05324 32.66425 L 116.24771 32.66425 L 116.44217 32.66425 L 116.63666 32.66425 L 116.83112 32.66425 L 117.0256 32.66425 L 117.22008 32.66425 L 117.41454 32.66425 L 117.60902 32.66425 L 117.80347 32.66425 L 117.99796 32.66425 L 118.19244 32.66425 L 118.38689 32.66425 L 118.58139 32.66425 L 118.77585 32.66425 L 118.97032 32.66425 L 119.16483 32.66425 L 119.35927 32.66425 L 119.55374 32.66425 L 119.74821 32.66425 L 119.94269 32.66425 L 120.13716 32.66425 L 120.33163 32.66425 L 120.52611 32.66425 L 120.72057 32.66425 L 120.91505 32.66425 L 121.10953 32.66425 L 121.304 32.66425 L 121.49849 32.66425 L 121.69293 32.66425 L 121.88742 32.66425 L 122.08191 32.66425 L 122.27637 32.66425 L 122.47084 32.66425 L 122.66528 32.66425 L 122.85979 32.66425 L 123.05426 32.66425 L 123.24872 32.66425 L 123.44322 32.66425 L 123.63766 32.66425 L 123.83215 32.66425 L 124.02664 32.66425 L 124.22108 32.66425 L 124.41557 32.66425 L 124.61003 32.66425 L 124.8045 32.66425 L 124.999 32.66425 L 125.19345 32.66425 L 125.38794 32.66425 L 125.5824 32.66425 L 125.77689 32.66425 L 125.97137 32.66425 L 126.16582 32.66425 L 126.36029 32.66425 L 126.55476 32.66425 L 126.74924 32.66425 L 126.94371 32.66425 L 127.13818 32.66425 L 127.33266 32.66425 L 127.52713 32.66425 L 127.7216 32.66425 L 127.91609 32.66425 L 128.11055 32.66425 L 128.30504 32.66425 L 128.49948 32.66425 L 128.69397 32.66425 L 128.88846 32.66425 L 129.08292 32.66425 L 129.27739 32.66425 L 129.47185 32.66425 L 129.66634 32.66425 L 129.86083 32.66425 L 130.05527 32.66425 L 130.24977 32.66425 L 130.44422 32.66425 L 130.63872 32.66425 L 130.83319 32.66425 L 131.02764 32.66425 L 131.22214 32.66425 L 131.41658 32.66425 L 131.61106 32.66425 L 131.80556 32.66425 L 132 32.66425 L 132.1945 32.66425 L 132.38895 32.66425 L 132.58344 32.66425 L 132.77793 32.66425 L 132.97237 32.66425 L 133.16686 32.66425 L 133.36132 32.66425 L 133.55579 32.66425 L 133.75028 32.66425 L 133.94474 32.66425 L 134.13922 32.66425 L 134.33368 32.66425 L 134.52817 32.66425 L 134.72264 32.66425 L 134.91712 32.66425 L 135.11159 32.66425 L 135.30603 32.66425 L 135.50054 32.66425 L 135.695 32.66425 L 135.88947 32.66425 L 136.08394 32.66425 L 136.2784 32.66425 L 136.4729 32.66425 L 136.66738 32.66425 L 136.86183 32.66425 L 137.05632 32.66425 L 137.25077 32.66425 L 137.44527 32.66425 L 137.63974 32.66425 L 137.83419 32.66425 L 138.02869 32.66425 L 138.22313 32.66425 L 138.41762 32.66425 L 138.6121 32.66425 L 138.80657 32.66425 L 139.00104 32.66425 L 139.19551 32.66425 L 139.38999 32.66425 L 139.58448 32.66425 L 139.77893 32.66425 L 139.9734 32.66425 L 140.16786 32.66425 L 140.36235 32.66425 L 140.55683 32.66425 L 140.7513 32.66425 L 140.94577 32.66425 L 141.14025 32.66425 L 141.33472 32.66425 L 141.5292 32.66425 L 141.72367 32.66425 L 141.91814 32.66425 L 142.11258 32.66425 L 142.30709 32.66425 L 142.50156 32.66425 L 142.69602 32.66425 L 142.8905 32.66425 L 143.08496 32.66425 L 143.27945 32.66425 L 143.47394 32.66425 L 143.66838 32.66425 L 143.86287 32.66425 L 144.05733 32.66425 L 144.25182 32.66425 L 144.44629 32.66425 L 144.64075 32.66425 L 144.83524 32.66425 L 145.02968 32.66425 L 145.22417 32.66425 L 145.41866 32.66425 L 145.61312 32.66425 L 145.80759 32.66425 L 146.00206 32.66425 L 146.19654 32.66425 L 146.39104 32.66425 L 146.58548 32.66425 L 146.77996 32.66425 L 146.97441 32.66425 L 147.1689 32.66425 L 147.36338 32.66425 L 147.55785 32.66425 L 147.75232 32.66425 L 147.9468 32.66425 L 148.14127 32.66425 L 148.33576 32.66425 L 148.53022 32.66425 L 148.72469 32.66425 L 148.91915 32.66425 L 149.11363 32.66425 L 149.3081 32.66425 L 149.50258 32.66425 L 149.69705 32.66425 L 149.89151 32.66425 L 150.086 32.66425 L 150.28049 32.66425 L 150.47493 32.66425 L 150.66944 32.66425 L 150.86388 32.66425 L 151.05837 32.66425 L 151.25284 32.66425 L 151.4473 32.66425 L 151.64179 32.66425 L 151.83625 32.66425 L 152.03072 32.66425 L 152.22522 32.66425 L 152.41967 32.66425 L 152.61415 32.66425 L 152.80861 32.66425 L 153.00308 32.66425 L 153.19759 32.66425 L 153.39203 32.66425 L 153.5865 32.66425 L 153.78098 32.66425 L 153.97545 32.66425 L 154.16994 32.66425 L 154.3644 32.66425 L 154.55889 32.66425 L 154.75334 32.66425 L 154.94783 32.66425 L 155.1423 32.66425 L 155.33676 32.66425 L 155.53125 32.66425 L 155.7257 32.66425 L 155.92018 32.66425 L 156.11467 32.66425 L 156.30913 32.66425 L 156.50362 32.66425 L 156.69806 32.66425 L 156.89257 32.66425 L 157.08704 32.66425 L 157.28148 32.66425 L 157.47599 32.66425 L 157.67043 32.66425 L 157.86492 32.66425 L 158.0594 32.66425 L 158.25385 32.66425 L 158.44835 32.66425 L 158.64279 32.66425 L 158.83728 32.66425 L 159.03177 32.66425 L 159.22623 32.66425 L 159.4207 32.66425 L 159.61516 32.66425 L 159.80965 32.66425 L 160.00414 32.66425 L 160.19858 32.66425 L 160.39305 32.66425 L 160.58753 32.66425 L 160.78202 32.66425 L 160.97649 32.66425 L 161.17096 32.66425 L 161.36544 32.66425 L 161.55989 32.66425 L 161.75438 32.66425 L 161.94886 32.66425 L 162.14331 32.66425 L 162.3378 32.66425 L 162.53224 32.66425 L 162.72673 32.66425 L 162.92122 32.66425 L 163.11569 32.66425 L 163.31017 32.66425 L 163.50463 32.66425 L 163.69911 32.66425 L 163.89359 32.66425 L 164.08805 32.66425 L 164.28253 32.66425 L 164.47698 32.66425 L 164.67148 32.66425 L 164.86595 32.66425 L 165.0604 32.66425 L 165.2549 32.66425 L 165.44936 32.66425 L 165.64383 32.66425 L 165.83834 32.66425 L 166.03278 32.66425 L 166.22725 32.66425 L 166.4217 32.66425 L 166.6162 32.66425 L 166.81069 32.66425 L 167.00513 32.66425 L 167.19962 32.66425 L 167.39409 32.66425 L 167.58856 32.66425 L 167.78305 32.66425 L 167.97751 32.66425 L 168.17198 32.66425 L 168.36646 32.66425 L 168.56093 32.66425 L 168.7554 32.66425 L 168.94988 32.66425 L 169.14435 32.66425 L 169.33879 32.66425 L 169.5333 32.66425 L 169.72777 32.66425 L 169.92224 32.66425 L 170.11672 32.66425 L 170.31118 32.66425 L 170.50566 32.66425 L 170.70014 32.66425 L 170.89459 32.66425 L 171.08908 32.66425 L 171.28353 32.66425 L 171.47803 32.66425 L 171.6725 32.66425 L 171.86696 32.66425 L 172.06145 32.66425 L 172.2559 32.66425 L 172.45038 32.66425 L 172.64488 32.66425 L 172.83933 32.66425 L 173.0338 32.66425 L 173.22827 32.66425 L 173.42275 32.66425 L 173.61724 32.66425 L 173.81169 32.66425 L 174.00617 32.66425 L 174.20064 32.66425 L 174.39511 32.66425 L 174.5896 32.66425 L 174.78406 32.66425 L 174.97855 32.66425 L 175.173 32.66425 L 175.36748 32.66425 L 175.56197 32.66425 L 175.75643 32.66425 L 175.9509 32.66425 L 176.14536 32.66425 L 176.33985 32.66425 L 176.53433 32.66425 L 176.72879 32.66425 L 176.92328 32.66425 L 177.11772 32.66425 L 177.31221 32.66425 L 177.5067 32.66425 L 177.70114 32.66425 L 177.89563 32.66425 L 178.09009 32.66425 "/>
<symbol id="font_2_1">
<path d="M .205 .64000007 C .205 .66400006 .205 .666 .18200003 .666 C .120000008 .60200008 .032000007 .60200008 0 .60200008 L 0 .57100006 C .020000004 .57100006 .07900001 .57100006 .13100001 .597 L .13100001 .079 C .13100001 .043 .128 .031000002 .038000004 .031000002 L .0060000049 .031000002 L .0060000049 0 C .04100001 .003 .128 .003 .168 .003 C .20800002 .003 .29500003 .003 .33000005 0 L .33000005 .031000002 L .29800005 .031000002 C .20800002 .031000002 .205 .042000005 .205 .079 L .205 .64000007 Z "/>
</symbol>
<use xlink:href="#font_2_1" transform="matrix(27.673888,0,0,-27.673888,122.79909,296.0611)"/>
<use xlink:href="#font_2_1" transform="matrix(27.673888,0,0,-27.673888,320.66853,424.14997)"/>
<path transform="matrix(2.7777777,0,0,-2.7777777,10.330556,484.6166)" stroke-width=".3985" stroke-linecap="butt" stroke-dasharray="2.98883,2.98883" stroke-miterlimit="10" stroke-linejoin="miter" fill="none" stroke="#000000" d="M 113.32642 32.66425 L 113.32642 416.93986 "/>
<path transform="matrix(2.7777777,0,0,-2.7777777,10.330556,484.6166)" stroke-width=".3985" stroke-linecap="butt" stroke-dasharray="2.98883,2.98883" stroke-miterlimit="10" stroke-linejoin="miter" fill="none" stroke="#000000" d="M 48.56902 71.0918 L 178.0838 71.0918 "/>
</g>
<symbol id="font_3_1">
<path d="M .305 .31300003 C .311 .33900003 .334 .43100003 .404 .43100003 C .409 .43100003 .433 .43100003 .454 .418 C .426 .41300003 .40600003 .388 .40600003 .36400003 C .40600003 .34800003 .417 .32900004 .444 .32900004 C .46600003 .32900004 .498 .34700004 .498 .38700003 C .498 .43900005 .439 .45300005 .405 .45300005 C .347 .45300005 .312 .40000005 .3 .37700004 C .275 .44300003 .221 .45300005 .19200002 .45300005 C .08800001 .45300005 .031000002 .32400004 .031000002 .29900003 C .031000002 .28900004 .041 .28900004 .043000007 .28900004 C .051000008 .28900004 .054000006 .291 .056 .3 C .09 .40600003 .156 .43100003 .19000001 .43100003 C .209 .43100003 .244 .42200003 .244 .36400003 C .244 .33300004 .22700002 .26600004 .19000001 .126 C .17400001 .064 .13900002 .022000002 .095000009 .022000002 C .08900001 .022000002 .06600001 .022000002 .045 .035 C .07000001 .040000004 .09200001 .061 .09200001 .089 C .09200001 .116000007 .07000001 .124000009 .055000009 .124000009 C .025 .124000009 0 .098000008 0 .06600001 C 0 .020000002 .050000006 0 .094000007 0 C .16000001 0 .19600001 .07000001 .19900002 .076000008 C .21100001 .039 .24700003 0 .307 0 C .41 0 .467 .12900001 .467 .15400002 C .467 .16400002 .458 .16400002 .455 .16400002 C .446 .16400002 .444 .16000001 .442 .15300001 C .409 .046 .341 .022000002 .30900003 .022000002 C .27 .022000002 .254 .054 .254 .08800001 C .254 .11000001 .26 .13200002 .271 .17600002 L .305 .31300003 Z "/>
</symbol>
<use xlink:href="#font_3_1" transform="matrix(27.673888,0,0,-27.673888,560.5553,415.88218)"/>
<symbol id="font_3_2">
<path d="M .45700003 .586 C .461 .6 .461 .602 .461 .609 C .461 .62700006 .447 .63600006 .432 .63600006 C .42200003 .63600006 .40600003 .63 .397 .615 C .395 .61 .387 .579 .38300003 .561 C .37600003 .535 .36900003 .508 .363 .48100005 L .318 .301 C .314 .286 .271 .21600002 .20500002 .21600002 C .15400002 .21600002 .143 .26000003 .143 .29700003 C .143 .34300003 .16000001 .40500004 .194 .49300004 C .21000001 .53400006 .21400002 .545 .21400002 .56500008 C .21400002 .61 .18200001 .6470001 .13200002 .6470001 C .037 .6470001 0 .50200006 0 .49300004 C 0 .48300005 .01 .48300005 .012 .48300005 C .022000002 .48300005 .023 .485 .028000003 .50100007 C .055000009 .595 .095000009 .625 .12900001 .625 C .13700001 .625 .15400002 .625 .15400002 .59300008 C .15400002 .568 .14400001 .54200008 .13700001 .523 C .097 .41700004 .079 .36 .079 .31300003 C .079 .224 .142 .194 .201 .194 C .24000003 .194 .274 .21100001 .30200003 .23900002 C .289 .187 .277 .13800001 .237 .08500001 C .21100001 .051 .17300001 .022 .127 .022 C .113000009 .022 .068 .025000006 .051000008 .06400001 C .067 .06400001 .080000009 .06400001 .094000007 .076000008 C .104 .08500001 .11400001 .098000008 .11400001 .117000009 C .11400001 .148 .087000008 .15200001 .07700001 .15200001 C .054000006 .15200001 .021 .136 .021 .087000008 C .021 .037 .065000008 0 .127 0 C .23 0 .333 .091000009 .361 .20400001 L .45700003 .586 Z "/>
</symbol>
<use xlink:href="#font_3_2" transform="matrix(27.673888,0,0,-27.673888,121.7081,26.812003)"/>
</g>
</svg>
