<?xml version="1.0" encoding="UTF-8" standalone="no"?>
<!DOCTYPE svg PUBLIC "-//W3C//DTD SVG 1.1//EN" "http://www.w3.org/Graphics/SVG/1.1/DTD/svg11.dtd">
<svg xmlns="http://www.w3.org/2000/svg" xmlns:xlink="http://www.w3.org/1999/xlink" version="1.1" width="584.8833pt" height="485.85557pt" viewBox="0 0 584.8833 485.85557">
<g enable-background="new">
<path transform="matrix(2.7777777,0,0,-2.7777777,10.330556,484.74723)" stroke-width=".79701" stroke-linecap="butt" stroke-miterlimit="10" stroke-linejoin="miter" fill="none" stroke="#000000" d="M 0 28.39497 L 191.68299 28.39497 "/>
<path transform="matrix(2.7777777,0,0,-2.7777777,542.78317,405.87229)" d="M 2.59026 0 L -1.55415 2.0722 L 0 0 L -1.55415 -2.0722 "/>
<path transform="matrix(2.7777777,0,0,-2.7777777,10.330556,484.74723)" stroke-width=".79701" stroke-linecap="butt" stroke-miterlimit="10" stroke-linejoin="miter" fill="none" stroke="#000000" d="M 39.31778 0 L 39.31778 158.80986 "/>
<path transform="matrix(0,-2.7777222,-2.7777222,-0,119.54661,43.608728)" d="M 2.59026 0 L -1.55415 2.0722 L 0 0 L -1.55415 -2.0722 "/>
<clipPath id="cp0">
<path transform="matrix(2.7777777,0,0,-2.7777777,10.330556,484.74723)" d="M 0 0 L 194.27321 0 L 194.27321 161.40009 L 0 161.40009 Z "/>
</clipPath>
<g clip-path="url(#cp0)">
<path transform="matrix(2.7777777,0,0,-2.7777777,10.330556,484.74723)" d="M 39.31776 147.94933 L 39.36287 147.9494 L 39.54808 147.94869 L 39.73326 147.94702 L 39.91849 147.94438 L 40.10367 147.9408 L 40.28888 147.93625 L 40.47409 147.93076 L 40.65929 147.92429 L 40.84448 147.91687 L 41.02966 147.9085 L 41.21487 147.89914 L 41.40009 147.88886 L 41.58528 147.87761 L 41.77048 147.8654 L 41.95567 147.85222 L 42.14088 147.83809 L 42.3261 147.823 L 42.51128 147.80696 L 42.6965 147.78995 L 42.88167 147.77199 L 43.06688 147.75307 L 43.2521 147.73319 L 43.43727 147.71236 L 43.6225 147.69055 L 43.80766 147.66782 L 43.99289 147.6441 L 44.17812 147.61943 L 44.36328 147.5938 L 44.5485 147.56722 L 44.73369 147.53966 L 44.91888 147.51116 L 45.1041 147.48169 L 45.28929 147.45128 L 45.47449 147.4199 L 45.65968 147.38758 L 45.84491 147.35428 L 46.0301 147.32 L 46.2153 147.2848 L 46.4005 147.24864 L 46.5857 147.21152 L 46.7709 147.17342 L 46.9561 147.13439 L 47.1413 147.09438 L 47.3265 147.0534 L 47.51169 147.0115 L 47.6969 146.96862 L 47.88213 146.92478 L 48.06729 146.87999 L 48.25252 146.83423 L 48.4377 146.78752 L 48.62291 146.73986 L 48.80812 146.69123 L 48.99329 146.64163 L 49.17851 146.5911 L 49.3637 146.5396 L 49.5489 146.48714 L 49.73412 146.4337 L 49.91931 146.37934 L 50.1045 146.32399 L 50.2897 146.26772 L 50.47491 146.21045 L 50.66013 146.15224 L 50.8453 146.09308 L 51.03053 146.03295 L 51.2157 145.97187 L 51.40091 145.9098 L 51.58612 145.84682 L 51.7713 145.78287 L 51.95653 145.71793 L 52.14171 145.65207 L 52.32692 145.58522 L 52.51213 145.51743 L 52.69731 145.44867 L 52.88252 145.37895 L 53.06772 145.3083 L 53.25291 145.23667 L 53.43813 145.16408 L 53.62332 145.09055 L 53.80853 145.01604 L 53.99371 144.94058 L 54.17892 144.86417 L 54.36414 144.78679 L 54.54933 144.70845 L 54.73453 144.62915 L 54.91972 144.54892 L 55.10493 144.4677 L 55.29013 144.38553 L 55.47533 144.3024 L 55.66054 144.21833 L 55.84572 144.13329 L 56.03093 144.04727 L 56.21614 143.96031 L 56.40132 143.87239 L 56.58655 143.78351 L 56.77171 143.69368 L 56.95694 143.60289 L 57.14215 143.51114 L 57.32732 143.41844 L 57.51254 143.32477 L 57.69772 143.23015 L 57.88293 143.13455 L 58.06816 143.03801 L 58.25334 142.94052 L 58.43854 142.84204 L 58.62373 142.74263 L 58.80893 142.64226 L 58.99416 142.54093 L 59.17934 142.43863 L 59.36453 142.33538 L 59.54973 142.23117 L 59.73495 142.12599 L 59.92015 142.01987 L 60.10535 141.91278 L 60.29056 141.80475 L 60.47574 141.69577 L 60.66095 141.58579 L 60.84616 141.47487 L 61.03134 141.36299 L 61.21655 141.25017 L 61.40173 141.13639 L 61.58694 141.02162 L 61.77217 140.9059 L 61.95734 140.78926 L 62.14256 140.67162 L 62.32774 140.55304 L 62.51295 140.4335 L 62.69817 140.31299 L 62.88336 140.19155 L 63.06856 140.0691 L 63.25374 139.94576 L 63.43896 139.82141 L 63.62416 139.6961 L 63.80936 139.56987 L 63.99455 139.44266 L 64.17975 139.3145 L 64.36496 139.18537 L 64.55017 139.05527 L 64.73535 138.92424 L 64.92058 138.79225 L 65.10574 138.65929 L 65.29095 138.52538 L 65.47618 138.39049 L 65.66135 138.25467 L 65.84657 138.11788 L 66.03177 137.98014 L 66.21696 137.84142 L 66.40218 137.70174 L 66.58736 137.56113 L 66.77257 137.41954 L 66.95776 137.27701 L 67.14296 137.1335 L 67.32819 136.98903 L 67.51337 136.84363 L 67.69858 136.69725 L 67.88376 136.54993 L 68.06898 136.40163 L 68.25418 136.25238 L 68.43938 136.10216 L 68.62459 135.95099 L 68.80977 135.79889 L 68.99498 135.64579 L 69.18018 135.49175 L 69.36537 135.33676 L 69.55058 135.18079 L 69.73576 135.0239 L 69.92097 134.86602 L 70.1062 134.70717 L 70.29137 134.5474 L 70.4766 134.38665 L 70.66177 134.22493 L 70.84698 134.06227 L 71.0322 133.89862 L 71.21738 133.73406 L 71.40259 133.56851 L 71.58777 133.40204 L 71.77298 133.23458 L 71.9582 133.06613 L 72.14339 132.89679 L 72.32858 132.72644 L 72.51378 132.55516 L 72.69899 132.38289 L 72.8842 132.20969 L 73.06938 132.03553 L 73.2546 131.8604 L 73.43977 131.68433 L 73.625 131.5073 L 73.81021 131.32927 L 73.99539 131.15033 L 74.1806 130.97042 L 74.36578 130.78957 L 74.551 130.60771 L 74.7362 130.42491 L 74.92139 130.24118 L 75.1066 130.05646 L 75.2918 129.87082 L 75.47699 129.68418 L 75.66222 129.49658 L 75.8474 129.30806 L 76.03261 129.11856 L 76.21779 128.92812 L 76.403 128.7367 L 76.58821 128.54431 L 76.7734 128.351 L 76.9586 128.15668 L 77.14378 127.96146 L 77.32901 127.76524 L 77.5142 127.56807 L 77.6994 127.36996 L 77.88461 127.17088 L 78.0698 126.97086 L 78.255 126.76984 L 78.44023 126.56787 L 78.6254 126.36497 L 78.81062 126.16109 L 78.99579 125.95627 L 79.181 125.75049 L 79.36623 125.54372 L 79.55139 125.33603 L 79.73662 125.12735 L 79.92181 124.91776 L 80.10701 124.70715 L 80.29222 124.4956 L 80.47742 124.28313 L 80.66261 124.06966 L 80.84781 123.85527 L 81.03302 123.6399 L 81.21822 123.42355 L 81.40341 123.20627 L 81.58862 122.988 L 81.7738 122.76883 L 81.95903 122.54865 L 82.14423 122.32751 L 82.32942 122.10544 L 82.51463 121.8824 L 82.69981 121.65842 L 82.88503 121.43344 L 83.07024 121.20752 L 83.25542 120.98067 L 83.44063 120.75284 L 83.62582 120.52406 L 83.81102 120.29431 L 83.99625 120.06358 L 84.18143 119.83194 L 84.36664 119.5993 L 84.55182 119.36574 L 84.73703 119.1312 L 84.92224 118.89569 L 85.10742 118.65926 L 85.29263 118.42183 L 85.47781 118.18347 L 85.66304 117.94415 L 85.84825 117.70384 L 86.03343 117.4626 L 86.21866 117.22038 L 86.40382 116.97725 L 86.58904 116.73312 L 86.77425 116.48802 L 86.95943 116.24197 L 87.14464 115.99498 L 87.32982 115.74702 L 87.51505 115.49815 L 87.70026 115.24828 L 87.88544 114.99742 L 88.07065 114.74564 L 88.25584 114.49289 L 88.44104 114.23918 L 88.62625 113.98451 L 88.81145 113.7289 L 88.99664 113.4723 L 89.18184 113.21477 L 89.36703 112.95627 L 89.55226 112.69682 L 89.73744 112.4364 L 89.92265 112.17505 L 90.10783 111.9127 L 90.29306 111.64941 L 90.47826 111.38518 L 90.66345 111.11998 L 90.84866 110.85382 L 91.03383 110.5867 L 91.21906 110.31862 L 91.40427 110.04959 L 91.58945 109.7796 L 91.77466 109.50867 L 91.95984 109.23671 L 92.14507 108.96384 L 92.33028 108.69002 L 92.51544 108.41524 L 92.70067 108.13951 L 92.88585 107.86278 L 93.07104 107.58511 L 93.25627 107.3065 L 93.44145 107.02693 L 93.62666 106.74637 L 93.81186 106.46489 L 93.99707 106.18245 L 94.18228 105.89905 L 94.36746 105.61464 L 94.55266 105.32933 L 94.73785 105.04306 L 94.92307 104.7558 L 95.10828 104.46759 L 95.29346 104.1784 L 95.47868 103.8883 L 95.66385 103.59724 L 95.84908 103.30519 L 96.03429 103.0122 L 96.21947 102.71823 L 96.40468 102.42334 L 96.58986 102.12744 L 96.77507 101.83064 L 96.96028 101.53282 L 97.14546 101.2341 L 97.33067 100.93437 L 97.51587 100.63374 L 97.70107 100.3321 L 97.88629 100.02954 L 98.07149 99.72598 L 98.25668 99.42152 L 98.44186 99.11606 L 98.62709 98.80968 L 98.81229 98.50227 L 98.99747 98.19394 L 99.18268 97.88467 L 99.36786 97.57442 L 99.55309 97.26321 L 99.7383 96.95107 L 99.92348 96.63794 L 100.1087 96.32385 L 100.29387 96.00894 L 100.47908 95.69284 L 100.6643 95.37587 L 100.84947 95.05795 L 101.03468 94.73912 L 101.21988 94.41942 L 101.40509 94.09848 L 101.5903 93.77672 L 101.77548 93.45403 L 101.9607 93.1304 L 102.14589 92.80577 L 102.33109 92.48018 L 102.5163 92.15364 L 102.70149 91.82614 L 102.88669 91.4977 L 103.07188 91.16826 L 103.2571 90.83789 L 103.4423 90.5066 L 103.62749 90.17442 L 103.81271 89.84108 L 103.99788 89.50696 L 104.1831 89.1717 L 104.3683 88.8356 L 104.5535 88.49866 L 104.73871 88.16048 L 104.92387 87.82158 L 105.1091 87.48154 L 105.29431 87.14064 L 105.47949 86.79877 L 105.6647 86.45589 L 105.8499 86.11226 L 106.03511 85.76738 L 106.22032 85.42169 L 106.4055 85.07516 L 106.59071 84.72742 L 106.7759 84.37898 L 106.9611 84.02942 L 107.14632 83.67879 L 107.33151 83.32748 L 107.51671 82.97495 L 107.7019 82.62172 L 107.88712 82.26736 L 108.07233 81.91194 L 108.2575 81.55586 L 108.44272 81.19853 L 108.6279 80.84048 L 108.81311 80.48123 L 108.99834 80.12117 L 109.1835 79.76028 L 109.36873 79.39813 L 109.5539 79.03532 L 109.73912 78.67143 L 109.92433 78.3064 L 110.10951 77.94073 L 110.29472 77.57396 L 110.47992 77.20619 L 110.66512 76.83737 L 110.85033 76.4677 L 111.03552 76.09721 L 111.22072 75.72548 L 111.40591 75.35312 L 111.59113 74.9796 L 111.77634 74.60503 L 111.96153 74.22974 L 112.14673 73.8534 L 112.33191 73.47604 L 112.51714 73.09778 L 112.70233 72.71838 L 112.88753 72.33835 L 113.07274 71.95717 L 113.2579 71.57507 L 113.44313 71.19199 L 113.62834 70.8078 L 113.81352 70.42297 L 113.99875 70.03687 L 114.18393 69.65012 L 114.36913 69.26224 L 114.55435 68.87328 L 114.73952 68.48364 L 114.92474 68.0929 L 115.10992 67.70119 L 115.29514 67.30852 L 115.48035 66.91492 L 115.66554 66.52034 L 115.85074 66.1248 L 116.03593 65.72829 L 116.22115 65.33087 L 116.40634 64.93246 L 116.59154 64.5331 L 116.77673 64.13275 L 116.96193 63.73146 L 117.14714 63.32921 L 117.33235 62.92587 L 117.51753 62.52188 L 117.70276 62.11676 L 117.88792 61.7107 L 118.07315 61.30367 L 118.25836 60.89565 L 118.44354 60.48671 L 118.62875 60.0768 L 118.81395 59.66592 L 118.99915 59.25409 L 119.18436 58.84132 L 119.36954 58.42758 L 119.55475 58.01286 L 119.73994 57.59721 L 119.92516 57.1806 L 120.11037 56.76303 L 120.29555 56.3445 L 120.48076 55.92502 L 120.66594 55.50458 L 120.85117 55.08316 L 121.03636 54.6608 L 121.22156 54.23749 L 121.40677 53.8132 L 121.59195 53.38797 L 121.77716 52.96175 L 121.96237 52.53459 L 122.14755 52.10648 L 122.33276 51.67741 L 122.51794 51.24739 L 122.70316 50.81636 L 122.88838 50.38443 L 123.07355 49.95154 L 123.25877 49.51768 L 123.44395 49.08282 L 123.62917 48.64705 L 123.81438 48.21033 L 123.99957 47.77263 L 124.18477 47.33395 L 124.36996 46.89436 L 124.55516 46.45375 L 124.74037 46.01224 L 124.92557 45.56976 L 125.11076 45.1263 L 125.29596 44.68188 L 125.48117 44.23654 L 125.66638 43.7902 L 125.85158 43.34293 L 126.03679 42.89467 L 126.22195 42.4455 L 126.40718 41.99532 L 126.59239 41.54422 L 126.77757 41.09213 L 126.96278 40.63911 L 127.14795 40.1851 L 127.33318 39.73018 L 127.51839 39.27426 L 127.70357 38.81741 L 127.8888 38.35957 L 128.07398 37.90082 L 128.25917 37.44107 L 128.4444 36.98035 L 128.62958 36.51872 L 128.81479 36.05609 L 128.99997 35.59248 L 129.1852 35.12799 L 129.37039 34.66249 L 129.55559 34.19601 L 129.74079 33.72865 L 129.92598 33.26028 L 130.11119 32.79094 L 130.29639 32.3207 L 130.48159 31.84944 L 130.6668 31.37723 L 130.85198 30.90407 L 131.03719 30.43 L 131.22241 29.95491 L 131.40758 29.47887 L 131.5928 29.00188 L 131.77799 28.52393 L 131.82788 28.39487 L 131.82788 28.39497 L 131.6935 28.39497 L 131.55458 28.39497 L 131.41568 28.39497 L 131.27677 28.39497 L 131.13785 28.39497 L 130.99895 28.39497 L 130.86003 28.39497 L 130.72113 28.39497 L 130.58222 28.39497 L 130.4433 28.39497 L 130.3044 28.39497 L 130.1655 28.39497 L 130.0266 28.39497 L 129.88768 28.39497 L 129.74877 28.39497 L 129.60988 28.39497 L 129.47097 28.39497 L 129.33206 28.39497 L 129.19315 28.39497 L 129.05423 28.39497 L 128.91533 28.39497 L 128.77642 28.39497 L 128.63751 28.39497 L 128.4986 28.39497 L 128.35968 28.39497 L 128.22078 28.39497 L 128.08187 28.39497 L 127.94298 28.39497 L 127.80405 28.39497 L 127.66513 28.39497 L 127.52625 28.39497 L 127.38733 28.39497 L 127.24843 28.39497 L 127.10951 28.39497 L 126.9706 28.39497 L 126.8317 28.39497 L 126.69278 28.39497 L 126.55388 28.39497 L 126.41496 28.39497 L 126.27605 28.39497 L 126.13715 28.39497 L 125.99823 28.39497 L 125.85934 28.39497 L 125.72043 28.39497 L 125.5815 28.39497 L 125.44261 28.39497 L 125.3037 28.39497 L 125.1648 28.39497 L 125.02588 28.39497 L 124.88696 28.39497 L 124.74806 28.39497 L 124.60915 28.39497 L 124.47025 28.39497 L 124.33133 28.39497 L 124.19241 28.39497 L 124.05353 28.39497 L 123.9146 28.39497 L 123.77571 28.39497 L 123.6368 28.39497 L 123.49786 28.39497 L 123.35898 28.39497 L 123.22006 28.39497 L 123.08116 28.39497 L 122.94225 28.39497 L 122.80334 28.39497 L 122.66444 28.39497 L 122.52553 28.39497 L 122.38663 28.39497 L 122.24771 28.39497 L 122.1088 28.39497 L 121.9699 28.39497 L 121.831 28.39497 L 121.6921 28.39497 L 121.55318 28.39497 L 121.41426 28.39497 L 121.27536 28.39497 L 121.13644 28.39497 L 120.99754 28.39497 L 120.85863 28.39497 L 120.71971 28.39497 L 120.58081 28.39497 L 120.4419 28.39497 L 120.303 28.39497 L 120.16408 28.39497 L 120.02516 28.39497 L 119.88626 28.39497 L 119.74734 28.39497 L 119.60844 28.39497 L 119.46953 28.39497 L 119.33063 28.39497 L 119.19173 28.39497 L 119.05281 28.39497 L 118.91391 28.39497 L 118.775 28.39497 L 118.63608 28.39497 L 118.49718 28.39497 L 118.35826 28.39497 L 118.21936 28.39497 L 118.08044 28.39497 L 117.94153 28.39497 L 117.80263 28.39497 L 117.66371 28.39497 L 117.52483 28.39497 L 117.3859 28.39497 L 117.24698 28.39497 L 117.1081 28.39497 L 116.96916 28.39497 L 116.83028 28.39497 L 116.69136 28.39497 L 116.55244 28.39497 L 116.41354 28.39497 L 116.27463 28.39497 L 116.13574 28.39497 L 115.99683 28.39497 L 115.85791 28.39497 L 115.71902 28.39497 L 115.5801 28.39497 L 115.44121 28.39497 L 115.30229 28.39497 L 115.16336 28.39497 L 115.02448 28.39497 L 114.88556 28.39497 L 114.74666 28.39497 L 114.60774 28.39497 L 114.46883 28.39497 L 114.32993 28.39497 L 114.19101 28.39497 L 114.05211 28.39497 L 113.9132 28.39497 L 113.77428 28.39497 L 113.63539 28.39497 L 113.49646 28.39497 L 113.35757 28.39497 L 113.21866 28.39497 L 113.07973 28.39497 L 112.94084 28.39497 L 112.80193 28.39497 L 112.66302 28.39497 L 112.52411 28.39497 L 112.3852 28.39497 L 112.24629 28.39497 L 112.10738 28.39497 L 111.96848 28.39497 L 111.82956 28.39497 L 111.69064 28.39497 L 111.55174 28.39497 L 111.41283 28.39497 L 111.27393 28.39497 L 111.13503 28.39497 L 110.99611 28.39497 L 110.85721 28.39497 L 110.71829 28.39497 L 110.57939 28.39497 L 110.44048 28.39497 L 110.30156 28.39497 L 110.16266 28.39497 L 110.02374 28.39497 L 109.88484 28.39497 L 109.74593 28.39497 L 109.60701 28.39497 L 109.46811 28.39497 L 109.3292 28.39497 L 109.1903 28.39497 L 109.05139 28.39497 L 108.91248 28.39497 L 108.77357 28.39497 L 108.63467 28.39497 L 108.49577 28.39497 L 108.35686 28.39497 L 108.21794 28.39497 L 108.07904 28.39497 L 107.94012 28.39497 L 107.80122 28.39497 L 107.66231 28.39497 L 107.52339 28.39497 L 107.38449 28.39497 L 107.24557 28.39497 L 107.10669 28.39497 L 106.96776 28.39497 L 106.82884 28.39497 L 106.68996 28.39497 L 106.55103 28.39497 L 106.41214 28.39497 L 106.27322 28.39497 L 106.13431 28.39497 L 105.9954 28.39497 L 105.85649 28.39497 L 105.71759 28.39497 L 105.57867 28.39497 L 105.43976 28.39497 L 105.30087 28.39497 L 105.16194 28.39497 L 105.02306 28.39497 L 104.88414 28.39497 L 104.74521 28.39497 L 104.60632 28.39497 L 104.4674 28.39497 L 104.3285 28.39497 L 104.18959 28.39497 L 104.05067 28.39497 L 103.91177 28.39497 L 103.77286 28.39497 L 103.63396 28.39497 L 103.49504 28.39497 L 103.35612 28.39497 L 103.21722 28.39497 L 103.07831 28.39497 L 102.93942 28.39497 L 102.8005 28.39497 L 102.66158 28.39497 L 102.52269 28.39497 L 102.38377 28.39497 L 102.24489 28.39497 L 102.10597 28.39497 L 101.96706 28.39497 L 101.82816 28.39497 L 101.68924 28.39497 L 101.55034 28.39497 L 101.41142 28.39497 L 101.2725 28.39497 L 101.1336 28.39497 L 100.99469 28.39497 L 100.85579 28.39497 L 100.71687 28.39497 L 100.57797 28.39497 L 100.43907 28.39497 L 100.30016 28.39497 L 100.16125 28.39497 L 100.02234 28.39497 L 99.88342 28.39497 L 99.74452 28.39497 L 99.6056 28.39497 L 99.4667 28.39497 L 99.32779 28.39497 L 99.18887 28.39497 L 99.04997 28.39497 L 98.91106 28.39497 L 98.77217 28.39497 L 98.63324 28.39497 L 98.49432 28.39497 L 98.35544 28.39497 L 98.2165 28.39497 L 98.07762 28.39497 L 97.9387 28.39497 L 97.79979 28.39497 L 97.66089 28.39497 L 97.52197 28.39497 L 97.38307 28.39497 L 97.24416 28.39497 L 97.10524 28.39497 L 96.96634 28.39497 L 96.82742 28.39497 L 96.68854 28.39497 L 96.5496 28.39497 L 96.41069 28.39497 L 96.2718 28.39497 L 96.13287 28.39497 L 95.99399 28.39497 L 95.85507 28.39497 L 95.71614 28.39497 L 95.57726 28.39497 L 95.43835 28.39497 L 95.29945 28.39497 L 95.16054 28.39497 L 95.02162 28.39497 L 94.88272 28.39497 L 94.7438 28.39497 L 94.60492 28.39497 L 94.466 28.39497 L 94.32707 28.39497 L 94.18819 28.39497 L 94.04927 28.39497 L 93.91037 28.39497 L 93.77145 28.39497 L 93.63254 28.39497 L 93.49364 28.39497 L 93.35472 28.39497 L 93.21582 28.39497 L 93.0769 28.39497 L 92.93799 28.39497 L 92.79909 28.39497 L 92.66017 28.39497 L 92.52127 28.39497 L 92.38237 28.39497 L 92.24344 28.39497 L 92.10455 28.39497 L 91.96564 28.39497 L 91.82674 28.39497 L 91.68782 28.39497 L 91.5489 28.39497 L 91.41 28.39497 L 91.27109 28.39497 L 91.13219 28.39497 L 90.99327 28.39497 L 90.85435 28.39497 L 90.71545 28.39497 L 90.57654 28.39497 L 90.43764 28.39497 L 90.29872 28.39497 L 90.1598 28.39497 L 90.0209 28.39497 L 89.882 28.39497 L 89.7431 28.39497 L 89.60419 28.39497 L 89.46527 28.39497 L 89.32637 28.39497 L 89.18745 28.39497 L 89.04855 28.39497 L 88.90964 28.39497 L 88.77072 28.39497 L 88.63184 28.39497 L 88.49292 28.39497 L 88.35402 28.39497 L 88.2151 28.39497 L 88.07619 28.39497 L 87.93729 28.39497 L 87.79837 28.39497 L 87.65948 28.39497 L 87.52057 28.39497 L 87.38165 28.39497 L 87.24275 28.39497 L 87.10384 28.39497 L 86.96494 28.39497 L 86.82602 28.39497 L 86.6871 28.39497 L 86.5482 28.39497 L 86.40929 28.39497 L 86.2704 28.39497 L 86.13147 28.39497 L 85.99255 28.39497 L 85.85367 28.39497 L 85.71474 28.39497 L 85.57585 28.39497 L 85.43694 28.39497 L 85.298 28.39497 L 85.15912 28.39497 L 85.0202 28.39497 L 84.8813 28.39497 L 84.74239 28.39497 L 84.60347 28.39497 L 84.46457 28.39497 L 84.32565 28.39497 L 84.18675 28.39497 L 84.04785 28.39497 L 83.90892 28.39497 L 83.77003 28.39497 L 83.63112 28.39497 L 83.49222 28.39497 L 83.3533 28.39497 L 83.21439 28.39497 L 83.07549 28.39497 L 82.93657 28.39497 L 82.79767 28.39497 L 82.65875 28.39497 L 82.51984 28.39497 L 82.38094 28.39497 L 82.24202 28.39497 L 82.10312 28.39497 L 81.9642 28.39497 L 81.8253 28.39497 L 81.6864 28.39497 L 81.5475 28.39497 L 81.4086 28.39497 L 81.26968 28.39497 L 81.13077 28.39497 L 80.99187 28.39497 L 80.85295 28.39497 L 80.71405 28.39497 L 80.57513 28.39497 L 80.43622 28.39497 L 80.29732 28.39497 L 80.1584 28.39497 L 80.0195 28.39497 L 79.88058 28.39497 L 79.74167 28.39497 L 79.60277 28.39497 L 79.46385 28.39497 L 79.32497 28.39497 L 79.18604 28.39497 L 79.04713 28.39497 L 78.90823 28.39497 L 78.76932 28.39497 L 78.63042 28.39497 L 78.4915 28.39497 L 78.35258 28.39497 L 78.21368 28.39497 L 78.07477 28.39497 L 77.93588 28.39497 L 77.79695 28.39497 L 77.65804 28.39497 L 77.51915 28.39497 L 77.38022 28.39497 L 77.24133 28.39497 L 77.10242 28.39497 L 76.96349 28.39497 L 76.8246 28.39497 L 76.68568 28.39497 L 76.54678 28.39497 L 76.40787 28.39497 L 76.26895 28.39497 L 76.13005 28.39497 L 75.99113 28.39497 L 75.85225 28.39497 L 75.71332 28.39497 L 75.5744 28.39497 L 75.43552 28.39497 L 75.29659 28.39497 L 75.1577 28.39497 L 75.0188 28.39497 L 74.87987 28.39497 L 74.74098 28.39497 L 74.60207 28.39497 L 74.46317 28.39497 L 74.32425 28.39497 L 74.18533 28.39497 L 74.04643 28.39497 L 73.90752 28.39497 L 73.76862 28.39497 L 73.6297 28.39497 L 73.49078 28.39497 L 73.3519 28.39497 L 73.21298 28.39497 L 73.07408 28.39497 L 72.93517 28.39497 L 72.79625 28.39497 L 72.65735 28.39497 L 72.51843 28.39497 L 72.37953 28.39497 L 72.24062 28.39497 L 72.1017 28.39497 L 71.9628 28.39497 L 71.82388 28.39497 L 71.68498 28.39497 L 71.54607 28.39497 L 71.40715 28.39497 L 71.26825 28.39497 L 71.12933 28.39497 L 70.99045 28.39497 L 70.85153 28.39497 L 70.71262 28.39497 L 70.57372 28.39497 L 70.4348 28.39497 L 70.2959 28.39497 L 70.15698 28.39497 L 70.01807 28.39497 L 69.87917 28.39497 L 69.74025 28.39497 L 69.60135 28.39497 L 69.46243 28.39497 L 69.32352 28.39497 L 69.18462 28.39497 L 69.0457 28.39497 L 68.90681 28.39497 L 68.76788 28.39497 L 68.62897 28.39497 L 68.49008 28.39497 L 68.35117 28.39497 L 68.21228 28.39497 L 68.07336 28.39497 L 67.93445 28.39497 L 67.79555 28.39497 L 67.65663 28.39497 L 67.51775 28.39497 L 67.37881 28.39497 L 67.2399 28.39497 L 67.10101 28.39497 L 66.96208 28.39497 L 66.8232 28.39497 L 66.68428 28.39497 L 66.54535 28.39497 L 66.40646 28.39497 L 66.26755 28.39497 L 66.12865 28.39497 L 65.98973 28.39497 L 65.85081 28.39497 L 65.71191 28.39497 L 65.573 28.39497 L 65.4341 28.39497 L 65.29518 28.39497 L 65.15627 28.39497 L 65.01738 28.39497 L 64.87845 28.39497 L 64.73956 28.39497 L 64.60065 28.39497 L 64.46172 28.39497 L 64.32283 28.39497 L 64.18391 28.39497 L 64.04501 28.39497 L 63.9061 28.39497 L 63.76718 28.39497 L 63.62828 28.39497 L 63.48936 28.39497 L 63.35046 28.39497 L 63.21155 28.39497 L 63.07263 28.39497 L 62.93373 28.39497 L 62.79483 28.39497 L 62.65593 28.39497 L 62.51701 28.39497 L 62.3781 28.39497 L 62.2392 28.39497 L 62.10028 28.39497 L 61.96138 28.39497 L 61.82246 28.39497 L 61.68355 28.39497 L 61.54465 28.39497 L 61.40575 28.39497 L 61.26685 28.39497 L 61.12793 28.39497 L 60.98901 28.39497 L 60.85011 28.39497 L 60.7112 28.39497 L 60.5723 28.39497 L 60.43338 28.39497 L 60.29448 28.39497 L 60.15558 28.39497 L 60.01666 28.39497 L 59.87776 28.39497 L 59.73885 28.39497 L 59.59993 28.39497 L 59.46103 28.39497 L 59.32211 28.39497 L 59.18321 28.39497 L 59.0443 28.39497 L 58.90538 28.39497 L 58.76648 28.39497 L 58.62756 28.39497 L 58.48868 28.39497 L 58.34975 28.39497 L 58.21083 28.39497 L 58.07195 28.39497 L 57.93301 28.39497 L 57.79413 28.39497 L 57.65521 28.39497 L 57.5163 28.39497 L 57.3774 28.39497 L 57.23848 28.39497 L 57.09958 28.39497 L 56.96066 28.39497 L 56.82175 28.39497 L 56.68285 28.39497 L 56.54393 28.39497 L 56.40504 28.39497 L 56.26613 28.39497 L 56.1272 28.39497 L 55.98831 28.39497 L 55.8494 28.39497 L 55.7105 28.39497 L 55.57158 28.39497 L 55.43266 28.39497 L 55.29376 28.39497 L 55.15485 28.39497 L 55.01595 28.39497 L 54.87703 28.39497 L 54.73811 28.39497 L 54.59923 28.39497 L 54.46031 28.39497 L 54.32143 28.39497 L 54.18251 28.39497 L 54.04358 28.39497 L 53.9047 28.39497 L 53.76578 28.39497 L 53.62688 28.39497 L 53.48796 28.39497 L 53.34904 28.39497 L 53.21014 28.39497 L 53.07123 28.39497 L 52.93233 28.39497 L 52.79341 28.39497 L 52.6545 28.39497 L 52.5156 28.39497 L 52.37668 28.39497 L 52.23778 28.39497 L 52.09888 28.39497 L 51.95996 28.39497 L 51.82106 28.39497 L 51.68214 28.39497 L 51.54324 28.39497 L 51.40433 28.39497 L 51.26541 28.39497 L 51.12651 28.39497 L 50.9876 28.39497 L 50.8487 28.39497 L 50.70978 28.39497 L 50.57086 28.39497 L 50.43196 28.39497 L 50.29305 28.39497 L 50.15414 28.39497 L 50.01523 28.39497 L 49.87631 28.39497 L 49.73741 28.39497 L 49.59851 28.39497 L 49.45961 28.39497 L 49.3207 28.39497 L 49.18178 28.39497 L 49.04288 28.39497 L 48.90396 28.39497 L 48.76506 28.39497 L 48.62614 28.39497 L 48.48723 28.39497 L 48.34833 28.39497 L 48.20941 28.39497 L 48.07053 28.39497 L 47.9316 28.39497 L 47.7927 28.39497 L 47.65381 28.39497 L 47.51488 28.39497 L 47.37599 28.39497 L 47.23708 28.39497 L 47.09816 28.39497 L 46.95926 28.39497 L 46.82034 28.39497 L 46.68144 28.39497 L 46.54253 28.39497 L 46.40361 28.39497 L 46.26471 28.39497 L 46.1258 28.39497 L 45.98691 28.39497 L 45.84799 28.39497 L 45.70906 28.39497 L 45.57018 28.39497 L 45.43126 28.39497 L 45.29236 28.39497 L 45.15344 28.39497 L 45.01453 28.39497 L 44.87563 28.39497 L 44.73671 28.39497 L 44.59781 28.39497 L 44.4589 28.39497 L 44.31998 28.39497 L 44.18108 28.39497 L 44.04216 28.39497 L 43.90327 28.39497 L 43.76436 28.39497 L 43.62543 28.39497 L 43.48654 28.39497 L 43.34763 28.39497 L 43.20872 28.39497 L 43.06981 28.39497 L 42.9309 28.39497 L 42.79199 28.39497 L 42.65308 28.39497 L 42.51418 28.39497 L 42.37526 28.39497 L 42.23634 28.39497 L 42.09744 28.39497 L 41.95853 28.39497 L 41.81963 28.39497 L 41.68071 28.39497 L 41.54181 28.39497 L 41.4029 28.39497 L 41.26399 28.39497 L 41.12509 28.39497 L 40.98618 28.39497 L 40.84727 28.39497 L 40.70837 28.39497 L 40.56946 28.39497 L 40.43056 28.39497 L 40.29164 28.39497 L 40.15273 28.39497 L 40.01382 28.39497 L 39.87491 28.39497 L 39.73602 28.39497 L 39.59709 28.39497 L 39.45818 28.39497 L 39.31929 28.39497 L 39.31776 28.39497 Z " fill="#0000ff" fill-opacity=".3"/>
</g>
<clipPath id="cp1">
<path transform="matrix(2.7777777,0,0,-2.7777777,10.330556,484.74723)" d="M 0 0 L 194.27321 0 L 194.27321 161.40009 L 0 161.40009 Z "/>
</clipPath>
<g clip-path="url(#cp1)">
<path transform="matrix(2.7777777,0,0,-2.7777777,10.330556,484.74723)" stroke-width=".79701" stroke-linecap="butt" stroke-miterlimit="10" stroke-linejoin="miter" fill="none" stroke="#00ff00" d="M -6.93726 118.0608 L -6.75208 118.29968 L -6.56688 118.53757 L -6.38168 118.77452 L -6.19647 119.0105 L -6.01128 119.24554 L -5.82608 119.47961 L -5.64087 119.71272 L -5.45566 119.94489 L -5.27048 120.17607 L -5.08527 120.40633 L -4.90005 120.63559 L -4.71487 120.8639 L -4.52966 121.09128 L -4.34445 121.31767 L -4.15927 121.54314 L -3.97406 121.76762 L -3.78886 121.99115 L -3.60367 122.21373 L -3.41846 122.43535 L -3.23326 122.65599 L -3.04807 122.8757 L -2.86285 123.09442 L -2.67766 123.31221 L -2.49246 123.52904 L -2.30725 123.74489 L -2.12206 123.9598 L -1.93686 124.17374 L -1.75165 124.38673 L -1.56647 124.59877 L -1.38126 124.80983 L -1.19606 125.01994 L -1.01085 125.2291 L -.82565 125.43729 L -.64046 125.64455 L -.45525 125.85081 L -.27005 126.05615 L -.08485 126.26051 L .10034 126.46391 L .28554 126.66635 L .47073 126.86784 L .65594 127.06839 L .84113 127.26794 L 1.02634 127.46657 L 1.21155 127.66423 L 1.39673 127.86093 L 1.58194 128.05666 L 1.76715 128.25145 L 1.95233 128.44527 L 2.13754 128.63813 L 2.32275 128.83003 L 2.50795 129.021 L 2.69315 129.21097 L 2.87834 129.40001 L 3.06354 129.58808 L 3.24875 129.77519 L 3.43393 129.96134 L 3.61914 130.14655 L 3.80435 130.33078 L 3.98955 130.51407 L 4.17474 130.69638 L 4.35995 130.87775 L 4.54515 131.05817 L 4.73035 131.23761 L 4.91556 131.41609 L 5.10075 131.59365 L 5.28595 131.7702 L 5.47116 131.94582 L 5.65636 132.12049 L 5.84155 132.29418 L 6.02675 132.46692 L 6.21196 132.6387 L 6.39716 132.80953 L 6.58235 132.97939 L 6.76756 133.1483 L 6.95277 133.31624 L 7.13795 133.48323 L 7.32315 133.64926 L 7.50836 133.81433 L 7.69356 133.97846 L 7.87875 134.14162 L 8.06396 134.3038 L 8.24916 134.46504 L 8.43437 134.62532 L 8.61955 134.78466 L 8.80476 134.94301 L 8.98997 135.10044 L 9.17516 135.25687 L 9.36037 135.41236 L 9.54558 135.56691 L 9.73076 135.72048 L 9.91597 135.8731 L 10.10118 136.02474 L 10.28636 136.17545 L 10.47157 136.3252 L 10.65678 136.47397 L 10.84196 136.6218 L 11.02718 136.76866 L 11.21237 136.91457 L 11.39758 137.05953 L 11.58278 137.2035 L 11.76797 137.34656 L 11.95317 137.48862 L 12.13838 137.62973 L 12.32356 137.76988 L 12.50877 137.90909 L 12.694 138.04734 L 12.87917 138.1846 L 13.06439 138.32094 L 13.24957 138.4563 L 13.43478 138.59072 L 13.62 138.72417 L 13.80516 138.85665 L 13.99039 138.98819 L 14.17557 139.11876 L 14.36078 139.24839 L 14.54599 139.37703 L 14.73119 139.50473 L 14.9164 139.63149 L 15.10158 139.75725 L 15.28679 139.8821 L 15.472 140.00595 L 15.65718 140.12885 L 15.8424 140.25081 L 16.02757 140.3718 L 16.2128 140.49182 L 16.398 140.61092 L 16.58319 140.72902 L 16.7684 140.84619 L 16.95358 140.96237 L 17.1388 141.07762 L 17.324 141.19193 L 17.50919 141.30522 L 17.6944 141.41762 L 17.8796 141.52899 L 18.06479 141.63945 L 18.25002 141.74897 L 18.4352 141.85749 L 18.6204 141.96508 L 18.80559 142.07167 L 18.9908 142.17736 L 19.17601 142.28205 L 19.3612 142.38579 L 19.5464 142.48857 L 19.7316 142.59038 L 19.91681 142.69127 L 20.102 142.79117 L 20.2872 142.89012 L 20.47241 142.98812 L 20.6576 143.08515 L 20.84282 143.18123 L 21.02802 143.27634 L 21.2132 143.3705 L 21.39842 143.46372 L 21.58359 143.55594 L 21.76881 143.64723 L 21.95403 143.73755 L 22.13919 143.82692 L 22.32442 143.91533 L 22.50961 144.00279 L 22.69481 144.08927 L 22.88004 144.1748 L 23.06522 144.25939 L 23.25041 144.343 L 23.43561 144.42566 L 23.6208 144.50737 L 23.80603 144.5881 L 23.99121 144.6679 L 24.17642 144.74672 L 24.3616 144.82459 L 24.54683 144.90149 L 24.73203 144.97747 L 24.91722 145.05243 L 25.10243 145.12648 L 25.28761 145.19956 L 25.47282 145.27169 L 25.65804 145.34284 L 25.84322 145.41304 L 26.02843 145.48229 L 26.21361 145.55055 L 26.39882 145.61789 L 26.58405 145.68427 L 26.76921 145.74968 L 26.95444 145.81414 L 27.13962 145.87761 L 27.32483 145.94016 L 27.51004 146.00174 L 27.69524 146.06235 L 27.88043 146.12201 L 28.06561 146.18071 L 28.25084 146.23845 L 28.43604 146.29524 L 28.62123 146.35106 L 28.80644 146.40595 L 28.99162 146.45986 L 29.17683 146.5128 L 29.36205 146.56479 L 29.54723 146.61583 L 29.73245 146.66591 L 29.91762 146.71501 L 30.10284 146.76319 L 30.28806 146.8104 L 30.47324 146.85665 L 30.65845 146.90192 L 30.84364 146.94626 L 31.02884 146.98963 L 31.21405 147.03205 L 31.39923 147.07347 L 31.58444 147.11399 L 31.76964 147.15352 L 31.95483 147.19208 L 32.14006 147.2297 L 32.32524 147.26636 L 32.51045 147.30207 L 32.69563 147.33683 L 32.88086 147.3706 L 33.06606 147.40345 L 33.25125 147.4353 L 33.43646 147.46622 L 33.62164 147.49617 L 33.80685 147.52516 L 33.99205 147.5532 L 34.17725 147.58028 L 34.36246 147.6064 L 34.54764 147.63156 L 34.73286 147.65576 L 34.91808 147.679 L 35.10324 147.7013 L 35.28847 147.72261 L 35.47365 147.74298 L 35.65886 147.7624 L 35.84407 147.78086 L 36.02925 147.79836 L 36.21446 147.8149 L 36.39966 147.83048 L 36.58485 147.84508 L 36.77008 147.85875 L 36.95526 147.87146 L 37.14046 147.8832 L 37.32565 147.894 L 37.51086 147.90381 L 37.69608 147.91269 L 37.88126 147.9206 L 38.06648 147.92755 L 38.25165 147.93355 L 38.43687 147.9386 L 38.62207 147.94268 L 38.80727 147.94579 L 38.99248 147.94794 L 39.17766 147.94915 L 39.36287 147.9494 L 39.54808 147.94869 L 39.73326 147.94702 L 39.91849 147.94438 L 40.10367 147.9408 L 40.28888 147.93625 L 40.47409 147.93076 L 40.65929 147.92429 L 40.84448 147.91687 L 41.02966 147.9085 L 41.21487 147.89914 L 41.40009 147.88886 L 41.58528 147.87761 L 41.77048 147.8654 L 41.95567 147.85222 L 42.14088 147.83809 L 42.3261 147.823 L 42.51128 147.80696 L 42.6965 147.78995 L 42.88167 147.77199 L 43.06688 147.75307 L 43.2521 147.73319 L 43.43727 147.71236 L 43.6225 147.69055 L 43.80766 147.66782 L 43.99289 147.6441 L 44.17812 147.61943 L 44.36328 147.5938 L 44.5485 147.56722 L 44.73369 147.53966 L 44.91888 147.51116 L 45.1041 147.48169 L 45.28929 147.45128 L 45.47449 147.4199 L 45.65968 147.38758 L 45.84491 147.35428 L 46.0301 147.32 L 46.2153 147.2848 L 46.4005 147.24864 L 46.5857 147.21152 L 46.7709 147.17342 L 46.9561 147.13439 L 47.1413 147.09438 L 47.3265 147.0534 L 47.51169 147.0115 L 47.6969 146.96862 L 47.88213 146.92478 L 48.06729 146.87999 L 48.25252 146.83423 L 48.4377 146.78752 L 48.62291 146.73986 L 48.80812 146.69123 L 48.99329 146.64163 L 49.17851 146.5911 L 49.3637 146.5396 L 49.5489 146.48714 L 49.73412 146.4337 L 49.91931 146.37934 L 50.1045 146.32399 L 50.2897 146.26772 L 50.47491 146.21045 L 50.66013 146.15224 L 50.8453 146.09308 L 51.03053 146.03295 L 51.2157 145.97187 L 51.40091 145.9098 L 51.58612 145.84682 L 51.7713 145.78287 L 51.95653 145.71793 L 52.14171 145.65207 L 52.32692 145.58522 L 52.51213 145.51743 L 52.69731 145.44867 L 52.88252 145.37895 L 53.06772 145.3083 L 53.25291 145.23667 L 53.43813 145.16408 L 53.62332 145.09055 L 53.80853 145.01604 L 53.99371 144.94058 L 54.17892 144.86417 L 54.36414 144.78679 L 54.54933 144.70845 L 54.73453 144.62915 L 54.91972 144.54892 L 55.10493 144.4677 L 55.29013 144.38553 L 55.47533 144.3024 L 55.66054 144.21833 L 55.84572 144.13329 L 56.03093 144.04727 L 56.21614 143.96031 L 56.40132 143.87239 L 56.58655 143.78351 L 56.77171 143.69368 L 56.95694 143.60289 L 57.14215 143.51114 L 57.32732 143.41844 L 57.51254 143.32477 L 57.69772 143.23015 L 57.88293 143.13455 L 58.06816 143.03801 L 58.25334 142.94052 L 58.43854 142.84204 L 58.62373 142.74263 L 58.80893 142.64226 L 58.99416 142.54093 L 59.17934 142.43863 L 59.36453 142.33538 L 59.54973 142.23117 L 59.73495 142.12599 L 59.92015 142.01987 L 60.10535 141.91278 L 60.29056 141.80475 L 60.47574 141.69577 L 60.66095 141.58579 L 60.84616 141.47487 L 61.03134 141.36299 L 61.21655 141.25017 L 61.40173 141.13639 L 61.58694 141.02162 L 61.77217 140.9059 L 61.95734 140.78926 L 62.14256 140.67162 L 62.32774 140.55304 L 62.51295 140.4335 L 62.69817 140.31299 L 62.88336 140.19155 L 63.06856 140.0691 L 63.25374 139.94576 L 63.43896 139.82141 L 63.62416 139.6961 L 63.80936 139.56987 L 63.99455 139.44266 L 64.17975 139.3145 L 64.36496 139.18537 L 64.55017 139.05527 L 64.73535 138.92424 L 64.92058 138.79225 L 65.10574 138.65929 L 65.29095 138.52538 L 65.47618 138.39049 L 65.66135 138.25467 L 65.84657 138.11788 L 66.03177 137.98014 L 66.21696 137.84142 L 66.40218 137.70174 L 66.58736 137.56113 L 66.77257 137.41954 L 66.95776 137.27701 L 67.14296 137.1335 L 67.32819 136.98903 L 67.51337 136.84363 L 67.69858 136.69725 L 67.88376 136.54993 L 68.06898 136.40163 L 68.25418 136.25238 L 68.43938 136.10216 L 68.62459 135.95099 L 68.80977 135.79889 L 68.99498 135.64579 L 69.18018 135.49175 L 69.36537 135.33676 L 69.55058 135.18079 L 69.73576 135.0239 L 69.92097 134.86602 L 70.1062 134.70717 L 70.29137 134.5474 L 70.4766 134.38665 L 70.66177 134.22493 L 70.84698 134.06227 L 71.0322 133.89862 L 71.21738 133.73406 L 71.40259 133.56851 L 71.58777 133.40204 L 71.77298 133.23458 L 71.9582 133.06613 L 72.14339 132.89679 L 72.32858 132.72644 L 72.51378 132.55516 L 72.69899 132.38289 L 72.8842 132.20969 L 73.06938 132.03553 L 73.2546 131.8604 L 73.43977 131.68433 L 73.625 131.5073 L 73.81021 131.32927 L 73.99539 131.15033 L 74.1806 130.97042 L 74.36578 130.78957 L 74.551 130.60771 L 74.7362 130.42491 L 74.92139 130.24118 L 75.1066 130.05646 L 75.2918 129.87082 L 75.47699 129.68418 L 75.66222 129.49658 L 75.8474 129.30806 L 76.03261 129.11856 L 76.21779 128.92812 L 76.403 128.7367 L 76.58821 128.54431 L 76.7734 128.351 L 76.9586 128.15668 L 77.14378 127.96146 L 77.32901 127.76524 L 77.5142 127.56807 L 77.6994 127.36996 L 77.88461 127.17088 L 78.0698 126.97086 L 78.255 126.76984 L 78.44023 126.56787 L 78.6254 126.36497 L 78.81062 126.16109 L 78.99579 125.95627 L 79.181 125.75049 L 79.36623 125.54372 L 79.55139 125.33603 L 79.73662 125.12735 L 79.92181 124.91776 L 80.10701 124.70715 L 80.29222 124.4956 L 80.47742 124.28313 L 80.66261 124.06966 L 80.84781 123.85527 L 81.03302 123.6399 L 81.21822 123.42355 L 81.40341 123.20627 L 81.58862 122.988 L 81.7738 122.76883 L 81.95903 122.54865 L 82.14423 122.32751 L 82.32942 122.10544 L 82.51463 121.8824 L 82.69981 121.65842 L 82.88503 121.43344 L 83.07024 121.20752 L 83.25542 120.98067 L 83.44063 120.75284 L 83.62582 120.52406 L 83.81102 120.29431 L 83.99625 120.06358 L 84.18143 119.83194 L 84.36664 119.5993 L 84.55182 119.36574 L 84.73703 119.1312 L 84.92224 118.89569 L 85.10742 118.65926 L 85.29263 118.42183 L 85.47781 118.18347 L 85.66304 117.94415 L 85.84825 117.70384 L 86.03343 117.4626 L 86.21866 117.22038 L 86.40382 116.97725 L 86.58904 116.73312 L 86.77425 116.48802 L 86.95943 116.24197 L 87.14464 115.99498 L 87.32982 115.74702 L 87.51505 115.49815 L 87.70026 115.24828 L 87.88544 114.99742 L 88.07065 114.74564 L 88.25584 114.49289 L 88.44104 114.23918 L 88.62625 113.98451 L 88.81145 113.7289 L 88.99664 113.4723 L 89.18184 113.21477 L 89.36703 112.95627 L 89.55226 112.69682 L 89.73744 112.4364 L 89.92265 112.17505 L 90.10783 111.9127 L 90.29306 111.64941 L 90.47826 111.38518 L 90.66345 111.11998 L 90.84866 110.85382 L 91.03383 110.5867 L 91.21906 110.31862 L 91.40427 110.04959 L 91.58945 109.7796 L 91.77466 109.50867 L 91.95984 109.23671 L 92.14507 108.96384 L 92.33028 108.69002 L 92.51544 108.41524 L 92.70067 108.13951 L 92.88585 107.86278 L 93.07104 107.58511 L 93.25627 107.3065 L 93.44145 107.02693 L 93.62666 106.74637 L 93.81186 106.46489 L 93.99707 106.18245 L 94.18228 105.89905 L 94.36746 105.61464 L 94.55266 105.32933 L 94.73785 105.04306 L 94.92307 104.7558 L 95.10828 104.46759 L 95.29346 104.1784 L 95.47868 103.8883 L 95.66385 103.59724 L 95.84908 103.30519 L 96.03429 103.0122 L 96.21947 102.71823 L 96.40468 102.42334 L 96.58986 102.12744 L 96.77507 101.83064 L 96.96028 101.53282 L 97.14546 101.2341 L 97.33067 100.93437 L 97.51587 100.63374 L 97.70107 100.3321 L 97.88629 100.02954 L 98.07149 99.72598 L 98.25668 99.42152 L 98.44186 99.11606 L 98.62709 98.80968 L 98.81229 98.50227 L 98.99747 98.19394 L 99.18268 97.88467 L 99.36786 97.57442 L 99.55309 97.26321 L 99.7383 96.95107 L 99.92348 96.63794 L 100.1087 96.32385 L 100.29387 96.00894 L 100.47908 95.69284 L 100.6643 95.37587 L 100.84947 95.05795 L 101.03468 94.73912 L 101.21988 94.41942 L 101.40509 94.09848 L 101.5903 93.77672 L 101.77548 93.45403 L 101.9607 93.1304 L 102.14589 92.80577 L 102.33109 92.48018 L 102.5163 92.15364 L 102.70149 91.82614 L 102.88669 91.4977 L 103.07188 91.16826 L 103.2571 90.83789 L 103.4423 90.5066 L 103.62749 90.17442 L 103.81271 89.84108 L 103.99788 89.50696 L 104.1831 89.1717 L 104.3683 88.8356 L 104.5535 88.49866 L 104.73871 88.16048 L 104.92387 87.82158 L 105.1091 87.48154 L 105.29431 87.14064 L 105.47949 86.79877 L 105.6647 86.45589 L 105.8499 86.11226 L 106.03511 85.76738 L 106.22032 85.42169 L 106.4055 85.07516 L 106.59071 84.72742 L 106.7759 84.37898 L 106.9611 84.02942 L 107.14632 83.67879 L 107.33151 83.32748 L 107.51671 82.97495 L 107.7019 82.62172 L 107.88712 82.26736 L 108.07233 81.91194 L 108.2575 81.55586 L 108.44272 81.19853 L 108.6279 80.84048 L 108.81311 80.48123 L 108.99834 80.12117 L 109.1835 79.76028 L 109.36873 79.39813 L 109.5539 79.03532 L 109.73912 78.67143 L 109.92433 78.3064 L 110.10951 77.94073 L 110.29472 77.57396 L 110.47992 77.20619 L 110.66512 76.83737 L 110.85033 76.4677 L 111.03552 76.09721 L 111.22072 75.72548 L 111.40591 75.35312 L 111.59113 74.9796 L 111.77634 74.60503 L 111.96153 74.22974 L 112.14673 73.8534 L 112.33191 73.47604 L 112.51714 73.09778 L 112.70233 72.71838 L 112.88753 72.33835 L 113.07274 71.95717 L 113.2579 71.57507 L 113.44313 71.19199 L 113.62834 70.8078 L 113.81352 70.42297 L 113.99875 70.03687 L 114.18393 69.65012 L 114.36913 69.26224 L 114.55435 68.87328 L 114.73952 68.48364 L 114.92474 68.0929 L 115.10992 67.70119 L 115.29514 67.30852 L 115.48035 66.91492 L 115.66554 66.52034 L 115.85074 66.1248 L 116.03593 65.72829 L 116.22115 65.33087 L 116.40634 64.93246 L 116.59154 64.5331 L 116.77673 64.13275 L 116.96193 63.73146 L 117.14714 63.32921 L 117.33235 62.92587 L 117.51753 62.52188 L 117.70276 62.11676 L 117.88792 61.7107 L 118.07315 61.30367 L 118.25836 60.89565 L 118.44354 60.48671 L 118.62875 60.0768 L 118.81395 59.66592 L 118.99915 59.25409 L 119.18436 58.84132 L 119.36954 58.42758 L 119.55475 58.01286 L 119.73994 57.59721 L 119.92516 57.1806 L 120.11037 56.76303 L 120.29555 56.3445 L 120.48076 55.92502 L 120.66594 55.50458 L 120.85117 55.08316 L 121.03636 54.6608 L 121.22156 54.23749 L 121.40677 53.8132 L 121.59195 53.38797 L 121.77716 52.96175 L 121.96237 52.53459 L 122.14755 52.10648 L 122.33276 51.67741 L 122.51794 51.24739 L 122.70316 50.81636 L 122.88838 50.38443 L 123.07355 49.95154 L 123.25877 49.51768 L 123.44395 49.08282 L 123.62917 48.64705 L 123.81438 48.21033 L 123.99957 47.77263 L 124.18477 47.33395 L 124.36996 46.89436 L 124.55516 46.45375 L 124.74037 46.01224 L 124.92557 45.56976 L 125.11076 45.1263 L 125.29596 44.68188 L 125.48117 44.23654 L 125.66638 43.7902 L 125.85158 43.34293 L 126.03679 42.89467 L 126.22195 42.4455 L 126.40718 41.99532 L 126.59239 41.54422 L 126.77757 41.09213 L 126.96278 40.63911 L 127.14795 40.1851 L 127.33318 39.73018 L 127.51839 39.27426 L 127.70357 38.81741 L 127.8888 38.35957 L 128.07398 37.90082 L 128.25917 37.44107 L 128.4444 36.98035 L 128.62958 36.51872 L 128.81479 36.05609 L 128.99997 35.59248 L 129.1852 35.12799 L 129.37039 34.66249 L 129.55559 34.19601 L 129.74079 33.72865 L 129.92598 33.26028 L 130.11119 32.79094 L 130.29639 32.3207 L 130.48159 31.84944 L 130.6668 31.37723 L 130.85198 30.90407 L 131.03719 30.43 L 131.22241 29.95491 L 131.40758 29.47887 L 131.5928 29.00188 L 131.77799 28.52393 L 131.9632 28.045 L 132.1484 27.56517 L 132.33359 27.08435 L 132.5188 26.60255 L 132.704 26.11981 L 132.88919 25.63612 L 133.0744 25.15146 L 133.2596 24.66585 L 133.4448 24.17928 L 133.62999 23.69173 L 133.81522 23.20325 L 134.00041 22.7138 L 134.1856 22.22339 L 134.3708 21.73203 L 134.55599 21.23972 L 134.74121 20.74641 L 134.9264 20.25218 L 135.1116 19.757 L 135.29682 19.26083 L 135.482 18.76373 L 135.6672 18.26567 L 135.85243 17.76663 L 136.0376 17.26666 L 136.22281 16.76572 L 136.408 16.26376 L 136.5932 15.76091 L 136.77843 15.25711 L 136.9636 14.75232 L 137.14882 14.2466 L 137.334 13.73991 L 137.51921 13.23222 L 137.70442 12.72362 L 137.88962 12.21407 L 138.07482 11.70354 L 138.26001 11.19202 L 138.44522 10.6796 L 138.63042 10.1662 L 138.81562 9.65181 L 139.00083 9.1365 L 139.186 8.62022 L 139.37122 8.10297 L 139.55643 7.5848 L 139.74161 7.06564 L 139.92684 6.5455 L 140.11202 6.02446 L 140.29723 5.50244 L 140.48244 4.97943 L 140.66762 4.45549 L 140.85283 3.93057 L 141.03801 3.40474 L 141.22322 2.87788 L 141.40843 2.35013 L 141.59363 1.82137 L 141.77884 1.29169 L 141.96402 .76102 L 142.14923 .22943 L 142.33444 -.30315 L 142.51963 -.83665 L 142.70484 -1.37115 L 142.89002 -1.90663 L 143.07524 -2.443 L 143.26044 -2.9804 L 143.44564 -3.51868 L 143.63085 -4.05797 L 143.81603 -4.59822 L 144.00124 -5.13939 L 144.18647 -5.68155 L 144.37163 -6.22469 L 144.55684 -6.76872 L 144.74202 -7.31375 L 144.92723 -7.85977 L 145.11246 -8.40668 L 145.29763 -8.95459 L 145.48285 -9.50346 L 145.66803 -10.05305 L 145.85324 -10.60408 L 146.03845 -11.15578 L 146.22365 -11.70848 L 146.40885 -12.26215 L 146.59404 -12.81677 L 146.77925 -13.37233 L 146.96445 -13.92883 L 147.14965 -14.48633 L 147.33484 -15.04478 L 147.52004 -15.60419 L 147.70526 -16.16455 L 147.89046 -16.72588 L 148.07566 -17.28815 L 148.26087 -17.85138 L 148.44603 -18.41536 L 148.63126 -18.98074 L 148.81647 -19.54686 L 149.00165 -20.11392 L 149.18686 -20.68195 L 149.37206 -21.25072 L 149.55725 -21.82088 L 149.74248 -22.39177 L 149.92765 -22.96364 L 150.11287 -23.53645 L 150.29805 -24.11002 L 150.48325 -24.68497 L 150.66847 -25.26065 L 150.85366 -25.83731 L 151.03887 -26.4149 L 151.22405 -26.9933 L 151.40927 -27.57304 L 151.59447 -28.1535 L 151.77967 -28.73473 L 151.96488 -29.31734 L 152.15006 -29.90053 L 152.33527 -30.48505 L 152.52046 -31.07031 L 152.70566 -31.65631 L 152.89087 -32.24373 L 153.07605 -32.83168 L 153.26126 -33.421 L 153.44649 -34.01106 L 153.63166 -34.6019 L 153.81688 -35.19409 L 154.00208 -35.78679 L 154.18727 -36.38095 L 154.37248 -36.9758 L 154.55767 -37.57138 L 154.74288 -38.16841 L 154.92806 -38.76588 L 155.11327 -39.36462 L 155.29848 -39.96448 L 155.48368 -40.56485 L 155.66889 -41.16666 L 155.85407 -41.76894 L 156.03929 -42.37268 L 156.22449 -42.9771 L 156.40967 -43.5823 L 156.5949 -44.18886 L 156.78006 -44.79596 L 156.96529 -45.40445 L 157.15048 -46.0137 L 157.33568 -46.62366 L 157.52089 -47.23482 L 157.70607 -47.84695 L 157.89128 -48.45999 L 158.0765 -49.07426 L 158.26168 -49.689 L 158.44689 -50.30518 L 158.63208 -50.92183 L 158.81728 -51.5397 L 159.0025 -52.15875 L 159.18769 -52.77827 L 159.3729 -53.39925 L 159.55808 -54.02074 L 159.74329 -54.6434 L 159.9285 -55.26724 L 160.1137 -55.89156 L 160.29889 -56.51709 L 160.48409 -57.14359 L 160.6693 -57.771 L 160.85449 -58.39941 L 161.03969 -59.02878 L 161.2249 -59.65909 L 161.41008 -60.29039 L 161.5953 -60.92258 L 161.78052 -61.55606 L 161.9657 -62.18993 L 162.15091 -62.82506 L 162.33608 -63.46112 L 162.5213 -64.09814 L 162.70652 -64.73637 L 162.8917 -65.37508 L 163.0769 -66.015 L 163.2621 -66.6558 L 163.4473 -67.29764 L 163.63253 -67.9404 L 163.8177 -68.58412 L 164.00292 -69.22884 L 164.1881 -69.87447 L 164.3733 -70.52109 L 164.55852 -71.16869 L 164.7437 -71.81723 L 164.92891 -72.4667 L 165.11409 -73.11713 L 165.29932 -73.76854 L 165.48451 -74.42088 L 165.66971 -75.0742 L 165.85492 -75.72847 L 166.0401 -76.3837 L 166.22531 -77.03989 L 166.41053 -77.69708 L 166.5957 -78.35516 L 166.78092 -79.01422 L 166.96611 -79.67424 L 167.1513 -80.3352 L 167.33654 -80.9972 L 167.5217 -81.66008 L 167.70693 -82.32393 L 167.89212 -82.98874 L 168.07732 -83.65454 L 168.26253 -84.32126 L 168.44773 -84.98894 L 168.63292 -85.65762 L 168.81812 -86.32721 L 169.00333 -86.99777 L 169.18852 -87.66927 L 169.37372 -88.3418 L 169.55895 -89.01521 L 169.74411 -89.68964 L 169.92934 -90.36497 L 170.11454 -91.04126 L 170.29972 -91.71858 L 170.48494 -92.39677 L 170.6701 -93.076 L 170.85533 -93.75613 L 171.04055 -94.43727 L 171.22573 -95.11931 L 171.41094 -95.80235 L 171.59613 -96.48631 L 171.78133 -97.17128 L 171.96656 -97.85715 L 172.15174 -98.54402 L 172.33693 -99.23181 L 172.52213 -99.92061 L 172.70732 -100.61032 L 172.89255 -101.30103 L 173.07773 -101.99269 L 173.26294 -102.68527 L 173.44812 -103.37886 L 173.63335 -104.0734 L 173.81855 -104.76884 L 174.00374 -105.4653 L 174.18895 -106.16272 L 174.37413 -106.86104 L 174.55934 -107.56036 L 174.74454 -108.26065 L 174.92974 -108.96184 L 175.11495 -109.66405 L 175.30013 -110.3672 L 175.48535 -111.07133 L 175.67057 -111.7764 L 175.85575 -112.48239 L 176.04096 -113.18938 L 176.22614 -113.89734 L 176.41135 -114.60623 L 176.59656 -115.3161 L 176.78176 -116.02692 L 176.96695 -116.73866 L 177.15215 -117.45139 L 177.33734 -118.16508 L 177.52257 -118.87973 L 177.70775 -119.59535 L 177.89296 -120.31192 L 178.07814 -121.02943 "/>
<path transform="matrix(2.7777777,0,0,-2.7777777,10.330556,484.74723)" stroke-width=".79701" stroke-linecap="butt" stroke-miterlimit="10" stroke-linejoin="miter" fill="none" stroke="#ff8000" d="M -6.93726 28.39497 L -6.79836 28.39497 L -6.65947 28.39497 L -6.52055 28.39497 L -6.38165 28.39497 L -6.24274 28.39497 L -6.10384 28.39497 L -5.96492 28.39497 L -5.82602 28.39497 L -5.6871 28.39497 L -5.54819 28.39497 L -5.40929 28.39497 L -5.27037 28.39497 L -5.13147 28.39497 L -4.99255 28.39497 L -4.85365 28.39497 L -4.71474 28.39497 L -4.57582 28.39497 L -4.43692 28.39497 L -4.298 28.39497 L -4.1591 28.39497 L -4.0202 28.39497 L -3.88129 28.39497 L -3.74239 28.39497 L -3.60347 28.39497 L -3.46455 28.39497 L -3.32565 28.39497 L -3.18674 28.39497 L -3.04784 28.39497 L -2.90892 28.39497 L -2.77002 28.39497 L -2.6311 28.39497 L -2.4922 28.39497 L -2.35329 28.39497 L -2.21437 28.39497 L -2.07547 28.39497 L -1.93655 28.39497 L -1.79765 28.39497 L -1.65874 28.39497 L -1.51984 28.39497 L -1.38094 28.39497 L -1.24202 28.39497 L -1.1031 28.39497 L -.9642 28.39497 L -.82529 28.39497 L -.68639 28.39497 L -.54747 28.39497 L -.40857 28.39497 L -.26965 28.39497 L -.13075 28.39497 L .00815 28.39497 L .14705 28.39497 L .28595 28.39497 L .42487 28.39497 L .56377 28.39497 L .70268 28.39497 L .84158 28.39497 L .9805 28.39497 L 1.1194 28.39497 L 1.25832 28.39497 L 1.39722 28.39497 L 1.53613 28.39497 L 1.67503 28.39497 L 1.81395 28.39497 L 1.95285 28.39497 L 2.09177 28.39497 L 2.23067 28.39497 L 2.36958 28.39497 L 2.5085 28.39497 L 2.6474 28.39497 L 2.78632 28.39497 L 2.92522 28.39497 L 3.06413 28.39497 L 3.20303 28.39497 L 3.34195 28.39497 L 3.48087 28.39497 L 3.61977 28.39497 L 3.75868 28.39497 L 3.89758 28.39497 L 4.03648 28.39497 L 4.1754 28.39497 L 4.3143 28.39497 L 4.45322 28.39497 L 4.59213 28.39497 L 4.73103 28.39497 L 4.86995 28.39497 L 5.00885 28.39497 L 5.14777 28.39497 L 5.28667 28.39497 L 5.42558 28.39497 L 5.56448 28.39497 L 5.7034 28.39497 L 5.84232 28.39497 L 5.98122 28.39497 L 6.12013 28.39497 L 6.25903 28.39497 L 6.39795 28.39497 L 6.53685 28.39497 L 6.67575 28.39497 L 6.81467 28.39497 L 6.95357 28.39497 L 7.09248 28.39497 L 7.23137 28.39497 L 7.37029 28.39497 L 7.50919 28.39497 L 7.6481 28.39497 L 7.78702 28.39497 L 7.92592 28.39497 L 8.06483 28.39497 L 8.20374 28.39497 L 8.34265 28.39497 L 8.48157 28.39497 L 8.62047 28.39497 L 8.75938 28.39497 L 8.89828 28.39497 L 9.0372 28.39497 L 9.17612 28.39497 L 9.31502 28.39497 L 9.45392 28.39497 L 9.59282 28.39497 L 9.73174 28.39497 L 9.87065 28.39497 L 10.00955 28.39497 L 10.14847 28.39497 L 10.28737 28.39497 L 10.42628 28.39497 L 10.5652 28.39497 L 10.7041 28.39497 L 10.84302 28.39497 L 10.98192 28.39497 L 11.12083 28.39497 L 11.25975 28.39497 L 11.39865 28.39497 L 11.53757 28.39497 L 11.67645 28.39497 L 11.81538 28.39497 L 11.95428 28.39497 L 12.09319 28.39497 L 12.2321 28.39497 L 12.371 28.39497 L 12.50992 28.39497 L 12.64883 28.39497 L 12.78773 28.39497 L 12.92665 28.39497 L 13.06555 28.39497 L 13.20447 28.39497 L 13.34338 28.39497 L 13.48228 28.39497 L 13.6212 28.39497 L 13.76007 28.39497 L 13.899 28.39497 L 14.03792 28.39497 L 14.1768 28.39497 L 14.31572 28.39497 L 14.45462 28.39497 L 14.59354 28.39497 L 14.73245 28.39497 L 14.87135 28.39497 L 15.01027 28.39497 L 15.14915 28.39497 L 15.28809 28.39497 L 15.427 28.39497 L 15.56589 28.39497 L 15.70482 28.39497 L 15.8437 28.39497 L 15.98262 28.39497 L 16.12155 28.39497 L 16.26044 28.39497 L 16.39935 28.39497 L 16.53825 28.39497 L 16.67717 28.39497 L 16.81609 28.39497 L 16.95499 28.39497 L 17.0939 28.39497 L 17.2328 28.39497 L 17.37172 28.39497 L 17.51064 28.39497 L 17.64952 28.39497 L 17.78844 28.39497 L 17.92734 28.39497 L 18.06625 28.39497 L 18.20517 28.39497 L 18.34407 28.39497 L 18.48299 28.39497 L 18.62189 28.39497 L 18.7608 28.39497 L 18.89972 28.39497 L 19.03862 28.39497 L 19.17754 28.39497 L 19.31644 28.39497 L 19.45535 28.39497 L 19.59427 28.39497 L 19.73317 28.39497 L 19.87209 28.39497 L 20.01099 28.39497 L 20.14989 28.39497 L 20.2888 28.39497 L 20.4277 28.39497 L 20.5666 28.39497 L 20.7055 28.39497 L 20.84442 28.39497 L 20.98334 28.39497 L 21.12224 28.39497 L 21.26115 28.39497 L 21.40005 28.39497 L 21.53897 28.39497 L 21.67789 28.39497 L 21.81679 28.39497 L 21.9557 28.39497 L 22.09459 28.39497 L 22.23352 28.39497 L 22.37244 28.39497 L 22.51132 28.39497 L 22.65024 28.39497 L 22.78914 28.39497 L 22.92805 28.39497 L 23.06697 28.39497 L 23.20587 28.39497 L 23.34479 28.39497 L 23.48369 28.39497 L 23.6226 28.39497 L 23.76152 28.39497 L 23.90042 28.39497 L 24.03934 28.39497 L 24.17822 28.39497 L 24.31715 28.39497 L 24.45607 28.39497 L 24.59496 28.39497 L 24.73387 28.39497 L 24.87277 28.39497 L 25.01169 28.39497 L 25.1506 28.39497 L 25.2895 28.39497 L 25.42842 28.39497 L 25.56732 28.39497 L 25.70624 28.39497 L 25.84515 28.39497 L 25.98404 28.39497 L 26.12297 28.39497 L 26.26186 28.39497 L 26.40077 28.39497 L 26.5397 28.39497 L 26.67859 28.39497 L 26.8175 28.39497 L 26.9564 28.39497 L 27.09532 28.39497 L 27.23424 28.39497 L 27.37312 28.39497 L 27.51204 28.39497 L 27.65094 28.39497 L 27.78986 28.39497 L 27.92877 28.39497 L 28.06767 28.39497 L 28.20657 28.39497 L 28.34547 28.39497 L 28.48439 28.39497 L 28.6233 28.39497 L 28.7622 28.39497 L 28.90112 28.39497 L 29.04002 28.39497 L 29.17894 28.39497 L 29.31786 28.39497 L 29.45676 28.39497 L 29.59567 28.39497 L 29.73457 28.39497 L 29.87349 28.39497 L 30.0124 28.39497 L 30.1513 28.39497 L 30.29022 28.39497 L 30.42912 28.39497 L 30.56804 28.39497 L 30.70694 28.39497 L 30.84584 28.39497 L 30.98476 28.39497 L 31.12366 28.39497 L 31.26257 28.39497 L 31.40149 28.39497 L 31.54039 28.39497 L 31.6793 28.39497 L 31.8182 28.39497 L 31.95712 28.39497 L 32.09604 28.39497 L 32.23494 28.39497 L 32.37386 28.39497 L 32.51274 28.39497 L 32.65167 28.39497 L 32.79059 28.39497 L 32.92947 28.39497 L 33.0684 28.39497 L 33.20729 28.39497 L 33.3462 28.39497 L 33.48512 28.39497 L 33.62402 28.39497 L 33.76294 28.39497 L 33.90184 28.39497 L 34.04076 28.39497 L 34.17966 28.39497 L 34.31856 28.39497 L 34.45747 28.39497 L 34.59636 28.39497 L 34.73529 28.39497 L 34.8742 28.39497 L 35.01309 28.39497 L 35.15201 28.39497 L 35.29091 28.39497 L 35.42982 28.39497 L 35.56874 28.39497 L 35.70764 28.39497 L 35.84656 28.39497 L 35.98546 28.39497 L 36.12437 28.39497 L 36.26329 28.39497 L 36.40218 28.39497 L 36.5411 28.39497 L 36.68 28.39497 L 36.81891 28.39497 L 36.95784 28.39497 L 37.09673 28.39497 L 37.23564 28.39497 L 37.37454 28.39497 L 37.51346 28.39497 L 37.65237 28.39497 L 37.79128 28.39497 L 37.93019 28.39497 L 38.06909 28.39497 L 38.20801 28.39497 L 38.34692 28.39497 L 38.48582 28.39497 L 38.62474 28.39497 L 38.76364 28.39497 L 38.90254 28.39497 L 39.04146 28.39497 L 39.18036 28.39497 L 39.31929 28.39497 L 39.45818 28.39497 L 39.59709 28.39497 L 39.73602 28.39497 L 39.87491 28.39497 L 40.01382 28.39497 L 40.15273 28.39497 L 40.29164 28.39497 L 40.43056 28.39497 L 40.56946 28.39497 L 40.70837 28.39497 L 40.84727 28.39497 L 40.98618 28.39497 L 41.12509 28.39497 L 41.26399 28.39497 L 41.4029 28.39497 L 41.54181 28.39497 L 41.68071 28.39497 L 41.81963 28.39497 L 41.95853 28.39497 L 42.09744 28.39497 L 42.23634 28.39497 L 42.37526 28.39497 L 42.51418 28.39497 L 42.65308 28.39497 L 42.79199 28.39497 L 42.9309 28.39497 L 43.06981 28.39497 L 43.20872 28.39497 L 43.34763 28.39497 L 43.48654 28.39497 L 43.62543 28.39497 L 43.76436 28.39497 L 43.90327 28.39497 L 44.04216 28.39497 L 44.18108 28.39497 L 44.31998 28.39497 L 44.4589 28.39497 L 44.59781 28.39497 L 44.73671 28.39497 L 44.87563 28.39497 L 45.01453 28.39497 L 45.15344 28.39497 L 45.29236 28.39497 L 45.43126 28.39497 L 45.57018 28.39497 L 45.70906 28.39497 L 45.84799 28.39497 L 45.98691 28.39497 L 46.1258 28.39497 L 46.26471 28.39497 L 46.40361 28.39497 L 46.54253 28.39497 L 46.68144 28.39497 L 46.82034 28.39497 L 46.95926 28.39497 L 47.09816 28.39497 L 47.23708 28.39497 L 47.37599 28.39497 L 47.51488 28.39497 L 47.65381 28.39497 L 47.7927 28.39497 L 47.9316 28.39497 L 48.07053 28.39497 L 48.20941 28.39497 L 48.34833 28.39497 L 48.48723 28.39497 L 48.62614 28.39497 L 48.76506 28.39497 L 48.90396 28.39497 L 49.04288 28.39497 L 49.18178 28.39497 L 49.3207 28.39497 L 49.45961 28.39497 L 49.59851 28.39497 L 49.73741 28.39497 L 49.87631 28.39497 L 50.01523 28.39497 L 50.15414 28.39497 L 50.29305 28.39497 L 50.43196 28.39497 L 50.57086 28.39497 L 50.70978 28.39497 L 50.8487 28.39497 L 50.9876 28.39497 L 51.12651 28.39497 L 51.26541 28.39497 L 51.40433 28.39497 L 51.54324 28.39497 L 51.68214 28.39497 L 51.82106 28.39497 L 51.95996 28.39497 L 52.09888 28.39497 L 52.23778 28.39497 L 52.37668 28.39497 L 52.5156 28.39497 L 52.6545 28.39497 L 52.79341 28.39497 L 52.93233 28.39497 L 53.07123 28.39497 L 53.21014 28.39497 L 53.34904 28.39497 L 53.48796 28.39497 L 53.62688 28.39497 L 53.76578 28.39497 L 53.9047 28.39497 L 54.04358 28.39497 L 54.18251 28.39497 L 54.32143 28.39497 L 54.46031 28.39497 L 54.59923 28.39497 L 54.73811 28.39497 L 54.87703 28.39497 L 55.01595 28.39497 L 55.15485 28.39497 L 55.29376 28.39497 L 55.43266 28.39497 L 55.57158 28.39497 L 55.7105 28.39497 L 55.8494 28.39497 L 55.98831 28.39497 L 56.1272 28.39497 L 56.26613 28.39497 L 56.40504 28.39497 L 56.54393 28.39497 L 56.68285 28.39497 L 56.82175 28.39497 L 56.96066 28.39497 L 57.09958 28.39497 L 57.23848 28.39497 L 57.3774 28.39497 L 57.5163 28.39497 L 57.65521 28.39497 L 57.79413 28.39497 L 57.93301 28.39497 L 58.07195 28.39497 L 58.21083 28.39497 L 58.34975 28.39497 L 58.48868 28.39497 L 58.62756 28.39497 L 58.76648 28.39497 L 58.90538 28.39497 L 59.0443 28.39497 L 59.18321 28.39497 L 59.32211 28.39497 L 59.46103 28.39497 L 59.59993 28.39497 L 59.73885 28.39497 L 59.87776 28.39497 L 60.01666 28.39497 L 60.15558 28.39497 L 60.29448 28.39497 L 60.43338 28.39497 L 60.5723 28.39497 L 60.7112 28.39497 L 60.85011 28.39497 L 60.98901 28.39497 L 61.12793 28.39497 L 61.26685 28.39497 L 61.40575 28.39497 L 61.54465 28.39497 L 61.68355 28.39497 L 61.82246 28.39497 L 61.96138 28.39497 L 62.10028 28.39497 L 62.2392 28.39497 L 62.3781 28.39497 L 62.51701 28.39497 L 62.65593 28.39497 L 62.79483 28.39497 L 62.93373 28.39497 L 63.07263 28.39497 L 63.21155 28.39497 L 63.35046 28.39497 L 63.48936 28.39497 L 63.62828 28.39497 L 63.76718 28.39497 L 63.9061 28.39497 L 64.04501 28.39497 L 64.18391 28.39497 L 64.32283 28.39497 L 64.46172 28.39497 L 64.60065 28.39497 L 64.73956 28.39497 L 64.87845 28.39497 L 65.01738 28.39497 L 65.15627 28.39497 L 65.29518 28.39497 L 65.4341 28.39497 L 65.573 28.39497 L 65.71191 28.39497 L 65.85081 28.39497 L 65.98973 28.39497 L 66.12865 28.39497 L 66.26755 28.39497 L 66.40646 28.39497 L 66.54535 28.39497 L 66.68428 28.39497 L 66.8232 28.39497 L 66.96208 28.39497 L 67.10101 28.39497 L 67.2399 28.39497 L 67.37881 28.39497 L 67.51775 28.39497 L 67.65663 28.39497 L 67.79555 28.39497 L 67.93445 28.39497 L 68.07336 28.39497 L 68.21228 28.39497 L 68.35117 28.39497 L 68.49008 28.39497 L 68.62897 28.39497 L 68.76788 28.39497 L 68.90681 28.39497 L 69.0457 28.39497 L 69.18462 28.39497 L 69.32352 28.39497 L 69.46243 28.39497 L 69.60135 28.39497 L 69.74025 28.39497 L 69.87917 28.39497 L 70.01807 28.39497 L 70.15698 28.39497 L 70.2959 28.39497 L 70.4348 28.39497 L 70.57372 28.39497 L 70.71262 28.39497 L 70.85153 28.39497 L 70.99045 28.39497 L 71.12933 28.39497 L 71.26825 28.39497 L 71.40715 28.39497 L 71.54607 28.39497 L 71.68498 28.39497 L 71.82388 28.39497 L 71.9628 28.39497 L 72.1017 28.39497 L 72.24062 28.39497 L 72.37953 28.39497 L 72.51843 28.39497 L 72.65735 28.39497 L 72.79625 28.39497 L 72.93517 28.39497 L 73.07408 28.39497 L 73.21298 28.39497 L 73.3519 28.39497 L 73.49078 28.39497 L 73.6297 28.39497 L 73.76862 28.39497 L 73.90752 28.39497 L 74.04643 28.39497 L 74.18533 28.39497 L 74.32425 28.39497 L 74.46317 28.39497 L 74.60207 28.39497 L 74.74098 28.39497 L 74.87987 28.39497 L 75.0188 28.39497 L 75.1577 28.39497 L 75.29659 28.39497 L 75.43552 28.39497 L 75.5744 28.39497 L 75.71332 28.39497 L 75.85225 28.39497 L 75.99113 28.39497 L 76.13005 28.39497 L 76.26895 28.39497 L 76.40787 28.39497 L 76.54678 28.39497 L 76.68568 28.39497 L 76.8246 28.39497 L 76.96349 28.39497 L 77.10242 28.39497 L 77.24133 28.39497 L 77.38022 28.39497 L 77.51915 28.39497 L 77.65804 28.39497 L 77.79695 28.39497 L 77.93588 28.39497 L 78.07477 28.39497 L 78.21368 28.39497 L 78.35258 28.39497 L 78.4915 28.39497 L 78.63042 28.39497 L 78.76932 28.39497 L 78.90823 28.39497 L 79.04713 28.39497 L 79.18604 28.39497 L 79.32497 28.39497 L 79.46385 28.39497 L 79.60277 28.39497 L 79.74167 28.39497 L 79.88058 28.39497 L 80.0195 28.39497 L 80.1584 28.39497 L 80.29732 28.39497 L 80.43622 28.39497 L 80.57513 28.39497 L 80.71405 28.39497 L 80.85295 28.39497 L 80.99187 28.39497 L 81.13077 28.39497 L 81.26968 28.39497 L 81.4086 28.39497 L 81.5475 28.39497 L 81.6864 28.39497 L 81.8253 28.39497 L 81.9642 28.39497 L 82.10312 28.39497 L 82.24202 28.39497 L 82.38094 28.39497 L 82.51984 28.39497 L 82.65875 28.39497 L 82.79767 28.39497 L 82.93657 28.39497 L 83.07549 28.39497 L 83.21439 28.39497 L 83.3533 28.39497 L 83.49222 28.39497 L 83.63112 28.39497 L 83.77003 28.39497 L 83.90892 28.39497 L 84.04785 28.39497 L 84.18675 28.39497 L 84.32565 28.39497 L 84.46457 28.39497 L 84.60347 28.39497 L 84.74239 28.39497 L 84.8813 28.39497 L 85.0202 28.39497 L 85.15912 28.39497 L 85.298 28.39497 L 85.43694 28.39497 L 85.57585 28.39497 L 85.71474 28.39497 L 85.85367 28.39497 L 85.99255 28.39497 L 86.13147 28.39497 L 86.2704 28.39497 L 86.40929 28.39497 L 86.5482 28.39497 L 86.6871 28.39497 L 86.82602 28.39497 L 86.96494 28.39497 L 87.10384 28.39497 L 87.24275 28.39497 L 87.38165 28.39497 L 87.52057 28.39497 L 87.65948 28.39497 L 87.79837 28.39497 L 87.93729 28.39497 L 88.07619 28.39497 L 88.2151 28.39497 L 88.35402 28.39497 L 88.49292 28.39497 L 88.63184 28.39497 L 88.77072 28.39497 L 88.90964 28.39497 L 89.04855 28.39497 L 89.18745 28.39497 L 89.32637 28.39497 L 89.46527 28.39497 L 89.60419 28.39497 L 89.7431 28.39497 L 89.882 28.39497 L 90.0209 28.39497 L 90.1598 28.39497 L 90.29872 28.39497 L 90.43764 28.39497 L 90.57654 28.39497 L 90.71545 28.39497 L 90.85435 28.39497 L 90.99327 28.39497 L 91.13219 28.39497 L 91.27109 28.39497 L 91.41 28.39497 L 91.5489 28.39497 L 91.68782 28.39497 L 91.82674 28.39497 L 91.96564 28.39497 L 92.10455 28.39497 L 92.24344 28.39497 L 92.38237 28.39497 L 92.52127 28.39497 L 92.66017 28.39497 L 92.79909 28.39497 L 92.93799 28.39497 L 93.0769 28.39497 L 93.21582 28.39497 L 93.35472 28.39497 L 93.49364 28.39497 L 93.63254 28.39497 L 93.77145 28.39497 L 93.91037 28.39497 L 94.04927 28.39497 L 94.18819 28.39497 L 94.32707 28.39497 L 94.466 28.39497 L 94.60492 28.39497 L 94.7438 28.39497 L 94.88272 28.39497 L 95.02162 28.39497 L 95.16054 28.39497 L 95.29945 28.39497 L 95.43835 28.39497 L 95.57726 28.39497 L 95.71614 28.39497 L 95.85507 28.39497 L 95.99399 28.39497 L 96.13287 28.39497 L 96.2718 28.39497 L 96.41069 28.39497 L 96.5496 28.39497 L 96.68854 28.39497 L 96.82742 28.39497 L 96.96634 28.39497 L 97.10524 28.39497 L 97.24416 28.39497 L 97.38307 28.39497 L 97.52197 28.39497 L 97.66089 28.39497 L 97.79979 28.39497 L 97.9387 28.39497 L 98.07762 28.39497 L 98.2165 28.39497 L 98.35544 28.39497 L 98.49432 28.39497 L 98.63324 28.39497 L 98.77217 28.39497 L 98.91106 28.39497 L 99.04997 28.39497 L 99.18887 28.39497 L 99.32779 28.39497 L 99.4667 28.39497 L 99.6056 28.39497 L 99.74452 28.39497 L 99.88342 28.39497 L 100.02234 28.39497 L 100.16125 28.39497 L 100.30016 28.39497 L 100.43907 28.39497 L 100.57797 28.39497 L 100.71687 28.39497 L 100.85579 28.39497 L 100.99469 28.39497 L 101.1336 28.39497 L 101.2725 28.39497 L 101.41142 28.39497 L 101.55034 28.39497 L 101.68924 28.39497 L 101.82816 28.39497 L 101.96706 28.39497 L 102.10597 28.39497 L 102.24489 28.39497 L 102.38377 28.39497 L 102.52269 28.39497 L 102.66158 28.39497 L 102.8005 28.39497 L 102.93942 28.39497 L 103.07831 28.39497 L 103.21722 28.39497 L 103.35612 28.39497 L 103.49504 28.39497 L 103.63396 28.39497 L 103.77286 28.39497 L 103.91177 28.39497 L 104.05067 28.39497 L 104.18959 28.39497 L 104.3285 28.39497 L 104.4674 28.39497 L 104.60632 28.39497 L 104.74521 28.39497 L 104.88414 28.39497 L 105.02306 28.39497 L 105.16194 28.39497 L 105.30087 28.39497 L 105.43976 28.39497 L 105.57867 28.39497 L 105.71759 28.39497 L 105.85649 28.39497 L 105.9954 28.39497 L 106.13431 28.39497 L 106.27322 28.39497 L 106.41214 28.39497 L 106.55103 28.39497 L 106.68996 28.39497 L 106.82884 28.39497 L 106.96776 28.39497 L 107.10669 28.39497 L 107.24557 28.39497 L 107.38449 28.39497 L 107.52339 28.39497 L 107.66231 28.39497 L 107.80122 28.39497 L 107.94012 28.39497 L 108.07904 28.39497 L 108.21794 28.39497 L 108.35686 28.39497 L 108.49577 28.39497 L 108.63467 28.39497 L 108.77357 28.39497 L 108.91248 28.39497 L 109.05139 28.39497 L 109.1903 28.39497 L 109.3292 28.39497 L 109.46811 28.39497 L 109.60701 28.39497 L 109.74593 28.39497 L 109.88484 28.39497 L 110.02374 28.39497 L 110.16266 28.39497 L 110.30156 28.39497 L 110.44048 28.39497 L 110.57939 28.39497 L 110.71829 28.39497 L 110.85721 28.39497 L 110.99611 28.39497 L 111.13503 28.39497 L 111.27393 28.39497 L 111.41283 28.39497 L 111.55174 28.39497 L 111.69064 28.39497 L 111.82956 28.39497 L 111.96848 28.39497 L 112.10738 28.39497 L 112.24629 28.39497 L 112.3852 28.39497 L 112.52411 28.39497 L 112.66302 28.39497 L 112.80193 28.39497 L 112.94084 28.39497 L 113.07973 28.39497 L 113.21866 28.39497 L 113.35757 28.39497 L 113.49646 28.39497 L 113.63539 28.39497 L 113.77428 28.39497 L 113.9132 28.39497 L 114.05211 28.39497 L 114.19101 28.39497 L 114.32993 28.39497 L 114.46883 28.39497 L 114.60774 28.39497 L 114.74666 28.39497 L 114.88556 28.39497 L 115.02448 28.39497 L 115.16336 28.39497 L 115.30229 28.39497 L 115.44121 28.39497 L 115.5801 28.39497 L 115.71902 28.39497 L 115.85791 28.39497 L 115.99683 28.39497 L 116.13574 28.39497 L 116.27463 28.39497 L 116.41354 28.39497 L 116.55244 28.39497 L 116.69136 28.39497 L 116.83028 28.39497 L 116.96916 28.39497 L 117.1081 28.39497 L 117.24698 28.39497 L 117.3859 28.39497 L 117.52483 28.39497 L 117.66371 28.39497 L 117.80263 28.39497 L 117.94153 28.39497 L 118.08044 28.39497 L 118.21936 28.39497 L 118.35826 28.39497 L 118.49718 28.39497 L 118.63608 28.39497 L 118.775 28.39497 L 118.91391 28.39497 L 119.05281 28.39497 L 119.19173 28.39497 L 119.33063 28.39497 L 119.46953 28.39497 L 119.60844 28.39497 L 119.74734 28.39497 L 119.88626 28.39497 L 120.02516 28.39497 L 120.16408 28.39497 L 120.303 28.39497 L 120.4419 28.39497 L 120.58081 28.39497 L 120.71971 28.39497 L 120.85863 28.39497 L 120.99754 28.39497 L 121.13644 28.39497 L 121.27536 28.39497 L 121.41426 28.39497 L 121.55318 28.39497 L 121.6921 28.39497 L 121.831 28.39497 L 121.9699 28.39497 L 122.1088 28.39497 L 122.24771 28.39497 L 122.38663 28.39497 L 122.52553 28.39497 L 122.66444 28.39497 L 122.80334 28.39497 L 122.94225 28.39497 L 123.08116 28.39497 L 123.22006 28.39497 L 123.35898 28.39497 L 123.49786 28.39497 L 123.6368 28.39497 L 123.77571 28.39497 L 123.9146 28.39497 L 124.05353 28.39497 L 124.19241 28.39497 L 124.33133 28.39497 L 124.47025 28.39497 L 124.60915 28.39497 L 124.74806 28.39497 L 124.88696 28.39497 L 125.02588 28.39497 L 125.1648 28.39497 L 125.3037 28.39497 L 125.44261 28.39497 L 125.5815 28.39497 L 125.72043 28.39497 L 125.85934 28.39497 L 125.99823 28.39497 L 126.13715 28.39497 L 126.27605 28.39497 L 126.41496 28.39497 L 126.55388 28.39497 L 126.69278 28.39497 L 126.8317 28.39497 L 126.9706 28.39497 L 127.10951 28.39497 L 127.24843 28.39497 L 127.38733 28.39497 L 127.52625 28.39497 L 127.66513 28.39497 L 127.80405 28.39497 L 127.94298 28.39497 L 128.08187 28.39497 L 128.22078 28.39497 L 128.35968 28.39497 L 128.4986 28.39497 L 128.63751 28.39497 L 128.77642 28.39497 L 128.91533 28.39497 L 129.05423 28.39497 L 129.19315 28.39497 L 129.33206 28.39497 L 129.47097 28.39497 L 129.60988 28.39497 L 129.74877 28.39497 L 129.88768 28.39497 L 130.0266 28.39497 L 130.1655 28.39497 L 130.3044 28.39497 L 130.4433 28.39497 L 130.58222 28.39497 L 130.72113 28.39497 L 130.86003 28.39497 L 130.99895 28.39497 L 131.13785 28.39497 L 131.27677 28.39497 L 131.41568 28.39497 L 131.55458 28.39497 L 131.6935 28.39497 L 131.8324 28.39497 "/>
<symbol id="font_2_1">
<path d="M .07700001 .07700001 L .18300002 .18 C .33900003 .31800003 .39900003 .372 .39900003 .47200004 C .39900003 .586 .30900003 .666 .18700002 .666 C .074 .666 0 .574 0 .485 C 0 .42900003 .05 .42900003 .053000008 .42900003 C .07000001 .42900003 .105000007 .441 .105000007 .48200003 C .105000007 .508 .08700001 .53400006 .052000006 .53400006 C .044000005 .53400006 .042000008 .53400006 .039 .53300008 C .062000004 .59800007 .11600001 .63500007 .17400001 .63500007 C .26500003 .63500007 .308 .554 .308 .47200004 C .308 .39200003 .25800003 .31300003 .20300003 .25100003 L .011000004 .037 C 0 .026 0 .024 0 0 L .37100003 0 L .39900003 .17400001 L .374 .17400001 C .36900003 .14400001 .36200003 .1 .352 .085 C .345 .07700001 .279 .07700001 .257 .07700001 L .07700001 .07700001 Z "/>
</symbol>
<use xlink:href="#font_2_1" transform="matrix(27.673888,0,0,-27.673888,370.9809,431.39723)"/>
</g>
<symbol id="font_3_1">
<path d="M .305 .31300003 C .311 .33900003 .334 .43100003 .404 .43100003 C .409 .43100003 .433 .43100003 .454 .418 C .426 .41300003 .40600003 .388 .40600003 .36400003 C .40600003 .34800003 .417 .32900004 .444 .32900004 C .46600003 .32900004 .498 .34700004 .498 .38700003 C .498 .43900005 .439 .45300005 .405 .45300005 C .347 .45300005 .312 .40000005 .3 .37700004 C .275 .44300003 .221 .45300005 .19200002 .45300005 C .08800001 .45300005 .031000002 .32400004 .031000002 .29900003 C .031000002 .28900004 .041 .28900004 .043000007 .28900004 C .051000008 .28900004 .054000006 .291 .056 .3 C .09 .40600003 .156 .43100003 .19000001 .43100003 C .209 .43100003 .244 .42200003 .244 .36400003 C .244 .33300004 .22700002 .26600004 .19000001 .126 C .17400001 .064 .13900002 .022000002 .095000009 .022000002 C .08900001 .022000002 .06600001 .022000002 .045 .035 C .07000001 .040000004 .09200001 .061 .09200001 .089 C .09200001 .116000007 .07000001 .124000009 .055000009 .124000009 C .025 .124000009 0 .098000008 0 .06600001 C 0 .020000002 .050000006 0 .094000007 0 C .16000001 0 .19600001 .07000001 .19900002 .076000008 C .21100001 .039 .24700003 0 .307 0 C .41 0 .467 .12900001 .467 .15400002 C .467 .16400002 .458 .16400002 .455 .16400002 C .446 .16400002 .444 .16000001 .442 .15300001 C .409 .046 .341 .022000002 .30900003 .022000002 C .27 .022000002 .254 .054 .254 .08800001 C .254 .11000001 .26 .13200002 .271 .17600002 L .305 .31300003 Z "/>
</symbol>
<use xlink:href="#font_3_1" transform="matrix(27.673888,0,0,-27.673888,560.6469,427.8072)"/>
<symbol id="font_3_2">
<path d="M .45700003 .586 C .461 .6 .461 .602 .461 .609 C .461 .62700006 .447 .63600006 .432 .63600006 C .42200003 .63600006 .40600003 .63 .397 .615 C .395 .61 .387 .579 .38300003 .561 C .37600003 .535 .36900003 .508 .363 .48100005 L .318 .301 C .314 .286 .271 .21600002 .20500002 .21600002 C .15400002 .21600002 .143 .26000003 .143 .29700003 C .143 .34300003 .16000001 .40500004 .194 .49300004 C .21000001 .53400006 .21400002 .545 .21400002 .56500008 C .21400002 .61 .18200001 .6470001 .13200002 .6470001 C .037 .6470001 0 .50200006 0 .49300004 C 0 .48300005 .01 .48300005 .012 .48300005 C .022000002 .48300005 .023 .485 .028000003 .50100007 C .055000009 .595 .095000009 .625 .12900001 .625 C .13700001 .625 .15400002 .625 .15400002 .59300008 C .15400002 .568 .14400001 .54200008 .13700001 .523 C .097 .41700004 .079 .36 .079 .31300003 C .079 .224 .142 .194 .201 .194 C .24000003 .194 .274 .21100001 .30200003 .23900002 C .289 .187 .277 .13800001 .237 .08500001 C .21100001 .051 .17300001 .022 .127 .022 C .113000009 .022 .068 .025000006 .051000008 .06400001 C .067 .06400001 .080000009 .06400001 .094000007 .076000008 C .104 .08500001 .11400001 .098000008 .11400001 .117000009 C .11400001 .148 .087000008 .15200001 .07700001 .15200001 C .054000006 .15200001 .021 .136 .021 .087000008 C .021 .037 .065000008 0 .127 0 C .23 0 .333 .091000009 .361 .20400001 L .45700003 .586 Z "/>
</symbol>
<use xlink:href="#font_3_2" transform="matrix(27.673888,0,0,-27.673888,96.03032,26.812033)"/>
</g>
</svg>
