<?xml version="1.0" encoding="UTF-8" standalone="no"?>
<!DOCTYPE svg PUBLIC "-//W3C//DTD SVG 1.1//EN" "http://www.w3.org/Graphics/SVG/1.1/DTD/svg11.dtd">
<svg xmlns="http://www.w3.org/2000/svg" xmlns:xlink="http://www.w3.org/1999/xlink" version="1.1" width="603.3083pt" height="485.78608pt" viewBox="0 0 603.3083 485.78608">
<g enable-background="new">
<path transform="matrix(2.7777777,0,0,-2.7777777,28.780554,484.67774)" stroke-width=".79701" stroke-linecap="butt" stroke-miterlimit="10" stroke-linejoin="miter" fill="none" stroke="#000000" d="M 0 33.5369 L 191.68268 33.5369 "/>
<path transform="matrix(2.7777777,0,0,-2.7777777,561.2323,391.5197)" d="M 2.59026 0 L -1.55415 2.0722 L 0 0 L -1.55415 -2.0722 "/>
<path transform="matrix(2.7777777,0,0,-2.7777777,28.780554,484.67774)" stroke-width=".79701" stroke-linecap="butt" stroke-miterlimit="10" stroke-linejoin="miter" fill="none" stroke="#000000" d="M 27.75294 0 L 27.75294 158.80715 "/>
<path transform="matrix(0,-2.7777222,-2.7777222,-0,105.87205,43.546804)" d="M 2.59026 0 L -1.55415 2.0722 L 0 0 L -1.55415 -2.0722 "/>
<clipPath id="cp0">
<path transform="matrix(2.7777777,0,0,-2.7777777,28.780554,484.67774)" d="M 0 0 L 194.2729 0 L 194.2729 161.39736 L 0 161.39736 Z "/>
</clipPath>
<g clip-path="url(#cp0)">
<path transform="matrix(2.7777777,0,0,-2.7777777,28.780554,484.67774)" d="M 34.69113 83.92926 L 34.82309 84.05725 L 34.95505 84.18477 L 35.087 84.31174 L 35.21898 84.4382 L 35.35094 84.5641 L 35.48288 84.68942 L 35.61485 84.81433 L 35.74683 84.9387 L 35.87877 85.06259 L 36.01073 85.18591 L 36.1427 85.30873 L 36.27466 85.43108 L 36.40662 85.55287 L 36.53857 85.67418 L 36.67053 85.79495 L 36.8025 85.91522 L 36.93446 86.03497 L 37.0664 86.15422 L 37.19838 86.27289 L 37.33035 86.39114 L 37.46231 86.50883 L 37.59425 86.62608 L 37.72623 86.74281 L 37.8582 86.85905 L 37.99014 86.97475 L 38.1221 87.08997 L 38.25407 87.20468 L 38.38603 87.31891 L 38.51799 87.43262 L 38.64995 87.54584 L 38.7819 87.65857 L 38.91388 87.77069 L 39.04584 87.88245 L 39.17778 87.99368 L 39.30975 88.10443 L 39.44173 88.21466 L 39.57367 88.3244 L 39.70563 88.43367 L 39.8376 88.54245 L 39.96956 88.65074 L 40.10152 88.75851 L 40.23347 88.86584 L 40.36545 88.97266 L 40.4974 89.07901 L 40.62936 89.18484 L 40.76132 89.29016 L 40.89328 89.39503 L 41.02524 89.49942 L 41.15721 89.60336 L 41.28917 89.70679 L 41.42113 89.80975 L 41.55309 89.91223 L 41.68504 90.01422 L 41.81702 90.11574 L 41.94897 90.21678 L 42.08092 90.31737 L 42.21289 90.41745 L 42.34486 90.51703 L 42.4768 90.61624 L 42.60876 90.71484 L 42.74074 90.81305 L 42.8727 90.91078 L 43.00465 91.00807 L 43.13661 91.10484 L 43.26859 91.20117 L 43.40054 91.29704 L 43.5325 91.39244 L 43.66446 91.48737 L 43.79642 91.58183 L 43.92839 91.67583 L 44.06035 91.76936 L 44.19229 91.86246 L 44.32426 91.95503 L 44.45624 92.04718 L 44.58818 92.13889 L 44.72014 92.2301 L 44.85211 92.32089 L 44.98407 92.41122 L 45.11603 92.5011 L 45.24799 92.5905 L 45.37994 92.67946 L 45.51192 92.76799 L 45.64388 92.85603 L 45.77582 92.94363 L 45.90779 93.03079 L 46.03976 93.11745 L 46.1717 93.2037 L 46.30367 93.2895 L 46.43564 93.37486 L 46.56761 93.45978 L 46.69955 93.54425 L 46.83151 93.62828 L 46.96349 93.71185 L 47.09544 93.79498 L 47.2274 93.8777 L 47.35936 93.95995 L 47.49132 94.04176 L 47.62328 94.12311 L 47.75525 94.20403 L 47.8872 94.28453 L 48.01918 94.36458 L 48.15112 94.44423 L 48.28308 94.52342 L 48.41504 94.60217 L 48.54701 94.6805 L 48.67897 94.75838 L 48.81093 94.83585 L 48.9429 94.91287 L 49.07484 94.98947 L 49.2068 95.06566 L 49.33878 95.14139 L 49.47073 95.21667 L 49.60269 95.29156 L 49.73465 95.36604 L 49.86662 95.44006 L 49.99858 95.51369 L 50.13054 95.58687 L 50.26251 95.65965 L 50.39444 95.73203 L 50.52643 95.80392 L 50.65839 95.87544 L 50.79033 95.94655 L 50.9223 96.01721 L 51.05426 96.08743 L 51.18622 96.15727 L 51.31819 96.2267 L 51.45015 96.29573 L 51.5821 96.36433 L 51.71405 96.43251 L 51.84602 96.50029 L 51.978 96.56766 L 52.10994 96.63461 L 52.24191 96.70114 L 52.37387 96.76729 L 52.50583 96.83302 L 52.6378 96.89835 L 52.76976 96.96327 L 52.90172 97.02773 L 53.03368 97.09187 L 53.16565 97.15556 L 53.29759 97.21886 L 53.42955 97.28177 L 53.56152 97.34428 L 53.69347 97.40639 L 53.82544 97.46808 L 53.95741 97.52939 L 54.08936 97.5903 L 54.22133 97.65083 L 54.35327 97.71094 L 54.48524 97.77066 L 54.61722 97.83 L 54.74916 97.8889 L 54.88112 97.94745 L 55.01308 98.00562 L 55.14505 98.06339 L 55.27702 98.12077 L 55.40897 98.17776 L 55.54094 98.23436 L 55.6729 98.29057 L 55.80484 98.3464 L 55.93681 98.40186 L 56.06877 98.45691 L 56.20073 98.5116 L 56.33269 98.56587 L 56.46466 98.61977 L 56.59662 98.67331 L 56.72858 98.72646 L 56.86055 98.77924 L 56.99248 98.83163 L 57.12447 98.88367 L 57.25644 98.9353 L 57.38837 98.9866 L 57.52034 99.03748 L 57.6523 99.08801 L 57.78426 99.13815 L 57.91623 99.18793 L 58.04819 99.2373 L 58.18015 99.28638 L 58.31209 99.33502 L 58.44406 99.3833 L 58.57605 99.43124 L 58.70798 99.47882 L 58.83995 99.526 L 58.97191 99.57285 L 59.10387 99.61932 L 59.23584 99.66544 L 59.3678 99.71118 L 59.49976 99.75656 L 59.63171 99.80156 L 59.76369 99.84627 L 59.89563 99.89055 L 60.02759 99.93448 L 60.15956 99.97807 L 60.2915 100.0213 L 60.42348 100.0642 L 60.55545 100.1067 L 60.6874 100.14888 L 60.81937 100.1907 L 60.95131 100.23216 L 61.08328 100.27328 L 61.21526 100.31404 L 61.3472 100.35446 L 61.47917 100.39455 L 61.61111 100.43423 L 61.74309 100.4736 L 61.87506 100.51263 L 62.007 100.5513 L 62.13898 100.58965 L 62.27094 100.62766 L 62.40288 100.6653 L 62.53487 100.70262 L 62.66681 100.7396 L 62.79877 100.77621 L 62.93073 100.81252 L 63.0627 100.84846 L 63.19466 100.88408 L 63.32661 100.91934 L 63.45859 100.95428 L 63.59052 100.98889 L 63.7225 101.02318 L 63.85448 101.05713 L 63.9864 101.09073 L 64.11838 101.12402 L 64.25034 101.15697 L 64.38231 101.18959 L 64.51427 101.22188 L 64.64622 101.25385 L 64.7782 101.28549 L 64.91013 101.31679 L 65.0421 101.34776 L 65.17409 101.37846 L 65.30602 101.40877 L 65.43799 101.4388 L 65.56995 101.46849 L 65.7019 101.49785 L 65.83388 101.52692 L 65.96584 101.55565 L 66.0978 101.58408 L 66.22975 101.61217 L 66.36172 101.63995 L 66.49367 101.66742 L 66.62563 101.69458 L 66.7576 101.72144 L 66.88954 101.74794 L 67.02151 101.77415 L 67.15349 101.80005 L 67.28543 101.82564 L 67.4174 101.85094 L 67.54935 101.87592 L 67.68134 101.90059 L 67.8133 101.92494 L 67.94524 101.94899 L 68.07721 101.97275 L 68.20915 101.99615 L 68.34113 102.01935 L 68.4731 102.04218 L 68.60504 102.06471 L 68.73701 102.08693 L 68.86897 102.10889 L 69.00092 102.13052 L 69.1329 102.15186 L 69.26485 102.1729 L 69.3968 102.19365 L 69.52876 102.2141 L 69.66074 102.23425 L 69.7927 102.2541 L 69.92465 102.27368 L 70.05663 102.29297 L 70.18855 102.31194 L 70.32054 102.33064 L 70.4525 102.34904 L 70.58446 102.36717 L 70.71642 102.385 L 70.84837 102.40253 L 70.98035 102.4198 L 71.1123 102.43677 L 71.24426 102.45343 L 71.37624 102.46983 L 71.50816 102.48596 L 71.64014 102.5018 L 71.77213 102.51736 L 71.90405 102.53262 L 72.03603 102.54764 L 72.16798 102.56236 L 72.29994 102.5768 L 72.43192 102.59097 L 72.56387 102.60484 L 72.69583 102.61847 L 72.82779 102.63182 L 72.95976 102.64488 L 73.0917 102.65767 L 73.22366 102.67018 L 73.35564 102.68243 L 73.4876 102.69443 L 73.61955 102.70615 L 73.75153 102.71759 L 73.88348 102.72878 L 74.01544 102.73967 L 74.14738 102.75035 L 74.27937 102.76071 L 74.41133 102.77084 L 74.54327 102.78069 L 74.67525 102.79028 L 74.80719 102.79964 L 74.93916 102.8087 L 75.07114 102.81752 L 75.20308 102.82608 L 75.33505 102.83438 L 75.46701 102.84242 L 75.59895 102.8502 L 75.73094 102.85774 L 75.86288 102.86502 L 75.99484 102.87204 L 76.1268 102.87881 L 76.25877 102.88533 L 76.39075 102.89162 L 76.52269 102.89763 L 76.65466 102.9034 L 76.7866 102.90892 L 76.91858 102.9142 L 77.05055 102.91922 L 77.1825 102.92401 L 77.31445 102.92856 L 77.44641 102.93286 L 77.57838 102.9369 L 77.71034 102.94072 L 77.8423 102.94429 L 77.97427 102.94762 L 78.1062 102.95071 L 78.23817 102.95357 L 78.37016 102.95616 L 78.50209 102.95856 L 78.63406 102.9607 L 78.76602 102.9626 L 78.89798 102.96428 L 79.02995 102.96571 L 79.16191 102.96692 L 79.29387 102.9679 L 79.42583 102.96864 L 79.5578 102.96916 L 79.68976 102.96945 L 79.8217 102.9695 L 79.95367 102.96933 L 80.08563 102.96893 L 80.21759 102.9683 L 80.34956 102.96747 L 80.48152 102.9664 L 80.61348 102.96509 L 80.74542 102.9636 L 80.87741 102.96187 L 81.00937 102.95992 L 81.14131 102.95772 L 81.27328 102.95535 L 81.40523 102.95271 L 81.5372 102.94989 L 81.66917 102.94685 L 81.80112 102.94359 L 81.93309 102.94011 L 82.06505 102.93642 L 82.19699 102.93253 L 82.32898 102.9284 L 82.46092 102.92409 L 82.5929 102.91954 L 82.72484 102.91481 L 82.85681 102.90987 L 82.98878 102.90471 L 83.12073 102.89934 L 83.2527 102.89378 L 83.38466 102.888 L 83.51662 102.882 L 83.64859 102.87584 L 83.78053 102.86946 L 83.91249 102.86287 L 84.04445 102.8561 L 84.17642 102.8491 L 84.30838 102.8419 L 84.44034 102.83453 L 84.57231 102.82697 L 84.70424 102.81918 L 84.83621 102.81122 L 84.9682 102.80305 L 85.10013 102.7947 L 85.2321 102.78615 L 85.36406 102.7774 L 85.49603 102.76846 L 85.62799 102.75935 L 85.75995 102.75005 L 85.89192 102.74052 L 86.02386 102.73083 L 86.15584 102.72098 L 86.2878 102.71092 L 86.41974 102.70067 L 86.55171 102.69023 L 86.68367 102.67963 L 86.81563 102.66884 L 86.9476 102.65784 L 87.07956 102.6467 L 87.21152 102.63536 L 87.34346 102.62386 L 87.47545 102.61217 L 87.6074 102.60027 L 87.73935 102.58824 L 87.87132 102.576 L 88.00327 102.56361 L 88.13524 102.55106 L 88.26721 102.53831 L 88.39915 102.5254 L 88.53113 102.51231 L 88.66309 102.49904 L 88.79504 102.48564 L 88.92702 102.47203 L 89.05896 102.45827 L 89.19093 102.44435 L 89.32288 102.43027 L 89.45485 102.416 L 89.58682 102.40158 L 89.71877 102.387 L 89.85074 102.37224 L 89.9827 102.35735 L 90.11465 102.34227 L 90.24661 102.32703 L 90.37857 102.31163 L 90.51053 102.2961 L 90.64249 102.2804 L 90.77446 102.26453 L 90.90642 102.24852 L 91.03838 102.23235 L 91.17035 102.21605 L 91.30228 102.19955 L 91.43425 102.18292 L 91.56624 102.16615 L 91.69818 102.14922 L 91.83014 102.13213 L 91.9621 102.1149 L 92.09407 102.09753 L 92.22603 102.08002 L 92.35799 102.06233 L 92.48996 102.04454 L 92.6219 102.02657 L 92.75388 102.00845 L 92.88583 101.99022 L 93.01778 101.97183 L 93.14975 101.95332 L 93.28171 101.93465 L 93.41367 101.91583 L 93.54564 101.89691 L 93.6776 101.87782 L 93.80956 101.85861 L 93.9415 101.83926 L 94.07349 101.81976 L 94.20544 101.80014 L 94.33739 101.78038 L 94.46936 101.76051 L 94.60132 101.7405 L 94.73328 101.72035 L 94.86525 101.70007 L 94.99721 101.67967 L 95.12917 101.65913 L 95.26112 101.63847 L 95.39308 101.61769 L 95.52505 101.59677 L 95.657 101.57574 L 95.78897 101.5546 L 95.92091 101.53331 L 96.05289 101.51189 L 96.18486 101.49036 L 96.3168 101.46875 L 96.44878 101.44696 L 96.58073 101.42508 L 96.71269 101.4031 L 96.84465 101.38098 L 96.97661 101.35876 L 97.10857 101.3364 L 97.24052 101.31395 L 97.3725 101.29137 L 97.50447 101.26869 L 97.63641 101.24588 L 97.76839 101.22298 L 97.90033 101.19997 L 98.03229 101.17685 L 98.16428 101.15361 L 98.29622 101.13026 L 98.42818 101.10683 L 98.56013 101.08328 L 98.69211 101.05963 L 98.82407 101.03586 L 98.95602 101.012 L 99.088 100.98804 L 99.21994 100.96397 L 99.35191 100.9398 L 99.48387 100.91554 L 99.61581 100.89119 L 99.74779 100.86671 L 99.87975 100.84218 L 100.0117 100.81752 L 100.14368 100.79277 L 100.27563 100.76793 L 100.4076 100.743 L 100.53954 100.71797 L 100.67152 100.69286 L 100.8035 100.66765 L 100.93542 100.64235 L 101.0674 100.61697 L 101.19936 100.59149 L 101.33131 100.56593 L 101.46329 100.54027 L 101.59525 100.51456 L 101.7272 100.48875 L 101.85916 100.46284 L 101.99112 100.43684 L 102.1231 100.4108 L 102.25504 100.38464 L 102.38701 100.35843 L 102.51895 100.3321 L 102.65092 100.30571 L 102.7829 100.27925 L 102.91484 100.25272 L 103.04681 100.2261 L 103.17877 100.19942 L 103.31073 100.17265 L 103.4427 100.14583 L 103.57465 100.1189 L 103.70662 100.09193 L 103.83856 100.06488 L 103.97054 100.03777 L 104.10251 100.01056 L 104.23445 99.9833 L 104.36642 99.95598 L 104.49837 99.92859 L 104.63034 99.90114 L 104.76231 99.8736 L 104.89426 99.84602 L 105.02621 99.81837 L 105.15817 99.79068 L 105.29015 99.7629 L 105.4221 99.73506 L 105.55406 99.70718 L 105.68604 99.67923 L 105.81798 99.65123 L 105.94995 99.62317 L 106.08191 99.59502 L 106.21385 99.56686 L 106.34583 99.53862 L 106.47778 99.51035 L 106.60976 99.48201 L 106.74171 99.45363 L 106.87367 99.4252 L 107.00565 99.39671 L 107.13757 99.36816 L 107.26956 99.33958 L 107.40154 99.31094 L 107.53346 99.28227 L 107.66544 99.25356 L 107.7974 99.22478 L 107.92935 99.19597 L 108.06133 99.16711 L 108.19328 99.1382 L 108.32524 99.10927 L 108.4572 99.08032 L 108.58916 99.0513 L 108.72113 99.02222 L 108.85307 98.99315 L 108.98505 98.964 L 109.11699 98.93483 L 109.24896 98.90564 L 109.38094 98.87639 L 109.51288 98.84712 L 109.64485 98.81783 L 109.77681 98.78848 L 109.90878 98.75912 L 110.04073 98.72972 L 110.17268 98.7003 L 110.30466 98.67085 L 110.4366 98.64137 L 110.56857 98.61186 L 110.70055 98.58234 L 110.83249 98.55278 L 110.96446 98.5232 L 111.0964 98.49359 L 111.22838 98.46397 L 111.36035 98.43431 L 111.4923 98.40465 L 111.62425 98.37494 L 111.75621 98.34526 L 111.88818 98.31554 L 112.02014 98.28578 L 112.1521 98.25603 L 112.28407 98.22626 L 112.41602 98.19646 L 112.54799 98.16667 L 112.67995 98.13687 L 112.8119 98.10704 L 112.94386 98.0772 L 113.07582 98.04735 L 113.2078 98.01749 L 113.33975 97.98763 L 113.47171 97.95775 L 113.60368 97.92789 L 113.73561 97.89801 L 113.8676 97.86812 L 113.99957 97.83823 L 114.1315 97.80832 L 114.26347 97.77841 L 114.39543 97.74852 L 114.52739 97.71863 L 114.65936 97.68872 L 114.79132 97.65883 L 114.92328 97.62894 L 115.05524 97.59901 L 115.1872 97.56914 L 115.31917 97.53926 L 115.45111 97.50938 L 115.58308 97.4795 L 115.71504 97.44965 L 115.847 97.41978 L 115.97897 97.38994 L 116.11093 97.3601 L 116.24289 97.33026 L 116.37485 97.30045 L 116.50682 97.27066 L 116.63876 97.24086 L 116.77072 97.21107 L 116.9027 97.18132 L 117.03464 97.15158 L 117.16661 97.12183 L 117.29858 97.09212 L 117.43053 97.06244 L 117.5625 97.03278 L 117.69444 97.0031 L 117.82642 96.97348 L 117.95839 96.94388 L 118.09033 96.91429 L 118.22229 96.88472 L 118.35425 96.8552 L 118.48622 96.82567 L 118.61818 96.79617 L 118.75014 96.76671 L 118.88211 96.73727 L 119.01407 96.70789 L 119.14603 96.67851 L 119.27798 96.64915 L 119.40994 96.61984 L 119.5419 96.59056 L 119.67386 96.56131 L 119.80583 96.53212 L 119.93779 96.50293 L 120.06975 96.4738 L 120.20172 96.44469 L 120.33365 96.41562 L 120.46564 96.38658 L 120.59761 96.35759 L 120.72954 96.32864 L 120.86151 96.29974 L 120.99347 96.27087 L 121.12543 96.24207 L 121.2574 96.21327 L 121.38936 96.18454 L 121.52132 96.15585 L 121.65327 96.12721 L 121.78523 96.0986 L 121.91722 96.07005 L 122.04915 96.04155 L 122.18112 96.0131 L 122.31308 95.98471 L 122.44504 95.95633 L 122.57701 95.92805 L 122.70897 95.89981 L 122.84093 95.87161 L 122.97289 95.84348 L 123.10486 95.8154 L 123.2368 95.78738 L 123.36876 95.75941 L 123.50073 95.7315 L 123.63268 95.70366 L 123.76465 95.67586 L 123.89662 95.64813 L 124.02856 95.62048 L 124.16054 95.59288 L 124.29248 95.56532 L 124.42445 95.53786 L 124.55643 95.51045 L 124.68837 95.48311 L 124.82034 95.45581 L 124.95229 95.42862 L 125.08426 95.40149 L 125.21623 95.3744 L 125.34818 95.3474 L 125.48015 95.32047 L 125.6121 95.29361 L 125.74406 95.26683 L 125.87602 95.24013 L 126.00798 95.2135 L 126.13994 95.18694 L 126.2719 95.16046 L 126.40387 95.13403 L 126.53583 95.1077 L 126.66779 95.08145 L 126.79976 95.05528 L 126.93169 95.02919 L 127.06367 95.00319 L 127.19565 94.97726 L 127.32758 94.95143 L 127.45955 94.92566 L 127.5915 94.90001 L 127.72348 94.87442 L 127.85544 94.84892 L 127.9874 94.8235 L 128.11937 94.79819 L 128.25131 94.77295 L 128.38327 94.7478 L 128.51526 94.72276 L 128.64719 94.6978 L 128.77916 94.67293 L 128.91112 94.64815 L 129.04308 94.62347 L 129.17505 94.59888 L 129.307 94.57442 L 129.43897 94.55002 L 129.57093 94.52573 L 129.7029 94.50154 L 129.83486 94.47745 L 129.9668 94.45346 L 130.09877 94.42957 L 130.23072 94.40576 L 130.36269 94.38208 L 130.49466 94.3585 L 130.6266 94.33502 L 130.75858 94.31165 L 130.89052 94.28839 L 131.0225 94.26523 L 131.15447 94.24217 L 131.2864 94.21925 L 131.41838 94.19644 L 131.55033 94.17372 L 131.6823 94.15111 L 131.81427 94.12862 L 131.94622 94.10625 L 132.07819 94.08397 L 132.21015 94.06183 L 132.3421 94.0398 L 132.47408 94.01788 L 132.60602 93.9961 L 132.73798 93.9744 L 132.86994 93.95285 L 133.0019 93.93143 L 133.13387 93.9101 L 133.26583 93.88892 L 133.3978 93.86783 L 133.52973 93.84688 L 133.66172 93.82605 L 133.79369 93.80536 L 133.92563 93.78479 L 134.05759 93.76436 L 134.18955 93.74405 L 134.32152 93.72385 L 134.45348 93.7038 L 134.58544 93.68388 L 134.7174 93.6641 L 134.84935 93.64444 L 134.98131 93.62492 L 135.1133 93.60553 L 135.24523 93.58626 L 135.3772 93.56715 L 135.50916 93.54817 L 135.64112 93.52931 L 135.77309 93.51064 L 135.90505 93.49205 L 136.037 93.47362 L 136.16896 93.45535 L 136.30094 93.43721 L 136.43289 93.4192 L 136.56485 93.40135 L 136.69681 93.38365 L 136.82877 93.36607 L 136.96073 93.34865 L 137.0927 93.33139 L 137.22466 93.31427 L 137.35662 93.29729 L 137.48856 93.28047 L 137.62055 93.26381 L 137.7525 93.24727 L 137.88445 93.23093 L 138.01642 93.21469 L 138.14836 93.19864 L 138.28034 93.18274 L 138.41231 93.16699 L 138.54425 93.1514 L 138.67623 93.13596 L 138.80818 93.1207 L 138.94014 93.10558 L 139.07212 93.09062 L 139.20406 93.07582 L 139.33602 93.06119 L 139.46797 93.0467 L 139.59995 93.03241 L 139.7319 93.01826 L 139.86386 93.00432 L 139.99584 92.99051 L 140.12778 92.97684 L 140.25975 92.9634 L 140.39173 92.95007 L 140.52367 92.93695 L 140.65563 92.92398 L 140.78759 92.91118 L 140.91956 92.89857 L 141.05152 92.88614 L 141.18347 92.87386 L 141.31545 92.86176 L 141.44739 92.84984 L 141.57935 92.8381 L 141.71134 92.82652 L 141.84326 92.81514 L 141.97524 92.80394 L 142.1072 92.79291 L 142.23915 92.78204 L 142.37113 92.77141 L 142.50308 92.76091 L 142.63504 92.75061 L 142.767 92.74051 L 142.89897 92.73058 L 143.03093 92.72084 L 143.16287 92.71129 L 143.29485 92.7019 L 143.4268 92.69273 L 143.55876 92.68375 L 143.69074 92.67496 L 143.8227 92.66635 L 143.95465 92.65793 L 144.0866 92.64972 L 144.21858 92.64168 L 144.35054 92.63385 L 144.48249 92.62622 L 144.61446 92.61879 L 144.7464 92.61157 L 144.87837 92.60452 L 145.01035 92.59766 L 145.14229 92.59103 L 145.27426 92.58458 L 145.40622 92.57835 L 145.53818 92.57231 L 145.67015 92.56648 L 145.8021 92.56085 L 145.93407 92.55542 L 146.06601 92.5502 L 146.19799 92.5452 L 146.32996 92.54039 L 146.4619 92.5358 L 146.59387 92.5314 L 146.72583 92.52725 L 146.85779 92.52328 L 146.98976 92.51953 L 147.1217 92.516 L 147.25366 92.51268 L 147.38562 92.50958 L 147.5176 92.5067 L 147.64955 92.50401 L 147.78151 92.50156 L 147.91349 92.49931 L 148.04543 92.4973 L 148.17739 92.49548 L 148.30937 92.49391 L 148.4413 92.49257 L 148.57328 92.49142 L 148.70523 92.49051 L 148.8372 92.48985 L 148.96916 92.4894 L 149.10112 92.48915 L 149.2331 92.48915 L 149.36504 92.48936 L 149.49701 92.48982 L 149.62897 92.49048 L 149.76093 92.4914 L 149.89289 92.49254 L 150.02484 92.49391 L 150.1568 92.49551 L 150.28878 92.49738 L 150.42073 92.49942 L 150.55269 92.50175 L 150.68463 92.50429 L 150.81662 92.50706 L 150.94858 92.5101 L 151.08052 92.51337 L 151.2125 92.51686 L 151.34444 92.5206 L 151.47641 92.5246 L 151.60839 92.52882 L 151.74033 92.53328 L 151.8723 92.53801 L 152.00426 92.54298 L 152.13623 92.54817 L 152.26819 92.55362 L 152.40013 92.55934 L 152.5321 92.56528 L 152.66405 92.57147 L 152.79602 92.57791 L 152.928 92.58461 L 153.05994 92.59158 L 153.19191 92.59879 L 153.32387 92.60623 L 153.45583 92.61395 L 153.5878 92.62192 L 153.71974 92.63014 L 153.8517 92.63864 L 153.98366 92.64738 L 154.11563 92.65637 L 154.24759 92.66563 L 154.37955 92.67516 L 154.51152 92.68495 L 154.64347 92.69499 L 154.77542 92.7053 L 154.90741 92.71587 L 155.03936 92.72672 L 155.17131 92.73782 L 155.30327 92.74919 L 155.43524 92.76083 L 155.5672 92.77272 L 155.69916 92.7849 L 155.83113 92.79735 L 155.96308 92.81007 L 156.09505 92.82307 L 156.22702 92.83633 L 156.35897 92.84985 L 156.49092 92.86368 L 156.62288 92.87776 L 156.75484 92.89212 L 156.88681 92.90678 L 157.01877 92.92168 L 157.15073 92.93689 L 157.28267 92.95236 L 157.41466 92.96812 L 157.54662 92.98416 L 157.67856 93.00047 L 157.81055 93.01709 L 157.94249 93.03397 L 158.07445 93.05115 L 158.20642 93.0686 L 158.33838 93.08635 L 158.47034 93.10439 L 158.6023 93.12271 L 158.73427 93.14133 L 158.86623 93.16022 L 158.99817 93.1794 L 159.13014 93.1989 L 159.26209 93.21867 L 159.39406 93.23874 L 159.52603 93.2591 L 159.65798 93.27979 L 159.78995 93.30074 L 159.9219 93.32199 L 160.05387 93.34355 L 160.18584 93.36539 L 160.31778 93.38756 L 160.44974 93.40999 L 160.5817 93.43275 L 160.71367 93.4558 L 160.84563 93.47916 L 160.97759 93.50282 L 161.10956 93.5268 L 161.24152 93.55107 L 161.37346 93.57565 L 161.50545 93.60054 L 161.63739 93.62573 L 161.76935 93.65123 L 161.9013 93.67705 L 162.03328 93.70317 L 162.16524 93.72961 L 162.2972 93.75635 L 162.42917 93.78343 L 162.56111 93.8108 L 162.69309 93.8385 L 162.82506 93.8665 L 162.95699 93.89485 L 163.08896 93.9235 L 163.22092 93.95244 L 163.35288 93.98172 L 163.48485 94.01132 L 163.6168 94.04126 L 163.74877 94.0715 L 163.8807 94.10207 L 164.0127 94.13295 L 164.14467 94.1642 L 164.2766 94.19571 L 164.40859 94.2276 L 164.54053 94.2598 L 164.67249 94.29231 L 164.80446 94.32518 L 164.93642 94.35837 L 165.06838 94.39189 L 165.20034 94.42575 L 165.3323 94.45992 L 165.46427 94.49443 L 165.5962 94.52927 L 165.72818 94.56447 L 165.86013 94.59998 L 165.9921 94.63582 L 166.12407 94.67203 L 166.25601 94.70856 L 166.38799 94.74542 L 166.5166 94.7817 L 166.5166 52.8601 L 166.38799 52.82384 L 166.25601 52.78697 L 166.12407 52.75044 L 165.9921 52.71423 L 165.86013 52.67839 L 165.72818 52.64288 L 165.5962 52.60768 L 165.46427 52.57285 L 165.3323 52.53833 L 165.20034 52.50417 L 165.06838 52.4703 L 164.93642 52.43678 L 164.80446 52.4036 L 164.67249 52.37073 L 164.54053 52.33821 L 164.40859 52.30602 L 164.2766 52.27412 L 164.14467 52.24261 L 164.0127 52.21136 L 163.8807 52.18048 L 163.74877 52.14992 L 163.6168 52.11967 L 163.48485 52.08974 L 163.35288 52.06013 L 163.22092 52.03087 L 163.08896 52.0019 L 162.95699 51.97327 L 162.82506 51.94493 L 162.69309 51.91692 L 162.56111 51.88922 L 162.42917 51.86185 L 162.2972 51.83478 L 162.16524 51.80803 L 162.03328 51.7816 L 161.9013 51.75546 L 161.76935 51.72964 L 161.63739 51.70416 L 161.50545 51.67896 L 161.37346 51.65407 L 161.24152 51.62949 L 161.10956 51.60521 L 160.97759 51.58124 L 160.84563 51.55757 L 160.71367 51.53421 L 160.5817 51.51117 L 160.44974 51.4884 L 160.31778 51.46597 L 160.18584 51.4438 L 160.05387 51.42197 L 159.9219 51.4004 L 159.78995 51.37915 L 159.65798 51.3582 L 159.52603 51.33751 L 159.39406 51.31715 L 159.26209 51.29709 L 159.13014 51.27731 L 158.99817 51.25781 L 158.86623 51.23865 L 158.73427 51.21974 L 158.6023 51.20113 L 158.47034 51.1828 L 158.33838 51.16476 L 158.20642 51.14702 L 158.07445 51.12956 L 157.94249 51.11238 L 157.81055 51.0955 L 157.67856 51.07889 L 157.54662 51.06258 L 157.41466 51.04654 L 157.28267 51.03078 L 157.15073 51.0153 L 157.01877 51.00009 L 156.88681 50.9852 L 156.75484 50.97054 L 156.62288 50.95618 L 156.49092 50.9421 L 156.35897 50.92828 L 156.22702 50.91475 L 156.09505 50.90149 L 155.96308 50.88849 L 155.83113 50.87576 L 155.69916 50.86331 L 155.5672 50.85114 L 155.43524 50.83925 L 155.30327 50.8276 L 155.17131 50.81624 L 155.03936 50.80513 L 154.90741 50.79428 L 154.77542 50.78372 L 154.64347 50.7734 L 154.51152 50.76337 L 154.37955 50.75357 L 154.24759 50.74405 L 154.11563 50.73479 L 153.98366 50.7258 L 153.8517 50.71706 L 153.71974 50.70856 L 153.5878 50.70033 L 153.45583 50.69237 L 153.32387 50.68465 L 153.19191 50.6772 L 153.05994 50.67 L 152.928 50.66304 L 152.79602 50.65633 L 152.66405 50.64989 L 152.5321 50.64369 L 152.40013 50.63776 L 152.26819 50.63203 L 152.13623 50.62659 L 152.00426 50.6214 L 151.8723 50.61642 L 151.74033 50.6117 L 151.60839 50.60724 L 151.47641 50.60301 L 151.34444 50.59901 L 151.2125 50.59528 L 151.08052 50.59178 L 150.94858 50.58852 L 150.81662 50.5855 L 150.68463 50.5827 L 150.55269 50.58017 L 150.42073 50.57784 L 150.28878 50.57579 L 150.1568 50.57393 L 150.02484 50.57233 L 149.89289 50.57095 L 149.76093 50.56981 L 149.62897 50.56891 L 149.49701 50.56824 L 149.36504 50.56778 L 149.2331 50.56757 L 149.10112 50.56757 L 148.96916 50.56781 L 148.8372 50.56827 L 148.70523 50.56894 L 148.57328 50.56984 L 148.4413 50.57098 L 148.30937 50.57233 L 148.17739 50.5739 L 148.04543 50.57571 L 147.91349 50.57773 L 147.78151 50.57997 L 147.64955 50.58243 L 147.5176 50.58511 L 147.38562 50.588 L 147.25366 50.5911 L 147.1217 50.59442 L 146.98976 50.59795 L 146.85779 50.60172 L 146.72583 50.60568 L 146.59387 50.60983 L 146.4619 50.61421 L 146.32996 50.6188 L 146.19799 50.62361 L 146.06601 50.62862 L 145.93407 50.63383 L 145.8021 50.63927 L 145.67015 50.6449 L 145.53818 50.65074 L 145.40622 50.65677 L 145.27426 50.66301 L 145.14229 50.66945 L 145.01035 50.67607 L 144.87837 50.68294 L 144.7464 50.68999 L 144.61446 50.6972 L 144.48249 50.70464 L 144.35054 50.71227 L 144.21858 50.72011 L 144.0866 50.72815 L 143.95465 50.73636 L 143.8227 50.74478 L 143.69074 50.75337 L 143.55876 50.76216 L 143.4268 50.77115 L 143.29485 50.78032 L 143.16287 50.7897 L 143.03093 50.79926 L 142.89897 50.80899 L 142.767 50.81892 L 142.63504 50.82903 L 142.50308 50.83932 L 142.37113 50.84982 L 142.23915 50.86046 L 142.1072 50.87134 L 141.97524 50.88235 L 141.84326 50.89355 L 141.71134 50.90494 L 141.57935 50.91652 L 141.44739 50.92827 L 141.31545 50.94017 L 141.18347 50.95227 L 141.05152 50.96455 L 140.91956 50.97699 L 140.78759 50.98961 L 140.65563 51.0024 L 140.52367 51.01537 L 140.39173 51.02849 L 140.25975 51.04181 L 140.12778 51.05525 L 139.99584 51.06892 L 139.86386 51.08273 L 139.7319 51.09668 L 139.59995 51.11082 L 139.46797 51.12512 L 139.33602 51.1396 L 139.20406 51.15424 L 139.07212 51.16904 L 138.94014 51.18399 L 138.80818 51.19911 L 138.67623 51.21437 L 138.54425 51.22981 L 138.41231 51.2454 L 138.28034 51.26115 L 138.14836 51.27705 L 138.01642 51.2931 L 137.88445 51.30934 L 137.7525 51.32568 L 137.62055 51.34222 L 137.48856 51.35889 L 137.35662 51.3757 L 137.22466 51.39268 L 137.0927 51.4098 L 136.96073 51.42706 L 136.82877 51.44449 L 136.69681 51.46207 L 136.56485 51.47977 L 136.43289 51.49762 L 136.30094 51.51563 L 136.16896 51.53377 L 136.037 51.55203 L 135.90505 51.57047 L 135.77309 51.58905 L 135.64112 51.60773 L 135.50916 51.6266 L 135.3772 51.64557 L 135.24523 51.66467 L 135.1133 51.68394 L 134.98131 51.70334 L 134.84935 51.72285 L 134.7174 51.74251 L 134.58544 51.7623 L 134.45348 51.78221 L 134.32152 51.80228 L 134.18955 51.82248 L 134.05759 51.84279 L 133.92563 51.86322 L 133.79369 51.88379 L 133.66172 51.90446 L 133.52973 51.9253 L 133.3978 51.94624 L 133.26583 51.96733 L 133.13387 51.98851 L 133.0019 52.00984 L 132.86994 52.03127 L 132.73798 52.05281 L 132.60602 52.07451 L 132.47408 52.0963 L 132.3421 52.11821 L 132.21015 52.14024 L 132.07819 52.16238 L 131.94622 52.18466 L 131.81427 52.20703 L 131.6823 52.22952 L 131.55033 52.25214 L 131.41838 52.27486 L 131.2864 52.29767 L 131.15447 52.3206 L 131.0225 52.34364 L 130.89052 52.3668 L 130.75858 52.39008 L 130.6266 52.41344 L 130.49466 52.43692 L 130.36269 52.4605 L 130.23072 52.48418 L 130.09877 52.50798 L 129.9668 52.53188 L 129.83486 52.55586 L 129.7029 52.57996 L 129.57093 52.60414 L 129.43897 52.62843 L 129.307 52.65283 L 129.17505 52.67729 L 129.04308 52.70189 L 128.91112 52.72656 L 128.77916 52.75134 L 128.64719 52.77621 L 128.51526 52.80118 L 128.38327 52.82622 L 128.25131 52.85138 L 128.11937 52.8766 L 127.9874 52.90192 L 127.85544 52.92734 L 127.72348 52.95284 L 127.5915 52.97842 L 127.45955 53.00407 L 127.32758 53.02985 L 127.19565 53.0557 L 127.06367 53.0816 L 126.93169 53.1076 L 126.79976 53.1337 L 126.66779 53.15987 L 126.53583 53.18613 L 126.40387 53.21245 L 126.2719 53.23888 L 126.13994 53.26535 L 126.00798 53.29192 L 125.87602 53.31854 L 125.74406 53.34525 L 125.6121 53.37202 L 125.48015 53.39888 L 125.34818 53.42581 L 125.21623 53.45282 L 125.08426 53.4799 L 124.95229 53.50703 L 124.82034 53.53423 L 124.68837 53.56152 L 124.55643 53.58887 L 124.42445 53.61627 L 124.29248 53.64375 L 124.16054 53.6713 L 124.02856 53.6989 L 123.89662 53.72655 L 123.76465 53.75427 L 123.63268 53.78207 L 123.50073 53.80992 L 123.36876 53.83783 L 123.2368 53.8658 L 123.10486 53.89381 L 122.97289 53.92189 L 122.84093 53.95003 L 122.70897 53.97824 L 122.57701 54.00647 L 122.44504 54.03474 L 122.31308 54.06313 L 122.18112 54.09152 L 122.04915 54.11996 L 121.91722 54.14847 L 121.78523 54.17702 L 121.65327 54.20563 L 121.52132 54.23427 L 121.38936 54.26295 L 121.2574 54.29169 L 121.12543 54.32048 L 120.99347 54.34929 L 120.86151 54.37816 L 120.72954 54.40707 L 120.59761 54.436 L 120.46564 54.465 L 120.33365 54.49403 L 120.20172 54.5231 L 120.06975 54.55222 L 119.93779 54.58134 L 119.80583 54.61053 L 119.67386 54.63974 L 119.5419 54.66898 L 119.40994 54.69826 L 119.27798 54.72757 L 119.14603 54.75693 L 119.01407 54.7863 L 118.88211 54.81569 L 118.75014 54.84512 L 118.61818 54.87459 L 118.48622 54.90408 L 118.35425 54.93361 L 118.22229 54.96313 L 118.09033 54.9927 L 117.95839 55.0223 L 117.82642 55.0519 L 117.69444 55.08151 L 117.5625 55.11119 L 117.43053 55.14085 L 117.29858 55.17055 L 117.16661 55.20024 L 117.03464 55.23 L 116.9027 55.25974 L 116.77072 55.28949 L 116.63876 55.31927 L 116.50682 55.34908 L 116.37485 55.37888 L 116.24289 55.40868 L 116.11093 55.43852 L 115.97897 55.46835 L 115.847 55.4982 L 115.71504 55.52806 L 115.58308 55.55792 L 115.45111 55.5878 L 115.31917 55.61768 L 115.1872 55.64755 L 115.05524 55.67743 L 114.92328 55.70735 L 114.79132 55.73724 L 114.65936 55.76714 L 114.52739 55.79704 L 114.39543 55.82693 L 114.26347 55.85683 L 114.1315 55.88673 L 113.99957 55.91664 L 113.8676 55.94655 L 113.73561 55.97643 L 113.60368 56.0063 L 113.47171 56.03618 L 113.33975 56.06604 L 113.2078 56.0959 L 113.07582 56.12576 L 112.94386 56.15561 L 112.8119 56.18546 L 112.67995 56.21529 L 112.54799 56.24509 L 112.41602 56.27487 L 112.28407 56.30467 L 112.1521 56.33446 L 112.02014 56.3642 L 111.88818 56.39395 L 111.75621 56.42368 L 111.62425 56.45335 L 111.4923 56.48306 L 111.36035 56.51273 L 111.22838 56.54239 L 111.0964 56.572 L 110.96446 56.60161 L 110.83249 56.6312 L 110.70055 56.66075 L 110.56857 56.69028 L 110.4366 56.71979 L 110.30466 56.74927 L 110.17268 56.77872 L 110.04073 56.80815 L 109.90878 56.83754 L 109.77681 56.8669 L 109.64485 56.89624 L 109.51288 56.92554 L 109.38094 56.95482 L 109.24896 56.98405 L 109.11699 57.01324 L 108.98505 57.04242 L 108.85307 57.07156 L 108.72113 57.10063 L 108.58916 57.12971 L 108.4572 57.15874 L 108.32524 57.1877 L 108.19328 57.21661 L 108.06133 57.24553 L 107.92935 57.27438 L 107.7974 57.30319 L 107.66544 57.33197 L 107.53346 57.36069 L 107.40154 57.38936 L 107.26956 57.418 L 107.13757 57.44658 L 107.00565 57.47513 L 106.87367 57.50362 L 106.74171 57.53204 L 106.60976 57.56042 L 106.47778 57.58876 L 106.34583 57.61703 L 106.21385 57.64528 L 106.08191 57.67345 L 105.94995 57.70158 L 105.81798 57.72964 L 105.68604 57.75764 L 105.55406 57.7856 L 105.4221 57.81348 L 105.29015 57.84131 L 105.15817 57.8691 L 105.02621 57.89679 L 104.89426 57.92444 L 104.76231 57.95201 L 104.63034 57.97955 L 104.49837 58.007 L 104.36642 58.0344 L 104.23445 58.06172 L 104.10251 58.08897 L 103.97054 58.11618 L 103.83856 58.14331 L 103.70662 58.17035 L 103.57465 58.19731 L 103.4427 58.22424 L 103.31073 58.25107 L 103.17877 58.27785 L 103.04681 58.30452 L 102.91484 58.33115 L 102.7829 58.35767 L 102.65092 58.38414 L 102.51895 58.41052 L 102.38701 58.43684 L 102.25504 58.46306 L 102.1231 58.48921 L 101.99112 58.51526 L 101.85916 58.54126 L 101.7272 58.56717 L 101.59525 58.59297 L 101.46329 58.61868 L 101.33131 58.64435 L 101.19936 58.66992 L 101.0674 58.69539 L 100.93542 58.72076 L 100.8035 58.74606 L 100.67152 58.77127 L 100.53954 58.7964 L 100.4076 58.82141 L 100.27563 58.84634 L 100.14368 58.87119 L 100.0117 58.89594 L 99.87975 58.9206 L 99.74779 58.94513 L 99.61581 58.9696 L 99.48387 58.99396 L 99.35191 59.01822 L 99.21994 59.04239 L 99.088 59.06645 L 98.95602 59.09042 L 98.82407 59.11427 L 98.69211 59.13805 L 98.56013 59.1617 L 98.42818 59.18524 L 98.29622 59.2087 L 98.16428 59.23203 L 98.03229 59.25526 L 97.90033 59.2784 L 97.76839 59.30139 L 97.63641 59.3243 L 97.50447 59.3471 L 97.3725 59.36978 L 97.24052 59.39236 L 97.10857 59.41481 L 96.97661 59.43718 L 96.84465 59.4594 L 96.71269 59.48152 L 96.58073 59.5035 L 96.44878 59.52538 L 96.3168 59.54716 L 96.18486 59.56877 L 96.05289 59.5903 L 95.92091 59.61172 L 95.78897 59.63301 L 95.657 59.65416 L 95.52505 59.67519 L 95.39308 59.6961 L 95.26112 59.71689 L 95.12917 59.73755 L 94.99721 59.75809 L 94.86525 59.77849 L 94.73328 59.79877 L 94.60132 59.81891 L 94.46936 59.83893 L 94.33739 59.8588 L 94.20544 59.87857 L 94.07349 59.89818 L 93.9415 59.91768 L 93.80956 59.93703 L 93.6776 59.95625 L 93.54564 59.97533 L 93.41367 59.99425 L 93.28171 60.01308 L 93.14975 60.03174 L 93.01778 60.05025 L 92.88583 60.06863 L 92.75388 60.08688 L 92.6219 60.10498 L 92.48996 60.12296 L 92.35799 60.14075 L 92.22603 60.15843 L 92.09407 60.17595 L 91.9621 60.19331 L 91.83014 60.21054 L 91.69818 60.22763 L 91.56624 60.24457 L 91.43425 60.26134 L 91.30228 60.27797 L 91.17035 60.29446 L 91.03838 60.31076 L 90.90642 60.32693 L 90.77446 60.34294 L 90.64249 60.35881 L 90.51053 60.37451 L 90.37857 60.39005 L 90.24661 60.40544 L 90.11465 60.42068 L 89.9827 60.43576 L 89.85074 60.45065 L 89.71877 60.46541 L 89.58682 60.48 L 89.45485 60.49442 L 89.32288 60.50868 L 89.19093 60.52277 L 89.05896 60.53668 L 88.92702 60.55045 L 88.79504 60.56406 L 88.66309 60.57745 L 88.53113 60.59073 L 88.39915 60.60382 L 88.26721 60.61673 L 88.13524 60.62947 L 88.00327 60.64204 L 87.87132 60.65443 L 87.73935 60.66667 L 87.6074 60.6787 L 87.47545 60.69058 L 87.34346 60.70227 L 87.21152 60.71378 L 87.07956 60.72511 L 86.9476 60.73625 L 86.81563 60.74725 L 86.68367 60.75804 L 86.55171 60.76866 L 86.41974 60.77908 L 86.2878 60.78934 L 86.15584 60.7994 L 86.02386 60.80927 L 85.89192 60.81894 L 85.75995 60.82846 L 85.62799 60.83777 L 85.49603 60.84688 L 85.36406 60.85582 L 85.2321 60.86456 L 85.10013 60.87311 L 84.9682 60.88147 L 84.83621 60.88963 L 84.70424 60.8976 L 84.57231 60.90538 L 84.44034 60.91295 L 84.30838 60.92032 L 84.17642 60.92752 L 84.04445 60.93451 L 83.91249 60.94128 L 83.78053 60.94788 L 83.64859 60.95425 L 83.51662 60.96043 L 83.38466 60.96642 L 83.2527 60.9722 L 83.12073 60.97775 L 82.98878 60.98312 L 82.85681 60.98828 L 82.72484 60.99324 L 82.5929 60.99796 L 82.46092 61.0025 L 82.32898 61.00682 L 82.19699 61.01094 L 82.06505 61.01483 L 81.93309 61.01852 L 81.80112 61.022 L 81.66917 61.02527 L 81.5372 61.0283 L 81.40523 61.03113 L 81.27328 61.03377 L 81.14131 61.03613 L 81.00937 61.03833 L 80.87741 61.04028 L 80.74542 61.04202 L 80.61348 61.0435 L 80.48152 61.04482 L 80.34956 61.04588 L 80.21759 61.04672 L 80.08563 61.04735 L 79.95367 61.04774 L 79.8217 61.04791 L 79.68976 61.04787 L 79.5578 61.04758 L 79.42583 61.04706 L 79.29387 61.04633 L 79.16191 61.04533 L 79.02995 61.04413 L 78.89798 61.0427 L 78.76602 61.04102 L 78.63406 61.03911 L 78.50209 61.03697 L 78.37016 61.03458 L 78.23817 61.03198 L 78.1062 61.02913 L 77.97427 61.02603 L 77.8423 61.0227 L 77.71034 61.01913 L 77.57838 61.01532 L 77.44641 61.01128 L 77.31445 61.00697 L 77.1825 61.00243 L 77.05055 60.99763 L 76.91858 60.99261 L 76.7866 60.98734 L 76.65466 60.98181 L 76.52269 60.97604 L 76.39075 60.97003 L 76.25877 60.96375 L 76.1268 60.95723 L 75.99484 60.95045 L 75.86288 60.94344 L 75.73094 60.93617 L 75.59895 60.92862 L 75.46701 60.92084 L 75.33505 60.9128 L 75.20308 60.9045 L 75.07114 60.89594 L 74.93916 60.88713 L 74.80719 60.87805 L 74.67525 60.8687 L 74.54327 60.8591 L 74.41133 60.84926 L 74.27937 60.83913 L 74.14738 60.82877 L 74.01544 60.81808 L 73.88348 60.80719 L 73.75153 60.796 L 73.61955 60.78456 L 73.4876 60.77286 L 73.35564 60.76085 L 73.22366 60.7486 L 73.0917 60.7361 L 72.95976 60.7233 L 72.82779 60.71024 L 72.69583 60.69688 L 72.56387 60.68326 L 72.43192 60.66939 L 72.29994 60.65521 L 72.16798 60.64078 L 72.03603 60.62605 L 71.90405 60.61104 L 71.77213 60.59578 L 71.64014 60.58022 L 71.50816 60.56439 L 71.37624 60.54826 L 71.24426 60.53186 L 71.1123 60.51518 L 70.98035 60.49821 L 70.84837 60.48094 L 70.71642 60.46341 L 70.58446 60.44559 L 70.4525 60.42746 L 70.32054 60.40906 L 70.18855 60.39035 L 70.05663 60.37138 L 69.92465 60.35211 L 69.7927 60.33252 L 69.66074 60.31267 L 69.52876 60.29251 L 69.3968 60.27206 L 69.26485 60.25131 L 69.1329 60.23027 L 69.00092 60.20894 L 68.86897 60.1873 L 68.73701 60.16534 L 68.60504 60.14313 L 68.4731 60.12059 L 68.34113 60.09776 L 68.20915 60.07458 L 68.07721 60.05116 L 67.94524 60.0274 L 67.8133 60.00336 L 67.68134 59.979 L 67.54935 59.95433 L 67.4174 59.92935 L 67.28543 59.90405 L 67.15349 59.87848 L 67.02151 59.85257 L 66.88954 59.82635 L 66.7576 59.79985 L 66.62563 59.773 L 66.49367 59.74583 L 66.36172 59.71837 L 66.22975 59.6906 L 66.0978 59.66249 L 65.96584 59.63406 L 65.83388 59.60533 L 65.7019 59.57628 L 65.56995 59.5469 L 65.43799 59.51721 L 65.30602 59.48718 L 65.17409 59.45688 L 65.0421 59.42618 L 64.91013 59.3952 L 64.7782 59.36392 L 64.64622 59.33226 L 64.51427 59.3003 L 64.38231 59.268 L 64.25034 59.23538 L 64.11838 59.20244 L 63.9864 59.16914 L 63.85448 59.13556 L 63.7225 59.1016 L 63.59052 59.0673 L 63.45859 59.0327 L 63.32661 58.99776 L 63.19466 58.9625 L 63.0627 58.92688 L 62.93073 58.89093 L 62.79877 58.85463 L 62.66681 58.81801 L 62.53487 58.78104 L 62.40288 58.74371 L 62.27094 58.70607 L 62.13898 58.66806 L 62.007 58.62971 L 61.87506 58.59105 L 61.74309 58.55202 L 61.61111 58.51265 L 61.47917 58.47296 L 61.3472 58.43288 L 61.21526 58.39246 L 61.08328 58.3517 L 60.95131 58.3106 L 60.81937 58.26912 L 60.6874 58.2273 L 60.55545 58.18512 L 60.42348 58.14261 L 60.2915 58.09972 L 60.15956 58.05649 L 60.02759 58.0129 L 59.89563 57.96896 L 59.76369 57.92468 L 59.63171 57.87997 L 59.49976 57.83498 L 59.3678 57.7896 L 59.23584 57.74385 L 59.10387 57.69774 L 58.97191 57.65126 L 58.83995 57.60442 L 58.70798 57.55724 L 58.57605 57.50966 L 58.44406 57.46172 L 58.31209 57.41344 L 58.18015 57.36479 L 58.04819 57.31572 L 57.91623 57.26634 L 57.78426 57.21657 L 57.6523 57.16643 L 57.52034 57.11589 L 57.38837 57.06502 L 57.25644 57.01372 L 57.12447 56.96208 L 56.99248 56.91006 L 56.86055 56.85765 L 56.72858 56.80487 L 56.59662 56.75172 L 56.46466 56.69818 L 56.33269 56.64429 L 56.20073 56.59001 L 56.06877 56.53532 L 55.93681 56.48027 L 55.80484 56.42482 L 55.6729 56.36899 L 55.54094 56.31277 L 55.40897 56.25618 L 55.27702 56.19919 L 55.14505 56.1418 L 55.01308 56.08403 L 54.88112 56.02586 L 54.74916 55.96732 L 54.61722 55.90842 L 54.48524 55.84908 L 54.35327 55.78935 L 54.22133 55.72925 L 54.08936 55.66873 L 53.95741 55.6078 L 53.82544 55.54651 L 53.69347 55.4848 L 53.56152 55.4227 L 53.42955 55.36018 L 53.29759 55.29729 L 53.16565 55.23398 L 53.03368 55.17029 L 52.90172 55.10614 L 52.76976 55.04169 L 52.6378 54.97676 L 52.50583 54.91144 L 52.37387 54.8457 L 52.24191 54.77956 L 52.10994 54.71303 L 51.978 54.64607 L 51.84602 54.57872 L 51.71405 54.51093 L 51.5821 54.44275 L 51.45015 54.37415 L 51.31819 54.30513 L 51.18622 54.2357 L 51.05426 54.16585 L 50.9223 54.09563 L 50.79033 54.02496 L 50.65839 53.95387 L 50.52643 53.88234 L 50.39444 53.81044 L 50.26251 53.73807 L 50.13054 53.66528 L 49.99858 53.5921 L 49.86662 53.51848 L 49.73465 53.44446 L 49.60269 53.37 L 49.47073 53.29509 L 49.33878 53.2198 L 49.2068 53.14407 L 49.07484 53.0679 L 48.9429 52.99129 L 48.81093 52.91426 L 48.67897 52.83679 L 48.54701 52.75891 L 48.41504 52.68059 L 48.28308 52.60184 L 48.15112 52.52264 L 48.01918 52.44301 L 47.8872 52.36295 L 47.75525 52.28244 L 47.62328 52.20152 L 47.49132 52.12018 L 47.35936 52.03836 L 47.2274 51.95612 L 47.09544 51.8734 L 46.96349 51.79027 L 46.83151 51.7067 L 46.69955 51.62267 L 46.56761 51.5382 L 46.43564 51.45328 L 46.30367 51.36792 L 46.1717 51.28212 L 46.03976 51.19586 L 45.90779 51.1092 L 45.77582 51.02205 L 45.64388 50.93445 L 45.51192 50.8464 L 45.37994 50.75787 L 45.24799 50.66891 L 45.11603 50.57951 L 44.98407 50.48964 L 44.85211 50.3993 L 44.72014 50.30852 L 44.58818 50.2173 L 44.45624 50.1256 L 44.32426 50.03345 L 44.19229 49.94087 L 44.06035 49.84778 L 43.92839 49.75424 L 43.79642 49.66025 L 43.66446 49.56578 L 43.5325 49.47086 L 43.40054 49.37546 L 43.26859 49.27959 L 43.13661 49.18326 L 43.00465 49.08649 L 42.8727 48.9892 L 42.74074 48.89146 L 42.60876 48.79326 L 42.4768 48.69466 L 42.34486 48.59544 L 42.21289 48.49586 L 42.08092 48.39578 L 41.94897 48.2952 L 41.81702 48.19415 L 41.68504 48.09264 L 41.55309 47.99065 L 41.42113 47.88817 L 41.28917 47.7852 L 41.15721 47.68178 L 41.02524 47.57784 L 40.89328 47.47345 L 40.76132 47.36858 L 40.62936 47.26326 L 40.4974 47.15742 L 40.36545 47.05107 L 40.23347 46.94426 L 40.10152 46.83694 L 39.96956 46.72916 L 39.8376 46.62086 L 39.70563 46.51208 L 39.57367 46.40282 L 39.44173 46.29308 L 39.30975 46.18285 L 39.17778 46.0721 L 39.04584 45.96086 L 38.91388 45.84912 L 38.7819 45.73698 L 38.64995 45.62427 L 38.51799 45.51103 L 38.38603 45.39732 L 38.25407 45.2831 L 38.1221 45.16838 L 37.99014 45.05316 L 37.8582 44.93747 L 37.72623 44.82123 L 37.59425 44.7045 L 37.46231 44.58727 L 37.33035 44.46956 L 37.19838 44.3513 L 37.0664 44.23264 L 36.93446 44.11339 L 36.8025 43.99364 L 36.67053 43.87337 L 36.53857 43.7526 L 36.40662 43.63129 L 36.27466 43.5095 L 36.1427 43.38715 L 36.01073 43.26434 L 35.87877 43.141 L 35.74683 43.01712 L 35.61485 42.89276 L 35.48288 42.76784 L 35.35094 42.64252 L 35.21898 42.51662 L 35.087 42.39015 L 34.95505 42.26318 L 34.82309 42.13567 L 34.69113 42.00768 Z " fill="#0000ff" fill-opacity=".2"/>
</g>
<clipPath id="cp1">
<path transform="matrix(2.7777777,0,0,-2.7777777,28.780554,484.67774)" d="M 0 0 L 194.2729 0 L 194.2729 161.39736 L 0 161.39736 Z "/>
</clipPath>
<g clip-path="url(#cp1)">
<path transform="matrix(2.7777777,0,0,-2.7777777,28.780554,484.67774)" d="M 104.07295 100.01665 L 104.10251 100.01056 L 104.23445 99.9833 L 104.36642 99.95598 L 104.49837 99.92859 L 104.63034 99.90114 L 104.76231 99.8736 L 104.89426 99.84602 L 105.02621 99.81837 L 105.15817 99.79068 L 105.29015 99.7629 L 105.4221 99.73506 L 105.55406 99.70718 L 105.68604 99.67923 L 105.81798 99.65123 L 105.94995 99.62317 L 106.08191 99.59502 L 106.21385 99.56686 L 106.34583 99.53862 L 106.47778 99.51035 L 106.60976 99.48201 L 106.74171 99.45363 L 106.87367 99.4252 L 107.00565 99.39671 L 107.13757 99.36816 L 107.26956 99.33958 L 107.40154 99.31094 L 107.53346 99.28227 L 107.66544 99.25356 L 107.7974 99.22478 L 107.92935 99.19597 L 108.06133 99.16711 L 108.19328 99.1382 L 108.32524 99.10927 L 108.4572 99.08032 L 108.58916 99.0513 L 108.72113 99.02222 L 108.85307 98.99315 L 108.98505 98.964 L 109.11699 98.93483 L 109.27658 98.89954 L 109.27658 56.97795 L 109.11699 57.01324 L 108.98505 57.04242 L 108.85307 57.07156 L 108.72113 57.10063 L 108.58916 57.12971 L 108.4572 57.15874 L 108.32524 57.1877 L 108.19328 57.21661 L 108.06133 57.24553 L 107.92935 57.27438 L 107.7974 57.30319 L 107.66544 57.33197 L 107.53346 57.36069 L 107.40154 57.38936 L 107.26956 57.418 L 107.13757 57.44658 L 107.00565 57.47513 L 106.87367 57.50362 L 106.74171 57.53204 L 106.60976 57.56042 L 106.47778 57.58876 L 106.34583 57.61703 L 106.21385 57.64528 L 106.08191 57.67345 L 105.94995 57.70158 L 105.81798 57.72964 L 105.68604 57.75764 L 105.55406 57.7856 L 105.4221 57.81348 L 105.29015 57.84131 L 105.15817 57.8691 L 105.02621 57.89679 L 104.89426 57.92444 L 104.76231 57.95201 L 104.63034 57.97955 L 104.49837 58.007 L 104.36642 58.0344 L 104.23445 58.06172 L 104.10251 58.08897 L 104.07295 58.09506 Z " fill="#929292"/>
</g>
<clipPath id="cp2">
<path transform="matrix(2.7777777,0,0,-2.7777777,28.780554,484.67774)" d="M 0 0 L 194.2729 0 L 194.2729 161.39736 L 0 161.39736 Z "/>
</clipPath>
<g clip-path="url(#cp2)">
<path transform="matrix(2.7777777,0,0,-2.7777777,28.780554,484.67774)" stroke-width=".3985" stroke-linecap="butt" stroke-miterlimit="10" stroke-linejoin="miter" fill="none" stroke="#000000" d="M 34.69113 83.92926 L 34.82309 84.05725 L 34.95505 84.18477 L 35.087 84.31174 L 35.21898 84.4382 L 35.35094 84.5641 L 35.48288 84.68942 L 35.61485 84.81433 L 35.74683 84.9387 L 35.87877 85.06259 L 36.01073 85.18591 L 36.1427 85.30873 L 36.27466 85.43108 L 36.40662 85.55287 L 36.53857 85.67418 L 36.67053 85.79495 L 36.8025 85.91522 L 36.93446 86.03497 L 37.0664 86.15422 L 37.19838 86.27289 L 37.33035 86.39114 L 37.46231 86.50883 L 37.59425 86.62608 L 37.72623 86.74281 L 37.8582 86.85905 L 37.99014 86.97475 L 38.1221 87.08997 L 38.25407 87.20468 L 38.38603 87.31891 L 38.51799 87.43262 L 38.64995 87.54584 L 38.7819 87.65857 L 38.91388 87.77069 L 39.04584 87.88245 L 39.17778 87.99368 L 39.30975 88.10443 L 39.44173 88.21466 L 39.57367 88.3244 L 39.70563 88.43367 L 39.8376 88.54245 L 39.96956 88.65074 L 40.10152 88.75851 L 40.23347 88.86584 L 40.36545 88.97266 L 40.4974 89.07901 L 40.62936 89.18484 L 40.76132 89.29016 L 40.89328 89.39503 L 41.02524 89.49942 L 41.15721 89.60336 L 41.28917 89.70679 L 41.42113 89.80975 L 41.55309 89.91223 L 41.68504 90.01422 L 41.81702 90.11574 L 41.94897 90.21678 L 42.08092 90.31737 L 42.21289 90.41745 L 42.34486 90.51703 L 42.4768 90.61624 L 42.60876 90.71484 L 42.74074 90.81305 L 42.8727 90.91078 L 43.00465 91.00807 L 43.13661 91.10484 L 43.26859 91.20117 L 43.40054 91.29704 L 43.5325 91.39244 L 43.66446 91.48737 L 43.79642 91.58183 L 43.92839 91.67583 L 44.06035 91.76936 L 44.19229 91.86246 L 44.32426 91.95503 L 44.45624 92.04718 L 44.58818 92.13889 L 44.72014 92.2301 L 44.85211 92.32089 L 44.98407 92.41122 L 45.11603 92.5011 L 45.24799 92.5905 L 45.37994 92.67946 L 45.51192 92.76799 L 45.64388 92.85603 L 45.77582 92.94363 L 45.90779 93.03079 L 46.03976 93.11745 L 46.1717 93.2037 L 46.30367 93.2895 L 46.43564 93.37486 L 46.56761 93.45978 L 46.69955 93.54425 L 46.83151 93.62828 L 46.96349 93.71185 L 47.09544 93.79498 L 47.2274 93.8777 L 47.35936 93.95995 L 47.49132 94.04176 L 47.62328 94.12311 L 47.75525 94.20403 L 47.8872 94.28453 L 48.01918 94.36458 L 48.15112 94.44423 L 48.28308 94.52342 L 48.41504 94.60217 L 48.54701 94.6805 L 48.67897 94.75838 L 48.81093 94.83585 L 48.9429 94.91287 L 49.07484 94.98947 L 49.2068 95.06566 L 49.33878 95.14139 L 49.47073 95.21667 L 49.60269 95.29156 L 49.73465 95.36604 L 49.86662 95.44006 L 49.99858 95.51369 L 50.13054 95.58687 L 50.26251 95.65965 L 50.39444 95.73203 L 50.52643 95.80392 L 50.65839 95.87544 L 50.79033 95.94655 L 50.9223 96.01721 L 51.05426 96.08743 L 51.18622 96.15727 L 51.31819 96.2267 L 51.45015 96.29573 L 51.5821 96.36433 L 51.71405 96.43251 L 51.84602 96.50029 L 51.978 96.56766 L 52.10994 96.63461 L 52.24191 96.70114 L 52.37387 96.76729 L 52.50583 96.83302 L 52.6378 96.89835 L 52.76976 96.96327 L 52.90172 97.02773 L 53.03368 97.09187 L 53.16565 97.15556 L 53.29759 97.21886 L 53.42955 97.28177 L 53.56152 97.34428 L 53.69347 97.40639 L 53.82544 97.46808 L 53.95741 97.52939 L 54.08936 97.5903 L 54.22133 97.65083 L 54.35327 97.71094 L 54.48524 97.77066 L 54.61722 97.83 L 54.74916 97.8889 L 54.88112 97.94745 L 55.01308 98.00562 L 55.14505 98.06339 L 55.27702 98.12077 L 55.40897 98.17776 L 55.54094 98.23436 L 55.6729 98.29057 L 55.80484 98.3464 L 55.93681 98.40186 L 56.06877 98.45691 L 56.20073 98.5116 L 56.33269 98.56587 L 56.46466 98.61977 L 56.59662 98.67331 L 56.72858 98.72646 L 56.86055 98.77924 L 56.99248 98.83163 L 57.12447 98.88367 L 57.25644 98.9353 L 57.38837 98.9866 L 57.52034 99.03748 L 57.6523 99.08801 L 57.78426 99.13815 L 57.91623 99.18793 L 58.04819 99.2373 L 58.18015 99.28638 L 58.31209 99.33502 L 58.44406 99.3833 L 58.57605 99.43124 L 58.70798 99.47882 L 58.83995 99.526 L 58.97191 99.57285 L 59.10387 99.61932 L 59.23584 99.66544 L 59.3678 99.71118 L 59.49976 99.75656 L 59.63171 99.80156 L 59.76369 99.84627 L 59.89563 99.89055 L 60.02759 99.93448 L 60.15956 99.97807 L 60.2915 100.0213 L 60.42348 100.0642 L 60.55545 100.1067 L 60.6874 100.14888 L 60.81937 100.1907 L 60.95131 100.23216 L 61.08328 100.27328 L 61.21526 100.31404 L 61.3472 100.35446 L 61.47917 100.39455 L 61.61111 100.43423 L 61.74309 100.4736 L 61.87506 100.51263 L 62.007 100.5513 L 62.13898 100.58965 L 62.27094 100.62766 L 62.40288 100.6653 L 62.53487 100.70262 L 62.66681 100.7396 L 62.79877 100.77621 L 62.93073 100.81252 L 63.0627 100.84846 L 63.19466 100.88408 L 63.32661 100.91934 L 63.45859 100.95428 L 63.59052 100.98889 L 63.7225 101.02318 L 63.85448 101.05713 L 63.9864 101.09073 L 64.11838 101.12402 L 64.25034 101.15697 L 64.38231 101.18959 L 64.51427 101.22188 L 64.64622 101.25385 L 64.7782 101.28549 L 64.91013 101.31679 L 65.0421 101.34776 L 65.17409 101.37846 L 65.30602 101.40877 L 65.43799 101.4388 L 65.56995 101.46849 L 65.7019 101.49785 L 65.83388 101.52692 L 65.96584 101.55565 L 66.0978 101.58408 L 66.22975 101.61217 L 66.36172 101.63995 L 66.49367 101.66742 L 66.62563 101.69458 L 66.7576 101.72144 L 66.88954 101.74794 L 67.02151 101.77415 L 67.15349 101.80005 L 67.28543 101.82564 L 67.4174 101.85094 L 67.54935 101.87592 L 67.68134 101.90059 L 67.8133 101.92494 L 67.94524 101.94899 L 68.07721 101.97275 L 68.20915 101.99615 L 68.34113 102.01935 L 68.4731 102.04218 L 68.60504 102.06471 L 68.73701 102.08693 L 68.86897 102.10889 L 69.00092 102.13052 L 69.1329 102.15186 L 69.26485 102.1729 L 69.3968 102.19365 L 69.52876 102.2141 L 69.66074 102.23425 L 69.7927 102.2541 L 69.92465 102.27368 L 70.05663 102.29297 L 70.18855 102.31194 L 70.32054 102.33064 L 70.4525 102.34904 L 70.58446 102.36717 L 70.71642 102.385 L 70.84837 102.40253 L 70.98035 102.4198 L 71.1123 102.43677 L 71.24426 102.45343 L 71.37624 102.46983 L 71.50816 102.48596 L 71.64014 102.5018 L 71.77213 102.51736 L 71.90405 102.53262 L 72.03603 102.54764 L 72.16798 102.56236 L 72.29994 102.5768 L 72.43192 102.59097 L 72.56387 102.60484 L 72.69583 102.61847 L 72.82779 102.63182 L 72.95976 102.64488 L 73.0917 102.65767 L 73.22366 102.67018 L 73.35564 102.68243 L 73.4876 102.69443 L 73.61955 102.70615 L 73.75153 102.71759 L 73.88348 102.72878 L 74.01544 102.73967 L 74.14738 102.75035 L 74.27937 102.76071 L 74.41133 102.77084 L 74.54327 102.78069 L 74.67525 102.79028 L 74.80719 102.79964 L 74.93916 102.8087 L 75.07114 102.81752 L 75.20308 102.82608 L 75.33505 102.83438 L 75.46701 102.84242 L 75.59895 102.8502 L 75.73094 102.85774 L 75.86288 102.86502 L 75.99484 102.87204 L 76.1268 102.87881 L 76.25877 102.88533 L 76.39075 102.89162 L 76.52269 102.89763 L 76.65466 102.9034 L 76.7866 102.90892 L 76.91858 102.9142 L 77.05055 102.91922 L 77.1825 102.92401 L 77.31445 102.92856 L 77.44641 102.93286 L 77.57838 102.9369 L 77.71034 102.94072 L 77.8423 102.94429 L 77.97427 102.94762 L 78.1062 102.95071 L 78.23817 102.95357 L 78.37016 102.95616 L 78.50209 102.95856 L 78.63406 102.9607 L 78.76602 102.9626 L 78.89798 102.96428 L 79.02995 102.96571 L 79.16191 102.96692 L 79.29387 102.9679 L 79.42583 102.96864 L 79.5578 102.96916 L 79.68976 102.96945 L 79.8217 102.9695 L 79.95367 102.96933 L 80.08563 102.96893 L 80.21759 102.9683 L 80.34956 102.96747 L 80.48152 102.9664 L 80.61348 102.96509 L 80.74542 102.9636 L 80.87741 102.96187 L 81.00937 102.95992 L 81.14131 102.95772 L 81.27328 102.95535 L 81.40523 102.95271 L 81.5372 102.94989 L 81.66917 102.94685 L 81.80112 102.94359 L 81.93309 102.94011 L 82.06505 102.93642 L 82.19699 102.93253 L 82.32898 102.9284 L 82.46092 102.92409 L 82.5929 102.91954 L 82.72484 102.91481 L 82.85681 102.90987 L 82.98878 102.90471 L 83.12073 102.89934 L 83.2527 102.89378 L 83.38466 102.888 L 83.51662 102.882 L 83.64859 102.87584 L 83.78053 102.86946 L 83.91249 102.86287 L 84.04445 102.8561 L 84.17642 102.8491 L 84.30838 102.8419 L 84.44034 102.83453 L 84.57231 102.82697 L 84.70424 102.81918 L 84.83621 102.81122 L 84.9682 102.80305 L 85.10013 102.7947 L 85.2321 102.78615 L 85.36406 102.7774 L 85.49603 102.76846 L 85.62799 102.75935 L 85.75995 102.75005 L 85.89192 102.74052 L 86.02386 102.73083 L 86.15584 102.72098 L 86.2878 102.71092 L 86.41974 102.70067 L 86.55171 102.69023 L 86.68367 102.67963 L 86.81563 102.66884 L 86.9476 102.65784 L 87.07956 102.6467 L 87.21152 102.63536 L 87.34346 102.62386 L 87.47545 102.61217 L 87.6074 102.60027 L 87.73935 102.58824 L 87.87132 102.576 L 88.00327 102.56361 L 88.13524 102.55106 L 88.26721 102.53831 L 88.39915 102.5254 L 88.53113 102.51231 L 88.66309 102.49904 L 88.79504 102.48564 L 88.92702 102.47203 L 89.05896 102.45827 L 89.19093 102.44435 L 89.32288 102.43027 L 89.45485 102.416 L 89.58682 102.40158 L 89.71877 102.387 L 89.85074 102.37224 L 89.9827 102.35735 L 90.11465 102.34227 L 90.24661 102.32703 L 90.37857 102.31163 L 90.51053 102.2961 L 90.64249 102.2804 L 90.77446 102.26453 L 90.90642 102.24852 L 91.03838 102.23235 L 91.17035 102.21605 L 91.30228 102.19955 L 91.43425 102.18292 L 91.56624 102.16615 L 91.69818 102.14922 L 91.83014 102.13213 L 91.9621 102.1149 L 92.09407 102.09753 L 92.22603 102.08002 L 92.35799 102.06233 L 92.48996 102.04454 L 92.6219 102.02657 L 92.75388 102.00845 L 92.88583 101.99022 L 93.01778 101.97183 L 93.14975 101.95332 L 93.28171 101.93465 L 93.41367 101.91583 L 93.54564 101.89691 L 93.6776 101.87782 L 93.80956 101.85861 L 93.9415 101.83926 L 94.07349 101.81976 L 94.20544 101.80014 L 94.33739 101.78038 L 94.46936 101.76051 L 94.60132 101.7405 L 94.73328 101.72035 L 94.86525 101.70007 L 94.99721 101.67967 L 95.12917 101.65913 L 95.26112 101.63847 L 95.39308 101.61769 L 95.52505 101.59677 L 95.657 101.57574 L 95.78897 101.5546 L 95.92091 101.53331 L 96.05289 101.51189 L 96.18486 101.49036 L 96.3168 101.46875 L 96.44878 101.44696 L 96.58073 101.42508 L 96.71269 101.4031 L 96.84465 101.38098 L 96.97661 101.35876 L 97.10857 101.3364 L 97.24052 101.31395 L 97.3725 101.29137 L 97.50447 101.26869 L 97.63641 101.24588 L 97.76839 101.22298 L 97.90033 101.19997 L 98.03229 101.17685 L 98.16428 101.15361 L 98.29622 101.13026 L 98.42818 101.10683 L 98.56013 101.08328 L 98.69211 101.05963 L 98.82407 101.03586 L 98.95602 101.012 L 99.088 100.98804 L 99.21994 100.96397 L 99.35191 100.9398 L 99.48387 100.91554 L 99.61581 100.89119 L 99.74779 100.86671 L 99.87975 100.84218 L 100.0117 100.81752 L 100.14368 100.79277 L 100.27563 100.76793 L 100.4076 100.743 L 100.53954 100.71797 L 100.67152 100.69286 L 100.8035 100.66765 L 100.93542 100.64235 L 101.0674 100.61697 L 101.19936 100.59149 L 101.33131 100.56593 L 101.46329 100.54027 L 101.59525 100.51456 L 101.7272 100.48875 L 101.85916 100.46284 L 101.99112 100.43684 L 102.1231 100.4108 L 102.25504 100.38464 L 102.38701 100.35843 L 102.51895 100.3321 L 102.65092 100.30571 L 102.7829 100.27925 L 102.91484 100.25272 L 103.04681 100.2261 L 103.17877 100.19942 L 103.31073 100.17265 L 103.4427 100.14583 L 103.57465 100.1189 L 103.70662 100.09193 L 103.83856 100.06488 L 103.97054 100.03777 L 104.10251 100.01056 L 104.23445 99.9833 L 104.36642 99.95598 L 104.49837 99.92859 L 104.63034 99.90114 L 104.76231 99.8736 L 104.89426 99.84602 L 105.02621 99.81837 L 105.15817 99.79068 L 105.29015 99.7629 L 105.4221 99.73506 L 105.55406 99.70718 L 105.68604 99.67923 L 105.81798 99.65123 L 105.94995 99.62317 L 106.08191 99.59502 L 106.21385 99.56686 L 106.34583 99.53862 L 106.47778 99.51035 L 106.60976 99.48201 L 106.74171 99.45363 L 106.87367 99.4252 L 107.00565 99.39671 L 107.13757 99.36816 L 107.26956 99.33958 L 107.40154 99.31094 L 107.53346 99.28227 L 107.66544 99.25356 L 107.7974 99.22478 L 107.92935 99.19597 L 108.06133 99.16711 L 108.19328 99.1382 L 108.32524 99.10927 L 108.4572 99.08032 L 108.58916 99.0513 L 108.72113 99.02222 L 108.85307 98.99315 L 108.98505 98.964 L 109.11699 98.93483 L 109.24896 98.90564 L 109.38094 98.87639 L 109.51288 98.84712 L 109.64485 98.81783 L 109.77681 98.78848 L 109.90878 98.75912 L 110.04073 98.72972 L 110.17268 98.7003 L 110.30466 98.67085 L 110.4366 98.64137 L 110.56857 98.61186 L 110.70055 98.58234 L 110.83249 98.55278 L 110.96446 98.5232 L 111.0964 98.49359 L 111.22838 98.46397 L 111.36035 98.43431 L 111.4923 98.40465 L 111.62425 98.37494 L 111.75621 98.34526 L 111.88818 98.31554 L 112.02014 98.28578 L 112.1521 98.25603 L 112.28407 98.22626 L 112.41602 98.19646 L 112.54799 98.16667 L 112.67995 98.13687 L 112.8119 98.10704 L 112.94386 98.0772 L 113.07582 98.04735 L 113.2078 98.01749 L 113.33975 97.98763 L 113.47171 97.95775 L 113.60368 97.92789 L 113.73561 97.89801 L 113.8676 97.86812 L 113.99957 97.83823 L 114.1315 97.80832 L 114.26347 97.77841 L 114.39543 97.74852 L 114.52739 97.71863 L 114.65936 97.68872 L 114.79132 97.65883 L 114.92328 97.62894 L 115.05524 97.59901 L 115.1872 97.56914 L 115.31917 97.53926 L 115.45111 97.50938 L 115.58308 97.4795 L 115.71504 97.44965 L 115.847 97.41978 L 115.97897 97.38994 L 116.11093 97.3601 L 116.24289 97.33026 L 116.37485 97.30045 L 116.50682 97.27066 L 116.63876 97.24086 L 116.77072 97.21107 L 116.9027 97.18132 L 117.03464 97.15158 L 117.16661 97.12183 L 117.29858 97.09212 L 117.43053 97.06244 L 117.5625 97.03278 L 117.69444 97.0031 L 117.82642 96.97348 L 117.95839 96.94388 L 118.09033 96.91429 L 118.22229 96.88472 L 118.35425 96.8552 L 118.48622 96.82567 L 118.61818 96.79617 L 118.75014 96.76671 L 118.88211 96.73727 L 119.01407 96.70789 L 119.14603 96.67851 L 119.27798 96.64915 L 119.40994 96.61984 L 119.5419 96.59056 L 119.67386 96.56131 L 119.80583 96.53212 L 119.93779 96.50293 L 120.06975 96.4738 L 120.20172 96.44469 L 120.33365 96.41562 L 120.46564 96.38658 L 120.59761 96.35759 L 120.72954 96.32864 L 120.86151 96.29974 L 120.99347 96.27087 L 121.12543 96.24207 L 121.2574 96.21327 L 121.38936 96.18454 L 121.52132 96.15585 L 121.65327 96.12721 L 121.78523 96.0986 L 121.91722 96.07005 L 122.04915 96.04155 L 122.18112 96.0131 L 122.31308 95.98471 L 122.44504 95.95633 L 122.57701 95.92805 L 122.70897 95.89981 L 122.84093 95.87161 L 122.97289 95.84348 L 123.10486 95.8154 L 123.2368 95.78738 L 123.36876 95.75941 L 123.50073 95.7315 L 123.63268 95.70366 L 123.76465 95.67586 L 123.89662 95.64813 L 124.02856 95.62048 L 124.16054 95.59288 L 124.29248 95.56532 L 124.42445 95.53786 L 124.55643 95.51045 L 124.68837 95.48311 L 124.82034 95.45581 L 124.95229 95.42862 L 125.08426 95.40149 L 125.21623 95.3744 L 125.34818 95.3474 L 125.48015 95.32047 L 125.6121 95.29361 L 125.74406 95.26683 L 125.87602 95.24013 L 126.00798 95.2135 L 126.13994 95.18694 L 126.2719 95.16046 L 126.40387 95.13403 L 126.53583 95.1077 L 126.66779 95.08145 L 126.79976 95.05528 L 126.93169 95.02919 L 127.06367 95.00319 L 127.19565 94.97726 L 127.32758 94.95143 L 127.45955 94.92566 L 127.5915 94.90001 L 127.72348 94.87442 L 127.85544 94.84892 L 127.9874 94.8235 L 128.11937 94.79819 L 128.25131 94.77295 L 128.38327 94.7478 L 128.51526 94.72276 L 128.64719 94.6978 L 128.77916 94.67293 L 128.91112 94.64815 L 129.04308 94.62347 L 129.17505 94.59888 L 129.307 94.57442 L 129.43897 94.55002 L 129.57093 94.52573 L 129.7029 94.50154 L 129.83486 94.47745 L 129.9668 94.45346 L 130.09877 94.42957 L 130.23072 94.40576 L 130.36269 94.38208 L 130.49466 94.3585 L 130.6266 94.33502 L 130.75858 94.31165 L 130.89052 94.28839 L 131.0225 94.26523 L 131.15447 94.24217 L 131.2864 94.21925 L 131.41838 94.19644 L 131.55033 94.17372 L 131.6823 94.15111 L 131.81427 94.12862 L 131.94622 94.10625 L 132.07819 94.08397 L 132.21015 94.06183 L 132.3421 94.0398 L 132.47408 94.01788 L 132.60602 93.9961 L 132.73798 93.9744 L 132.86994 93.95285 L 133.0019 93.93143 L 133.13387 93.9101 L 133.26583 93.88892 L 133.3978 93.86783 L 133.52973 93.84688 L 133.66172 93.82605 L 133.79369 93.80536 L 133.92563 93.78479 L 134.05759 93.76436 L 134.18955 93.74405 L 134.32152 93.72385 L 134.45348 93.7038 L 134.58544 93.68388 L 134.7174 93.6641 L 134.84935 93.64444 L 134.98131 93.62492 L 135.1133 93.60553 L 135.24523 93.58626 L 135.3772 93.56715 L 135.50916 93.54817 L 135.64112 93.52931 L 135.77309 93.51064 L 135.90505 93.49205 L 136.037 93.47362 L 136.16896 93.45535 L 136.30094 93.43721 L 136.43289 93.4192 L 136.56485 93.40135 L 136.69681 93.38365 L 136.82877 93.36607 L 136.96073 93.34865 L 137.0927 93.33139 L 137.22466 93.31427 L 137.35662 93.29729 L 137.48856 93.28047 L 137.62055 93.26381 L 137.7525 93.24727 L 137.88445 93.23093 L 138.01642 93.21469 L 138.14836 93.19864 L 138.28034 93.18274 L 138.41231 93.16699 L 138.54425 93.1514 L 138.67623 93.13596 L 138.80818 93.1207 L 138.94014 93.10558 L 139.07212 93.09062 L 139.20406 93.07582 L 139.33602 93.06119 L 139.46797 93.0467 L 139.59995 93.03241 L 139.7319 93.01826 L 139.86386 93.00432 L 139.99584 92.99051 L 140.12778 92.97684 L 140.25975 92.9634 L 140.39173 92.95007 L 140.52367 92.93695 L 140.65563 92.92398 L 140.78759 92.91118 L 140.91956 92.89857 L 141.05152 92.88614 L 141.18347 92.87386 L 141.31545 92.86176 L 141.44739 92.84984 L 141.57935 92.8381 L 141.71134 92.82652 L 141.84326 92.81514 L 141.97524 92.80394 L 142.1072 92.79291 L 142.23915 92.78204 L 142.37113 92.77141 L 142.50308 92.76091 L 142.63504 92.75061 L 142.767 92.74051 L 142.89897 92.73058 L 143.03093 92.72084 L 143.16287 92.71129 L 143.29485 92.7019 L 143.4268 92.69273 L 143.55876 92.68375 L 143.69074 92.67496 L 143.8227 92.66635 L 143.95465 92.65793 L 144.0866 92.64972 L 144.21858 92.64168 L 144.35054 92.63385 L 144.48249 92.62622 L 144.61446 92.61879 L 144.7464 92.61157 L 144.87837 92.60452 L 145.01035 92.59766 L 145.14229 92.59103 L 145.27426 92.58458 L 145.40622 92.57835 L 145.53818 92.57231 L 145.67015 92.56648 L 145.8021 92.56085 L 145.93407 92.55542 L 146.06601 92.5502 L 146.19799 92.5452 L 146.32996 92.54039 L 146.4619 92.5358 L 146.59387 92.5314 L 146.72583 92.52725 L 146.85779 92.52328 L 146.98976 92.51953 L 147.1217 92.516 L 147.25366 92.51268 L 147.38562 92.50958 L 147.5176 92.5067 L 147.64955 92.50401 L 147.78151 92.50156 L 147.91349 92.49931 L 148.04543 92.4973 L 148.17739 92.49548 L 148.30937 92.49391 L 148.4413 92.49257 L 148.57328 92.49142 L 148.70523 92.49051 L 148.8372 92.48985 L 148.96916 92.4894 L 149.10112 92.48915 L 149.2331 92.48915 L 149.36504 92.48936 L 149.49701 92.48982 L 149.62897 92.49048 L 149.76093 92.4914 L 149.89289 92.49254 L 150.02484 92.49391 L 150.1568 92.49551 L 150.28878 92.49738 L 150.42073 92.49942 L 150.55269 92.50175 L 150.68463 92.50429 L 150.81662 92.50706 L 150.94858 92.5101 L 151.08052 92.51337 L 151.2125 92.51686 L 151.34444 92.5206 L 151.47641 92.5246 L 151.60839 92.52882 L 151.74033 92.53328 L 151.8723 92.53801 L 152.00426 92.54298 L 152.13623 92.54817 L 152.26819 92.55362 L 152.40013 92.55934 L 152.5321 92.56528 L 152.66405 92.57147 L 152.79602 92.57791 L 152.928 92.58461 L 153.05994 92.59158 L 153.19191 92.59879 L 153.32387 92.60623 L 153.45583 92.61395 L 153.5878 92.62192 L 153.71974 92.63014 L 153.8517 92.63864 L 153.98366 92.64738 L 154.11563 92.65637 L 154.24759 92.66563 L 154.37955 92.67516 L 154.51152 92.68495 L 154.64347 92.69499 L 154.77542 92.7053 L 154.90741 92.71587 L 155.03936 92.72672 L 155.17131 92.73782 L 155.30327 92.74919 L 155.43524 92.76083 L 155.5672 92.77272 L 155.69916 92.7849 L 155.83113 92.79735 L 155.96308 92.81007 L 156.09505 92.82307 L 156.22702 92.83633 L 156.35897 92.84985 L 156.49092 92.86368 L 156.62288 92.87776 L 156.75484 92.89212 L 156.88681 92.90678 L 157.01877 92.92168 L 157.15073 92.93689 L 157.28267 92.95236 L 157.41466 92.96812 L 157.54662 92.98416 L 157.67856 93.00047 L 157.81055 93.01709 L 157.94249 93.03397 L 158.07445 93.05115 L 158.20642 93.0686 L 158.33838 93.08635 L 158.47034 93.10439 L 158.6023 93.12271 L 158.73427 93.14133 L 158.86623 93.16022 L 158.99817 93.1794 L 159.13014 93.1989 L 159.26209 93.21867 L 159.39406 93.23874 L 159.52603 93.2591 L 159.65798 93.27979 L 159.78995 93.30074 L 159.9219 93.32199 L 160.05387 93.34355 L 160.18584 93.36539 L 160.31778 93.38756 L 160.44974 93.40999 L 160.5817 93.43275 L 160.71367 93.4558 L 160.84563 93.47916 L 160.97759 93.50282 L 161.10956 93.5268 L 161.24152 93.55107 L 161.37346 93.57565 L 161.50545 93.60054 L 161.63739 93.62573 L 161.76935 93.65123 L 161.9013 93.67705 L 162.03328 93.70317 L 162.16524 93.72961 L 162.2972 93.75635 L 162.42917 93.78343 L 162.56111 93.8108 L 162.69309 93.8385 L 162.82506 93.8665 L 162.95699 93.89485 L 163.08896 93.9235 L 163.22092 93.95244 L 163.35288 93.98172 L 163.48485 94.01132 L 163.6168 94.04126 L 163.74877 94.0715 L 163.8807 94.10207 L 164.0127 94.13295 L 164.14467 94.1642 L 164.2766 94.19571 L 164.40859 94.2276 L 164.54053 94.2598 L 164.67249 94.29231 L 164.80446 94.32518 L 164.93642 94.35837 L 165.06838 94.39189 L 165.20034 94.42575 L 165.3323 94.45992 L 165.46427 94.49443 L 165.5962 94.52927 L 165.72818 94.56447 L 165.86013 94.59998 L 165.9921 94.63582 L 166.12407 94.67203 L 166.25601 94.70856 L 166.38799 94.74542 L 166.51995 94.78264 "/>
<path transform="matrix(2.7777777,0,0,-2.7777777,28.780554,484.67774)" stroke-width=".3985" stroke-linecap="butt" stroke-miterlimit="10" stroke-linejoin="miter" fill="none" stroke="#000000" d="M 34.69113 42.00768 L 34.82309 42.13567 L 34.95505 42.26318 L 35.087 42.39015 L 35.21898 42.51662 L 35.35094 42.64252 L 35.48288 42.76784 L 35.61485 42.89276 L 35.74683 43.01712 L 35.87877 43.141 L 36.01073 43.26434 L 36.1427 43.38715 L 36.27466 43.5095 L 36.40662 43.63129 L 36.53857 43.7526 L 36.67053 43.87337 L 36.8025 43.99364 L 36.93446 44.11339 L 37.0664 44.23264 L 37.19838 44.3513 L 37.33035 44.46956 L 37.46231 44.58727 L 37.59425 44.7045 L 37.72623 44.82123 L 37.8582 44.93747 L 37.99014 45.05316 L 38.1221 45.16838 L 38.25407 45.2831 L 38.38603 45.39732 L 38.51799 45.51103 L 38.64995 45.62427 L 38.7819 45.73698 L 38.91388 45.84912 L 39.04584 45.96086 L 39.17778 46.0721 L 39.30975 46.18285 L 39.44173 46.29308 L 39.57367 46.40282 L 39.70563 46.51208 L 39.8376 46.62086 L 39.96956 46.72916 L 40.10152 46.83694 L 40.23347 46.94426 L 40.36545 47.05107 L 40.4974 47.15742 L 40.62936 47.26326 L 40.76132 47.36858 L 40.89328 47.47345 L 41.02524 47.57784 L 41.15721 47.68178 L 41.28917 47.7852 L 41.42113 47.88817 L 41.55309 47.99065 L 41.68504 48.09264 L 41.81702 48.19415 L 41.94897 48.2952 L 42.08092 48.39578 L 42.21289 48.49586 L 42.34486 48.59544 L 42.4768 48.69466 L 42.60876 48.79326 L 42.74074 48.89146 L 42.8727 48.9892 L 43.00465 49.08649 L 43.13661 49.18326 L 43.26859 49.27959 L 43.40054 49.37546 L 43.5325 49.47086 L 43.66446 49.56578 L 43.79642 49.66025 L 43.92839 49.75424 L 44.06035 49.84778 L 44.19229 49.94087 L 44.32426 50.03345 L 44.45624 50.1256 L 44.58818 50.2173 L 44.72014 50.30852 L 44.85211 50.3993 L 44.98407 50.48964 L 45.11603 50.57951 L 45.24799 50.66891 L 45.37994 50.75787 L 45.51192 50.8464 L 45.64388 50.93445 L 45.77582 51.02205 L 45.90779 51.1092 L 46.03976 51.19586 L 46.1717 51.28212 L 46.30367 51.36792 L 46.43564 51.45328 L 46.56761 51.5382 L 46.69955 51.62267 L 46.83151 51.7067 L 46.96349 51.79027 L 47.09544 51.8734 L 47.2274 51.95612 L 47.35936 52.03836 L 47.49132 52.12018 L 47.62328 52.20152 L 47.75525 52.28244 L 47.8872 52.36295 L 48.01918 52.44301 L 48.15112 52.52264 L 48.28308 52.60184 L 48.41504 52.68059 L 48.54701 52.75891 L 48.67897 52.83679 L 48.81093 52.91426 L 48.9429 52.99129 L 49.07484 53.0679 L 49.2068 53.14407 L 49.33878 53.2198 L 49.47073 53.29509 L 49.60269 53.37 L 49.73465 53.44446 L 49.86662 53.51848 L 49.99858 53.5921 L 50.13054 53.66528 L 50.26251 53.73807 L 50.39444 53.81044 L 50.52643 53.88234 L 50.65839 53.95387 L 50.79033 54.02496 L 50.9223 54.09563 L 51.05426 54.16585 L 51.18622 54.2357 L 51.31819 54.30513 L 51.45015 54.37415 L 51.5821 54.44275 L 51.71405 54.51093 L 51.84602 54.57872 L 51.978 54.64607 L 52.10994 54.71303 L 52.24191 54.77956 L 52.37387 54.8457 L 52.50583 54.91144 L 52.6378 54.97676 L 52.76976 55.04169 L 52.90172 55.10614 L 53.03368 55.17029 L 53.16565 55.23398 L 53.29759 55.29729 L 53.42955 55.36018 L 53.56152 55.4227 L 53.69347 55.4848 L 53.82544 55.54651 L 53.95741 55.6078 L 54.08936 55.66873 L 54.22133 55.72925 L 54.35327 55.78935 L 54.48524 55.84908 L 54.61722 55.90842 L 54.74916 55.96732 L 54.88112 56.02586 L 55.01308 56.08403 L 55.14505 56.1418 L 55.27702 56.19919 L 55.40897 56.25618 L 55.54094 56.31277 L 55.6729 56.36899 L 55.80484 56.42482 L 55.93681 56.48027 L 56.06877 56.53532 L 56.20073 56.59001 L 56.33269 56.64429 L 56.46466 56.69818 L 56.59662 56.75172 L 56.72858 56.80487 L 56.86055 56.85765 L 56.99248 56.91006 L 57.12447 56.96208 L 57.25644 57.01372 L 57.38837 57.06502 L 57.52034 57.11589 L 57.6523 57.16643 L 57.78426 57.21657 L 57.91623 57.26634 L 58.04819 57.31572 L 58.18015 57.36479 L 58.31209 57.41344 L 58.44406 57.46172 L 58.57605 57.50966 L 58.70798 57.55724 L 58.83995 57.60442 L 58.97191 57.65126 L 59.10387 57.69774 L 59.23584 57.74385 L 59.3678 57.7896 L 59.49976 57.83498 L 59.63171 57.87997 L 59.76369 57.92468 L 59.89563 57.96896 L 60.02759 58.0129 L 60.15956 58.05649 L 60.2915 58.09972 L 60.42348 58.14261 L 60.55545 58.18512 L 60.6874 58.2273 L 60.81937 58.26912 L 60.95131 58.3106 L 61.08328 58.3517 L 61.21526 58.39246 L 61.3472 58.43288 L 61.47917 58.47296 L 61.61111 58.51265 L 61.74309 58.55202 L 61.87506 58.59105 L 62.007 58.62971 L 62.13898 58.66806 L 62.27094 58.70607 L 62.40288 58.74371 L 62.53487 58.78104 L 62.66681 58.81801 L 62.79877 58.85463 L 62.93073 58.89093 L 63.0627 58.92688 L 63.19466 58.9625 L 63.32661 58.99776 L 63.45859 59.0327 L 63.59052 59.0673 L 63.7225 59.1016 L 63.85448 59.13556 L 63.9864 59.16914 L 64.11838 59.20244 L 64.25034 59.23538 L 64.38231 59.268 L 64.51427 59.3003 L 64.64622 59.33226 L 64.7782 59.36392 L 64.91013 59.3952 L 65.0421 59.42618 L 65.17409 59.45688 L 65.30602 59.48718 L 65.43799 59.51721 L 65.56995 59.5469 L 65.7019 59.57628 L 65.83388 59.60533 L 65.96584 59.63406 L 66.0978 59.66249 L 66.22975 59.6906 L 66.36172 59.71837 L 66.49367 59.74583 L 66.62563 59.773 L 66.7576 59.79985 L 66.88954 59.82635 L 67.02151 59.85257 L 67.15349 59.87848 L 67.28543 59.90405 L 67.4174 59.92935 L 67.54935 59.95433 L 67.68134 59.979 L 67.8133 60.00336 L 67.94524 60.0274 L 68.07721 60.05116 L 68.20915 60.07458 L 68.34113 60.09776 L 68.4731 60.12059 L 68.60504 60.14313 L 68.73701 60.16534 L 68.86897 60.1873 L 69.00092 60.20894 L 69.1329 60.23027 L 69.26485 60.25131 L 69.3968 60.27206 L 69.52876 60.29251 L 69.66074 60.31267 L 69.7927 60.33252 L 69.92465 60.35211 L 70.05663 60.37138 L 70.18855 60.39035 L 70.32054 60.40906 L 70.4525 60.42746 L 70.58446 60.44559 L 70.71642 60.46341 L 70.84837 60.48094 L 70.98035 60.49821 L 71.1123 60.51518 L 71.24426 60.53186 L 71.37624 60.54826 L 71.50816 60.56439 L 71.64014 60.58022 L 71.77213 60.59578 L 71.90405 60.61104 L 72.03603 60.62605 L 72.16798 60.64078 L 72.29994 60.65521 L 72.43192 60.66939 L 72.56387 60.68326 L 72.69583 60.69688 L 72.82779 60.71024 L 72.95976 60.7233 L 73.0917 60.7361 L 73.22366 60.7486 L 73.35564 60.76085 L 73.4876 60.77286 L 73.61955 60.78456 L 73.75153 60.796 L 73.88348 60.80719 L 74.01544 60.81808 L 74.14738 60.82877 L 74.27937 60.83913 L 74.41133 60.84926 L 74.54327 60.8591 L 74.67525 60.8687 L 74.80719 60.87805 L 74.93916 60.88713 L 75.07114 60.89594 L 75.20308 60.9045 L 75.33505 60.9128 L 75.46701 60.92084 L 75.59895 60.92862 L 75.73094 60.93617 L 75.86288 60.94344 L 75.99484 60.95045 L 76.1268 60.95723 L 76.25877 60.96375 L 76.39075 60.97003 L 76.52269 60.97604 L 76.65466 60.98181 L 76.7866 60.98734 L 76.91858 60.99261 L 77.05055 60.99763 L 77.1825 61.00243 L 77.31445 61.00697 L 77.44641 61.01128 L 77.57838 61.01532 L 77.71034 61.01913 L 77.8423 61.0227 L 77.97427 61.02603 L 78.1062 61.02913 L 78.23817 61.03198 L 78.37016 61.03458 L 78.50209 61.03697 L 78.63406 61.03911 L 78.76602 61.04102 L 78.89798 61.0427 L 79.02995 61.04413 L 79.16191 61.04533 L 79.29387 61.04633 L 79.42583 61.04706 L 79.5578 61.04758 L 79.68976 61.04787 L 79.8217 61.04791 L 79.95367 61.04774 L 80.08563 61.04735 L 80.21759 61.04672 L 80.34956 61.04588 L 80.48152 61.04482 L 80.61348 61.0435 L 80.74542 61.04202 L 80.87741 61.04028 L 81.00937 61.03833 L 81.14131 61.03613 L 81.27328 61.03377 L 81.40523 61.03113 L 81.5372 61.0283 L 81.66917 61.02527 L 81.80112 61.022 L 81.93309 61.01852 L 82.06505 61.01483 L 82.19699 61.01094 L 82.32898 61.00682 L 82.46092 61.0025 L 82.5929 60.99796 L 82.72484 60.99324 L 82.85681 60.98828 L 82.98878 60.98312 L 83.12073 60.97775 L 83.2527 60.9722 L 83.38466 60.96642 L 83.51662 60.96043 L 83.64859 60.95425 L 83.78053 60.94788 L 83.91249 60.94128 L 84.04445 60.93451 L 84.17642 60.92752 L 84.30838 60.92032 L 84.44034 60.91295 L 84.57231 60.90538 L 84.70424 60.8976 L 84.83621 60.88963 L 84.9682 60.88147 L 85.10013 60.87311 L 85.2321 60.86456 L 85.36406 60.85582 L 85.49603 60.84688 L 85.62799 60.83777 L 85.75995 60.82846 L 85.89192 60.81894 L 86.02386 60.80927 L 86.15584 60.7994 L 86.2878 60.78934 L 86.41974 60.77908 L 86.55171 60.76866 L 86.68367 60.75804 L 86.81563 60.74725 L 86.9476 60.73625 L 87.07956 60.72511 L 87.21152 60.71378 L 87.34346 60.70227 L 87.47545 60.69058 L 87.6074 60.6787 L 87.73935 60.66667 L 87.87132 60.65443 L 88.00327 60.64204 L 88.13524 60.62947 L 88.26721 60.61673 L 88.39915 60.60382 L 88.53113 60.59073 L 88.66309 60.57745 L 88.79504 60.56406 L 88.92702 60.55045 L 89.05896 60.53668 L 89.19093 60.52277 L 89.32288 60.50868 L 89.45485 60.49442 L 89.58682 60.48 L 89.71877 60.46541 L 89.85074 60.45065 L 89.9827 60.43576 L 90.11465 60.42068 L 90.24661 60.40544 L 90.37857 60.39005 L 90.51053 60.37451 L 90.64249 60.35881 L 90.77446 60.34294 L 90.90642 60.32693 L 91.03838 60.31076 L 91.17035 60.29446 L 91.30228 60.27797 L 91.43425 60.26134 L 91.56624 60.24457 L 91.69818 60.22763 L 91.83014 60.21054 L 91.9621 60.19331 L 92.09407 60.17595 L 92.22603 60.15843 L 92.35799 60.14075 L 92.48996 60.12296 L 92.6219 60.10498 L 92.75388 60.08688 L 92.88583 60.06863 L 93.01778 60.05025 L 93.14975 60.03174 L 93.28171 60.01308 L 93.41367 59.99425 L 93.54564 59.97533 L 93.6776 59.95625 L 93.80956 59.93703 L 93.9415 59.91768 L 94.07349 59.89818 L 94.20544 59.87857 L 94.33739 59.8588 L 94.46936 59.83893 L 94.60132 59.81891 L 94.73328 59.79877 L 94.86525 59.77849 L 94.99721 59.75809 L 95.12917 59.73755 L 95.26112 59.71689 L 95.39308 59.6961 L 95.52505 59.67519 L 95.657 59.65416 L 95.78897 59.63301 L 95.92091 59.61172 L 96.05289 59.5903 L 96.18486 59.56877 L 96.3168 59.54716 L 96.44878 59.52538 L 96.58073 59.5035 L 96.71269 59.48152 L 96.84465 59.4594 L 96.97661 59.43718 L 97.10857 59.41481 L 97.24052 59.39236 L 97.3725 59.36978 L 97.50447 59.3471 L 97.63641 59.3243 L 97.76839 59.30139 L 97.90033 59.2784 L 98.03229 59.25526 L 98.16428 59.23203 L 98.29622 59.2087 L 98.42818 59.18524 L 98.56013 59.1617 L 98.69211 59.13805 L 98.82407 59.11427 L 98.95602 59.09042 L 99.088 59.06645 L 99.21994 59.04239 L 99.35191 59.01822 L 99.48387 58.99396 L 99.61581 58.9696 L 99.74779 58.94513 L 99.87975 58.9206 L 100.0117 58.89594 L 100.14368 58.87119 L 100.27563 58.84634 L 100.4076 58.82141 L 100.53954 58.7964 L 100.67152 58.77127 L 100.8035 58.74606 L 100.93542 58.72076 L 101.0674 58.69539 L 101.19936 58.66992 L 101.33131 58.64435 L 101.46329 58.61868 L 101.59525 58.59297 L 101.7272 58.56717 L 101.85916 58.54126 L 101.99112 58.51526 L 102.1231 58.48921 L 102.25504 58.46306 L 102.38701 58.43684 L 102.51895 58.41052 L 102.65092 58.38414 L 102.7829 58.35767 L 102.91484 58.33115 L 103.04681 58.30452 L 103.17877 58.27785 L 103.31073 58.25107 L 103.4427 58.22424 L 103.57465 58.19731 L 103.70662 58.17035 L 103.83856 58.14331 L 103.97054 58.11618 L 104.10251 58.08897 L 104.23445 58.06172 L 104.36642 58.0344 L 104.49837 58.007 L 104.63034 57.97955 L 104.76231 57.95201 L 104.89426 57.92444 L 105.02621 57.89679 L 105.15817 57.8691 L 105.29015 57.84131 L 105.4221 57.81348 L 105.55406 57.7856 L 105.68604 57.75764 L 105.81798 57.72964 L 105.94995 57.70158 L 106.08191 57.67345 L 106.21385 57.64528 L 106.34583 57.61703 L 106.47778 57.58876 L 106.60976 57.56042 L 106.74171 57.53204 L 106.87367 57.50362 L 107.00565 57.47513 L 107.13757 57.44658 L 107.26956 57.418 L 107.40154 57.38936 L 107.53346 57.36069 L 107.66544 57.33197 L 107.7974 57.30319 L 107.92935 57.27438 L 108.06133 57.24553 L 108.19328 57.21661 L 108.32524 57.1877 L 108.4572 57.15874 L 108.58916 57.12971 L 108.72113 57.10063 L 108.85307 57.07156 L 108.98505 57.04242 L 109.11699 57.01324 L 109.24896 56.98405 L 109.38094 56.95482 L 109.51288 56.92554 L 109.64485 56.89624 L 109.77681 56.8669 L 109.90878 56.83754 L 110.04073 56.80815 L 110.17268 56.77872 L 110.30466 56.74927 L 110.4366 56.71979 L 110.56857 56.69028 L 110.70055 56.66075 L 110.83249 56.6312 L 110.96446 56.60161 L 111.0964 56.572 L 111.22838 56.54239 L 111.36035 56.51273 L 111.4923 56.48306 L 111.62425 56.45335 L 111.75621 56.42368 L 111.88818 56.39395 L 112.02014 56.3642 L 112.1521 56.33446 L 112.28407 56.30467 L 112.41602 56.27487 L 112.54799 56.24509 L 112.67995 56.21529 L 112.8119 56.18546 L 112.94386 56.15561 L 113.07582 56.12576 L 113.2078 56.0959 L 113.33975 56.06604 L 113.47171 56.03618 L 113.60368 56.0063 L 113.73561 55.97643 L 113.8676 55.94655 L 113.99957 55.91664 L 114.1315 55.88673 L 114.26347 55.85683 L 114.39543 55.82693 L 114.52739 55.79704 L 114.65936 55.76714 L 114.79132 55.73724 L 114.92328 55.70735 L 115.05524 55.67743 L 115.1872 55.64755 L 115.31917 55.61768 L 115.45111 55.5878 L 115.58308 55.55792 L 115.71504 55.52806 L 115.847 55.4982 L 115.97897 55.46835 L 116.11093 55.43852 L 116.24289 55.40868 L 116.37485 55.37888 L 116.50682 55.34908 L 116.63876 55.31927 L 116.77072 55.28949 L 116.9027 55.25974 L 117.03464 55.23 L 117.16661 55.20024 L 117.29858 55.17055 L 117.43053 55.14085 L 117.5625 55.11119 L 117.69444 55.08151 L 117.82642 55.0519 L 117.95839 55.0223 L 118.09033 54.9927 L 118.22229 54.96313 L 118.35425 54.93361 L 118.48622 54.90408 L 118.61818 54.87459 L 118.75014 54.84512 L 118.88211 54.81569 L 119.01407 54.7863 L 119.14603 54.75693 L 119.27798 54.72757 L 119.40994 54.69826 L 119.5419 54.66898 L 119.67386 54.63974 L 119.80583 54.61053 L 119.93779 54.58134 L 120.06975 54.55222 L 120.20172 54.5231 L 120.33365 54.49403 L 120.46564 54.465 L 120.59761 54.436 L 120.72954 54.40707 L 120.86151 54.37816 L 120.99347 54.34929 L 121.12543 54.32048 L 121.2574 54.29169 L 121.38936 54.26295 L 121.52132 54.23427 L 121.65327 54.20563 L 121.78523 54.17702 L 121.91722 54.14847 L 122.04915 54.11996 L 122.18112 54.09152 L 122.31308 54.06313 L 122.44504 54.03474 L 122.57701 54.00647 L 122.70897 53.97824 L 122.84093 53.95003 L 122.97289 53.92189 L 123.10486 53.89381 L 123.2368 53.8658 L 123.36876 53.83783 L 123.50073 53.80992 L 123.63268 53.78207 L 123.76465 53.75427 L 123.89662 53.72655 L 124.02856 53.6989 L 124.16054 53.6713 L 124.29248 53.64375 L 124.42445 53.61627 L 124.55643 53.58887 L 124.68837 53.56152 L 124.82034 53.53423 L 124.95229 53.50703 L 125.08426 53.4799 L 125.21623 53.45282 L 125.34818 53.42581 L 125.48015 53.39888 L 125.6121 53.37202 L 125.74406 53.34525 L 125.87602 53.31854 L 126.00798 53.29192 L 126.13994 53.26535 L 126.2719 53.23888 L 126.40387 53.21245 L 126.53583 53.18613 L 126.66779 53.15987 L 126.79976 53.1337 L 126.93169 53.1076 L 127.06367 53.0816 L 127.19565 53.0557 L 127.32758 53.02985 L 127.45955 53.00407 L 127.5915 52.97842 L 127.72348 52.95284 L 127.85544 52.92734 L 127.9874 52.90192 L 128.11937 52.8766 L 128.25131 52.85138 L 128.38327 52.82622 L 128.51526 52.80118 L 128.64719 52.77621 L 128.77916 52.75134 L 128.91112 52.72656 L 129.04308 52.70189 L 129.17505 52.67729 L 129.307 52.65283 L 129.43897 52.62843 L 129.57093 52.60414 L 129.7029 52.57996 L 129.83486 52.55586 L 129.9668 52.53188 L 130.09877 52.50798 L 130.23072 52.48418 L 130.36269 52.4605 L 130.49466 52.43692 L 130.6266 52.41344 L 130.75858 52.39008 L 130.89052 52.3668 L 131.0225 52.34364 L 131.15447 52.3206 L 131.2864 52.29767 L 131.41838 52.27486 L 131.55033 52.25214 L 131.6823 52.22952 L 131.81427 52.20703 L 131.94622 52.18466 L 132.07819 52.16238 L 132.21015 52.14024 L 132.3421 52.11821 L 132.47408 52.0963 L 132.60602 52.07451 L 132.73798 52.05281 L 132.86994 52.03127 L 133.0019 52.00984 L 133.13387 51.98851 L 133.26583 51.96733 L 133.3978 51.94624 L 133.52973 51.9253 L 133.66172 51.90446 L 133.79369 51.88379 L 133.92563 51.86322 L 134.05759 51.84279 L 134.18955 51.82248 L 134.32152 51.80228 L 134.45348 51.78221 L 134.58544 51.7623 L 134.7174 51.74251 L 134.84935 51.72285 L 134.98131 51.70334 L 135.1133 51.68394 L 135.24523 51.66467 L 135.3772 51.64557 L 135.50916 51.6266 L 135.64112 51.60773 L 135.77309 51.58905 L 135.90505 51.57047 L 136.037 51.55203 L 136.16896 51.53377 L 136.30094 51.51563 L 136.43289 51.49762 L 136.56485 51.47977 L 136.69681 51.46207 L 136.82877 51.44449 L 136.96073 51.42706 L 137.0927 51.4098 L 137.22466 51.39268 L 137.35662 51.3757 L 137.48856 51.35889 L 137.62055 51.34222 L 137.7525 51.32568 L 137.88445 51.30934 L 138.01642 51.2931 L 138.14836 51.27705 L 138.28034 51.26115 L 138.41231 51.2454 L 138.54425 51.22981 L 138.67623 51.21437 L 138.80818 51.19911 L 138.94014 51.18399 L 139.07212 51.16904 L 139.20406 51.15424 L 139.33602 51.1396 L 139.46797 51.12512 L 139.59995 51.11082 L 139.7319 51.09668 L 139.86386 51.08273 L 139.99584 51.06892 L 140.12778 51.05525 L 140.25975 51.04181 L 140.39173 51.02849 L 140.52367 51.01537 L 140.65563 51.0024 L 140.78759 50.98961 L 140.91956 50.97699 L 141.05152 50.96455 L 141.18347 50.95227 L 141.31545 50.94017 L 141.44739 50.92827 L 141.57935 50.91652 L 141.71134 50.90494 L 141.84326 50.89355 L 141.97524 50.88235 L 142.1072 50.87134 L 142.23915 50.86046 L 142.37113 50.84982 L 142.50308 50.83932 L 142.63504 50.82903 L 142.767 50.81892 L 142.89897 50.80899 L 143.03093 50.79926 L 143.16287 50.7897 L 143.29485 50.78032 L 143.4268 50.77115 L 143.55876 50.76216 L 143.69074 50.75337 L 143.8227 50.74478 L 143.95465 50.73636 L 144.0866 50.72815 L 144.21858 50.72011 L 144.35054 50.71227 L 144.48249 50.70464 L 144.61446 50.6972 L 144.7464 50.68999 L 144.87837 50.68294 L 145.01035 50.67607 L 145.14229 50.66945 L 145.27426 50.66301 L 145.40622 50.65677 L 145.53818 50.65074 L 145.67015 50.6449 L 145.8021 50.63927 L 145.93407 50.63383 L 146.06601 50.62862 L 146.19799 50.62361 L 146.32996 50.6188 L 146.4619 50.61421 L 146.59387 50.60983 L 146.72583 50.60568 L 146.85779 50.60172 L 146.98976 50.59795 L 147.1217 50.59442 L 147.25366 50.5911 L 147.38562 50.588 L 147.5176 50.58511 L 147.64955 50.58243 L 147.78151 50.57997 L 147.91349 50.57773 L 148.04543 50.57571 L 148.17739 50.5739 L 148.30937 50.57233 L 148.4413 50.57098 L 148.57328 50.56984 L 148.70523 50.56894 L 148.8372 50.56827 L 148.96916 50.56781 L 149.10112 50.56757 L 149.2331 50.56757 L 149.36504 50.56778 L 149.49701 50.56824 L 149.62897 50.56891 L 149.76093 50.56981 L 149.89289 50.57095 L 150.02484 50.57233 L 150.1568 50.57393 L 150.28878 50.57579 L 150.42073 50.57784 L 150.55269 50.58017 L 150.68463 50.5827 L 150.81662 50.5855 L 150.94858 50.58852 L 151.08052 50.59178 L 151.2125 50.59528 L 151.34444 50.59901 L 151.47641 50.60301 L 151.60839 50.60724 L 151.74033 50.6117 L 151.8723 50.61642 L 152.00426 50.6214 L 152.13623 50.62659 L 152.26819 50.63203 L 152.40013 50.63776 L 152.5321 50.64369 L 152.66405 50.64989 L 152.79602 50.65633 L 152.928 50.66304 L 153.05994 50.67 L 153.19191 50.6772 L 153.32387 50.68465 L 153.45583 50.69237 L 153.5878 50.70033 L 153.71974 50.70856 L 153.8517 50.71706 L 153.98366 50.7258 L 154.11563 50.73479 L 154.24759 50.74405 L 154.37955 50.75357 L 154.51152 50.76337 L 154.64347 50.7734 L 154.77542 50.78372 L 154.90741 50.79428 L 155.03936 50.80513 L 155.17131 50.81624 L 155.30327 50.8276 L 155.43524 50.83925 L 155.5672 50.85114 L 155.69916 50.86331 L 155.83113 50.87576 L 155.96308 50.88849 L 156.09505 50.90149 L 156.22702 50.91475 L 156.35897 50.92828 L 156.49092 50.9421 L 156.62288 50.95618 L 156.75484 50.97054 L 156.88681 50.9852 L 157.01877 51.00009 L 157.15073 51.0153 L 157.28267 51.03078 L 157.41466 51.04654 L 157.54662 51.06258 L 157.67856 51.07889 L 157.81055 51.0955 L 157.94249 51.11238 L 158.07445 51.12956 L 158.20642 51.14702 L 158.33838 51.16476 L 158.47034 51.1828 L 158.6023 51.20113 L 158.73427 51.21974 L 158.86623 51.23865 L 158.99817 51.25781 L 159.13014 51.27731 L 159.26209 51.29709 L 159.39406 51.31715 L 159.52603 51.33751 L 159.65798 51.3582 L 159.78995 51.37915 L 159.9219 51.4004 L 160.05387 51.42197 L 160.18584 51.4438 L 160.31778 51.46597 L 160.44974 51.4884 L 160.5817 51.51117 L 160.71367 51.53421 L 160.84563 51.55757 L 160.97759 51.58124 L 161.10956 51.60521 L 161.24152 51.62949 L 161.37346 51.65407 L 161.50545 51.67896 L 161.63739 51.70416 L 161.76935 51.72964 L 161.9013 51.75546 L 162.03328 51.7816 L 162.16524 51.80803 L 162.2972 51.83478 L 162.42917 51.86185 L 162.56111 51.88922 L 162.69309 51.91692 L 162.82506 51.94493 L 162.95699 51.97327 L 163.08896 52.0019 L 163.22092 52.03087 L 163.35288 52.06013 L 163.48485 52.08974 L 163.6168 52.11967 L 163.74877 52.14992 L 163.8807 52.18048 L 164.0127 52.21136 L 164.14467 52.24261 L 164.2766 52.27412 L 164.40859 52.30602 L 164.54053 52.33821 L 164.67249 52.37073 L 164.80446 52.4036 L 164.93642 52.43678 L 165.06838 52.4703 L 165.20034 52.50417 L 165.3323 52.53833 L 165.46427 52.57285 L 165.5962 52.60768 L 165.72818 52.64288 L 165.86013 52.67839 L 165.9921 52.71423 L 166.12407 52.75044 L 166.25601 52.78697 L 166.38799 52.82384 L 166.51995 52.86105 "/>
<path transform="matrix(2.7777777,0,0,-2.7777777,28.780554,484.67774)" stroke-width=".79701" stroke-linecap="butt" stroke-miterlimit="10" stroke-linejoin="miter" fill="none" stroke="#000000" d="M 34.69113 42.00777 L 34.69113 83.92935 "/>
<path transform="matrix(2.7777777,0,0,-2.7777777,28.780554,484.67774)" stroke-width=".79701" stroke-linecap="butt" stroke-miterlimit="10" stroke-linejoin="miter" fill="none" stroke="#000000" d="M 166.51662 52.8601 L 166.51662 94.7817 "/>
<path transform="matrix(2.7777777,0,0,-2.7777777,28.780554,484.67774)" stroke-width=".3985" stroke-linecap="butt" stroke-dasharray="2.98883,2.98883" stroke-miterlimit="10" stroke-linejoin="miter" fill="none" stroke="#000000" d="M 34.69113 33.5369 L 34.69113 42.00777 "/>
<path transform="matrix(2.7777777,0,0,-2.7777777,28.780554,484.67774)" stroke-width=".3985" stroke-linecap="butt" stroke-dasharray="2.98883,2.98883" stroke-miterlimit="10" stroke-linejoin="miter" fill="none" stroke="#000000" d="M 166.51662 33.5369 L 166.51662 52.8601 "/>
<symbol id="font_3_4">
<path d="M .291 .087000008 C .29500003 .047000003 .32200004 .005000001 .36900003 .005000001 C .39000003 .005000001 .45100004 .019000002 .45100004 .1 L .45100004 .15600002 L .42600004 .15600002 L .42600004 .1 C .42600004 .042000005 .40100003 .036000004 .39000003 .036000004 C .35700003 .036000004 .35300002 .081 .35300002 .086 L .35300002 .286 C .35300002 .328 .35300002 .367 .31700004 .404 C .27800004 .44300003 .22800002 .45900003 .18 .45900003 C .098 .45900003 .029 .41200004 .029 .34600003 C .029 .316 .049000004 .29900003 .075 .29900003 C .10300001 .29900003 .121 .31900005 .121 .34500004 C .121 .35700003 .116000007 .39000003 .07 .39100004 C .09700001 .42600004 .146 .43700005 .178 .43700005 C .22700003 .43700005 .284 .39800004 .284 .30900003 L .284 .272 C .23300001 .26900003 .16300002 .26600004 .1 .23600002 C .024999999 .20200002 0 .15000002 0 .106000009 C 0 .025000003 .09700001 0 .16 0 C .22600001 0 .272 .040000004 .291 .087000008 M .284 .25100003 L .284 .15100001 C .284 .056 .21200001 .022000002 .167 .022000002 C .11800001 .022000002 .077 .057000005 .077 .107 C .077 .16200002 .11900001 .24500002 .284 .25100003 Z "/>
</symbol>
<use xlink:href="#font_3_4" transform="matrix(27.673888,0,0,-27.673888,119.3873,412.34049)"/>
<symbol id="font_3_5">
<path d="M .14400001 .388 L .14400001 .705 L 0 .694 L 0 .663 C .07000001 .663 .07800001 .656 .07800001 .607 L .07800001 .011000001 L .103000018 .011000001 C .104 .012000001 .112 .026 .13900002 .07300001 C .15400002 .05 .19600001 0 .27 0 C .38900004 0 .49300004 .098000008 .49300004 .22700002 C .49300004 .35400004 .395 .45300005 .28100003 .45300005 C .20300001 .45300005 .16000001 .40600003 .14400001 .388 M .14700002 .12500002 L .14700002 .33100004 C .14700002 .35000003 .14700002 .351 .158 .367 C .19700001 .42300005 .252 .43100003 .27600003 .43100003 C .321 .43100003 .35700003 .40500004 .381 .367 C .40700004 .32600004 .41000004 .26900003 .41000004 .22800002 C .41000004 .19100002 .40800003 .13100001 .379 .086 C .358 .055000005 .32000003 .022000002 .266 .022000002 C .22100002 .022000002 .18500002 .046 .16100002 .083000008 C .14700002 .104 .14700002 .107 .14700002 .12500002 Z "/>
</symbol>
<use xlink:href="#font_3_5" transform="matrix(27.673888,0,0,-27.673888,484.4082,415.99049)"/>
<symbol id="font_4_4">
<path d="M .45700003 .586 C .461 .6 .461 .602 .461 .609 C .461 .62700006 .447 .63600006 .432 .63600006 C .42200003 .63600006 .40600003 .63 .397 .615 C .395 .61 .387 .579 .38300003 .561 C .37600003 .535 .36900003 .508 .363 .48100005 L .318 .301 C .314 .286 .271 .21600002 .20500002 .21600002 C .15400002 .21600002 .143 .26000003 .143 .29700003 C .143 .34300003 .16000001 .40500004 .194 .49300004 C .21000001 .53400006 .21400002 .545 .21400002 .56500008 C .21400002 .61 .18200001 .6470001 .13200002 .6470001 C .037 .6470001 0 .50200006 0 .49300004 C 0 .48300005 .01 .48300005 .012 .48300005 C .022000002 .48300005 .023 .485 .028000003 .50100007 C .055000009 .595 .095000009 .625 .12900001 .625 C .13700001 .625 .15400002 .625 .15400002 .59300008 C .15400002 .568 .14400001 .54200008 .13700001 .523 C .097 .41700004 .079 .36 .079 .31300003 C .079 .224 .142 .194 .201 .194 C .24000003 .194 .274 .21100001 .30200003 .23900002 C .289 .187 .277 .13800001 .237 .08500001 C .21100001 .051 .17300001 .022 .127 .022 C .113000009 .022 .068 .025000006 .051000008 .06400001 C .067 .06400001 .080000009 .06400001 .094000007 .076000008 C .104 .08500001 .11400001 .098000008 .11400001 .117000009 C .11400001 .148 .087000008 .15200001 .07700001 .15200001 C .054000006 .15200001 .021 .136 .021 .087000008 C .021 .037 .065000008 0 .127 0 C .23 0 .333 .091000009 .361 .20400001 L .45700003 .586 Z "/>
</symbol>
<use xlink:href="#font_4_4" transform="matrix(27.673888,0,0,-27.673888,270.82478,185.7759)"/>
<symbol id="font_3_3">
<path d="M .63100007 .19400002 C .646 .19400002 .665 .19400002 .665 .214 C .665 .23400001 .646 .23400001 .632 .23400001 L .033 .23400001 C .019000002 .23400001 0 .23400001 0 .214 C 0 .19400002 .019000002 .19400002 .034 .19400002 L .63100007 .19400002 M .632 0 C .646 0 .665 0 .665 .02000001 C .665 .040000008 .646 .040000008 .63100007 .040000008 L .034 .040000008 C .019000002 .040000008 0 .040000008 0 .02000001 C 0 0 .019000002 0 .033 0 L .632 0 Z "/>
</symbol>
<use xlink:href="#font_3_3" transform="matrix(27.673888,0,0,-27.673888,293.82197,176.42212)"/>
<symbol id="font_4_1">
<path d="M .314 .605 L .4 .605 C .42000003 .605 .43 .605 .43 .625 C .43 .63600006 .42000003 .63600006 .40300004 .63600006 L .32000003 .63600006 L .34100003 .75 C .34500004 .771 .35900004 .842 .365 .8540001 C .374 .873 .39100004 .888 .41200004 .888 C .416 .888 .44200004 .888 .461 .87 C .41700004 .86600008 .407 .8310001 .407 .816 C .407 .793 .425 .781 .444 .781 C .47 .781 .49900005 .8030001 .49900005 .8410001 C .49900005 .8870001 .45300005 .9100001 .41200004 .9100001 C .37800003 .9100001 .31500004 .8920001 .28500004 .793 C .279 .7720001 .27600003 .7620001 .252 .63600006 L .18300002 .63600006 C .164 .63600006 .15300001 .63600006 .15300001 .61700007 C .15300001 .605 .162 .605 .18100001 .605 L .24700001 .605 L .172 .21000001 C .15400002 .113000009 .13700001 .022 .08500001 .022 C .081 .022 .056 .022 .037 .040000008 C .083000008 .043000014 .09200001 .07900001 .09200001 .094000007 C .09200001 .117000009 .074 .12900001 .055 .12900001 C .029 .12900001 0 .10700001 0 .069000009 C 0 .024000004 .044 0 .08500001 0 C .14 0 .18 .059 .19800002 .09700001 C .23000002 .16000001 .25300003 .28100003 .254 .28800003 L .314 .605 Z "/>
</symbol>
<use xlink:href="#font_4_1" transform="matrix(27.673888,0,0,-27.673888,322.95005,185.7759)"/>
<symbol id="font_3_1">
<path d="M .23200003 .00999999 C .23200003 .012999982 .23200003 .014999986 .215 .03199999 C .09 .15799999 .058 .347 .058 .5 C .058 .674 .096 .84800007 .21900001 .97300007 C .23200003 .985 .23200003 .98700007 .23200003 .99 C .23200003 .99700006 .22800002 1 .222 1 C .21200001 1 .12200001 .93200007 .06299999 .805 C .012000002 .69500008 0 .584 0 .5 C 0 .422 .011 .301 .066 .188 C .126 .065 .21200001 0 .222 0 C .22800002 0 .23200003 .0029999912 .23200003 .00999999 Z "/>
</symbol>
<use xlink:href="#font_3_1" transform="matrix(27.673888,0,0,-27.673888,340.7508,187.02123)"/>
<symbol id="font_4_3">
<path d="M .305 .31300003 C .311 .33900003 .334 .43100003 .404 .43100003 C .409 .43100003 .433 .43100003 .454 .418 C .426 .41300003 .40600003 .388 .40600003 .36400003 C .40600003 .34800003 .417 .32900004 .444 .32900004 C .46600003 .32900004 .498 .34700004 .498 .38700003 C .498 .43900005 .439 .45300005 .405 .45300005 C .347 .45300005 .312 .40000005 .3 .37700004 C .275 .44300003 .221 .45300005 .19200002 .45300005 C .08800001 .45300005 .031000002 .32400004 .031000002 .29900003 C .031000002 .28900004 .041 .28900004 .043000007 .28900004 C .051000008 .28900004 .054000006 .291 .056 .3 C .09 .40600003 .156 .43100003 .19000001 .43100003 C .209 .43100003 .244 .42200003 .244 .36400003 C .244 .33300004 .22700002 .26600004 .19000001 .126 C .17400001 .064 .13900002 .022000002 .095000009 .022000002 C .08900001 .022000002 .06600001 .022000002 .045 .035 C .07000001 .040000004 .09200001 .061 .09200001 .089 C .09200001 .116000007 .07000001 .124000009 .055000009 .124000009 C .025 .124000009 0 .098000008 0 .06600001 C 0 .020000002 .050000006 0 .094000007 0 C .16000001 0 .19600001 .07000001 .19900002 .076000008 C .21100001 .039 .24700003 0 .307 0 C .41 0 .467 .12900001 .467 .15400002 C .467 .16400002 .458 .16400002 .455 .16400002 C .446 .16400002 .444 .16000001 .442 .15300001 C .409 .046 .341 .022000002 .30900003 .022000002 C .27 .022000002 .254 .054 .254 .08800001 C .254 .11000001 .26 .13200002 .271 .17600002 L .305 .31300003 Z "/>
</symbol>
<use xlink:href="#font_4_3" transform="matrix(27.673888,0,0,-27.673888,349.57478,180.40717)"/>
<symbol id="font_3_2">
<path d="M .232 .5 C .232 .578 .22100002 .699 .16600001 .81200006 C .106 .93500009 .020000004 1 .009999998 1 C .0040000008 1 0 .99600008 0 .99 C 0 .98700007 0 .985 .019000002 .967 C .117000009 .86800006 .174 .709 .174 .5 C .174 .329 .137 .153 .012999997 .026999996 C 0 .014999986 0 .012999982 0 .00999999 C 0 .003999993 .0040000008 0 .009999998 0 C .020000004 0 .11000001 .06799999 .169 .195 C .22 .305 .232 .416 .232 .5 Z "/>
</symbol>
<use xlink:href="#font_3_2" transform="matrix(27.673888,0,0,-27.673888,366.1663,187.02123)"/>
<use xlink:href="#font_4_4" transform="matrix(27.673888,0,0,-27.673888,271.9942,375.00093)"/>
<use xlink:href="#font_3_3" transform="matrix(27.673888,0,0,-27.673888,294.98863,365.64714)"/>
<symbol id="font_4_2">
<path d="M .45600004 .582 C .45700003 .58800008 .45900006 .59300008 .45900006 .6 C .45900006 .61700007 .44700004 .62700006 .43 .62700006 C .42000003 .62700006 .393 .62 .389 .584 C .371 .62100008 .33600004 .6470001 .296 .6470001 C .18200001 .6470001 .058000007 .507 .058000007 .36300005 C .058000007 .26400004 .119 .20500002 .19100002 .20500002 C .25 .20500002 .297 .252 .30700005 .263 L .30800004 .26200003 C .287 .17300001 .27500005 .132 .27500005 .13000001 C .27100004 .12100001 .237 .022 .13100001 .022 C .112 .022 .079 .023000002 .051 .032000007 C .081 .04100001 .09200001 .067 .09200001 .08400001 C .09200001 .10000001 .081 .11900001 .054000006 .11900001 C .032 .11900001 0 .10100001 0 .061000006 C 0 .02000001 .037 0 .133 0 C .25800003 0 .33000005 .07800001 .34500004 .13800001 L .45600004 .582 M .32600004 .333 C .32 .307 .297 .282 .27500005 .263 C .254 .24500002 .223 .22700002 .194 .22700002 C .14400001 .22700002 .12900001 .279 .12900001 .319 C .12900001 .367 .158 .485 .185 .536 C .21200001 .58500006 .255 .625 .297 .625 C .36300005 .625 .37700004 .544 .37700004 .53900006 C .37700004 .53400006 .375 .528 .374 .52400007 L .32600004 .333 Z "/>
</symbol>
<use xlink:href="#font_4_2" transform="matrix(27.673888,0,0,-27.673888,323.0651,375.00093)"/>
<use xlink:href="#font_3_1" transform="matrix(27.673888,0,0,-27.673888,339.58137,376.24623)"/>
<use xlink:href="#font_4_3" transform="matrix(27.673888,0,0,-27.673888,348.40809,369.63218)"/>
<use xlink:href="#font_3_2" transform="matrix(27.673888,0,0,-27.673888,364.99964,376.24623)"/>
</g>
<use xlink:href="#font_4_3" transform="matrix(27.673888,0,0,-27.673888,579.07199,413.51548)"/>
<use xlink:href="#font_4_4" transform="matrix(27.673888,0,0,-27.673888,82.33587,26.812033)"/>
</g>
</svg>
