<?xml version="1.0" encoding="UTF-8" standalone="no"?>
<!DOCTYPE svg PUBLIC "-//W3C//DTD SVG 1.1//EN" "http://www.w3.org/Graphics/SVG/1.1/DTD/svg11.dtd">
<svg xmlns="http://www.w3.org/2000/svg" xmlns:xlink="http://www.w3.org/1999/xlink" version="1.1" width="584.88888pt" height="485.78889pt" viewBox="0 0 584.88888 485.78889">
<g enable-background="new">
<path transform="matrix(2.7777777,0,0,-2.7777777,10.330556,484.68055)" stroke-width=".79701" stroke-linecap="butt" stroke-miterlimit="10" stroke-linejoin="miter" fill="none" stroke="#000000" d="M 0 42.26996 L 191.68721 42.26996 "/>
<path transform="matrix(2.7777777,0,0,-2.7777777,542.79489,367.26399)" d="M 2.59026 0 L -1.55415 2.0722 L 0 0 L -1.55415 -2.0722 "/>
<path transform="matrix(2.7777777,0,0,-2.7777777,10.330556,484.68055)" stroke-width=".79701" stroke-linecap="butt" stroke-miterlimit="10" stroke-linejoin="miter" fill="none" stroke="#000000" d="M 87.2283 0 L 87.2283 158.80481 "/>
<path transform="matrix(0,-2.7777222,-2.7777222,-0,252.6314,43.556085)" d="M 2.59026 0 L -1.55415 2.0722 L 0 0 L -1.55415 -2.0722 "/>
<clipPath id="cp0">
<path transform="matrix(2.7777777,0,0,-2.7777777,10.330556,484.68055)" d="M 0 0 L 194.27744 0 L 194.27744 161.39504 L 0 161.39504 Z "/>
</clipPath>
<g clip-path="url(#cp0)">
<path transform="matrix(2.7777777,0,0,-2.7777777,10.330556,484.68055)" d="M 87.22829 69.44191 L 87.19696 69.43117 L 87.32594 69.47536 L 87.45494 69.51947 L 87.58392 69.56352 L 87.71292 69.60745 L 87.84189 69.65135 L 87.97087 69.69518 L 88.09988 69.73895 L 88.22885 69.78262 L 88.35785 69.82625 L 88.48682 69.86981 L 88.61581 69.91328 L 88.74481 69.9567 L 88.87378 70.00003 L 89.00279 70.0433 L 89.13176 70.0865 L 89.26074 70.12965 L 89.38974 70.1727 L 89.5187 70.21573 L 89.64772 70.25867 L 89.77669 70.30153 L 89.90569 70.34433 L 90.03468 70.38712 L 90.16365 70.42976 L 90.29265 70.4724 L 90.42162 70.51495 L 90.55063 70.55742 L 90.67961 70.59985 L 90.80858 70.64221 L 90.93758 70.68452 L 91.06656 70.72673 L 91.19556 70.76889 L 91.32454 70.81102 L 91.4535 70.85307 L 91.58252 70.89503 L 91.71149 70.93697 L 91.84048 70.97884 L 91.96948 71.02065 L 92.09845 71.06235 L 92.22745 71.10405 L 92.35641 71.14565 L 92.48543 71.18723 L 92.61441 71.22873 L 92.7434 71.27016 L 92.87239 71.31152 L 93.00136 71.35286 L 93.13036 71.39412 L 93.25934 71.43533 L 93.38834 71.47647 L 93.51732 71.51758 L 93.64629 71.5586 L 93.77528 71.5996 L 93.90428 71.64052 L 94.03326 71.68135 L 94.16225 71.72217 L 94.29121 71.76291 L 94.42023 71.8036 L 94.54921 71.84424 L 94.67819 71.88483 L 94.80719 71.92532 L 94.93617 71.9658 L 95.06516 72.00621 L 95.19414 72.04659 L 95.32312 72.08688 L 95.45212 72.12714 L 95.5811 72.16733 L 95.71008 72.20746 L 95.83908 72.24756 L 95.96806 72.28758 L 96.09705 72.32758 L 96.22603 72.36752 L 96.35503 72.40738 L 96.48401 72.44719 L 96.61299 72.48695 L 96.74197 72.5267 L 96.87097 72.56633 L 96.99995 72.60597 L 97.12894 72.64554 L 97.25792 72.68504 L 97.38692 72.72449 L 97.5159 72.76392 L 97.64488 72.80327 L 97.7739 72.84256 L 97.90286 72.88184 L 98.03185 72.92102 L 98.16083 72.96016 L 98.28983 72.99928 L 98.41882 73.03838 L 98.54779 73.07735 L 98.67679 73.1163 L 98.80577 73.15523 L 98.93475 73.19406 L 99.06375 73.23288 L 99.19272 73.27164 L 99.32172 73.31038 L 99.4507 73.34904 L 99.57968 73.38765 L 99.7087 73.42622 L 99.83766 73.46474 L 99.96664 73.50322 L 100.09563 73.54163 L 100.22462 73.58 L 100.35362 73.61835 L 100.48259 73.65662 L 100.6116 73.69489 L 100.74057 73.73303 L 100.86955 73.77121 L 100.99855 73.8093 L 101.12752 73.84735 L 101.25653 73.88538 L 101.3855 73.92336 L 101.51448 73.96127 L 101.6435 73.99913 L 101.77246 74.03696 L 101.90146 74.07475 L 102.03043 74.11246 L 102.15942 74.15015 L 102.28842 74.18779 L 102.41739 74.22542 L 102.54639 74.26299 L 102.67537 74.30049 L 102.80435 74.33795 L 102.93335 74.37541 L 103.06233 74.41278 L 103.19133 74.4501 L 103.3203 74.4874 L 103.4493 74.52467 L 103.5783 74.56186 L 103.70726 74.59903 L 103.83626 74.63614 L 103.96523 74.67325 L 104.09424 74.71031 L 104.22322 74.7473 L 104.35219 74.78424 L 104.4812 74.82117 L 104.61017 74.85803 L 104.73917 74.89485 L 104.86815 74.93166 L 104.99712 74.96841 L 105.12613 75.00513 L 105.2551 75.04176 L 105.3841 75.07843 L 105.51309 75.11497 L 105.64207 75.15154 L 105.77106 75.18803 L 105.90002 75.2245 L 106.02904 75.26091 L 106.15802 75.29729 L 106.287 75.33362 L 106.41599 75.36992 L 106.54497 75.4062 L 106.67397 75.44243 L 106.80295 75.4786 L 106.93193 75.51476 L 107.06093 75.55084 L 107.1899 75.5869 L 107.3189 75.62296 L 107.44789 75.65894 L 107.57687 75.69489 L 107.70586 75.73079 L 107.83482 75.76666 L 107.96384 75.80247 L 108.09282 75.83827 L 108.2218 75.87404 L 108.35078 75.90974 L 108.47978 75.94543 L 108.60876 75.9811 L 108.73775 76.01671 L 108.86673 76.05226 L 108.99573 76.0878 L 109.12471 76.12329 L 109.2537 76.15875 L 109.38269 76.19417 L 109.51167 76.22954 L 109.64066 76.2649 L 109.76964 76.30017 L 109.89864 76.33548 L 110.02762 76.37068 L 110.1566 76.4059 L 110.2856 76.44104 L 110.41458 76.47618 L 110.54356 76.51128 L 110.67255 76.54633 L 110.80153 76.58134 L 110.93053 76.61635 L 111.05951 76.65129 L 111.18849 76.68622 L 111.3175 76.72107 L 111.44647 76.75592 L 111.57545 76.79073 L 111.70444 76.82547 L 111.83344 76.86021 L 111.96243 76.89491 L 112.0914 76.92958 L 112.22038 76.96423 L 112.34938 76.99883 L 112.47836 77.03339 L 112.60736 77.0679 L 112.73633 77.1024 L 112.86533 77.13686 L 112.99431 77.1713 L 113.12329 77.2057 L 113.2523 77.24004 L 113.38127 77.27435 L 113.51025 77.30867 L 113.63924 77.34291 L 113.76823 77.37714 L 113.89723 77.41133 L 114.0262 77.44548 L 114.1552 77.47961 L 114.28418 77.5137 L 114.41316 77.54778 L 114.54216 77.58179 L 114.67113 77.61578 L 114.80014 77.64975 L 114.92911 77.68365 L 115.05809 77.71756 L 115.1871 77.75143 L 115.31607 77.78525 L 115.44507 77.81906 L 115.57404 77.85281 L 115.70303 77.88657 L 115.83203 77.92026 L 115.961 77.95395 L 116.09 77.98755 L 116.21898 78.02116 L 116.34798 78.05473 L 116.47696 78.0883 L 116.60593 78.12181 L 116.73494 78.15529 L 116.8639 78.18875 L 116.9929 78.22218 L 117.1219 78.25555 L 117.25087 78.2889 L 117.37987 78.32222 L 117.50883 78.3555 L 117.63785 78.38878 L 117.76683 78.42203 L 117.8958 78.45523 L 118.0248 78.48842 L 118.15378 78.52156 L 118.28278 78.55469 L 118.41176 78.58774 L 118.54073 78.62077 L 118.66974 78.65382 L 118.7987 78.68678 L 118.9277 78.71976 L 119.0567 78.75272 L 119.18568 78.78561 L 119.31467 78.81847 L 119.44363 78.8513 L 119.57265 78.88414 L 119.70163 78.91692 L 119.83061 78.94968 L 119.9596 78.98239 L 120.08856 79.01508 L 120.21758 79.04776 L 120.34656 79.08043 L 120.47554 79.11304 L 120.60454 79.1456 L 120.7335 79.17815 L 120.8625 79.2107 L 120.9915 79.24316 L 121.12048 79.27562 L 121.24947 79.30809 L 121.37843 79.34048 L 121.50743 79.37288 L 121.63643 79.40521 L 121.76541 79.43755 L 121.8944 79.46982 L 122.02339 79.5021 L 122.15237 79.53435 L 122.28136 79.56657 L 122.41034 79.59877 L 122.53934 79.6309 L 122.66832 79.66304 L 122.7973 79.69513 L 122.9263 79.72722 L 123.05528 79.75925 L 123.18427 79.7913 L 123.31325 79.82329 L 123.44225 79.85524 L 123.57123 79.88719 L 123.70021 79.91908 L 123.8292 79.951 L 123.95819 79.98283 L 124.08717 80.01465 L 124.21616 80.04648 L 124.34514 80.07823 L 124.47414 80.10999 L 124.60312 80.14174 L 124.7321 80.17342 L 124.86111 80.20508 L 124.99008 80.23674 L 125.11906 80.26836 L 125.24805 80.29994 L 125.37704 80.3315 L 125.50604 80.36307 L 125.63501 80.39458 L 125.764 80.42603 L 125.89297 80.45752 L 126.02197 80.48895 L 126.15097 80.52034 L 126.27994 80.55173 L 126.40894 80.58308 L 126.53792 80.61443 L 126.6669 80.64572 L 126.79591 80.67702 L 126.8781 80.69693 L 126.8781 80.69751 L 126.79591 80.61784 L 126.6669 80.49283 L 126.53792 80.36781 L 126.40894 80.24281 L 126.27994 80.1178 L 126.15097 79.9928 L 126.02197 79.86778 L 125.89297 79.74277 L 125.764 79.61777 L 125.63501 79.49275 L 125.50604 79.36774 L 125.37704 79.24272 L 125.24805 79.11772 L 125.11906 78.9927 L 124.99008 78.86769 L 124.86111 78.74269 L 124.7321 78.61768 L 124.60312 78.49266 L 124.47414 78.36765 L 124.34514 78.24265 L 124.21616 78.11765 L 124.08717 77.99261 L 123.95819 77.8676 L 123.8292 77.7426 L 123.70021 77.61758 L 123.57123 77.49258 L 123.44225 77.36757 L 123.31325 77.24255 L 123.18427 77.11754 L 123.05528 76.99252 L 122.9263 76.86754 L 122.7973 76.74251 L 122.66832 76.6175 L 122.53934 76.49251 L 122.41034 76.36748 L 122.28136 76.24248 L 122.15237 76.11746 L 122.02339 75.99245 L 121.8944 75.86745 L 121.76541 75.74242 L 121.63643 75.61743 L 121.50743 75.49242 L 121.37843 75.36739 L 121.24947 75.2424 L 121.12048 75.11737 L 120.9915 74.99237 L 120.8625 74.86736 L 120.7335 74.74234 L 120.60454 74.61734 L 120.47554 74.49231 L 120.34656 74.36732 L 120.21758 74.24231 L 120.08856 74.11728 L 119.9596 73.99228 L 119.83061 73.86728 L 119.70163 73.74226 L 119.57265 73.61725 L 119.44363 73.49222 L 119.31467 73.36723 L 119.18568 73.24222 L 119.0567 73.11722 L 118.9277 72.9922 L 118.7987 72.86717 L 118.66974 72.74217 L 118.54073 72.61716 L 118.41176 72.49216 L 118.28278 72.36714 L 118.15378 72.24213 L 118.0248 72.11713 L 117.8958 71.99211 L 117.76683 71.8671 L 117.63785 71.7421 L 117.50883 71.61708 L 117.37987 71.49207 L 117.25087 71.36705 L 117.1219 71.24205 L 116.9929 71.11703 L 116.8639 70.99202 L 116.73494 70.86702 L 116.60593 70.742 L 116.47696 70.617 L 116.34798 70.49197 L 116.21898 70.36697 L 116.09 70.24196 L 115.961 70.11694 L 115.83203 69.99196 L 115.70303 69.86693 L 115.57404 69.74191 L 115.44507 69.6169 L 115.31607 69.4919 L 115.1871 69.3669 L 115.05809 69.24187 L 114.92911 69.11687 L 114.80014 68.99187 L 114.67113 68.86684 L 114.54216 68.74185 L 114.41316 68.61682 L 114.28418 68.4918 L 114.1552 68.3668 L 114.0262 68.24179 L 113.89723 68.11679 L 113.76823 67.99178 L 113.63924 67.86674 L 113.51025 67.74176 L 113.38127 67.61673 L 113.2523 67.49173 L 113.12329 67.36673 L 112.99431 67.2417 L 112.86533 67.1167 L 112.73633 66.99167 L 112.60736 66.86668 L 112.47836 66.74167 L 112.34938 66.61664 L 112.22038 66.49165 L 112.0914 66.36664 L 111.96243 66.24162 L 111.83344 66.11662 L 111.70444 65.9916 L 111.57545 65.8666 L 111.44647 65.74158 L 111.3175 65.61658 L 111.18849 65.49156 L 111.05951 65.36653 L 110.93053 65.24155 L 110.80153 65.11653 L 110.67255 64.99152 L 110.54356 64.8665 L 110.41458 64.7415 L 110.2856 64.61649 L 110.1566 64.49147 L 110.02762 64.36647 L 109.89864 64.24146 L 109.76964 64.11644 L 109.64066 63.99142 L 109.51167 63.86642 L 109.38269 63.74141 L 109.2537 63.6164 L 109.12471 63.49138 L 108.99573 63.36638 L 108.86673 63.24136 L 108.73775 63.11638 L 108.60876 62.99135 L 108.47978 62.86633 L 108.35078 62.74132 L 108.2218 62.6163 L 108.09282 62.49132 L 107.96384 62.36629 L 107.83482 62.24127 L 107.70586 62.11627 L 107.57687 61.99126 L 107.44789 61.86626 L 107.3189 61.74124 L 107.1899 61.61623 L 107.06093 61.49123 L 106.93193 61.3662 L 106.80295 61.24121 L 106.67397 61.11618 L 106.54497 60.99117 L 106.41599 60.86618 L 106.287 60.74115 L 106.15802 60.61615 L 106.02904 60.49113 L 105.90002 60.36612 L 105.77106 60.24112 L 105.64207 60.11609 L 105.51309 59.9911 L 105.3841 59.86609 L 105.2551 59.74106 L 105.12613 59.61606 L 104.99712 59.49104 L 104.86815 59.36604 L 104.73917 59.24103 L 104.61017 59.11601 L 104.4812 58.99101 L 104.35219 58.866 L 104.22322 58.741 L 104.09424 58.61598 L 103.96523 58.49095 L 103.83626 58.36595 L 103.70726 58.24095 L 103.5783 58.11594 L 103.4493 57.99092 L 103.3203 57.86589 L 103.19133 57.7409 L 103.06233 57.61589 L 102.93335 57.49088 L 102.80435 57.36586 L 102.67537 57.24086 L 102.54639 57.11584 L 102.41739 56.99083 L 102.28842 56.86583 L 102.15942 56.74081 L 102.03043 56.6158 L 101.90146 56.4908 L 101.77246 56.36578 L 101.6435 56.24077 L 101.51448 56.11577 L 101.3855 55.99075 L 101.25653 55.86574 L 101.12752 55.74072 L 100.99855 55.61574 L 100.86955 55.4907 L 100.74057 55.36569 L 100.6116 55.24068 L 100.48259 55.11568 L 100.35362 54.99068 L 100.22462 54.86565 L 100.09563 54.74063 L 99.96664 54.61563 L 99.83766 54.49062 L 99.7087 54.36562 L 99.57968 54.2406 L 99.4507 54.11559 L 99.32172 53.99059 L 99.19272 53.86557 L 99.06375 53.74057 L 98.93475 53.61554 L 98.80577 53.49052 L 98.67679 53.36554 L 98.54779 53.24051 L 98.41882 53.11552 L 98.28983 52.9905 L 98.16083 52.86548 L 98.03185 52.74048 L 97.90286 52.61545 L 97.7739 52.49046 L 97.64488 52.36545 L 97.5159 52.24042 L 97.38692 52.11543 L 97.25792 51.9904 L 97.12894 51.8654 L 96.99995 51.74039 L 96.87097 51.61537 L 96.74197 51.49037 L 96.61299 51.36536 L 96.48401 51.24036 L 96.35503 51.11534 L 96.22603 50.99031 L 96.09705 50.86533 L 95.96806 50.74031 L 95.83908 50.6153 L 95.71008 50.49028 L 95.5811 50.36526 L 95.45212 50.24026 L 95.32312 50.11525 L 95.19414 49.99025 L 95.06516 49.86523 L 94.93617 49.74022 L 94.80719 49.6152 L 94.67819 49.4902 L 94.54921 49.36519 L 94.42023 49.24017 L 94.29121 49.11516 L 94.16225 48.99016 L 94.03326 48.86514 L 93.90428 48.74013 L 93.77528 48.61513 L 93.64629 48.49011 L 93.51732 48.3651 L 93.38834 48.2401 L 93.25934 48.1151 L 93.13036 47.99007 L 93.00136 47.86505 L 92.87239 47.74005 L 92.7434 47.61504 L 92.61441 47.49004 L 92.48543 47.365 L 92.35641 47.24 L 92.22745 47.11499 L 92.09845 46.98997 L 91.96948 46.86499 L 91.84048 46.73996 L 91.71149 46.61494 L 91.58252 46.48996 L 91.4535 46.36493 L 91.32454 46.23993 L 91.19556 46.1149 L 91.06656 45.9899 L 90.93758 45.8649 L 90.80858 45.73987 L 90.67961 45.61488 L 90.55063 45.48985 L 90.42162 45.36484 L 90.29265 45.23984 L 90.16365 45.11482 L 90.03468 44.98982 L 89.90569 44.8648 L 89.77669 44.73978 L 89.64772 44.61479 L 89.5187 44.48976 L 89.38974 44.36476 L 89.26074 44.23976 L 89.13176 44.11473 L 89.00279 43.98973 L 88.87378 43.86473 L 88.74481 43.73972 L 88.61581 43.6147 L 88.48682 43.48967 L 88.35785 43.36469 L 88.22885 43.23967 L 88.09988 43.11465 L 87.97087 42.98965 L 87.84189 42.86462 L 87.71292 42.73962 L 87.58392 42.61461 L 87.45494 42.48961 L 87.32594 42.3646 L 87.19696 42.23958 L 87.22829 42.26993 Z " fill="#0000ff" fill-opacity=".3"/>
</g>
<clipPath id="cp1">
<path transform="matrix(2.7777777,0,0,-2.7777777,10.330556,484.68055)" d="M 0 0 L 194.27744 0 L 194.27744 161.39504 L 0 161.39504 Z "/>
</clipPath>
<g clip-path="url(#cp1)">
<path transform="matrix(2.7777777,0,0,-2.7777777,10.330556,484.68055)" d="M 47.59802 42.87299 L 47.72702 43.93295 L 47.856 44.54314 L 47.98499 45.02116 L 48.11397 45.42764 L 48.24295 45.78748 L 48.37195 46.11375 L 48.50093 46.41441 L 48.62991 46.6947 L 48.75891 46.95827 L 48.8879 47.2078 L 49.01689 47.44528 L 49.14587 47.67235 L 49.27486 47.89026 L 49.40384 48.1 L 49.53282 48.30249 L 49.66182 48.49847 L 49.7908 48.68839 L 49.9198 48.87285 L 50.04878 49.0523 L 50.17775 49.22711 L 50.30675 49.39764 L 50.43573 49.56421 L 50.56473 49.72704 L 50.69371 49.88638 L 50.8227 50.04247 L 50.95169 50.19547 L 51.08066 50.34557 L 51.20966 50.49294 L 51.33865 50.63773 L 51.46762 50.78003 L 51.59662 50.92001 L 51.72559 51.05774 L 51.8546 51.19336 L 51.98358 51.32695 L 52.11256 51.45859 L 52.24156 51.58838 L 52.37053 51.71637 L 52.49953 51.84267 L 52.62851 51.96732 L 52.7575 52.09038 L 52.88649 52.21191 L 53.01546 52.33199 L 53.14445 52.45065 L 53.27345 52.56795 L 53.40244 52.6839 L 53.53142 52.79858 L 53.66039 52.91205 L 53.7894 53.0243 L 53.91838 53.1354 L 54.04736 53.24538 L 54.17636 53.35426 L 54.30533 53.46208 L 54.43433 53.56888 L 54.56331 53.67468 L 54.69229 53.7795 L 54.82129 53.88338 L 54.95027 53.98633 L 55.07925 54.0884 L 55.20825 54.18958 L 55.33723 54.2899 L 55.46622 54.3894 L 55.5952 54.4881 L 55.7242 54.586 L 55.85318 54.68314 L 55.98216 54.7795 L 56.11115 54.87514 L 56.24014 54.97006 L 56.36913 55.06429 L 56.49811 55.1578 L 56.6271 55.25064 L 56.75609 55.34283 L 56.88507 55.43439 L 57.01405 55.5253 L 57.14305 55.6156 L 57.27203 55.70529 L 57.40102 55.79439 L 57.53 55.88287 L 57.659 55.97084 L 57.788 56.0582 L 57.91696 56.14503 L 58.04596 56.23132 L 58.17494 56.31708 L 58.30392 56.40231 L 58.43294 56.48705 L 58.56189 56.57126 L 58.69089 56.655 L 58.81987 56.73824 L 58.94885 56.821 L 59.07787 56.9033 L 59.20683 56.98515 L 59.33582 57.06653 L 59.4648 57.14748 L 59.5938 57.228 L 59.7228 57.30806 L 59.85176 57.38771 L 59.98076 57.46695 L 60.10974 57.54576 L 60.23872 57.62419 L 60.36772 57.70221 L 60.4967 57.77983 L 60.6257 57.85709 L 60.75467 57.93393 L 60.88365 58.0104 L 61.01266 58.08652 L 61.14163 58.16228 L 61.27063 58.23766 L 61.3996 58.3127 L 61.5286 58.38739 L 61.6576 58.46175 L 61.78656 58.53572 L 61.91557 58.60939 L 62.04454 58.68272 L 62.17352 58.75575 L 62.30252 58.82845 L 62.4315 58.9008 L 62.5605 58.97285 L 62.68947 59.0446 L 62.81847 59.11604 L 62.94746 59.1872 L 63.07643 59.25804 L 63.20543 59.32858 L 63.3344 59.39883 L 63.46341 59.46881 L 63.59239 59.5385 L 63.72136 59.60791 L 63.85037 59.67703 L 63.97934 59.74588 L 64.10834 59.81447 L 64.23734 59.8828 L 64.36629 59.95085 L 64.4953 60.01865 L 64.62427 60.08618 L 64.75327 60.15346 L 64.88226 60.2205 L 65.01123 60.28726 L 65.14023 60.3538 L 65.2692 60.42009 L 65.39821 60.48615 L 65.52719 60.55196 L 65.65617 60.61752 L 65.78517 60.68288 L 65.91414 60.74797 L 66.04314 60.81285 L 66.17212 60.87752 L 66.30112 60.94194 L 66.4301 61.00613 L 66.55907 61.07013 L 66.68806 61.13391 L 66.81706 61.19748 L 66.94604 61.2608 L 67.07503 61.32394 L 67.204 61.38686 L 67.33301 61.4496 L 67.46199 61.51183 L 67.59097 61.57411 L 67.71997 61.63625 L 67.84894 61.69814 L 67.97794 61.75984 L 68.10692 61.8214 L 68.23592 61.88269 L 68.3649 61.94385 L 68.49388 62.00478 L 68.62286 62.06555 L 68.75186 62.12613 L 68.88084 62.18651 L 69.00983 62.24673 L 69.13881 62.30673 L 69.2678 62.36658 L 69.39679 62.42627 L 69.52577 62.48575 L 69.65477 62.54506 L 69.78375 62.6042 L 69.91273 62.6632 L 70.04172 62.722 L 70.17072 62.78061 L 70.2997 62.83908 L 70.42868 62.8974 L 70.55766 62.95555 L 70.68666 63.01352 L 70.81564 63.07133 L 70.94463 63.129 L 71.07361 63.18645 L 71.2026 63.2438 L 71.3316 63.30101 L 71.46057 63.35803 L 71.58957 63.4149 L 71.71855 63.4716 L 71.84753 63.52815 L 71.97653 63.5846 L 72.10551 63.64087 L 72.2345 63.697 L 72.36348 63.75294 L 72.49246 63.80879 L 72.62148 63.86446 L 72.75044 63.91998 L 72.87943 63.97539 L 73.0084 64.03069 L 73.1374 64.08577 L 73.2664 64.1408 L 73.39537 64.1956 L 73.52438 64.25032 L 73.65335 64.30487 L 73.78233 64.35931 L 73.91133 64.41362 L 74.0403 64.46777 L 74.16931 64.5218 L 74.29828 64.57571 L 74.42726 64.62949 L 74.55627 64.68314 L 74.68524 64.73665 L 74.81424 64.79007 L 74.9432 64.8433 L 75.0722 64.89645 L 75.2012 64.94946 L 75.33017 65.00237 L 75.45917 65.05511 L 75.58815 65.10777 L 75.71713 65.1603 L 75.84613 65.2127 L 75.97511 65.26498 L 76.10411 65.31714 L 76.23308 65.3692 L 76.36208 65.42113 L 76.49107 65.47295 L 76.62004 65.52464 L 76.74904 65.5762 L 76.878 65.6277 L 77.00702 65.67906 L 77.136 65.7303 L 77.26497 65.78145 L 77.39398 65.83246 L 77.52295 65.88336 L 77.65195 65.93416 L 77.78093 65.9849 L 77.90991 66.03546 L 78.03891 66.08592 L 78.16788 66.1363 L 78.29688 66.1866 L 78.42587 66.23671 L 78.55484 66.28679 L 78.68384 66.33675 L 78.8128 66.38658 L 78.94182 66.43634 L 79.0708 66.48598 L 79.19978 66.53554 L 79.32878 66.58495 L 79.45775 66.6343 L 79.58675 66.68352 L 79.71573 66.73268 L 79.84471 66.78174 L 79.97371 66.83069 L 80.10268 66.87952 L 80.23167 66.92827 L 80.36067 66.97694 L 80.48965 67.02548 L 80.61864 67.07394 L 80.7476 67.12231 L 80.87662 67.1706 L 81.0056 67.21878 L 81.13458 67.26688 L 81.26357 67.31487 L 81.39255 67.36278 L 81.52155 67.41058 L 81.65053 67.45831 L 81.77953 67.50592 L 81.90851 67.55348 L 82.03749 67.60094 L 82.16647 67.64828 L 82.29547 67.69559 L 82.42445 67.74275 L 82.55344 67.78987 L 82.68242 67.83688 L 82.81142 67.8838 L 82.9404 67.93065 L 83.06938 67.97742 L 83.19838 68.0241 L 83.32736 68.07068 L 83.45634 68.11717 L 83.58533 68.1636 L 83.71432 68.20995 L 83.8433 68.25621 L 83.97229 68.30234 L 84.10127 68.34845 L 84.23029 68.39447 L 84.35925 68.44041 L 84.48824 68.48625 L 84.61722 68.53201 L 84.74622 68.5777 L 84.87521 68.62332 L 85.00418 68.66882 L 85.13318 68.7143 L 85.26216 68.75964 L 85.39114 68.80496 L 85.52014 68.85017 L 85.64911 68.89532 L 85.7781 68.94038 L 85.90709 68.98538 L 86.03607 69.0303 L 86.16508 69.07513 L 86.29405 69.1199 L 86.42303 69.16457 L 86.55202 69.2092 L 86.68102 69.25374 L 86.81001 69.29822 L 86.93898 69.34264 L 87.06798 69.38693 L 87.22829 69.44191 L 87.22829 42.26996 L 87.06798 42.26996 L 86.93898 42.26996 L 86.81001 42.26996 L 86.68102 42.26996 L 86.55202 42.26996 L 86.42303 42.26996 L 86.29405 42.26996 L 86.16508 42.26996 L 86.03607 42.26996 L 85.90709 42.26996 L 85.7781 42.26996 L 85.64911 42.26996 L 85.52014 42.26996 L 85.39114 42.26996 L 85.26216 42.26996 L 85.13318 42.26996 L 85.00418 42.26996 L 84.87521 42.26996 L 84.74622 42.26996 L 84.61722 42.26996 L 84.48824 42.26996 L 84.35925 42.26996 L 84.23029 42.26996 L 84.10127 42.26996 L 83.97229 42.26996 L 83.8433 42.26996 L 83.71432 42.26996 L 83.58533 42.26996 L 83.45634 42.26996 L 83.32736 42.26996 L 83.19838 42.26996 L 83.06938 42.26996 L 82.9404 42.26996 L 82.81142 42.26996 L 82.68242 42.26996 L 82.55344 42.26996 L 82.42445 42.26996 L 82.29547 42.26996 L 82.16647 42.26996 L 82.03749 42.26996 L 81.90851 42.26996 L 81.77953 42.26996 L 81.65053 42.26996 L 81.52155 42.26996 L 81.39255 42.26996 L 81.26357 42.26996 L 81.13458 42.26996 L 81.0056 42.26996 L 80.87662 42.26996 L 80.7476 42.26996 L 80.61864 42.26996 L 80.48965 42.26996 L 80.36067 42.26996 L 80.23167 42.26996 L 80.10268 42.26996 L 79.97371 42.26996 L 79.84471 42.26996 L 79.71573 42.26996 L 79.58675 42.26996 L 79.45775 42.26996 L 79.32878 42.26996 L 79.19978 42.26996 L 79.0708 42.26996 L 78.94182 42.26996 L 78.8128 42.26996 L 78.68384 42.26996 L 78.55484 42.26996 L 78.42587 42.26996 L 78.29688 42.26996 L 78.16788 42.26996 L 78.03891 42.26996 L 77.90991 42.26996 L 77.78093 42.26996 L 77.65195 42.26996 L 77.52295 42.26996 L 77.39398 42.26996 L 77.26497 42.26996 L 77.136 42.26996 L 77.00702 42.26996 L 76.878 42.26996 L 76.74904 42.26996 L 76.62004 42.26996 L 76.49107 42.26996 L 76.36208 42.26996 L 76.23308 42.26996 L 76.10411 42.26996 L 75.97511 42.26996 L 75.84613 42.26996 L 75.71713 42.26996 L 75.58815 42.26996 L 75.45917 42.26996 L 75.33017 42.26996 L 75.2012 42.26996 L 75.0722 42.26996 L 74.9432 42.26996 L 74.81424 42.26996 L 74.68524 42.26996 L 74.55627 42.26996 L 74.42726 42.26996 L 74.29828 42.26996 L 74.16931 42.26996 L 74.0403 42.26996 L 73.91133 42.26996 L 73.78233 42.26996 L 73.65335 42.26996 L 73.52438 42.26996 L 73.39537 42.26996 L 73.2664 42.26996 L 73.1374 42.26996 L 73.0084 42.26996 L 72.87943 42.26996 L 72.75044 42.26996 L 72.62148 42.26996 L 72.49246 42.26996 L 72.36348 42.26996 L 72.2345 42.26996 L 72.10551 42.26996 L 71.97653 42.26996 L 71.84753 42.26996 L 71.71855 42.26996 L 71.58957 42.26996 L 71.46057 42.26996 L 71.3316 42.26996 L 71.2026 42.26996 L 71.07361 42.26996 L 70.94463 42.26996 L 70.81564 42.26996 L 70.68666 42.26996 L 70.55766 42.26996 L 70.42868 42.26996 L 70.2997 42.26996 L 70.17072 42.26996 L 70.04172 42.26996 L 69.91273 42.26996 L 69.78375 42.26996 L 69.65477 42.26996 L 69.52577 42.26996 L 69.39679 42.26996 L 69.2678 42.26996 L 69.13881 42.26996 L 69.00983 42.26996 L 68.88084 42.26996 L 68.75186 42.26996 L 68.62286 42.26996 L 68.49388 42.26996 L 68.3649 42.26996 L 68.23592 42.26996 L 68.10692 42.26996 L 67.97794 42.26996 L 67.84894 42.26996 L 67.71997 42.26996 L 67.59097 42.26996 L 67.46199 42.26996 L 67.33301 42.26996 L 67.204 42.26996 L 67.07503 42.26996 L 66.94604 42.26996 L 66.81706 42.26996 L 66.68806 42.26996 L 66.55907 42.26996 L 66.4301 42.26996 L 66.30112 42.26996 L 66.17212 42.26996 L 66.04314 42.26996 L 65.91414 42.26996 L 65.78517 42.26996 L 65.65617 42.26996 L 65.52719 42.26996 L 65.39821 42.26996 L 65.2692 42.26996 L 65.14023 42.26996 L 65.01123 42.26996 L 64.88226 42.26996 L 64.75327 42.26996 L 64.62427 42.26996 L 64.4953 42.26996 L 64.36629 42.26996 L 64.23734 42.26996 L 64.10834 42.26996 L 63.97934 42.26996 L 63.85037 42.26996 L 63.72136 42.26996 L 63.59239 42.26996 L 63.46341 42.26996 L 63.3344 42.26996 L 63.20543 42.26996 L 63.07643 42.26996 L 62.94746 42.26996 L 62.81847 42.26996 L 62.68947 42.26996 L 62.5605 42.26996 L 62.4315 42.26996 L 62.30252 42.26996 L 62.17352 42.26996 L 62.04454 42.26996 L 61.91557 42.26996 L 61.78656 42.26996 L 61.6576 42.26996 L 61.5286 42.26996 L 61.3996 42.26996 L 61.27063 42.26996 L 61.14163 42.26996 L 61.01266 42.26996 L 60.88365 42.26996 L 60.75467 42.26996 L 60.6257 42.26996 L 60.4967 42.26996 L 60.36772 42.26996 L 60.23872 42.26996 L 60.10974 42.26996 L 59.98076 42.26996 L 59.85176 42.26996 L 59.7228 42.26996 L 59.5938 42.26996 L 59.4648 42.26996 L 59.33582 42.26996 L 59.20683 42.26996 L 59.07787 42.26996 L 58.94885 42.26996 L 58.81987 42.26996 L 58.69089 42.26996 L 58.56189 42.26996 L 58.43294 42.26996 L 58.30392 42.26996 L 58.17494 42.26996 L 58.04596 42.26996 L 57.91696 42.26996 L 57.788 42.26996 L 57.659 42.26996 L 57.53 42.26996 L 57.40102 42.26996 L 57.27203 42.26996 L 57.14305 42.26996 L 57.01405 42.26996 L 56.88507 42.26996 L 56.75609 42.26996 L 56.6271 42.26996 L 56.49811 42.26996 L 56.36913 42.26996 L 56.24014 42.26996 L 56.11115 42.26996 L 55.98216 42.26996 L 55.85318 42.26996 L 55.7242 42.26996 L 55.5952 42.26996 L 55.46622 42.26996 L 55.33723 42.26996 L 55.20825 42.26996 L 55.07925 42.26996 L 54.95027 42.26996 L 54.82129 42.26996 L 54.69229 42.26996 L 54.56331 42.26996 L 54.43433 42.26996 L 54.30533 42.26996 L 54.17636 42.26996 L 54.04736 42.26996 L 53.91838 42.26996 L 53.7894 42.26996 L 53.66039 42.26996 L 53.53142 42.26996 L 53.40244 42.26996 L 53.27345 42.26996 L 53.14445 42.26996 L 53.01546 42.26996 L 52.88649 42.26996 L 52.7575 42.26996 L 52.62851 42.26996 L 52.49953 42.26996 L 52.37053 42.26996 L 52.24156 42.26996 L 52.11256 42.26996 L 51.98358 42.26996 L 51.8546 42.26996 L 51.72559 42.26996 L 51.59662 42.26996 L 51.46762 42.26996 L 51.33865 42.26996 L 51.20966 42.26996 L 51.08066 42.26996 L 50.95169 42.26996 L 50.8227 42.26996 L 50.69371 42.26996 L 50.56473 42.26996 L 50.43573 42.26996 L 50.30675 42.26996 L 50.17775 42.26996 L 50.04878 42.26996 L 49.9198 42.26996 L 49.7908 42.26996 L 49.66182 42.26996 L 49.53282 42.26996 L 49.40384 42.26996 L 49.27486 42.26996 L 49.14587 42.26996 L 49.01689 42.26996 L 48.8879 42.26996 L 48.75891 42.26996 L 48.62991 42.26996 L 48.50093 42.26996 L 48.37195 42.26996 L 48.24295 42.26996 L 48.11397 42.26996 L 47.98499 42.26996 L 47.856 42.26996 L 47.72702 42.26996 L 47.59802 42.26996 L 47.46904 42.26996 L 47.34004 42.26996 L 47.21107 42.26996 L 47.08209 42.26996 L 46.9531 42.26996 L 46.82411 42.26996 L 46.69511 42.26996 L 46.56613 42.26996 L 46.43713 42.26996 L 46.30815 42.26996 L 46.17918 42.26996 L 46.05019 42.26996 L 45.9212 42.26996 L 45.7922 42.26996 L 45.66322 42.26996 L 45.53424 42.26996 L 45.40524 42.26996 L 45.27626 42.26996 L 45.14728 42.26996 L 45.0183 42.26996 L 44.88931 42.26996 L 44.76031 42.26996 L 44.63133 42.26996 L 44.50233 42.26996 L 44.37335 42.26996 L 44.24438 42.26996 L 44.11539 42.26996 L 43.9864 42.26996 L 43.8574 42.26996 L 43.72842 42.26996 L 43.59943 42.26996 L 43.47044 42.26996 L 43.34148 42.26996 L 43.21248 42.26996 L 43.0835 42.26996 L 42.9545 42.26996 L 42.82552 42.26996 L 42.69653 42.26996 L 42.56754 42.26996 L 42.43855 42.26996 L 42.30957 42.26996 L 42.18059 42.26996 L 42.0516 42.26996 L 41.9226 42.26996 L 41.79362 42.26996 L 41.66463 42.26996 L 41.53564 42.26996 L 41.40668 42.26996 L 41.27768 42.26996 L 41.1487 42.26996 L 41.0197 42.26996 L 40.89072 42.26996 L 40.76172 42.26996 L 40.63274 42.26996 L 40.50377 42.26996 L 40.37477 42.26996 L 40.24579 42.26996 L 40.11679 42.26996 L 39.98781 42.26996 L 39.85883 42.26996 L 39.72983 42.26996 L 39.60085 42.26996 L 39.47185 42.26996 L 39.34288 42.26996 L 39.2139 42.26996 L 39.0849 42.26996 L 38.95592 42.26996 L 38.82692 42.26996 L 38.69794 42.26996 L 38.56895 42.26996 L 38.43997 42.26996 L 38.31099 42.26996 L 38.18199 42.26996 L 38.05301 42.26996 L 37.92401 42.26996 L 37.79503 42.26996 L 37.66606 42.26996 Z " fill="#0000ff" fill-opacity=".3"/>
</g>
<clipPath id="cp2">
<path transform="matrix(2.7777777,0,0,-2.7777777,10.330556,484.68055)" d="M 0 0 L 194.27744 0 L 194.27744 161.39504 L 0 161.39504 Z "/>
</clipPath>
<g clip-path="url(#cp2)">
<path transform="matrix(2.7777777,0,0,-2.7777777,10.330556,484.68055)" stroke-width=".79701" stroke-linecap="butt" stroke-miterlimit="10" stroke-linejoin="miter" fill="none" stroke="#ff8000" d="M 47.59802 42.87299 L 47.72702 43.93295 L 47.856 44.54314 L 47.98499 45.02116 L 48.11397 45.42764 L 48.24295 45.78748 L 48.37195 46.11375 L 48.50093 46.41441 L 48.62991 46.6947 L 48.75891 46.95827 L 48.8879 47.2078 L 49.01689 47.44528 L 49.14587 47.67235 L 49.27486 47.89026 L 49.40384 48.1 L 49.53282 48.30249 L 49.66182 48.49847 L 49.7908 48.68839 L 49.9198 48.87285 L 50.04878 49.0523 L 50.17775 49.22711 L 50.30675 49.39764 L 50.43573 49.56421 L 50.56473 49.72704 L 50.69371 49.88638 L 50.8227 50.04247 L 50.95169 50.19547 L 51.08066 50.34557 L 51.20966 50.49294 L 51.33865 50.63773 L 51.46762 50.78003 L 51.59662 50.92001 L 51.72559 51.05774 L 51.8546 51.19336 L 51.98358 51.32695 L 52.11256 51.45859 L 52.24156 51.58838 L 52.37053 51.71637 L 52.49953 51.84267 L 52.62851 51.96732 L 52.7575 52.09038 L 52.88649 52.21191 L 53.01546 52.33199 L 53.14445 52.45065 L 53.27345 52.56795 L 53.40244 52.6839 L 53.53142 52.79858 L 53.66039 52.91205 L 53.7894 53.0243 L 53.91838 53.1354 L 54.04736 53.24538 L 54.17636 53.35426 L 54.30533 53.46208 L 54.43433 53.56888 L 54.56331 53.67468 L 54.69229 53.7795 L 54.82129 53.88338 L 54.95027 53.98633 L 55.07925 54.0884 L 55.20825 54.18958 L 55.33723 54.2899 L 55.46622 54.3894 L 55.5952 54.4881 L 55.7242 54.586 L 55.85318 54.68314 L 55.98216 54.7795 L 56.11115 54.87514 L 56.24014 54.97006 L 56.36913 55.06429 L 56.49811 55.1578 L 56.6271 55.25064 L 56.75609 55.34283 L 56.88507 55.43439 L 57.01405 55.5253 L 57.14305 55.6156 L 57.27203 55.70529 L 57.40102 55.79439 L 57.53 55.88287 L 57.659 55.97084 L 57.788 56.0582 L 57.91696 56.14503 L 58.04596 56.23132 L 58.17494 56.31708 L 58.30392 56.40231 L 58.43294 56.48705 L 58.56189 56.57126 L 58.69089 56.655 L 58.81987 56.73824 L 58.94885 56.821 L 59.07787 56.9033 L 59.20683 56.98515 L 59.33582 57.06653 L 59.4648 57.14748 L 59.5938 57.228 L 59.7228 57.30806 L 59.85176 57.38771 L 59.98076 57.46695 L 60.10974 57.54576 L 60.23872 57.62419 L 60.36772 57.70221 L 60.4967 57.77983 L 60.6257 57.85709 L 60.75467 57.93393 L 60.88365 58.0104 L 61.01266 58.08652 L 61.14163 58.16228 L 61.27063 58.23766 L 61.3996 58.3127 L 61.5286 58.38739 L 61.6576 58.46175 L 61.78656 58.53572 L 61.91557 58.60939 L 62.04454 58.68272 L 62.17352 58.75575 L 62.30252 58.82845 L 62.4315 58.9008 L 62.5605 58.97285 L 62.68947 59.0446 L 62.81847 59.11604 L 62.94746 59.1872 L 63.07643 59.25804 L 63.20543 59.32858 L 63.3344 59.39883 L 63.46341 59.46881 L 63.59239 59.5385 L 63.72136 59.60791 L 63.85037 59.67703 L 63.97934 59.74588 L 64.10834 59.81447 L 64.23734 59.8828 L 64.36629 59.95085 L 64.4953 60.01865 L 64.62427 60.08618 L 64.75327 60.15346 L 64.88226 60.2205 L 65.01123 60.28726 L 65.14023 60.3538 L 65.2692 60.42009 L 65.39821 60.48615 L 65.52719 60.55196 L 65.65617 60.61752 L 65.78517 60.68288 L 65.91414 60.74797 L 66.04314 60.81285 L 66.17212 60.87752 L 66.30112 60.94194 L 66.4301 61.00613 L 66.55907 61.07013 L 66.68806 61.13391 L 66.81706 61.19748 L 66.94604 61.2608 L 67.07503 61.32394 L 67.204 61.38686 L 67.33301 61.4496 L 67.46199 61.51183 L 67.59097 61.57411 L 67.71997 61.63625 L 67.84894 61.69814 L 67.97794 61.75984 L 68.10692 61.8214 L 68.23592 61.88269 L 68.3649 61.94385 L 68.49388 62.00478 L 68.62286 62.06555 L 68.75186 62.12613 L 68.88084 62.18651 L 69.00983 62.24673 L 69.13881 62.30673 L 69.2678 62.36658 L 69.39679 62.42627 L 69.52577 62.48575 L 69.65477 62.54506 L 69.78375 62.6042 L 69.91273 62.6632 L 70.04172 62.722 L 70.17072 62.78061 L 70.2997 62.83908 L 70.42868 62.8974 L 70.55766 62.95555 L 70.68666 63.01352 L 70.81564 63.07133 L 70.94463 63.129 L 71.07361 63.18645 L 71.2026 63.2438 L 71.3316 63.30101 L 71.46057 63.35803 L 71.58957 63.4149 L 71.71855 63.4716 L 71.84753 63.52815 L 71.97653 63.5846 L 72.10551 63.64087 L 72.2345 63.697 L 72.36348 63.75294 L 72.49246 63.80879 L 72.62148 63.86446 L 72.75044 63.91998 L 72.87943 63.97539 L 73.0084 64.03069 L 73.1374 64.08577 L 73.2664 64.1408 L 73.39537 64.1956 L 73.52438 64.25032 L 73.65335 64.30487 L 73.78233 64.35931 L 73.91133 64.41362 L 74.0403 64.46777 L 74.16931 64.5218 L 74.29828 64.57571 L 74.42726 64.62949 L 74.55627 64.68314 L 74.68524 64.73665 L 74.81424 64.79007 L 74.9432 64.8433 L 75.0722 64.89645 L 75.2012 64.94946 L 75.33017 65.00237 L 75.45917 65.05511 L 75.58815 65.10777 L 75.71713 65.1603 L 75.84613 65.2127 L 75.97511 65.26498 L 76.10411 65.31714 L 76.23308 65.3692 L 76.36208 65.42113 L 76.49107 65.47295 L 76.62004 65.52464 L 76.74904 65.5762 L 76.878 65.6277 L 77.00702 65.67906 L 77.136 65.7303 L 77.26497 65.78145 L 77.39398 65.83246 L 77.52295 65.88336 L 77.65195 65.93416 L 77.78093 65.9849 L 77.90991 66.03546 L 78.03891 66.08592 L 78.16788 66.1363 L 78.29688 66.1866 L 78.42587 66.23671 L 78.55484 66.28679 L 78.68384 66.33675 L 78.8128 66.38658 L 78.94182 66.43634 L 79.0708 66.48598 L 79.19978 66.53554 L 79.32878 66.58495 L 79.45775 66.6343 L 79.58675 66.68352 L 79.71573 66.73268 L 79.84471 66.78174 L 79.97371 66.83069 L 80.10268 66.87952 L 80.23167 66.92827 L 80.36067 66.97694 L 80.48965 67.02548 L 80.61864 67.07394 L 80.7476 67.12231 L 80.87662 67.1706 L 81.0056 67.21878 L 81.13458 67.26688 L 81.26357 67.31487 L 81.39255 67.36278 L 81.52155 67.41058 L 81.65053 67.45831 L 81.77953 67.50592 L 81.90851 67.55348 L 82.03749 67.60094 L 82.16647 67.64828 L 82.29547 67.69559 L 82.42445 67.74275 L 82.55344 67.78987 L 82.68242 67.83688 L 82.81142 67.8838 L 82.9404 67.93065 L 83.06938 67.97742 L 83.19838 68.0241 L 83.32736 68.07068 L 83.45634 68.11717 L 83.58533 68.1636 L 83.71432 68.20995 L 83.8433 68.25621 L 83.97229 68.30234 L 84.10127 68.34845 L 84.23029 68.39447 L 84.35925 68.44041 L 84.48824 68.48625 L 84.61722 68.53201 L 84.74622 68.5777 L 84.87521 68.62332 L 85.00418 68.66882 L 85.13318 68.7143 L 85.26216 68.75964 L 85.39114 68.80496 L 85.52014 68.85017 L 85.64911 68.89532 L 85.7781 68.94038 L 85.90709 68.98538 L 86.03607 69.0303 L 86.16508 69.07513 L 86.29405 69.1199 L 86.42303 69.16457 L 86.55202 69.2092 L 86.68102 69.25374 L 86.81001 69.29822 L 86.93898 69.34264 L 87.06798 69.38693 L 87.19696 69.43117 L 87.32594 69.47536 L 87.45494 69.51947 L 87.58392 69.56352 L 87.71292 69.60745 L 87.84189 69.65135 L 87.97087 69.69518 L 88.09988 69.73895 L 88.22885 69.78262 L 88.35785 69.82625 L 88.48682 69.86981 L 88.61581 69.91328 L 88.74481 69.9567 L 88.87378 70.00003 L 89.00279 70.0433 L 89.13176 70.0865 L 89.26074 70.12965 L 89.38974 70.1727 L 89.5187 70.21573 L 89.64772 70.25867 L 89.77669 70.30153 L 89.90569 70.34433 L 90.03468 70.38712 L 90.16365 70.42976 L 90.29265 70.4724 L 90.42162 70.51495 L 90.55063 70.55742 L 90.67961 70.59985 L 90.80858 70.64221 L 90.93758 70.68452 L 91.06656 70.72673 L 91.19556 70.76889 L 91.32454 70.81102 L 91.4535 70.85307 L 91.58252 70.89503 L 91.71149 70.93697 L 91.84048 70.97884 L 91.96948 71.02065 L 92.09845 71.06235 L 92.22745 71.10405 L 92.35641 71.14565 L 92.48543 71.18723 L 92.61441 71.22873 L 92.7434 71.27016 L 92.87239 71.31152 L 93.00136 71.35286 L 93.13036 71.39412 L 93.25934 71.43533 L 93.38834 71.47647 L 93.51732 71.51758 L 93.64629 71.5586 L 93.77528 71.5996 L 93.90428 71.64052 L 94.03326 71.68135 L 94.16225 71.72217 L 94.29121 71.76291 L 94.42023 71.8036 L 94.54921 71.84424 L 94.67819 71.88483 L 94.80719 71.92532 L 94.93617 71.9658 L 95.06516 72.00621 L 95.19414 72.04659 L 95.32312 72.08688 L 95.45212 72.12714 L 95.5811 72.16733 L 95.71008 72.20746 L 95.83908 72.24756 L 95.96806 72.28758 L 96.09705 72.32758 L 96.22603 72.36752 L 96.35503 72.40738 L 96.48401 72.44719 L 96.61299 72.48695 L 96.74197 72.5267 L 96.87097 72.56633 L 96.99995 72.60597 L 97.12894 72.64554 L 97.25792 72.68504 L 97.38692 72.72449 L 97.5159 72.76392 L 97.64488 72.80327 L 97.7739 72.84256 L 97.90286 72.88184 L 98.03185 72.92102 L 98.16083 72.96016 L 98.28983 72.99928 L 98.41882 73.03838 L 98.54779 73.07735 L 98.67679 73.1163 L 98.80577 73.15523 L 98.93475 73.19406 L 99.06375 73.23288 L 99.19272 73.27164 L 99.32172 73.31038 L 99.4507 73.34904 L 99.57968 73.38765 L 99.7087 73.42622 L 99.83766 73.46474 L 99.96664 73.50322 L 100.09563 73.54163 L 100.22462 73.58 L 100.35362 73.61835 L 100.48259 73.65662 L 100.6116 73.69489 L 100.74057 73.73303 L 100.86955 73.77121 L 100.99855 73.8093 L 101.12752 73.84735 L 101.25653 73.88538 L 101.3855 73.92336 L 101.51448 73.96127 L 101.6435 73.99913 L 101.77246 74.03696 L 101.90146 74.07475 L 102.03043 74.11246 L 102.15942 74.15015 L 102.28842 74.18779 L 102.41739 74.22542 L 102.54639 74.26299 L 102.67537 74.30049 L 102.80435 74.33795 L 102.93335 74.37541 L 103.06233 74.41278 L 103.19133 74.4501 L 103.3203 74.4874 L 103.4493 74.52467 L 103.5783 74.56186 L 103.70726 74.59903 L 103.83626 74.63614 L 103.96523 74.67325 L 104.09424 74.71031 L 104.22322 74.7473 L 104.35219 74.78424 L 104.4812 74.82117 L 104.61017 74.85803 L 104.73917 74.89485 L 104.86815 74.93166 L 104.99712 74.96841 L 105.12613 75.00513 L 105.2551 75.04176 L 105.3841 75.07843 L 105.51309 75.11497 L 105.64207 75.15154 L 105.77106 75.18803 L 105.90002 75.2245 L 106.02904 75.26091 L 106.15802 75.29729 L 106.287 75.33362 L 106.41599 75.36992 L 106.54497 75.4062 L 106.67397 75.44243 L 106.80295 75.4786 L 106.93193 75.51476 L 107.06093 75.55084 L 107.1899 75.5869 L 107.3189 75.62296 L 107.44789 75.65894 L 107.57687 75.69489 L 107.70586 75.73079 L 107.83482 75.76666 L 107.96384 75.80247 L 108.09282 75.83827 L 108.2218 75.87404 L 108.35078 75.90974 L 108.47978 75.94543 L 108.60876 75.9811 L 108.73775 76.01671 L 108.86673 76.05226 L 108.99573 76.0878 L 109.12471 76.12329 L 109.2537 76.15875 L 109.38269 76.19417 L 109.51167 76.22954 L 109.64066 76.2649 L 109.76964 76.30017 L 109.89864 76.33548 L 110.02762 76.37068 L 110.1566 76.4059 L 110.2856 76.44104 L 110.41458 76.47618 L 110.54356 76.51128 L 110.67255 76.54633 L 110.80153 76.58134 L 110.93053 76.61635 L 111.05951 76.65129 L 111.18849 76.68622 L 111.3175 76.72107 L 111.44647 76.75592 L 111.57545 76.79073 L 111.70444 76.82547 L 111.83344 76.86021 L 111.96243 76.89491 L 112.0914 76.92958 L 112.22038 76.96423 L 112.34938 76.99883 L 112.47836 77.03339 L 112.60736 77.0679 L 112.73633 77.1024 L 112.86533 77.13686 L 112.99431 77.1713 L 113.12329 77.2057 L 113.2523 77.24004 L 113.38127 77.27435 L 113.51025 77.30867 L 113.63924 77.34291 L 113.76823 77.37714 L 113.89723 77.41133 L 114.0262 77.44548 L 114.1552 77.47961 L 114.28418 77.5137 L 114.41316 77.54778 L 114.54216 77.58179 L 114.67113 77.61578 L 114.80014 77.64975 L 114.92911 77.68365 L 115.05809 77.71756 L 115.1871 77.75143 L 115.31607 77.78525 L 115.44507 77.81906 L 115.57404 77.85281 L 115.70303 77.88657 L 115.83203 77.92026 L 115.961 77.95395 L 116.09 77.98755 L 116.21898 78.02116 L 116.34798 78.05473 L 116.47696 78.0883 L 116.60593 78.12181 L 116.73494 78.15529 L 116.8639 78.18875 L 116.9929 78.22218 L 117.1219 78.25555 L 117.25087 78.2889 L 117.37987 78.32222 L 117.50883 78.3555 L 117.63785 78.38878 L 117.76683 78.42203 L 117.8958 78.45523 L 118.0248 78.48842 L 118.15378 78.52156 L 118.28278 78.55469 L 118.41176 78.58774 L 118.54073 78.62077 L 118.66974 78.65382 L 118.7987 78.68678 L 118.9277 78.71976 L 119.0567 78.75272 L 119.18568 78.78561 L 119.31467 78.81847 L 119.44363 78.8513 L 119.57265 78.88414 L 119.70163 78.91692 L 119.83061 78.94968 L 119.9596 78.98239 L 120.08856 79.01508 L 120.21758 79.04776 L 120.34656 79.08043 L 120.47554 79.11304 L 120.60454 79.1456 L 120.7335 79.17815 L 120.8625 79.2107 L 120.9915 79.24316 L 121.12048 79.27562 L 121.24947 79.30809 L 121.37843 79.34048 L 121.50743 79.37288 L 121.63643 79.40521 L 121.76541 79.43755 L 121.8944 79.46982 L 122.02339 79.5021 L 122.15237 79.53435 L 122.28136 79.56657 L 122.41034 79.59877 L 122.53934 79.6309 L 122.66832 79.66304 L 122.7973 79.69513 L 122.9263 79.72722 L 123.05528 79.75925 L 123.18427 79.7913 L 123.31325 79.82329 L 123.44225 79.85524 L 123.57123 79.88719 L 123.70021 79.91908 L 123.8292 79.951 L 123.95819 79.98283 L 124.08717 80.01465 L 124.21616 80.04648 L 124.34514 80.07823 L 124.47414 80.10999 L 124.60312 80.14174 L 124.7321 80.17342 L 124.86111 80.20508 L 124.99008 80.23674 L 125.11906 80.26836 L 125.24805 80.29994 L 125.37704 80.3315 L 125.50604 80.36307 L 125.63501 80.39458 L 125.764 80.42603 L 125.89297 80.45752 L 126.02197 80.48895 L 126.15097 80.52034 L 126.27994 80.55173 L 126.40894 80.58308 L 126.53792 80.61443 L 126.6669 80.64572 L 126.79591 80.67702 L 126.92488 80.70827 L 127.05388 80.73949 L 127.18285 80.7707 L 127.31184 80.80188 L 127.44084 80.83305 L 127.56981 80.86415 L 127.6988 80.89526 L 127.82779 80.92635 L 127.95677 80.95741 L 128.08577 80.98842 L 128.21474 81.01942 L 128.34375 81.05042 L 128.47272 81.08138 L 128.6017 81.1123 L 128.73072 81.1432 L 128.85968 81.17412 L 128.98868 81.20494 L 129.11765 81.2358 L 129.24665 81.26656 L 129.37564 81.2974 L 129.50461 81.32814 L 129.6336 81.35887 L 129.76259 81.38959 L 129.89159 81.42026 L 130.02057 81.45093 L 130.14954 81.48158 L 130.27855 81.51218 L 130.40752 81.54276 L 130.53652 81.57333 L 130.66551 81.60388 L 130.79448 81.6344 L 130.92348 81.66489 L 131.05245 81.69534 L 131.18146 81.72581 L 131.31044 81.75624 L 131.4394 81.78665 L 131.5684 81.81703 L 131.69738 81.84738 L 131.82639 81.8777 L 131.95537 81.90802 L 132.08434 81.93831 L 132.21335 81.96855 L 132.34232 81.99878 L 132.47132 82.02904 L 132.60031 82.0592 L 132.7293 82.08939 L 132.85828 82.11954 L 132.98725 82.14966 L 133.11626 82.17976 L 133.24524 82.20984 L 133.37422 82.2399 L 133.5032 82.26996 L 133.63219 82.29994 L 133.76119 82.32994 L 133.89017 82.3599 L 134.01915 82.38982 L 134.14815 82.41975 L 134.27712 82.44968 L 134.40612 82.47952 L 134.53511 82.5094 L 134.6641 82.53923 L 134.79308 82.56905 L 134.92205 82.59883 L 135.05106 82.6286 L 135.18004 82.65836 L 135.30902 82.68808 L 135.438 82.71779 L 135.56699 82.74745 L 135.69599 82.77711 L 135.82497 82.80676 L 135.95395 82.83638 L 136.08295 82.86597 L 136.21193 82.89552 L 136.34091 82.92508 L 136.46991 82.95462 L 136.59889 82.98412 L 136.72788 83.0136 L 136.85686 83.04305 L 136.98584 83.07253 L 137.11484 83.10193 L 137.24382 83.13135 L 137.3728 83.16072 L 137.50179 83.19005 L 137.63079 83.21942 L 137.75977 83.24872 L 137.88875 83.27803 L 138.01775 83.30731 L 138.14673 83.33656 L 138.27571 83.36578 L 138.40471 83.39499 L 138.53369 83.4242 L 138.66268 83.45337 L 138.79166 83.48251 L 138.92066 83.51163 L 139.04965 83.54076 L 139.17862 83.56984 L 139.3076 83.5989 L 139.4366 83.62796 L 139.56558 83.65698 L 139.69458 83.68597 L 139.82355 83.71498 L 139.95255 83.74394 L 140.08153 83.77287 L 140.21051 83.8018 L 140.33953 83.8307 L 140.46849 83.8596 L 140.59749 83.88847 L 140.72646 83.91731 L 140.85546 83.94614 L 140.98445 83.97493 L 141.11342 84.00372 L 141.24242 84.03249 L 141.37139 84.06125 L 141.50038 84.08998 L 141.62938 84.11868 L 141.75835 84.14738 L 141.88736 84.17603 L 142.01633 84.20467 L 142.14531 84.2333 L 142.27433 84.26192 L 142.40329 84.29051 L 142.53229 84.31906 L 142.66126 84.34761 L 142.79024 84.37614 L 142.91925 84.40468 L 143.04822 84.43317 L 143.17722 84.46165 L 143.30619 84.49008 L 143.4352 84.51852 L 143.56418 84.54692 L 143.69315 84.57533 L 143.82216 84.60371 L 143.95113 84.63206 L 144.08013 84.66042 L 144.2091 84.68874 L 144.33809 84.71703 L 144.46709 84.74532 L 144.59606 84.77357 L 144.72507 84.80182 L 144.85405 84.83006 L 144.98302 84.85826 L 145.11202 84.88646 L 145.24098 84.91463 L 145.37 84.94278 L 145.49898 84.97092 L 145.62795 84.999 L 145.75696 85.02713 L 145.88593 85.05518 L 146.01493 85.08328 L 146.14392 85.11131 L 146.2729 85.13931 L 146.40189 85.16731 L 146.53086 85.19528 L 146.65987 85.22328 L 146.78885 85.25124 L 146.91783 85.27917 L 147.04682 85.3071 L 147.17578 85.33495 L 147.3048 85.36285 L 147.43378 85.39073 L 147.56276 85.41852 L 147.69176 85.44638 L 147.82073 85.47415 L 147.94972 85.50195 L 148.07872 85.52974 L 148.2077 85.55748 L 148.33669 85.58522 L 148.46566 85.61292 L 148.59465 85.64064 L 148.72365 85.6683 L 148.85263 85.69598 L 148.98162 85.72363 L 149.11061 85.75124 L 149.2396 85.77885 L 149.36858 85.80644 L 149.49756 85.83405 L 149.62656 85.8616 L 149.75554 85.88913 L 149.88452 85.91664 L 150.0135 85.94417 L 150.1425 85.97166 L 150.27149 85.99913 L 150.40047 86.02658 L 150.52947 86.05402 L 150.65845 86.08142 L 150.78743 86.10884 L 150.91641 86.13623 L 151.0454 86.16356 L 151.1744 86.19092 L 151.30339 86.21829 L 151.43236 86.24557 L 151.56136 86.27289 L 151.69034 86.30016 L 151.81932 86.32744 L 151.94834 86.3547 L 152.0773 86.38194 L 152.20629 86.40913 L 152.33527 86.43633 L 152.46425 86.46353 L 152.59326 86.49066 L 152.72223 86.51782 L 152.85121 86.54498 L 152.9802 86.57208 L 153.10919 86.59918 L 153.23819 86.62628 L 153.36716 86.65332 L 153.49616 86.68039 L 153.62514 86.70741 L 153.75412 86.73442 L 153.88312 86.76143 L 154.0121 86.78842 L 154.1411 86.81538 L 154.27007 86.84235 L 154.39905 86.86928 L 154.52806 86.89621 L 154.65703 86.92308 L 154.78603 86.94997 L 154.91501 86.97685 L 155.04399 87.00371 L 155.17299 87.03053 L 155.30196 87.05734 L 155.43097 87.08417 L 155.55994 87.11096 L 155.68892 87.13774 L 155.81793 87.16449 L 155.9469 87.19121 L 156.0759 87.21796 L 156.20487 87.24466 L 156.33386 87.27138 L 156.46286 87.29807 L 156.59183 87.32472 L 156.72083 87.35136 L 156.8498 87.37798 L 156.9788 87.4046 L 157.10779 87.4312 L 157.23676 87.45778 L 157.36577 87.48439 L 157.49474 87.51091 L 157.62374 87.53743 L 157.75273 87.56398 L 157.8817 87.59048 L 158.0107 87.61694 L 158.13967 87.64343 L 158.26866 87.6699 L 158.39766 87.69635 L 158.52663 87.72278 L 158.65563 87.74916 L 158.78459 87.77557 L 158.9136 87.80199 L 159.04259 87.82832 L 159.17156 87.85469 L 159.30057 87.881 L 159.42954 87.90735 L 159.55854 87.93364 L 159.68752 87.95993 L 159.81652 87.9862 L 159.9455 88.01247 L 160.07447 88.03871 L 160.20348 88.06496 L 160.33246 88.09119 L 160.46144 88.11739 L 160.59043 88.14355 L 160.71939 88.16974 L 160.8484 88.19588 L 160.97739 88.22203 L 161.10637 88.24815 L 161.23537 88.27428 L 161.36434 88.30038 L 161.49333 88.32643 L 161.62233 88.35254 L 161.75131 88.37857 L 161.8803 88.4046 L 162.00928 88.43063 L 162.13828 88.45663 L 162.26726 88.48265 L 162.39624 88.50864 L 162.52523 88.53456 L 162.6542 88.56052 L 162.7832 88.58647 L 162.91219 88.6124 L 163.04117 88.6383 L 163.17017 88.66418 L 163.29915 88.69006 L 163.42813 88.71593 L 163.55713 88.74179 L 163.68611 88.76761 L 163.8151 88.79346 L 163.94408 88.81926 L 164.07306 88.84503 L 164.20206 88.87082 L 164.33104 88.89659 L 164.46002 88.92233 L 164.589 88.94806 L 164.718 88.97377 L 164.847 88.9995 L 164.97597 89.02516 L 165.10497 89.05086 L 165.23395 89.0765 L 165.36293 89.10216 L 165.49193 89.1278 L 165.62091 89.15344 L 165.7499 89.17903 L 165.87888 89.20462 L 166.00786 89.2302 L 166.13687 89.2558 L 166.26584 89.28133 L 166.39482 89.30685 L 166.5238 89.3324 "/>
<path transform="matrix(2.7777777,0,0,-2.7777777,10.330556,484.68055)" stroke-width=".79701" stroke-linecap="butt" stroke-miterlimit="10" stroke-linejoin="miter" fill="none" stroke="#00ff00" d="M 37.66606 -5.76448 L 37.79503 -5.63947 L 37.92401 -5.51447 L 38.05301 -5.38947 L 38.18199 -5.26443 L 38.31099 -5.13943 L 38.43997 -5.01442 L 38.56895 -4.8894 L 38.69794 -4.7644 L 38.82692 -4.63939 L 38.95592 -4.51439 L 39.0849 -4.38936 L 39.2139 -4.26436 L 39.34288 -4.13936 L 39.47185 -4.01433 L 39.60085 -3.88933 L 39.72983 -3.76431 L 39.85883 -3.6393 L 39.98781 -3.5143 L 40.11679 -3.38928 L 40.24579 -3.26427 L 40.37477 -3.13927 L 40.50377 -3.01425 L 40.63274 -2.88924 L 40.76172 -2.76424 L 40.89072 -2.63922 L 41.0197 -2.51422 L 41.1487 -2.38919 L 41.27768 -2.26419 L 41.40668 -2.13918 L 41.53564 -2.01416 L 41.66463 -1.88916 L 41.79362 -1.76413 L 41.9226 -1.63913 L 42.0516 -1.51413 L 42.18059 -1.38911 L 42.30957 -1.2641 L 42.43855 -1.1391 L 42.56754 -1.01408 L 42.69653 -.88907 L 42.82552 -.76405 L 42.9545 -.63905 L 43.0835 -.51404 L 43.21248 -.38902 L 43.34148 -.26402 L 43.47044 -.13899 L 43.59943 -.01399 L 43.72842 .111 L 43.8574 .23602 L 43.9864 .36102 L 44.11539 .48602 L 44.24438 .61104 L 44.37335 .73605 L 44.50233 .86107 L 44.63133 .98607 L 44.76031 1.11108 L 44.88931 1.2361 L 45.0183 1.3611 L 45.14728 1.48613 L 45.27626 1.61113 L 45.40524 1.73613 L 45.53424 1.86116 L 45.66322 1.98616 L 45.7922 2.11116 L 45.9212 2.23619 L 46.05019 2.36119 L 46.17918 2.4862 L 46.30815 2.6112 L 46.43713 2.73622 L 46.56613 2.86124 L 46.69511 2.98624 L 46.82411 3.11127 L 46.9531 3.23627 L 47.08209 3.36127 L 47.21107 3.4863 L 47.34004 3.6113 L 47.46904 3.7363 L 47.59802 3.86133 L 47.72702 3.98633 L 47.856 4.11134 L 47.98499 4.23636 L 48.11397 4.36136 L 48.24295 4.48637 L 48.37195 4.61137 L 48.50093 4.73639 L 48.62991 4.8614 L 48.75891 4.9864 L 48.8879 5.11143 L 49.01689 5.23643 L 49.14587 5.36143 L 49.27486 5.48647 L 49.40384 5.61147 L 49.53282 5.73648 L 49.66182 5.8615 L 49.7908 5.9865 L 49.9198 6.11151 L 50.04878 6.23653 L 50.17775 6.36153 L 50.30675 6.48654 L 50.43573 6.61154 L 50.56473 6.73657 L 50.69371 6.86159 L 50.8227 6.98657 L 50.95169 7.1116 L 51.08066 7.2366 L 51.20966 7.36162 L 51.33865 7.48663 L 51.46762 7.61163 L 51.59662 7.73665 L 51.72559 7.86165 L 51.8546 7.98666 L 51.98358 8.1117 L 52.11256 8.23668 L 52.24156 8.36171 L 52.37053 8.48671 L 52.49953 8.61171 L 52.62851 8.73674 L 52.7575 8.86174 L 52.88649 8.98677 L 53.01546 9.11176 L 53.14445 9.23677 L 53.27345 9.3618 L 53.40244 9.48679 L 53.53142 9.6118 L 53.66039 9.73682 L 53.7894 9.86183 L 53.91838 9.98685 L 54.04736 10.11185 L 54.17636 10.23686 L 54.30533 10.36186 L 54.43433 10.48688 L 54.56331 10.61191 L 54.69229 10.7369 L 54.82129 10.86191 L 54.95027 10.98692 L 55.07925 11.11194 L 55.20825 11.23694 L 55.33723 11.36195 L 55.46622 11.48697 L 55.5952 11.61197 L 55.7242 11.73698 L 55.85318 11.862 L 55.98216 11.98701 L 56.11115 12.11201 L 56.24014 12.23703 L 56.36913 12.36205 L 56.49811 12.48706 L 56.6271 12.61206 L 56.75609 12.73708 L 56.88507 12.86208 L 57.01405 12.98709 L 57.14305 13.1121 L 57.27203 13.23712 L 57.40102 13.36212 L 57.53 13.48712 L 57.659 13.61215 L 57.788 13.73717 L 57.91696 13.86215 L 58.04596 13.98718 L 58.17494 14.11218 L 58.30392 14.23721 L 58.43294 14.36221 L 58.56189 14.48721 L 58.69089 14.61224 L 58.81987 14.73723 L 58.94885 14.86226 L 59.07787 14.98727 L 59.20683 15.11227 L 59.33582 15.23729 L 59.4648 15.36229 L 59.5938 15.4873 L 59.7228 15.61232 L 59.85176 15.73732 L 59.98076 15.86235 L 60.10974 15.98734 L 60.23872 16.11235 L 60.36772 16.23738 L 60.4967 16.36238 L 60.6257 16.4874 L 60.75467 16.6124 L 60.88365 16.73741 L 61.01266 16.86244 L 61.14163 16.98743 L 61.27063 17.11244 L 61.3996 17.23746 L 61.5286 17.36246 L 61.6576 17.48749 L 61.78656 17.61249 L 61.91557 17.7375 L 62.04454 17.8625 L 62.17352 17.98752 L 62.30252 18.11255 L 62.4315 18.23753 L 62.5605 18.36255 L 62.68947 18.48756 L 62.81847 18.61256 L 62.94746 18.73758 L 63.07643 18.8626 L 63.20543 18.98761 L 63.3344 19.11261 L 63.46341 19.23763 L 63.59239 19.36264 L 63.72136 19.48764 L 63.85037 19.61266 L 63.97934 19.73767 L 64.10834 19.86269 L 64.23734 19.9877 L 64.36629 20.1127 L 64.4953 20.23772 L 64.62427 20.3627 L 64.75327 20.48773 L 64.88226 20.61275 L 65.01123 20.73776 L 65.14023 20.86276 L 65.2692 20.98776 L 65.39821 21.1128 L 65.52719 21.23781 L 65.65617 21.3628 L 65.78517 21.48782 L 65.91414 21.61282 L 66.04314 21.73784 L 66.17212 21.86285 L 66.30112 21.98785 L 66.4301 22.11288 L 66.55907 22.23787 L 66.68806 22.3629 L 66.81706 22.48792 L 66.94604 22.6129 L 67.07503 22.73793 L 67.204 22.86293 L 67.33301 22.98795 L 67.46199 23.11296 L 67.59097 23.23796 L 67.71997 23.36299 L 67.84894 23.48798 L 67.97794 23.61299 L 68.10692 23.73802 L 68.23592 23.863 L 68.3649 23.98804 L 68.49388 24.11304 L 68.62286 24.23805 L 68.75186 24.36307 L 68.88084 24.48807 L 69.00983 24.61308 L 69.13881 24.73808 L 69.2678 24.8631 L 69.39679 24.98813 L 69.52577 25.11313 L 69.65477 25.23813 L 69.78375 25.36314 L 69.91273 25.48816 L 70.04172 25.61319 L 70.17072 25.73817 L 70.2997 25.86319 L 70.42868 25.9882 L 70.55766 26.1132 L 70.68666 26.23822 L 70.81564 26.36324 L 70.94463 26.48824 L 71.07361 26.61325 L 71.2026 26.73827 L 71.3316 26.86328 L 71.46057 26.98828 L 71.58957 27.1133 L 71.71855 27.23831 L 71.84753 27.36331 L 71.97653 27.48833 L 72.10551 27.61334 L 72.2345 27.73836 L 72.36348 27.86334 L 72.49246 27.98837 L 72.62148 28.11339 L 72.75044 28.23839 L 72.87943 28.3634 L 73.0084 28.4884 L 73.1374 28.61343 L 73.2664 28.73843 L 73.39537 28.86343 L 73.52438 28.98846 L 73.65335 29.11345 L 73.78233 29.23848 L 73.91133 29.3635 L 74.0403 29.48848 L 74.16931 29.61351 L 74.29828 29.73851 L 74.42726 29.86354 L 74.55627 29.98856 L 74.68524 30.11354 L 74.81424 30.23857 L 74.9432 30.36356 L 75.0722 30.48857 L 75.2012 30.6136 L 75.33017 30.7386 L 75.45917 30.86362 L 75.58815 30.98862 L 75.71713 31.11363 L 75.84613 31.23866 L 75.97511 31.36365 L 76.10411 31.48868 L 76.23308 31.61368 L 76.36208 31.73868 L 76.49107 31.86371 L 76.62004 31.98871 L 76.74904 32.11372 L 76.878 32.23872 L 77.00702 32.36374 L 77.136 32.48877 L 77.26497 32.61375 L 77.39398 32.73877 L 77.52295 32.86378 L 77.65195 32.9888 L 77.78093 33.11382 L 77.90991 33.23882 L 78.03891 33.36383 L 78.16788 33.48883 L 78.29688 33.61385 L 78.42587 33.73886 L 78.55484 33.86386 L 78.68384 33.98888 L 78.8128 34.11389 L 78.94182 34.2389 L 79.0708 34.3639 L 79.19978 34.48892 L 79.32878 34.61394 L 79.45775 34.73894 L 79.58675 34.86395 L 79.71573 34.98897 L 79.84471 35.11398 L 79.97371 35.23898 L 80.10268 35.36398 L 80.23167 35.48901 L 80.36067 35.61403 L 80.48965 35.73903 L 80.61864 35.86404 L 80.7476 35.98904 L 80.87662 36.11406 L 81.0056 36.23907 L 81.13458 36.36409 L 81.26357 36.48909 L 81.39255 36.61409 L 81.52155 36.73912 L 81.65053 36.86414 L 81.77953 36.98912 L 81.90851 37.11415 L 82.03749 37.23915 L 82.16647 37.36417 L 82.29547 37.48918 L 82.42445 37.61418 L 82.55344 37.73921 L 82.68242 37.8642 L 82.81142 37.98921 L 82.9404 38.11424 L 83.06938 38.23923 L 83.19838 38.36426 L 83.32736 38.48926 L 83.45634 38.61427 L 83.58533 38.73929 L 83.71432 38.86429 L 83.8433 38.98932 L 83.97229 39.1143 L 84.10127 39.23932 L 84.23029 39.36435 L 84.35925 39.48933 L 84.48824 39.61435 L 84.61722 39.73936 L 84.74622 39.86438 L 84.87521 39.98941 L 85.00418 40.1144 L 85.13318 40.23941 L 85.26216 40.36443 L 85.39114 40.48943 L 85.52014 40.61446 L 85.64911 40.73946 L 85.7781 40.86447 L 85.90709 40.98947 L 86.03607 41.11449 L 86.16508 41.2395 L 86.29405 41.3645 L 86.42303 41.48952 L 86.55202 41.61453 L 86.68102 41.73953 L 86.81001 41.86455 L 86.93898 41.98956 L 87.06798 42.11458 L 87.19696 42.23958 L 87.32594 42.3646 L 87.45494 42.48961 L 87.58392 42.61461 L 87.71292 42.73962 L 87.84189 42.86462 L 87.97087 42.98965 L 88.09988 43.11465 L 88.22885 43.23967 L 88.35785 43.36469 L 88.48682 43.48967 L 88.61581 43.6147 L 88.74481 43.73972 L 88.87378 43.86473 L 89.00279 43.98973 L 89.13176 44.11473 L 89.26074 44.23976 L 89.38974 44.36476 L 89.5187 44.48976 L 89.64772 44.61479 L 89.77669 44.73978 L 89.90569 44.8648 L 90.03468 44.98982 L 90.16365 45.11482 L 90.29265 45.23984 L 90.42162 45.36484 L 90.55063 45.48985 L 90.67961 45.61488 L 90.80858 45.73987 L 90.93758 45.8649 L 91.06656 45.9899 L 91.19556 46.1149 L 91.32454 46.23993 L 91.4535 46.36493 L 91.58252 46.48996 L 91.71149 46.61494 L 91.84048 46.73996 L 91.96948 46.86499 L 92.09845 46.98997 L 92.22745 47.11499 L 92.35641 47.24 L 92.48543 47.365 L 92.61441 47.49004 L 92.7434 47.61504 L 92.87239 47.74005 L 93.00136 47.86505 L 93.13036 47.99007 L 93.25934 48.1151 L 93.38834 48.2401 L 93.51732 48.3651 L 93.64629 48.49011 L 93.77528 48.61513 L 93.90428 48.74013 L 94.03326 48.86514 L 94.16225 48.99016 L 94.29121 49.11516 L 94.42023 49.24017 L 94.54921 49.36519 L 94.67819 49.4902 L 94.80719 49.6152 L 94.93617 49.74022 L 95.06516 49.86523 L 95.19414 49.99025 L 95.32312 50.11525 L 95.45212 50.24026 L 95.5811 50.36526 L 95.71008 50.49028 L 95.83908 50.6153 L 95.96806 50.74031 L 96.09705 50.86533 L 96.22603 50.99031 L 96.35503 51.11534 L 96.48401 51.24036 L 96.61299 51.36536 L 96.74197 51.49037 L 96.87097 51.61537 L 96.99995 51.74039 L 97.12894 51.8654 L 97.25792 51.9904 L 97.38692 52.11543 L 97.5159 52.24042 L 97.64488 52.36545 L 97.7739 52.49046 L 97.90286 52.61545 L 98.03185 52.74048 L 98.16083 52.86548 L 98.28983 52.9905 L 98.41882 53.11552 L 98.54779 53.24051 L 98.67679 53.36554 L 98.80577 53.49052 L 98.93475 53.61554 L 99.06375 53.74057 L 99.19272 53.86557 L 99.32172 53.99059 L 99.4507 54.11559 L 99.57968 54.2406 L 99.7087 54.36562 L 99.83766 54.49062 L 99.96664 54.61563 L 100.09563 54.74063 L 100.22462 54.86565 L 100.35362 54.99068 L 100.48259 55.11568 L 100.6116 55.24068 L 100.74057 55.36569 L 100.86955 55.4907 L 100.99855 55.61574 L 101.12752 55.74072 L 101.25653 55.86574 L 101.3855 55.99075 L 101.51448 56.11577 L 101.6435 56.24077 L 101.77246 56.36578 L 101.90146 56.4908 L 102.03043 56.6158 L 102.15942 56.74081 L 102.28842 56.86583 L 102.41739 56.99083 L 102.54639 57.11584 L 102.67537 57.24086 L 102.80435 57.36586 L 102.93335 57.49088 L 103.06233 57.61589 L 103.19133 57.7409 L 103.3203 57.86589 L 103.4493 57.99092 L 103.5783 58.11594 L 103.70726 58.24095 L 103.83626 58.36595 L 103.96523 58.49095 L 104.09424 58.61598 L 104.22322 58.741 L 104.35219 58.866 L 104.4812 58.99101 L 104.61017 59.11601 L 104.73917 59.24103 L 104.86815 59.36604 L 104.99712 59.49104 L 105.12613 59.61606 L 105.2551 59.74106 L 105.3841 59.86609 L 105.51309 59.9911 L 105.64207 60.11609 L 105.77106 60.24112 L 105.90002 60.36612 L 106.02904 60.49113 L 106.15802 60.61615 L 106.287 60.74115 L 106.41599 60.86618 L 106.54497 60.99117 L 106.67397 61.11618 L 106.80295 61.24121 L 106.93193 61.3662 L 107.06093 61.49123 L 107.1899 61.61623 L 107.3189 61.74124 L 107.44789 61.86626 L 107.57687 61.99126 L 107.70586 62.11627 L 107.83482 62.24127 L 107.96384 62.36629 L 108.09282 62.49132 L 108.2218 62.6163 L 108.35078 62.74132 L 108.47978 62.86633 L 108.60876 62.99135 L 108.73775 63.11638 L 108.86673 63.24136 L 108.99573 63.36638 L 109.12471 63.49138 L 109.2537 63.6164 L 109.38269 63.74141 L 109.51167 63.86642 L 109.64066 63.99142 L 109.76964 64.11644 L 109.89864 64.24146 L 110.02762 64.36647 L 110.1566 64.49147 L 110.2856 64.61649 L 110.41458 64.7415 L 110.54356 64.8665 L 110.67255 64.99152 L 110.80153 65.11653 L 110.93053 65.24155 L 111.05951 65.36653 L 111.18849 65.49156 L 111.3175 65.61658 L 111.44647 65.74158 L 111.57545 65.8666 L 111.70444 65.9916 L 111.83344 66.11662 L 111.96243 66.24162 L 112.0914 66.36664 L 112.22038 66.49165 L 112.34938 66.61664 L 112.47836 66.74167 L 112.60736 66.86668 L 112.73633 66.99167 L 112.86533 67.1167 L 112.99431 67.2417 L 113.12329 67.36673 L 113.2523 67.49173 L 113.38127 67.61673 L 113.51025 67.74176 L 113.63924 67.86674 L 113.76823 67.99178 L 113.89723 68.11679 L 114.0262 68.24179 L 114.1552 68.3668 L 114.28418 68.4918 L 114.41316 68.61682 L 114.54216 68.74185 L 114.67113 68.86684 L 114.80014 68.99187 L 114.92911 69.11687 L 115.05809 69.24187 L 115.1871 69.3669 L 115.31607 69.4919 L 115.44507 69.6169 L 115.57404 69.74191 L 115.70303 69.86693 L 115.83203 69.99196 L 115.961 70.11694 L 116.09 70.24196 L 116.21898 70.36697 L 116.34798 70.49197 L 116.47696 70.617 L 116.60593 70.742 L 116.73494 70.86702 L 116.8639 70.99202 L 116.9929 71.11703 L 117.1219 71.24205 L 117.25087 71.36705 L 117.37987 71.49207 L 117.50883 71.61708 L 117.63785 71.7421 L 117.76683 71.8671 L 117.8958 71.99211 L 118.0248 72.11713 L 118.15378 72.24213 L 118.28278 72.36714 L 118.41176 72.49216 L 118.54073 72.61716 L 118.66974 72.74217 L 118.7987 72.86717 L 118.9277 72.9922 L 119.0567 73.11722 L 119.18568 73.24222 L 119.31467 73.36723 L 119.44363 73.49222 L 119.57265 73.61725 L 119.70163 73.74226 L 119.83061 73.86728 L 119.9596 73.99228 L 120.08856 74.11728 L 120.21758 74.24231 L 120.34656 74.36732 L 120.47554 74.49231 L 120.60454 74.61734 L 120.7335 74.74234 L 120.8625 74.86736 L 120.9915 74.99237 L 121.12048 75.11737 L 121.24947 75.2424 L 121.37843 75.36739 L 121.50743 75.49242 L 121.63643 75.61743 L 121.76541 75.74242 L 121.8944 75.86745 L 122.02339 75.99245 L 122.15237 76.11746 L 122.28136 76.24248 L 122.41034 76.36748 L 122.53934 76.49251 L 122.66832 76.6175 L 122.7973 76.74251 L 122.9263 76.86754 L 123.05528 76.99252 L 123.18427 77.11754 L 123.31325 77.24255 L 123.44225 77.36757 L 123.57123 77.49258 L 123.70021 77.61758 L 123.8292 77.7426 L 123.95819 77.8676 L 124.08717 77.99261 L 124.21616 78.11765 L 124.34514 78.24265 L 124.47414 78.36765 L 124.60312 78.49266 L 124.7321 78.61768 L 124.86111 78.74269 L 124.99008 78.86769 L 125.11906 78.9927 L 125.24805 79.11772 L 125.37704 79.24272 L 125.50604 79.36774 L 125.63501 79.49275 L 125.764 79.61777 L 125.89297 79.74277 L 126.02197 79.86778 L 126.15097 79.9928 L 126.27994 80.1178 L 126.40894 80.24281 L 126.53792 80.36781 L 126.6669 80.49283 L 126.79591 80.61784 L 126.92488 80.74286 L 127.05388 80.86787 L 127.18285 80.99286 L 127.31184 81.11789 L 127.44084 81.2429 L 127.56981 81.3679 L 127.6988 81.49292 L 127.82779 81.61792 L 127.95677 81.74295 L 128.08577 81.86795 L 128.21474 81.99295 L 128.34375 82.11798 L 128.47272 82.24297 L 128.6017 82.368 L 128.73072 82.49301 L 128.85968 82.61801 L 128.98868 82.74303 L 129.11765 82.86803 L 129.24665 82.99306 L 129.37564 83.11807 L 129.50461 83.24306 L 129.6336 83.36809 L 129.76259 83.49307 L 129.89159 83.61809 L 130.02057 83.74312 L 130.14954 83.86812 L 130.27855 83.99315 L 130.40752 84.11813 L 130.53652 84.24315 L 130.66551 84.36818 L 130.79448 84.49316 L 130.92348 84.6182 L 131.05245 84.7432 L 131.18146 84.8682 L 131.31044 84.99323 L 131.4394 85.11823 L 131.5684 85.24324 L 131.69738 85.36824 L 131.82639 85.49326 L 131.95537 85.61829 L 132.08434 85.74327 L 132.21335 85.86829 L 132.34232 85.9933 L 132.47132 86.11832 L 132.60031 86.24332 L 132.7293 86.36833 L 132.85828 86.49335 L 132.98725 86.61835 L 133.11626 86.74336 L 133.24524 86.86838 L 133.37422 86.9934 L 133.5032 87.1184 L 133.63219 87.24341 L 133.76119 87.36842 L 133.89017 87.49342 L 134.01915 87.61844 L 134.14815 87.74345 L 134.27712 87.86844 L 134.40612 87.99347 L 134.53511 88.11848 L 134.6641 88.2435 L 134.79308 88.3685 L 134.92205 88.4935 L 135.05106 88.61853 L 135.18004 88.74355 L 135.30902 88.86855 L 135.438 88.99356 L 135.56699 89.11856 L 135.69599 89.24358 L 135.82497 89.36859 L 135.95395 89.49359 L 136.08295 89.61862 L 136.21193 89.7436 L 136.34091 89.86864 L 136.46991 89.99365 L 136.59889 90.11864 L 136.72788 90.24367 L 136.85686 90.36867 L 136.98584 90.49368 L 137.11484 90.6187 L 137.24382 90.7437 L 137.3728 90.86873 L 137.50179 90.99371 L 137.63079 91.11873 L 137.75977 91.24376 L 137.88875 91.36874 L 138.01775 91.49377 L 138.14673 91.61877 L 138.27571 91.74379 L 138.40471 91.8688 L 138.53369 91.9938 L 138.66268 92.11884 L 138.79166 92.24382 L 138.92066 92.36884 L 139.04965 92.49387 L 139.17862 92.61887 L 139.3076 92.74387 L 139.4366 92.86888 L 139.56558 92.9939 L 139.69458 93.11893 L 139.82355 93.24391 L 139.95255 93.36893 L 140.08153 93.49393 L 140.21051 93.61894 L 140.33953 93.74396 L 140.46849 93.86897 L 140.59749 93.99399 L 140.72646 94.11899 L 140.85546 94.244 L 140.98445 94.36902 L 141.11342 94.49402 L 141.24242 94.61903 L 141.37139 94.74405 L 141.50038 94.86905 L 141.62938 94.99406 L 141.75835 95.11908 L 141.88736 95.2441 L 142.01633 95.36908 L 142.14531 95.49411 L 142.27433 95.61913 L 142.40329 95.74413 L 142.53229 95.86914 L 142.66126 95.99414 L 142.79024 96.11917 L 142.91925 96.24417 L 143.04822 96.36919 L 143.17722 96.4942 L 143.30619 96.61919 L 143.4352 96.74422 L 143.56418 96.86923 L 143.69315 96.99423 L 143.82216 97.11925 L 143.95113 97.24425 L 144.08013 97.36928 L 144.2091 97.49428 L 144.33809 97.61928 L 144.46709 97.74431 L 144.59606 97.8693 L 144.72507 97.99432 L 144.85405 98.11934 L 144.98302 98.24434 L 145.11202 98.36935 L 145.24098 98.49435 L 145.37 98.61937 L 145.49898 98.7444 L 145.62795 98.86938 L 145.75696 98.99442 L 145.88593 99.11942 L 146.01493 99.24443 L 146.14392 99.36945 L 146.2729 99.49445 L 146.40189 99.61948 L 146.53086 99.74446 L 146.65987 99.86948 L 146.78885 99.9945 L 146.91783 100.11949 L 147.04682 100.2445 L 147.17578 100.36952 L 147.3048 100.49452 L 147.43378 100.61955 L 147.56276 100.74455 L 147.69176 100.86957 L 147.82073 100.99457 L 147.94972 101.11958 L 148.07872 101.2446 L 148.2077 101.3696 L 148.33669 101.49461 L 148.46566 101.61963 L 148.59465 101.74464 L 148.72365 101.86966 L 148.85263 101.99466 L 148.98162 102.11967 L 149.11061 102.24469 L 149.2396 102.36969 L 149.36858 102.4947 L 149.49756 102.61972 L 149.62656 102.74472 L 149.75554 102.86972 L 149.88452 102.99475 L 150.0135 103.11977 L 150.1425 103.24477 L 150.27149 103.36978 L 150.40047 103.49477 L 150.52947 103.6198 L 150.65845 103.74481 L 150.78743 103.86983 L 150.91641 103.99484 L 151.0454 104.11983 L 151.1744 104.24486 L 151.30339 104.36987 L 151.43236 104.49486 L 151.56136 104.61989 L 151.69034 104.74489 L 151.81932 104.86992 L 151.94834 104.99492 L 152.0773 105.11992 L 152.20629 105.24495 L 152.33527 105.36993 L 152.46425 105.49496 L 152.59326 105.61998 L 152.72223 105.74496 L 152.85121 105.87 L 152.9802 105.995 L 153.10919 106.12001 L 153.23819 106.24503 L 153.36716 106.37003 L 153.49616 106.49506 L 153.62514 106.62004 L 153.75412 106.74506 L 153.88312 106.87009 L 154.0121 106.99509 L 154.1411 107.1201 L 154.27007 107.2451 L 154.39905 107.37012 L 154.52806 107.49515 L 154.65703 107.62013 L 154.78603 107.74515 L 154.91501 107.87016 L 155.04399 107.99516 L 155.17299 108.1202 L 155.30196 108.2452 L 155.43097 108.3702 L 155.55994 108.49521 L 155.68892 108.62022 L 155.81793 108.74524 L 155.9469 108.87024 L 156.0759 108.99525 L 156.20487 109.12027 L 156.33386 109.24529 L 156.46286 109.37029 L 156.59183 109.4953 L 156.72083 109.62032 L 156.8498 109.74532 L 156.9788 109.87033 L 157.10779 109.99535 L 157.23676 110.12035 L 157.36577 110.24536 L 157.49474 110.37036 L 157.62374 110.49539 L 157.75273 110.62039 L 157.8817 110.7454 L 158.0107 110.87042 L 158.13967 110.9954 L 158.26866 111.12044 L 158.39766 111.24545 L 158.52663 111.37047 L 158.65563 111.49547 L 158.78459 111.62047 L 158.9136 111.7455 L 159.04259 111.87051 L 159.17156 111.9955 L 159.30057 112.12053 L 159.42954 112.24553 L 159.55854 112.37054 L 159.68752 112.49556 L 159.81652 112.62056 L 159.9455 112.74557 L 160.07447 112.87057 L 160.20348 112.9956 L 160.33246 113.12062 L 160.46144 113.2456 L 160.59043 113.37064 L 160.71939 113.49564 L 160.8484 113.62064 L 160.97739 113.74567 L 161.10637 113.87067 L 161.23537 113.9957 L 161.36434 114.12068 L 161.49333 114.2457 L 161.62233 114.37073 L 161.75131 114.49571 L 161.8803 114.62074 L 162.00928 114.74574 L 162.13828 114.87076 L 162.26726 114.99577 L 162.39624 115.12077 L 162.52523 115.24579 L 162.6542 115.37079 L 162.7832 115.4958 L 162.91219 115.62083 L 163.04117 115.74582 L 163.17017 115.87083 L 163.29915 115.99585 L 163.42813 116.12086 L 163.55713 116.24588 L 163.68611 116.37088 L 163.8151 116.4959 L 163.94408 116.6209 L 164.07306 116.74591 L 164.20206 116.87093 L 164.33104 116.99594 L 164.46002 117.12096 L 164.589 117.24596 L 164.718 117.37097 L 164.847 117.49599 L 164.97597 117.62099 L 165.10497 117.746 L 165.23395 117.871 L 165.36293 117.99602 L 165.49193 118.12103 L 165.62091 118.24605 L 165.7499 118.37105 L 165.87888 118.49605 L 166.00786 118.62108 L 166.13687 118.7461 L 166.26584 118.8711 L 166.39482 118.99611 L 166.5238 119.12111 "/>
<path transform="matrix(2.7777777,0,0,-2.7777777,10.330556,484.68055)" stroke-width=".79701" stroke-linecap="butt" stroke-miterlimit="10" stroke-linejoin="miter" fill="none" stroke="#fff200" d="M 37.66606 42.26996 L 37.79503 42.26996 L 37.92401 42.26996 L 38.05301 42.26996 L 38.18199 42.26996 L 38.31099 42.26996 L 38.43997 42.26996 L 38.56895 42.26996 L 38.69794 42.26996 L 38.82692 42.26996 L 38.95592 42.26996 L 39.0849 42.26996 L 39.2139 42.26996 L 39.34288 42.26996 L 39.47185 42.26996 L 39.60085 42.26996 L 39.72983 42.26996 L 39.85883 42.26996 L 39.98781 42.26996 L 40.11679 42.26996 L 40.24579 42.26996 L 40.37477 42.26996 L 40.50377 42.26996 L 40.63274 42.26996 L 40.76172 42.26996 L 40.89072 42.26996 L 41.0197 42.26996 L 41.1487 42.26996 L 41.27768 42.26996 L 41.40668 42.26996 L 41.53564 42.26996 L 41.66463 42.26996 L 41.79362 42.26996 L 41.9226 42.26996 L 42.0516 42.26996 L 42.18059 42.26996 L 42.30957 42.26996 L 42.43855 42.26996 L 42.56754 42.26996 L 42.69653 42.26996 L 42.82552 42.26996 L 42.9545 42.26996 L 43.0835 42.26996 L 43.21248 42.26996 L 43.34148 42.26996 L 43.47044 42.26996 L 43.59943 42.26996 L 43.72842 42.26996 L 43.8574 42.26996 L 43.9864 42.26996 L 44.11539 42.26996 L 44.24438 42.26996 L 44.37335 42.26996 L 44.50233 42.26996 L 44.63133 42.26996 L 44.76031 42.26996 L 44.88931 42.26996 L 45.0183 42.26996 L 45.14728 42.26996 L 45.27626 42.26996 L 45.40524 42.26996 L 45.53424 42.26996 L 45.66322 42.26996 L 45.7922 42.26996 L 45.9212 42.26996 L 46.05019 42.26996 L 46.17918 42.26996 L 46.30815 42.26996 L 46.43713 42.26996 L 46.56613 42.26996 L 46.69511 42.26996 L 46.82411 42.26996 L 46.9531 42.26996 L 47.08209 42.26996 L 47.21107 42.26996 L 47.34004 42.26996 L 47.46904 42.26996 L 47.59802 42.26996 L 47.72702 42.26996 L 47.856 42.26996 L 47.98499 42.26996 L 48.11397 42.26996 L 48.24295 42.26996 L 48.37195 42.26996 L 48.50093 42.26996 L 48.62991 42.26996 L 48.75891 42.26996 L 48.8879 42.26996 L 49.01689 42.26996 L 49.14587 42.26996 L 49.27486 42.26996 L 49.40384 42.26996 L 49.53282 42.26996 L 49.66182 42.26996 L 49.7908 42.26996 L 49.9198 42.26996 L 50.04878 42.26996 L 50.17775 42.26996 L 50.30675 42.26996 L 50.43573 42.26996 L 50.56473 42.26996 L 50.69371 42.26996 L 50.8227 42.26996 L 50.95169 42.26996 L 51.08066 42.26996 L 51.20966 42.26996 L 51.33865 42.26996 L 51.46762 42.26996 L 51.59662 42.26996 L 51.72559 42.26996 L 51.8546 42.26996 L 51.98358 42.26996 L 52.11256 42.26996 L 52.24156 42.26996 L 52.37053 42.26996 L 52.49953 42.26996 L 52.62851 42.26996 L 52.7575 42.26996 L 52.88649 42.26996 L 53.01546 42.26996 L 53.14445 42.26996 L 53.27345 42.26996 L 53.40244 42.26996 L 53.53142 42.26996 L 53.66039 42.26996 L 53.7894 42.26996 L 53.91838 42.26996 L 54.04736 42.26996 L 54.17636 42.26996 L 54.30533 42.26996 L 54.43433 42.26996 L 54.56331 42.26996 L 54.69229 42.26996 L 54.82129 42.26996 L 54.95027 42.26996 L 55.07925 42.26996 L 55.20825 42.26996 L 55.33723 42.26996 L 55.46622 42.26996 L 55.5952 42.26996 L 55.7242 42.26996 L 55.85318 42.26996 L 55.98216 42.26996 L 56.11115 42.26996 L 56.24014 42.26996 L 56.36913 42.26996 L 56.49811 42.26996 L 56.6271 42.26996 L 56.75609 42.26996 L 56.88507 42.26996 L 57.01405 42.26996 L 57.14305 42.26996 L 57.27203 42.26996 L 57.40102 42.26996 L 57.53 42.26996 L 57.659 42.26996 L 57.788 42.26996 L 57.91696 42.26996 L 58.04596 42.26996 L 58.17494 42.26996 L 58.30392 42.26996 L 58.43294 42.26996 L 58.56189 42.26996 L 58.69089 42.26996 L 58.81987 42.26996 L 58.94885 42.26996 L 59.07787 42.26996 L 59.20683 42.26996 L 59.33582 42.26996 L 59.4648 42.26996 L 59.5938 42.26996 L 59.7228 42.26996 L 59.85176 42.26996 L 59.98076 42.26996 L 60.10974 42.26996 L 60.23872 42.26996 L 60.36772 42.26996 L 60.4967 42.26996 L 60.6257 42.26996 L 60.75467 42.26996 L 60.88365 42.26996 L 61.01266 42.26996 L 61.14163 42.26996 L 61.27063 42.26996 L 61.3996 42.26996 L 61.5286 42.26996 L 61.6576 42.26996 L 61.78656 42.26996 L 61.91557 42.26996 L 62.04454 42.26996 L 62.17352 42.26996 L 62.30252 42.26996 L 62.4315 42.26996 L 62.5605 42.26996 L 62.68947 42.26996 L 62.81847 42.26996 L 62.94746 42.26996 L 63.07643 42.26996 L 63.20543 42.26996 L 63.3344 42.26996 L 63.46341 42.26996 L 63.59239 42.26996 L 63.72136 42.26996 L 63.85037 42.26996 L 63.97934 42.26996 L 64.10834 42.26996 L 64.23734 42.26996 L 64.36629 42.26996 L 64.4953 42.26996 L 64.62427 42.26996 L 64.75327 42.26996 L 64.88226 42.26996 L 65.01123 42.26996 L 65.14023 42.26996 L 65.2692 42.26996 L 65.39821 42.26996 L 65.52719 42.26996 L 65.65617 42.26996 L 65.78517 42.26996 L 65.91414 42.26996 L 66.04314 42.26996 L 66.17212 42.26996 L 66.30112 42.26996 L 66.4301 42.26996 L 66.55907 42.26996 L 66.68806 42.26996 L 66.81706 42.26996 L 66.94604 42.26996 L 67.07503 42.26996 L 67.204 42.26996 L 67.33301 42.26996 L 67.46199 42.26996 L 67.59097 42.26996 L 67.71997 42.26996 L 67.84894 42.26996 L 67.97794 42.26996 L 68.10692 42.26996 L 68.23592 42.26996 L 68.3649 42.26996 L 68.49388 42.26996 L 68.62286 42.26996 L 68.75186 42.26996 L 68.88084 42.26996 L 69.00983 42.26996 L 69.13881 42.26996 L 69.2678 42.26996 L 69.39679 42.26996 L 69.52577 42.26996 L 69.65477 42.26996 L 69.78375 42.26996 L 69.91273 42.26996 L 70.04172 42.26996 L 70.17072 42.26996 L 70.2997 42.26996 L 70.42868 42.26996 L 70.55766 42.26996 L 70.68666 42.26996 L 70.81564 42.26996 L 70.94463 42.26996 L 71.07361 42.26996 L 71.2026 42.26996 L 71.3316 42.26996 L 71.46057 42.26996 L 71.58957 42.26996 L 71.71855 42.26996 L 71.84753 42.26996 L 71.97653 42.26996 L 72.10551 42.26996 L 72.2345 42.26996 L 72.36348 42.26996 L 72.49246 42.26996 L 72.62148 42.26996 L 72.75044 42.26996 L 72.87943 42.26996 L 73.0084 42.26996 L 73.1374 42.26996 L 73.2664 42.26996 L 73.39537 42.26996 L 73.52438 42.26996 L 73.65335 42.26996 L 73.78233 42.26996 L 73.91133 42.26996 L 74.0403 42.26996 L 74.16931 42.26996 L 74.29828 42.26996 L 74.42726 42.26996 L 74.55627 42.26996 L 74.68524 42.26996 L 74.81424 42.26996 L 74.9432 42.26996 L 75.0722 42.26996 L 75.2012 42.26996 L 75.33017 42.26996 L 75.45917 42.26996 L 75.58815 42.26996 L 75.71713 42.26996 L 75.84613 42.26996 L 75.97511 42.26996 L 76.10411 42.26996 L 76.23308 42.26996 L 76.36208 42.26996 L 76.49107 42.26996 L 76.62004 42.26996 L 76.74904 42.26996 L 76.878 42.26996 L 77.00702 42.26996 L 77.136 42.26996 L 77.26497 42.26996 L 77.39398 42.26996 L 77.52295 42.26996 L 77.65195 42.26996 L 77.78093 42.26996 L 77.90991 42.26996 L 78.03891 42.26996 L 78.16788 42.26996 L 78.29688 42.26996 L 78.42587 42.26996 L 78.55484 42.26996 L 78.68384 42.26996 L 78.8128 42.26996 L 78.94182 42.26996 L 79.0708 42.26996 L 79.19978 42.26996 L 79.32878 42.26996 L 79.45775 42.26996 L 79.58675 42.26996 L 79.71573 42.26996 L 79.84471 42.26996 L 79.97371 42.26996 L 80.10268 42.26996 L 80.23167 42.26996 L 80.36067 42.26996 L 80.48965 42.26996 L 80.61864 42.26996 L 80.7476 42.26996 L 80.87662 42.26996 L 81.0056 42.26996 L 81.13458 42.26996 L 81.26357 42.26996 L 81.39255 42.26996 L 81.52155 42.26996 L 81.65053 42.26996 L 81.77953 42.26996 L 81.90851 42.26996 L 82.03749 42.26996 L 82.16647 42.26996 L 82.29547 42.26996 L 82.42445 42.26996 L 82.55344 42.26996 L 82.68242 42.26996 L 82.81142 42.26996 L 82.9404 42.26996 L 83.06938 42.26996 L 83.19838 42.26996 L 83.32736 42.26996 L 83.45634 42.26996 L 83.58533 42.26996 L 83.71432 42.26996 L 83.8433 42.26996 L 83.97229 42.26996 L 84.10127 42.26996 L 84.23029 42.26996 L 84.35925 42.26996 L 84.48824 42.26996 L 84.61722 42.26996 L 84.74622 42.26996 L 84.87521 42.26996 L 85.00418 42.26996 L 85.13318 42.26996 L 85.26216 42.26996 L 85.39114 42.26996 L 85.52014 42.26996 L 85.64911 42.26996 L 85.7781 42.26996 L 85.90709 42.26996 L 86.03607 42.26996 L 86.16508 42.26996 L 86.29405 42.26996 L 86.42303 42.26996 L 86.55202 42.26996 L 86.68102 42.26996 L 86.81001 42.26996 L 86.93898 42.26996 L 87.06798 42.26996 L 87.19696 42.26996 L 87.32594 42.26996 L 87.45494 42.26996 L 87.58392 42.26996 L 87.71292 42.26996 L 87.84189 42.26996 L 87.97087 42.26996 L 88.09988 42.26996 L 88.22885 42.26996 L 88.35785 42.26996 L 88.48682 42.26996 L 88.61581 42.26996 L 88.74481 42.26996 L 88.87378 42.26996 L 89.00279 42.26996 L 89.13176 42.26996 L 89.26074 42.26996 L 89.38974 42.26996 L 89.5187 42.26996 L 89.64772 42.26996 L 89.77669 42.26996 L 89.90569 42.26996 L 90.03468 42.26996 L 90.16365 42.26996 L 90.29265 42.26996 L 90.42162 42.26996 L 90.55063 42.26996 L 90.67961 42.26996 L 90.80858 42.26996 L 90.93758 42.26996 L 91.06656 42.26996 L 91.19556 42.26996 L 91.32454 42.26996 L 91.4535 42.26996 L 91.58252 42.26996 L 91.71149 42.26996 L 91.84048 42.26996 L 91.96948 42.26996 L 92.09845 42.26996 L 92.22745 42.26996 L 92.35641 42.26996 L 92.48543 42.26996 L 92.61441 42.26996 L 92.7434 42.26996 L 92.87239 42.26996 L 93.00136 42.26996 L 93.13036 42.26996 L 93.25934 42.26996 L 93.38834 42.26996 L 93.51732 42.26996 L 93.64629 42.26996 L 93.77528 42.26996 L 93.90428 42.26996 L 94.03326 42.26996 L 94.16225 42.26996 L 94.29121 42.26996 L 94.42023 42.26996 L 94.54921 42.26996 L 94.67819 42.26996 L 94.80719 42.26996 L 94.93617 42.26996 L 95.06516 42.26996 L 95.19414 42.26996 L 95.32312 42.26996 L 95.45212 42.26996 L 95.5811 42.26996 L 95.71008 42.26996 L 95.83908 42.26996 L 95.96806 42.26996 L 96.09705 42.26996 L 96.22603 42.26996 L 96.35503 42.26996 L 96.48401 42.26996 L 96.61299 42.26996 L 96.74197 42.26996 L 96.87097 42.26996 L 96.99995 42.26996 L 97.12894 42.26996 L 97.25792 42.26996 L 97.38692 42.26996 L 97.5159 42.26996 L 97.64488 42.26996 L 97.7739 42.26996 L 97.90286 42.26996 L 98.03185 42.26996 L 98.16083 42.26996 L 98.28983 42.26996 L 98.41882 42.26996 L 98.54779 42.26996 L 98.67679 42.26996 L 98.80577 42.26996 L 98.93475 42.26996 L 99.06375 42.26996 L 99.19272 42.26996 L 99.32172 42.26996 L 99.4507 42.26996 L 99.57968 42.26996 L 99.7087 42.26996 L 99.83766 42.26996 L 99.96664 42.26996 L 100.09563 42.26996 L 100.22462 42.26996 L 100.35362 42.26996 L 100.48259 42.26996 L 100.6116 42.26996 L 100.74057 42.26996 L 100.86955 42.26996 L 100.99855 42.26996 L 101.12752 42.26996 L 101.25653 42.26996 L 101.3855 42.26996 L 101.51448 42.26996 L 101.6435 42.26996 L 101.77246 42.26996 L 101.90146 42.26996 L 102.03043 42.26996 L 102.15942 42.26996 L 102.28842 42.26996 L 102.41739 42.26996 L 102.54639 42.26996 L 102.67537 42.26996 L 102.80435 42.26996 L 102.93335 42.26996 L 103.06233 42.26996 L 103.19133 42.26996 L 103.3203 42.26996 L 103.4493 42.26996 L 103.5783 42.26996 L 103.70726 42.26996 L 103.83626 42.26996 L 103.96523 42.26996 L 104.09424 42.26996 L 104.22322 42.26996 L 104.35219 42.26996 L 104.4812 42.26996 L 104.61017 42.26996 L 104.73917 42.26996 L 104.86815 42.26996 L 104.99712 42.26996 L 105.12613 42.26996 L 105.2551 42.26996 L 105.3841 42.26996 L 105.51309 42.26996 L 105.64207 42.26996 L 105.77106 42.26996 L 105.90002 42.26996 L 106.02904 42.26996 L 106.15802 42.26996 L 106.287 42.26996 L 106.41599 42.26996 L 106.54497 42.26996 L 106.67397 42.26996 L 106.80295 42.26996 L 106.93193 42.26996 L 107.06093 42.26996 L 107.1899 42.26996 L 107.3189 42.26996 L 107.44789 42.26996 L 107.57687 42.26996 L 107.70586 42.26996 L 107.83482 42.26996 L 107.96384 42.26996 L 108.09282 42.26996 L 108.2218 42.26996 L 108.35078 42.26996 L 108.47978 42.26996 L 108.60876 42.26996 L 108.73775 42.26996 L 108.86673 42.26996 L 108.99573 42.26996 L 109.12471 42.26996 L 109.2537 42.26996 L 109.38269 42.26996 L 109.51167 42.26996 L 109.64066 42.26996 L 109.76964 42.26996 L 109.89864 42.26996 L 110.02762 42.26996 L 110.1566 42.26996 L 110.2856 42.26996 L 110.41458 42.26996 L 110.54356 42.26996 L 110.67255 42.26996 L 110.80153 42.26996 L 110.93053 42.26996 L 111.05951 42.26996 L 111.18849 42.26996 L 111.3175 42.26996 L 111.44647 42.26996 L 111.57545 42.26996 L 111.70444 42.26996 L 111.83344 42.26996 L 111.96243 42.26996 L 112.0914 42.26996 L 112.22038 42.26996 L 112.34938 42.26996 L 112.47836 42.26996 L 112.60736 42.26996 L 112.73633 42.26996 L 112.86533 42.26996 L 112.99431 42.26996 L 113.12329 42.26996 L 113.2523 42.26996 L 113.38127 42.26996 L 113.51025 42.26996 L 113.63924 42.26996 L 113.76823 42.26996 L 113.89723 42.26996 L 114.0262 42.26996 L 114.1552 42.26996 L 114.28418 42.26996 L 114.41316 42.26996 L 114.54216 42.26996 L 114.67113 42.26996 L 114.80014 42.26996 L 114.92911 42.26996 L 115.05809 42.26996 L 115.1871 42.26996 L 115.31607 42.26996 L 115.44507 42.26996 L 115.57404 42.26996 L 115.70303 42.26996 L 115.83203 42.26996 L 115.961 42.26996 L 116.09 42.26996 L 116.21898 42.26996 L 116.34798 42.26996 L 116.47696 42.26996 L 116.60593 42.26996 L 116.73494 42.26996 L 116.8639 42.26996 L 116.9929 42.26996 L 117.1219 42.26996 L 117.25087 42.26996 L 117.37987 42.26996 L 117.50883 42.26996 L 117.63785 42.26996 L 117.76683 42.26996 L 117.8958 42.26996 L 118.0248 42.26996 L 118.15378 42.26996 L 118.28278 42.26996 L 118.41176 42.26996 L 118.54073 42.26996 L 118.66974 42.26996 L 118.7987 42.26996 L 118.9277 42.26996 L 119.0567 42.26996 L 119.18568 42.26996 L 119.31467 42.26996 L 119.44363 42.26996 L 119.57265 42.26996 L 119.70163 42.26996 L 119.83061 42.26996 L 119.9596 42.26996 L 120.08856 42.26996 L 120.21758 42.26996 L 120.34656 42.26996 L 120.47554 42.26996 L 120.60454 42.26996 L 120.7335 42.26996 L 120.8625 42.26996 L 120.9915 42.26996 L 121.12048 42.26996 L 121.24947 42.26996 L 121.37843 42.26996 L 121.50743 42.26996 L 121.63643 42.26996 L 121.76541 42.26996 L 121.8944 42.26996 L 122.02339 42.26996 L 122.15237 42.26996 L 122.28136 42.26996 L 122.41034 42.26996 L 122.53934 42.26996 L 122.66832 42.26996 L 122.7973 42.26996 L 122.9263 42.26996 L 123.05528 42.26996 L 123.18427 42.26996 L 123.31325 42.26996 L 123.44225 42.26996 L 123.57123 42.26996 L 123.70021 42.26996 L 123.8292 42.26996 L 123.95819 42.26996 L 124.08717 42.26996 L 124.21616 42.26996 L 124.34514 42.26996 L 124.47414 42.26996 L 124.60312 42.26996 L 124.7321 42.26996 L 124.86111 42.26996 L 124.99008 42.26996 L 125.11906 42.26996 L 125.24805 42.26996 L 125.37704 42.26996 L 125.50604 42.26996 L 125.63501 42.26996 L 125.764 42.26996 L 125.89297 42.26996 L 126.02197 42.26996 L 126.15097 42.26996 L 126.27994 42.26996 L 126.40894 42.26996 L 126.53792 42.26996 L 126.6669 42.26996 L 126.79591 42.26996 L 126.92488 42.26996 L 127.05388 42.26996 L 127.18285 42.26996 L 127.31184 42.26996 L 127.44084 42.26996 L 127.56981 42.26996 L 127.6988 42.26996 L 127.82779 42.26996 L 127.95677 42.26996 L 128.08577 42.26996 L 128.21474 42.26996 L 128.34375 42.26996 L 128.47272 42.26996 L 128.6017 42.26996 L 128.73072 42.26996 L 128.85968 42.26996 L 128.98868 42.26996 L 129.11765 42.26996 L 129.24665 42.26996 L 129.37564 42.26996 L 129.50461 42.26996 L 129.6336 42.26996 L 129.76259 42.26996 L 129.89159 42.26996 L 130.02057 42.26996 L 130.14954 42.26996 L 130.27855 42.26996 L 130.40752 42.26996 L 130.53652 42.26996 L 130.66551 42.26996 L 130.79448 42.26996 L 130.92348 42.26996 L 131.05245 42.26996 L 131.18146 42.26996 L 131.31044 42.26996 L 131.4394 42.26996 L 131.5684 42.26996 L 131.69738 42.26996 L 131.82639 42.26996 L 131.95537 42.26996 L 132.08434 42.26996 L 132.21335 42.26996 L 132.34232 42.26996 L 132.47132 42.26996 L 132.60031 42.26996 L 132.7293 42.26996 L 132.85828 42.26996 L 132.98725 42.26996 L 133.11626 42.26996 L 133.24524 42.26996 L 133.37422 42.26996 L 133.5032 42.26996 L 133.63219 42.26996 L 133.76119 42.26996 L 133.89017 42.26996 L 134.01915 42.26996 L 134.14815 42.26996 L 134.27712 42.26996 L 134.40612 42.26996 L 134.53511 42.26996 L 134.6641 42.26996 L 134.79308 42.26996 L 134.92205 42.26996 L 135.05106 42.26996 L 135.18004 42.26996 L 135.30902 42.26996 L 135.438 42.26996 L 135.56699 42.26996 L 135.69599 42.26996 L 135.82497 42.26996 L 135.95395 42.26996 L 136.08295 42.26996 L 136.21193 42.26996 L 136.34091 42.26996 L 136.46991 42.26996 L 136.59889 42.26996 L 136.72788 42.26996 L 136.85686 42.26996 L 136.98584 42.26996 L 137.11484 42.26996 L 137.24382 42.26996 L 137.3728 42.26996 L 137.50179 42.26996 L 137.63079 42.26996 L 137.75977 42.26996 L 137.88875 42.26996 L 138.01775 42.26996 L 138.14673 42.26996 L 138.27571 42.26996 L 138.40471 42.26996 L 138.53369 42.26996 L 138.66268 42.26996 L 138.79166 42.26996 L 138.92066 42.26996 L 139.04965 42.26996 L 139.17862 42.26996 L 139.3076 42.26996 L 139.4366 42.26996 L 139.56558 42.26996 L 139.69458 42.26996 L 139.82355 42.26996 L 139.95255 42.26996 L 140.08153 42.26996 L 140.21051 42.26996 L 140.33953 42.26996 L 140.46849 42.26996 L 140.59749 42.26996 L 140.72646 42.26996 L 140.85546 42.26996 L 140.98445 42.26996 L 141.11342 42.26996 L 141.24242 42.26996 L 141.37139 42.26996 L 141.50038 42.26996 L 141.62938 42.26996 L 141.75835 42.26996 L 141.88736 42.26996 L 142.01633 42.26996 L 142.14531 42.26996 L 142.27433 42.26996 L 142.40329 42.26996 L 142.53229 42.26996 L 142.66126 42.26996 L 142.79024 42.26996 L 142.91925 42.26996 L 143.04822 42.26996 L 143.17722 42.26996 L 143.30619 42.26996 L 143.4352 42.26996 L 143.56418 42.26996 L 143.69315 42.26996 L 143.82216 42.26996 L 143.95113 42.26996 L 144.08013 42.26996 L 144.2091 42.26996 L 144.33809 42.26996 L 144.46709 42.26996 L 144.59606 42.26996 L 144.72507 42.26996 L 144.85405 42.26996 L 144.98302 42.26996 L 145.11202 42.26996 L 145.24098 42.26996 L 145.37 42.26996 L 145.49898 42.26996 L 145.62795 42.26996 L 145.75696 42.26996 L 145.88593 42.26996 L 146.01493 42.26996 L 146.14392 42.26996 L 146.2729 42.26996 L 146.40189 42.26996 L 146.53086 42.26996 L 146.65987 42.26996 L 146.78885 42.26996 L 146.91783 42.26996 L 147.04682 42.26996 L 147.17578 42.26996 L 147.3048 42.26996 L 147.43378 42.26996 L 147.56276 42.26996 L 147.69176 42.26996 L 147.82073 42.26996 L 147.94972 42.26996 L 148.07872 42.26996 L 148.2077 42.26996 L 148.33669 42.26996 L 148.46566 42.26996 L 148.59465 42.26996 L 148.72365 42.26996 L 148.85263 42.26996 L 148.98162 42.26996 L 149.11061 42.26996 L 149.2396 42.26996 L 149.36858 42.26996 L 149.49756 42.26996 L 149.62656 42.26996 L 149.75554 42.26996 L 149.88452 42.26996 L 150.0135 42.26996 L 150.1425 42.26996 L 150.27149 42.26996 L 150.40047 42.26996 L 150.52947 42.26996 L 150.65845 42.26996 L 150.78743 42.26996 L 150.91641 42.26996 L 151.0454 42.26996 L 151.1744 42.26996 L 151.30339 42.26996 L 151.43236 42.26996 L 151.56136 42.26996 L 151.69034 42.26996 L 151.81932 42.26996 L 151.94834 42.26996 L 152.0773 42.26996 L 152.20629 42.26996 L 152.33527 42.26996 L 152.46425 42.26996 L 152.59326 42.26996 L 152.72223 42.26996 L 152.85121 42.26996 L 152.9802 42.26996 L 153.10919 42.26996 L 153.23819 42.26996 L 153.36716 42.26996 L 153.49616 42.26996 L 153.62514 42.26996 L 153.75412 42.26996 L 153.88312 42.26996 L 154.0121 42.26996 L 154.1411 42.26996 L 154.27007 42.26996 L 154.39905 42.26996 L 154.52806 42.26996 L 154.65703 42.26996 L 154.78603 42.26996 L 154.91501 42.26996 L 155.04399 42.26996 L 155.17299 42.26996 L 155.30196 42.26996 L 155.43097 42.26996 L 155.55994 42.26996 L 155.68892 42.26996 L 155.81793 42.26996 L 155.9469 42.26996 L 156.0759 42.26996 L 156.20487 42.26996 L 156.33386 42.26996 L 156.46286 42.26996 L 156.59183 42.26996 L 156.72083 42.26996 L 156.8498 42.26996 L 156.9788 42.26996 L 157.10779 42.26996 L 157.23676 42.26996 L 157.36577 42.26996 L 157.49474 42.26996 L 157.62374 42.26996 L 157.75273 42.26996 L 157.8817 42.26996 L 158.0107 42.26996 L 158.13967 42.26996 L 158.26866 42.26996 L 158.39766 42.26996 L 158.52663 42.26996 L 158.65563 42.26996 L 158.78459 42.26996 L 158.9136 42.26996 L 159.04259 42.26996 L 159.17156 42.26996 L 159.30057 42.26996 L 159.42954 42.26996 L 159.55854 42.26996 L 159.68752 42.26996 L 159.81652 42.26996 L 159.9455 42.26996 L 160.07447 42.26996 L 160.20348 42.26996 L 160.33246 42.26996 L 160.46144 42.26996 L 160.59043 42.26996 L 160.71939 42.26996 L 160.8484 42.26996 L 160.97739 42.26996 L 161.10637 42.26996 L 161.23537 42.26996 L 161.36434 42.26996 L 161.49333 42.26996 L 161.62233 42.26996 L 161.75131 42.26996 L 161.8803 42.26996 L 162.00928 42.26996 L 162.13828 42.26996 L 162.26726 42.26996 L 162.39624 42.26996 L 162.52523 42.26996 L 162.6542 42.26996 L 162.7832 42.26996 L 162.91219 42.26996 L 163.04117 42.26996 L 163.17017 42.26996 L 163.29915 42.26996 L 163.42813 42.26996 L 163.55713 42.26996 L 163.68611 42.26996 L 163.8151 42.26996 L 163.94408 42.26996 L 164.07306 42.26996 L 164.20206 42.26996 L 164.33104 42.26996 L 164.46002 42.26996 L 164.589 42.26996 L 164.718 42.26996 L 164.847 42.26996 L 164.97597 42.26996 L 165.10497 42.26996 L 165.23395 42.26996 L 165.36293 42.26996 L 165.49193 42.26996 L 165.62091 42.26996 L 165.7499 42.26996 L 165.87888 42.26996 L 166.00786 42.26996 L 166.13687 42.26996 L 166.26584 42.26996 L 166.39482 42.26996 L 166.5238 42.26996 "/>
<symbol id="font_3_3">
<path d="M .291 .087000008 C .29500003 .047000003 .32200004 .005000001 .36900003 .005000001 C .39000003 .005000001 .45100004 .019000002 .45100004 .1 L .45100004 .15600002 L .42600004 .15600002 L .42600004 .1 C .42600004 .042000005 .40100003 .036000004 .39000003 .036000004 C .35700003 .036000004 .35300002 .081 .35300002 .086 L .35300002 .286 C .35300002 .328 .35300002 .367 .31700004 .404 C .27800004 .44300003 .22800002 .45900003 .18 .45900003 C .098 .45900003 .029 .41200004 .029 .34600003 C .029 .316 .049000004 .29900003 .075 .29900003 C .10300001 .29900003 .121 .31900005 .121 .34500004 C .121 .35700003 .116000007 .39000003 .07 .39100004 C .09700001 .42600004 .146 .43700005 .178 .43700005 C .22700003 .43700005 .284 .39800004 .284 .30900003 L .284 .272 C .23300001 .26900003 .16300002 .26600004 .1 .23600002 C .024999999 .20200002 0 .15000002 0 .106000009 C 0 .025000003 .09700001 0 .16 0 C .22600001 0 .272 .040000004 .291 .087000008 M .284 .25100003 L .284 .15100001 C .284 .056 .21200001 .022000002 .167 .022000002 C .11800001 .022000002 .077 .057000005 .077 .107 C .077 .16200002 .11900001 .24500002 .284 .25100003 Z "/>
</symbol>
<use xlink:href="#font_3_3" transform="matrix(27.673888,0,0,-27.673888,136.73732,384.20164)"/>
<symbol id="font_3_4">
<path d="M .14400001 .388 L .14400001 .705 L 0 .694 L 0 .663 C .07000001 .663 .07800001 .656 .07800001 .607 L .07800001 .011000001 L .103000018 .011000001 C .104 .012000001 .112 .026 .13900002 .07300001 C .15400002 .05 .19600001 0 .27 0 C .38900004 0 .49300004 .098000008 .49300004 .22700002 C .49300004 .35400004 .395 .45300005 .28100003 .45300005 C .20300001 .45300005 .16000001 .40600003 .14400001 .388 M .14700002 .12500002 L .14700002 .33100004 C .14700002 .35000003 .14700002 .351 .158 .367 C .19700001 .42300005 .252 .43100003 .27600003 .43100003 C .321 .43100003 .35700003 .40500004 .381 .367 C .40700004 .32600004 .41000004 .26900003 .41000004 .22800002 C .41000004 .19100002 .40800003 .13100001 .379 .086 C .358 .055000005 .32000003 .022000002 .266 .022000002 C .22100002 .022000002 .18500002 .046 .16100002 .083000008 C .14700002 .104 .14700002 .107 .14700002 .12500002 Z "/>
</symbol>
<use xlink:href="#font_3_4" transform="matrix(27.673888,0,0,-27.673888,256.7304,387.8544)"/>
<symbol id="font_3_5">
<path d="M .083000008 .22900002 C .083000008 .39200003 .16500002 .43400003 .218 .43400003 C .227 .43400003 .29 .43300004 .32500003 .397 C .284 .39400003 .278 .36400003 .278 .351 C .278 .32500003 .296 .305 .324 .305 C .35 .305 .37 .32200004 .37 .35200004 C .37 .42000003 .294 .45900003 .21700001 .45900003 C .092 .45900003 0 .351 0 .22700002 C 0 .09900001 .099 0 .215 0 C .349 0 .381 .120000008 .381 .13000001 C .381 .14000002 .37100003 .14000002 .368 .14000002 C .359 .14000002 .35700003 .136 .35500003 .13000001 C .326 .037 .261 .025000003 .224 .025000003 C .171 .025000003 .083000008 .068 .083000008 .22900002 Z "/>
</symbol>
<use xlink:href="#font_3_5" transform="matrix(27.673888,0,0,-27.673888,357.5576,384.20164)"/>
<symbol id="font_3_2">
<path d="M .07700001 .07700001 L .18300002 .18 C .33900003 .31800003 .39900003 .372 .39900003 .47200004 C .39900003 .586 .30900003 .666 .18700002 .666 C .074 .666 0 .574 0 .485 C 0 .42900003 .05 .42900003 .053000008 .42900003 C .07000001 .42900003 .105000007 .441 .105000007 .48200003 C .105000007 .508 .08700001 .53400006 .052000006 .53400006 C .044000005 .53400006 .042000008 .53400006 .039 .53300008 C .062000004 .59800007 .11600001 .63500007 .17400001 .63500007 C .26500003 .63500007 .308 .554 .308 .47200004 C .308 .39200003 .25800003 .31300003 .20300003 .25100003 L .011000004 .037 C 0 .026 0 .024 0 0 L .37100003 0 L .39900003 .17400001 L .374 .17400001 C .36900003 .14400001 .36200003 .1 .352 .085 C .345 .07700001 .279 .07700001 .257 .07700001 L .07700001 .07700001 Z "/>
</symbol>
<use xlink:href="#font_3_2" transform="matrix(27.673888,0,0,-27.673888,236.08092,269.44166)"/>
<symbol id="font_3_1">
<path d="M .421 .34200005 C .421 .42200003 .416 .50200006 .381 .57600006 C .335 .67200008 .25300003 .688 .211 .688 C .15100001 .688 .07800001 .66200008 .037000006 .56900009 C .0050000029 .5 0 .42200003 0 .34200005 C 0 .26700003 .0040000008 .177 .045000007 .101 C .088 .020000002 .161 0 .21000001 0 C .264 0 .34 .021000002 .384 .116000007 C .416 .185 .421 .263 .421 .34200005 M .21000001 .022000002 C .171 .022000002 .112 .047000003 .094 .143 C .083000008 .20300001 .083000008 .29500003 .083000008 .35400004 C .083000008 .41800005 .083000008 .48400004 .091000009 .53800007 C .11 .65700009 .185 .66600009 .21000001 .66600009 C .243 .66600009 .30900003 .64800009 .328 .549 C .338 .49300004 .338 .41700004 .338 .35400004 C .338 .279 .338 .21100001 .32700003 .147 C .312 .052 .255 .022000002 .21000001 .022000002 Z "/>
</symbol>
<use xlink:href="#font_3_1" transform="matrix(27.673888,0,0,-27.673888,235.7765,387.46717)"/>
<path transform="matrix(2.7777777,0,0,-2.7777777,10.330556,484.68055)" stroke-width=".3985" stroke-linecap="butt" stroke-dasharray="2.98883,2.98883" stroke-miterlimit="10" stroke-linejoin="miter" fill="none" stroke="#000000" d="M 126.87811 42.26996 L 126.87811 80.69753 "/>
<path transform="matrix(2.7777777,0,0,-2.7777777,10.330556,484.68055)" stroke-width=".3985" stroke-linecap="butt" stroke-dasharray="2.98883,2.98883" stroke-miterlimit="10" stroke-linejoin="miter" fill="none" stroke="#000000" d="M 87.2283 80.69753 L 126.87811 80.69753 "/>
<path transform="matrix(2.7777777,0,0,-2.7777777,10.330556,484.68055)" stroke-width=".79701" stroke-linecap="butt" stroke-miterlimit="10" stroke-linejoin="miter" fill="none" stroke="#000000" d="M 57.49095 55.85602 L 101.24649 55.85602 "/>
</g>
<symbol id="font_4_1">
<path d="M .305 .31300003 C .311 .33900003 .334 .43100003 .404 .43100003 C .409 .43100003 .433 .43100003 .454 .418 C .426 .41300003 .40600003 .388 .40600003 .36400003 C .40600003 .34800003 .417 .32900004 .444 .32900004 C .46600003 .32900004 .498 .34700004 .498 .38700003 C .498 .43900005 .439 .45300005 .405 .45300005 C .347 .45300005 .312 .40000005 .3 .37700004 C .275 .44300003 .221 .45300005 .19200002 .45300005 C .08800001 .45300005 .031000002 .32400004 .031000002 .29900003 C .031000002 .28900004 .041 .28900004 .043000007 .28900004 C .051000008 .28900004 .054000006 .291 .056 .3 C .09 .40600003 .156 .43100003 .19000001 .43100003 C .209 .43100003 .244 .42200003 .244 .36400003 C .244 .33300004 .22700002 .26600004 .19000001 .126 C .17400001 .064 .13900002 .022000002 .095000009 .022000002 C .08900001 .022000002 .06600001 .022000002 .045 .035 C .07000001 .040000004 .09200001 .061 .09200001 .089 C .09200001 .116000007 .07000001 .124000009 .055000009 .124000009 C .025 .124000009 0 .098000008 0 .06600001 C 0 .020000002 .050000006 0 .094000007 0 C .16000001 0 .19600001 .07000001 .19900002 .076000008 C .21100001 .039 .24700003 0 .307 0 C .41 0 .467 .12900001 .467 .15400002 C .467 .16400002 .458 .16400002 .455 .16400002 C .446 .16400002 .444 .16000001 .442 .15300001 C .409 .046 .341 .022000002 .30900003 .022000002 C .27 .022000002 .254 .054 .254 .08800001 C .254 .11000001 .26 .13200002 .271 .17600002 L .305 .31300003 Z "/>
</symbol>
<use xlink:href="#font_4_1" transform="matrix(27.673888,0,0,-27.673888,560.65249,389.2377)"/>
<symbol id="font_4_2">
<path d="M .45700003 .586 C .461 .6 .461 .602 .461 .609 C .461 .62700006 .447 .63600006 .432 .63600006 C .42200003 .63600006 .40600003 .63 .397 .615 C .395 .61 .387 .579 .38300003 .561 C .37600003 .535 .36900003 .508 .363 .48100005 L .318 .301 C .314 .286 .271 .21600002 .20500002 .21600002 C .15400002 .21600002 .143 .26000003 .143 .29700003 C .143 .34300003 .16000001 .40500004 .194 .49300004 C .21000001 .53400006 .21400002 .545 .21400002 .56500008 C .21400002 .61 .18200001 .6470001 .13200002 .6470001 C .037 .6470001 0 .50200006 0 .49300004 C 0 .48300005 .01 .48300005 .012 .48300005 C .022000002 .48300005 .023 .485 .028000003 .50100007 C .055000009 .595 .095000009 .625 .12900001 .625 C .13700001 .625 .15400002 .625 .15400002 .59300008 C .15400002 .568 .14400001 .54200008 .13700001 .523 C .097 .41700004 .079 .36 .079 .31300003 C .079 .224 .142 .194 .201 .194 C .24000003 .194 .274 .21100001 .30200003 .23900002 C .289 .187 .277 .13800001 .237 .08500001 C .21100001 .051 .17300001 .022 .127 .022 C .113000009 .022 .068 .025000006 .051000008 .06400001 C .067 .06400001 .080000009 .06400001 .094000007 .076000008 C .104 .08500001 .11400001 .098000008 .11400001 .117000009 C .11400001 .148 .087000008 .15200001 .07700001 .15200001 C .054000006 .15200001 .021 .136 .021 .087000008 C .021 .037 .065000008 0 .127 0 C .23 0 .333 .091000009 .361 .20400001 L .45700003 .586 Z "/>
</symbol>
<use xlink:href="#font_4_2" transform="matrix(27.673888,0,0,-27.673888,229.12474,26.812033)"/>
</g>
</svg>
