<?xml version="1.0" encoding="UTF-8" standalone="no"?>
<!DOCTYPE svg PUBLIC "-//W3C//DTD SVG 1.1//EN" "http://www.w3.org/Graphics/SVG/1.1/DTD/svg11.dtd">
<svg xmlns="http://www.w3.org/2000/svg" xmlns:xlink="http://www.w3.org/1999/xlink" version="1.1" width="584.8pt" height="485.72499pt" viewBox="0 0 584.8 485.72499">
<g enable-background="new">
<path transform="matrix(2.7777777,0,0,-2.7777777,10.330556,484.6166)" stroke-width=".79701" stroke-linecap="butt" stroke-miterlimit="10" stroke-linejoin="miter" fill="none" stroke="#000000" d="M 0 33.5369 L 191.68631 33.5369 "/>
<path transform="matrix(2.7777777,0,0,-2.7777777,542.79238,391.4586)" d="M 2.59026 0 L -1.55415 2.0722 L 0 0 L -1.55415 -2.0722 "/>
<path transform="matrix(2.7777777,0,0,-2.7777777,10.330556,484.6166)" stroke-width=".79701" stroke-linecap="butt" stroke-miterlimit="10" stroke-linejoin="miter" fill="none" stroke="#000000" d="M 27.75348 0 L 27.75348 158.80715 "/>
<path transform="matrix(0,-2.7777222,-2.7777222,-0,87.42355,43.485685)" d="M 2.59026 0 L -1.55415 2.0722 L 0 0 L -1.55415 -2.0722 "/>
<clipPath id="cp0">
<path transform="matrix(2.7777777,0,0,-2.7777777,10.330556,484.6166)" d="M 0 0 L 194.27654 0 L 194.27654 161.39736 L 0 161.39736 Z "/>
</clipPath>
<g clip-path="url(#cp0)">
<path transform="matrix(2.7777777,0,0,-2.7777777,10.330556,484.6166)" d="M 27.75365 33.53668 L 27.78818 33.49496 L 27.9618 33.28514 L 28.13544 33.07535 L 28.30908 32.86554 L 28.48271 32.6558 L 28.65634 32.44606 L 28.83 32.23634 L 29.00362 32.02673 L 29.17726 31.81714 L 29.35088 31.60764 L 29.52454 31.39818 L 29.69817 31.18881 L 29.8718 30.97954 L 30.04544 30.77034 L 30.21906 30.5613 L 30.39272 30.35231 L 30.56635 30.14346 L 30.73997 29.93477 L 30.91362 29.72617 L 31.08723 29.51775 L 31.26088 29.30945 L 31.43454 29.1013 L 31.60814 28.89336 L 31.7818 28.68556 L 31.95541 28.47798 L 32.12906 28.27057 L 32.3027 28.06331 L 32.47633 27.85634 L 32.64996 27.64954 L 32.8236 27.44298 L 32.99724 27.23663 L 33.1709 27.0305 L 33.34451 26.82468 L 33.51816 26.61906 L 33.69177 26.41373 L 33.86542 26.20866 L 34.03906 26.00385 L 34.21268 25.79936 L 34.38634 25.59514 L 34.55995 25.39124 L 34.7336 25.18762 L 34.90724 24.98433 L 35.08087 24.78139 L 35.2545 24.57874 L 35.42813 24.37646 L 35.60178 24.17451 L 35.77542 23.97292 L 35.94904 23.77171 L 36.1227 23.57086 L 36.29631 23.37039 L 36.46996 23.1703 L 36.6436 22.97063 L 36.81723 22.77136 L 36.99086 22.57246 L 37.16447 22.37404 L 37.33813 22.176 L 37.51176 21.97841 L 37.6854 21.78128 L 37.85904 21.58456 L 38.03267 21.38835 L 38.2063 21.19258 L 38.37996 20.99727 L 38.55357 20.80247 L 38.72722 20.60814 L 38.90083 20.41434 L 39.0745 20.22101 L 39.24814 20.0282 L 39.42177 19.83592 L 39.5954 19.64417 L 39.76903 19.45297 L 39.94267 19.26231 L 40.11632 19.07217 L 40.28993 18.88264 L 40.46358 18.69365 L 40.63719 18.50525 L 40.81084 18.31743 L 40.9845 18.13017 L 41.1581 17.94357 L 41.33176 17.75755 L 41.50537 17.57216 L 41.67903 17.38737 L 41.85266 17.20322 L 42.02629 17.01973 L 42.19994 16.83687 L 42.37357 16.65468 L 42.5472 16.47313 L 42.72086 16.29225 L 42.89447 16.11208 L 43.06812 15.93257 L 43.24173 15.75378 L 43.41539 15.57568 L 43.58902 15.39827 L 43.76265 15.22163 L 43.9363 15.04567 L 44.10991 14.87048 L 44.28355 14.696 L 44.4572 14.52228 L 44.63083 14.34933 L 44.80446 14.17712 L 44.97809 14.00572 L 45.15173 13.83508 L 45.3254 13.66524 L 45.499 13.4962 L 45.67265 13.32794 L 45.84627 13.16052 L 46.01991 12.99391 L 46.19356 12.82813 L 46.36719 12.66322 L 46.54082 12.4991 L 46.71445 12.33588 L 46.88809 12.1735 L 47.06174 12.012 L 47.23535 11.85136 L 47.409 11.69159 L 47.58263 11.53276 L 47.75627 11.3748 L 47.92992 11.21773 L 48.10353 11.0616 L 48.27719 10.90639 L 48.4508 10.75214 L 48.62445 10.59879 L 48.7981 10.44638 L 48.97173 10.29495 L 49.14536 10.1445 L 49.31898 9.99501 L 49.49263 9.84647 L 49.66628 9.69893 L 49.83989 9.55241 L 50.01355 9.40688 L 50.18715 9.26236 L 50.36081 9.11884 L 50.53445 8.97635 L 50.70807 8.83492 L 50.88171 8.69452 L 51.05533 8.55516 L 51.22899 8.41687 L 51.40262 8.27963 L 51.57625 8.14348 L 51.7499 8.0084 L 51.92352 7.87444 L 52.09715 7.74155 L 52.27081 7.60974 L 52.44443 7.4791 L 52.61807 7.34955 L 52.79169 7.22115 L 52.96535 7.09384 L 53.13898 6.9677 L 53.3126 6.84273 L 53.48625 6.7189 L 53.65988 6.59627 L 53.83351 6.47478 L 54.00717 6.35446 L 54.18079 6.23537 L 54.35443 6.11746 L 54.52805 6.0008 L 54.70169 5.8853 L 54.87535 5.77103 L 55.04895 5.65802 L 55.22261 5.54623 L 55.39622 5.43571 L 55.56987 5.32643 L 55.74352 5.2184 L 55.91714 5.11166 L 56.09077 5.0062 L 56.2644 4.90201 L 56.43805 4.79912 L 56.61171 4.69753 L 56.78532 4.59726 L 56.95897 4.49829 L 57.13258 4.40068 L 57.30624 4.30437 L 57.47987 4.20943 L 57.65349 4.11581 L 57.82715 4.02356 L 58.00076 3.9327 L 58.17441 3.84317 L 58.34805 3.75505 L 58.52168 3.6683 L 58.69531 3.58298 L 58.86894 3.49904 L 59.04259 3.41652 L 59.21623 3.3354 L 59.38985 3.25572 L 59.5635 3.17749 L 59.73712 3.10071 L 59.91077 3.02536 L 60.08441 2.95148 L 60.25804 2.87906 L 60.43167 2.80812 L 60.6053 2.7387 L 60.77895 2.67072 L 60.95258 2.60425 L 61.1262 2.5393 L 61.29985 2.47585 L 61.47348 2.41394 L 61.64711 2.35355 L 61.82077 2.2947 L 61.99438 2.23741 L 62.16803 2.18166 L 62.34164 2.12747 L 62.5153 2.07486 L 62.68895 2.02383 L 62.86256 1.97438 L 63.03621 1.92654 L 63.20984 1.88028 L 63.38348 1.83565 L 63.55713 1.79259 L 63.73074 1.75122 L 63.9044 1.71143 L 64.07802 1.67332 L 64.25166 1.63686 L 64.42531 1.60204 L 64.5989 1.56888 L 64.77257 1.53741 L 64.94618 1.5076 L 65.11984 1.47949 L 65.29347 1.4531 L 65.4671 1.42839 L 65.64075 1.40538 L 65.81438 1.38411 L 65.988 1.36456 L 66.16167 1.34674 L 66.33528 1.33069 L 66.50893 1.31638 L 66.68254 1.3038 L 66.8562 1.29303 L 67.02983 1.284 L 67.20346 1.2768 L 67.3771 1.27135 L 67.55074 1.26772 L 67.72437 1.26587 L 67.89801 1.26585 L 68.07164 1.26765 L 68.24527 1.27129 L 68.4189 1.27676 L 68.59254 1.28409 L 68.7662 1.29327 L 68.9398 1.30429 L 69.11346 1.31721 L 69.28708 1.33199 L 69.46072 1.34868 L 69.63437 1.36723 L 69.808 1.38771 L 69.98163 1.41006 L 70.15526 1.43437 L 70.3289 1.46059 L 70.50255 1.48875 L 70.67616 1.51884 L 70.84982 1.5509 L 71.02344 1.58487 L 71.19708 1.62086 L 71.37073 1.65878 L 71.54434 1.6987 L 71.718 1.7406 L 71.8916 1.78447 L 72.06526 1.8304 L 72.2389 1.8783 L 72.41254 1.92825 L 72.58617 1.98022 L 72.7598 2.03421 L 72.93344 2.09027 L 73.10709 2.14838 L 73.2807 2.20851 L 73.45436 2.27074 L 73.62798 2.33505 L 73.80162 2.40143 L 73.97527 2.46988 L 74.1489 2.54047 L 74.32253 2.61314 L 74.49615 2.68791 L 74.6698 2.76483 L 74.84343 2.84389 L 75.01706 2.92505 L 75.1907 3.0084 L 75.36433 3.09387 L 75.53796 3.1815 L 75.71162 3.27132 L 75.88524 3.36331 L 76.05888 3.45749 L 76.2325 3.55385 L 76.40616 3.65242 L 76.57979 3.7532 L 76.75342 3.85619 L 76.92706 3.96141 L 77.1007 4.06885 L 77.27432 4.17856 L 77.44798 4.29053 L 77.6216 4.40468 L 77.79526 4.52118 L 77.96887 4.63986 L 78.1425 4.76093 L 78.31616 4.88422 L 78.48978 5.00981 L 78.66342 5.13773 L 78.83704 5.26793 L 79.01068 5.40048 L 79.18433 5.53532 L 79.35796 5.67252 L 79.53159 5.81206 L 79.70522 5.95393 L 79.87886 6.09824 L 80.05252 6.24484 L 80.22614 6.39381 L 80.39978 6.5452 L 80.5734 6.69894 L 80.74706 6.85513 L 80.92068 7.01367 L 81.09431 7.17464 L 81.26796 7.33806 L 81.44157 7.50386 L 81.61522 7.67215 L 81.78886 7.84291 L 81.9625 8.01602 L 82.13612 8.19171 L 82.30975 8.36974 L 82.4834 8.55037 L 82.65704 8.73343 L 82.83066 8.91898 L 83.00432 9.10703 L 83.17793 9.29759 L 83.35158 9.49068 L 83.52522 9.68626 L 83.69885 9.88443 L 83.8725 10.08511 L 84.04611 10.28831 L 84.21976 10.49406 L 84.3934 10.70247 L 84.56702 10.91335 L 84.74068 11.12688 L 84.91429 11.3429 L 85.08792 11.56165 L 85.26158 11.78294 L 85.4352 12.00682 L 85.60884 12.23332 L 85.78246 12.46246 L 85.95612 12.69424 L 86.12976 12.92865 L 86.30338 13.1657 L 86.47702 13.40549 L 86.65065 13.64781 L 86.8243 13.89296 L 86.99794 14.14069 L 87.17155 14.39114 L 87.34521 14.64427 L 87.51883 14.9001 L 87.69247 15.15865 L 87.86612 15.41992 L 88.03975 15.68391 L 88.21338 15.95068 L 88.387 16.22015 L 88.56065 16.49239 L 88.73428 16.76747 L 88.90791 17.04517 L 89.08156 17.32578 L 89.25517 17.60904 L 89.42882 17.89523 L 89.60248 18.18417 L 89.7761 18.47589 L 89.94974 18.7704 L 90.12335 19.0678 L 90.29701 19.368 L 90.47064 19.67105 L 90.64427 19.97693 L 90.81792 20.28566 L 90.99155 20.59729 L 91.16518 20.91185 L 91.33884 21.2292 L 91.51245 21.54945 L 91.68608 21.8726 L 91.85971 22.19862 L 92.03336 22.5276 L 92.20702 22.85948 L 92.38062 23.19427 L 92.55428 23.53197 L 92.72789 23.87267 L 92.90155 24.2163 L 93.07518 24.56297 L 93.24881 24.91241 L 93.42244 25.26505 L 93.59607 25.62044 L 93.76971 25.97906 L 93.94336 26.34053 L 94.11697 26.70506 L 94.29063 27.07254 L 94.46425 27.44308 L 94.6379 27.81662 L 94.81154 28.19322 L 94.98517 28.57286 L 95.15881 28.95557 L 95.33243 29.34132 L 95.50607 29.73015 L 95.67972 30.12213 L 95.85335 30.51701 L 96.02698 30.91522 L 96.2006 31.31627 L 96.37425 31.72069 L 96.5479 32.12807 L 96.72151 32.53859 L 96.89517 32.95222 L 97.06879 33.36903 L 97.13916 33.53923 L 97.13835 33.5369 L 96.89517 33.5369 L 96.72151 33.5369 L 96.5479 33.5369 L 96.37425 33.5369 L 96.2006 33.5369 L 96.02698 33.5369 L 95.85335 33.5369 L 95.67972 33.5369 L 95.50607 33.5369 L 95.33243 33.5369 L 95.15881 33.5369 L 94.98517 33.5369 L 94.81154 33.5369 L 94.6379 33.5369 L 94.46425 33.5369 L 94.29063 33.5369 L 94.11697 33.5369 L 93.94336 33.5369 L 93.76971 33.5369 L 93.59607 33.5369 L 93.42244 33.5369 L 93.24881 33.5369 L 93.07518 33.5369 L 92.90155 33.5369 L 92.72789 33.5369 L 92.55428 33.5369 L 92.38062 33.5369 L 92.20702 33.5369 L 92.03336 33.5369 L 91.85971 33.5369 L 91.68608 33.5369 L 91.51245 33.5369 L 91.33884 33.5369 L 91.16518 33.5369 L 90.99155 33.5369 L 90.81792 33.5369 L 90.64427 33.5369 L 90.47064 33.5369 L 90.29701 33.5369 L 90.12335 33.5369 L 89.94974 33.5369 L 89.7761 33.5369 L 89.60248 33.5369 L 89.42882 33.5369 L 89.25517 33.5369 L 89.08156 33.5369 L 88.90791 33.5369 L 88.73428 33.5369 L 88.56065 33.5369 L 88.387 33.5369 L 88.21338 33.5369 L 88.03975 33.5369 L 87.86612 33.5369 L 87.69247 33.5369 L 87.51883 33.5369 L 87.34521 33.5369 L 87.17155 33.5369 L 86.99794 33.5369 L 86.8243 33.5369 L 86.65065 33.5369 L 86.47702 33.5369 L 86.30338 33.5369 L 86.12976 33.5369 L 85.95612 33.5369 L 85.78246 33.5369 L 85.60884 33.5369 L 85.4352 33.5369 L 85.26158 33.5369 L 85.08792 33.5369 L 84.91429 33.5369 L 84.74068 33.5369 L 84.56702 33.5369 L 84.3934 33.5369 L 84.21976 33.5369 L 84.04611 33.5369 L 83.8725 33.5369 L 83.69885 33.5369 L 83.52522 33.5369 L 83.35158 33.5369 L 83.17793 33.5369 L 83.00432 33.5369 L 82.83066 33.5369 L 82.65704 33.5369 L 82.4834 33.5369 L 82.30975 33.5369 L 82.13612 33.5369 L 81.9625 33.5369 L 81.78886 33.5369 L 81.61522 33.5369 L 81.44157 33.5369 L 81.26796 33.5369 L 81.09431 33.5369 L 80.92068 33.5369 L 80.74706 33.5369 L 80.5734 33.5369 L 80.39978 33.5369 L 80.22614 33.5369 L 80.05252 33.5369 L 79.87886 33.5369 L 79.70522 33.5369 L 79.53159 33.5369 L 79.35796 33.5369 L 79.18433 33.5369 L 79.01068 33.5369 L 78.83704 33.5369 L 78.66342 33.5369 L 78.48978 33.5369 L 78.31616 33.5369 L 78.1425 33.5369 L 77.96887 33.5369 L 77.79526 33.5369 L 77.6216 33.5369 L 77.44798 33.5369 L 77.27432 33.5369 L 77.1007 33.5369 L 76.92706 33.5369 L 76.75342 33.5369 L 76.57979 33.5369 L 76.40616 33.5369 L 76.2325 33.5369 L 76.05888 33.5369 L 75.88524 33.5369 L 75.71162 33.5369 L 75.53796 33.5369 L 75.36433 33.5369 L 75.1907 33.5369 L 75.01706 33.5369 L 74.84343 33.5369 L 74.6698 33.5369 L 74.49615 33.5369 L 74.32253 33.5369 L 74.1489 33.5369 L 73.97527 33.5369 L 73.80162 33.5369 L 73.62798 33.5369 L 73.45436 33.5369 L 73.2807 33.5369 L 73.10709 33.5369 L 72.93344 33.5369 L 72.7598 33.5369 L 72.58617 33.5369 L 72.41254 33.5369 L 72.2389 33.5369 L 72.06526 33.5369 L 71.8916 33.5369 L 71.718 33.5369 L 71.54434 33.5369 L 71.37073 33.5369 L 71.19708 33.5369 L 71.02344 33.5369 L 70.84982 33.5369 L 70.67616 33.5369 L 70.50255 33.5369 L 70.3289 33.5369 L 70.15526 33.5369 L 69.98163 33.5369 L 69.808 33.5369 L 69.63437 33.5369 L 69.46072 33.5369 L 69.28708 33.5369 L 69.11346 33.5369 L 68.9398 33.5369 L 68.7662 33.5369 L 68.59254 33.5369 L 68.4189 33.5369 L 68.24527 33.5369 L 68.07164 33.5369 L 67.89801 33.5369 L 67.72437 33.5369 L 67.55074 33.5369 L 67.3771 33.5369 L 67.20346 33.5369 L 67.02983 33.5369 L 66.8562 33.5369 L 66.68254 33.5369 L 66.50893 33.5369 L 66.33528 33.5369 L 66.16167 33.5369 L 65.988 33.5369 L 65.81438 33.5369 L 65.64075 33.5369 L 65.4671 33.5369 L 65.29347 33.5369 L 65.11984 33.5369 L 64.94618 33.5369 L 64.77257 33.5369 L 64.5989 33.5369 L 64.42531 33.5369 L 64.25166 33.5369 L 64.07802 33.5369 L 63.9044 33.5369 L 63.73074 33.5369 L 63.55713 33.5369 L 63.38348 33.5369 L 63.20984 33.5369 L 63.03621 33.5369 L 62.86256 33.5369 L 62.68895 33.5369 L 62.5153 33.5369 L 62.34164 33.5369 L 62.16803 33.5369 L 61.99438 33.5369 L 61.82077 33.5369 L 61.64711 33.5369 L 61.47348 33.5369 L 61.29985 33.5369 L 61.1262 33.5369 L 60.95258 33.5369 L 60.77895 33.5369 L 60.6053 33.5369 L 60.43167 33.5369 L 60.25804 33.5369 L 60.08441 33.5369 L 59.91077 33.5369 L 59.73712 33.5369 L 59.5635 33.5369 L 59.38985 33.5369 L 59.21623 33.5369 L 59.04259 33.5369 L 58.86894 33.5369 L 58.69531 33.5369 L 58.52168 33.5369 L 58.34805 33.5369 L 58.17441 33.5369 L 58.00076 33.5369 L 57.82715 33.5369 L 57.65349 33.5369 L 57.47987 33.5369 L 57.30624 33.5369 L 57.13258 33.5369 L 56.95897 33.5369 L 56.78532 33.5369 L 56.61171 33.5369 L 56.43805 33.5369 L 56.2644 33.5369 L 56.09077 33.5369 L 55.91714 33.5369 L 55.74352 33.5369 L 55.56987 33.5369 L 55.39622 33.5369 L 55.22261 33.5369 L 55.04895 33.5369 L 54.87535 33.5369 L 54.70169 33.5369 L 54.52805 33.5369 L 54.35443 33.5369 L 54.18079 33.5369 L 54.00717 33.5369 L 53.83351 33.5369 L 53.65988 33.5369 L 53.48625 33.5369 L 53.3126 33.5369 L 53.13898 33.5369 L 52.96535 33.5369 L 52.79169 33.5369 L 52.61807 33.5369 L 52.44443 33.5369 L 52.27081 33.5369 L 52.09715 33.5369 L 51.92352 33.5369 L 51.7499 33.5369 L 51.57625 33.5369 L 51.40262 33.5369 L 51.22899 33.5369 L 51.05533 33.5369 L 50.88171 33.5369 L 50.70807 33.5369 L 50.53445 33.5369 L 50.36081 33.5369 L 50.18715 33.5369 L 50.01355 33.5369 L 49.83989 33.5369 L 49.66628 33.5369 L 49.49263 33.5369 L 49.31898 33.5369 L 49.14536 33.5369 L 48.97173 33.5369 L 48.7981 33.5369 L 48.62445 33.5369 L 48.4508 33.5369 L 48.27719 33.5369 L 48.10353 33.5369 L 47.92992 33.5369 L 47.75627 33.5369 L 47.58263 33.5369 L 47.409 33.5369 L 47.23535 33.5369 L 47.06174 33.5369 L 46.88809 33.5369 L 46.71445 33.5369 L 46.54082 33.5369 L 46.36719 33.5369 L 46.19356 33.5369 L 46.01991 33.5369 L 45.84627 33.5369 L 45.67265 33.5369 L 45.499 33.5369 L 45.3254 33.5369 L 45.15173 33.5369 L 44.97809 33.5369 L 44.80446 33.5369 L 44.63083 33.5369 L 44.4572 33.5369 L 44.28355 33.5369 L 44.10991 33.5369 L 43.9363 33.5369 L 43.76265 33.5369 L 43.58902 33.5369 L 43.41539 33.5369 L 43.24173 33.5369 L 43.06812 33.5369 L 42.89447 33.5369 L 42.72086 33.5369 L 42.5472 33.5369 L 42.37357 33.5369 L 42.19994 33.5369 L 42.02629 33.5369 L 41.85266 33.5369 L 41.67903 33.5369 L 41.50537 33.5369 L 41.33176 33.5369 L 41.1581 33.5369 L 40.9845 33.5369 L 40.81084 33.5369 L 40.63719 33.5369 L 40.46358 33.5369 L 40.28993 33.5369 L 40.11632 33.5369 L 39.94267 33.5369 L 39.76903 33.5369 L 39.5954 33.5369 L 39.42177 33.5369 L 39.24814 33.5369 L 39.0745 33.5369 L 38.90083 33.5369 L 38.72722 33.5369 L 38.55357 33.5369 L 38.37996 33.5369 L 38.2063 33.5369 L 38.03267 33.5369 L 37.85904 33.5369 L 37.6854 33.5369 L 37.51176 33.5369 L 37.33813 33.5369 L 37.16447 33.5369 L 36.99086 33.5369 L 36.81723 33.5369 L 36.6436 33.5369 L 36.46996 33.5369 L 36.29631 33.5369 L 36.1227 33.5369 L 35.94904 33.5369 L 35.77542 33.5369 L 35.60178 33.5369 L 35.42813 33.5369 L 35.2545 33.5369 L 35.08087 33.5369 L 34.90724 33.5369 L 34.7336 33.5369 L 34.55995 33.5369 L 34.38634 33.5369 L 34.21268 33.5369 L 34.03906 33.5369 L 33.86542 33.5369 L 33.69177 33.5369 L 33.51816 33.5369 L 33.34451 33.5369 L 33.1709 33.5369 L 32.99724 33.5369 L 32.8236 33.5369 L 32.64996 33.5369 L 32.47633 33.5369 L 32.3027 33.5369 L 32.12906 33.5369 L 31.95541 33.5369 L 31.7818 33.5369 L 31.60814 33.5369 L 31.43454 33.5369 L 31.26088 33.5369 L 31.08723 33.5369 L 30.91362 33.5369 L 30.73997 33.5369 L 30.56635 33.5369 L 30.39272 33.5369 L 30.21906 33.5369 L 30.04544 33.5369 L 29.8718 33.5369 L 29.69817 33.5369 L 29.52454 33.5369 L 29.35088 33.5369 L 29.17726 33.5369 L 29.00362 33.5369 L 28.83 33.5369 L 28.65634 33.5369 L 28.48271 33.5369 L 28.30908 33.5369 L 28.13544 33.5369 L 27.9618 33.5369 L 27.78818 33.5369 L 27.75348 33.5369 Z " fill="#0000ff" fill-opacity=".2"/>
</g>
<clipPath id="cp1">
<path transform="matrix(2.7777777,0,0,-2.7777777,10.330556,484.6166)" d="M 0 0 L 194.27654 0 L 194.27654 161.39736 L 0 161.39736 Z "/>
</clipPath>
<g clip-path="url(#cp1)">
<path transform="matrix(2.7777777,0,0,-2.7777777,10.330556,484.6166)" d="M 62.4459 2.09589 L 62.5153 2.07486 L 62.68895 2.02383 L 62.86256 1.97438 L 63.03621 1.92654 L 63.20984 1.88028 L 63.38348 1.83565 L 63.55713 1.79259 L 63.73074 1.75122 L 63.9044 1.71143 L 64.07802 1.67332 L 64.25166 1.63686 L 64.42531 1.60204 L 64.5989 1.56888 L 64.77257 1.53741 L 64.94618 1.5076 L 65.11984 1.47949 L 65.29347 1.4531 L 65.4671 1.42839 L 65.64075 1.40538 L 65.81438 1.38411 L 65.988 1.36456 L 66.16167 1.34674 L 66.33528 1.33069 L 66.50893 1.31638 L 66.68254 1.3038 L 66.8562 1.29303 L 67.02983 1.284 L 67.20346 1.2768 L 67.3771 1.27135 L 67.55074 1.26772 L 67.64978 1.26666 L 67.64978 33.5369 L 67.3771 33.5369 L 67.20346 33.5369 L 67.02983 33.5369 L 66.8562 33.5369 L 66.68254 33.5369 L 66.50893 33.5369 L 66.33528 33.5369 L 66.16167 33.5369 L 65.988 33.5369 L 65.81438 33.5369 L 65.64075 33.5369 L 65.4671 33.5369 L 65.29347 33.5369 L 65.11984 33.5369 L 64.94618 33.5369 L 64.77257 33.5369 L 64.5989 33.5369 L 64.42531 33.5369 L 64.25166 33.5369 L 64.07802 33.5369 L 63.9044 33.5369 L 63.73074 33.5369 L 63.55713 33.5369 L 63.38348 33.5369 L 63.20984 33.5369 L 63.03621 33.5369 L 62.86256 33.5369 L 62.68895 33.5369 L 62.5153 33.5369 L 62.4459 33.5369 Z " fill="#929292"/>
</g>
<clipPath id="cp2">
<path transform="matrix(2.7777777,0,0,-2.7777777,10.330556,484.6166)" d="M 0 0 L 194.27654 0 L 194.27654 161.39736 L 0 161.39736 Z "/>
</clipPath>
<g clip-path="url(#cp2)">
<path transform="matrix(2.7777777,0,0,-2.7777777,10.330556,484.6166)" stroke-width=".3985" stroke-linecap="butt" stroke-miterlimit="10" stroke-linejoin="miter" fill="none" stroke="#000000" d="M -6.93893 64.97809 L -6.76532 64.92485 L -6.59167 64.87004 L -6.41805 64.81366 L -6.2444 64.75574 L -6.07077 64.69629 L -5.89713 64.63528 L -5.7235 64.57275 L -5.54985 64.50873 L -5.37624 64.44316 L -5.20259 64.3761 L -5.02896 64.30753 L -4.85532 64.23747 L -4.68169 64.16594 L -4.50804 64.09296 L -4.33441 64.0185 L -4.16077 63.94255 L -3.98714 63.86519 L -3.8135 63.78638 L -3.63986 63.70613 L -3.46623 63.62447 L -3.29259 63.54137 L -3.11897 63.45686 L -2.94533 63.37097 L -2.7717 63.28369 L -2.59805 63.195 L -2.42442 63.10493 L -2.25078 63.01352 L -2.07715 62.9207 L -1.9035 62.82658 L -1.72987 62.73108 L -1.55624 62.63426 L -1.38261 62.5361 L -1.20897 62.43661 L -1.03534 62.33582 L -.8617 62.2337 L -.68806 62.1303 L -.51443 62.0256 L -.34079 61.91962 L -.16716 61.81235 L .00647 61.70383 L .1801 61.59404 L .35374 61.48302 L .52737 61.37074 L .701 61.25722 L .87463 61.14247 L 1.04828 61.0265 L 1.22191 60.90933 L 1.39555 60.79094 L 1.56918 60.67136 L 1.74283 60.5506 L 1.91646 60.42865 L 2.0901 60.30553 L 2.26373 60.18123 L 2.43738 60.05579 L 2.611 59.9292 L 2.78464 59.80145 L 2.95827 59.6726 L 3.1319 59.5426 L 3.30554 59.41148 L 3.47917 59.27927 L 3.65282 59.14594 L 3.82645 59.01152 L 4.00009 58.876 L 4.17372 58.73944 L 4.34737 58.60176 L 4.52098 58.46306 L 4.69463 58.32329 L 4.86826 58.18246 L 5.0419 58.0406 L 5.21553 57.89772 L 5.38918 57.75381 L 5.5628 57.60887 L 5.73645 57.46292 L 5.91008 57.316 L 6.08372 57.16808 L 6.25735 57.01917 L 6.43098 56.86928 L 6.60463 56.71841 L 6.77824 56.5666 L 6.95189 56.41383 L 7.12552 56.26013 L 7.29916 56.10547 L 7.4728 55.9499 L 7.64644 55.79338 L 7.82007 55.63599 L 7.99371 55.47765 L 8.16734 55.31844 L 8.34097 55.15836 L 8.5146 54.99736 L 8.68825 54.8355 L 8.86188 54.67276 L 9.03552 54.5092 L 9.20915 54.34477 L 9.3828 54.17947 L 9.55643 54.01337 L 9.73006 53.84645 L 9.9037 53.6787 L 10.07733 53.51012 L 10.25098 53.34076 L 10.4246 53.1706 L 10.59825 52.99965 L 10.77187 52.82793 L 10.94553 52.65543 L 11.11914 52.48216 L 11.29279 52.30815 L 11.46643 52.13336 L 11.64006 51.95789 L 11.81369 51.78165 L 11.98732 51.60472 L 12.16095 51.427 L 12.33461 51.24863 L 12.50822 51.06956 L 12.68188 50.88977 L 12.85548 50.70934 L 13.02914 50.5282 L 13.20279 50.34636 L 13.3764 50.16393 L 13.55005 49.9808 L 13.72366 49.79706 L 13.89732 49.61266 L 14.07095 49.4276 L 14.24458 49.24197 L 14.41823 49.0557 L 14.59186 48.86885 L 14.76549 48.68137 L 14.93915 48.4933 L 15.11276 48.30467 L 15.2864 48.11545 L 15.46002 47.9257 L 15.63368 47.73535 L 15.80731 47.54445 L 15.98094 47.35303 L 16.15459 47.16107 L 16.32822 46.96858 L 16.50185 46.77557 L 16.67549 46.58205 L 16.84912 46.38805 L 17.02277 46.19351 L 17.19638 45.9985 L 17.37003 45.80302 L 17.54367 45.60707 L 17.71729 45.41066 L 17.89095 45.21378 L 18.06456 45.01646 L 18.2382 44.8187 L 18.41185 44.62047 L 18.58548 44.42188 L 18.75911 44.22284 L 18.93274 44.02342 L 19.10638 43.82356 L 19.28004 43.62332 L 19.45366 43.42271 L 19.6273 43.2217 L 19.80092 43.02036 L 19.97456 42.8186 L 20.14821 42.61652 L 20.32182 42.41411 L 20.49548 42.21132 L 20.6691 42.00824 L 20.84274 41.80484 L 21.01639 41.6011 L 21.19002 41.39708 L 21.36365 41.19273 L 21.53728 40.98811 L 21.71092 40.78319 L 21.88457 40.57802 L 22.05818 40.37259 L 22.23184 40.16687 L 22.40546 39.96094 L 22.5791 39.75473 L 22.75275 39.54828 L 22.92638 39.34163 L 23.1 39.13475 L 23.27364 38.92767 L 23.44728 38.72035 L 23.62091 38.51285 L 23.79454 38.30519 L 23.96819 38.09734 L 24.14182 37.88933 L 24.31544 37.68112 L 24.4891 37.47276 L 24.66272 37.26428 L 24.83636 37.05563 L 25.00998 36.84686 L 25.18364 36.63797 L 25.35728 36.42896 L 25.5309 36.21985 L 25.70454 36.01062 L 25.87817 35.80132 L 26.05182 35.5919 L 26.22546 35.38242 L 26.39908 35.1729 L 26.57272 34.96329 L 26.74634 34.75363 L 26.91998 34.5439 L 27.09363 34.33417 L 27.26724 34.12439 L 27.4409 33.91458 L 27.61452 33.7048 L 27.78818 33.49496 L 27.9618 33.28514 L 28.13544 33.07535 L 28.30908 32.86554 L 28.48271 32.6558 L 28.65634 32.44606 L 28.83 32.23634 L 29.00362 32.02673 L 29.17726 31.81714 L 29.35088 31.60764 L 29.52454 31.39818 L 29.69817 31.18881 L 29.8718 30.97954 L 30.04544 30.77034 L 30.21906 30.5613 L 30.39272 30.35231 L 30.56635 30.14346 L 30.73997 29.93477 L 30.91362 29.72617 L 31.08723 29.51775 L 31.26088 29.30945 L 31.43454 29.1013 L 31.60814 28.89336 L 31.7818 28.68556 L 31.95541 28.47798 L 32.12906 28.27057 L 32.3027 28.06331 L 32.47633 27.85634 L 32.64996 27.64954 L 32.8236 27.44298 L 32.99724 27.23663 L 33.1709 27.0305 L 33.34451 26.82468 L 33.51816 26.61906 L 33.69177 26.41373 L 33.86542 26.20866 L 34.03906 26.00385 L 34.21268 25.79936 L 34.38634 25.59514 L 34.55995 25.39124 L 34.7336 25.18762 L 34.90724 24.98433 L 35.08087 24.78139 L 35.2545 24.57874 L 35.42813 24.37646 L 35.60178 24.17451 L 35.77542 23.97292 L 35.94904 23.77171 L 36.1227 23.57086 L 36.29631 23.37039 L 36.46996 23.1703 L 36.6436 22.97063 L 36.81723 22.77136 L 36.99086 22.57246 L 37.16447 22.37404 L 37.33813 22.176 L 37.51176 21.97841 L 37.6854 21.78128 L 37.85904 21.58456 L 38.03267 21.38835 L 38.2063 21.19258 L 38.37996 20.99727 L 38.55357 20.80247 L 38.72722 20.60814 L 38.90083 20.41434 L 39.0745 20.22101 L 39.24814 20.0282 L 39.42177 19.83592 L 39.5954 19.64417 L 39.76903 19.45297 L 39.94267 19.26231 L 40.11632 19.07217 L 40.28993 18.88264 L 40.46358 18.69365 L 40.63719 18.50525 L 40.81084 18.31743 L 40.9845 18.13017 L 41.1581 17.94357 L 41.33176 17.75755 L 41.50537 17.57216 L 41.67903 17.38737 L 41.85266 17.20322 L 42.02629 17.01973 L 42.19994 16.83687 L 42.37357 16.65468 L 42.5472 16.47313 L 42.72086 16.29225 L 42.89447 16.11208 L 43.06812 15.93257 L 43.24173 15.75378 L 43.41539 15.57568 L 43.58902 15.39827 L 43.76265 15.22163 L 43.9363 15.04567 L 44.10991 14.87048 L 44.28355 14.696 L 44.4572 14.52228 L 44.63083 14.34933 L 44.80446 14.17712 L 44.97809 14.00572 L 45.15173 13.83508 L 45.3254 13.66524 L 45.499 13.4962 L 45.67265 13.32794 L 45.84627 13.16052 L 46.01991 12.99391 L 46.19356 12.82813 L 46.36719 12.66322 L 46.54082 12.4991 L 46.71445 12.33588 L 46.88809 12.1735 L 47.06174 12.012 L 47.23535 11.85136 L 47.409 11.69159 L 47.58263 11.53276 L 47.75627 11.3748 L 47.92992 11.21773 L 48.10353 11.0616 L 48.27719 10.90639 L 48.4508 10.75214 L 48.62445 10.59879 L 48.7981 10.44638 L 48.97173 10.29495 L 49.14536 10.1445 L 49.31898 9.99501 L 49.49263 9.84647 L 49.66628 9.69893 L 49.83989 9.55241 L 50.01355 9.40688 L 50.18715 9.26236 L 50.36081 9.11884 L 50.53445 8.97635 L 50.70807 8.83492 L 50.88171 8.69452 L 51.05533 8.55516 L 51.22899 8.41687 L 51.40262 8.27963 L 51.57625 8.14348 L 51.7499 8.0084 L 51.92352 7.87444 L 52.09715 7.74155 L 52.27081 7.60974 L 52.44443 7.4791 L 52.61807 7.34955 L 52.79169 7.22115 L 52.96535 7.09384 L 53.13898 6.9677 L 53.3126 6.84273 L 53.48625 6.7189 L 53.65988 6.59627 L 53.83351 6.47478 L 54.00717 6.35446 L 54.18079 6.23537 L 54.35443 6.11746 L 54.52805 6.0008 L 54.70169 5.8853 L 54.87535 5.77103 L 55.04895 5.65802 L 55.22261 5.54623 L 55.39622 5.43571 L 55.56987 5.32643 L 55.74352 5.2184 L 55.91714 5.11166 L 56.09077 5.0062 L 56.2644 4.90201 L 56.43805 4.79912 L 56.61171 4.69753 L 56.78532 4.59726 L 56.95897 4.49829 L 57.13258 4.40068 L 57.30624 4.30437 L 57.47987 4.20943 L 57.65349 4.11581 L 57.82715 4.02356 L 58.00076 3.9327 L 58.17441 3.84317 L 58.34805 3.75505 L 58.52168 3.6683 L 58.69531 3.58298 L 58.86894 3.49904 L 59.04259 3.41652 L 59.21623 3.3354 L 59.38985 3.25572 L 59.5635 3.17749 L 59.73712 3.10071 L 59.91077 3.02536 L 60.08441 2.95148 L 60.25804 2.87906 L 60.43167 2.80812 L 60.6053 2.7387 L 60.77895 2.67072 L 60.95258 2.60425 L 61.1262 2.5393 L 61.29985 2.47585 L 61.47348 2.41394 L 61.64711 2.35355 L 61.82077 2.2947 L 61.99438 2.23741 L 62.16803 2.18166 L 62.34164 2.12747 L 62.5153 2.07486 L 62.68895 2.02383 L 62.86256 1.97438 L 63.03621 1.92654 L 63.20984 1.88028 L 63.38348 1.83565 L 63.55713 1.79259 L 63.73074 1.75122 L 63.9044 1.71143 L 64.07802 1.67332 L 64.25166 1.63686 L 64.42531 1.60204 L 64.5989 1.56888 L 64.77257 1.53741 L 64.94618 1.5076 L 65.11984 1.47949 L 65.29347 1.4531 L 65.4671 1.42839 L 65.64075 1.40538 L 65.81438 1.38411 L 65.988 1.36456 L 66.16167 1.34674 L 66.33528 1.33069 L 66.50893 1.31638 L 66.68254 1.3038 L 66.8562 1.29303 L 67.02983 1.284 L 67.20346 1.2768 L 67.3771 1.27135 L 67.55074 1.26772 L 67.72437 1.26587 L 67.89801 1.26585 L 68.07164 1.26765 L 68.24527 1.27129 L 68.4189 1.27676 L 68.59254 1.28409 L 68.7662 1.29327 L 68.9398 1.30429 L 69.11346 1.31721 L 69.28708 1.33199 L 69.46072 1.34868 L 69.63437 1.36723 L 69.808 1.38771 L 69.98163 1.41006 L 70.15526 1.43437 L 70.3289 1.46059 L 70.50255 1.48875 L 70.67616 1.51884 L 70.84982 1.5509 L 71.02344 1.58487 L 71.19708 1.62086 L 71.37073 1.65878 L 71.54434 1.6987 L 71.718 1.7406 L 71.8916 1.78447 L 72.06526 1.8304 L 72.2389 1.8783 L 72.41254 1.92825 L 72.58617 1.98022 L 72.7598 2.03421 L 72.93344 2.09027 L 73.10709 2.14838 L 73.2807 2.20851 L 73.45436 2.27074 L 73.62798 2.33505 L 73.80162 2.40143 L 73.97527 2.46988 L 74.1489 2.54047 L 74.32253 2.61314 L 74.49615 2.68791 L 74.6698 2.76483 L 74.84343 2.84389 L 75.01706 2.92505 L 75.1907 3.0084 L 75.36433 3.09387 L 75.53796 3.1815 L 75.71162 3.27132 L 75.88524 3.36331 L 76.05888 3.45749 L 76.2325 3.55385 L 76.40616 3.65242 L 76.57979 3.7532 L 76.75342 3.85619 L 76.92706 3.96141 L 77.1007 4.06885 L 77.27432 4.17856 L 77.44798 4.29053 L 77.6216 4.40468 L 77.79526 4.52118 L 77.96887 4.63986 L 78.1425 4.76093 L 78.31616 4.88422 L 78.48978 5.00981 L 78.66342 5.13773 L 78.83704 5.26793 L 79.01068 5.40048 L 79.18433 5.53532 L 79.35796 5.67252 L 79.53159 5.81206 L 79.70522 5.95393 L 79.87886 6.09824 L 80.05252 6.24484 L 80.22614 6.39381 L 80.39978 6.5452 L 80.5734 6.69894 L 80.74706 6.85513 L 80.92068 7.01367 L 81.09431 7.17464 L 81.26796 7.33806 L 81.44157 7.50386 L 81.61522 7.67215 L 81.78886 7.84291 L 81.9625 8.01602 L 82.13612 8.19171 L 82.30975 8.36974 L 82.4834 8.55037 L 82.65704 8.73343 L 82.83066 8.91898 L 83.00432 9.10703 L 83.17793 9.29759 L 83.35158 9.49068 L 83.52522 9.68626 L 83.69885 9.88443 L 83.8725 10.08511 L 84.04611 10.28831 L 84.21976 10.49406 L 84.3934 10.70247 L 84.56702 10.91335 L 84.74068 11.12688 L 84.91429 11.3429 L 85.08792 11.56165 L 85.26158 11.78294 L 85.4352 12.00682 L 85.60884 12.23332 L 85.78246 12.46246 L 85.95612 12.69424 L 86.12976 12.92865 L 86.30338 13.1657 L 86.47702 13.40549 L 86.65065 13.64781 L 86.8243 13.89296 L 86.99794 14.14069 L 87.17155 14.39114 L 87.34521 14.64427 L 87.51883 14.9001 L 87.69247 15.15865 L 87.86612 15.41992 L 88.03975 15.68391 L 88.21338 15.95068 L 88.387 16.22015 L 88.56065 16.49239 L 88.73428 16.76747 L 88.90791 17.04517 L 89.08156 17.32578 L 89.25517 17.60904 L 89.42882 17.89523 L 89.60248 18.18417 L 89.7761 18.47589 L 89.94974 18.7704 L 90.12335 19.0678 L 90.29701 19.368 L 90.47064 19.67105 L 90.64427 19.97693 L 90.81792 20.28566 L 90.99155 20.59729 L 91.16518 20.91185 L 91.33884 21.2292 L 91.51245 21.54945 L 91.68608 21.8726 L 91.85971 22.19862 L 92.03336 22.5276 L 92.20702 22.85948 L 92.38062 23.19427 L 92.55428 23.53197 L 92.72789 23.87267 L 92.90155 24.2163 L 93.07518 24.56297 L 93.24881 24.91241 L 93.42244 25.26505 L 93.59607 25.62044 L 93.76971 25.97906 L 93.94336 26.34053 L 94.11697 26.70506 L 94.29063 27.07254 L 94.46425 27.44308 L 94.6379 27.81662 L 94.81154 28.19322 L 94.98517 28.57286 L 95.15881 28.95557 L 95.33243 29.34132 L 95.50607 29.73015 L 95.67972 30.12213 L 95.85335 30.51701 L 96.02698 30.91522 L 96.2006 31.31627 L 96.37425 31.72069 L 96.5479 32.12807 L 96.72151 32.53859 L 96.89517 32.95222 L 97.06879 33.36903 L 97.24243 33.78899 L 97.41608 34.21207 L 97.5897 34.63832 L 97.76334 35.0679 L 97.93697 35.50035 L 98.11061 35.93628 L 98.28427 36.37527 L 98.45787 36.81746 L 98.63152 37.26285 L 98.80515 37.7115 L 98.97878 38.1633 L 99.15244 38.61841 L 99.32605 39.07672 L 99.4997 39.53828 L 99.67331 40.00311 L 99.84697 40.47122 L 100.0206 40.9427 L 100.19423 41.41722 L 100.36787 41.8953 L 100.5415 42.37653 L 100.71513 42.86105 L 100.8888 43.34892 L 101.06241 43.84012 L 101.23607 44.3346 L 101.40967 44.83243 L 101.58333 45.3336 L 101.75697 45.83813 L 101.93059 46.34605 L 102.10423 46.85733 L 102.27785 47.37195 L 102.4515 47.89014 L 102.62514 48.41153 L 102.79877 48.93634 L 102.9724 49.46454 L 103.14603 49.9962 L 103.31967 50.53123 L 103.49333 51.06976 L 103.66693 51.61166 L 103.84059 52.15703 L 104.0142 52.70584 L 104.18787 53.25815 L 104.3615 53.8139 L 104.53513 54.37317 L 104.70877 54.93605 L 104.8824 55.50208 L 105.05603 56.07199 L 105.22969 56.64522 L 105.4033 57.22198 L 105.57693 57.80225 L 105.75056 58.38606 L 105.92421 58.9734 L 106.09785 59.56432 L 106.27147 60.15875 L 106.44513 60.75679 L 106.61874 61.35837 L 106.79239 61.96356 L 106.96603 62.5725 L 107.13966 63.1847 L 107.31331 63.80084 L 107.48692 64.42018 L 107.66057 65.04358 L 107.83423 65.67041 L 108.00783 66.30087 L 108.18149 66.93497 L 108.3551 67.57271 L 108.52875 68.21416 L 108.7024 68.85924 L 108.876 69.508 L 109.04965 70.16043 L 109.22327 70.81657 L 109.39693 71.47661 L 109.57057 72.14018 L 109.74419 72.80742 L 109.91783 73.47838 L 110.09146 74.1531 L 110.2651 74.83151 L 110.43875 75.51372 L 110.61237 76.19966 L 110.78603 76.8894 L 110.95964 77.58289 L 111.13329 78.2801 L 111.30693 78.98137 L 111.48056 79.686 L 111.65419 80.39484 L 111.82782 81.10727 L 112.00146 81.82355 L 112.1751 82.54364 L 112.34872 83.26758 L 112.52237 83.99532 L 112.69598 84.72694 L 112.86963 85.46242 L 113.04329 86.20175 L 113.2169 86.94495 L 113.39055 87.69206 L 113.56416 88.443 L 113.73782 89.19814 L 113.91145 89.9569 L 114.08508 90.71957 L 114.25873 91.48618 L 114.43236 92.2567 L 114.60599 93.03119 L 114.77965 93.80957 L 114.95326 94.59198 L 115.1269 95.3783 L 115.30052 96.16856 L 115.47418 96.96283 L 115.64783 97.76135 L 115.82143 98.56331 L 115.99509 99.36981 L 116.1687 100.17978 L 116.34236 100.99431 L 116.51599 101.81259 L 116.68962 102.63493 L 116.86327 103.46127 L 117.03688 104.29164 L 117.21053 105.12608 L 117.38419 105.96461 L 117.55779 106.80719 L 117.73145 107.65384 L 117.90506 108.5046 L 118.0787 109.35942 L 118.25235 110.21863 L 118.42598 111.08168 L 118.59962 111.94885 L 118.77324 112.81987 L 118.94688 113.69556 L 119.12053 114.57512 L 119.29416 115.45882 L 119.46779 116.3467 L 119.64142 117.23868 L 119.81506 118.13492 L 119.98871 119.03528 L 120.16232 119.93985 L 120.33598 120.84865 L 120.5096 121.76158 L 120.68324 122.67905 L 120.85689 123.60045 L 121.03052 124.52608 L 121.20415 125.45592 L 121.37778 126.39006 L 121.55142 127.32838 L 121.72507 128.27103 L 121.89868 129.21791 L 122.07234 130.16907 L 122.24596 131.1245 L 122.41959 132.08423 L 122.59325 133.04853 L 122.76686 134.01659 L 122.9405 134.98954 L 123.11412 135.9665 L 123.28778 136.94779 L 123.46141 137.93343 L 123.63504 138.92342 L 123.80869 139.91777 L 123.98232 140.91645 L 124.15594 141.91953 L 124.3296 142.92697 L 124.50322 143.9388 L 124.67688 144.95502 L 124.85048 145.9756 L 125.02414 147.00066 L 125.19778 148.03041 L 125.37141 149.06429 L 125.54504 150.1026 L 125.71867 151.14533 L 125.89232 152.19255 L 126.06595 153.24416 L 126.23958 154.30028 L 126.41322 155.36089 L 126.58684 156.4259 L 126.76048 157.49546 L 126.93414 158.56986 L 127.10774 159.64804 L 127.2814 160.73146 L 127.45502 161.81868 L 127.62868 162.91115 L 127.8023 164.0078 L 127.97594 165.10894 L 128.14958 166.2147 L 128.32321 167.32498 L 128.49684 168.43984 L 128.6705 169.55925 L 128.84412 170.68328 L 129.01776 171.81189 L 129.19138 172.94507 L 129.36502 174.08292 L 129.53867 175.22568 L 129.71228 176.37271 L 129.88594 177.5244 L 130.05956 178.68067 L 130.2332 179.84163 L 130.40685 181.00724 L 130.58048 182.1775 L 130.75412 183.35243 L 130.92774 184.53205 L 131.10138 185.71636 L 131.27504 186.90569 L 131.44864 188.09905 L 131.6223 189.29744 L 131.79592 190.50055 L 131.96956 191.70873 L 132.1432 192.9213 L 132.31684 194.13864 L 132.49047 195.36067 L 132.66408 196.58748 L 132.83774 197.81906 L 133.01139 199.0554 L 133.185 200.29656 L 133.35865 201.54244 L 133.53227 202.79314 L 133.70592 204.04869 L 133.87957 205.30939 L 134.05318 206.5741 L 134.22684 207.84449 L 134.40045 209.1193 L 134.5741 210.39893 L 134.74774 211.68341 L 134.92137 212.97277 L 135.095 214.26699 L 135.26863 215.56604 L 135.44228 216.87003 L 135.61592 218.17888 L 135.78954 219.49262 L 135.9632 220.8113 L 136.1368 222.13489 L 136.31044 223.4634 L 136.4841 224.79724 L 136.65772 226.13559 L 136.83136 227.47888 L 137.00498 228.82717 L 137.17864 230.18039 L 137.35227 231.53859 L 137.5259 232.90198 L 137.69954 234.26996 L 137.87317 235.64279 L 138.0468 237.02098 L 138.22046 238.40464 L 138.39408 239.79247 L 138.56772 241.18589 L 138.74134 242.58402 L 138.915 243.9877 L 139.08863 245.3957 L 139.26226 246.80913 L 139.4359 248.22748 L 139.60951 249.65126 L 139.78318 251.07996 L 139.9568 252.51361 L 140.13043 253.95223 L 140.30408 255.39577 L 140.4777 256.8448 L 140.65134 258.29884 L 140.825 259.75898 L 140.9986 261.2228 L 141.17226 262.6924 L 141.34587 264.16743 L 141.51952 265.6469 L 141.69316 267.13197 L 141.86679 268.62205 L 142.04044 270.11714 L 142.21405 271.61778 L 142.3877 273.1235 L 142.56136 274.63493 L 142.73497 276.15065 L 142.9086 277.67204 L 143.08223 279.19856 L 143.25588 280.7308 L 143.42952 282.268 L 143.60314 283.81034 L 143.7768 285.35777 L 143.95041 286.9103 L 144.12406 288.4685 L 144.2977 290.03187 L 144.47133 291.60087 L 144.64496 293.17448 L 144.81859 294.7538 L 144.99224 296.33827 L 145.1659 297.9291 L 145.3395 299.52384 L 145.51316 301.12504 L 145.68677 302.73078 L 145.86042 304.34226 L 146.03406 305.95845 L 146.20769 307.58088 L 146.38132 309.208 L 146.55493 310.84095 L 146.72859 312.47908 L 146.90222 314.12248 L 147.07585 315.77168 L 147.2495 317.42683 L 147.42313 319.08589 L 147.59676 320.75148 L 147.77042 322.4224 L 147.94403 324.09858 L 148.11769 325.77998 L 148.29129 327.4673 L 148.46495 329.1599 L 148.6386 330.85786 L 148.81223 332.56169 L 148.98586 334.2703 L 149.15949 335.98484 L 149.33313 337.70524 L 149.50678 339.43119 L 149.68039 341.16166 L 149.85404 342.89888 L 150.02765 344.64064 L 150.2013 346.38868 L 150.37496 348.1419 L 150.54856 349.90065 L 150.72222 351.66529 L 150.89583 353.43537 L 151.06949 355.21089 L 151.24312 356.99186 L 151.41675 358.7788 L 151.5904 360.57124 L 151.76403 362.3691 L 151.93766 364.17304 L 152.11132 365.98316 L 152.28493 367.79734 L 152.45858 369.6184 L 152.63219 371.4449 L 152.80585 373.27684 L 152.97948 375.1143 L 153.15309 376.95787 L 153.32675 378.8064 L 153.50037 380.66105 L 153.67401 382.5218 L 153.84766 384.38829 L 154.02129 386.26 L 154.19493 388.1376 L 154.36855 390.02046 L 154.54219 391.9104 L 154.71585 393.80516 L 154.88947 395.70555 L 155.06311 397.61213 L 155.23673 399.5243 L 155.41037 401.4421 L 155.58402 403.36613 L 155.75765 405.2952 L 155.93128 407.2305 L 156.1049 409.17204 L 156.27855 411.11869 L 156.4522 413.0723 L 156.62581 415.03074 L 156.79946 416.99568 L 156.97309 418.96546 L 157.14673 420.94245 L 157.32038 422.92436 L 157.49399 424.91258 L 157.66765 426.90657 L 157.84127 428.90623 L 158.01491 430.91169 L 158.18856 432.92344 L 158.36219 434.94096 L 158.53582 436.965 L 158.70944 438.99388 L 158.88309 441.0293 L 159.05673 443.07127 L 159.23035 445.1183 L 159.404 447.1717 L 159.5776 449.2309 L 159.75127 451.29594 L 159.92491 453.36735 L 160.09853 455.44465 L 160.27217 457.52778 L 160.44579 459.6167 L 160.61945 461.71214 L 160.79308 463.8142 L 160.9667 465.92057 L 161.14035 468.03498 L 161.31398 470.1537 L 161.48761 472.2799 L 161.66127 474.41123 L 161.83489 476.54905 L 162.00853 478.69279 L 162.18215 480.84245 L 162.3558 482.99864 L 162.52945 485.1608 L 162.70307 487.3289 L 162.87671 489.5029 L 163.05034 491.68354 L 163.22399 493.8703 L 163.39762 496.06349 L 163.57125 498.26185 L 163.74489 500.4672 L 163.91852 502.67835 L 164.09215 504.89613 L 164.26581 507.1193 L 164.43943 509.34913 L 164.61307 511.58497 L 164.78668 513.82748 L 164.96033 516.07608 L 165.13397 518.3314 L 165.3076 520.5913 L 165.48125 522.8595 L 165.65486 525.1321 L 165.8285 527.4124 L 166.00217 529.69808 L 166.17578 531.9904 L 166.34943 534.2888 L 166.52304 536.59408 "/>
<path transform="matrix(2.7777777,0,0,-2.7777777,10.330556,484.6166)" stroke-width=".3985" stroke-linecap="butt" stroke-miterlimit="10" stroke-linejoin="miter" fill="none" stroke="#000000" d="M -6.93893 33.5369 L -6.76532 33.5369 L -6.59167 33.5369 L -6.41805 33.5369 L -6.2444 33.5369 L -6.07077 33.5369 L -5.89713 33.5369 L -5.7235 33.5369 L -5.54985 33.5369 L -5.37624 33.5369 L -5.20259 33.5369 L -5.02896 33.5369 L -4.85532 33.5369 L -4.68169 33.5369 L -4.50804 33.5369 L -4.33441 33.5369 L -4.16077 33.5369 L -3.98714 33.5369 L -3.8135 33.5369 L -3.63986 33.5369 L -3.46623 33.5369 L -3.29259 33.5369 L -3.11897 33.5369 L -2.94533 33.5369 L -2.7717 33.5369 L -2.59805 33.5369 L -2.42442 33.5369 L -2.25078 33.5369 L -2.07715 33.5369 L -1.9035 33.5369 L -1.72987 33.5369 L -1.55624 33.5369 L -1.38261 33.5369 L -1.20897 33.5369 L -1.03534 33.5369 L -.8617 33.5369 L -.68806 33.5369 L -.51443 33.5369 L -.34079 33.5369 L -.16716 33.5369 L .00647 33.5369 L .1801 33.5369 L .35374 33.5369 L .52737 33.5369 L .701 33.5369 L .87463 33.5369 L 1.04828 33.5369 L 1.22191 33.5369 L 1.39555 33.5369 L 1.56918 33.5369 L 1.74283 33.5369 L 1.91646 33.5369 L 2.0901 33.5369 L 2.26373 33.5369 L 2.43738 33.5369 L 2.611 33.5369 L 2.78464 33.5369 L 2.95827 33.5369 L 3.1319 33.5369 L 3.30554 33.5369 L 3.47917 33.5369 L 3.65282 33.5369 L 3.82645 33.5369 L 4.00009 33.5369 L 4.17372 33.5369 L 4.34737 33.5369 L 4.52098 33.5369 L 4.69463 33.5369 L 4.86826 33.5369 L 5.0419 33.5369 L 5.21553 33.5369 L 5.38918 33.5369 L 5.5628 33.5369 L 5.73645 33.5369 L 5.91008 33.5369 L 6.08372 33.5369 L 6.25735 33.5369 L 6.43098 33.5369 L 6.60463 33.5369 L 6.77824 33.5369 L 6.95189 33.5369 L 7.12552 33.5369 L 7.29916 33.5369 L 7.4728 33.5369 L 7.64644 33.5369 L 7.82007 33.5369 L 7.99371 33.5369 L 8.16734 33.5369 L 8.34097 33.5369 L 8.5146 33.5369 L 8.68825 33.5369 L 8.86188 33.5369 L 9.03552 33.5369 L 9.20915 33.5369 L 9.3828 33.5369 L 9.55643 33.5369 L 9.73006 33.5369 L 9.9037 33.5369 L 10.07733 33.5369 L 10.25098 33.5369 L 10.4246 33.5369 L 10.59825 33.5369 L 10.77187 33.5369 L 10.94553 33.5369 L 11.11914 33.5369 L 11.29279 33.5369 L 11.46643 33.5369 L 11.64006 33.5369 L 11.81369 33.5369 L 11.98732 33.5369 L 12.16095 33.5369 L 12.33461 33.5369 L 12.50822 33.5369 L 12.68188 33.5369 L 12.85548 33.5369 L 13.02914 33.5369 L 13.20279 33.5369 L 13.3764 33.5369 L 13.55005 33.5369 L 13.72366 33.5369 L 13.89732 33.5369 L 14.07095 33.5369 L 14.24458 33.5369 L 14.41823 33.5369 L 14.59186 33.5369 L 14.76549 33.5369 L 14.93915 33.5369 L 15.11276 33.5369 L 15.2864 33.5369 L 15.46002 33.5369 L 15.63368 33.5369 L 15.80731 33.5369 L 15.98094 33.5369 L 16.15459 33.5369 L 16.32822 33.5369 L 16.50185 33.5369 L 16.67549 33.5369 L 16.84912 33.5369 L 17.02277 33.5369 L 17.19638 33.5369 L 17.37003 33.5369 L 17.54367 33.5369 L 17.71729 33.5369 L 17.89095 33.5369 L 18.06456 33.5369 L 18.2382 33.5369 L 18.41185 33.5369 L 18.58548 33.5369 L 18.75911 33.5369 L 18.93274 33.5369 L 19.10638 33.5369 L 19.28004 33.5369 L 19.45366 33.5369 L 19.6273 33.5369 L 19.80092 33.5369 L 19.97456 33.5369 L 20.14821 33.5369 L 20.32182 33.5369 L 20.49548 33.5369 L 20.6691 33.5369 L 20.84274 33.5369 L 21.01639 33.5369 L 21.19002 33.5369 L 21.36365 33.5369 L 21.53728 33.5369 L 21.71092 33.5369 L 21.88457 33.5369 L 22.05818 33.5369 L 22.23184 33.5369 L 22.40546 33.5369 L 22.5791 33.5369 L 22.75275 33.5369 L 22.92638 33.5369 L 23.1 33.5369 L 23.27364 33.5369 L 23.44728 33.5369 L 23.62091 33.5369 L 23.79454 33.5369 L 23.96819 33.5369 L 24.14182 33.5369 L 24.31544 33.5369 L 24.4891 33.5369 L 24.66272 33.5369 L 24.83636 33.5369 L 25.00998 33.5369 L 25.18364 33.5369 L 25.35728 33.5369 L 25.5309 33.5369 L 25.70454 33.5369 L 25.87817 33.5369 L 26.05182 33.5369 L 26.22546 33.5369 L 26.39908 33.5369 L 26.57272 33.5369 L 26.74634 33.5369 L 26.91998 33.5369 L 27.09363 33.5369 L 27.26724 33.5369 L 27.4409 33.5369 L 27.61452 33.5369 L 27.78818 33.5369 L 27.9618 33.5369 L 28.13544 33.5369 L 28.30908 33.5369 L 28.48271 33.5369 L 28.65634 33.5369 L 28.83 33.5369 L 29.00362 33.5369 L 29.17726 33.5369 L 29.35088 33.5369 L 29.52454 33.5369 L 29.69817 33.5369 L 29.8718 33.5369 L 30.04544 33.5369 L 30.21906 33.5369 L 30.39272 33.5369 L 30.56635 33.5369 L 30.73997 33.5369 L 30.91362 33.5369 L 31.08723 33.5369 L 31.26088 33.5369 L 31.43454 33.5369 L 31.60814 33.5369 L 31.7818 33.5369 L 31.95541 33.5369 L 32.12906 33.5369 L 32.3027 33.5369 L 32.47633 33.5369 L 32.64996 33.5369 L 32.8236 33.5369 L 32.99724 33.5369 L 33.1709 33.5369 L 33.34451 33.5369 L 33.51816 33.5369 L 33.69177 33.5369 L 33.86542 33.5369 L 34.03906 33.5369 L 34.21268 33.5369 L 34.38634 33.5369 L 34.55995 33.5369 L 34.7336 33.5369 L 34.90724 33.5369 L 35.08087 33.5369 L 35.2545 33.5369 L 35.42813 33.5369 L 35.60178 33.5369 L 35.77542 33.5369 L 35.94904 33.5369 L 36.1227 33.5369 L 36.29631 33.5369 L 36.46996 33.5369 L 36.6436 33.5369 L 36.81723 33.5369 L 36.99086 33.5369 L 37.16447 33.5369 L 37.33813 33.5369 L 37.51176 33.5369 L 37.6854 33.5369 L 37.85904 33.5369 L 38.03267 33.5369 L 38.2063 33.5369 L 38.37996 33.5369 L 38.55357 33.5369 L 38.72722 33.5369 L 38.90083 33.5369 L 39.0745 33.5369 L 39.24814 33.5369 L 39.42177 33.5369 L 39.5954 33.5369 L 39.76903 33.5369 L 39.94267 33.5369 L 40.11632 33.5369 L 40.28993 33.5369 L 40.46358 33.5369 L 40.63719 33.5369 L 40.81084 33.5369 L 40.9845 33.5369 L 41.1581 33.5369 L 41.33176 33.5369 L 41.50537 33.5369 L 41.67903 33.5369 L 41.85266 33.5369 L 42.02629 33.5369 L 42.19994 33.5369 L 42.37357 33.5369 L 42.5472 33.5369 L 42.72086 33.5369 L 42.89447 33.5369 L 43.06812 33.5369 L 43.24173 33.5369 L 43.41539 33.5369 L 43.58902 33.5369 L 43.76265 33.5369 L 43.9363 33.5369 L 44.10991 33.5369 L 44.28355 33.5369 L 44.4572 33.5369 L 44.63083 33.5369 L 44.80446 33.5369 L 44.97809 33.5369 L 45.15173 33.5369 L 45.3254 33.5369 L 45.499 33.5369 L 45.67265 33.5369 L 45.84627 33.5369 L 46.01991 33.5369 L 46.19356 33.5369 L 46.36719 33.5369 L 46.54082 33.5369 L 46.71445 33.5369 L 46.88809 33.5369 L 47.06174 33.5369 L 47.23535 33.5369 L 47.409 33.5369 L 47.58263 33.5369 L 47.75627 33.5369 L 47.92992 33.5369 L 48.10353 33.5369 L 48.27719 33.5369 L 48.4508 33.5369 L 48.62445 33.5369 L 48.7981 33.5369 L 48.97173 33.5369 L 49.14536 33.5369 L 49.31898 33.5369 L 49.49263 33.5369 L 49.66628 33.5369 L 49.83989 33.5369 L 50.01355 33.5369 L 50.18715 33.5369 L 50.36081 33.5369 L 50.53445 33.5369 L 50.70807 33.5369 L 50.88171 33.5369 L 51.05533 33.5369 L 51.22899 33.5369 L 51.40262 33.5369 L 51.57625 33.5369 L 51.7499 33.5369 L 51.92352 33.5369 L 52.09715 33.5369 L 52.27081 33.5369 L 52.44443 33.5369 L 52.61807 33.5369 L 52.79169 33.5369 L 52.96535 33.5369 L 53.13898 33.5369 L 53.3126 33.5369 L 53.48625 33.5369 L 53.65988 33.5369 L 53.83351 33.5369 L 54.00717 33.5369 L 54.18079 33.5369 L 54.35443 33.5369 L 54.52805 33.5369 L 54.70169 33.5369 L 54.87535 33.5369 L 55.04895 33.5369 L 55.22261 33.5369 L 55.39622 33.5369 L 55.56987 33.5369 L 55.74352 33.5369 L 55.91714 33.5369 L 56.09077 33.5369 L 56.2644 33.5369 L 56.43805 33.5369 L 56.61171 33.5369 L 56.78532 33.5369 L 56.95897 33.5369 L 57.13258 33.5369 L 57.30624 33.5369 L 57.47987 33.5369 L 57.65349 33.5369 L 57.82715 33.5369 L 58.00076 33.5369 L 58.17441 33.5369 L 58.34805 33.5369 L 58.52168 33.5369 L 58.69531 33.5369 L 58.86894 33.5369 L 59.04259 33.5369 L 59.21623 33.5369 L 59.38985 33.5369 L 59.5635 33.5369 L 59.73712 33.5369 L 59.91077 33.5369 L 60.08441 33.5369 L 60.25804 33.5369 L 60.43167 33.5369 L 60.6053 33.5369 L 60.77895 33.5369 L 60.95258 33.5369 L 61.1262 33.5369 L 61.29985 33.5369 L 61.47348 33.5369 L 61.64711 33.5369 L 61.82077 33.5369 L 61.99438 33.5369 L 62.16803 33.5369 L 62.34164 33.5369 L 62.5153 33.5369 L 62.68895 33.5369 L 62.86256 33.5369 L 63.03621 33.5369 L 63.20984 33.5369 L 63.38348 33.5369 L 63.55713 33.5369 L 63.73074 33.5369 L 63.9044 33.5369 L 64.07802 33.5369 L 64.25166 33.5369 L 64.42531 33.5369 L 64.5989 33.5369 L 64.77257 33.5369 L 64.94618 33.5369 L 65.11984 33.5369 L 65.29347 33.5369 L 65.4671 33.5369 L 65.64075 33.5369 L 65.81438 33.5369 L 65.988 33.5369 L 66.16167 33.5369 L 66.33528 33.5369 L 66.50893 33.5369 L 66.68254 33.5369 L 66.8562 33.5369 L 67.02983 33.5369 L 67.20346 33.5369 L 67.3771 33.5369 L 67.55074 33.5369 L 67.72437 33.5369 L 67.89801 33.5369 L 68.07164 33.5369 L 68.24527 33.5369 L 68.4189 33.5369 L 68.59254 33.5369 L 68.7662 33.5369 L 68.9398 33.5369 L 69.11346 33.5369 L 69.28708 33.5369 L 69.46072 33.5369 L 69.63437 33.5369 L 69.808 33.5369 L 69.98163 33.5369 L 70.15526 33.5369 L 70.3289 33.5369 L 70.50255 33.5369 L 70.67616 33.5369 L 70.84982 33.5369 L 71.02344 33.5369 L 71.19708 33.5369 L 71.37073 33.5369 L 71.54434 33.5369 L 71.718 33.5369 L 71.8916 33.5369 L 72.06526 33.5369 L 72.2389 33.5369 L 72.41254 33.5369 L 72.58617 33.5369 L 72.7598 33.5369 L 72.93344 33.5369 L 73.10709 33.5369 L 73.2807 33.5369 L 73.45436 33.5369 L 73.62798 33.5369 L 73.80162 33.5369 L 73.97527 33.5369 L 74.1489 33.5369 L 74.32253 33.5369 L 74.49615 33.5369 L 74.6698 33.5369 L 74.84343 33.5369 L 75.01706 33.5369 L 75.1907 33.5369 L 75.36433 33.5369 L 75.53796 33.5369 L 75.71162 33.5369 L 75.88524 33.5369 L 76.05888 33.5369 L 76.2325 33.5369 L 76.40616 33.5369 L 76.57979 33.5369 L 76.75342 33.5369 L 76.92706 33.5369 L 77.1007 33.5369 L 77.27432 33.5369 L 77.44798 33.5369 L 77.6216 33.5369 L 77.79526 33.5369 L 77.96887 33.5369 L 78.1425 33.5369 L 78.31616 33.5369 L 78.48978 33.5369 L 78.66342 33.5369 L 78.83704 33.5369 L 79.01068 33.5369 L 79.18433 33.5369 L 79.35796 33.5369 L 79.53159 33.5369 L 79.70522 33.5369 L 79.87886 33.5369 L 80.05252 33.5369 L 80.22614 33.5369 L 80.39978 33.5369 L 80.5734 33.5369 L 80.74706 33.5369 L 80.92068 33.5369 L 81.09431 33.5369 L 81.26796 33.5369 L 81.44157 33.5369 L 81.61522 33.5369 L 81.78886 33.5369 L 81.9625 33.5369 L 82.13612 33.5369 L 82.30975 33.5369 L 82.4834 33.5369 L 82.65704 33.5369 L 82.83066 33.5369 L 83.00432 33.5369 L 83.17793 33.5369 L 83.35158 33.5369 L 83.52522 33.5369 L 83.69885 33.5369 L 83.8725 33.5369 L 84.04611 33.5369 L 84.21976 33.5369 L 84.3934 33.5369 L 84.56702 33.5369 L 84.74068 33.5369 L 84.91429 33.5369 L 85.08792 33.5369 L 85.26158 33.5369 L 85.4352 33.5369 L 85.60884 33.5369 L 85.78246 33.5369 L 85.95612 33.5369 L 86.12976 33.5369 L 86.30338 33.5369 L 86.47702 33.5369 L 86.65065 33.5369 L 86.8243 33.5369 L 86.99794 33.5369 L 87.17155 33.5369 L 87.34521 33.5369 L 87.51883 33.5369 L 87.69247 33.5369 L 87.86612 33.5369 L 88.03975 33.5369 L 88.21338 33.5369 L 88.387 33.5369 L 88.56065 33.5369 L 88.73428 33.5369 L 88.90791 33.5369 L 89.08156 33.5369 L 89.25517 33.5369 L 89.42882 33.5369 L 89.60248 33.5369 L 89.7761 33.5369 L 89.94974 33.5369 L 90.12335 33.5369 L 90.29701 33.5369 L 90.47064 33.5369 L 90.64427 33.5369 L 90.81792 33.5369 L 90.99155 33.5369 L 91.16518 33.5369 L 91.33884 33.5369 L 91.51245 33.5369 L 91.68608 33.5369 L 91.85971 33.5369 L 92.03336 33.5369 L 92.20702 33.5369 L 92.38062 33.5369 L 92.55428 33.5369 L 92.72789 33.5369 L 92.90155 33.5369 L 93.07518 33.5369 L 93.24881 33.5369 L 93.42244 33.5369 L 93.59607 33.5369 L 93.76971 33.5369 L 93.94336 33.5369 L 94.11697 33.5369 L 94.29063 33.5369 L 94.46425 33.5369 L 94.6379 33.5369 L 94.81154 33.5369 L 94.98517 33.5369 L 95.15881 33.5369 L 95.33243 33.5369 L 95.50607 33.5369 L 95.67972 33.5369 L 95.85335 33.5369 L 96.02698 33.5369 L 96.2006 33.5369 L 96.37425 33.5369 L 96.5479 33.5369 L 96.72151 33.5369 L 96.89517 33.5369 L 97.06879 33.5369 L 97.24243 33.5369 L 97.41608 33.5369 L 97.5897 33.5369 L 97.76334 33.5369 L 97.93697 33.5369 L 98.11061 33.5369 L 98.28427 33.5369 L 98.45787 33.5369 L 98.63152 33.5369 L 98.80515 33.5369 L 98.97878 33.5369 L 99.15244 33.5369 L 99.32605 33.5369 L 99.4997 33.5369 L 99.67331 33.5369 L 99.84697 33.5369 L 100.0206 33.5369 L 100.19423 33.5369 L 100.36787 33.5369 L 100.5415 33.5369 L 100.71513 33.5369 L 100.8888 33.5369 L 101.06241 33.5369 L 101.23607 33.5369 L 101.40967 33.5369 L 101.58333 33.5369 L 101.75697 33.5369 L 101.93059 33.5369 L 102.10423 33.5369 L 102.27785 33.5369 L 102.4515 33.5369 L 102.62514 33.5369 L 102.79877 33.5369 L 102.9724 33.5369 L 103.14603 33.5369 L 103.31967 33.5369 L 103.49333 33.5369 L 103.66693 33.5369 L 103.84059 33.5369 L 104.0142 33.5369 L 104.18787 33.5369 L 104.3615 33.5369 L 104.53513 33.5369 L 104.70877 33.5369 L 104.8824 33.5369 L 105.05603 33.5369 L 105.22969 33.5369 L 105.4033 33.5369 L 105.57693 33.5369 L 105.75056 33.5369 L 105.92421 33.5369 L 106.09785 33.5369 L 106.27147 33.5369 L 106.44513 33.5369 L 106.61874 33.5369 L 106.79239 33.5369 L 106.96603 33.5369 L 107.13966 33.5369 L 107.31331 33.5369 L 107.48692 33.5369 L 107.66057 33.5369 L 107.83423 33.5369 L 108.00783 33.5369 L 108.18149 33.5369 L 108.3551 33.5369 L 108.52875 33.5369 L 108.7024 33.5369 L 108.876 33.5369 L 109.04965 33.5369 L 109.22327 33.5369 L 109.39693 33.5369 L 109.57057 33.5369 L 109.74419 33.5369 L 109.91783 33.5369 L 110.09146 33.5369 L 110.2651 33.5369 L 110.43875 33.5369 L 110.61237 33.5369 L 110.78603 33.5369 L 110.95964 33.5369 L 111.13329 33.5369 L 111.30693 33.5369 L 111.48056 33.5369 L 111.65419 33.5369 L 111.82782 33.5369 L 112.00146 33.5369 L 112.1751 33.5369 L 112.34872 33.5369 L 112.52237 33.5369 L 112.69598 33.5369 L 112.86963 33.5369 L 113.04329 33.5369 L 113.2169 33.5369 L 113.39055 33.5369 L 113.56416 33.5369 L 113.73782 33.5369 L 113.91145 33.5369 L 114.08508 33.5369 L 114.25873 33.5369 L 114.43236 33.5369 L 114.60599 33.5369 L 114.77965 33.5369 L 114.95326 33.5369 L 115.1269 33.5369 L 115.30052 33.5369 L 115.47418 33.5369 L 115.64783 33.5369 L 115.82143 33.5369 L 115.99509 33.5369 L 116.1687 33.5369 L 116.34236 33.5369 L 116.51599 33.5369 L 116.68962 33.5369 L 116.86327 33.5369 L 117.03688 33.5369 L 117.21053 33.5369 L 117.38419 33.5369 L 117.55779 33.5369 L 117.73145 33.5369 L 117.90506 33.5369 L 118.0787 33.5369 L 118.25235 33.5369 L 118.42598 33.5369 L 118.59962 33.5369 L 118.77324 33.5369 L 118.94688 33.5369 L 119.12053 33.5369 L 119.29416 33.5369 L 119.46779 33.5369 L 119.64142 33.5369 L 119.81506 33.5369 L 119.98871 33.5369 L 120.16232 33.5369 L 120.33598 33.5369 L 120.5096 33.5369 L 120.68324 33.5369 L 120.85689 33.5369 L 121.03052 33.5369 L 121.20415 33.5369 L 121.37778 33.5369 L 121.55142 33.5369 L 121.72507 33.5369 L 121.89868 33.5369 L 122.07234 33.5369 L 122.24596 33.5369 L 122.41959 33.5369 L 122.59325 33.5369 L 122.76686 33.5369 L 122.9405 33.5369 L 123.11412 33.5369 L 123.28778 33.5369 L 123.46141 33.5369 L 123.63504 33.5369 L 123.80869 33.5369 L 123.98232 33.5369 L 124.15594 33.5369 L 124.3296 33.5369 L 124.50322 33.5369 L 124.67688 33.5369 L 124.85048 33.5369 L 125.02414 33.5369 L 125.19778 33.5369 L 125.37141 33.5369 L 125.54504 33.5369 L 125.71867 33.5369 L 125.89232 33.5369 L 126.06595 33.5369 L 126.23958 33.5369 L 126.41322 33.5369 L 126.58684 33.5369 L 126.76048 33.5369 L 126.93414 33.5369 L 127.10774 33.5369 L 127.2814 33.5369 L 127.45502 33.5369 L 127.62868 33.5369 L 127.8023 33.5369 L 127.97594 33.5369 L 128.14958 33.5369 L 128.32321 33.5369 L 128.49684 33.5369 L 128.6705 33.5369 L 128.84412 33.5369 L 129.01776 33.5369 L 129.19138 33.5369 L 129.36502 33.5369 L 129.53867 33.5369 L 129.71228 33.5369 L 129.88594 33.5369 L 130.05956 33.5369 L 130.2332 33.5369 L 130.40685 33.5369 L 130.58048 33.5369 L 130.75412 33.5369 L 130.92774 33.5369 L 131.10138 33.5369 L 131.27504 33.5369 L 131.44864 33.5369 L 131.6223 33.5369 L 131.79592 33.5369 L 131.96956 33.5369 L 132.1432 33.5369 L 132.31684 33.5369 L 132.49047 33.5369 L 132.66408 33.5369 L 132.83774 33.5369 L 133.01139 33.5369 L 133.185 33.5369 L 133.35865 33.5369 L 133.53227 33.5369 L 133.70592 33.5369 L 133.87957 33.5369 L 134.05318 33.5369 L 134.22684 33.5369 L 134.40045 33.5369 L 134.5741 33.5369 L 134.74774 33.5369 L 134.92137 33.5369 L 135.095 33.5369 L 135.26863 33.5369 L 135.44228 33.5369 L 135.61592 33.5369 L 135.78954 33.5369 L 135.9632 33.5369 L 136.1368 33.5369 L 136.31044 33.5369 L 136.4841 33.5369 L 136.65772 33.5369 L 136.83136 33.5369 L 137.00498 33.5369 L 137.17864 33.5369 L 137.35227 33.5369 L 137.5259 33.5369 L 137.69954 33.5369 L 137.87317 33.5369 L 138.0468 33.5369 L 138.22046 33.5369 L 138.39408 33.5369 L 138.56772 33.5369 L 138.74134 33.5369 L 138.915 33.5369 L 139.08863 33.5369 L 139.26226 33.5369 L 139.4359 33.5369 L 139.60951 33.5369 L 139.78318 33.5369 L 139.9568 33.5369 L 140.13043 33.5369 L 140.30408 33.5369 L 140.4777 33.5369 L 140.65134 33.5369 L 140.825 33.5369 L 140.9986 33.5369 L 141.17226 33.5369 L 141.34587 33.5369 L 141.51952 33.5369 L 141.69316 33.5369 L 141.86679 33.5369 L 142.04044 33.5369 L 142.21405 33.5369 L 142.3877 33.5369 L 142.56136 33.5369 L 142.73497 33.5369 L 142.9086 33.5369 L 143.08223 33.5369 L 143.25588 33.5369 L 143.42952 33.5369 L 143.60314 33.5369 L 143.7768 33.5369 L 143.95041 33.5369 L 144.12406 33.5369 L 144.2977 33.5369 L 144.47133 33.5369 L 144.64496 33.5369 L 144.81859 33.5369 L 144.99224 33.5369 L 145.1659 33.5369 L 145.3395 33.5369 L 145.51316 33.5369 L 145.68677 33.5369 L 145.86042 33.5369 L 146.03406 33.5369 L 146.20769 33.5369 L 146.38132 33.5369 L 146.55493 33.5369 L 146.72859 33.5369 L 146.90222 33.5369 L 147.07585 33.5369 L 147.2495 33.5369 L 147.42313 33.5369 L 147.59676 33.5369 L 147.77042 33.5369 L 147.94403 33.5369 L 148.11769 33.5369 L 148.29129 33.5369 L 148.46495 33.5369 L 148.6386 33.5369 L 148.81223 33.5369 L 148.98586 33.5369 L 149.15949 33.5369 L 149.33313 33.5369 L 149.50678 33.5369 L 149.68039 33.5369 L 149.85404 33.5369 L 150.02765 33.5369 L 150.2013 33.5369 L 150.37496 33.5369 L 150.54856 33.5369 L 150.72222 33.5369 L 150.89583 33.5369 L 151.06949 33.5369 L 151.24312 33.5369 L 151.41675 33.5369 L 151.5904 33.5369 L 151.76403 33.5369 L 151.93766 33.5369 L 152.11132 33.5369 L 152.28493 33.5369 L 152.45858 33.5369 L 152.63219 33.5369 L 152.80585 33.5369 L 152.97948 33.5369 L 153.15309 33.5369 L 153.32675 33.5369 L 153.50037 33.5369 L 153.67401 33.5369 L 153.84766 33.5369 L 154.02129 33.5369 L 154.19493 33.5369 L 154.36855 33.5369 L 154.54219 33.5369 L 154.71585 33.5369 L 154.88947 33.5369 L 155.06311 33.5369 L 155.23673 33.5369 L 155.41037 33.5369 L 155.58402 33.5369 L 155.75765 33.5369 L 155.93128 33.5369 L 156.1049 33.5369 L 156.27855 33.5369 L 156.4522 33.5369 L 156.62581 33.5369 L 156.79946 33.5369 L 156.97309 33.5369 L 157.14673 33.5369 L 157.32038 33.5369 L 157.49399 33.5369 L 157.66765 33.5369 L 157.84127 33.5369 L 158.01491 33.5369 L 158.18856 33.5369 L 158.36219 33.5369 L 158.53582 33.5369 L 158.70944 33.5369 L 158.88309 33.5369 L 159.05673 33.5369 L 159.23035 33.5369 L 159.404 33.5369 L 159.5776 33.5369 L 159.75127 33.5369 L 159.92491 33.5369 L 160.09853 33.5369 L 160.27217 33.5369 L 160.44579 33.5369 L 160.61945 33.5369 L 160.79308 33.5369 L 160.9667 33.5369 L 161.14035 33.5369 L 161.31398 33.5369 L 161.48761 33.5369 L 161.66127 33.5369 L 161.83489 33.5369 L 162.00853 33.5369 L 162.18215 33.5369 L 162.3558 33.5369 L 162.52945 33.5369 L 162.70307 33.5369 L 162.87671 33.5369 L 163.05034 33.5369 L 163.22399 33.5369 L 163.39762 33.5369 L 163.57125 33.5369 L 163.74489 33.5369 L 163.91852 33.5369 L 164.09215 33.5369 L 164.26581 33.5369 L 164.43943 33.5369 L 164.61307 33.5369 L 164.78668 33.5369 L 164.96033 33.5369 L 165.13397 33.5369 L 165.3076 33.5369 L 165.48125 33.5369 L 165.65486 33.5369 L 165.8285 33.5369 L 166.00217 33.5369 L 166.17578 33.5369 L 166.34943 33.5369 L 166.52304 33.5369 "/>
<symbol id="font_3_1">
<path d="M .421 .34200005 C .421 .42200003 .416 .50200006 .381 .57600006 C .335 .67200008 .25300003 .688 .211 .688 C .15100001 .688 .07800001 .66200008 .037000006 .56900009 C .0050000029 .5 0 .42200003 0 .34200005 C 0 .26700003 .0040000008 .177 .045000007 .101 C .088 .020000002 .161 0 .21000001 0 C .264 0 .34 .021000002 .384 .116000007 C .416 .185 .421 .263 .421 .34200005 M .21000001 .022000002 C .171 .022000002 .112 .047000003 .094 .143 C .083000008 .20300001 .083000008 .29500003 .083000008 .35400004 C .083000008 .41800005 .083000008 .48400004 .091000009 .53800007 C .11 .65700009 .185 .66600009 .21000001 .66600009 C .243 .66600009 .30900003 .64800009 .328 .549 C .338 .49300004 .338 .41700004 .338 .35400004 C .338 .279 .338 .21100001 .32700003 .147 C .312 .052 .255 .022000002 .21000001 .022000002 Z "/>
</symbol>
<use xlink:href="#font_3_1" transform="matrix(27.673888,0,0,-27.673888,91.22095,415.54216)"/>
<symbol id="font_3_2">
<path d="M .07700001 .07700001 L .18300002 .18 C .33900003 .31800003 .39900003 .372 .39900003 .47200004 C .39900003 .586 .30900003 .666 .18700002 .666 C .074 .666 0 .574 0 .485 C 0 .42900003 .05 .42900003 .053000008 .42900003 C .07000001 .42900003 .105000007 .441 .105000007 .48200003 C .105000007 .508 .08700001 .53400006 .052000006 .53400006 C .044000005 .53400006 .042000008 .53400006 .039 .53300008 C .062000004 .59800007 .11600001 .63500007 .17400001 .63500007 C .26500003 .63500007 .308 .554 .308 .47200004 C .308 .39200003 .25800003 .31300003 .20300003 .25100003 L .011000004 .037 C 0 .026 0 .024 0 0 L .37100003 0 L .39900003 .17400001 L .374 .17400001 C .36900003 .14400001 .36200003 .1 .352 .085 C .345 .07700001 .279 .07700001 .257 .07700001 L .07700001 .07700001 Z "/>
</symbol>
<use xlink:href="#font_3_2" transform="matrix(27.673888,0,0,-27.673888,284.2587,414.93333)"/>
</g>
<symbol id="font_4_1">
<path d="M .305 .31300003 C .311 .33900003 .334 .43100003 .404 .43100003 C .409 .43100003 .433 .43100003 .454 .418 C .426 .41300003 .40600003 .388 .40600003 .36400003 C .40600003 .34800003 .417 .32900004 .444 .32900004 C .46600003 .32900004 .498 .34700004 .498 .38700003 C .498 .43900005 .439 .45300005 .405 .45300005 C .347 .45300005 .312 .40000005 .3 .37700004 C .275 .44300003 .221 .45300005 .19200002 .45300005 C .08800001 .45300005 .031000002 .32400004 .031000002 .29900003 C .031000002 .28900004 .041 .28900004 .043000007 .28900004 C .051000008 .28900004 .054000006 .291 .056 .3 C .09 .40600003 .156 .43100003 .19000001 .43100003 C .209 .43100003 .244 .42200003 .244 .36400003 C .244 .33300004 .22700002 .26600004 .19000001 .126 C .17400001 .064 .13900002 .022000002 .095000009 .022000002 C .08900001 .022000002 .06600001 .022000002 .045 .035 C .07000001 .040000004 .09200001 .061 .09200001 .089 C .09200001 .116000007 .07000001 .124000009 .055000009 .124000009 C .025 .124000009 0 .098000008 0 .06600001 C 0 .020000002 .050000006 0 .094000007 0 C .16000001 0 .19600001 .07000001 .19900002 .076000008 C .21100001 .039 .24700003 0 .307 0 C .41 0 .467 .12900001 .467 .15400002 C .467 .16400002 .458 .16400002 .455 .16400002 C .446 .16400002 .444 .16000001 .442 .15300001 C .409 .046 .341 .022000002 .30900003 .022000002 C .27 .022000002 .254 .054 .254 .08800001 C .254 .11000001 .26 .13200002 .271 .17600002 L .305 .31300003 Z "/>
</symbol>
<use xlink:href="#font_4_1" transform="matrix(27.673888,0,0,-27.673888,560.56088,413.45719)"/>
<symbol id="font_4_2">
<path d="M .45700003 .586 C .461 .6 .461 .602 .461 .609 C .461 .62700006 .447 .63600006 .432 .63600006 C .42200003 .63600006 .40600003 .63 .397 .615 C .395 .61 .387 .579 .38300003 .561 C .37600003 .535 .36900003 .508 .363 .48100005 L .318 .301 C .314 .286 .271 .21600002 .20500002 .21600002 C .15400002 .21600002 .143 .26000003 .143 .29700003 C .143 .34300003 .16000001 .40500004 .194 .49300004 C .21000001 .53400006 .21400002 .545 .21400002 .56500008 C .21400002 .61 .18200001 .6470001 .13200002 .6470001 C .037 .6470001 0 .50200006 0 .49300004 C 0 .48300005 .01 .48300005 .012 .48300005 C .022000002 .48300005 .023 .485 .028000003 .50100007 C .055000009 .595 .095000009 .625 .12900001 .625 C .13700001 .625 .15400002 .625 .15400002 .59300008 C .15400002 .568 .14400001 .54200008 .13700001 .523 C .097 .41700004 .079 .36 .079 .31300003 C .079 .224 .142 .194 .201 .194 C .24000003 .194 .274 .21100001 .30200003 .23900002 C .289 .187 .277 .13800001 .237 .08500001 C .21100001 .051 .17300001 .022 .127 .022 C .113000009 .022 .068 .025000006 .051000008 .06400001 C .067 .06400001 .080000009 .06400001 .094000007 .076000008 C .104 .08500001 .11400001 .098000008 .11400001 .117000009 C .11400001 .148 .087000008 .15200001 .07700001 .15200001 C .054000006 .15200001 .021 .136 .021 .087000008 C .021 .037 .065000008 0 .127 0 C .23 0 .333 .091000009 .361 .20400001 L .45700003 .586 Z "/>
</symbol>
<use xlink:href="#font_4_2" transform="matrix(27.673888,0,0,-27.673888,63.888654,26.812003)"/>
</g>
</svg>
