<?xml version="1.0" encoding="UTF-8" standalone="no"?>
<!DOCTYPE svg PUBLIC "-//W3C//DTD SVG 1.1//EN" "http://www.w3.org/Graphics/SVG/1.1/DTD/svg11.dtd">
<svg xmlns="http://www.w3.org/2000/svg" xmlns:xlink="http://www.w3.org/1999/xlink" version="1.1" width="1121.3889pt" height="413.68885pt" viewBox="0 0 1121.3889 413.68885">
<g enable-background="new">
<path transform="matrix(2.7777777,0,0,-2.7777777,167.25833,193.77776)" stroke-width=".3985" stroke-linecap="butt" stroke-miterlimit="10" stroke-linejoin="miter" fill="none" stroke="#000000" d="M -56.69362 0 L 56.23534 0 "/>
<path transform="matrix(2.7777777,0,0,-2.7777777,323.4676,193.77776)" stroke-width=".31879" stroke-linecap="round" stroke-linejoin="round" fill="none" stroke="#000000" d="M -1.19551 1.59401 C -1.09587 .99626 0 .09961 .29886 0 C 0 -.09961 -1.09587 -.99626 -1.19551 -1.59401 "/>
<symbol id="font_0_5">
<path d="M .305 .31300003 C .311 .33900003 .334 .43100003 .404 .43100003 C .409 .43100003 .433 .43100003 .454 .418 C .426 .41300003 .40600003 .388 .40600003 .36400003 C .40600003 .34800003 .417 .32900004 .444 .32900004 C .46600003 .32900004 .498 .34700004 .498 .38700003 C .498 .43900005 .439 .45300005 .405 .45300005 C .347 .45300005 .312 .40000005 .3 .37700004 C .275 .44300003 .221 .45300005 .19200002 .45300005 C .08800001 .45300005 .031000002 .32400004 .031000002 .29900003 C .031000002 .28900004 .041 .28900004 .043000007 .28900004 C .051000008 .28900004 .054000006 .291 .056 .3 C .09 .40600003 .156 .43100003 .19000001 .43100003 C .209 .43100003 .244 .42200003 .244 .36400003 C .244 .33300004 .22700002 .26600004 .19000001 .126 C .17400001 .064 .13900002 .022000002 .095000009 .022000002 C .08900001 .022000002 .06600001 .022000002 .045 .035 C .07000001 .040000004 .09200001 .061 .09200001 .089 C .09200001 .116000007 .07000001 .124000009 .055000009 .124000009 C .025 .124000009 0 .098000008 0 .06600001 C 0 .020000002 .050000006 0 .094000007 0 C .16000001 0 .19600001 .07000001 .19900002 .076000008 C .21100001 .039 .24700003 0 .307 0 C .41 0 .467 .12900001 .467 .15400002 C .467 .16400002 .458 .16400002 .455 .16400002 C .446 .16400002 .444 .16000001 .442 .15300001 C .409 .046 .341 .022000002 .30900003 .022000002 C .27 .022000002 .254 .054 .254 .08800001 C .254 .11000001 .26 .13200002 .271 .17600002 L .305 .31300003 Z "/>
</symbol>
<use xlink:href="#font_0_5" transform="matrix(27.673888,0,0,-27.673888,335.3192,200.04048)"/>
<path transform="matrix(2.7777777,0,0,-2.7777777,167.25833,193.77776)" stroke-width=".3985" stroke-linecap="butt" stroke-miterlimit="10" stroke-linejoin="miter" fill="none" stroke="#000000" d="M 0 -56.69362 L 0 56.23534 "/>
<path transform="matrix(0,-2.7777777,-2.7777777,-0,167.25833,37.56848)" stroke-width=".31879" stroke-linecap="round" stroke-linejoin="round" fill="none" stroke="#000000" d="M -1.19551 1.59401 C -1.09587 .99626 0 .09961 .29886 0 C 0 -.09961 -1.09587 -.99626 -1.19551 -1.59401 "/>
<symbol id="font_0_6">
<path d="M .45700003 .586 C .461 .6 .461 .602 .461 .609 C .461 .62700006 .447 .63600006 .432 .63600006 C .42200003 .63600006 .40600003 .63 .397 .615 C .395 .61 .387 .579 .38300003 .561 C .37600003 .535 .36900003 .508 .363 .48100005 L .318 .301 C .314 .286 .271 .21600002 .20500002 .21600002 C .15400002 .21600002 .143 .26000003 .143 .29700003 C .143 .34300003 .16000001 .40500004 .194 .49300004 C .21000001 .53400006 .21400002 .545 .21400002 .56500008 C .21400002 .61 .18200001 .6470001 .13200002 .6470001 C .037 .6470001 0 .50200006 0 .49300004 C 0 .48300005 .01 .48300005 .012 .48300005 C .022000002 .48300005 .023 .485 .028000003 .50100007 C .055000009 .595 .095000009 .625 .12900001 .625 C .13700001 .625 .15400002 .625 .15400002 .59300008 C .15400002 .568 .14400001 .54200008 .13700001 .523 C .097 .41700004 .079 .36 .079 .31300003 C .079 .224 .142 .194 .201 .194 C .24000003 .194 .274 .21100001 .30200003 .23900002 C .289 .187 .277 .13800001 .237 .08500001 C .21100001 .051 .17300001 .022 .127 .022 C .113000009 .022 .068 .025000006 .051000008 .06400001 C .067 .06400001 .080000009 .06400001 .094000007 .076000008 C .104 .08500001 .11400001 .098000008 .11400001 .117000009 C .11400001 .148 .087000008 .15200001 .07700001 .15200001 C .054000006 .15200001 .021 .136 .021 .087000008 C .021 .037 .065000008 0 .127 0 C .23 0 .333 .091000009 .361 .20400001 L .45700003 .586 Z "/>
</symbol>
<use xlink:href="#font_0_6" transform="matrix(27.673888,0,0,-27.673888,160.78032,26.812003)"/>
<path transform="matrix(2.7777777,0,0,-2.7777777,167.25833,193.77776)" stroke-width=".3985" stroke-linecap="butt" stroke-dasharray="2.98883,2.98883" stroke-miterlimit="10" stroke-linejoin="miter" fill="none" stroke="#000000" d="M 0 0 L 40.08847 40.08847 "/>
<path transform="matrix(2.7777777,0,0,-2.7777777,167.25833,193.77776)" stroke-width=".3985" stroke-linecap="butt" stroke-dasharray="2.98883,2.98883" stroke-miterlimit="10" stroke-linejoin="miter" fill="none" stroke="#000000" d="M 0 0 L 40.08847 -40.08847 "/>
<path transform="matrix(2.7777777,0,0,-2.7777777,167.25833,193.77776)" stroke-width=".3985" stroke-linecap="butt" stroke-miterlimit="10" stroke-linejoin="miter" fill="none" stroke="#000000" d="M 40.08847 40.08847 L 40.08847 -40.08847 "/>
<symbol id="font_1_1">
<path d="M .23200003 .00999999 C .23200003 .012999982 .23200003 .014999986 .215 .03199999 C .09 .15799999 .058 .347 .058 .5 C .058 .674 .096 .84800007 .21900001 .97300007 C .23200003 .985 .23200003 .98700007 .23200003 .99 C .23200003 .99700006 .22800002 1 .222 1 C .21200001 1 .12200001 .93200007 .06299999 .805 C .012000002 .69500008 0 .584 0 .5 C 0 .422 .011 .301 .066 .188 C .126 .065 .21200001 0 .222 0 C .22800002 0 .23200003 .0029999912 .23200003 .00999999 Z "/>
</symbol>
<use xlink:href="#font_1_1" transform="matrix(27.673888,0,0,-27.673888,262.83973,85.12398)"/>
<symbol id="font_0_4">
<path d="M .059000009 .07000001 C .056 .055000005 .050000006 .032 .050000006 .027000003 C .050000006 .009000001 .064 0 .079 0 C .091000009 0 .10900001 .008000001 .11600001 .028 C .118 .032 .15200001 .16800002 .156 .18600002 C .164 .21900001 .18200001 .28900004 .18800001 .316 C .19200002 .32900004 .22000002 .37600003 .244 .39800004 C .252 .40500004 .281 .43100003 .324 .43100003 C .35 .43100003 .365 .41900004 .366 .41900004 C .336 .41400004 .314 .39000003 .314 .36400003 C .314 .34800003 .325 .32900004 .352 .32900004 C .379 .32900004 .407 .35200004 .407 .388 C .407 .42300005 .375 .45300005 .324 .45300005 C .259 .45300005 .21500002 .404 .19600001 .37600003 C .18800001 .42100004 .15200001 .45300005 .105000007 .45300005 C .059000009 .45300005 .040000008 .41400004 .031000002 .39600004 C .013000002 .36200003 0 .30200003 0 .29900003 C 0 .28900004 .01 .28900004 .012 .28900004 C .022000002 .28900004 .023 .29000003 .029000001 .31200005 C .046000005 .38300003 .06600001 .43100003 .10200001 .43100003 C .119 .43100003 .133 .42300005 .133 .38500003 C .133 .36400003 .13000001 .35300002 .11700001 .30100004 L .059000009 .07000001 Z "/>
</symbol>
<symbol id="font_0_3">
<path d="M .117000009 .194 C .117000009 .26 .092 .29900003 .05300001 .29900003 C .020000004 .29900003 0 .274 0 .246 C 0 .21900001 .020000004 .193 .05300001 .193 C .065000008 .193 .078 .197 .08800001 .206 C .091 .208 .092 .209 .093 .209 C .094000007 .209 .095000009 .208 .095000009 .194 C .095000009 .12 .06000001 .060000004 .027000003 .026999996 C .016000003 .016000003 .016000003 .013999999 .016000003 .0109999929 C .016000003 .003999993 .021000006 0 .026 0 C .037 0 .117000009 .077 .117000009 .194 Z "/>
</symbol>
<symbol id="font_0_1">
<path d="M .41300003 .511 C .41300003 .577 .395 .716 .293 .716 C .15400002 .716 0 .43400003 0 .20500002 C 0 .111 .029 0 .12 0 C .261 0 .41300003 .28700004 .41300003 .511 M .106 .374 C .123 .43800003 .143 .518 .183 .589 C .21000001 .638 .24700001 .694 .29200004 .694 C .34100003 .694 .34700004 .63 .34700004 .573 C .34700004 .524 .33900003 .47300003 .31500004 .374 L .106 .374 M .30600003 .34200005 C .29500003 .29600004 .27400003 .21100001 .23600003 .13900002 C .201 .071 .16300002 .022000002 .12 .022000002 C .087000008 .022000002 .066 .051000004 .066 .14400001 C .066 .18600002 .072000008 .24400002 .098 .34200005 L .30600003 .34200005 Z "/>
</symbol>
<use xlink:href="#font_0_4" transform="matrix(27.673888,0,0,-27.673888,271.66368,78.50992)"/>
<use xlink:href="#font_0_3" transform="matrix(27.673888,0,0,-27.673888,284.9471,83.54656)"/>
<use xlink:href="#font_0_1" transform="matrix(27.673888,0,0,-27.673888,296.04435,78.50992)"/>
<symbol id="font_1_2">
<path d="M .232 .5 C .232 .578 .22100002 .699 .16600001 .81200006 C .106 .93500009 .020000004 1 .009999998 1 C .0040000008 1 0 .99600008 0 .99 C 0 .98700007 0 .985 .019000002 .967 C .117000009 .86800006 .174 .709 .174 .5 C .174 .329 .137 .153 .012999997 .026999996 C 0 .014999986 0 .012999982 0 .00999999 C 0 .003999993 .0040000008 0 .009999998 0 C .020000004 0 .11000001 .06799999 .169 .195 C .22 .305 .232 .416 .232 .5 Z "/>
</symbol>
<use xlink:href="#font_1_2" transform="matrix(27.673888,0,0,-27.673888,310.21354,85.12398)"/>
<use xlink:href="#font_1_1" transform="matrix(27.673888,0,0,-27.673888,252.07582,330.10459)"/>
<use xlink:href="#font_0_4" transform="matrix(27.673888,0,0,-27.673888,260.90257,323.49055)"/>
<use xlink:href="#font_0_3" transform="matrix(27.673888,0,0,-27.673888,274.186,328.5272)"/>
<symbol id="font_2_1">
<path d="M .57600006 0 C .59300008 0 .611 0 .611 .019999996 C .611 .040000008 .59300008 .040000008 .57600006 .040000008 L .035000005 .040000008 C .018 .040000008 0 .040000008 0 .019999996 C 0 0 .018 0 .035000005 0 L .57600006 0 Z "/>
</symbol>
<use xlink:href="#font_2_1" transform="matrix(27.673888,0,0,-27.673888,286.41084,316.82115)"/>
<use xlink:href="#font_0_1" transform="matrix(27.673888,0,0,-27.673888,306.80119,323.49055)"/>
<use xlink:href="#font_1_2" transform="matrix(27.673888,0,0,-27.673888,320.97746,330.10459)"/>
<symbol id="font_1_3">
<path d="M .205 .64000007 C .205 .66400006 .205 .666 .18200003 .666 C .120000008 .60200008 .032000007 .60200008 0 .60200008 L 0 .57100006 C .020000004 .57100006 .07900001 .57100006 .13100001 .597 L .13100001 .079 C .13100001 .043 .128 .031000002 .038000004 .031000002 L .0060000049 .031000002 L .0060000049 0 C .04100001 .003 .128 .003 .168 .003 C .20800002 .003 .29500003 .003 .33000005 0 L .33000005 .031000002 L .29800005 .031000002 C .20800002 .031000002 .205 .042000005 .205 .079 L .205 .64000007 Z "/>
</symbol>
<use xlink:href="#font_1_1" transform="matrix(27.673888,0,0,-27.673888,152.31749,404.4657)"/>
<use xlink:href="#font_1_3" transform="matrix(27.673888,0,0,-27.673888,162.8059,397.54725)"/>
<use xlink:href="#font_1_2" transform="matrix(27.673888,0,0,-27.673888,175.75727,404.4657)"/>
<path transform="matrix(2.7777777,0,0,-2.7777777,555.44168,193.77776)" stroke-width=".3985" stroke-linecap="butt" stroke-miterlimit="10" stroke-linejoin="miter" fill="none" stroke="#000000" d="M -56.69362 0 L 56.23534 0 "/>
<path transform="matrix(2.7777777,0,0,-2.7777777,711.6509,193.77776)" stroke-width=".31879" stroke-linecap="round" stroke-linejoin="round" fill="none" stroke="#000000" d="M -1.19551 1.59401 C -1.09587 .99626 0 .09961 .29886 0 C 0 -.09961 -1.09587 -.99626 -1.19551 -1.59401 "/>
<use xlink:href="#font_0_5" transform="matrix(27.673888,0,0,-27.673888,723.4997,200.04048)"/>
<path transform="matrix(2.7777777,0,0,-2.7777777,555.44168,193.77776)" stroke-width=".3985" stroke-linecap="butt" stroke-miterlimit="10" stroke-linejoin="miter" fill="none" stroke="#000000" d="M 0 -56.69362 L 0 56.23534 "/>
<path transform="matrix(0,-2.7777777,-2.7777777,-0,555.44168,37.56848)" stroke-width=".31879" stroke-linecap="round" stroke-linejoin="round" fill="none" stroke="#000000" d="M -1.19551 1.59401 C -1.09587 .99626 0 .09961 .29886 0 C 0 -.09961 -1.09587 -.99626 -1.19551 -1.59401 "/>
<use xlink:href="#font_0_6" transform="matrix(27.673888,0,0,-27.673888,548.9636,26.812003)"/>
<path transform="matrix(2.7777777,0,0,-2.7777777,555.44168,193.77776)" stroke-width=".3985" stroke-linecap="butt" stroke-dasharray="2.98883,2.98883" stroke-miterlimit="10" stroke-linejoin="miter" fill="none" stroke="#000000" d="M 0 0 L 40.08847 40.08847 "/>
<path transform="matrix(2.7777777,0,0,-2.7777777,555.44168,193.77776)" stroke-width=".3985" stroke-linecap="butt" stroke-dasharray="2.98883,2.98883" stroke-miterlimit="10" stroke-linejoin="miter" fill="none" stroke="#000000" d="M 0 0 L -40.08847 40.08847 "/>
<path transform="matrix(2.7777777,0,0,-2.7777777,555.44168,193.77776)" stroke-width=".3985" stroke-linecap="butt" stroke-miterlimit="10" stroke-linejoin="miter" fill="none" stroke="#000000" d="M 40.08847 40.08847 L -40.08847 40.08847 "/>
<use xlink:href="#font_1_1" transform="matrix(27.673888,0,0,-27.673888,651.0202,85.12398)"/>
<use xlink:href="#font_0_4" transform="matrix(27.673888,0,0,-27.673888,659.847,78.50992)"/>
<use xlink:href="#font_0_3" transform="matrix(27.673888,0,0,-27.673888,673.13046,83.54656)"/>
<use xlink:href="#font_0_1" transform="matrix(27.673888,0,0,-27.673888,684.22769,78.50992)"/>
<use xlink:href="#font_1_2" transform="matrix(27.673888,0,0,-27.673888,698.3968,85.12398)"/>
<use xlink:href="#font_1_1" transform="matrix(27.673888,0,0,-27.673888,380.74528,85.12398)"/>
<symbol id="font_0_2">
<path d="M .23800002 .38400004 L .351 .38400004 C .31800003 .23600002 .30900003 .19300002 .30900003 .126 C .30900003 .111 .30900003 .08400001 .317 .05 C .327 .0060000007 .338 0 .35300002 0 C .373 0 .39400003 .018000002 .39400003 .038000004 C .39400003 .044 .39400003 .046 .388 .060000004 C .359 .13200002 .359 .19700001 .359 .22500003 C .359 .27800004 .366 .33200003 .377 .38400004 L .491 .38400004 C .504 .38400004 .54 .38400004 .54 .418 C .54 .44200004 .519 .44200004 .5 .44200004 L .165 .44200004 C .143 .44200004 .105 .44200004 .061000006 .395 C .026000003 .35600005 0 .31000004 0 .305 C 0 .30400003 0 .29500003 .012 .29500003 C .020000002 .29500003 .022000002 .29900003 .028000003 .307 C .077 .38400004 .135 .38400004 .15500002 .38400004 L .21200001 .38400004 C .18000002 .263 .12600002 .14200002 .08400001 .051000004 C .076000008 .036000004 .076000008 .034 .076000008 .027000003 C .076000008 .008000001 .092 0 .105 0 C .135 0 .143 .028 .15500002 .065000008 C .16900002 .111 .16900002 .113000009 .18200001 .16300002 L .23800002 .38400004 Z "/>
</symbol>
<use xlink:href="#font_0_4" transform="matrix(27.673888,0,0,-27.673888,389.56919,78.50992)"/>
<use xlink:href="#font_0_3" transform="matrix(27.673888,0,0,-27.673888,402.85267,83.54656)"/>
<use xlink:href="#font_0_2" transform="matrix(27.673888,0,0,-27.673888,413.5348,78.50992)"/>
<use xlink:href="#font_2_1" transform="matrix(27.673888,0,0,-27.673888,437.9969,71.840518)"/>
<use xlink:href="#font_0_1" transform="matrix(27.673888,0,0,-27.673888,464.53724,78.50992)"/>
<use xlink:href="#font_1_2" transform="matrix(27.673888,0,0,-27.673888,478.71073,85.12398)"/>
<symbol id="font_1_4">
<path d="M .07700001 .07700001 L .18300002 .18 C .33900003 .31800003 .39900003 .372 .39900003 .47200004 C .39900003 .586 .30900003 .666 .18700002 .666 C .074 .666 0 .574 0 .485 C 0 .42900003 .05 .42900003 .053000008 .42900003 C .07000001 .42900003 .105000007 .441 .105000007 .48200003 C .105000007 .508 .08700001 .53400006 .052000006 .53400006 C .044000005 .53400006 .042000008 .53400006 .039 .53300008 C .062000004 .59800007 .11600001 .63500007 .17400001 .63500007 C .26500003 .63500007 .308 .554 .308 .47200004 C .308 .39200003 .25800003 .31300003 .20300003 .25100003 L .011000004 .037 C 0 .026 0 .024 0 0 L .37100003 0 L .39900003 .17400001 L .374 .17400001 C .36900003 .14400001 .36200003 .1 .352 .085 C .345 .07700001 .279 .07700001 .257 .07700001 L .07700001 .07700001 Z "/>
</symbol>
<use xlink:href="#font_1_1" transform="matrix(27.673888,0,0,-27.673888,540.50076,404.4657)"/>
<use xlink:href="#font_1_4" transform="matrix(27.673888,0,0,-27.673888,549.9099,397.54725)"/>
<use xlink:href="#font_1_2" transform="matrix(27.673888,0,0,-27.673888,563.94058,404.4657)"/>
<path transform="matrix(2.7777777,0,0,-2.7777777,929.0888,193.77776)" stroke-width=".3985" stroke-linecap="butt" stroke-miterlimit="10" stroke-linejoin="miter" fill="none" stroke="#000000" d="M -56.69362 0 L 56.23534 0 "/>
<path transform="matrix(2.7777777,0,0,-2.7777777,1085.2981,193.77776)" stroke-width=".31879" stroke-linecap="round" stroke-linejoin="round" fill="none" stroke="#000000" d="M -1.19551 1.59401 C -1.09587 .99626 0 .09961 .29886 0 C 0 -.09961 -1.09587 -.99626 -1.19551 -1.59401 "/>
<use xlink:href="#font_0_5" transform="matrix(27.673888,0,0,-27.673888,1097.1497,200.04048)"/>
<path transform="matrix(2.7777777,0,0,-2.7777777,929.0888,193.77776)" stroke-width=".3985" stroke-linecap="butt" stroke-miterlimit="10" stroke-linejoin="miter" fill="none" stroke="#000000" d="M 0 -56.69362 L 0 56.23534 "/>
<path transform="matrix(0,-2.7777777,-2.7777777,-0,929.0888,37.56848)" stroke-width=".31879" stroke-linecap="round" stroke-linejoin="round" fill="none" stroke="#000000" d="M -1.19551 1.59401 C -1.09587 .99626 0 .09961 .29886 0 C 0 -.09961 -1.09587 -.99626 -1.19551 -1.59401 "/>
<use xlink:href="#font_0_6" transform="matrix(27.673888,0,0,-27.673888,922.61087,26.812003)"/>
<path transform="matrix(2.7777777,0,0,-2.7777777,929.0888,193.77776)" stroke-width=".3985" stroke-linecap="butt" stroke-miterlimit="10" stroke-linejoin="miter" fill="none" stroke="#000000" d="M 0 0 L 40.08847 40.08847 "/>
<path transform="matrix(2.7777777,0,0,-2.7777777,929.0888,193.77776)" stroke-width=".3985" stroke-linecap="butt" stroke-miterlimit="10" stroke-linejoin="miter" fill="none" stroke="#000000" d="M 0 0 L -40.08847 -40.08847 "/>
<use xlink:href="#font_1_1" transform="matrix(27.673888,0,0,-27.673888,1024.6702,85.12398)"/>
<use xlink:href="#font_0_4" transform="matrix(27.673888,0,0,-27.673888,1033.494,78.50992)"/>
<use xlink:href="#font_0_3" transform="matrix(27.673888,0,0,-27.673888,1046.7776,83.54656)"/>
<use xlink:href="#font_0_1" transform="matrix(27.673888,0,0,-27.673888,1057.8749,78.50992)"/>
<use xlink:href="#font_1_2" transform="matrix(27.673888,0,0,-27.673888,1072.0468,85.12398)"/>
<use xlink:href="#font_1_1" transform="matrix(27.673888,0,0,-27.673888,768.9258,330.10459)"/>
<use xlink:href="#font_2_1" transform="matrix(27.673888,0,0,-27.673888,779.2469,316.82115)"/>
<use xlink:href="#font_0_4" transform="matrix(27.673888,0,0,-27.673888,799.2747,323.49055)"/>
<use xlink:href="#font_0_3" transform="matrix(27.673888,0,0,-27.673888,812.5581,328.5272)"/>
<use xlink:href="#font_0_1" transform="matrix(27.673888,0,0,-27.673888,823.65536,323.49055)"/>
<use xlink:href="#font_1_2" transform="matrix(27.673888,0,0,-27.673888,837.82736,330.10459)"/>
<symbol id="font_1_5">
<path d="M .24800003 .37400005 C .33 .40100003 .388 .47100006 .388 .55 C .388 .632 .3 .688 .204 .688 C .10300001 .688 .027000003 .628 .027000003 .55200007 C .027000003 .519 .049000004 .5 .078 .5 C .109000008 .5 .12900001 .522 .12900001 .55100008 C .12900001 .6010001 .082 .6010001 .067 .6010001 C .098 .65000006 .164 .66300007 .20000002 .66300007 C .24100003 .66300007 .29600004 .64100006 .29600004 .55100008 C .29600004 .53900006 .29400004 .48100005 .268 .43700005 C .238 .38900004 .204 .38600005 .17900002 .38500003 C .171 .38400004 .14700002 .38200004 .14000002 .38200004 C .132 .38100005 .125 .38000003 .125 .37000004 C .125 .35900004 .132 .35900004 .14900002 .35900004 L .19300002 .35900004 C .275 .35900004 .312 .29100005 .312 .193 C .312 .057000005 .24300003 .028 .199 .028 C .15600002 .028 .081 .045 .046000005 .104 C .081 .09900001 .11200001 .12100001 .11200001 .15900001 C .11200001 .19500001 .085 .215 .056 .215 C .031999999 .215 0 .201 0 .157 C 0 .06600001 .093 0 .20200002 0 C .32400004 0 .41500003 .091000009 .41500003 .193 C .41500003 .27500005 .35200004 .35300005 .24800003 .37400005 Z "/>
</symbol>
<use xlink:href="#font_1_1" transform="matrix(27.673888,0,0,-27.673888,914.14797,404.4657)"/>
<use xlink:href="#font_1_5" transform="matrix(27.673888,0,0,-27.673888,923.33578,398.15608)"/>
<use xlink:href="#font_1_2" transform="matrix(27.673888,0,0,-27.673888,937.58779,404.4657)"/>
</g>
</svg>
