<?xml version="1.0" encoding="UTF-8" standalone="no"?>
<!DOCTYPE svg PUBLIC "-//W3C//DTD SVG 1.1//EN" "http://www.w3.org/Graphics/SVG/1.1/DTD/svg11.dtd">
<svg xmlns="http://www.w3.org/2000/svg" xmlns:xlink="http://www.w3.org/1999/xlink" version="1.1" width="326.4pt" height="113.56388pt" viewBox="0 0 326.4 113.56388">
<g enable-background="new">
<path transform="matrix(2.7777777,0,0,-2.7777777,167.8111,56.780553)" stroke-width=".79701" stroke-linecap="butt" stroke-miterlimit="10" stroke-linejoin="miter" fill="none" stroke="#000000" d="M 56.69362 0 C 56.69362 0 56.69005 .16077 56.68886 .22275 C 56.68765 .28473 56.68643 .38463 56.68495 .4468 C 56.68346 .50896 56.68013 .60881 56.67802 .67085 C 56.67593 .7329 56.6727 .83217 56.66982 .89404 C 56.66695 .9559 56.66121 1.05492 56.65726 1.11679 C 56.6533 1.17867 56.64594 1.278 56.64127 1.33998 C 56.63661 1.40198 56.62851 1.50162 56.62354 1.56361 C 56.61856 1.6256 56.61089 1.72493 56.60536 1.7868 C 56.59985 1.84868 56.59047 1.94786 56.58374 2.00955 C 56.57703 2.07124 56.56447 2.1697 56.55692 2.23145 C 56.54936 2.2932 56.53745 2.39282 56.52924 2.45464 C 56.52103 2.51645 56.50629 2.61534 56.49767 2.67697 C 56.48903 2.7386 56.47636 2.83742 56.46695 2.89886 C 56.45753 2.9603 56.44019 3.05843 56.42975 3.11987 C 56.41933 3.18132 56.40266 3.28038 56.3917 3.34177 C 56.3807 3.40315 56.36241 3.50128 56.3506 3.56236 C 56.33878 3.62344 56.31877 3.72101 56.30647 3.78209 C 56.29417 3.84317 56.27513 3.9416 56.26193 4.00269 C 56.24875 4.06377 56.22542 4.16162 56.21133 4.22241 C 56.19724 4.2832 56.17493 4.38019 56.16028 4.44086 C 56.14565 4.50153 56.1209 4.59904 56.10579 4.65971 C 56.09067 4.72038 56.06735 4.81767 56.05128 4.87816 C 56.03522 4.93864 56.00702 5.03546 55.98987 5.0957 C 55.97272 5.15596 55.94516 5.25229 55.92758 5.31241 C 55.91 5.37254 55.8812 5.46924 55.86313 5.52911 C 55.84506 5.589 55.81621 5.68433 55.79738 5.7441 C 55.77855 5.80385 55.74722 5.90027 55.72731 5.95993 C 55.7074 6.01958 55.6743 6.11462 55.65378 6.17403 C 55.63326 6.23344 55.60043 6.32884 55.57938 6.38814 C 55.55833 6.44742 55.52356 6.54233 55.50195 6.60138 C 55.48036 6.66042 55.44629 6.7549 55.42368 6.81377 C 55.40105 6.87262 55.36249 6.96707 55.3389 7.0257 C 55.31532 7.0843 55.27786 7.17809 55.25368 7.23634 C 55.22949 7.29462 55.1893 7.38748 55.16458 7.4457 C 55.13986 7.5039 55.10086 7.59789 55.07549 7.6559 C 55.05011 7.71393 55.00797 7.80643 54.98163 7.86397 C 54.95528 7.9215 54.91254 8.01334 54.88559 8.07071 C 54.85866 8.12808 54.8149 8.22021 54.7874 8.27747 C 54.75992 8.33472 54.71545 8.4264 54.6875 8.48335 C 54.65955 8.5403 54.61494 8.63124 54.58585 8.68794 C 54.55675 8.74464 54.50758 8.83565 54.4777 8.8921 C 54.44785 8.94856 54.40092 9.03891 54.37045 9.09496 C 54.33997 9.151 54.28899 9.2404 54.25798 9.2961 C 54.22697 9.35178 54.17863 9.44084 54.14682 9.49635 C 54.11502 9.55185 54.06168 9.64087 54.02873 9.6962 C 53.99579 9.75151 53.94264 9.84026 53.90935 9.89516 C 53.87607 9.95007 53.82253 10.0373 53.78868 10.09196 C 53.75484 10.14662 53.69986 10.23477 53.6654 10.2892 C 53.63097 10.34361 53.57587 10.43039 53.5404 10.48428 C 53.50494 10.53818 53.44601 10.62416 53.40977 10.67761 C 53.37354 10.73108 53.31589 10.81638 53.27916 10.86966 C 53.24243 10.92294 53.18214 11.00873 53.14507 11.0617 C 53.10799 11.11469 53.04988 11.19904 53.01184 11.2516 C 52.97382 11.30417 52.91 11.38847 52.87083 11.44063 C 52.83165 11.49277 52.769 11.5758 52.72939 11.62747 C 52.68979 11.67912 52.62561 11.76154 52.58536 11.81302 C 52.5451 11.86452 52.47984 11.9474 52.43916 11.9986 C 52.39847 12.04977 52.33354 12.13141 52.2921 12.18199 C 52.25064 12.23257 52.18263 12.31293 52.14027 12.36322 C 52.0979 12.4135 52.0297 12.49452 51.98672 12.54445 C 51.94377 12.59438 51.87384 12.67366 51.83058 12.72308 C 51.78731 12.77252 51.71915 12.85178 51.67487 12.90086 C 51.63058 12.94995 51.55673 13.02837 51.51137 13.0769 C 51.466 13.12544 51.39354 13.20247 51.34787 13.25078 C 51.3022 13.29909 51.22835 13.37715 51.1822 13.42511 C 51.13608 13.47305 51.062 13.54904 51.01524 13.59639 C 50.9685 13.64372 50.89308 13.71962 50.84526 13.76637 C 50.79744 13.81313 50.71912 13.88701 50.67052 13.93333 C 50.62192 13.97966 50.54369 14.05426 50.4949 14.10028 C 50.44612 14.1463 50.36813 14.21954 50.31886 14.26509 C 50.26959 14.31064 50.19008 14.38365 50.1398 14.42859 C 50.08951 14.47353 50.00746 14.54465 49.9564 14.58905 C 49.90533 14.63347 49.8233 14.70462 49.7717 14.74866 C 49.72008 14.79271 49.63643 14.8629 49.58441 14.90654 C 49.53238 14.95016 49.44945 15.0201 49.3967 15.06311 C 49.34395 15.10614 49.25792 15.17424 49.20421 15.21667 C 49.1505 15.2591 49.06381 15.32704 49.00957 15.36891 C 48.95534 15.4108 48.8678 15.47717 48.8132 15.51859 C 48.75859 15.56 48.6711 15.62639 48.61597 15.66737 C 48.56082 15.70836 48.47192 15.77356 48.4157 15.814 C 48.35947 15.85445 48.26755 15.91907 48.21066 15.95891 C 48.15378 15.99875 48.06306 16.0621 48.00565 16.10121 C 47.94823 16.14034 47.85445 16.20227 47.79674 16.24092 C 47.73901 16.27956 47.64812 16.34166 47.58954 16.37976 C 47.53098 16.41786 47.43404 16.47809 47.37457 16.5156 C 47.3151 16.55309 47.2209 16.61314 47.16089 16.6501 C 47.10089 16.68706 47.00276 16.74565 46.94203 16.78201 C 46.8813 16.81837 46.78413 16.8764 46.72316 16.91222 C 46.6622 16.94804 46.56444 17.00528 46.50256 17.04025 C 46.4407 17.07524 46.33975 17.12994 46.27724 17.1644 C 46.2147 17.19884 46.11476 17.25458 46.05188 17.28853 C 45.98898 17.3225 45.88734 17.37592 45.82393 17.40921 C 45.7605 17.4425 45.65895 17.49602 45.59468 17.5286 C 45.53041 17.56117 45.42572 17.61227 45.36067 17.64407 C 45.29562 17.67587 45.19121 17.72652 45.12581 17.75783 C 45.06041 17.78915 44.95497 17.83913 44.88922 17.86986 C 44.82346 17.90057 44.7184 17.9494 44.65175 17.9793 C 44.58508 18.00919 44.47624 18.05605 44.40866 18.08527 C 44.3411 18.11449 44.23268 18.16127 44.1647 18.18994 C 44.09673 18.21861 43.98708 18.26405 43.9186 18.29202 C 43.85013 18.31998 43.74008 18.3642 43.67119 18.3915 C 43.6023 18.41881 43.4919 18.46243 43.42204 18.48882 C 43.35219 18.51521 43.23822 18.55614 43.16771 18.58182 C 43.0972 18.60748 42.98468 18.64886 42.9138 18.67395 C 42.84294 18.69904 42.7281 18.7382 42.65688 18.76262 C 42.58566 18.78703 42.47246 18.82642 42.40039 18.84999 C 42.32832 18.87357 42.21019 18.90993 42.1374 18.93262 C 42.0646 18.95529 41.94899 18.99147 41.87572 19.01349 C 41.80244 19.03549 41.68327 19.07011 41.60928 19.09135 C 41.5353 19.1126 41.41663 19.14601 41.34239 19.1666 C 41.26816 19.18718 41.14923 19.22003 41.07422 19.2397 C 40.9992 19.25938 40.87756 19.2897 40.80173 19.30849 C 40.72588 19.32726 40.60382 19.3571 40.5275 19.37509 C 40.45117 19.3931 40.32811 19.42085 40.25153 19.43825 C 40.17496 19.45564 40.05293 19.4841 39.97559 19.50053 C 39.89824 19.51697 39.77225 19.54129 39.694 19.55676 C 39.61575 19.57224 39.49016 19.5973 39.41154 19.61212 C 39.33293 19.62695 39.20628 19.64957 39.12738 19.6636 C 39.04846 19.67763 38.92227 19.70021 38.84276 19.71333 C 38.76326 19.72647 38.63478 19.74638 38.55426 19.75832 C 38.47374 19.77026 38.34337 19.78831 38.2623 19.79941 C 38.18121 19.81052 38.05133 19.82802 37.9699 19.83835 C 37.88846 19.84866 37.75725 19.86433 37.67534 19.87381 C 37.59343 19.88329 37.46219 19.89816 37.37949 19.90668 C 37.29678 19.91519 37.16266 19.92761 37.0793 19.93523 C 36.99596 19.94284 36.86256 19.95496 36.77869 19.96162 C 36.69481 19.96828 36.55899 19.9775 36.47461 19.98323 C 36.39024 19.98898 36.25546 19.99829 36.17055 20.00313 C 36.08563 20.00798 35.94826 20.01463 35.86256 20.01828 C 35.77687 20.02193 35.6391 20.0269 35.55287 20.02953 C 35.46664 20.03215 35.32779 20.03558 35.24103 20.03731 C 35.15425 20.03905 35.0147 20.04135 34.92743 20.04207 C 34.84018 20.04279 34.7002 20.04291 34.6121 20.0425 C 34.524 20.04208 34.38109 20.0404 34.29247 20.03905 C 34.20384 20.03767 34.06236 20.03494 33.97325 20.03255 C 33.88414 20.03017 33.73991 20.0252 33.65015 20.02174 C 33.56038 20.01828 33.41672 20.01215 33.32617 20.00746 C 33.23561 20.00279 33.0886 19.99387 32.99744 19.98799 C 32.90628 19.98213 32.76073 19.97202 32.66914 19.96507 C 32.57758 19.95813 32.42963 19.94586 32.3374 19.93782 C 32.24516 19.9298 32.09712 19.91618 32.00433 19.90712 C 31.91156 19.89806 31.76237 19.88283 31.66869 19.8725 C 31.57501 19.86218 31.42348 19.84435 31.32915 19.83272 C 31.23482 19.82109 31.08368 19.80144 30.98874 19.7886 C 30.8938 19.77577 30.74023 19.75407 30.64487 19.74016 C 30.54951 19.72623 30.3975 19.70354 30.30142 19.68825 C 30.20535 19.67294 30.04935 19.64653 29.95238 19.62985 C 29.85541 19.61317 29.69992 19.58589 29.60246 19.56801 C 29.50499 19.55013 29.34818 19.52034 29.24994 19.50095 C 29.1517 19.48157 28.99347 19.44891 28.8944 19.42828 C 28.79532 19.40765 28.6356 19.37413 28.53581 19.35217 C 28.436 19.33022 28.27559 19.29338 28.17508 19.26999 C 28.07457 19.2466 27.91243 19.20825 27.81131 19.18347 C 27.71019 19.15869 27.54797 19.11751 27.44626 19.09135 C 27.34453 19.06519 27.18085 19.02261 27.07817 18.99489 C 26.9755 18.96718 26.80974 18.92099 26.70618 18.89153 C 26.6026 18.86206 26.43596 18.81348 26.3316 18.7825 C 26.22723 18.75154 26.059 18.70078 25.954 18.66832 C 25.84898 18.63586 25.68063 18.58266 25.57466 18.54852 C 25.46869 18.51437 25.2973 18.45815 25.19012 18.42221 C 25.08295 18.38626 24.91005 18.3271 24.80214 18.28941 C 24.69424 18.25172 24.5211 18.19 24.41243 18.15057 C 24.30374 18.11116 24.12851 18.04636 24.01881 18.00525 C 23.90912 17.96414 23.73259 17.89731 23.62175 17.8543 C 23.51091 17.81126 23.3319 17.74023 23.21992 17.69511 C 23.10794 17.65 22.92769 17.57611 22.81464 17.529 C 22.70158 17.48192 22.51897 17.40454 22.40501 17.35558 C 22.29106 17.30661 22.10846 17.22725 21.99324 17.17607 C 21.87802 17.12488 21.69121 17.04027 21.57455 16.98662 C 21.45789 16.93297 21.27019 16.84512 21.15239 16.78938 C 21.03459 16.73363 20.8444 16.64275 20.72548 16.5848 C 20.60654 16.52682 20.4155 16.43204 20.2951 16.37155 C 20.17471 16.31107 19.9801 16.21204 19.8578 16.14879 C 19.7355 16.08556 19.53752 15.98166 19.41359 15.91566 C 19.28966 15.84966 19.09003 15.74171 18.96461 15.673 C 18.8392 15.6043 18.63669 15.49197 18.50958 15.4204 C 18.38248 15.3488 18.17783 15.23193 18.0485 15.15698 C 17.91917 15.08205 17.70888 14.95834 17.57747 14.88016 C 17.44604 14.80197 17.23477 14.67499 17.10124 14.59338 C 16.96773 14.51178 16.75105 14.37723 16.61507 14.2919 C 16.4791 14.20657 16.2598 14.06761 16.12111 13.97832 C 15.98242 13.88902 15.75726 13.74208 15.61546 13.64828 C 15.47366 13.55449 15.24382 13.4005 15.09903 13.30226 C 14.95422 13.20403 14.71997 13.04332 14.57176 12.94022 C 14.42354 12.83713 14.18285 12.66771 14.03065 12.55916 C 13.87846 12.45059 13.63147 12.27238 13.47484 12.15776 C 13.31822 12.04314 13.06334 11.85423 12.90173 11.73302 C 12.74011 11.6118 12.47716 11.41246 12.31003 11.28404 C 12.1429 11.15561 11.87102 10.94432 11.69711 10.80739 C 11.5232 10.67044 11.23824 10.4436 11.05653 10.297 C 10.87482 10.15039 10.57805 9.90834 10.38739 9.75069 C 10.19672 9.59305 9.88441 9.33186 9.68234 9.1607 C 9.48029 8.98955 9.14737 8.70474 8.93103 8.51709 C 8.71469 8.32944 8.35776 8.01675 8.12305 7.80815 C 7.88835 7.59955 7.49934 7.25023 7.23936 7.0136 C 6.9794 6.77696 6.54793 6.38106 6.2493 6.10266 C 5.95067 5.82426 5.45578 5.35938 5.08707 5.00703 C 4.71834 4.65471 4.25458 4.2149 3.59178 3.56323 C 2.92899 2.91154 .31012 .31012 .31012 .31012 "/>
<path transform="matrix(2.7777777,0,0,-2.7777777,167.8111,56.780553)" stroke-width=".79701" stroke-linecap="butt" stroke-miterlimit="10" stroke-linejoin="miter" fill="none" stroke="#000000" d="M -56.69362 0 C -56.69362 0 -56.69005 -.16077 -56.68886 -.22275 C -56.68765 -.28473 -56.68643 -.38463 -56.68495 -.4468 C -56.68346 -.50896 -56.68013 -.60881 -56.67802 -.67085 C -56.67593 -.7329 -56.6727 -.83217 -56.66982 -.89404 C -56.66695 -.9559 -56.66121 -1.05492 -56.65726 -1.11679 C -56.6533 -1.17867 -56.64594 -1.278 -56.64127 -1.33998 C -56.63661 -1.40198 -56.62851 -1.50162 -56.62354 -1.56361 C -56.61856 -1.6256 -56.61089 -1.72493 -56.60536 -1.7868 C -56.59985 -1.84868 -56.59047 -1.94786 -56.58374 -2.00955 C -56.57703 -2.07124 -56.56447 -2.1697 -56.55692 -2.23145 C -56.54936 -2.2932 -56.53745 -2.39282 -56.52924 -2.45464 C -56.52103 -2.51645 -56.50629 -2.61534 -56.49767 -2.67697 C -56.48903 -2.7386 -56.47636 -2.83742 -56.46695 -2.89886 C -56.45753 -2.9603 -56.44019 -3.05843 -56.42975 -3.11987 C -56.41933 -3.18132 -56.40266 -3.28038 -56.3917 -3.34177 C -56.3807 -3.40315 -56.36241 -3.50128 -56.3506 -3.56236 C -56.33878 -3.62344 -56.31877 -3.72101 -56.30647 -3.78209 C -56.29417 -3.84317 -56.27513 -3.9416 -56.26193 -4.00269 C -56.24875 -4.06377 -56.22542 -4.16162 -56.21133 -4.22241 C -56.19724 -4.2832 -56.17493 -4.38019 -56.16028 -4.44086 C -56.14565 -4.50153 -56.1209 -4.59904 -56.10579 -4.65971 C -56.09067 -4.72038 -56.06735 -4.81767 -56.05128 -4.87816 C -56.03522 -4.93864 -56.00702 -5.03546 -55.98987 -5.0957 C -55.97272 -5.15596 -55.94516 -5.25229 -55.92758 -5.31241 C -55.91 -5.37254 -55.8812 -5.46924 -55.86313 -5.52911 C -55.84506 -5.589 -55.81621 -5.68433 -55.79738 -5.7441 C -55.77855 -5.80385 -55.74722 -5.90027 -55.72731 -5.95993 C -55.7074 -6.01958 -55.6743 -6.11462 -55.65378 -6.17403 C -55.63326 -6.23344 -55.60043 -6.32884 -55.57938 -6.38814 C -55.55833 -6.44742 -55.52356 -6.54233 -55.50195 -6.60138 C -55.48036 -6.66042 -55.44629 -6.7549 -55.42368 -6.81377 C -55.40105 -6.87262 -55.36249 -6.96707 -55.3389 -7.0257 C -55.31532 -7.0843 -55.27786 -7.17809 -55.25368 -7.23634 C -55.22949 -7.29462 -55.1893 -7.38748 -55.16458 -7.4457 C -55.13986 -7.5039 -55.10086 -7.59789 -55.07549 -7.6559 C -55.05011 -7.71393 -55.00797 -7.80643 -54.98163 -7.86397 C -54.95528 -7.9215 -54.91254 -8.01334 -54.88559 -8.07071 C -54.85866 -8.12808 -54.8149 -8.22021 -54.7874 -8.27747 C -54.75992 -8.33472 -54.71545 -8.4264 -54.6875 -8.48335 C -54.65955 -8.5403 -54.61494 -8.63124 -54.58585 -8.68794 C -54.55675 -8.74464 -54.50758 -8.83565 -54.4777 -8.8921 C -54.44785 -8.94856 -54.40092 -9.03891 -54.37045 -9.09496 C -54.33997 -9.151 -54.28899 -9.2404 -54.25798 -9.2961 C -54.22697 -9.35178 -54.17863 -9.44084 -54.14682 -9.49635 C -54.11502 -9.55185 -54.06168 -9.64087 -54.02873 -9.6962 C -53.99579 -9.75151 -53.94264 -9.84026 -53.90935 -9.89516 C -53.87607 -9.95007 -53.82253 -10.0373 -53.78868 -10.09196 C -53.75484 -10.14662 -53.69986 -10.23477 -53.6654 -10.2892 C -53.63097 -10.34361 -53.57587 -10.43039 -53.5404 -10.48428 C -53.50494 -10.53818 -53.44601 -10.62416 -53.40977 -10.67761 C -53.37354 -10.73108 -53.31589 -10.81638 -53.27916 -10.86966 C -53.24243 -10.92294 -53.18214 -11.00873 -53.14507 -11.0617 C -53.10799 -11.11469 -53.04988 -11.19904 -53.01184 -11.2516 C -52.97382 -11.30417 -52.91 -11.38847 -52.87083 -11.44063 C -52.83165 -11.49277 -52.769 -11.5758 -52.72939 -11.62747 C -52.68979 -11.67912 -52.62561 -11.76154 -52.58536 -11.81302 C -52.5451 -11.86452 -52.47984 -11.9474 -52.43916 -11.9986 C -52.39847 -12.04977 -52.33354 -12.13141 -52.2921 -12.18199 C -52.25064 -12.23257 -52.18263 -12.31293 -52.14027 -12.36322 C -52.0979 -12.4135 -52.0297 -12.49452 -51.98672 -12.54445 C -51.94377 -12.59438 -51.87384 -12.67366 -51.83058 -12.72308 C -51.78731 -12.77252 -51.71915 -12.85178 -51.67487 -12.90086 C -51.63058 -12.94995 -51.55673 -13.02837 -51.51137 -13.0769 C -51.466 -13.12544 -51.39354 -13.20247 -51.34787 -13.25078 C -51.3022 -13.29909 -51.22835 -13.37715 -51.1822 -13.42511 C -51.13608 -13.47305 -51.062 -13.54904 -51.01524 -13.59639 C -50.9685 -13.64372 -50.89308 -13.71962 -50.84526 -13.76637 C -50.79744 -13.81313 -50.71912 -13.88701 -50.67052 -13.93333 C -50.62192 -13.97966 -50.54369 -14.05426 -50.4949 -14.10028 C -50.44612 -14.1463 -50.36813 -14.21954 -50.31886 -14.26509 C -50.26959 -14.31064 -50.19008 -14.38365 -50.1398 -14.42859 C -50.08951 -14.47353 -50.00746 -14.54465 -49.9564 -14.58905 C -49.90533 -14.63347 -49.8233 -14.70462 -49.7717 -14.74866 C -49.72008 -14.79271 -49.63643 -14.8629 -49.58441 -14.90654 C -49.53238 -14.95016 -49.44945 -15.0201 -49.3967 -15.06311 C -49.34395 -15.10614 -49.25792 -15.17424 -49.20421 -15.21667 C -49.1505 -15.2591 -49.06381 -15.32704 -49.00957 -15.36891 C -48.95534 -15.4108 -48.8678 -15.47717 -48.8132 -15.51859 C -48.75859 -15.56 -48.6711 -15.62639 -48.61597 -15.66737 C -48.56082 -15.70836 -48.47192 -15.77356 -48.4157 -15.814 C -48.35947 -15.85445 -48.26755 -15.91907 -48.21066 -15.95891 C -48.15378 -15.99875 -48.06306 -16.0621 -48.00565 -16.10121 C -47.94823 -16.14034 -47.85445 -16.20227 -47.79674 -16.24092 C -47.73901 -16.27956 -47.64812 -16.34166 -47.58954 -16.37976 C -47.53098 -16.41786 -47.43404 -16.47809 -47.37457 -16.5156 C -47.3151 -16.55309 -47.2209 -16.61314 -47.16089 -16.6501 C -47.10089 -16.68706 -47.00276 -16.74565 -46.94203 -16.78201 C -46.8813 -16.81837 -46.78413 -16.8764 -46.72316 -16.91222 C -46.6622 -16.94804 -46.56444 -17.00528 -46.50256 -17.04025 C -46.4407 -17.07524 -46.33975 -17.12994 -46.27724 -17.1644 C -46.2147 -17.19884 -46.11476 -17.25458 -46.05188 -17.28853 C -45.98898 -17.3225 -45.88734 -17.37592 -45.82393 -17.40921 C -45.7605 -17.4425 -45.65895 -17.49602 -45.59468 -17.5286 C -45.53041 -17.56117 -45.42572 -17.61227 -45.36067 -17.64407 C -45.29562 -17.67587 -45.19121 -17.72652 -45.12581 -17.75783 C -45.06041 -17.78915 -44.95497 -17.83913 -44.88922 -17.86986 C -44.82346 -17.90057 -44.7184 -17.9494 -44.65175 -17.9793 C -44.58508 -18.00919 -44.47624 -18.05605 -44.40866 -18.08527 C -44.3411 -18.11449 -44.23268 -18.16127 -44.1647 -18.18994 C -44.09673 -18.21861 -43.98708 -18.26405 -43.9186 -18.29202 C -43.85013 -18.31998 -43.74008 -18.3642 -43.67119 -18.3915 C -43.6023 -18.41881 -43.4919 -18.46243 -43.42204 -18.48882 C -43.35219 -18.51521 -43.23822 -18.55614 -43.16771 -18.58182 C -43.0972 -18.60748 -42.98468 -18.64886 -42.9138 -18.67395 C -42.84294 -18.69904 -42.7281 -18.7382 -42.65688 -18.76262 C -42.58566 -18.78703 -42.47246 -18.82642 -42.40039 -18.84999 C -42.32832 -18.87357 -42.21019 -18.90993 -42.1374 -18.93262 C -42.0646 -18.95529 -41.94899 -18.99147 -41.87572 -19.01349 C -41.80244 -19.03549 -41.68327 -19.07011 -41.60928 -19.09135 C -41.5353 -19.1126 -41.41663 -19.14601 -41.34239 -19.1666 C -41.26816 -19.18718 -41.14923 -19.22003 -41.07422 -19.2397 C -40.9992 -19.25938 -40.87756 -19.2897 -40.80173 -19.30849 C -40.72588 -19.32726 -40.60382 -19.3571 -40.5275 -19.37509 C -40.45117 -19.3931 -40.32811 -19.42085 -40.25153 -19.43825 C -40.17496 -19.45564 -40.05293 -19.4841 -39.97559 -19.50053 C -39.89824 -19.51697 -39.77225 -19.54129 -39.694 -19.55676 C -39.61575 -19.57224 -39.49016 -19.5973 -39.41154 -19.61212 C -39.33293 -19.62695 -39.20628 -19.64957 -39.12738 -19.6636 C -39.04846 -19.67763 -38.92227 -19.70021 -38.84276 -19.71333 C -38.76326 -19.72647 -38.63478 -19.74638 -38.55426 -19.75832 C -38.47374 -19.77026 -38.34337 -19.78831 -38.2623 -19.79941 C -38.18121 -19.81052 -38.05133 -19.82802 -37.9699 -19.83835 C -37.88846 -19.84866 -37.75725 -19.86433 -37.67534 -19.87381 C -37.59343 -19.88329 -37.46219 -19.89816 -37.37949 -19.90668 C -37.29678 -19.91519 -37.16266 -19.92761 -37.0793 -19.93523 C -36.99596 -19.94284 -36.86256 -19.95496 -36.77869 -19.96162 C -36.69481 -19.96828 -36.55899 -19.9775 -36.47461 -19.98323 C -36.39024 -19.98898 -36.25546 -19.99829 -36.17055 -20.00313 C -36.08563 -20.00798 -35.94826 -20.01463 -35.86256 -20.01828 C -35.77687 -20.02193 -35.6391 -20.0269 -35.55287 -20.02953 C -35.46664 -20.03215 -35.32779 -20.03558 -35.24103 -20.03731 C -35.15425 -20.03905 -35.0147 -20.04135 -34.92743 -20.04207 C -34.84018 -20.04279 -34.7002 -20.04291 -34.6121 -20.0425 C -34.524 -20.04208 -34.38109 -20.0404 -34.29247 -20.03905 C -34.20384 -20.03767 -34.06236 -20.03494 -33.97325 -20.03255 C -33.88414 -20.03017 -33.73991 -20.0252 -33.65015 -20.02174 C -33.56038 -20.01828 -33.41672 -20.01215 -33.32617 -20.00746 C -33.23561 -20.00279 -33.0886 -19.99387 -32.99744 -19.98799 C -32.90628 -19.98213 -32.76073 -19.97202 -32.66914 -19.96507 C -32.57758 -19.95813 -32.42963 -19.94586 -32.3374 -19.93782 C -32.24516 -19.9298 -32.09712 -19.91618 -32.00433 -19.90712 C -31.91156 -19.89806 -31.76237 -19.88283 -31.66869 -19.8725 C -31.57501 -19.86218 -31.42348 -19.84435 -31.32915 -19.83272 C -31.23482 -19.82109 -31.08368 -19.80144 -30.98874 -19.7886 C -30.8938 -19.77577 -30.74023 -19.75407 -30.64487 -19.74016 C -30.54951 -19.72623 -30.3975 -19.70354 -30.30142 -19.68825 C -30.20535 -19.67294 -30.04935 -19.64653 -29.95238 -19.62985 C -29.85541 -19.61317 -29.69992 -19.58589 -29.60246 -19.56801 C -29.50499 -19.55013 -29.34818 -19.52034 -29.24994 -19.50095 C -29.1517 -19.48157 -28.99347 -19.44891 -28.8944 -19.42828 C -28.79532 -19.40765 -28.6356 -19.37413 -28.53581 -19.35217 C -28.436 -19.33022 -28.27559 -19.29338 -28.17508 -19.26999 C -28.07457 -19.2466 -27.91243 -19.20825 -27.81131 -19.18347 C -27.71019 -19.15869 -27.54797 -19.11751 -27.44626 -19.09135 C -27.34453 -19.06519 -27.18085 -19.02261 -27.07817 -18.99489 C -26.9755 -18.96718 -26.80974 -18.92099 -26.70618 -18.89153 C -26.6026 -18.86206 -26.43596 -18.81348 -26.3316 -18.7825 C -26.22723 -18.75154 -26.059 -18.70078 -25.954 -18.66832 C -25.84898 -18.63586 -25.68063 -18.58266 -25.57466 -18.54852 C -25.46869 -18.51437 -25.2973 -18.45815 -25.19012 -18.42221 C -25.08295 -18.38626 -24.91005 -18.3271 -24.80214 -18.28941 C -24.69424 -18.25172 -24.5211 -18.19 -24.41243 -18.15057 C -24.30374 -18.11116 -24.12851 -18.04636 -24.01881 -18.00525 C -23.90912 -17.96414 -23.73259 -17.89731 -23.62175 -17.8543 C -23.51091 -17.81126 -23.3319 -17.74023 -23.21992 -17.69511 C -23.10794 -17.65 -22.92769 -17.57611 -22.81464 -17.529 C -22.70158 -17.48192 -22.51897 -17.40454 -22.40501 -17.35558 C -22.29106 -17.30661 -22.10846 -17.22725 -21.99324 -17.17607 C -21.87802 -17.12488 -21.69121 -17.04027 -21.57455 -16.98662 C -21.45789 -16.93297 -21.27019 -16.84512 -21.15239 -16.78938 C -21.03459 -16.73363 -20.8444 -16.64275 -20.72548 -16.5848 C -20.60654 -16.52682 -20.4155 -16.43204 -20.2951 -16.37155 C -20.17471 -16.31107 -19.9801 -16.21204 -19.8578 -16.14879 C -19.7355 -16.08556 -19.53752 -15.98166 -19.41359 -15.91566 C -19.28966 -15.84966 -19.09003 -15.74171 -18.96461 -15.673 C -18.8392 -15.6043 -18.63669 -15.49197 -18.50958 -15.4204 C -18.38248 -15.3488 -18.17783 -15.23193 -18.0485 -15.15698 C -17.91917 -15.08205 -17.70888 -14.95834 -17.57747 -14.88016 C -17.44604 -14.80197 -17.23477 -14.67499 -17.10124 -14.59338 C -16.96773 -14.51178 -16.75105 -14.37723 -16.61507 -14.2919 C -16.4791 -14.20657 -16.2598 -14.06761 -16.12111 -13.97832 C -15.98242 -13.88902 -15.75726 -13.74208 -15.61546 -13.64828 C -15.47366 -13.55449 -15.24382 -13.4005 -15.09903 -13.30226 C -14.95422 -13.20403 -14.71997 -13.04332 -14.57176 -12.94022 C -14.42354 -12.83713 -14.18285 -12.66771 -14.03065 -12.55916 C -13.87846 -12.45059 -13.63147 -12.27238 -13.47484 -12.15776 C -13.31822 -12.04314 -13.06334 -11.85423 -12.90173 -11.73302 C -12.74011 -11.6118 -12.47716 -11.41246 -12.31003 -11.28404 C -12.1429 -11.15561 -11.87102 -10.94432 -11.69711 -10.80739 C -11.5232 -10.67044 -11.23824 -10.4436 -11.05653 -10.297 C -10.87482 -10.15039 -10.57805 -9.90834 -10.38739 -9.75069 C -10.19672 -9.59305 -9.88441 -9.33186 -9.68234 -9.1607 C -9.48029 -8.98955 -9.14737 -8.70474 -8.93103 -8.51709 C -8.71469 -8.32944 -8.35776 -8.01675 -8.12305 -7.80815 C -7.88835 -7.59955 -7.49934 -7.25023 -7.23936 -7.0136 C -6.9794 -6.77696 -6.54793 -6.38106 -6.2493 -6.10266 C -5.95067 -5.82426 -5.45578 -5.35938 -5.08707 -5.00703 C -4.71834 -4.65471 -4.25458 -4.2149 -3.59178 -3.56323 C -2.92899 -2.91154 -.31012 -.31012 -.31012 -.31012 "/>
<path transform="matrix(2.7777777,0,0,-2.7777777,167.8111,56.780553)" stroke-width=".79701" stroke-linecap="butt" stroke-miterlimit="10" stroke-linejoin="miter" fill="none" stroke="#000000" d="M 0 0 C 0 0 2.87045 -2.85335 3.57448 -3.54637 C 4.2785 -4.2394 4.70465 -4.64189 5.0741 -4.99493 C 5.44353 -5.34799 5.93777 -5.81175 6.23718 -6.09099 C 6.53659 -6.37021 6.97144 -6.7703 7.23201 -7.00752 C 7.49258 -7.24475 7.88039 -7.59209 8.11526 -7.80081 C 8.35014 -8.00954 8.70857 -8.32407 8.92497 -8.5119 C 9.14137 -8.69974 9.47285 -8.98338 9.67499 -9.15465 C 9.8771 -9.32591 10.19081 -9.58841 10.38176 -9.74635 C 10.57271 -9.90431 10.8699 -10.14665 11.05133 -10.29309 C 11.23274 -10.43951 11.5156 -10.66493 11.68933 -10.80176 C 11.86305 -10.9386 12.13615 -11.15062 12.30353 -11.27928 C 12.4709 -11.40796 12.73407 -11.60791 12.89568 -11.72913 C 13.0573 -11.85034 13.31166 -12.03844 13.46835 -12.153 C 13.62505 -12.26756 13.87267 -12.44615 14.02504 -12.55484 C 14.1774 -12.66351 14.4181 -12.83301 14.56657 -12.93633 C 14.71504 -13.03966 14.95033 -13.20135 15.09514 -13.29965 C 15.23993 -13.39795 15.4686 -13.5511 15.61028 -13.64484 C 15.75197 -13.73857 15.9776 -13.88588 16.11635 -13.9753 C 16.2551 -14.06471 16.47446 -14.2041 16.6103 -14.2893 C 16.74617 -14.37451 16.96198 -14.50777 17.09563 -14.5895 C 17.22926 -14.67122 17.44215 -14.80019 17.57358 -14.87843 C 17.70499 -14.95667 17.9136 -15.07877 18.04288 -15.15352 C 18.17213 -15.22829 18.37785 -15.3456 18.50525 -15.41737 C 18.63266 -15.48914 18.83566 -15.60205 18.96115 -15.67084 C 19.08662 -15.73961 19.28589 -15.8471 19.4097 -15.91306 C 19.53351 -15.979 19.73117 -16.08284 19.85347 -16.1462 C 19.97577 -16.20956 20.1707 -16.30933 20.29121 -16.36981 C 20.41171 -16.43031 20.60303 -16.52417 20.72202 -16.58218 C 20.84102 -16.64021 21.03113 -16.73228 21.14893 -16.78809 C 21.26672 -16.84389 21.45448 -16.93092 21.57108 -16.98445 C 21.68768 -17.03798 21.87413 -17.12267 21.98935 -17.1739 C 22.10457 -17.22516 22.28749 -17.30475 22.40157 -17.35384 C 22.51564 -17.40292 22.69855 -17.48062 22.81161 -17.52773 C 22.92467 -17.57481 23.10455 -17.64832 23.21648 -17.69337 C 23.32838 -17.73843 23.50745 -17.80936 23.61829 -17.85255 C 23.72913 -17.89577 23.90567 -17.96358 24.01537 -18.0048 C 24.12506 -18.04604 24.30023 -18.11047 24.40897 -18.1497 C 24.51772 -18.18895 24.69121 -18.25006 24.79912 -18.28769 C 24.90701 -18.3253 25.07956 -18.38486 25.18668 -18.42091 C 25.2938 -18.45697 25.46523 -18.51357 25.5712 -18.54765 C 25.67717 -18.58174 25.84552 -18.63414 25.95053 -18.6666 C 26.05554 -18.69905 26.22372 -18.75064 26.32814 -18.78166 C 26.43257 -18.81267 26.59946 -18.86081 26.70316 -18.89021 C 26.80684 -18.91962 26.973 -18.96588 27.07556 -18.99359 C 27.17812 -19.0213 27.3407 -19.06389 27.44237 -19.09004 C 27.54402 -19.11621 27.70712 -19.15723 27.80829 -19.18219 C 27.90945 -19.20714 28.0711 -19.24648 28.17162 -19.26999 C 28.27213 -19.2935 28.43304 -19.32977 28.53278 -19.35173 C 28.63252 -19.37369 28.79155 -19.4077 28.8905 -19.42828 C 28.98946 -19.44887 29.14781 -19.48083 29.24605 -19.5001 C 29.34428 -19.51936 29.50098 -19.54927 29.59856 -19.56714 C 29.69615 -19.58502 29.85219 -19.61218 29.94936 -19.62898 C 30.04651 -19.64578 30.20265 -19.67288 30.29884 -19.68825 C 30.39503 -19.7036 30.54741 -19.72586 30.64272 -19.73972 C 30.738 -19.75357 30.89096 -19.77545 30.98572 -19.78816 C 31.08047 -19.80087 31.23155 -19.81984 31.32568 -19.83142 C 31.41983 -19.84299 31.57068 -19.86115 31.66437 -19.87164 C 31.75804 -19.88213 31.90791 -19.898 32.00087 -19.90712 C 32.09383 -19.91624 32.24207 -19.92937 32.33435 -19.9374 C 32.42665 -19.94542 32.57455 -19.95811 32.66612 -19.96507 C 32.7577 -19.97203 32.90332 -19.9817 32.99442 -19.98756 C 33.0855 -19.99344 33.23228 -20.0028 33.32271 -20.00746 C 33.41315 -20.01213 33.55655 -20.0179 33.64626 -20.0213 C 33.73596 -20.0247 33.88 -20.02966 33.96936 -20.0321 C 34.05872 -20.03456 34.20161 -20.03755 34.2903 -20.03905 C 34.379 -20.04053 34.52061 -20.04259 34.60864 -20.04294 C 34.69669 -20.04329 34.83746 -20.0424 34.92484 -20.04163 C 35.0122 -20.04085 35.15164 -20.03899 35.23842 -20.03731 C 35.3252 -20.03564 35.46405 -20.03221 35.55028 -20.02953 C 35.6365 -20.02684 35.77429 -20.02142 35.85999 -20.01784 C 35.94568 -20.01425 36.08292 -20.00824 36.16795 -20.00357 C 36.25298 -19.99892 36.38846 -19.98991 36.47289 -19.9841 C 36.55731 -19.9783 36.69275 -19.96834 36.77652 -19.96162 C 36.8603 -19.9549 36.99347 -19.94327 37.0767 -19.93565 C 37.15994 -19.92804 37.29382 -19.91519 37.37646 -19.90668 C 37.45909 -19.89816 37.59041 -19.88365 37.67232 -19.87424 C 37.75423 -19.86482 37.88533 -19.84903 37.96687 -19.83878 C 38.04842 -19.8285 38.17912 -19.81143 38.26013 -19.80028 C 38.34114 -19.78912 38.47034 -19.77032 38.5508 -19.75832 C 38.63126 -19.74632 38.76048 -19.72678 38.84016 -19.71376 C 38.91986 -19.70076 39.0463 -19.6785 39.1252 -19.66446 C 39.20412 -19.65044 39.3304 -19.62744 39.40895 -19.61255 C 39.4875 -19.59767 39.6131 -19.57266 39.6914 -19.55719 C 39.7697 -19.54172 39.89606 -19.51738 39.97342 -19.50095 C 40.05077 -19.48453 40.17244 -19.45605 40.24895 -19.43867 C 40.32545 -19.42128 40.44856 -19.39352 40.52489 -19.37552 C 40.60123 -19.35753 40.72328 -19.32762 40.79913 -19.30891 C 40.875 -19.29019 40.9965 -19.26018 41.07164 -19.24057 C 41.14676 -19.22096 41.26637 -19.18816 41.34067 -19.16747 C 41.41495 -19.14677 41.53325 -19.11253 41.6071 -19.09135 C 41.68097 -19.07018 41.79985 -19.0367 41.87312 -19.0148 C 41.9464 -18.99289 42.06245 -18.95633 42.13524 -18.93346 C 42.20802 -18.9106 42.32578 -18.87363 42.3978 -18.84999 C 42.4698 -18.82635 42.583 -18.78734 42.65428 -18.76305 C 42.72557 -18.73875 42.84071 -18.69978 42.91165 -18.67482 C 42.98259 -18.64986 43.09503 -18.60892 43.16554 -18.58311 C 43.23604 -18.55733 43.3501 -18.51521 43.41988 -18.48882 C 43.48967 -18.46243 43.5997 -18.41998 43.6686 -18.3928 C 43.73747 -18.36563 43.84802 -18.32089 43.91643 -18.29288 C 43.98483 -18.26486 44.09369 -18.21942 44.16168 -18.1908 C 44.22966 -18.16217 44.33891 -18.11584 44.4065 -18.08656 C 44.47406 -18.05728 44.5821 -18.00972 44.64871 -17.97972 C 44.71533 -17.94972 44.82066 -17.90083 44.88661 -17.8703 C 44.95256 -17.83975 45.05861 -17.79076 45.12408 -17.75957 C 45.18956 -17.72838 45.29347 -17.67729 45.35852 -17.64537 C 45.42357 -17.61345 45.52873 -17.56203 45.59294 -17.52945 C 45.65717 -17.49687 45.7579 -17.44379 45.82132 -17.41049 C 45.88475 -17.37721 45.98714 -17.3233 46.05014 -17.2894 C 46.11316 -17.2555 46.21284 -17.20058 46.2755 -17.16612 C 46.33815 -17.13168 46.43974 -17.07616 46.50172 -17.04112 C 46.56369 -17.00609 46.6614 -16.94933 46.7223 -16.91351 C 46.7832 -16.8777 46.88037 -16.8193 46.94073 -16.78288 C 47.0011 -16.74646 47.09744 -16.68773 47.15744 -16.65096 C 47.21744 -16.61418 47.31369 -16.55519 47.37328 -16.51775 C 47.43288 -16.4803 47.52843 -16.41916 47.58694 -16.38107 C 47.64546 -16.34297 47.73709 -16.28178 47.795 -16.24307 C 47.8529 -16.20438 47.94687 -16.14137 48.00435 -16.10208 C 48.06183 -16.06279 48.1526 -15.99944 48.20937 -15.95978 C 48.26614 -15.9201 48.35724 -15.85643 48.41353 -15.81618 C 48.46983 -15.77592 48.55978 -15.71065 48.6151 -15.66954 C 48.67043 -15.62843 48.75784 -15.56139 48.81233 -15.51987 C 48.8668 -15.47836 48.95378 -15.41217 49.00784 -15.37022 C 49.0619 -15.32828 49.14828 -15.2599 49.20204 -15.21754 C 49.25581 -15.17517 49.34259 -15.1078 49.39539 -15.06485 C 49.44818 -15.02188 49.5306 -14.95148 49.58267 -14.90784 C 49.63475 -14.86421 49.71928 -14.79443 49.77083 -14.7504 C 49.82237 -14.70636 49.90323 -14.63481 49.95422 -14.59035 C 50.00523 -14.54588 50.08807 -14.47481 50.13849 -14.42987 C 50.1889 -14.38493 50.26823 -14.31192 50.31757 -14.26637 C 50.3669 -14.22084 50.44525 -14.14749 50.49403 -14.1016 C 50.54282 -14.0557 50.6208 -13.98181 50.66922 -13.9355 C 50.71764 -13.88918 50.79509 -13.81453 50.8431 -13.76767 C 50.89111 -13.7208 50.96826 -13.64502 51.01524 -13.59767 C 51.06224 -13.55034 51.13564 -13.47417 51.18176 -13.42639 C 51.2279 -13.37863 51.30244 -13.30156 51.34787 -13.25339 C 51.3933 -13.2052 51.46414 -13.12767 51.5092 -13.07907 C 51.55426 -13.03047 51.62817 -12.95222 51.6727 -12.90302 C 51.71722 -12.8538 51.78676 -12.77382 51.83015 -12.72438 C 51.87354 -12.67494 51.94264 -12.5964 51.98543 -12.54662 C 52.0282 -12.49681 52.09625 -12.4158 52.13855 -12.36539 C 52.18086 -12.31497 52.24873 -12.23398 52.29037 -12.18329 C 52.33202 -12.13258 52.39793 -12.05089 52.43874 -11.9999 C 52.47954 -11.94888 52.54446 -11.86711 52.58449 -11.81563 C 52.62451 -11.76413 52.68776 -11.6805 52.72723 -11.62877 C 52.76671 -11.57706 52.82986 -11.49474 52.8691 -11.44278 C 52.90834 -11.39082 52.97195 -11.30687 53.01012 -11.25418 C 53.04826 -11.20149 53.10712 -11.11604 53.1442 -11.063 C 53.18127 -11.00996 53.24088 -10.92511 53.27742 -10.87183 C 53.31396 -10.81854 53.37137 -10.7325 53.40761 -10.67891 C 53.44385 -10.62532 53.5031 -10.53946 53.53867 -10.48557 C 53.57425 -10.43169 53.62965 -10.34474 53.66411 -10.2905 C 53.69855 -10.23627 53.75305 -10.14923 53.78694 -10.09456 C 53.82085 -10.0399 53.87508 -9.95154 53.9085 -9.89645 C 53.9419 -9.84135 53.99493 -9.75262 54.02786 -9.69748 C 54.0608 -9.64235 54.11409 -9.5544 54.14597 -9.49895 C 54.17783 -9.44351 54.22678 -9.3537 54.25755 -9.29782 C 54.28835 -9.24196 54.33743 -9.15237 54.36784 -9.09627 C 54.39827 -9.04015 54.44696 -8.94986 54.47684 -8.89339 C 54.50673 -8.83693 54.55429 -8.7459 54.58325 -8.68924 C 54.61223 -8.6326 54.65756 -8.54196 54.68576 -8.48508 C 54.71396 -8.42819 54.75894 -8.33632 54.78654 -8.27919 C 54.81413 -8.22206 54.85773 -8.13066 54.88474 -8.0733 C 54.91173 -8.01595 54.95471 -7.92342 54.98119 -7.86569 C 55.00764 -7.80797 55.05017 -7.7151 55.07549 -7.6572 C 55.1008 -7.59929 55.13911 -7.50644 55.16371 -7.44829 C 55.18831 -7.39015 55.22852 -7.29648 55.2528 -7.23808 C 55.2771 -7.17969 55.3152 -7.08594 55.3389 -7.02742 C 55.36261 -6.96892 55.40111 -6.87527 55.42368 -6.81635 C 55.44623 -6.75743 55.48012 -6.66185 55.50154 -6.60268 C 55.52295 -6.54352 55.55704 -6.4491 55.5781 -6.38988 C 55.59915 -6.33064 55.6327 -6.23523 55.65335 -6.17577 C 55.674 -6.1163 55.70691 -6.02075 55.72688 -5.96123 C 55.74686 -5.90169 55.77867 -5.8065 55.79738 -5.74669 C 55.81609 -5.68687 55.8439 -5.58998 55.86183 -5.52998 C 55.87978 -5.46999 55.90903 -5.37415 55.92671 -5.31415 C 55.94441 -5.25415 55.9722 -5.15756 55.98943 -5.09744 C 56.00665 -5.03732 56.03473 -4.94116 56.05086 -4.88074 C 56.06699 -4.82031 56.09079 -4.72255 56.10579 -4.66188 C 56.12077 -4.60121 56.14447 -4.50418 56.15898 -4.44345 C 56.17351 -4.38272 56.1963 -4.28506 56.21046 -4.22415 C 56.22461 -4.16324 56.2477 -4.06538 56.26106 -4.00443 C 56.27444 -3.94347 56.29462 -3.84578 56.30692 -3.7847 C 56.31921 -3.72362 56.33818 -3.6253 56.34975 -3.5641 C 56.36131 -3.5029 56.37918 -3.40477 56.3904 -3.3435 C 56.40161 -3.28224 56.42007 -3.18393 56.43062 -3.12248 C 56.44116 -3.06104 56.45723 -2.96216 56.46652 -2.90059 C 56.47581 -2.83902 56.48909 -2.74031 56.49767 -2.67868 C 56.50623 -2.61707 56.52017 -2.51807 56.52838 -2.45638 C 56.53659 -2.39468 56.54924 -2.29579 56.55692 -2.23404 C 56.56459 -2.17229 56.57715 -2.0731 56.58374 -2.01129 C 56.59035 -1.94948 56.59898 -1.8504 56.60449 -1.78853 C 56.61002 -1.72667 56.61844 -1.62721 56.62354 -1.56534 C 56.62862 -1.50346 56.63661 -1.40446 56.64127 -1.34259 C 56.64594 -1.28072 56.6533 -1.18126 56.65726 -1.11938 C 56.66121 -1.05751 56.66695 -.95862 56.66982 -.89664 C 56.6727 -.83466 56.67593 -.73476 56.67802 -.67259 C 56.68013 -.61043 56.68346 -.51057 56.68495 -.44853 C 56.68643 -.38647 56.68784 -.28737 56.68886 -.22533 C 56.68987 -.1633 56.6923 -.00128 56.6923 -.00128 "/>
<path transform="matrix(2.7777777,0,0,-2.7777777,167.8111,56.780553)" stroke-width=".79701" stroke-linecap="butt" stroke-miterlimit="10" stroke-linejoin="miter" fill="none" stroke="#000000" d="M 0 0 C 0 0 -2.87045 2.85335 -3.57448 3.54637 C -4.2785 4.2394 -4.70465 4.64189 -5.0741 4.99493 C -5.44353 5.34799 -5.93777 5.81175 -6.23718 6.09099 C -6.53659 6.37021 -6.97144 6.7703 -7.23201 7.00752 C -7.49258 7.24475 -7.88039 7.59209 -8.11526 7.80081 C -8.35014 8.00954 -8.70857 8.32407 -8.92497 8.5119 C -9.14137 8.69974 -9.47285 8.98338 -9.67499 9.15465 C -9.8771 9.32591 -10.19081 9.58841 -10.38176 9.74635 C -10.57271 9.90431 -10.8699 10.14665 -11.05133 10.29309 C -11.23274 10.43951 -11.5156 10.66493 -11.68933 10.80176 C -11.86305 10.9386 -12.13615 11.15062 -12.30353 11.27928 C -12.4709 11.40796 -12.73407 11.60791 -12.89568 11.72913 C -13.0573 11.85034 -13.31166 12.03844 -13.46835 12.153 C -13.62505 12.26756 -13.87267 12.44615 -14.02504 12.55484 C -14.1774 12.66351 -14.4181 12.83301 -14.56657 12.93633 C -14.71504 13.03966 -14.95033 13.20135 -15.09514 13.29965 C -15.23993 13.39795 -15.4686 13.5511 -15.61028 13.64484 C -15.75197 13.73857 -15.9776 13.88588 -16.11635 13.9753 C -16.2551 14.06471 -16.47446 14.2041 -16.6103 14.2893 C -16.74617 14.37451 -16.96198 14.50777 -17.09563 14.5895 C -17.22926 14.67122 -17.44215 14.80019 -17.57358 14.87843 C -17.70499 14.95667 -17.9136 15.07877 -18.04288 15.15352 C -18.17213 15.22829 -18.37785 15.3456 -18.50525 15.41737 C -18.63266 15.48914 -18.83566 15.60205 -18.96115 15.67084 C -19.08662 15.73961 -19.28589 15.8471 -19.4097 15.91306 C -19.53351 15.979 -19.73117 16.08284 -19.85347 16.1462 C -19.97577 16.20956 -20.1707 16.30933 -20.29121 16.36981 C -20.41171 16.43031 -20.60303 16.52417 -20.72202 16.58218 C -20.84102 16.64021 -21.03113 16.73228 -21.14893 16.78809 C -21.26672 16.84389 -21.45448 16.93092 -21.57108 16.98445 C -21.68768 17.03798 -21.87413 17.12267 -21.98935 17.1739 C -22.10457 17.22516 -22.28749 17.30475 -22.40157 17.35384 C -22.51564 17.40292 -22.69855 17.48062 -22.81161 17.52773 C -22.92467 17.57481 -23.10455 17.64832 -23.21648 17.69337 C -23.32838 17.73843 -23.50745 17.80936 -23.61829 17.85255 C -23.72913 17.89577 -23.90567 17.96358 -24.01537 18.0048 C -24.12506 18.04604 -24.30023 18.11047 -24.40897 18.1497 C -24.51772 18.18895 -24.69121 18.25006 -24.79912 18.28769 C -24.90701 18.3253 -25.07956 18.38486 -25.18668 18.42091 C -25.2938 18.45697 -25.46523 18.51357 -25.5712 18.54765 C -25.67717 18.58174 -25.84552 18.63414 -25.95053 18.6666 C -26.05554 18.69905 -26.22372 18.75064 -26.32814 18.78166 C -26.43257 18.81267 -26.59946 18.86081 -26.70316 18.89021 C -26.80684 18.91962 -26.973 18.96588 -27.07556 18.99359 C -27.17812 19.0213 -27.3407 19.06389 -27.44237 19.09004 C -27.54402 19.11621 -27.70712 19.15723 -27.80829 19.18219 C -27.90945 19.20714 -28.0711 19.24648 -28.17162 19.26999 C -28.27213 19.2935 -28.43304 19.32977 -28.53278 19.35173 C -28.63252 19.37369 -28.79155 19.4077 -28.8905 19.42828 C -28.98946 19.44887 -29.14781 19.48083 -29.24605 19.5001 C -29.34428 19.51936 -29.50098 19.54927 -29.59856 19.56714 C -29.69615 19.58502 -29.85219 19.61218 -29.94936 19.62898 C -30.04651 19.64578 -30.20265 19.67288 -30.29884 19.68825 C -30.39503 19.7036 -30.54741 19.72586 -30.64272 19.73972 C -30.738 19.75357 -30.89096 19.77545 -30.98572 19.78816 C -31.08047 19.80087 -31.23155 19.81984 -31.32568 19.83142 C -31.41983 19.84299 -31.57068 19.86115 -31.66437 19.87164 C -31.75804 19.88213 -31.90791 19.898 -32.00087 19.90712 C -32.09383 19.91624 -32.24207 19.92937 -32.33435 19.9374 C -32.42665 19.94542 -32.57455 19.95811 -32.66612 19.96507 C -32.7577 19.97203 -32.90332 19.9817 -32.99442 19.98756 C -33.0855 19.99344 -33.23228 20.0028 -33.32271 20.00746 C -33.41315 20.01213 -33.55655 20.0179 -33.64626 20.0213 C -33.73596 20.0247 -33.88 20.02966 -33.96936 20.0321 C -34.05872 20.03456 -34.20161 20.03755 -34.2903 20.03905 C -34.379 20.04053 -34.52061 20.04259 -34.60864 20.04294 C -34.69669 20.04329 -34.83746 20.0424 -34.92484 20.04163 C -35.0122 20.04085 -35.15164 20.03899 -35.23842 20.03731 C -35.3252 20.03564 -35.46405 20.03221 -35.55028 20.02953 C -35.6365 20.02684 -35.77429 20.02142 -35.85999 20.01784 C -35.94568 20.01425 -36.08292 20.00824 -36.16795 20.00357 C -36.25298 19.99892 -36.38846 19.98991 -36.47289 19.9841 C -36.55731 19.9783 -36.69275 19.96834 -36.77652 19.96162 C -36.8603 19.9549 -36.99347 19.94327 -37.0767 19.93565 C -37.15994 19.92804 -37.29382 19.91519 -37.37646 19.90668 C -37.45909 19.89816 -37.59041 19.88365 -37.67232 19.87424 C -37.75423 19.86482 -37.88533 19.84903 -37.96687 19.83878 C -38.04842 19.8285 -38.17912 19.81143 -38.26013 19.80028 C -38.34114 19.78912 -38.47034 19.77032 -38.5508 19.75832 C -38.63126 19.74632 -38.76048 19.72678 -38.84016 19.71376 C -38.91986 19.70076 -39.0463 19.6785 -39.1252 19.66446 C -39.20412 19.65044 -39.3304 19.62744 -39.40895 19.61255 C -39.4875 19.59767 -39.6131 19.57266 -39.6914 19.55719 C -39.7697 19.54172 -39.89606 19.51738 -39.97342 19.50095 C -40.05077 19.48453 -40.17244 19.45605 -40.24895 19.43867 C -40.32545 19.42128 -40.44856 19.39352 -40.52489 19.37552 C -40.60123 19.35753 -40.72328 19.32762 -40.79913 19.30891 C -40.875 19.29019 -40.9965 19.26018 -41.07164 19.24057 C -41.14676 19.22096 -41.26637 19.18816 -41.34067 19.16747 C -41.41495 19.14677 -41.53325 19.11253 -41.6071 19.09135 C -41.68097 19.07018 -41.79985 19.0367 -41.87312 19.0148 C -41.9464 18.99289 -42.06245 18.95633 -42.13524 18.93346 C -42.20802 18.9106 -42.32578 18.87363 -42.3978 18.84999 C -42.4698 18.82635 -42.583 18.78734 -42.65428 18.76305 C -42.72557 18.73875 -42.84071 18.69978 -42.91165 18.67482 C -42.98259 18.64986 -43.09503 18.60892 -43.16554 18.58311 C -43.23604 18.55733 -43.3501 18.51521 -43.41988 18.48882 C -43.48967 18.46243 -43.5997 18.41998 -43.6686 18.3928 C -43.73747 18.36563 -43.84802 18.32089 -43.91643 18.29288 C -43.98483 18.26486 -44.09369 18.21942 -44.16168 18.1908 C -44.22966 18.16217 -44.33891 18.11584 -44.4065 18.08656 C -44.47406 18.05728 -44.5821 18.00972 -44.64871 17.97972 C -44.71533 17.94972 -44.82066 17.90083 -44.88661 17.8703 C -44.95256 17.83975 -45.05861 17.79076 -45.12408 17.75957 C -45.18956 17.72838 -45.29347 17.67729 -45.35852 17.64537 C -45.42357 17.61345 -45.52873 17.56203 -45.59294 17.52945 C -45.65717 17.49687 -45.7579 17.44379 -45.82132 17.41049 C -45.88475 17.37721 -45.98714 17.3233 -46.05014 17.2894 C -46.11316 17.2555 -46.21284 17.20058 -46.2755 17.16612 C -46.33815 17.13168 -46.43974 17.07616 -46.50172 17.04112 C -46.56369 17.00609 -46.6614 16.94933 -46.7223 16.91351 C -46.7832 16.8777 -46.88037 16.8193 -46.94073 16.78288 C -47.0011 16.74646 -47.09744 16.68773 -47.15744 16.65096 C -47.21744 16.61418 -47.31369 16.55519 -47.37328 16.51775 C -47.43288 16.4803 -47.52843 16.41916 -47.58694 16.38107 C -47.64546 16.34297 -47.73709 16.28178 -47.795 16.24307 C -47.8529 16.20438 -47.94687 16.14137 -48.00435 16.10208 C -48.06183 16.06279 -48.1526 15.99944 -48.20937 15.95978 C -48.26614 15.9201 -48.35724 15.85643 -48.41353 15.81618 C -48.46983 15.77592 -48.55978 15.71065 -48.6151 15.66954 C -48.67043 15.62843 -48.75784 15.56139 -48.81233 15.51987 C -48.8668 15.47836 -48.95378 15.41217 -49.00784 15.37022 C -49.0619 15.32828 -49.14828 15.2599 -49.20204 15.21754 C -49.25581 15.17517 -49.34259 15.1078 -49.39539 15.06485 C -49.44818 15.02188 -49.5306 14.95148 -49.58267 14.90784 C -49.63475 14.86421 -49.71928 14.79443 -49.77083 14.7504 C -49.82237 14.70636 -49.90323 14.63481 -49.95422 14.59035 C -50.00523 14.54588 -50.08807 14.47481 -50.13849 14.42987 C -50.1889 14.38493 -50.26823 14.31192 -50.31757 14.26637 C -50.3669 14.22084 -50.44525 14.14749 -50.49403 14.1016 C -50.54282 14.0557 -50.6208 13.98181 -50.66922 13.9355 C -50.71764 13.88918 -50.79509 13.81453 -50.8431 13.76767 C -50.89111 13.7208 -50.96826 13.64502 -51.01524 13.59767 C -51.06224 13.55034 -51.13564 13.47417 -51.18176 13.42639 C -51.2279 13.37863 -51.30244 13.30156 -51.34787 13.25339 C -51.3933 13.2052 -51.46414 13.12767 -51.5092 13.07907 C -51.55426 13.03047 -51.62817 12.95222 -51.6727 12.90302 C -51.71722 12.8538 -51.78676 12.77382 -51.83015 12.72438 C -51.87354 12.67494 -51.94264 12.5964 -51.98543 12.54662 C -52.0282 12.49681 -52.09625 12.4158 -52.13855 12.36539 C -52.18086 12.31497 -52.24873 12.23398 -52.29037 12.18329 C -52.33202 12.13258 -52.39793 12.05089 -52.43874 11.9999 C -52.47954 11.94888 -52.54446 11.86711 -52.58449 11.81563 C -52.62451 11.76413 -52.68776 11.6805 -52.72723 11.62877 C -52.76671 11.57706 -52.82986 11.49474 -52.8691 11.44278 C -52.90834 11.39082 -52.97195 11.30687 -53.01012 11.25418 C -53.04826 11.20149 -53.10712 11.11604 -53.1442 11.063 C -53.18127 11.00996 -53.24088 10.92511 -53.27742 10.87183 C -53.31396 10.81854 -53.37137 10.7325 -53.40761 10.67891 C -53.44385 10.62532 -53.5031 10.53946 -53.53867 10.48557 C -53.57425 10.43169 -53.62965 10.34474 -53.66411 10.2905 C -53.69855 10.23627 -53.75305 10.14923 -53.78694 10.09456 C -53.82085 10.0399 -53.87508 9.95154 -53.9085 9.89645 C -53.9419 9.84135 -53.99493 9.75262 -54.02786 9.69748 C -54.0608 9.64235 -54.11409 9.5544 -54.14597 9.49895 C -54.17783 9.44351 -54.22678 9.3537 -54.25755 9.29782 C -54.28835 9.24196 -54.33743 9.15237 -54.36784 9.09627 C -54.39827 9.04015 -54.44696 8.94986 -54.47684 8.89339 C -54.50673 8.83693 -54.55429 8.7459 -54.58325 8.68924 C -54.61223 8.6326 -54.65756 8.54196 -54.68576 8.48508 C -54.71396 8.42819 -54.75894 8.33632 -54.78654 8.27919 C -54.81413 8.22206 -54.85773 8.13066 -54.88474 8.0733 C -54.91173 8.01595 -54.95471 7.92342 -54.98119 7.86569 C -55.00764 7.80797 -55.05017 7.7151 -55.07549 7.6572 C -55.1008 7.59929 -55.13911 7.50644 -55.16371 7.44829 C -55.18831 7.39015 -55.22852 7.29648 -55.2528 7.23808 C -55.2771 7.17969 -55.3152 7.08594 -55.3389 7.02742 C -55.36261 6.96892 -55.40111 6.87527 -55.42368 6.81635 C -55.44623 6.75743 -55.48012 6.66185 -55.50154 6.60268 C -55.52295 6.54352 -55.55704 6.4491 -55.5781 6.38988 C -55.59915 6.33064 -55.6327 6.23523 -55.65335 6.17577 C -55.674 6.1163 -55.70691 6.02075 -55.72688 5.96123 C -55.74686 5.90169 -55.77867 5.8065 -55.79738 5.74669 C -55.81609 5.68687 -55.8439 5.58998 -55.86183 5.52998 C -55.87978 5.46999 -55.90903 5.37415 -55.92671 5.31415 C -55.94441 5.25415 -55.9722 5.15756 -55.98943 5.09744 C -56.00665 5.03732 -56.03473 4.94116 -56.05086 4.88074 C -56.06699 4.82031 -56.09079 4.72255 -56.10579 4.66188 C -56.12077 4.60121 -56.14447 4.50418 -56.15898 4.44345 C -56.17351 4.38272 -56.1963 4.28506 -56.21046 4.22415 C -56.22461 4.16324 -56.2477 4.06538 -56.26106 4.00443 C -56.27444 3.94347 -56.29462 3.84578 -56.30692 3.7847 C -56.31921 3.72362 -56.33818 3.6253 -56.34975 3.5641 C -56.36131 3.5029 -56.37918 3.40477 -56.3904 3.3435 C -56.40161 3.28224 -56.42007 3.18393 -56.43062 3.12248 C -56.44116 3.06104 -56.45723 2.96216 -56.46652 2.90059 C -56.47581 2.83902 -56.48909 2.74031 -56.49767 2.67868 C -56.50623 2.61707 -56.52017 2.51807 -56.52838 2.45638 C -56.53659 2.39468 -56.54924 2.29579 -56.55692 2.23404 C -56.56459 2.17229 -56.57715 2.0731 -56.58374 2.01129 C -56.59035 1.94948 -56.59898 1.8504 -56.60449 1.78853 C -56.61002 1.72667 -56.61844 1.62721 -56.62354 1.56534 C -56.62862 1.50346 -56.63661 1.40446 -56.64127 1.34259 C -56.64594 1.28072 -56.6533 1.18126 -56.65726 1.11938 C -56.66121 1.05751 -56.66695 .95862 -56.66982 .89664 C -56.6727 .83466 -56.67593 .73476 -56.67802 .67259 C -56.68013 .61043 -56.68346 .51057 -56.68495 .44853 C -56.68643 .38647 -56.68784 .28737 -56.68886 .22533 C -56.68987 .1633 -56.6923 .00128 -56.6923 .00128 "/>
</g>
</svg>
