<?xml version="1.0" encoding="UTF-8" standalone="no"?>
<!DOCTYPE svg PUBLIC "-//W3C//DTD SVG 1.1//EN" "http://www.w3.org/Graphics/SVG/1.1/DTD/svg11.dtd">
<svg xmlns="http://www.w3.org/2000/svg" xmlns:xlink="http://www.w3.org/1999/xlink" version="1.1" width="544.35pt" height="534.4222pt" viewBox="0 0 544.35 534.4222">
<g enable-background="new">
<path transform="matrix(2.7777777,0,0,-2.7777777,273.3111,272.51664)" stroke-width=".3985" stroke-linecap="butt" stroke-miterlimit="10" stroke-linejoin="miter" fill="none" stroke="#000000" d="M -85.04042 0 L 84.58214 0 "/>
<path transform="matrix(2.7777777,0,0,-2.7777777,508.26148,272.51664)" stroke-width=".31879" stroke-linecap="round" stroke-linejoin="round" fill="none" stroke="#000000" d="M -1.19551 1.59401 C -1.09587 .99626 0 .09961 .29886 0 C 0 -.09961 -1.09587 -.99626 -1.19551 -1.59401 "/>
<symbol id="font_0_3">
<path d="M .305 .31300003 C .311 .33900003 .334 .43100003 .404 .43100003 C .409 .43100003 .433 .43100003 .454 .418 C .426 .41300003 .40600003 .388 .40600003 .36400003 C .40600003 .34800003 .417 .32900004 .444 .32900004 C .46600003 .32900004 .498 .34700004 .498 .38700003 C .498 .43900005 .439 .45300005 .405 .45300005 C .347 .45300005 .312 .40000005 .3 .37700004 C .275 .44300003 .221 .45300005 .19200002 .45300005 C .08800001 .45300005 .031000002 .32400004 .031000002 .29900003 C .031000002 .28900004 .041 .28900004 .043000007 .28900004 C .051000008 .28900004 .054000006 .291 .056 .3 C .09 .40600003 .156 .43100003 .19000001 .43100003 C .209 .43100003 .244 .42200003 .244 .36400003 C .244 .33300004 .22700002 .26600004 .19000001 .126 C .17400001 .064 .13900002 .022000002 .095000009 .022000002 C .08900001 .022000002 .06600001 .022000002 .045 .035 C .07000001 .040000004 .09200001 .061 .09200001 .089 C .09200001 .116000007 .07000001 .124000009 .055000009 .124000009 C .025 .124000009 0 .098000008 0 .06600001 C 0 .020000002 .050000006 0 .094000007 0 C .16000001 0 .19600001 .07000001 .19900002 .076000008 C .21100001 .039 .24700003 0 .307 0 C .41 0 .467 .12900001 .467 .15400002 C .467 .16400002 .458 .16400002 .455 .16400002 C .446 .16400002 .444 .16000001 .442 .15300001 C .409 .046 .341 .022000002 .30900003 .022000002 C .27 .022000002 .254 .054 .254 .08800001 C .254 .11000001 .26 .13200002 .271 .17600002 L .305 .31300003 Z "/>
</symbol>
<use xlink:href="#font_0_3" transform="matrix(27.673888,0,0,-27.673888,520.11087,278.7794)"/>
<path transform="matrix(2.7777777,0,0,-2.7777777,273.3111,272.51664)" stroke-width=".3985" stroke-linecap="butt" stroke-miterlimit="10" stroke-linejoin="miter" fill="none" stroke="#000000" d="M 0 -85.04042 L 0 84.58214 "/>
<path transform="matrix(0,-2.7777777,-2.7777777,-0,273.3111,37.56627)" stroke-width=".31879" stroke-linecap="round" stroke-linejoin="round" fill="none" stroke="#000000" d="M -1.19551 1.59401 C -1.09587 .99626 0 .09961 .29886 0 C 0 -.09961 -1.09587 -.99626 -1.19551 -1.59401 "/>
<symbol id="font_0_4">
<path d="M .45700003 .586 C .461 .6 .461 .602 .461 .609 C .461 .62700006 .447 .63600006 .432 .63600006 C .42200003 .63600006 .40600003 .63 .397 .615 C .395 .61 .387 .579 .38300003 .561 C .37600003 .535 .36900003 .508 .363 .48100005 L .318 .301 C .314 .286 .271 .21600002 .20500002 .21600002 C .15400002 .21600002 .143 .26000003 .143 .29700003 C .143 .34300003 .16000001 .40500004 .194 .49300004 C .21000001 .53400006 .21400002 .545 .21400002 .56500008 C .21400002 .61 .18200001 .6470001 .13200002 .6470001 C .037 .6470001 0 .50200006 0 .49300004 C 0 .48300005 .01 .48300005 .012 .48300005 C .022000002 .48300005 .023 .485 .028000003 .50100007 C .055000009 .595 .095000009 .625 .12900001 .625 C .13700001 .625 .15400002 .625 .15400002 .59300008 C .15400002 .568 .14400001 .54200008 .13700001 .523 C .097 .41700004 .079 .36 .079 .31300003 C .079 .224 .142 .194 .201 .194 C .24000003 .194 .274 .21100001 .30200003 .23900002 C .289 .187 .277 .13800001 .237 .08500001 C .21100001 .051 .17300001 .022 .127 .022 C .113000009 .022 .068 .025000006 .051000008 .06400001 C .067 .06400001 .080000009 .06400001 .094000007 .076000008 C .104 .08500001 .11400001 .098000008 .11400001 .117000009 C .11400001 .148 .087000008 .15200001 .07700001 .15200001 C .054000006 .15200001 .021 .136 .021 .087000008 C .021 .037 .065000008 0 .127 0 C .23 0 .333 .091000009 .361 .20400001 L .45700003 .586 Z "/>
</symbol>
<use xlink:href="#font_0_4" transform="matrix(27.673888,0,0,-27.673888,266.83308,26.812003)"/>
<path transform="matrix(2.7777777,0,0,-2.7777777,273.3111,272.51664)" stroke-width=".79701" stroke-linecap="butt" stroke-miterlimit="10" stroke-linejoin="miter" fill="none" stroke="#000000" d="M 0 0 C 0 0 4.8498 .0945 6.6974 .21129 C 8.54501 .32806 11.50168 .61038 13.31631 .8417 C 15.13095 1.07303 18.01608 1.53732 19.77605 1.8785 C 21.53601 2.21968 24.31613 2.8564 26.00093 3.30067 C 27.68573 3.74495 30.3295 4.54213 31.9189 5.08057 C 33.50832 5.619 35.98058 6.55981 37.45627 7.18141 C 38.93195 7.803 41.20857 8.86842 42.55458 9.5606 C 43.9006 10.25275 45.95602 11.4213 47.15744 12.17009 C 48.35886 12.91888 50.16962 14.16765 51.21356 14.95737 C 52.25749 15.74709 53.80554 17.04791 54.68143 17.86186 C 55.55734 18.6758 56.82619 20.00275 57.52646 20.82367 C 58.22673 21.64458 59.20941 22.96857 59.7285 23.77855 C 60.24759 24.58852 60.9326 25.88007 61.26768 26.6614 C 61.60277 27.44275 61.9929 28.67526 62.14359 29.40997 C 62.29428 30.1447 62.38545 31.2862 62.35379 31.95676 C 62.32214 32.62732 62.12439 33.6534 61.91542 34.24294 C 61.70645 34.83249 61.22665 35.7129 60.8477 36.2058 C 60.46875 36.69868 59.72318 37.41312 59.18416 37.79536 C 58.64516 38.17761 57.65067 38.70222 56.96286 38.96085 C 56.27504 39.21947 55.04962 39.53523 54.22685 39.6594 C 53.40405 39.78355 51.97552 39.87543 51.03276 39.85576 C 50.09001 39.83612 48.47823 39.68835 47.4321 39.51773 C 46.38597 39.34712 44.62361 38.95172 43.49298 38.62607 C 42.36235 38.30038 40.4797 37.65344 39.28331 37.17056 C 38.0869 36.6877 36.113 35.78566 34.87012 35.14586 C 33.62724 34.50606 31.59544 33.35341 30.32544 32.55928 C 29.05542 31.76515 26.99399 30.36572 25.71675 29.4223 C 24.43951 28.4789 22.3848 26.84444 21.11995 25.7598 C 19.8551 24.67513 17.83458 22.82072 16.60059 21.60483 C 15.36658 20.38892 13.41135 18.33133 12.2261 16.99635 C 11.04086 15.66138 9.17818 13.42305 8.05817 11.98325 C 6.93816 10.54341 5.1936 8.14772 4.15385 6.61911 C 3.11412 5.0905 1.51045 2.56544 .56444 .96606 C -.38153 -.6333 -1.82318 -3.2566 -2.6642 -4.9082 C -3.50523 -6.55981 -4.77028 -9.25365 -5.4971 -10.93758 C -6.22392 -12.62149 -7.29736 -15.34973 -7.90266 -17.0448 C -8.50797 -18.73985 -9.38084 -21.46953 -9.8597 -23.1544 C -10.33853 -24.83925 -11.00398 -27.5351 -11.3539 -29.18808 C -11.7038 -30.84106 -12.1606 -33.4679 -12.3816 -35.06801 C -12.6026 -36.66812 -12.85251 -39.1945 -12.94672 -40.72063 C -13.04094 -42.24675 -13.08868 -44.63492 -13.06068 -46.06723 C -13.0327 -47.49954 -12.88834 -49.72444 -12.74493 -51.0438 C -12.60153 -52.36313 -12.27724 -54.38753 -12.02713 -55.57614 C -11.77702 -56.76474 -11.28838 -58.56784 -10.94234 -59.61043 C -10.5963 -60.65302 -9.9625 -62.2077 -9.53313 -63.09041 C -9.10376 -63.97313 -8.34674 -65.26143 -7.84773 -65.97241 C -7.34872 -66.6834 -6.48994 -67.68614 -5.93657 -68.21469 C -5.38318 -68.74323 -4.45088 -69.44212 -3.8593 -69.78177 C -3.26772 -70.12141 -2.28569 -70.51611 -1.67282 -70.66263 C -1.05997 -70.80914 -.0593 -70.88669 .55774 -70.8378 C 1.1748 -70.78893 2.16989 -70.55359 2.7745 -70.31033 C 3.3791 -70.06706 4.34084 -69.5196 4.91534 -69.08452 C 5.48985 -68.64941 6.38716 -67.79503 6.91519 -67.17444 C 7.44322 -66.55383 8.25504 -65.40941 8.72104 -64.61163 C 9.18703 -63.81389 9.88445 -62.389 10.27383 -61.42471 C 10.66324 -60.4604 11.22792 -58.77911 11.52756 -57.66162 C 11.82721 -56.54414 12.23543 -54.62663 12.4335 -53.37062 C 12.63158 -52.11464 12.8684 -49.98732 12.95515 -48.60925 C 13.04189 -47.23119 13.09117 -44.92036 13.05873 -43.43848 C 13.0263 -41.95659 12.87837 -39.49432 12.72136 -37.9288 C 12.56433 -36.3633 12.21225 -33.78424 11.927 -32.15529 C 11.64175 -30.52634 11.07999 -27.85995 10.6655 -26.18843 C 10.25102 -24.51689 9.48207 -21.80055 8.93968 -20.10803 C 8.39728 -18.41548 7.42302 -15.68196 6.75623 -13.98978 C 6.08945 -12.2976 4.91895 -9.58249 4.13397 -7.91197 C 3.34898 -6.24146 1.99345 -3.57797 1.09862 -1.94986 C .2038 -.32176 -1.32097 2.25603 -2.31535 3.82231 C -3.30975 5.38863 -4.98671 7.85265 -6.06827 9.33891 C -7.14984 10.82518 -8.95592 13.14484 -10.11055 14.53435 C -11.2652 15.92384 -13.17842 18.07631 -14.39009 19.35347 C -15.60176 20.63062 -17.59183 22.58755 -18.8435 23.73918 C -20.09518 24.89081 -22.13783 26.6384 -23.41132 27.65366 C -24.68481 28.6689 -26.74606 30.18677 -28.02196 31.05643 C -29.29785 31.92609 -31.34811 33.20395 -32.60709 33.92157 C -33.86604 34.63918 -35.87363 35.66698 -37.09573 36.2285 C -38.31786 36.79001 -40.2492 37.56424 -41.41527 37.96861 C -42.58134 38.37299 -44.40913 38.89525 -45.49995 39.14294 C -46.59076 39.39064 -48.28062 39.65962 -49.2771 39.75389 C -50.27356 39.84818 -51.79698 39.87549 -52.68181 39.82246 C -53.56665 39.76944 -54.89732 39.5643 -55.65443 39.37175 C -56.41154 39.1792 -57.52318 38.75645 -58.1385 38.43466 C -58.75381 38.11287 -59.62856 37.49178 -60.08925 37.05249 C -60.54994 36.61317 -61.16367 35.81177 -61.45886 35.2685 C -61.75407 34.72522 -62.09602 33.76897 -62.2169 33.13693 C -62.33775 32.50491 -62.38957 31.41805 -62.33 30.7132 C -62.27045 30.00838 -62.03018 28.81715 -61.7876 28.05699 C -61.54503 27.29683 -61.00874 26.03229 -60.58168 25.23447 C -60.15463 24.43665 -59.31929 23.12445 -58.70967 22.30682 C -58.10005 21.48921 -56.97705 20.16133 -56.18796 19.34158 C -55.39888 18.52182 -53.98383 17.2026 -53.02245 16.39857 C -52.06105 15.59454 -50.38261 14.31775 -49.25893 13.54665 C -48.13524 12.77553 -46.1991 11.56332 -44.9236 10.8409 C -43.6481 10.11848 -41.47856 8.99857 -40.06598 8.33997 C -38.65341 7.68138 -36.27731 6.6757 -34.74274 6.09422 C -33.20815 5.51276 -30.64525 4.64172 -29.00577 4.1491 C -27.36627 3.65648 -24.65147 2.93752 -22.92645 2.54375 C -21.2014 2.14996 -18.36293 1.59802 -16.5729 1.311 C -14.78287 1.024 -11.85896 .64967 -10.02513 .47513 C -8.19128 .30058 -5.21167 .11156 -3.35583 .05298 C -1.5 -.0056 1.49474 -.0057 3.35042 .05276 C 5.2061 .11124 8.18481 .30008 10.01865 .47447 C 11.8525 .64888 14.77745 1.02281 16.56749 1.30971 C 18.35753 1.59659 21.19518 2.14854 22.91995 2.54224 C 24.64476 2.93591 27.3592 3.65462 28.99863 4.14716 C 30.63806 4.63968 33.2008 5.51054 34.73581 6.09206 C 36.2708 6.6736 38.64906 7.67984 40.06187 8.33844 C 41.47469 8.99707 43.64305 10.11676 44.9184 10.83896 C 46.19376 11.56116 48.12975 12.77246 49.25374 13.54362 C 50.37773 14.31476 52.05788 15.59285 53.01941 16.39685 C 53.98096 17.20085 55.39478 18.51881 56.18385 19.33832 C 56.97295 20.15785 58.09673 21.48575 58.70665 22.30338 C 59.31656 23.121 60.1524 24.43314 60.57974 25.23122 C 61.00706 26.02931 61.54381 27.2953 61.78651 28.05548 C 62.02925 28.81567 62.26942 30.00551 62.32913 30.71017 C 62.38885 31.41487 62.33763 32.50218 62.2169 33.13435 C 62.09615 33.7665 61.7538 34.72289 61.45886 35.26631 C 61.16394 35.80974 60.55174 36.61168 60.09119 37.05096 C 59.63065 37.49028 58.75476 38.11069 58.13957 38.4325 C 57.52441 38.75432 56.41408 39.17747 55.65746 39.37045 C 54.90085 39.56343 53.57126 39.77019 52.68636 39.82332 C 51.80147 39.87646 50.27618 39.84784 49.27968 39.75346 C 48.28319 39.65912 46.59488 39.39063 45.50427 39.14316 C 44.41368 38.89569 42.58531 38.37387 41.41939 37.9699 C 40.25348 37.56592 38.32312 36.79286 37.10115 36.23154 C 35.87918 35.6702 33.87138 34.64182 32.61226 33.92415 C 31.35315 33.20648 29.30226 31.92862 28.02629 31.05902 C 26.7503 30.18942 24.68936 28.67174 23.41586 27.65668 C 22.14238 26.64162 20.0995 24.89447 18.84782 23.74309 C 17.59615 22.59169 15.60637 20.63524 14.39464 19.35822 C 13.1829 18.08122 11.26921 15.92873 10.11444 14.53932 C 8.9597 13.14992 7.15358 10.83052 6.07195 9.34431 C 4.99033 7.85811 3.31328 5.394 2.31883 3.82773 C 1.32437 2.26147 -.20044 -.3162 -1.09538 -1.94424 C -1.99034 -3.5723 -3.34627 -6.23567 -4.13138 -7.90613 C -4.91646 -9.57658 -6.08704 -12.2916 -6.75385 -13.98372 C -7.42065 -15.67583 -8.39473 -18.40929 -8.9373 -20.10175 C -9.47989 -21.79424 -10.24979 -24.51039 -10.66443 -26.18195 C -11.07906 -27.85352 -11.64038 -30.52011 -11.9257 -32.14925 C -12.21104 -33.77838 -12.56372 -36.35811 -12.72093 -37.92363 C -12.87813 -39.48914 -13.02634 -41.95065 -13.05873 -43.43242 C -13.09114 -44.91418 -13.0412 -47.22514 -12.9545 -48.6032 C -12.86781 -49.98126 -12.63177 -52.1082 -12.43393 -53.36458 C -12.23611 -54.62096 -11.82802 -56.54062 -11.52864 -57.65837 C -11.22926 -58.77614 -10.6654 -60.45642 -10.27623 -61.4206 C -9.88704 -62.38478 -9.1897 -63.80936 -8.72363 -64.60753 C -8.25757 -65.40572 -7.44525 -66.55247 -6.91713 -67.17336 C -6.38902 -67.79422 -5.49179 -68.64726 -4.9173 -69.08235 C -4.34279 -69.51746 -3.38101 -70.06569 -2.77646 -70.30925 C -2.17188 -70.55281 -1.17693 -70.78877 -.5599 -70.8378 C .0571 -70.88683 1.05792 -70.80887 1.67065 -70.66263 C 2.2834 -70.51642 3.26451 -70.1234 3.85628 -69.78394 C 4.44803 -69.44447 5.38216 -68.74467 5.9357 -68.21599 C 6.48923 -67.6873 7.34686 -66.6842 7.8458 -65.9735 C 8.34471 -65.26279 9.10226 -63.97606 9.5316 -63.09366 C 9.96094 -62.21124 10.59404 -60.65598 10.94017 -59.61366 C 11.28629 -58.57135 11.77596 -56.76985 12.02628 -55.58133 C 12.2766 -54.39282 12.6007 -52.36708 12.74428 -51.04768 C 12.88786 -49.72827 13.03304 -47.50427 13.06113 -46.07199 C 13.0892 -44.63971 13.04091 -42.25073 12.94672 -40.72475 C 12.85252 -39.19873 12.6031 -36.67363 12.38225 -35.07364 C 12.1614 -33.47363 11.70473 -30.84592 11.35498 -29.19305 C 11.0052 -27.54019 10.34015 -24.8456 9.86142 -23.16087 C 9.3827 -21.47618 8.50981 -18.74599 7.90462 -17.05086 C 7.29941 -15.3557 6.22614 -12.62724 5.4995 -10.9434 C 4.77284 -9.25958 3.50835 -6.56654 2.66745 -4.91492 C 1.82654 -3.26328 .3847 -.63908 -.5612 .96043 C -1.50713 2.55998 -3.11055 5.08481 -4.15019 6.6135 C -5.18983 8.14215 -6.9343 10.53802 -8.05428 11.97804 C -9.17426 13.41808 -11.03703 15.65715 -12.22221 16.99225 C -13.4074 18.32733 -15.3624 20.38448 -16.59625 21.6005 C -17.83011 22.81653 -19.8501 24.67177 -21.11497 25.75653 C -22.37985 26.84132 -24.4354 28.47543 -25.71263 29.41884 C -26.98987 30.36224 -29.05064 31.76176 -30.32047 32.55603 C -31.5903 33.35033 -33.6218 34.50352 -34.86472 35.14348 C -36.10762 35.78345 -38.08185 36.68527 -39.27855 37.16841 C -40.47525 37.65154 -42.35904 38.2998 -43.48973 38.62563 C -44.6204 38.95143 -46.3817 39.34601 -47.42778 39.51665 C -48.47385 39.6873 -50.08612 39.83565 -51.02908 39.85555 C -51.97205 39.87544 -53.40112 39.78406 -54.22403 39.66003 C -55.04694 39.53603 -56.27211 39.22018 -56.96004 38.9617 C -57.64798 38.70323 -58.64296 38.17917 -59.1822 37.7971 C -59.72147 37.41502 -60.46742 36.70085 -60.84662 36.20796 C -61.22583 35.71506 -61.70624 34.83414 -61.9152 34.24467 C -62.12418 33.65518 -62.3209 32.62973 -62.35272 31.95935 C -62.38452 31.28897 -62.29498 30.14766 -62.14445 29.41301 C -61.9939 28.67834 -61.60274 27.44597 -61.26768 26.66444 C -60.93263 25.8829 -60.24826 24.59026 -59.72958 23.78027 C -59.21092 22.9703 -58.22948 21.64748 -57.52948 20.82669 C -56.82948 20.00592 -55.56046 18.67879 -54.68448 17.86467 C -53.80847 17.05057 -52.25981 15.74872 -51.21594 14.95909 C -50.17206 14.16946 -48.36192 12.92213 -47.16089 12.17355 C -45.95987 11.42497 -43.90556 10.25618 -42.55977 9.56383 C -41.214 8.87149 -38.93718 7.80534 -37.46146 7.18358 C -35.9857 6.5618 -33.51305 5.62102 -31.92366 5.08252 C -30.33429 4.54402 -27.69086 3.74681 -26.00633 3.30241 C -24.32181 2.85802 -21.54259 2.2209 -19.78275 1.87958 C -18.0229 1.53825 -15.13725 1.07378 -13.32259 .84235 C -11.50792 .61095 -8.5515 .32858 -6.7039 .21172 C -4.85628 .09483 -.00626 0 -.00626 0 "/>
<path transform="matrix(2.7777777,0,0,-2.7777777,273.3111,272.51664)" stroke-width=".3985" stroke-linecap="butt" stroke-miterlimit="10" stroke-linejoin="miter" fill="none" stroke="#ff0000" d="M 0 0 L 61.3728 35.43349 "/>
<symbol id="font_0_2">
<path d="M .263 .316 L .43300004 .316 C .575 .316 .714 .42000003 .714 .532 C .714 .609 .648 .683 .517 .683 L .193 .683 C .17400001 .683 .163 .683 .163 .66400006 C .163 .652 .172 .652 .192 .652 C .205 .652 .223 .651 .235 .65000006 C .25100003 .648 .25700004 .64500007 .25700004 .634 C .25700004 .63000008 .256 .62700006 .25300003 .615 L .119 .078 C .109 .039 .10699999 .031000002 .028 .031000002 C .011 .031000002 0 .031000002 0 .012 C 0 0 .011999998 0 .015000001 0 C .043 0 .11400001 .003 .142 .003 C .163 .003 .185 .002 .206 .002 C .228 .002 .25000004 0 .27100004 0 C .27800004 0 .29100005 0 .29100005 .020000002 C .29100005 .031000002 .28200004 .031000002 .263 .031000002 C .226 .031000002 .198 .031000002 .198 .049000004 C .198 .055000005 .2 .060000004 .201 .066 L .263 .316 M .33500005 .614 C .344 .64900007 .34600003 .652 .38900004 .652 L .48500005 .652 C .568 .652 .621 .625 .621 .55600008 C .621 .517 .601 .43100003 .56200006 .395 C .512 .35000003 .45200003 .342 .40800003 .342 L .26700003 .342 L .33500005 .614 Z "/>
</symbol>
<use xlink:href="#font_0_2" transform="matrix(27.673888,0,0,-27.673888,434.21806,160.01386)"/>
<symbol id="font_1_1">
<path d="M .23200003 .00999999 C .23200003 .012999982 .23200003 .014999986 .215 .03199999 C .09 .15799999 .058 .347 .058 .5 C .058 .674 .096 .84800007 .21900001 .97300007 C .23200003 .985 .23200003 .98700007 .23200003 .99 C .23200003 .99700006 .22800002 1 .222 1 C .21200001 1 .12200001 .93200007 .06299999 .805 C .012000002 .69500008 0 .584 0 .5 C 0 .422 .011 .301 .066 .188 C .126 .065 .21200001 0 .222 0 C .22800002 0 .23200003 .0029999912 .23200003 .00999999 Z "/>
</symbol>
<symbol id="font_1_3">
<path d="M .39900003 .223 C .39900003 .34200005 .317 .44200004 .209 .44200004 C .16100002 .44200004 .118000019 .42600004 .082 .39100004 L .082 .586 C .10200001 .58000007 .135 .573 .16700001 .573 C .29 .573 .36 .66400006 .36 .67700007 C .36 .683 .357 .688 .35 .688 C .349 .688 .347 .688 .342 .68500009 C .322 .67600008 .273 .656 .20600002 .656 C .16600001 .656 .120000008 .66300007 .073 .6840001 C .065 .68700006 .06300001 .68700006 .061000009 .68700006 C .051000004 .68700006 .051000004 .679 .051000004 .66300007 L .051000004 .36700005 C .051000004 .34900005 .051000004 .34100003 .065 .34100003 C .07200001 .34100003 .074 .34400005 .07800001 .35000003 C .08900002 .36600004 .12600002 .42000006 .207 .42000006 C .259 .42000006 .284 .37400005 .292 .35600005 C .308 .31900005 .31 .28000004 .31 .23 C .31 .19500001 .31 .135 .286 .093 C .262 .054000006 .22500001 .028 .17900002 .028 C .106000009 .028 .049000008 .08100001 .032 .14000002 C .035 .13900002 .038000008 .13800001 .049000008 .13800001 C .082 .13800001 .09900001 .163 .09900001 .187 C .09900001 .21100001 .082 .23600002 .049000008 .23600002 C .035 .23600002 0 .22900002 0 .18300002 C 0 .097 .069000009 0 .18100001 0 C .297 0 .39900003 .096 .39900003 .223 Z "/>
</symbol>
<use xlink:href="#font_1_1" transform="matrix(27.673888,0,0,-27.673888,457.4619,166.93233)"/>
<use xlink:href="#font_1_3" transform="matrix(27.673888,0,0,-27.673888,466.87107,160.62268)"/>
<symbol id="font_0_1">
<path d="M .117000009 .194 C .117000009 .26 .092 .29900003 .05300001 .29900003 C .020000004 .29900003 0 .274 0 .246 C 0 .21900001 .020000004 .193 .05300001 .193 C .065000008 .193 .078 .197 .08800001 .206 C .091 .208 .092 .209 .093 .209 C .094000007 .209 .095000009 .208 .095000009 .194 C .095000009 .12 .06000001 .060000004 .027000003 .026999996 C .016000003 .016000003 .016000003 .013999999 .016000003 .0109999929 C .016000003 .003999993 .021000006 0 .026 0 C .037 0 .117000009 .077 .117000009 .194 Z "/>
</symbol>
<use xlink:href="#font_0_1" transform="matrix(27.673888,0,0,-27.673888,481.69935,165.35492)"/>
<symbol id="font_2_1">
<path d="M .26600004 .373 L .385 .373 C .37 .313 .348 .22200002 .348 .143 C .348 .103 .35300005 .076 .35900004 .054000006 C .375 .0040000008 .388 0 .40400005 0 C .42700006 0 .45100004 .021000002 .45100004 .045 C .45100004 .053000004 .449 .057000005 .44300003 .067 C .42400003 .104 .40600003 .16100002 .40600003 .24300002 C .40600003 .262 .40600003 .30200003 .42000003 .373 L .545 .373 C .563 .373 .57100006 .373 .582 .381 C .596 .391 .59900006 .407 .59900006 .412 C .59900006 .441 .573 .441 .556 .441 L .179 .441 C .13800001 .441 .11 .432 .065000008 .39000003 C .039000006 .367 0 .313 0 .304 C 0 .292 .013 .292 .017 .292 C .028000005 .292 .029 .294 .035000005 .303 C .08600001 .373 .148 .373 .17 .373 L .23100002 .373 C .2 .263 .14600002 .14500001 .11600001 .085 C .11 .072000008 .10000001 .051000004 .097 .047000003 C .096 .043 .09400001 .039 .09400001 .032 C .09400001 .016 .106000009 0 .12900001 0 C .16900002 0 .18 .045 .20400001 .135 L .26600004 .373 Z "/>
</symbol>
<use xlink:href="#font_2_1" transform="matrix(19.371666,0,0,-19.371666,495.81336,149.31032)"/>
<path transform="matrix(2.7777777,0,0,-2.7777777,494.94166,153.09444)" stroke-width=".398" stroke-linecap="butt" stroke-miterlimit="10" stroke-linejoin="miter" fill="none" stroke="#000000" d="M 0 0 L 4.909 0 "/>
<symbol id="font_3_4">
<path d="M .096 .34700004 C .096 .42900003 .103 .503 .141 .564 C .17500001 .61800006 .22900002 .65500006 .293 .65500006 C .323 .65500006 .36300005 .647 .38300003 .62 C .35800005 .61800006 .33700005 .601 .33700005 .572 C .33700005 .547 .35400004 .525 .38400004 .525 C .41400004 .525 .43200005 .545 .43200005 .574 C .43200005 .632 .39000006 .684 .29100005 .684 C .147 .684 0 .552 0 .337 C 0 .078 .12200001 0 .23200001 0 C .35400004 0 .46 .09300001 .46 .224 C .46 .35100005 .35900004 .44500003 .242 .44500003 C .162 .44500003 .118 .39200003 .096 .34700004 M .23200001 .032 C .18200001 .032 .143 .061000006 .12200001 .105000007 C .10700001 .135 .09900001 .185 .09900001 .245 C .09900001 .34200005 .157 .41700004 .237 .41700004 C .28300003 .41700004 .31400005 .39900003 .33900003 .36200003 C .36300005 .32400004 .36400003 .28200004 .36400003 .224 C .36400003 .167 .36400003 .125 .33700005 .086 C .31300003 .051000004 .28100003 .032 .23200001 .032 Z "/>
</symbol>
<use xlink:href="#font_3_4" transform="matrix(19.371666,0,0,-19.371666,497.2905,169.94295)"/>
<symbol id="font_1_2">
<path d="M .232 .5 C .232 .578 .22100002 .699 .16600001 .81200006 C .106 .93500009 .020000004 1 .009999998 1 C .0040000008 1 0 .99600008 0 .99 C 0 .98700007 0 .985 .019000002 .967 C .117000009 .86800006 .174 .709 .174 .5 C .174 .329 .137 .153 .012999997 .026999996 C 0 .014999986 0 .012999982 0 .00999999 C 0 .003999993 .0040000008 0 .009999998 0 C .020000004 0 .11000001 .06799999 .169 .195 C .22 .305 .232 .416 .232 .5 Z "/>
</symbol>
<use xlink:href="#font_1_2" transform="matrix(27.673888,0,0,-27.673888,513.4746,166.93233)"/>
<path transform="matrix(2.7777777,0,0,-2.7777777,273.3111,272.51664)" stroke-width=".3985" stroke-linecap="butt" stroke-miterlimit="10" stroke-linejoin="miter" fill="none" stroke="#ff0000" d="M 0 0 L -61.3728 35.43349 "/>
<use xlink:href="#font_0_2" transform="matrix(27.673888,0,0,-27.673888,19.554177,161.32495)"/>
<use xlink:href="#font_1_1" transform="matrix(27.673888,0,0,-27.673888,42.798044,168.24343)"/>
<use xlink:href="#font_1_3" transform="matrix(27.673888,0,0,-27.673888,52.207166,161.93378)"/>
<use xlink:href="#font_0_1" transform="matrix(27.673888,0,0,-27.673888,67.038288,166.66602)"/>
<symbol id="font_3_3">
<path d="M .092 .578 C .143 .565 .17300001 .565 .18900001 .565 C .321 .565 .39900003 .65500006 .39900003 .67 C .39900003 .681 .39200003 .684 .38700003 .684 C .38500003 .684 .38300003 .684 .37900005 .681 C .35500003 .672 .30200003 .652 .22800002 .652 C .20000002 .652 .14700002 .654 .08200001 .679 C .072000008 .684 .07 .684 .069 .684 C .056 .684 .056 .67300006 .056 .657 L .056 .36200003 C .056 .34500004 .056 .33300004 .072000008 .33300004 C .08100001 .33300004 .08200001 .33500005 .092 .34700004 C .13500002 .40200005 .19600001 .41000004 .231 .41000004 C .291 .41000004 .31800003 .36200003 .323 .35400004 C .34100003 .32100005 .34700004 .28300003 .34700004 .22500001 C .34700004 .19500001 .34700004 .136 .31700004 .09200001 C .29200004 .056 .24900002 .032 .20000002 .032 C .13500002 .032 .06800001 .068 .043000007 .134 C .08100001 .13100001 .1 .156 .1 .183 C .1 .22600001 .063 .23400001 .050000006 .23400001 C .048000009 .23400001 0 .23400001 0 .18 C 0 .09 .08200001 0 .20200002 0 C .33 0 .442 .095000009 .442 .221 C .442 .33400003 .35600005 .43800003 .23200003 .43800003 C .18800003 .43800003 .136 .42700003 .092 .38900004 L .092 .578 Z "/>
</symbol>
<use xlink:href="#font_3_3" transform="matrix(19.371666,0,0,-19.371666,81.49819,150.81517)"/>
<use xlink:href="#font_2_1" transform="matrix(19.371666,0,0,-19.371666,92.18006,150.62145)"/>
<path transform="matrix(2.7777777,0,0,-2.7777777,80.27777,154.40555)" stroke-width=".398" stroke-linecap="butt" stroke-miterlimit="10" stroke-linejoin="miter" fill="none" stroke="#000000" d="M 0 0 L 8.88 0 "/>
<use xlink:href="#font_3_4" transform="matrix(19.371666,0,0,-19.371666,88.14329,171.25685)"/>
<use xlink:href="#font_1_2" transform="matrix(27.673888,0,0,-27.673888,109.84407,168.24343)"/>
<path transform="matrix(2.7777777,0,0,-2.7777777,273.3111,272.51664)" stroke-width=".3985" stroke-linecap="butt" stroke-miterlimit="10" stroke-linejoin="miter" fill="none" stroke="#ff0000" d="M 0 0 L 0 -70.867 "/>
<use xlink:href="#font_0_2" transform="matrix(27.673888,0,0,-27.673888,224.12915,515.6555)"/>
<use xlink:href="#font_1_1" transform="matrix(27.673888,0,0,-27.673888,247.37303,522.574)"/>
<use xlink:href="#font_1_3" transform="matrix(27.673888,0,0,-27.673888,256.78215,516.26437)"/>
<use xlink:href="#font_0_1" transform="matrix(27.673888,0,0,-27.673888,271.61048,520.9966)"/>
<symbol id="font_3_2">
<path d="M .219 .35400004 C .29700003 .35400004 .35300002 .3 .35300002 .193 C .35300002 .069000009 .28100003 .032 .223 .032 C .18300002 .032 .095 .043000007 .053000008 .102000009 C .10000001 .10400001 .111 .13700001 .111 .158 C .111 .19 .087 .213 .056000007 .213 C .028 .213 0 .19600001 0 .155 C 0 .061000006 .104 0 .22500001 0 C .36400003 0 .46 .09300001 .46 .193 C .46 .27100004 .39600004 .34900005 .286 .37200005 C .39100004 .41000004 .42900003 .48500005 .42900003 .546 C .42900003 .625 .33800004 .684 .22700002 .684 C .116 .684 .031 .63 .031 .55 C .031 .51600006 .053000008 .49700005 .083000008 .49700005 C .11400001 .49700005 .134 .52 .134 .548 C .134 .577 .11400001 .598 .083000008 .6 C .118 .644 .187 .65500006 .22400002 .65500006 C .26900003 .65500006 .33200003 .633 .33200003 .546 C .33200003 .504 .31800003 .45800004 .29200004 .42700003 C .25900004 .38900004 .23100002 .38700003 .18100001 .38400004 C .156 .38200004 .154 .38200004 .149 .38100005 C .147 .38100005 .139 .37900005 .139 .36800004 C .139 .35400004 .148 .35400004 .165 .35400004 L .219 .35400004 Z "/>
</symbol>
<use xlink:href="#font_3_2" transform="matrix(19.371666,0,0,-19.371666,285.89884,505.14573)"/>
<use xlink:href="#font_2_1" transform="matrix(19.371666,0,0,-19.371666,296.75505,504.95204)"/>
<path transform="matrix(2.7777777,0,0,-2.7777777,284.85276,508.73606)" stroke-width=".398" stroke-linecap="butt" stroke-miterlimit="10" stroke-linejoin="miter" fill="none" stroke="#000000" d="M 0 0 L 8.88 0 "/>
<symbol id="font_3_1">
<path d="M .442 .18200001 L .40800003 .18200001 C .40500004 .16000001 .39500005 .101 .38200004 .091000009 C .374 .085 .29700003 .085 .28300003 .085 L .099 .085 C .20400003 .178 .23900002 .20600002 .29900003 .25300003 C .37300004 .312 .442 .374 .442 .469 C .442 .59000006 .33600004 .66400006 .20800004 .66400006 C .084 .66400006 0 .577 0 .485 C 0 .43400003 .043000007 .42900003 .053000004 .42900003 C .077 .42900003 .10600001 .446 .10600001 .48200003 C .10600001 .5 .099 .535 .047000007 .535 C .078 .606 .146 .628 .19300002 .628 C .293 .628 .34500004 .55 .34500004 .469 C .34500004 .38200004 .28300003 .31300003 .25100003 .277 L .010000005 .039 C 0 .030000002 0 .028 0 0 L .41200004 0 L .442 .18200001 Z "/>
</symbol>
<use xlink:href="#font_3_1" transform="matrix(19.371666,0,0,-19.371666,292.88984,525.19998)"/>
<use xlink:href="#font_1_2" transform="matrix(27.673888,0,0,-27.673888,314.41627,522.574)"/>
</g>
</svg>
