<?xml version="1.0" encoding="UTF-8" standalone="no"?>
<!DOCTYPE svg PUBLIC "-//W3C//DTD SVG 1.1//EN" "http://www.w3.org/Graphics/SVG/1.1/DTD/svg11.dtd">
<svg xmlns="http://www.w3.org/2000/svg" xmlns:xlink="http://www.w3.org/1999/xlink" version="1.1" width="1089.4194pt" height="569.63058pt" viewBox="0 0 1089.4194 569.63058">
<g enable-background="new">
<path transform="matrix(2.7777777,0,0,-2.7777777,245.99721,272.51667)" stroke-width=".3985" stroke-linecap="butt" stroke-miterlimit="10" stroke-linejoin="miter" fill="none" stroke="#000000" d="M -85.04042 0 L 84.58214 0 "/>
<path transform="matrix(2.7777777,0,0,-2.7777777,480.9476,272.51667)" stroke-width=".31879" stroke-linecap="round" stroke-linejoin="round" fill="none" stroke="#000000" d="M -1.19551 1.59401 C -1.09587 .99626 0 .09961 .29886 0 C 0 -.09961 -1.09587 -.99626 -1.19551 -1.59401 "/>
<symbol id="font_0_2">
<path d="M .305 .31300003 C .311 .33900003 .334 .43100003 .404 .43100003 C .409 .43100003 .433 .43100003 .454 .418 C .426 .41300003 .40600003 .388 .40600003 .36400003 C .40600003 .34800003 .417 .32900004 .444 .32900004 C .46600003 .32900004 .498 .34700004 .498 .38700003 C .498 .43900005 .439 .45300005 .405 .45300005 C .347 .45300005 .312 .40000005 .3 .37700004 C .275 .44300003 .221 .45300005 .19200002 .45300005 C .08800001 .45300005 .031000002 .32400004 .031000002 .29900003 C .031000002 .28900004 .041 .28900004 .043000007 .28900004 C .051000008 .28900004 .054000006 .291 .056 .3 C .09 .40600003 .156 .43100003 .19000001 .43100003 C .209 .43100003 .244 .42200003 .244 .36400003 C .244 .33300004 .22700002 .26600004 .19000001 .126 C .17400001 .064 .13900002 .022000002 .095000009 .022000002 C .08900001 .022000002 .06600001 .022000002 .045 .035 C .07000001 .040000004 .09200001 .061 .09200001 .089 C .09200001 .116000007 .07000001 .124000009 .055000009 .124000009 C .025 .124000009 0 .098000008 0 .06600001 C 0 .020000002 .050000006 0 .094000007 0 C .16000001 0 .19600001 .07000001 .19900002 .076000008 C .21100001 .039 .24700003 0 .307 0 C .41 0 .467 .12900001 .467 .15400002 C .467 .16400002 .458 .16400002 .455 .16400002 C .446 .16400002 .444 .16000001 .442 .15300001 C .409 .046 .341 .022000002 .30900003 .022000002 C .27 .022000002 .254 .054 .254 .08800001 C .254 .11000001 .26 .13200002 .271 .17600002 L .305 .31300003 Z "/>
</symbol>
<use xlink:href="#font_0_2" transform="matrix(27.673888,0,0,-27.673888,492.79975,278.77943)"/>
<path transform="matrix(2.7777777,0,0,-2.7777777,245.99721,272.51667)" stroke-width=".3985" stroke-linecap="butt" stroke-miterlimit="10" stroke-linejoin="miter" fill="none" stroke="#000000" d="M 0 -85.04042 L 0 84.58214 "/>
<path transform="matrix(0,-2.7777777,-2.7777777,-0,245.99721,37.566289)" stroke-width=".31879" stroke-linecap="round" stroke-linejoin="round" fill="none" stroke="#000000" d="M -1.19551 1.59401 C -1.09587 .99626 0 .09961 .29886 0 C 0 -.09961 -1.09587 -.99626 -1.19551 -1.59401 "/>
<symbol id="font_0_3">
<path d="M .45700003 .586 C .461 .6 .461 .602 .461 .609 C .461 .62700006 .447 .63600006 .432 .63600006 C .42200003 .63600006 .40600003 .63 .397 .615 C .395 .61 .387 .579 .38300003 .561 C .37600003 .535 .36900003 .508 .363 .48100005 L .318 .301 C .314 .286 .271 .21600002 .20500002 .21600002 C .15400002 .21600002 .143 .26000003 .143 .29700003 C .143 .34300003 .16000001 .40500004 .194 .49300004 C .21000001 .53400006 .21400002 .545 .21400002 .56500008 C .21400002 .61 .18200001 .6470001 .13200002 .6470001 C .037 .6470001 0 .50200006 0 .49300004 C 0 .48300005 .01 .48300005 .012 .48300005 C .022000002 .48300005 .023 .485 .028000003 .50100007 C .055000009 .595 .095000009 .625 .12900001 .625 C .13700001 .625 .15400002 .625 .15400002 .59300008 C .15400002 .568 .14400001 .54200008 .13700001 .523 C .097 .41700004 .079 .36 .079 .31300003 C .079 .224 .142 .194 .201 .194 C .24000003 .194 .274 .21100001 .30200003 .23900002 C .289 .187 .277 .13800001 .237 .08500001 C .21100001 .051 .17300001 .022 .127 .022 C .113000009 .022 .068 .025000006 .051000008 .06400001 C .067 .06400001 .080000009 .06400001 .094000007 .076000008 C .104 .08500001 .11400001 .098000008 .11400001 .117000009 C .11400001 .148 .087000008 .15200001 .07700001 .15200001 C .054000006 .15200001 .021 .136 .021 .087000008 C .021 .037 .065000008 0 .127 0 C .23 0 .333 .091000009 .361 .20400001 L .45700003 .586 Z "/>
</symbol>
<use xlink:href="#font_0_3" transform="matrix(27.673888,0,0,-27.673888,239.5192,26.812064)"/>
<path transform="matrix(2.7777777,0,0,-2.7777777,245.99721,272.51667)" stroke-width=".79701" stroke-linecap="butt" stroke-miterlimit="10" stroke-linejoin="miter" fill="none" stroke="#000000" d="M 0 0 C 0 0 6.4694 .12709 8.9068 .28114 C 11.3442 .43518 15.23158 .81013 17.56708 1.11032 C 19.90257 1.41049 23.57062 2.01402 25.73946 2.44469 C 27.90828 2.87534 31.25565 3.6757 33.19858 4.2142 C 35.14151 4.75272 38.07828 5.70825 39.74287 6.32585 C 41.40747 6.94345 43.85344 8.00267 45.19588 8.66545 C 46.53833 9.32825 48.4314 10.4321 49.4183 11.1028 C 50.40523 11.77351 51.70049 12.85976 52.30896 13.4995 C 52.91743 14.13925 53.58508 15.14449 53.80382 15.71365 C 54.02257 16.28282 54.05623 17.14143 53.88556 17.60168 C 53.71489 18.06192 53.12201 18.71481 52.57368 19.03079 C 52.02534 19.34676 50.83589 19.7379 49.93347 19.879 C 49.03105 20.02008 47.29268 20.1059 46.06961 20.0477 C 44.84653 19.98949 42.61977 19.73453 41.11835 19.45944 C 39.61693 19.18434 36.97838 18.56639 35.24837 18.06493 C 33.51834 17.56346 30.5526 16.57394 28.64957 15.84515 C 26.74654 15.11635 23.54904 13.75987 21.5326 12.8122 C 19.51614 11.86452 16.1846 10.16383 14.11629 9.01495 C 12.04799 7.86606 8.68427 5.85564 6.62561 4.5317 C 4.56696 3.20773 1.26913 .93785 -.72102 -.52724 C -2.71118 -1.99236 -5.85146 -4.46239 -7.71819 -6.02783 C -9.58492 -7.59329 -12.48166 -10.19131 -14.17513 -11.81 C -15.86859 -13.4287 -18.44524 -16.07309 -19.92355 -17.69424 C -21.40187 -19.3154 -23.6005 -21.92395 -24.82982 -23.49416 C -26.05914 -25.06435 -27.828 -27.54607 -28.78366 -29.01117 C -29.73932 -30.47627 -31.05022 -32.7463 -31.71756 -34.0537 C -32.38492 -35.3611 -33.2187 -37.33421 -33.59348 -38.43402 C -33.96825 -39.53381 -34.33072 -41.13242 -34.41876 -41.9804 C -34.50679 -42.82837 -34.41188 -43.98729 -34.22801 -44.54578 C -34.04414 -45.10425 -33.52562 -45.76662 -33.09348 -46.00558 C -32.66132 -46.24457 -31.76245 -46.36908 -31.1133 -46.26814 C -30.46414 -46.1672 -29.24373 -45.72943 -28.4147 -45.27806 C -27.58568 -44.8267 -26.10541 -43.81573 -25.13823 -43.01503 C -24.17105 -42.21432 -22.50412 -40.64511 -21.44392 -39.50714 C -20.38371 -38.36916 -18.60445 -36.26605 -17.49701 -34.81323 C -16.38957 -33.36043 -14.57172 -30.77065 -13.4623 -29.03625 C -12.35289 -27.30186 -10.56953 -24.2865 -9.50111 -22.3129 C -8.43268 -20.33928 -6.75017 -16.97333 -5.76181 -14.81181 C -4.77345 -12.6503 -3.25215 -9.02554 -2.37764 -6.73416 C -1.50313 -4.44278 -.19267 -.65611 .54109 1.70288 C 1.27487 4.0619 2.33754 7.907 2.91096 10.268 C 3.48438 12.62901 4.27281 16.4237 4.674 18.71936 C 5.07518 21.01501 5.57697 24.64912 5.80247 26.81346 C 6.028 28.97778 6.24467 32.34787 6.29947 34.31842 C 6.35425 36.28896 6.30048 39.29631 6.19739 41.01582 C 6.09428 42.73534 5.79755 45.29326 5.55637 46.71149 C 5.31519 48.12973 4.81207 50.16316 4.45901 51.23758 C 4.10597 52.312 3.44559 53.7562 3.01175 54.45523 C 2.57791 55.15427 1.81195 55.97229 1.3322 56.27577 C .85246 56.57925 .04298 56.74385 -.44592 56.64256 C -.93486 56.54128 -1.73022 56.0488 -2.19167 55.54565 C -2.6531 55.0425 -3.37407 53.90622 -3.77171 53.01616 C -4.16934 52.1261 -4.75691 50.38147 -5.05765 49.13068 C -5.35837 47.87987 -5.76411 45.57565 -5.93916 44.0012 C -6.11421 42.42676 -6.29308 39.63466 -6.31937 37.78305 C -6.34564 35.93144 -6.26749 32.73085 -6.12862 30.65611 C -5.98975 28.58139 -5.6316 25.06763 -5.31847 22.82977 C -5.00533 20.59192 -4.35979 16.86377 -3.87163 14.5272 C -3.38348 12.19063 -2.45561 8.35754 -1.80022 5.98935 C -1.1448 3.62115 .04501 -.2077 .85208 -2.54114 C 1.65913 -4.87459 3.08128 -8.59433 4.01654 -10.82857 C 4.9518 -13.06282 6.55988 -16.56967 7.59276 -18.6441 C 8.62564 -20.71854 10.36691 -23.91972 11.46095 -25.77968 C 12.555 -27.63962 14.36401 -30.45087 15.47792 -32.04932 C 16.59183 -33.64778 18.39955 -36.00114 19.48927 -37.30032 C 20.579 -38.5995 22.31244 -40.44104 23.33194 -41.4129 C 24.35146 -42.38477 25.93343 -43.67783 26.83723 -44.30486 C 27.74103 -44.93187 29.10162 -45.65636 29.84598 -45.93205 C 30.59033 -46.20776 31.65715 -46.36275 32.20201 -46.29193 C 32.74686 -46.22112 33.46162 -45.82358 33.77298 -45.42166 C 34.08434 -45.01976 34.39555 -44.10266 34.44601 -43.39522 C 34.49649 -42.68779 34.36671 -41.3019 34.13675 -40.3229 C 33.90678 -39.34392 33.30957 -37.54861 32.78853 -36.33923 C 32.2675 -35.12984 31.19403 -32.99901 30.38145 -31.6064 C 29.56888 -30.21379 28.02673 -27.82664 26.93198 -26.30219 C 25.8372 -24.77771 23.84842 -22.22144 22.49109 -20.61908 C 21.13377 -19.01671 18.73973 -16.37991 17.14925 -14.75342 C 15.55878 -13.12694 12.81367 -10.49464 11.02798 -8.89644 C 9.24228 -7.29822 6.21391 -4.75519 4.27908 -3.2345 C 2.34424 -1.71382 -.88545 .6643 -2.91702 2.06363 C -4.94861 3.46295 -8.29204 5.6106 -10.36316 6.85097 C -12.4343 8.09132 -15.79414 9.95224 -17.84433 11.00333 C -19.89452 12.0544 -23.17203 13.5866 -25.13953 14.42642 C -27.10701 15.26627 -30.20085 16.44048 -32.02466 17.05626 C -33.84848 17.67204 -36.66183 18.47676 -38.28435 18.86469 C -39.90688 19.25261 -42.35063 19.68715 -43.71877 19.85217 C -45.0869 20.01721 -47.07722 20.09816 -48.14491 20.05418 C -49.21262 20.01021 -50.68457 19.76707 -51.41405 19.53513 C -52.14351 19.30318 -53.04066 18.77472 -53.40244 18.38242 C -53.76419 17.99013 -54.04459 17.22687 -54.02138 16.70764 C -53.99817 16.1884 -53.64911 15.24942 -53.23503 14.6401 C -52.82094 14.03079 -51.83673 12.97633 -51.03688 12.31607 C -50.23703 11.6558 -48.63826 10.55292 -47.47015 9.8813 C -46.30206 9.2097 -44.12614 8.12013 -42.61795 7.47554 C -41.10974 6.83095 -38.4098 5.81738 -36.60005 5.23543 C -34.79028 4.65349 -31.63718 3.76912 -29.57433 3.28122 C -27.51149 2.7933 -23.99225 2.08676 -21.73242 1.7189 C -19.4726 1.35103 -15.68178 .85847 -13.28711 .62976 C -10.89246 .40105 -6.93633 .14813 -4.4733 .07048 C -2.01027 -.00716 2.00174 -.0074 4.46465 .07005 C 6.92755 .14752 10.88293 .40036 13.2776 .62889 C 15.67226 .85744 19.46367 1.34941 21.72377 1.71716 C 23.98389 2.08492 27.50383 2.79164 29.56699 3.27948 C 31.63014 3.76733 34.78357 4.65137 36.59357 5.23326 C 38.40358 5.81514 41.10371 6.82872 42.61232 7.47337 C 44.12094 8.11803 46.29819 9.20786 47.4667 9.8796 C 48.63524 10.55132 50.23431 11.65463 51.03429 12.31477 C 51.83426 12.97493 52.818 14.02814 53.23244 14.63751 C 53.6469 15.24687 53.99768 16.18736 54.02138 16.70677 C 54.04507 17.22618 53.76456 17.98882 53.40327 18.38112 C 53.042 18.77342 52.14642 19.30212 51.41751 19.53426 C 50.68858 19.76639 49.21732 20.00996 48.14967 20.05418 C 47.08205 20.0984 45.09073 20.01796 43.72266 19.85304 C 42.35458 19.68814 39.91173 19.2533 38.28955 18.86555 C 36.66737 18.47781 33.85472 17.67392 32.03116 17.05843 C 30.20758 16.44292 27.11388 15.2691 25.14645 14.42946 C 23.17903 13.5898 19.90144 12.05772 17.85127 11.00677 C 15.80109 9.95581 12.44116 8.09503 10.37009 6.85486 C 8.29901 5.61467 4.95595 3.46754 2.92436 2.06839 C .89279 .66924 -2.33714 -1.7087 -4.27216 -3.22932 C -6.20717 -4.74994 -9.23596 -7.29312 -11.02191 -8.89124 C -12.80786 -10.48935 -15.55333 -13.12088 -17.14406 -14.74738 C -18.73477 -16.37386 -21.1294 -19.0115 -22.48677 -20.61388 C -23.84416 -22.21623 -25.83228 -24.77179 -26.92722 -26.29613 C -28.02216 -27.82048 -29.56543 -30.20749 -30.37842 -31.60034 C -31.19142 -32.9932 -32.2654 -35.12527 -32.7868 -36.33492 C -33.3082 -37.54454 -33.90599 -39.3393 -34.1363 -40.31859 C -34.36664 -41.29788 -34.49706 -42.68515 -34.44688 -43.39307 C -34.39671 -44.10098 -34.086 -45.01866 -33.77472 -45.42079 C -33.46342 -45.82294 -32.74815 -46.22044 -32.20331 -46.29149 C -31.65845 -46.36255 -30.59169 -46.20827 -29.8477 -45.93292 C -29.10373 -45.65758 -27.74474 -44.93367 -26.84113 -44.307 C -25.9375 -43.68036 -24.35443 -42.38786 -23.33498 -41.41637 C -22.31554 -40.44487 -20.58315 -38.6039 -19.4936 -37.30508 C -18.40407 -36.00627 -16.59616 -33.65347 -15.48225 -32.05537 C -14.36835 -30.45726 -12.55931 -27.64673 -11.46527 -25.78703 C -10.37122 -23.92732 -8.63014 -20.72632 -7.59708 -18.65189 C -6.56401 -16.57745 -4.95505 -13.07018 -4.01956 -10.83594 C -3.08408 -8.60168 -1.6618 -4.8821 -.85468 -2.54893 C -.04756 -.21579 1.14215 3.61188 1.7976 5.97983 C 2.45308 8.34778 3.38115 12.18105 3.86948 14.51768 C 4.35779 16.85432 5.00378 20.58253 5.31717 22.82068 C 5.63057 25.05884 5.98903 28.57367 6.12819 30.64876 C 6.26735 32.72385 6.34627 35.92459 6.32024 37.77657 C 6.29419 39.62852 6.11551 42.42181 5.94046 43.99644 C 5.7654 45.57109 5.35918 47.87428 5.05852 49.12549 C 4.75784 50.37671 4.17097 52.1239 3.77344 53.01443 C 3.37592 53.90497 2.65482 55.04063 2.19337 55.54391 C 1.73193 56.0472 .93658 56.54004 .44766 56.6417 C -.04124 56.74335 -.85085 56.57976 -1.33047 56.27664 C -1.81009 55.97351 -2.57513 55.15573 -3.00916 54.45694 C -3.44316 53.75815 -4.10529 52.3141 -4.45859 51.24016 C -4.81187 50.16621 -5.31432 48.13445 -5.55551 46.71669 C -5.7967 45.29893 -6.09373 42.74104 -6.19696 41.0219 C -6.30019 39.30275 -6.35406 36.29645 -6.29947 34.3262 C -6.24486 32.35594 -6.02869 28.98589 -5.80334 26.82167 C -5.578 24.65746 -5.07628 21.02365 -4.67528 18.72801 C -4.27429 16.43237 -3.48637 12.63727 -2.91313 10.27623 C -2.33989 7.91518 -1.2773 4.07 -.54369 1.7111 C .1899 -.64777 1.4998 -4.4336 2.37419 -6.72508 C 3.24858 -9.01659 4.77007 -12.64265 5.75836 -14.80447 C 6.74666 -16.96628 8.42891 -20.33223 9.49722 -22.30597 C 10.56552 -24.2797 12.34874 -27.29526 13.45796 -29.02977 C 14.5672 -30.76428 16.38438 -33.35402 17.49182 -34.80719 C 18.59924 -36.26036 20.37921 -38.36473 21.4396 -39.50325 C 22.49998 -40.64177 24.1671 -42.21204 25.13434 -43.01286 C 26.10158 -43.81369 27.58148 -44.82346 28.41081 -45.27504 C 29.24014 -45.72664 30.46211 -46.16624 31.11157 -46.26772 C 31.76103 -46.36919 32.65935 -46.24495 33.09174 -46.00645 C 33.52412 -45.76796 34.04402 -45.10692 34.22801 -44.5488 C 34.412 -43.99068 34.50563 -42.83173 34.4179 -41.98386 C 34.33017 -41.136 33.97002 -39.53758 33.59566 -38.43791 C 33.22128 -37.33823 32.38696 -35.36519 31.71973 -34.05803 C 31.05249 -32.75087 29.7421 -30.48178 28.78668 -29.0168 C 27.83127 -27.55182 26.0626 -25.06943 24.83371 -23.49934 C 23.60481 -21.92928 21.40762 -19.32182 19.92961 -17.70073 C 18.45158 -16.07964 15.87447 -13.43437 14.18117 -11.81563 C 12.48788 -10.19687 9.59215 -7.5994 7.72554 -6.03389 C 5.85895 -4.46837 2.71811 -1.99773 .72794 -.53244 C -1.2622 .93283 -4.5596 3.20279 -6.61826 4.52693 C -8.6769 5.85107 -12.04112 7.86198 -14.10938 9.01106 C -16.17761 10.16013 -19.5083 11.86095 -21.52481 12.80873 C -23.54132 13.75653 -26.73988 15.11308 -28.64308 15.84213 C -30.5463 16.57117 -33.51169 17.56143 -35.24188 18.06322 C -36.97209 18.56499 -39.61154 19.18323 -41.11314 19.45857 C -42.61476 19.7339 -44.8411 19.98943 -46.06442 20.0477 C -47.28773 20.10596 -49.0271 20.01947 -49.93001 19.87857 C -50.83292 19.73767 -52.02312 19.34776 -52.57195 19.03209 C -53.12077 18.71643 -53.71465 18.06364 -53.88556 17.60341 C -54.05647 17.14317 -54.02232 16.28394 -53.80382 15.71497 C -53.58533 15.14598 -52.91881 14.14209 -52.3107 13.50253 C -51.70259 12.86296 -50.40735 11.77623 -49.42091 11.10541 C -48.43446 10.43457 -46.54315 9.33046 -45.20107 8.66762 C -43.859 8.00476 -41.4123 6.94554 -39.74806 6.32802 C -38.08382 5.71048 -35.149 4.75536 -33.20636 4.2168 C -31.26372 3.67824 -27.91553 2.8773 -25.74681 2.44641 C -23.5781 2.01553 -19.91104 1.41154 -17.57573 1.11118 C -15.24042 .81082 -11.3529 .43573 -8.91545 .28157 C -6.478 .1274 -.0082 0 -.0082 0 "/>
<symbol id="font_0_1">
<path d="M .059000009 .07000001 C .056 .055000005 .050000006 .032 .050000006 .027000003 C .050000006 .009000001 .064 0 .079 0 C .091000009 0 .10900001 .008000001 .11600001 .028 C .11700001 .030000002 .12900001 .077 .135 .102000009 L .157 .19200002 C .163 .21400002 .16900002 .23600002 .17400001 .259 C .17800002 .27600003 .186 .305 .187 .30900003 C .202 .34000004 .255 .43100003 .35 .43100003 C .395 .43100003 .404 .39400003 .404 .36100004 C .404 .29900003 .355 .17100002 .33900003 .128 C .33 .105000007 .329 .093 .329 .082 C .329 .035 .364 0 .411 0 C .50500008 0 .54200008 .14600002 .54200008 .15400002 C .54200008 .16400002 .53300008 .16400002 .53000006 .16400002 C .52000007 .16400002 .52000007 .16100002 .51500007 .14600002 C .49500004 .078 .462 .022000002 .41300003 .022000002 C .396 .022000002 .389 .032 .389 .055000005 C .389 .080000009 .398 .104 .407 .126 C .426 .17900002 .468 .28900004 .468 .34600003 C .468 .41300003 .425 .45300005 .35300002 .45300005 C .263 .45300005 .21400002 .38900004 .19700001 .36600004 C .19200002 .42200003 .15100001 .45300005 .105000007 .45300005 C .059000009 .45300005 .040000008 .41400004 .030000003 .39600004 C .014 .36200003 0 .30300004 0 .29900003 C 0 .28900004 .01 .28900004 .012 .28900004 C .022000002 .28900004 .023 .29000003 .029000001 .31200005 C .046000005 .38300003 .06600001 .43100003 .10200001 .43100003 C .12200001 .43100003 .133 .418 .133 .38500003 C .133 .36400003 .13000001 .35300002 .11700001 .30100004 L .059000009 .07000001 Z "/>
</symbol>
<use xlink:href="#font_0_1" transform="matrix(27.673888,0,0,-27.673888,81.213649,555.3294)"/>
<symbol id="font_1_6">
<path d="M .63100007 .19400002 C .646 .19400002 .665 .19400002 .665 .214 C .665 .23400001 .646 .23400001 .632 .23400001 L .033 .23400001 C .019000002 .23400001 0 .23400001 0 .214 C 0 .19400002 .019000002 .19400002 .034 .19400002 L .63100007 .19400002 M .632 0 C .646 0 .665 0 .665 .02000001 C .665 .040000008 .646 .040000008 .63100007 .040000008 L .034 .040000008 C .019000002 .040000008 0 .040000008 0 .02000001 C 0 0 .019000002 0 .033 0 L .632 0 Z "/>
</symbol>
<symbol id="font_1_4">
<path d="M .39900003 .223 C .39900003 .34200005 .317 .44200004 .209 .44200004 C .16100002 .44200004 .118000019 .42600004 .082 .39100004 L .082 .586 C .10200001 .58000007 .135 .573 .16700001 .573 C .29 .573 .36 .66400006 .36 .67700007 C .36 .683 .357 .688 .35 .688 C .349 .688 .347 .688 .342 .68500009 C .322 .67600008 .273 .656 .20600002 .656 C .16600001 .656 .120000008 .66300007 .073 .6840001 C .065 .68700006 .06300001 .68700006 .061000009 .68700006 C .051000004 .68700006 .051000004 .679 .051000004 .66300007 L .051000004 .36700005 C .051000004 .34900005 .051000004 .34100003 .065 .34100003 C .07200001 .34100003 .074 .34400005 .07800001 .35000003 C .08900002 .36600004 .12600002 .42000006 .207 .42000006 C .259 .42000006 .284 .37400005 .292 .35600005 C .308 .31900005 .31 .28000004 .31 .23 C .31 .19500001 .31 .135 .286 .093 C .262 .054000006 .22500001 .028 .17900002 .028 C .106000009 .028 .049000008 .08100001 .032 .14000002 C .035 .13900002 .038000008 .13800001 .049000008 .13800001 C .082 .13800001 .09900001 .163 .09900001 .187 C .09900001 .21100001 .082 .23600002 .049000008 .23600002 C .035 .23600002 0 .22900002 0 .18300002 C 0 .097 .069000009 0 .18100001 0 C .297 0 .39900003 .096 .39900003 .223 Z "/>
</symbol>
<symbol id="font_1_f">
<path d="M .07800001 .344 L .07800001 .076000008 C .07800001 .031000002 .067 .031000002 0 .031000002 L 0 0 C .035 .001 .08600001 .003 .113000009 .003 C .139 .003 .191 .001 .225 0 L .225 .031000002 C .158 .031000002 .147 .031000002 .147 .076000008 L .147 .26000003 C .147 .36400003 .218 .42000003 .282 .42000003 C .345 .42000003 .356 .36600004 .356 .30900003 L .356 .076000008 C .356 .031000002 .345 .031000002 .278 .031000002 L .278 0 C .31300003 .001 .36400003 .003 .391 .003 C .41700004 .003 .46900005 .001 .503 0 L .503 .031000002 C .43600003 .031000002 .425 .031000002 .425 .076000008 L .425 .26000003 C .425 .36400003 .496 .42000003 .56 .42000003 C .623 .42000003 .634 .36600004 .634 .30900003 L .634 .076000008 C .634 .031000002 .623 .031000002 .556 .031000002 L .556 0 C .591 .001 .642 .003 .669 .003 C .69500008 .003 .74700006 .001 .781 0 L .781 .031000002 C .72900006 .031000002 .70400008 .031000002 .703 .061000006 L .703 .252 C .703 .33800004 .703 .36900003 .67200008 .40500004 C .65800008 .42200003 .625 .44200004 .56700006 .44200004 C .48300005 .44200004 .439 .38200004 .42200003 .344 C .40800003 .43100003 .33400003 .44200004 .289 .44200004 C .216 .44200004 .169 .39900003 .141 .337 L .141 .44200004 L 0 .43100003 L 0 .4 C .07000001 .4 .07800001 .393 .07800001 .344 Z "/>
</symbol>
<symbol id="font_1_9">
<path d="M .08400001 .263 C .09 .41200004 .17400001 .43700005 .20800002 .43700005 C .31100003 .43700005 .321 .30200003 .321 .263 L .08400001 .263 M .083000008 .24200002 L .36200003 .24200002 C .38400004 .24200002 .38700003 .24200002 .38700003 .263 C .38700003 .36200003 .33300004 .45900003 .20800002 .45900003 C .09200001 .45900003 0 .35600005 0 .23100002 C 0 .097 .105000007 0 .22000002 0 C .342 0 .38700003 .111 .38700003 .13000001 C .38700003 .14000002 .379 .14200002 .374 .14200002 C .365 .14200002 .36300005 .136 .36100004 .128 C .326 .025000003 .236 .025000003 .22600001 .025000003 C .17600002 .025000003 .136 .055000005 .113000009 .092 C .083000008 .14000002 .083000008 .20600002 .083000008 .24200002 Z "/>
</symbol>
<symbol id="font_1_10">
<path d="M .07800001 .344 L .07800001 .076000008 C .07800001 .031000002 .067 .031000002 0 .031000002 L 0 0 C .035 .001 .08600001 .003 .113000009 .003 C .139 .003 .191 .001 .225 0 L .225 .031000002 C .158 .031000002 .147 .031000002 .147 .076000008 L .147 .26000003 C .147 .36400003 .218 .42000003 .282 .42000003 C .345 .42000003 .356 .36600004 .356 .30900003 L .356 .076000008 C .356 .031000002 .345 .031000002 .278 .031000002 L .278 0 C .31300003 .001 .36400003 .003 .391 .003 C .41700004 .003 .46900005 .001 .503 0 L .503 .031000002 C .451 .031000002 .42600004 .031000002 .425 .061000006 L .425 .252 C .425 .33800004 .425 .36900003 .39400003 .40500004 C .38000003 .42200003 .347 .44200004 .289 .44200004 C .216 .44200004 .169 .39900003 .141 .337 L .141 .44200004 L 0 .43100003 L 0 .4 C .07000001 .4 .07800001 .393 .07800001 .344 Z "/>
</symbol>
<symbol id="font_1_a">
<path d="M .19400002 .37800003 C .10700001 .37800003 .10700001 .47800005 .10700001 .50100007 C .10700001 .52800008 .10800001 .56 .12300001 .58500006 C .13100001 .59700009 .15400002 .62500008 .19400002 .62500008 C .28100003 .62500008 .28100003 .52500006 .28100003 .50200006 C .28100003 .47500003 .28000004 .44300003 .26500003 .41800005 C .25700004 .40600003 .23400003 .37800003 .19400002 .37800003 M .07800001 .33900003 C .07800001 .34300003 .07800001 .36600004 .095 .38600005 C .134 .35800005 .17500001 .35500003 .19400002 .35500003 C .28700004 .35500003 .356 .42400003 .356 .50100007 C .356 .53800007 .34000004 .57500007 .31500004 .59800007 C .351 .632 .38700003 .637 .40500004 .637 C .40700004 .637 .41200004 .637 .41500003 .63600006 C .404 .632 .39900003 .62100008 .39900003 .609 C .39900003 .592 .41200004 .58000007 .42800004 .58000007 C .43800003 .58000007 .45700003 .587 .45700003 .61 C .45700003 .62700006 .44500003 .65900006 .40600003 .65900006 C .38600005 .65900006 .342 .65300008 .3 .61200007 C .25800003 .64500007 .21600002 .64800009 .19400002 .64800009 C .10100001 .64800009 .032 .57900008 .032 .50200006 C .032 .458 .054 .42000003 .07900001 .39900003 C .066 .384 .048000006 .351 .048000006 .316 C .048000006 .28500004 .061 .24700001 .09200001 .22700002 C .032 .21000001 0 .16700001 0 .127 C 0 .055000009 .09900001 0 .22100002 0 C .33900003 0 .44300003 .051000015 .44300003 .12900001 C .44300003 .164 .42900003 .21500002 .37800003 .24300002 C .32500003 .27100004 .26700003 .27100004 .20600002 .27100004 C .18100001 .27100004 .13800001 .27100004 .13100001 .272 C .09900001 .27600003 .07800001 .307 .07800001 .33900003 M .222 .023000002 C .12100001 .023000002 .052000006 .074000019 .052000006 .127 C .052000006 .17300001 .09 .21000001 .134 .21300002 L .19300002 .21300002 C .279 .21300002 .39100004 .21300002 .39100004 .127 C .39100004 .073000017 .32000003 .023000002 .222 .023000002 Z "/>
</symbol>
<symbol id="font_1_b">
<path d="M .07800001 .076000008 C .07800001 .031000002 .067 .031000002 0 .031000002 L 0 0 C .035 .001 .08600001 .003 .113000009 .003 C .139 .003 .191 .001 .225 0 L .225 .031000002 C .158 .031000002 .147 .031000002 .147 .076000008 L .147 .26000003 C .147 .36400003 .218 .42000003 .282 .42000003 C .345 .42000003 .356 .36600004 .356 .30900003 L .356 .076000008 C .356 .031000002 .345 .031000002 .278 .031000002 L .278 0 C .31300003 .001 .36400003 .003 .391 .003 C .41700004 .003 .46900005 .001 .503 0 L .503 .031000002 C .451 .031000002 .42600004 .031000002 .425 .061000006 L .425 .252 C .425 .33800004 .425 .36900003 .39400003 .40500004 C .38000003 .42200003 .347 .44200004 .289 .44200004 C .20500002 .44200004 .161 .38200004 .14400001 .344 L .14400001 .694 L 0 .683 L 0 .652 C .07000001 .652 .07800001 .64500007 .07800001 .596 L .07800001 .076000008 Z "/>
</symbol>
<symbol id="font_1_7">
<path d="M .291 .087000008 C .29500003 .047000003 .32200004 .005000001 .36900003 .005000001 C .39000003 .005000001 .45100004 .019000002 .45100004 .1 L .45100004 .15600002 L .42600004 .15600002 L .42600004 .1 C .42600004 .042000005 .40100003 .036000004 .39000003 .036000004 C .35700003 .036000004 .35300002 .081 .35300002 .086 L .35300002 .286 C .35300002 .328 .35300002 .367 .31700004 .404 C .27800004 .44300003 .22800002 .45900003 .18 .45900003 C .098 .45900003 .029 .41200004 .029 .34600003 C .029 .316 .049000004 .29900003 .075 .29900003 C .10300001 .29900003 .121 .31900005 .121 .34500004 C .121 .35700003 .116000007 .39000003 .07 .39100004 C .09700001 .42600004 .146 .43700005 .178 .43700005 C .22700003 .43700005 .284 .39800004 .284 .30900003 L .284 .272 C .23300001 .26900003 .16300002 .26600004 .1 .23600002 C .024999999 .20200002 0 .15000002 0 .106000009 C 0 .025000003 .09700001 0 .16 0 C .22600001 0 .272 .040000004 .291 .087000008 M .284 .25100003 L .284 .15100001 C .284 .056 .21200001 .022000002 .167 .022000002 C .11800001 .022000002 .077 .057000005 .077 .107 C .077 .16200002 .11900001 .24500002 .284 .25100003 Z "/>
</symbol>
<symbol id="font_1_11">
<path d="M .17500001 .20500002 C .197 .20100002 .279 .18500002 .279 .113000009 C .279 .062000004 .24400002 .022000002 .16600001 .022000002 C .082 .022000002 .046000005 .079 .027000003 .16400002 C .024000004 .17700002 .023000002 .18100001 .013000004 .18100001 C 0 .18100001 0 .17400001 0 .15600002 L 0 .024 C 0 .0070000009 0 0 .011000004 0 C .016000003 0 .017 .0010000002 .036000007 .020000002 C .038000004 .022000002 .038000004 .024 .056 .043 C .1 .0010000002 .14500001 0 .16600001 0 C .28100003 0 .32700003 .067 .32700003 .13900002 C .32700003 .19200002 .29700003 .22200002 .28500004 .23400001 C .25200004 .26600004 .213 .27400003 .171 .28200004 C .115 .293 .048 .30600003 .048 .36400003 C .048 .39900003 .07400001 .44000004 .16 .44000004 C .27 .44000004 .27500005 .35000003 .277 .31900005 C .27800004 .31000004 .28700004 .31000004 .28900004 .31000004 C .30200003 .31000004 .30200003 .31500004 .30200003 .33400003 L .30200003 .43500004 C .30200003 .45200003 .30200003 .45900003 .291 .45900003 C .286 .45900003 .284 .45900003 .27100004 .44700004 C .26800005 .44300003 .25800003 .43400003 .254 .43100003 C .21600002 .45900003 .17500001 .45900003 .16 .45900003 C .038000004 .45900003 0 .39200003 0 .33600004 C 0 .30100004 .016000003 .27300004 .043000007 .25100003 C .075 .22500003 .10300001 .21900001 .17500001 .20500002 Z "/>
</symbol>
<symbol id="font_1_c">
<path d="M .144 .44200004 L .0040000008 .43100003 L .0040000008 .4 C .069000009 .4 .07800001 .39400003 .07800001 .34500004 L .07800001 .076000008 C .07800001 .031000002 .067 .031000002 0 .031000002 L 0 0 C .032000007 .001 .086 .003 .11000001 .003 C .14500001 .003 .18 .001 .21400002 0 L .21400002 .031000002 C .148 .031000002 .144 .036000004 .144 .075 L .144 .44200004 M .148 .61600008 C .148 .648 .123 .669 .095000009 .669 C .064 .669 .042000005 .642 .042000005 .61600008 C .042000005 .58900007 .064 .563 .095000009 .563 C .123 .563 .148 .58400008 .148 .61600008 Z "/>
</symbol>
<symbol id="font_1_e">
<path d="M .144 .694 L 0 .683 L 0 .652 C .07000001 .652 .07800001 .64500007 .07800001 .596 L .07800001 .076000008 C .07800001 .031000002 .067 .031000002 0 .031000002 L 0 0 C .033 .001 .086 .003 .11100001 .003 C .136 .003 .185 .001 .22200004 0 L .22200004 .031000002 C .155 .031000002 .144 .031000002 .144 .076000008 L .144 .694 Z "/>
</symbol>
<symbol id="font_1_d">
<path d="M .07800001 .076000008 C .07800001 .031000002 .067 .031000002 0 .031000002 L 0 0 C .033000005 .001 .08 .003 .10900001 .003 C .13900002 .003 .17900002 .002 .21900001 0 L .21900001 .031000002 C .15200001 .031000002 .14100002 .031000002 .14100002 .076000008 L .14100002 .179 L .20500002 .23400001 C .282 .128 .32400004 .072000008 .32400004 .054 C .32400004 .035 .307 .031000002 .28800003 .031000002 L .28800003 0 C .316 .001 .37500004 .003 .39600004 .003 C .425 .003 .45400004 .002 .48300005 0 L .48300005 .031000002 C .44600005 .031000002 .42400003 .031000002 .38600005 .08400001 L .259 .263 C .25800003 .26500003 .25300003 .27100004 .25300003 .27400003 C .25300003 .27800004 .32400004 .33800004 .33400003 .34600003 C .397 .397 .439 .39900003 .46000005 .4 L .46000005 .43100003 C .43100003 .42800004 .418 .42800004 .39000003 .42800004 C .35400004 .42800004 .29200004 .43 .27800004 .43100003 L .27800004 .4 C .29700003 .39900003 .307 .388 .307 .37500004 C .307 .35500003 .293 .34300003 .28500004 .33600004 L .14400001 .21400002 L .14400001 .694 L 0 .683 L 0 .652 C .07000001 .652 .07800001 .64500007 .07800001 .596 L .07800001 .076000008 Z "/>
</symbol>
<symbol id="font_1_8">
<path d="M .34600003 .06600001 L .34600003 0 L .493 .011000001 L .493 .042000005 C .423 .042000005 .41500003 .049000004 .41500003 .098000008 L .41500003 .705 L .271 .694 L .271 .663 C .34100003 .663 .349 .656 .349 .607 L .349 .39100004 C .32 .42700003 .277 .45300005 .22299999 .45300005 C .10500001 .45300005 0 .35500003 0 .22600001 C 0 .09900001 .098 0 .21200001 0 C .276 0 .321 .034 .34600003 .06600001 M .34600003 .33400003 L .34600003 .12900001 C .34600003 .111 .34600003 .109000008 .335 .092 C .305 .044 .26 .022000002 .21700001 .022000002 C .17200002 .022000002 .136 .048 .11200001 .086 C .086 .127 .083000008 .18400002 .083000008 .22500003 C .083000008 .26200003 .085 .32200004 .114 .367 C .13500002 .39800004 .17300001 .43100003 .227 .43100003 C .262 .43100003 .30400003 .41600005 .335 .37100003 C .34600003 .35400004 .34600003 .35200004 .34600003 .33400003 Z "/>
</symbol>
<symbol id="font_1_12">
<path d="M .35900004 .09 L .35900004 0 L .503 .011000001 L .503 .042000005 C .43300004 .042000005 .425 .049000004 .425 .098000008 L .425 .45300005 L .278 .44200004 L .278 .411 C .34800003 .411 .356 .404 .356 .35500003 L .356 .17700002 C .356 .09 .308 .022000002 .23500002 .022000002 C .15100001 .022000002 .147 .069000009 .147 .12100001 L .147 .45300005 L 0 .44200004 L 0 .411 C .07800001 .411 .07800001 .40800003 .07800001 .31900005 L .07800001 .16900002 C .07800001 .091000009 .07800001 0 .23000002 0 C .286 0 .33 .028 .35900004 .09 Z "/>
</symbol>
<use xlink:href="#font_1_6" transform="matrix(27.673888,0,0,-27.673888,106.26083,551.3444)"/>
<use xlink:href="#font_1_4" transform="matrix(27.673888,0,0,-27.673888,135.31844,555.63388)"/>
<use xlink:href="#font_1_f" transform="matrix(27.673888,0,0,-27.673888,157.87265,555.025)"/>
<use xlink:href="#font_1_9" transform="matrix(27.673888,0,0,-27.673888,180.81432,555.3294)"/>
<use xlink:href="#font_1_10" transform="matrix(27.673888,0,0,-27.673888,193.2122,555.025)"/>
<use xlink:href="#font_1_a" transform="matrix(27.673888,0,0,-27.673888,208.4882,560.7258)"/>
<use xlink:href="#font_1_b" transform="matrix(27.673888,0,0,-27.673888,222.43584,555.025)"/>
<use xlink:href="#font_1_7" transform="matrix(27.673888,0,0,-27.673888,238.09928,555.3294)"/>
<use xlink:href="#font_1_11" transform="matrix(27.673888,0,0,-27.673888,251.68715,555.3294)"/>
<use xlink:href="#font_1_c" transform="matrix(27.673888,0,0,-27.673888,262.59068,555.025)"/>
<use xlink:href="#font_1_e" transform="matrix(27.673888,0,0,-27.673888,270.284,555.025)"/>
<use xlink:href="#font_1_d" transform="matrix(27.673888,0,0,-27.673888,277.83897,555.025)"/>
<use xlink:href="#font_1_7" transform="matrix(27.673888,0,0,-27.673888,291.28846,555.3294)"/>
<use xlink:href="#font_1_10" transform="matrix(27.673888,0,0,-27.673888,304.87635,555.025)"/>
<use xlink:href="#font_1_4" transform="matrix(27.673888,0,0,-27.673888,329.97657,555.63388)"/>
<use xlink:href="#font_1_8" transform="matrix(27.673888,0,0,-27.673888,352.58613,555.3294)"/>
<use xlink:href="#font_1_7" transform="matrix(27.673888,0,0,-27.673888,368.19419,555.3294)"/>
<use xlink:href="#font_1_12" transform="matrix(27.673888,0,0,-27.673888,381.75437,555.3294)"/>
<use xlink:href="#font_1_10" transform="matrix(27.673888,0,0,-27.673888,397.14106,555.025)"/>
<path transform="matrix(2.7777777,0,0,-2.7777777,818.38339,272.51667)" stroke-width=".3985" stroke-linecap="butt" stroke-miterlimit="10" stroke-linejoin="miter" fill="none" stroke="#000000" d="M -85.04042 0 L 84.58214 0 "/>
<path transform="matrix(2.7777777,0,0,-2.7777777,1053.3336,272.51667)" stroke-width=".31879" stroke-linecap="round" stroke-linejoin="round" fill="none" stroke="#000000" d="M -1.19551 1.59401 C -1.09587 .99626 0 .09961 .29886 0 C 0 -.09961 -1.09587 -.99626 -1.19551 -1.59401 "/>
<use xlink:href="#font_0_2" transform="matrix(27.673888,0,0,-27.673888,1065.183,278.77943)"/>
<path transform="matrix(2.7777777,0,0,-2.7777777,818.38339,272.51667)" stroke-width=".3985" stroke-linecap="butt" stroke-miterlimit="10" stroke-linejoin="miter" fill="none" stroke="#000000" d="M 0 -85.04042 L 0 84.58214 "/>
<path transform="matrix(0,-2.7777777,-2.7777777,-0,818.38339,37.566289)" stroke-width=".31879" stroke-linecap="round" stroke-linejoin="round" fill="none" stroke="#000000" d="M -1.19551 1.59401 C -1.09587 .99626 0 .09961 .29886 0 C 0 -.09961 -1.09587 -.99626 -1.19551 -1.59401 "/>
<use xlink:href="#font_0_3" transform="matrix(27.673888,0,0,-27.673888,811.90536,26.812064)"/>
<path transform="matrix(2.7777777,0,0,-2.7777777,818.38339,272.51667)" stroke-width=".79701" stroke-linecap="butt" stroke-miterlimit="10" stroke-linejoin="miter" fill="none" stroke="#000000" d="M 0 0 C 0 0 5.17401 .10092 7.13556 .2249 C 9.0971 .34889 12.23145 .64972 14.13748 .89362 C 16.04352 1.1375 19.0581 1.62735 20.87297 1.98274 C 22.68785 2.33813 25.52843 3.00032 27.21788 3.4551 C 28.90732 3.90988 31.51662 4.72202 33.04935 5.26051 C 34.58209 5.79901 36.91614 6.7329 38.2649 7.33626 C 39.61365 7.93962 41.62845 8.96237 42.77022 9.60925 C 43.91197 10.25615 45.57848 11.33136 46.49393 11.9986 C 47.40936 12.66582 48.69383 13.75554 49.36815 14.4182 C 50.04247 15.08087 50.92932 16.14201 51.35391 16.77467 C 51.7785 17.40733 52.25725 18.40076 52.42834 18.97803 C 52.59944 19.55528 52.66739 20.43787 52.58708 20.93526 C 52.50679 21.43265 52.17458 22.16837 51.84961 22.5629 C 51.52464 22.95741 50.80254 23.5081 50.2449 23.77876 C 49.68726 24.04942 48.60385 24.38503 47.83046 24.51364 C 47.05708 24.64224 45.63927 24.73436 44.67078 24.70569 C 43.70229 24.67702 41.98886 24.50385 40.85017 24.30688 C 39.71149 24.10994 37.74474 23.65811 36.4638 23.28609 C 35.18288 22.91408 33.01088 22.17494 31.61809 21.62558 C 30.2253 21.07623 27.89825 20.05125 26.42546 19.32664 C 24.95265 18.60205 22.5233 17.29648 21.00317 16.40312 C 19.48303 15.50977 17.00388 13.93866 15.46927 12.88788 C 13.93466 11.8371 11.45905 10.02187 9.94273 8.82982 C 8.42644 7.63777 6.00761 5.60948 4.54076 4.29639 C 3.07391 2.9833 .7596 .77687 -.62932 -.63408 C -2.01826 -2.04506 -4.1848 -4.39082 -5.46986 -5.87299 C -6.75493 -7.35515 -8.73296 -9.79286 -9.89127 -11.31648 C -11.04958 -12.8401 -12.8056 -15.32037 -13.81827 -16.85426 C -14.83093 -18.38814 -16.33759 -20.85997 -17.1899 -22.3717 C -18.04222 -23.88345 -19.27974 -26.2938 -19.96118 -27.7499 C -20.64262 -29.20601 -21.59642 -31.49867 -22.10138 -32.86638 C -22.60632 -34.23409 -23.27284 -36.35959 -23.60056 -37.60744 C -23.92828 -38.85529 -24.3095 -40.76155 -24.46347 -41.86014 C -24.61745 -42.95874 -24.7222 -44.60344 -24.71045 -45.52548 C -24.69868 -46.44753 -24.54407 -47.78424 -24.3787 -48.50566 C -24.2133 -49.22708 -23.82175 -50.22401 -23.51839 -50.725 C -23.21501 -51.22601 -22.61458 -51.85172 -22.1922 -52.1165 C -21.76984 -52.38127 -20.99388 -52.61555 -20.47417 -52.63338 C -19.95445 -52.6512 -19.03996 -52.47966 -18.44644 -52.24495 C -17.8529 -52.01025 -16.83885 -51.42932 -16.19637 -50.94171 C -15.55386 -50.45412 -14.48172 -49.46587 -13.81569 -48.73058 C -13.14966 -47.99529 -12.06035 -46.61531 -11.39606 -45.64226 C -10.73178 -44.6692 -9.66609 -42.91307 -9.02791 -41.7174 C -8.38974 -40.52176 -7.38567 -38.42233 -6.79645 -37.02481 C -6.20723 -35.62727 -5.30049 -33.21942 -4.78127 -31.6449 C -4.26202 -30.07039 -3.48538 -27.39998 -3.05414 -25.67674 C -2.62288 -23.9535 -2.0016 -21.0658 -1.67305 -19.225 C -1.34448 -17.38422 -.90054 -14.33318 -.68599 -12.4095 C -.47145 -10.48582 -.21997 -7.33012 -.12671 -5.36043 C -.03346 -3.39072 .01729 -.19218 -.01382 1.7868 C -.04495 3.76581 -.19667 6.95157 -.3512 8.90291 C -.50574 10.85425 -.85504 13.9643 -1.12761 15.85077 C -1.40019 17.73724 -1.9343 20.71295 -2.31578 22.49931 C -2.69728 24.28569 -3.39998 27.07262 -3.87726 28.7257 C -4.35454 30.37877 -5.1992 32.92422 -5.75577 34.41357 C -6.31233 35.90292 -7.27216 38.16069 -7.88861 39.45999 C -8.50508 40.7593 -9.54454 42.69124 -10.1988 43.77803 C -10.85306 44.86482 -11.93582 46.43681 -12.60414 47.29283 C -13.27245 48.14885 -14.3581 49.33527 -15.01553 49.94775 C -15.67297 50.56024 -16.72145 51.34602 -17.34259 51.7073 C -17.96373 52.06857 -18.93274 52.44353 -19.49231 52.55162 C -20.05188 52.65971 -20.90154 52.62811 -21.37558 52.48631 C -21.84962 52.34451 -22.54346 51.91391 -22.90894 51.52953 C -23.2744 51.14514 -23.77328 50.32959 -24.00974 49.7159 C -24.24619 49.10222 -24.52263 47.9308 -24.61311 47.1064 C -24.70361 46.28198 -24.73161 44.78717 -24.662 43.77414 C -24.5924 42.76111 -24.3512 40.98178 -24.11137 39.80516 C -23.87157 38.62854 -23.3497 36.60574 -22.93358 35.2938 C -22.51746 33.98183 -21.706 31.76547 -21.11217 30.34946 C -20.51833 28.93343 -19.42143 26.57597 -18.65363 25.08806 C -17.88582 23.60016 -16.51208 21.15234 -15.57828 19.62553 C -14.64447 18.09872 -13.01077 15.61655 -11.92332 14.08385 C -10.83589 12.55116 -8.96503 10.0857 -7.74069 8.57893 C -6.51636 7.07217 -4.43915 4.67429 -3.0991 3.22412 C -1.75908 1.77396 .486 -.50745 1.91743 -1.87288 C 3.34886 -3.2383 5.72232 -5.36147 7.21774 -6.61696 C 8.71317 -7.87244 11.1662 -9.79805 12.6954 -10.92157 C 14.22462 -12.04509 16.70782 -13.7407 18.23924 -14.7145 C 19.77068 -15.68826 22.23216 -17.12956 23.73291 -17.93993 C 25.23366 -18.75027 27.61882 -19.91736 29.05573 -20.55505 C 30.49263 -21.19275 32.74835 -22.07541 34.08917 -22.53607 C 35.42998 -22.99673 37.5059 -23.59143 38.7195 -23.87521 C 39.93307 -24.15901 41.77888 -24.46994 42.83595 -24.58154 C 43.89304 -24.69316 45.46423 -24.73111 46.33821 -24.67973 C 47.21219 -24.62837 48.46724 -24.41287 49.13501 -24.2113 C 49.80276 -24.00972 50.7081 -23.56189 51.15106 -23.22684 C 51.59402 -22.89178 52.12354 -22.24503 52.32758 -21.79643 C 52.53162 -21.34784 52.66585 -20.5338 52.62169 -19.99362 C 52.57753 -19.45345 52.30724 -18.51134 52.00922 -17.90317 C 51.7112 -17.295 51.02444 -16.2613 50.47371 -15.61028 C 49.92297 -14.95926 48.83589 -13.879 48.03981 -13.211 C 47.24373 -12.543 45.76616 -11.45567 44.73608 -10.79572 C 43.70601 -10.13574 41.86342 -9.08235 40.61574 -8.45438 C 39.36807 -7.8264 37.18797 -6.84317 35.74362 -6.26962 C 34.29929 -5.69608 31.8208 -4.81943 30.20584 -4.3206 C 28.59087 -3.82178 25.85991 -3.08125 24.10403 -2.67438 C 22.34816 -2.26749 19.4152 -1.68896 17.55064 -1.388 C 15.68608 -1.08702 12.60394 -.68997 10.6655 -.50519 C 8.72707 -.3204 5.55519 -.11848 3.57967 -.05621 C 1.60414 .00606 -1.59715 .006 -3.57274 -.05621 C -5.54834 -.11842 -8.72058 -.32016 -10.65901 -.50476 C -12.59744 -.68936 -15.67911 -1.08586 -17.54373 -1.3867 C -19.40836 -1.68755 -22.34192 -2.26624 -24.09798 -2.67307 C -25.85403 -3.07988 -28.5852 -3.82011 -30.20023 -4.31888 C -31.81526 -4.81764 -34.29361 -5.69435 -35.738 -6.26788 C -37.1824 -6.84143 -39.36256 -7.82466 -40.61053 -8.45264 C -41.85852 -9.08063 -43.70232 -10.13408 -44.73264 -10.79398 C -45.76295 -11.45387 -47.24017 -12.54082 -48.03636 -13.20883 C -48.83255 -13.87683 -49.92012 -14.95752 -50.47112 -15.60855 C -51.0221 -16.25957 -51.70909 -17.2929 -52.00748 -17.901 C -52.30586 -18.50911 -52.57716 -19.45123 -52.62169 -19.99146 C -52.66621 -20.5317 -52.53241 -21.34587 -52.32843 -21.79471 C -52.12445 -22.24355 -51.5942 -22.89124 -51.15149 -23.22641 C -50.70877 -23.56158 -49.80501 -24.00879 -49.1376 -24.21043 C -48.47021 -24.41208 -47.21516 -24.62819 -46.34125 -24.67973 C -45.46733 -24.7313 -43.89577 -24.69344 -42.83899 -24.58199 C -41.78221 -24.47054 -39.93796 -24.16019 -38.72467 -23.87651 C -37.5114 -23.59282 -35.43513 -22.99797 -34.09436 -22.53738 C -32.7536 -22.0768 -30.49812 -21.19426 -29.06134 -20.5568 C -27.62456 -19.91933 -25.23972 -18.75308 -23.73897 -17.94296 C -22.2382 -17.13284 -19.77635 -15.6916 -18.24487 -14.71796 C -16.7134 -13.7443 -14.23036 -12.04892 -12.70103 -10.92546 C -11.17169 -9.802 -8.71803 -7.87633 -7.2225 -6.62085 C -5.72696 -5.36536 -3.3536 -3.242 -1.92218 -1.87677 C -.49074 -.51152 1.75432 1.76907 3.09436 3.21893 C 4.43439 4.6688 6.51141 7.06607 7.73593 8.57289 C 8.96045 10.07971 10.83218 12.5463 11.91986 14.07909 C 13.00755 15.6119 14.64131 18.09364 15.57524 19.62033 C 16.50917 21.14702 17.88316 23.59445 18.65103 25.08244 C 19.4189 26.57042 20.51567 28.92856 21.10957 30.3447 C 21.70346 31.76083 22.51505 33.97713 22.93141 35.28903 C 23.34778 36.60092 23.87051 38.62329 24.11052 39.79997 C 24.35051 40.97665 24.5913 42.75642 24.66115 43.7698 C 24.731 44.78319 24.70418 46.2791 24.61398 47.1038 C 24.52379 47.92851 24.24748 49.09993 24.01103 49.71375 C 23.77458 50.32756 23.2751 51.14323 22.9098 51.5278 C 22.5445 51.91237 21.85204 52.34315 21.37817 52.48544 C 20.90431 52.62773 20.0541 52.66107 19.49448 52.55336 C 18.93486 52.44563 17.96584 52.07019 17.34477 51.70903 C 16.7237 51.34789 15.67563 50.56282 15.01813 49.95033 C 14.36063 49.33784 13.27423 48.15047 12.60587 47.29456 C 11.9375 46.43863 10.85516 44.86778 10.20096 43.78148 C 9.54675 42.69518 8.50717 40.7643 7.89078 39.46518 C 7.27438 38.16606 6.31493 35.90762 5.75836 34.41833 C 5.20181 32.92905 4.35681 30.38422 3.87941 28.73132 C 3.40201 27.07843 2.69919 24.29155 2.31752 22.50537 C 1.93584 20.71918 1.40123 17.74405 1.12848 15.8577 C .85573 13.97134 .5063 10.86118 .35164 8.90984 C .19699 6.9585 .04507 3.77274 .01382 1.79372 C -.01741 -.18527 .03316 -3.38393 .1263 -5.3535 C .21942 -7.32309 .4707 -10.47823 .68513 -12.40172 C .89955 -14.32521 1.34329 -17.37587 1.67174 -19.21678 C 2.0002 -21.0577 2.62123 -23.94629 3.05241 -25.66982 C 3.4836 -27.39334 4.26047 -30.0642 4.77953 -31.63884 C 5.29858 -33.21347 6.20427 -35.62086 6.79343 -37.01875 C 7.38257 -38.41666 8.38745 -40.51782 9.02576 -41.71394 C 9.66406 -42.91006 10.72957 -44.66647 11.3939 -45.63966 C 12.05824 -46.61284 13.14798 -47.9927 13.81395 -48.72798 C 14.47992 -49.46327 15.5514 -50.45126 16.19377 -50.93912 C 16.83615 -51.42696 17.85025 -52.00908 18.44383 -52.24408 C 19.03743 -52.4791 19.95212 -52.65039 20.47202 -52.63293 C 20.9919 -52.61548 21.76854 -52.3828 22.19092 -52.11821 C 22.61328 -51.85362 23.2129 -51.22691 23.5162 -50.72588 C 23.8195 -50.22484 24.21133 -49.22795 24.37695 -48.50696 C 24.54259 -47.78595 24.69803 -46.45093 24.71002 -45.52937 C 24.72202 -44.60782 24.61722 -42.96344 24.46347 -41.8649 C 24.30972 -40.76636 23.92928 -38.8596 23.60185 -37.61176 C 23.27443 -36.3639 22.60837 -34.23885 22.10355 -32.87114 C 21.59872 -31.50343 20.64455 -29.21008 19.96333 -27.75421 C 19.28212 -26.29836 18.046 -23.88983 17.19382 -22.3782 C 16.34161 -20.86658 14.83391 -18.39352 13.82129 -16.85945 C 12.80869 -15.3254 11.0536 -12.84523 9.89558 -11.32167 C 8.73756 -9.79811 6.76006 -7.36082 5.47505 -5.87862 C 4.19003 -4.39641 2.02303 -2.04999 .63408 -.63884 C -.75485 .7723 -3.06873 2.97879 -4.53558 4.29205 C -6.00243 5.60533 -8.42168 7.63419 -9.93799 8.82635 C -11.45428 10.01852 -13.92953 11.83359 -15.46408 12.88443 C -16.99863 13.93527 -19.47777 15.50656 -20.99797 16.4001 C -22.51817 17.29364 -24.94783 18.5997 -26.4207 19.3245 C -27.89355 20.04927 -30.22047 21.07433 -31.61333 21.62387 C -33.00618 22.1734 -35.17838 22.91304 -36.45947 23.28523 C -37.74057 23.65742 -39.70784 24.10944 -40.84671 24.30646 C -41.98558 24.50346 -43.69931 24.67645 -44.66776 24.70526 C -45.6362 24.73407 -47.05301 24.64244 -47.82657 24.51408 C -48.60014 24.38571 -49.68535 24.05058 -50.24316 23.78004 C -50.801 23.50952 -51.52182 22.95872 -51.84703 22.5642 C -52.17223 22.16968 -52.50626 21.43376 -52.58708 20.93655 C -52.66792 20.43935 -52.60043 19.55771 -52.42964 18.98062 C -52.25885 18.40353 -51.78062 17.41006 -51.3561 16.77728 C -50.93156 16.1445 -50.04413 15.08249 -49.36987 14.41994 C -48.69562 13.75739 -47.41148 12.6691 -46.49652 12.00204 C -45.58156 11.33499 -43.9168 10.25934 -42.77539 9.61227 C -41.634 8.96523 -39.61876 7.94191 -38.27008 7.33842 C -36.92139 6.73494 -34.58762 5.80124 -33.05498 5.26268 C -31.52234 4.72412 -28.91324 3.91177 -27.22392 3.45683 C -25.5346 3.00188 -22.69414 2.33913 -20.87946 1.98361 C -19.06476 1.6281 -16.05069 1.13843 -14.14484 .89447 C -12.23898 .65053 -9.10503 .34943 -7.14336 .22533 C -5.18169 .10124 -.00647 0 -.00647 0 "/>
<use xlink:href="#font_0_1" transform="matrix(27.673888,0,0,-27.673888,604.3998,555.3294)"/>
<symbol id="font_1_2">
<path d="M .24800003 .37400005 C .33 .40100003 .388 .47100006 .388 .55 C .388 .632 .3 .688 .204 .688 C .10300001 .688 .027000003 .628 .027000003 .55200007 C .027000003 .519 .049000004 .5 .078 .5 C .109000008 .5 .12900001 .522 .12900001 .55100008 C .12900001 .6010001 .082 .6010001 .067 .6010001 C .098 .65000006 .164 .66300007 .20000002 .66300007 C .24100003 .66300007 .29600004 .64100006 .29600004 .55100008 C .29600004 .53900006 .29400004 .48100005 .268 .43700005 C .238 .38900004 .204 .38600005 .17900002 .38500003 C .171 .38400004 .14700002 .38200004 .14000002 .38200004 C .132 .38100005 .125 .38000003 .125 .37000004 C .125 .35900004 .132 .35900004 .14900002 .35900004 L .19300002 .35900004 C .275 .35900004 .312 .29100005 .312 .193 C .312 .057000005 .24300003 .028 .199 .028 C .15600002 .028 .081 .045 .046000005 .104 C .081 .09900001 .11200001 .12100001 .11200001 .15900001 C .11200001 .19500001 .085 .215 .056 .215 C .031999999 .215 0 .201 0 .157 C 0 .06600001 .093 0 .20200002 0 C .32400004 0 .41500003 .091000009 .41500003 .193 C .41500003 .27500005 .35200004 .35300005 .24800003 .37400005 Z "/>
</symbol>
<symbol id="font_1_1">
<path d="M .07700001 .07700001 L .18300002 .18 C .33900003 .31800003 .39900003 .372 .39900003 .47200004 C .39900003 .586 .30900003 .666 .18700002 .666 C .074 .666 0 .574 0 .485 C 0 .42900003 .05 .42900003 .053000008 .42900003 C .07000001 .42900003 .105000007 .441 .105000007 .48200003 C .105000007 .508 .08700001 .53400006 .052000006 .53400006 C .044000005 .53400006 .042000008 .53400006 .039 .53300008 C .062000004 .59800007 .11600001 .63500007 .17400001 .63500007 C .26500003 .63500007 .308 .554 .308 .47200004 C .308 .39200003 .25800003 .31300003 .20300003 .25100003 L .011000004 .037 C 0 .026 0 .024 0 0 L .37100003 0 L .39900003 .17400001 L .374 .17400001 C .36900003 .14400001 .36200003 .1 .352 .085 C .345 .07700001 .279 .07700001 .257 .07700001 L .07700001 .07700001 Z "/>
</symbol>
<use xlink:href="#font_1_6" transform="matrix(27.673888,0,0,-27.673888,629.447,551.3444)"/>
<use xlink:href="#font_1_2" transform="matrix(27.673888,0,0,-27.673888,658.2832,555.63388)"/>
<use xlink:href="#font_1_f" transform="matrix(27.673888,0,0,-27.673888,681.0588,555.025)"/>
<use xlink:href="#font_1_9" transform="matrix(27.673888,0,0,-27.673888,704.0004,555.3294)"/>
<use xlink:href="#font_1_10" transform="matrix(27.673888,0,0,-27.673888,716.3984,555.025)"/>
<use xlink:href="#font_1_a" transform="matrix(27.673888,0,0,-27.673888,731.6743,560.7258)"/>
<use xlink:href="#font_1_b" transform="matrix(27.673888,0,0,-27.673888,745.622,555.025)"/>
<use xlink:href="#font_1_7" transform="matrix(27.673888,0,0,-27.673888,761.2854,555.3294)"/>
<use xlink:href="#font_1_11" transform="matrix(27.673888,0,0,-27.673888,774.8733,555.3294)"/>
<use xlink:href="#font_1_c" transform="matrix(27.673888,0,0,-27.673888,785.7768,555.025)"/>
<use xlink:href="#font_1_e" transform="matrix(27.673888,0,0,-27.673888,793.4701,555.025)"/>
<use xlink:href="#font_1_d" transform="matrix(27.673888,0,0,-27.673888,801.025,555.025)"/>
<use xlink:href="#font_1_7" transform="matrix(27.673888,0,0,-27.673888,814.50228,555.3294)"/>
<use xlink:href="#font_1_10" transform="matrix(27.673888,0,0,-27.673888,828.06246,555.025)"/>
<use xlink:href="#font_1_1" transform="matrix(27.673888,0,0,-27.673888,853.1626,555.025)"/>
<symbol id="font_2_1">
<path d="M .24200003 .26900003 L .04200001 .46800003 C .030000002 .48000003 .028000012 .48200003 .02000001 .48200003 C .010000005 .48200003 0 .47300003 0 .462 C 0 .455 .002000004 .453 .013000011 .44200004 L .21300002 .241 L .013000011 .040000004 C .002000004 .029000003 0 .027000003 0 .02 C 0 .009000001 .010000005 0 .02000001 0 C .028000012 0 .030000002 .0020000004 .04200001 .014000001 L .24100001 .21300002 L .448 .006 C .45 .005 .45700003 0 .463 0 C .47500003 0 .48300005 .009000001 .48300005 .02 C .48300005 .022 .48300005 .026 .48000003 .031000004 C .47900004 .033000005 .32 .19000001 .27000005 .241 L .453 .42400003 C .458 .43 .473 .44300003 .478 .44900004 C .47900004 .451 .48300005 .455 .48300005 .462 C .48300005 .47300003 .47500003 .48200003 .463 .48200003 C .45500005 .48200003 .45100004 .47800002 .44 .467 L .24200003 .26900003 Z "/>
</symbol>
<use xlink:href="#font_2_1" transform="matrix(27.673888,0,0,-27.673888,875.8042,554.77597)"/>
<symbol id="font_1_3">
<path d="M .266 .165 L .266 .078 C .266 .042000005 .26400004 .031000002 .19000001 .031000002 L .16900002 .031000002 L .16900002 0 C .21000001 .003 .26200003 .003 .30400003 .003 C .34600003 .003 .39900003 .003 .44000004 0 L .44000004 .031000002 L .41900004 .031000002 C .34500004 .031000002 .34300003 .042000005 .34300003 .078 L .34300003 .165 L .44300003 .165 L .44300003 .19600001 L .34300003 .19600001 L .34300003 .651 C .34300003 .671 .34300003 .67700007 .32700003 .67700007 C .31800003 .67700007 .31500004 .67700007 .307 .665 L 0 .19600001 L 0 .165 L .266 .165 M .272 .19600001 L .028 .19600001 L .272 .569 L .272 .19600001 Z "/>
</symbol>
<symbol id="font_1_5">
<path d="M .121 .47900004 C .075 .509 .071 .54300007 .071 .56000009 C .071 .62100008 .136 .66300007 .20700002 .66300007 C .28000004 .66300007 .344 .61100009 .344 .53900006 C .344 .48200003 .305 .43400005 .245 .39900003 L .121 .47900004 M .26700003 .38400004 C .33900003 .42100004 .388 .47300006 .388 .53900006 C .388 .63100007 .29900003 .688 .208 .688 C .108 .688 .027000003 .614 .027000003 .521 C .027000003 .503 .029 .45800004 .071 .41100005 C .082 .39900003 .11900001 .37400005 .144 .35700003 C .086 .32800005 0 .272 0 .17300001 C 0 .067 .102000009 0 .20700002 0 C .32000003 0 .41500003 .083000008 .41500003 .19000001 C .41500003 .22600001 .404 .27100004 .36600004 .31300003 C .34700004 .33400003 .33100004 .34400005 .26700003 .38400004 M .167 .34200005 L .29000003 .26400004 C .31800003 .245 .365 .215 .365 .154 C .365 .080000009 .29000003 .028 .208 .028 C .122 .028 .050000006 .09 .050000006 .17300001 C .050000006 .231 .082 .29500003 .167 .34200005 Z "/>
</symbol>
<use xlink:href="#font_1_3" transform="matrix(27.673888,0,0,-27.673888,900.1832,555.025)"/>
<use xlink:href="#font_1_6" transform="matrix(27.673888,0,0,-27.673888,922.4884,551.3444)"/>
<use xlink:href="#font_1_5" transform="matrix(27.673888,0,0,-27.673888,951.3246,555.63388)"/>
<use xlink:href="#font_1_8" transform="matrix(27.673888,0,0,-27.673888,974.1555,555.3294)"/>
<use xlink:href="#font_1_7" transform="matrix(27.673888,0,0,-27.673888,989.76358,555.3294)"/>
<use xlink:href="#font_1_12" transform="matrix(27.673888,0,0,-27.673888,1003.3238,555.3294)"/>
<use xlink:href="#font_1_10" transform="matrix(27.673888,0,0,-27.673888,1018.71047,555.025)"/>
</g>
</svg>
