<?xml version="1.0" encoding="UTF-8" standalone="no"?>
<!DOCTYPE svg PUBLIC "-//W3C//DTD SVG 1.1//EN" "http://www.w3.org/Graphics/SVG/1.1/DTD/svg11.dtd">
<svg xmlns="http://www.w3.org/2000/svg" xmlns:xlink="http://www.w3.org/1999/xlink" version="1.1" width="1190.9193pt" height="238.32498pt" viewBox="0 0 1190.9193 238.32498">
<g enable-background="new">
<path transform="matrix(2.7777777,0,0,-2.7777777,150.75556,86.88055)" stroke-width=".79701" stroke-linecap="butt" stroke-miterlimit="10" stroke-linejoin="miter" fill="none" stroke="#000000" d="M 51.02477 0 C 51.02477 0 51.00345 1.16336 50.97934 1.60942 C 50.95523 2.0555 50.89827 2.77089 50.851 3.21498 C 50.80374 3.65907 50.70866 4.36945 50.6387 4.81015 C 50.56877 5.25085 50.4395 5.9551 50.34688 6.39131 C 50.25426 6.82753 50.08707 7.52386 49.97108 7.95418 C 49.8551 8.38449 49.64967 9.06985 49.51096 9.49278 C 49.37224 9.9157 49.13133 10.58784 48.97127 11.0023 C 48.8112 11.41676 48.53853 12.07494 48.35736 12.4799 C 48.1762 12.88489 47.86734 13.5269 47.66547 13.92105 C 47.46358 14.31523 47.12427 14.93869 46.90233 15.3208 C 46.68039 15.70294 46.30751 16.30632 46.06587 16.67514 C 45.82425 17.04395 45.42067 17.62436 45.16078 17.97899 C 44.9009 18.33362 44.47012 18.89148 44.19275 19.23108 C 43.91537 19.57066 43.45555 20.10295 43.16167 20.42659 C 42.86778 20.75021 42.38416 21.25684 42.07463 21.56355 C 41.7651 21.87029 41.2554 22.34866 40.93077 22.6372 C 40.60617 22.92578 40.07315 23.37338 39.73502 23.64326 C 39.39688 23.91316 38.84409 24.33163 38.49371 24.58237 C 38.14333 24.8331 37.57123 25.21938 37.2097 25.45033 C 36.84818 25.68132 36.2596 26.0364 35.88806 26.24709 C 35.51653 26.45778 34.9126 26.77917 34.53192 26.96884 C 34.15123 27.15848 33.53302 27.44598 33.14436 27.61401 C 32.7557 27.78203 32.12547 28.03342 31.73073 28.1799 C 31.33598 28.3264 30.69882 28.54506 30.29932 28.66989 C 29.89981 28.79471 29.25456 28.97679 28.85129 29.07956 C 28.44803 29.18231 27.79901 29.3301 27.3929 29.41057 C 26.98677 29.49106 26.33179 29.60164 25.92424 29.65959 C 25.5167 29.71753 24.86285 29.79234 24.45558 29.82828 C 24.04831 29.86421 23.3948 29.90445 22.98888 29.9186 C 22.58296 29.93275 21.93329 29.9379 21.52997 29.93027 C 21.12662 29.92264 20.48134 29.89265 20.08192 29.86359 C 19.68253 29.83449 19.0456 29.77097 18.6513 29.72058 C 18.257 29.67018 17.6283 29.57153 17.24013 29.50038 C 16.85196 29.4292 16.23425 29.2987 15.85362 29.20763 C 15.47299 29.11655 14.86884 28.9545 14.49681 28.84389 C 14.12479 28.73329 13.53484 28.54024 13.17232 28.41049 C 12.80983 28.28075 12.23607 28.05699 11.88417 27.90883 C 11.53227 27.76068 10.97629 27.5083 10.63612 27.34267 C 10.29594 27.17705 9.75995 26.89726 9.43243 26.71501 C 9.10492 26.53275 8.58958 26.22704 8.2756 26.02908 C 7.96162 25.83113 7.46909 25.50095 7.16951 25.28827 C 6.86992 25.07559 6.40088 24.72298 6.11636 24.4962 C 5.83183 24.26944 5.3876 23.89368 5.11887 23.6539 C 4.85011 23.41414 4.4317 23.01967 4.17938 22.76814 C 3.92706 22.51663 3.53554 22.10333 3.30023 21.84111 C 3.06494 21.57892 2.70135 21.15013 2.4835 20.87828 C 2.26569 20.60645 1.93013 20.1623 1.73024 19.88184 C 1.53036 19.6014 1.22449 19.14482 1.04288 18.85696 C .8613 18.56912 .58443 18.10103 .42145 17.80719 C .25847 17.51334 .01245 17.03787 -.13168 16.73912 C -.27586 16.44037 -.49223 15.9568 -.61765 15.65404 C -.74307 15.35127 -.92917 14.86226 -1.03561 14.55688 C -1.14207 14.25154 -1.29744 13.76006 -1.38493 13.45326 C -1.47244 13.14645 -1.59758 12.6527 -1.66626 12.34561 C -1.73495 12.03853 -1.82996 11.54623 -1.87999 11.24004 C -1.93002 10.93384 -1.99529 10.4429 -2.02687 10.13873 C -2.05847 9.83458 -2.09424 9.34875 -2.10771 9.04782 C -2.1212 8.74687 -2.12831 8.26645 -2.12407 7.96976 C -2.11981 7.67305 -2.09865 7.2008 -2.0771 6.90945 C -2.05554 6.61812 -2.00705 6.15492 -1.96873 5.86993 C -1.93044 5.58495 -1.85547 5.133 -1.80095 4.85544 C -1.74644 4.57788 -1.64592 4.13882 -1.57584 3.8695 C -1.50572 3.60019 -1.38062 3.1744 -1.29565 2.91432 C -1.21071 2.65425 -1.06255 2.24498 -.96347 1.99509 C -.8644 1.74518 -.69405 1.35233 -.58157 1.11322 C -.46913 .8741 -.27786 .49915 -.15297 .27171 C -.02809 .04427 .182 -.31087 .31854 -.52605 C .4551 -.74121 .6839 -1.07687 .83112 -1.27905 C .97833 -1.48125 1.22278 -1.79472 1.37962 -1.98328 C 1.53645 -2.17184 1.79591 -2.46349 1.96147 -2.63805 C 2.12704 -2.81264 2.39955 -3.08124 2.5729 -3.24146 C 2.74628 -3.40167 3.03088 -3.64732 3.21097 -3.79283 C 3.39104 -3.93831 3.68517 -4.15973 3.8708 -4.29007 C 4.05644 -4.42043 4.35883 -4.61736 4.54893 -4.73232 C 4.73907 -4.84724 5.0476 -5.01918 5.2411 -5.1186 C 5.4346 -5.21802 5.74751 -5.36485 5.94351 -5.44885 C 6.1395 -5.53285 6.45619 -5.65547 6.6537 -5.72408 C 6.8512 -5.79266 7.16933 -5.89017 7.367 -5.94325 C 7.56468 -5.99632 7.88188 -6.06905 8.07849 -6.10661 C 8.2751 -6.1442 8.58945 -6.19171 8.78401 -6.21407 C 8.97859 -6.2364 9.28897 -6.26001 9.48083 -6.26764 C 9.67271 -6.27528 9.97879 -6.27588 10.1669 -6.26907 C 10.355 -6.26227 10.65347 -6.23958 10.8366 -6.2186 C 11.01973 -6.19762 11.30972 -6.15251 11.48671 -6.11777 C 11.66371 -6.08305 11.94217 -6.01616 12.11229 -5.96829 C 12.28241 -5.92043 12.55028 -5.8331 12.71284 -5.77274 C 12.8754 -5.71237 13.12979 -5.6054 13.28392 -5.53319 C 13.43805 -5.461 13.67854 -5.33568 13.82373 -5.25238 C 13.96892 -5.16911 14.19548 -5.02676 14.33032 -4.9329 C 14.46518 -4.83905 14.67181 -4.6795 14.79565 -4.57594 C 14.91951 -4.47235 15.11021 -4.29869 15.22296 -4.18639 C 15.33572 -4.0741 15.50745 -3.88681 15.60837 -3.7666 C 15.70927 -3.64641 15.86151 -3.44725 15.95029 -3.32008 C 16.03906 -3.19293 16.17259 -2.98337 16.24821 -2.85008 C 16.32387 -2.71683 16.43335 -2.498 16.49542 -2.35959 C 16.55748 -2.22118 16.64693 -1.99496 16.69565 -1.85248 C 16.74437 -1.70999 16.8115 -1.4782 16.84656 -1.33264 C 16.8816 -1.18709 16.92694 -.951 16.94829 -.80334 C 16.96964 -.65569 16.99323 -.4171 17.00046 -.26846 C 17.00769 -.11981 17.00769 .1193 17.00046 .26794 C 16.99323 .41658 16.96964 .65521 16.94829 .80283 C 16.92694 .95044 16.8816 1.18631 16.84656 1.33186 C 16.8115 1.47743 16.74426 1.70943 16.69565 1.85196 C 16.64703 1.99449 16.55838 2.2208 16.49619 2.3592 C 16.43402 2.49762 16.3232 2.71628 16.24744 2.84958 C 16.1717 2.98286 16.03894 3.19264 15.95029 3.31982 C 15.86162 3.44702 15.70927 3.6462 15.60837 3.76634 C 15.50745 3.8865 15.33572 4.07358 15.22296 4.18587 C 15.11021 4.29816 14.91951 4.47209 14.79565 4.57568 C 14.67181 4.67924 14.46507 4.83853 14.33032 4.93239 C 14.19559 5.02626 13.96959 5.16881 13.82451 5.25212 C 13.67943 5.33545 13.43893 5.46074 13.2847 5.53293 C 13.13046 5.60513 12.87541 5.7121 12.71284 5.77248 C 12.55026 5.83286 12.28297 5.92027 12.11295 5.96817 C 11.94292 6.01605 11.66444 6.08296 11.48735 6.11765 C 11.31026 6.15234 11.01974 6.19722 10.8366 6.21822 C 10.65346 6.2392 10.35542 6.26208 10.1674 6.26895 C 9.97939 6.2758 9.67326 6.27524 9.48148 6.26764 C 9.2897 6.26007 8.97968 6.2366 8.78517 6.21432 C 8.59068 6.19203 8.27637 6.1446 8.07967 6.10701 C 7.88297 6.06941 7.56522 5.99646 7.36752 5.94337 C 7.16985 5.8903 6.8523 5.79298 6.65486 5.72447 C 6.45743 5.65593 6.14058 5.53348 5.94455 5.4495 C 5.74852 5.36551 5.43552 5.21855 5.24202 5.11913 C 5.0485 5.01968 4.73997 4.84775 4.54985 4.7328 C 4.35973 4.61789 4.05736 4.42105 3.8717 4.29073 C 3.68608 4.1604 3.39197 3.93893 3.21187 3.79346 C 3.03177 3.648 2.74707 3.40244 2.5737 3.24223 C 2.40033 3.08203 2.12787 2.81345 1.96225 2.63882 C 1.79663 2.46422 1.53691 2.17227 1.38002 1.98367 C 1.2231 1.79506 .97858 1.48158 .83138 1.27945 C .68417 1.07732 .45563 .74197 .31906 .52681 C .18251 .31168 -.02794 -.04378 -.15285 -.27118 C -.27774 -.4986 -.46878 -.87312 -.58119 -1.11218 C -.6936 -1.35124 -.86397 -1.7442 -.96309 -1.99417 C -1.0622 -2.24414 -1.21057 -2.65384 -1.29553 -2.9138 C -1.3805 -3.17378 -1.50534 -3.59868 -1.57544 -3.86795 C -1.64551 -4.13722 -1.74615 -4.5769 -1.80069 -4.85454 C -1.85524 -5.13219 -1.93027 -5.58408 -1.96861 -5.86902 C -2.00696 -6.15398 -2.05553 -6.61691 -2.0771 -6.9083 C -2.09868 -7.19966 -2.1198 -7.67241 -2.12407 -7.9691 C -2.12833 -8.2658 -2.1213 -8.74577 -2.10785 -9.04665 C -2.09439 -9.34753 -2.05858 -9.8336 -2.02701 -10.1377 C -1.99544 -10.44179 -1.93024 -10.93224 -1.88025 -11.23834 C -1.83025 -11.54445 -1.73534 -12.03676 -1.66666 -12.34392 C -1.59798 -12.6511 -1.4727 -13.14532 -1.3852 -13.45222 C -1.2977 -13.75912 -1.14246 -14.2505 -1.03601 -14.55586 C -.92957 -14.8612 -.74344 -15.35022 -.61804 -15.653 C -.49265 -15.95578 -.27637 -16.43933 -.1322 -16.73807 C .01192 -17.03682 .25801 -17.51239 .42093 -17.80615 C .58386 -18.09993 .86037 -18.56752 1.04198 -18.85542 C 1.22359 -19.1433 1.52995 -19.60054 1.72986 -19.88106 C 1.92975 -20.16159 2.26497 -20.60544 2.48273 -20.87724 C 2.7005 -21.14906 3.0641 -21.57794 3.29932 -21.84009 C 3.53456 -22.10222 3.92575 -22.51501 4.17809 -22.7666 C 4.4304 -23.01816 4.84917 -23.41336 5.11795 -23.65327 C 5.38673 -23.89316 5.83073 -24.26872 6.11531 -24.49554 C 6.39989 -24.72238 6.86942 -25.0755 7.16899 -25.28813 C 7.46855 -25.50076 7.96057 -25.83014 8.27443 -26.02805 C 8.5883 -26.22594 9.10362 -26.53223 9.43114 -26.7145 C 9.75864 -26.89674 10.29477 -27.17598 10.63495 -27.34163 C 10.97513 -27.5073 11.5311 -27.76035 11.88287 -27.90843 C 12.23463 -28.05653 12.80789 -28.27946 13.17026 -28.40907 C 13.53262 -28.53868 14.12262 -28.73192 14.49461 -28.8426 C 14.86658 -28.95328 15.47057 -29.11557 15.85127 -29.20685 C 16.232 -29.29813 16.8503 -29.42934 17.23857 -29.50049 C 17.62685 -29.57167 18.25536 -29.6694 18.64973 -29.7198 C 19.04413 -29.77019 19.68178 -29.83455 20.08115 -29.86371 C 20.48053 -29.89287 21.12483 -29.92229 21.52814 -29.93001 C 21.93144 -29.93773 22.5822 -29.93349 22.98796 -29.91937 C 23.39374 -29.90526 24.04544 -29.8643 24.45273 -29.82828 C 24.86 -29.79225 25.51566 -29.71768 25.92334 -29.65971 C 26.33101 -29.60176 26.98497 -29.49088 27.39095 -29.41045 C 27.79694 -29.33002 28.44609 -29.18283 28.84935 -29.08006 C 29.2526 -28.97731 29.89772 -28.79451 30.29736 -28.66975 C 30.697 -28.545 31.33496 -28.32742 31.7297 -28.18094 C 32.12442 -28.03447 32.75363 -27.78203 33.14229 -27.61401 C 33.53094 -27.44598 34.15005 -27.15938 34.53087 -26.96986 C 34.9117 -26.78036 35.5155 -26.4588 35.88702 -26.24812 C 36.25854 -26.03745 36.84703 -25.68234 37.20854 -25.45139 C 37.57004 -25.22043 38.14215 -24.83423 38.49252 -24.58354 C 38.84291 -24.33282 39.3957 -23.91443 39.73384 -23.64444 C 40.07198 -23.37445 40.60516 -22.9262 40.9296 -22.6376 C 41.25406 -22.34901 41.76279 -21.87108 42.0723 -21.56447 C 42.38182 -21.25786 42.8665 -20.75136 43.16035 -20.42775 C 43.45422 -20.10414 43.91292 -19.5718 44.19029 -19.23212 C 44.46767 -18.89244 44.89925 -18.33406 45.15947 -17.9795 C 45.41972 -17.62495 45.82407 -17.04538 46.06587 -16.6767 C 46.3077 -16.30801 46.68057 -15.7046 46.90233 -15.32236 C 47.12408 -14.94011 47.46246 -14.3158 47.66417 -13.9217 C 47.86588 -13.5276 48.1747 -12.88672 48.35606 -12.482 C 48.53741 -12.07726 48.81102 -11.41919 48.97127 -11.00464 C 49.13152 -10.59009 49.3724 -9.91724 49.51096 -9.4942 C 49.64949 -9.07118 49.8538 -8.38596 49.96979 -7.95573 C 50.08577 -7.52551 50.25389 -6.82976 50.34688 -6.39352 C 50.43987 -5.95729 50.57025 -5.25264 50.64001 -4.81172 C 50.70978 -4.37079 50.80263 -3.65973 50.84972 -3.21564 C 50.89679 -2.77155 50.95523 -2.05696 50.97934 -1.611 C 51.00345 -1.16501 51.02345 -.0014 51.02345 -.0014 "/>
<symbol id="font_0_4">
<path d="M .33300004 .38900004 C .31500004 .42600004 .286 .45300005 .24100001 .45300005 C .124 .45300005 0 .30600003 0 .16000001 C 0 .06600001 .055000005 0 .133 0 C .153 0 .20300001 .0040000008 .263 .075 C .27100004 .033000005 .30600003 0 .35400004 0 C .38900004 0 .41200004 .023000002 .42800004 .055000005 C .44500003 .091000009 .45800004 .15200001 .45800004 .15400002 C .45800004 .16400002 .44900004 .16400002 .44600005 .16400002 C .43600003 .16400002 .43500004 .16000001 .43200005 .14600002 C .41500003 .081 .397 .022000002 .35600005 .022000002 C .32900004 .022000002 .32600004 .048 .32600004 .068 C .32600004 .09 .32800005 .098000008 .33900003 .14200002 C .35000003 .18400002 .35200004 .19400002 .36100004 .23200003 L .397 .37200005 C .40400005 .40000005 .40400005 .40200005 .40400005 .40600003 C .40400005 .42300005 .39200003 .43300004 .37500004 .43300004 C .35100005 .43300004 .33600004 .411 .33300004 .38900004 M .26800005 .13000001 C .263 .112 .263 .11000001 .24800001 .093 C .20400001 .038000004 .163 .022000002 .135 .022000002 C .08499999 .022000002 .07100001 .077 .07100001 .116000007 C .07100001 .16600001 .103 .28900004 .126 .335 C .157 .39400003 .202 .43100003 .242 .43100003 C .307 .43100003 .32100005 .34900005 .32100005 .34300003 C .32100005 .337 .31900005 .33100004 .31800003 .32600004 L .26800005 .13000001 Z "/>
</symbol>
<symbol id="font_0_2">
<path d="M .384 .962 C .38900004 .975 .38900004 .97900006 .38900004 .98 C .38900004 .99100008 .38000003 1 .36900003 1 C .36200003 1 .35500003 .99700006 .352 .99100008 L .004999999 .037999989 C 0 .024999991 0 .020999983 0 .019999996 C 0 .008999988 .009 0 .02 0 C .033000005 0 .036000004 .0069999846 .042 .023999989 L .384 .962 Z "/>
</symbol>
<symbol id="font_0_5">
<path d="M .192 .694 C .192 .695 .192 .705 .179 .705 C .156 .705 .083000008 .697 .057 .695 C .049 .694 .038 .693 .038 .675 C .038 .663 .047000003 .663 .062000004 .663 C .11 .663 .112 .656 .112 .646 C .112 .639 .103 .605 .098000008 .584 L .015999999 .25800003 C .0040000008 .20800002 0 .19200002 0 .15700002 C 0 .062000004 .053 0 .127 0 C .24500002 0 .36800004 .14900002 .36800004 .293 C .36800004 .38400004 .31500004 .45300005 .235 .45300005 C .18900001 .45300005 .148 .42400003 .118 .39300005 L .192 .694 M .098000008 .316 C .104 .33800004 .104 .34000004 .113000009 .351 C .162 .41600005 .207 .43100003 .233 .43100003 C .26900003 .43100003 .29600004 .40100003 .29600004 .337 C .29600004 .27800004 .263 .16300002 .24500002 .12500002 C .212 .058000003 .16600001 .022000002 .127 .022000002 C .092999998 .022000002 .060000007 .049000004 .060000007 .123 C .060000007 .14200002 .060000007 .16100002 .076000008 .22400002 L .098000008 .316 Z "/>
</symbol>
<symbol id="font_0_1">
<path d="M .592 .53800007 C .60400006 .544 .611 .549 .611 .56000009 C .611 .57100006 .60200008 .58000007 .591 .58000007 C .588 .58000007 .586 .58000007 .573 .5730001 L .019000002 .312 C .008000001 .307 0 .30200003 0 .29 C 0 .278 .008000001 .273 .019000002 .268 L .573 .007000003 C .586 0 .588 0 .591 0 C .60200008 0 .611 .0090000019 .611 .020000002 C .611 .031000004 .60400006 .036000004 .592 .042000005 L .067 .29 L .592 .53800007 Z "/>
</symbol>
<use xlink:href="#font_0_4" transform="matrix(27.673888,0,0,-27.673888,177.19028,200.40161)"/>
<use xlink:href="#font_0_2" transform="matrix(27.673888,0,0,-27.673888,192.24489,207.01567)"/>
<use xlink:href="#font_0_5" transform="matrix(27.673888,0,0,-27.673888,205.86045,200.40161)"/>
<use xlink:href="#font_0_1" transform="matrix(27.673888,0,0,-27.673888,226.42214,201.20415)"/>
<symbol id="font_1_1">
<path d="M .205 .64000007 C .205 .66400006 .205 .666 .18200003 .666 C .120000008 .60200008 .032000007 .60200008 0 .60200008 L 0 .57100006 C .020000004 .57100006 .07900001 .57100006 .13100001 .597 L .13100001 .079 C .13100001 .043 .128 .031000002 .038000004 .031000002 L .0060000049 .031000002 L .0060000049 0 C .04100001 .003 .128 .003 .168 .003 C .20800002 .003 .29500003 .003 .33000005 0 L .33000005 .031000002 L .29800005 .031000002 C .20800002 .031000002 .205 .042000005 .205 .079 L .205 .64000007 Z "/>
</symbol>
<use xlink:href="#font_1_1" transform="matrix(27.673888,0,0,-27.673888,255.78797,200.0972)"/>
<symbol id="font_1_5">
<path d="M .549 .25800003 L .52400007 .25800003 C .513 .156 .499 .031000002 .323 .031000002 L .24100003 .031000002 C .194 .031000002 .192 .038000004 .192 .071 L .192 .60400006 C .192 .638 .192 .652 .28700004 .652 L .32000003 .652 L .32000003 .683 C .284 .68 .19300002 .68 .15200001 .68 C .11300001 .68 .035000005 .68 0 .683 L 0 .652 L .024000004 .652 C .101 .652 .10300001 .64100006 .10300001 .605 L .10300001 .078 C .10300001 .042000005 .101 .031000002 .024000004 .031000002 L 0 .031000002 L 0 0 L .521 0 L .549 .25800003 Z "/>
</symbol>
<symbol id="font_1_c">
<path d="M .144 .44200004 L .0040000008 .43100003 L .0040000008 .4 C .069000009 .4 .07800001 .39400003 .07800001 .34500004 L .07800001 .076000008 C .07800001 .031000002 .067 .031000002 0 .031000002 L 0 0 C .032000007 .001 .086 .003 .11000001 .003 C .14500001 .003 .18 .001 .21400002 0 L .21400002 .031000002 C .148 .031000002 .144 .036000004 .144 .075 L .144 .44200004 M .148 .61600008 C .148 .648 .123 .669 .095000009 .669 C .064 .669 .042000005 .642 .042000005 .61600008 C .042000005 .58900007 .064 .563 .095000009 .563 C .123 .563 .148 .58400008 .148 .61600008 Z "/>
</symbol>
<symbol id="font_1_f">
<path d="M .07800001 .344 L .07800001 .076000008 C .07800001 .031000002 .067 .031000002 0 .031000002 L 0 0 C .035 .001 .08600001 .003 .113000009 .003 C .139 .003 .191 .001 .225 0 L .225 .031000002 C .158 .031000002 .147 .031000002 .147 .076000008 L .147 .26000003 C .147 .36400003 .218 .42000003 .282 .42000003 C .345 .42000003 .356 .36600004 .356 .30900003 L .356 .076000008 C .356 .031000002 .345 .031000002 .278 .031000002 L .278 0 C .31300003 .001 .36400003 .003 .391 .003 C .41700004 .003 .46900005 .001 .503 0 L .503 .031000002 C .43600003 .031000002 .425 .031000002 .425 .076000008 L .425 .26000003 C .425 .36400003 .496 .42000003 .56 .42000003 C .623 .42000003 .634 .36600004 .634 .30900003 L .634 .076000008 C .634 .031000002 .623 .031000002 .556 .031000002 L .556 0 C .591 .001 .642 .003 .669 .003 C .69500008 .003 .74700006 .001 .781 0 L .781 .031000002 C .72900006 .031000002 .70400008 .031000002 .703 .061000006 L .703 .252 C .703 .33800004 .703 .36900003 .67200008 .40500004 C .65800008 .42200003 .625 .44200004 .56700006 .44200004 C .48300005 .44200004 .439 .38200004 .42200003 .344 C .40800003 .43100003 .33400003 .44200004 .289 .44200004 C .216 .44200004 .169 .39900003 .141 .337 L .141 .44200004 L 0 .43100003 L 0 .4 C .07000001 .4 .07800001 .393 .07800001 .344 Z "/>
</symbol>
<symbol id="font_1_6">
<path d="M .291 .087000008 C .29500003 .047000003 .32200004 .005000001 .36900003 .005000001 C .39000003 .005000001 .45100004 .019000002 .45100004 .1 L .45100004 .15600002 L .42600004 .15600002 L .42600004 .1 C .42600004 .042000005 .40100003 .036000004 .39000003 .036000004 C .35700003 .036000004 .35300002 .081 .35300002 .086 L .35300002 .286 C .35300002 .328 .35300002 .367 .31700004 .404 C .27800004 .44300003 .22800002 .45900003 .18 .45900003 C .098 .45900003 .029 .41200004 .029 .34600003 C .029 .316 .049000004 .29900003 .075 .29900003 C .10300001 .29900003 .121 .31900005 .121 .34500004 C .121 .35700003 .116000007 .39000003 .07 .39100004 C .09700001 .42600004 .146 .43700005 .178 .43700005 C .22700003 .43700005 .284 .39800004 .284 .30900003 L .284 .272 C .23300001 .26900003 .16300002 .26600004 .1 .23600002 C .024999999 .20200002 0 .15000002 0 .106000009 C 0 .025000003 .09700001 0 .16 0 C .22600001 0 .272 .040000004 .291 .087000008 M .284 .25100003 L .284 .15100001 C .284 .056 .21200001 .022000002 .167 .022000002 C .11800001 .022000002 .077 .057000005 .077 .107 C .077 .16200002 .11900001 .24500002 .284 .25100003 Z "/>
</symbol>
<symbol id="font_1_8">
<path d="M .083000008 .22900002 C .083000008 .39200003 .16500002 .43400003 .218 .43400003 C .227 .43400003 .29 .43300004 .32500003 .397 C .284 .39400003 .278 .36400003 .278 .351 C .278 .32500003 .296 .305 .324 .305 C .35 .305 .37 .32200004 .37 .35200004 C .37 .42000003 .294 .45900003 .21700001 .45900003 C .092 .45900003 0 .351 0 .22700002 C 0 .09900001 .099 0 .215 0 C .349 0 .381 .120000008 .381 .13000001 C .381 .14000002 .37100003 .14000002 .368 .14000002 C .359 .14000002 .35700003 .136 .35500003 .13000001 C .326 .037 .261 .025000003 .224 .025000003 C .171 .025000003 .083000008 .068 .083000008 .22900002 Z "/>
</symbol>
<symbol id="font_1_11">
<path d="M .44300003 .22500003 C .44300003 .35300002 .34300003 .45900003 .222 .45900003 C .097 .45900003 0 .35000003 0 .22500003 C 0 .096 .104 0 .22100002 0 C .342 0 .44300003 .098000008 .44300003 .22500003 M .222 .025000003 C .17900002 .025000003 .135 .046 .10800001 .092 C .083000008 .136 .083000008 .19700001 .083000008 .23300003 C .083000008 .272 .083000008 .32600004 .10700001 .37000004 C .134 .41600005 .18100001 .43700005 .22100002 .43700005 C .26500003 .43700005 .30800004 .41500003 .33400003 .37200005 C .36 .32900004 .36 .27100004 .36 .23300003 C .36 .19700001 .36 .143 .33800004 .09900001 C .316 .054 .272 .025000003 .222 .025000003 Z "/>
</symbol>
<symbol id="font_1_10">
<path d="M .07800001 .344 L .07800001 .076000008 C .07800001 .031000002 .067 .031000002 0 .031000002 L 0 0 C .035 .001 .08600001 .003 .113000009 .003 C .139 .003 .191 .001 .225 0 L .225 .031000002 C .158 .031000002 .147 .031000002 .147 .076000008 L .147 .26000003 C .147 .36400003 .218 .42000003 .282 .42000003 C .345 .42000003 .356 .36600004 .356 .30900003 L .356 .076000008 C .356 .031000002 .345 .031000002 .278 .031000002 L .278 0 C .31300003 .001 .36400003 .003 .391 .003 C .41700004 .003 .46900005 .001 .503 0 L .503 .031000002 C .451 .031000002 .42600004 .031000002 .425 .061000006 L .425 .252 C .425 .33800004 .425 .36900003 .39400003 .40500004 C .38000003 .42200003 .347 .44200004 .289 .44200004 C .216 .44200004 .169 .39900003 .141 .337 L .141 .44200004 L 0 .43100003 L 0 .4 C .07000001 .4 .07800001 .393 .07800001 .344 Z "/>
</symbol>
<symbol id="font_1_9">
<path d="M .34600003 .06600001 L .34600003 0 L .493 .011000001 L .493 .042000005 C .423 .042000005 .41500003 .049000004 .41500003 .098000008 L .41500003 .705 L .271 .694 L .271 .663 C .34100003 .663 .349 .656 .349 .607 L .349 .39100004 C .32 .42700003 .277 .45300005 .22299999 .45300005 C .10500001 .45300005 0 .35500003 0 .22600001 C 0 .09900001 .098 0 .21200001 0 C .276 0 .321 .034 .34600003 .06600001 M .34600003 .33400003 L .34600003 .12900001 C .34600003 .111 .34600003 .109000008 .335 .092 C .305 .044 .26 .022000002 .21700001 .022000002 C .17200002 .022000002 .136 .048 .11200001 .086 C .086 .127 .083000008 .18400002 .083000008 .22500003 C .083000008 .26200003 .085 .32200004 .114 .367 C .13500002 .39800004 .17300001 .43100003 .227 .43100003 C .262 .43100003 .30400003 .41600005 .335 .37100003 C .34600003 .35400004 .34600003 .35200004 .34600003 .33400003 Z "/>
</symbol>
<symbol id="font_1_a">
<path d="M .08400001 .263 C .09 .41200004 .17400001 .43700005 .20800002 .43700005 C .31100003 .43700005 .321 .30200003 .321 .263 L .08400001 .263 M .083000008 .24200002 L .36200003 .24200002 C .38400004 .24200002 .38700003 .24200002 .38700003 .263 C .38700003 .36200003 .33300004 .45900003 .20800002 .45900003 C .09200001 .45900003 0 .35600005 0 .23100002 C 0 .097 .105000007 0 .22000002 0 C .342 0 .38700003 .111 .38700003 .13000001 C .38700003 .14000002 .379 .14200002 .374 .14200002 C .365 .14200002 .36300005 .136 .36100004 .128 C .326 .025000003 .236 .025000003 .22600001 .025000003 C .17600002 .025000003 .136 .055000005 .113000009 .092 C .083000008 .14000002 .083000008 .20600002 .083000008 .24200002 Z "/>
</symbol>
<symbol id="font_1_b">
<path d="M .19400002 .37800003 C .10700001 .37800003 .10700001 .47800005 .10700001 .50100007 C .10700001 .52800008 .10800001 .56 .12300001 .58500006 C .13100001 .59700009 .15400002 .62500008 .19400002 .62500008 C .28100003 .62500008 .28100003 .52500006 .28100003 .50200006 C .28100003 .47500003 .28000004 .44300003 .26500003 .41800005 C .25700004 .40600003 .23400003 .37800003 .19400002 .37800003 M .07800001 .33900003 C .07800001 .34300003 .07800001 .36600004 .095 .38600005 C .134 .35800005 .17500001 .35500003 .19400002 .35500003 C .28700004 .35500003 .356 .42400003 .356 .50100007 C .356 .53800007 .34000004 .57500007 .31500004 .59800007 C .351 .632 .38700003 .637 .40500004 .637 C .40700004 .637 .41200004 .637 .41500003 .63600006 C .404 .632 .39900003 .62100008 .39900003 .609 C .39900003 .592 .41200004 .58000007 .42800004 .58000007 C .43800003 .58000007 .45700003 .587 .45700003 .61 C .45700003 .62700006 .44500003 .65900006 .40600003 .65900006 C .38600005 .65900006 .342 .65300008 .3 .61200007 C .25800003 .64500007 .21600002 .64800009 .19400002 .64800009 C .10100001 .64800009 .032 .57900008 .032 .50200006 C .032 .458 .054 .42000003 .07900001 .39900003 C .066 .384 .048000006 .351 .048000006 .316 C .048000006 .28500004 .061 .24700001 .09200001 .22700002 C .032 .21000001 0 .16700001 0 .127 C 0 .055000009 .09900001 0 .22100002 0 C .33900003 0 .44300003 .051000015 .44300003 .12900001 C .44300003 .164 .42900003 .21500002 .37800003 .24300002 C .32500003 .27100004 .26700003 .27100004 .20600002 .27100004 C .18100001 .27100004 .13800001 .27100004 .13100001 .272 C .09900001 .27600003 .07800001 .307 .07800001 .33900003 M .222 .023000002 C .12100001 .023000002 .052000006 .074000019 .052000006 .127 C .052000006 .17300001 .09 .21000001 .134 .21300002 L .19300002 .21300002 C .279 .21300002 .39100004 .21300002 .39100004 .127 C .39100004 .073000017 .32000003 .023000002 .222 .023000002 Z "/>
</symbol>
<symbol id="font_1_7">
<path d="M .14400001 .388 L .14400001 .705 L 0 .694 L 0 .663 C .07000001 .663 .07800001 .656 .07800001 .607 L .07800001 .011000001 L .103000018 .011000001 C .104 .012000001 .112 .026 .13900002 .07300001 C .15400002 .05 .19600001 0 .27 0 C .38900004 0 .49300004 .098000008 .49300004 .22700002 C .49300004 .35400004 .395 .45300005 .28100003 .45300005 C .20300001 .45300005 .16000001 .40600003 .14400001 .388 M .14700002 .12500002 L .14700002 .33100004 C .14700002 .35000003 .14700002 .351 .158 .367 C .19700001 .42300005 .252 .43100003 .27600003 .43100003 C .321 .43100003 .35700003 .40500004 .381 .367 C .40700004 .32600004 .41000004 .26900003 .41000004 .22800002 C .41000004 .19100002 .40800003 .13100001 .379 .086 C .358 .055000005 .32000003 .022000002 .266 .022000002 C .22100002 .022000002 .18500002 .046 .16100002 .083000008 C .14700002 .104 .14700002 .107 .14700002 .12500002 Z "/>
</symbol>
<symbol id="font_1_13">
<path d="M .35900004 .09 L .35900004 0 L .503 .011000001 L .503 .042000005 C .43300004 .042000005 .425 .049000004 .425 .098000008 L .425 .45300005 L .278 .44200004 L .278 .411 C .34800003 .411 .356 .404 .356 .35500003 L .356 .17700002 C .356 .09 .308 .022000002 .23500002 .022000002 C .15100001 .022000002 .147 .069000009 .147 .12100001 L .147 .45300005 L 0 .44200004 L 0 .411 C .07800001 .411 .07800001 .40800003 .07800001 .31900005 L .07800001 .16900002 C .07800001 .091000009 .07800001 0 .23000002 0 C .286 0 .33 .028 .35900004 .09 Z "/>
</symbol>
<symbol id="font_1_12">
<path d="M .13900002 .33200003 L .13900002 .44200004 L 0 .43100003 L 0 .4 C .07000001 .4 .07800001 .393 .07800001 .344 L .07800001 .076000008 C .07800001 .031000002 .067 .031000002 0 .031000002 L 0 0 C .039 .001 .08600001 .003 .11400001 .003 C .15400002 .003 .20100002 .003 .24100003 0 L .24100003 .031000002 L .22000002 .031000002 C .14600002 .031000002 .14400001 .042000005 .14400001 .078 L .14400001 .23200001 C .14400001 .33100004 .18600002 .42000003 .26200003 .42000003 C .26900003 .42000003 .27100004 .42000003 .27300004 .41900004 C .27 .418 .25000004 .40600003 .25000004 .38000003 C .25000004 .35200004 .27100004 .337 .293 .337 C .31100003 .337 .33600004 .349 .33600004 .381 C .33600004 .41300003 .305 .44200004 .26200003 .44200004 C .18900001 .44200004 .15300001 .37500004 .13900002 .33200003 Z "/>
</symbol>
<symbol id="font_1_e">
<path d="M .144 .694 L 0 .683 L 0 .652 C .07000001 .652 .07800001 .64500007 .07800001 .596 L .07800001 .076000008 C .07800001 .031000002 .067 .031000002 0 .031000002 L 0 0 C .033 .001 .086 .003 .11100001 .003 C .136 .003 .185 .001 .22200004 0 L .22200004 .031000002 C .155 .031000002 .144 .031000002 .144 .076000008 L .144 .694 Z "/>
</symbol>
<use xlink:href="#font_1_5" transform="matrix(27.673888,0,0,-27.673888,19.360459,223.71944)"/>
<use xlink:href="#font_1_c" transform="matrix(27.673888,0,0,-27.673888,36.656637,223.71944)"/>
<use xlink:href="#font_1_f" transform="matrix(27.673888,0,0,-27.673888,44.3223,223.71944)"/>
<use xlink:href="#font_1_6" transform="matrix(27.673888,0,0,-27.673888,67.65139,224.02385)"/>
<use xlink:href="#font_1_8" transform="matrix(27.673888,0,0,-27.673888,81.266948,224.02385)"/>
<use xlink:href="#font_1_11" transform="matrix(27.673888,0,0,-27.673888,93.38811,224.02385)"/>
<use xlink:href="#font_1_10" transform="matrix(27.673888,0,0,-27.673888,107.33575,223.71944)"/>
<use xlink:href="#font_1_9" transform="matrix(27.673888,0,0,-27.673888,131.9932,224.02385)"/>
<use xlink:href="#font_1_a" transform="matrix(27.673888,0,0,-27.673888,147.21384,224.02385)"/>
<use xlink:href="#font_1_10" transform="matrix(27.673888,0,0,-27.673888,159.61173,223.71944)"/>
<use xlink:href="#font_1_b" transform="matrix(27.673888,0,0,-27.673888,174.88773,229.42026)"/>
<use xlink:href="#font_1_6" transform="matrix(27.673888,0,0,-27.673888,189.11209,224.02385)"/>
<use xlink:href="#font_1_10" transform="matrix(27.673888,0,0,-27.673888,202.67229,223.71944)"/>
<use xlink:href="#font_1_7" transform="matrix(27.673888,0,0,-27.673888,227.19136,224.02385)"/>
<use xlink:href="#font_1_13" transform="matrix(27.673888,0,0,-27.673888,242.68874,224.02385)"/>
<use xlink:href="#font_1_10" transform="matrix(27.673888,0,0,-27.673888,258.07545,223.71944)"/>
<use xlink:href="#font_1_9" transform="matrix(27.673888,0,0,-27.673888,273.5175,224.02385)"/>
<use xlink:href="#font_1_6" transform="matrix(27.673888,0,0,-27.673888,289.12556,224.02385)"/>
<use xlink:href="#font_1_12" transform="matrix(27.673888,0,0,-27.673888,302.57508,223.71944)"/>
<use xlink:href="#font_1_6" transform="matrix(27.673888,0,0,-27.673888,313.78297,224.02385)"/>
<use xlink:href="#font_1_10" transform="matrix(27.673888,0,0,-27.673888,327.34318,223.71944)"/>
<use xlink:href="#font_1_9" transform="matrix(27.673888,0,0,-27.673888,352.02833,224.02385)"/>
<use xlink:href="#font_1_6" transform="matrix(27.673888,0,0,-27.673888,367.63636,224.02385)"/>
<use xlink:href="#font_1_e" transform="matrix(27.673888,0,0,-27.673888,381.2242,223.71944)"/>
<use xlink:href="#font_1_6" transform="matrix(27.673888,0,0,-27.673888,389.16664,224.02385)"/>
<use xlink:href="#font_1_f" transform="matrix(27.673888,0,0,-27.673888,402.7268,223.71944)"/>
<path transform="matrix(2.7777777,0,0,-2.7777777,460.29997,89.57221)" stroke-width=".79701" stroke-linecap="butt" stroke-miterlimit="10" stroke-linejoin="miter" fill="none" stroke="#000000" d="M 45.92224 0 C 45.92224 0 45.9049 1.04706 45.88538 1.44865 C 45.86583 1.85025 45.81973 2.49437 45.78143 2.89447 C 45.74313 3.29459 45.66606 3.93481 45.60938 4.33237 C 45.55267 4.72992 45.44794 5.36551 45.37282 5.75977 C 45.29771 6.15399 45.16212 6.78397 45.06801 7.1738 C 44.97388 7.5636 44.80705 8.18503 44.69441 8.56926 C 44.58179 8.95349 44.38629 9.5652 44.25621 9.94304 C 44.12611 10.3209 43.9043 10.92184 43.75688 11.29259 C 43.60947 11.66333 43.35814 12.25249 43.19371 12.61513 C 43.02928 12.97777 42.75278 13.5527 42.57175 13.90627 C 42.39075 14.25981 42.08646 14.8198 41.88907 15.16327 C 41.6917 15.50676 41.36182 16.0491 41.14917 16.38187 C 40.93652 16.71465 40.5838 17.24023 40.35646 17.56168 C 40.12909 17.88313 39.75189 18.3893 39.51053 18.69865 C 39.26917 19.00803 38.8716 19.49481 38.61685 19.79138 C 38.36209 20.08798 37.94218 20.55348 37.6744 20.83623 C 37.40657 21.11899 36.96632 21.56076 36.68663 21.82932 C 36.40694 22.09785 35.94916 22.51782 35.65851 22.77177 C 35.36787 23.02576 34.89265 23.42082 34.59187 23.65974 C 34.29109 23.89865 33.8008 24.2703 33.49069 24.49373 C 33.18059 24.71716 32.6757 25.0628 32.35684 25.27011 C 32.03796 25.4774 31.51924 25.79715 31.19247 25.98782 C 30.86569 26.17848 30.33488 26.47023 30.00165 26.64429 C 29.6684 26.81834 29.12944 27.08505 28.7907 27.24237 C 28.45195 27.39969 27.9037 27.63794 27.56017 27.77815 C 27.21661 27.91838 26.66243 28.13008 26.3147 28.25296 C 25.96696 28.37584 25.40477 28.55853 25.05391 28.66379 C 24.70306 28.76904 24.13872 28.92355 23.78601 29.01155 C 23.4333 29.09956 22.86562 29.22722 22.51187 29.29807 C 22.15813 29.36891 21.5903 29.46858 21.23642 29.52217 C 20.88255 29.57574 20.31442 29.64772 19.96138 29.68423 C 19.60834 29.72076 19.04323 29.76591 18.69193 29.78534 C 18.3406 29.80473 17.77817 29.82146 17.42932 29.82413 C 17.08046 29.8268 16.52293 29.818 16.17763 29.80453 C 15.83232 29.79106 15.28154 29.7565 14.9406 29.72707 C 14.59966 29.69763 14.05624 29.63763 13.7203 29.59238 C 13.3844 29.5471 12.84956 29.4615 12.51949 29.40083 C 12.18939 29.34018 11.66463 29.23058 11.34125 29.1552 C 11.01787 29.07983 10.50473 28.94719 10.18881 28.85765 C 9.87292 28.76813 9.3722 28.61304 9.06444 28.50989 C 8.75667 28.40674 8.2696 28.23032 7.97066 28.11424 C 7.6717 27.99817 7.19933 27.80202 6.90971 27.67331 C 6.6201 27.5446 6.16301 27.3272 5.8833 27.18657 C 5.60358 27.04594 5.16296 26.81137 4.89372 26.65973 C 4.6245 26.5081 4.20108 26.25566 3.94283 26.0937 C 3.68457 25.93176 3.27931 25.66406 3.03241 25.49251 C 2.78549 25.32097 2.39838 25.03792 2.16325 24.85733 C 1.92813 24.67673 1.56082 24.37968 1.33783 24.19087 C 1.11484 24.00206 .76666 23.69246 .55614 23.4965 C .34564 23.30055 .01846 22.98094 -.17932 22.77853 C -.37712 22.57611 -.68437 22.24586 -.86952 22.03758 C -1.05467 21.8293 -1.34161 21.49052 -1.5138 21.2773 C -1.68597 21.06409 -1.95137 20.71823 -2.11044 20.50081 C -2.26953 20.28337 -2.51437 19.93091 -2.66039 19.71016 C -2.8064 19.48941 -3.02985 19.13306 -3.16283 18.90977 C -3.29578 18.68651 -3.49872 18.32597 -3.61867 18.10097 C -3.73863 17.87596 -3.92036 17.51405 -4.02742 17.28813 C -4.13448 17.06223 -4.29593 16.69891 -4.39024 16.4727 C -4.48454 16.24652 -4.62538 15.88345 -4.70714 15.6578 C -4.78888 15.43214 -4.91 15.0706 -4.97949 14.84625 C -5.049 14.62192 -5.15051 14.26326 -5.20801 14.04097 C -5.2655 13.81866 -5.34799 13.46379 -5.39383 13.24408 C -5.43967 13.02438 -5.50385 12.6739 -5.53839 12.45747 C -5.57294 12.24104 -5.61919 11.89668 -5.64284 11.6842 C -5.6665 11.47174 -5.69565 11.13411 -5.7089 10.92615 C -5.72214 10.71815 -5.73505 10.38817 -5.73834 10.18532 C -5.74165 9.98247 -5.7389 9.66142 -5.73276 9.4641 C -5.72662 9.26677 -5.70912 8.9544 -5.6941 8.7631 C -5.67908 8.57182 -5.64777 8.2701 -5.62442 8.08536 C -5.60107 7.90065 -5.5569 7.60963 -5.52579 7.43175 C -5.4947 7.25388 -5.43855 6.97398 -5.40031 6.8033 C -5.36208 6.63263 -5.29497 6.36475 -5.25018 6.20161 C -5.20541 6.03847 -5.12825 5.78285 -5.07759 5.62753 C -5.02695 5.4722 -4.94098 5.22943 -4.88516 5.08214 C -4.82933 4.93484 -4.7356 4.70503 -4.6752 4.56593 C -4.6148 4.42683 -4.5143 4.21042 -4.44994 4.07959 C -4.38556 3.94875 -4.27899 3.74548 -4.2113 3.62296 C -4.14363 3.50041 -4.0324 3.31052 -3.96216 3.19643 C -3.89192 3.08235 -3.77718 2.90625 -3.7051 2.80066 C -3.63301 2.69505 -3.5159 2.53256 -3.44258 2.43536 C -3.36928 2.33817 -3.25073 2.18909 -3.1767 2.10007 C -3.10268 2.01103 -2.98312 1.87466 -2.909 1.79369 C -2.83488 1.7127 -2.71597 1.58945 -2.64247 1.51639 C -2.56895 1.44333 -2.45142 1.33244 -2.37918 1.26712 C -2.30695 1.20178 -2.19232 1.10338 -2.12187 1.04547 C -2.0514 .98758 -1.93958 .90062 -1.87141 .8498 C -1.80325 .79898 -1.69594 .72325 -1.63058 .67915 C -1.56523 .63507 -1.46257 .56978 -1.40039 .53201 C -1.3382 .49423 -1.24066 .43867 -1.18239 .40692 C -1.1241 .37517 -1.03429 .3293 -.98033 .3031 C -.92639 .27692 -.84294 .23929 -.79347 .21811 C -.74402 .19695 -.66841 .16713 -.62389 .15051 C -.57936 .1339 -.51193 .11095 -.47258 .09834 C -.43321 .08574 -.37389 .06877 -.34023 .05968 C -.30655 .05058 -.25764 .03894 -.22992 .0328 C -.2022 .02669 -.1622 .01932 -.14038 .01556 C -.11856 .0118 -.08841 .00769 -.07265 .00569 C -.0569 .0037 -.03647 .00194 -.02684 .00114 C -.01723 .00035 -.0066 .00014 -.00336 0 C -.00009 -.00014 -.00009 .00014 -.00336 0 C -.0066 -.00014 -.01723 -.00035 -.02684 -.00114 C -.03647 -.00194 -.0569 -.0037 -.07265 -.00569 C -.08841 -.00769 -.1186 -.0118 -.14038 -.01556 C -.16216 -.01932 -.20177 -.02669 -.22952 -.0328 C -.25728 -.03894 -.30675 -.05058 -.34047 -.05968 C -.3742 -.06877 -.43326 -.08574 -.47258 -.09834 C -.51189 -.11095 -.57936 -.1339 -.62389 -.15051 C -.66841 -.16713 -.74402 -.19695 -.79347 -.21811 C -.84294 -.23929 -.92639 -.27692 -.98033 -.3031 C -1.03429 -.3293 -1.12413 -.37518 -1.18239 -.40692 C -1.24063 -.43866 -1.33798 -.49414 -1.40013 -.53188 C -1.46227 -.56961 -1.56493 -.6348 -1.63033 -.6789 C -1.69571 -.723 -1.80325 -.79898 -1.87141 -.8498 C -1.93958 -.90062 -2.0512 -.98737 -2.12161 -1.04523 C -2.19202 -1.10307 -2.30666 -1.2015 -2.37892 -1.26686 C -2.45119 -1.33221 -2.56895 -1.44319 -2.64247 -1.51627 C -2.71597 -1.58932 -2.83466 -1.71246 -2.90874 -1.79343 C -2.98283 -1.87439 -3.10243 -2.01082 -3.17645 -2.09981 C -3.25046 -2.18878 -3.3689 -2.33766 -3.44218 -2.43484 C -3.5155 -2.53203 -3.63258 -2.69466 -3.7047 -2.80026 C -3.77684 -2.90588 -3.89177 -3.08199 -3.96202 -3.19604 C -4.03227 -3.3101 -4.1434 -3.4998 -4.21104 -3.6223 C -4.27869 -3.7448 -4.38521 -3.94812 -4.44955 -4.07895 C -4.51389 -4.20978 -4.61441 -4.42621 -4.67482 -4.56529 C -4.73521 -4.70438 -4.82904 -4.93407 -4.8849 -5.08136 C -4.94075 -5.22865 -5.02681 -5.47157 -5.07747 -5.62688 C -5.12813 -5.78218 -5.20515 -6.03757 -5.24992 -6.2007 C -5.29471 -6.36383 -5.36192 -6.63196 -5.40019 -6.80266 C -5.43845 -6.97336 -5.49457 -7.25307 -5.52567 -7.43098 C -5.55678 -7.60887 -5.60107 -7.9001 -5.62442 -8.08484 C -5.64777 -8.2696 -5.67897 -8.57137 -5.69397 -8.76259 C -5.70898 -8.95383 -5.72649 -9.26575 -5.73265 -9.46306 C -5.7388 -9.66037 -5.74162 -9.98177 -5.73834 -10.18466 C -5.73508 -10.38757 -5.72227 -10.71754 -5.70901 -10.92549 C -5.69579 -11.13344 -5.66652 -11.47095 -5.64284 -11.68343 C -5.61917 -11.8959 -5.5729 -12.24057 -5.53839 -12.45695 C -5.50388 -12.67332 -5.43991 -13.02325 -5.39409 -13.24292 C -5.34828 -13.46259 -5.26563 -13.8178 -5.20815 -14.04018 C -5.15065 -14.26256 -5.04924 -14.62144 -4.97975 -14.84575 C -4.91028 -15.07007 -4.78917 -15.43124 -4.7074 -15.65689 C -4.62563 -15.88255 -4.48466 -16.24586 -4.39037 -16.47206 C -4.29608 -16.69827 -4.13484 -17.06134 -4.02782 -17.28723 C -3.9208 -17.51312 -3.73898 -17.87526 -3.61906 -18.1002 C -3.49916 -18.32513 -3.2965 -18.68529 -3.1636 -18.9085 C -3.03069 -19.13168 -2.8072 -19.48805 -2.66116 -19.70886 C -2.5151 -19.92967 -2.27008 -20.28252 -2.11096 -20.50003 C -1.95186 -20.71754 -1.68658 -21.06331 -1.51445 -21.27654 C -1.34229 -21.48975 -1.05533 -21.82849 -.87016 -22.0368 C -.68503 -22.2451 -.37778 -22.57545 -.17996 -22.77788 C .01782 -22.98032 .34506 -23.29996 .5555 -23.49586 C .76593 -23.69176 1.11366 -24.00104 1.33667 -24.18982 C 1.5597 -24.37862 1.9277 -24.6759 2.16287 -24.85655 C 2.39801 -25.0372 2.78467 -25.3203 3.0315 -25.49187 C 3.27834 -25.66342 3.68373 -25.93117 3.94191 -26.09306 C 4.2001 -26.25494 4.62306 -26.50702 4.89229 -26.65869 C 5.16153 -26.81038 5.60263 -27.04558 5.88239 -27.18631 C 6.16212 -27.32706 6.61888 -27.54431 6.90855 -27.67305 C 7.19823 -27.8018 7.67119 -27.99823 7.97014 -28.11424 C 8.26909 -28.23024 8.75557 -28.406 9.06326 -28.50911 C 9.37094 -28.61221 9.87189 -28.76782 10.18777 -28.85739 C 10.5037 -28.94696 11.01671 -29.0793 11.34007 -29.15468 C 11.66344 -29.23007 12.18834 -29.34013 12.51833 -29.40071 C 12.8483 -29.46129 13.38255 -29.54617 13.71837 -29.59132 C 14.05417 -29.63647 14.59773 -29.69662 14.93866 -29.72615 C 15.27957 -29.75568 15.83018 -29.7905 16.17555 -29.80414 C 16.52092 -29.8178 17.07896 -29.82721 17.42789 -29.82451 C 17.77684 -29.82182 18.33908 -29.80411 18.69049 -29.78468 C 19.0419 -29.76526 19.60757 -29.7209 19.9606 -29.6845 C 20.31361 -29.64809 20.881 -29.5758 21.23488 -29.5223 C 21.58875 -29.4688 22.15747 -29.36966 22.51108 -29.29886 C 22.86472 -29.22804 23.43085 -29.10002 23.78355 -29.01195 C 24.13625 -28.92387 24.7022 -28.76936 25.05315 -28.66405 C 25.4041 -28.55875 25.9654 -28.37578 26.313 -28.25296 C 26.66061 -28.13013 27.21492 -27.919 27.55847 -27.77881 C 27.90201 -27.6386 28.45016 -27.39977 28.78902 -27.2425 C 29.12787 -27.08524 29.66751 -26.81938 30.00073 -26.64532 C 30.33395 -26.47127 30.86389 -26.17862 31.19066 -25.98796 C 31.51744 -25.79729 32.03693 -25.47832 32.35593 -25.27113 C 32.67493 -25.06396 33.17969 -24.71819 33.48979 -24.49477 C 33.79991 -24.27136 34.29019 -23.89983 34.59096 -23.66092 C 34.89172 -23.422 35.36684 -23.0268 35.65749 -22.77281 C 35.94812 -22.51884 36.40602 -22.09912 36.68571 -21.83049 C 36.96541 -21.56184 37.40565 -21.1194 37.67334 -20.83662 C 37.94102 -20.55386 38.36028 -20.0889 38.61504 -19.79243 C 38.8698 -19.49596 39.26814 -19.0092 39.50949 -18.69983 C 39.75082 -18.39046 40.12715 -17.88425 40.35449 -17.56271 C 40.58186 -17.24118 40.93521 -16.71513 41.14813 -16.38239 C 41.36105 -16.04967 41.69156 -15.50793 41.88907 -15.16458 C 42.0866 -14.8212 42.39088 -14.26122 42.57175 -13.90756 C 42.75262 -13.55391 43.02838 -12.9782 43.19267 -12.61565 C 43.35696 -12.2531 43.60828 -11.66507 43.75584 -11.29453 C 43.9034 -10.924 44.12599 -10.32304 44.25621 -9.94513 C 44.38643 -9.5672 44.58192 -8.95502 44.69441 -8.57068 C 44.8069 -8.18636 44.97284 -7.56479 45.06697 -7.17508 C 45.16109 -6.78539 45.29742 -6.15619 45.37282 -5.76196 C 45.44823 -5.36775 45.55388 -4.73157 45.61041 -4.3338 C 45.66693 -3.93604 45.74213 -3.29524 45.78026 -2.89511 C 45.81842 -2.49498 45.86583 -1.85146 45.88538 -1.44994 C 45.9049 -1.04845 45.92107 -.00128 45.92107 -.00128 "/>
<use xlink:href="#font_0_4" transform="matrix(27.673888,0,0,-27.673888,486.7347,203.09607)"/>
<use xlink:href="#font_0_2" transform="matrix(27.673888,0,0,-27.673888,501.7893,209.71013)"/>
<use xlink:href="#font_0_5" transform="matrix(27.673888,0,0,-27.673888,515.4048,203.09607)"/>
<symbol id="font_1_3">
<path d="M .63100007 .19400002 C .646 .19400002 .665 .19400002 .665 .214 C .665 .23400001 .646 .23400001 .632 .23400001 L .033 .23400001 C .019000002 .23400001 0 .23400001 0 .214 C 0 .19400002 .019000002 .19400002 .034 .19400002 L .63100007 .19400002 M .632 0 C .646 0 .665 0 .665 .02000001 C .665 .040000008 .646 .040000008 .63100007 .040000008 L .034 .040000008 C .019000002 .040000008 0 .040000008 0 .02000001 C 0 0 .019000002 0 .033 0 L .632 0 Z "/>
</symbol>
<use xlink:href="#font_1_3" transform="matrix(27.673888,0,0,-27.673888,535.208,199.11103)"/>
<use xlink:href="#font_1_1" transform="matrix(27.673888,0,0,-27.673888,565.34487,202.79166)"/>
<symbol id="font_1_4">
<path d="M .367 .41900004 L .54700008 .592 C .555 .6 .60800006 .651 .68900009 .652 L .68900009 .683 C .66300007 .68 .63100007 .68 .60400006 .68 C .568 .68 .51100006 .68 .47700007 .683 L .47700007 .652 C .517 .651 .52300009 .628 .52300009 .619 C .52300009 .60300007 .513 .59300008 .50500008 .586 L .192 .287 L .192 .605 C .192 .64100006 .194 .652 .27100004 .652 L .29500003 .652 L .29500003 .683 C .26000003 .68 .18600002 .68 .148 .68 C .11000001 .68 .035000005 .68 0 .683 L 0 .652 L .024000004 .652 C .101 .652 .10300001 .64100006 .10300001 .605 L .10300001 .078 C .10300001 .042000005 .101 .031000002 .024000004 .031000002 L 0 .031000002 L 0 0 C .035000005 .003 .109000008 .003 .14700002 .003 C .185 .003 .26000003 .003 .29500003 0 L .29500003 .031000002 L .27100004 .031000002 C .194 .031000002 .192 .042000005 .192 .078 L .192 .25300003 L .30800004 .363 L .48900003 .095000009 C .495 .086 .504 .07300001 .504 .061000006 C .504 .031000002 .46500004 .031000002 .44500003 .031000002 L .44500003 0 C .48000003 .003 .55 .003 .58800008 .003 C .623 .003 .661 .002 .70300009 0 L .70300009 .031000002 C .64900007 .031000002 .628 .035 .59800007 .079 L .367 .41900004 Z "/>
</symbol>
<use xlink:href="#font_1_4" transform="matrix(27.673888,0,0,-27.673888,475.541,229.10276)"/>
<use xlink:href="#font_1_6" transform="matrix(27.673888,0,0,-27.673888,497.3203,229.40717)"/>
<use xlink:href="#font_1_12" transform="matrix(27.673888,0,0,-27.673888,510.76985,229.10276)"/>
<use xlink:href="#font_1_9" transform="matrix(27.673888,0,0,-27.673888,521.784,229.40717)"/>
<use xlink:href="#font_1_c" transform="matrix(27.673888,0,0,-27.673888,537.143,229.10276)"/>
<use xlink:href="#font_1_11" transform="matrix(27.673888,0,0,-27.673888,544.69796,229.40717)"/>
<use xlink:href="#font_1_9" transform="matrix(27.673888,0,0,-27.673888,559.4758,229.40717)"/>
<use xlink:href="#font_1_6" transform="matrix(27.673888,0,0,-27.673888,575.08389,229.40717)"/>
<path transform="matrix(2.7777777,0,0,-2.7777777,698.06387,86.88055)" stroke-width=".79701" stroke-linecap="butt" stroke-miterlimit="10" stroke-linejoin="miter" fill="none" stroke="#000000" d="M 41.67017 0 C 41.67017 0 41.65558 .95012 41.63916 1.31462 C 41.62274 1.6791 41.58397 2.2637 41.55182 2.62703 C 41.51967 2.99036 41.455 3.5719 41.4074 3.93321 C 41.35979 4.29456 41.27185 4.87251 41.20872 5.23123 C 41.1456 5.58995 41.03157 6.16338 40.95245 6.51862 C 40.87332 6.87386 40.73317 7.44073 40.63843 7.79158 C 40.54367 8.14243 40.379 8.70148 40.2695 9.0473 C 40.16 9.39313 39.97339 9.9438 39.84921 10.28407 C 39.72502 10.62433 39.5132 11.16582 39.37453 11.49968 C 39.23587 11.83356 39.00258 12.36368 38.84978 12.69038 C 38.69695 13.01709 38.43991 13.53558 38.2731 13.85435 C 38.1063 14.17313 37.82747 14.67755 37.64752 14.98784 C 37.46756 15.29813 37.16882 15.78935 36.97614 16.0907 C 36.78343 16.39203 36.46355 16.86787 36.25867 17.15968 C 36.05379 17.45146 35.71606 17.91211 35.49942 18.19376 C 35.28278 18.47542 34.92538 18.91902 34.69724 19.18968 C 34.46909 19.46033 34.09381 19.8851 33.85507 20.14449 C 33.61633 20.40384 33.22519 20.81128 32.97658 21.05905 C 32.72797 21.30682 32.32108 21.6945 32.06319 21.93028 C 31.80528 22.16605 31.38445 22.5349 31.11786 22.75829 C 30.85127 22.98166 30.41664 23.32977 30.14178 23.54024 C 29.86694 23.75072 29.41934 24.0781 29.13692 24.2752 C 28.85446 24.47232 28.39497 24.77713 28.10606 24.96088 C 27.81715 25.14462 27.34926 25.42934 27.05461 25.59958 C 26.75995 25.76982 26.28226 26.0315 25.98236 26.18791 C 25.6825 26.34433 25.19794 26.58461 24.89328 26.72696 C 24.5886 26.8693 24.09515 27.08589 23.78653 27.21382 C 23.47789 27.34175 22.98044 27.5352 22.66888 27.64905 C 22.35732 27.76288 21.8549 27.93451 21.54099 28.03432 C 21.22707 28.13411 20.7219 28.28275 20.40634 28.36832 C 20.09077 28.45389 19.58302 28.57962 19.26663 28.65108 C 18.95023 28.72252 18.44249 28.82616 18.12589 28.88335 C 17.80928 28.94055 17.30101 29.02016 16.98476 29.06334 C 16.66849 29.1065 16.16147 29.1649 15.84648 29.19452 C 15.53148 29.22415 15.02753 29.26079 14.71443 29.27692 C 14.4013 29.29305 13.9005 29.30817 13.58977 29.31079 C 13.27904 29.3134 12.78255 29.30644 12.47484 29.29587 C 12.16716 29.28528 11.67607 29.25781 11.37212 29.2345 C 11.06818 29.21115 10.58377 29.16344 10.2842 29.12769 C 9.9846 29.09193 9.50754 29.02454 9.21288 28.97678 C 8.91821 28.929 8.4497 28.84271 8.1605 28.78343 C 7.8713 28.72417 7.4118 28.62033 7.12851 28.54959 C 6.84518 28.47887 6.39548 28.35527 6.11855 28.27359 C 5.84163 28.19191 5.40268 28.05275 5.13261 27.96088 C 4.86256 27.86897 4.43486 27.71298 4.17212 27.61128 C 3.90936 27.50958 3.494 27.33884 3.23886 27.22783 C 2.98373 27.11684 2.58034 26.93127 2.33324 26.8113 C 2.08617 26.69131 1.69672 26.49147 1.458 26.3631 C 1.21928 26.23471 .84274 26.0219 .61272 25.88596 C .3827 25.75002 .02124 25.52632 -.19983 25.38326 C -.4209 25.24019 -.76854 25.00467 -.98073 24.85486 C -1.1929 24.70506 -1.52618 24.45949 -1.72906 24.30362 C -1.93195 24.14777 -2.24957 23.89293 -2.44302 23.7315 C -2.63647 23.57008 -2.93942 23.30647 -3.12338 23.14018 C -3.30731 22.97388 -3.59442 22.70355 -3.7688 22.53288 C -3.9432 22.36223 -4.21545 22.08455 -4.38025 21.91016 C -4.54503 21.73576 -4.80139 21.45352 -4.95654 21.27602 C -5.11168 21.09848 -5.35289 20.811 -5.49843 20.6307 C -5.64397 20.4504 -5.86952 20.15883 -6.00554 19.97644 C -6.14153 19.79404 -6.35207 19.50002 -6.47865 19.31607 C -6.60524 19.13214 -6.80063 18.83571 -6.9179 18.65079 C -7.03516 18.46584 -7.21562 18.16861 -7.32379 17.98314 C -7.43195 17.7977 -7.59831 17.49968 -7.6975 17.31409 C -7.7967 17.12851 -7.94836 16.83073 -8.03879 16.64555 C -8.12921 16.46036 -8.26723 16.16368 -8.34918 15.97935 C -8.43114 15.79503 -8.55574 15.5 -8.62946 15.31705 C -8.70319 15.13408 -8.81476 14.84201 -8.88055 14.6607 C -8.94635 14.4794 -9.0456 14.18959 -9.10374 14.01033 C -9.16191 13.83107 -9.24887 13.54544 -9.29968 13.36865 C -9.35048 13.19188 -9.4261 12.91028 -9.46992 12.73619 C -9.51376 12.5621 -9.5784 12.28503 -9.61566 12.11398 C -9.65292 11.94293 -9.70749 11.67105 -9.73854 11.50331 C -9.76959 11.33559 -9.8143 11.06927 -9.83951 10.90512 C -9.86472 10.74095 -9.90045 10.48062 -9.92021 10.32014 C -9.93997 10.15967 -9.96727 9.90509 -9.98198 9.74854 C -9.99669 9.59198 -10.01613 9.34427 -10.02623 9.19185 C -10.03632 9.03944 -10.04889 8.79831 -10.05478 8.64996 C -10.06067 8.50162 -10.0666 8.26682 -10.06866 8.12274 C -10.07071 7.97867 -10.07089 7.75128 -10.06956 7.6116 C -10.06824 7.47194 -10.06339 7.25139 -10.05907 7.11604 C -10.05475 6.98071 -10.04533 6.76718 -10.03842 6.63617 C -10.03152 6.50517 -10.01834 6.2986 -10.00923 6.17189 C -10.00012 6.04517 -9.98367 5.84541 -9.97276 5.72292 C -9.96187 5.60042 -9.9429 5.40726 -9.93059 5.28899 C -9.91827 5.1707 -9.8974 4.98462 -9.88402 4.87038 C -9.87064 4.75612 -9.8483 4.57591 -9.83418 4.46552 C -9.82005 4.35512 -9.79677 4.1813 -9.78227 4.07466 C -9.76778 3.96802 -9.74431 3.79996 -9.72974 3.6968 C -9.71513 3.59363 -9.6915 3.43097 -9.67715 3.33113 C -9.66284 3.23126 -9.64021 3.07387 -9.62643 2.97713 C -9.61264 2.88039 -9.59087 2.72783 -9.57777 2.6339 C -9.56468 2.53998 -9.54419 2.39151 -9.53209 2.30016 C -9.52 2.20882 -9.50148 2.06456 -9.49057 1.9755 C -9.47964 1.88641 -9.46289 1.74532 -9.45332 1.65822 C -9.44377 1.57112 -9.42966 1.43314 -9.42166 1.34769 C -9.41368 1.26227 -9.40205 1.12659 -9.3957 1.0425 C -9.38937 .95842 -9.38057 .82478 -9.37598 .7417 C -9.3714 .65863 -9.36546 .5262 -9.36261 .44377 C -9.35977 .36136 -9.35648 .22968 -9.35548 .14764 C -9.35449 .06563 -9.35449 -.06537 -9.35548 -.14738 C -9.35648 -.22942 -9.35977 -.36113 -9.36261 -.44351 C -9.36546 -.52591 -9.3714 -.65814 -9.37598 -.7412 C -9.38057 -.82425 -9.38937 -.95801 -9.3957 -1.0421 C -9.40205 -1.1262 -9.41365 -1.26186 -9.42166 -1.34732 C -9.42967 -1.43275 -9.44391 -1.57082 -9.45346 -1.65796 C -9.46301 -1.7451 -9.47966 -1.88629 -9.49057 -1.97537 C -9.50146 -2.06445 -9.52 -2.2087 -9.53209 -2.30002 C -9.54419 -2.39136 -9.56468 -2.5397 -9.57777 -2.63364 C -9.59087 -2.72757 -9.61264 -2.88026 -9.62643 -2.97699 C -9.64021 -3.07373 -9.66286 -3.23105 -9.67715 -3.33087 C -9.69148 -3.43066 -9.71501 -3.59325 -9.7296 -3.6964 C -9.74417 -3.79955 -9.76776 -3.96759 -9.78227 -4.07428 C -9.79678 -4.18097 -9.82007 -4.355 -9.83418 -4.46538 C -9.84828 -4.57576 -9.87053 -4.75563 -9.88388 -4.86986 C -9.89725 -4.98407 -9.91812 -5.17029 -9.93045 -5.28859 C -9.9428 -5.40689 -9.96184 -5.60004 -9.97276 -5.72252 C -9.98369 -5.845 -10.00012 -6.04466 -10.00923 -6.17137 C -10.01834 -6.29808 -10.03152 -6.5048 -10.03842 -6.63579 C -10.04533 -6.76677 -10.05475 -6.98006 -10.05907 -7.11539 C -10.06339 -7.25073 -10.06824 -7.47153 -10.06956 -7.6112 C -10.07089 -7.7509 -10.07071 -7.97821 -10.06866 -8.12222 C -10.0666 -8.26624 -10.06065 -8.50085 -10.05478 -8.64919 C -10.0489 -8.79753 -10.03645 -9.03888 -10.02637 -9.19133 C -10.01625 -9.3438 -9.9967 -9.5915 -9.98198 -9.74802 C -9.96725 -9.90453 -9.93996 -10.1589 -9.92021 -10.31937 C -9.90047 -10.47981 -9.8648 -10.74031 -9.83963 -10.90446 C -9.81445 -11.0686 -9.76971 -11.33469 -9.73866 -11.50241 C -9.70764 -11.67014 -9.65318 -11.94225 -9.61592 -12.11334 C -9.57866 -12.28442 -9.51393 -12.56145 -9.47006 -12.73553 C -9.4262 -12.90965 -9.35048 -13.19133 -9.29968 -13.36813 C -9.24887 -13.54495 -9.162 -13.83072 -9.10388 -14.00993 C -9.04576 -14.18915 -8.9466 -14.47856 -8.88081 -14.65979 C -8.81503 -14.84105 -8.70343 -15.13327 -8.62973 -15.31625 C -8.55602 -15.49927 -8.4315 -15.79437 -8.34956 -15.9787 C -8.26764 -16.16302 -8.12961 -16.45956 -8.03917 -16.64478 C -7.94873 -16.82999 -7.7968 -17.128 -7.69763 -17.31357 C -7.59848 -17.49915 -7.43257 -17.79677 -7.32445 -17.98224 C -7.21631 -18.16772 -7.03557 -18.4654 -6.91829 -18.65039 C -6.801 -18.83537 -6.6056 -19.13167 -6.47903 -19.31555 C -6.35248 -19.49945 -6.14207 -19.79341 -6.00606 -19.97578 C -5.87003 -20.15817 -5.64423 -20.44974 -5.49869 -20.63005 C -5.35313 -20.81036 -5.11215 -21.09782 -4.95705 -21.27536 C -4.80194 -21.4529 -4.5455 -21.73532 -4.38078 -21.90965 C -4.21603 -22.08395 -3.94406 -22.36115 -3.76971 -22.53172 C -3.59538 -22.70229 -3.30826 -22.97261 -3.12427 -23.139 C -2.94029 -23.3054 -2.63715 -23.56947 -2.44368 -23.73099 C -2.2502 -23.8925 -1.93272 -24.14726 -1.72986 -24.3031 C -1.527 -24.45897 -1.19368 -24.70454 -.9815 -24.85434 C -.76933 -25.00415 -.42168 -25.23965 -.20059 -25.38274 C .02046 -25.52582 .38197 -25.74966 .61195 -25.88557 C .8419 -26.02148 1.21805 -26.23398 1.45683 -26.36232 C 1.6956 -26.49066 2.08574 -26.69049 2.33286 -26.81052 C 2.57999 -26.93056 2.9829 -27.1164 3.23795 -27.22745 C 3.49301 -27.33849 3.90852 -27.50922 4.1712 -27.61089 C 4.43388 -27.71255 4.86113 -27.86824 5.1312 -27.96022 C 5.40126 -28.05217 5.84067 -28.19197 6.11765 -28.27373 C 6.39462 -28.35548 6.84409 -28.47871 7.12746 -28.54947 C 7.41083 -28.62022 7.8708 -28.72449 8.15999 -28.78369 C 8.44916 -28.84291 8.91713 -28.92856 9.2117 -28.97626 C 9.50629 -29.02396 9.98357 -29.09181 10.28316 -29.12756 C 10.58275 -29.16331 11.06703 -29.2106 11.37097 -29.23396 C 11.67488 -29.25731 12.16608 -29.28531 12.4737 -29.29587 C 12.78128 -29.30641 13.27731 -29.31271 13.58797 -29.31 C 13.8986 -29.3073 14.39952 -29.2923 14.7126 -29.27626 C 15.02571 -29.26022 15.52945 -29.22383 15.84453 -29.19438 C 16.1596 -29.16495 16.66711 -29.1072 16.98346 -29.06396 C 17.29982 -29.02077 17.80789 -28.9402 18.12459 -28.88297 C 18.44128 -28.82573 18.94958 -28.72282 19.26598 -28.65146 C 19.5824 -28.5801 20.08948 -28.45407 20.40504 -28.36858 C 20.7206 -28.2831 21.22652 -28.1351 21.54033 -28.03534 C 21.85414 -27.9356 22.35522 -27.76349 22.6668 -27.64957 C 22.97836 -27.53564 23.47717 -27.3422 23.78587 -27.2142 C 24.09459 -27.08623 24.58728 -26.86937 24.89185 -26.72708 C 25.19641 -26.5848 25.68108 -26.3451 25.98094 -26.1887 C 26.2808 -26.03229 26.75829 -25.77005 27.05304 -25.59984 C 27.34781 -25.42961 27.81651 -25.14566 28.10542 -24.96191 C 28.39433 -24.77817 28.85292 -24.47258 29.13535 -24.27547 C 29.41779 -24.07835 29.86606 -23.75163 30.141 -23.54128 C 30.41594 -23.3309 30.85039 -22.9827 31.11696 -22.75932 C 31.38351 -22.53595 31.80437 -22.16708 32.06227 -21.9313 C 32.32019 -21.69554 32.72716 -21.30783 32.9758 -21.06009 C 33.22443 -20.81232 33.61557 -20.40509 33.8543 -20.14565 C 34.09303 -19.8862 34.46844 -19.46089 34.69646 -19.1902 C 34.92448 -18.91951 35.2811 -18.47623 35.49774 -18.19466 C 35.71439 -17.91309 36.05301 -17.45264 36.2579 -17.16084 C 36.46277 -16.86905 36.78177 -16.39302 36.97444 -16.09158 C 37.16713 -15.79016 37.46643 -15.2986 37.6466 -14.98836 C 37.8268 -14.67812 38.10617 -14.17418 38.2731 -13.85553 C 38.44003 -13.53687 38.69707 -13.01848 38.84978 -12.69168 C 39.00247 -12.36488 39.2352 -11.834 39.37375 -11.5002 C 39.5123 -11.16641 39.72415 -10.62595 39.84842 -10.28587 C 39.97272 -9.94583 40.1599 -9.39514 40.2695 -9.04924 C 40.3791 -8.70335 40.54378 -8.14381 40.63843 -7.79288 C 40.73306 -7.44194 40.87253 -6.87509 40.95168 -6.51991 C 41.0308 -6.16475 41.14539 -5.59177 41.20872 -5.23306 C 41.27208 -4.87434 41.36081 -4.296 41.40831 -3.93452 C 41.4558 -3.57301 41.51901 -2.99103 41.55104 -2.62769 C 41.58307 -2.26434 41.62276 -1.68019 41.63916 -1.31577 C 41.65556 -.95135 41.66925 -.00114 41.66925 -.00114 "/>
<use xlink:href="#font_1_1" transform="matrix(27.673888,0,0,-27.673888,700.48788,200.09998)"/>
<use xlink:href="#font_0_1" transform="matrix(27.673888,0,0,-27.673888,721.8468,201.20693)"/>
<use xlink:href="#font_0_4" transform="matrix(27.673888,0,0,-27.673888,749.88046,200.40439)"/>
<use xlink:href="#font_0_2" transform="matrix(27.673888,0,0,-27.673888,764.935,207.01845)"/>
<use xlink:href="#font_0_5" transform="matrix(27.673888,0,0,-27.673888,778.55056,200.40439)"/>
<use xlink:href="#font_0_1" transform="matrix(27.673888,0,0,-27.673888,799.0846,201.20693)"/>
<symbol id="font_1_2">
<path d="M .07700001 .07700001 L .18300002 .18 C .33900003 .31800003 .39900003 .372 .39900003 .47200004 C .39900003 .586 .30900003 .666 .18700002 .666 C .074 .666 0 .574 0 .485 C 0 .42900003 .05 .42900003 .053000008 .42900003 C .07000001 .42900003 .105000007 .441 .105000007 .48200003 C .105000007 .508 .08700001 .53400006 .052000006 .53400006 C .044000005 .53400006 .042000008 .53400006 .039 .53300008 C .062000004 .59800007 .11600001 .63500007 .17400001 .63500007 C .26500003 .63500007 .308 .554 .308 .47200004 C .308 .39200003 .25800003 .31300003 .20300003 .25100003 L .011000004 .037 C 0 .026 0 .024 0 0 L .37100003 0 L .39900003 .17400001 L .374 .17400001 C .36900003 .14400001 .36200003 .1 .352 .085 C .345 .07700001 .279 .07700001 .257 .07700001 L .07700001 .07700001 Z "/>
</symbol>
<use xlink:href="#font_1_2" transform="matrix(27.673888,0,0,-27.673888,827.38357,200.09998)"/>
<symbol id="font_1_d">
<path d="M .07800001 .076000008 C .07800001 .031000002 .067 .031000002 0 .031000002 L 0 0 C .033000005 .001 .08 .003 .10900001 .003 C .13900002 .003 .17900002 .002 .21900001 0 L .21900001 .031000002 C .15200001 .031000002 .14100002 .031000002 .14100002 .076000008 L .14100002 .179 L .20500002 .23400001 C .282 .128 .32400004 .072000008 .32400004 .054 C .32400004 .035 .307 .031000002 .28800003 .031000002 L .28800003 0 C .316 .001 .37500004 .003 .39600004 .003 C .425 .003 .45400004 .002 .48300005 0 L .48300005 .031000002 C .44600005 .031000002 .42400003 .031000002 .38600005 .08400001 L .259 .263 C .25800003 .26500003 .25300003 .27100004 .25300003 .27400003 C .25300003 .27800004 .32400004 .33800004 .33400003 .34600003 C .397 .397 .439 .39900003 .46000005 .4 L .46000005 .43100003 C .43100003 .42800004 .418 .42800004 .39000003 .42800004 C .35400004 .42800004 .29200004 .43 .27800004 .43100003 L .27800004 .4 C .29700003 .39900003 .307 .388 .307 .37500004 C .307 .35500003 .293 .34300003 .28500004 .33600004 L .14400001 .21400002 L .14400001 .694 L 0 .683 L 0 .652 C .07000001 .652 .07800001 .64500007 .07800001 .596 L .07800001 .076000008 Z "/>
</symbol>
<use xlink:href="#font_1_5" transform="matrix(27.673888,0,0,-27.673888,671.6409,223.72222)"/>
<use xlink:href="#font_1_c" transform="matrix(27.673888,0,0,-27.673888,688.9371,223.72222)"/>
<use xlink:href="#font_1_f" transform="matrix(27.673888,0,0,-27.673888,696.6028,223.72222)"/>
<use xlink:href="#font_1_6" transform="matrix(27.673888,0,0,-27.673888,719.9319,224.02663)"/>
<use xlink:href="#font_1_8" transform="matrix(27.673888,0,0,-27.673888,733.5474,224.02663)"/>
<use xlink:href="#font_1_11" transform="matrix(27.673888,0,0,-27.673888,745.6686,224.02663)"/>
<use xlink:href="#font_1_10" transform="matrix(27.673888,0,0,-27.673888,759.6162,223.72222)"/>
<use xlink:href="#font_1_8" transform="matrix(27.673888,0,0,-27.673888,784.2737,224.02663)"/>
<use xlink:href="#font_1_a" transform="matrix(27.673888,0,0,-27.673888,796.3948,224.02663)"/>
<use xlink:href="#font_1_d" transform="matrix(27.673888,0,0,-27.673888,808.682,223.72222)"/>
<use xlink:href="#font_1_13" transform="matrix(27.673888,0,0,-27.673888,823.40457,224.02663)"/>
<use xlink:href="#font_1_10" transform="matrix(27.673888,0,0,-27.673888,838.79129,223.72222)"/>
<use xlink:href="#font_1_b" transform="matrix(27.673888,0,0,-27.673888,854.06729,229.42304)"/>
<path transform="matrix(2.7777777,0,0,-2.7777777,1001.09439,86.88055)" stroke-width=".79701" stroke-linecap="butt" stroke-miterlimit="10" stroke-linejoin="miter" fill="none" stroke="#000000" d="M 38.26857 0 C 38.26857 0 38.25679 .87244 38.24352 1.2073 C 38.23026 1.54216 38.19894 2.07939 38.17293 2.41344 C 38.14691 2.7475 38.09456 3.28232 38.05602 3.61491 C 38.01747 3.94751 37.94624 4.47977 37.89511 4.81055 C 37.84398 5.14131 37.75166 5.6706 37.68748 5.99892 C 37.62332 6.32724 37.50957 6.8517 37.43263 7.17691 C 37.35571 7.50209 37.222 8.02107 37.13301 8.34268 C 37.04402 8.6643 36.89229 9.17719 36.79121 9.49484 C 36.69016 9.81252 36.51761 10.31906 36.40453 10.63223 C 36.29144 10.94537 36.10101 11.4438 35.97618 11.75182 C 35.85133 12.05983 35.64131 12.5499 35.50475 12.8522 C 35.36818 13.15451 35.13959 13.63443 34.99193 13.93066 C 34.84427 14.22688 34.59895 14.69737 34.44044 14.98718 C 34.28192 15.27701 34.01852 15.73647 33.84949 16.01945 C 33.68048 16.30243 33.40147 16.751 33.22223 17.02666 C 33.04297 17.30234 32.74696 17.73857 32.55759 18.00626 C 32.3682 18.27391 32.05615 18.69641 31.85724 18.95586 C 31.65836 19.21529 31.33197 19.62517 31.1241 19.87613 C 30.91621 20.12709 30.5755 20.52242 30.35901 20.76462 C 30.1425 21.0068 29.78842 21.38857 29.56369 21.62169 C 29.33897 21.85483 28.97205 22.2213 28.7393 22.4449 C 28.50658 22.66853 28.1266 23.0197 27.88625 23.23334 C 27.6459 23.447 27.25409 23.78111 27.00697 23.9848 C 26.75987 24.18848 26.35864 24.50778 26.10526 24.70135 C 25.85187 24.89491 25.44003 25.19675 25.1807 25.37988 C 24.92137 25.56302 24.50124 25.8488 24.23616 26.0213 C 23.97108 26.19379 23.54045 26.46169 23.2702 26.62314 C 22.99997 26.7846 22.56308 27.0344 22.28842 27.18501 C 22.01376 27.33562 21.56938 27.56886 21.29066 27.7086 C 21.01196 27.84834 20.56197 28.06358 20.2797 28.19223 C 19.99742 28.32086 19.54153 28.51826 19.25624 28.63576 C 18.97096 28.75325 18.51143 28.93294 18.22359 29.03905 C 17.93578 29.14517 17.47176 29.3057 17.18173 29.40059 C 16.89171 29.49547 16.4248 29.63902 16.13326 29.72292 C 15.84172 29.80681 15.37312 29.93248 15.08049 30.00528 C 14.78784 30.07808 14.31746 30.18607 14.0241 30.24767 C 13.73071 30.30928 13.25966 30.39885 12.966 30.44933 C 12.67235 30.49979 12.20103 30.57184 11.90765 30.61139 C 11.61429 30.65096 11.14417 30.7056 10.85152 30.7344 C 10.55888 30.76321 10.08997 30.80078 9.79851 30.81902 C 9.50702 30.83725 9.04065 30.85794 8.75078 30.86586 C 8.46092 30.87378 7.99724 30.8787 7.7093 30.87611 C 7.42139 30.87354 6.96123 30.86008 6.67563 30.8473 C 6.39003 30.83453 5.9338 30.8065 5.6509 30.78398 C 5.36798 30.76146 4.91634 30.7171 4.63654 30.68497 C 4.35672 30.65285 3.91064 30.59393 3.63423 30.55249 C 3.35783 30.51105 2.91702 30.43704 2.64442 30.38626 C 2.37183 30.33548 1.93802 30.24619 1.66951 30.18642 C 1.40099 30.12666 .9732 30.02373 .70914 29.95558 C .44507 29.88742 .02567 29.77155 -.23369 29.69514 C -.49307 29.61874 -.90562 29.48929 -1.16031 29.40486 C -1.41502 29.32043 -1.81992 29.17871 -2.06944 29.08656 C -2.31897 28.99438 -2.71457 28.84026 -2.95871 28.74062 C -3.20284 28.64096 -3.5904 28.47502 -3.82903 28.36832 C -4.06764 28.26163 -4.44565 28.08507 -4.67859 27.97163 C -4.91151 27.8582 -5.28082 27.67049 -5.5079 27.55069 C -5.73497 27.43088 -6.0941 27.23404 -6.31514 27.10818 C -6.53618 26.98235 -6.88611 26.77545 -7.10098 26.64365 C -7.31587 26.51183 -7.65526 26.29546 -7.86388 26.1582 C -8.07246 26.02095 -8.40224 25.79666 -8.60455 25.65433 C -8.80687 25.51201 -9.12611 25.27948 -9.322 25.13242 C -9.51788 24.98537 -9.82686 24.74597 -10.01636 24.59444 C -10.20589 24.44289 -10.50491 24.19609 -10.6879 24.04022 C -10.87086 23.88434 -11.15872 23.63069 -11.33514 23.47095 C -11.51157 23.31119 -11.78944 23.0521 -11.95943 22.88884 C -12.12943 22.72557 -12.39687 22.46075 -12.56036 22.29425 C -12.72386 22.12775 -12.98074 21.85832 -13.13782 21.68878 C -13.29488 21.51923 -13.54181 21.24463 -13.69241 21.07228 C -13.84302 20.89993 -14.07912 20.62132 -14.22328 20.44656 C -14.36743 20.2718 -14.59355 19.98973 -14.73143 19.81267 C -14.86931 19.63562 -15.08528 19.34952 -15.217 19.17047 C -15.34871 18.99144 -15.55516 18.703 -15.68077 18.52231 C -15.80638 18.34161 -16.00284 18.05038 -16.12236 17.86818 C -16.24187 17.68597 -16.4286 17.39276 -16.54213 17.20912 C -16.65565 17.02547 -16.83296 16.72943 -16.94064 16.5446 C -17.04831 16.35977 -17.21623 16.06267 -17.31824 15.87697 C -17.42026 15.69128 -17.57936 15.39278 -17.67586 15.20622 C -17.77237 15.01968 -17.92276 14.71968 -18.01378 14.5325 C -18.10478 14.3453 -18.24628 14.04478 -18.33182 13.85709 C -18.41737 13.66939 -18.5501 13.36781 -18.6304 13.17973 C -18.71071 12.99164 -18.83528 12.68976 -18.91057 12.50145 C -18.98586 12.31316 -19.10268 12.011 -19.17308 11.82254 C -19.24347 11.63406 -19.3524 11.33168 -19.41794 11.1431 C -19.48347 10.95451 -19.58467 10.65184 -19.64542 10.46327 C -19.70615 10.27469 -19.79959 9.97249 -19.85576 9.78395 C -19.91191 9.59543 -19.99843 9.29297 -20.05014 9.10452 C -20.10185 8.91609 -20.18117 8.61409 -20.22856 8.42586 C -20.27597 8.23763 -20.34854 7.9359 -20.3918 7.74785 C -20.43507 7.55981 -20.50134 7.25851 -20.54039 7.07063 C -20.5794 6.88274 -20.6382 6.58133 -20.67313 6.39366 C -20.70805 6.20598 -20.76108 5.9054 -20.79211 5.71797 C -20.82318 5.53055 -20.86975 5.23001 -20.89697 5.04282 C -20.9242 4.85562 -20.96481 4.5558 -20.98833 4.36884 C -21.01183 4.18185 -21.04675 3.88203 -21.06644 3.69522 C -21.08614 3.50844 -21.1143 3.20918 -21.13028 3.02254 C -21.14626 2.8359 -21.16913 2.53658 -21.18153 2.35011 C -21.19394 2.16365 -21.21086 1.86494 -21.2197 1.67859 C -21.22852 1.49225 -21.23991 1.19339 -21.24525 1.00706 C -21.2506 .82074 -21.25644 .5219 -21.25822 .33568 C -21.26004 .14946 -21.26004 -.1488 -21.25822 -.33502 C -21.25644 -.52124 -21.2506 -.82016 -21.24525 -1.00642 C -21.23991 -1.19269 -21.22852 -1.49121 -21.2197 -1.67757 C -21.21086 -1.8639 -21.19391 -2.16295 -21.18153 -2.34947 C -21.16917 -2.53598 -21.14655 -2.83527 -21.13054 -3.0219 C -21.11453 -3.20853 -21.0859 -3.50775 -21.06618 -3.6946 C -21.04645 -3.88141 -21.0118 -4.18143 -20.98833 -4.36845 C -20.96484 -4.55545 -20.9242 -4.85527 -20.89697 -5.04243 C -20.86975 -5.22958 -20.82318 -5.52988 -20.79211 -5.71732 C -20.76108 -5.90477 -20.70805 -6.20572 -20.67313 -6.3934 C -20.6382 -6.58107 -20.57939 -6.88214 -20.54039 -7.06998 C -20.50136 -7.25781 -20.43518 -7.55917 -20.39192 -7.74721 C -20.3487 -7.93524 -20.27612 -8.23694 -20.22868 -8.42522 C -20.18127 -8.61348 -20.10184 -8.91573 -20.05014 -9.10414 C -19.99844 -9.29256 -19.91214 -9.59473 -19.85602 -9.78317 C -19.7999 -9.97165 -19.70645 -10.27391 -19.64568 -10.4625 C -19.5849 -10.65106 -19.48347 -10.9537 -19.41794 -11.14232 C -19.3524 -11.33092 -19.2437 -11.6334 -19.17334 -11.82188 C -19.10297 -12.01035 -18.98595 -12.3124 -18.91069 -12.50067 C -18.83543 -12.68896 -18.71117 -12.9908 -18.63094 -13.17894 C -18.55067 -13.3671 -18.41794 -13.669 -18.33234 -13.8567 C -18.24675 -14.04439 -18.10504 -14.34457 -18.01404 -14.53172 C -17.92302 -14.71886 -17.77286 -15.01889 -17.67639 -15.20546 C -17.57993 -15.39201 -17.42078 -15.6906 -17.31877 -15.87631 C -17.21675 -16.06206 -17.04881 -16.35928 -16.94115 -16.54408 C -16.8335 -16.72887 -16.65631 -17.02457 -16.54279 -17.2082 C -16.42926 -17.39185 -16.2424 -17.68546 -16.12286 -17.86765 C -16.00334 -18.04987 -15.80688 -18.34073 -15.68129 -18.5214 C -15.5557 -18.70209 -15.34933 -18.99089 -15.21765 -19.16997 C -15.08595 -19.34903 -14.87 -19.63496 -14.73207 -19.81203 C -14.59416 -19.98909 -14.36786 -20.2714 -14.22366 -20.44617 C -14.07947 -20.62096 -13.84337 -20.89949 -13.69281 -21.07176 C -13.54224 -21.24403 -13.29552 -21.51825 -13.13846 -21.68774 C -12.98138 -21.85722 -12.72424 -22.12679 -12.56075 -22.29335 C -12.39725 -22.4599 -12.13004 -22.72487 -11.96008 -22.88818 C -11.79013 -23.0515 -11.51225 -23.31065 -11.33578 -23.47041 C -11.15933 -23.63019 -10.8712 -23.88385 -10.68828 -24.03969 C -10.50536 -24.19554 -10.20686 -24.44206 -10.0174 -24.59364 C -9.82796 -24.74522 -9.51872 -24.98503 -9.32278 -25.13216 C -9.12685 -25.2793 -8.80751 -25.5118 -8.6052 -25.65408 C -8.4029 -25.79634 -8.07329 -26.02032 -7.86464 -26.15755 C -7.65599 -26.29478 -7.31624 -26.51132 -7.10136 -26.64313 C -6.88652 -26.77493 -6.53703 -26.98166 -6.31606 -27.10754 C -6.09508 -27.23343 -5.7357 -27.43065 -5.50867 -27.55042 C -5.28163 -27.6702 -4.9126 -27.85738 -4.67973 -27.97072 C -4.44687 -28.08408 -4.069 -28.26062 -3.8303 -28.36742 C -3.59164 -28.4742 -3.20367 -28.64061 -2.95949 -28.74036 C -2.71529 -28.84009 -2.31987 -28.99413 -2.07034 -29.0863 C -1.82083 -29.17845 -1.41582 -29.32018 -1.1611 -29.4046 C -.9064 -29.48904 -.49397 -29.61848 -.23459 -29.69489 C .02473 -29.77129 .44423 -29.88718 .70822 -29.95532 C .97221 -30.02345 1.39952 -30.12633 1.66809 -30.18604 C 1.93665 -30.24573 2.37123 -30.3348 2.64389 -30.38562 C 2.91656 -30.43642 3.35701 -30.51073 3.63335 -30.55223 C 3.90967 -30.59373 4.35579 -30.65262 4.6355 -30.68471 C 4.9152 -30.71681 5.36641 -30.761 5.64934 -30.78358 C 5.93225 -30.8062 6.38892 -30.8347 6.67459 -30.84756 C 6.96027 -30.86043 7.42027 -30.87378 7.70828 -30.87639 C 7.99628 -30.87897 8.46039 -30.87424 8.75026 -30.86626 C 9.04013 -30.85826 9.50606 -30.83702 9.79745 -30.81877 C 10.08887 -30.8005 10.55785 -30.76347 10.85048 -30.73466 C 11.14311 -30.70586 11.61325 -30.6507 11.90662 -30.61113 C 12.19998 -30.57158 12.67128 -30.50006 12.96483 -30.44958 C 13.25839 -30.3991 13.7291 -30.30896 14.0224 -30.24728 C 14.3157 -30.18561 14.78615 -30.07774 15.07881 -30.00502 C 15.37144 -29.93228 15.83995 -29.8068 16.13158 -29.72304 C 16.42317 -29.63928 16.89047 -29.49628 17.18057 -29.40137 C 17.47067 -29.30644 17.93451 -29.14511 18.22244 -29.03894 C 18.51035 -28.93277 18.97044 -28.75357 19.25574 -28.63614 C 19.54102 -28.51872 19.99626 -28.32118 20.27852 -28.19263 C 20.56078 -28.06406 21.01143 -27.84921 21.29002 -27.7095 C 21.56862 -27.56981 22.01183 -27.33646 22.28647 -27.18579 C 22.56113 -27.03511 22.99922 -26.78505 23.26956 -26.62352 C 23.53987 -26.46202 23.96985 -26.1941 24.23485 -26.02168 C 24.49986 -25.84927 24.9202 -25.56393 25.17953 -25.38078 C 25.43886 -25.19765 25.8505 -24.89528 26.10396 -24.70175 C 26.35742 -24.5082 26.75923 -24.18951 27.00632 -23.98584 C 27.25343 -23.78217 27.64459 -23.44739 27.88495 -23.23373 C 28.1253 -23.02008 28.50583 -22.66946 28.73866 -22.44595 C 28.9715 -22.22243 29.33833 -21.85588 29.56303 -21.62274 C 29.78775 -21.3896 30.14172 -21.00784 30.35823 -20.76566 C 30.57472 -20.52345 30.91556 -20.12813 31.12344 -19.87717 C 31.33133 -19.6262 31.65773 -19.2164 31.8566 -18.9569 C 32.05548 -18.69737 32.36751 -18.27443 32.55681 -18.00676 C 32.74611 -17.73909 33.04167 -17.30328 33.22092 -17.0277 C 33.40016 -16.75214 33.67972 -16.30359 33.84872 -16.02061 C 34.01772 -15.73764 34.28049 -15.27814 34.43901 -14.98824 C 34.59753 -14.69833 34.84341 -14.22739 34.99129 -13.93118 C 35.13916 -13.63498 35.36809 -13.1556 35.50475 -12.85338 C 35.64139 -12.55115 35.85144 -12.0611 35.97618 -11.75298 C 36.1009 -11.44489 36.29076 -10.94582 36.40375 -10.63274 C 36.51672 -10.31966 36.68925 -9.81404 36.79044 -9.49654 C 36.89162 -9.17903 37.04391 -8.66605 37.13301 -8.34438 C 37.2221 -8.0227 37.35582 -7.50334 37.43263 -7.17807 C 37.50946 -6.8528 37.62254 -6.32834 37.68672 -6.00008 C 37.75087 -5.67183 37.84378 -5.143 37.89511 -4.81223 C 37.94644 -4.48146 38.01822 -3.94882 38.05667 -3.61609 C 38.09511 -3.28333 38.14622 -2.748 38.17216 -2.41396 C 38.19807 -2.07991 38.23026 -1.54326 38.24352 -1.20847 C 38.25679 -.87369 38.26778 -.00102 38.26778 -.00102 "/>
<symbol id="font_0_3">
<path d="M .592 .268 C .60300007 .273 .611 .278 .611 .29 C .611 .30200003 .60300007 .307 .592 .312 L .038000004 .5730001 C .024999999 .58000007 .023000002 .58000007 .020000004 .58000007 C .009000003 .58000007 0 .57100006 0 .56000009 C 0 .55100008 .0050000029 .545 .019000002 .53800007 L .544 .29 L .019000002 .042000005 C .0050000029 .035000005 0 .029000003 0 .020000002 C 0 .0090000019 .009000003 0 .020000004 0 C .023000002 0 .024999999 0 .038000004 .007000003 L .592 .268 Z "/>
</symbol>
<use xlink:href="#font_0_4" transform="matrix(27.673888,0,0,-27.673888,1027.529,200.40439)"/>
<use xlink:href="#font_0_2" transform="matrix(27.673888,0,0,-27.673888,1042.5838,207.01845)"/>
<use xlink:href="#font_0_5" transform="matrix(27.673888,0,0,-27.673888,1056.1992,200.40439)"/>
<use xlink:href="#font_0_3" transform="matrix(27.673888,0,0,-27.673888,1076.7609,201.20693)"/>
<use xlink:href="#font_1_2" transform="matrix(27.673888,0,0,-27.673888,1105.0447,200.09998)"/>
<use xlink:href="#font_1_5" transform="matrix(27.673888,0,0,-27.673888,963.1381,223.72222)"/>
<use xlink:href="#font_1_c" transform="matrix(27.673888,0,0,-27.673888,980.43429,223.72222)"/>
<use xlink:href="#font_1_f" transform="matrix(27.673888,0,0,-27.673888,988.1,223.72222)"/>
<use xlink:href="#font_1_6" transform="matrix(27.673888,0,0,-27.673888,1011.4291,224.02663)"/>
<use xlink:href="#font_1_8" transform="matrix(27.673888,0,0,-27.673888,1025.0446,224.02663)"/>
<use xlink:href="#font_1_11" transform="matrix(27.673888,0,0,-27.673888,1037.1658,224.02663)"/>
<use xlink:href="#font_1_10" transform="matrix(27.673888,0,0,-27.673888,1051.1134,223.72222)"/>
<use xlink:href="#font_1_8" transform="matrix(27.673888,0,0,-27.673888,1075.7708,224.02663)"/>
<use xlink:href="#font_1_a" transform="matrix(27.673888,0,0,-27.673888,1087.892,224.02663)"/>
<use xlink:href="#font_1_f" transform="matrix(27.673888,0,0,-27.673888,1100.2899,223.72222)"/>
<use xlink:href="#font_1_7" transform="matrix(27.673888,0,0,-27.673888,1122.4844,224.02663)"/>
<use xlink:href="#font_1_13" transform="matrix(27.673888,0,0,-27.673888,1137.9818,224.02663)"/>
<use xlink:href="#font_1_10" transform="matrix(27.673888,0,0,-27.673888,1153.3685,223.72222)"/>
<use xlink:href="#font_1_b" transform="matrix(27.673888,0,0,-27.673888,1168.6445,229.42304)"/>
</g>
</svg>
