<?xml version="1.0" encoding="UTF-8" standalone="no"?>
<!DOCTYPE svg PUBLIC "-//W3C//DTD SVG 1.1//EN" "http://www.w3.org/Graphics/SVG/1.1/DTD/svg11.dtd">
<svg xmlns="http://www.w3.org/2000/svg" xmlns:xlink="http://www.w3.org/1999/xlink" version="1.1" width="371.27778pt" height="351.8111pt" viewBox="0 0 371.27778 351.8111">
<g enable-background="new">
<path transform="matrix(2.7777777,0,0,-2.7777777,257.56666,193.77777)" stroke-width=".3985" stroke-linecap="butt" stroke-miterlimit="10" stroke-linejoin="miter" fill="none" stroke="#000000" d="M -85.04042 0 L 27.88852 0 "/>
<path transform="matrix(2.7777777,0,0,-2.7777777,335.03477,193.77777)" stroke-width=".31879" stroke-linecap="round" stroke-linejoin="round" fill="none" stroke="#000000" d="M -1.19551 1.59401 C -1.09587 .99626 0 .09961 .29886 0 C 0 -.09961 -1.09587 -.99626 -1.19551 -1.59401 "/>
<symbol id="font_0_4">
<path d="M .305 .31300003 C .311 .33900003 .334 .43100003 .404 .43100003 C .409 .43100003 .433 .43100003 .454 .418 C .426 .41300003 .40600003 .388 .40600003 .36400003 C .40600003 .34800003 .417 .32900004 .444 .32900004 C .46600003 .32900004 .498 .34700004 .498 .38700003 C .498 .43900005 .439 .45300005 .405 .45300005 C .347 .45300005 .312 .40000005 .3 .37700004 C .275 .44300003 .221 .45300005 .19200002 .45300005 C .08800001 .45300005 .031000002 .32400004 .031000002 .29900003 C .031000002 .28900004 .041 .28900004 .043000007 .28900004 C .051000008 .28900004 .054000006 .291 .056 .3 C .09 .40600003 .156 .43100003 .19000001 .43100003 C .209 .43100003 .244 .42200003 .244 .36400003 C .244 .33300004 .22700002 .26600004 .19000001 .126 C .17400001 .064 .13900002 .022000002 .095000009 .022000002 C .08900001 .022000002 .06600001 .022000002 .045 .035 C .07000001 .040000004 .09200001 .061 .09200001 .089 C .09200001 .116000007 .07000001 .124000009 .055000009 .124000009 C .025 .124000009 0 .098000008 0 .06600001 C 0 .020000002 .050000006 0 .094000007 0 C .16000001 0 .19600001 .07000001 .19900002 .076000008 C .21100001 .039 .24700003 0 .307 0 C .41 0 .467 .12900001 .467 .15400002 C .467 .16400002 .458 .16400002 .455 .16400002 C .446 .16400002 .444 .16000001 .442 .15300001 C .409 .046 .341 .022000002 .30900003 .022000002 C .27 .022000002 .254 .054 .254 .08800001 C .254 .11000001 .26 .13200002 .271 .17600002 L .305 .31300003 Z "/>
</symbol>
<use xlink:href="#font_0_4" transform="matrix(27.673888,0,0,-27.673888,346.88587,200.04051)"/>
<path transform="matrix(2.7777777,0,0,-2.7777777,257.56666,193.77777)" stroke-width=".3985" stroke-linecap="butt" stroke-miterlimit="10" stroke-linejoin="miter" fill="none" stroke="#000000" d="M 0 -56.69362 L 0 56.23534 "/>
<path transform="matrix(0,-2.7777777,-2.7777777,-0,257.56666,37.568506)" stroke-width=".31879" stroke-linecap="round" stroke-linejoin="round" fill="none" stroke="#000000" d="M -1.19551 1.59401 C -1.09587 .99626 0 .09961 .29886 0 C 0 -.09961 -1.09587 -.99626 -1.19551 -1.59401 "/>
<symbol id="font_0_5">
<path d="M .45700003 .586 C .461 .6 .461 .602 .461 .609 C .461 .62700006 .447 .63600006 .432 .63600006 C .42200003 .63600006 .40600003 .63 .397 .615 C .395 .61 .387 .579 .38300003 .561 C .37600003 .535 .36900003 .508 .363 .48100005 L .318 .301 C .314 .286 .271 .21600002 .20500002 .21600002 C .15400002 .21600002 .143 .26000003 .143 .29700003 C .143 .34300003 .16000001 .40500004 .194 .49300004 C .21000001 .53400006 .21400002 .545 .21400002 .56500008 C .21400002 .61 .18200001 .6470001 .13200002 .6470001 C .037 .6470001 0 .50200006 0 .49300004 C 0 .48300005 .01 .48300005 .012 .48300005 C .022000002 .48300005 .023 .485 .028000003 .50100007 C .055000009 .595 .095000009 .625 .12900001 .625 C .13700001 .625 .15400002 .625 .15400002 .59300008 C .15400002 .568 .14400001 .54200008 .13700001 .523 C .097 .41700004 .079 .36 .079 .31300003 C .079 .224 .142 .194 .201 .194 C .24000003 .194 .274 .21100001 .30200003 .23900002 C .289 .187 .277 .13800001 .237 .08500001 C .21100001 .051 .17300001 .022 .127 .022 C .113000009 .022 .068 .025000006 .051000008 .06400001 C .067 .06400001 .080000009 .06400001 .094000007 .076000008 C .104 .08500001 .11400001 .098000008 .11400001 .117000009 C .11400001 .148 .087000008 .15200001 .07700001 .15200001 C .054000006 .15200001 .021 .136 .021 .087000008 C .021 .037 .065000008 0 .127 0 C .23 0 .333 .091000009 .361 .20400001 L .45700003 .586 Z "/>
</symbol>
<use xlink:href="#font_0_5" transform="matrix(27.673888,0,0,-27.673888,251.08863,26.812033)"/>
<path transform="matrix(2.7777777,0,0,-2.7777777,257.56666,193.77777)" stroke-width=".79701" stroke-linecap="butt" stroke-miterlimit="10" stroke-linejoin="miter" fill="none" stroke="#000000" d="M 0 0 C 0 0 .00671 -.00003 .0147 .00041 C .02267 .00089 .0418 .00183 .05751 .00345 C .07324 .00505 .10487 .00867 .12802 .0121 C .15117 .01552 .19392 .02211 .22447 .0281 C .255 .03409 .31013 .04599 .34818 .05534 C .38623 .0647 .45346 .08226 .4987 .09558 C .54395 .1089 .62259 .13344 .6743 .15137 C .72603 .16931 .81358 .20169 .87155 .2249 C .92952 .24812 1.02824 .28961 1.09215 .31876 C 1.15605 .34792 1.26283 .39941 1.3322 .43512 C 1.40157 .47083 1.51775 .5333 1.59216 .57613 C 1.66656 .61897 1.78981 .69354 1.86855 .74394 C 1.94728 .79436 2.07713 .88095 2.15965 .93945 C 2.24216 .99797 2.37766 1.09859 2.46329 1.16568 C 2.54892 1.23277 2.68872 1.34702 2.77687 1.42303 C 2.86504 1.49905 3.00856 1.62831 3.0987 1.7137 C 3.18883 1.79909 3.33534 1.94348 3.42654 2.03853 C 3.51776 2.13359 3.66469 2.29395 3.75615 2.39883 C 3.8476 2.50372 3.99464 2.6797 4.08574 2.79462 C 4.17683 2.90953 4.32285 3.10197 4.41273 3.22714 C 4.50262 3.35231 4.64577 3.56131 4.73367 3.69688 C 4.8216 3.83246 4.9612 4.0582 5.04642 4.20425 C 5.13162 4.35031 5.26634 4.5933 5.34789 4.74968 C 5.42943 4.90607 5.55711 5.16492 5.63423 5.33145 C 5.71133 5.49799 5.83186 5.77324 5.9037 5.94997 C 5.97552 6.12671 6.08615 6.4184 6.15198 6.60527 C 6.2178 6.79214 6.31915 7.10025 6.37819 7.29689 C 6.43724 7.49355 6.52628 7.81662 6.57759 8.0227 C 6.62889 8.22878 6.70511 8.56703 6.74802 8.78224 C 6.79091 8.99744 6.85313 9.34982 6.88686 9.57379 C 6.92058 9.79776 6.96733 10.16429 6.99109 10.39647 C 7.01485 10.62865 7.045 11.0074 7.05814 11.24727 C 7.07127 11.48714 7.08397 11.87819 7.08582 12.12532 C 7.08768 12.37244 7.08168 12.7748 7.07155 13.02847 C 7.0614 13.28215 7.0354 13.6941 7.01273 13.95366 C 6.99005 14.21323 6.94386 14.63435 6.90805 14.8992 C 6.87222 15.16403 6.80406 15.59312 6.7545 15.86246 C 6.70494 16.13179 6.6145 16.56749 6.55077 16.84042 C 6.48705 17.11336 6.37346 17.55382 6.29515 17.82964 C 6.21684 18.10544 6.07962 18.55049 5.9863 18.82835 C 5.89299 19.10622 5.73117 19.55322 5.62254 19.83228 C 5.51393 20.11134 5.32764 20.5605 5.20341 20.83968 C 5.07921 21.11884 4.86732 21.56612 4.7272 21.84445 C 4.58707 22.12277 4.34953 22.56894 4.19344 22.84578 C 4.03735 23.12262 3.77434 23.56549 3.60216 23.83975 C 3.42998 24.11401 3.14087 24.55176 2.95248 24.82248 C 2.76411 25.0932 2.4489 25.52501 2.24443 25.79092 C 2.03996 26.05684 1.69937 26.47885 1.47882 26.73906 C 1.25827 26.99927 .89124 27.41273 .65485 27.66641 C .41846 27.92009 .02707 28.32133 -.2249 28.56738 C -.4769 28.81343 -.89363 29.20206 -1.16135 29.43982 C -1.42908 29.6776 -1.87163 30.053 -2.15446 30.2811 C -2.4373 30.5092 -2.90242 30.86653 -3.1999 31.0839 C -3.49739 31.30124 -3.98672 31.64174 -4.29855 31.84776 C -4.61037 32.05377 -5.12167 32.37508 -5.44736 32.5688 C -5.77306 32.76253 -6.30699 33.06348 -6.64594 33.24399 C -6.98488 33.42448 -7.53879 33.70346 -7.89034 33.86987 C -8.24188 34.0363 -8.8163 34.29219 -9.17973 34.44342 C -9.54317 34.59465 -10.1352 34.82448 -10.5098 34.95985 C -10.88438 35.09525 -11.49454 35.30022 -11.87964 35.41922 C -12.26474 35.53822 -12.89081 35.71574 -13.2854 35.81758 C -13.67998 35.91942 -14.32011 36.06918 -14.72359 36.15324 C -15.12704 36.23732 -15.78212 36.35829 -16.19334 36.42358 C -16.60455 36.48888 -17.26945 36.5777 -17.68733 36.62384 C -18.1052 36.66998 -18.78123 36.72945 -19.20511 36.7562 C -19.62898 36.78296 -20.31374 36.80997 -20.74234 36.81676 C -21.17094 36.82353 -21.86183 36.81863 -22.29428 36.80507 C -22.72673 36.79152 -23.42418 36.7535 -23.8592 36.71901 C -24.29425 36.68451 -24.9934 36.61194 -25.42975 36.55637 C -25.86612 36.50081 -26.56743 36.39536 -27.0042 36.31848 C -27.44096 36.24161 -28.14159 36.1004 -28.57776 36.00229 C -29.01395 35.90417 -29.71346 35.73058 -30.14789 35.61127 C -30.58232 35.49196 -31.27766 35.28313 -31.70892 35.14241 C -32.14017 35.00168 -32.82922 34.75931 -33.2561 34.59697 C -33.68297 34.43465 -34.36426 34.1562 -34.78555 33.97238 C -35.20685 33.78856 -35.87753 33.47658 -36.29251 33.27211 C -36.70749 33.06764 -37.36882 32.72383 -37.77657 32.49872 C -38.1843 32.2736 -38.8324 31.8953 -39.23117 31.64966 C -39.62996 31.40402 -40.26242 30.9942 -40.65077 30.72835 C -41.03912 30.4625 -41.65314 30.0191 -42.03014 29.7335 C -42.40712 29.4479 -43.00262 28.97417 -43.36797 28.6699 C -43.73332 28.36563 -44.31096 27.86317 -44.66342 27.54054 C -45.01588 27.21793 -45.57016 26.68515 -45.90826 26.34457 C -46.24637 26.00401 -46.77783 25.44356 -47.10034 25.08589 C -47.42285 24.72821 -47.92648 24.1407 -48.23273 23.76665 C -48.53897 23.39258 -49.01819 22.77936 -49.30757 22.38988 C -49.59697 22.0004 -50.04681 21.36342 -50.31844 20.95947 C -50.59004 20.55553 -51.01164 19.89598 -51.26526 19.47847 C -51.51888 19.06096 -51.9127 18.38078 -52.14633 17.9503 C -52.37996 17.51984 -52.73608 16.81812 -52.94913 16.37587 C -53.16216 15.93362 -53.48907 15.21567 -53.68184 14.76294 C -53.8746 14.31021 -54.16698 13.57503 -54.33842 13.11281 C -54.50987 12.65059 -54.76752 11.9021 -54.91762 11.43153 C -55.0677 10.96097 -55.29282 10.19917 -55.42021 9.72128 C -55.54762 9.2434 -55.73164 8.4713 -55.83589 7.98723 C -55.94012 7.50317 -56.08998 6.72134 -56.17152 6.23242 C -56.25307 5.7435 -56.36513 4.95587 -56.4237 4.46333 C -56.48227 3.97081 -56.55806 3.17769 -56.59369 2.68259 C -56.62932 2.18747 -56.66858 1.39102 -56.68063 .8949 C -56.69269 .39879 -56.69269 -.39703 -56.68063 -.89317 C -56.66858 -1.3893 -56.62932 -2.18587 -56.59369 -2.68086 C -56.55806 -3.17586 -56.48227 -3.96823 -56.4237 -4.46075 C -56.36513 -4.95328 -56.2529 -5.74164 -56.17152 -6.2307 C -56.09015 -6.71974 -55.9416 -7.50143 -55.83717 -7.9855 C -55.73276 -8.46956 -55.5465 -9.24155 -55.41891 -9.71954 C -55.29134 -10.19754 -55.06752 -10.95998 -54.91762 -11.43066 C -54.7677 -11.90135 -54.50987 -12.64984 -54.33842 -13.11194 C -54.16698 -13.57404 -53.8746 -14.30847 -53.68184 -14.7612 C -53.48907 -15.21393 -53.16216 -15.93275 -52.94913 -16.375 C -52.73608 -16.81725 -52.37978 -17.51823 -52.14633 -17.9486 C -51.91289 -18.37894 -51.51999 -19.05923 -51.26656 -19.47673 C -51.01312 -19.89424 -50.59152 -20.55368 -50.31973 -20.95775 C -50.04793 -21.36182 -49.59697 -21.99948 -49.30757 -22.389 C -49.01819 -22.77855 -48.54008 -23.39142 -48.23402 -23.76535 C -47.92796 -24.1393 -47.42433 -24.72649 -47.10164 -25.08415 C -46.77895 -25.44182 -46.24643 -26.0027 -45.90826 -26.34328 C -45.5701 -26.68384 -45.01656 -27.21619 -44.66429 -27.53882 C -44.31201 -27.86145 -43.73439 -28.36421 -43.36928 -28.6686 C -43.00415 -28.97299 -42.4096 -29.44693 -42.03273 -29.73265 C -41.65585 -30.01837 -41.04146 -30.46213 -40.65294 -30.72792 C -40.26442 -30.99371 -39.63126 -31.40285 -39.23248 -31.64835 C -38.83371 -31.89386 -38.18633 -32.27216 -37.77872 -32.49742 C -37.37111 -32.7227 -36.70973 -33.06754 -36.29468 -33.27211 C -35.87964 -33.47668 -35.20857 -33.78824 -34.7873 -33.97194 C -34.366 -34.15564 -33.68513 -34.43372 -33.25826 -34.59612 C -32.83139 -34.7585 -32.14189 -35.00168 -31.71063 -35.14241 C -31.27939 -35.28313 -30.58447 -35.49109 -30.15004 -35.6104 C -29.71562 -35.7297 -29.01573 -35.90405 -28.5795 -36.00229 C -28.14326 -36.10052 -27.44281 -36.24165 -27.00592 -36.31848 C -26.56903 -36.3953 -25.8671 -36.50043 -25.43062 -36.55594 C -24.99414 -36.61143 -24.29498 -36.68407 -23.86008 -36.71857 C -23.42516 -36.75305 -22.72847 -36.79114 -22.29602 -36.80464 C -21.86357 -36.81813 -21.17181 -36.8226 -20.74321 -36.81589 C -20.3146 -36.80916 -19.63066 -36.78284 -19.20685 -36.7562 C -18.78302 -36.72957 -18.10661 -36.66998 -17.68861 -36.62384 C -17.27063 -36.5777 -16.60524 -36.48882 -16.1942 -36.42358 C -15.78317 -36.35835 -15.12958 -36.23763 -14.72618 -36.15367 C -14.32278 -36.06972 -13.68146 -35.92023 -13.28668 -35.81845 C -12.89192 -35.71667 -12.26602 -35.53922 -11.88094 -35.42009 C -11.49583 -35.30096 -10.8858 -35.09537 -10.5111 -34.95985 C -10.13638 -34.82436 -9.54361 -34.59459 -9.18018 -34.44342 C -8.81674 -34.29225 -8.24309 -34.0366 -7.89165 -33.8703 C -7.5402 -33.70401 -6.98613 -33.4253 -6.64723 -33.24484 C -6.30833 -33.0644 -5.77472 -32.76338 -5.4491 -32.56967 C -5.12347 -32.37595 -4.61223 -32.05464 -4.30028 -31.84862 C -3.98834 -31.64261 -3.49837 -31.30211 -3.20078 -31.08475 C -2.90317 -30.8674 -2.4381 -30.51007 -2.15533 -30.28197 C -1.87256 -30.05386 -1.43036 -29.67845 -1.16264 -29.44067 C -.89491 -29.2029 -.47781 -28.8143 -.22577 -28.56825 C .02626 -28.3222 .41765 -27.92088 .65398 -27.66727 C .8903 -27.41367 1.25694 -27.00069 1.47754 -26.74034 C 1.69814 -26.48001 2.03941 -26.0569 2.24399 -25.79092 C 2.44856 -25.52495 2.76373 -25.09393 2.95206 -24.82333 C 3.14037 -24.55273 3.42918 -24.1148 3.60129 -23.84062 C 3.7734 -23.56642 4.03642 -23.12386 4.19258 -22.84708 C 4.34872 -22.5703 4.58656 -22.12415 4.72676 -21.84575 C 4.86696 -21.56735 5.07872 -21.11978 5.20299 -20.84053 C 5.32727 -20.5613 5.51393 -20.11221 5.62254 -19.83315 C 5.73117 -19.55408 5.89262 -19.10703 5.98587 -18.82922 C 6.07913 -18.55142 6.2164 -18.10674 6.29471 -17.83092 C 6.37302 -17.55511 6.48662 -17.11429 6.55034 -16.8413 C 6.61407 -16.5683 6.7045 -16.13258 6.75406 -15.86331 C 6.80362 -15.59404 6.87175 -15.16531 6.90762 -14.90048 C 6.9435 -14.63565 6.98999 -14.21408 7.01273 -13.95453 C 7.03546 -13.69496 7.0614 -13.28343 7.07155 -13.02975 C 7.08168 -12.77608 7.08768 -12.37337 7.08582 -12.12619 C 7.08397 -11.879 7.07127 -11.48807 7.05814 -11.24814 C 7.045 -11.0082 7.01485 -10.62907 6.99109 -10.3969 C 6.96733 -10.16472 6.92058 -9.79855 6.88686 -9.57465 C 6.85313 -9.35072 6.79085 -8.99825 6.74802 -8.7831 C 6.70517 -8.56796 6.62933 -8.23007 6.57802 -8.02399 C 6.52672 -7.81792 6.43724 -7.49448 6.37819 -7.29776 C 6.31915 -7.10104 6.21823 -6.79301 6.1524 -6.60614 C 6.08658 -6.41925 5.97552 -6.12764 5.9037 -5.95084 C 5.83186 -5.77403 5.7117 -5.49846 5.63466 -5.33188 C 5.5576 -5.16528 5.42987 -4.90645 5.34833 -4.75012 C 5.26678 -4.5938 5.13211 -4.35118 5.04683 -4.20512 C 4.96156 -4.05905 4.82166 -3.83295 4.73367 -3.69733 C 4.6457 -3.5617 4.50256 -3.35277 4.41273 -3.22758 C 4.3229 -3.1024 4.1772 -2.91002 4.08618 -2.79504 C 3.99515 -2.68007 3.8481 -2.50372 3.75658 -2.39883 C 3.66507 -2.29395 3.51776 -2.13397 3.42654 -2.03897 C 3.33534 -1.94397 3.18912 -1.79953 3.0991 -1.71414 C 3.00911 -1.62875 2.8659 -1.49948 2.77774 -1.42346 C 2.68959 -1.34743 2.54935 -1.23318 2.46371 -1.1661 C 2.37808 -1.09901 2.24303 -.99846 2.1605 -.93988 C 2.078 -.88132 1.94783 -.7944 1.86899 -.74394 C 1.79013 -.6935 1.66663 -.61897 1.59216 -.57613 C 1.51768 -.5333 1.4015 -.47083 1.3322 -.43512 C 1.2629 -.39941 1.15642 -.34792 1.09258 -.31876 C 1.02873 -.28961 .93001 -.24812 .87198 -.2249 C .81395 -.20169 .72609 -.16931 .6743 -.15137 C .62253 -.13344 .54388 -.1089 .4987 -.09558 C .45352 -.08226 .38666 -.06465 .3486 -.05534 C .31055 -.04604 .25513 -.03452 .22447 -.02853 C .1938 -.02254 .15068 -.01556 .12758 -.0121 C .10449 -.00862 .0736 -.00505 .05794 -.00345 C .04228 -.00183 .02272 -.00089 .0147 -.00041 C .00667 .00003 0 0 0 0 "/>
<symbol id="font_0_3">
<path d="M .263 .316 L .43300004 .316 C .575 .316 .714 .42000003 .714 .532 C .714 .609 .648 .683 .517 .683 L .193 .683 C .17400001 .683 .163 .683 .163 .66400006 C .163 .652 .172 .652 .192 .652 C .205 .652 .223 .651 .235 .65000006 C .25100003 .648 .25700004 .64500007 .25700004 .634 C .25700004 .63000008 .256 .62700006 .25300003 .615 L .119 .078 C .109 .039 .10699999 .031000002 .028 .031000002 C .011 .031000002 0 .031000002 0 .012 C 0 0 .011999998 0 .015000001 0 C .043 0 .11400001 .003 .142 .003 C .163 .003 .185 .002 .206 .002 C .228 .002 .25000004 0 .27100004 0 C .27800004 0 .29100005 0 .29100005 .020000002 C .29100005 .031000002 .28200004 .031000002 .263 .031000002 C .226 .031000002 .198 .031000002 .198 .049000004 C .198 .055000005 .2 .060000004 .201 .066 L .263 .316 M .33500005 .614 C .344 .64900007 .34600003 .652 .38900004 .652 L .48500005 .652 C .568 .652 .621 .625 .621 .55600008 C .621 .517 .601 .43100003 .56200006 .395 C .512 .35000003 .45200003 .342 .40800003 .342 L .26700003 .342 L .33500005 .614 Z "/>
</symbol>
<use xlink:href="#font_0_3" transform="matrix(27.673888,0,0,-27.673888,253.83194,113.74724)"/>
<symbol id="font_1_1">
<path d="M .23200003 .00999999 C .23200003 .012999982 .23200003 .014999986 .215 .03199999 C .09 .15799999 .058 .347 .058 .5 C .058 .674 .096 .84800007 .21900001 .97300007 C .23200003 .985 .23200003 .98700007 .23200003 .99 C .23200003 .99700006 .22800002 1 .222 1 C .21200001 1 .12200001 .93200007 .06299999 .805 C .012000002 .69500008 0 .584 0 .5 C 0 .422 .011 .301 .066 .188 C .126 .065 .21200001 0 .222 0 C .22800002 0 .23200003 .0029999912 .23200003 .00999999 Z "/>
</symbol>
<symbol id="font_1_3">
<path d="M .205 .64000007 C .205 .66400006 .205 .666 .18200003 .666 C .120000008 .60200008 .032000007 .60200008 0 .60200008 L 0 .57100006 C .020000004 .57100006 .07900001 .57100006 .13100001 .597 L .13100001 .079 C .13100001 .043 .128 .031000002 .038000004 .031000002 L .0060000049 .031000002 L .0060000049 0 C .04100001 .003 .128 .003 .168 .003 C .20800002 .003 .29500003 .003 .33000005 0 L .33000005 .031000002 L .29800005 .031000002 C .20800002 .031000002 .205 .042000005 .205 .079 L .205 .64000007 Z "/>
</symbol>
<use xlink:href="#font_1_1" transform="matrix(27.673888,0,0,-27.673888,277.0758,120.66571)"/>
<use xlink:href="#font_1_3" transform="matrix(27.673888,0,0,-27.673888,287.56425,113.74724)"/>
<symbol id="font_0_2">
<path d="M .117000009 .194 C .117000009 .26 .092 .29900003 .05300001 .29900003 C .020000004 .29900003 0 .274 0 .246 C 0 .21900001 .020000004 .193 .05300001 .193 C .065000008 .193 .078 .197 .08800001 .206 C .091 .208 .092 .209 .093 .209 C .094000007 .209 .095000009 .208 .095000009 .194 C .095000009 .12 .06000001 .060000004 .027000003 .026999996 C .016000003 .016000003 .016000003 .013999999 .016000003 .0109999929 C .016000003 .003999993 .021000006 0 .026 0 C .037 0 .117000009 .077 .117000009 .194 Z "/>
</symbol>
<use xlink:href="#font_0_2" transform="matrix(27.673888,0,0,-27.673888,301.31608,119.088298)"/>
<symbol id="font_2_1">
<path d="M .26600004 .373 L .385 .373 C .37 .313 .348 .22200002 .348 .143 C .348 .103 .35300005 .076 .35900004 .054000006 C .375 .0040000008 .388 0 .40400005 0 C .42700006 0 .45100004 .021000002 .45100004 .045 C .45100004 .053000004 .449 .057000005 .44300003 .067 C .42400003 .104 .40600003 .16100002 .40600003 .24300002 C .40600003 .262 .40600003 .30200003 .42000003 .373 L .545 .373 C .563 .373 .57100006 .373 .582 .381 C .596 .391 .59900006 .407 .59900006 .412 C .59900006 .441 .573 .441 .556 .441 L .179 .441 C .13800001 .441 .11 .432 .065000008 .39000003 C .039000006 .367 0 .313 0 .304 C 0 .292 .013 .292 .017 .292 C .028000005 .292 .029 .294 .035000005 .303 C .08600001 .373 .148 .373 .17 .373 L .23100002 .373 C .2 .263 .14600002 .14500001 .11600001 .085 C .11 .072000008 .10000001 .051000004 .097 .047000003 C .096 .043 .09400001 .039 .09400001 .032 C .09400001 .016 .106000009 0 .12900001 0 C .16900002 0 .18 .045 .20400001 .135 L .26600004 .373 Z "/>
</symbol>
<use xlink:href="#font_2_1" transform="matrix(19.371666,0,0,-19.371666,315.4273,103.04652)"/>
<path transform="matrix(2.7777777,0,0,-2.7777777,314.55555,106.830577)" stroke-width=".398" stroke-linecap="butt" stroke-miterlimit="10" stroke-linejoin="miter" fill="none" stroke="#000000" d="M 0 0 L 4.909 0 "/>
<symbol id="font_3_1">
<path d="M .442 .18200001 L .40800003 .18200001 C .40500004 .16000001 .39500005 .101 .38200004 .091000009 C .374 .085 .29700003 .085 .28300003 .085 L .099 .085 C .20400003 .178 .23900002 .20600002 .29900003 .25300003 C .37300004 .312 .442 .374 .442 .469 C .442 .59000006 .33600004 .66400006 .20800004 .66400006 C .084 .66400006 0 .577 0 .485 C 0 .43400003 .043000007 .42900003 .053000004 .42900003 C .077 .42900003 .10600001 .446 .10600001 .48200003 C .10600001 .5 .099 .535 .047000007 .535 C .078 .606 .146 .628 .19300002 .628 C .293 .628 .34500004 .55 .34500004 .469 C .34500004 .38200004 .28300003 .31300003 .25100003 .277 L .010000005 .039 C 0 .030000002 0 .028 0 0 L .41200004 0 L .442 .18200001 Z "/>
</symbol>
<use xlink:href="#font_3_1" transform="matrix(19.371666,0,0,-19.371666,317.07875,123.2917)"/>
<symbol id="font_1_2">
<path d="M .232 .5 C .232 .578 .22100002 .699 .16600001 .81200006 C .106 .93500009 .020000004 1 .009999998 1 C .0040000008 1 0 .99600008 0 .99 C 0 .98700007 0 .985 .019000002 .967 C .117000009 .86800006 .174 .709 .174 .5 C .174 .329 .137 .153 .012999997 .026999996 C 0 .014999986 0 .012999982 0 .00999999 C 0 .003999993 .0040000008 0 .009999998 0 C .020000004 0 .11000001 .06799999 .169 .195 C .22 .305 .232 .416 .232 .5 Z "/>
</symbol>
<use xlink:href="#font_1_2" transform="matrix(27.673888,0,0,-27.673888,333.08854,120.665729)"/>
<use xlink:href="#font_0_3" transform="matrix(27.673888,0,0,-27.673888,19.554177,183.53891)"/>
<symbol id="font_1_4">
<path d="M .07700001 .07700001 L .18300002 .18 C .33900003 .31800003 .39900003 .372 .39900003 .47200004 C .39900003 .586 .30900003 .666 .18700002 .666 C .074 .666 0 .574 0 .485 C 0 .42900003 .05 .42900003 .053000008 .42900003 C .07000001 .42900003 .105000007 .441 .105000007 .48200003 C .105000007 .508 .08700001 .53400006 .052000006 .53400006 C .044000005 .53400006 .042000008 .53400006 .039 .53300008 C .062000004 .59800007 .11600001 .63500007 .17400001 .63500007 C .26500003 .63500007 .308 .554 .308 .47200004 C .308 .39200003 .25800003 .31300003 .20300003 .25100003 L .011000004 .037 C 0 .026 0 .024 0 0 L .37100003 0 L .39900003 .17400001 L .374 .17400001 C .36900003 .14400001 .36200003 .1 .352 .085 C .345 .07700001 .279 .07700001 .257 .07700001 L .07700001 .07700001 Z "/>
</symbol>
<use xlink:href="#font_1_1" transform="matrix(27.673888,0,0,-27.673888,42.798044,190.45738)"/>
<use xlink:href="#font_1_4" transform="matrix(27.673888,0,0,-27.673888,52.207166,183.53891)"/>
<symbol id="font_0_1">
<path d="M .23800002 .38400004 L .351 .38400004 C .31800003 .23600002 .30900003 .19300002 .30900003 .126 C .30900003 .111 .30900003 .08400001 .317 .05 C .327 .0060000007 .338 0 .35300002 0 C .373 0 .39400003 .018000002 .39400003 .038000004 C .39400003 .044 .39400003 .046 .388 .060000004 C .359 .13200002 .359 .19700001 .359 .22500003 C .359 .27800004 .366 .33200003 .377 .38400004 L .491 .38400004 C .504 .38400004 .54 .38400004 .54 .418 C .54 .44200004 .519 .44200004 .5 .44200004 L .165 .44200004 C .143 .44200004 .105 .44200004 .061000006 .395 C .026000003 .35600005 0 .31000004 0 .305 C 0 .30400003 0 .29500003 .012 .29500003 C .020000002 .29500003 .022000002 .29900003 .028000003 .307 C .077 .38400004 .135 .38400004 .15500002 .38400004 L .21200001 .38400004 C .18000002 .263 .12600002 .14200002 .08400001 .051000004 C .076000008 .036000004 .076000008 .034 .076000008 .027000003 C .076000008 .008000001 .092 0 .105 0 C .135 0 .143 .028 .15500002 .065000008 C .16900002 .111 .16900002 .113000009 .18200001 .16300002 L .23800002 .38400004 Z "/>
</symbol>
<use xlink:href="#font_0_2" transform="matrix(27.673888,0,0,-27.673888,67.038288,188.87998)"/>
<use xlink:href="#font_0_1" transform="matrix(27.673888,0,0,-27.673888,77.720409,183.84333)"/>
<use xlink:href="#font_1_2" transform="matrix(27.673888,0,0,-27.673888,95.302417,190.45738)"/>
<use xlink:href="#font_0_3" transform="matrix(27.673888,0,0,-27.673888,262.57917,278.09443)"/>
<use xlink:href="#font_1_1" transform="matrix(27.673888,0,0,-27.673888,285.82304,285.01289)"/>
<use xlink:href="#font_1_3" transform="matrix(27.673888,0,0,-27.673888,296.31144,278.09443)"/>
<use xlink:href="#font_0_2" transform="matrix(27.673888,0,0,-27.673888,310.0605,283.4355)"/>
<use xlink:href="#font_3_1" transform="matrix(19.371666,0,0,-19.371666,324.5232,267.19999)"/>
<use xlink:href="#font_2_1" transform="matrix(19.371666,0,0,-19.371666,335.20506,267.3937)"/>
<path transform="matrix(2.7777777,0,0,-2.7777777,323.30278,271.17778)" stroke-width=".398" stroke-linecap="butt" stroke-miterlimit="10" stroke-linejoin="miter" fill="none" stroke="#000000" d="M 0 0 L 8.88 0 "/>
<use xlink:href="#font_3_1" transform="matrix(19.371666,0,0,-19.371666,331.33988,287.6389)"/>
<use xlink:href="#font_1_2" transform="matrix(27.673888,0,0,-27.673888,352.86909,285.01289)"/>
</g>
</svg>
