<?xml version="1.0" encoding="UTF-8" standalone="no"?>
<!DOCTYPE svg PUBLIC "-//W3C//DTD SVG 1.1//EN" "http://www.w3.org/Graphics/SVG/1.1/DTD/svg11.dtd">
<svg xmlns="http://www.w3.org/2000/svg" xmlns:xlink="http://www.w3.org/1999/xlink" version="1.1" width="2603.683pt" height="509.29167pt" viewBox="0 0 2603.683 509.29167">
<g enable-background="new">
<path transform="matrix(2.7777777,0,0,-2.7777777,245.99721,272.51667)" stroke-width=".3985" stroke-linecap="butt" stroke-miterlimit="10" stroke-linejoin="miter" fill="none" stroke="#000000" d="M -85.04042 0 L 84.58214 0 "/>
<path transform="matrix(2.7777777,0,0,-2.7777777,480.9476,272.51667)" stroke-width=".31879" stroke-linecap="round" stroke-linejoin="round" fill="none" stroke="#000000" d="M -1.19551 1.59401 C -1.09587 .99626 0 .09961 .29886 0 C 0 -.09961 -1.09587 -.99626 -1.19551 -1.59401 "/>
<symbol id="font_0_4">
<path d="M .305 .31300003 C .311 .33900003 .334 .43100003 .404 .43100003 C .409 .43100003 .433 .43100003 .454 .418 C .426 .41300003 .40600003 .388 .40600003 .36400003 C .40600003 .34800003 .417 .32900004 .444 .32900004 C .46600003 .32900004 .498 .34700004 .498 .38700003 C .498 .43900005 .439 .45300005 .405 .45300005 C .347 .45300005 .312 .40000005 .3 .37700004 C .275 .44300003 .221 .45300005 .19200002 .45300005 C .08800001 .45300005 .031000002 .32400004 .031000002 .29900003 C .031000002 .28900004 .041 .28900004 .043000007 .28900004 C .051000008 .28900004 .054000006 .291 .056 .3 C .09 .40600003 .156 .43100003 .19000001 .43100003 C .209 .43100003 .244 .42200003 .244 .36400003 C .244 .33300004 .22700002 .26600004 .19000001 .126 C .17400001 .064 .13900002 .022000002 .095000009 .022000002 C .08900001 .022000002 .06600001 .022000002 .045 .035 C .07000001 .040000004 .09200001 .061 .09200001 .089 C .09200001 .116000007 .07000001 .124000009 .055000009 .124000009 C .025 .124000009 0 .098000008 0 .06600001 C 0 .020000002 .050000006 0 .094000007 0 C .16000001 0 .19600001 .07000001 .19900002 .076000008 C .21100001 .039 .24700003 0 .307 0 C .41 0 .467 .12900001 .467 .15400002 C .467 .16400002 .458 .16400002 .455 .16400002 C .446 .16400002 .444 .16000001 .442 .15300001 C .409 .046 .341 .022000002 .30900003 .022000002 C .27 .022000002 .254 .054 .254 .08800001 C .254 .11000001 .26 .13200002 .271 .17600002 L .305 .31300003 Z "/>
</symbol>
<use xlink:href="#font_0_4" transform="matrix(27.673888,0,0,-27.673888,492.79975,278.7794)"/>
<path transform="matrix(2.7777777,0,0,-2.7777777,245.99721,272.51667)" stroke-width=".3985" stroke-linecap="butt" stroke-miterlimit="10" stroke-linejoin="miter" fill="none" stroke="#000000" d="M 0 -85.04042 L 0 84.58214 "/>
<path transform="matrix(0,-2.7777777,-2.7777777,-0,245.99721,37.566289)" stroke-width=".31879" stroke-linecap="round" stroke-linejoin="round" fill="none" stroke="#000000" d="M -1.19551 1.59401 C -1.09587 .99626 0 .09961 .29886 0 C 0 -.09961 -1.09587 -.99626 -1.19551 -1.59401 "/>
<symbol id="font_0_5">
<path d="M .45700003 .586 C .461 .6 .461 .602 .461 .609 C .461 .62700006 .447 .63600006 .432 .63600006 C .42200003 .63600006 .40600003 .63 .397 .615 C .395 .61 .387 .579 .38300003 .561 C .37600003 .535 .36900003 .508 .363 .48100005 L .318 .301 C .314 .286 .271 .21600002 .20500002 .21600002 C .15400002 .21600002 .143 .26000003 .143 .29700003 C .143 .34300003 .16000001 .40500004 .194 .49300004 C .21000001 .53400006 .21400002 .545 .21400002 .56500008 C .21400002 .61 .18200001 .6470001 .13200002 .6470001 C .037 .6470001 0 .50200006 0 .49300004 C 0 .48300005 .01 .48300005 .012 .48300005 C .022000002 .48300005 .023 .485 .028000003 .50100007 C .055000009 .595 .095000009 .625 .12900001 .625 C .13700001 .625 .15400002 .625 .15400002 .59300008 C .15400002 .568 .14400001 .54200008 .13700001 .523 C .097 .41700004 .079 .36 .079 .31300003 C .079 .224 .142 .194 .201 .194 C .24000003 .194 .274 .21100001 .30200003 .23900002 C .289 .187 .277 .13800001 .237 .08500001 C .21100001 .051 .17300001 .022 .127 .022 C .113000009 .022 .068 .025000006 .051000008 .06400001 C .067 .06400001 .080000009 .06400001 .094000007 .076000008 C .104 .08500001 .11400001 .098000008 .11400001 .117000009 C .11400001 .148 .087000008 .15200001 .07700001 .15200001 C .054000006 .15200001 .021 .136 .021 .087000008 C .021 .037 .065000008 0 .127 0 C .23 0 .333 .091000009 .361 .20400001 L .45700003 .586 Z "/>
</symbol>
<use xlink:href="#font_0_5" transform="matrix(27.673888,0,0,-27.673888,239.5192,26.812033)"/>
<path transform="matrix(2.7777777,0,0,-2.7777777,245.99721,272.51667)" stroke-width=".79701" stroke-linecap="butt" stroke-miterlimit="10" stroke-linejoin="miter" fill="none" stroke="#000000" d="M 56.69362 0 C 56.69362 0 56.67941 1.29266 56.66333 1.78896 C 56.64725 2.28526 56.60924 3.0815 56.57768 3.57707 C 56.54613 4.07266 56.48262 4.86661 56.43582 5.36087 C 56.389 5.85513 56.30246 6.64674 56.24031 7.13945 C 56.17815 7.63216 56.06583 8.42145 55.9877 8.912 C 55.90959 9.40256 55.77101 10.18735 55.67715 10.67502 C 55.58328 11.16269 55.42007 11.94238 55.31122 12.4268 C 55.20236 12.91122 55.0165 13.68553 54.89252 14.16647 C 54.76852 14.64742 54.55669 15.4163 54.41759 15.89316 C 54.27849 16.37001 54.04399 17.13124 53.8899 17.60341 C 53.7358 18.07559 53.47607 18.82947 53.30684 19.29637 C 53.1376 19.76326 52.8539 20.50731 52.67014 20.96857 C 52.48637 21.42982 52.18056 22.16548 51.98239 22.62085 C 51.78424 23.07623 51.45422 23.80164 51.2419 24.25066 C 51.02957 24.69968 50.67845 25.41493 50.45207 25.85712 C 50.22571 26.29929 49.85088 27.00311 49.61035 27.4376 C 49.36983 27.87209 48.97256 28.5621 48.71848 28.98868 C 48.46439 29.41524 48.04628 30.09367 47.77899 30.51208 C 47.51169 30.93048 47.0722 31.59445 46.79195 32.00433 C 46.51167 32.41423 46.05202 33.0653 45.75905 33.46631 C 45.46606 33.86731 44.986 34.50302 44.6803 34.89455 C 44.3746 35.28609 43.87387 35.90675 43.5557 36.2882 C 43.23752 36.66965 42.71681 37.27254 42.38698 37.64377 C 42.05716 38.015 41.51959 38.60309 41.17847 38.96388 C 40.83736 39.32466 40.2807 39.89432 39.92844 40.24419 C 39.57616 40.59407 39.0029 41.14697 38.63947 41.48557 C 38.27603 41.82416 37.68309 42.35799 37.30898 42.68457 C 36.93486 43.01115 36.32712 43.52473 35.94304 43.83945 C 35.55896 44.15416 34.93456 44.65009 34.54074 44.95279 C 34.14694 45.2555 33.50789 45.73106 33.10472 46.02116 C 32.70155 46.31126 32.047 46.76643 31.63495 47.04369 C 31.2229 47.32094 30.55547 47.75568 30.1349 48.01949 C 29.71434 48.2833 29.03256 48.69475 28.60371 48.94511 C 28.17487 49.1955 27.48041 49.58699 27.04399 49.82404 C 26.60757 50.06108 25.90192 50.43039 25.4583 50.65364 C 25.0147 50.87688 24.29724 51.2241 23.84666 51.43307 C 23.3961 51.64204 22.66788 51.96532 22.21082 52.15974 C 21.75375 52.35417 21.01541 52.65459 20.55246 52.8345 C 20.08951 53.01442 19.34254 53.29121 18.8742 53.45648 C 18.40587 53.62177 17.6502 53.8752 17.17694 54.02571 C 16.70367 54.17622 15.94092 54.40556 15.46321 54.5413 C 14.9855 54.67703 14.21571 54.88385 13.73393 55.0041 C 13.25215 55.12437 12.47618 55.30333 11.9908 55.4081 C 11.50542 55.51288 10.72406 55.66968 10.23557 55.75932 C 9.74706 55.84897 8.96097 55.98001 8.46994 56.0543 C 7.97891 56.1286 7.18973 56.23589 6.69653 56.2948 C 6.20335 56.35373 5.4101 56.43611 4.91534 56.47906 C 4.4206 56.52203 3.62651 56.57738 3.13069 56.60449 C 2.63486 56.63162 1.83801 56.66283 1.34172 56.67458 C .84541 56.68633 .04991 56.69312 -.44637 56.68929 C -.94267 56.68546 -1.73904 56.66634 -2.23534 56.6469 C -2.73163 56.62746 -3.5281 56.58429 -4.02345 56.54913 C -4.5188 56.51398 -5.3116 56.44443 -5.80551 56.39342 C -6.29942 56.34242 -7.09114 56.24797 -7.58324 56.18147 C -8.07535 56.11497 -8.8625 55.99614 -9.35233 55.91417 C -9.84215 55.83221 -10.62654 55.68785 -11.11362 55.59064 C -11.60068 55.49342 -12.3791 55.32593 -12.8628 55.21346 C -13.3465 55.101 -14.12 54.90813 -14.59987 54.78006 C -15.07973 54.65201 -15.84583 54.43361 -16.32137 54.29042 C -16.79692 54.14723 -17.55644 53.90596 -18.0273 53.74802 C -18.49817 53.59007 -19.2495 53.32457 -19.71507 53.15198 C -20.18065 52.97939 -20.92287 52.69116 -21.38293 52.50404 C -21.84299 52.31691 -22.57707 52.00522 -23.0309 51.80333 C -23.48473 51.60146 -24.2067 51.26514 -24.65378 51.04898 C -25.10088 50.83282 -25.81306 50.4753 -26.25331 50.24533 C -26.69356 50.01537 -27.39418 49.63513 -27.82687 49.3915 C -28.25957 49.14786 -28.94702 48.74644 -29.37192 48.48923 C -29.79681 48.23201 -30.47276 47.8083 -30.88925 47.53764 C -31.30574 47.26698 -31.96625 46.8221 -32.37373 46.53848 C -32.78122 46.25485 -33.42783 45.78993 -33.82619 45.49347 C -34.22455 45.19699 -34.85591 44.71056 -35.24492 44.40173 C -35.63391 44.09291 -36.25075 43.58832 -36.6299 43.26762 C -37.00906 42.94691 -37.60898 42.42273 -37.97768 42.09026 C -38.34639 41.7578 -38.92949 41.21559 -39.28741 40.87137 C -39.64532 40.52713 -40.21057 39.96474 -40.55734 39.60922 C -40.9041 39.25371 -41.45103 38.67497 -41.7866 38.309 C -42.1222 37.94305 -42.65192 37.348 -42.97609 36.9716 C -43.30028 36.5952 -43.81113 35.9826 -44.12318 35.59613 C -44.43526 35.20964 -44.92595 34.58228 -45.22528 34.18607 C -45.52463 33.78986 -45.99419 33.14609 -46.28069 32.74051 C -46.56718 32.33493 -47.01634 31.67717 -47.29024 31.26297 C -47.56412 30.84875 -47.99385 30.17776 -48.25478 29.75514 C -48.5157 29.33253 -48.92354 28.64781 -49.1709 28.21704 C -49.41826 27.78625 -49.80438 27.08871 -50.03772 26.65039 C -50.27106 26.21205 -50.63333 25.50331 -50.85262 25.05779 C -51.0719 24.61224 -51.41296 23.89148 -51.61821 23.43922 C -51.82344 22.98697 -52.14095 22.25656 -52.3319 21.79817 C -52.52284 21.33978 -52.81775 20.59964 -52.99455 20.1355 C -53.17134 19.67136 -53.44447 18.92258 -53.60616 18.45291 C -53.76782 17.98325 -54.01337 17.22502 -54.15979 16.75044 C -54.30621 16.27586 -54.52988 15.51132 -54.66154 15.03241 C -54.79321 14.5535 -54.99225 13.78154 -55.1088 13.2988 C -55.22533 12.81607 -55.4 12.03918 -55.50154 11.55307 C -55.60307 11.06696 -55.75482 10.28435 -55.84064 9.79524 C -55.92645 9.30612 -56.05008 8.51952 -56.12006 8.02788 C -56.19003 7.53625 -56.29037 6.74542 -56.34499 6.25188 C -56.3996 5.75833 -56.47455 4.96568 -56.51367 4.4707 C -56.55278 3.97571 -56.60324 3.18039 -56.627 2.68431 C -56.65076 2.18825 -56.67693 1.39177 -56.68495 .89534 C -56.69298 .39893 -56.69298 -.39719 -56.68495 -.89362 C -56.67693 -1.39003 -56.65076 -2.18663 -56.627 -2.68259 C -56.60324 -3.17853 -56.55278 -3.9731 -56.51367 -4.4681 C -56.47455 -4.96309 -56.39948 -5.7565 -56.34499 -6.25017 C -56.2905 -6.74384 -56.19102 -7.53453 -56.12093 -8.02617 C -56.05083 -8.51779 -55.92572 -9.30429 -55.83978 -9.79352 C -55.75385 -10.28275 -55.60295 -11.06598 -55.50154 -11.5522 C -55.40012 -12.03842 -55.22533 -12.81532 -55.1088 -13.29794 C -54.99225 -13.78055 -54.79321 -14.55177 -54.66154 -15.03067 C -54.52988 -15.50958 -54.30621 -16.27501 -54.15979 -16.74959 C -54.01337 -17.22418 -53.7677 -17.98166 -53.60616 -18.4512 C -53.4446 -18.92075 -53.17209 -19.66963 -52.9954 -20.13377 C -52.81874 -20.5979 -52.52383 -21.33795 -52.33276 -21.79643 C -52.14168 -22.25493 -51.82344 -22.9861 -51.61821 -23.43835 C -51.41296 -23.89061 -51.07265 -24.61063 -50.85349 -25.05605 C -50.63432 -25.50146 -50.27202 -26.21031 -50.03857 -26.64865 C -49.80515 -27.08699 -49.41826 -27.78453 -49.1709 -28.2153 C -48.92354 -28.64609 -48.51645 -29.3308 -48.25565 -29.75342 C -47.99484 -30.17603 -47.56487 -30.84703 -47.29109 -31.26123 C -47.01732 -31.67545 -46.56879 -32.33311 -46.28241 -32.73878 C -45.99605 -33.14447 -45.52649 -33.78899 -45.22702 -34.1852 C -44.92755 -34.5814 -44.43613 -35.20805 -44.12405 -35.5944 C -43.81198 -35.98076 -43.30188 -36.59334 -42.97783 -36.96986 C -42.65376 -37.34639 -42.12393 -37.94206 -41.78835 -38.30814 C -41.45276 -38.67422 -40.90582 -39.25296 -40.55907 -39.60835 C -40.21231 -39.96375 -39.64705 -40.52539 -39.28914 -40.86963 C -38.93123 -41.21387 -38.34814 -41.75693 -37.97942 -42.08939 C -37.61069 -42.42186 -37.01077 -42.9452 -36.63162 -43.2659 C -36.25247 -43.58661 -35.63565 -44.09195 -35.24664 -44.40088 C -34.85764 -44.70982 -34.22641 -45.19614 -33.82793 -45.4926 C -33.42943 -45.78905 -32.7822 -46.25398 -32.37459 -46.53761 C -31.96696 -46.82123 -31.30649 -47.26624 -30.89012 -47.53677 C -30.47375 -47.80731 -29.79852 -48.2304 -29.37364 -48.48749 C -28.94875 -48.74458 -28.26044 -49.146 -27.82774 -49.38976 C -27.39505 -49.63353 -26.69518 -50.01437 -26.25504 -50.24446 C -25.81491 -50.47455 -25.10274 -50.83195 -24.65552 -51.04811 C -24.20831 -51.26427 -23.48547 -51.60059 -23.03177 -51.80246 C -22.57806 -52.00435 -21.84546 -52.31595 -21.38553 -52.50317 C -20.9256 -52.6904 -20.1825 -52.97926 -19.7168 -53.15198 C -19.2511 -53.32469 -18.49991 -53.5902 -18.02904 -53.74802 C -17.55817 -53.90584 -16.79877 -54.14648 -16.3231 -54.28955 C -15.84743 -54.43262 -15.0806 -54.65114 -14.60074 -54.77919 C -14.12086 -54.90726 -13.34811 -55.10002 -12.86453 -55.21259 C -12.38094 -55.32516 -11.6023 -55.49342 -11.11534 -55.59064 C -10.62839 -55.68785 -9.8446 -55.83147 -9.3549 -55.91331 C -8.8652 -55.99516 -8.07806 -56.11403 -7.58585 -56.18062 C -7.09361 -56.24722 -6.30127 -56.3423 -5.80724 -56.39342 C -5.3132 -56.44455 -4.52052 -56.51398 -4.02519 -56.54913 C -3.52985 -56.58429 -2.73337 -56.62746 -2.23708 -56.6469 C -1.74077 -56.66634 -.9444 -56.68546 -.4481 -56.68929 C .04819 -56.69312 .8438 -56.68633 1.33998 -56.67458 C 1.83618 -56.66283 2.63216 -56.63174 3.1281 -56.60449 C 3.62405 -56.57726 4.41962 -56.52116 4.91449 -56.4782 C 5.40936 -56.43524 6.20175 -56.3536 6.69481 -56.2948 C 7.18787 -56.23601 7.97731 -56.1286 8.46822 -56.0543 C 8.9591 -55.98001 9.74448 -55.84885 10.23297 -55.75932 C 10.72148 -55.6698 11.50357 -55.51363 11.98907 -55.40897 C 12.47458 -55.30432 13.25029 -55.12524 13.7322 -55.00497 C 14.2141 -54.88472 14.98465 -54.67802 15.46236 -54.54216 C 15.94006 -54.40631 16.70206 -54.17622 17.1752 -54.02571 C 17.64835 -53.8752 18.40414 -53.62263 18.87248 -53.45735 C 19.34084 -53.29208 20.08778 -53.01442 20.55072 -52.8345 C 21.01367 -52.65459 21.75214 -52.35504 22.20908 -52.16061 C 22.66602 -51.96617 23.39362 -51.64217 23.84407 -51.43307 C 24.29451 -51.22398 25.0121 -50.87675 25.4557 -50.65364 C 25.8993 -50.43051 26.60486 -50.0617 27.0414 -49.8249 C 27.47794 -49.5881 28.17303 -49.19734 28.602 -48.94685 C 29.03096 -48.69635 29.7125 -48.28342 30.13318 -48.01949 C 30.55385 -47.75555 31.22203 -47.32169 31.63408 -47.04456 C 32.04613 -46.76743 32.69981 -46.312 33.10298 -46.02202 C 33.50615 -45.73204 34.1462 -45.2571 34.53987 -44.95453 C 34.93356 -44.65195 35.55635 -44.15599 35.94043 -43.84117 C 36.32451 -43.52635 36.93387 -43.01213 37.3081 -42.68542 C 37.68236 -42.35872 38.27443 -41.8249 38.63774 -41.48643 C 39.00105 -41.14796 39.57442 -40.59578 39.9267 -40.24591 C 40.27898 -39.89603 40.8355 -39.32552 41.17674 -38.96474 C 41.51797 -38.60394 42.05629 -38.01674 42.38612 -37.64551 C 42.71594 -37.27428 43.2358 -36.6705 43.55397 -36.28906 C 43.87215 -35.90761 44.37361 -35.28769 44.67943 -34.89629 C 44.98524 -34.50488 45.46521 -33.86905 45.75818 -33.46805 C 46.05115 -33.06705 46.5108 -32.41595 46.79108 -32.00607 C 47.07133 -31.59618 47.51085 -30.93222 47.77814 -30.51381 C 48.04544 -30.09541 48.46352 -29.4171 48.7176 -28.9904 C 48.9717 -28.56372 49.36908 -27.87296 49.6095 -27.43846 C 49.8499 -27.00398 50.22398 -26.30089 50.45036 -25.85883 C 50.67673 -25.41678 51.0287 -24.70142 51.24103 -24.2524 C 51.45335 -23.80338 51.7825 -23.07808 51.98067 -22.62259 C 52.17882 -22.1671 52.48528 -21.4307 52.66927 -20.96944 C 52.85326 -20.50818 53.13748 -19.76488 53.30684 -19.2981 C 53.4762 -18.83131 53.73592 -18.07744 53.8899 -17.60515 C 54.04388 -17.13284 54.27774 -16.37077 54.41672 -15.89403 C 54.5557 -15.41728 54.76753 -14.64977 54.89165 -14.16905 C 55.01575 -13.68835 55.20224 -12.91396 55.31122 -12.4294 C 55.4202 -11.94485 55.5834 -11.16454 55.67715 -10.67676 C 55.77089 -10.18896 55.90872 -9.40416 55.98685 -8.91373 C 56.06497 -8.42331 56.1779 -7.63477 56.24031 -7.14204 C 56.3027 -6.64934 56.39 -5.8571 56.43668 -5.3626 C 56.48337 -4.86809 56.54538 -4.07353 56.57681 -3.57794 C 56.60825 -3.08237 56.64725 -2.28688 56.66333 -1.7907 C 56.67941 -1.2945 56.69275 -.00171 56.69275 -.00171 "/>
<symbol id="font_0_3">
<path d="M .059000009 .07000001 C .056 .055000005 .050000006 .032 .050000006 .027000003 C .050000006 .009000001 .064 0 .079 0 C .091000009 0 .10900001 .008000001 .11600001 .028 C .118 .032 .15200001 .16800002 .156 .18600002 C .164 .21900001 .18200001 .28900004 .18800001 .316 C .19200002 .32900004 .22000002 .37600003 .244 .39800004 C .252 .40500004 .281 .43100003 .324 .43100003 C .35 .43100003 .365 .41900004 .366 .41900004 C .336 .41400004 .314 .39000003 .314 .36400003 C .314 .34800003 .325 .32900004 .352 .32900004 C .379 .32900004 .407 .35200004 .407 .388 C .407 .42300005 .375 .45300005 .324 .45300005 C .259 .45300005 .21500002 .404 .19600001 .37600003 C .18800001 .42100004 .15200001 .45300005 .105000007 .45300005 C .059000009 .45300005 .040000008 .41400004 .031000002 .39600004 C .013000002 .36200003 0 .30200003 0 .29900003 C 0 .28900004 .01 .28900004 .012 .28900004 C .022000002 .28900004 .023 .29000003 .029000001 .31200005 C .046000005 .38300003 .06600001 .43100003 .10200001 .43100003 C .119 .43100003 .133 .42300005 .133 .38500003 C .133 .36400003 .13000001 .35300002 .11700001 .30100004 L .059000009 .07000001 Z "/>
</symbol>
<use xlink:href="#font_0_3" transform="matrix(27.673888,0,0,-27.673888,371.89143,436.25999)"/>
<symbol id="font_1_2">
<path d="M .63100007 .19400002 C .646 .19400002 .665 .19400002 .665 .214 C .665 .23400001 .646 .23400001 .632 .23400001 L .033 .23400001 C .019000002 .23400001 0 .23400001 0 .214 C 0 .19400002 .019000002 .19400002 .034 .19400002 L .63100007 .19400002 M .632 0 C .646 0 .665 0 .665 .02000001 C .665 .040000008 .646 .040000008 .63100007 .040000008 L .034 .040000008 C .019000002 .040000008 0 .040000008 0 .02000001 C 0 0 .019000002 0 .033 0 L .632 0 Z "/>
</symbol>
<use xlink:href="#font_1_2" transform="matrix(27.673888,0,0,-27.673888,393.58027,432.27494)"/>
<symbol id="font_0_2">
<path d="M .33300004 .38900004 C .31500004 .42600004 .286 .45300005 .24100001 .45300005 C .124 .45300005 0 .30600003 0 .16000001 C 0 .06600001 .055000005 0 .133 0 C .153 0 .20300001 .0040000008 .263 .075 C .27100004 .033000005 .30600003 0 .35400004 0 C .38900004 0 .41200004 .023000002 .42800004 .055000005 C .44500003 .091000009 .45800004 .15200001 .45800004 .15400002 C .45800004 .16400002 .44900004 .16400002 .44600005 .16400002 C .43600003 .16400002 .43500004 .16000001 .43200005 .14600002 C .41500003 .081 .397 .022000002 .35600005 .022000002 C .32900004 .022000002 .32600004 .048 .32600004 .068 C .32600004 .09 .32800005 .098000008 .33900003 .14200002 C .35000003 .18400002 .35200004 .19400002 .36100004 .23200003 L .397 .37200005 C .40400005 .40000005 .40400005 .40200005 .40400005 .40600003 C .40400005 .42300005 .39200003 .43300004 .37500004 .43300004 C .35100005 .43300004 .33600004 .411 .33300004 .38900004 M .26800005 .13000001 C .263 .112 .263 .11000001 .24800001 .093 C .20400001 .038000004 .163 .022000002 .135 .022000002 C .08499999 .022000002 .07100001 .077 .07100001 .116000007 C .07100001 .16600001 .103 .28900004 .126 .335 C .157 .39400003 .202 .43100003 .242 .43100003 C .307 .43100003 .32100005 .34900005 .32100005 .34300003 C .32100005 .337 .31900005 .33100004 .31800003 .32600004 L .26800005 .13000001 Z "/>
</symbol>
<use xlink:href="#font_0_2" transform="matrix(27.673888,0,0,-27.673888,422.34864,436.25999)"/>
<path transform="matrix(2.7777777,0,0,-2.7777777,605.55557,272.51667)" stroke-width=".3985" stroke-linecap="butt" stroke-miterlimit="10" stroke-linejoin="miter" fill="none" stroke="#000000" d="M -28.3468 0 L 141.27576 0 "/>
<path transform="matrix(2.7777777,0,0,-2.7777777,997.98818,272.51667)" stroke-width=".31879" stroke-linecap="round" stroke-linejoin="round" fill="none" stroke="#000000" d="M -1.19551 1.59401 C -1.09587 .99626 0 .09961 .29886 0 C 0 -.09961 -1.09587 -.99626 -1.19551 -1.59401 "/>
<use xlink:href="#font_0_4" transform="matrix(27.673888,0,0,-27.673888,1009.8359,278.7794)"/>
<path transform="matrix(2.7777777,0,0,-2.7777777,605.55557,272.51667)" stroke-width=".3985" stroke-linecap="butt" stroke-miterlimit="10" stroke-linejoin="miter" fill="none" stroke="#000000" d="M 0 -85.04042 L 0 84.58214 "/>
<path transform="matrix(0,-2.7777777,-2.7777777,-0,605.55557,37.566289)" stroke-width=".31879" stroke-linecap="round" stroke-linejoin="round" fill="none" stroke="#000000" d="M -1.19551 1.59401 C -1.09587 .99626 0 .09961 .29886 0 C 0 -.09961 -1.09587 -.99626 -1.19551 -1.59401 "/>
<use xlink:href="#font_0_5" transform="matrix(27.673888,0,0,-27.673888,599.0775,26.812033)"/>
<path transform="matrix(2.7777777,0,0,-2.7777777,605.55557,272.51667)" stroke-width=".79701" stroke-linecap="butt" stroke-miterlimit="10" stroke-linejoin="miter" fill="none" stroke="#000000" d="M 113.38724 0 C 113.38724 0 113.3304 2.58519 113.26611 3.57578 C 113.20184 4.56635 113.04994 6.15475 112.92398 7.13945 C 112.79802 8.12415 112.54454 9.69812 112.35822 10.67287 C 112.17188 11.6476 111.82755 13.20338 111.58095 14.16473 C 111.33435 15.1261 110.88937 16.65785 110.58092 17.60168 C 110.27245 18.5455 109.72624 20.04521 109.35771 20.96725 C 108.98917 21.88931 108.34935 23.35011 107.9247 24.2472 C 107.50005 25.14427 106.777 26.56392 106.29706 27.43285 C 105.81714 28.30177 104.99951 29.67291 104.4657 30.50992 C 103.93187 31.34692 103.03531 32.66391 102.44963 33.46544 C 101.86397 34.26698 100.88077 35.52443 100.24455 36.2869 C 99.60835 37.04938 98.54681 38.24002 97.86429 38.96085 C 97.18178 39.68166 96.0517 40.80551 95.3253 41.4821 C 94.5989 42.15869 93.39613 43.20757 92.62886 43.83728 C 91.86159 44.467 90.60068 45.44054 89.79532 46.02072 C 88.98994 46.60092 87.66571 47.49173 86.8242 48.01906 C 85.9827 48.54639 84.60327 49.3484 83.73026 49.82144 C 82.85724 50.29446 81.43271 51.01099 80.53207 51.42831 C 79.63145 51.84564 78.16397 52.4693 77.23917 52.82932 C 76.31435 53.18933 74.81212 53.72185 73.86667 54.02312 C 72.9212 54.32437 71.38817 54.76 70.42496 55.00064 C 69.46173 55.24129 67.90175 55.57895 66.92442 55.7576 C 65.9471 55.93625 64.36702 56.17122 63.38107 56.28831 C 62.39511 56.4054 60.80884 56.54622 59.81825 56.60147 C 58.82768 56.65674 57.23349 56.69398 56.2416 56.68668 C 55.2497 56.67937 53.65955 56.61903 52.66927 56.5487 C 51.679 56.47838 50.08864 56.31316 49.1043 56.17975 C 48.11995 56.04636 46.54825 55.78209 45.57478 55.58717 C 44.6013 55.39224 43.04736 55.0304 42.0881 54.77486 C 41.12885 54.51933 39.60234 54.06097 38.6611 53.74544 C 37.71985 53.42989 36.22346 52.87483 35.30417 52.50058 C 34.38487 52.12634 32.9292 51.4799 32.03548 51.04811 C 31.14175 50.61632 29.72784 49.87607 28.86282 49.38847 C 27.9978 48.90086 26.63321 48.07442 25.80089 47.53375 C 24.96855 46.99309 23.66039 46.08363 22.86395 45.49173 C 22.06752 44.89983 20.81839 43.90904 20.06065 43.26762 C 19.30293 42.6262 18.1186 41.55705 17.40271 40.86876 C 16.68683 40.18048 15.57187 39.03888 14.90092 38.30685 C 14.22998 37.57481 13.1903 36.36546 12.56696 35.59267 C 11.94359 34.81989 10.98146 33.54741 10.40814 32.73706 C 9.83484 31.9267 8.95581 30.59679 8.4349 29.7521 C 7.91399 28.90742 7.12032 27.5252 6.65372 26.64908 C 6.18712 25.77293 5.48235 24.34148 5.07191 23.43748 C 4.6615 22.53351 4.04817 21.06181 3.69559 20.13377 C 3.34302 19.20572 2.82405 17.69705 2.53078 16.74873 C 2.2375 15.8004 1.81468 14.26389 1.58177 13.2988 C 1.34886 12.33372 1.02359 10.77089 .85208 9.79308 C .68057 8.81528 .45503 7.23808 .34558 6.25145 C .23613 5.26483 .11014 3.67334 .06314 2.68216 C .01616 1.69096 -.00873 .09956 .00691 -.89232 C .02257 -1.88422 .0978 -3.477 .17603 -4.46681 C .25427 -5.4566 .43045 -7.0435 .57094 -8.02617 C .71141 -9.00882 .98636 -10.5775 1.1886 -11.54918 C 1.39085 -12.52086 1.76544 -14.07228 2.0286 -15.02939 C 2.29173 -15.98648 2.76224 -17.50864 3.08528 -18.44731 C 3.40833 -19.38597 3.9752 -20.87805 4.35693 -21.79471 C 4.73868 -22.71135 5.39789 -24.16324 5.83665 -25.0539 C 6.27542 -25.94453 7.02519 -27.35312 7.51923 -28.21402 C 8.01326 -29.0749 8.84993 -30.4307 9.39731 -31.25864 C 9.94469 -32.08658 10.86583 -33.38931 11.4644 -34.1813 C 12.06296 -34.9733 13.06413 -36.21428 13.71143 -36.96684 C 14.35873 -37.7194 15.436 -38.89471 16.12976 -39.60533 C 16.82352 -40.31595 17.97455 -41.42351 18.71158 -42.08853 C 19.4486 -42.75354 20.66441 -43.78146 21.44176 -44.39828 C 22.21912 -45.0151 23.49915 -45.96709 24.31425 -46.53415 C 25.12935 -47.10121 26.46742 -47.97078 27.31648 -48.48534 C 28.16554 -48.9999 29.55368 -49.78267 30.43379 -50.24272 C 31.31389 -50.70279 32.75244 -51.39789 33.65967 -51.80118 C 34.5669 -52.20447 36.04219 -52.8045 36.97247 -53.1494 C 37.90274 -53.49428 39.41418 -54.00154 40.36444 -54.28696 C 41.31468 -54.57237 42.8544 -54.98131 43.82127 -55.20654 C 44.78815 -55.43178 46.35364 -55.74603 47.33305 -55.91028 C 48.31247 -56.07454 49.89278 -56.28838 50.8803 -56.3904 C 51.86781 -56.49242 53.45882 -56.60664 54.45047 -56.64558 C 55.44212 -56.68454 57.03584 -56.69524 58.02756 -56.67111 C 59.01927 -56.64699 60.60925 -56.55765 61.59814 -56.47171 C 62.58705 -56.38577 64.17238 -56.19948 65.1549 -56.05173 C 66.13745 -55.90398 67.70865 -55.61636 68.67966 -55.40681 C 69.65067 -55.19725 71.19867 -54.81226 72.15337 -54.5413 C 73.10806 -54.27034 74.62541 -53.78497 75.56049 -53.45389 C 76.49556 -53.1228 77.9793 -52.54375 78.89276 -52.15498 C 79.80621 -51.76622 81.25618 -51.09721 82.14413 -50.65192 C 83.0321 -50.20662 84.4348 -49.44632 85.29257 -48.94556 C 86.15034 -48.44481 87.50308 -47.59691 88.3264 -47.04282 C 89.14973 -46.48872 90.44023 -45.55704 91.22658 -44.95192 C 92.01292 -44.3468 93.24684 -43.33502 93.99394 -42.68153 C 94.74104 -42.02805 95.90651 -40.94106 96.61124 -40.24202 C 97.31598 -39.54298 98.4125 -38.3851 99.07324 -37.64333 C 99.73398 -36.90157 100.76231 -35.67834 101.37349 -34.89584 C 101.98466 -34.11334 102.91895 -32.82332 103.47821 -32.00346 C 104.03748 -31.18362 104.89677 -29.84016 105.40431 -28.98695 C 105.91183 -28.13374 106.68327 -26.73747 107.13618 -25.85408 C 107.5891 -24.97067 108.27121 -23.52997 108.66867 -22.62 C 109.06615 -21.71 109.66296 -20.22882 110.00089 -19.2955 C 110.3388 -18.36217 110.82741 -16.84618 111.1043 -15.89316 C 111.38118 -14.94014 111.7796 -13.3953 111.99661 -12.4268 C 112.21362 -11.45831 112.51237 -9.89307 112.66835 -8.91287 C 112.82431 -7.93268 113.02585 -6.35039 113.12079 -5.36215 C 113.21573 -4.37392 113.32047 -2.78215 113.35262 -1.79025 C 113.38477 -.79836 113.38477 .7949 113.35262 1.7868 C 113.32047 2.7787 113.21573 4.3707 113.12079 5.3587 C 113.02585 6.34671 112.82431 7.92747 112.66835 8.90767 C 112.51237 9.88786 112.21313 11.45454 111.99661 12.42334 C 111.78009 13.39214 111.38513 14.93712 111.10776 15.89014 C 110.83038 16.84314 110.33583 18.35854 109.99742 19.29205 C 109.65901 20.22556 109.06566 21.70804 108.66867 22.61826 C 108.27168 23.52847 107.5891 24.9692 107.13618 25.85236 C 106.68327 26.73552 105.91183 28.13028 105.40431 28.98349 C 104.89677 29.8367 104.03748 31.1819 103.47821 32.00174 C 102.91895 32.82158 101.98418 34.11 101.37349 34.8924 C 100.76279 35.67479 99.73697 36.89886 99.07669 37.64075 C 98.41643 38.38263 97.31992 39.54028 96.61469 40.23943 C 95.90947 40.93858 94.7411 42.02626 93.99394 42.67981 C 93.24678 43.33336 92.01553 44.34471 91.2296 44.94977 C 90.44368 45.55482 89.15318 46.48668 88.32944 47.04066 C 87.50568 47.59464 86.1504 48.44177 85.29257 48.94252 C 84.43474 49.44327 83.03427 50.20427 82.14674 50.64975 C 81.2592 51.09523 79.80882 51.76431 78.89578 52.15326 C 77.98274 52.54219 76.50082 53.12164 75.5661 53.45303 C 74.6314 53.78442 73.1141 54.27083 72.159 54.54173 C 71.20389 54.81262 69.65327 55.19606 68.68225 55.4055 C 67.71124 55.61494 66.14272 55.90317 65.16054 56.05128 C 64.17834 56.1994 62.59238 56.3869 61.60335 56.47302 C 60.61432 56.55913 59.0241 56.64804 58.03232 56.67198 C 57.04054 56.69592 55.44688 56.68448 54.45523 56.64558 C 53.46358 56.6067 51.87257 56.49365 50.88506 56.3917 C 49.89754 56.28972 48.31729 56.07489 47.33781 55.9107 C 46.35834 55.74654 44.79253 55.43332 43.82559 55.20827 C 42.85866 54.98322 41.3193 54.5743 40.36876 54.2887 C 39.41821 54.0031 37.90526 53.49489 36.97462 53.14981 C 36.04399 52.80475 34.56842 52.20483 33.66138 51.8016 C 32.75435 51.39836 31.3174 50.70372 30.43726 50.24359 C 29.55711 49.78348 28.1669 48.99965 27.31778 48.48534 C 26.46866 47.97102 25.13213 47.1035 24.31728 46.53674 C 23.50241 45.96999 22.22232 45.01749 21.44478 44.40044 C 20.66725 43.78339 19.45021 42.7541 18.7133 42.08939 C 17.97641 41.42468 16.82729 40.31996 16.13365 39.60965 C 15.44002 38.89934 14.36157 37.72261 13.71404 36.96986 C 13.06648 36.21712 12.06526 34.97632 11.46657 34.18433 C 10.86789 33.39233 9.9466 32.08986 9.39905 31.26167 C 8.85149 30.43349 8.01419 29.07619 7.5201 28.2153 C 7.026 27.35442 6.27664 25.94728 5.83795 25.05692 C 5.39925 24.16655 4.73991 22.71457 4.35823 21.79817 C 3.97656 20.88176 3.41005 19.39056 3.087 18.45206 C 2.76398 17.51357 2.29315 15.99141 2.02988 15.03413 C 1.76662 14.07687 1.39183 12.5245 1.18947 11.55264 C .98712 10.58078 .71191 9.01227 .57138 8.02962 C .43083 7.04697 .25476 5.46007 .17645 4.47028 C .09814 3.48047 .02263 1.88766 .00691 .89577 C -.00879 -.09612 .01622 -1.68774 .06314 -2.67868 C .11008 -3.66963 .23576 -5.2594 .34515 -6.24628 C .45454 -7.23314 .6802 -8.81331 .85165 -9.79134 C 1.0231 -10.76938 1.34811 -12.3305 1.5809 -13.29533 C 1.81369 -14.26018 2.23631 -15.79718 2.52946 -16.74525 C 2.82262 -17.69334 3.34128 -19.20045 3.69386 -20.12857 C 4.04643 -21.05667 4.6602 -22.5302 5.07063 -23.43446 C 5.48105 -24.33875 6.18533 -25.76967 6.65198 -26.64606 C 7.11864 -27.52243 7.9132 -28.90619 8.43405 -29.75081 C 8.9549 -30.59543 9.83292 -31.92342 10.40599 -32.7336 C 10.97906 -33.54376 11.941 -34.81728 12.56435 -35.59007 C 13.18771 -36.36287 14.22781 -37.57129 14.89876 -38.30339 C 15.56969 -39.03548 16.68451 -40.17848 17.40012 -40.86661 C 18.11572 -41.55472 19.29892 -42.62173 20.05634 -43.26286 C 20.81377 -43.90399 22.06288 -44.89532 22.85919 -45.48741 C 23.6555 -46.0795 24.96318 -46.9892 25.79568 -47.53029 C 26.62819 -48.07137 27.99408 -48.89944 28.85936 -49.38718 C 29.72462 -49.87491 31.13806 -50.61362 32.03201 -51.04553 C 32.92598 -51.47745 34.38329 -52.12578 35.30244 -52.50015 C 36.22159 -52.87451 37.71559 -53.42796 38.65677 -53.7437 C 39.59795 -54.05943 41.12703 -54.5202 42.08592 -54.77573 C 43.04482 -55.03127 44.59439 -55.39072 45.56786 -55.58545 C 46.54134 -55.78018 48.1175 -56.04585 49.10213 -56.17932 C 50.08676 -56.31277 51.67459 -56.47702 52.6645 -56.5474 C 53.65443 -56.61778 55.24493 -56.67937 56.23683 -56.68668 C 57.22874 -56.69398 58.82262 -56.65521 59.81349 -56.60017 C 60.80438 -56.54515 62.3926 -56.40707 63.37848 -56.29004 C 64.36438 -56.17302 65.94193 -55.93538 66.91924 -55.75673 C 67.89656 -55.57808 69.45879 -55.24266 70.42236 -55.00238 C 71.38594 -54.7621 72.91867 -54.3261 73.86406 -54.02484 C 74.80946 -53.72359 76.31139 -53.191 77.23613 -52.83105 C 78.16089 -52.4711 79.62842 -51.84775 80.52904 -51.4305 C 81.42966 -51.01323 82.85422 -50.29688 83.72723 -49.82361 C 84.60025 -49.35034 85.98009 -48.54695 86.82117 -48.01949 C 87.66225 -47.49202 88.98392 -46.60199 89.78925 -46.02202 C 90.59457 -45.44205 91.85818 -44.46909 92.6254 -43.83945 C 93.39262 -43.2098 94.59242 -42.16061 95.31882 -41.48384 C 96.04521 -40.80705 97.17741 -39.68228 97.86084 -38.9617 C 98.54428 -38.24113 99.60788 -37.05246 100.24455 -36.29036 C 100.88123 -35.52824 101.86446 -34.27075 102.44963 -33.46892 C 103.03482 -32.66707 103.92891 -31.3481 104.46223 -30.51122 C 104.99557 -29.67433 105.81322 -28.30556 106.29361 -27.43716 C 106.774 -26.56876 107.49959 -25.14966 107.9247 -24.2524 C 108.34982 -23.35513 108.98965 -21.89258 109.35771 -20.97029 C 109.72575 -20.048 110.26898 -18.54874 110.57745 -17.60515 C 110.88591 -16.66156 111.3334 -15.13086 111.58095 -14.1695 C 111.82849 -13.20815 112.17581 -11.65155 112.36168 -10.67633 C 112.54753 -9.70111 112.79504 -8.12544 112.92052 -7.14076 C 113.04599 -6.15607 113.20184 -4.56958 113.26611 -3.57924 C 113.3304 -2.58888 113.38376 -.00302 113.38376 -.00302 "/>
<use xlink:href="#font_0_3" transform="matrix(27.673888,0,0,-27.673888,851.99148,439.90995)"/>
<symbol id="font_1_1">
<path d="M .07700001 .07700001 L .18300002 .18 C .33900003 .31800003 .39900003 .372 .39900003 .47200004 C .39900003 .586 .30900003 .666 .18700002 .666 C .074 .666 0 .574 0 .485 C 0 .42900003 .05 .42900003 .053000008 .42900003 C .07000001 .42900003 .105000007 .441 .105000007 .48200003 C .105000007 .508 .08700001 .53400006 .052000006 .53400006 C .044000005 .53400006 .042000008 .53400006 .039 .53300008 C .062000004 .59800007 .11600001 .63500007 .17400001 .63500007 C .26500003 .63500007 .308 .554 .308 .47200004 C .308 .39200003 .25800003 .31300003 .20300003 .25100003 L .011000004 .037 C 0 .026 0 .024 0 0 L .37100003 0 L .39900003 .17400001 L .374 .17400001 C .36900003 .14400001 .36200003 .1 .352 .085 C .345 .07700001 .279 .07700001 .257 .07700001 L .07700001 .07700001 Z "/>
</symbol>
<use xlink:href="#font_1_2" transform="matrix(27.673888,0,0,-27.673888,873.6775,435.9249)"/>
<use xlink:href="#font_1_1" transform="matrix(27.673888,0,0,-27.673888,902.73507,439.60554)"/>
<use xlink:href="#font_0_2" transform="matrix(27.673888,0,0,-27.673888,916.28469,439.90995)"/>
<symbol id="font_1_3">
<path d="M .083000008 .22900002 C .083000008 .39200003 .16500002 .43400003 .218 .43400003 C .227 .43400003 .29 .43300004 .32500003 .397 C .284 .39400003 .278 .36400003 .278 .351 C .278 .32500003 .296 .305 .324 .305 C .35 .305 .37 .32200004 .37 .35200004 C .37 .42000003 .294 .45900003 .21700001 .45900003 C .092 .45900003 0 .351 0 .22700002 C 0 .09900001 .099 0 .215 0 C .349 0 .381 .120000008 .381 .13000001 C .381 .14000002 .37100003 .14000002 .368 .14000002 C .359 .14000002 .35700003 .136 .35500003 .13000001 C .326 .037 .261 .025000003 .224 .025000003 C .171 .025000003 .083000008 .068 .083000008 .22900002 Z "/>
</symbol>
<symbol id="font_1_6">
<path d="M .44300003 .22500003 C .44300003 .35300002 .34300003 .45900003 .222 .45900003 C .097 .45900003 0 .35000003 0 .22500003 C 0 .096 .104 0 .22100002 0 C .342 0 .44300003 .098000008 .44300003 .22500003 M .222 .025000003 C .17900002 .025000003 .135 .046 .10800001 .092 C .083000008 .136 .083000008 .19700001 .083000008 .23300003 C .083000008 .272 .083000008 .32600004 .10700001 .37000004 C .134 .41600005 .18100001 .43700005 .22100002 .43700005 C .26500003 .43700005 .30800004 .41500003 .33400003 .37200005 C .36 .32900004 .36 .27100004 .36 .23300003 C .36 .19700001 .36 .143 .33800004 .09900001 C .316 .054 .272 .025000003 .222 .025000003 Z "/>
</symbol>
<symbol id="font_1_7">
<path d="M .17500001 .20500002 C .197 .20100002 .279 .18500002 .279 .113000009 C .279 .062000004 .24400002 .022000002 .16600001 .022000002 C .082 .022000002 .046000005 .079 .027000003 .16400002 C .024000004 .17700002 .023000002 .18100001 .013000004 .18100001 C 0 .18100001 0 .17400001 0 .15600002 L 0 .024 C 0 .0070000009 0 0 .011000004 0 C .016000003 0 .017 .0010000002 .036000007 .020000002 C .038000004 .022000002 .038000004 .024 .056 .043 C .1 .0010000002 .14500001 0 .16600001 0 C .28100003 0 .32700003 .067 .32700003 .13900002 C .32700003 .19200002 .29700003 .22200002 .28500004 .23400001 C .25200004 .26600004 .213 .27400003 .171 .28200004 C .115 .293 .048 .30600003 .048 .36400003 C .048 .39900003 .07400001 .44000004 .16 .44000004 C .27 .44000004 .27500005 .35000003 .277 .31900005 C .27800004 .31000004 .28700004 .31000004 .28900004 .31000004 C .30200003 .31000004 .30200003 .31500004 .30200003 .33400003 L .30200003 .43500004 C .30200003 .45200003 .30200003 .45900003 .291 .45900003 C .286 .45900003 .284 .45900003 .27100004 .44700004 C .26800005 .44300003 .25800003 .43400003 .254 .43100003 C .21600002 .45900003 .17500001 .45900003 .16 .45900003 C .038000004 .45900003 0 .39200003 0 .33600004 C 0 .30100004 .016000003 .27300004 .043000007 .25100003 C .075 .22500003 .10300001 .21900001 .17500001 .20500002 Z "/>
</symbol>
<use xlink:href="#font_1_3" transform="matrix(27.673888,0,0,-27.673888,935.3575,439.90995)"/>
<use xlink:href="#font_1_6" transform="matrix(27.673888,0,0,-27.673888,947.47866,439.90995)"/>
<use xlink:href="#font_1_7" transform="matrix(27.673888,0,0,-27.673888,961.4539,439.90995)"/>
<symbol id="font_0_1">
<path d="M .41300003 .511 C .41300003 .577 .395 .716 .293 .716 C .15400002 .716 0 .43400003 0 .20500002 C 0 .111 .029 0 .12 0 C .261 0 .41300003 .28700004 .41300003 .511 M .106 .374 C .123 .43800003 .143 .518 .183 .589 C .21000001 .638 .24700001 .694 .29200004 .694 C .34100003 .694 .34700004 .63 .34700004 .573 C .34700004 .524 .33900003 .47300003 .31500004 .374 L .106 .374 M .30600003 .34200005 C .29500003 .29600004 .27400003 .21100001 .23600003 .13900002 C .201 .071 .16300002 .022000002 .12 .022000002 C .087000008 .022000002 .066 .051000004 .066 .14400001 C .066 .18600002 .072000008 .24400002 .098 .34200005 L .30600003 .34200005 Z "/>
</symbol>
<use xlink:href="#font_0_1" transform="matrix(27.673888,0,0,-27.673888,977.24557,439.90995)"/>
<path transform="matrix(2.7777777,0,0,-2.7777777,1447.5693,272.51667)" stroke-width=".3985" stroke-linecap="butt" stroke-miterlimit="10" stroke-linejoin="miter" fill="none" stroke="#000000" d="M -141.73404 0 L 27.88852 0 "/>
<path transform="matrix(2.7777777,0,0,-2.7777777,1525.0376,272.51667)" stroke-width=".31879" stroke-linecap="round" stroke-linejoin="round" fill="none" stroke="#000000" d="M -1.19551 1.59401 C -1.09587 .99626 0 .09961 .29886 0 C 0 -.09961 -1.09587 -.99626 -1.19551 -1.59401 "/>
<use xlink:href="#font_0_4" transform="matrix(27.673888,0,0,-27.673888,1536.8914,278.7794)"/>
<path transform="matrix(2.7777777,0,0,-2.7777777,1447.5693,272.51667)" stroke-width=".3985" stroke-linecap="butt" stroke-miterlimit="10" stroke-linejoin="miter" fill="none" stroke="#000000" d="M 0 -85.04042 L 0 84.58214 "/>
<path transform="matrix(0,-2.7777777,-2.7777777,-0,1447.5693,37.566289)" stroke-width=".31879" stroke-linecap="round" stroke-linejoin="round" fill="none" stroke="#000000" d="M -1.19551 1.59401 C -1.09587 .99626 0 .09961 .29886 0 C 0 -.09961 -1.09587 -.99626 -1.19551 -1.59401 "/>
<use xlink:href="#font_0_5" transform="matrix(27.673888,0,0,-27.673888,1441.0914,26.812033)"/>
<path transform="matrix(2.7777777,0,0,-2.7777777,1447.5693,272.51667)" stroke-width=".79701" stroke-linecap="butt" stroke-miterlimit="10" stroke-linejoin="miter" fill="none" stroke="#000000" d="M -113.38724 0 C -113.38724 0 -113.3304 -2.58519 -113.26611 -3.57578 C -113.20184 -4.56635 -113.04994 -6.15475 -112.92398 -7.13945 C -112.79802 -8.12415 -112.54454 -9.69812 -112.35822 -10.67287 C -112.17188 -11.6476 -111.82755 -13.20338 -111.58095 -14.16473 C -111.33435 -15.1261 -110.88937 -16.65785 -110.58092 -17.60168 C -110.27245 -18.5455 -109.72624 -20.04521 -109.35771 -20.96725 C -108.98917 -21.88931 -108.34935 -23.35011 -107.9247 -24.2472 C -107.50005 -25.14427 -106.777 -26.56392 -106.29706 -27.43285 C -105.81714 -28.30177 -104.99951 -29.67291 -104.4657 -30.50992 C -103.93187 -31.34692 -103.03531 -32.66391 -102.44963 -33.46544 C -101.86397 -34.26698 -100.88077 -35.52443 -100.24455 -36.2869 C -99.60835 -37.04938 -98.54681 -38.24002 -97.86429 -38.96085 C -97.18178 -39.68166 -96.0517 -40.80551 -95.3253 -41.4821 C -94.5989 -42.15869 -93.39613 -43.20757 -92.62886 -43.83728 C -91.86159 -44.467 -90.60068 -45.44054 -89.79532 -46.02072 C -88.98994 -46.60092 -87.66571 -47.49173 -86.8242 -48.01906 C -85.9827 -48.54639 -84.60327 -49.3484 -83.73026 -49.82144 C -82.85724 -50.29446 -81.43271 -51.01099 -80.53207 -51.42831 C -79.63145 -51.84564 -78.16397 -52.4693 -77.23917 -52.82932 C -76.31435 -53.18933 -74.81212 -53.72185 -73.86667 -54.02312 C -72.9212 -54.32437 -71.38817 -54.76 -70.42496 -55.00064 C -69.46173 -55.24129 -67.90175 -55.57895 -66.92442 -55.7576 C -65.9471 -55.93625 -64.36702 -56.17122 -63.38107 -56.28831 C -62.39511 -56.4054 -60.80884 -56.54622 -59.81825 -56.60147 C -58.82768 -56.65674 -57.23349 -56.69398 -56.2416 -56.68668 C -55.2497 -56.67937 -53.65955 -56.61903 -52.66927 -56.5487 C -51.679 -56.47838 -50.08864 -56.31316 -49.1043 -56.17975 C -48.11995 -56.04636 -46.54825 -55.78209 -45.57478 -55.58717 C -44.6013 -55.39224 -43.04736 -55.0304 -42.0881 -54.77486 C -41.12885 -54.51933 -39.60234 -54.06097 -38.6611 -53.74544 C -37.71985 -53.42989 -36.22346 -52.87483 -35.30417 -52.50058 C -34.38487 -52.12634 -32.9292 -51.4799 -32.03548 -51.04811 C -31.14175 -50.61632 -29.72784 -49.87607 -28.86282 -49.38847 C -27.9978 -48.90086 -26.63321 -48.07442 -25.80089 -47.53375 C -24.96855 -46.99309 -23.66039 -46.08363 -22.86395 -45.49173 C -22.06752 -44.89983 -20.81839 -43.90904 -20.06065 -43.26762 C -19.30293 -42.6262 -18.1186 -41.55705 -17.40271 -40.86876 C -16.68683 -40.18048 -15.57187 -39.03888 -14.90092 -38.30685 C -14.22998 -37.57481 -13.1903 -36.36546 -12.56696 -35.59267 C -11.94359 -34.81989 -10.98146 -33.54741 -10.40814 -32.73706 C -9.83484 -31.9267 -8.95581 -30.59679 -8.4349 -29.7521 C -7.91399 -28.90742 -7.12032 -27.5252 -6.65372 -26.64908 C -6.18712 -25.77293 -5.48235 -24.34148 -5.07191 -23.43748 C -4.6615 -22.53351 -4.04817 -21.06181 -3.69559 -20.13377 C -3.34302 -19.20572 -2.82405 -17.69705 -2.53078 -16.74873 C -2.2375 -15.8004 -1.81468 -14.26389 -1.58177 -13.2988 C -1.34886 -12.33372 -1.02359 -10.77089 -.85208 -9.79308 C -.68057 -8.81528 -.45503 -7.23808 -.34558 -6.25145 C -.23613 -5.26483 -.11014 -3.67334 -.06314 -2.68216 C -.01616 -1.69096 .00873 -.09956 -.00691 .89232 C -.02257 1.88422 -.0978 3.477 -.17603 4.46681 C -.25427 5.4566 -.43045 7.0435 -.57094 8.02617 C -.71141 9.00882 -.98636 10.5775 -1.1886 11.54918 C -1.39085 12.52086 -1.76544 14.07228 -2.0286 15.02939 C -2.29173 15.98648 -2.76224 17.50864 -3.08528 18.44731 C -3.40833 19.38597 -3.9752 20.87805 -4.35693 21.79471 C -4.73868 22.71135 -5.39789 24.16324 -5.83665 25.0539 C -6.27542 25.94453 -7.02519 27.35312 -7.51923 28.21402 C -8.01326 29.0749 -8.84993 30.4307 -9.39731 31.25864 C -9.94469 32.08658 -10.86583 33.38931 -11.4644 34.1813 C -12.06296 34.9733 -13.06413 36.21428 -13.71143 36.96684 C -14.35873 37.7194 -15.436 38.89471 -16.12976 39.60533 C -16.82352 40.31595 -17.97455 41.42351 -18.71158 42.08853 C -19.4486 42.75354 -20.66441 43.78146 -21.44176 44.39828 C -22.21912 45.0151 -23.49915 45.96709 -24.31425 46.53415 C -25.12935 47.10121 -26.46742 47.97078 -27.31648 48.48534 C -28.16554 48.9999 -29.55368 49.78267 -30.43379 50.24272 C -31.31389 50.70279 -32.75244 51.39789 -33.65967 51.80118 C -34.5669 52.20447 -36.04219 52.8045 -36.97247 53.1494 C -37.90274 53.49428 -39.41418 54.00154 -40.36444 54.28696 C -41.31468 54.57237 -42.8544 54.98131 -43.82127 55.20654 C -44.78815 55.43178 -46.35364 55.74603 -47.33305 55.91028 C -48.31247 56.07454 -49.89278 56.28838 -50.8803 56.3904 C -51.86781 56.49242 -53.45882 56.60664 -54.45047 56.64558 C -55.44212 56.68454 -57.03584 56.69524 -58.02756 56.67111 C -59.01927 56.64699 -60.60925 56.55765 -61.59814 56.47171 C -62.58705 56.38577 -64.17238 56.19948 -65.1549 56.05173 C -66.13745 55.90398 -67.70865 55.61636 -68.67966 55.40681 C -69.65067 55.19725 -71.19867 54.81226 -72.15337 54.5413 C -73.10806 54.27034 -74.62541 53.78497 -75.56049 53.45389 C -76.49556 53.1228 -77.9793 52.54375 -78.89276 52.15498 C -79.80621 51.76622 -81.25618 51.09721 -82.14413 50.65192 C -83.0321 50.20662 -84.4348 49.44632 -85.29257 48.94556 C -86.15034 48.44481 -87.50308 47.59691 -88.3264 47.04282 C -89.14973 46.48872 -90.44023 45.55704 -91.22658 44.95192 C -92.01292 44.3468 -93.24684 43.33502 -93.99394 42.68153 C -94.74104 42.02805 -95.90651 40.94106 -96.61124 40.24202 C -97.31598 39.54298 -98.4125 38.3851 -99.07324 37.64333 C -99.73398 36.90157 -100.76231 35.67834 -101.37349 34.89584 C -101.98466 34.11334 -102.91895 32.82332 -103.47821 32.00346 C -104.03748 31.18362 -104.89677 29.84016 -105.40431 28.98695 C -105.91183 28.13374 -106.68327 26.73747 -107.13618 25.85408 C -107.5891 24.97067 -108.27121 23.52997 -108.66867 22.62 C -109.06615 21.71 -109.66296 20.22882 -110.00089 19.2955 C -110.3388 18.36217 -110.82741 16.84618 -111.1043 15.89316 C -111.38118 14.94014 -111.7796 13.3953 -111.99661 12.4268 C -112.21362 11.45831 -112.51237 9.89307 -112.66835 8.91287 C -112.82431 7.93268 -113.02585 6.35039 -113.12079 5.36215 C -113.21573 4.37392 -113.32047 2.78215 -113.35262 1.79025 C -113.38477 .79836 -113.38477 -.7949 -113.35262 -1.7868 C -113.32047 -2.7787 -113.21573 -4.3707 -113.12079 -5.3587 C -113.02585 -6.34671 -112.82431 -7.92747 -112.66835 -8.90767 C -112.51237 -9.88786 -112.21313 -11.45454 -111.99661 -12.42334 C -111.78009 -13.39214 -111.38513 -14.93712 -111.10776 -15.89014 C -110.83038 -16.84314 -110.33583 -18.35854 -109.99742 -19.29205 C -109.65901 -20.22556 -109.06566 -21.70804 -108.66867 -22.61826 C -108.27168 -23.52847 -107.5891 -24.9692 -107.13618 -25.85236 C -106.68327 -26.73552 -105.91183 -28.13028 -105.40431 -28.98349 C -104.89677 -29.8367 -104.03748 -31.1819 -103.47821 -32.00174 C -102.91895 -32.82158 -101.98418 -34.11 -101.37349 -34.8924 C -100.76279 -35.67479 -99.73697 -36.89886 -99.07669 -37.64075 C -98.41643 -38.38263 -97.31992 -39.54028 -96.61469 -40.23943 C -95.90947 -40.93858 -94.7411 -42.02626 -93.99394 -42.67981 C -93.24678 -43.33336 -92.01553 -44.34471 -91.2296 -44.94977 C -90.44368 -45.55482 -89.15318 -46.48668 -88.32944 -47.04066 C -87.50568 -47.59464 -86.1504 -48.44177 -85.29257 -48.94252 C -84.43474 -49.44327 -83.03427 -50.20427 -82.14674 -50.64975 C -81.2592 -51.09523 -79.80882 -51.76431 -78.89578 -52.15326 C -77.98274 -52.54219 -76.50082 -53.12164 -75.5661 -53.45303 C -74.6314 -53.78442 -73.1141 -54.27083 -72.159 -54.54173 C -71.20389 -54.81262 -69.65327 -55.19606 -68.68225 -55.4055 C -67.71124 -55.61494 -66.14272 -55.90317 -65.16054 -56.05128 C -64.17834 -56.1994 -62.59238 -56.3869 -61.60335 -56.47302 C -60.61432 -56.55913 -59.0241 -56.64804 -58.03232 -56.67198 C -57.04054 -56.69592 -55.44688 -56.68448 -54.45523 -56.64558 C -53.46358 -56.6067 -51.87257 -56.49365 -50.88506 -56.3917 C -49.89754 -56.28972 -48.31729 -56.07489 -47.33781 -55.9107 C -46.35834 -55.74654 -44.79253 -55.43332 -43.82559 -55.20827 C -42.85866 -54.98322 -41.3193 -54.5743 -40.36876 -54.2887 C -39.41821 -54.0031 -37.90526 -53.49489 -36.97462 -53.14981 C -36.04399 -52.80475 -34.56842 -52.20483 -33.66138 -51.8016 C -32.75435 -51.39836 -31.3174 -50.70372 -30.43726 -50.24359 C -29.55711 -49.78348 -28.1669 -48.99965 -27.31778 -48.48534 C -26.46866 -47.97102 -25.13213 -47.1035 -24.31728 -46.53674 C -23.50241 -45.96999 -22.22232 -45.01749 -21.44478 -44.40044 C -20.66725 -43.78339 -19.45021 -42.7541 -18.7133 -42.08939 C -17.97641 -41.42468 -16.82729 -40.31996 -16.13365 -39.60965 C -15.44002 -38.89934 -14.36157 -37.72261 -13.71404 -36.96986 C -13.06648 -36.21712 -12.06526 -34.97632 -11.46657 -34.18433 C -10.86789 -33.39233 -9.9466 -32.08986 -9.39905 -31.26167 C -8.85149 -30.43349 -8.01419 -29.07619 -7.5201 -28.2153 C -7.026 -27.35442 -6.27664 -25.94728 -5.83795 -25.05692 C -5.39925 -24.16655 -4.73991 -22.71457 -4.35823 -21.79817 C -3.97656 -20.88176 -3.41005 -19.39056 -3.087 -18.45206 C -2.76398 -17.51357 -2.29315 -15.99141 -2.02988 -15.03413 C -1.76662 -14.07687 -1.39183 -12.5245 -1.18947 -11.55264 C -.98712 -10.58078 -.71191 -9.01227 -.57138 -8.02962 C -.43083 -7.04697 -.25476 -5.46007 -.17645 -4.47028 C -.09814 -3.48047 -.02263 -1.88766 -.00691 -.89577 C .00879 .09612 -.01622 1.68774 -.06314 2.67868 C -.11008 3.66963 -.23576 5.2594 -.34515 6.24628 C -.45454 7.23314 -.6802 8.81331 -.85165 9.79134 C -1.0231 10.76938 -1.34811 12.3305 -1.5809 13.29533 C -1.81369 14.26018 -2.23631 15.79718 -2.52946 16.74525 C -2.82262 17.69334 -3.34128 19.20045 -3.69386 20.12857 C -4.04643 21.05667 -4.6602 22.5302 -5.07063 23.43446 C -5.48105 24.33875 -6.18533 25.76967 -6.65198 26.64606 C -7.11864 27.52243 -7.9132 28.90619 -8.43405 29.75081 C -8.9549 30.59543 -9.83292 31.92342 -10.40599 32.7336 C -10.97906 33.54376 -11.941 34.81728 -12.56435 35.59007 C -13.18771 36.36287 -14.22781 37.57129 -14.89876 38.30339 C -15.56969 39.03548 -16.68451 40.17848 -17.40012 40.86661 C -18.11572 41.55472 -19.29892 42.62173 -20.05634 43.26286 C -20.81377 43.90399 -22.06288 44.89532 -22.85919 45.48741 C -23.6555 46.0795 -24.96318 46.9892 -25.79568 47.53029 C -26.62819 48.07137 -27.99408 48.89944 -28.85936 49.38718 C -29.72462 49.87491 -31.13806 50.61362 -32.03201 51.04553 C -32.92598 51.47745 -34.38329 52.12578 -35.30244 52.50015 C -36.22159 52.87451 -37.71559 53.42796 -38.65677 53.7437 C -39.59795 54.05943 -41.12703 54.5202 -42.08592 54.77573 C -43.04482 55.03127 -44.59439 55.39072 -45.56786 55.58545 C -46.54134 55.78018 -48.1175 56.04585 -49.10213 56.17932 C -50.08676 56.31277 -51.67459 56.47702 -52.6645 56.5474 C -53.65443 56.61778 -55.24493 56.67937 -56.23683 56.68668 C -57.22874 56.69398 -58.82262 56.65521 -59.81349 56.60017 C -60.80438 56.54515 -62.3926 56.40707 -63.37848 56.29004 C -64.36438 56.17302 -65.94193 55.93538 -66.91924 55.75673 C -67.89656 55.57808 -69.45879 55.24266 -70.42236 55.00238 C -71.38594 54.7621 -72.91867 54.3261 -73.86406 54.02484 C -74.80946 53.72359 -76.31139 53.191 -77.23613 52.83105 C -78.16089 52.4711 -79.62842 51.84775 -80.52904 51.4305 C -81.42966 51.01323 -82.85422 50.29688 -83.72723 49.82361 C -84.60025 49.35034 -85.98009 48.54695 -86.82117 48.01949 C -87.66225 47.49202 -88.98392 46.60199 -89.78925 46.02202 C -90.59457 45.44205 -91.85818 44.46909 -92.6254 43.83945 C -93.39262 43.2098 -94.59242 42.16061 -95.31882 41.48384 C -96.04521 40.80705 -97.17741 39.68228 -97.86084 38.9617 C -98.54428 38.24113 -99.60788 37.05246 -100.24455 36.29036 C -100.88123 35.52824 -101.86446 34.27075 -102.44963 33.46892 C -103.03482 32.66707 -103.92891 31.3481 -104.46223 30.51122 C -104.99557 29.67433 -105.81322 28.30556 -106.29361 27.43716 C -106.774 26.56876 -107.49959 25.14966 -107.9247 24.2524 C -108.34982 23.35513 -108.98965 21.89258 -109.35771 20.97029 C -109.72575 20.048 -110.26898 18.54874 -110.57745 17.60515 C -110.88591 16.66156 -111.3334 15.13086 -111.58095 14.1695 C -111.82849 13.20815 -112.17581 11.65155 -112.36168 10.67633 C -112.54753 9.70111 -112.79504 8.12544 -112.92052 7.14076 C -113.04599 6.15607 -113.20184 4.56958 -113.26611 3.57924 C -113.3304 2.58888 -113.38376 .00302 -113.38376 .00302 "/>
<use xlink:href="#font_0_3" transform="matrix(27.673888,0,0,-27.673888,1053.3218,123.79889)"/>
<use xlink:href="#font_1_2" transform="matrix(27.673888,0,0,-27.673888,1075.0106,119.81385)"/>
<symbol id="font_2_1">
<path d="M .57600006 0 C .59300008 0 .611 0 .611 .019999996 C .611 .040000008 .59300008 .040000008 .57600006 .040000008 L .035000005 .040000008 C .018 .040000008 0 .040000008 0 .019999996 C 0 0 .018 0 .035000005 0 L .57600006 0 Z "/>
</symbol>
<use xlink:href="#font_2_1" transform="matrix(27.673888,0,0,-27.673888,1104.969,117.129489)"/>
<use xlink:href="#font_1_1" transform="matrix(27.673888,0,0,-27.673888,1125.5807,123.49448)"/>
<use xlink:href="#font_0_2" transform="matrix(27.673888,0,0,-27.673888,1139.14,123.79889)"/>
<use xlink:href="#font_1_3" transform="matrix(27.673888,0,0,-27.673888,1158.2157,123.79889)"/>
<use xlink:href="#font_1_6" transform="matrix(27.673888,0,0,-27.673888,1170.3369,123.79889)"/>
<use xlink:href="#font_1_7" transform="matrix(27.673888,0,0,-27.673888,1184.3121,123.79889)"/>
<use xlink:href="#font_0_1" transform="matrix(27.673888,0,0,-27.673888,1200.1011,123.79889)"/>
<path transform="matrix(2.7777777,0,0,-2.7777777,1807.1277,429.99723)" stroke-width=".3985" stroke-linecap="butt" stroke-miterlimit="10" stroke-linejoin="miter" fill="none" stroke="#000000" d="M -85.04042 0 L 84.58214 0 "/>
<path transform="matrix(2.7777777,0,0,-2.7777777,2042.0781,429.99723)" stroke-width=".31879" stroke-linecap="round" stroke-linejoin="round" fill="none" stroke="#000000" d="M -1.19551 1.59401 C -1.09587 .99626 0 .09961 .29886 0 C 0 -.09961 -1.09587 -.99626 -1.19551 -1.59401 "/>
<use xlink:href="#font_0_4" transform="matrix(27.673888,0,0,-27.673888,2053.9276,436.25999)"/>
<path transform="matrix(2.7777777,0,0,-2.7777777,1807.1277,429.99723)" stroke-width=".3985" stroke-linecap="butt" stroke-miterlimit="10" stroke-linejoin="miter" fill="none" stroke="#000000" d="M 0 -28.3468 L 0 141.27576 "/>
<path transform="matrix(0,-2.7777777,-2.7777777,-0,1807.1277,37.564596)" stroke-width=".31879" stroke-linecap="round" stroke-linejoin="round" fill="none" stroke="#000000" d="M -1.19551 1.59401 C -1.09587 .99626 0 .09961 .29886 0 C 0 -.09961 -1.09587 -.99626 -1.19551 -1.59401 "/>
<use xlink:href="#font_0_5" transform="matrix(27.673888,0,0,-27.673888,1800.6497,26.812064)"/>
<path transform="matrix(2.7777777,0,0,-2.7777777,1807.1277,429.99723)" stroke-width=".79701" stroke-linecap="butt" stroke-miterlimit="10" stroke-linejoin="miter" fill="none" stroke="#000000" d="M 0 0 C 0 0 2.58519 .0503 3.57578 .11288 C 4.56635 .17548 6.15475 .32619 7.13945 .45113 C 8.12415 .57607 9.69812 .82654 10.67287 1.01341 C 11.6476 1.2003 13.20338 1.54996 14.16473 1.79805 C 15.1261 2.04614 16.65785 2.49326 17.60168 2.80153 C 18.5455 3.10982 20.04521 3.6529 20.96725 4.01999 C 21.88931 4.38708 23.35011 5.02283 24.2472 5.44736 C 25.14427 5.87189 26.56392 6.59924 27.43285 7.07977 C 28.30177 7.56029 29.67291 8.37628 30.50992 8.91069 C 31.34692 9.4451 32.66391 10.34538 33.46544 10.93152 C 34.26698 11.51767 35.52443 12.5 36.2869 13.1353 C 37.04938 13.77058 38.24002 14.82825 38.96085 15.51036 C 39.68166 16.19247 40.80551 17.32506 41.4821 18.05151 C 42.15869 18.77798 43.20757 19.97838 43.83728 20.74623 C 44.467 21.5141 45.44054 22.77957 46.02072 23.58585 C 46.60092 24.39214 47.49173 25.71672 48.01906 26.55739 C 48.54639 27.39806 49.3484 28.7728 49.82144 29.64484 C 50.29446 30.51689 51.01099 31.94226 51.42831 32.84259 C 51.84564 33.7429 52.4693 35.20866 52.82932 36.13377 C 53.18933 37.05887 53.72185 38.56381 54.02312 39.51016 C 54.32437 40.45651 54.76 41.99101 55.00064 42.95447 C 55.24129 43.91792 55.57895 45.47801 55.7576 46.45413 C 55.93625 47.43025 56.17122 49.00415 56.28831 49.98969 C 56.4054 50.97523 56.54622 52.5659 56.60147 53.55728 C 56.65674 54.54865 56.69398 56.14182 56.68668 57.1348 C 56.67937 58.12776 56.61903 59.72348 56.5487 60.71405 C 56.47838 61.70462 56.31316 63.29124 56.17975 64.27426 C 56.04636 65.25728 55.78209 66.82608 55.58717 67.79903 C 55.39224 68.77196 55.0304 70.32697 54.77486 71.28658 C 54.51933 72.24619 54.06097 73.7738 53.74544 74.7153 C 53.42989 75.65678 52.87483 77.1524 52.50058 78.07224 C 52.12634 78.99205 51.4799 80.45145 51.04811 81.3448 C 50.61632 82.23816 49.87607 83.64679 49.38847 84.51099 C 48.90086 85.37517 48.07442 86.74043 47.53375 87.57336 C 46.99309 88.4063 46.08363 89.71674 45.49173 90.51419 C 44.89983 91.31163 43.90904 92.56302 43.26762 93.32092 C 42.6262 94.07883 41.55705 95.26147 40.86876 95.97672 C 40.18048 96.69194 39.03888 97.80557 38.30685 98.47592 C 37.57481 99.14626 36.36546 100.1851 35.59267 100.80815 C 34.81989 101.43121 33.54741 102.3931 32.73706 102.96652 C 31.9267 103.53993 30.59679 104.41895 29.7521 104.94106 C 28.90742 105.46317 27.5252 106.26312 26.64908 106.7296 C 25.77293 107.19608 24.34148 107.8937 23.43748 108.30318 C 22.53351 108.71263 21.06181 109.32823 20.13377 109.6808 C 19.20572 110.03339 17.69705 110.55069 16.74873 110.84433 C 15.8004 111.13797 14.26389 111.56328 13.2988 111.79721 C 12.33372 112.03114 10.77089 112.35922 9.79308 112.53036 C 8.81528 112.70152 7.23808 112.92249 6.25145 113.0308 C 5.26483 113.13911 3.67334 113.26405 2.68216 113.3111 C 1.69096 113.35815 .09956 113.38527 -.89232 113.36992 C -1.88422 113.35457 -3.477 113.27808 -4.46681 113.20036 C -5.4566 113.12265 -7.0435 112.95003 -8.02617 112.80978 C -9.00882 112.66954 -10.5775 112.39236 -11.54918 112.18953 C -12.52086 111.9867 -14.07228 111.61127 -15.02939 111.34781 C -15.98648 111.08437 -17.50864 110.6139 -18.44731 110.29068 C -19.38597 109.96745 -20.87805 109.39929 -21.79471 109.01816 C -22.71135 108.63701 -24.16324 107.98155 -25.0539 107.54364 C -25.94453 107.10573 -27.35312 106.35663 -28.21402 105.86194 C -29.0749 105.36725 -30.4307 104.52644 -31.25864 103.97823 C -32.08658 103.43001 -33.38931 102.50938 -34.1813 101.91069 C -34.9733 101.31201 -36.21428 100.31015 -36.96684 99.66322 C -37.7194 99.01628 -38.89471 97.94078 -39.60533 97.24792 C -40.31595 96.55508 -41.42351 95.40706 -42.08853 94.66957 C -42.75354 93.93207 -43.78146 92.71068 -44.39828 91.93248 C -45.0151 91.1543 -45.96709 89.87572 -46.53415 89.06085 C -47.10121 88.246 -47.97078 86.90819 -48.48534 86.05948 C -48.9999 85.21075 -49.78267 83.8234 -50.24272 82.94391 C -50.70279 82.0644 -51.39789 80.62798 -51.80118 79.72063 C -52.20447 78.81328 -52.8045 77.33516 -53.1494 76.40436 C -53.49428 75.47356 -54.00154 73.96306 -54.28696 73.01196 C -54.57237 72.06087 -54.98131 70.51656 -55.20654 69.5495 C -55.43178 68.58244 -55.74603 67.02057 -55.91028 66.04205 C -56.07454 65.06354 -56.28838 63.48384 -56.3904 62.49696 C -56.49242 61.5101 -56.60664 59.92154 -56.64558 58.9294 C -56.68454 57.93726 -56.69524 56.33928 -56.67111 55.34625 C -56.64699 54.35321 -56.55765 52.76091 -56.47171 51.77219 C -56.38577 50.78346 -56.19948 49.2015 -56.05173 48.22018 C -55.90398 47.23885 -55.61636 45.6695 -55.40681 44.69933 C -55.19725 43.72916 -54.81226 42.18294 -54.5413 41.22777 C -54.27034 40.2726 -53.78497 38.75143 -53.45389 37.81505 C -53.1228 36.87866 -52.54375 35.39212 -52.15498 34.47888 C -51.76622 33.56566 -51.09721 32.11989 -50.65192 31.23312 C -50.20662 30.34636 -49.44632 28.94489 -48.94556 28.08769 C -48.44481 27.23051 -47.59691 25.87898 -47.04282 25.05518 C -46.48872 24.23137 -45.55704 22.9375 -44.95192 22.15025 C -44.3468 21.36299 -43.33502 20.12874 -42.68153 19.38115 C -42.02805 18.63356 -40.94106 17.46675 -40.24202 16.76213 C -39.54298 16.05753 -38.3851 14.96178 -37.64333 14.30272 C -36.90157 13.64365 -35.67834 12.62317 -34.89584 12.01201 C -34.11334 11.40083 -32.82332 10.45834 -32.00346 9.89775 C -31.18362 9.33717 -29.84016 8.47932 -28.98695 7.97166 C -28.13374 7.464 -26.73747 6.69171 -25.85408 6.23892 C -24.97067 5.78612 -23.52997 5.10419 -22.62 4.70816 C -21.71 4.31213 -20.22882 3.72241 -19.2955 3.3846 C -18.36217 3.04677 -16.84618 2.55174 -15.89316 2.2734 C -14.94014 1.99507 -13.3953 1.59608 -12.4268 1.37848 C -11.45831 1.16087 -9.89307 .86105 -8.91287 .70502 C -7.93268 .54898 -6.35039 .3478 -5.36215 .25388 C -4.37392 .15996 -2.78215 .05942 -1.79025 .0281 C -.79836 -.0032 .7949 -.00314 1.7868 .0281 C 2.7787 .05936 4.3707 .15965 5.3587 .25345 C 6.34671 .34724 7.92747 .54813 8.90767 .70416 C 9.88786 .8602 11.45454 1.1605 12.42334 1.37805 C 13.39214 1.5956 14.93712 1.9939 15.89014 2.27211 C 16.84314 2.55032 18.35854 3.04538 19.29205 3.3833 C 20.22556 3.72122 21.70804 4.31165 22.61826 4.70773 C 23.52847 5.10382 24.9692 5.78549 25.85236 6.23805 C 26.73552 6.69061 28.13028 7.46184 28.98349 7.9695 C 29.8367 8.47714 31.1819 9.3363 32.00174 9.8969 C 32.82158 10.45747 34.11 11.3989 34.8924 12.00983 C 35.67479 12.62077 36.89886 13.64113 37.64075 14.30013 C 38.38263 14.95914 39.54028 16.0548 40.23943 16.75954 C 40.93858 17.46426 42.02626 18.63188 42.67981 19.37941 C 43.33336 20.12694 44.34471 21.36015 44.94977 22.14722 C 45.55482 22.9343 46.48668 24.22841 47.04066 25.05215 C 47.59464 25.8759 48.44177 27.22714 48.94252 28.08424 C 49.44327 28.94135 50.20427 30.34296 50.64975 31.22966 C 51.09523 32.11636 51.76431 33.56183 52.15326 34.47499 C 52.54219 35.38817 53.12164 36.87448 53.45303 37.81116 C 53.78442 38.74785 54.27083 40.27094 54.54173 41.22604 C 54.81262 42.18115 55.19606 43.72519 55.4055 44.69499 C 55.61494 45.66481 55.90317 47.23428 56.05128 48.21587 C 56.1994 49.19743 56.3869 50.78062 56.47302 51.76959 C 56.55913 52.75854 56.64804 54.35089 56.67198 55.34364 C 56.69592 56.3364 56.68448 57.9325 56.64558 58.92464 C 56.6067 59.91678 56.49365 61.50757 56.3917 62.49437 C 56.28972 63.48117 56.07489 65.05833 55.9107 66.03685 C 55.74654 67.01538 55.43332 68.57954 55.20827 69.5469 C 54.98322 70.51427 54.5743 72.05785 54.2887 73.00894 C 54.0031 73.96004 53.49489 75.47096 53.14981 76.40176 C 52.80475 77.33257 52.20483 78.81068 51.8016 79.7176 C 51.39836 80.62453 50.70372 82.0592 50.24359 82.93828 C 49.78348 83.81735 48.99965 85.20435 48.48534 86.05342 C 47.97102 86.9025 47.1035 88.24255 46.53674 89.05783 C 45.96999 89.87312 45.01749 91.15125 44.40044 91.92944 C 43.78339 92.70763 42.7541 93.92903 42.08939 94.66655 C 41.42468 95.40405 40.31996 96.55164 39.60965 97.2449 C 38.89934 97.93817 37.72261 99.01585 36.96986 99.66322 C 36.21712 100.31058 34.97632 101.31248 34.18433 101.91069 C 33.39233 102.50891 32.08986 103.42702 31.26167 103.97476 C 30.43349 104.5225 29.07619 105.36378 28.2153 105.85847 C 27.35442 106.35315 25.94728 107.10178 25.05692 107.54018 C 24.16655 107.97856 22.71457 108.63701 21.79817 109.01816 C 20.88176 109.39929 19.39056 109.96448 18.45206 110.28723 C 17.51357 110.60999 15.99141 111.08041 15.03413 111.34435 C 14.07687 111.60828 12.5245 111.9862 11.55264 112.18953 C 10.58078 112.39285 9.01227 112.66954 8.02962 112.80978 C 7.04697 112.95003 5.46007 113.12265 4.47028 113.20036 C 3.48047 113.27808 1.88766 113.35457 .89577 113.36992 C -.09612 113.38527 -1.68774 113.35815 -2.67868 113.3111 C -3.66963 113.26405 -5.2594 113.1396 -6.24628 113.0308 C -7.23314 112.92201 -8.81331 112.69804 -9.79134 112.5269 C -10.76938 112.35576 -12.3305 112.03065 -13.29533 111.79721 C -14.26018 111.56377 -15.79718 111.13797 -16.74525 110.84433 C -17.69334 110.55069 -19.20045 110.0329 -20.12857 109.6808 C -21.05667 109.32872 -22.5302 108.71564 -23.43446 108.30664 C -24.33875 107.89764 -25.76967 107.19954 -26.64606 106.73305 C -27.52243 106.26657 -28.90619 105.4671 -29.75081 104.9445 C -30.59543 104.4219 -31.92342 103.53993 -32.7336 102.96652 C -33.54376 102.3931 -34.81728 101.43466 -35.59007 100.81161 C -36.36287 100.18855 -37.57129 99.14632 -38.30339 98.47592 C -39.03548 97.80551 -40.17848 96.69498 -40.86661 95.97974 C -41.55472 95.2645 -42.62173 94.07924 -43.26286 93.32092 C -43.90399 92.5626 -44.89532 91.31122 -45.48741 90.51419 C -46.0795 89.71715 -46.9892 88.40846 -47.53029 87.57639 C -48.07137 86.74431 -48.89944 85.38167 -49.38718 84.51704 C -49.87491 83.65244 -50.61362 82.23859 -51.04553 81.3448 C -51.47745 80.45102 -52.12578 78.99466 -52.50015 78.07526 C -52.87451 77.15585 -53.42796 75.65945 -53.7437 74.71832 C -54.05943 73.7772 -54.5202 72.25145 -54.77573 71.29219 C -55.03127 70.33293 -55.39072 68.778 -55.58545 67.80464 C -55.78018 66.8313 -56.04585 65.2603 -56.17932 64.27686 C -56.31277 63.29341 -56.47702 61.70692 -56.5474 60.71663 C -56.61778 59.72635 -56.67937 58.13252 -56.68668 57.13954 C -56.69398 56.14658 -56.65521 54.55122 -56.60017 53.55986 C -56.54515 52.5685 -56.40707 50.98006 -56.29004 49.99445 C -56.17302 49.00885 -55.93538 47.43248 -55.75673 46.4563 C -55.57808 45.48012 -55.24266 43.92194 -55.00238 42.95879 C -54.7621 41.99564 -54.3261 40.4609 -54.02484 39.5145 C -53.72359 38.56808 -53.191 37.06288 -52.83105 36.13766 C -52.4711 35.21245 -51.84775 33.74644 -51.4305 32.84605 C -51.01323 31.94568 -50.29688 30.5206 -49.82361 29.6483 C -49.35034 28.77602 -48.54695 27.39984 -48.01949 26.55911 C -47.49202 25.71838 -46.60199 24.39497 -46.02202 23.58887 C -45.44205 22.78278 -44.46909 21.5172 -43.83945 20.74927 C -43.2098 19.98134 -42.16061 18.78082 -41.48384 18.05412 C -40.80705 17.32742 -39.68228 16.19383 -38.9617 15.51167 C -38.24113 14.8295 -37.05246 13.77264 -36.29036 13.13747 C -35.52824 12.50229 -34.27075 11.52 -33.46892 10.93369 C -32.66707 10.34735 -31.3481 9.4459 -30.51122 8.91156 C -29.67433 8.37721 -28.30556 7.56264 -27.43716 7.08237 C -26.56876 6.6021 -25.14966 5.87468 -24.2524 5.44997 C -23.35513 5.02525 -21.89258 4.38858 -20.97029 4.0213 C -20.048 3.65402 -18.54874 3.11111 -17.60515 2.80283 C -16.66156 2.49455 -15.13086 2.04749 -14.1695 1.79935 C -13.20815 1.55121 -11.65155 1.20128 -10.67633 1.01428 C -9.70111 .82729 -8.12544 .57661 -7.14076 .45155 C -6.15607 .32649 -4.56958 .17554 -3.57924 .11288 C -2.58888 .05023 -.00302 0 -.00302 0 "/>
<use xlink:href="#font_0_3" transform="matrix(27.673888,0,0,-27.673888,1897.6192,124.95163)"/>
<use xlink:href="#font_1_2" transform="matrix(27.673888,0,0,-27.673888,1919.308,120.96659)"/>
<use xlink:href="#font_1_1" transform="matrix(27.673888,0,0,-27.673888,1948.3656,124.64722)"/>
<use xlink:href="#font_0_2" transform="matrix(27.673888,0,0,-27.673888,1961.9125,124.95163)"/>
<symbol id="font_1_4">
<path d="M .144 .44200004 L .0040000008 .43100003 L .0040000008 .4 C .069000009 .4 .07800001 .39400003 .07800001 .34500004 L .07800001 .076000008 C .07800001 .031000002 .067 .031000002 0 .031000002 L 0 0 C .032000007 .001 .086 .003 .11000001 .003 C .14500001 .003 .18 .001 .21400002 0 L .21400002 .031000002 C .148 .031000002 .144 .036000004 .144 .075 L .144 .44200004 M .148 .61600008 C .148 .648 .123 .669 .095000009 .669 C .064 .669 .042000005 .642 .042000005 .61600008 C .042000005 .58900007 .064 .563 .095000009 .563 C .123 .563 .148 .58400008 .148 .61600008 Z "/>
</symbol>
<symbol id="font_1_5">
<path d="M .07800001 .344 L .07800001 .076000008 C .07800001 .031000002 .067 .031000002 0 .031000002 L 0 0 C .035 .001 .08600001 .003 .113000009 .003 C .139 .003 .191 .001 .225 0 L .225 .031000002 C .158 .031000002 .147 .031000002 .147 .076000008 L .147 .26000003 C .147 .36400003 .218 .42000003 .282 .42000003 C .345 .42000003 .356 .36600004 .356 .30900003 L .356 .076000008 C .356 .031000002 .345 .031000002 .278 .031000002 L .278 0 C .31300003 .001 .36400003 .003 .391 .003 C .41700004 .003 .46900005 .001 .503 0 L .503 .031000002 C .451 .031000002 .42600004 .031000002 .425 .061000006 L .425 .252 C .425 .33800004 .425 .36900003 .39400003 .40500004 C .38000003 .42200003 .347 .44200004 .289 .44200004 C .216 .44200004 .169 .39900003 .141 .337 L .141 .44200004 L 0 .43100003 L 0 .4 C .07000001 .4 .07800001 .393 .07800001 .344 Z "/>
</symbol>
<use xlink:href="#font_1_7" transform="matrix(27.673888,0,0,-27.673888,1980.9605,124.95163)"/>
<use xlink:href="#font_1_4" transform="matrix(27.673888,0,0,-27.673888,1991.864,124.64722)"/>
<use xlink:href="#font_1_5" transform="matrix(27.673888,0,0,-27.673888,1999.5297,124.64722)"/>
<use xlink:href="#font_0_1" transform="matrix(27.673888,0,0,-27.673888,2019.7985,124.95163)"/>
<path transform="matrix(2.7777777,0,0,-2.7777777,2332.6444,115.03613)" stroke-width=".3985" stroke-linecap="butt" stroke-miterlimit="10" stroke-linejoin="miter" fill="none" stroke="#000000" d="M -85.04042 0 L 84.58214 0 "/>
<path transform="matrix(2.7777777,0,0,-2.7777777,2567.5948,115.03613)" stroke-width=".31879" stroke-linecap="round" stroke-linejoin="round" fill="none" stroke="#000000" d="M -1.19551 1.59401 C -1.09587 .99626 0 .09961 .29886 0 C 0 -.09961 -1.09587 -.99626 -1.19551 -1.59401 "/>
<use xlink:href="#font_0_4" transform="matrix(27.673888,0,0,-27.673888,2579.444,121.29889)"/>
<path transform="matrix(2.7777777,0,0,-2.7777777,2332.6444,115.03613)" stroke-width=".3985" stroke-linecap="butt" stroke-miterlimit="10" stroke-linejoin="miter" fill="none" stroke="#000000" d="M 0 -141.73404 L 0 27.88852 "/>
<path transform="matrix(0,-2.7777777,-2.7777777,-0,2332.6444,37.568029)" stroke-width=".31879" stroke-linecap="round" stroke-linejoin="round" fill="none" stroke="#000000" d="M -1.19551 1.59401 C -1.09587 .99626 0 .09961 .29886 0 C 0 -.09961 -1.09587 -.99626 -1.19551 -1.59401 "/>
<use xlink:href="#font_0_5" transform="matrix(27.673888,0,0,-27.673888,2326.1663,26.812033)"/>
<path transform="matrix(2.7777777,0,0,-2.7777777,2332.6444,115.03613)" stroke-width=".79701" stroke-linecap="butt" stroke-miterlimit="10" stroke-linejoin="miter" fill="none" stroke="#000000" d="M 0 0 C 0 0 -2.58519 -.0503 -3.57578 -.11288 C -4.56635 -.17548 -6.15475 -.32619 -7.13945 -.45113 C -8.12415 -.57607 -9.69812 -.82654 -10.67287 -1.01341 C -11.6476 -1.2003 -13.20338 -1.54996 -14.16473 -1.79805 C -15.1261 -2.04614 -16.65785 -2.49326 -17.60168 -2.80153 C -18.5455 -3.10982 -20.04521 -3.6529 -20.96725 -4.01999 C -21.88931 -4.38708 -23.35011 -5.02283 -24.2472 -5.44736 C -25.14427 -5.87189 -26.56392 -6.59924 -27.43285 -7.07977 C -28.30177 -7.56029 -29.67291 -8.37628 -30.50992 -8.91069 C -31.34692 -9.4451 -32.66391 -10.34538 -33.46544 -10.93152 C -34.26698 -11.51767 -35.52443 -12.5 -36.2869 -13.1353 C -37.04938 -13.77058 -38.24002 -14.82825 -38.96085 -15.51036 C -39.68166 -16.19247 -40.80551 -17.32506 -41.4821 -18.05151 C -42.15869 -18.77798 -43.20757 -19.97838 -43.83728 -20.74623 C -44.467 -21.5141 -45.44054 -22.77957 -46.02072 -23.58585 C -46.60092 -24.39214 -47.49173 -25.71672 -48.01906 -26.55739 C -48.54639 -27.39806 -49.3484 -28.7728 -49.82144 -29.64484 C -50.29446 -30.51689 -51.01099 -31.94226 -51.42831 -32.84259 C -51.84564 -33.7429 -52.4693 -35.20866 -52.82932 -36.13377 C -53.18933 -37.05887 -53.72185 -38.56381 -54.02312 -39.51016 C -54.32437 -40.45651 -54.76 -41.99101 -55.00064 -42.95447 C -55.24129 -43.91792 -55.57895 -45.47801 -55.7576 -46.45413 C -55.93625 -47.43025 -56.17122 -49.00415 -56.28831 -49.98969 C -56.4054 -50.97523 -56.54622 -52.5659 -56.60147 -53.55728 C -56.65674 -54.54865 -56.69398 -56.14182 -56.68668 -57.1348 C -56.67937 -58.12776 -56.61903 -59.72348 -56.5487 -60.71405 C -56.47838 -61.70462 -56.31316 -63.29124 -56.17975 -64.27426 C -56.04636 -65.25728 -55.78209 -66.82608 -55.58717 -67.79903 C -55.39224 -68.77196 -55.0304 -70.32697 -54.77486 -71.28658 C -54.51933 -72.24619 -54.06097 -73.7738 -53.74544 -74.7153 C -53.42989 -75.65678 -52.87483 -77.1524 -52.50058 -78.07224 C -52.12634 -78.99205 -51.4799 -80.45145 -51.04811 -81.3448 C -50.61632 -82.23816 -49.87607 -83.64679 -49.38847 -84.51099 C -48.90086 -85.37517 -48.07442 -86.74043 -47.53375 -87.57336 C -46.99309 -88.4063 -46.08363 -89.71674 -45.49173 -90.51419 C -44.89983 -91.31163 -43.90904 -92.56302 -43.26762 -93.32092 C -42.6262 -94.07883 -41.55705 -95.26147 -40.86876 -95.97672 C -40.18048 -96.69194 -39.03888 -97.80557 -38.30685 -98.47592 C -37.57481 -99.14626 -36.36546 -100.1851 -35.59267 -100.80815 C -34.81989 -101.43121 -33.54741 -102.3931 -32.73706 -102.96652 C -31.9267 -103.53993 -30.59679 -104.41895 -29.7521 -104.94106 C -28.90742 -105.46317 -27.5252 -106.26312 -26.64908 -106.7296 C -25.77293 -107.19608 -24.34148 -107.8937 -23.43748 -108.30318 C -22.53351 -108.71263 -21.06181 -109.32823 -20.13377 -109.6808 C -19.20572 -110.03339 -17.69705 -110.55069 -16.74873 -110.84433 C -15.8004 -111.13797 -14.26389 -111.56328 -13.2988 -111.79721 C -12.33372 -112.03114 -10.77089 -112.35922 -9.79308 -112.53036 C -8.81528 -112.70152 -7.23808 -112.92249 -6.25145 -113.0308 C -5.26483 -113.13911 -3.67334 -113.26405 -2.68216 -113.3111 C -1.69096 -113.35815 -.09956 -113.38527 .89232 -113.36992 C 1.88422 -113.35457 3.477 -113.27808 4.46681 -113.20036 C 5.4566 -113.12265 7.0435 -112.95003 8.02617 -112.80978 C 9.00882 -112.66954 10.5775 -112.39236 11.54918 -112.18953 C 12.52086 -111.9867 14.07228 -111.61127 15.02939 -111.34781 C 15.98648 -111.08437 17.50864 -110.6139 18.44731 -110.29068 C 19.38597 -109.96745 20.87805 -109.39929 21.79471 -109.01816 C 22.71135 -108.63701 24.16324 -107.98155 25.0539 -107.54364 C 25.94453 -107.10573 27.35312 -106.35663 28.21402 -105.86194 C 29.0749 -105.36725 30.4307 -104.52644 31.25864 -103.97823 C 32.08658 -103.43001 33.38931 -102.50938 34.1813 -101.91069 C 34.9733 -101.31201 36.21428 -100.31015 36.96684 -99.66322 C 37.7194 -99.01628 38.89471 -97.94078 39.60533 -97.24792 C 40.31595 -96.55508 41.42351 -95.40706 42.08853 -94.66957 C 42.75354 -93.93207 43.78146 -92.71068 44.39828 -91.93248 C 45.0151 -91.1543 45.96709 -89.87572 46.53415 -89.06085 C 47.10121 -88.246 47.97078 -86.90819 48.48534 -86.05948 C 48.9999 -85.21075 49.78267 -83.8234 50.24272 -82.94391 C 50.70279 -82.0644 51.39789 -80.62798 51.80118 -79.72063 C 52.20447 -78.81328 52.8045 -77.33516 53.1494 -76.40436 C 53.49428 -75.47356 54.00154 -73.96306 54.28696 -73.01196 C 54.57237 -72.06087 54.98131 -70.51656 55.20654 -69.5495 C 55.43178 -68.58244 55.74603 -67.02057 55.91028 -66.04205 C 56.07454 -65.06354 56.28838 -63.48384 56.3904 -62.49696 C 56.49242 -61.5101 56.60664 -59.92154 56.64558 -58.9294 C 56.68454 -57.93726 56.69524 -56.33928 56.67111 -55.34625 C 56.64699 -54.35321 56.55765 -52.76091 56.47171 -51.77219 C 56.38577 -50.78346 56.19948 -49.2015 56.05173 -48.22018 C 55.90398 -47.23885 55.61636 -45.6695 55.40681 -44.69933 C 55.19725 -43.72916 54.81226 -42.18294 54.5413 -41.22777 C 54.27034 -40.2726 53.78497 -38.75143 53.45389 -37.81505 C 53.1228 -36.87866 52.54375 -35.39212 52.15498 -34.47888 C 51.76622 -33.56566 51.09721 -32.11989 50.65192 -31.23312 C 50.20662 -30.34636 49.44632 -28.94489 48.94556 -28.08769 C 48.44481 -27.23051 47.59691 -25.87898 47.04282 -25.05518 C 46.48872 -24.23137 45.55704 -22.9375 44.95192 -22.15025 C 44.3468 -21.36299 43.33502 -20.12874 42.68153 -19.38115 C 42.02805 -18.63356 40.94106 -17.46675 40.24202 -16.76213 C 39.54298 -16.05753 38.3851 -14.96178 37.64333 -14.30272 C 36.90157 -13.64365 35.67834 -12.62317 34.89584 -12.01201 C 34.11334 -11.40083 32.82332 -10.45834 32.00346 -9.89775 C 31.18362 -9.33717 29.84016 -8.47932 28.98695 -7.97166 C 28.13374 -7.464 26.73747 -6.69171 25.85408 -6.23892 C 24.97067 -5.78612 23.52997 -5.10419 22.62 -4.70816 C 21.71 -4.31213 20.22882 -3.72241 19.2955 -3.3846 C 18.36217 -3.04677 16.84618 -2.55174 15.89316 -2.2734 C 14.94014 -1.99507 13.3953 -1.59608 12.4268 -1.37848 C 11.45831 -1.16087 9.89307 -.86105 8.91287 -.70502 C 7.93268 -.54898 6.35039 -.3478 5.36215 -.25388 C 4.37392 -.15996 2.78215 -.05942 1.79025 -.0281 C .79836 .0032 -.7949 .00314 -1.7868 -.0281 C -2.7787 -.05936 -4.3707 -.15965 -5.3587 -.25345 C -6.34671 -.34724 -7.92747 -.54813 -8.90767 -.70416 C -9.88786 -.8602 -11.45454 -1.1605 -12.42334 -1.37805 C -13.39214 -1.5956 -14.93712 -1.9939 -15.89014 -2.27211 C -16.84314 -2.55032 -18.35854 -3.04538 -19.29205 -3.3833 C -20.22556 -3.72122 -21.70804 -4.31165 -22.61826 -4.70773 C -23.52847 -5.10382 -24.9692 -5.78549 -25.85236 -6.23805 C -26.73552 -6.69061 -28.13028 -7.46184 -28.98349 -7.9695 C -29.8367 -8.47714 -31.1819 -9.3363 -32.00174 -9.8969 C -32.82158 -10.45747 -34.11 -11.3989 -34.8924 -12.00983 C -35.67479 -12.62077 -36.89886 -13.64113 -37.64075 -14.30013 C -38.38263 -14.95914 -39.54028 -16.0548 -40.23943 -16.75954 C -40.93858 -17.46426 -42.02626 -18.63188 -42.67981 -19.37941 C -43.33336 -20.12694 -44.34471 -21.36015 -44.94977 -22.14722 C -45.55482 -22.9343 -46.48668 -24.22841 -47.04066 -25.05215 C -47.59464 -25.8759 -48.44177 -27.22714 -48.94252 -28.08424 C -49.44327 -28.94135 -50.20427 -30.34296 -50.64975 -31.22966 C -51.09523 -32.11636 -51.76431 -33.56183 -52.15326 -34.47499 C -52.54219 -35.38817 -53.12164 -36.87448 -53.45303 -37.81116 C -53.78442 -38.74785 -54.27083 -40.27094 -54.54173 -41.22604 C -54.81262 -42.18115 -55.19606 -43.72519 -55.4055 -44.69499 C -55.61494 -45.66481 -55.90317 -47.23428 -56.05128 -48.21587 C -56.1994 -49.19743 -56.3869 -50.78062 -56.47302 -51.76959 C -56.55913 -52.75854 -56.64804 -54.35089 -56.67198 -55.34364 C -56.69592 -56.3364 -56.68448 -57.9325 -56.64558 -58.92464 C -56.6067 -59.91678 -56.49365 -61.50757 -56.3917 -62.49437 C -56.28972 -63.48117 -56.07489 -65.05833 -55.9107 -66.03685 C -55.74654 -67.01538 -55.43332 -68.57954 -55.20827 -69.5469 C -54.98322 -70.51427 -54.5743 -72.05785 -54.2887 -73.00894 C -54.0031 -73.96004 -53.49489 -75.47096 -53.14981 -76.40176 C -52.80475 -77.33257 -52.20483 -78.81068 -51.8016 -79.7176 C -51.39836 -80.62453 -50.70372 -82.0592 -50.24359 -82.93828 C -49.78348 -83.81735 -48.99965 -85.20435 -48.48534 -86.05342 C -47.97102 -86.9025 -47.1035 -88.24255 -46.53674 -89.05783 C -45.96999 -89.87312 -45.01749 -91.15125 -44.40044 -91.92944 C -43.78339 -92.70763 -42.7541 -93.92903 -42.08939 -94.66655 C -41.42468 -95.40405 -40.31996 -96.55164 -39.60965 -97.2449 C -38.89934 -97.93817 -37.72261 -99.01585 -36.96986 -99.66322 C -36.21712 -100.31058 -34.97632 -101.31248 -34.18433 -101.91069 C -33.39233 -102.50891 -32.08986 -103.42702 -31.26167 -103.97476 C -30.43349 -104.5225 -29.07619 -105.36378 -28.2153 -105.85847 C -27.35442 -106.35315 -25.94728 -107.10178 -25.05692 -107.54018 C -24.16655 -107.97856 -22.71457 -108.63701 -21.79817 -109.01816 C -20.88176 -109.39929 -19.39056 -109.96448 -18.45206 -110.28723 C -17.51357 -110.60999 -15.99141 -111.08041 -15.03413 -111.34435 C -14.07687 -111.60828 -12.5245 -111.9862 -11.55264 -112.18953 C -10.58078 -112.39285 -9.01227 -112.66954 -8.02962 -112.80978 C -7.04697 -112.95003 -5.46007 -113.12265 -4.47028 -113.20036 C -3.48047 -113.27808 -1.88766 -113.35457 -.89577 -113.36992 C .09612 -113.38527 1.68774 -113.35815 2.67868 -113.3111 C 3.66963 -113.26405 5.2594 -113.1396 6.24628 -113.0308 C 7.23314 -112.92201 8.81331 -112.69804 9.79134 -112.5269 C 10.76938 -112.35576 12.3305 -112.03065 13.29533 -111.79721 C 14.26018 -111.56377 15.79718 -111.13797 16.74525 -110.84433 C 17.69334 -110.55069 19.20045 -110.0329 20.12857 -109.6808 C 21.05667 -109.32872 22.5302 -108.71564 23.43446 -108.30664 C 24.33875 -107.89764 25.76967 -107.19954 26.64606 -106.73305 C 27.52243 -106.26657 28.90619 -105.4671 29.75081 -104.9445 C 30.59543 -104.4219 31.92342 -103.53993 32.7336 -102.96652 C 33.54376 -102.3931 34.81728 -101.43466 35.59007 -100.81161 C 36.36287 -100.18855 37.57129 -99.14632 38.30339 -98.47592 C 39.03548 -97.80551 40.17848 -96.69498 40.86661 -95.97974 C 41.55472 -95.2645 42.62173 -94.07924 43.26286 -93.32092 C 43.90399 -92.5626 44.89532 -91.31122 45.48741 -90.51419 C 46.0795 -89.71715 46.9892 -88.40846 47.53029 -87.57639 C 48.07137 -86.74431 48.89944 -85.38167 49.38718 -84.51704 C 49.87491 -83.65244 50.61362 -82.23859 51.04553 -81.3448 C 51.47745 -80.45102 52.12578 -78.99466 52.50015 -78.07526 C 52.87451 -77.15585 53.42796 -75.65945 53.7437 -74.71832 C 54.05943 -73.7772 54.5202 -72.25145 54.77573 -71.29219 C 55.03127 -70.33293 55.39072 -68.778 55.58545 -67.80464 C 55.78018 -66.8313 56.04585 -65.2603 56.17932 -64.27686 C 56.31277 -63.29341 56.47702 -61.70692 56.5474 -60.71663 C 56.61778 -59.72635 56.67937 -58.13252 56.68668 -57.13954 C 56.69398 -56.14658 56.65521 -54.55122 56.60017 -53.55986 C 56.54515 -52.5685 56.40707 -50.98006 56.29004 -49.99445 C 56.17302 -49.00885 55.93538 -47.43248 55.75673 -46.4563 C 55.57808 -45.48012 55.24266 -43.92194 55.00238 -42.95879 C 54.7621 -41.99564 54.3261 -40.4609 54.02484 -39.5145 C 53.72359 -38.56808 53.191 -37.06288 52.83105 -36.13766 C 52.4711 -35.21245 51.84775 -33.74644 51.4305 -32.84605 C 51.01323 -31.94568 50.29688 -30.5206 49.82361 -29.6483 C 49.35034 -28.77602 48.54695 -27.39984 48.01949 -26.55911 C 47.49202 -25.71838 46.60199 -24.39497 46.02202 -23.58887 C 45.44205 -22.78278 44.46909 -21.5172 43.83945 -20.74927 C 43.2098 -19.98134 42.16061 -18.78082 41.48384 -18.05412 C 40.80705 -17.32742 39.68228 -16.19383 38.9617 -15.51167 C 38.24113 -14.8295 37.05246 -13.77264 36.29036 -13.13747 C 35.52824 -12.50229 34.27075 -11.52 33.46892 -10.93369 C 32.66707 -10.34735 31.3481 -9.4459 30.51122 -8.91156 C 29.67433 -8.37721 28.30556 -7.56264 27.43716 -7.08237 C 26.56876 -6.6021 25.14966 -5.87468 24.2524 -5.44997 C 23.35513 -5.02525 21.89258 -4.38858 20.97029 -4.0213 C 20.048 -3.65402 18.54874 -3.11111 17.60515 -2.80283 C 16.66156 -2.49455 15.13086 -2.04749 14.1695 -1.79935 C 13.20815 -1.55121 11.65155 -1.20128 10.67633 -1.01428 C 9.70111 -.82729 8.12544 -.57661 7.14076 -.45155 C 6.15607 -.32649 4.56958 -.17554 3.57924 -.11288 C 2.58888 -.05023 .00302 0 .00302 0 "/>
<use xlink:href="#font_0_3" transform="matrix(27.673888,0,0,-27.673888,2097.4134,438.7572)"/>
<use xlink:href="#font_1_2" transform="matrix(27.673888,0,0,-27.673888,2119.1024,434.77217)"/>
<use xlink:href="#font_2_1" transform="matrix(27.673888,0,0,-27.673888,2149.0606,432.0878)"/>
<use xlink:href="#font_1_1" transform="matrix(27.673888,0,0,-27.673888,2169.6724,438.4528)"/>
<use xlink:href="#font_0_2" transform="matrix(27.673888,0,0,-27.673888,2183.2318,438.7572)"/>
<use xlink:href="#font_1_7" transform="matrix(27.673888,0,0,-27.673888,2202.2799,438.7572)"/>
<use xlink:href="#font_1_4" transform="matrix(27.673888,0,0,-27.673888,2213.1834,438.4528)"/>
<use xlink:href="#font_1_5" transform="matrix(27.673888,0,0,-27.673888,2220.8489,438.4528)"/>
<use xlink:href="#font_0_1" transform="matrix(27.673888,0,0,-27.673888,2241.118,438.7572)"/>
</g>
</svg>
