<?xml version="1.0" encoding="UTF-8" standalone="no"?>
<!DOCTYPE svg PUBLIC "-//W3C//DTD SVG 1.1//EN" "http://www.w3.org/Graphics/SVG/1.1/DTD/svg11.dtd">
<svg xmlns="http://www.w3.org/2000/svg" xmlns:xlink="http://www.w3.org/1999/xlink" version="1.1" width="698.0472pt" height="666.76107pt" viewBox="0 0 698.0472 666.76107">
<g enable-background="new">
<path transform="matrix(2.7777777,0,0,-2.7777777,348.275,351.25276)" stroke-width=".3985" stroke-linecap="butt" stroke-miterlimit="10" stroke-linejoin="miter" fill="none" stroke="#000000" d="M -113.3855 0 L 112.92722 0 "/>
<path transform="matrix(2.7777777,0,0,-2.7777777,661.9617,351.25276)" stroke-width=".31879" stroke-linecap="round" stroke-linejoin="round" fill="none" stroke="#000000" d="M -1.19551 1.59401 C -1.09587 .99626 0 .09961 .29886 0 C 0 -.09961 -1.09587 -.99626 -1.19551 -1.59401 "/>
<symbol id="font_0_2">
<path d="M .305 .31300003 C .311 .33900003 .334 .43100003 .404 .43100003 C .409 .43100003 .433 .43100003 .454 .418 C .426 .41300003 .40600003 .388 .40600003 .36400003 C .40600003 .34800003 .417 .32900004 .444 .32900004 C .46600003 .32900004 .498 .34700004 .498 .38700003 C .498 .43900005 .439 .45300005 .405 .45300005 C .347 .45300005 .312 .40000005 .3 .37700004 C .275 .44300003 .221 .45300005 .19200002 .45300005 C .08800001 .45300005 .031000002 .32400004 .031000002 .29900003 C .031000002 .28900004 .041 .28900004 .043000007 .28900004 C .051000008 .28900004 .054000006 .291 .056 .3 C .09 .40600003 .156 .43100003 .19000001 .43100003 C .209 .43100003 .244 .42200003 .244 .36400003 C .244 .33300004 .22700002 .26600004 .19000001 .126 C .17400001 .064 .13900002 .022000002 .095000009 .022000002 C .08900001 .022000002 .06600001 .022000002 .045 .035 C .07000001 .040000004 .09200001 .061 .09200001 .089 C .09200001 .116000007 .07000001 .124000009 .055000009 .124000009 C .025 .124000009 0 .098000008 0 .06600001 C 0 .020000002 .050000006 0 .094000007 0 C .16000001 0 .19600001 .07000001 .19900002 .076000008 C .21100001 .039 .24700003 0 .307 0 C .41 0 .467 .12900001 .467 .15400002 C .467 .16400002 .458 .16400002 .455 .16400002 C .446 .16400002 .444 .16000001 .442 .15300001 C .409 .046 .341 .022000002 .30900003 .022000002 C .27 .022000002 .254 .054 .254 .08800001 C .254 .11000001 .26 .13200002 .271 .17600002 L .305 .31300003 Z "/>
</symbol>
<use xlink:href="#font_0_2" transform="matrix(27.673888,0,0,-27.673888,673.80807,357.5127)"/>
<path transform="matrix(2.7777777,0,0,-2.7777777,348.275,351.25276)" stroke-width=".3985" stroke-linecap="butt" stroke-miterlimit="10" stroke-linejoin="miter" fill="none" stroke="#000000" d="M 0 -113.3855 L 0 112.92722 "/>
<path transform="matrix(0,-2.7777777,-2.7777777,-0,348.275,37.566038)" stroke-width=".31879" stroke-linecap="round" stroke-linejoin="round" fill="none" stroke="#000000" d="M -1.19551 1.59401 C -1.09587 .99626 0 .09961 .29886 0 C 0 -.09961 -1.09587 -.99626 -1.19551 -1.59401 "/>
<symbol id="font_0_3">
<path d="M .45700003 .586 C .461 .6 .461 .602 .461 .609 C .461 .62700006 .447 .63600006 .432 .63600006 C .42200003 .63600006 .40600003 .63 .397 .615 C .395 .61 .387 .579 .38300003 .561 C .37600003 .535 .36900003 .508 .363 .48100005 L .318 .301 C .314 .286 .271 .21600002 .20500002 .21600002 C .15400002 .21600002 .143 .26000003 .143 .29700003 C .143 .34300003 .16000001 .40500004 .194 .49300004 C .21000001 .53400006 .21400002 .545 .21400002 .56500008 C .21400002 .61 .18200001 .6470001 .13200002 .6470001 C .037 .6470001 0 .50200006 0 .49300004 C 0 .48300005 .01 .48300005 .012 .48300005 C .022000002 .48300005 .023 .485 .028000003 .50100007 C .055000009 .595 .095000009 .625 .12900001 .625 C .13700001 .625 .15400002 .625 .15400002 .59300008 C .15400002 .568 .14400001 .54200008 .13700001 .523 C .097 .41700004 .079 .36 .079 .31300003 C .079 .224 .142 .194 .201 .194 C .24000003 .194 .274 .21100001 .30200003 .23900002 C .289 .187 .277 .13800001 .237 .08500001 C .21100001 .051 .17300001 .022 .127 .022 C .113000009 .022 .068 .025000006 .051000008 .06400001 C .067 .06400001 .080000009 .06400001 .094000007 .076000008 C .104 .08500001 .11400001 .098000008 .11400001 .117000009 C .11400001 .148 .087000008 .15200001 .07700001 .15200001 C .054000006 .15200001 .021 .136 .021 .087000008 C .021 .037 .065000008 0 .127 0 C .23 0 .333 .091000009 .361 .20400001 L .45700003 .586 Z "/>
</symbol>
<use xlink:href="#font_0_3" transform="matrix(27.673888,0,0,-27.673888,341.79698,26.812003)"/>
<path transform="matrix(2.7777777,0,0,-2.7777777,348.275,351.25276)" stroke-width=".79701" stroke-linecap="butt" stroke-miterlimit="10" stroke-linejoin="miter" fill="none" stroke="#000000" d="M 0 0 C 0 0 .3785 .01886 .52196 .04219 C .66544 .06552 .89482 .12175 1.03407 .16815 C 1.17334 .21455 1.39336 .30775 1.5256 .37663 C 1.65784 .4455 1.86467 .57413 1.98721 .66452 C 2.10976 .75493 2.29858 .91745 2.40884 1.0282 C 2.5191 1.13896 2.68631 1.33316 2.78185 1.4628 C 2.8774 1.59244 3.0189 1.81578 3.09743 1.96263 C 3.17595 2.1095 3.2884 2.35924 3.34778 2.52129 C 3.40714 2.68335 3.48697 2.95558 3.52528 3.13065 C 3.5636 3.30571 3.60829 3.59737 3.6239 3.78308 C 3.63953 3.96877 3.64641 4.27534 3.63792 4.46907 C 3.62943 4.6628 3.59637 4.98022 3.56265 5.17929 C 3.52893 5.37836 3.45464 5.70232 3.39484 5.90387 C 3.33502 6.10541 3.21799 6.43085 3.13152 6.6319 C 3.04503 6.83296 2.88483 7.15541 2.77147 7.35303 C 2.65811 7.55063 2.4547 7.8651 2.31454 8.05614 C 2.17438 8.24718 1.92784 8.54842 1.76125 8.72984 C 1.59465 8.91129 1.30617 9.19498 1.11385 9.36377 C .92151 9.53258 .59204 9.79332 .37508 9.94647 C .1581 10.09962 -.20969 10.33287 -.44998 10.46759 C -.69028 10.6023 -1.09471 10.80397 -1.35675 10.91743 C -1.61877 11.03087 -2.05678 11.19571 -2.3386 11.28525 C -2.6204 11.37479 -3.08855 11.49944 -3.38791 11.56276 C -3.68727 11.62608 -4.1818 11.70686 -4.49623 11.74165 C -4.81067 11.77643 -5.32741 11.80922 -5.6542 11.81345 C -5.98102 11.81767 -6.51544 11.80011 -6.85162 11.7721 C -7.1878 11.7441 -7.73482 11.67334 -8.07724 11.61156 C -8.41966 11.54976 -8.97421 11.42334 -9.31964 11.32677 C -9.66507 11.2302 -10.22197 11.0477 -10.5669 10.91551 C -10.91182 10.78336 -11.4648 10.54257 -11.80566 10.37416 C -12.14655 10.20575 -12.69043 9.90634 -13.02368 9.70166 C -13.3569 9.49698 -13.88562 9.13977 -14.20743 8.89888 C -14.52924 8.65799 -15.03635 8.24194 -15.34308 7.96548 C -15.64983 7.68901 -16.13007 7.21725 -16.41817 6.9063 C -16.7063 6.59534 -17.15388 6.06873 -17.41957 5.72429 C -17.68526 5.37982 -18.09325 4.79982 -18.33308 4.42374 C -18.57292 4.04765 -18.93759 3.41934 -19.14815 3.01369 C -19.35869 2.60803 -19.6726 1.933 -19.85059 1.5 C -20.02855 1.067 -20.28836 .35057 -20.43086 -.10707 C -20.57338 -.56476 -20.77362 -1.31926 -20.87775 -1.79861 C -20.98189 -2.27798 -21.11813 -3.06422 -21.1814 -3.56197 C -21.24464 -4.05971 -21.31358 -4.87337 -21.33365 -5.38603 C -21.35371 -5.89871 -21.35126 -6.73332 -21.32603 -7.25699 C -21.30081 -7.78067 -21.22371 -8.6296 -21.1518 -9.16031 C -21.07991 -9.69101 -20.9278 -10.54845 -20.80785 -11.08195 C -20.68791 -11.61548 -20.45622 -12.47354 -20.28726 -13.00551 C -20.11832 -13.53749 -19.80849 -14.3901 -19.5902 -14.91608 C -19.3719 -15.44206 -18.98177 -16.28107 -18.71388 -16.79639 C -18.44601 -17.3117 -17.97656 -18.12997 -17.65953 -18.63014 C -17.34253 -19.13031 -16.79453 -19.92097 -16.4291 -20.40128 C -16.06363 -20.88159 -15.43822 -21.63612 -15.0256 -22.09195 C -14.61299 -22.54778 -13.91333 -23.25958 -13.45517 -23.6866 C -12.997 -24.11363 -12.22523 -24.77614 -11.72348 -25.16968 C -11.22173 -25.56322 -10.3818 -26.16713 -9.83887 -26.52298 C -9.29591 -26.87885 -8.39134 -27.42012 -7.81029 -27.73442 C -7.22922 -28.0487 -6.26686 -28.51967 -5.65092 -28.78824 C -5.03497 -29.0568 -4.01825 -29.45076 -3.37096 -29.67007 C -2.72366 -29.8894 -1.66006 -30.20215 -.98564 -30.36905 C -.3112 -30.53595 .79237 -30.76166 1.48979 -30.87303 C 2.18721 -30.98442 3.32498 -31.11844 4.04086 -31.17183 C 4.75676 -31.2252 5.92015 -31.26486 6.64937 -31.25781 C 7.3786 -31.25076 8.55914 -31.19016 9.29665 -31.12097 C 10.03412 -31.05179 11.22414 -30.89165 11.96466 -30.75919 C 12.7052 -30.62674 13.89594 -30.36331 14.6339 -30.16628 C 15.37187 -29.96925 16.55365 -29.6009 17.28342 -29.33911 C 18.01317 -29.0773 19.17761 -28.60583 19.89348 -28.27942 C 20.60936 -27.95297 21.74675 -27.37697 22.443 -26.98648 C 23.13924 -26.596 24.2405 -25.91841 24.91153 -25.46501 C 25.5826 -25.0116 26.63968 -24.23373 27.27956 -23.71863 C 27.91945 -23.20349 28.92029 -22.32681 29.52336 -21.75233 C 30.12643 -21.17786 31.06503 -20.20917 31.62616 -19.5781 C 32.18727 -18.94699 33.0539 -17.88867 33.56752 -17.20383 C 34.08118 -16.519 34.86661 -15.37689 35.32811 -14.6422 C 35.7896 -13.90753 36.48936 -12.68939 36.8937 -11.90878 C 37.29805 -11.12819 37.89983 -9.83836 38.24232 -9.01617 C 38.58484 -8.19402 39.08504 -6.84164 39.36224 -5.9831 C 39.63945 -5.12456 40.03247 -3.71814 40.24028 -2.8284 C 40.44809 -1.93864 40.72482 -.48567 40.86 .42957 C 40.9952 1.34483 41.1546 2.8333 41.21469 3.7682 C 41.27477 4.7031 41.31065 6.2193 41.29306 7.16772 C 41.27547 8.11613 41.18463 9.64835 41.08788 10.60376 C 40.9911 11.55916 40.77303 13.09824 40.59564 14.05362 C 40.41829 15.009 40.06818 16.54095 39.80948 17.48947 C 39.55078 18.43799 39.07071 19.95459 38.7311 20.88986 C 38.39148 21.82513 37.78212 23.31569 37.3617 24.23021 C 36.94127 25.14474 36.201 26.59433 35.70096 27.48112 C 35.2009 28.36792 34.3351 29.76921 33.75768 30.62164 C 33.18022 31.47409 32.19197 32.81396 31.53912 33.62497 C 30.88629 34.43599 29.77782 35.70358 29.05243 36.46687 C 28.32704 37.23016 27.10524 38.41756 26.31105 39.12625 C 25.51683 39.83495 24.18741 40.92671 23.32831 41.57472 C 22.46922 42.22275 21.0384 43.21475 20.11926 43.79672 C 19.20013 44.37871 17.67786 45.25961 16.70384 45.76924 C 15.7298 46.27887 14.12238 47.03725 13.0991 47.46979 C 12.07585 47.90233 10.39508 48.53557 9.32883 48.88676 C 8.26256 49.23796 6.51688 49.73592 5.41423 50.00096 C 4.3116 50.26599 2.51364 50.62128 1.38165 50.797 C .24966 50.9727 -1.59004 51.18404 -2.74431 51.26741 C -3.89857 51.35077 -5.7685 51.40955 -6.93744 51.39787 C -8.1064 51.38617 -9.99353 51.29124 -11.16933 51.18315 C -12.34512 51.07507 -14.23744 50.82498 -15.41176 50.61877 C -16.58609 50.41258 -18.46841 50.00154 -19.6331 49.69698 C -20.79778 49.39243 -22.65889 48.82597 -23.80598 48.42377 C -24.9531 48.02156 -26.77977 47.29771 -27.90068 46.79814 C -29.0216 46.29857 -30.7982 45.41824 -31.88483 44.82321 C -32.97142 44.22816 -34.68823 43.19774 -35.73227 42.5095 C -36.7763 41.82129 -38.4162 40.64145 -39.40948 39.86295 C -40.40276 39.08443 -41.95596 37.76334 -42.89117 36.89854 C -43.8264 36.03375 -45.28067 34.57707 -46.14987 33.63016 C -47.01907 32.68326 -48.35954 31.09781 -49.15579 30.0739 C -49.95204 29.04997 -51.1721 27.34569 -51.88869 26.25047 C -52.6053 25.15527 -53.69038 23.34068 -54.32057 22.18036 C -54.95073 21.02005 -55.89232 19.10611 -56.43062 17.88776 C -56.96893 16.6694 -57.7595 14.66838 -58.20038 13.39929 C -58.64125 12.13019 -59.26953 10.0531 -59.60817 8.74092 C -59.94682 7.42873 -60.4081 5.28873 -60.64107 3.9419 C -60.87404 2.59506 -61.16403 .40681 -61.28726 -.9661 C -61.41049 -2.33902 -61.51814 -4.56313 -61.5293 -5.95317 C -61.54047 -7.34322 -61.47046 -9.58656 -61.3677 -10.98454 C -61.26497 -12.38254 -61.00754 -14.63219 -60.78882 -16.0289 C -60.57008 -17.42561 -60.12537 -19.66547 -59.79121 -21.05112 C -59.45708 -22.43675 -58.83 -24.65103 -58.38046 -26.0157 C -57.93094 -27.38037 -57.11517 -29.55243 -56.55121 -30.8867 C -55.98724 -32.22098 -54.9913 -34.33778 -54.31572 -35.63226 C -53.6401 -36.92674 -52.4671 -38.97153 -51.68195 -40.2164 C -50.89679 -41.46129 -49.54756 -43.41832 -48.65683 -44.60452 C -47.7661 -45.79074 -46.25415 -47.64734 -45.26215 -48.76582 C -44.27013 -49.8843 -42.59563 -51.62367 -41.50708 -52.6657 C -40.41852 -53.7077 -38.59488 -55.31798 -37.41655 -56.27596 C -36.23819 -57.23392 -34.2765 -58.70497 -33.0144 -59.57011 C -31.75232 -60.43524 -29.65881 -61.74626 -28.32024 -62.51132 C -26.98166 -63.27638 -24.77368 -64.42496 -23.3669 -65.0842 C -21.96008 -65.74341 -19.64775 -66.71597 -18.18102 -67.26259 C -16.71426 -67.8092 -14.3132 -68.59514 -12.79565 -69.02386 C -11.27809 -69.45259 -8.80211 -70.04646 -7.2435 -70.35258 C -5.68489 -70.65872 -3.15189 -71.05074 -1.56229 -71.23029 C .02728 -71.40984 2.60246 -71.596 4.2132 -71.64673 C 5.8239 -71.69748 8.4253 -71.67725 10.04665 -71.59604 C 11.668 -71.51483 14.27762 -71.27586 15.8988 -71.06143 C 17.51999 -70.84698 20.12132 -70.39798 21.73105 -70.0505 C 23.34079 -69.70303 25.91345 -69.03798 27.50067 -68.55707 C 29.0879 -68.07616 31.61652 -67.19653 33.17064 -66.58438 C 34.72476 -65.97223 37.19217 -64.88638 38.70168 -64.14508 C 40.2112 -63.40378 42.59596 -62.1094 44.05019 -61.2416 C 45.50443 -60.37375 47.79396 -58.8798 49.18279 -57.89032 C 50.5716 -56.90085 52.74725 -55.21654 54.05984 -54.11 C 55.3724 -53.00346 57.41621 -51.1331 58.64293 -49.91515 C 59.86967 -48.69717 61.76973 -46.6538 62.90129 -45.3317 C 64.03284 -44.00958 65.77138 -41.80534 66.7984 -40.38629 C 67.82541 -38.96725 69.3882 -36.61209 70.30328 -35.10423 C 71.21838 -33.59637 72.59897 -31.10614 73.3938 -29.51869 C 74.18864 -27.93124 75.36467 -25.32062 76.0319 -23.6629 C 76.69916 -22.00519 77.66814 -19.28833 78.20288 -17.57097 C 78.73761 -15.85362 79.48999 -13.05167 79.88593 -11.28543 C 80.28188 -9.51917 80.80374 -6.64513 81.05653 -4.84105 C 81.30933 -3.03697 81.60147 -.11307 81.70793 1.71713 C 81.81439 3.54736 81.86671 6.50499 81.82385 8.34993 C 81.78098 10.19484 81.59206 13.1669 81.39893 15.014 C 81.20581 16.86113 80.77634 19.82599 80.43196 21.6627 C 80.08759 23.49944 79.41261 26.43799 78.91689 28.25189 C 78.42116 30.06581 77.50386 32.9574 76.85909 34.73622 C 76.21431 36.51506 75.06168 39.34131 74.26978 41.07246 C 73.47787 42.80362 72.087 45.54173 71.15158 47.2132 C 70.21614 48.88469 68.60194 51.51921 67.52782 53.11934 C 66.45369 54.71947 64.61769 57.22939 63.40996 58.74588 C 62.2022 60.26236 60.15768 62.6266 58.82321 64.04906 C 57.48875 65.47151 55.2461 67.68039 53.792 68.99791 C 52.33792 70.31543 49.90857 72.34264 48.34315 73.54485 C 46.77773 74.74707 44.17703 76.58449 42.5095 77.66272 C 40.842 78.74095 38.08438 80.37125 36.32483 81.31606 C 34.56528 82.26088 31.66891 83.66864 29.82787 84.47232 C 27.98682 85.27602 24.96715 86.45258 23.05582 87.10852 C 21.14447 87.76445 18.02184 88.69846 16.05226 89.19989 C 14.08267 89.70134 10.87556 90.37994 8.86047 90.72256 C 6.84538 91.0652 3.57639 91.49008 1.52888 91.66931 C -.51857 91.84853 -3.82944 92.00203 -5.89641 92.01428 C -7.96341 92.02655 -11.29541 91.91328 -13.36848 91.7577 C -15.44159 91.60213 -18.77243 91.21771 -20.83778 90.893 C -22.90314 90.56828 -26.21037 89.91118 -28.25415 89.41737 C -30.29791 88.92355 -33.55988 87.99536 -35.5679 87.33394 C -37.57594 86.67253 -40.768 85.47682 -42.72664 84.65036 C -44.6853 83.82388 -47.78876 82.36473 -49.68451 81.3773 C -51.58028 80.38988 -54.57068 78.67776 -56.38997 77.53366 C -58.20923 76.38956 -61.06665 74.42633 -62.79662 73.13135 C -64.5266 71.83636 -67.23007 69.63815 -68.85846 68.20032 C -70.48685 66.7625 -73.01819 64.34204 -74.53293 62.76842 C -76.04765 61.19478 -78.38568 58.55894 -79.77556 56.85866 C -81.16542 55.15839 -83.296 52.33072 -84.55019 50.51395 C -85.80435 48.69716 -87.70601 45.6872 -88.81477 43.76454 C -89.92351 41.8419 -91.58636 38.6732 -92.54129 36.65685 C -93.4962 34.64049 -94.90485 31.33023 -95.6972 29.23201 C -96.48956 27.13379 -97.62901 23.70085 -98.25208 21.53433 C -98.87517 19.36783 -99.7395 15.83844 -100.18791 13.61728 C -100.63632 11.3961 -101.21577 7.78746 -101.48396 5.52565 C -101.75214 3.26384 -102.03612 -.3967 -102.12082 -2.68427 C -102.20552 -4.97185 -102.19547 -8.66273 -102.09451 -10.96153 C -101.99358 -13.26035 -101.68184 -16.95755 -101.3933 -19.25247 C -101.10477 -21.54738 -100.48987 -25.22607 -100.01491 -27.50171 C -99.53995 -29.77736 -97.97006 -35.65372 -97.97006 -35.65372 "/>
<symbol id="font_1_1">
<path d="M .07700001 .07700001 L .18300002 .18 C .33900003 .31800003 .39900003 .372 .39900003 .47200004 C .39900003 .586 .30900003 .666 .18700002 .666 C .074 .666 0 .574 0 .485 C 0 .42900003 .05 .42900003 .053000008 .42900003 C .07000001 .42900003 .105000007 .441 .105000007 .48200003 C .105000007 .508 .08700001 .53400006 .052000006 .53400006 C .044000005 .53400006 .042000008 .53400006 .039 .53300008 C .062000004 .59800007 .11600001 .63500007 .17400001 .63500007 C .26500003 .63500007 .308 .554 .308 .47200004 C .308 .39200003 .25800003 .31300003 .20300003 .25100003 L .011000004 .037 C 0 .026 0 .024 0 0 L .37100003 0 L .39900003 .17400001 L .374 .17400001 C .36900003 .14400001 .36200003 .1 .352 .085 C .345 .07700001 .279 .07700001 .257 .07700001 L .07700001 .07700001 Z "/>
</symbol>
<use xlink:href="#font_1_1" transform="matrix(27.673888,0,0,-27.673888,475.5448,372.52217)"/>
<symbol id="font_0_1">
<path d="M .23800002 .38400004 L .351 .38400004 C .31800003 .23600002 .30900003 .19300002 .30900003 .126 C .30900003 .111 .30900003 .08400001 .317 .05 C .327 .0060000007 .338 0 .35300002 0 C .373 0 .39400003 .018000002 .39400003 .038000004 C .39400003 .044 .39400003 .046 .388 .060000004 C .359 .13200002 .359 .19700001 .359 .22500003 C .359 .27800004 .366 .33200003 .377 .38400004 L .491 .38400004 C .504 .38400004 .54 .38400004 .54 .418 C .54 .44200004 .519 .44200004 .5 .44200004 L .165 .44200004 C .143 .44200004 .105 .44200004 .061000006 .395 C .026000003 .35600005 0 .31000004 0 .305 C 0 .30400003 0 .29500003 .012 .29500003 C .020000002 .29500003 .022000002 .29900003 .028000003 .307 C .077 .38400004 .135 .38400004 .15500002 .38400004 L .21200001 .38400004 C .18000002 .263 .12600002 .14200002 .08400001 .051000004 C .076000008 .036000004 .076000008 .034 .076000008 .027000003 C .076000008 .008000001 .092 0 .105 0 C .135 0 .143 .028 .15500002 .065000008 C .16900002 .111 .16900002 .113000009 .18200001 .16300002 L .23800002 .38400004 Z "/>
</symbol>
<use xlink:href="#font_0_1" transform="matrix(27.673888,0,0,-27.673888,488.7444,372.82658)"/>
<symbol id="font_1_3">
<path d="M .266 .165 L .266 .078 C .266 .042000005 .26400004 .031000002 .19000001 .031000002 L .16900002 .031000002 L .16900002 0 C .21000001 .003 .26200003 .003 .30400003 .003 C .34600003 .003 .39900003 .003 .44000004 0 L .44000004 .031000002 L .41900004 .031000002 C .34500004 .031000002 .34300003 .042000005 .34300003 .078 L .34300003 .165 L .44300003 .165 L .44300003 .19600001 L .34300003 .19600001 L .34300003 .651 C .34300003 .671 .34300003 .67700007 .32700003 .67700007 C .31800003 .67700007 .31500004 .67700007 .307 .665 L 0 .19600001 L 0 .165 L .266 .165 M .272 .19600001 L .028 .19600001 L .272 .569 L .272 .19600001 Z "/>
</symbol>
<use xlink:href="#font_1_3" transform="matrix(27.673888,0,0,-27.673888,591.65536,373.68605)"/>
<use xlink:href="#font_0_1" transform="matrix(27.673888,0,0,-27.673888,605.4638,373.99046)"/>
<symbol id="font_2_1">
<path d="M .26600004 .373 L .385 .373 C .37 .313 .348 .22200002 .348 .143 C .348 .103 .35300005 .076 .35900004 .054000006 C .375 .0040000008 .388 0 .40400005 0 C .42700006 0 .45100004 .021000002 .45100004 .045 C .45100004 .053000004 .449 .057000005 .44300003 .067 C .42400003 .104 .40600003 .16100002 .40600003 .24300002 C .40600003 .262 .40600003 .30200003 .42000003 .373 L .545 .373 C .563 .373 .57100006 .373 .582 .381 C .596 .391 .59900006 .407 .59900006 .412 C .59900006 .441 .573 .441 .556 .441 L .179 .441 C .13800001 .441 .11 .432 .065000008 .39000003 C .039000006 .367 0 .313 0 .304 C 0 .292 .013 .292 .017 .292 C .028000005 .292 .029 .294 .035000005 .303 C .08600001 .373 .148 .373 .17 .373 L .23100002 .373 C .2 .263 .14600002 .14500001 .11600001 .085 C .11 .072000008 .10000001 .051000004 .097 .047000003 C .096 .043 .09400001 .039 .09400001 .032 C .09400001 .016 .106000009 0 .12900001 0 C .16900002 0 .18 .045 .20400001 .135 L .26600004 .373 Z "/>
</symbol>
<use xlink:href="#font_2_1" transform="matrix(19.371666,0,0,-19.371666,348.08558,298.5048)"/>
<path transform="matrix(2.7777777,0,0,-2.7777777,347.21388,302.28886)" stroke-width=".398" stroke-linecap="butt" stroke-miterlimit="10" stroke-linejoin="miter" fill="none" stroke="#000000" d="M 0 0 L 4.909 0 "/>
<symbol id="font_3_1">
<path d="M .442 .18200001 L .40800003 .18200001 C .40500004 .16000001 .39500005 .101 .38200004 .091000009 C .374 .085 .29700003 .085 .28300003 .085 L .099 .085 C .20400003 .178 .23900002 .20600002 .29900003 .25300003 C .37300004 .312 .442 .374 .442 .469 C .442 .59000006 .33600004 .66400006 .20800004 .66400006 C .084 .66400006 0 .577 0 .485 C 0 .43400003 .043000007 .42900003 .053000004 .42900003 C .077 .42900003 .10600001 .446 .10600001 .48200003 C .10600001 .5 .099 .535 .047000007 .535 C .078 .606 .146 .628 .19300002 .628 C .293 .628 .34500004 .55 .34500004 .469 C .34500004 .38200004 .28300003 .31300003 .25100003 .277 L .010000005 .039 C 0 .030000002 0 .028 0 0 L .41200004 0 L .442 .18200001 Z "/>
</symbol>
<use xlink:href="#font_3_1" transform="matrix(19.371666,0,0,-19.371666,349.73707,318.74998)"/>
<symbol id="font_3_3">
<path d="M .092 .578 C .143 .565 .17300001 .565 .18900001 .565 C .321 .565 .39900003 .65500006 .39900003 .67 C .39900003 .681 .39200003 .684 .38700003 .684 C .38500003 .684 .38300003 .684 .37900005 .681 C .35500003 .672 .30200003 .652 .22800002 .652 C .20000002 .652 .14700002 .654 .08200001 .679 C .072000008 .684 .07 .684 .069 .684 C .056 .684 .056 .67300006 .056 .657 L .056 .36200003 C .056 .34500004 .056 .33300004 .072000008 .33300004 C .08100001 .33300004 .08200001 .33500005 .092 .34700004 C .13500002 .40200005 .19600001 .41000004 .231 .41000004 C .291 .41000004 .31800003 .36200003 .323 .35400004 C .34100003 .32100005 .34700004 .28300003 .34700004 .22500001 C .34700004 .19500001 .34700004 .136 .31700004 .09200001 C .29200004 .056 .24900002 .032 .20000002 .032 C .13500002 .032 .06800001 .068 .043000007 .134 C .08100001 .13100001 .1 .156 .1 .183 C .1 .22600001 .063 .23400001 .050000006 .23400001 C .048000009 .23400001 0 .23400001 0 .18 C 0 .09 .08200001 0 .20200002 0 C .33 0 .442 .095000009 .442 .221 C .442 .33400003 .35600005 .43800003 .23200003 .43800003 C .18800003 .43800003 .136 .42700003 .092 .38900004 L .092 .578 Z "/>
</symbol>
<use xlink:href="#font_3_3" transform="matrix(19.371666,0,0,-19.371666,350.8871,190.78462)"/>
<use xlink:href="#font_2_1" transform="matrix(19.371666,0,0,-19.371666,361.56895,190.5909)"/>
<path transform="matrix(2.7777777,0,0,-2.7777777,349.66667,194.37497)" stroke-width=".398" stroke-linecap="butt" stroke-miterlimit="10" stroke-linejoin="miter" fill="none" stroke="#000000" d="M 0 0 L 8.88 0 "/>
<use xlink:href="#font_3_1" transform="matrix(19.371666,0,0,-19.371666,357.70375,210.83609)"/>
<symbol id="font_3_5">
<path d="M .36400003 .31800003 C .36400003 .07 .24100001 .032 .18100001 .032 C .15900001 .032 .106000009 .034 .078999999 .065000008 C .120000008 .069000009 .122999999 .10300001 .122999999 .11200001 C .122999999 .13700001 .106000009 .15900001 .076000008 .15900001 C .046 .15900001 .028 .139 .028 .11000001 C .028 .042000005 .08500001 0 .18200001 0 C .32500003 0 .46 .135 .46 .34900005 C .46 .597 .35000003 .684 .233 .684 C .2 .684 .131 .679 .074 .623 C .040000004 .59000006 0 .551 0 .46100004 C 0 .33400003 .100999999 .24000001 .21800001 .24000001 C .29800005 .24000001 .34100003 .293 .36400003 .33800004 L .36400003 .31800003 M .223 .268 C .184 .268 .147 .28100003 .119 .32700003 C .096 .36400003 .096 .40600003 .096 .46100004 C .096 .519 .096 .559 .125 .59900006 C .149 .634 .18200001 .65500006 .23400001 .65500006 C .28500004 .65500006 .31500004 .623 .33100004 .597 C .35800005 .555 .36100004 .48500005 .36100004 .45000003 C .36100004 .32000003 .286 .268 .223 .268 Z "/>
</symbol>
<use xlink:href="#font_3_5" transform="matrix(19.371666,0,0,-19.371666,351.82109,64.59013)"/>
<use xlink:href="#font_2_1" transform="matrix(19.371666,0,0,-19.371666,362.68003,64.396419)"/>
<path transform="matrix(2.7777777,0,0,-2.7777777,350.775,68.18055)" stroke-width=".398" stroke-linecap="butt" stroke-miterlimit="10" stroke-linejoin="miter" fill="none" stroke="#000000" d="M 0 0 L 8.88 0 "/>
<use xlink:href="#font_3_1" transform="matrix(19.371666,0,0,-19.371666,358.81486,84.6416)"/>
<use xlink:href="#font_0_1" transform="matrix(27.673888,0,0,-27.673888,277.88606,352.0238)"/>
<symbol id="font_1_2">
<path d="M .24800003 .37400005 C .33 .40100003 .388 .47100006 .388 .55 C .388 .632 .3 .688 .204 .688 C .10300001 .688 .027000003 .628 .027000003 .55200007 C .027000003 .519 .049000004 .5 .078 .5 C .109000008 .5 .12900001 .522 .12900001 .55100008 C .12900001 .6010001 .082 .6010001 .067 .6010001 C .098 .65000006 .164 .66300007 .20000002 .66300007 C .24100003 .66300007 .29600004 .64100006 .29600004 .55100008 C .29600004 .53900006 .29400004 .48100005 .268 .43700005 C .238 .38900004 .204 .38600005 .17900002 .38500003 C .171 .38400004 .14700002 .38200004 .14000002 .38200004 C .132 .38100005 .125 .38000003 .125 .37000004 C .125 .35900004 .132 .35900004 .14900002 .35900004 L .19300002 .35900004 C .275 .35900004 .312 .29100005 .312 .193 C .312 .057000005 .24300003 .028 .199 .028 C .15600002 .028 .081 .045 .046000005 .104 C .081 .09900001 .11200001 .12100001 .11200001 .15900001 C .11200001 .19500001 .085 .215 .056 .215 C .031999999 .215 0 .201 0 .157 C 0 .06600001 .093 0 .20200002 0 C .32400004 0 .41500003 .091000009 .41500003 .193 C .41500003 .27500005 .35200004 .35300005 .24800003 .37400005 Z "/>
</symbol>
<use xlink:href="#font_1_2" transform="matrix(27.673888,0,0,-27.673888,145.62062,347.59489)"/>
<use xlink:href="#font_0_1" transform="matrix(27.673888,0,0,-27.673888,159.04439,347.29048)"/>
<symbol id="font_1_4">
<path d="M .39900003 .223 C .39900003 .34200005 .317 .44200004 .209 .44200004 C .16100002 .44200004 .118000019 .42600004 .082 .39100004 L .082 .586 C .10200001 .58000007 .135 .573 .16700001 .573 C .29 .573 .36 .66400006 .36 .67700007 C .36 .683 .357 .688 .35 .688 C .349 .688 .347 .688 .342 .68500009 C .322 .67600008 .273 .656 .20600002 .656 C .16600001 .656 .120000008 .66300007 .073 .6840001 C .065 .68700006 .06300001 .68700006 .061000009 .68700006 C .051000004 .68700006 .051000004 .679 .051000004 .66300007 L .051000004 .36700005 C .051000004 .34900005 .051000004 .34100003 .065 .34100003 C .07200001 .34100003 .074 .34400005 .07800001 .35000003 C .08900002 .36600004 .12600002 .42000006 .207 .42000006 C .259 .42000006 .284 .37400005 .292 .35600005 C .308 .31900005 .31 .28000004 .31 .23 C .31 .19500001 .31 .135 .286 .093 C .262 .054000006 .22500001 .028 .17900002 .028 C .106000009 .028 .049000008 .08100001 .032 .14000002 C .035 .13900002 .038000008 .13800001 .049000008 .13800001 C .082 .13800001 .09900001 .163 .09900001 .187 C .09900001 .21100001 .082 .23600002 .049000008 .23600002 C .035 .23600002 0 .22900002 0 .18300002 C 0 .097 .069000009 0 .18100001 0 C .297 0 .39900003 .096 .39900003 .223 Z "/>
</symbol>
<use xlink:href="#font_1_4" transform="matrix(27.673888,0,0,-27.673888,19.830914,344.2949)"/>
<use xlink:href="#font_0_1" transform="matrix(27.673888,0,0,-27.673888,33.0333,343.99049)"/>
<symbol id="font_3_2">
<path d="M .219 .35400004 C .29700003 .35400004 .35300002 .3 .35300002 .193 C .35300002 .069000009 .28100003 .032 .223 .032 C .18300002 .032 .095 .043000007 .053000008 .102000009 C .10000001 .10400001 .111 .13700001 .111 .158 C .111 .19 .087 .213 .056000007 .213 C .028 .213 0 .19600001 0 .155 C 0 .061000006 .104 0 .22500001 0 C .36400003 0 .46 .09300001 .46 .193 C .46 .27100004 .39600004 .34900005 .286 .37200005 C .39100004 .41000004 .42900003 .48500005 .42900003 .546 C .42900003 .625 .33800004 .684 .22700002 .684 C .116 .684 .031 .63 .031 .55 C .031 .51600006 .053000008 .49700005 .083000008 .49700005 C .11400001 .49700005 .134 .52 .134 .548 C .134 .577 .11400001 .598 .083000008 .6 C .118 .644 .187 .65500006 .22400002 .65500006 C .26900003 .65500006 .33200003 .633 .33200003 .546 C .33200003 .504 .31800003 .45800004 .29200004 .42700003 C .25900004 .38900004 .23100002 .38700003 .18100001 .38400004 C .156 .38200004 .154 .38200004 .149 .38100005 C .147 .38100005 .139 .37900005 .139 .36800004 C .139 .35400004 .148 .35400004 .165 .35400004 L .219 .35400004 Z "/>
</symbol>
<use xlink:href="#font_3_2" transform="matrix(19.371666,0,0,-19.371666,330.1238,426.10127)"/>
<use xlink:href="#font_2_1" transform="matrix(19.371666,0,0,-19.371666,340.98005,425.90757)"/>
<path transform="matrix(2.7777777,0,0,-2.7777777,329.07777,429.69166)" stroke-width=".398" stroke-linecap="butt" stroke-miterlimit="10" stroke-linejoin="miter" fill="none" stroke="#000000" d="M 0 0 L 8.88 0 "/>
<use xlink:href="#font_3_1" transform="matrix(19.371666,0,0,-19.371666,337.1148,446.1527)"/>
<symbol id="font_3_4">
<path d="M .46500004 .624 C .47500003 .63600006 .47500003 .638 .47500003 .66400006 L .21300003 .66400006 C .17300001 .66400006 .162 .665 .12600002 .668 C .07400001 .672 .072000008 .679 .06900001 .69600006 L .035000005 .69600006 L 0 .48200003 L .034 .48200003 C .036000007 .49700005 .046000005 .563 .062 .573 C .07 .579 .15100003 .579 .16600001 .579 L .38400004 .579 C .35200004 .537 .30100004 .47500003 .28000004 .44700004 C .14900002 .27500005 .13700003 .116000007 .13700003 .057000005 C .13700003 .046000005 .13700003 0 .18400002 0 C .23200003 0 .23200003 .045 .23200003 .058000007 L .23200003 .098000008 C .23200003 .29200004 .272 .38100005 .31500004 .43500004 L .46500004 .624 Z "/>
</symbol>
<use xlink:href="#font_3_4" transform="matrix(19.371666,0,0,-19.371666,321.9143,567.59298)"/>
<use xlink:href="#font_2_1" transform="matrix(19.371666,0,0,-19.371666,332.46336,567.39926)"/>
<path transform="matrix(2.7777777,0,0,-2.7777777,320.5583,571.1833)" stroke-width=".398" stroke-linecap="butt" stroke-miterlimit="10" stroke-linejoin="miter" fill="none" stroke="#000000" d="M 0 0 L 8.88 0 "/>
<use xlink:href="#font_3_1" transform="matrix(19.371666,0,0,-19.371666,328.59819,587.6444)"/>
</g>
</svg>
