<?xml version="1.0" encoding="UTF-8" standalone="no"?>
<!DOCTYPE svg PUBLIC "-//W3C//DTD SVG 1.1//EN" "http://www.w3.org/Graphics/SVG/1.1/DTD/svg11.dtd">
<svg xmlns="http://www.w3.org/2000/svg" xmlns:xlink="http://www.w3.org/1999/xlink" version="1.1" width="517.0361pt" height="462.04444pt" viewBox="0 0 517.0361 462.04444">
<g enable-background="new">
<path transform="matrix(2.7777777,0,0,-2.7777777,245.99721,367.00553)" stroke-width=".3985" stroke-linecap="butt" stroke-miterlimit="10" stroke-linejoin="miter" fill="none" stroke="#000000" d="M -85.04037 0 L 84.58209 0 "/>
<path transform="matrix(2.7777777,0,0,-2.7777777,480.94746,367.00553)" stroke-width=".31879" stroke-linecap="round" stroke-linejoin="round" fill="none" stroke="#000000" d="M -1.19551 1.59401 C -1.09587 .99626 0 .09961 .29886 0 C 0 -.09961 -1.09587 -.99626 -1.19551 -1.59401 "/>
<symbol id="font_0_3">
<path d="M .305 .31300003 C .311 .33900003 .334 .43100003 .404 .43100003 C .409 .43100003 .433 .43100003 .454 .418 C .426 .41300003 .40600003 .388 .40600003 .36400003 C .40600003 .34800003 .417 .32900004 .444 .32900004 C .46600003 .32900004 .498 .34700004 .498 .38700003 C .498 .43900005 .439 .45300005 .405 .45300005 C .347 .45300005 .312 .40000005 .3 .37700004 C .275 .44300003 .221 .45300005 .19200002 .45300005 C .08800001 .45300005 .031000002 .32400004 .031000002 .29900003 C .031000002 .28900004 .041 .28900004 .043000007 .28900004 C .051000008 .28900004 .054000006 .291 .056 .3 C .09 .40600003 .156 .43100003 .19000001 .43100003 C .209 .43100003 .244 .42200003 .244 .36400003 C .244 .33300004 .22700002 .26600004 .19000001 .126 C .17400001 .064 .13900002 .022000002 .095000009 .022000002 C .08900001 .022000002 .06600001 .022000002 .045 .035 C .07000001 .040000004 .09200001 .061 .09200001 .089 C .09200001 .116000007 .07000001 .124000009 .055000009 .124000009 C .025 .124000009 0 .098000008 0 .06600001 C 0 .020000002 .050000006 0 .094000007 0 C .16000001 0 .19600001 .07000001 .19900002 .076000008 C .21100001 .039 .24700003 0 .307 0 C .41 0 .467 .12900001 .467 .15400002 C .467 .16400002 .458 .16400002 .455 .16400002 C .446 .16400002 .444 .16000001 .442 .15300001 C .409 .046 .341 .022000002 .30900003 .022000002 C .27 .022000002 .254 .054 .254 .08800001 C .254 .11000001 .26 .13200002 .271 .17600002 L .305 .31300003 Z "/>
</symbol>
<use xlink:href="#font_0_3" transform="matrix(27.673888,0,0,-27.673888,492.79698,373.26554)"/>
<path transform="matrix(2.7777777,0,0,-2.7777777,245.99721,367.00553)" stroke-width=".3985" stroke-linecap="butt" stroke-miterlimit="10" stroke-linejoin="miter" fill="none" stroke="#000000" d="M 0 -34.01564 L 0 118.59775 "/>
<path transform="matrix(0,-2.7777777,-2.7777777,-0,245.99721,37.56735)" stroke-width=".31879" stroke-linecap="round" stroke-linejoin="round" fill="none" stroke="#000000" d="M -1.19551 1.59401 C -1.09587 .99626 0 .09961 .29886 0 C 0 -.09961 -1.09587 -.99626 -1.19551 -1.59401 "/>
<symbol id="font_0_4">
<path d="M .45700003 .586 C .461 .6 .461 .602 .461 .609 C .461 .62700006 .447 .63600006 .432 .63600006 C .42200003 .63600006 .40600003 .63 .397 .615 C .395 .61 .387 .579 .38300003 .561 C .37600003 .535 .36900003 .508 .363 .48100005 L .318 .301 C .314 .286 .271 .21600002 .20500002 .21600002 C .15400002 .21600002 .143 .26000003 .143 .29700003 C .143 .34300003 .16000001 .40500004 .194 .49300004 C .21000001 .53400006 .21400002 .545 .21400002 .56500008 C .21400002 .61 .18200001 .6470001 .13200002 .6470001 C .037 .6470001 0 .50200006 0 .49300004 C 0 .48300005 .01 .48300005 .012 .48300005 C .022000002 .48300005 .023 .485 .028000003 .50100007 C .055000009 .595 .095000009 .625 .12900001 .625 C .13700001 .625 .15400002 .625 .15400002 .59300008 C .15400002 .568 .14400001 .54200008 .13700001 .523 C .097 .41700004 .079 .36 .079 .31300003 C .079 .224 .142 .194 .201 .194 C .24000003 .194 .274 .21100001 .30200003 .23900002 C .289 .187 .277 .13800001 .237 .08500001 C .21100001 .051 .17300001 .022 .127 .022 C .113000009 .022 .068 .025000006 .051000008 .06400001 C .067 .06400001 .080000009 .06400001 .094000007 .076000008 C .104 .08500001 .11400001 .098000008 .11400001 .117000009 C .11400001 .148 .087000008 .15200001 .07700001 .15200001 C .054000006 .15200001 .021 .136 .021 .087000008 C .021 .037 .065000008 0 .127 0 C .23 0 .333 .091000009 .361 .20400001 L .45700003 .586 Z "/>
</symbol>
<use xlink:href="#font_0_4" transform="matrix(27.673888,0,0,-27.673888,239.5192,26.812033)"/>
<path transform="matrix(2.7777777,0,0,-2.7777777,245.99721,367.00553)" stroke-width=".79701" stroke-linecap="butt" stroke-miterlimit="10" stroke-linejoin="miter" fill="none" stroke="#000000" d="M 0 0 C 0 0 1.93834 .03621 2.6808 .083 C 3.42326 .12979 4.61322 .24371 5.3513 .3373 C 6.08939 .43088 7.26976 .61777 8.001 .75778 C 8.73225 .8978 9.90105 1.16075 10.62225 1.34683 C 11.34346 1.5329 12.49136 1.86838 13.19926 2.0995 C 13.90715 2.33064 15.03317 2.73763 15.72446 3.013 C 16.41576 3.28836 17.50948 3.76622 18.18207 4.08482 C 18.85468 4.40343 19.92021 4.94942 20.57228 5.3098 C 21.22435 5.67018 22.25441 6.28194 22.88203 6.68263 C 23.50967 7.08333 24.49493 7.75865 25.09584 8.1983 C 25.69675 8.63794 26.6418 9.3751 27.21352 9.85143 C 27.78523 10.32773 28.67654 11.12054 29.21698 11.63179 C 29.75742 12.14304 30.6013 12.99194 31.109 13.53665 C 31.61667 14.08138 32.40392 14.98227 32.87631 15.55836 C 33.3487 16.13446 34.07903 17.08443 34.51393 17.68898 C 34.94882 18.29353 35.61568 19.28528 36.01135 19.91574 C 36.40703 20.54619 37.01103 21.579 37.36603 22.23325 C 37.72102 22.88751 38.25735 23.95605 38.5702 24.63121 C 38.88307 25.30637 39.35135 26.40546 39.62134 27.09932 C 39.89133 27.79317 40.29092 28.92264 40.51666 29.63226 C 40.74242 30.34189 41.06813 31.49217 41.24846 32.21448 C 41.42879 32.93678 41.683 34.1063 41.8169 34.83827 C 41.95079 35.57025 42.1261 36.75145 42.21394 37.49063 C 42.30177 38.22981 42.40877 39.42276 42.45009 40.16632 C 42.49141 40.90988 42.51776 42.10521 42.51239 42.84978 C 42.507 43.59435 42.46368 44.7904 42.41115 45.53323 C 42.3586 46.27606 42.23392 47.46637 42.1335 48.20374 C 42.03307 48.94109 41.83322 50.11836 41.6871 50.84824 C 41.54099 51.57811 41.27136 52.74481 41.07982 53.46419 C 40.88826 54.18358 40.5433 55.32784 40.30643 56.03354 C 40.06955 56.73924 39.65262 57.86107 39.37215 58.5509 C 39.09166 59.24074 38.60843 60.33592 38.28471 61.00595 C 37.961 61.676 37.4048 62.73251 37.03903 63.38057 C 36.67328 64.02863 36.0534 65.05266 35.64796 65.67737 C 35.24252 66.30208 34.56071 67.28526 34.11679 67.88333 C 33.67287 68.48141 32.92912 69.41953 32.44807 69.98805 C 31.96701 70.55656 31.16554 71.4447 30.64955 71.9812 C 30.13356 72.51772 29.27782 73.35231 28.72908 73.85498 C 28.18036 74.35764 27.27408 75.13678 26.69443 75.60414 C 26.11478 76.07152 25.15851 76.79327 24.55077 77.22353 C 23.94302 77.65376 22.94707 78.31404 22.3137 78.70544 C 21.68033 79.09683 20.64288 79.6949 19.9858 80.04453 C 19.3287 80.39413 18.25542 80.91824 17.57744 81.22534 C 16.89946 81.53246 15.79506 81.99408 15.09903 82.25832 C 14.40298 82.52257 13.27196 82.90994 12.56087 83.13031 C 11.84978 83.35068 10.69714 83.67091 9.97337 83.84659 C 9.2496 84.02226 8.0779 84.26863 7.34447 84.39679 C 6.61102 84.52493 5.42682 84.68912 4.68692 84.77048 C 3.947 84.85184 2.75404 84.94807 2.01122 84.98328 C 1.26839 85.01848 .07661 85.03627 -.66693 85.02478 C -1.41049 85.01329 -2.60536 84.95856 -3.34784 84.90027 C -4.0903 84.842 -5.28125 84.70982 -6.01825 84.60439 C -6.75523 84.49895 -7.93141 84.2917 -8.6602 84.13985 C -9.38898 83.98798 -10.55312 83.70686 -11.27104 83.5092 C -11.98897 83.31155 -13.13123 82.95764 -13.8351 82.71503 C -14.53899 82.4724 -15.65733 82.04588 -16.3447 81.76003 C -17.03207 81.47418 -18.12141 80.98245 -18.78937 80.65445 C -19.4573 80.32646 -20.51328 79.7666 -21.15886 79.39574 C -21.80446 79.02486 -22.82193 78.39294 -23.44263 77.9814 C -24.06332 77.56985 -25.03893 76.87837 -25.633 76.42943 C -26.22705 75.98048 -27.16016 75.23009 -27.72475 74.74512 C -28.28935 74.26013 -29.16946 73.45319 -29.70232 72.93364 C -30.23518 72.4141 -31.06703 71.55324 -31.56569 71.00023 C -32.06435 70.4472 -32.83408 69.53108 -33.2967 68.9474 C -33.75932 68.36374 -34.47534 67.40437 -34.90057 66.79335 C -35.3258 66.18233 -35.97606 65.17944 -36.3617 64.54324 C -36.74734 63.90704 -37.33484 62.86723 -37.68007 62.20758 C -38.02531 61.54794 -38.54805 60.46973 -38.85051 59.78883 C -39.15295 59.10793 -39.60155 57.99815 -39.86003 57.30002 C -40.11853 56.60188 -40.49962 55.46994 -40.71387 54.75667 C -40.92813 54.0434 -41.23541 52.884 -41.40425 52.15886 C -41.57309 51.43373 -41.80786 50.26366 -41.931 49.52986 C -42.05414 48.79607 -42.21513 47.60966 -42.29175 46.86977 C -42.36836 46.12985 -42.45474 44.94063 -42.48384 44.1967 C -42.51294 43.45277 -42.52032 42.25298 -42.50198 41.50806 C -42.48366 40.76312 -42.41588 39.56853 -42.35149 38.82715 C -42.2871 38.08578 -42.1479 36.90039 -42.03745 36.1644 C -41.92699 35.42842 -41.71173 34.25023 -41.55475 33.52254 C -41.39778 32.79486 -41.10936 31.63565 -40.90596 30.91945 C -40.70256 30.20325 -40.3369 29.06311 -40.08842 28.3606 C -39.83997 27.65808 -39.40643 26.541 -39.1152 25.85619 C -38.82396 25.17137 -38.32303 24.08914 -37.98892 23.42448 C -37.6548 22.75981 -37.08272 21.70842 -36.70685 21.06537 C -36.33096 20.42233 -35.69493 19.40723 -35.27946 18.78937 C -34.864 18.1715 -34.16568 17.20255 -33.71199 16.61205 C -33.2583 16.02155 -32.4996 15.09383 -32.00952 14.53323 C -31.51944 13.97264 -30.7041 13.09947 -30.17981 12.57127 C -29.65553 12.04306 -28.7871 11.22041 -28.23079 10.72606 C -27.6745 10.23169 -26.75708 9.46632 -26.17023 9.00798 C -25.58337 8.54965 -24.61552 7.84285 -24.00056 7.42227 C -23.38562 7.0017 -22.37746 6.35764 -21.73761 5.97675 C -21.09775 5.59584 -20.05138 5.016 -19.3889 4.67651 C -18.72643 4.33702 -17.64502 3.82605 -16.96239 3.52943 C -16.27975 3.23282 -15.16798 2.79117 -14.46838 2.53806 C -13.76878 2.28494 -12.63457 1.9138 -11.91983 1.70502 C -11.2051 1.49623 -10.04343 1.19633 -9.31683 1.03288 C -8.59024 .86943 -7.41753 .64377 -6.68263 .52673 C -5.94774 .40971 -4.76134 .25958 -4.01997 .18944 C -3.27861 .1193 -2.08228 .04405 -1.33908 .02069 C -.59589 -.00264 .59341 -.00264 1.33652 .02069 C 2.07962 .04405 3.27632 .1193 4.01733 .18944 C 4.75833 .25958 5.94254 .40971 6.67743 .52673 C 7.41232 .64377 8.58722 .86978 9.31418 1.03288 C 10.04114 1.19597 11.20245 1.49396 11.91719 1.70238 C 12.63193 1.9108 13.76578 2.28203 14.46574 2.5355 C 15.1657 2.78897 16.27939 3.23245 16.96239 3.52943 C 17.64539 3.82642 18.72679 4.33702 19.3889 4.67651 C 20.05101 5.016 21.09511 5.59584 21.73495 5.97675 C 22.37482 6.35764 23.38562 7.00206 24.00056 7.42227 C 24.61552 7.84248 25.58118 8.54745 26.16768 9.00543 C 26.75417 9.46341 27.67194 10.22903 28.22824 10.7234 C 28.78455 11.21777 29.6527 12.04005 30.17726 12.56862 C 30.70181 13.0972 31.51917 13.97264 32.00952 14.53323 C 32.49988 15.09383 33.2583 16.01926 33.71199 16.6094 C 34.16568 17.19954 34.864 18.16895 35.27946 18.7868 C 35.69493 19.40468 36.33133 20.41977 36.70685 21.06282 C 37.08237 21.70586 37.65253 22.75726 37.98627 23.42192 C 38.32 24.08658 38.82104 25.16917 39.11264 25.85364 C 39.40425 26.53809 39.84006 27.65288 40.08842 28.3554 C 40.3368 29.0579 40.70029 30.20033 40.90332 30.9169 C 41.10635 31.63345 41.39476 32.7922 41.55211 33.5199 C 41.70944 34.24759 41.92662 35.42586 42.03745 36.16185 C 42.14827 36.89784 42.2871 38.08322 42.35149 38.8246 C 42.41588 39.56596 42.48366 40.76085 42.50198 41.5054 C 42.52032 42.24997 42.51294 43.44722 42.48384 44.1915 C 42.45474 44.93579 42.36836 46.12949 42.29175 46.86977 C 42.21513 47.61003 42.05414 48.7935 41.931 49.52731 C 41.80786 50.26111 41.57272 51.43336 41.40425 52.15886 C 41.23578 52.88435 40.93077 54.0434 40.71652 54.75667 C 40.50226 55.46994 40.1189 56.60225 39.86003 57.30002 C 39.60118 57.99779 39.1526 59.10602 38.85051 59.78618 C 38.54842 60.46635 38.02786 61.5431 37.68263 62.20238 C 37.33739 62.86166 36.74762 63.90147 36.3617 64.53804 C 35.97578 65.1746 35.32544 66.1793 34.90057 66.79071 C 34.47571 67.4021 33.76198 68.3611 33.29935 68.94476 C 32.83672 69.52843 32.06435 70.4442 31.56569 70.99757 C 31.06703 71.55096 30.23746 72.41374 29.70496 72.93364 C 29.17247 73.45355 28.29199 74.26013 27.7274 74.74512 C 27.1628 75.23009 26.2297 75.98085 25.63564 76.42943 C 25.04158 76.878 24.06633 77.56793 23.44527 77.97876 C 22.82422 78.38957 21.80446 79.0193 21.15886 79.39053 C 20.51328 79.76176 19.4596 80.32573 18.792 80.65445 C 18.12444 80.98318 17.03464 81.47418 16.34726 81.76003 C 15.65988 82.04588 14.54163 82.47276 13.83774 82.71503 C 13.13387 82.95728 11.99153 83.3089 11.27359 83.50656 C 10.55566 83.70421 9.39162 83.98761 8.66284 84.13985 C 7.93405 84.29207 6.75797 84.49895 6.02089 84.60439 C 5.2838 84.70982 4.09285 84.842 3.35039 84.90027 C 2.60793 84.95856 1.41304 85.01329 .6695 85.02478 C -.07405 85.03627 -1.26582 85.01848 -2.00867 84.98328 C -2.7515 84.94807 -3.94444 84.85257 -4.68436 84.77048 C -5.42427 84.68839 -6.60838 84.51974 -7.34181 84.39159 C -8.07526 84.26343 -9.24706 84.02155 -9.97083 83.84659 C -10.69458 83.67165 -11.84714 83.35068 -12.55823 83.13031 C -13.26932 82.90994 -14.40034 82.5222 -15.09637 82.25832 C -15.79242 81.99445 -16.8968 81.53438 -17.57478 81.228 C -18.25276 80.92162 -19.32614 80.3997 -19.98323 80.04971 C -20.64032 79.69974 -21.67776 79.09756 -22.31114 78.70544 C -22.94452 78.31332 -23.94046 77.6534 -24.5482 77.22353 C -25.15596 76.79364 -26.11221 76.07407 -26.69186 75.6067 C -27.27151 75.13933 -28.17744 74.35764 -28.72653 73.85498 C -29.27563 73.35231 -30.13356 72.52026 -30.64955 71.98376 C -31.16554 71.44725 -31.96483 70.55693 -32.44551 69.98805 C -32.9262 69.41916 -33.6703 68.48105 -34.11424 67.88333 C -34.55817 67.28561 -35.23961 66.304 -35.64542 65.68002 C -36.05121 65.05605 -36.67328 64.03429 -37.03903 63.38577 C -37.4048 62.73724 -37.95808 61.676 -38.28217 61.00595 C -38.60623 60.33592 -39.09395 59.24521 -39.37479 58.55609 C -39.65562 57.86699 -40.06992 56.74481 -40.30643 56.03874 C -40.54294 55.33267 -40.88826 54.1866 -41.07982 53.46684 C -41.27136 52.74709 -41.54099 51.58076 -41.6871 50.85089 C -41.83322 50.121 -42.03343 48.94374 -42.1335 48.20628 C -42.23355 47.46884 -42.35605 46.27861 -42.40858 45.53578 C -42.46112 44.79295 -42.50664 43.5969 -42.51239 42.85233 C -42.51813 42.10777 -42.49113 40.91245 -42.45009 40.16888 C -42.40904 39.42532 -42.3047 38.23236 -42.21649 37.49318 C -42.1283 36.754 -41.94852 35.57289 -41.81425 34.84093 C -41.68 34.10895 -41.42842 32.93942 -41.24846 32.21712 C -41.0685 31.49481 -40.74242 30.34445 -40.51666 29.63483 C -40.29092 28.92519 -39.89133 27.7958 -39.62134 27.10196 C -39.35135 26.40811 -38.88307 25.309 -38.5702 24.63385 C -38.25735 23.95871 -37.72066 22.89015 -37.36603 22.2359 C -37.0114 21.58163 -36.40921 20.54875 -36.0139 19.91829 C -35.61859 19.28784 -34.95174 18.29619 -34.51648 17.69164 C -34.08122 17.08708 -33.3487 16.13701 -32.87631 15.56091 C -32.40392 14.98483 -31.61887 14.08429 -31.11154 13.53922 C -30.60422 12.99413 -29.76006 12.14339 -29.21962 11.63179 C -28.6792 11.12018 -27.78787 10.32773 -27.21606 9.85143 C -26.64426 9.3751 -25.69966 8.63794 -25.0984 8.1983 C -24.49713 7.75865 -23.50958 7.08333 -22.88203 6.68263 C -22.2545 6.28194 -21.22627 5.66982 -20.57492 5.3098 C -19.92358 4.94978 -18.85986 4.4057 -18.18727 4.08746 C -17.51468 3.76923 -16.41867 3.29109 -15.72702 3.01564 C -15.03535 2.74017 -13.9098 2.33319 -13.2019 2.10207 C -12.49402 1.87093 -11.34602 1.53554 -10.6248 1.34947 C -9.9036 1.1634 -8.7349 .90071 -8.00365 .76033 C -7.2724 .61996 -6.09203 .43124 -5.35394 .3373 C -4.61586 .24335 -3.42627 .12979 -2.68344 .083 C -1.94061 .03621 0 0 0 0 "/>
<path transform="matrix(2.7777777,0,0,-2.7777777,245.99721,367.00553)" d="M 1.7933 42.52014 C 1.7933 43.51056 .99042 44.31346 0 44.31346 C -.99042 44.31346 -1.7933 43.51056 -1.7933 42.52014 C -1.7933 41.52971 -.99042 40.72682 0 40.72682 C .99042 40.72682 1.7933 41.52971 1.7933 42.52014 Z M 0 42.52014 "/>
<symbol id="font_0_2">
<path d="M .263 .316 L .43300004 .316 C .575 .316 .714 .42000003 .714 .532 C .714 .609 .648 .683 .517 .683 L .193 .683 C .17400001 .683 .163 .683 .163 .66400006 C .163 .652 .172 .652 .192 .652 C .205 .652 .223 .651 .235 .65000006 C .25100003 .648 .25700004 .64500007 .25700004 .634 C .25700004 .63000008 .256 .62700006 .25300003 .615 L .119 .078 C .109 .039 .10699999 .031000002 .028 .031000002 C .011 .031000002 0 .031000002 0 .012 C 0 0 .011999998 0 .015000001 0 C .043 0 .11400001 .003 .142 .003 C .163 .003 .185 .002 .206 .002 C .228 .002 .25000004 0 .27100004 0 C .27800004 0 .29100005 0 .29100005 .020000002 C .29100005 .031000002 .28200004 .031000002 .263 .031000002 C .226 .031000002 .198 .031000002 .198 .049000004 C .198 .055000005 .2 .060000004 .201 .066 L .263 .316 M .33500005 .614 C .344 .64900007 .34600003 .652 .38900004 .652 L .48500005 .652 C .568 .652 .621 .625 .621 .55600008 C .621 .517 .601 .43100003 .56200006 .395 C .512 .35000003 .45200003 .342 .40800003 .342 L .26700003 .342 L .33500005 .614 Z "/>
</symbol>
<use xlink:href="#font_0_2" transform="matrix(27.673888,0,0,-27.673888,90.59862,138.43058)"/>
<symbol id="font_1_1">
<path d="M .23200003 .00999999 C .23200003 .012999982 .23200003 .014999986 .215 .03199999 C .09 .15799999 .058 .347 .058 .5 C .058 .674 .096 .84800007 .21900001 .97300007 C .23200003 .985 .23200003 .98700007 .23200003 .99 C .23200003 .99700006 .22800002 1 .222 1 C .21200001 1 .12200001 .93200007 .06299999 .805 C .012000002 .69500008 0 .584 0 .5 C 0 .422 .011 .301 .066 .188 C .126 .065 .21200001 0 .222 0 C .22800002 0 .23200003 .0029999912 .23200003 .00999999 Z "/>
</symbol>
<use xlink:href="#font_1_1" transform="matrix(27.673888,0,0,-27.673888,113.84248,145.34905)"/>
<symbol id="font_2_1">
<path d="M .22600001 .63600006 C .22600001 .66300007 .224 .66400006 .19600001 .66400006 C .132 .601 .041 .6 0 .6 L 0 .564 C .023999997 .564 .09000001 .564 .14500001 .592 L .14500001 .082 C .14500001 .049000004 .14500001 .036000004 .04500001 .036000004 L .0069999995 .036000004 L .0069999995 0 C .024999999 .001 .148 .004 .185 .004 C .21600002 .004 .34200005 .001 .36400003 0 L .36400003 .036000004 L .32600004 .036000004 C .22600001 .036000004 .22600001 .049000004 .22600001 .082 L .22600001 .63600006 Z "/>
</symbol>
<use xlink:href="#font_2_1" transform="matrix(19.371666,0,0,-19.371666,127.29761,127.533359)"/>
<path transform="matrix(2.7777777,0,0,-2.7777777,125.18611,131.51111)" stroke-width=".398" stroke-linecap="butt" stroke-miterlimit="10" stroke-linejoin="miter" fill="none" stroke="#000000" d="M 0 0 L 3.971 0 "/>
<symbol id="font_2_2">
<path d="M .442 .18200001 L .40800003 .18200001 C .40500004 .16000001 .39500005 .101 .38200004 .091000009 C .374 .085 .29700003 .085 .28300003 .085 L .099 .085 C .20400003 .178 .23900002 .20600002 .29900003 .25300003 C .37300004 .312 .442 .374 .442 .469 C .442 .59000006 .33600004 .66400006 .20800004 .66400006 C .084 .66400006 0 .577 0 .485 C 0 .43400003 .043000007 .42900003 .053000004 .42900003 C .077 .42900003 .10600001 .446 .10600001 .48200003 C .10600001 .5 .099 .535 .047000007 .535 C .078 .606 .146 .628 .19300002 .628 C .293 .628 .34500004 .55 .34500004 .469 C .34500004 .38200004 .28300003 .31300003 .25100003 .277 L .010000005 .039 C 0 .030000002 0 .028 0 0 L .41200004 0 L .442 .18200001 Z "/>
</symbol>
<use xlink:href="#font_2_2" transform="matrix(19.371666,0,0,-19.371666,126.406528,147.975)"/>
<symbol id="font_0_1">
<path d="M .117000009 .194 C .117000009 .26 .092 .29900003 .05300001 .29900003 C .020000004 .29900003 0 .274 0 .246 C 0 .21900001 .020000004 .193 .05300001 .193 C .065000008 .193 .078 .197 .08800001 .206 C .091 .208 .092 .209 .093 .209 C .094000007 .209 .095000009 .208 .095000009 .194 C .095000009 .12 .06000001 .060000004 .027000003 .026999996 C .016000003 .016000003 .016000003 .013999999 .016000003 .0109999929 C .016000003 .003999993 .021000006 0 .026 0 C .037 0 .117000009 .077 .117000009 .194 Z "/>
</symbol>
<use xlink:href="#font_0_1" transform="matrix(27.673888,0,0,-27.673888,141.91884,143.77164)"/>
<symbol id="font_3_1">
<path d="M .26600004 .373 L .385 .373 C .37 .313 .348 .22200002 .348 .143 C .348 .103 .35300005 .076 .35900004 .054000006 C .375 .0040000008 .388 0 .40400005 0 C .42700006 0 .45100004 .021000002 .45100004 .045 C .45100004 .053000004 .449 .057000005 .44300003 .067 C .42400003 .104 .40600003 .16100002 .40600003 .24300002 C .40600003 .262 .40600003 .30200003 .42000003 .373 L .545 .373 C .563 .373 .57100006 .373 .582 .381 C .596 .391 .59900006 .407 .59900006 .412 C .59900006 .441 .573 .441 .556 .441 L .179 .441 C .13800001 .441 .11 .432 .065000008 .39000003 C .039000006 .367 0 .313 0 .304 C 0 .292 .013 .292 .017 .292 C .028000005 .292 .029 .294 .035000005 .303 C .08600001 .373 .148 .373 .17 .373 L .23100002 .373 C .2 .263 .14600002 .14500001 .11600001 .085 C .11 .072000008 .10000001 .051000004 .097 .047000003 C .096 .043 .09400001 .039 .09400001 .032 C .09400001 .016 .106000009 0 .12900001 0 C .16900002 0 .18 .045 .20400001 .135 L .26600004 .373 Z "/>
</symbol>
<use xlink:href="#font_3_1" transform="matrix(19.371666,0,0,-19.371666,156.03006,127.72707)"/>
<path transform="matrix(2.7777777,0,0,-2.7777777,155.15833,131.51111)" stroke-width=".398" stroke-linecap="butt" stroke-miterlimit="10" stroke-linejoin="miter" fill="none" stroke="#000000" d="M 0 0 L 4.909 0 "/>
<use xlink:href="#font_2_2" transform="matrix(19.371666,0,0,-19.371666,157.68152,147.975)"/>
<symbol id="font_1_2">
<path d="M .232 .5 C .232 .578 .22100002 .699 .16600001 .81200006 C .106 .93500009 .020000004 1 .009999998 1 C .0040000008 1 0 .99600008 0 .99 C 0 .98700007 0 .985 .019000002 .967 C .117000009 .86800006 .174 .709 .174 .5 C .174 .329 .137 .153 .012999997 .026999996 C 0 .014999986 0 .012999982 0 .00999999 C 0 .003999993 .0040000008 0 .009999998 0 C .020000004 0 .11000001 .06799999 .169 .195 C .22 .305 .232 .416 .232 .5 Z "/>
</symbol>
<use xlink:href="#font_1_2" transform="matrix(27.673888,0,0,-27.673888,173.69408,145.34905)"/>
</g>
</svg>
