<?xml version="1.0" encoding="UTF-8" standalone="no"?>
<!DOCTYPE svg PUBLIC "-//W3C//DTD SVG 1.1//EN" "http://www.w3.org/Graphics/SVG/1.1/DTD/svg11.dtd">
<svg xmlns="http://www.w3.org/2000/svg" xmlns:xlink="http://www.w3.org/1999/xlink" version="1.1" width="674.51669pt" height="648.34719pt" viewBox="0 0 674.51669 648.34719">
<g enable-background="new">
<path transform="matrix(2.7777777,0,0,-2.7777777,88.51944,332.8333)" stroke-width=".3985" stroke-linecap="butt" stroke-miterlimit="10" stroke-linejoin="miter" fill="none" stroke="#000000" d="M -28.3468 0 L 197.96938 0 "/>
<path transform="matrix(2.7777777,0,0,-2.7777777,638.4344,332.8333)" stroke-width=".31879" stroke-linecap="round" stroke-linejoin="round" fill="none" stroke="#000000" d="M -1.19551 1.59401 C -1.09587 .99626 0 .09961 .29886 0 C 0 -.09961 -1.09587 -.99626 -1.19551 -1.59401 "/>
<symbol id="font_0_4">
<path d="M .305 .31300003 C .311 .33900003 .334 .43100003 .404 .43100003 C .409 .43100003 .433 .43100003 .454 .418 C .426 .41300003 .40600003 .388 .40600003 .36400003 C .40600003 .34800003 .417 .32900004 .444 .32900004 C .46600003 .32900004 .498 .34700004 .498 .38700003 C .498 .43900005 .439 .45300005 .405 .45300005 C .347 .45300005 .312 .40000005 .3 .37700004 C .275 .44300003 .221 .45300005 .19200002 .45300005 C .08800001 .45300005 .031000002 .32400004 .031000002 .29900003 C .031000002 .28900004 .041 .28900004 .043000007 .28900004 C .051000008 .28900004 .054000006 .291 .056 .3 C .09 .40600003 .156 .43100003 .19000001 .43100003 C .209 .43100003 .244 .42200003 .244 .36400003 C .244 .33300004 .22700002 .26600004 .19000001 .126 C .17400001 .064 .13900002 .022000002 .095000009 .022000002 C .08900001 .022000002 .06600001 .022000002 .045 .035 C .07000001 .040000004 .09200001 .061 .09200001 .089 C .09200001 .116000007 .07000001 .124000009 .055000009 .124000009 C .025 .124000009 0 .098000008 0 .06600001 C 0 .020000002 .050000006 0 .094000007 0 C .16000001 0 .19600001 .07000001 .19900002 .076000008 C .21100001 .039 .24700003 0 .307 0 C .41 0 .467 .12900001 .467 .15400002 C .467 .16400002 .458 .16400002 .455 .16400002 C .446 .16400002 .444 .16000001 .442 .15300001 C .409 .046 .341 .022000002 .30900003 .022000002 C .27 .022000002 .254 .054 .254 .08800001 C .254 .11000001 .26 .13200002 .271 .17600002 L .305 .31300003 Z "/>
</symbol>
<use xlink:href="#font_0_4" transform="matrix(27.673888,0,0,-27.673888,650.2775,339.09605)"/>
<path transform="matrix(2.7777777,0,0,-2.7777777,88.51944,332.8333)" stroke-width=".3985" stroke-linecap="butt" stroke-miterlimit="10" stroke-linejoin="miter" fill="none" stroke="#000000" d="M 0 -113.38724 L 0 112.92896 "/>
<path transform="matrix(0,-2.7777777,-2.7777777,-0,88.51944,19.14177)" stroke-width=".31879" stroke-linecap="round" stroke-linejoin="round" fill="none" stroke="#000000" d="M -1.19551 1.59401 C -1.09587 .99626 0 .09961 .29886 0 C 0 -.09961 -1.09587 -.99626 -1.19551 -1.59401 "/>
<symbol id="font_0_5">
<path d="M .45700003 .586 C .461 .6 .461 .602 .461 .609 C .461 .62700006 .447 .63600006 .432 .63600006 C .42200003 .63600006 .40600003 .63 .397 .615 C .395 .61 .387 .579 .38300003 .561 C .37600003 .535 .36900003 .508 .363 .48100005 L .318 .301 C .314 .286 .271 .21600002 .20500002 .21600002 C .15400002 .21600002 .143 .26000003 .143 .29700003 C .143 .34300003 .16000001 .40500004 .194 .49300004 C .21000001 .53400006 .21400002 .545 .21400002 .56500008 C .21400002 .61 .18200001 .6470001 .13200002 .6470001 C .037 .6470001 0 .50200006 0 .49300004 C 0 .48300005 .01 .48300005 .012 .48300005 C .022000002 .48300005 .023 .485 .028000003 .50100007 C .055000009 .595 .095000009 .625 .12900001 .625 C .13700001 .625 .15400002 .625 .15400002 .59300008 C .15400002 .568 .14400001 .54200008 .13700001 .523 C .097 .41700004 .079 .36 .079 .31300003 C .079 .224 .142 .194 .201 .194 C .24000003 .194 .274 .21100001 .30200003 .23900002 C .289 .187 .277 .13800001 .237 .08500001 C .21100001 .051 .17300001 .022 .127 .022 C .113000009 .022 .068 .025000006 .051000008 .06400001 C .067 .06400001 .080000009 .06400001 .094000007 .076000008 C .104 .08500001 .11400001 .098000008 .11400001 .117000009 C .11400001 .148 .087000008 .15200001 .07700001 .15200001 C .054000006 .15200001 .021 .136 .021 .087000008 C .021 .037 .065000008 0 .127 0 C .23 0 .333 .091000009 .361 .20400001 L .45700003 .586 Z "/>
</symbol>
<use xlink:href="#font_0_5" transform="matrix(27.673888,0,0,-27.673888,99.09699,26.812003)"/>
<path transform="matrix(2.7777777,0,0,-2.7777777,88.51944,332.8333)" d="M 141.73404 0 L 141.606 4.63506 L 141.23921 9.25673 L 140.63193 13.85028 L 139.79195 18.40189 L 138.70757 22.89854 L 137.40174 27.3286 L 135.86104 31.67561 L 134.10579 35.93352 L 132.12001 40.07678 L 129.93181 44.10545 L 127.53986 48.00003 L 124.95674 51.75748 L 122.18462 55.36183 L 119.24379 58.8031 L 116.13428 62.07481 L 112.87856 65.17047 L 109.46324 68.0685 L 105.92421 70.77531 L 102.26277 73.2797 L 98.49666 75.57907 L 94.63152 77.66174 L 90.6872 79.53291 L 86.67325 81.18044 L 82.60869 82.60869 L 0 0 Z " fill="#0000ff" fill-opacity=".5"/>
<path transform="matrix(2.7777777,0,0,-2.7777777,88.51944,332.8333)" d="M 82.60869 -82.60869 L 86.67325 -81.18044 L 90.6872 -79.53291 L 94.63152 -77.66174 L 98.49666 -75.57907 L 102.26277 -73.2797 L 105.92421 -70.77531 L 109.46324 -68.0685 L 112.87856 -65.17047 L 116.13428 -62.07481 L 119.24379 -58.8031 L 122.18462 -55.36183 L 124.95674 -51.75748 L 127.53986 -48.00003 L 129.93181 -44.10545 L 132.12001 -40.07678 L 134.10579 -35.93352 L 135.86104 -31.67561 L 137.40174 -27.3286 L 138.70757 -22.89854 L 139.79195 -18.40189 L 140.63193 -13.85028 L 141.23921 -9.25673 L 141.606 -4.63506 L 141.73404 0 L 0 0 Z " fill="#0000ff" fill-opacity=".5"/>
<path transform="matrix(2.7777777,0,0,-2.7777777,88.51944,332.8333)" stroke-width=".79701" stroke-linecap="butt" stroke-miterlimit="10" stroke-linejoin="miter" fill="none" stroke="#000000" d="M 141.73404 0 C 141.73404 0 141.67726 3.23148 141.61293 4.4707 C 141.5486 5.70992 141.39638 7.69734 141.27036 8.93146 C 141.14434 10.16557 140.89112 12.14005 140.70459 13.3654 C 140.51808 14.59076 140.17314 16.54924 139.92603 17.76302 C 139.6789 18.97679 139.2329 20.91508 138.92342 22.1135 C 138.61392 23.31189 138.0657 25.22118 137.69542 26.40038 C 137.32515 27.57957 136.68199 29.4552 136.25464 30.61243 C 135.82729 31.76967 135.09926 33.60835 134.61533 34.741 C 134.13138 35.87364 133.30617 37.67111 132.76665 38.77573 C 132.22714 39.88033 131.32016 41.62897 130.7268 42.7023 C 130.13346 43.77563 129.13649 45.4729 128.49016 46.51166 C 127.84381 47.55043 126.76404 49.18724 126.06837 50.1891 C 125.3727 51.19095 124.21915 52.76965 123.47618 53.73245 C 122.73322 54.69525 121.50134 56.20699 120.71355 57.12831 C 119.92575 58.04964 118.62866 59.49544 117.79825 60.37277 C 116.96785 61.25012 115.60016 62.6216 114.72852 63.45157 C 113.85689 64.28156 112.4249 65.57341 111.51607 66.35477 C 110.60722 67.13614 109.12091 68.35184 108.17816 69.08322 C 107.23541 69.8146 105.69522 70.94623 104.72133 71.62611 C 103.74744 72.30602 102.16104 73.35649 101.15894 73.98344 C 100.15685 74.61041 98.5269 75.57278 97.49881 76.14484 C 96.47072 76.71689 94.80028 77.59096 93.74913 78.1064 C 92.698 78.62186 90.99222 79.40086 89.9229 79.85991 C 88.85358 80.31894 87.12625 81.01263 86.04218 81.41489 C 84.95808 81.81715 83.20573 82.4148 82.10954 82.75922 C 81.01334 83.10362 79.24754 83.61137 78.14143 83.89722 C 77.03532 84.18306 75.24983 84.59291 74.13742 84.81938 C 73.02502 85.04587 71.23817 85.36111 70.1239 85.52962 C 69.00963 85.69814 67.21976 85.92287 66.10649 86.03395 C 64.99324 86.14503 63.20938 86.27684 62.10033 86.33025 C 60.99129 86.38365 59.21468 86.42233 58.11319 86.4189 C 57.0117 86.41548 55.2524 86.3656 54.16153 86.30559 C 53.07066 86.24559 51.32863 86.10172 50.25095 85.98637 C 49.17328 85.87105 47.45511 85.64265 46.39444 85.47426 C 45.33377 85.30586 43.64722 84.99333 42.60628 84.77267 C 41.56534 84.55202 39.91092 84.15591 38.89206 83.8838 C 37.87321 83.61171 36.25702 83.13333 35.26308 82.81155 C 34.26915 82.48978 32.6946 81.93367 31.72838 81.56453 C 30.76215 81.1954 29.23512 80.56534 28.29922 80.15102 C 27.36331 79.73668 25.88615 79.03555 24.98296 78.57831 C 24.07976 78.12106 22.65791 77.35324 21.78952 76.8555 C 20.92113 76.35776 19.55591 75.52763 18.72412 74.99081 C 17.89232 74.45401 16.58774 73.55963 15.79454 72.98643 C 15.00134 72.41325 13.76018 71.4661 13.00726 70.85965 C 12.25433 70.25322 11.0789 69.25262 10.36792 68.61565 C 9.65694 67.97867 8.55087 66.93353 7.883 66.2687 C 7.2151 65.60387 6.17763 64.51439 5.5542 63.82399 C 4.93079 63.13359 3.96765 62.00563 3.38979 61.29279 C 2.81194 60.57996 1.92078 59.41792 1.3893 58.68631 C .85782 57.95468 .0438 56.76753 -.44075 56.01971 C -.9253 55.27188 -1.66537 54.05826 -2.10298 53.29646 C -2.5406 52.53465 -3.20485 51.30125 -3.5948 50.52907 C -3.98477 49.75688 -4.57137 48.51074 -4.91362 47.73099 C -5.25587 46.95123 -5.76685 45.69344 -6.06157 44.90912 C -6.3563 44.1248 -6.79031 42.86414 -7.03781 42.07814 C -7.2853 41.29216 -7.64455 40.02882 -7.84535 39.24416 C -8.04616 38.45949 -8.33043 37.20319 -8.48508 36.42271 C -8.63974 35.64224 -8.85068 34.39275 -8.96 33.619 C -9.06934 32.84525 -9.20818 31.61008 -9.27316 30.846 C -9.33815 30.08191 -9.40656 28.86383 -9.42844 28.11194 C -9.45033 27.36003 -9.4509 26.16382 -9.43105 25.42673 C -9.4112 24.68965 -9.34554 23.51959 -9.28528 22.7995 C -9.22504 22.07939 -9.09573 20.93732 -8.99678 20.23671 C -8.89783 19.53612 -8.70795 18.42886 -8.57202 17.75005 C -8.4361 17.07124 -8.18811 15.99956 -8.01707 15.34428 C -7.84604 14.689 -7.5434 13.65671 -7.3393 13.02716 C -7.1352 12.39761 -6.7812 11.40923 -6.546 10.80695 C -6.31082 10.20465 -5.90805 9.2594 -5.64417 8.6862 C -5.3803 8.11302 -4.93437 7.21805 -4.64415 6.67578 C -4.35393 6.1335 -3.86676 5.28827 -3.55241 4.7778 C -3.23807 4.26733 -2.71465 3.47438 -2.37851 2.99661 C -2.04237 2.51884 -1.4851 1.77821 -1.12978 1.33437 C -.77444 .8905 -.1893 .2065 .18253 -.20241 C .55437 -.61133 1.16437 -1.23946 1.5502 -1.61292 C 1.93602 -1.98639 2.56625 -2.5567 2.9633 -2.8941 C 3.36035 -3.23149 4.00575 -3.74315 4.41187 -4.04465 C 4.81798 -4.34615 5.47758 -4.80156 5.89029 -5.06715 C 6.303 -5.33276 6.97025 -5.72975 7.38643 -5.95906 C 7.80263 -6.18837 8.47327 -6.52695 8.88994 -6.7199 C 9.30661 -6.91283 9.9748 -7.19244 10.38954 -7.34967 C 10.80429 -7.50691 11.468 -7.73048 11.87921 -7.85315 C 12.29042 -7.97581 12.94827 -8.14516 13.3533 -8.23378 C 13.75833 -8.3224 14.4025 -8.4368 14.7984 -8.492 C 15.1943 -8.5472 15.8226 -8.6089 16.20674 -8.6317 C 16.59088 -8.65451 17.19656 -8.66463 17.56708 -8.65636 C 17.93759 -8.64809 18.52216 -8.60988 18.87724 -8.57202 C 19.23233 -8.53416 19.78883 -8.44939 20.1264 -8.38344 C 20.46399 -8.31749 20.99147 -8.18883 21.31026 -8.09666 C 21.62904 -8.00449 22.12735 -7.83624 22.42406 -7.71906 C 22.72075 -7.60187 23.17574 -7.39221 23.44875 -7.2519 C 23.72174 -7.11162 24.14268 -6.86879 24.39168 -6.7078 C 24.64067 -6.54678 25.02022 -6.27121 25.24333 -6.09142 C 25.46645 -5.91162 25.80331 -5.60826 25.99985 -5.4119 C 26.19638 -5.21553 26.49222 -4.88704 26.6599 -4.67615 C 26.82758 -4.46527 27.07063 -4.11508 27.20836 -3.89195 C 27.34608 -3.66884 27.54451 -3.30083 27.65257 -3.06798 C 27.76065 -2.83513 27.90952 -2.45384 27.98735 -2.21371 C 28.06519 -1.9736 28.1661 -1.58247 28.21358 -1.33739 C 28.26103 -1.0923 28.31342 -.69472 28.32948 -.44724 C 28.34555 -.19975 28.34555 .19888 28.32948 .44637 C 28.31342 .69386 28.26103 1.09149 28.21358 1.33652 C 28.1661 1.58154 28.06519 1.97229 27.98735 2.21242 C 27.90952 2.45253 27.76042 2.8342 27.65257 3.06711 C 27.54472 3.30002 27.34805 3.66797 27.21008 3.8911 C 27.07213 4.11421 26.82607 4.46434 26.65817 4.67528 C 26.49026 4.88623 26.19615 5.21504 25.99985 5.41147 C 25.80354 5.6079 25.46645 5.91125 25.24333 6.09099 C 25.02022 6.27072 24.64067 6.54591 24.39168 6.70692 C 24.14268 6.86792 23.72174 7.11119 23.44875 7.2515 C 23.17574 7.39178 22.72052 7.60094 22.42406 7.71819 C 22.12758 7.83545 21.63054 8.00443 21.312 8.09666 C 20.99345 8.18889 20.46594 8.31712 20.12814 8.383 C 19.79034 8.44888 19.23233 8.53368 18.87724 8.5716 C 18.52216 8.60951 17.93909 8.64803 17.56882 8.65636 C 17.19853 8.66469 16.59286 8.65457 16.20848 8.6317 C 15.8241 8.60884 15.19437 8.54677 14.7984 8.49158 C 14.40244 8.43637 13.75945 8.32228 13.3546 8.23378 C 12.94975 8.14528 12.29153 7.97606 11.88051 7.85358 C 11.46947 7.7311 10.80678 7.50809 10.39214 7.35097 C 9.97751 7.19386 9.30896 6.91426 8.8921 6.72119 C 8.47525 6.52814 7.80391 6.1888 7.38773 5.95949 C 6.97154 5.73018 6.30502 5.3339 5.89244 5.06847 C 5.47986 4.80304 4.8202 4.34782 4.41403 4.04637 C 4.00787 3.74493 3.36208 3.23323 2.96503 2.89583 C 2.568 2.55844 1.93819 1.98813 1.55235 1.61465 C 1.16653 1.2412 .55614 .613 .18423 .20415 C -.18765 -.20471 -.7727 -.88841 -1.12804 -1.3322 C -1.48337 -1.776 -2.04059 -2.51668 -2.37677 -2.99445 C -2.71297 -3.47221 -3.23666 -4.26498 -3.55113 -4.77563 C -3.8656 -5.28629 -4.35294 -6.13246 -4.64328 -6.67491 C -4.93362 -7.21736 -5.37987 -8.11241 -5.64374 -8.68535 C -5.90762 -9.2583 -6.30995 -10.2022 -6.54515 -10.80435 C -6.78033 -11.40652 -7.13469 -12.39589 -7.33885 -13.02542 C -7.54301 -13.65497 -7.84561 -14.68652 -8.01665 -15.34167 C -8.18768 -15.99684 -8.43562 -17.06851 -8.5716 -17.74745 C -8.70758 -18.42639 -8.89783 -19.53456 -8.99678 -20.23499 C -9.09573 -20.9354 -9.2246 -22.07562 -9.28485 -22.79561 C -9.3451 -23.51558 -9.41107 -24.68686 -9.43105 -25.42413 C -9.45102 -26.16139 -9.45078 -27.35748 -9.42888 -28.10933 C -9.407 -28.86118 -9.33821 -30.07877 -9.27316 -30.84297 C -9.20811 -31.60718 -9.06927 -32.84352 -8.96 -33.61726 C -8.85074 -34.39102 -8.64003 -35.63934 -8.4855 -36.4197 C -8.33098 -37.20004 -8.0469 -38.45706 -7.84622 -39.24156 C -7.64554 -40.02606 -7.28647 -41.28807 -7.03911 -42.07382 C -6.79173 -42.85959 -6.35802 -44.12022 -6.06331 -44.90479 C -5.76859 -45.68935 -5.25722 -46.94838 -4.91492 -47.72838 C -4.57262 -48.50838 -3.98607 -49.75429 -3.59612 -50.52647 C -3.20615 -51.29866 -2.54184 -52.53206 -2.10428 -53.29385 C -1.66672 -54.05566 -.9269 -55.26927 -.44247 -56.0171 C .04193 -56.76494 .85583 -57.95227 1.38713 -58.68372 C 1.91843 -59.41516 2.80872 -60.57599 3.38675 -61.28888 C 3.96478 -62.00179 4.92986 -63.13127 5.55333 -63.82184 C 6.17682 -64.5124 7.21275 -65.60133 7.88039 -66.2661 C 8.54803 -66.93086 9.65453 -67.97626 10.36533 -68.61305 C 11.07613 -69.24985 12.25044 -70.2492 13.00337 -70.85576 C 13.75629 -71.46233 14.99863 -72.41118 15.79195 -72.98473 C 16.58527 -73.55826 17.88919 -74.45247 18.72108 -74.98953 C 19.553 -75.52658 20.91939 -76.35788 21.78778 -76.8555 C 22.65619 -77.35312 24.07695 -78.119 24.97992 -78.57613 C 25.88287 -79.03325 27.35997 -79.73587 28.29576 -80.15015 C 29.23154 -80.5644 30.75832 -81.19287 31.72449 -81.56195 C 32.69064 -81.93103 34.26547 -82.48859 35.25919 -82.81024 C 36.2529 -83.13191 37.8679 -83.60855 38.88646 -83.88034 C 39.905 -84.15215 41.55934 -84.54832 42.60022 -84.76923 C 43.6411 -84.99011 45.32753 -85.30354 46.38838 -85.47252 C 47.44925 -85.64151 49.1683 -85.87196 50.2462 -85.98724 C 51.3241 -86.10252 53.06598 -86.24348 54.15721 -86.30344 C 55.24844 -86.36337 57.0096 -86.4157 58.11102 -86.41934 C 59.21246 -86.42299 60.98653 -86.38297 62.09558 -86.3298 C 63.20462 -86.27664 64.99144 -86.14708 66.10434 -86.03612 C 67.21722 -85.92516 69.00233 -85.6988 70.11655 -85.53004 C 71.23076 -85.3613 73.02213 -85.04643 74.13483 -84.81982 C 75.24753 -84.59323 77.0305 -84.18243 78.13625 -83.89677 C 79.24199 -83.61111 81.00821 -83.1053 82.10434 -82.76094 C 83.20049 -82.4166 84.95216 -81.81699 86.03654 -81.41489 C 87.12094 -81.0128 88.85062 -80.32198 89.91988 -79.86293 C 90.98914 -79.4039 92.69188 -78.62186 93.74309 -78.1064 C 94.79428 -77.59096 96.4677 -76.7195 97.49622 -76.14787 C 98.52472 -75.57625 100.15388 -74.61343 101.15591 -73.98647 C 102.15796 -73.35951 103.7444 -72.30898 104.7183 -71.62915 C 105.6922 -70.94931 107.23239 -69.81807 108.17514 -69.08669 C 109.11789 -68.3553 110.60425 -67.1394 111.51305 -66.3578 C 112.42183 -65.57619 113.85385 -64.28336 114.72507 -63.45331 C 115.59628 -62.62326 116.96178 -61.2524 117.79219 -60.37537 C 118.62259 -59.49834 119.92235 -58.05348 120.71008 -57.1322 C 121.49782 -56.21094 122.72672 -54.69856 123.46968 -53.73547 C 124.21265 -52.77238 125.36833 -51.19252 126.06491 -50.19083 C 126.76147 -49.18913 127.84332 -47.5544 128.49016 -46.51598 C 129.13698 -45.47757 130.13388 -43.78032 130.7268 -42.70662 C 131.31974 -41.63292 132.2246 -39.8818 132.76363 -38.77744 C 133.30266 -37.67308 134.1275 -35.87909 134.61186 -34.74707 C 135.09624 -33.61504 135.82682 -31.77596 136.25464 -30.61848 C 136.68247 -29.461 137.32563 -27.58421 137.69542 -26.40471 C 138.06523 -25.2252 138.61046 -23.31555 138.91994 -22.11739 C 139.22943 -20.9192 139.67794 -18.98279 139.92603 -17.76909 C 140.17412 -16.55537 140.52202 -14.59564 140.70806 -13.36974 C 140.8941 -12.14383 141.14136 -10.16772 141.2669 -8.93362 C 141.39244 -7.69951 141.54862 -5.714 141.61293 -4.47504 C 141.67725 -3.23605 141.73058 -.00389 141.73058 -.00389 "/>
<path transform="matrix(2.7777777,0,0,-2.7777777,88.51944,332.8333)" stroke-width=".3985" stroke-linecap="butt" stroke-miterlimit="10" stroke-linejoin="miter" fill="none" stroke="#000000" d="M 0 0 L 82.60869 82.60869 "/>
<symbol id="font_0_1">
<path d="M .41300003 .511 C .41300003 .577 .395 .716 .293 .716 C .15400002 .716 0 .43400003 0 .20500002 C 0 .111 .029 0 .12 0 C .261 0 .41300003 .28700004 .41300003 .511 M .106 .374 C .123 .43800003 .143 .518 .183 .589 C .21000001 .638 .24700001 .694 .29200004 .694 C .34100003 .694 .34700004 .63 .34700004 .573 C .34700004 .524 .33900003 .47300003 .31500004 .374 L .106 .374 M .30600003 .34200005 C .29500003 .29600004 .27400003 .21100001 .23600003 .13900002 C .201 .071 .16300002 .022000002 .12 .022000002 C .087000008 .022000002 .066 .051000004 .066 .14400001 C .066 .18600002 .072000008 .24400002 .098 .34200005 L .30600003 .34200005 Z "/>
</symbol>
<use xlink:href="#font_0_1" transform="matrix(27.673888,0,0,-27.673888,299.43455,82.75162)"/>
<symbol id="font_1_2">
<path d="M .63100007 .19400002 C .646 .19400002 .665 .19400002 .665 .214 C .665 .23400001 .646 .23400001 .632 .23400001 L .033 .23400001 C .019000002 .23400001 0 .23400001 0 .214 C 0 .19400002 .019000002 .19400002 .034 .19400002 L .63100007 .19400002 M .632 0 C .646 0 .665 0 .665 .02000001 C .665 .040000008 .646 .040000008 .63100007 .040000008 L .034 .040000008 C .019000002 .040000008 0 .040000008 0 .02000001 C 0 0 .019000002 0 .033 0 L .632 0 Z "/>
</symbol>
<use xlink:href="#font_1_2" transform="matrix(27.673888,0,0,-27.673888,321.2692,78.76658)"/>
<symbol id="font_0_2">
<path d="M .23800002 .38400004 L .351 .38400004 C .31800003 .23600002 .30900003 .19300002 .30900003 .126 C .30900003 .111 .30900003 .08400001 .317 .05 C .327 .0060000007 .338 0 .35300002 0 C .373 0 .39400003 .018000002 .39400003 .038000004 C .39400003 .044 .39400003 .046 .388 .060000004 C .359 .13200002 .359 .19700001 .359 .22500003 C .359 .27800004 .366 .33200003 .377 .38400004 L .491 .38400004 C .504 .38400004 .54 .38400004 .54 .418 C .54 .44200004 .519 .44200004 .5 .44200004 L .165 .44200004 C .143 .44200004 .105 .44200004 .061000006 .395 C .026000003 .35600005 0 .31000004 0 .305 C 0 .30400003 0 .29500003 .012 .29500003 C .020000002 .29500003 .022000002 .29900003 .028000003 .307 C .077 .38400004 .135 .38400004 .15500002 .38400004 L .21200001 .38400004 C .18000002 .263 .12600002 .14200002 .08400001 .051000004 C .076000008 .036000004 .076000008 .034 .076000008 .027000003 C .076000008 .008000001 .092 0 .105 0 C .135 0 .143 .028 .15500002 .065000008 C .16900002 .111 .16900002 .113000009 .18200001 .16300002 L .23800002 .38400004 Z "/>
</symbol>
<symbol id="font_0_3">
<path d="M .384 .962 C .38900004 .975 .38900004 .97900006 .38900004 .98 C .38900004 .99100008 .38000003 1 .36900003 1 C .36200003 1 .35500003 .99700006 .352 .99100008 L .004999999 .037999989 C 0 .024999991 0 .020999983 0 .019999996 C 0 .008999988 .009 0 .02 0 C .033000005 0 .036000004 .0069999846 .042 .023999989 L .384 .962 Z "/>
</symbol>
<use xlink:href="#font_0_2" transform="matrix(27.673888,0,0,-27.673888,349.67778,82.75162)"/>
<use xlink:href="#font_0_3" transform="matrix(27.673888,0,0,-27.673888,367.22303,89.36568)"/>
<symbol id="font_1_1">
<path d="M .266 .165 L .266 .078 C .266 .042000005 .26400004 .031000002 .19000001 .031000002 L .16900002 .031000002 L .16900002 0 C .21000001 .003 .26200003 .003 .30400003 .003 C .34600003 .003 .39900003 .003 .44000004 0 L .44000004 .031000002 L .41900004 .031000002 C .34500004 .031000002 .34300003 .042000005 .34300003 .078 L .34300003 .165 L .44300003 .165 L .44300003 .19600001 L .34300003 .19600001 L .34300003 .651 C .34300003 .671 .34300003 .67700007 .32700003 .67700007 C .31800003 .67700007 .31500004 .67700007 .307 .665 L 0 .19600001 L 0 .165 L .266 .165 M .272 .19600001 L .028 .19600001 L .272 .569 L .272 .19600001 Z "/>
</symbol>
<use xlink:href="#font_1_1" transform="matrix(27.673888,0,0,-27.673888,380.31098,82.447208)"/>
<path transform="matrix(2.7777777,0,0,-2.7777777,88.51944,332.8333)" stroke-width=".3985" stroke-linecap="butt" stroke-miterlimit="10" stroke-linejoin="miter" fill="none" stroke="#000000" d="M 0 0 L 82.60869 -82.60869 "/>
<use xlink:href="#font_0_1" transform="matrix(27.673888,0,0,-27.673888,288.6734,597.35989)"/>
<use xlink:href="#font_1_2" transform="matrix(27.673888,0,0,-27.673888,310.50807,593.3749)"/>
<symbol id="font_2_1">
<path d="M .57600006 0 C .59300008 0 .611 0 .611 .019999996 C .611 .040000008 .59300008 .040000008 .57600006 .040000008 L .035000005 .040000008 C .018 .040000008 0 .040000008 0 .019999996 C 0 0 .018 0 .035000005 0 L .57600006 0 Z "/>
</symbol>
<use xlink:href="#font_2_1" transform="matrix(27.673888,0,0,-27.673888,340.46638,590.6905)"/>
<use xlink:href="#font_0_2" transform="matrix(27.673888,0,0,-27.673888,360.43885,597.35989)"/>
<use xlink:href="#font_0_3" transform="matrix(27.673888,0,0,-27.673888,377.9841,603.97396)"/>
<use xlink:href="#font_1_1" transform="matrix(27.673888,0,0,-27.673888,391.07209,597.0555)"/>
</g>
</svg>
