<?xml version="1.0" encoding="UTF-8" standalone="no"?>
<!DOCTYPE svg PUBLIC "-//W3C//DTD SVG 1.1//EN" "http://www.w3.org/Graphics/SVG/1.1/DTD/svg11.dtd">
<svg xmlns="http://www.w3.org/2000/svg" xmlns:xlink="http://www.w3.org/1999/xlink" version="1.1" width="1978.9526pt" height="469.9222pt" viewBox="0 0 1978.9526 469.9222">
<g enable-background="new">
<path transform="matrix(2.7777777,0,0,-2.7777777,482.21943,430)" stroke-width=".3985" stroke-linecap="butt" stroke-miterlimit="10" stroke-linejoin="miter" fill="none" stroke="#000000" d="M -170.08086 0 L 169.62258 0 "/>
<path transform="matrix(2.7777777,0,0,-2.7777777,953.3932,430)" stroke-width=".31879" stroke-linecap="round" stroke-linejoin="round" fill="none" stroke="#000000" d="M -1.19551 1.59401 C -1.09587 .99626 0 .09961 .29886 0 C 0 -.09961 -1.09587 -.99626 -1.19551 -1.59401 "/>
<symbol id="font_0_7">
<path d="M .305 .31300003 C .311 .33900003 .334 .43100003 .404 .43100003 C .409 .43100003 .433 .43100003 .454 .418 C .426 .41300003 .40600003 .388 .40600003 .36400003 C .40600003 .34800003 .417 .32900004 .444 .32900004 C .46600003 .32900004 .498 .34700004 .498 .38700003 C .498 .43900005 .439 .45300005 .405 .45300005 C .347 .45300005 .312 .40000005 .3 .37700004 C .275 .44300003 .221 .45300005 .19200002 .45300005 C .08800001 .45300005 .031000002 .32400004 .031000002 .29900003 C .031000002 .28900004 .041 .28900004 .043000007 .28900004 C .051000008 .28900004 .054000006 .291 .056 .3 C .09 .40600003 .156 .43100003 .19000001 .43100003 C .209 .43100003 .244 .42200003 .244 .36400003 C .244 .33300004 .22700002 .26600004 .19000001 .126 C .17400001 .064 .13900002 .022000002 .095000009 .022000002 C .08900001 .022000002 .06600001 .022000002 .045 .035 C .07000001 .040000004 .09200001 .061 .09200001 .089 C .09200001 .116000007 .07000001 .124000009 .055000009 .124000009 C .025 .124000009 0 .098000008 0 .06600001 C 0 .020000002 .050000006 0 .094000007 0 C .16000001 0 .19600001 .07000001 .19900002 .076000008 C .21100001 .039 .24700003 0 .307 0 C .41 0 .467 .12900001 .467 .15400002 C .467 .16400002 .458 .16400002 .455 .16400002 C .446 .16400002 .444 .16000001 .442 .15300001 C .409 .046 .341 .022000002 .30900003 .022000002 C .27 .022000002 .254 .054 .254 .08800001 C .254 .11000001 .26 .13200002 .271 .17600002 L .305 .31300003 Z "/>
</symbol>
<use xlink:href="#font_0_7" transform="matrix(27.673888,0,0,-27.673888,965.23867,436.25996)"/>
<path transform="matrix(2.7777777,0,0,-2.7777777,482.21943,430)" stroke-width=".3985" stroke-linecap="butt" stroke-miterlimit="10" stroke-linejoin="miter" fill="none" stroke="#000000" d="M 0 -14.17339 L 0 141.27576 "/>
<path transform="matrix(0,-2.7777777,-2.7777777,-0,482.21943,37.56735)" stroke-width=".31879" stroke-linecap="round" stroke-linejoin="round" fill="none" stroke="#000000" d="M -1.19551 1.59401 C -1.09587 .99626 0 .09961 .29886 0 C 0 -.09961 -1.09587 -.99626 -1.19551 -1.59401 "/>
<symbol id="font_0_8">
<path d="M .45700003 .586 C .461 .6 .461 .602 .461 .609 C .461 .62700006 .447 .63600006 .432 .63600006 C .42200003 .63600006 .40600003 .63 .397 .615 C .395 .61 .387 .579 .38300003 .561 C .37600003 .535 .36900003 .508 .363 .48100005 L .318 .301 C .314 .286 .271 .21600002 .20500002 .21600002 C .15400002 .21600002 .143 .26000003 .143 .29700003 C .143 .34300003 .16000001 .40500004 .194 .49300004 C .21000001 .53400006 .21400002 .545 .21400002 .56500008 C .21400002 .61 .18200001 .6470001 .13200002 .6470001 C .037 .6470001 0 .50200006 0 .49300004 C 0 .48300005 .01 .48300005 .012 .48300005 C .022000002 .48300005 .023 .485 .028000003 .50100007 C .055000009 .595 .095000009 .625 .12900001 .625 C .13700001 .625 .15400002 .625 .15400002 .59300008 C .15400002 .568 .14400001 .54200008 .13700001 .523 C .097 .41700004 .079 .36 .079 .31300003 C .079 .224 .142 .194 .201 .194 C .24000003 .194 .274 .21100001 .30200003 .23900002 C .289 .187 .277 .13800001 .237 .08500001 C .21100001 .051 .17300001 .022 .127 .022 C .113000009 .022 .068 .025000006 .051000008 .06400001 C .067 .06400001 .080000009 .06400001 .094000007 .076000008 C .104 .08500001 .11400001 .098000008 .11400001 .117000009 C .11400001 .148 .087000008 .15200001 .07700001 .15200001 C .054000006 .15200001 .021 .136 .021 .087000008 C .021 .037 .065000008 0 .127 0 C .23 0 .333 .091000009 .361 .20400001 L .45700003 .586 Z "/>
</symbol>
<use xlink:href="#font_0_8" transform="matrix(27.673888,0,0,-27.673888,475.74143,26.812064)"/>
<path transform="matrix(2.7777777,0,0,-2.7777777,482.21943,430)" stroke-width=".79701" stroke-linecap="butt" stroke-miterlimit="10" stroke-linejoin="miter" fill="none" stroke="#000000" d="M -141.73404 125.66177 C -141.73404 125.66177 -140.70494 125.92328 -140.3097 126.0171 C -139.91445 126.11093 -139.2806 126.25401 -138.88535 126.33806 C -138.4901 126.4221 -137.85625 126.54889 -137.461 126.62288 C -137.06574 126.69688 -136.43189 126.80768 -136.03665 126.87138 C -135.64139 126.93509 -135.00756 127.02881 -134.61229 127.08203 C -134.21706 127.13527 -133.58319 127.21239 -133.18795 127.25504 C -132.7927 127.29771 -132.15885 127.35757 -131.7636 127.38956 C -131.36835 127.42154 -130.7345 127.46437 -130.33925 127.48558 C -129.94402 127.5068 -129.31015 127.5321 -128.91492 127.54247 C -128.51967 127.55281 -127.88582 127.56076 -127.49057 127.5602 C -127.0953 127.55965 -126.46147 127.54979 -126.06621 127.53836 C -125.67096 127.52693 -125.0371 127.50003 -124.64186 127.4778 C -124.24661 127.45557 -123.61276 127.41113 -123.21751 127.3781 C -122.82228 127.34506 -122.18842 127.28343 -121.79317 127.23969 C -121.39792 127.19595 -120.76407 127.11708 -120.36882 127.06277 C -119.97357 127.00847 -119.33972 126.913 -118.94447 126.84824 C -118.54921 126.7835 -117.91537 126.67108 -117.52011 126.59607 C -117.12488 126.52106 -116.49101 126.39256 -116.09578 126.30756 C -115.70053 126.22256 -115.06668 126.07816 -114.67143 125.98338 C -114.27618 125.8886 -113.64233 125.7287 -113.24709 125.62437 C -112.85184 125.52003 -112.21797 125.34502 -111.82274 125.23141 C -111.42749 125.11781 -110.79364 124.92812 -110.39839 124.80557 C -110.00314 124.68303 -109.3693 124.4793 -108.97403 124.34816 C -108.57878 124.21704 -107.94495 123.99983 -107.54968 123.86049 C -107.15443 123.72115 -106.52058 123.49103 -106.12534 123.34381 C -105.7301 123.19661 -105.09624 122.95412 -104.701 122.79945 C -104.30576 122.6448 -103.6719 122.39084 -103.27666 122.22916 C -102.88141 122.06749 -102.24756 121.80243 -101.85231 121.63422 C -101.45705 121.46599 -100.82321 121.19102 -100.42796 121.01675 C -100.0327 120.84248 -99.39885 120.55806 -99.0036 120.37811 C -98.60835 120.19818 -97.9745 119.90486 -97.57925 119.7198 C -97.18402 119.53471 -96.55016 119.23384 -96.1549 119.04417 C -95.75966 118.8545 -95.12581 118.54648 -94.73056 118.35277 C -94.33531 118.15904 -93.70146 117.84523 -93.30621 117.64793 C -92.91098 117.45064 -92.27711 117.13109 -91.88188 116.9308 C -91.48662 116.7305 -90.85278 116.40701 -90.45752 116.20435 C -90.06227 116.00168 -89.42842 115.67468 -89.03317 115.47011 C -88.63792 115.26553 -88.00406 114.93578 -87.60883 114.72983 C -87.21358 114.52385 -86.57973 114.19226 -86.18448 113.98564 C -85.78925 113.77902 -85.15538 113.44737 -84.76013 113.2406 C -84.36488 113.03381 -83.73103 112.70175 -83.33578 112.49533 C -82.94052 112.28893 -82.30669 111.95831 -81.91142 111.75288 C -81.51617 111.54745 -80.88232 111.21869 -80.48708 111.01476 C -80.09184 110.81084 -79.45798 110.48495 -79.06274 110.28311 C -78.6675 110.08125 -78.03365 109.75912 -77.6384 109.5599 C -77.24315 109.3607 -76.6093 109.04326 -76.21405 108.84732 C -75.8188 108.65137 -75.18494 108.33984 -74.7897 108.14767 C -74.39444 107.95552 -73.7606 107.65022 -73.36534 107.46233 C -72.97011 107.27443 -72.33624 106.97653 -71.941 106.79341 C -71.54575 106.61026 -70.9119 106.3202 -70.51665 106.14243 C -70.1214 105.96465 -69.48755 105.68396 -69.0923 105.512 C -68.69707 105.34003 -68.0632 105.06871 -67.66797 104.903 C -67.27272 104.73726 -66.63887 104.4765 -66.24362 104.31755 C -65.84836 104.15862 -65.21452 103.90918 -64.81926 103.75742 C -64.42401 103.60564 -63.79018 103.36781 -63.39491 103.22366 C -62.99966 103.07951 -62.3658 102.8546 -61.97057 102.71846 C -61.57532 102.58232 -60.94147 102.37025 -60.54622 102.24245 C -60.15099 102.11465 -59.51712 101.91646 -59.12187 101.79736 C -58.72662 101.67827 -58.09277 101.49408 -57.69753 101.38408 C -57.30226 101.27408 -56.66843 101.1051 -56.27318 101.00452 C -55.87793 100.90395 -55.24408 100.75015 -54.84883 100.65915 C -54.45358 100.56813 -53.81973 100.42972 -53.42448 100.34859 C -53.02924 100.26746 -52.39539 100.14532 -52.00014 100.07436 C -51.60489 100.00339 -50.97102 99.89774 -50.57579 99.8371 C -50.18054 99.77646 -49.54669 99.68744 -49.15144 99.63727 C -48.75621 99.5871 -48.12234 99.51505 -47.7271 99.47551 C -47.33183 99.43594 -46.698 99.38103 -46.30273 99.35223 C -45.90749 99.32343 -45.27364 99.28586 -44.87839 99.2679 C -44.48314 99.24992 -43.84929 99.22983 -43.45404 99.22269 C -43.0588 99.21555 -42.42494 99.21266 -42.02971 99.21642 C -41.63446 99.22015 -41.00061 99.23512 -40.60536 99.24973 C -40.21011 99.26433 -39.57626 99.29633 -39.18102 99.32173 C -38.78575 99.34714 -38.1519 99.39665 -37.75665 99.43289 C -37.3614 99.46913 -36.72755 99.53609 -36.3323 99.58298 C -35.93707 99.62988 -35.3032 99.71355 -34.90796 99.77092 C -34.51271 99.8283 -33.87886 99.92871 -33.48361 99.99649 C -33.08836 100.06429 -32.45451 100.1815 -32.05927 100.25949 C -31.66403 100.33748 -31.03017 100.47067 -30.63493 100.5586 C -30.23967 100.6465 -29.60583 100.79547 -29.21057 100.89316 C -28.81532 100.99081 -28.18149 101.15538 -27.78622 101.26253 C -27.39098 101.36969 -26.75713 101.54918 -26.36188 101.66544 C -25.96663 101.78172 -25.33276 101.97548 -24.93753 102.10059 C -24.54228 102.22568 -23.90843 102.43347 -23.51318 102.56708 C -23.11795 102.70065 -22.48409 102.92169 -22.08884 103.0634 C -21.69357 103.20512 -21.05974 103.43909 -20.66449 103.5885 C -20.26923 103.73795 -19.63539 103.98367 -19.24013 104.14043 C -18.8449 104.29718 -18.21103 104.55461 -17.8158 104.7183 C -17.42055 104.88199 -16.7867 105.1501 -16.39145 105.32018 C -15.9962 105.49025 -15.36235 105.7681 -14.9671 105.94412 C -14.57185 106.12012 -13.93799 106.4073 -13.54276 106.58882 C -13.1475 106.77032 -12.51366 107.06587 -12.11841 107.25232 C -11.72316 107.43878 -11.08931 107.7418 -10.69405 107.93271 C -10.2988 108.12361 -9.66495 108.4334 -9.2697 108.62822 C -8.87445 108.82304 -8.2406 109.13869 -7.84535 109.33694 C -7.4501 109.53519 -6.81625 109.85606 -6.421 110.05711 C -6.02577 110.25815 -5.3919 110.58263 -4.99667 110.78595 C -4.60143 110.98927 -3.96758 111.31749 -3.57233 111.52255 C -3.17706 111.72762 -2.54323 112.05771 -2.14796 112.26393 C -1.75272 112.47012 -1.11885 112.80203 -.72362 113.00874 C -.32837 113.21547 .30545 113.54707 .7007 113.7538 C 1.09593 113.96051 1.7298 114.29239 2.12505 114.49863 C 2.5203 114.70486 3.15414 115.03516 3.5494 115.24022 C 3.94464 115.4453 4.57849 115.77328 4.97374 115.97661 C 5.36899 116.17993 6.00284 116.50458 6.39809 116.70566 C 6.79333 116.90674 7.42717 117.22752 7.82243 117.42584 C 8.21768 117.62415 8.85153 117.9401 9.24678 118.13498 C 9.64203 118.32986 10.27588 118.63954 10.67113 118.8305 C 11.06638 119.02147 11.70024 119.32475 12.09547 119.51132 C 12.49072 119.69786 13.12457 119.99345 13.51982 120.17503 C 13.91507 120.35664 14.54892 120.64406 14.94417 120.82018 C 15.33943 120.99628 15.97327 121.27415 16.36853 121.44432 C 16.76378 121.61449 17.39763 121.88286 17.79288 122.04663 C 18.18811 122.21042 18.82198 122.46786 19.21721 122.62473 C 19.61246 122.7816 20.2463 123.02774 20.64156 123.17729 C 21.0368 123.32683 21.67065 123.56076 22.0659 123.7026 C 22.46115 123.84445 23.09502 124.06581 23.49025 124.1996 C 23.88551 124.33336 24.51935 124.54149 24.91461 124.66673 C 25.30984 124.79198 25.94371 124.9859 26.33896 125.1023 C 26.7342 125.21869 27.36806 125.39838 27.7633 125.50565 C 28.15855 125.61292 28.7924 125.77765 29.18765 125.87546 C 29.5829 125.97328 30.21675 126.12259 30.612 126.21068 C 31.00723 126.29877 31.6411 126.4323 32.03633 126.51044 C 32.4316 126.58855 33.06543 126.70592 33.4607 126.77383 C 33.85594 126.84177 34.48979 126.94252 34.88504 127.00006 C 35.28029 127.05762 35.91415 127.14157 36.30939 127.18864 C 36.70464 127.23572 37.33849 127.30298 37.73373 127.33939 C 38.12897 127.37578 38.76283 127.4254 39.15808 127.45097 C 39.55333 127.47658 40.18718 127.50908 40.58243 127.52386 C 40.97769 127.53867 41.61153 127.55367 42.00679 127.5576 C 42.40202 127.56152 43.03589 127.55916 43.43112 127.55219 C 43.82637 127.54524 44.46022 127.52524 44.85547 127.50742 C 45.25072 127.48961 45.88457 127.45236 46.27982 127.42374 C 46.67506 127.39511 47.30891 127.34044 47.70416 127.3011 C 48.09941 127.26178 48.73328 127.19019 49.12851 127.1402 C 49.52377 127.09023 50.15761 127.00128 50.55287 126.9408 C 50.9481 126.88031 51.58195 126.775 51.97722 126.70421 C 52.37247 126.63342 53.00632 126.51155 53.40157 126.43062 C 53.79681 126.3497 54.43066 126.21176 54.82591 126.12093 C 55.22115 126.0301 55.85501 125.87646 56.25024 125.77597 C 56.6455 125.67548 57.27934 125.50652 57.67459 125.39664 C 58.06985 125.28676 58.70369 125.10294 59.09894 124.984 C 59.4942 124.86507 60.12805 124.66699 60.5233 124.53935 C 60.91855 124.41171 61.5524 124.20001 61.94765 124.064 C 62.34288 123.92798 62.97675 123.70306 63.372 123.55899 C 63.76724 123.41495 64.4011 123.17734 64.79634 123.02568 C 65.19159 122.87404 65.82544 122.6248 66.22069 122.46597 C 66.61594 122.30716 67.24979 122.04659 67.64503 121.88097 C 68.04028 121.71538 68.67413 121.44423 69.06938 121.27238 C 69.46463 121.10056 70.09848 120.8201 70.49373 120.64241 C 70.88898 120.4647 71.52283 120.17471 71.91808 119.99164 C 72.31332 119.80858 72.94719 119.51077 73.34242 119.32294 C 73.73767 119.1351 74.37152 118.82991 74.76677 118.6378 C 75.162 118.44571 75.79587 118.13426 76.19112 117.93839 C 76.58638 117.74251 77.22021 117.42516 77.61548 117.226 C 78.01073 117.02684 78.64458 116.7048 79.03983 116.50302 C 79.43506 116.30122 80.06892 115.9755 80.46416 115.77159 C 80.8594 115.5677 81.49326 115.23889 81.8885 115.03346 C 82.28375 114.82805 82.9176 114.4974 83.31285 114.29102 C 83.7081 114.08464 84.34195 113.75275 84.7372 113.54597 C 85.13246 113.33919 85.76631 113.00734 86.16156 112.8007 C 86.55681 112.59409 87.19064 112.26266 87.5859 112.05673 C 87.98114 111.8508 88.615 111.52109 89.01025 111.31645 C 89.4055 111.1118 90.03935 110.78455 90.4346 110.58179 C 90.82985 110.37903 91.4637 110.05545 91.85895 109.85512 C 92.25418 109.6548 92.88805 109.33533 93.28328 109.13797 C 93.67854 108.94063 94.31238 108.62651 94.70763 108.43272 C 95.10289 108.23894 95.73672 107.931 96.13199 107.7413 C 96.52724 107.5516 97.1611 107.25061 97.55634 107.06546 C 97.95158 106.88033 98.58543 106.58696 98.98068 106.40692 C 99.37592 106.22688 100.00978 105.94225 100.40503 105.76785 C 100.80028 105.59344 101.43413 105.31828 101.82938 105.14996 C 102.22462 104.98166 102.85847 104.71655 103.25372 104.5548 C 103.64899 104.39302 104.28282 104.13884 104.67809 103.98407 C 105.07332 103.82928 105.70718 103.58661 106.10242 103.43929 C 106.49767 103.29195 107.13152 103.06165 107.52676 102.9222 C 107.92201 102.78271 108.55586 102.56534 108.95111 102.43407 C 109.34636 102.30278 109.98022 102.0987 110.37546 101.976 C 110.7707 101.8533 111.40456 101.6635 111.7998 101.54974 C 112.19505 101.436 112.8289 101.26065 113.22417 101.15613 C 113.61942 101.05162 114.25327 100.89142 114.64851 100.79648 C 115.04376 100.70154 115.67761 100.557 116.07286 100.47186 C 116.4681 100.3867 117.10196 100.25787 117.4972 100.18271 C 117.89244 100.10754 118.52629 99.99501 118.92154 99.9301 C 119.31679 99.8652 119.95064 99.76938 120.34589 99.71492 C 120.74115 99.66045 121.37498 99.58147 121.77025 99.53758 C 122.1655 99.49367 122.79935 99.43175 123.1946 99.39851 C 123.58984 99.36526 124.2237 99.32042 124.61894 99.29794 C 125.01418 99.27548 125.64804 99.24812 126.04329 99.23653 C 126.43854 99.22491 127.07239 99.21494 127.46764 99.21425 C 127.86288 99.21356 128.49674 99.22139 128.89199 99.23157 C 129.28723 99.24173 129.92108 99.26654 130.31632 99.28757 C 130.71158 99.30861 131.34542 99.35132 131.74068 99.38315 C 132.13593 99.415 132.76978 99.47453 133.16503 99.51703 C 133.56027 99.55951 134.19414 99.6363 134.58937 99.68939 C 134.98462 99.74246 135.61847 99.83604 136.01372 99.89961 C 136.40895 99.96315 137.04282 100.07364 137.43807 100.14745 C 137.83332 100.22127 138.46717 100.34776 138.86241 100.43164 C 139.25768 100.51549 139.89151 100.65825 140.28678 100.75192 C 140.68202 100.8456 141.71112 101.10681 141.71112 101.10681 "/>
<path transform="matrix(2.7777777,0,0,-2.7777777,482.21943,430)" stroke-width=".3985" stroke-linecap="butt" stroke-miterlimit="10" stroke-linejoin="miter" fill="none" stroke="#000000" d="M 0 0 L 141.73404 101.11267 "/>
<path transform="matrix(2.7777777,0,0,-2.7777777,482.21943,430)" stroke-width=".3985" stroke-linecap="butt" stroke-miterlimit="10" stroke-linejoin="miter" fill="none" stroke="#000000" d="M 0 0 L -141.73404 125.66177 "/>
<path transform="matrix(2.7777777,0,0,-2.7777777,482.21943,430)" stroke-width=".3985" stroke-linecap="butt" stroke-miterlimit="10" stroke-linejoin="miter" fill="none" stroke="#ff0000" d="M 42.5202 0 C 42.5202 8.72449 39.83414 17.24203 35.09337 24.01323 "/>
<path transform="matrix(-1.593111,-2.2754722,-2.2754722,1.593111,579.701,363.29664)" stroke-width=".31879" stroke-linecap="round" stroke-linejoin="round" fill="none" stroke="#ff0000" d="M -1.19551 1.59401 C -1.09587 .99626 0 .09961 .29886 0 C 0 -.09961 -1.09587 -.99626 -1.19551 -1.59401 "/>
<path transform="matrix(2.7777777,0,0,-2.7777777,482.21943,430)" stroke-width=".3985" stroke-linecap="butt" stroke-miterlimit="10" stroke-linejoin="miter" fill="none" stroke="#0000ff" d="M 35.43349 0 C 35.43349 19.56963 19.56963 35.43349 0 35.43349 C -9.39578 35.43349 -18.4115 31.69907 -24.73125 25.37933 "/>
<path transform="matrix(-1.9641665,1.9641665,1.9641665,1.9641665,413.5215,359.50184)" stroke-width=".31879" stroke-linecap="round" stroke-linejoin="round" fill="none" stroke="#0000ff" d="M -1.19551 1.59401 C -1.09587 .99626 0 .09961 .29886 0 C 0 -.09961 -1.09587 -.99626 -1.19551 -1.59401 "/>
<symbol id="font_0_3">
<path d="M .41300003 .511 C .41300003 .577 .395 .716 .293 .716 C .15400002 .716 0 .43400003 0 .20500002 C 0 .111 .029 0 .12 0 C .261 0 .41300003 .28700004 .41300003 .511 M .106 .374 C .123 .43800003 .143 .518 .183 .589 C .21000001 .638 .24700001 .694 .29200004 .694 C .34100003 .694 .34700004 .63 .34700004 .573 C .34700004 .524 .33900003 .47300003 .31500004 .374 L .106 .374 M .30600003 .34200005 C .29500003 .29600004 .27400003 .21100001 .23600003 .13900002 C .201 .071 .16300002 .022000002 .12 .022000002 C .087000008 .022000002 .066 .051000004 .066 .14400001 C .066 .18600002 .072000008 .24400002 .098 .34200005 L .30600003 .34200005 Z "/>
</symbol>
<use xlink:href="#font_0_3" transform="matrix(27.673888,0,0,-27.673888,597.1317,386.04887)" fill="#ff0000"/>
<symbol id="font_1_3">
<path d="M .63100007 .19400002 C .646 .19400002 .665 .19400002 .665 .214 C .665 .23400001 .646 .23400001 .632 .23400001 L .033 .23400001 C .019000002 .23400001 0 .23400001 0 .214 C 0 .19400002 .019000002 .19400002 .034 .19400002 L .63100007 .19400002 M .632 0 C .646 0 .665 0 .665 .02000001 C .665 .040000008 .646 .040000008 .63100007 .040000008 L .034 .040000008 C .019000002 .040000008 0 .040000008 0 .02000001 C 0 0 .019000002 0 .033 0 L .632 0 Z "/>
</symbol>
<use xlink:href="#font_1_3" transform="matrix(27.673888,0,0,-27.673888,618.9664,382.0638)" fill="#ff0000"/>
<symbol id="font_0_1">
<path d="M .43600003 .24700003 C .43600003 .404 .343 .45300005 .269 .45300005 C .132 .45300005 0 .31000004 0 .16900002 C 0 .076000008 .060000004 0 .162 0 C .225 0 .29700003 .023000002 .37300004 .08400001 C .386 .031000004 .419 0 .464 0 C .517 0 .54800006 .055000005 .54800006 .071 C .54800006 .078 .542 .081 .536 .081 C .52900007 .081 .526 .078 .523 .071 C .505 .022000002 .46900005 .022000002 .467 .022000002 C .43600003 .022000002 .43600003 .1 .43600003 .124000009 C .43600003 .14500001 .43600003 .14700002 .446 .15900001 C .54 .277 .56100007 .39300005 .56100007 .39400003 C .56100007 .39600004 .56 .404 .549 .404 C .53900006 .404 .53900006 .40100003 .53400006 .38300003 C .51600006 .32000003 .48300005 .24400002 .43600003 .18500002 L .43600003 .24700003 M .36900003 .11000001 C .28100003 .033000005 .204 .022000002 .164 .022000002 C .10400001 .022000002 .074 .067 .074 .13100001 C .074 .18000002 .1 .28800003 .132 .33900003 C .17900002 .41200004 .23300001 .43100003 .268 .43100003 C .367 .43100003 .367 .3 .367 .22200002 C .367 .18500002 .367 .127 .36900003 .11000001 Z "/>
</symbol>
<use xlink:href="#font_0_1" transform="matrix(27.673888,0,0,-27.673888,647.7624,386.04887)" fill="#ff0000"/>
<use xlink:href="#font_0_3" transform="matrix(27.673888,0,0,-27.673888,508.55119,334.93498)" fill="#0000ff"/>
<use xlink:href="#font_1_3" transform="matrix(27.673888,0,0,-27.673888,530.3858,330.94993)" fill="#0000ff"/>
<symbol id="font_0_2">
<path d="M .54600009 .763 C .54600009 .83800008 .49100004 .90000006 .41 .90000006 C .352 .90000006 .324 .88400009 .289 .85800006 C .23400001 .818 .179 .721 .16000001 .64500007 L .0010000002 .00999999 C 0 .0059999974 .005000001 0 .013000002 0 C .021 0 .024000003 .002000004 .025 .004999995 L .095000009 .28100003 C .11400001 .221 .158 .184 .23100002 .184 C .304 .184 .379 .21900001 .424 .263 C .47200004 .30900003 .50400009 .37300004 .50400009 .44700004 C .50400009 .51900008 .467 .571 .431 .596 C .489 .62900009 .54600009 .691 .54600009 .763 M .366 .597 C .35300002 .592 .342 .59000006 .318 .59000006 C .304 .59000006 .284 .589 .274 .594 C .276 .60400006 .312 .602 .323 .602 C .344 .602 .35300002 .602 .366 .597 M .49000005 .786 C .49000005 .716 .45200003 .64400008 .4 .61300006 C .373 .623 .35300002 .625 .323 .625 C .30200003 .625 .246 .62600007 .246 .59300008 C .24500002 .56500008 .297 .568 .315 .568 C .352 .568 .367 .569 .397 .58100005 C .435 .545 .44 .51400008 .441 .46800003 C .44300003 .41000004 .419 .335 .391 .296 C .352 .24200002 .285 .206 .228 .206 C .15200001 .206 .11400001 .264 .11400001 .335 C .11400001 .34500004 .11400001 .36 .119 .379 L .18300002 .632 C .20500002 .71800008 .277 .87700006 .397 .87700006 C .455 .87700006 .49000005 .846 .49000005 .786 Z "/>
</symbol>
<use xlink:href="#font_0_2" transform="matrix(27.673888,0,0,-27.673888,558.84976,339.9993)" fill="#0000ff"/>
<symbol id="font_0_4">
<path d="M .14400001 .115 C .10400002 .048 .065 .034 .021000002 .031000002 C .009000003 .030000002 0 .030000002 0 .011000001 C 0 .0050000005 .0050000029 0 .013 0 C .040000004 0 .07100001 .003 .09900001 .003 C .13200002 .003 .16700001 0 .19900002 0 C .20500002 0 .21800003 0 .21800003 .019000002 C .21800003 .030000002 .20900002 .031000002 .20200002 .031000002 C .17900002 .033 .15500002 .041 .15500002 .066 C .15500002 .078 .16100002 .089 .16900002 .10300001 L .245 .231 L .49600003 .231 C .49800007 .21000001 .512 .074 .512 .064 C .512 .034 .46000005 .031000002 .44000004 .031000002 C .42600004 .031000002 .41600005 .031000002 .41600005 .011000001 C .41600005 0 .42800004 0 .43000005 0 C .47100006 0 .514 .003 .555 .003 C .58 .003 .643 0 .668 0 C .674 0 .686 0 .686 .020000002 C .686 .031000002 .676 .031000002 .663 .031000002 C .601 .031000002 .601 .038000004 .598 .067 L .537 .69200006 C .535 .712 .535 .716 .518 .716 C .502 .716 .49800007 .70900008 .492 .69900009 L .14400001 .115 M .26400004 .26200003 L .46100004 .592 L .493 .26200003 L .26400004 .26200003 Z "/>
</symbol>
<use xlink:href="#font_0_4" transform="matrix(27.673888,0,0,-27.673888,590.9186,234.88056)"/>
<symbol id="font_0_6">
<path d="M .059000009 .07000001 C .056 .055000005 .050000006 .032 .050000006 .027000003 C .050000006 .009000001 .064 0 .079 0 C .091000009 0 .10900001 .008000001 .11600001 .028 C .118 .032 .15200001 .16800002 .156 .18600002 C .164 .21900001 .18200001 .28900004 .18800001 .316 C .19200002 .32900004 .22000002 .37600003 .244 .39800004 C .252 .40500004 .281 .43100003 .324 .43100003 C .35 .43100003 .365 .41900004 .366 .41900004 C .336 .41400004 .314 .39000003 .314 .36400003 C .314 .34800003 .325 .32900004 .352 .32900004 C .379 .32900004 .407 .35200004 .407 .388 C .407 .42300005 .375 .45300005 .324 .45300005 C .259 .45300005 .21500002 .404 .19600001 .37600003 C .18800001 .42100004 .15200001 .45300005 .105000007 .45300005 C .059000009 .45300005 .040000008 .41400004 .031000002 .39600004 C .013000002 .36200003 0 .30200003 0 .29900003 C 0 .28900004 .01 .28900004 .012 .28900004 C .022000002 .28900004 .023 .29000003 .029000001 .31200005 C .046000005 .38300003 .06600001 .43100003 .10200001 .43100003 C .119 .43100003 .133 .42300005 .133 .38500003 C .133 .36400003 .13000001 .35300002 .11700001 .30100004 L .059000009 .07000001 Z "/>
</symbol>
<use xlink:href="#font_0_6" transform="matrix(27.673888,0,0,-27.673888,648.57479,62.171113)"/>
<use xlink:href="#font_1_3" transform="matrix(27.673888,0,0,-27.673888,670.2636,58.186075)"/>
<symbol id="font_0_5">
<path d="M .314 .605 L .4 .605 C .42000003 .605 .43 .605 .43 .625 C .43 .63600006 .42000003 .63600006 .40300004 .63600006 L .32000003 .63600006 L .34100003 .75 C .34500004 .771 .35900004 .842 .365 .8540001 C .374 .873 .39100004 .888 .41200004 .888 C .416 .888 .44200004 .888 .461 .87 C .41700004 .86600008 .407 .8310001 .407 .816 C .407 .793 .425 .781 .444 .781 C .47 .781 .49900005 .8030001 .49900005 .8410001 C .49900005 .8870001 .45300005 .9100001 .41200004 .9100001 C .37800003 .9100001 .31500004 .8920001 .28500004 .793 C .279 .7720001 .27600003 .7620001 .252 .63600006 L .18300002 .63600006 C .164 .63600006 .15300001 .63600006 .15300001 .61700007 C .15300001 .605 .162 .605 .18100001 .605 L .24700001 .605 L .172 .21000001 C .15400002 .113000009 .13700001 .022 .08500001 .022 C .081 .022 .056 .022 .037 .040000008 C .083000008 .043000014 .09200001 .07900001 .09200001 .094000007 C .09200001 .117000009 .074 .12900001 .055 .12900001 C .029 .12900001 0 .10700001 0 .069000009 C 0 .024000004 .044 0 .08500001 0 C .14 0 .18 .059 .19800002 .09700001 C .23000002 .16000001 .25300003 .28100003 .254 .28800003 L .314 .605 Z "/>
</symbol>
<use xlink:href="#font_0_5" transform="matrix(27.673888,0,0,-27.673888,699.3917,67.53985)"/>
<symbol id="font_1_1">
<path d="M .23200003 .00999999 C .23200003 .012999982 .23200003 .014999986 .215 .03199999 C .09 .15799999 .058 .347 .058 .5 C .058 .674 .096 .84800007 .21900001 .97300007 C .23200003 .985 .23200003 .98700007 .23200003 .99 C .23200003 .99700006 .22800002 1 .222 1 C .21200001 1 .12200001 .93200007 .06299999 .805 C .012000002 .69500008 0 .584 0 .5 C 0 .422 .011 .301 .066 .188 C .126 .065 .21200001 0 .222 0 C .22800002 0 .23200003 .0029999912 .23200003 .00999999 Z "/>
</symbol>
<use xlink:href="#font_1_1" transform="matrix(27.673888,0,0,-27.673888,717.19247,68.78517)"/>
<use xlink:href="#font_0_3" transform="matrix(27.673888,0,0,-27.673888,726.37619,62.171113)"/>
<symbol id="font_1_2">
<path d="M .232 .5 C .232 .578 .22100002 .699 .16600001 .81200006 C .106 .93500009 .020000004 1 .009999998 1 C .0040000008 1 0 .99600008 0 .99 C 0 .98700007 0 .985 .019000002 .967 C .117000009 .86800006 .174 .709 .174 .5 C .174 .329 .137 .153 .012999997 .026999996 C 0 .014999986 0 .012999982 0 .00999999 C 0 .003999993 .0040000008 0 .009999998 0 C .020000004 0 .11000001 .06799999 .169 .195 C .22 .305 .232 .416 .232 .5 Z "/>
</symbol>
<use xlink:href="#font_1_2" transform="matrix(27.673888,0,0,-27.673888,740.55239,68.78517)"/>
<path transform="matrix(2.7777777,0,0,-2.7777777,1471.6943,454.74165)" stroke-width=".3985" stroke-linecap="butt" stroke-miterlimit="10" stroke-linejoin="miter" fill="none" stroke="#000000" d="M -170.08086 0 L 169.62258 0 "/>
<path transform="matrix(2.7777777,0,0,-2.7777777,1942.8682,454.74165)" stroke-width=".31879" stroke-linecap="round" stroke-linejoin="round" fill="none" stroke="#000000" d="M -1.19551 1.59401 C -1.09587 .99626 0 .09961 .29886 0 C 0 -.09961 -1.09587 -.99626 -1.19551 -1.59401 "/>
<use xlink:href="#font_0_7" transform="matrix(27.673888,0,0,-27.673888,1954.7163,461.00163)"/>
<path transform="matrix(2.7777777,0,0,-2.7777777,1471.6943,454.74165)" stroke-width=".79701" stroke-linecap="butt" stroke-miterlimit="10" stroke-linejoin="miter" fill="none" stroke="#000000" d="M -141.73404 125.66177 C -141.73404 125.66177 -140.70494 125.92328 -140.3097 126.0171 C -139.91445 126.11093 -139.2806 126.25401 -138.88535 126.33806 C -138.4901 126.4221 -137.85625 126.54889 -137.461 126.62288 C -137.06574 126.69688 -136.43189 126.80768 -136.03665 126.87138 C -135.64139 126.93509 -135.00756 127.02881 -134.61229 127.08203 C -134.21706 127.13527 -133.58319 127.21239 -133.18795 127.25504 C -132.7927 127.29771 -132.15885 127.35757 -131.7636 127.38956 C -131.36835 127.42154 -130.7345 127.46437 -130.33925 127.48558 C -129.94402 127.5068 -129.31015 127.5321 -128.91492 127.54247 C -128.51967 127.55281 -127.88582 127.56076 -127.49057 127.5602 C -127.0953 127.55965 -126.46147 127.54979 -126.06621 127.53836 C -125.67096 127.52693 -125.0371 127.50003 -124.64186 127.4778 C -124.24661 127.45557 -123.61276 127.41113 -123.21751 127.3781 C -122.82228 127.34506 -122.18842 127.28343 -121.79317 127.23969 C -121.39792 127.19595 -120.76407 127.11708 -120.36882 127.06277 C -119.97357 127.00847 -119.33972 126.913 -118.94447 126.84824 C -118.54921 126.7835 -117.91537 126.67108 -117.52011 126.59607 C -117.12488 126.52106 -116.49101 126.39256 -116.09578 126.30756 C -115.70053 126.22256 -115.06668 126.07816 -114.67143 125.98338 C -114.27618 125.8886 -113.64233 125.7287 -113.24709 125.62437 C -112.85184 125.52003 -112.21797 125.34502 -111.82274 125.23141 C -111.42749 125.11781 -110.79364 124.92812 -110.39839 124.80557 C -110.00314 124.68303 -109.3693 124.4793 -108.97403 124.34816 C -108.57878 124.21704 -107.94495 123.99983 -107.54968 123.86049 C -107.15443 123.72115 -106.52058 123.49103 -106.12534 123.34381 C -105.7301 123.19661 -105.09624 122.95412 -104.701 122.79945 C -104.30576 122.6448 -103.6719 122.39084 -103.27666 122.22916 C -102.88141 122.06749 -102.24756 121.80243 -101.85231 121.63422 C -101.45705 121.46599 -100.82321 121.19102 -100.42796 121.01675 C -100.0327 120.84248 -99.39885 120.55806 -99.0036 120.37811 C -98.60835 120.19818 -97.9745 119.90486 -97.57925 119.7198 C -97.18402 119.53471 -96.55016 119.23384 -96.1549 119.04417 C -95.75966 118.8545 -95.12581 118.54648 -94.73056 118.35277 C -94.33531 118.15904 -93.70146 117.84523 -93.30621 117.64793 C -92.91098 117.45064 -92.27711 117.13109 -91.88188 116.9308 C -91.48662 116.7305 -90.85278 116.40701 -90.45752 116.20435 C -90.06227 116.00168 -89.42842 115.67468 -89.03317 115.47011 C -88.63792 115.26553 -88.00406 114.93578 -87.60883 114.72983 C -87.21358 114.52385 -86.57973 114.19226 -86.18448 113.98564 C -85.78925 113.77902 -85.15538 113.44737 -84.76013 113.2406 C -84.36488 113.03381 -83.73103 112.70175 -83.33578 112.49533 C -82.94052 112.28893 -82.30669 111.95831 -81.91142 111.75288 C -81.51617 111.54745 -80.88232 111.21869 -80.48708 111.01476 C -80.09184 110.81084 -79.45798 110.48495 -79.06274 110.28311 C -78.6675 110.08125 -78.03365 109.75912 -77.6384 109.5599 C -77.24315 109.3607 -76.6093 109.04326 -76.21405 108.84732 C -75.8188 108.65137 -75.18494 108.33984 -74.7897 108.14767 C -74.39444 107.95552 -73.7606 107.65022 -73.36534 107.46233 C -72.97011 107.27443 -72.33624 106.97653 -71.941 106.79341 C -71.54575 106.61026 -70.9119 106.3202 -70.51665 106.14243 C -70.1214 105.96465 -69.48755 105.68396 -69.0923 105.512 C -68.69707 105.34003 -68.0632 105.06871 -67.66797 104.903 C -67.27272 104.73726 -66.63887 104.4765 -66.24362 104.31755 C -65.84836 104.15862 -65.21452 103.90918 -64.81926 103.75742 C -64.42401 103.60564 -63.79018 103.36781 -63.39491 103.22366 C -62.99966 103.07951 -62.3658 102.8546 -61.97057 102.71846 C -61.57532 102.58232 -60.94147 102.37025 -60.54622 102.24245 C -60.15099 102.11465 -59.51712 101.91646 -59.12187 101.79736 C -58.72662 101.67827 -58.09277 101.49408 -57.69753 101.38408 C -57.30226 101.27408 -56.66843 101.1051 -56.27318 101.00452 C -55.87793 100.90395 -55.24408 100.75015 -54.84883 100.65915 C -54.45358 100.56813 -53.81973 100.42972 -53.42448 100.34859 C -53.02924 100.26746 -52.39539 100.14532 -52.00014 100.07436 C -51.60489 100.00339 -50.97102 99.89774 -50.57579 99.8371 C -50.18054 99.77646 -49.54669 99.68744 -49.15144 99.63727 C -48.75621 99.5871 -48.12234 99.51505 -47.7271 99.47551 C -47.33183 99.43594 -46.698 99.38103 -46.30273 99.35223 C -45.90749 99.32343 -45.27364 99.28586 -44.87839 99.2679 C -44.48314 99.24992 -43.84929 99.22983 -43.45404 99.22269 C -43.0588 99.21555 -42.42494 99.21266 -42.02971 99.21642 C -41.63446 99.22015 -41.00061 99.23512 -40.60536 99.24973 C -40.21011 99.26433 -39.57626 99.29633 -39.18102 99.32173 C -38.78575 99.34714 -38.1519 99.39665 -37.75665 99.43289 C -37.3614 99.46913 -36.72755 99.53609 -36.3323 99.58298 C -35.93707 99.62988 -35.3032 99.71355 -34.90796 99.77092 C -34.51271 99.8283 -33.87886 99.92871 -33.48361 99.99649 C -33.08836 100.06429 -32.45451 100.1815 -32.05927 100.25949 C -31.66403 100.33748 -31.03017 100.47067 -30.63493 100.5586 C -30.23967 100.6465 -29.60583 100.79547 -29.21057 100.89316 C -28.81532 100.99081 -28.18149 101.15538 -27.78622 101.26253 C -27.39098 101.36969 -26.75713 101.54918 -26.36188 101.66544 C -25.96663 101.78172 -25.33276 101.97548 -24.93753 102.10059 C -24.54228 102.22568 -23.90843 102.43347 -23.51318 102.56708 C -23.11795 102.70065 -22.48409 102.92169 -22.08884 103.0634 C -21.69357 103.20512 -21.05974 103.43909 -20.66449 103.5885 C -20.26923 103.73795 -19.63539 103.98367 -19.24013 104.14043 C -18.8449 104.29718 -18.21103 104.55461 -17.8158 104.7183 C -17.42055 104.88199 -16.7867 105.1501 -16.39145 105.32018 C -15.9962 105.49025 -15.36235 105.7681 -14.9671 105.94412 C -14.57185 106.12012 -13.93799 106.4073 -13.54276 106.58882 C -13.1475 106.77032 -12.51366 107.06587 -12.11841 107.25232 C -11.72316 107.43878 -11.08931 107.7418 -10.69405 107.93271 C -10.2988 108.12361 -9.66495 108.4334 -9.2697 108.62822 C -8.87445 108.82304 -8.2406 109.13869 -7.84535 109.33694 C -7.4501 109.53519 -6.81625 109.85606 -6.421 110.05711 C -6.02577 110.25815 -5.3919 110.58263 -4.99667 110.78595 C -4.60143 110.98927 -3.96758 111.31749 -3.57233 111.52255 C -3.17706 111.72762 -2.54323 112.05771 -2.14796 112.26393 C -1.75272 112.47012 -1.11885 112.80203 -.72362 113.00874 C -.32837 113.21547 .30545 113.54707 .7007 113.7538 C 1.09593 113.96051 1.7298 114.29239 2.12505 114.49863 C 2.5203 114.70486 3.15414 115.03516 3.5494 115.24022 C 3.94464 115.4453 4.57849 115.77328 4.97374 115.97661 C 5.36899 116.17993 6.00284 116.50458 6.39809 116.70566 C 6.79333 116.90674 7.42717 117.22752 7.82243 117.42584 C 8.21768 117.62415 8.85153 117.9401 9.24678 118.13498 C 9.64203 118.32986 10.27588 118.63954 10.67113 118.8305 C 11.06638 119.02147 11.70024 119.32475 12.09547 119.51132 C 12.49072 119.69786 13.12457 119.99345 13.51982 120.17503 C 13.91507 120.35664 14.54892 120.64406 14.94417 120.82018 C 15.33943 120.99628 15.97327 121.27415 16.36853 121.44432 C 16.76378 121.61449 17.39763 121.88286 17.79288 122.04663 C 18.18811 122.21042 18.82198 122.46786 19.21721 122.62473 C 19.61246 122.7816 20.2463 123.02774 20.64156 123.17729 C 21.0368 123.32683 21.67065 123.56076 22.0659 123.7026 C 22.46115 123.84445 23.09502 124.06581 23.49025 124.1996 C 23.88551 124.33336 24.51935 124.54149 24.91461 124.66673 C 25.30984 124.79198 25.94371 124.9859 26.33896 125.1023 C 26.7342 125.21869 27.36806 125.39838 27.7633 125.50565 C 28.15855 125.61292 28.7924 125.77765 29.18765 125.87546 C 29.5829 125.97328 30.21675 126.12259 30.612 126.21068 C 31.00723 126.29877 31.6411 126.4323 32.03633 126.51044 C 32.4316 126.58855 33.06543 126.70592 33.4607 126.77383 C 33.85594 126.84177 34.48979 126.94252 34.88504 127.00006 C 35.28029 127.05762 35.91415 127.14157 36.30939 127.18864 C 36.70464 127.23572 37.33849 127.30298 37.73373 127.33939 C 38.12897 127.37578 38.76283 127.4254 39.15808 127.45097 C 39.55333 127.47658 40.18718 127.50908 40.58243 127.52386 C 40.97769 127.53867 41.61153 127.55367 42.00679 127.5576 C 42.40202 127.56152 43.03589 127.55916 43.43112 127.55219 C 43.82637 127.54524 44.46022 127.52524 44.85547 127.50742 C 45.25072 127.48961 45.88457 127.45236 46.27982 127.42374 C 46.67506 127.39511 47.30891 127.34044 47.70416 127.3011 C 48.09941 127.26178 48.73328 127.19019 49.12851 127.1402 C 49.52377 127.09023 50.15761 127.00128 50.55287 126.9408 C 50.9481 126.88031 51.58195 126.775 51.97722 126.70421 C 52.37247 126.63342 53.00632 126.51155 53.40157 126.43062 C 53.79681 126.3497 54.43066 126.21176 54.82591 126.12093 C 55.22115 126.0301 55.85501 125.87646 56.25024 125.77597 C 56.6455 125.67548 57.27934 125.50652 57.67459 125.39664 C 58.06985 125.28676 58.70369 125.10294 59.09894 124.984 C 59.4942 124.86507 60.12805 124.66699 60.5233 124.53935 C 60.91855 124.41171 61.5524 124.20001 61.94765 124.064 C 62.34288 123.92798 62.97675 123.70306 63.372 123.55899 C 63.76724 123.41495 64.4011 123.17734 64.79634 123.02568 C 65.19159 122.87404 65.82544 122.6248 66.22069 122.46597 C 66.61594 122.30716 67.24979 122.04659 67.64503 121.88097 C 68.04028 121.71538 68.67413 121.44423 69.06938 121.27238 C 69.46463 121.10056 70.09848 120.8201 70.49373 120.64241 C 70.88898 120.4647 71.52283 120.17471 71.91808 119.99164 C 72.31332 119.80858 72.94719 119.51077 73.34242 119.32294 C 73.73767 119.1351 74.37152 118.82991 74.76677 118.6378 C 75.162 118.44571 75.79587 118.13426 76.19112 117.93839 C 76.58638 117.74251 77.22021 117.42516 77.61548 117.226 C 78.01073 117.02684 78.64458 116.7048 79.03983 116.50302 C 79.43506 116.30122 80.06892 115.9755 80.46416 115.77159 C 80.8594 115.5677 81.49326 115.23889 81.8885 115.03346 C 82.28375 114.82805 82.9176 114.4974 83.31285 114.29102 C 83.7081 114.08464 84.34195 113.75275 84.7372 113.54597 C 85.13246 113.33919 85.76631 113.00734 86.16156 112.8007 C 86.55681 112.59409 87.19064 112.26266 87.5859 112.05673 C 87.98114 111.8508 88.615 111.52109 89.01025 111.31645 C 89.4055 111.1118 90.03935 110.78455 90.4346 110.58179 C 90.82985 110.37903 91.4637 110.05545 91.85895 109.85512 C 92.25418 109.6548 92.88805 109.33533 93.28328 109.13797 C 93.67854 108.94063 94.31238 108.62651 94.70763 108.43272 C 95.10289 108.23894 95.73672 107.931 96.13199 107.7413 C 96.52724 107.5516 97.1611 107.25061 97.55634 107.06546 C 97.95158 106.88033 98.58543 106.58696 98.98068 106.40692 C 99.37592 106.22688 100.00978 105.94225 100.40503 105.76785 C 100.80028 105.59344 101.43413 105.31828 101.82938 105.14996 C 102.22462 104.98166 102.85847 104.71655 103.25372 104.5548 C 103.64899 104.39302 104.28282 104.13884 104.67809 103.98407 C 105.07332 103.82928 105.70718 103.58661 106.10242 103.43929 C 106.49767 103.29195 107.13152 103.06165 107.52676 102.9222 C 107.92201 102.78271 108.55586 102.56534 108.95111 102.43407 C 109.34636 102.30278 109.98022 102.0987 110.37546 101.976 C 110.7707 101.8533 111.40456 101.6635 111.7998 101.54974 C 112.19505 101.436 112.8289 101.26065 113.22417 101.15613 C 113.61942 101.05162 114.25327 100.89142 114.64851 100.79648 C 115.04376 100.70154 115.67761 100.557 116.07286 100.47186 C 116.4681 100.3867 117.10196 100.25787 117.4972 100.18271 C 117.89244 100.10754 118.52629 99.99501 118.92154 99.9301 C 119.31679 99.8652 119.95064 99.76938 120.34589 99.71492 C 120.74115 99.66045 121.37498 99.58147 121.77025 99.53758 C 122.1655 99.49367 122.79935 99.43175 123.1946 99.39851 C 123.58984 99.36526 124.2237 99.32042 124.61894 99.29794 C 125.01418 99.27548 125.64804 99.24812 126.04329 99.23653 C 126.43854 99.22491 127.07239 99.21494 127.46764 99.21425 C 127.86288 99.21356 128.49674 99.22139 128.89199 99.23157 C 129.28723 99.24173 129.92108 99.26654 130.31632 99.28757 C 130.71158 99.30861 131.34542 99.35132 131.74068 99.38315 C 132.13593 99.415 132.76978 99.47453 133.16503 99.51703 C 133.56027 99.55951 134.19414 99.6363 134.58937 99.68939 C 134.98462 99.74246 135.61847 99.83604 136.01372 99.89961 C 136.40895 99.96315 137.04282 100.07364 137.43807 100.14745 C 137.83332 100.22127 138.46717 100.34776 138.86241 100.43164 C 139.25768 100.51549 139.89151 100.65825 140.28678 100.75192 C 140.68202 100.8456 141.71112 101.10681 141.71112 101.10681 "/>
<path transform="matrix(2.7777777,0,0,-2.7777777,1471.6943,454.74165)" stroke-width=".3985" stroke-linecap="butt" stroke-miterlimit="10" stroke-linejoin="miter" fill="none" stroke="#000000" d="M 0 0 L 141.73404 101.11267 "/>
<path transform="matrix(2.7777777,0,0,-2.7777777,1471.6943,454.74165)" stroke-width=".3985" stroke-linecap="butt" stroke-miterlimit="10" stroke-linejoin="miter" fill="none" stroke="#000000" d="M 0 0 L -141.73404 125.66177 "/>
<path transform="matrix(2.7777777,0,0,-2.7777777,1471.6943,454.74165)" stroke-width=".3985" stroke-linecap="butt" stroke-miterlimit="10" stroke-linejoin="miter" fill="none" stroke="#000000" d="M 0 0 L 113.38724 101.11267 "/>
<path transform="matrix(2.7777777,0,0,-2.7777777,1471.6943,454.74165)" stroke-width=".3985" stroke-linecap="butt" stroke-miterlimit="10" stroke-linejoin="miter" fill="none" stroke="#000000" d="M 0 0 L -113.38724 125.66177 "/>
<path transform="matrix(2.7777777,0,0,-2.7777777,1471.6943,454.74165)" stroke-width=".3985" stroke-linecap="butt" stroke-miterlimit="10" stroke-linejoin="miter" fill="none" stroke="#000000" d="M 0 0 L 85.04042 113.38724 "/>
<path transform="matrix(2.7777777,0,0,-2.7777777,1471.6943,454.74165)" stroke-width=".3985" stroke-linecap="butt" stroke-miterlimit="10" stroke-linejoin="miter" fill="none" stroke="#000000" d="M 0 0 L -85.04042 113.38724 "/>
<path transform="matrix(2.7777777,0,0,-2.7777777,1471.6943,454.74165)" stroke-width=".3985" stroke-linecap="butt" stroke-miterlimit="10" stroke-linejoin="miter" fill="none" stroke="#000000" d="M 0 0 L 56.69362 125.66177 "/>
<path transform="matrix(2.7777777,0,0,-2.7777777,1471.6943,454.74165)" stroke-width=".3985" stroke-linecap="butt" stroke-miterlimit="10" stroke-linejoin="miter" fill="none" stroke="#000000" d="M 0 0 L -56.69362 101.11267 "/>
<path transform="matrix(2.7777777,0,0,-2.7777777,1471.6943,454.74165)" stroke-width=".3985" stroke-linecap="butt" stroke-miterlimit="10" stroke-linejoin="miter" fill="none" stroke="#000000" d="M 0 0 L 28.3468 125.66177 "/>
<path transform="matrix(2.7777777,0,0,-2.7777777,1471.6943,454.74165)" stroke-width=".3985" stroke-linecap="butt" stroke-miterlimit="10" stroke-linejoin="miter" fill="none" stroke="#000000" d="M 0 0 L -28.3468 101.11267 "/>
<path transform="matrix(2.7777777,0,0,-2.7777777,1471.6943,454.74165)" stroke-width=".3985" stroke-linecap="butt" stroke-miterlimit="10" stroke-linejoin="miter" fill="none" stroke="#000000" d="M 0 0 L 0 113.38724 "/>
<use xlink:href="#font_0_3" transform="matrix(27.673888,0,0,-27.673888,1045.2706,87.94888)"/>
<use xlink:href="#font_1_3" transform="matrix(27.673888,0,0,-27.673888,1067.1052,83.963848)"/>
<use xlink:href="#font_0_2" transform="matrix(27.673888,0,0,-27.673888,1095.5691,93.01321)"/>
<use xlink:href="#font_0_3" transform="matrix(27.673888,0,0,-27.673888,1143.7456,107.09607)"/>
<use xlink:href="#font_1_3" transform="matrix(27.673888,0,0,-27.673888,1165.5802,103.11103)"/>
<use xlink:href="#font_0_3" transform="matrix(27.673888,0,0,-27.673888,1194.4067,107.09607)"/>
<symbol id="font_2_1">
<path d="M .075 .073 C .07100001 .060000004 .065 .035 .065 .032 C .065 .010000001 .083000008 0 .09900001 0 C .117 0 .133 .013 .138 .022 C .143 .031000004 .15100001 .063 .156 .084 C .161 .103 .172 .14900002 .178 .17400001 C .184 .19600001 .19000001 .21800001 .19500001 .24100001 C .20600002 .282 .20800002 .29 .237 .331 C .26500003 .37100003 .31200005 .423 .38700003 .423 C .44500003 .423 .44600005 .372 .44600005 .35300002 C .44600005 .293 .40300004 .18200001 .38700003 .14000002 C .37600003 .112 .37200005 .103 .37200005 .086 C .37200005 .033000005 .41600005 0 .467 0 C .56700006 0 .61100009 .13800001 .61100009 .15300001 C .61100009 .16600001 .59800007 .16600001 .595 .16600001 C .58100005 .16600001 .58000007 .16000001 .57600006 .14900002 C .55300006 .069000009 .51000007 .028 .47000004 .028 C .44900004 .028 .44500003 .042000005 .44500003 .063 C .44500003 .086 .45000003 .099 .46800006 .14400001 C .48000003 .17500001 .521 .28100003 .521 .337 C .521 .43400003 .44400005 .451 .39100004 .451 C .30800004 .451 .25200004 .4 .22200002 .36 C .21500002 .42900003 .156 .451 .114999998 .451 C .072 .451 .049 .42000003 .036000004 .397 C .014000002 .36 0 .303 0 .298 C 0 .285 .014000002 .285 .017 .285 C .031 .285 .032 .28800003 .039 .315 C .054 .374 .073 .423 .112 .423 C .138 .423 .145 .40100003 .145 .374 C .145 .35500003 .136 .31800003 .12900001 .291 C .12200001 .264 .112 .22300002 .10700001 .20100002 L .075 .073 Z "/>
</symbol>
<use xlink:href="#font_2_1" transform="matrix(19.371666,0,0,-19.371666,1207.1438,111.13537)"/>
<symbol id="font_3_1">
<path d="M .63600006 0 C .65200009 0 .67600008 0 .67600008 .023999989 C .67600008 .048999996 .65300008 .048999996 .63600006 .048999996 L .04 .048999996 C .023999997 .048999996 0 .048999996 0 .025000006 C 0 0 .02300001 0 .04 0 L .63600006 0 Z "/>
</symbol>
<use xlink:href="#font_3_1" transform="matrix(19.371666,0,0,-19.371666,1222.006,106.56365)"/>
<symbol id="font_4_1">
<path d="M .22600001 .63600006 C .22600001 .66300007 .224 .66400006 .19600001 .66400006 C .132 .601 .041 .6 0 .6 L 0 .564 C .023999997 .564 .09000001 .564 .14500001 .592 L .14500001 .082 C .14500001 .049000004 .14500001 .036000004 .04500001 .036000004 L .0069999995 .036000004 L .0069999995 0 C .024999999 .001 .148 .004 .185 .004 C .21600002 .004 .34200005 .001 .36400003 0 L .36400003 .036000004 L .32600004 .036000004 C .22600001 .036000004 .22600001 .049000004 .22600001 .082 L .22600001 .63600006 Z "/>
</symbol>
<use xlink:href="#font_4_1" transform="matrix(19.371666,0,0,-19.371666,1239.3225,110.94165)"/>
<use xlink:href="#font_0_3" transform="matrix(27.673888,0,0,-27.673888,1832.3262,149.6933)"/>
<use xlink:href="#font_1_3" transform="matrix(27.673888,0,0,-27.673888,1854.1608,145.70825)"/>
<use xlink:href="#font_0_1" transform="matrix(27.673888,0,0,-27.673888,1882.9568,149.6933)"/>
</g>
</svg>
