<?xml version="1.0" encoding="UTF-8" standalone="no"?>
<!DOCTYPE svg PUBLIC "-//W3C//DTD SVG 1.1//EN" "http://www.w3.org/Graphics/SVG/1.1/DTD/svg11.dtd">
<svg xmlns="http://www.w3.org/2000/svg" xmlns:xlink="http://www.w3.org/1999/xlink" version="1.1" width="359.03889pt" height="509.29167pt" viewBox="0 0 359.03889 509.29167">
<g enable-background="new">
<path transform="matrix(2.7777777,0,0,-2.7777777,245.48055,115.03889)" d="M -56.69362 0 C -56.69362 0 -57.01326 -.32466 -57.1361 -.45068 C -57.25893 -.5767 -57.45714 -.78043 -57.57901 -.90831 C -57.70088 -1.0362 -57.8936 -1.24245 -58.01457 -1.37242 C -58.13554 -1.50241 -58.33081 -1.71317 -58.451 -1.8452 C -58.57121 -1.97722 -58.76219 -2.19012 -58.88095 -2.324 C -58.99971 -2.4579 -59.18932 -2.67444 -59.307 -2.81018 C -59.42468 -2.94592 -59.61256 -3.16473 -59.72916 -3.30241 C -59.84576 -3.44008 -60.03185 -3.66278 -60.14743 -3.80243 C -60.263 -3.94208 -60.44833 -4.16762 -60.56223 -4.30893 C -60.67612 -4.45026 -60.85556 -4.67769 -60.96838 -4.82106 C -61.08119 -4.96443 -61.2639 -5.1971 -61.3754 -5.34225 C -61.4869 -5.48743 -61.66197 -5.7205 -61.77203 -5.86737 C -61.8821 -6.01422 -62.05956 -6.25185 -62.16867 -6.40068 C -62.27777 -6.5495 -62.45091 -6.78944 -62.55838 -6.94006 C -62.66586 -7.09068 -62.83719 -7.3338 -62.94334 -7.48636 C -63.0495 -7.63892 -63.21912 -7.88528 -63.32355 -8.03958 C -63.42796 -8.19386 -63.59299 -8.4425 -63.69597 -8.59842 C -63.79893 -8.75432 -63.96425 -9.00578 -64.06578 -9.1633 C -64.16731 -9.32083 -64.32755 -9.57437 -64.42781 -9.73383 C -64.52809 -9.89328 -64.68996 -10.1513 -64.78856 -10.31256 C -64.88716 -10.4738 -65.0415 -10.73325 -65.13847 -10.89606 C -65.23546 -11.05887 -65.39223 -11.32149 -65.48753 -11.48602 C -65.58282 -11.65057 -65.73198 -11.91571 -65.82535 -12.08206 C -65.91872 -12.24843 -66.06865 -12.51718 -66.16057 -12.68503 C -66.25249 -12.85287 -66.39767 -13.12234 -66.48799 -13.29187 C -66.57831 -13.46141 -66.72302 -13.73578 -66.81154 -13.90695 C -66.90004 -14.07811 -67.03952 -14.35295 -67.12599 -14.52548 C -67.21245 -14.69801 -67.34973 -14.97629 -67.43481 -15.1505 C -67.5199 -15.3247 -67.6561 -15.60544 -67.73932 -15.78114 C -67.82256 -15.95683 -67.95314 -16.23962 -68.03474 -16.41696 C -68.11635 -16.59428 -68.24808 -16.88039 -68.32758 -17.05928 C -68.40709 -17.23819 -68.53027 -17.52579 -68.60786 -17.70636 C -68.68546 -17.88693 -68.81105 -18.17896 -68.88684 -18.3608 C -68.96265 -18.54262 -69.08054 -18.83405 -69.15416 -19.01695 C -69.22778 -19.19986 -69.34593 -19.49463 -69.41757 -19.67917 C -69.48923 -19.86371 -69.60081 -20.1608 -69.67061 -20.347 C -69.7404 -20.53322 -69.85263 -20.83392 -69.92061 -21.02133 C -69.98859 -21.20874 -70.09485 -21.50922 -70.16068 -21.69781 C -70.2265 -21.88643 -70.33102 -22.19057 -70.39511 -22.3808 C -70.4592 -22.57104 -70.56111 -22.8777 -70.62262 -23.06897 C -70.68413 -23.26022 -70.77875 -23.56667 -70.83846 -23.75931 C -70.89818 -23.95193 -70.99564 -24.26363 -71.05301 -24.45741 C -71.11038 -24.65118 -71.19672 -24.9608 -71.25197 -25.15598 C -71.30724 -25.35114 -71.39809 -25.66756 -71.45137 -25.86403 C -71.50465 -26.0605 -71.58542 -26.3749 -71.63606 -26.5721 C -71.6867 -26.76929 -71.76778 -27.08707 -71.81644 -27.28534 C -71.8651 -27.48361 -71.94046 -27.80183 -71.98685 -28.0012 C -72.03323 -28.20056 -72.1065 -28.5213 -72.15079 -28.72223 C -72.19507 -28.92316 -72.26411 -29.24739 -72.30606 -29.44934 C -72.348 -29.65129 -72.41316 -29.97476 -72.45313 -30.17773 C -72.49309 -30.38069 -72.55681 -30.70839 -72.59413 -30.91219 C -72.63145 -31.11598 -72.68701 -31.44205 -72.72217 -31.64662 C -72.75732 -31.8512 -72.8149 -32.18115 -72.8476 -32.3867 C -72.8803 -32.59224 -72.92761 -32.92151 -72.9579 -33.12807 C -72.9882 -33.33463 -73.03796 -33.66797 -73.06604 -33.87549 C -73.09412 -34.08301 -73.13507 -34.41579 -73.16032 -34.6238 C -73.18556 -34.8318 -73.22491 -35.16554 -73.24812 -35.37468 C -73.27133 -35.58382 -73.30702 -35.92114 -73.32773 -36.1312 C -73.34843 -36.34123 -73.37901 -36.6781 -73.39737 -36.88855 C -73.41571 -37.09901 -73.4441 -37.43697 -73.46007 -37.64809 C -73.47603 -37.8592 -73.4988 -38.1982 -73.5124 -38.41022 C -73.52603 -38.62224 -73.54747 -38.96364 -73.55826 -39.17625 C -73.56906 -39.38887 -73.58168 -39.7293 -73.59026 -39.9427 C -73.59883 -40.15611 -73.61424 -40.50035 -73.62012 -40.71436 C -73.62599 -40.92836 -73.62949 -41.27084 -73.63266 -41.48514 C -73.63583 -41.69945 -73.64203 -42.04416 -73.64304 -42.25896 C -73.64406 -42.47374 -73.64194 -42.81787 -73.64001 -43.03319 C -73.6381 -43.2485 -73.63351 -43.5951 -73.6292 -43.8109 C -73.62488 -44.0267 -73.61569 -44.37231 -73.60887 -44.5886 C -73.60204 -44.80487 -73.58907 -45.153 -73.5799 -45.36977 C -73.57072 -45.58653 -73.55475 -45.93398 -73.5427 -46.15092 C -73.53064 -46.36786 -73.5073 -46.71584 -73.49295 -46.93338 C -73.47862 -47.15092 -73.45659 -47.50146 -73.4393 -47.71889 C -73.42203 -47.9363 -73.38835 -48.28293 -73.36838 -48.50047 C -73.3484 -48.71802 -73.31754 -49.06892 -73.29529 -49.28683 C -73.27303 -49.50473 -73.23299 -49.85277 -73.2079 -50.07103 C -73.18282 -50.28928 -73.14218 -50.64146 -73.11447 -50.85995 C -73.08676 -51.07846 -73.0386 -51.42761 -73.00807 -51.64589 C -72.97752 -51.86415 -72.92708 -52.21455 -72.89432 -52.4331 C -72.86156 -52.65166 -72.8076 -53.00264 -72.77191 -53.22119 C -72.73622 -53.43974 -72.67517 -53.78961 -72.63696 -54.0084 C -72.59874 -54.22722 -72.53766 -54.57979 -72.49637 -54.79823 C -72.45508 -55.01666 -72.38316 -55.36453 -72.33937 -55.58286 C -72.29556 -55.80116 -72.22682 -56.1536 -72.18063 -56.3718 C -72.13443 -56.59001 -72.05553 -56.93747 -72.00632 -57.15555 C -71.9571 -57.37364 -71.87769 -57.72543 -71.82594 -57.94363 C -71.77422 -58.16185 -71.68776 -58.51024 -71.63347 -58.72826 C -71.57916 -58.94629 -71.4915 -59.29752 -71.4345 -59.51506 C -71.37749 -59.73259 -71.28244 -60.07915 -71.22255 -60.2962 C -71.16267 -60.51326 -71.06499 -60.86241 -71.00282 -61.07953 C -70.94066 -61.29666 -70.83968 -61.64485 -70.77444 -61.86113 C -70.70921 -62.07741 -70.60042 -62.42213 -70.53265 -62.63841 C -70.4649 -62.85469 -70.35667 -63.20403 -70.28612 -63.42 C -70.21555 -63.63597 -70.09691 -63.97978 -70.024 -64.1951 C -69.9511 -64.41043 -69.83626 -64.75754 -69.76057 -64.97195 C -69.6849 -65.18639 -69.55736 -65.52681 -69.47856 -65.74057 C -69.39978 -65.95433 -69.2736 -66.29906 -69.19264 -66.51265 C -69.1117 -66.72623 -68.9789 -67.06705 -68.89507 -67.27997 C -68.81125 -67.49289 -68.67499 -67.8351 -68.5884 -68.0473 C -68.50182 -68.2595 -68.36046 -68.598 -68.27092 -68.80942 C -68.18138 -69.02083 -68.0345 -69.35988 -67.94304 -69.57114 C -67.8516 -69.78238 -67.70566 -70.12157 -67.61174 -70.33195 C -67.51782 -70.54236 -67.36316 -70.87805 -67.26613 -71.0876 C -67.1691 -71.29716 -67.01228 -71.63426 -66.91232 -71.84238 C -66.81235 -72.05049 -66.64803 -72.38037 -66.54553 -72.58765 C -66.44304 -72.79492 -66.27843 -73.12968 -66.17354 -73.33638 C -66.06865 -73.54306 -65.8968 -73.87152 -65.78944 -74.0773 C -65.68208 -74.28308 -65.50972 -74.61443 -65.39972 -74.81953 C -65.28972 -75.02466 -65.10947 -75.35223 -64.9966 -75.55573 C -64.88373 -75.75922 -64.70128 -76.08374 -64.58614 -76.28627 C -64.47098 -76.4888 -64.28442 -76.81403 -64.16656 -77.01553 C -64.0487 -77.21706 -63.85695 -77.53795 -63.73663 -77.73874 C -63.6163 -77.93954 -63.42241 -78.26334 -63.29933 -78.46281 C -63.17625 -78.6623 -62.97484 -78.97841 -62.84949 -79.1765 C -62.72414 -79.3746 -62.52335 -79.69366 -62.39575 -79.89061 C -62.26816 -80.08757 -62.06018 -80.40028 -61.9299 -80.5961 C -61.79962 -80.79192 -61.58981 -81.1076 -61.45671 -81.30199 C -61.32361 -81.49635 -61.10616 -81.8042 -60.97054 -81.99707 C -60.83492 -82.18996 -60.61697 -82.50049 -60.47917 -82.69217 C -60.34138 -82.88385 -60.1178 -83.18874 -59.97743 -83.3786 C -59.83708 -83.56848 -59.6101 -83.87204 -59.46747 -84.06071 C -59.32483 -84.24939 -59.0944 -84.55144 -58.9493 -84.7385 C -58.8042 -84.92555 -58.56879 -85.22282 -58.42159 -85.40894 C -58.27438 -85.59503 -58.03824 -85.89526 -57.88828 -86.0798 C -57.73831 -86.26433 -57.49287 -86.55614 -57.34068 -86.73898 C -57.18849 -86.92183 -56.94577 -87.21657 -56.79137 -87.39775 C -56.63695 -87.57892 -56.38493 -87.86562 -56.22777 -88.04482 C -56.07059 -88.22401 -55.81793 -88.5118 -55.65854 -88.6893 C -55.49915 -88.86682 -55.24025 -89.14813 -55.07893 -89.32426 C -54.91763 -89.5004 -54.65935 -89.78412 -54.49588 -89.95882 C -54.33241 -90.1335 -54.06664 -90.4108 -53.90071 -90.58339 C -53.73477 -90.75597 -53.468 -91.03194 -53.29991 -91.20279 C -53.13182 -91.37364 -52.85973 -91.64612 -52.68916 -91.81482 C -52.51862 -91.98352 -52.243 -92.25108 -52.07065 -92.41864 C -51.8983 -92.5862 -51.62157 -92.85744 -51.44693 -93.02246 C -51.27228 -93.1875 -50.98892 -93.44496 -50.81195 -93.60812 C -50.63498 -93.77129 -50.35039 -94.03687 -50.17137 -94.19853 C -49.99236 -94.36021 -49.70245 -94.61398 -49.5217 -94.77338 C -49.34094 -94.93277 -49.05165 -95.1899 -48.86856 -95.34737 C -48.68547 -95.50482 -48.38751 -95.75352 -48.20201 -95.90836 C -48.01653 -96.06319 -47.7184 -96.3101 -47.53157 -96.4633 C -47.34476 -96.61652 -47.04439 -96.86134 -46.85553 -97.01263 C -46.66667 -97.16393 -46.36116 -97.40376 -46.1704 -97.55373 C -45.97963 -97.7037 -45.67351 -97.94662 -45.4805 -98.09354 C -45.28749 -98.24045 -44.97415 -98.46803 -44.77936 -98.6126 C -44.58455 -98.75717 -44.27296 -98.99265 -44.07648 -99.13553 C -43.87999 -99.27841 -43.56155 -99.50198 -43.3632 -99.64247 C -43.16487 -99.78294 -42.84732 -100.01009 -42.64694 -100.1481 C -42.44656 -100.28612 -42.12157 -100.50168 -41.91898 -100.6373 C -41.71638 -100.77292 -41.39041 -100.99174 -41.18668 -101.12564 C -40.98294 -101.25952 -40.6558 -101.4713 -40.45052 -101.6023 C -40.24521 -101.73329 -39.91412 -101.94066 -39.70697 -102.06985 C -39.49982 -102.19907 -39.16629 -102.40717 -38.95738 -102.53355 C -38.74849 -102.65994 -38.41164 -102.85658 -38.20131 -102.98079 C -37.99097 -103.10501 -37.65349 -103.30684 -37.44135 -103.42891 C -37.2292 -103.55096 -36.88588 -103.7411 -36.67229 -103.86058 C -36.4587 -103.98006 -36.11714 -104.17317 -35.90195 -104.29008 C -35.68674 -104.40698 -35.33821 -104.58878 -35.1212 -104.70316 C -34.90419 -104.81754 -34.55602 -105.0027 -34.33788 -105.1145 C -34.11972 -105.22629 -33.76869 -105.40018 -33.54893 -105.50897 C -33.32918 -105.61777 -32.97525 -105.79218 -32.75394 -105.8987 C -32.53261 -106.00522 -32.17656 -106.1728 -31.95374 -106.27673 C -31.7309 -106.38068 -31.37169 -106.54588 -31.1479 -106.64784 C -30.92412 -106.7498 -30.56567 -106.91266 -30.3408 -107.01161 C -30.11594 -107.11057 -29.75345 -107.26407 -29.52719 -107.3611 C -29.30093 -107.45815 -28.93787 -107.61705 -28.71013 -107.71103 C -28.48239 -107.80501 -28.11465 -107.94719 -27.88571 -108.03847 C -27.65677 -108.12973 -27.29033 -108.2807 -27.06 -108.36893 C -26.82968 -108.45714 -26.45715 -108.58914 -26.22563 -108.67429 C -25.9941 -108.75943 -25.62344 -108.89958 -25.39127 -108.98268 C -25.15909 -109.0658 -24.78546 -109.1933 -24.55214 -109.27335 C -24.31883 -109.35341 -23.94373 -109.48198 -23.70956 -109.5597 C -23.47539 -109.6374 -23.09956 -109.7586 -22.86438 -109.8335 C -22.62918 -109.90839 -22.25089 -110.02666 -22.01443 -110.0995 C -21.77798 -110.17235 -21.3977 -110.28922 -21.16017 -110.35858 C -20.92264 -110.42795 -20.54051 -110.53297 -20.30244 -110.59952 C -20.06438 -110.66608 -19.68338 -110.77484 -19.44429 -110.83827 C -19.20522 -110.90169 -18.81898 -110.99603 -18.57922 -111.0567 C -18.33948 -111.11739 -17.95677 -111.21736 -17.71631 -111.27557 C -17.47583 -111.33379 -17.08772 -111.42123 -16.84605 -111.47627 C -16.60439 -111.5313 -16.21657 -111.61964 -15.97447 -111.67221 C -15.73238 -111.72478 -15.34393 -111.80579 -15.10118 -111.85518 C -14.85843 -111.90457 -14.46822 -111.98163 -14.22487 -112.02818 C -13.9815 -112.07475 -13.59137 -112.14713 -13.34724 -112.19083 C -13.1031 -112.23451 -12.71002 -112.30185 -12.4653 -112.34308 C -12.22058 -112.38431 -11.82845 -112.44994 -11.58336 -112.48798 C -11.33827 -112.52602 -10.94438 -112.58215 -10.6988 -112.61731 C -10.45323 -112.65248 -10.0592 -112.70947 -9.8134 -112.74146 C -9.5676 -112.77344 -9.17319 -112.81839 -8.92714 -112.84785 C -8.68109 -112.87732 -8.28683 -112.9276 -8.04 -112.95383 C -7.79317 -112.98004 -7.39536 -113.01347 -7.14812 -113.03687 C -6.90086 -113.06027 -6.50531 -113.10164 -6.25795 -113.1225 C -6.01057 -113.14337 -5.61298 -113.1701 -5.36519 -113.1874 C -5.11739 -113.20467 -4.71991 -113.23198 -4.47198 -113.24709 C -4.22408 -113.26219 -3.8264 -113.28488 -3.57837 -113.29639 C -3.33034 -113.30789 -2.93216 -113.32114 -2.68431 -113.33014 C -2.43646 -113.33913 -2.04013 -113.35515 -1.79199 -113.36127 C -1.54384 -113.36737 -1.14421 -113.37102 -.89577 -113.37425 C -.64732 -113.37749 -.00128 -113.38463 -.00128 -113.38463 L 0 0 " fill="#ffb3b3"/>
<path transform="matrix(2.7777777,0,0,-2.7777777,245.48055,115.03889)" d="M -56.69362 0 C -56.69362 0 -56.36734 -.32123 -56.24203 -.44334 C -56.11673 -.56546 -55.91643 -.76012 -55.79047 -.8802 C -55.6645 -1.00029 -55.46112 -1.19063 -55.33415 -1.30885 C -55.20717 -1.42708 -55.0031 -1.61589 -54.87521 -1.7323 C -54.74733 -1.84872 -54.54124 -2.03365 -54.4124 -2.14796 C -54.28357 -2.26228 -54.076 -2.44406 -53.94655 -2.55627 C -53.81711 -2.6685 -53.6097 -2.84651 -53.47942 -2.9568 C -53.34914 -3.0671 -53.13846 -3.24297 -53.0075 -3.35129 C -52.87656 -3.4596 -52.66728 -3.6314 -52.53561 -3.73755 C -52.40395 -3.8437 -52.19102 -4.01208 -52.05853 -4.11644 C -51.92603 -4.22081 -51.71368 -4.38742 -51.58058 -4.48973 C -51.44746 -4.59204 -51.23274 -4.75377 -51.09917 -4.85393 C -50.96558 -4.95407 -50.75182 -5.11346 -50.61775 -5.21164 C -50.48367 -5.30981 -50.2677 -5.46542 -50.13286 -5.56155 C -49.99802 -5.6577 -49.78127 -5.81033 -49.64583 -5.90456 C -49.51038 -5.99878 -49.29272 -6.14842 -49.15662 -6.24065 C -49.02052 -6.33289 -48.8012 -6.47925 -48.66484 -6.56938 C -48.52849 -6.65952 -48.3105 -6.80229 -48.1739 -6.89032 C -48.03732 -6.97835 -47.81737 -7.1178 -47.68037 -7.2039 C -47.54338 -7.29001 -47.3239 -7.42694 -47.18642 -7.511 C -47.04893 -7.59506 -46.82722 -7.72786 -46.68944 -7.80989 C -46.55164 -7.89192 -46.33157 -8.02223 -46.19331 -8.10228 C -46.05505 -8.18234 -45.83162 -8.30888 -45.69287 -8.38689 C -45.55412 -8.4649 -45.33203 -8.58856 -45.19328 -8.66458 C -45.05453 -8.74062 -44.83188 -8.86081 -44.69284 -8.93492 C -44.5538 -9.00903 -44.33025 -9.12675 -44.1911 -9.19878 C -44.05194 -9.27078 -43.82906 -9.38405 -43.68977 -9.45396 C -43.55049 -9.52388 -43.3265 -9.63469 -43.18716 -9.70267 C -43.04784 -9.77066 -42.82483 -9.87802 -42.68542 -9.94403 C -42.54602 -10.01004 -42.32184 -10.1143 -42.18239 -10.17847 C -42.04292 -10.24261 -41.81998 -10.34431 -41.68022 -10.40642 C -41.54045 -10.46852 -41.31502 -10.56596 -41.175 -10.62614 C -41.035 -10.68633 -40.81075 -10.78204 -40.67111 -10.84026 C -40.53146 -10.89845 -40.30789 -10.98953 -40.16849 -11.0457 C -40.02908 -11.10188 -39.80591 -11.19081 -39.66632 -11.2451 C -39.52673 -11.29941 -39.30205 -11.38477 -39.1624 -11.43715 C -39.02275 -11.48955 -38.79907 -11.57224 -38.65979 -11.62271 C -38.52051 -11.67319 -38.29753 -11.75238 -38.1585 -11.80092 C -38.01945 -11.84946 -37.7966 -11.92595 -37.65761 -11.97263 C -37.51862 -12.01932 -37.29553 -12.09273 -37.15672 -12.13744 C -37.01791 -12.18214 -36.7956 -12.25204 -36.65715 -12.29488 C -36.5187 -12.33772 -36.29713 -12.40527 -36.15887 -12.44626 C -36.02061 -12.48724 -35.79866 -12.5512 -35.66058 -12.5903 C -35.5225 -12.62941 -35.30139 -12.69095 -35.1636 -12.72827 C -35.0258 -12.7656 -34.80476 -12.82394 -34.66747 -12.85934 C -34.53017 -12.89474 -34.3107 -12.94989 -34.17395 -12.98349 C -34.03719 -13.01707 -33.81813 -13.06976 -33.68172 -13.10156 C -33.54532 -13.13336 -33.32701 -13.18272 -33.1908 -13.21272 C -33.05457 -13.2427 -32.83566 -13.28957 -32.69986 -13.31783 C -32.56406 -13.34608 -32.34721 -13.38992 -32.21194 -13.41646 C -32.07669 -13.44298 -31.8597 -13.4843 -31.72491 -13.50902 C -31.59013 -13.53374 -31.37454 -13.57169 -31.24046 -13.59465 C -31.1064 -13.61761 -30.89215 -13.65338 -30.75862 -13.67467 C -30.6251 -13.69597 -30.41112 -13.72864 -30.27808 -13.7482 C -30.14503 -13.76778 -29.93219 -13.7978 -29.79968 -13.81569 C -29.66719 -13.83356 -29.45488 -13.86092 -29.32303 -13.8771 C -29.19118 -13.8933 -28.98065 -13.9179 -28.84941 -13.93246 C -28.71817 -13.94705 -28.50772 -13.96925 -28.37708 -13.98221 C -28.24643 -13.99516 -28.03752 -14.01456 -27.90778 -14.0259 C -27.77802 -14.03725 -27.57094 -14.05423 -27.44193 -14.06395 C -27.3129 -14.07367 -27.10619 -14.08786 -26.97781 -14.09596 C -26.84946 -14.10406 -26.64442 -14.11581 -26.51672 -14.12236 C -26.38904 -14.12889 -26.1843 -14.13808 -26.05737 -14.14311 C -25.93045 -14.14813 -25.72804 -14.15521 -25.6019 -14.15869 C -25.47575 -14.16217 -25.27353 -14.16623 -25.14816 -14.16821 C -25.02281 -14.17018 -24.82274 -14.17244 -24.69835 -14.17296 C -24.57394 -14.1735 -24.37515 -14.17305 -24.25153 -14.1721 C -24.1279 -14.17114 -23.92998 -14.16841 -23.80731 -14.16603 C -23.68465 -14.16365 -23.48924 -14.15863 -23.36743 -14.1548 C -23.2456 -14.15097 -23.05017 -14.14363 -22.92926 -14.13835 C -22.80833 -14.13307 -22.61581 -14.1234 -22.49585 -14.11673 C -22.37589 -14.11008 -22.18373 -14.09833 -22.06462 -14.09035 C -21.9455 -14.08237 -21.75537 -14.06848 -21.63727 -14.05919 C -21.51917 -14.04991 -21.33046 -14.0339 -21.21338 -14.0233 C -21.0963 -14.0127 -20.9094 -13.99457 -20.79338 -13.98264 C -20.67737 -13.9707 -20.49239 -13.95049 -20.37729 -13.93723 C -20.26219 -13.92397 -20.07791 -13.9015 -19.96378 -13.88704 C -19.84964 -13.87259 -19.6676 -13.84865 -19.5546 -13.833 C -19.4416 -13.81732 -19.26128 -13.79108 -19.1493 -13.77415 C -19.03732 -13.75723 -18.85844 -13.72913 -18.74748 -13.71101 C -18.63652 -13.69289 -18.45943 -13.66284 -18.34953 -13.64352 C -18.23965 -13.6242 -18.06424 -13.59213 -17.9555 -13.57173 C -17.84677 -13.55133 -17.67345 -13.51794 -17.56578 -13.49646 C -17.45813 -13.47498 -17.286 -13.43944 -17.17953 -13.41689 C -17.07307 -13.39432 -16.90385 -13.35747 -16.79846 -13.33383 C -16.69308 -13.3102 -16.5243 -13.27118 -16.42 -13.24646 C -16.3157 -13.22174 -16.14987 -13.18137 -16.0467 -13.15564 C -15.94356 -13.1299 -15.77835 -13.0876 -15.67645 -13.06091 C -15.57455 -13.03421 -15.41296 -12.9908 -15.31226 -12.96315 C -15.21156 -12.93549 -15.0503 -12.89018 -14.95067 -12.86151 C -14.85104 -12.83284 -14.69249 -12.78592 -14.59425 -12.7564 C -14.49602 -12.72688 -14.33975 -12.67917 -14.24258 -12.6487 C -14.14543 -12.61821 -13.98999 -12.56804 -13.89398 -12.53667 C -13.79796 -12.5053 -13.64517 -12.45464 -13.55054 -12.42247 C -13.4559 -12.3903 -13.30518 -12.33777 -13.21187 -12.30482 C -13.11856 -12.27188 -12.97005 -12.21873 -12.87794 -12.18501 C -12.78583 -12.1513 -12.63882 -12.09625 -12.54791 -12.06174 C -12.45702 -12.02724 -12.31235 -11.97159 -12.22264 -11.9363 C -12.13293 -11.90102 -11.98967 -11.8434 -11.90128 -11.8074 C -11.81287 -11.77141 -11.67265 -11.71344 -11.58551 -11.67679 C -11.49837 -11.64014 -11.35916 -11.58057 -11.27322 -11.54312 C -11.18729 -11.50569 -11.0508 -11.44492 -10.96613 -11.40688 C -10.88145 -11.36884 -10.7464 -11.30754 -10.66292 -11.2689 C -10.57944 -11.23026 -10.44643 -11.16743 -10.36446 -11.12833 C -10.28249 -11.08922 -10.15271 -11.02661 -10.07207 -10.9869 C -9.99141 -10.94716 -9.86258 -10.88231 -9.78313 -10.84198 C -9.70369 -10.80165 -9.57758 -10.73708 -9.49939 -10.69621 C -9.4212 -10.65535 -9.29654 -10.58882 -9.21954 -10.54742 C -9.14253 -10.50603 -9.01999 -10.43947 -8.94444 -10.39777 C -8.86888 -10.35606 -8.7492 -10.289 -8.67497 -10.24681 C -8.60074 -10.20462 -8.48236 -10.13629 -8.4094 -10.09369 C -8.33643 -10.0511 -8.2207 -9.9828 -8.149 -9.93971 C -8.07729 -9.89664 -7.96289 -9.82658 -7.89252 -9.78313 C -7.82213 -9.73969 -7.7107 -9.67029 -7.64163 -9.62656 C -7.57257 -9.58282 -7.46246 -9.51186 -7.39465 -9.46782 C -7.32686 -9.42378 -7.21942 -9.35341 -7.15288 -9.30907 C -7.08632 -9.26471 -6.98015 -9.19275 -6.91498 -9.14816 C -6.84981 -9.10358 -6.74698 -9.03246 -6.68314 -8.98769 C -6.61928 -8.94292 -6.5174 -8.87048 -6.45476 -8.82549 C -6.3921 -8.78049 -6.29282 -8.70842 -6.23155 -8.6633 C -6.17029 -8.61818 -6.07307 -8.5456 -6.01314 -8.50023 C -5.95319 -8.45486 -5.85814 -8.38171 -5.79945 -8.33629 C -5.74078 -8.29086 -5.64764 -8.21846 -5.5901 -8.17279 C -5.53258 -8.12712 -5.44089 -8.05292 -5.38466 -8.00713 C -5.32843 -7.96135 -5.23979 -7.88855 -5.18483 -7.84277 C -5.12985 -7.79698 -5.04216 -7.72289 -4.98845 -7.6771 C -4.93474 -7.63132 -4.85008 -7.55846 -4.79768 -7.51274 C -4.7453 -7.46701 -4.66197 -7.39323 -4.61084 -7.3475 C -4.55972 -7.30177 -4.47911 -7.22893 -4.42918 -7.18314 C -4.37926 -7.13734 -4.29968 -7.06328 -4.25096 -7.01749 C -4.20224 -6.9717 -4.12541 -6.89873 -4.07796 -6.85312 C -4.03049 -6.80751 -3.9551 -6.7343 -3.90883 -6.68875 C -3.86258 -6.6432 -3.78946 -6.57011 -3.74446 -6.52481 C -3.69946 -6.47952 -3.62834 -6.40755 -3.58443 -6.36218 C -3.5405 -6.31682 -3.47044 -6.24283 -3.42784 -6.19783 C -3.38524 -6.15283 -3.31879 -6.0826 -3.27733 -6.03778 C -3.23587 -5.99297 -3.16934 -5.91948 -3.12897 -5.87473 C -3.0886 -5.82997 -3.02536 -5.75952 -2.98622 -5.71512 C -2.9471 -5.67072 -2.88492 -5.5988 -2.84694 -5.55464 C -2.80898 -5.51048 -2.7492 -5.44044 -2.71243 -5.39676 C -2.67566 -5.35306 -2.61751 -5.28326 -2.5818 -5.23975 C -2.5461 -5.19624 -2.48969 -5.12643 -2.45506 -5.08318 C -2.42046 -5.0399 -2.36589 -4.97104 -2.33223 -4.9279 C -2.29858 -4.88475 -2.24481 -4.81467 -2.21242 -4.77219 C -2.18002 -4.72969 -2.12997 -4.66371 -2.09866 -4.62166 C -2.06734 -4.57959 -2.017 -4.51079 -1.98663 -4.46896 C -1.95627 -4.42714 -1.90901 -4.36153 -1.87979 -4.32018 C -1.85057 -4.27884 -1.80412 -4.21175 -1.77599 -4.17094 C -1.74783 -4.13014 -1.70406 -4.06638 -1.67694 -4.02605 C -1.64981 -3.98573 -1.6067 -3.9203 -1.58047 -3.88028 C -1.55426 -3.84026 -1.51306 -3.77686 -1.48792 -3.73755 C -1.46277 -3.69826 -1.42348 -3.63593 -1.39925 -3.59698 C -1.37502 -3.55803 -1.33638 -3.49512 -1.31317 -3.45683 C -1.28996 -3.41855 -1.2541 -3.35883 -1.23186 -3.32101 C -1.2096 -3.2832 -1.17412 -3.22165 -1.1527 -3.18434 C -1.13127 -3.14702 -1.0979 -3.08864 -1.07744 -3.05197 C -1.05698 -3.0153 -1.02477 -2.95605 -1.0052 -2.92004 C -.98566 -2.88405 -.95515 -2.82785 -.93643 -2.79245 C -.91772 -2.75703 -.88806 -2.69958 -.87024 -2.66486 C -.85243 -2.63011 -.82487 -2.57591 -.80797 -2.542 C -.79105 -2.5081 -.76434 -2.45377 -.74828 -2.42047 C -.73221 -2.38718 -.70734 -2.3346 -.69205 -2.30196 C -.67676 -2.26932 -.65256 -2.21727 -.63797 -2.18517 C -.6234 -2.15306 -.60066 -2.1018 -.58694 -2.07054 C -.57321 -2.03929 -.552 -1.9906 -.53894 -1.95982 C -.52586 -1.92903 -.50494 -1.87854 -.49265 -1.84866 C -.48035 -1.81877 -.46182 -1.7735 -.45026 -1.7444 C -.43869 -1.7153 -.42009 -1.66707 -.40916 -1.63887 C -.39825 -1.61067 -.38173 -1.56842 -.37154 -1.54112 C -.36133 -1.51382 -.34517 -1.46877 -.33563 -1.44206 C -.32611 -1.41537 -.31163 -1.37444 -.30275 -1.34863 C -.29388 -1.32285 -.27989 -1.28122 -.27162 -1.25607 C -.26335 -1.23093 -.25081 -1.19164 -.24307 -1.1674 C -.23534 -1.14317 -.223 -1.10497 -.21582 -1.08133 C -.20862 -1.05768 -.19777 -1.01955 -.19118 -.99698 C -.18457 -.97443 -.1743 -.94035 -.16824 -.91869 C -.1622 -.89703 -.153 -.86153 -.14748 -.84085 C -.14197 -.82016 -.13354 -.78932 -.12845 -.76947 C -.12335 -.74962 -.11531 -.71675 -.1107 -.69768 C -.10611 -.67859 -.09927 -.64998 -.09514 -.63193 C -.091 -.61386 -.08458 -.58473 -.08087 -.56747 C -.07716 -.5502 -.07162 -.5236 -.06833 -.50735 C -.06503 -.4911 -.06001 -.4656 -.05708 -.45026 C -.05414 -.4349 -.04976 -.41103 -.04713 -.39662 C -.04451 -.38223 -.04031 -.36006 -.03804 -.34645 C -.03578 -.33282 -.03262 -.31104 -.0307 -.29843 C -.02878 -.28583 -.02588 -.26724 -.02422 -.25562 C -.02254 -.24399 -.02002 -.22513 -.01859 -.21452 C -.01715 -.20392 -.01501 -.18883 -.01382 -.17906 C -.01263 -.16928 -.01083 -.15271 -.00993 -.14401 C -.00903 -.13531 -.00806 -.12413 -.00734 -.11633 C -.00662 -.10854 -.00533 -.09473 -.00473 -.08778 C -.00414 -.08084 -.00343 -.07191 -.00302 -.06616 C -.00261 -.06042 -.002 -.0513 -.00171 -.04626 C -.00142 -.04123 -.001 -.03366 -.00084 -.02983 C -.00067 -.026 -.00052 -.02158 -.00041 -.01859 C -.0003 -.0156 -.00003 -.01024 0 -.0082 C .00003 -.00616 0 -.00496 0 -.00389 C 0 -.0028 0 -.00041 0 -.00041 Z " fill="#b3b3ff"/>
<path transform="matrix(2.7777777,0,0,-2.7777777,245.48055,115.03889)" stroke-width=".79701" stroke-linecap="butt" stroke-miterlimit="10" stroke-linejoin="miter" fill="none" stroke="#ff0000" d="M -56.69362 0 C -56.69362 0 -57.01326 -.32466 -57.1361 -.45068 C -57.25893 -.5767 -57.45714 -.78043 -57.57901 -.90831 C -57.70088 -1.0362 -57.8936 -1.24245 -58.01457 -1.37242 C -58.13554 -1.50241 -58.33081 -1.71317 -58.451 -1.8452 C -58.57121 -1.97722 -58.76219 -2.19012 -58.88095 -2.324 C -58.99971 -2.4579 -59.18932 -2.67444 -59.307 -2.81018 C -59.42468 -2.94592 -59.61256 -3.16473 -59.72916 -3.30241 C -59.84576 -3.44008 -60.03185 -3.66278 -60.14743 -3.80243 C -60.263 -3.94208 -60.44833 -4.16762 -60.56223 -4.30893 C -60.67612 -4.45026 -60.85556 -4.67769 -60.96838 -4.82106 C -61.08119 -4.96443 -61.2639 -5.1971 -61.3754 -5.34225 C -61.4869 -5.48743 -61.66197 -5.7205 -61.77203 -5.86737 C -61.8821 -6.01422 -62.05956 -6.25185 -62.16867 -6.40068 C -62.27777 -6.5495 -62.45091 -6.78944 -62.55838 -6.94006 C -62.66586 -7.09068 -62.83719 -7.3338 -62.94334 -7.48636 C -63.0495 -7.63892 -63.21912 -7.88528 -63.32355 -8.03958 C -63.42796 -8.19386 -63.59299 -8.4425 -63.69597 -8.59842 C -63.79893 -8.75432 -63.96425 -9.00578 -64.06578 -9.1633 C -64.16731 -9.32083 -64.32755 -9.57437 -64.42781 -9.73383 C -64.52809 -9.89328 -64.68996 -10.1513 -64.78856 -10.31256 C -64.88716 -10.4738 -65.0415 -10.73325 -65.13847 -10.89606 C -65.23546 -11.05887 -65.39223 -11.32149 -65.48753 -11.48602 C -65.58282 -11.65057 -65.73198 -11.91571 -65.82535 -12.08206 C -65.91872 -12.24843 -66.06865 -12.51718 -66.16057 -12.68503 C -66.25249 -12.85287 -66.39767 -13.12234 -66.48799 -13.29187 C -66.57831 -13.46141 -66.72302 -13.73578 -66.81154 -13.90695 C -66.90004 -14.07811 -67.03952 -14.35295 -67.12599 -14.52548 C -67.21245 -14.69801 -67.34973 -14.97629 -67.43481 -15.1505 C -67.5199 -15.3247 -67.6561 -15.60544 -67.73932 -15.78114 C -67.82256 -15.95683 -67.95314 -16.23962 -68.03474 -16.41696 C -68.11635 -16.59428 -68.24808 -16.88039 -68.32758 -17.05928 C -68.40709 -17.23819 -68.53027 -17.52579 -68.60786 -17.70636 C -68.68546 -17.88693 -68.81105 -18.17896 -68.88684 -18.3608 C -68.96265 -18.54262 -69.08054 -18.83405 -69.15416 -19.01695 C -69.22778 -19.19986 -69.34593 -19.49463 -69.41757 -19.67917 C -69.48923 -19.86371 -69.60081 -20.1608 -69.67061 -20.347 C -69.7404 -20.53322 -69.85263 -20.83392 -69.92061 -21.02133 C -69.98859 -21.20874 -70.09485 -21.50922 -70.16068 -21.69781 C -70.2265 -21.88643 -70.33102 -22.19057 -70.39511 -22.3808 C -70.4592 -22.57104 -70.56111 -22.8777 -70.62262 -23.06897 C -70.68413 -23.26022 -70.77875 -23.56667 -70.83846 -23.75931 C -70.89818 -23.95193 -70.99564 -24.26363 -71.05301 -24.45741 C -71.11038 -24.65118 -71.19672 -24.9608 -71.25197 -25.15598 C -71.30724 -25.35114 -71.39809 -25.66756 -71.45137 -25.86403 C -71.50465 -26.0605 -71.58542 -26.3749 -71.63606 -26.5721 C -71.6867 -26.76929 -71.76778 -27.08707 -71.81644 -27.28534 C -71.8651 -27.48361 -71.94046 -27.80183 -71.98685 -28.0012 C -72.03323 -28.20056 -72.1065 -28.5213 -72.15079 -28.72223 C -72.19507 -28.92316 -72.26411 -29.24739 -72.30606 -29.44934 C -72.348 -29.65129 -72.41316 -29.97476 -72.45313 -30.17773 C -72.49309 -30.38069 -72.55681 -30.70839 -72.59413 -30.91219 C -72.63145 -31.11598 -72.68701 -31.44205 -72.72217 -31.64662 C -72.75732 -31.8512 -72.8149 -32.18115 -72.8476 -32.3867 C -72.8803 -32.59224 -72.92761 -32.92151 -72.9579 -33.12807 C -72.9882 -33.33463 -73.03796 -33.66797 -73.06604 -33.87549 C -73.09412 -34.08301 -73.13507 -34.41579 -73.16032 -34.6238 C -73.18556 -34.8318 -73.22491 -35.16554 -73.24812 -35.37468 C -73.27133 -35.58382 -73.30702 -35.92114 -73.32773 -36.1312 C -73.34843 -36.34123 -73.37901 -36.6781 -73.39737 -36.88855 C -73.41571 -37.09901 -73.4441 -37.43697 -73.46007 -37.64809 C -73.47603 -37.8592 -73.4988 -38.1982 -73.5124 -38.41022 C -73.52603 -38.62224 -73.54747 -38.96364 -73.55826 -39.17625 C -73.56906 -39.38887 -73.58168 -39.7293 -73.59026 -39.9427 C -73.59883 -40.15611 -73.61424 -40.50035 -73.62012 -40.71436 C -73.62599 -40.92836 -73.62949 -41.27084 -73.63266 -41.48514 C -73.63583 -41.69945 -73.64203 -42.04416 -73.64304 -42.25896 C -73.64406 -42.47374 -73.64194 -42.81787 -73.64001 -43.03319 C -73.6381 -43.2485 -73.63351 -43.5951 -73.6292 -43.8109 C -73.62488 -44.0267 -73.61569 -44.37231 -73.60887 -44.5886 C -73.60204 -44.80487 -73.58907 -45.153 -73.5799 -45.36977 C -73.57072 -45.58653 -73.55475 -45.93398 -73.5427 -46.15092 C -73.53064 -46.36786 -73.5073 -46.71584 -73.49295 -46.93338 C -73.47862 -47.15092 -73.45659 -47.50146 -73.4393 -47.71889 C -73.42203 -47.9363 -73.38835 -48.28293 -73.36838 -48.50047 C -73.3484 -48.71802 -73.31754 -49.06892 -73.29529 -49.28683 C -73.27303 -49.50473 -73.23299 -49.85277 -73.2079 -50.07103 C -73.18282 -50.28928 -73.14218 -50.64146 -73.11447 -50.85995 C -73.08676 -51.07846 -73.0386 -51.42761 -73.00807 -51.64589 C -72.97752 -51.86415 -72.92708 -52.21455 -72.89432 -52.4331 C -72.86156 -52.65166 -72.8076 -53.00264 -72.77191 -53.22119 C -72.73622 -53.43974 -72.67517 -53.78961 -72.63696 -54.0084 C -72.59874 -54.22722 -72.53766 -54.57979 -72.49637 -54.79823 C -72.45508 -55.01666 -72.38316 -55.36453 -72.33937 -55.58286 C -72.29556 -55.80116 -72.22682 -56.1536 -72.18063 -56.3718 C -72.13443 -56.59001 -72.05553 -56.93747 -72.00632 -57.15555 C -71.9571 -57.37364 -71.87769 -57.72543 -71.82594 -57.94363 C -71.77422 -58.16185 -71.68776 -58.51024 -71.63347 -58.72826 C -71.57916 -58.94629 -71.4915 -59.29752 -71.4345 -59.51506 C -71.37749 -59.73259 -71.28244 -60.07915 -71.22255 -60.2962 C -71.16267 -60.51326 -71.06499 -60.86241 -71.00282 -61.07953 C -70.94066 -61.29666 -70.83968 -61.64485 -70.77444 -61.86113 C -70.70921 -62.07741 -70.60042 -62.42213 -70.53265 -62.63841 C -70.4649 -62.85469 -70.35667 -63.20403 -70.28612 -63.42 C -70.21555 -63.63597 -70.09691 -63.97978 -70.024 -64.1951 C -69.9511 -64.41043 -69.83626 -64.75754 -69.76057 -64.97195 C -69.6849 -65.18639 -69.55736 -65.52681 -69.47856 -65.74057 C -69.39978 -65.95433 -69.2736 -66.29906 -69.19264 -66.51265 C -69.1117 -66.72623 -68.9789 -67.06705 -68.89507 -67.27997 C -68.81125 -67.49289 -68.67499 -67.8351 -68.5884 -68.0473 C -68.50182 -68.2595 -68.36046 -68.598 -68.27092 -68.80942 C -68.18138 -69.02083 -68.0345 -69.35988 -67.94304 -69.57114 C -67.8516 -69.78238 -67.70566 -70.12157 -67.61174 -70.33195 C -67.51782 -70.54236 -67.36316 -70.87805 -67.26613 -71.0876 C -67.1691 -71.29716 -67.01228 -71.63426 -66.91232 -71.84238 C -66.81235 -72.05049 -66.64803 -72.38037 -66.54553 -72.58765 C -66.44304 -72.79492 -66.27843 -73.12968 -66.17354 -73.33638 C -66.06865 -73.54306 -65.8968 -73.87152 -65.78944 -74.0773 C -65.68208 -74.28308 -65.50972 -74.61443 -65.39972 -74.81953 C -65.28972 -75.02466 -65.10947 -75.35223 -64.9966 -75.55573 C -64.88373 -75.75922 -64.70128 -76.08374 -64.58614 -76.28627 C -64.47098 -76.4888 -64.28442 -76.81403 -64.16656 -77.01553 C -64.0487 -77.21706 -63.85695 -77.53795 -63.73663 -77.73874 C -63.6163 -77.93954 -63.42241 -78.26334 -63.29933 -78.46281 C -63.17625 -78.6623 -62.97484 -78.97841 -62.84949 -79.1765 C -62.72414 -79.3746 -62.52335 -79.69366 -62.39575 -79.89061 C -62.26816 -80.08757 -62.06018 -80.40028 -61.9299 -80.5961 C -61.79962 -80.79192 -61.58981 -81.1076 -61.45671 -81.30199 C -61.32361 -81.49635 -61.10616 -81.8042 -60.97054 -81.99707 C -60.83492 -82.18996 -60.61697 -82.50049 -60.47917 -82.69217 C -60.34138 -82.88385 -60.1178 -83.18874 -59.97743 -83.3786 C -59.83708 -83.56848 -59.6101 -83.87204 -59.46747 -84.06071 C -59.32483 -84.24939 -59.0944 -84.55144 -58.9493 -84.7385 C -58.8042 -84.92555 -58.56879 -85.22282 -58.42159 -85.40894 C -58.27438 -85.59503 -58.03824 -85.89526 -57.88828 -86.0798 C -57.73831 -86.26433 -57.49287 -86.55614 -57.34068 -86.73898 C -57.18849 -86.92183 -56.94577 -87.21657 -56.79137 -87.39775 C -56.63695 -87.57892 -56.38493 -87.86562 -56.22777 -88.04482 C -56.07059 -88.22401 -55.81793 -88.5118 -55.65854 -88.6893 C -55.49915 -88.86682 -55.24025 -89.14813 -55.07893 -89.32426 C -54.91763 -89.5004 -54.65935 -89.78412 -54.49588 -89.95882 C -54.33241 -90.1335 -54.06664 -90.4108 -53.90071 -90.58339 C -53.73477 -90.75597 -53.468 -91.03194 -53.29991 -91.20279 C -53.13182 -91.37364 -52.85973 -91.64612 -52.68916 -91.81482 C -52.51862 -91.98352 -52.243 -92.25108 -52.07065 -92.41864 C -51.8983 -92.5862 -51.62157 -92.85744 -51.44693 -93.02246 C -51.27228 -93.1875 -50.98892 -93.44496 -50.81195 -93.60812 C -50.63498 -93.77129 -50.35039 -94.03687 -50.17137 -94.19853 C -49.99236 -94.36021 -49.70245 -94.61398 -49.5217 -94.77338 C -49.34094 -94.93277 -49.05165 -95.1899 -48.86856 -95.34737 C -48.68547 -95.50482 -48.38751 -95.75352 -48.20201 -95.90836 C -48.01653 -96.06319 -47.7184 -96.3101 -47.53157 -96.4633 C -47.34476 -96.61652 -47.04439 -96.86134 -46.85553 -97.01263 C -46.66667 -97.16393 -46.36116 -97.40376 -46.1704 -97.55373 C -45.97963 -97.7037 -45.67351 -97.94662 -45.4805 -98.09354 C -45.28749 -98.24045 -44.97415 -98.46803 -44.77936 -98.6126 C -44.58455 -98.75717 -44.27296 -98.99265 -44.07648 -99.13553 C -43.87999 -99.27841 -43.56155 -99.50198 -43.3632 -99.64247 C -43.16487 -99.78294 -42.84732 -100.01009 -42.64694 -100.1481 C -42.44656 -100.28612 -42.12157 -100.50168 -41.91898 -100.6373 C -41.71638 -100.77292 -41.39041 -100.99174 -41.18668 -101.12564 C -40.98294 -101.25952 -40.6558 -101.4713 -40.45052 -101.6023 C -40.24521 -101.73329 -39.91412 -101.94066 -39.70697 -102.06985 C -39.49982 -102.19907 -39.16629 -102.40717 -38.95738 -102.53355 C -38.74849 -102.65994 -38.41164 -102.85658 -38.20131 -102.98079 C -37.99097 -103.10501 -37.65349 -103.30684 -37.44135 -103.42891 C -37.2292 -103.55096 -36.88588 -103.7411 -36.67229 -103.86058 C -36.4587 -103.98006 -36.11714 -104.17317 -35.90195 -104.29008 C -35.68674 -104.40698 -35.33821 -104.58878 -35.1212 -104.70316 C -34.90419 -104.81754 -34.55602 -105.0027 -34.33788 -105.1145 C -34.11972 -105.22629 -33.76869 -105.40018 -33.54893 -105.50897 C -33.32918 -105.61777 -32.97525 -105.79218 -32.75394 -105.8987 C -32.53261 -106.00522 -32.17656 -106.1728 -31.95374 -106.27673 C -31.7309 -106.38068 -31.37169 -106.54588 -31.1479 -106.64784 C -30.92412 -106.7498 -30.56567 -106.91266 -30.3408 -107.01161 C -30.11594 -107.11057 -29.75345 -107.26407 -29.52719 -107.3611 C -29.30093 -107.45815 -28.93787 -107.61705 -28.71013 -107.71103 C -28.48239 -107.80501 -28.11465 -107.94719 -27.88571 -108.03847 C -27.65677 -108.12973 -27.29033 -108.2807 -27.06 -108.36893 C -26.82968 -108.45714 -26.45715 -108.58914 -26.22563 -108.67429 C -25.9941 -108.75943 -25.62344 -108.89958 -25.39127 -108.98268 C -25.15909 -109.0658 -24.78546 -109.1933 -24.55214 -109.27335 C -24.31883 -109.35341 -23.94373 -109.48198 -23.70956 -109.5597 C -23.47539 -109.6374 -23.09956 -109.7586 -22.86438 -109.8335 C -22.62918 -109.90839 -22.25089 -110.02666 -22.01443 -110.0995 C -21.77798 -110.17235 -21.3977 -110.28922 -21.16017 -110.35858 C -20.92264 -110.42795 -20.54051 -110.53297 -20.30244 -110.59952 C -20.06438 -110.66608 -19.68338 -110.77484 -19.44429 -110.83827 C -19.20522 -110.90169 -18.81898 -110.99603 -18.57922 -111.0567 C -18.33948 -111.11739 -17.95677 -111.21736 -17.71631 -111.27557 C -17.47583 -111.33379 -17.08772 -111.42123 -16.84605 -111.47627 C -16.60439 -111.5313 -16.21657 -111.61964 -15.97447 -111.67221 C -15.73238 -111.72478 -15.34393 -111.80579 -15.10118 -111.85518 C -14.85843 -111.90457 -14.46822 -111.98163 -14.22487 -112.02818 C -13.9815 -112.07475 -13.59137 -112.14713 -13.34724 -112.19083 C -13.1031 -112.23451 -12.71002 -112.30185 -12.4653 -112.34308 C -12.22058 -112.38431 -11.82845 -112.44994 -11.58336 -112.48798 C -11.33827 -112.52602 -10.94438 -112.58215 -10.6988 -112.61731 C -10.45323 -112.65248 -10.0592 -112.70947 -9.8134 -112.74146 C -9.5676 -112.77344 -9.17319 -112.81839 -8.92714 -112.84785 C -8.68109 -112.87732 -8.28683 -112.9276 -8.04 -112.95383 C -7.79317 -112.98004 -7.39536 -113.01347 -7.14812 -113.03687 C -6.90086 -113.06027 -6.50531 -113.10164 -6.25795 -113.1225 C -6.01057 -113.14337 -5.61298 -113.1701 -5.36519 -113.1874 C -5.11739 -113.20467 -4.71991 -113.23198 -4.47198 -113.24709 C -4.22408 -113.26219 -3.8264 -113.28488 -3.57837 -113.29639 C -3.33034 -113.30789 -2.93216 -113.32114 -2.68431 -113.33014 C -2.43646 -113.33913 -2.04013 -113.35515 -1.79199 -113.36127 C -1.54384 -113.36737 -1.14421 -113.37102 -.89577 -113.37425 C -.64732 -113.37749 -.00128 -113.38463 -.00128 -113.38463 "/>
<path transform="matrix(2.7777777,0,0,-2.7777777,245.48055,115.03889)" stroke-width=".79701" stroke-linecap="butt" stroke-miterlimit="10" stroke-linejoin="miter" fill="none" stroke="#0000ff" d="M -56.69362 0 C -56.69362 0 -56.36734 -.32123 -56.24203 -.44334 C -56.11673 -.56546 -55.91643 -.76012 -55.79047 -.8802 C -55.6645 -1.00029 -55.46112 -1.19063 -55.33415 -1.30885 C -55.20717 -1.42708 -55.0031 -1.61589 -54.87521 -1.7323 C -54.74733 -1.84872 -54.54124 -2.03365 -54.4124 -2.14796 C -54.28357 -2.26228 -54.076 -2.44406 -53.94655 -2.55627 C -53.81711 -2.6685 -53.6097 -2.84651 -53.47942 -2.9568 C -53.34914 -3.0671 -53.13846 -3.24297 -53.0075 -3.35129 C -52.87656 -3.4596 -52.66728 -3.6314 -52.53561 -3.73755 C -52.40395 -3.8437 -52.19102 -4.01208 -52.05853 -4.11644 C -51.92603 -4.22081 -51.71368 -4.38742 -51.58058 -4.48973 C -51.44746 -4.59204 -51.23274 -4.75377 -51.09917 -4.85393 C -50.96558 -4.95407 -50.75182 -5.11346 -50.61775 -5.21164 C -50.48367 -5.30981 -50.2677 -5.46542 -50.13286 -5.56155 C -49.99802 -5.6577 -49.78127 -5.81033 -49.64583 -5.90456 C -49.51038 -5.99878 -49.29272 -6.14842 -49.15662 -6.24065 C -49.02052 -6.33289 -48.8012 -6.47925 -48.66484 -6.56938 C -48.52849 -6.65952 -48.3105 -6.80229 -48.1739 -6.89032 C -48.03732 -6.97835 -47.81737 -7.1178 -47.68037 -7.2039 C -47.54338 -7.29001 -47.3239 -7.42694 -47.18642 -7.511 C -47.04893 -7.59506 -46.82722 -7.72786 -46.68944 -7.80989 C -46.55164 -7.89192 -46.33157 -8.02223 -46.19331 -8.10228 C -46.05505 -8.18234 -45.83162 -8.30888 -45.69287 -8.38689 C -45.55412 -8.4649 -45.33203 -8.58856 -45.19328 -8.66458 C -45.05453 -8.74062 -44.83188 -8.86081 -44.69284 -8.93492 C -44.5538 -9.00903 -44.33025 -9.12675 -44.1911 -9.19878 C -44.05194 -9.27078 -43.82906 -9.38405 -43.68977 -9.45396 C -43.55049 -9.52388 -43.3265 -9.63469 -43.18716 -9.70267 C -43.04784 -9.77066 -42.82483 -9.87802 -42.68542 -9.94403 C -42.54602 -10.01004 -42.32184 -10.1143 -42.18239 -10.17847 C -42.04292 -10.24261 -41.81998 -10.34431 -41.68022 -10.40642 C -41.54045 -10.46852 -41.31502 -10.56596 -41.175 -10.62614 C -41.035 -10.68633 -40.81075 -10.78204 -40.67111 -10.84026 C -40.53146 -10.89845 -40.30789 -10.98953 -40.16849 -11.0457 C -40.02908 -11.10188 -39.80591 -11.19081 -39.66632 -11.2451 C -39.52673 -11.29941 -39.30205 -11.38477 -39.1624 -11.43715 C -39.02275 -11.48955 -38.79907 -11.57224 -38.65979 -11.62271 C -38.52051 -11.67319 -38.29753 -11.75238 -38.1585 -11.80092 C -38.01945 -11.84946 -37.7966 -11.92595 -37.65761 -11.97263 C -37.51862 -12.01932 -37.29553 -12.09273 -37.15672 -12.13744 C -37.01791 -12.18214 -36.7956 -12.25204 -36.65715 -12.29488 C -36.5187 -12.33772 -36.29713 -12.40527 -36.15887 -12.44626 C -36.02061 -12.48724 -35.79866 -12.5512 -35.66058 -12.5903 C -35.5225 -12.62941 -35.30139 -12.69095 -35.1636 -12.72827 C -35.0258 -12.7656 -34.80476 -12.82394 -34.66747 -12.85934 C -34.53017 -12.89474 -34.3107 -12.94989 -34.17395 -12.98349 C -34.03719 -13.01707 -33.81813 -13.06976 -33.68172 -13.10156 C -33.54532 -13.13336 -33.32701 -13.18272 -33.1908 -13.21272 C -33.05457 -13.2427 -32.83566 -13.28957 -32.69986 -13.31783 C -32.56406 -13.34608 -32.34721 -13.38992 -32.21194 -13.41646 C -32.07669 -13.44298 -31.8597 -13.4843 -31.72491 -13.50902 C -31.59013 -13.53374 -31.37454 -13.57169 -31.24046 -13.59465 C -31.1064 -13.61761 -30.89215 -13.65338 -30.75862 -13.67467 C -30.6251 -13.69597 -30.41112 -13.72864 -30.27808 -13.7482 C -30.14503 -13.76778 -29.93219 -13.7978 -29.79968 -13.81569 C -29.66719 -13.83356 -29.45488 -13.86092 -29.32303 -13.8771 C -29.19118 -13.8933 -28.98065 -13.9179 -28.84941 -13.93246 C -28.71817 -13.94705 -28.50772 -13.96925 -28.37708 -13.98221 C -28.24643 -13.99516 -28.03752 -14.01456 -27.90778 -14.0259 C -27.77802 -14.03725 -27.57094 -14.05423 -27.44193 -14.06395 C -27.3129 -14.07367 -27.10619 -14.08786 -26.97781 -14.09596 C -26.84946 -14.10406 -26.64442 -14.11581 -26.51672 -14.12236 C -26.38904 -14.12889 -26.1843 -14.13808 -26.05737 -14.14311 C -25.93045 -14.14813 -25.72804 -14.15521 -25.6019 -14.15869 C -25.47575 -14.16217 -25.27353 -14.16623 -25.14816 -14.16821 C -25.02281 -14.17018 -24.82274 -14.17244 -24.69835 -14.17296 C -24.57394 -14.1735 -24.37515 -14.17305 -24.25153 -14.1721 C -24.1279 -14.17114 -23.92998 -14.16841 -23.80731 -14.16603 C -23.68465 -14.16365 -23.48924 -14.15863 -23.36743 -14.1548 C -23.2456 -14.15097 -23.05017 -14.14363 -22.92926 -14.13835 C -22.80833 -14.13307 -22.61581 -14.1234 -22.49585 -14.11673 C -22.37589 -14.11008 -22.18373 -14.09833 -22.06462 -14.09035 C -21.9455 -14.08237 -21.75537 -14.06848 -21.63727 -14.05919 C -21.51917 -14.04991 -21.33046 -14.0339 -21.21338 -14.0233 C -21.0963 -14.0127 -20.9094 -13.99457 -20.79338 -13.98264 C -20.67737 -13.9707 -20.49239 -13.95049 -20.37729 -13.93723 C -20.26219 -13.92397 -20.07791 -13.9015 -19.96378 -13.88704 C -19.84964 -13.87259 -19.6676 -13.84865 -19.5546 -13.833 C -19.4416 -13.81732 -19.26128 -13.79108 -19.1493 -13.77415 C -19.03732 -13.75723 -18.85844 -13.72913 -18.74748 -13.71101 C -18.63652 -13.69289 -18.45943 -13.66284 -18.34953 -13.64352 C -18.23965 -13.6242 -18.06424 -13.59213 -17.9555 -13.57173 C -17.84677 -13.55133 -17.67345 -13.51794 -17.56578 -13.49646 C -17.45813 -13.47498 -17.286 -13.43944 -17.17953 -13.41689 C -17.07307 -13.39432 -16.90385 -13.35747 -16.79846 -13.33383 C -16.69308 -13.3102 -16.5243 -13.27118 -16.42 -13.24646 C -16.3157 -13.22174 -16.14987 -13.18137 -16.0467 -13.15564 C -15.94356 -13.1299 -15.77835 -13.0876 -15.67645 -13.06091 C -15.57455 -13.03421 -15.41296 -12.9908 -15.31226 -12.96315 C -15.21156 -12.93549 -15.0503 -12.89018 -14.95067 -12.86151 C -14.85104 -12.83284 -14.69249 -12.78592 -14.59425 -12.7564 C -14.49602 -12.72688 -14.33975 -12.67917 -14.24258 -12.6487 C -14.14543 -12.61821 -13.98999 -12.56804 -13.89398 -12.53667 C -13.79796 -12.5053 -13.64517 -12.45464 -13.55054 -12.42247 C -13.4559 -12.3903 -13.30518 -12.33777 -13.21187 -12.30482 C -13.11856 -12.27188 -12.97005 -12.21873 -12.87794 -12.18501 C -12.78583 -12.1513 -12.63882 -12.09625 -12.54791 -12.06174 C -12.45702 -12.02724 -12.31235 -11.97159 -12.22264 -11.9363 C -12.13293 -11.90102 -11.98967 -11.8434 -11.90128 -11.8074 C -11.81287 -11.77141 -11.67265 -11.71344 -11.58551 -11.67679 C -11.49837 -11.64014 -11.35916 -11.58057 -11.27322 -11.54312 C -11.18729 -11.50569 -11.0508 -11.44492 -10.96613 -11.40688 C -10.88145 -11.36884 -10.7464 -11.30754 -10.66292 -11.2689 C -10.57944 -11.23026 -10.44643 -11.16743 -10.36446 -11.12833 C -10.28249 -11.08922 -10.15271 -11.02661 -10.07207 -10.9869 C -9.99141 -10.94716 -9.86258 -10.88231 -9.78313 -10.84198 C -9.70369 -10.80165 -9.57758 -10.73708 -9.49939 -10.69621 C -9.4212 -10.65535 -9.29654 -10.58882 -9.21954 -10.54742 C -9.14253 -10.50603 -9.01999 -10.43947 -8.94444 -10.39777 C -8.86888 -10.35606 -8.7492 -10.289 -8.67497 -10.24681 C -8.60074 -10.20462 -8.48236 -10.13629 -8.4094 -10.09369 C -8.33643 -10.0511 -8.2207 -9.9828 -8.149 -9.93971 C -8.07729 -9.89664 -7.96289 -9.82658 -7.89252 -9.78313 C -7.82213 -9.73969 -7.7107 -9.67029 -7.64163 -9.62656 C -7.57257 -9.58282 -7.46246 -9.51186 -7.39465 -9.46782 C -7.32686 -9.42378 -7.21942 -9.35341 -7.15288 -9.30907 C -7.08632 -9.26471 -6.98015 -9.19275 -6.91498 -9.14816 C -6.84981 -9.10358 -6.74698 -9.03246 -6.68314 -8.98769 C -6.61928 -8.94292 -6.5174 -8.87048 -6.45476 -8.82549 C -6.3921 -8.78049 -6.29282 -8.70842 -6.23155 -8.6633 C -6.17029 -8.61818 -6.07307 -8.5456 -6.01314 -8.50023 C -5.95319 -8.45486 -5.85814 -8.38171 -5.79945 -8.33629 C -5.74078 -8.29086 -5.64764 -8.21846 -5.5901 -8.17279 C -5.53258 -8.12712 -5.44089 -8.05292 -5.38466 -8.00713 C -5.32843 -7.96135 -5.23979 -7.88855 -5.18483 -7.84277 C -5.12985 -7.79698 -5.04216 -7.72289 -4.98845 -7.6771 C -4.93474 -7.63132 -4.85008 -7.55846 -4.79768 -7.51274 C -4.7453 -7.46701 -4.66197 -7.39323 -4.61084 -7.3475 C -4.55972 -7.30177 -4.47911 -7.22893 -4.42918 -7.18314 C -4.37926 -7.13734 -4.29968 -7.06328 -4.25096 -7.01749 C -4.20224 -6.9717 -4.12541 -6.89873 -4.07796 -6.85312 C -4.03049 -6.80751 -3.9551 -6.7343 -3.90883 -6.68875 C -3.86258 -6.6432 -3.78946 -6.57011 -3.74446 -6.52481 C -3.69946 -6.47952 -3.62834 -6.40755 -3.58443 -6.36218 C -3.5405 -6.31682 -3.47044 -6.24283 -3.42784 -6.19783 C -3.38524 -6.15283 -3.31879 -6.0826 -3.27733 -6.03778 C -3.23587 -5.99297 -3.16934 -5.91948 -3.12897 -5.87473 C -3.0886 -5.82997 -3.02536 -5.75952 -2.98622 -5.71512 C -2.9471 -5.67072 -2.88492 -5.5988 -2.84694 -5.55464 C -2.80898 -5.51048 -2.7492 -5.44044 -2.71243 -5.39676 C -2.67566 -5.35306 -2.61751 -5.28326 -2.5818 -5.23975 C -2.5461 -5.19624 -2.48969 -5.12643 -2.45506 -5.08318 C -2.42046 -5.0399 -2.36589 -4.97104 -2.33223 -4.9279 C -2.29858 -4.88475 -2.24481 -4.81467 -2.21242 -4.77219 C -2.18002 -4.72969 -2.12997 -4.66371 -2.09866 -4.62166 C -2.06734 -4.57959 -2.017 -4.51079 -1.98663 -4.46896 C -1.95627 -4.42714 -1.90901 -4.36153 -1.87979 -4.32018 C -1.85057 -4.27884 -1.80412 -4.21175 -1.77599 -4.17094 C -1.74783 -4.13014 -1.70406 -4.06638 -1.67694 -4.02605 C -1.64981 -3.98573 -1.6067 -3.9203 -1.58047 -3.88028 C -1.55426 -3.84026 -1.51306 -3.77686 -1.48792 -3.73755 C -1.46277 -3.69826 -1.42348 -3.63593 -1.39925 -3.59698 C -1.37502 -3.55803 -1.33638 -3.49512 -1.31317 -3.45683 C -1.28996 -3.41855 -1.2541 -3.35883 -1.23186 -3.32101 C -1.2096 -3.2832 -1.17412 -3.22165 -1.1527 -3.18434 C -1.13127 -3.14702 -1.0979 -3.08864 -1.07744 -3.05197 C -1.05698 -3.0153 -1.02477 -2.95605 -1.0052 -2.92004 C -.98566 -2.88405 -.95515 -2.82785 -.93643 -2.79245 C -.91772 -2.75703 -.88806 -2.69958 -.87024 -2.66486 C -.85243 -2.63011 -.82487 -2.57591 -.80797 -2.542 C -.79105 -2.5081 -.76434 -2.45377 -.74828 -2.42047 C -.73221 -2.38718 -.70734 -2.3346 -.69205 -2.30196 C -.67676 -2.26932 -.65256 -2.21727 -.63797 -2.18517 C -.6234 -2.15306 -.60066 -2.1018 -.58694 -2.07054 C -.57321 -2.03929 -.552 -1.9906 -.53894 -1.95982 C -.52586 -1.92903 -.50494 -1.87854 -.49265 -1.84866 C -.48035 -1.81877 -.46182 -1.7735 -.45026 -1.7444 C -.43869 -1.7153 -.42009 -1.66707 -.40916 -1.63887 C -.39825 -1.61067 -.38173 -1.56842 -.37154 -1.54112 C -.36133 -1.51382 -.34517 -1.46877 -.33563 -1.44206 C -.32611 -1.41537 -.31163 -1.37444 -.30275 -1.34863 C -.29388 -1.32285 -.27989 -1.28122 -.27162 -1.25607 C -.26335 -1.23093 -.25081 -1.19164 -.24307 -1.1674 C -.23534 -1.14317 -.223 -1.10497 -.21582 -1.08133 C -.20862 -1.05768 -.19777 -1.01955 -.19118 -.99698 C -.18457 -.97443 -.1743 -.94035 -.16824 -.91869 C -.1622 -.89703 -.153 -.86153 -.14748 -.84085 C -.14197 -.82016 -.13354 -.78932 -.12845 -.76947 C -.12335 -.74962 -.11531 -.71675 -.1107 -.69768 C -.10611 -.67859 -.09927 -.64998 -.09514 -.63193 C -.091 -.61386 -.08458 -.58473 -.08087 -.56747 C -.07716 -.5502 -.07162 -.5236 -.06833 -.50735 C -.06503 -.4911 -.06001 -.4656 -.05708 -.45026 C -.05414 -.4349 -.04976 -.41103 -.04713 -.39662 C -.04451 -.38223 -.04031 -.36006 -.03804 -.34645 C -.03578 -.33282 -.03262 -.31104 -.0307 -.29843 C -.02878 -.28583 -.02588 -.26724 -.02422 -.25562 C -.02254 -.24399 -.02002 -.22513 -.01859 -.21452 C -.01715 -.20392 -.01501 -.18883 -.01382 -.17906 C -.01263 -.16928 -.01083 -.15271 -.00993 -.14401 C -.00903 -.13531 -.00806 -.12413 -.00734 -.11633 C -.00662 -.10854 -.00533 -.09473 -.00473 -.08778 C -.00414 -.08084 -.00343 -.07191 -.00302 -.06616 C -.00261 -.06042 -.002 -.0513 -.00171 -.04626 C -.00142 -.04123 -.001 -.03366 -.00084 -.02983 C -.00067 -.026 -.00052 -.02158 -.00041 -.01859 C -.0003 -.0156 -.00003 -.01024 0 -.0082 C .00003 -.00616 0 -.00496 0 -.00389 C 0 -.0028 0 -.00041 0 -.00041 Z "/>
<path transform="matrix(2.7777777,0,0,-2.7777777,245.48055,115.03889)" stroke-width=".3985" stroke-linecap="butt" stroke-miterlimit="10" stroke-linejoin="miter" fill="none" stroke="#000000" d="M -56.69362 0 L 27.88852 0 "/>
<path transform="matrix(2.7777777,0,0,-2.7777777,322.94868,115.03889)" stroke-width=".31879" stroke-linecap="round" stroke-linejoin="round" fill="none" stroke="#000000" d="M -1.19551 1.59401 C -1.09587 .99626 0 .09961 .29886 0 C 0 -.09961 -1.09587 -.99626 -1.19551 -1.59401 "/>
<symbol id="font_0_3">
<path d="M .305 .31300003 C .311 .33900003 .334 .43100003 .404 .43100003 C .409 .43100003 .433 .43100003 .454 .418 C .426 .41300003 .40600003 .388 .40600003 .36400003 C .40600003 .34800003 .417 .32900004 .444 .32900004 C .46600003 .32900004 .498 .34700004 .498 .38700003 C .498 .43900005 .439 .45300005 .405 .45300005 C .347 .45300005 .312 .40000005 .3 .37700004 C .275 .44300003 .221 .45300005 .19200002 .45300005 C .08800001 .45300005 .031000002 .32400004 .031000002 .29900003 C .031000002 .28900004 .041 .28900004 .043000007 .28900004 C .051000008 .28900004 .054000006 .291 .056 .3 C .09 .40600003 .156 .43100003 .19000001 .43100003 C .209 .43100003 .244 .42200003 .244 .36400003 C .244 .33300004 .22700002 .26600004 .19000001 .126 C .17400001 .064 .13900002 .022000002 .095000009 .022000002 C .08900001 .022000002 .06600001 .022000002 .045 .035 C .07000001 .040000004 .09200001 .061 .09200001 .089 C .09200001 .116000007 .07000001 .124000009 .055000009 .124000009 C .025 .124000009 0 .098000008 0 .06600001 C 0 .020000002 .050000006 0 .094000007 0 C .16000001 0 .19600001 .07000001 .19900002 .076000008 C .21100001 .039 .24700003 0 .307 0 C .41 0 .467 .12900001 .467 .15400002 C .467 .16400002 .458 .16400002 .455 .16400002 C .446 .16400002 .444 .16000001 .442 .15300001 C .409 .046 .341 .022000002 .30900003 .022000002 C .27 .022000002 .254 .054 .254 .08800001 C .254 .11000001 .26 .13200002 .271 .17600002 L .305 .31300003 Z "/>
</symbol>
<use xlink:href="#font_0_3" transform="matrix(27.673888,0,0,-27.673888,334.79975,121.29886)"/>
<path transform="matrix(2.7777777,0,0,-2.7777777,245.48055,115.03889)" stroke-width=".3985" stroke-linecap="butt" stroke-miterlimit="10" stroke-linejoin="miter" fill="none" stroke="#000000" d="M 0 -141.73404 L 0 27.88852 "/>
<path transform="matrix(0,-2.7777777,-2.7777777,-0,245.48055,37.57078)" stroke-width=".31879" stroke-linecap="round" stroke-linejoin="round" fill="none" stroke="#000000" d="M -1.19551 1.59401 C -1.09587 .99626 0 .09961 .29886 0 C 0 -.09961 -1.09587 -.99626 -1.19551 -1.59401 "/>
<symbol id="font_0_4">
<path d="M .45700003 .586 C .461 .6 .461 .602 .461 .609 C .461 .62700006 .447 .63600006 .432 .63600006 C .42200003 .63600006 .40600003 .63 .397 .615 C .395 .61 .387 .579 .38300003 .561 C .37600003 .535 .36900003 .508 .363 .48100005 L .318 .301 C .314 .286 .271 .21600002 .20500002 .21600002 C .15400002 .21600002 .143 .26000003 .143 .29700003 C .143 .34300003 .16000001 .40500004 .194 .49300004 C .21000001 .53400006 .21400002 .545 .21400002 .56500008 C .21400002 .61 .18200001 .6470001 .13200002 .6470001 C .037 .6470001 0 .50200006 0 .49300004 C 0 .48300005 .01 .48300005 .012 .48300005 C .022000002 .48300005 .023 .485 .028000003 .50100007 C .055000009 .595 .095000009 .625 .12900001 .625 C .13700001 .625 .15400002 .625 .15400002 .59300008 C .15400002 .568 .14400001 .54200008 .13700001 .523 C .097 .41700004 .079 .36 .079 .31300003 C .079 .224 .142 .194 .201 .194 C .24000003 .194 .274 .21100001 .30200003 .23900002 C .289 .187 .277 .13800001 .237 .08500001 C .21100001 .051 .17300001 .022 .127 .022 C .113000009 .022 .068 .025000006 .051000008 .06400001 C .067 .06400001 .080000009 .06400001 .094000007 .076000008 C .104 .08500001 .11400001 .098000008 .11400001 .117000009 C .11400001 .148 .087000008 .15200001 .07700001 .15200001 C .054000006 .15200001 .021 .136 .021 .087000008 C .021 .037 .065000008 0 .127 0 C .23 0 .333 .091000009 .361 .20400001 L .45700003 .586 Z "/>
</symbol>
<use xlink:href="#font_0_4" transform="matrix(27.673888,0,0,-27.673888,239.00252,26.81481)"/>
<symbol id="font_0_2">
<path d="M .059000009 .07000001 C .056 .055000005 .050000006 .032 .050000006 .027000003 C .050000006 .009000001 .064 0 .079 0 C .091000009 0 .10900001 .008000001 .11600001 .028 C .118 .032 .15200001 .16800002 .156 .18600002 C .164 .21900001 .18200001 .28900004 .18800001 .316 C .19200002 .32900004 .22000002 .37600003 .244 .39800004 C .252 .40500004 .281 .43100003 .324 .43100003 C .35 .43100003 .365 .41900004 .366 .41900004 C .336 .41400004 .314 .39000003 .314 .36400003 C .314 .34800003 .325 .32900004 .352 .32900004 C .379 .32900004 .407 .35200004 .407 .388 C .407 .42300005 .375 .45300005 .324 .45300005 C .259 .45300005 .21500002 .404 .19600001 .37600003 C .18800001 .42100004 .15200001 .45300005 .105000007 .45300005 C .059000009 .45300005 .040000008 .41400004 .031000002 .39600004 C .013000002 .36200003 0 .30200003 0 .29900003 C 0 .28900004 .01 .28900004 .012 .28900004 C .022000002 .28900004 .023 .29000003 .029000001 .31200005 C .046000005 .38300003 .06600001 .43100003 .10200001 .43100003 C .119 .43100003 .133 .42300005 .133 .38500003 C .133 .36400003 .13000001 .35300002 .11700001 .30100004 L .059000009 .07000001 Z "/>
</symbol>
<use xlink:href="#font_0_2" transform="matrix(27.673888,0,0,-27.673888,19.249764,57.246095)"/>
<symbol id="font_1_3">
<path d="M .63100007 .19400002 C .646 .19400002 .665 .19400002 .665 .214 C .665 .23400001 .646 .23400001 .632 .23400001 L .033 .23400001 C .019000002 .23400001 0 .23400001 0 .214 C 0 .19400002 .019000002 .19400002 .034 .19400002 L .63100007 .19400002 M .632 0 C .646 0 .665 0 .665 .02000001 C .665 .040000008 .646 .040000008 .63100007 .040000008 L .034 .040000008 C .019000002 .040000008 0 .040000008 0 .02000001 C 0 0 .019000002 0 .033 0 L .632 0 Z "/>
</symbol>
<symbol id="font_1_2">
<path d="M .07700001 .07700001 L .18300002 .18 C .33900003 .31800003 .39900003 .372 .39900003 .47200004 C .39900003 .586 .30900003 .666 .18700002 .666 C .074 .666 0 .574 0 .485 C 0 .42900003 .05 .42900003 .053000008 .42900003 C .07000001 .42900003 .105000007 .441 .105000007 .48200003 C .105000007 .508 .08700001 .53400006 .052000006 .53400006 C .044000005 .53400006 .042000008 .53400006 .039 .53300008 C .062000004 .59800007 .11600001 .63500007 .17400001 .63500007 C .26500003 .63500007 .308 .554 .308 .47200004 C .308 .39200003 .25800003 .31300003 .20300003 .25100003 L .011000004 .037 C 0 .026 0 .024 0 0 L .37100003 0 L .39900003 .17400001 L .374 .17400001 C .36900003 .14400001 .36200003 .1 .352 .085 C .345 .07700001 .279 .07700001 .257 .07700001 L .07700001 .07700001 Z "/>
</symbol>
<symbol id="font_1_1">
<path d="M .35300002 .31300003 L .632 .31300003 C .646 .31300003 .665 .31300003 .665 .333 C .665 .35300002 .646 .35300002 .632 .35300002 L .35300002 .35300002 L .35300002 .633 C .35300002 .647 .35300002 .666 .33300004 .666 C .31300003 .666 .31300003 .647 .31300003 .633 L .31300003 .35300002 L .033 .35300002 C .019000002 .35300002 0 .35300002 0 .333 C 0 .31300003 .019000002 .31300003 .033 .31300003 L .31300003 .31300003 L .31300003 .033000005 C .31300003 .019000002 .31300003 0 .33300004 0 C .35300002 0 .35300002 .019000002 .35300002 .033000005 L .35300002 .31300003 Z "/>
</symbol>
<symbol id="font_1_6">
<path d="M .17500001 .20500002 C .197 .20100002 .279 .18500002 .279 .113000009 C .279 .062000004 .24400002 .022000002 .16600001 .022000002 C .082 .022000002 .046000005 .079 .027000003 .16400002 C .024000004 .17700002 .023000002 .18100001 .013000004 .18100001 C 0 .18100001 0 .17400001 0 .15600002 L 0 .024 C 0 .0070000009 0 0 .011000004 0 C .016000003 0 .017 .0010000002 .036000007 .020000002 C .038000004 .022000002 .038000004 .024 .056 .043 C .1 .0010000002 .14500001 0 .16600001 0 C .28100003 0 .32700003 .067 .32700003 .13900002 C .32700003 .19200002 .29700003 .22200002 .28500004 .23400001 C .25200004 .26600004 .213 .27400003 .171 .28200004 C .115 .293 .048 .30600003 .048 .36400003 C .048 .39900003 .07400001 .44000004 .16 .44000004 C .27 .44000004 .27500005 .35000003 .277 .31900005 C .27800004 .31000004 .28700004 .31000004 .28900004 .31000004 C .30200003 .31000004 .30200003 .31500004 .30200003 .33400003 L .30200003 .43500004 C .30200003 .45200003 .30200003 .45900003 .291 .45900003 C .286 .45900003 .284 .45900003 .27100004 .44700004 C .26800005 .44300003 .25800003 .43400003 .254 .43100003 C .21600002 .45900003 .17500001 .45900003 .16 .45900003 C .038000004 .45900003 0 .39200003 0 .33600004 C 0 .30100004 .016000003 .27300004 .043000007 .25100003 C .075 .22500003 .10300001 .21900001 .17500001 .20500002 Z "/>
</symbol>
<symbol id="font_1_4">
<path d="M .144 .44200004 L .0040000008 .43100003 L .0040000008 .4 C .069000009 .4 .07800001 .39400003 .07800001 .34500004 L .07800001 .076000008 C .07800001 .031000002 .067 .031000002 0 .031000002 L 0 0 C .032000007 .001 .086 .003 .11000001 .003 C .14500001 .003 .18 .001 .21400002 0 L .21400002 .031000002 C .148 .031000002 .144 .036000004 .144 .075 L .144 .44200004 M .148 .61600008 C .148 .648 .123 .669 .095000009 .669 C .064 .669 .042000005 .642 .042000005 .61600008 C .042000005 .58900007 .064 .563 .095000009 .563 C .123 .563 .148 .58400008 .148 .61600008 Z "/>
</symbol>
<symbol id="font_1_5">
<path d="M .07800001 .344 L .07800001 .076000008 C .07800001 .031000002 .067 .031000002 0 .031000002 L 0 0 C .035 .001 .08600001 .003 .113000009 .003 C .139 .003 .191 .001 .225 0 L .225 .031000002 C .158 .031000002 .147 .031000002 .147 .076000008 L .147 .26000003 C .147 .36400003 .218 .42000003 .282 .42000003 C .345 .42000003 .356 .36600004 .356 .30900003 L .356 .076000008 C .356 .031000002 .345 .031000002 .278 .031000002 L .278 0 C .31300003 .001 .36400003 .003 .391 .003 C .41700004 .003 .46900005 .001 .503 0 L .503 .031000002 C .451 .031000002 .42600004 .031000002 .425 .061000006 L .425 .252 C .425 .33800004 .425 .36900003 .39400003 .40500004 C .38000003 .42200003 .347 .44200004 .289 .44200004 C .216 .44200004 .169 .39900003 .141 .337 L .141 .44200004 L 0 .43100003 L 0 .4 C .07000001 .4 .07800001 .393 .07800001 .344 Z "/>
</symbol>
<use xlink:href="#font_1_3" transform="matrix(27.673888,0,0,-27.673888,40.93862,53.261056)"/>
<use xlink:href="#font_1_2" transform="matrix(27.673888,0,0,-27.673888,69.996219,56.94168)"/>
<use xlink:href="#font_1_1" transform="matrix(27.673888,0,0,-27.673888,90.1428,59.238615)"/>
<use xlink:href="#font_1_2" transform="matrix(27.673888,0,0,-27.673888,117.65065,56.94168)"/>
<use xlink:href="#font_1_6" transform="matrix(27.673888,0,0,-27.673888,135.63867,57.246095)"/>
<use xlink:href="#font_1_4" transform="matrix(27.673888,0,0,-27.673888,146.54219,56.94168)"/>
<use xlink:href="#font_1_5" transform="matrix(27.673888,0,0,-27.673888,154.20786,56.94168)"/>
<symbol id="font_0_1">
<path d="M .41300003 .511 C .41300003 .577 .395 .716 .293 .716 C .15400002 .716 0 .43400003 0 .20500002 C 0 .111 .029 0 .12 0 C .261 0 .41300003 .28700004 .41300003 .511 M .106 .374 C .123 .43800003 .143 .518 .183 .589 C .21000001 .638 .24700001 .694 .29200004 .694 C .34100003 .694 .34700004 .63 .34700004 .573 C .34700004 .524 .33900003 .47300003 .31500004 .374 L .106 .374 M .30600003 .34200005 C .29500003 .29600004 .27400003 .21100001 .23600003 .13900002 C .201 .071 .16300002 .022000002 .12 .022000002 C .087000008 .022000002 .066 .051000004 .066 .14400001 C .066 .18600002 .072000008 .24400002 .098 .34200005 L .30600003 .34200005 Z "/>
</symbol>
<use xlink:href="#font_0_1" transform="matrix(27.673888,0,0,-27.673888,174.4623,57.246095)"/>
<use xlink:href="#font_0_2" transform="matrix(27.673888,0,0,-27.673888,27.322,493.75993)"/>
<use xlink:href="#font_1_3" transform="matrix(27.673888,0,0,-27.673888,49.010858,489.77488)"/>
<use xlink:href="#font_1_2" transform="matrix(27.673888,0,0,-27.673888,78.06845,493.4555)"/>
<symbol id="font_2_1">
<path d="M .57600006 0 C .59300008 0 .611 0 .611 .019999996 C .611 .040000008 .59300008 .040000008 .57600006 .040000008 L .035000005 .040000008 C .018 .040000008 0 .040000008 0 .019999996 C 0 0 .018 0 .035000005 0 L .57600006 0 Z "/>
</symbol>
<use xlink:href="#font_2_1" transform="matrix(27.673888,0,0,-27.673888,98.955287,487.0905)"/>
<use xlink:href="#font_1_2" transform="matrix(27.673888,0,0,-27.673888,125.71427,493.4555)"/>
<use xlink:href="#font_1_6" transform="matrix(27.673888,0,0,-27.673888,143.7023,493.75993)"/>
<use xlink:href="#font_1_4" transform="matrix(27.673888,0,0,-27.673888,154.6058,493.4555)"/>
<use xlink:href="#font_1_5" transform="matrix(27.673888,0,0,-27.673888,162.27147,493.4555)"/>
<use xlink:href="#font_0_1" transform="matrix(27.673888,0,0,-27.673888,182.53456,493.75993)"/>
</g>
</svg>
