<?xml version="1.0" encoding="UTF-8" standalone="no"?>
<!DOCTYPE svg PUBLIC "-//W3C//DTD SVG 1.1//EN" "http://www.w3.org/Graphics/SVG/1.1/DTD/svg11.dtd">
<svg xmlns="http://www.w3.org/2000/svg" xmlns:xlink="http://www.w3.org/1999/xlink" version="1.1" width="592.5944pt" height="824.2527pt" viewBox="0 0 592.5944 824.2527">
<g enable-background="new">
<path transform="matrix(2.7777777,0,0,-2.7777777,245.99721,429.99995)" d="M 56.69362 0 C 56.69362 0 55.38664 1.26732 54.87521 1.7323 C 54.36378 2.19728 53.53142 2.91818 53.0075 3.35129 C 52.48361 3.7844 51.63335 4.4531 51.09917 4.85393 C 50.56499 5.25476 49.70036 5.87154 49.15749 6.2402 C 48.61461 6.60887 47.73643 7.17462 47.18642 7.511 C 46.6364 7.84738 45.74817 8.3605 45.19328 8.66458 C 44.6384 8.96867 43.74457 9.43051 43.18716 9.70267 C 42.62978 9.97484 41.73428 10.38544 41.17587 10.62614 C 40.61746 10.86685 39.72005 11.2279 39.1624 11.43758 C 38.60477 11.64726 37.71161 11.95836 37.15672 12.13744 C 36.60184 12.31651 35.7136 12.57903 35.16316 12.72827 C 34.61272 12.87753 33.73369 13.09296 33.18948 13.21315 C 32.64528 13.33336 31.77737 13.50255 31.2409 13.59465 C 30.70445 13.68675 29.85019 13.812 29.32303 13.8771 C 28.79587 13.94221 27.95796 14.02489 27.4415 14.06395 C 26.92502 14.10303 26.10484 14.14453 25.60062 14.15869 C 25.09637 14.17284 24.29791 14.1755 23.80731 14.16603 C 23.31671 14.15656 22.54057 14.12209 22.06462 14.09035 C 21.58865 14.0586 20.83714 13.98985 20.37685 13.93723 C 19.91655 13.8846 19.19064 13.7832 18.74704 13.71101 C 18.30344 13.63881 17.60558 13.50706 17.17953 13.41689 C 16.7535 13.32669 16.08394 13.1675 15.67645 13.06091 C 15.26897 12.95433 14.63092 12.77022 14.24258 12.6487 C 13.85425 12.52716 13.24629 12.31992 12.87752 12.18501 C 12.50873 12.05011 11.93326 11.82295 11.58464 11.67635 C 11.23604 11.52974 10.69318 11.28502 10.3649 11.12833 C 10.03662 10.97163 9.52611 10.7119 9.21867 10.54698 C 8.91122 10.38208 8.43562 10.11147 8.149 9.93971 C 7.86238 9.76796 7.41891 9.48615 7.15288 9.30907 C 6.88684 9.13197 6.47694 8.84393 6.23155 8.6633 C 5.98616 8.48267 5.60915 8.18982 5.38422 8.00713 C 5.15929 7.82445 4.81503 7.52948 4.6104 7.34663 C 4.40576 7.16379 4.09427 6.8709 3.90926 6.68918 C 3.72424 6.50748 3.443 6.21628 3.27689 6.03691 C 3.11078 5.85754 2.85968 5.57181 2.71199 5.39633 C 2.5643 5.22086 2.34229 4.9422 2.21242 4.77219 C 2.08253 4.60216 1.88885 4.3341 1.77599 4.17094 C 1.6631 4.00778 1.49573 3.75136 1.39882 3.59612 C 1.30191 3.44087 1.15941 3.19821 1.07744 3.05197 C .99547 2.90573 .876 2.67818 .80797 2.542 C .73991 2.40584 .64226 2.19585 .58694 2.07054 C .53162 1.94525 .45291 1.75186 .40916 1.63887 C .36543 1.52588 .30504 1.35599 .27162 1.25607 C .2382 1.15614 .19272 1.00528 .16824 .91869 C .14377 .8321 .112 .70447 .09514 .63193 C .07828 .55937 .0573 .45378 .04669 .39577 C .03609 .33774 .0244 .25626 .01859 .21365 C .01277 .17107 .00725 .1157 .00473 .08865 C .00223 .06158 .00107 .03033 .00041 .01859 C -.00021 .00684 .00027 .00005 0 .00389 C -.00027 .00772 -.00034 .02684 -.00171 .04626 C -.00308 .06569 -.00592 .10904 -.00993 .14401 C -.01395 .179 -.02261 .24803 -.0307 .29843 C -.03879 .34885 -.05476 .44212 -.06833 .50735 C -.08188 .57259 -.10799 .68898 -.12845 .7686 C -.14891 .84824 -.18709 .98802 -.21582 1.08133 C -.24455 1.17464 -.29724 1.33475 -.33563 1.44121 C -.37404 1.54765 -.44327 1.72935 -.49265 1.84866 C -.54202 1.96797 -.63004 2.17015 -.6916 2.30109 C -.75317 2.43202 -.86154 2.65106 -.93643 2.79245 C -1.01132 2.93382 -1.14212 3.16928 -1.23141 3.32014 C -1.32071 3.47101 -1.47533 3.72058 -1.58005 3.87985 C -1.68475 4.03912 -1.86491 4.30127 -1.98619 4.4681 C -2.10747 4.63492 -2.3155 4.90935 -2.4542 5.0823 C -2.59288 5.25525 -2.82906 5.53722 -2.9858 5.71468 C -3.14255 5.89212 -3.40858 6.18063 -3.584 6.36133 C -3.75941 6.542 -4.05524 6.83449 -4.2501 7.01704 C -4.44496 7.1996 -4.77359 7.49413 -4.98845 7.6771 C -5.2033 7.86006 -5.56358 8.15408 -5.79858 8.33586 C -6.0336 8.51762 -6.42662 8.80818 -6.68227 8.98726 C -6.93791 9.16635 -7.36479 9.45187 -7.6412 9.62656 C -7.91762 9.80124 -8.37747 10.0778 -8.67453 10.24638 C -8.97159 10.41496 -9.46457 10.68062 -9.78227 10.84155 C -10.09998 11.0025 -10.62598 11.25462 -10.96439 11.40645 C -11.3028 11.55827 -11.86253 11.7949 -12.22134 11.93587 C -12.58015 12.07684 -13.17198 12.29411 -13.55054 12.42247 C -13.9291 12.55084 -14.55174 12.74681 -14.9498 12.86107 C -15.34787 12.97533 -16.0027 13.14743 -16.41956 13.24602 C -16.83641 13.34462 -17.51941 13.49036 -17.9542 13.57173 C -18.38899 13.6531 -19.10121 13.7699 -19.5533 13.83255 C -20.00537 13.89519 -20.74423 13.98087 -21.21251 14.0233 C -21.6808 14.06573 -22.44481 14.1176 -22.92839 14.13835 C -23.41199 14.1591 -24.20016 14.17517 -24.6979 14.17296 C -25.19565 14.17076 -26.00551 14.14882 -26.51585 14.12236 C -27.0262 14.09589 -27.85434 14.0341 -28.3762 13.98221 C -28.89807 13.93031 -29.7452 13.82663 -30.2772 13.7482 C -30.80923 13.66978 -31.67018 13.52292 -32.21066 13.41689 C -32.75113 13.31085 -33.62497 13.11852 -34.17265 12.98392 C -34.72034 12.84932 -35.6051 12.61078 -36.158 12.4467 C -36.7109 12.28262 -37.6013 11.99567 -38.15762 11.80135 C -38.71394 11.60704 -39.60933 11.27126 -40.16763 11.04614 C -40.72594 10.82103 -41.62328 10.43521 -42.18153 10.17891 C -42.73978 9.92259 -43.6346 9.48683 -44.1911 9.19878 C -44.74759 8.9107 -45.63997 8.42296 -46.19244 8.10272 C -46.74493 7.78249 -47.62656 7.24321 -48.17303 6.89075 C -48.71953 6.53828 -49.59229 5.94717 -50.13113 5.56242 C -50.66998 5.17767 -51.52754 4.53473 -52.0568 4.11775 C -52.58606 3.70078 -53.42776 3.00623 -53.9457 2.55714 C -54.46361 2.10806 -55.2856 1.36177 -55.7896 .88107 C -56.2936 .40036 -57.09023 -.39542 -57.57814 -.90744 C -58.06604 -1.41948 -58.83588 -2.26643 -59.30614 -2.80931 C -59.7764 -3.3522 -60.51651 -4.24718 -60.96751 -4.82019 C -61.4185 -5.3932 -62.12679 -6.33679 -62.55666 -6.9392 C -62.98651 -7.5416 -63.65938 -8.53128 -64.06578 -9.16202 C -64.47218 -9.79274 -65.10497 -10.82693 -65.4858 -11.48517 C -65.86664 -12.14339 -66.457 -13.2218 -66.81067 -13.90608 C -67.16432 -14.59035 -67.70972 -15.70807 -68.03474 -16.41696 C -68.35977 -17.12584 -68.85832 -18.28252 -69.15329 -19.01521 C -69.44826 -19.74792 -69.89723 -20.94292 -70.16068 -21.69781 C -70.42413 -22.45273 -70.82253 -23.6811 -71.05214 -24.45612 C -71.28175 -25.23112 -71.62132 -26.49 -71.81557 -27.28362 C -72.00981 -28.07724 -72.29376 -29.3651 -72.45226 -30.176 C -72.61075 -30.9869 -72.83638 -32.30203 -72.9579 -33.12807 C -73.07942 -33.9541 -73.2448 -35.29053 -73.32816 -36.12946 C -73.4115 -36.96838 -73.51512 -38.32431 -73.55869 -39.17451 C -73.60225 -40.02472 -73.63918 -41.39789 -73.64218 -42.25722 C -73.64517 -43.11656 -73.61841 -44.50203 -73.58032 -45.36803 C -73.54222 -46.23402 -73.44678 -47.62794 -73.36751 -48.49875 C -73.28824 -49.36954 -73.12961 -50.77011 -73.00894 -51.64415 C -72.88826 -52.51819 -72.6617 -53.92444 -72.49768 -54.79823 C -72.33366 -55.67203 -72.03415 -57.07063 -71.82681 -57.94191 C -71.61948 -58.81317 -71.25328 -60.2105 -71.00327 -61.07782 C -70.75325 -61.94513 -70.31737 -63.33243 -70.02487 -64.19295 C -69.73236 -65.05347 -69.22987 -66.42819 -68.89507 -67.27997 C -68.56026 -68.13173 -67.98909 -69.49165 -67.61174 -70.33195 C -67.23438 -71.17227 -66.59494 -72.51053 -66.17526 -73.33638 C -65.7556 -74.16222 -65.04825 -75.47412 -64.58699 -76.28412 C -64.12573 -77.0941 -63.35231 -78.38167 -62.85078 -79.17433 C -62.34924 -79.967 -61.51358 -81.22507 -60.97227 -81.99707 C -60.43095 -82.76909 -59.52945 -83.98946 -58.9493 -84.7385 C -58.36914 -85.48753 -57.40887 -86.6716 -56.79092 -87.39558 C -56.17296 -88.11958 -55.15044 -89.26001 -54.49545 -89.95663 C -53.84047 -90.65326 -52.76006 -91.74817 -52.0702 -92.41649 C -51.38036 -93.0848 -50.24693 -94.1357 -49.52342 -94.77338 C -48.7999 -95.41107 -47.61128 -96.4074 -46.85553 -97.01263 C -46.09978 -97.61787 -44.86252 -98.56487 -44.07648 -99.13553 C -43.29042 -99.70619 -42.00525 -100.59175 -41.19016 -101.12564 C -40.37505 -101.65952 -39.0438 -102.48701 -38.20174 -102.9834 C -37.3597 -103.47977 -35.9881 -104.24622 -35.1212 -104.70316 C -34.2543 -105.16011 -32.84349 -105.85977 -31.95374 -106.27673 C -31.06398 -106.6937 -29.61868 -107.33298 -28.70839 -107.70842 C -27.79811 -108.08386 -26.32176 -108.65094 -25.39299 -108.98268 C -24.46423 -109.31444 -22.95958 -109.81174 -22.01443 -110.0995 C -21.06927 -110.38725 -19.5399 -110.81348 -18.58095 -111.0567 C -17.622 -111.29994 -16.0738 -111.65399 -15.10292 -111.85257 C -14.13202 -112.05116 -12.56332 -112.33517 -11.58336 -112.48798 C -10.6034 -112.64076 -9.02669 -112.84851 -8.04 -112.95383 C -7.05331 -113.05914 -5.46323 -113.18875 -4.47198 -113.24709 C -3.48074 -113.30542 -1.88797 -113.36275 -.89577 -113.37425 C .09642 -113.38576 1.68753 -113.36542 2.67912 -113.33014 C 3.67072 -113.29485 5.26166 -113.20158 6.25104 -113.11992 C 7.2404 -113.03825 8.82603 -112.87 9.80995 -112.74146 C 10.79387 -112.6129 12.36697 -112.36896 13.34248 -112.19342 C 14.318 -112.01788 15.87589 -111.6974 16.84085 -111.47627 C 17.80582 -111.25513 19.34474 -110.86507 20.29726 -110.59952 C 21.24979 -110.33397 22.76845 -109.87143 23.7061 -109.56229 C 24.64374 -109.25316 26.13512 -108.72504 27.05524 -108.3715 C 27.97537 -108.01797 29.43774 -107.41138 30.33775 -107.0142 C 31.23778 -106.61705 32.66377 -105.94617 33.542 -105.50897 C 34.42024 -105.07178 35.81282 -104.33997 36.66753 -103.86317 C 37.52225 -103.38638 38.87325 -102.58762 39.70221 -102.07246 C 40.53117 -101.55731 41.84119 -100.70232 42.64218 -100.15027 C 43.44318 -99.5982 44.70425 -98.6818 45.4753 -98.09354 C 46.24634 -97.50528 47.45976 -96.5322 48.19943 -95.91052 C 48.9391 -95.28885 50.09926 -94.2657 50.80632 -93.61288 C 51.5134 -92.96005 52.62273 -91.88814 53.2956 -91.20537 C 53.96846 -90.5226 55.01933 -89.40277 55.65594 -88.69191 C 56.29256 -87.98105 57.28471 -86.81882 57.88394 -86.08197 C 58.48317 -85.34512 59.41377 -84.14175 59.97484 -83.3812 C 60.5359 -82.62065 61.40628 -81.38263 61.92775 -80.60042 C 62.4492 -79.81819 63.25174 -78.54498 63.73315 -77.7435 C 64.21458 -76.94202 64.95659 -75.64233 65.39757 -74.82387 C 65.83855 -74.00542 66.51291 -72.67819 66.91145 -71.84454 C 67.31 -71.0109 67.91412 -69.66185 68.27005 -68.81549 C 68.62599 -67.96912 69.16316 -66.6009 69.47684 -65.74446 C 69.79051 -64.88802 70.25961 -63.50674 70.53093 -62.64275 C 70.80223 -61.77873 71.20346 -60.38675 71.43234 -59.51721 C 71.66122 -58.64767 71.99495 -57.24872 72.18063 -56.37569 C 72.3663 -55.50267 72.62827 -54.0993 72.77061 -53.22508 C 72.91296 -52.35086 73.10634 -50.94739 73.2066 -50.07492 C 73.30688 -49.20244 73.43475 -47.80547 73.49338 -46.93684 C 73.552 -46.06822 73.61174 -44.67725 73.6292 -43.81436 C 73.64665 -42.95148 73.64253 -41.57263 73.61925 -40.7178 C 73.59598 -39.86299 73.52498 -38.4984 73.46138 -37.65329 C 73.39778 -36.80818 73.26324 -35.4598 73.16077 -34.62682 C 73.05827 -33.79384 72.86284 -32.46849 72.7226 -31.64966 C 72.58235 -30.83084 72.32623 -29.52765 72.14992 -28.72527 C 71.9736 -27.9229 71.66345 -26.65099 71.4518 -25.86661 C 71.24014 -25.08224 70.87125 -23.83745 70.62436 -23.07199 C 70.37746 -22.30652 69.95181 -21.09352 69.67235 -20.34961 C 69.39287 -19.60568 68.92012 -18.43108 68.61003 -17.71025 C 68.29994 -16.98944 67.77702 -15.85132 67.43741 -15.15439 C 67.0978 -14.45746 66.52971 -13.35861 66.16231 -12.68718 C 65.7949 -12.01576 65.1831 -10.95969 64.78943 -10.31516 C 64.39574 -9.67062 63.74313 -8.65855 63.32484 -8.04173 C 62.90657 -7.42491 62.21555 -6.45753 61.77463 -5.86952 C 61.33371 -5.28151 60.60788 -4.36185 60.14699 -3.80373 C 59.6861 -3.2456 58.93181 -2.37444 58.45274 -1.84692 C 57.97366 -1.31941 56.69403 -.00171 56.69403 -.00171 Z " fill="#e0e0e0"/>
<path transform="matrix(2.7777777,0,0,-2.7777777,245.99721,429.99995)" d="M 56.69362 0 C 56.69362 0 57.97182 1.31763 58.451 1.8452 C 58.9302 2.37276 59.68666 3.24437 60.14743 3.80243 C 60.6082 4.3605 61.33148 5.27965 61.77203 5.86737 C 62.21259 6.45508 62.90416 7.42151 63.32268 8.03827 C 63.74121 8.65503 64.3948 9.66785 64.78856 10.31256 C 65.18231 10.95728 65.79341 12.01378 66.16057 12.68503 C 66.52773 13.35626 67.09514 14.45381 67.43481 15.1505 C 67.77449 15.84718 68.29828 16.98518 68.60872 17.70636 C 68.91916 18.42754 69.39293 19.60425 69.67235 20.3483 C 69.95175 21.09235 70.37598 22.30368 70.62262 23.06897 C 70.86928 23.83424 71.2381 25.07947 71.45007 25.86403 C 71.66203 26.64859 71.97366 27.92122 72.15034 28.72354 C 72.32703 29.52585 72.58333 30.82797 72.72346 31.64662 C 72.86359 32.46526 73.05783 33.79086 73.16032 34.6238 C 73.26282 35.45673 73.3985 36.80453 73.46223 37.64983 C 73.52596 38.49512 73.59653 39.86127 73.61967 40.7161 C 73.64282 41.5709 73.64677 42.94826 73.6292 43.8109 C 73.61162 44.67352 73.55157 46.0648 73.49295 46.93338 C 73.43434 47.80196 73.30682 49.19861 73.2066 50.07103 C 73.1064 50.94344 72.91296 52.34697 72.77061 53.22119 C 72.62827 54.09541 72.366 55.49855 72.18063 56.3718 C 71.99525 57.24506 71.66338 58.64558 71.4345 59.51506 C 71.20561 60.38454 70.80223 61.7744 70.53093 62.63841 C 70.25961 63.50241 69.79245 64.88579 69.47899 65.7423 C 69.16554 66.59882 68.62773 67.96523 68.27179 68.8116 C 67.91585 69.65796 67.31223 71.0085 66.91362 71.84238 C 66.515 72.67627 65.83966 74.0036 65.39886 74.8217 C 64.95805 75.63979 64.21817 76.93758 63.73663 77.73874 C 63.2551 78.53992 62.44977 79.81358 61.92819 80.5961 C 61.4066 81.3786 60.53838 82.61775 59.97743 83.3786 C 59.4165 84.13945 58.48442 85.34259 57.88525 86.0798 C 57.28607 86.817 56.29549 87.98141 55.65898 88.69191 C 55.02248 89.4024 53.97043 90.51816 53.29774 91.2006 C 52.62506 91.88307 51.51736 92.95723 50.81065 93.61072 C 50.10394 94.2642 48.94374 95.28854 48.2042 95.91052 C 47.46465 96.5325 46.25179 97.50558 45.4805 98.09354 C 44.70921 98.68149 43.44644 99.59604 42.6452 100.1481 C 41.84396 100.70016 40.53464 101.55737 39.70567 102.07246 C 38.87671 102.58755 37.52527 103.38379 36.67055 103.86058 C 35.81584 104.33737 34.42395 105.07178 33.54547 105.50897 C 32.66699 105.94617 31.23915 106.6148 30.33907 107.01161 C 29.439 107.40842 27.97809 108.01538 27.05827 108.36893 C 26.13844 108.72246 24.64691 109.25021 23.70956 109.5597 C 22.7722 109.86917 21.25497 110.3336 20.30244 110.59952 C 19.34991 110.86543 17.80951 111.25513 16.84431 111.47627 C 15.87914 111.6974 14.3217 112.01753 13.34595 112.19342 C 12.3702 112.36931 10.79536 112.6155 9.81169 112.74403 C 8.828 112.87259 7.24536 113.0386 6.25621 113.11992 C 5.26707 113.20123 3.67442 113.29485 2.68259 113.33014 C 1.69073 113.36542 .09987 113.38576 -.89232 113.37425 C -1.88452 113.36275 -3.4773 113.30542 -4.46854 113.24709 C -5.45978 113.18875 -7.04985 113.05914 -8.03653 112.95383 C -9.02322 112.84851 -10.60016 112.64041 -11.57988 112.48798 C -12.55962 112.33554 -14.12708 112.05339 -15.09773 111.85518 C -16.06839 111.65695 -17.61656 111.3029 -18.57576 111.05931 C -19.53496 110.8157 -21.06558 110.38725 -22.01099 110.0995 C -22.95638 109.81174 -24.46053 109.31668 -25.38953 108.98529 C -26.31854 108.6539 -27.79633 108.08647 -28.70667 107.71103 C -29.617 107.33559 -31.06119 106.69666 -31.9507 106.27933 C -32.84023 105.86201 -34.25092 105.16045 -35.11775 104.70316 C -35.98457 104.24586 -37.3564 103.47946 -38.19827 102.9834 C -39.04015 102.48732 -40.36998 101.6613 -41.1854 101.12779 C -42.0008 100.59428 -43.28883 99.70874 -44.07518 99.13812 C -44.86153 98.56752 -46.09743 97.62053 -46.85294 97.01523 C -47.60844 96.40994 -48.79663 95.41295 -49.52039 94.77554 C -50.24416 94.13814 -51.37936 93.08925 -52.06934 92.42123 C -52.75931 91.75323 -53.83835 90.65796 -54.49327 89.96097 C -55.14821 89.26398 -56.17148 88.12204 -56.78963 87.39775 C -57.40778 86.67345 -58.36845 85.4897 -58.94843 84.74068 C -59.5284 83.99164 -60.42859 82.77126 -60.96967 81.99924 C -61.51076 81.22722 -62.3466 79.96886 -62.84819 79.1765 C -63.34978 78.38414 -64.12357 77.09845 -64.58482 76.28845 C -65.04608 75.47844 -65.75294 74.16444 -66.17267 73.33853 C -66.59239 72.51262 -67.23257 71.17616 -67.61 70.33585 C -67.98743 69.49554 -68.55823 68.13416 -68.89291 67.28214 C -69.2276 66.43013 -69.72964 65.0554 -70.02226 64.1951 C -70.3149 63.33481 -70.75165 61.94879 -71.00195 61.08171 C -71.25227 60.21463 -71.6191 58.81737 -71.82637 57.9458 C -72.03366 57.07422 -72.33206 55.67374 -72.49594 54.79994 C -72.65984 53.92615 -72.88673 52.52184 -73.00764 51.64804 C -73.12856 50.77425 -73.288 49.37305 -73.36751 48.5022 C -73.447 47.63133 -73.54248 46.23747 -73.58076 45.37148 C -73.61903 44.5055 -73.64647 43.12 -73.64346 42.26067 C -73.64047 41.40135 -73.6028 40.02818 -73.55913 39.17798 C -73.51546 38.32779 -73.41188 36.97208 -73.32858 36.1329 C -73.2453 35.29375 -73.08028 33.95587 -72.95876 33.1298 C -72.83723 32.30373 -72.61124 30.98975 -72.4527 30.17902 C -72.29416 29.3683 -72.01007 28.08032 -71.816 27.28665 C -71.6219 26.49297 -71.28342 25.23396 -71.05388 24.45871 C -70.82433 23.68346 -70.425 22.45396 -70.16154 21.69911 C -69.8981 20.94426 -69.44998 19.75095 -69.15503 19.01825 C -68.86006 18.28554 -68.36076 17.12744 -68.03561 16.41826 C -67.71045 15.70909 -67.16495 14.5911 -66.81154 13.90695 C -66.45811 13.2228 -65.86923 12.14531 -65.4884 11.48732 C -65.10756 10.82933 -64.47318 9.79538 -64.06665 9.1646 C -63.66011 8.5338 -62.98802 7.54327 -62.55838 6.94093 C -62.12874 6.33858 -61.42111 5.39622 -60.97011 4.82321 C -60.51912 4.25021 -59.77824 3.35411 -59.30786 2.81105 C -58.8375 2.26799 -58.06778 1.4212 -57.57988 .90918 C -57.09196 .39714 -56.29532 -.39864 -55.79134 -.87933 C -55.28734 -1.36003 -54.46521 -2.1064 -53.94742 -2.55542 C -53.42963 -3.00444 -52.58865 -3.69861 -52.0594 -4.11559 C -51.53014 -4.53255 -50.6717 -5.17578 -50.13286 -5.5607 C -49.59401 -5.9456 -48.72224 -6.53735 -48.17564 -6.88988 C -47.62904 -7.2424 -46.74603 -7.78119 -46.19331 -8.10141 C -45.64061 -8.42165 -44.74846 -8.90971 -44.19196 -9.1979 C -43.63547 -9.48608 -42.74051 -9.92209 -42.18239 -10.17847 C -41.62425 -10.43483 -40.72765 -10.82059 -40.16936 -11.0457 C -39.61105 -11.27081 -38.71481 -11.60667 -38.1585 -11.80092 C -37.60217 -11.99518 -36.71243 -12.28177 -36.15973 -12.44583 C -35.60701 -12.60991 -34.72244 -12.84883 -34.17482 -12.98349 C -33.6272 -13.11815 -32.75348 -13.31036 -32.21281 -13.41646 C -31.67216 -13.52255 -30.81009 -13.66972 -30.27808 -13.7482 C -29.74606 -13.82669 -28.90007 -13.93031 -28.37837 -13.98221 C -27.85669 -14.0341 -27.02849 -14.09589 -26.51802 -14.12236 C -26.00755 -14.14882 -25.19695 -14.17076 -24.6992 -14.17296 C -24.20146 -14.17517 -23.41408 -14.1591 -22.93056 -14.13835 C -22.44702 -14.1176 -21.68253 -14.06567 -21.21425 -14.0233 C -20.74597 -13.98093 -20.00752 -13.89563 -19.55545 -13.833 C -19.10338 -13.77034 -18.39084 -13.6531 -17.95593 -13.57173 C -17.52101 -13.49036 -16.83765 -13.345 -16.42085 -13.24646 C -16.00406 -13.14792 -15.35008 -12.97577 -14.95197 -12.86151 C -14.55383 -12.74725 -13.93008 -12.55128 -13.5514 -12.42291 C -13.17271 -12.29454 -12.58133 -12.07727 -12.22264 -11.9363 C -11.86395 -11.79533 -11.3046 -11.5587 -10.96613 -11.40688 C -10.62766 -11.25505 -10.1009 -11.00287 -9.78313 -10.84198 C -9.46536 -10.6811 -8.9729 -10.41582 -8.67584 -10.24724 C -8.37877 -10.07866 -7.91855 -9.80173 -7.64207 -9.62698 C -7.3656 -9.45224 -6.93878 -9.16676 -6.68314 -8.98769 C -6.42747 -8.80861 -6.03453 -8.51805 -5.79945 -8.33629 C -5.56439 -8.15451 -5.20366 -7.86044 -4.98888 -7.67754 C -4.77408 -7.49463 -4.44621 -7.20035 -4.2514 -7.01791 C -4.05661 -6.83546 -3.7604 -6.54337 -3.58487 -6.36261 C -3.40933 -6.18185 -3.14297 -5.89262 -2.98622 -5.71512 C -2.82948 -5.5376 -2.59375 -5.25606 -2.45506 -5.08318 C -2.31638 -4.91028 -2.10797 -4.63585 -1.98663 -4.46896 C -1.8653 -4.30208 -1.68526 -4.03967 -1.58047 -3.88028 C -1.47571 -3.72089 -1.32077 -3.47107 -1.23141 -3.32014 C -1.14206 -3.16922 -1.01126 -2.93372 -.93643 -2.79245 C -.8616 -2.65117 -.75362 -2.43279 -.69205 -2.30196 C -.63048 -2.17113 -.54208 -1.96881 -.49265 -1.84952 C -.4432 -1.73021 -.37404 -1.54865 -.33563 -1.44206 C -.29724 -1.33548 -.24455 -1.17464 -.21582 -1.08133 C -.18709 -.98802 -.14891 -.84898 -.12845 -.76947 C -.10799 -.68997 -.08188 -.57356 -.06833 -.50821 C -.05476 -.44286 -.03879 -.34895 -.0307 -.29843 C -.02261 -.24792 -.01395 -.179 -.00993 -.14401 C -.00592 -.10904 -.00308 -.06569 -.00171 -.04626 C -.00034 -.02684 -.00027 -.00772 0 -.00389 C .00027 -.00005 -.00021 -.00684 .00041 -.01859 C .00107 -.03033 .00223 -.06146 .00473 -.08865 C .00725 -.11583 .01277 -.17192 .01859 -.21452 C .0244 -.25713 .03609 -.33786 .04669 -.39577 C .0573 -.45366 .07828 -.55937 .09514 -.63193 C .112 -.70447 .14377 -.83223 .16824 -.91869 C .19272 -1.00516 .23827 -1.15541 .27162 -1.2552 C .30498 -1.35501 .36505 -1.52501 .40872 -1.638 C .45241 -1.751 .53111 -1.94426 .5865 -2.06969 C .64188 -2.1951 .73991 -2.40584 .80797 -2.542 C .876 -2.67818 .99504 -2.90486 1.07701 -3.0511 C 1.15898 -3.19734 1.30191 -3.44081 1.39882 -3.59612 C 1.49573 -3.75142 1.66267 -4.00735 1.77556 -4.17052 C 1.88843 -4.33368 2.08253 -4.60211 2.21242 -4.77219 C 2.34229 -4.94225 2.56401 -5.22092 2.71156 -5.39633 C 2.85913 -5.57175 3.11005 -5.85728 3.27603 -6.03648 C 3.44203 -6.21568 3.7229 -6.50612 3.90796 -6.6879 C 4.09303 -6.86966 4.40523 -7.16367 4.60997 -7.34663 C 4.81473 -7.5296 5.15892 -7.82413 5.38379 -8.0067 C 5.60866 -8.18925 5.98543 -8.48186 6.2307 -8.66243 C 6.47595 -8.843 6.88565 -9.13118 7.15157 -9.30821 C 7.41748 -9.48523 7.86052 -9.7666 8.14726 -9.9384 C 8.434 -10.11021 8.91072 -10.38153 9.21823 -10.54657 C 9.52574 -10.7116 10.0355 -10.9712 10.36359 -11.12788 C 10.69168 -11.28458 11.23431 -11.52931 11.58293 -11.67592 C 11.93153 -11.82253 12.50742 -12.04973 12.8762 -12.18457 C 13.245 -12.31941 13.85252 -12.5263 14.24088 -12.64783 C 14.62923 -12.76935 15.26767 -12.95383 15.67516 -13.06047 C 16.08266 -13.16711 16.75183 -13.32626 17.1778 -13.41646 C 17.60378 -13.50665 18.3017 -13.63838 18.74532 -13.71059 C 19.18892 -13.78278 19.91487 -13.8841 20.3751 -13.93678 C 20.83536 -13.98947 21.5865 -14.05853 22.06245 -14.09035 C 22.53842 -14.12215 23.31485 -14.15656 23.80557 -14.16603 C 24.2963 -14.1755 25.0952 -14.17284 25.59932 -14.15869 C 26.10342 -14.14453 26.92255 -14.10297 27.43889 -14.06395 C 27.95525 -14.02495 28.79372 -13.94258 29.32086 -13.87753 C 29.84802 -13.81248 30.70174 -13.68726 31.23831 -13.5951 C 31.77487 -13.50291 32.64388 -13.3333 33.18819 -13.21315 C 33.73251 -13.09302 34.61105 -12.87833 35.16142 -12.72914 C 35.71179 -12.57996 36.60011 -12.317 37.155 -12.13786 C 37.70988 -11.95872 38.60323 -11.64758 39.16069 -11.43802 C 39.71814 -11.22847 40.61456 -10.86803 41.17285 -10.62744 C 41.73114 -10.38686 42.627 -9.97614 43.18457 -9.70398 C 43.74216 -9.43182 44.63666 -8.97003 45.19156 -8.66588 C 45.74644 -8.36174 46.63385 -7.84818 47.18382 -7.51187 C 47.73378 -7.17555 48.61221 -6.61053 49.15533 -6.24194 C 49.69846 -5.87334 50.56401 -5.25623 51.0983 -4.85522 C 51.63258 -4.45424 52.48242 -3.78479 53.00623 -3.35173 C 53.53001 -2.91867 54.36223 -2.1989 54.87347 -1.73404 C 55.38474 -1.26918 56.69101 -.00128 56.69101 -.00128 Z " fill="#ffffff"/>
<path transform="matrix(2.7777777,0,0,-2.7777777,245.99721,429.99995)" stroke-width=".79701" stroke-linecap="butt" stroke-miterlimit="10" stroke-linejoin="miter" fill="none" stroke="#ff0000" d="M 56.69362 0 C 56.69362 0 55.38664 1.26732 54.87521 1.7323 C 54.36378 2.19728 53.53142 2.91818 53.0075 3.35129 C 52.48361 3.7844 51.63335 4.4531 51.09917 4.85393 C 50.56499 5.25476 49.70036 5.87154 49.15749 6.2402 C 48.61461 6.60887 47.73643 7.17462 47.18642 7.511 C 46.6364 7.84738 45.74817 8.3605 45.19328 8.66458 C 44.6384 8.96867 43.74457 9.43051 43.18716 9.70267 C 42.62978 9.97484 41.73428 10.38544 41.17587 10.62614 C 40.61746 10.86685 39.72005 11.2279 39.1624 11.43758 C 38.60477 11.64726 37.71161 11.95836 37.15672 12.13744 C 36.60184 12.31651 35.7136 12.57903 35.16316 12.72827 C 34.61272 12.87753 33.73369 13.09296 33.18948 13.21315 C 32.64528 13.33336 31.77737 13.50255 31.2409 13.59465 C 30.70445 13.68675 29.85019 13.812 29.32303 13.8771 C 28.79587 13.94221 27.95796 14.02489 27.4415 14.06395 C 26.92502 14.10303 26.10484 14.14453 25.60062 14.15869 C 25.09637 14.17284 24.29791 14.1755 23.80731 14.16603 C 23.31671 14.15656 22.54057 14.12209 22.06462 14.09035 C 21.58865 14.0586 20.83714 13.98985 20.37685 13.93723 C 19.91655 13.8846 19.19064 13.7832 18.74704 13.71101 C 18.30344 13.63881 17.60558 13.50706 17.17953 13.41689 C 16.7535 13.32669 16.08394 13.1675 15.67645 13.06091 C 15.26897 12.95433 14.63092 12.77022 14.24258 12.6487 C 13.85425 12.52716 13.24629 12.31992 12.87752 12.18501 C 12.50873 12.05011 11.93326 11.82295 11.58464 11.67635 C 11.23604 11.52974 10.69318 11.28502 10.3649 11.12833 C 10.03662 10.97163 9.52611 10.7119 9.21867 10.54698 C 8.91122 10.38208 8.43562 10.11147 8.149 9.93971 C 7.86238 9.76796 7.41891 9.48615 7.15288 9.30907 C 6.88684 9.13197 6.47694 8.84393 6.23155 8.6633 C 5.98616 8.48267 5.60915 8.18982 5.38422 8.00713 C 5.15929 7.82445 4.81503 7.52948 4.6104 7.34663 C 4.40576 7.16379 4.09427 6.8709 3.90926 6.68918 C 3.72424 6.50748 3.443 6.21628 3.27689 6.03691 C 3.11078 5.85754 2.85968 5.57181 2.71199 5.39633 C 2.5643 5.22086 2.34229 4.9422 2.21242 4.77219 C 2.08253 4.60216 1.88885 4.3341 1.77599 4.17094 C 1.6631 4.00778 1.49573 3.75136 1.39882 3.59612 C 1.30191 3.44087 1.15941 3.19821 1.07744 3.05197 C .99547 2.90573 .876 2.67818 .80797 2.542 C .73991 2.40584 .64226 2.19585 .58694 2.07054 C .53162 1.94525 .45291 1.75186 .40916 1.63887 C .36543 1.52588 .30504 1.35599 .27162 1.25607 C .2382 1.15614 .19272 1.00528 .16824 .91869 C .14377 .8321 .112 .70447 .09514 .63193 C .07828 .55937 .0573 .45378 .04669 .39577 C .03609 .33774 .0244 .25626 .01859 .21365 C .01277 .17107 .00725 .1157 .00473 .08865 C .00223 .06158 .00107 .03033 .00041 .01859 C -.00021 .00684 .00027 .00005 0 .00389 C -.00027 .00772 -.00034 .02684 -.00171 .04626 C -.00308 .06569 -.00592 .10904 -.00993 .14401 C -.01395 .179 -.02261 .24803 -.0307 .29843 C -.03879 .34885 -.05476 .44212 -.06833 .50735 C -.08188 .57259 -.10799 .68898 -.12845 .7686 C -.14891 .84824 -.18709 .98802 -.21582 1.08133 C -.24455 1.17464 -.29724 1.33475 -.33563 1.44121 C -.37404 1.54765 -.44327 1.72935 -.49265 1.84866 C -.54202 1.96797 -.63004 2.17015 -.6916 2.30109 C -.75317 2.43202 -.86154 2.65106 -.93643 2.79245 C -1.01132 2.93382 -1.14212 3.16928 -1.23141 3.32014 C -1.32071 3.47101 -1.47533 3.72058 -1.58005 3.87985 C -1.68475 4.03912 -1.86491 4.30127 -1.98619 4.4681 C -2.10747 4.63492 -2.3155 4.90935 -2.4542 5.0823 C -2.59288 5.25525 -2.82906 5.53722 -2.9858 5.71468 C -3.14255 5.89212 -3.40858 6.18063 -3.584 6.36133 C -3.75941 6.542 -4.05524 6.83449 -4.2501 7.01704 C -4.44496 7.1996 -4.77359 7.49413 -4.98845 7.6771 C -5.2033 7.86006 -5.56358 8.15408 -5.79858 8.33586 C -6.0336 8.51762 -6.42662 8.80818 -6.68227 8.98726 C -6.93791 9.16635 -7.36479 9.45187 -7.6412 9.62656 C -7.91762 9.80124 -8.37747 10.0778 -8.67453 10.24638 C -8.97159 10.41496 -9.46457 10.68062 -9.78227 10.84155 C -10.09998 11.0025 -10.62598 11.25462 -10.96439 11.40645 C -11.3028 11.55827 -11.86253 11.7949 -12.22134 11.93587 C -12.58015 12.07684 -13.17198 12.29411 -13.55054 12.42247 C -13.9291 12.55084 -14.55174 12.74681 -14.9498 12.86107 C -15.34787 12.97533 -16.0027 13.14743 -16.41956 13.24602 C -16.83641 13.34462 -17.51941 13.49036 -17.9542 13.57173 C -18.38899 13.6531 -19.10121 13.7699 -19.5533 13.83255 C -20.00537 13.89519 -20.74423 13.98087 -21.21251 14.0233 C -21.6808 14.06573 -22.44481 14.1176 -22.92839 14.13835 C -23.41199 14.1591 -24.20016 14.17517 -24.6979 14.17296 C -25.19565 14.17076 -26.00551 14.14882 -26.51585 14.12236 C -27.0262 14.09589 -27.85434 14.0341 -28.3762 13.98221 C -28.89807 13.93031 -29.7452 13.82663 -30.2772 13.7482 C -30.80923 13.66978 -31.67018 13.52292 -32.21066 13.41689 C -32.75113 13.31085 -33.62497 13.11852 -34.17265 12.98392 C -34.72034 12.84932 -35.6051 12.61078 -36.158 12.4467 C -36.7109 12.28262 -37.6013 11.99567 -38.15762 11.80135 C -38.71394 11.60704 -39.60933 11.27126 -40.16763 11.04614 C -40.72594 10.82103 -41.62328 10.43521 -42.18153 10.17891 C -42.73978 9.92259 -43.6346 9.48683 -44.1911 9.19878 C -44.74759 8.9107 -45.63997 8.42296 -46.19244 8.10272 C -46.74493 7.78249 -47.62656 7.24321 -48.17303 6.89075 C -48.71953 6.53828 -49.59229 5.94717 -50.13113 5.56242 C -50.66998 5.17767 -51.52754 4.53473 -52.0568 4.11775 C -52.58606 3.70078 -53.42776 3.00623 -53.9457 2.55714 C -54.46361 2.10806 -55.2856 1.36177 -55.7896 .88107 C -56.2936 .40036 -57.09023 -.39542 -57.57814 -.90744 C -58.06604 -1.41948 -58.83588 -2.26643 -59.30614 -2.80931 C -59.7764 -3.3522 -60.51651 -4.24718 -60.96751 -4.82019 C -61.4185 -5.3932 -62.12679 -6.33679 -62.55666 -6.9392 C -62.98651 -7.5416 -63.65938 -8.53128 -64.06578 -9.16202 C -64.47218 -9.79274 -65.10497 -10.82693 -65.4858 -11.48517 C -65.86664 -12.14339 -66.457 -13.2218 -66.81067 -13.90608 C -67.16432 -14.59035 -67.70972 -15.70807 -68.03474 -16.41696 C -68.35977 -17.12584 -68.85832 -18.28252 -69.15329 -19.01521 C -69.44826 -19.74792 -69.89723 -20.94292 -70.16068 -21.69781 C -70.42413 -22.45273 -70.82253 -23.6811 -71.05214 -24.45612 C -71.28175 -25.23112 -71.62132 -26.49 -71.81557 -27.28362 C -72.00981 -28.07724 -72.29376 -29.3651 -72.45226 -30.176 C -72.61075 -30.9869 -72.83638 -32.30203 -72.9579 -33.12807 C -73.07942 -33.9541 -73.2448 -35.29053 -73.32816 -36.12946 C -73.4115 -36.96838 -73.51512 -38.32431 -73.55869 -39.17451 C -73.60225 -40.02472 -73.63918 -41.39789 -73.64218 -42.25722 C -73.64517 -43.11656 -73.61841 -44.50203 -73.58032 -45.36803 C -73.54222 -46.23402 -73.44678 -47.62794 -73.36751 -48.49875 C -73.28824 -49.36954 -73.12961 -50.77011 -73.00894 -51.64415 C -72.88826 -52.51819 -72.6617 -53.92444 -72.49768 -54.79823 C -72.33366 -55.67203 -72.03415 -57.07063 -71.82681 -57.94191 C -71.61948 -58.81317 -71.25328 -60.2105 -71.00327 -61.07782 C -70.75325 -61.94513 -70.31737 -63.33243 -70.02487 -64.19295 C -69.73236 -65.05347 -69.22987 -66.42819 -68.89507 -67.27997 C -68.56026 -68.13173 -67.98909 -69.49165 -67.61174 -70.33195 C -67.23438 -71.17227 -66.59494 -72.51053 -66.17526 -73.33638 C -65.7556 -74.16222 -65.04825 -75.47412 -64.58699 -76.28412 C -64.12573 -77.0941 -63.35231 -78.38167 -62.85078 -79.17433 C -62.34924 -79.967 -61.51358 -81.22507 -60.97227 -81.99707 C -60.43095 -82.76909 -59.52945 -83.98946 -58.9493 -84.7385 C -58.36914 -85.48753 -57.40887 -86.6716 -56.79092 -87.39558 C -56.17296 -88.11958 -55.15044 -89.26001 -54.49545 -89.95663 C -53.84047 -90.65326 -52.76006 -91.74817 -52.0702 -92.41649 C -51.38036 -93.0848 -50.24693 -94.1357 -49.52342 -94.77338 C -48.7999 -95.41107 -47.61128 -96.4074 -46.85553 -97.01263 C -46.09978 -97.61787 -44.86252 -98.56487 -44.07648 -99.13553 C -43.29042 -99.70619 -42.00525 -100.59175 -41.19016 -101.12564 C -40.37505 -101.65952 -39.0438 -102.48701 -38.20174 -102.9834 C -37.3597 -103.47977 -35.9881 -104.24622 -35.1212 -104.70316 C -34.2543 -105.16011 -32.84349 -105.85977 -31.95374 -106.27673 C -31.06398 -106.6937 -29.61868 -107.33298 -28.70839 -107.70842 C -27.79811 -108.08386 -26.32176 -108.65094 -25.39299 -108.98268 C -24.46423 -109.31444 -22.95958 -109.81174 -22.01443 -110.0995 C -21.06927 -110.38725 -19.5399 -110.81348 -18.58095 -111.0567 C -17.622 -111.29994 -16.0738 -111.65399 -15.10292 -111.85257 C -14.13202 -112.05116 -12.56332 -112.33517 -11.58336 -112.48798 C -10.6034 -112.64076 -9.02669 -112.84851 -8.04 -112.95383 C -7.05331 -113.05914 -5.46323 -113.18875 -4.47198 -113.24709 C -3.48074 -113.30542 -1.88797 -113.36275 -.89577 -113.37425 C .09642 -113.38576 1.68753 -113.36542 2.67912 -113.33014 C 3.67072 -113.29485 5.26166 -113.20158 6.25104 -113.11992 C 7.2404 -113.03825 8.82603 -112.87 9.80995 -112.74146 C 10.79387 -112.6129 12.36697 -112.36896 13.34248 -112.19342 C 14.318 -112.01788 15.87589 -111.6974 16.84085 -111.47627 C 17.80582 -111.25513 19.34474 -110.86507 20.29726 -110.59952 C 21.24979 -110.33397 22.76845 -109.87143 23.7061 -109.56229 C 24.64374 -109.25316 26.13512 -108.72504 27.05524 -108.3715 C 27.97537 -108.01797 29.43774 -107.41138 30.33775 -107.0142 C 31.23778 -106.61705 32.66377 -105.94617 33.542 -105.50897 C 34.42024 -105.07178 35.81282 -104.33997 36.66753 -103.86317 C 37.52225 -103.38638 38.87325 -102.58762 39.70221 -102.07246 C 40.53117 -101.55731 41.84119 -100.70232 42.64218 -100.15027 C 43.44318 -99.5982 44.70425 -98.6818 45.4753 -98.09354 C 46.24634 -97.50528 47.45976 -96.5322 48.19943 -95.91052 C 48.9391 -95.28885 50.09926 -94.2657 50.80632 -93.61288 C 51.5134 -92.96005 52.62273 -91.88814 53.2956 -91.20537 C 53.96846 -90.5226 55.01933 -89.40277 55.65594 -88.69191 C 56.29256 -87.98105 57.28471 -86.81882 57.88394 -86.08197 C 58.48317 -85.34512 59.41377 -84.14175 59.97484 -83.3812 C 60.5359 -82.62065 61.40628 -81.38263 61.92775 -80.60042 C 62.4492 -79.81819 63.25174 -78.54498 63.73315 -77.7435 C 64.21458 -76.94202 64.95659 -75.64233 65.39757 -74.82387 C 65.83855 -74.00542 66.51291 -72.67819 66.91145 -71.84454 C 67.31 -71.0109 67.91412 -69.66185 68.27005 -68.81549 C 68.62599 -67.96912 69.16316 -66.6009 69.47684 -65.74446 C 69.79051 -64.88802 70.25961 -63.50674 70.53093 -62.64275 C 70.80223 -61.77873 71.20346 -60.38675 71.43234 -59.51721 C 71.66122 -58.64767 71.99495 -57.24872 72.18063 -56.37569 C 72.3663 -55.50267 72.62827 -54.0993 72.77061 -53.22508 C 72.91296 -52.35086 73.10634 -50.94739 73.2066 -50.07492 C 73.30688 -49.20244 73.43475 -47.80547 73.49338 -46.93684 C 73.552 -46.06822 73.61174 -44.67725 73.6292 -43.81436 C 73.64665 -42.95148 73.64253 -41.57263 73.61925 -40.7178 C 73.59598 -39.86299 73.52498 -38.4984 73.46138 -37.65329 C 73.39778 -36.80818 73.26324 -35.4598 73.16077 -34.62682 C 73.05827 -33.79384 72.86284 -32.46849 72.7226 -31.64966 C 72.58235 -30.83084 72.32623 -29.52765 72.14992 -28.72527 C 71.9736 -27.9229 71.66345 -26.65099 71.4518 -25.86661 C 71.24014 -25.08224 70.87125 -23.83745 70.62436 -23.07199 C 70.37746 -22.30652 69.95181 -21.09352 69.67235 -20.34961 C 69.39287 -19.60568 68.92012 -18.43108 68.61003 -17.71025 C 68.29994 -16.98944 67.77702 -15.85132 67.43741 -15.15439 C 67.0978 -14.45746 66.52971 -13.35861 66.16231 -12.68718 C 65.7949 -12.01576 65.1831 -10.95969 64.78943 -10.31516 C 64.39574 -9.67062 63.74313 -8.65855 63.32484 -8.04173 C 62.90657 -7.42491 62.21555 -6.45753 61.77463 -5.86952 C 61.33371 -5.28151 60.60788 -4.36185 60.14699 -3.80373 C 59.6861 -3.2456 58.93181 -2.37444 58.45274 -1.84692 C 57.97366 -1.31941 56.69403 -.00171 56.69403 -.00171 Z "/>
<path transform="matrix(2.7777777,0,0,-2.7777777,245.99721,429.99995)" stroke-width=".79701" stroke-linecap="butt" stroke-miterlimit="10" stroke-linejoin="miter" fill="none" stroke="#0000ff" d="M 56.69362 0 C 56.69362 0 57.97182 1.31763 58.451 1.8452 C 58.9302 2.37276 59.68666 3.24437 60.14743 3.80243 C 60.6082 4.3605 61.33148 5.27965 61.77203 5.86737 C 62.21259 6.45508 62.90416 7.42151 63.32268 8.03827 C 63.74121 8.65503 64.3948 9.66785 64.78856 10.31256 C 65.18231 10.95728 65.79341 12.01378 66.16057 12.68503 C 66.52773 13.35626 67.09514 14.45381 67.43481 15.1505 C 67.77449 15.84718 68.29828 16.98518 68.60872 17.70636 C 68.91916 18.42754 69.39293 19.60425 69.67235 20.3483 C 69.95175 21.09235 70.37598 22.30368 70.62262 23.06897 C 70.86928 23.83424 71.2381 25.07947 71.45007 25.86403 C 71.66203 26.64859 71.97366 27.92122 72.15034 28.72354 C 72.32703 29.52585 72.58333 30.82797 72.72346 31.64662 C 72.86359 32.46526 73.05783 33.79086 73.16032 34.6238 C 73.26282 35.45673 73.3985 36.80453 73.46223 37.64983 C 73.52596 38.49512 73.59653 39.86127 73.61967 40.7161 C 73.64282 41.5709 73.64677 42.94826 73.6292 43.8109 C 73.61162 44.67352 73.55157 46.0648 73.49295 46.93338 C 73.43434 47.80196 73.30682 49.19861 73.2066 50.07103 C 73.1064 50.94344 72.91296 52.34697 72.77061 53.22119 C 72.62827 54.09541 72.366 55.49855 72.18063 56.3718 C 71.99525 57.24506 71.66338 58.64558 71.4345 59.51506 C 71.20561 60.38454 70.80223 61.7744 70.53093 62.63841 C 70.25961 63.50241 69.79245 64.88579 69.47899 65.7423 C 69.16554 66.59882 68.62773 67.96523 68.27179 68.8116 C 67.91585 69.65796 67.31223 71.0085 66.91362 71.84238 C 66.515 72.67627 65.83966 74.0036 65.39886 74.8217 C 64.95805 75.63979 64.21817 76.93758 63.73663 77.73874 C 63.2551 78.53992 62.44977 79.81358 61.92819 80.5961 C 61.4066 81.3786 60.53838 82.61775 59.97743 83.3786 C 59.4165 84.13945 58.48442 85.34259 57.88525 86.0798 C 57.28607 86.817 56.29549 87.98141 55.65898 88.69191 C 55.02248 89.4024 53.97043 90.51816 53.29774 91.2006 C 52.62506 91.88307 51.51736 92.95723 50.81065 93.61072 C 50.10394 94.2642 48.94374 95.28854 48.2042 95.91052 C 47.46465 96.5325 46.25179 97.50558 45.4805 98.09354 C 44.70921 98.68149 43.44644 99.59604 42.6452 100.1481 C 41.84396 100.70016 40.53464 101.55737 39.70567 102.07246 C 38.87671 102.58755 37.52527 103.38379 36.67055 103.86058 C 35.81584 104.33737 34.42395 105.07178 33.54547 105.50897 C 32.66699 105.94617 31.23915 106.6148 30.33907 107.01161 C 29.439 107.40842 27.97809 108.01538 27.05827 108.36893 C 26.13844 108.72246 24.64691 109.25021 23.70956 109.5597 C 22.7722 109.86917 21.25497 110.3336 20.30244 110.59952 C 19.34991 110.86543 17.80951 111.25513 16.84431 111.47627 C 15.87914 111.6974 14.3217 112.01753 13.34595 112.19342 C 12.3702 112.36931 10.79536 112.6155 9.81169 112.74403 C 8.828 112.87259 7.24536 113.0386 6.25621 113.11992 C 5.26707 113.20123 3.67442 113.29485 2.68259 113.33014 C 1.69073 113.36542 .09987 113.38576 -.89232 113.37425 C -1.88452 113.36275 -3.4773 113.30542 -4.46854 113.24709 C -5.45978 113.18875 -7.04985 113.05914 -8.03653 112.95383 C -9.02322 112.84851 -10.60016 112.64041 -11.57988 112.48798 C -12.55962 112.33554 -14.12708 112.05339 -15.09773 111.85518 C -16.06839 111.65695 -17.61656 111.3029 -18.57576 111.05931 C -19.53496 110.8157 -21.06558 110.38725 -22.01099 110.0995 C -22.95638 109.81174 -24.46053 109.31668 -25.38953 108.98529 C -26.31854 108.6539 -27.79633 108.08647 -28.70667 107.71103 C -29.617 107.33559 -31.06119 106.69666 -31.9507 106.27933 C -32.84023 105.86201 -34.25092 105.16045 -35.11775 104.70316 C -35.98457 104.24586 -37.3564 103.47946 -38.19827 102.9834 C -39.04015 102.48732 -40.36998 101.6613 -41.1854 101.12779 C -42.0008 100.59428 -43.28883 99.70874 -44.07518 99.13812 C -44.86153 98.56752 -46.09743 97.62053 -46.85294 97.01523 C -47.60844 96.40994 -48.79663 95.41295 -49.52039 94.77554 C -50.24416 94.13814 -51.37936 93.08925 -52.06934 92.42123 C -52.75931 91.75323 -53.83835 90.65796 -54.49327 89.96097 C -55.14821 89.26398 -56.17148 88.12204 -56.78963 87.39775 C -57.40778 86.67345 -58.36845 85.4897 -58.94843 84.74068 C -59.5284 83.99164 -60.42859 82.77126 -60.96967 81.99924 C -61.51076 81.22722 -62.3466 79.96886 -62.84819 79.1765 C -63.34978 78.38414 -64.12357 77.09845 -64.58482 76.28845 C -65.04608 75.47844 -65.75294 74.16444 -66.17267 73.33853 C -66.59239 72.51262 -67.23257 71.17616 -67.61 70.33585 C -67.98743 69.49554 -68.55823 68.13416 -68.89291 67.28214 C -69.2276 66.43013 -69.72964 65.0554 -70.02226 64.1951 C -70.3149 63.33481 -70.75165 61.94879 -71.00195 61.08171 C -71.25227 60.21463 -71.6191 58.81737 -71.82637 57.9458 C -72.03366 57.07422 -72.33206 55.67374 -72.49594 54.79994 C -72.65984 53.92615 -72.88673 52.52184 -73.00764 51.64804 C -73.12856 50.77425 -73.288 49.37305 -73.36751 48.5022 C -73.447 47.63133 -73.54248 46.23747 -73.58076 45.37148 C -73.61903 44.5055 -73.64647 43.12 -73.64346 42.26067 C -73.64047 41.40135 -73.6028 40.02818 -73.55913 39.17798 C -73.51546 38.32779 -73.41188 36.97208 -73.32858 36.1329 C -73.2453 35.29375 -73.08028 33.95587 -72.95876 33.1298 C -72.83723 32.30373 -72.61124 30.98975 -72.4527 30.17902 C -72.29416 29.3683 -72.01007 28.08032 -71.816 27.28665 C -71.6219 26.49297 -71.28342 25.23396 -71.05388 24.45871 C -70.82433 23.68346 -70.425 22.45396 -70.16154 21.69911 C -69.8981 20.94426 -69.44998 19.75095 -69.15503 19.01825 C -68.86006 18.28554 -68.36076 17.12744 -68.03561 16.41826 C -67.71045 15.70909 -67.16495 14.5911 -66.81154 13.90695 C -66.45811 13.2228 -65.86923 12.14531 -65.4884 11.48732 C -65.10756 10.82933 -64.47318 9.79538 -64.06665 9.1646 C -63.66011 8.5338 -62.98802 7.54327 -62.55838 6.94093 C -62.12874 6.33858 -61.42111 5.39622 -60.97011 4.82321 C -60.51912 4.25021 -59.77824 3.35411 -59.30786 2.81105 C -58.8375 2.26799 -58.06778 1.4212 -57.57988 .90918 C -57.09196 .39714 -56.29532 -.39864 -55.79134 -.87933 C -55.28734 -1.36003 -54.46521 -2.1064 -53.94742 -2.55542 C -53.42963 -3.00444 -52.58865 -3.69861 -52.0594 -4.11559 C -51.53014 -4.53255 -50.6717 -5.17578 -50.13286 -5.5607 C -49.59401 -5.9456 -48.72224 -6.53735 -48.17564 -6.88988 C -47.62904 -7.2424 -46.74603 -7.78119 -46.19331 -8.10141 C -45.64061 -8.42165 -44.74846 -8.90971 -44.19196 -9.1979 C -43.63547 -9.48608 -42.74051 -9.92209 -42.18239 -10.17847 C -41.62425 -10.43483 -40.72765 -10.82059 -40.16936 -11.0457 C -39.61105 -11.27081 -38.71481 -11.60667 -38.1585 -11.80092 C -37.60217 -11.99518 -36.71243 -12.28177 -36.15973 -12.44583 C -35.60701 -12.60991 -34.72244 -12.84883 -34.17482 -12.98349 C -33.6272 -13.11815 -32.75348 -13.31036 -32.21281 -13.41646 C -31.67216 -13.52255 -30.81009 -13.66972 -30.27808 -13.7482 C -29.74606 -13.82669 -28.90007 -13.93031 -28.37837 -13.98221 C -27.85669 -14.0341 -27.02849 -14.09589 -26.51802 -14.12236 C -26.00755 -14.14882 -25.19695 -14.17076 -24.6992 -14.17296 C -24.20146 -14.17517 -23.41408 -14.1591 -22.93056 -14.13835 C -22.44702 -14.1176 -21.68253 -14.06567 -21.21425 -14.0233 C -20.74597 -13.98093 -20.00752 -13.89563 -19.55545 -13.833 C -19.10338 -13.77034 -18.39084 -13.6531 -17.95593 -13.57173 C -17.52101 -13.49036 -16.83765 -13.345 -16.42085 -13.24646 C -16.00406 -13.14792 -15.35008 -12.97577 -14.95197 -12.86151 C -14.55383 -12.74725 -13.93008 -12.55128 -13.5514 -12.42291 C -13.17271 -12.29454 -12.58133 -12.07727 -12.22264 -11.9363 C -11.86395 -11.79533 -11.3046 -11.5587 -10.96613 -11.40688 C -10.62766 -11.25505 -10.1009 -11.00287 -9.78313 -10.84198 C -9.46536 -10.6811 -8.9729 -10.41582 -8.67584 -10.24724 C -8.37877 -10.07866 -7.91855 -9.80173 -7.64207 -9.62698 C -7.3656 -9.45224 -6.93878 -9.16676 -6.68314 -8.98769 C -6.42747 -8.80861 -6.03453 -8.51805 -5.79945 -8.33629 C -5.56439 -8.15451 -5.20366 -7.86044 -4.98888 -7.67754 C -4.77408 -7.49463 -4.44621 -7.20035 -4.2514 -7.01791 C -4.05661 -6.83546 -3.7604 -6.54337 -3.58487 -6.36261 C -3.40933 -6.18185 -3.14297 -5.89262 -2.98622 -5.71512 C -2.82948 -5.5376 -2.59375 -5.25606 -2.45506 -5.08318 C -2.31638 -4.91028 -2.10797 -4.63585 -1.98663 -4.46896 C -1.8653 -4.30208 -1.68526 -4.03967 -1.58047 -3.88028 C -1.47571 -3.72089 -1.32077 -3.47107 -1.23141 -3.32014 C -1.14206 -3.16922 -1.01126 -2.93372 -.93643 -2.79245 C -.8616 -2.65117 -.75362 -2.43279 -.69205 -2.30196 C -.63048 -2.17113 -.54208 -1.96881 -.49265 -1.84952 C -.4432 -1.73021 -.37404 -1.54865 -.33563 -1.44206 C -.29724 -1.33548 -.24455 -1.17464 -.21582 -1.08133 C -.18709 -.98802 -.14891 -.84898 -.12845 -.76947 C -.10799 -.68997 -.08188 -.57356 -.06833 -.50821 C -.05476 -.44286 -.03879 -.34895 -.0307 -.29843 C -.02261 -.24792 -.01395 -.179 -.00993 -.14401 C -.00592 -.10904 -.00308 -.06569 -.00171 -.04626 C -.00034 -.02684 -.00027 -.00772 0 -.00389 C .00027 -.00005 -.00021 -.00684 .00041 -.01859 C .00107 -.03033 .00223 -.06146 .00473 -.08865 C .00725 -.11583 .01277 -.17192 .01859 -.21452 C .0244 -.25713 .03609 -.33786 .04669 -.39577 C .0573 -.45366 .07828 -.55937 .09514 -.63193 C .112 -.70447 .14377 -.83223 .16824 -.91869 C .19272 -1.00516 .23827 -1.15541 .27162 -1.2552 C .30498 -1.35501 .36505 -1.52501 .40872 -1.638 C .45241 -1.751 .53111 -1.94426 .5865 -2.06969 C .64188 -2.1951 .73991 -2.40584 .80797 -2.542 C .876 -2.67818 .99504 -2.90486 1.07701 -3.0511 C 1.15898 -3.19734 1.30191 -3.44081 1.39882 -3.59612 C 1.49573 -3.75142 1.66267 -4.00735 1.77556 -4.17052 C 1.88843 -4.33368 2.08253 -4.60211 2.21242 -4.77219 C 2.34229 -4.94225 2.56401 -5.22092 2.71156 -5.39633 C 2.85913 -5.57175 3.11005 -5.85728 3.27603 -6.03648 C 3.44203 -6.21568 3.7229 -6.50612 3.90796 -6.6879 C 4.09303 -6.86966 4.40523 -7.16367 4.60997 -7.34663 C 4.81473 -7.5296 5.15892 -7.82413 5.38379 -8.0067 C 5.60866 -8.18925 5.98543 -8.48186 6.2307 -8.66243 C 6.47595 -8.843 6.88565 -9.13118 7.15157 -9.30821 C 7.41748 -9.48523 7.86052 -9.7666 8.14726 -9.9384 C 8.434 -10.11021 8.91072 -10.38153 9.21823 -10.54657 C 9.52574 -10.7116 10.0355 -10.9712 10.36359 -11.12788 C 10.69168 -11.28458 11.23431 -11.52931 11.58293 -11.67592 C 11.93153 -11.82253 12.50742 -12.04973 12.8762 -12.18457 C 13.245 -12.31941 13.85252 -12.5263 14.24088 -12.64783 C 14.62923 -12.76935 15.26767 -12.95383 15.67516 -13.06047 C 16.08266 -13.16711 16.75183 -13.32626 17.1778 -13.41646 C 17.60378 -13.50665 18.3017 -13.63838 18.74532 -13.71059 C 19.18892 -13.78278 19.91487 -13.8841 20.3751 -13.93678 C 20.83536 -13.98947 21.5865 -14.05853 22.06245 -14.09035 C 22.53842 -14.12215 23.31485 -14.15656 23.80557 -14.16603 C 24.2963 -14.1755 25.0952 -14.17284 25.59932 -14.15869 C 26.10342 -14.14453 26.92255 -14.10297 27.43889 -14.06395 C 27.95525 -14.02495 28.79372 -13.94258 29.32086 -13.87753 C 29.84802 -13.81248 30.70174 -13.68726 31.23831 -13.5951 C 31.77487 -13.50291 32.64388 -13.3333 33.18819 -13.21315 C 33.73251 -13.09302 34.61105 -12.87833 35.16142 -12.72914 C 35.71179 -12.57996 36.60011 -12.317 37.155 -12.13786 C 37.70988 -11.95872 38.60323 -11.64758 39.16069 -11.43802 C 39.71814 -11.22847 40.61456 -10.86803 41.17285 -10.62744 C 41.73114 -10.38686 42.627 -9.97614 43.18457 -9.70398 C 43.74216 -9.43182 44.63666 -8.97003 45.19156 -8.66588 C 45.74644 -8.36174 46.63385 -7.84818 47.18382 -7.51187 C 47.73378 -7.17555 48.61221 -6.61053 49.15533 -6.24194 C 49.69846 -5.87334 50.56401 -5.25623 51.0983 -4.85522 C 51.63258 -4.45424 52.48242 -3.78479 53.00623 -3.35173 C 53.53001 -2.91867 54.36223 -2.1989 54.87347 -1.73404 C 55.38474 -1.26918 56.69101 -.00128 56.69101 -.00128 Z "/>
<path transform="matrix(2.7777777,0,0,-2.7777777,245.99721,429.99995)" stroke-width=".3985" stroke-linecap="butt" stroke-miterlimit="10" stroke-linejoin="miter" fill="none" stroke="#000000" d="M -85.04042 0 L 84.58214 0 "/>
<path transform="matrix(2.7777777,0,0,-2.7777777,480.9476,429.99995)" stroke-width=".31879" stroke-linecap="round" stroke-linejoin="round" fill="none" stroke="#000000" d="M -1.19551 1.59401 C -1.09587 .99626 0 .09961 .29886 0 C 0 -.09961 -1.09587 -.99626 -1.19551 -1.59401 "/>
<symbol id="font_0_3">
<path d="M .305 .31300003 C .311 .33900003 .334 .43100003 .404 .43100003 C .409 .43100003 .433 .43100003 .454 .418 C .426 .41300003 .40600003 .388 .40600003 .36400003 C .40600003 .34800003 .417 .32900004 .444 .32900004 C .46600003 .32900004 .498 .34700004 .498 .38700003 C .498 .43900005 .439 .45300005 .405 .45300005 C .347 .45300005 .312 .40000005 .3 .37700004 C .275 .44300003 .221 .45300005 .19200002 .45300005 C .08800001 .45300005 .031000002 .32400004 .031000002 .29900003 C .031000002 .28900004 .041 .28900004 .043000007 .28900004 C .051000008 .28900004 .054000006 .291 .056 .3 C .09 .40600003 .156 .43100003 .19000001 .43100003 C .209 .43100003 .244 .42200003 .244 .36400003 C .244 .33300004 .22700002 .26600004 .19000001 .126 C .17400001 .064 .13900002 .022000002 .095000009 .022000002 C .08900001 .022000002 .06600001 .022000002 .045 .035 C .07000001 .040000004 .09200001 .061 .09200001 .089 C .09200001 .116000007 .07000001 .124000009 .055000009 .124000009 C .025 .124000009 0 .098000008 0 .06600001 C 0 .020000002 .050000006 0 .094000007 0 C .16000001 0 .19600001 .07000001 .19900002 .076000008 C .21100001 .039 .24700003 0 .307 0 C .41 0 .467 .12900001 .467 .15400002 C .467 .16400002 .458 .16400002 .455 .16400002 C .446 .16400002 .444 .16000001 .442 .15300001 C .409 .046 .341 .022000002 .30900003 .022000002 C .27 .022000002 .254 .054 .254 .08800001 C .254 .11000001 .26 .13200002 .271 .17600002 L .305 .31300003 Z "/>
</symbol>
<use xlink:href="#font_0_3" transform="matrix(27.673888,0,0,-27.673888,492.79975,436.2599)"/>
<path transform="matrix(2.7777777,0,0,-2.7777777,245.99721,429.99995)" stroke-width=".3985" stroke-linecap="butt" stroke-miterlimit="10" stroke-linejoin="miter" fill="none" stroke="#000000" d="M 0 -141.73404 L 0 141.27576 "/>
<path transform="matrix(0,-2.7777777,-2.7777777,-0,245.99721,37.567308)" stroke-width=".31879" stroke-linecap="round" stroke-linejoin="round" fill="none" stroke="#000000" d="M -1.19551 1.59401 C -1.09587 .99626 0 .09961 .29886 0 C 0 -.09961 -1.09587 -.99626 -1.19551 -1.59401 "/>
<symbol id="font_0_4">
<path d="M .45700003 .586 C .461 .6 .461 .602 .461 .609 C .461 .62700006 .447 .63600006 .432 .63600006 C .42200003 .63600006 .40600003 .63 .397 .615 C .395 .61 .387 .579 .38300003 .561 C .37600003 .535 .36900003 .508 .363 .48100005 L .318 .301 C .314 .286 .271 .21600002 .20500002 .21600002 C .15400002 .21600002 .143 .26000003 .143 .29700003 C .143 .34300003 .16000001 .40500004 .194 .49300004 C .21000001 .53400006 .21400002 .545 .21400002 .56500008 C .21400002 .61 .18200001 .6470001 .13200002 .6470001 C .037 .6470001 0 .50200006 0 .49300004 C 0 .48300005 .01 .48300005 .012 .48300005 C .022000002 .48300005 .023 .485 .028000003 .50100007 C .055000009 .595 .095000009 .625 .12900001 .625 C .13700001 .625 .15400002 .625 .15400002 .59300008 C .15400002 .568 .14400001 .54200008 .13700001 .523 C .097 .41700004 .079 .36 .079 .31300003 C .079 .224 .142 .194 .201 .194 C .24000003 .194 .274 .21100001 .30200003 .23900002 C .289 .187 .277 .13800001 .237 .08500001 C .21100001 .051 .17300001 .022 .127 .022 C .113000009 .022 .068 .025000006 .051000008 .06400001 C .067 .06400001 .080000009 .06400001 .094000007 .076000008 C .104 .08500001 .11400001 .098000008 .11400001 .117000009 C .11400001 .148 .087000008 .15200001 .07700001 .15200001 C .054000006 .15200001 .021 .136 .021 .087000008 C .021 .037 .065000008 0 .127 0 C .23 0 .333 .091000009 .361 .20400001 L .45700003 .586 Z "/>
</symbol>
<use xlink:href="#font_0_4" transform="matrix(27.673888,0,0,-27.673888,239.5192,26.814749)"/>
<symbol id="font_0_2">
<path d="M .059000009 .07000001 C .056 .055000005 .050000006 .032 .050000006 .027000003 C .050000006 .009000001 .064 0 .079 0 C .091000009 0 .10900001 .008000001 .11600001 .028 C .118 .032 .15200001 .16800002 .156 .18600002 C .164 .21900001 .18200001 .28900004 .18800001 .316 C .19200002 .32900004 .22000002 .37600003 .244 .39800004 C .252 .40500004 .281 .43100003 .324 .43100003 C .35 .43100003 .365 .41900004 .366 .41900004 C .336 .41400004 .314 .39000003 .314 .36400003 C .314 .34800003 .325 .32900004 .352 .32900004 C .379 .32900004 .407 .35200004 .407 .388 C .407 .42300005 .375 .45300005 .324 .45300005 C .259 .45300005 .21500002 .404 .19600001 .37600003 C .18800001 .42100004 .15200001 .45300005 .105000007 .45300005 C .059000009 .45300005 .040000008 .41400004 .031000002 .39600004 C .013000002 .36200003 0 .30200003 0 .29900003 C 0 .28900004 .01 .28900004 .012 .28900004 C .022000002 .28900004 .023 .29000003 .029000001 .31200005 C .046000005 .38300003 .06600001 .43100003 .10200001 .43100003 C .119 .43100003 .133 .42300005 .133 .38500003 C .133 .36400003 .13000001 .35300002 .11700001 .30100004 L .059000009 .07000001 Z "/>
</symbol>
<use xlink:href="#font_0_2" transform="matrix(27.673888,0,0,-27.673888,415.56364,137.17105)"/>
<symbol id="font_1_3">
<path d="M .63100007 .19400002 C .646 .19400002 .665 .19400002 .665 .214 C .665 .23400001 .646 .23400001 .632 .23400001 L .033 .23400001 C .019000002 .23400001 0 .23400001 0 .214 C 0 .19400002 .019000002 .19400002 .034 .19400002 L .63100007 .19400002 M .632 0 C .646 0 .665 0 .665 .02000001 C .665 .040000008 .646 .040000008 .63100007 .040000008 L .034 .040000008 C .019000002 .040000008 0 .040000008 0 .02000001 C 0 0 .019000002 0 .033 0 L .632 0 Z "/>
</symbol>
<symbol id="font_1_2">
<path d="M .07700001 .07700001 L .18300002 .18 C .33900003 .31800003 .39900003 .372 .39900003 .47200004 C .39900003 .586 .30900003 .666 .18700002 .666 C .074 .666 0 .574 0 .485 C 0 .42900003 .05 .42900003 .053000008 .42900003 C .07000001 .42900003 .105000007 .441 .105000007 .48200003 C .105000007 .508 .08700001 .53400006 .052000006 .53400006 C .044000005 .53400006 .042000008 .53400006 .039 .53300008 C .062000004 .59800007 .11600001 .63500007 .17400001 .63500007 C .26500003 .63500007 .308 .554 .308 .47200004 C .308 .39200003 .25800003 .31300003 .20300003 .25100003 L .011000004 .037 C 0 .026 0 .024 0 0 L .37100003 0 L .39900003 .17400001 L .374 .17400001 C .36900003 .14400001 .36200003 .1 .352 .085 C .345 .07700001 .279 .07700001 .257 .07700001 L .07700001 .07700001 Z "/>
</symbol>
<symbol id="font_1_1">
<path d="M .35300002 .31300003 L .632 .31300003 C .646 .31300003 .665 .31300003 .665 .333 C .665 .35300002 .646 .35300002 .632 .35300002 L .35300002 .35300002 L .35300002 .633 C .35300002 .647 .35300002 .666 .33300004 .666 C .31300003 .666 .31300003 .647 .31300003 .633 L .31300003 .35300002 L .033 .35300002 C .019000002 .35300002 0 .35300002 0 .333 C 0 .31300003 .019000002 .31300003 .033 .31300003 L .31300003 .31300003 L .31300003 .033000005 C .31300003 .019000002 .31300003 0 .33300004 0 C .35300002 0 .35300002 .019000002 .35300002 .033000005 L .35300002 .31300003 Z "/>
</symbol>
<symbol id="font_1_6">
<path d="M .17500001 .20500002 C .197 .20100002 .279 .18500002 .279 .113000009 C .279 .062000004 .24400002 .022000002 .16600001 .022000002 C .082 .022000002 .046000005 .079 .027000003 .16400002 C .024000004 .17700002 .023000002 .18100001 .013000004 .18100001 C 0 .18100001 0 .17400001 0 .15600002 L 0 .024 C 0 .0070000009 0 0 .011000004 0 C .016000003 0 .017 .0010000002 .036000007 .020000002 C .038000004 .022000002 .038000004 .024 .056 .043 C .1 .0010000002 .14500001 0 .16600001 0 C .28100003 0 .32700003 .067 .32700003 .13900002 C .32700003 .19200002 .29700003 .22200002 .28500004 .23400001 C .25200004 .26600004 .213 .27400003 .171 .28200004 C .115 .293 .048 .30600003 .048 .36400003 C .048 .39900003 .07400001 .44000004 .16 .44000004 C .27 .44000004 .27500005 .35000003 .277 .31900005 C .27800004 .31000004 .28700004 .31000004 .28900004 .31000004 C .30200003 .31000004 .30200003 .31500004 .30200003 .33400003 L .30200003 .43500004 C .30200003 .45200003 .30200003 .45900003 .291 .45900003 C .286 .45900003 .284 .45900003 .27100004 .44700004 C .26800005 .44300003 .25800003 .43400003 .254 .43100003 C .21600002 .45900003 .17500001 .45900003 .16 .45900003 C .038000004 .45900003 0 .39200003 0 .33600004 C 0 .30100004 .016000003 .27300004 .043000007 .25100003 C .075 .22500003 .10300001 .21900001 .17500001 .20500002 Z "/>
</symbol>
<symbol id="font_1_4">
<path d="M .144 .44200004 L .0040000008 .43100003 L .0040000008 .4 C .069000009 .4 .07800001 .39400003 .07800001 .34500004 L .07800001 .076000008 C .07800001 .031000002 .067 .031000002 0 .031000002 L 0 0 C .032000007 .001 .086 .003 .11000001 .003 C .14500001 .003 .18 .001 .21400002 0 L .21400002 .031000002 C .148 .031000002 .144 .036000004 .144 .075 L .144 .44200004 M .148 .61600008 C .148 .648 .123 .669 .095000009 .669 C .064 .669 .042000005 .642 .042000005 .61600008 C .042000005 .58900007 .064 .563 .095000009 .563 C .123 .563 .148 .58400008 .148 .61600008 Z "/>
</symbol>
<symbol id="font_1_5">
<path d="M .07800001 .344 L .07800001 .076000008 C .07800001 .031000002 .067 .031000002 0 .031000002 L 0 0 C .035 .001 .08600001 .003 .113000009 .003 C .139 .003 .191 .001 .225 0 L .225 .031000002 C .158 .031000002 .147 .031000002 .147 .076000008 L .147 .26000003 C .147 .36400003 .218 .42000003 .282 .42000003 C .345 .42000003 .356 .36600004 .356 .30900003 L .356 .076000008 C .356 .031000002 .345 .031000002 .278 .031000002 L .278 0 C .31300003 .001 .36400003 .003 .391 .003 C .41700004 .003 .46900005 .001 .503 0 L .503 .031000002 C .451 .031000002 .42600004 .031000002 .425 .061000006 L .425 .252 C .425 .33800004 .425 .36900003 .39400003 .40500004 C .38000003 .42200003 .347 .44200004 .289 .44200004 C .216 .44200004 .169 .39900003 .141 .337 L .141 .44200004 L 0 .43100003 L 0 .4 C .07000001 .4 .07800001 .393 .07800001 .344 Z "/>
</symbol>
<use xlink:href="#font_1_3" transform="matrix(27.673888,0,0,-27.673888,437.2497,133.186)"/>
<use xlink:href="#font_1_2" transform="matrix(27.673888,0,0,-27.673888,466.30729,136.86664)"/>
<use xlink:href="#font_1_1" transform="matrix(27.673888,0,0,-27.673888,486.45387,139.16358)"/>
<use xlink:href="#font_1_2" transform="matrix(27.673888,0,0,-27.673888,513.9617,136.86664)"/>
<use xlink:href="#font_1_6" transform="matrix(27.673888,0,0,-27.673888,531.9497,137.17105)"/>
<use xlink:href="#font_1_4" transform="matrix(27.673888,0,0,-27.673888,542.8532,136.86664)"/>
<use xlink:href="#font_1_5" transform="matrix(27.673888,0,0,-27.673888,550.5189,136.86664)"/>
<symbol id="font_0_1">
<path d="M .41300003 .511 C .41300003 .577 .395 .716 .293 .716 C .15400002 .716 0 .43400003 0 .20500002 C 0 .111 .029 0 .12 0 C .261 0 .41300003 .28700004 .41300003 .511 M .106 .374 C .123 .43800003 .143 .518 .183 .589 C .21000001 .638 .24700001 .694 .29200004 .694 C .34100003 .694 .34700004 .63 .34700004 .573 C .34700004 .524 .33900003 .47300003 .31500004 .374 L .106 .374 M .30600003 .34200005 C .29500003 .29600004 .27400003 .21100001 .23600003 .13900002 C .201 .071 .16300002 .022000002 .12 .022000002 C .087000008 .022000002 .066 .051000004 .066 .14400001 C .066 .18600002 .072000008 .24400002 .098 .34200005 L .30600003 .34200005 Z "/>
</symbol>
<use xlink:href="#font_0_1" transform="matrix(27.673888,0,0,-27.673888,570.7734,137.17105)"/>
<use xlink:href="#font_0_2" transform="matrix(27.673888,0,0,-27.673888,359.3442,779.7182)"/>
<use xlink:href="#font_1_3" transform="matrix(27.673888,0,0,-27.673888,381.03306,775.7332)"/>
<use xlink:href="#font_1_2" transform="matrix(27.673888,0,0,-27.673888,410.09065,779.4138)"/>
<symbol id="font_2_1">
<path d="M .57600006 0 C .59300008 0 .611 0 .611 .019999996 C .611 .040000008 .59300008 .040000008 .57600006 .040000008 L .035000005 .040000008 C .018 .040000008 0 .040000008 0 .019999996 C 0 0 .018 0 .035000005 0 L .57600006 0 Z "/>
</symbol>
<use xlink:href="#font_2_1" transform="matrix(27.673888,0,0,-27.673888,430.97749,773.0488)"/>
<use xlink:href="#font_1_2" transform="matrix(27.673888,0,0,-27.673888,457.73924,779.4138)"/>
<use xlink:href="#font_1_6" transform="matrix(27.673888,0,0,-27.673888,475.72724,779.7182)"/>
<use xlink:href="#font_1_4" transform="matrix(27.673888,0,0,-27.673888,486.63075,779.4138)"/>
<use xlink:href="#font_1_5" transform="matrix(27.673888,0,0,-27.673888,494.29643,779.4138)"/>
<use xlink:href="#font_0_1" transform="matrix(27.673888,0,0,-27.673888,514.5567,779.7182)"/>
</g>
</svg>
