<?xml version="1.0" encoding="UTF-8" standalone="no"?>
<!DOCTYPE svg PUBLIC "-//W3C//DTD SVG 1.1//EN" "http://www.w3.org/Graphics/SVG/1.1/DTD/svg11.dtd">
<svg xmlns="http://www.w3.org/2000/svg" xmlns:xlink="http://www.w3.org/1999/xlink" version="1.1" width="665.2916pt" height="648.34719pt" viewBox="0 0 665.2916 648.34719">
<g enable-background="new">
<path transform="matrix(2.7777777,0,0,-2.7777777,315.5139,332.8333)" stroke-width=".3985" stroke-linecap="butt" stroke-miterlimit="10" stroke-linejoin="miter" fill="none" stroke="#000000" d="M -113.38724 0 L 112.92896 0 "/>
<path transform="matrix(2.7777777,0,0,-2.7777777,629.20547,332.8333)" stroke-width=".31879" stroke-linecap="round" stroke-linejoin="round" fill="none" stroke="#000000" d="M -1.19551 1.59401 C -1.09587 .99626 0 .09961 .29886 0 C 0 -.09961 -1.09587 -.99626 -1.19551 -1.59401 "/>
<symbol id="font_0_3">
<path d="M .305 .31300003 C .311 .33900003 .334 .43100003 .404 .43100003 C .409 .43100003 .433 .43100003 .454 .418 C .426 .41300003 .40600003 .388 .40600003 .36400003 C .40600003 .34800003 .417 .32900004 .444 .32900004 C .46600003 .32900004 .498 .34700004 .498 .38700003 C .498 .43900005 .439 .45300005 .405 .45300005 C .347 .45300005 .312 .40000005 .3 .37700004 C .275 .44300003 .221 .45300005 .19200002 .45300005 C .08800001 .45300005 .031000002 .32400004 .031000002 .29900003 C .031000002 .28900004 .041 .28900004 .043000007 .28900004 C .051000008 .28900004 .054000006 .291 .056 .3 C .09 .40600003 .156 .43100003 .19000001 .43100003 C .209 .43100003 .244 .42200003 .244 .36400003 C .244 .33300004 .22700002 .26600004 .19000001 .126 C .17400001 .064 .13900002 .022000002 .095000009 .022000002 C .08900001 .022000002 .06600001 .022000002 .045 .035 C .07000001 .040000004 .09200001 .061 .09200001 .089 C .09200001 .116000007 .07000001 .124000009 .055000009 .124000009 C .025 .124000009 0 .098000008 0 .06600001 C 0 .020000002 .050000006 0 .094000007 0 C .16000001 0 .19600001 .07000001 .19900002 .076000008 C .21100001 .039 .24700003 0 .307 0 C .41 0 .467 .12900001 .467 .15400002 C .467 .16400002 .458 .16400002 .455 .16400002 C .446 .16400002 .444 .16000001 .442 .15300001 C .409 .046 .341 .022000002 .30900003 .022000002 C .27 .022000002 .254 .054 .254 .08800001 C .254 .11000001 .26 .13200002 .271 .17600002 L .305 .31300003 Z "/>
</symbol>
<use xlink:href="#font_0_3" transform="matrix(27.673888,0,0,-27.673888,641.0553,339.09605)"/>
<path transform="matrix(2.7777777,0,0,-2.7777777,315.5139,332.8333)" stroke-width=".3985" stroke-linecap="butt" stroke-miterlimit="10" stroke-linejoin="miter" fill="none" stroke="#000000" d="M 0 -113.38724 L 0 112.92896 "/>
<path transform="matrix(0,-2.7777777,-2.7777777,-0,315.5139,19.14177)" stroke-width=".31879" stroke-linecap="round" stroke-linejoin="round" fill="none" stroke="#000000" d="M -1.19551 1.59401 C -1.09587 .99626 0 .09961 .29886 0 C 0 -.09961 -1.09587 -.99626 -1.19551 -1.59401 "/>
<symbol id="font_0_4">
<path d="M .45700003 .586 C .461 .6 .461 .602 .461 .609 C .461 .62700006 .447 .63600006 .432 .63600006 C .42200003 .63600006 .40600003 .63 .397 .615 C .395 .61 .387 .579 .38300003 .561 C .37600003 .535 .36900003 .508 .363 .48100005 L .318 .301 C .314 .286 .271 .21600002 .20500002 .21600002 C .15400002 .21600002 .143 .26000003 .143 .29700003 C .143 .34300003 .16000001 .40500004 .194 .49300004 C .21000001 .53400006 .21400002 .545 .21400002 .56500008 C .21400002 .61 .18200001 .6470001 .13200002 .6470001 C .037 .6470001 0 .50200006 0 .49300004 C 0 .48300005 .01 .48300005 .012 .48300005 C .022000002 .48300005 .023 .485 .028000003 .50100007 C .055000009 .595 .095000009 .625 .12900001 .625 C .13700001 .625 .15400002 .625 .15400002 .59300008 C .15400002 .568 .14400001 .54200008 .13700001 .523 C .097 .41700004 .079 .36 .079 .31300003 C .079 .224 .142 .194 .201 .194 C .24000003 .194 .274 .21100001 .30200003 .23900002 C .289 .187 .277 .13800001 .237 .08500001 C .21100001 .051 .17300001 .022 .127 .022 C .113000009 .022 .068 .025000006 .051000008 .06400001 C .067 .06400001 .080000009 .06400001 .094000007 .076000008 C .104 .08500001 .11400001 .098000008 .11400001 .117000009 C .11400001 .148 .087000008 .15200001 .07700001 .15200001 C .054000006 .15200001 .021 .136 .021 .087000008 C .021 .037 .065000008 0 .127 0 C .23 0 .333 .091000009 .361 .20400001 L .45700003 .586 Z "/>
</symbol>
<use xlink:href="#font_0_4" transform="matrix(27.673888,0,0,-27.673888,326.09419,26.812003)"/>
<path transform="matrix(2.7777777,0,0,-2.7777777,315.5139,332.8333)" stroke-width=".79701" stroke-linecap="butt" stroke-miterlimit="10" stroke-linejoin="miter" fill="none" stroke="#000000" d="M 0 0 C 0 0 5.17189 .10008 7.14894 .22485 C 9.12598 .34964 12.2928 .651 14.24948 .89964 C 16.20615 1.14828 19.32889 1.64716 21.25145 2.01729 C 23.17401 2.38744 26.231 3.07979 28.10626 3.56754 C 29.98152 4.05527 32.95277 4.93237 34.76735 5.53296 C 36.58191 6.13356 39.44316 7.1892 41.18452 7.8964 C 42.92587 8.60358 45.66035 9.82321 47.31792 10.63 C 48.97548 11.4368 51.56943 12.81288 53.13121 13.71138 C 54.69301 14.60988 57.1188 16.12491 58.57425 17.10599 C 60.0297 18.08707 62.27994 19.72876 63.62112 20.78256 C 64.9623 21.83636 67.02309 23.58604 68.24065 24.70132 C 69.45819 25.8166 71.3095 27.65488 72.39644 28.82082 C 73.48338 29.98674 75.1244 31.89989 76.07477 33.10468 C 77.02513 34.30946 78.43672 36.27325 79.24614 37.50449 C 80.05556 38.73573 81.24387 40.73344 81.9088 41.9786 C 82.57373 43.22377 83.52234 45.23384 84.03865 46.47876 C 84.55498 47.72368 85.26242 49.7188 85.63037 50.95119 C 85.9983 52.18358 86.47134 54.15436 86.69098 55.36134 C 86.91061 56.56831 87.14145 58.48213 87.21344 59.65042 C 87.28543 60.81873 87.28172 62.66412 87.20998 63.78203 C 87.13821 64.89992 86.90903 66.65367 86.69615 67.70772 C 86.48326 68.76176 86.02483 70.40114 85.67537 71.37912 C 85.3259 72.35709 84.65543 73.86488 84.17706 74.7564 C 83.69868 75.64789 82.82755 77.01054 82.22719 77.80487 C 81.62683 78.59921 80.56384 79.7942 79.84996 80.48146 C 79.13608 81.1687 77.9012 82.1873 77.08168 82.75835 C 76.26218 83.32939 74.85825 84.15152 73.9432 84.59749 C 73.02817 85.04344 71.48444 85.65755 70.48634 85.97296 C 69.48824 86.28836 67.82004 86.69255 66.7492 86.87091 C 65.67838 87.04926 63.89975 87.22195 62.76817 87.25844 C 61.6366 87.29492 59.77264 87.24239 58.59328 87.1339 C 57.41391 87.02542 55.48253 86.73354 54.2679 86.47644 C 53.05325 86.21935 51.07565 85.68631 49.8387 85.2809 C 48.60175 84.87549 46.5985 84.1075 45.35242 83.5542 C 44.10634 83.00092 42.09999 81.99332 40.8575 81.29288 C 39.615 80.59242 37.62288 79.35037 36.39717 78.50563 C 35.17148 77.66087 33.21973 76.19012 32.02333 75.20448 C 30.82693 74.21884 28.92892 72.52243 27.77406 71.40161 C 26.6192 70.2808 24.80069 68.37563 23.69957 67.12639 C 22.59846 65.87715 20.87419 63.7681 19.8379 62.39792 C 18.80162 61.02773 17.19167 58.7335 16.23053 57.2507 C 15.26941 55.7679 13.78679 53.29745 12.91037 51.71074 C 12.03394 50.12402 10.69629 47.49377 9.91376 45.81438 C 9.13121 44.13498 7.9513 41.36761 7.27007 39.60661 C 6.58884 37.84563 5.57657 34.95311 5.00357 33.12201 C 4.43057 31.2909 3.5989 28.29677 3.14017 26.409 C 2.68144 24.52121 2.03719 21.44823 1.69727 19.51605 C 1.35735 17.58388 .90822 14.44637 .69028 12.483 C .47235 10.51964 .22012 7.34486 .1263 5.36514 C .03247 3.3854 -.01738 .19756 .0138 -1.78549 C .04498 -3.76857 .19513 -6.95386 .35115 -8.92757 C .50719 -10.90128 .85896 -14.06085 1.13838 -16.01077 C 1.41779 -17.96071 1.96512 -21.06975 2.36505 -22.98155 C 2.76498 -24.89336 3.50453 -27.92882 4.02086 -29.78973 C 4.53717 -31.65063 5.45891 -34.59647 6.08662 -36.3937 C 6.71434 -38.19095 7.81235 -41.02174 8.54521 -42.7434 C 9.27806 -44.46504 10.5382 -47.1676 11.36876 -48.80235 C 12.19934 -50.43712 13.61166 -52.9899 14.53151 -54.52573 C 15.45134 -56.06154 16.99866 -58.44406 17.9987 -59.87189 C 18.99875 -61.29971 20.66914 -63.50577 21.7393 -64.81667 C 22.80946 -66.12756 24.58281 -68.1346 25.71176 -69.32022 C 26.84073 -70.50586 28.69926 -72.30783 29.87619 -73.36188 C 31.05313 -74.41592 32.98221 -76.00204 34.19472 -76.91733 C 35.40723 -77.8326 37.37965 -79.186 38.6152 -79.95894 C 39.85077 -80.73186 41.85371 -81.8607 43.0998 -82.48842 C 44.34587 -83.11613 46.3532 -84.0037 47.59642 -84.48329 C 48.83963 -84.96288 50.83218 -85.61383 52.06026 -85.94528 C 53.28835 -86.27675 55.24884 -86.68994 56.44792 -86.8726 C 57.64699 -87.05528 59.54602 -87.2264 60.70235 -87.2619 C 61.85867 -87.29741 63.67975 -87.23666 64.78207 -87.12868 C 65.8844 -87.02068 67.61092 -86.73105 68.6472 -86.48332 C 69.68349 -86.23558 71.29308 -85.72456 72.2511 -85.34317 C 73.20914 -84.96178 74.68398 -84.24303 75.55225 -83.73413 C 76.42052 -83.22523 77.74121 -82.30557 78.5091 -81.67523 C 79.27698 -81.0449 80.42856 -79.93297 81.08698 -79.19075 C 81.7454 -78.44853 82.71457 -77.16937 83.2549 -76.32559 C 83.79524 -75.48183 84.56653 -74.04549 84.98155 -73.10928 C 85.39656 -72.17308 85.96378 -70.59537 86.24629 -69.57805 C 86.52881 -68.56073 86.87492 -66.86407 87.01794 -65.77689 C 87.16096 -64.6897 87.27747 -62.88693 87.27747 -61.74216 C 87.27747 -60.59738 87.16364 -58.71526 87.01794 -57.5258 C 86.87224 -56.33633 86.5206 -54.39091 86.22725 -53.16928 C 85.93391 -51.94765 85.3456 -49.96165 84.90372 -48.72105 C 84.46182 -47.48045 83.63283 -45.47415 83.04208 -44.22784 C 82.45132 -42.98152 81.38324 -40.97748 80.64581 -39.73808 C 79.9084 -38.4987 78.60779 -36.51472 77.72704 -35.29503 C 76.8463 -34.07535 75.31764 -32.13423 74.2979 -30.9472 C 73.27815 -29.76018 71.52986 -27.88164 70.37737 -26.73949 C 69.22488 -25.59732 67.2716 -23.80112 65.99141 -22.71515 C 64.71123 -21.62918 62.55042 -19.931 61.15044 -18.91223 C 59.75046 -17.89345 57.41063 -16.31335 55.9012 -15.37236 C 54.39175 -14.43135 51.88173 -12.9837 50.27122 -12.13008 C 48.66074 -11.27646 45.99406 -9.97778 44.29356 -9.21992 C 42.59308 -8.46208 39.79457 -7.32278 38.01485 -6.66794 C 36.23512 -6.0131 33.313 -5.04498 31.46626 -4.50008 C 29.61952 -3.95518 26.60504 -3.16997 24.70479 -2.74054 C 22.80453 -2.31111 19.71191 -1.71472 17.77037 -1.40483 C 15.82884 -1.09496 12.6802 -.69412 10.7113 -.50688 C 8.7424 -.31966 5.56148 -.11797 3.57964 -.05533 C 1.59778 .0073 -1.59085 .0073 -3.57271 -.05533 C -5.55455 -.11797 -8.73553 -.3199 -10.70444 -.50688 C -12.67334 -.69388 -15.82214 -1.0935 -17.76344 -1.40314 C -19.70474 -1.71277 -22.79567 -2.30936 -24.69615 -2.73878 C -26.59665 -3.16821 -29.61406 -3.95372 -31.46103 -4.49838 C -33.30801 -5.04303 -36.22844 -6.00989 -38.00792 -6.66447 C -39.7874 -7.31908 -42.58609 -8.45837 -44.28664 -9.21646 C -45.9872 -9.97456 -48.65363 -11.27469 -50.26436 -12.12831 C -51.8751 -12.98193 -54.38629 -14.42813 -55.89597 -15.36888 C -57.40564 -16.30965 -59.74529 -17.89005 -61.14526 -18.90883 C -62.54524 -19.9276 -64.70581 -21.62572 -65.98625 -22.71169 C -67.26668 -23.79765 -69.22116 -25.59386 -70.3739 -26.73602 C -71.52664 -27.87817 -73.27493 -29.75671 -74.29443 -30.94374 C -75.31393 -32.13077 -76.84113 -34.07219 -77.72186 -35.29163 C -78.60262 -36.51108 -79.90445 -38.49353 -80.64235 -39.73291 C -81.38026 -40.9723 -82.44957 -42.97781 -83.04031 -44.22437 C -83.63106 -45.47093 -84.45811 -47.47699 -84.90024 -48.71759 C -85.34238 -49.95819 -85.93367 -51.94443 -86.22725 -53.16582 C -86.52084 -54.38719 -86.8703 -56.3311 -87.01624 -57.52057 C -87.16217 -58.71004 -87.27881 -60.59367 -87.27924 -61.7387 C -87.27966 -62.88371 -87.16296 -64.68623 -87.0197 -65.77342 C -86.87643 -66.86061 -86.52856 -68.55751 -86.24629 -69.57458 C -85.96402 -70.59166 -85.39954 -72.16762 -84.98502 -73.10405 C -84.57048 -74.0405 -83.79865 -75.47964 -83.25832 -76.3239 C -82.71797 -77.16815 -81.74887 -78.44707 -81.09044 -79.18904 C -80.43202 -79.93102 -79.2802 -81.0412 -78.51256 -81.67177 C -77.74492 -82.30235 -76.42569 -83.22499 -75.55742 -83.73413 C -74.68913 -84.24327 -73.2126 -84.96027 -72.25456 -85.34146 C -71.29654 -85.72267 -69.68842 -86.23389 -68.65237 -86.48161 C -67.61632 -86.72934 -65.89005 -87.01898 -64.78723 -87.12697 C -63.68442 -87.23497 -61.86061 -87.29547 -60.70404 -87.2602 C -59.54749 -87.22493 -57.64996 -87.05504 -56.45139 -86.8726 C -55.25279 -86.69019 -53.29326 -86.2765 -52.06543 -85.94528 C -50.8376 -85.61407 -48.84486 -84.9641 -47.60164 -84.48499 C -46.35843 -84.00587 -44.35103 -83.11961 -43.10497 -82.49188 C -41.85889 -81.86417 -39.85623 -80.73357 -38.62044 -79.96063 C -37.38464 -79.1877 -35.41063 -77.83607 -34.19812 -76.92079 C -32.98561 -76.00551 -31.05836 -74.41739 -29.88142 -73.36359 C -28.70448 -72.30978 -26.84444 -70.51054 -25.71524 -69.3254 C -24.58603 -68.14024 -22.81293 -66.13274 -21.74277 -64.82184 C -20.67262 -63.51094 -19.00247 -61.30489 -18.00218 -59.87706 C -17.00189 -58.44923 -15.45311 -56.06671 -14.53326 -54.53088 C -13.61342 -52.99506 -12.2028 -50.44205 -11.37222 -48.80753 C -10.54166 -47.173 -9.27977 -44.47168 -8.5469 -42.75026 C -7.81406 -41.02885 -6.7178 -38.19788 -6.09009 -36.40065 C -5.46237 -34.60341 -4.53912 -31.65756 -4.02255 -29.79666 C -3.506 -27.93576 -2.7667 -24.90028 -2.36682 -22.98848 C -1.96695 -21.07669 -1.41956 -17.96739 -1.14014 -16.01772 C -.86073 -14.06802 -.5092 -10.90991 -.35292 -8.9362 C -.19664 -6.9625 -.04523 -3.77574 -.0138 -1.79243 C .01762 .19087 -.0327 3.37854 -.1263 5.35826 C -.21988 7.33798 -.47064 10.51271 -.68858 12.47607 C -.90651 14.43944 -1.35716 17.57677 -1.69727 19.50917 C -2.03737 21.44159 -2.68169 24.5158 -3.14017 26.40382 C -3.59866 28.29184 -4.4293 31.2859 -5.0018 33.11678 C -5.57431 34.94763 -6.58562 37.83868 -7.2666 39.59969 C -7.94759 41.36069 -9.1275 44.12958 -9.91028 45.8092 C -10.69307 47.48885 -12.03218 50.1191 -12.9086 51.70557 C -13.78502 53.29205 -15.26613 55.76073 -16.22707 57.24377 C -17.18802 58.72682 -18.79816 61.02377 -19.83444 62.39444 C -20.87073 63.76512 -22.595 65.87393 -23.6961 67.12292 C -24.79721 68.37192 -26.61598 70.27582 -27.7706 71.3964 C -28.92522 72.51695 -30.822 74.21344 -32.01816 75.19931 C -33.21431 76.1852 -35.16655 77.65741 -36.39201 78.50215 C -37.61748 79.34691 -39.60832 80.58702 -40.85057 81.2877 C -42.0928 81.9884 -44.09917 82.99841 -45.34549 83.55244 C -46.59181 84.10646 -48.59634 84.87573 -49.83354 85.2809 C -51.07074 85.68607 -53.04784 86.21613 -54.26273 86.47298 C -55.4776 86.72983 -57.4102 87.02293 -58.58981 87.13214 C -59.76942 87.24135 -61.63313 87.2962 -62.76471 87.2602 C -63.89629 87.2242 -65.6751 87.05096 -66.74574 86.8726 C -67.81638 86.69426 -69.48306 86.29031 -70.48117 85.97466 C -71.47926 85.65901 -73.0247 85.04344 -73.93974 84.59749 C -74.85478 84.15152 -76.257 83.33061 -77.07652 82.76006 C -77.89603 82.18948 -79.13237 81.17216 -79.8465 80.48492 C -80.56062 79.79767 -81.62312 78.60097 -82.22372 77.80664 C -82.82433 77.0123 -83.69691 75.65143 -84.1753 74.75986 C -84.65367 73.86829 -85.32219 72.35855 -85.67189 71.38081 C -86.0216 70.40309 -86.48277 68.76651 -86.69615 67.71295 C -86.90952 66.6594 -87.13821 64.90508 -87.20998 63.78719 C -87.28172 62.6693 -87.28543 60.82414 -87.21344 59.6556 C -87.14145 58.48705 -86.91061 56.57178 -86.69098 55.3648 C -86.47134 54.15784 -85.99814 52.18881 -85.63037 50.95642 C -85.2626 49.72401 -84.55669 47.72739 -84.04036 46.48222 C -83.52403 45.23706 -82.57349 43.22725 -81.9088 41.98209 C -81.24411 40.73692 -80.05847 38.73895 -79.24954 37.50795 C -78.44061 36.27696 -77.02884 34.31468 -76.07823 33.1099 C -75.12762 31.90512 -73.48538 29.99045 -72.3982 28.82428 C -71.31102 27.65811 -69.45941 25.82007 -68.24234 24.70479 C -67.02527 23.58951 -64.96722 21.83983 -63.6263 20.78603 C -62.28535 19.73222 -60.0334 18.09053 -58.57771 17.10945 C -57.12204 16.12837 -54.69623 14.61336 -53.13467 13.71486 C -51.57314 12.81636 -48.98041 11.44052 -47.32309 10.63347 C -45.66576 9.82643 -42.9308 8.60529 -41.1897 7.89809 C -39.44858 7.19089 -36.58861 6.13702 -34.77428 5.53644 C -32.95995 4.93584 -29.9882 4.05728 -28.11319 3.56929 C -26.23817 3.08131 -23.18265 2.38919 -21.26009 2.01906 C -19.33752 1.64893 -16.21333 1.15024 -14.25641 .90135 C -12.29948 .65247 -9.13316 .34988 -7.15587 .22485 C -5.17857 .09984 -.00516 0 -.00516 0 "/>
<symbol id="font_1_1">
<path d="M .421 .34200005 C .421 .42200003 .416 .50200006 .381 .57600006 C .335 .67200008 .25300003 .688 .211 .688 C .15100001 .688 .07800001 .66200008 .037000006 .56900009 C .0050000029 .5 0 .42200003 0 .34200005 C 0 .26700003 .0040000008 .177 .045000007 .101 C .088 .020000002 .161 0 .21000001 0 C .264 0 .34 .021000002 .384 .116000007 C .416 .185 .421 .263 .421 .34200005 M .21000001 .022000002 C .171 .022000002 .112 .047000003 .094 .143 C .083000008 .20300001 .083000008 .29500003 .083000008 .35400004 C .083000008 .41800005 .083000008 .48400004 .091000009 .53800007 C .11 .65700009 .185 .66600009 .21000001 .66600009 C .243 .66600009 .30900003 .64800009 .328 .549 C .338 .49300004 .338 .41700004 .338 .35400004 C .338 .279 .338 .21100001 .32700003 .147 C .312 .052 .255 .022000002 .21000001 .022000002 Z "/>
</symbol>
<use xlink:href="#font_1_1" transform="matrix(27.673888,0,0,-27.673888,592.057,317.656)"/>
<symbol id="font_0_1">
<path d="M .23800002 .38400004 L .351 .38400004 C .31800003 .23600002 .30900003 .19300002 .30900003 .126 C .30900003 .111 .30900003 .08400001 .317 .05 C .327 .0060000007 .338 0 .35300002 0 C .373 0 .39400003 .018000002 .39400003 .038000004 C .39400003 .044 .39400003 .046 .388 .060000004 C .359 .13200002 .359 .19700001 .359 .22500003 C .359 .27800004 .366 .33200003 .377 .38400004 L .491 .38400004 C .504 .38400004 .54 .38400004 .54 .418 C .54 .44200004 .519 .44200004 .5 .44200004 L .165 .44200004 C .143 .44200004 .105 .44200004 .061000006 .395 C .026000003 .35600005 0 .31000004 0 .305 C 0 .30400003 0 .29500003 .012 .29500003 C .020000002 .29500003 .022000002 .29900003 .028000003 .307 C .077 .38400004 .135 .38400004 .15500002 .38400004 L .21200001 .38400004 C .18000002 .263 .12600002 .14200002 .08400001 .051000004 C .076000008 .036000004 .076000008 .034 .076000008 .027000003 C .076000008 .008000001 .092 0 .105 0 C .135 0 .143 .028 .15500002 .065000008 C .16900002 .111 .16900002 .113000009 .18200001 .16300002 L .23800002 .38400004 Z "/>
</symbol>
<symbol id="font_0_2">
<path d="M .384 .962 C .38900004 .975 .38900004 .97900006 .38900004 .98 C .38900004 .99100008 .38000003 1 .36900003 1 C .36200003 1 .35500003 .99700006 .352 .99100008 L .004999999 .037999989 C 0 .024999991 0 .020999983 0 .019999996 C 0 .008999988 .009 0 .02 0 C .033000005 0 .036000004 .0069999846 .042 .023999989 L .384 .962 Z "/>
</symbol>
<use xlink:href="#font_0_1" transform="matrix(27.673888,0,0,-27.673888,318.7416,57.67386)"/>
<use xlink:href="#font_0_2" transform="matrix(27.673888,0,0,-27.673888,336.28684,64.28792)"/>
<symbol id="font_1_2">
<path d="M .07700001 .07700001 L .18300002 .18 C .33900003 .31800003 .39900003 .372 .39900003 .47200004 C .39900003 .586 .30900003 .666 .18700002 .666 C .074 .666 0 .574 0 .485 C 0 .42900003 .05 .42900003 .053000008 .42900003 C .07000001 .42900003 .105000007 .441 .105000007 .48200003 C .105000007 .508 .08700001 .53400006 .052000006 .53400006 C .044000005 .53400006 .042000008 .53400006 .039 .53300008 C .062000004 .59800007 .11600001 .63500007 .17400001 .63500007 C .26500003 .63500007 .308 .554 .308 .47200004 C .308 .39200003 .25800003 .31300003 .20300003 .25100003 L .011000004 .037 C 0 .026 0 .024 0 0 L .37100003 0 L .39900003 .17400001 L .374 .17400001 C .36900003 .14400001 .36200003 .1 .352 .085 C .345 .07700001 .279 .07700001 .257 .07700001 L .07700001 .07700001 Z "/>
</symbol>
<use xlink:href="#font_1_2" transform="matrix(27.673888,0,0,-27.673888,349.98368,57.369447)"/>
<use xlink:href="#font_0_1" transform="matrix(27.673888,0,0,-27.673888,25.49718,314.39326)"/>
<symbol id="font_1_3">
<path d="M .24800003 .37400005 C .33 .40100003 .388 .47100006 .388 .55 C .388 .632 .3 .688 .204 .688 C .10300001 .688 .027000003 .628 .027000003 .55200007 C .027000003 .519 .049000004 .5 .078 .5 C .109000008 .5 .12900001 .522 .12900001 .55100008 C .12900001 .6010001 .082 .6010001 .067 .6010001 C .098 .65000006 .164 .66300007 .20000002 .66300007 C .24100003 .66300007 .29600004 .64100006 .29600004 .55100008 C .29600004 .53900006 .29400004 .48100005 .268 .43700005 C .238 .38900004 .204 .38600005 .17900002 .38500003 C .171 .38400004 .14700002 .38200004 .14000002 .38200004 C .132 .38100005 .125 .38000003 .125 .37000004 C .125 .35900004 .132 .35900004 .14900002 .35900004 L .19300002 .35900004 C .275 .35900004 .312 .29100005 .312 .193 C .312 .057000005 .24300003 .028 .199 .028 C .15600002 .028 .081 .045 .046000005 .104 C .081 .09900001 .11200001 .12100001 .11200001 .15900001 C .11200001 .19500001 .085 .215 .056 .215 C .031999999 .215 0 .201 0 .157 C 0 .06600001 .093 0 .20200002 0 C .32400004 0 .41500003 .091000009 .41500003 .193 C .41500003 .27500005 .35200004 .35300005 .24800003 .37400005 Z "/>
</symbol>
<use xlink:href="#font_1_3" transform="matrix(27.673888,0,0,-27.673888,214.1734,614.1643)"/>
<use xlink:href="#font_0_1" transform="matrix(27.673888,0,0,-27.673888,227.59719,613.85989)"/>
<use xlink:href="#font_0_2" transform="matrix(27.673888,0,0,-27.673888,245.14243,620.47396)"/>
<use xlink:href="#font_1_2" transform="matrix(27.673888,0,0,-27.673888,258.83647,613.5555)"/>
</g>
</svg>
