<?xml version="1.0" encoding="UTF-8" standalone="no"?>
<!DOCTYPE svg PUBLIC "-//W3C//DTD SVG 1.1//EN" "http://www.w3.org/Graphics/SVG/1.1/DTD/svg11.dtd">
<svg xmlns="http://www.w3.org/2000/svg" xmlns:xlink="http://www.w3.org/1999/xlink" version="1.1" width="658.8416pt" height="509.29167pt" viewBox="0 0 658.8416 509.29167">
<g enable-background="new">
<path transform="matrix(2.7777777,0,0,-2.7777777,403.47776,272.51667)" d="M 0 0 C 0 0 .00276 0 .00389 0 C .005 0 .00616 -.00003 .0082 0 C .01024 .00003 .0156 .0003 .01859 .00041 C .02158 .00052 .026 .00067 .02983 .00084 C .03366 .001 .04123 .00142 .04626 .00171 C .0513 .002 .0603 .00261 .06616 .00302 C .07204 .00343 .08182 .0042 .08865 .00473 C .09547 .00526 .10779 .0062 .11546 .00691 C .12314 .00763 .1352 .00897 .14401 .00993 C .15283 .0109 .16928 .01263 .17906 .01382 C .18883 .01501 .2038 .01715 .21452 .01859 C .22525 .02002 .24486 .02254 .25648 .02422 C .26811 .02588 .28607 .02878 .29843 .0307 C .31079 .03262 .33208 .03584 .34558 .03804 C .35909 .04025 .38136 .04413 .39577 .04669 C .41016 .04926 .43379 .05365 .44939 .05666 C .465 .05965 .49184 .06497 .50821 .06833 C .52458 .07169 .55031 .07716 .56747 .08087 C .58463 .08458 .61398 .091 .63193 .09514 C .64986 .09927 .67784 .10611 .69681 .1107 C .71576 .11531 .74875 .12341 .7686 .12845 C .78845 .13348 .81917 .14153 .83998 .14703 C .8608 .15256 .8968 .16214 .91869 .16824 C .94058 .17436 .9753 .18457 .99785 .19118 C 1.02042 .19777 1.05786 .20868 1.08133 .21582 C 1.10478 .22295 1.14275 .2349 1.16698 .24263 C 1.19121 .25037 1.23087 .26329 1.25607 .27162 C 1.28128 .27995 1.32285 .29388 1.34863 .30275 C 1.37444 .31163 1.4155 .32611 1.44206 .33563 C 1.46864 .34517 1.51295 .36133 1.54025 .37154 C 1.56757 .38173 1.61055 .39832 1.63887 .40916 C 1.66719 .42003 1.71518 .43825 1.7444 .44981 C 1.77362 .46138 1.81975 .48035 1.84952 .49265 C 1.87927 .50494 1.9284 .52548 1.95895 .5385 C 1.98949 .5515 2.0383 .57271 2.06969 .5865 C 2.10106 .60028 2.15306 .6234 2.18517 .63797 C 2.21727 .65256 2.26845 .67632 2.30109 .6916 C 2.33372 .7069 2.38718 .73215 2.42047 .74828 C 2.45377 .7644 2.50723 .79105 2.54114 .80797 C 2.57504 .82487 2.62999 .85243 2.66486 .87024 C 2.6997 .88806 2.75716 .91779 2.79245 .93643 C 2.82773 .9551 2.88318 .98521 2.91919 1.00476 C 2.95518 1.02432 3.0153 1.05698 3.05197 1.07744 C 3.08864 1.0979 3.14627 1.13092 3.18347 1.15227 C 3.22067 1.17363 3.28224 1.20909 3.32014 1.23141 C 3.35806 1.25372 3.41855 1.28996 3.45683 1.31317 C 3.49512 1.33638 3.55722 1.37465 3.59612 1.39882 C 3.635 1.42299 3.6977 1.46227 3.7371 1.48747 C 3.77654 1.51268 3.84032 1.55426 3.88028 1.58047 C 3.92024 1.6067 3.98488 1.64938 4.02519 1.6765 C 4.0655 1.70361 4.13002 1.74777 4.17094 1.77599 C 4.21187 1.80418 4.27896 1.85063 4.32018 1.87979 C 4.3614 1.90895 4.42639 1.95589 4.4681 1.98619 C 4.5098 2.0165 4.5786 2.06685 4.62079 2.09824 C 4.66296 2.12961 4.72969 2.18002 4.77219 2.21242 C 4.81467 2.24481 4.884 2.29826 4.92703 2.33179 C 4.97005 2.36533 5.03903 2.41959 5.0823 2.4542 C 5.12556 2.48882 5.19525 2.54555 5.23888 2.58136 C 5.28252 2.61719 5.35295 2.6756 5.39676 2.71243 C 5.44055 2.74927 5.51054 2.80904 5.55464 2.84694 C 5.59874 2.88486 5.67033 2.94673 5.71468 2.9858 C 5.75902 3.02487 5.82957 3.08821 5.87428 3.12852 C 5.91899 3.16884 5.9921 3.235 6.03691 3.27646 C 6.08173 3.31792 6.15227 3.3847 6.19739 3.42741 C 6.24251 3.47014 6.31682 3.54056 6.36218 3.58443 C 6.40755 3.62828 6.4791 3.69867 6.5244 3.7436 C 6.5697 3.78854 6.64316 3.86208 6.68875 3.90839 C 6.73436 3.95471 6.80751 4.03001 6.85312 4.07753 C 6.89873 4.12505 6.97182 4.20224 7.01749 4.25096 C 7.06316 4.29968 7.13661 4.37888 7.18227 4.42874 C 7.22794 4.4786 7.30078 4.55922 7.34663 4.6104 C 7.39249 4.66159 7.46695 4.7453 7.51274 4.79768 C 7.55852 4.85008 7.63089 4.93437 7.67667 4.98802 C 7.72246 5.04167 7.79698 5.12947 7.84277 5.18439 C 7.88855 5.23929 7.96109 5.32768 8.0067 5.38379 C 8.05229 5.4399 8.12589 5.53133 8.1715 5.5888 C 8.2171 5.64629 8.28987 5.73936 8.33542 5.79816 C 8.38097 5.85696 8.45442 5.95264 8.49979 6.0127 C 8.54515 6.07275 8.61737 6.16992 8.66243 6.23112 C 8.70749 6.29233 8.77956 6.3913 8.82462 6.45389 C 8.86967 6.51648 8.94243 6.61836 8.98726 6.68227 C 9.03209 6.74617 9.10309 6.84924 9.14774 6.91454 C 9.19238 6.97983 9.26471 7.08638 9.30907 7.15288 C 9.35341 7.21936 9.4234 7.32611 9.46738 7.3938 C 9.51135 7.46147 9.58232 7.57164 9.62611 7.64076 C 9.6699 7.70988 9.73975 7.82162 9.78313 7.89207 C 9.82652 7.96251 9.89583 8.07686 9.93884 8.14857 C 9.98187 8.22028 10.0506 8.33598 10.09326 8.40895 C 10.13591 8.48192 10.20413 8.60023 10.24638 8.67453 C 10.28864 8.74883 10.35606 8.86894 10.39777 8.94444 C 10.43947 9.01993 10.50565 9.1418 10.54698 9.21867 C 10.58833 9.29555 10.65492 9.42033 10.69579 9.49852 C 10.73665 9.5767 10.80118 9.7027 10.84155 9.78227 C 10.88193 9.86183 10.94716 9.99135 10.9869 10.07207 C 11.02661 10.15277 11.08878 10.28212 11.12788 10.36403 C 11.167 10.44594 11.2302 10.57913 11.2689 10.66248 C 11.3076 10.74583 11.3689 10.88028 11.40688 10.96483 C 11.44485 11.04938 11.50537 11.18605 11.5427 11.27193 C 11.58 11.3578 11.63919 11.49658 11.67592 11.58377 C 11.71265 11.67097 11.77129 11.81183 11.8074 11.9004 C 11.84352 11.98898 11.90108 12.13257 11.9363 12.22221 C 11.97153 12.31186 12.02686 12.45583 12.06131 12.54662 C 12.09575 12.63739 12.1508 12.78441 12.18457 12.87665 C 12.21835 12.96887 12.27182 13.11794 12.30482 13.21143 C 12.33783 13.30492 12.3903 13.45584 12.42247 13.55054 C 12.45464 13.64523 12.50536 13.79808 12.53667 13.89398 C 12.56798 13.98987 12.61784 14.1447 12.64827 14.24174 C 12.67868 14.33878 12.72638 14.49503 12.75595 14.59338 C 12.78554 14.69174 12.83282 14.8511 12.86151 14.95067 C 12.8902 15.05023 12.93507 15.21033 12.96272 15.31097 C 12.99037 15.4116 13.03421 15.57413 13.06091 15.67603 C 13.0876 15.77792 13.12952 15.94225 13.1552 16.04541 C 13.18086 16.14857 13.22124 16.3152 13.24602 16.41956 C 13.2708 16.52393 13.31013 16.69228 13.33383 16.7976 C 13.35753 16.90292 13.39432 17.07233 13.41689 17.17867 C 13.43944 17.285 13.47498 17.45645 13.49646 17.56406 C 13.51794 17.67166 13.55133 17.84534 13.57173 17.9542 C 13.59213 18.06306 13.62427 18.23874 13.64352 18.34868 C 13.66278 18.45862 13.69252 18.63571 13.71059 18.74661 C 13.72864 18.85751 13.7568 19.03609 13.77373 19.14801 C 13.79065 19.25993 13.81683 19.44029 13.83255 19.5533 C 13.84827 19.66629 13.87259 19.84846 13.88704 19.96248 C 13.9015 20.0765 13.92358 20.26009 13.93678 20.3751 C 13.94998 20.49014 13.97021 20.67542 13.98221 20.79164 C 13.9942 20.90788 14.01263 21.0958 14.0233 21.21294 C 14.03397 21.3301 14.04991 21.51793 14.05919 21.63597 C 14.06848 21.75401 14.08237 21.94463 14.09035 22.06375 C 14.09833 22.18288 14.11008 22.37454 14.11673 22.49455 C 14.1234 22.61458 14.13307 22.80797 14.13835 22.92882 C 14.14363 23.04967 14.15097 23.24387 14.1548 23.36569 C 14.15863 23.48752 14.16365 23.68416 14.16603 23.80688 C 14.16841 23.92961 14.17114 24.12668 14.1721 24.25023 C 14.17305 24.3738 14.17343 24.57301 14.17296 24.69748 C 14.17249 24.82193 14.17061 25.02202 14.16862 25.14732 C 14.16666 25.27261 14.16222 25.47458 14.15869 25.60062 C 14.15517 25.72664 14.14813 25.92871 14.14311 26.05563 C 14.13808 26.18256 14.12889 26.38768 14.12236 26.51544 C 14.11581 26.64319 14.10406 26.8482 14.09596 26.97652 C 14.08786 27.10481 14.07367 27.311 14.06395 27.4402 C 14.05423 27.5694 14.03725 27.77785 14.0259 27.90778 C 14.01456 28.03769 13.9951 28.24625 13.98221 28.37665 C 13.96931 28.50705 13.94742 28.71655 13.93289 28.84767 C 13.91838 28.97879 13.89372 29.18977 13.87753 29.32173 C 13.86134 29.4537 13.83405 29.66632 13.81612 29.79881 C 13.79817 29.93132 13.76778 30.1438 13.7482 30.27678 C 13.72864 30.40977 13.69633 30.62375 13.6751 30.75734 C 13.65387 30.89091 13.61806 31.10547 13.5951 31.23961 C 13.57213 31.37373 13.53416 31.58934 13.50945 31.72406 C 13.48473 31.85878 13.44345 32.07527 13.41689 32.21066 C 13.3903 32.34605 13.34608 32.56418 13.31783 32.69986 C 13.28957 32.83554 13.24309 33.0527 13.21315 33.18863 C 13.18323 33.32455 13.1338 33.54295 13.102 33.67955 C 13.07019 33.81615 13.01756 34.03621 12.98392 34.17308 C 12.95026 34.30997 12.89474 34.52893 12.85934 34.66617 C 12.82394 34.80342 12.76598 35.02457 12.72871 35.1623 C 12.69145 35.30002 12.62984 35.52089 12.59073 35.65884 C 12.5516 35.7968 12.48769 36.01843 12.4467 36.1567 C 12.40572 36.29495 12.33821 36.51678 12.2953 36.65541 C 12.25241 36.79404 12.18214 37.01718 12.13744 37.15587 C 12.09273 37.29456 12.0197 37.51614 11.97307 37.65501 C 11.92645 37.79388 11.84988 38.01755 11.80135 38.15675 C 11.7528 38.29597 11.67361 38.5191 11.62315 38.65851 C 11.57268 38.7979 11.4899 39.02202 11.43758 39.16153 C 11.38525 39.30106 11.30022 39.52475 11.24597 39.66415 C 11.19174 39.80356 11.1028 40.02663 11.04657 40.16632 C 10.99034 40.30603 10.8989 40.53134 10.84068 40.67111 C 10.78249 40.81087 10.68713 41.03395 10.62701 41.17372 C 10.5669 41.31348 10.46944 41.53877 10.40729 41.67848 C 10.34512 41.81819 10.24306 42.04108 10.17891 42.18066 C 10.11475 42.32025 10.01091 42.54504 9.9449 42.68457 C 9.87889 42.82408 9.77115 43.04697 9.70311 43.18631 C 9.63507 43.32565 9.52432 43.5497 9.4544 43.68892 C 9.38449 43.82813 9.27115 44.05077 9.1992 44.1898 C 9.12724 44.32884 9.00984 44.55188 8.93579 44.6911 C 8.86174 44.83032 8.74155 45.05441 8.66545 45.19328 C 8.58937 45.33215 8.46535 45.55356 8.38733 45.692 C 8.30931 45.83044 8.1832 46.05301 8.10315 46.19115 C 8.0231 46.32928 7.89236 46.54997 7.81033 46.6877 C 7.7283 46.82542 7.59587 47.04633 7.51187 47.18382 C 7.42786 47.3213 7.29094 47.5414 7.20477 47.67863 C 7.1186 47.81589 6.97884 48.03621 6.89075 48.17303 C 6.80264 48.30988 6.65987 48.52855 6.5698 48.66484 C 6.47974 48.80113 6.33362 49.01953 6.24152 49.15533 C 6.1494 49.29114 6.00008 49.50827 5.90585 49.64366 C 5.81163 49.77905 5.65869 49.99611 5.56242 50.13113 C 5.46617 50.26616 5.3103 50.48257 5.21207 50.61688 C 5.11383 50.75119 4.95457 50.96545 4.85437 51.09917 C 4.75415 51.23286 4.59193 51.44771 4.48973 51.58058 C 4.38753 51.71344 4.22188 51.92455 4.11775 52.0568 C 4.01364 52.18906 3.84555 52.40216 3.73927 52.53387 C 3.633 52.6656 3.46004 52.87517 3.35173 53.00623 C 3.24341 53.13728 3.06879 53.3482 2.95854 53.47855 C 2.8483 53.60889 2.66956 53.81624 2.55714 53.9457 C 2.44475 54.07513 2.26271 54.2827 2.14839 54.41153 C 2.03407 54.54037 1.84941 54.74658 1.73317 54.87434 C 1.61693 55.0021 1.42868 55.20555 1.31058 55.33241 C 1.19246 55.45927 1.00214 55.66264 .88194 55.78873 C .76173 55.91481 .5665 56.11586 .4442 56.24117 C .3219 56.36649 .00041 56.69188 .00041 56.69188 Z " fill="#e0e0e0"/>
<path transform="matrix(2.7777777,0,0,-2.7777777,403.47776,272.51667)" d="M 0 -56.69362 C 0 -56.69362 .32123 -56.36734 .44334 -56.24203 C .56546 -56.11673 .76012 -55.91643 .8802 -55.79047 C 1.00029 -55.6645 1.19063 -55.46112 1.30885 -55.33415 C 1.42708 -55.20717 1.61589 -55.0031 1.7323 -54.87521 C 1.84872 -54.74733 2.03365 -54.54124 2.14796 -54.4124 C 2.26228 -54.28357 2.44406 -54.076 2.55627 -53.94655 C 2.6685 -53.81711 2.84651 -53.6097 2.9568 -53.47942 C 3.0671 -53.34914 3.24297 -53.13846 3.35129 -53.0075 C 3.4596 -52.87656 3.6314 -52.66728 3.73755 -52.53561 C 3.8437 -52.40395 4.01208 -52.19102 4.11644 -52.05853 C 4.22081 -51.92603 4.38742 -51.71368 4.48973 -51.58058 C 4.59204 -51.44746 4.75377 -51.23274 4.85393 -51.09917 C 4.95407 -50.96558 5.11346 -50.75182 5.21164 -50.61775 C 5.30981 -50.48367 5.46542 -50.2677 5.56155 -50.13286 C 5.6577 -49.99802 5.81033 -49.78127 5.90456 -49.64583 C 5.99878 -49.51038 6.14842 -49.29272 6.24065 -49.15662 C 6.33289 -49.02052 6.47925 -48.8012 6.56938 -48.66484 C 6.65952 -48.52849 6.80229 -48.3105 6.89032 -48.1739 C 6.97835 -48.03732 7.1178 -47.81737 7.2039 -47.68037 C 7.29001 -47.54338 7.42694 -47.3239 7.511 -47.18642 C 7.59506 -47.04893 7.72786 -46.82722 7.80989 -46.68944 C 7.89192 -46.55164 8.02223 -46.33157 8.10228 -46.19331 C 8.18234 -46.05505 8.30888 -45.83162 8.38689 -45.69287 C 8.4649 -45.55412 8.58856 -45.33203 8.66458 -45.19328 C 8.74062 -45.05453 8.86081 -44.83188 8.93492 -44.69284 C 9.00903 -44.5538 9.12675 -44.33025 9.19878 -44.1911 C 9.27078 -44.05194 9.38405 -43.82906 9.45396 -43.68977 C 9.52388 -43.55049 9.63469 -43.3265 9.70267 -43.18716 C 9.77066 -43.04784 9.87802 -42.82483 9.94403 -42.68542 C 10.01004 -42.54602 10.1143 -42.32184 10.17847 -42.18239 C 10.24261 -42.04292 10.34431 -41.81998 10.40642 -41.68022 C 10.46852 -41.54045 10.56596 -41.31502 10.62614 -41.175 C 10.68633 -41.035 10.78204 -40.81075 10.84026 -40.67111 C 10.89845 -40.53146 10.98953 -40.30789 11.0457 -40.16849 C 11.10188 -40.02908 11.19081 -39.80591 11.2451 -39.66632 C 11.29941 -39.52673 11.38477 -39.30205 11.43715 -39.1624 C 11.48955 -39.02275 11.57224 -38.79907 11.62271 -38.65979 C 11.67319 -38.52051 11.75238 -38.29753 11.80092 -38.1585 C 11.84946 -38.01945 11.92595 -37.7966 11.97263 -37.65761 C 12.01932 -37.51862 12.09273 -37.29553 12.13744 -37.15672 C 12.18214 -37.01791 12.25204 -36.7956 12.29488 -36.65715 C 12.33772 -36.5187 12.40527 -36.29713 12.44626 -36.15887 C 12.48724 -36.02061 12.5512 -35.79866 12.5903 -35.66058 C 12.62941 -35.5225 12.69095 -35.30139 12.72827 -35.1636 C 12.7656 -35.0258 12.82394 -34.80476 12.85934 -34.66747 C 12.89474 -34.53017 12.94989 -34.3107 12.98349 -34.17395 C 13.01707 -34.03719 13.06976 -33.81813 13.10156 -33.68172 C 13.13336 -33.54532 13.18272 -33.32701 13.21272 -33.1908 C 13.2427 -33.05457 13.28957 -32.83566 13.31783 -32.69986 C 13.34608 -32.56406 13.38992 -32.34721 13.41646 -32.21194 C 13.44298 -32.07669 13.4843 -31.8597 13.50902 -31.72491 C 13.53374 -31.59013 13.57169 -31.37454 13.59465 -31.24046 C 13.61761 -31.1064 13.65338 -30.89215 13.67467 -30.75862 C 13.69597 -30.6251 13.72864 -30.41112 13.7482 -30.27808 C 13.76778 -30.14503 13.7978 -29.93219 13.81569 -29.79968 C 13.83356 -29.66719 13.86092 -29.45488 13.8771 -29.32303 C 13.8933 -29.19118 13.9179 -28.98065 13.93246 -28.84941 C 13.94705 -28.71817 13.96925 -28.50772 13.98221 -28.37708 C 13.99516 -28.24643 14.01456 -28.03752 14.0259 -27.90778 C 14.03725 -27.77802 14.05423 -27.57094 14.06395 -27.44193 C 14.07367 -27.3129 14.08786 -27.10619 14.09596 -26.97781 C 14.10406 -26.84946 14.11581 -26.64442 14.12236 -26.51672 C 14.12889 -26.38904 14.13808 -26.1843 14.14311 -26.05737 C 14.14813 -25.93045 14.15521 -25.72804 14.15869 -25.6019 C 14.16217 -25.47575 14.16623 -25.27353 14.16821 -25.14816 C 14.17018 -25.02281 14.17244 -24.82274 14.17296 -24.69835 C 14.1735 -24.57394 14.17305 -24.37515 14.1721 -24.25153 C 14.17114 -24.1279 14.16841 -23.92998 14.16603 -23.80731 C 14.16365 -23.68465 14.15863 -23.48924 14.1548 -23.36743 C 14.15097 -23.2456 14.14363 -23.05017 14.13835 -22.92926 C 14.13307 -22.80833 14.1234 -22.61581 14.11673 -22.49585 C 14.11008 -22.37589 14.09833 -22.18373 14.09035 -22.06462 C 14.08237 -21.9455 14.06848 -21.75537 14.05919 -21.63727 C 14.04991 -21.51917 14.0339 -21.33046 14.0233 -21.21338 C 14.0127 -21.0963 13.99457 -20.9094 13.98264 -20.79338 C 13.9707 -20.67737 13.95049 -20.49239 13.93723 -20.37729 C 13.92397 -20.26219 13.9015 -20.07791 13.88704 -19.96378 C 13.87259 -19.84964 13.84865 -19.6676 13.833 -19.5546 C 13.81732 -19.4416 13.79108 -19.26128 13.77415 -19.1493 C 13.75723 -19.03732 13.72913 -18.85844 13.71101 -18.74748 C 13.69289 -18.63652 13.66284 -18.45943 13.64352 -18.34953 C 13.6242 -18.23965 13.59213 -18.06424 13.57173 -17.9555 C 13.55133 -17.84677 13.51794 -17.67345 13.49646 -17.56578 C 13.47498 -17.45813 13.43944 -17.286 13.41689 -17.17953 C 13.39432 -17.07307 13.35747 -16.90385 13.33383 -16.79846 C 13.3102 -16.69308 13.27118 -16.5243 13.24646 -16.42 C 13.22174 -16.3157 13.18137 -16.14987 13.15564 -16.0467 C 13.1299 -15.94356 13.0876 -15.77835 13.06091 -15.67645 C 13.03421 -15.57455 12.9908 -15.41296 12.96315 -15.31226 C 12.93549 -15.21156 12.89018 -15.0503 12.86151 -14.95067 C 12.83284 -14.85104 12.78592 -14.69249 12.7564 -14.59425 C 12.72688 -14.49602 12.67917 -14.33975 12.6487 -14.24258 C 12.61821 -14.14543 12.56804 -13.98999 12.53667 -13.89398 C 12.5053 -13.79796 12.45464 -13.64517 12.42247 -13.55054 C 12.3903 -13.4559 12.33777 -13.30518 12.30482 -13.21187 C 12.27188 -13.11856 12.21873 -12.97005 12.18501 -12.87794 C 12.1513 -12.78583 12.09625 -12.63882 12.06174 -12.54791 C 12.02724 -12.45702 11.97159 -12.31235 11.9363 -12.22264 C 11.90102 -12.13293 11.8434 -11.98967 11.8074 -11.90128 C 11.77141 -11.81287 11.71344 -11.67265 11.67679 -11.58551 C 11.64014 -11.49837 11.58057 -11.35916 11.54312 -11.27322 C 11.50569 -11.18729 11.44492 -11.0508 11.40688 -10.96613 C 11.36884 -10.88145 11.30754 -10.7464 11.2689 -10.66292 C 11.23026 -10.57944 11.16743 -10.44643 11.12833 -10.36446 C 11.08922 -10.28249 11.02661 -10.15271 10.9869 -10.07207 C 10.94716 -9.99141 10.88231 -9.86258 10.84198 -9.78313 C 10.80165 -9.70369 10.73708 -9.57758 10.69621 -9.49939 C 10.65535 -9.4212 10.58882 -9.29654 10.54742 -9.21954 C 10.50603 -9.14253 10.43947 -9.01999 10.39777 -8.94444 C 10.35606 -8.86888 10.289 -8.7492 10.24681 -8.67497 C 10.20462 -8.60074 10.13629 -8.48236 10.09369 -8.4094 C 10.0511 -8.33643 9.9828 -8.2207 9.93971 -8.149 C 9.89664 -8.07729 9.82658 -7.96289 9.78313 -7.89252 C 9.73969 -7.82213 9.67029 -7.7107 9.62656 -7.64163 C 9.58282 -7.57257 9.51186 -7.46246 9.46782 -7.39465 C 9.42378 -7.32686 9.35341 -7.21942 9.30907 -7.15288 C 9.26471 -7.08632 9.19275 -6.98015 9.14816 -6.91498 C 9.10358 -6.84981 9.03246 -6.74698 8.98769 -6.68314 C 8.94292 -6.61928 8.87048 -6.5174 8.82549 -6.45476 C 8.78049 -6.3921 8.70842 -6.29282 8.6633 -6.23155 C 8.61818 -6.17029 8.5456 -6.07307 8.50023 -6.01314 C 8.45486 -5.95319 8.38171 -5.85814 8.33629 -5.79945 C 8.29086 -5.74078 8.21846 -5.64764 8.17279 -5.5901 C 8.12712 -5.53258 8.05292 -5.44089 8.00713 -5.38466 C 7.96135 -5.32843 7.88855 -5.23979 7.84277 -5.18483 C 7.79698 -5.12985 7.72289 -5.04216 7.6771 -4.98845 C 7.63132 -4.93474 7.55846 -4.85008 7.51274 -4.79768 C 7.46701 -4.7453 7.39323 -4.66197 7.3475 -4.61084 C 7.30177 -4.55972 7.22893 -4.47911 7.18314 -4.42918 C 7.13734 -4.37926 7.06328 -4.29968 7.01749 -4.25096 C 6.9717 -4.20224 6.89873 -4.12541 6.85312 -4.07796 C 6.80751 -4.03049 6.7343 -3.9551 6.68875 -3.90883 C 6.6432 -3.86258 6.57011 -3.78946 6.52481 -3.74446 C 6.47952 -3.69946 6.40755 -3.62834 6.36218 -3.58443 C 6.31682 -3.5405 6.24283 -3.47044 6.19783 -3.42784 C 6.15283 -3.38524 6.0826 -3.31879 6.03778 -3.27733 C 5.99297 -3.23587 5.91948 -3.16934 5.87473 -3.12897 C 5.82997 -3.0886 5.75952 -3.02536 5.71512 -2.98622 C 5.67072 -2.9471 5.5988 -2.88492 5.55464 -2.84694 C 5.51048 -2.80898 5.44044 -2.7492 5.39676 -2.71243 C 5.35306 -2.67566 5.28326 -2.61751 5.23975 -2.5818 C 5.19624 -2.5461 5.12643 -2.48969 5.08318 -2.45506 C 5.0399 -2.42046 4.97104 -2.36589 4.9279 -2.33223 C 4.88475 -2.29858 4.81467 -2.24481 4.77219 -2.21242 C 4.72969 -2.18002 4.66371 -2.12997 4.62166 -2.09866 C 4.57959 -2.06734 4.51079 -2.017 4.46896 -1.98663 C 4.42714 -1.95627 4.36153 -1.90901 4.32018 -1.87979 C 4.27884 -1.85057 4.21175 -1.80412 4.17094 -1.77599 C 4.13014 -1.74783 4.06638 -1.70406 4.02605 -1.67694 C 3.98573 -1.64981 3.9203 -1.6067 3.88028 -1.58047 C 3.84026 -1.55426 3.77686 -1.51306 3.73755 -1.48792 C 3.69826 -1.46277 3.63593 -1.42348 3.59698 -1.39925 C 3.55803 -1.37502 3.49512 -1.33638 3.45683 -1.31317 C 3.41855 -1.28996 3.35883 -1.2541 3.32101 -1.23186 C 3.2832 -1.2096 3.22165 -1.17412 3.18434 -1.1527 C 3.14702 -1.13127 3.08864 -1.0979 3.05197 -1.07744 C 3.0153 -1.05698 2.95605 -1.02477 2.92004 -1.0052 C 2.88405 -.98566 2.82785 -.95515 2.79245 -.93643 C 2.75703 -.91772 2.69958 -.88806 2.66486 -.87024 C 2.63011 -.85243 2.57591 -.82487 2.542 -.80797 C 2.5081 -.79105 2.45377 -.76434 2.42047 -.74828 C 2.38718 -.73221 2.3346 -.70734 2.30196 -.69205 C 2.26932 -.67676 2.21727 -.65256 2.18517 -.63797 C 2.15306 -.6234 2.1018 -.60066 2.07054 -.58694 C 2.03929 -.57321 1.9906 -.552 1.95982 -.53894 C 1.92903 -.52586 1.87854 -.50494 1.84866 -.49265 C 1.81877 -.48035 1.7735 -.46182 1.7444 -.45026 C 1.7153 -.43869 1.66707 -.42009 1.63887 -.40916 C 1.61067 -.39825 1.56842 -.38173 1.54112 -.37154 C 1.51382 -.36133 1.46877 -.34517 1.44206 -.33563 C 1.41537 -.32611 1.37444 -.31163 1.34863 -.30275 C 1.32285 -.29388 1.28122 -.27989 1.25607 -.27162 C 1.23093 -.26335 1.19164 -.25081 1.1674 -.24307 C 1.14317 -.23534 1.10497 -.223 1.08133 -.21582 C 1.05768 -.20862 1.01955 -.19777 .99698 -.19118 C .97443 -.18457 .94035 -.1743 .91869 -.16824 C .89703 -.1622 .86153 -.153 .84085 -.14748 C .82016 -.14197 .78932 -.13354 .76947 -.12845 C .74962 -.12335 .71675 -.11531 .69768 -.1107 C .67859 -.10611 .64998 -.09927 .63193 -.09514 C .61386 -.091 .58473 -.08458 .56747 -.08087 C .5502 -.07716 .5236 -.07162 .50735 -.06833 C .4911 -.06503 .4656 -.06001 .45026 -.05708 C .4349 -.05414 .41103 -.04976 .39662 -.04713 C .38223 -.04451 .36006 -.04031 .34645 -.03804 C .33282 -.03578 .31104 -.03262 .29843 -.0307 C .28583 -.02878 .26724 -.02588 .25562 -.02422 C .24399 -.02254 .22513 -.02002 .21452 -.01859 C .20392 -.01715 .18883 -.01501 .17906 -.01382 C .16928 -.01263 .15271 -.01083 .14401 -.00993 C .13531 -.00903 .12413 -.00806 .11633 -.00734 C .10854 -.00662 .09473 -.00533 .08778 -.00473 C .08084 -.00414 .07191 -.00343 .06616 -.00302 C .06042 -.00261 .0513 -.002 .04626 -.00171 C .04123 -.00142 .03366 -.001 .02983 -.00084 C .026 -.00067 .02158 -.00052 .01859 -.00041 C .0156 -.0003 .01024 -.00003 .0082 0 C .00616 .00003 .00496 0 .00389 0 C .0028 0 .00041 0 .00041 0 Z " fill="#e0e0e0"/>
<path transform="matrix(2.7777777,0,0,-2.7777777,403.47776,272.51667)" stroke-width=".79701" stroke-linecap="butt" stroke-miterlimit="10" stroke-linejoin="miter" fill="none" stroke="#ff0000" d="M 0 0 C 0 0 .01382 -.00009 .02983 .00084 C .04584 .0018 .08403 .00368 .11546 .00691 C .14691 .01015 .21016 .01732 .25648 .02422 C .3028 .0311 .3883 .04466 .44939 .05666 C .51047 .06865 .62071 .09206 .69681 .1107 C .77289 .12936 .90741 .16454 .99785 .19118 C 1.08829 .2178 1.24518 .26688 1.34863 .30275 C 1.4521 .33864 1.62761 .40332 1.74355 .44981 C 1.8595 .49632 2.05649 .57965 2.18431 .63797 C 2.31212 .6963 2.52611 .79884 2.66486 .87024 C 2.8036 .94165 3.0355 1.067 3.18434 1.1527 C 3.33316 1.23839 3.5801 1.3871 3.73755 1.48792 C 3.89502 1.58873 4.15428 1.76228 4.31932 1.87936 C 4.48434 1.99646 4.7557 2.1976 4.92703 2.33179 C 5.09836 2.46599 5.37788 2.69446 5.5542 2.84651 C 5.73051 2.99858 6.01761 3.25705 6.19783 3.42784 C 6.37804 3.59863 6.67068 3.88747 6.85312 4.07753 C 7.03555 4.26758 7.32976 4.58795 7.51274 4.79768 C 7.69571 5.00743 7.98979 5.3594 8.17192 5.58925 C 8.35405 5.81908 8.64575 6.20393 8.82549 6.45432 C 9.00522 6.70468 9.29149 7.1226 9.46738 7.3938 C 9.64326 7.66498 9.92276 8.11682 10.09326 8.40895 C 10.26375 8.70108 10.5331 9.18668 10.69621 9.49939 C 10.85933 9.8121 11.11473 10.32979 11.2689 10.66292 C 11.42307 10.99605 11.66374 11.54688 11.8074 11.9004 C 11.95107 12.25394 12.17273 12.83725 12.3044 13.211 C 12.43607 13.58475 12.63835 14.201 12.7564 14.59425 C 12.87444 14.98752 13.05252 15.63324 13.1552 16.04541 C 13.25786 16.45758 13.41064 17.13445 13.49646 17.56493 C 13.58228 17.99539 13.70628 18.70013 13.77373 19.14801 C 13.84119 19.59589 13.93506 20.32858 13.98264 20.79295 C 14.03021 21.25732 14.09045 22.01524 14.11673 22.49498 C 14.14302 22.97473 14.16844 23.75645 14.1721 24.25066 C 14.17575 24.74486 14.16339 25.54959 14.14311 26.05695 C 14.12283 26.5643 14.07126 27.38817 14.0259 27.90735 C 13.98053 28.42653 13.88782 29.26915 13.81612 29.79881 C 13.7444 30.32849 13.60815 31.1863 13.50902 31.72491 C 13.40988 32.26353 13.22903 33.13492 13.10156 33.68086 C 12.97409 34.22679 12.74693 35.10808 12.5903 35.65971 C 12.43367 36.21135 12.15921 37.10101 11.97263 37.65674 C 11.78606 38.21246 11.46277 39.10689 11.24553 39.66501 C 11.0283 40.22313 10.65536 41.12103 10.40686 41.67935 C 10.15836 42.23766 9.7346 43.13217 9.4544 43.68892 C 9.17421 44.24565 8.69952 45.13832 8.38733 45.692 C 8.07515 46.24568 7.54869 47.13106 7.20433 47.6795 C 6.85997 48.22797 6.2822 49.10347 5.90543 49.64497 C 5.52866 50.18646 4.89786 51.05042 4.48886 51.58229 C 4.07986 52.11418 3.39877 52.9581 2.95767 53.47855 C 2.51657 53.999 1.78249 54.82593 1.30971 55.33328 C .83693 55.84062 .05421 56.64313 -.44981 57.13522 C -.95387 57.62733 -1.7877 58.4046 -2.32315 58.88008 C -2.85858 59.35558 -3.74332 60.10608 -4.30893 60.56223 C -4.87456 61.01837 -5.80478 61.733 -6.39981 62.1678 C -6.99484 62.60258 -7.97389 63.28392 -8.59755 63.69597 C -9.2212 64.10802 -10.24342 64.75023 -10.89474 65.13762 C -11.54608 65.525 -12.6139 66.12689 -13.29187 66.48799 C -13.96983 66.84908 -15.07802 67.40736 -15.78114 67.74019 C -16.48425 68.07303 -17.63261 68.58444 -18.3595 68.88684 C -19.08638 69.18924 -20.27083 69.64897 -21.02002 69.91974 C -21.76923 70.19052 -22.98915 70.60046 -23.75931 70.83846 C -24.52945 71.07646 -25.78156 71.43152 -26.5708 71.6352 C -27.36005 71.83887 -28.64067 72.13829 -29.4476 72.3065 C -30.25455 72.47472 -31.56433 72.71695 -32.3867 72.8476 C -33.20906 72.97824 -34.53894 73.1559 -35.37468 73.24812 C -36.21042 73.34036 -37.56241 73.4589 -38.41022 73.5124 C -39.25804 73.56593 -40.62791 73.62033 -41.48514 73.63396 C -42.34236 73.64757 -43.72368 73.63779 -44.5886 73.6106 C -45.4535 73.58342 -46.84875 73.50702 -47.71889 73.43802 C -48.589 73.36902 -49.9873 73.22432 -50.85995 73.11317 C -51.73262 73.00203 -53.13492 72.79071 -54.0084 72.63696 C -54.8819 72.48322 -56.28314 72.20126 -57.15555 72.00502 C -58.02797 71.80878 -59.42734 71.46117 -60.2962 71.22255 C -61.16507 70.98395 -62.55533 70.5667 -63.41785 70.28525 C -64.28035 70.0038 -65.6589 69.51869 -66.51265 69.19395 C -67.3664 68.86923 -68.72855 68.31236 -69.57114 67.94478 C -70.41371 67.5772 -71.75545 66.9536 -72.58548 66.54466 C -73.41553 66.13573 -74.73808 65.44775 -75.55356 64.99747 C -76.36902 64.54718 -77.66524 63.79059 -78.46281 63.29933 C -79.26039 62.80806 -80.5253 61.98837 -81.30199 61.45671 C -82.07866 60.92505 -83.30672 60.0386 -84.06071 59.46747 C -84.81471 58.89633 -86.00574 57.94884 -86.7364 57.34024 C -87.46707 56.73164 -88.62195 55.72636 -89.32686 55.0811 C -90.03178 54.43585 -91.14076 53.37074 -91.81699 52.68959 C -92.49323 52.00844 -93.5557 50.88716 -94.20071 50.1718 C -94.84573 49.45644 -95.85342 48.28188 -96.46591 47.53375 C -97.0784 46.78563 -98.0364 45.5588 -98.61517 44.77977 C -99.19395 44.00075 -100.094 42.72687 -100.6373 41.91898 C -101.1806 41.11108 -102.02379 39.79198 -102.53094 38.95694 C -103.03812 38.12192 -103.82541 36.76152 -104.29268 35.90063 C -104.75995 35.03975 -105.4726 33.63667 -105.8987 32.7522 C -106.32478 31.86772 -106.97824 30.43143 -107.36371 29.5259 C -107.74916 28.62036 -108.33391 27.15007 -108.67688 26.22563 C -109.01985 25.30118 -109.53542 23.80415 -109.83565 22.86308 C -110.1359 21.92203 -110.58606 20.39879 -110.84087 19.44301 C -111.09569 18.48723 -111.46379 16.94261 -111.67221 15.97447 C -111.88063 15.00633 -112.17996 13.44308 -112.34308 12.4653 C -112.5062 11.4875 -112.73071 9.91226 -112.84785 8.92714 C -112.96498 7.94202 -113.11617 6.35541 -113.1874 5.36519 C -113.2586 4.37495 -113.33714 2.78258 -113.36127 1.79025 C -113.38539 .79793 -113.38539 -.79448 -113.36127 -1.7868 C -113.33714 -2.77913 -113.2586 -4.37175 -113.1874 -5.36172 C -113.11617 -6.35172 -112.96498 -7.93683 -112.84785 -8.92194 C -112.73071 -9.90706 -112.50583 -11.4838 -112.34308 -12.46182 C -112.18033 -13.43987 -111.88359 -15.00288 -111.6748 -15.97102 C -111.46602 -16.93916 -111.09343 -18.48354 -110.83827 -19.43954 C -110.5831 -20.39554 -110.13553 -21.92004 -109.83565 -22.86134 C -109.53578 -23.80266 -109.01985 -25.29968 -108.67688 -26.22389 C -108.33391 -27.1481 -107.74916 -28.6169 -107.36371 -29.52243 C -106.97824 -30.42796 -106.32478 -31.86598 -105.8987 -32.75047 C -105.4726 -33.63495 -104.75958 -35.03648 -104.29268 -35.89719 C -103.82578 -36.75789 -103.04036 -38.11884 -102.53355 -38.95392 C -102.02675 -39.78902 -101.18355 -41.10788 -100.63991 -41.91595 C -100.09625 -42.72403 -99.19402 -43.99902 -98.61517 -44.77805 C -98.03635 -45.55707 -97.0802 -46.78278 -96.46806 -47.53073 C -95.85593 -48.27867 -94.84862 -49.45341 -94.2033 -50.16878 C -93.55797 -50.88412 -92.49329 -52.00542 -91.81699 -52.68657 C -91.1407 -53.36772 -90.03357 -54.43275 -89.32903 -55.07808 C -88.62447 -55.7234 -87.46928 -56.72894 -86.73898 -57.33766 C -86.00868 -57.94638 -84.81923 -58.89394 -84.06548 -59.46532 C -83.3117 -60.0367 -82.08336 -60.92418 -81.30632 -61.45584 C -80.52927 -61.9875 -79.26254 -62.80609 -78.46497 -63.29716 C -77.6674 -63.78825 -76.37305 -64.54474 -75.55788 -64.9953 C -74.74272 -65.44588 -73.4199 -66.1355 -72.5898 -66.54466 C -71.7597 -66.95383 -70.41766 -67.57701 -69.57503 -67.94435 C -68.73238 -68.31169 -67.37029 -68.86743 -66.51654 -69.19223 C -65.6628 -69.51701 -64.2842 -70.00374 -63.42174 -70.28525 C -62.55928 -70.56676 -61.1694 -70.98265 -60.30054 -71.22127 C -59.43167 -71.45987 -58.03192 -71.8086 -57.15944 -72.00502 C -56.28697 -72.20145 -54.8861 -72.48332 -54.0123 -72.63696 C -53.1385 -72.79059 -51.73465 -73.00124 -50.8617 -73.1123 C -49.98874 -73.22339 -48.59048 -73.36865 -47.7206 -73.43759 C -46.85071 -73.50653 -45.45705 -73.58229 -44.59206 -73.6093 C -43.72708 -73.63629 -42.34366 -73.6456 -41.48643 -73.63222 C -40.62921 -73.61884 -39.26126 -73.56612 -38.4137 -73.51283 C -37.56612 -73.45955 -36.21368 -73.34048 -35.3777 -73.24812 C -34.54172 -73.15578 -33.21056 -72.97763 -32.38843 -72.84717 C -31.56631 -72.7167 -30.25912 -72.4757 -29.45236 -72.30779 C -28.64561 -72.1399 -27.3633 -71.84055 -26.57382 -71.63693 C -25.78436 -71.43332 -24.53253 -71.07838 -23.76233 -70.8402 C -22.99211 -70.602 -21.77206 -70.19121 -21.02263 -69.92018 C -20.27318 -69.64917 -19.08774 -69.18918 -18.3608 -68.88684 C -17.63385 -68.5845 -16.48624 -68.07364 -15.7833 -67.74106 C -15.08035 -67.40846 -13.97227 -66.8507 -13.29448 -66.48972 C -12.61668 -66.12875 -11.54948 -65.52672 -10.89821 -65.13934 C -10.24695 -64.75197 -9.2244 -64.10974 -8.60057 -63.6977 C -7.97675 -63.28564 -6.9972 -62.60432 -6.402 -62.16953 C -5.80678 -61.73474 -4.87628 -61.02011 -4.31067 -60.56396 C -3.74504 -60.1078 -2.86075 -59.3573 -2.3253 -58.88182 C -1.78986 -58.40633 -.95566 -57.62906 -.45155 -57.13696 C .05255 -56.64487 .83533 -55.84222 1.30798 -55.33499 C 1.78064 -54.82777 2.51382 -54.00182 2.9551 -53.48114 C 3.39636 -52.96048 4.07927 -52.11432 4.48843 -51.58229 C 4.8976 -51.05028 5.52748 -50.18794 5.90413 -49.64668 C 6.28076 -49.10544 6.85875 -48.22958 7.20303 -47.68124 C 7.54733 -47.1329 8.07335 -46.24817 8.3856 -45.6946 C 8.69785 -45.14104 9.17322 -44.24832 9.45354 -43.69151 C 9.73387 -43.1347 10.15742 -42.23997 10.40599 -41.6815 C 10.65456 -41.12303 11.02788 -40.2245 11.2451 -39.66632 C 11.46234 -39.10812 11.7852 -38.21407 11.97177 -37.65846 C 12.15836 -37.10287 12.43318 -36.2135 12.58987 -35.66187 C 12.74657 -35.11024 12.97368 -34.22853 13.10114 -33.68259 C 13.22859 -33.13666 13.40944 -32.26558 13.50858 -31.72708 C 13.60771 -31.18858 13.74391 -30.33109 13.81569 -29.80142 C 13.88745 -29.27174 13.98048 -28.42868 14.0259 -27.9095 C 14.07132 -27.39032 14.12283 -26.56688 14.14311 -26.05952 C 14.16339 -25.55217 14.17575 -24.74721 14.1721 -24.25282 C 14.16844 -23.75844 14.14302 -22.97615 14.11673 -22.49629 C 14.09045 -22.01642 14.03015 -21.25856 13.98264 -20.79425 C 13.93512 -20.32993 13.84161 -19.59763 13.77415 -19.14973 C 13.70671 -18.70186 13.58221 -17.99657 13.49646 -17.56621 C 13.4107 -17.13586 13.25867 -16.46017 13.15605 -16.048 C 13.05345 -15.63583 12.87486 -14.989 12.75682 -14.59555 C 12.63878 -14.2021 12.43694 -13.58598 12.30527 -13.2123 C 12.1736 -12.8386 11.95149 -12.25568 11.80785 -11.90215 C 11.66418 -11.5486 11.42393 -10.99745 11.26976 -10.66422 C 11.1156 -10.33096 10.85977 -9.81297 10.69666 -9.50026 C 10.53354 -9.18753 10.26462 -8.7024 10.09412 -8.41026 C 9.92363 -8.11812 9.64377 -7.66591 9.46782 -7.39465 C 9.29187 -7.12341 9.0056 -6.70555 8.82593 -6.45518 C 8.64626 -6.2048 8.35492 -5.82 8.17279 -5.5901 C 7.99065 -5.36021 7.69621 -5.00787 7.51317 -4.79813 C 7.33014 -4.5884 7.03592 -4.26843 6.85355 -4.07838 C 6.67117 -3.88832 6.37878 -3.59908 6.19868 -3.42828 C 6.01859 -3.25749 5.73183 -2.99945 5.55551 -2.84738 C 5.3792 -2.69531 5.09918 -2.46642 4.9279 -2.33223 C 4.75662 -2.19804 4.48607 -1.99731 4.32103 -1.88023 C 4.156 -1.76315 3.89612 -1.58928 3.73842 -1.48834 C 3.58072 -1.3874 3.33328 -1.23845 3.18434 -1.1527 C 3.03539 -1.06694 2.80348 -.94165 2.66486 -.87024 C 2.52623 -.79884 2.31287 -.69624 2.18517 -.63797 C 2.05748 -.57971 1.86047 -.49677 1.7444 -.45026 C 1.62834 -.40376 1.45221 -.3387 1.34863 -.30275 C 1.24507 -.26682 1.08817 -.2178 .99785 -.19118 C .90753 -.16454 .77376 -.1293 .69768 -.1107 C .62158 -.09212 .51071 -.06908 .44939 -.05708 C .38806 -.04507 .30182 -.0311 .25562 -.02422 C .20941 -.01732 .14764 -.01057 .11633 -.00734 C .08502 -.00409 .0459 -.00186 .02983 -.00084 C .01376 .00015 .00041 0 .00041 0 Z "/>
<path transform="matrix(2.7777777,0,0,-2.7777777,403.47776,272.51667)" stroke-width=".3985" stroke-linecap="butt" stroke-miterlimit="10" stroke-linejoin="miter" fill="none" stroke="#000000" d="M -141.73404 0 L 27.88852 0 "/>
<path transform="matrix(2.7777777,0,0,-2.7777777,480.94587,272.51667)" stroke-width=".31879" stroke-linecap="round" stroke-linejoin="round" fill="none" stroke="#000000" d="M -1.19551 1.59401 C -1.09587 .99626 0 .09961 .29886 0 C 0 -.09961 -1.09587 -.99626 -1.19551 -1.59401 "/>
<symbol id="font_0_3">
<path d="M .305 .31300003 C .311 .33900003 .334 .43100003 .404 .43100003 C .409 .43100003 .433 .43100003 .454 .418 C .426 .41300003 .40600003 .388 .40600003 .36400003 C .40600003 .34800003 .417 .32900004 .444 .32900004 C .46600003 .32900004 .498 .34700004 .498 .38700003 C .498 .43900005 .439 .45300005 .405 .45300005 C .347 .45300005 .312 .40000005 .3 .37700004 C .275 .44300003 .221 .45300005 .19200002 .45300005 C .08800001 .45300005 .031000002 .32400004 .031000002 .29900003 C .031000002 .28900004 .041 .28900004 .043000007 .28900004 C .051000008 .28900004 .054000006 .291 .056 .3 C .09 .40600003 .156 .43100003 .19000001 .43100003 C .209 .43100003 .244 .42200003 .244 .36400003 C .244 .33300004 .22700002 .26600004 .19000001 .126 C .17400001 .064 .13900002 .022000002 .095000009 .022000002 C .08900001 .022000002 .06600001 .022000002 .045 .035 C .07000001 .040000004 .09200001 .061 .09200001 .089 C .09200001 .116000007 .07000001 .124000009 .055000009 .124000009 C .025 .124000009 0 .098000008 0 .06600001 C 0 .020000002 .050000006 0 .094000007 0 C .16000001 0 .19600001 .07000001 .19900002 .076000008 C .21100001 .039 .24700003 0 .307 0 C .41 0 .467 .12900001 .467 .15400002 C .467 .16400002 .458 .16400002 .455 .16400002 C .446 .16400002 .444 .16000001 .442 .15300001 C .409 .046 .341 .022000002 .30900003 .022000002 C .27 .022000002 .254 .054 .254 .08800001 C .254 .11000001 .26 .13200002 .271 .17600002 L .305 .31300003 Z "/>
</symbol>
<use xlink:href="#font_0_3" transform="matrix(27.673888,0,0,-27.673888,492.79978,278.7794)"/>
<path transform="matrix(2.7777777,0,0,-2.7777777,403.47776,272.51667)" stroke-width=".3985" stroke-linecap="butt" stroke-miterlimit="10" stroke-linejoin="miter" fill="none" stroke="#000000" d="M 0 -85.04042 L 0 84.58214 "/>
<path transform="matrix(0,-2.7777777,-2.7777777,-0,403.47776,37.566289)" stroke-width=".31879" stroke-linecap="round" stroke-linejoin="round" fill="none" stroke="#000000" d="M -1.19551 1.59401 C -1.09587 .99626 0 .09961 .29886 0 C 0 -.09961 -1.09587 -.99626 -1.19551 -1.59401 "/>
<symbol id="font_0_4">
<path d="M .45700003 .586 C .461 .6 .461 .602 .461 .609 C .461 .62700006 .447 .63600006 .432 .63600006 C .42200003 .63600006 .40600003 .63 .397 .615 C .395 .61 .387 .579 .38300003 .561 C .37600003 .535 .36900003 .508 .363 .48100005 L .318 .301 C .314 .286 .271 .21600002 .20500002 .21600002 C .15400002 .21600002 .143 .26000003 .143 .29700003 C .143 .34300003 .16000001 .40500004 .194 .49300004 C .21000001 .53400006 .21400002 .545 .21400002 .56500008 C .21400002 .61 .18200001 .6470001 .13200002 .6470001 C .037 .6470001 0 .50200006 0 .49300004 C 0 .48300005 .01 .48300005 .012 .48300005 C .022000002 .48300005 .023 .485 .028000003 .50100007 C .055000009 .595 .095000009 .625 .12900001 .625 C .13700001 .625 .15400002 .625 .15400002 .59300008 C .15400002 .568 .14400001 .54200008 .13700001 .523 C .097 .41700004 .079 .36 .079 .31300003 C .079 .224 .142 .194 .201 .194 C .24000003 .194 .274 .21100001 .30200003 .23900002 C .289 .187 .277 .13800001 .237 .08500001 C .21100001 .051 .17300001 .022 .127 .022 C .113000009 .022 .068 .025000006 .051000008 .06400001 C .067 .06400001 .080000009 .06400001 .094000007 .076000008 C .104 .08500001 .11400001 .098000008 .11400001 .117000009 C .11400001 .148 .087000008 .15200001 .07700001 .15200001 C .054000006 .15200001 .021 .136 .021 .087000008 C .021 .037 .065000008 0 .127 0 C .23 0 .333 .091000009 .361 .20400001 L .45700003 .586 Z "/>
</symbol>
<use xlink:href="#font_0_4" transform="matrix(27.673888,0,0,-27.673888,396.99977,26.812033)"/>
<symbol id="font_0_2">
<path d="M .059000009 .07000001 C .056 .055000005 .050000006 .032 .050000006 .027000003 C .050000006 .009000001 .064 0 .079 0 C .091000009 0 .10900001 .008000001 .11600001 .028 C .118 .032 .15200001 .16800002 .156 .18600002 C .164 .21900001 .18200001 .28900004 .18800001 .316 C .19200002 .32900004 .22000002 .37600003 .244 .39800004 C .252 .40500004 .281 .43100003 .324 .43100003 C .35 .43100003 .365 .41900004 .366 .41900004 C .336 .41400004 .314 .39000003 .314 .36400003 C .314 .34800003 .325 .32900004 .352 .32900004 C .379 .32900004 .407 .35200004 .407 .388 C .407 .42300005 .375 .45300005 .324 .45300005 C .259 .45300005 .21500002 .404 .19600001 .37600003 C .18800001 .42100004 .15200001 .45300005 .105000007 .45300005 C .059000009 .45300005 .040000008 .41400004 .031000002 .39600004 C .013000002 .36200003 0 .30200003 0 .29900003 C 0 .28900004 .01 .28900004 .012 .28900004 C .022000002 .28900004 .023 .29000003 .029000001 .31200005 C .046000005 .38300003 .06600001 .43100003 .10200001 .43100003 C .119 .43100003 .133 .42300005 .133 .38500003 C .133 .36400003 .13000001 .35300002 .11700001 .30100004 L .059000009 .07000001 Z "/>
</symbol>
<use xlink:href="#font_0_2" transform="matrix(27.673888,0,0,-27.673888,461.82197,98.78772)"/>
<symbol id="font_1_5">
<path d="M .63100007 .19400002 C .646 .19400002 .665 .19400002 .665 .214 C .665 .23400001 .646 .23400001 .632 .23400001 L .033 .23400001 C .019000002 .23400001 0 .23400001 0 .214 C 0 .19400002 .019000002 .19400002 .034 .19400002 L .63100007 .19400002 M .632 0 C .646 0 .665 0 .665 .02000001 C .665 .040000008 .646 .040000008 .63100007 .040000008 L .034 .040000008 C .019000002 .040000008 0 .040000008 0 .02000001 C 0 0 .019000002 0 .033 0 L .632 0 Z "/>
</symbol>
<symbol id="font_1_4">
<path d="M .07700001 .07700001 L .18300002 .18 C .33900003 .31800003 .39900003 .372 .39900003 .47200004 C .39900003 .586 .30900003 .666 .18700002 .666 C .074 .666 0 .574 0 .485 C 0 .42900003 .05 .42900003 .053000008 .42900003 C .07000001 .42900003 .105000007 .441 .105000007 .48200003 C .105000007 .508 .08700001 .53400006 .052000006 .53400006 C .044000005 .53400006 .042000008 .53400006 .039 .53300008 C .062000004 .59800007 .11600001 .63500007 .17400001 .63500007 C .26500003 .63500007 .308 .554 .308 .47200004 C .308 .39200003 .25800003 .31300003 .20300003 .25100003 L .011000004 .037 C 0 .026 0 .024 0 0 L .37100003 0 L .39900003 .17400001 L .374 .17400001 C .36900003 .14400001 .36200003 .1 .352 .085 C .345 .07700001 .279 .07700001 .257 .07700001 L .07700001 .07700001 Z "/>
</symbol>
<symbol id="font_1_1">
<path d="M .23200003 .00999999 C .23200003 .012999982 .23200003 .014999986 .215 .03199999 C .09 .15799999 .058 .347 .058 .5 C .058 .674 .096 .84800007 .21900001 .97300007 C .23200003 .985 .23200003 .98700007 .23200003 .99 C .23200003 .99700006 .22800002 1 .222 1 C .21200001 1 .12200001 .93200007 .06299999 .805 C .012000002 .69500008 0 .584 0 .5 C 0 .422 .011 .301 .066 .188 C .126 .065 .21200001 0 .222 0 C .22800002 0 .23200003 .0029999912 .23200003 .00999999 Z "/>
</symbol>
<symbol id="font_1_3">
<path d="M .205 .64000007 C .205 .66400006 .205 .666 .18200003 .666 C .120000008 .60200008 .032000007 .60200008 0 .60200008 L 0 .57100006 C .020000004 .57100006 .07900001 .57100006 .13100001 .597 L .13100001 .079 C .13100001 .043 .128 .031000002 .038000004 .031000002 L .0060000049 .031000002 L .0060000049 0 C .04100001 .003 .128 .003 .168 .003 C .20800002 .003 .29500003 .003 .33000005 0 L .33000005 .031000002 L .29800005 .031000002 C .20800002 .031000002 .205 .042000005 .205 .079 L .205 .64000007 Z "/>
</symbol>
<use xlink:href="#font_1_5" transform="matrix(27.673888,0,0,-27.673888,483.51084,94.80268)"/>
<use xlink:href="#font_1_4" transform="matrix(27.673888,0,0,-27.673888,512.5684,98.48331)"/>
<use xlink:href="#font_1_1" transform="matrix(27.673888,0,0,-27.673888,527.76138,105.40178)"/>
<use xlink:href="#font_1_3" transform="matrix(27.673888,0,0,-27.673888,538.24978,98.48331)"/>
<symbol id="font_2_1">
<path d="M .57600006 0 C .59300008 0 .611 0 .611 .019999996 C .611 .040000008 .59300008 .040000008 .57600006 .040000008 L .035000005 .040000008 C .018 .040000008 0 .040000008 0 .019999996 C 0 0 .018 0 .035000005 0 L .57600006 0 Z "/>
</symbol>
<use xlink:href="#font_2_1" transform="matrix(27.673888,0,0,-27.673888,558.05526,92.11832)"/>
<symbol id="font_1_7">
<path d="M .083000008 .22900002 C .083000008 .39200003 .16500002 .43400003 .218 .43400003 C .227 .43400003 .29 .43300004 .32500003 .397 C .284 .39400003 .278 .36400003 .278 .351 C .278 .32500003 .296 .305 .324 .305 C .35 .305 .37 .32200004 .37 .35200004 C .37 .42000003 .294 .45900003 .21700001 .45900003 C .092 .45900003 0 .351 0 .22700002 C 0 .09900001 .099 0 .215 0 C .349 0 .381 .120000008 .381 .13000001 C .381 .14000002 .37100003 .14000002 .368 .14000002 C .359 .14000002 .35700003 .136 .35500003 .13000001 C .326 .037 .261 .025000003 .224 .025000003 C .171 .025000003 .083000008 .068 .083000008 .22900002 Z "/>
</symbol>
<symbol id="font_1_8">
<path d="M .44300003 .22500003 C .44300003 .35300002 .34300003 .45900003 .222 .45900003 C .097 .45900003 0 .35000003 0 .22500003 C 0 .096 .104 0 .22100002 0 C .342 0 .44300003 .098000008 .44300003 .22500003 M .222 .025000003 C .17900002 .025000003 .135 .046 .10800001 .092 C .083000008 .136 .083000008 .19700001 .083000008 .23300003 C .083000008 .272 .083000008 .32600004 .10700001 .37000004 C .134 .41600005 .18100001 .43700005 .22100002 .43700005 C .26500003 .43700005 .30800004 .41500003 .33400003 .37200005 C .36 .32900004 .36 .27100004 .36 .23300003 C .36 .19700001 .36 .143 .33800004 .09900001 C .316 .054 .272 .025000003 .222 .025000003 Z "/>
</symbol>
<symbol id="font_1_9">
<path d="M .17500001 .20500002 C .197 .20100002 .279 .18500002 .279 .113000009 C .279 .062000004 .24400002 .022000002 .16600001 .022000002 C .082 .022000002 .046000005 .079 .027000003 .16400002 C .024000004 .17700002 .023000002 .18100001 .013000004 .18100001 C 0 .18100001 0 .17400001 0 .15600002 L 0 .024 C 0 .0070000009 0 0 .011000004 0 C .016000003 0 .017 .0010000002 .036000007 .020000002 C .038000004 .022000002 .038000004 .024 .056 .043 C .1 .0010000002 .14500001 0 .16600001 0 C .28100003 0 .32700003 .067 .32700003 .13900002 C .32700003 .19200002 .29700003 .22200002 .28500004 .23400001 C .25200004 .26600004 .213 .27400003 .171 .28200004 C .115 .293 .048 .30600003 .048 .36400003 C .048 .39900003 .07400001 .44000004 .16 .44000004 C .27 .44000004 .27500005 .35000003 .277 .31900005 C .27800004 .31000004 .28700004 .31000004 .28900004 .31000004 C .30200003 .31000004 .30200003 .31500004 .30200003 .33400003 L .30200003 .43500004 C .30200003 .45200003 .30200003 .45900003 .291 .45900003 C .286 .45900003 .284 .45900003 .27100004 .44700004 C .26800005 .44300003 .25800003 .43400003 .254 .43100003 C .21600002 .45900003 .17500001 .45900003 .16 .45900003 C .038000004 .45900003 0 .39200003 0 .33600004 C 0 .30100004 .016000003 .27300004 .043000007 .25100003 C .075 .22500003 .10300001 .21900001 .17500001 .20500002 Z "/>
</symbol>
<use xlink:href="#font_1_7" transform="matrix(27.673888,0,0,-27.673888,584.37149,98.78772)"/>
<use xlink:href="#font_1_8" transform="matrix(27.673888,0,0,-27.673888,596.4926,98.78772)"/>
<use xlink:href="#font_1_9" transform="matrix(27.673888,0,0,-27.673888,610.4679,98.78772)"/>
<symbol id="font_0_1">
<path d="M .41300003 .511 C .41300003 .577 .395 .716 .293 .716 C .15400002 .716 0 .43400003 0 .20500002 C 0 .111 .029 0 .12 0 C .261 0 .41300003 .28700004 .41300003 .511 M .106 .374 C .123 .43800003 .143 .518 .183 .589 C .21000001 .638 .24700001 .694 .29200004 .694 C .34100003 .694 .34700004 .63 .34700004 .573 C .34700004 .524 .33900003 .47300003 .31500004 .374 L .106 .374 M .30600003 .34200005 C .29500003 .29600004 .27400003 .21100001 .23600003 .13900002 C .201 .071 .16300002 .022000002 .12 .022000002 C .087000008 .022000002 .066 .051000004 .066 .14400001 C .066 .18600002 .072000008 .24400002 .098 .34200005 L .30600003 .34200005 Z "/>
</symbol>
<use xlink:href="#font_0_1" transform="matrix(27.673888,0,0,-27.673888,626.2595,98.78772)"/>
<symbol id="font_1_2">
<path d="M .232 .5 C .232 .578 .22100002 .699 .16600001 .81200006 C .106 .93500009 .020000004 1 .009999998 1 C .0040000008 1 0 .99600008 0 .99 C 0 .98700007 0 .985 .019000002 .967 C .117000009 .86800006 .174 .709 .174 .5 C .174 .329 .137 .153 .012999997 .026999996 C 0 .014999986 0 .012999982 0 .00999999 C 0 .003999993 .0040000008 0 .009999998 0 C .020000004 0 .11000001 .06799999 .169 .195 C .22 .305 .232 .416 .232 .5 Z "/>
</symbol>
<use xlink:href="#font_1_2" transform="matrix(27.673888,0,0,-27.673888,640.4329,105.40178)"/>
<symbol id="font_1_6">
<path d="M .19700001 .605 C .19700001 .64100006 .20000002 .652 .279 .652 L .305 .652 L .305 .683 C .27 .68 .19100002 .68 .15300001 .68 C .11400001 .68 .035 .68 0 .683 L 0 .652 L .026 .652 C .105000007 .652 .10800001 .64100006 .10800001 .605 L .10800001 .078 C .10800001 .042000005 .105000007 .031000002 .026 .031000002 L 0 .031000002 L 0 0 C .035 .003 .11400001 .003 .15200001 .003 C .19100002 .003 .27 .003 .305 0 L .305 .031000002 L .279 .031000002 C .20000002 .031000002 .19700001 .042000005 .19700001 .078 L .19700001 .605 Z "/>
</symbol>
<use xlink:href="#font_1_6" transform="matrix(27.673888,0,0,-27.673888,419.63597,205.91669)"/>
<use xlink:href="#font_1_6" transform="matrix(27.673888,0,0,-27.673888,414.2554,358.03056)"/>
<use xlink:href="#font_1_6" transform="matrix(27.673888,0,0,-27.673888,425.0205,358.03056)"/>
</g>
</svg>
